<?xml version="1.0" encoding="UTF-8" standalone="no"?>
<svg
   xmlns:dc="http://purl.org/dc/elements/1.1/"
   xmlns:cc="http://creativecommons.org/ns#"
   xmlns:rdf="http://www.w3.org/1999/02/22-rdf-syntax-ns#"
   xmlns:svg="http://www.w3.org/2000/svg"
   xmlns="http://www.w3.org/2000/svg"
   id="svg2"
   xml:space="preserve"
   enable-background="new 0 0 841.89 595.28"
   viewBox="0 0 349.19348 329.70821"
   height="329.70822"
   width="349.19348"
   y="0px"
   x="0px"
   version="1.1"><metadata
     id="metadata116"><rdf:RDF><cc:Work
         rdf:about=""><dc:format>image/svg+xml</dc:format><dc:type
           rdf:resource="http://purl.org/dc/dcmitype/StillImage" /><dc:title></dc:title></cc:Work></rdf:RDF></metadata><defs
     id="defs114" /><g
     transform="translate(-242.31073,-134.49278)"
     style="display:none"
     display="none"
     id="Backing"><rect
       style="display:inline;fill:#991915;stroke:#ffffff;stroke-width:15;stroke-miterlimit:10"
       id="rect5"
       height="505.47501"
       width="772.461"
       stroke-miterlimit="10"
       display="inline"
       y="52.382999"
       x="36.110001" /></g><g
     transform="translate(-242.31073,-134.49278)"
     id="LOGO-Outline"><polygon
       style="fill:#ffffff;stroke:#ffffff;stroke-width:15;stroke-miterlimit:10"
       id="polygon8"
       points="567.767,238.415 569.757,236.856 539.581,198.312 543.739,194.069 518.51,169.334 505.326,182.783 489.688,172.087 492.317,164.297 456.581,152.235 453.802,160.47 443.212,159.217 442.076,145.504 404.393,148.625 403.559,144.997 378.396,150.779 378.192,150.796 378.195,150.825 366.472,153.519 362.818,144.215 322.245,160.147 331.521,183.772 290.25,221.38 305.428,238.037 282.521,227.277 266.485,261.416 280.99,268.229 270.555,267.684 270.124,275.931 256.02,274.8 250.386,345.087 273.462,346.937 282.83,369.401 279.259,372.334 313.022,413.451 320.515,407.299 341.467,420.094 338.453,429.299 393.889,447.451 403.82,417.124 410.917,455.461 477.101,443.208 473.764,425.185 487.985,419.978 500.666,433.939 528.189,408.943 525.417,405.891 525.646,405.459 534.485,409.465 548.354,378.869 555.993,381.432 571.079,336.459 556.588,331.599 575.79,330.049 571.759,280.072 551.948,281.67 581.532,267.822 "
       stroke-miterlimit="10" /></g><g
     transform="translate(-242.31073,-134.49278)"
     id="Darkest"><rect
       style="fill:#1956a3"
       id="rect11"
       height="87.18"
       width="172.438"
       y="254.864"
       x="335.41599" /><rect
       style="fill:#1956a3"
       id="rect13"
       height="37.18"
       width="97.436996"
       transform="matrix(0.6723,0.7403,-0.7403,0.6723,443.132,-230.2857)"
       y="366.78601"
       x="432.95599" /><rect
       style="fill:#1956a3"
       id="rect15"
       height="58.332001"
       width="111.539"
       transform="matrix(0.3112,-0.9503,0.9503,0.3112,-102.0665,629.9276)"
       y="356.20901"
       x="327.75699" /><rect
       style="fill:#1956a3"
       id="rect17"
       height="37.717999"
       width="135.257"
       transform="matrix(0.9051,0.4251,-0.4251,0.9051,147.9572,-116.8176)"
       y="254.24001"
       x="268.08701" /><rect
       style="fill:#1956a3"
       id="rect19"
       height="100.642"
       width="66.665001"
       transform="matrix(0.8254,0.5645,-0.5645,0.8254,216.1915,-235.0734)"
       y="181.702"
       x="454.853" /></g><g
     transform="translate(-242.31073,-134.49278)"
     id="Layer_9"><rect
       style="fill:#337abe"
       id="rect22"
       height="67.306999"
       width="147.32401"
       transform="matrix(0.182,0.9833,-0.9833,0.182,722.8201,-115.1115)"
       y="343.25"
       x="356.93701" /><rect
       style="fill:#337abe"
       id="rect24"
       height="70.512001"
       width="161.53799"
       transform="matrix(0.9968,0.0799,-0.0799,0.9968,26.3477,-25.6528)"
       y="281.14099"
       x="252.94501" /><rect
       style="fill:#337abe"
       id="rect26"
       height="130.12801"
       width="64.102997"
       transform="matrix(0.9966,-0.0826,0.0826,0.9966,-16.1652,35.0292)"
       y="147.92799"
       x="383.45499" /><rect
       style="fill:#337abe"
       id="rect28"
       height="43.589001"
       width="150"
       transform="matrix(0.9057,-0.424,0.424,0.9057,-71.0865,240.2291)"
       y="258.08499"
       x="429.36499" /><rect
       style="fill:#337abe"
       id="rect30"
       height="47.435001"
       width="139.103"
       transform="matrix(0.9481,0.318,-0.318,0.9481,132.9536,-140.7608)"
       y="313.10901"
       x="428.04401" /></g><g
     transform="translate(-242.31073,-134.49278)"
     id="_x36_"><rect
       style="fill:#489fd8"
       id="rect33"
       height="53.202999"
       width="117.308"
       transform="matrix(0.7728,-0.6346,0.6346,0.7728,-148.1405,297.4909)"
       y="329.069"
       x="282.81699" /><rect
       style="fill:#489fd8"
       id="rect35"
       height="57.692001"
       width="119.871"
       transform="matrix(0.6735,0.7391,-0.7391,0.6735,296.9084,-179.7451)"
       y="217.407"
       x="292.005" /><rect
       style="fill:#489fd8"
       id="rect37"
       height="112.82"
       width="52.563999"
       transform="matrix(-0.9931,-0.1174,0.1174,-0.9931,874.2474,485.4962)"
       y="160.582"
       x="425.14499" /><rect
       style="fill:#489fd8"
       id="rect39"
       height="50.139"
       width="144.366"
       transform="matrix(0.9968,-0.0804,0.0804,0.9968,-23.3752,41.3652)"
       y="285.79599"
       x="429.642" /></g><g
     transform="translate(-242.31073,-134.49278)"
     id="_x35_"><rect
       style="fill:#5ec2ef"
       id="rect42"
       height="37.18"
       width="97.436996"
       transform="matrix(-0.9832,-0.1826,0.1826,-0.9832,597.9824,632.3613)"
       y="270.05499"
       x="279.39099" /><rect
       style="fill:#5ec2ef"
       id="rect44"
       height="58.332001"
       width="111.538"
       transform="matrix(0.5212,-0.8534,0.8534,0.5212,-140.3269,490.1633)"
       y="340.97699"
       x="310.90601" /><rect
       style="fill:#5ec2ef"
       id="rect46"
       height="37.716"
       width="135.256"
       transform="matrix(-0.9108,-0.4128,0.4128,-0.9108,768.0531,894.6783)"
       y="345.51199"
       x="413.04599" /><rect
       style="fill:#5ec2ef"
       id="rect48"
       height="130.13"
       width="64.102997"
       transform="matrix(-0.4466,-0.8947,0.8947,-0.4466,438.5016,853.3223)"
       y="225.98399"
       x="451.10001" /><rect
       style="fill:#5ec2ef"
       id="rect50"
       height="43.59"
       width="150.002"
       transform="matrix(-0.3655,-0.9308,0.9308,-0.3655,298.5296,647.4784)"
       y="200.196"
       x="294.94299" /></g><g
     transform="translate(-242.31073,-134.49278)"
     id="_x34_"><rect
       style="fill:#8cd1e9"
       id="rect53"
       height="102.498"
       width="49.675999"
       transform="matrix(0.9971,0.0765,-0.0765,0.9971,18.5828,-31.5198)"
       y="175.41701"
       x="395.65302" /><rect
       style="fill:#8cd1e9"
       id="rect55"
       height="44.118999"
       width="135.272"
       transform="matrix(0.9913,0.1316,-0.1316,0.9913,44.6877,-59.9882)"
       y="286.00601"
       x="408.51501" /><rect
       style="fill:#8cd1e9"
       id="rect57"
       height="35.331001"
       width="149.811"
       transform="matrix(0.7,-0.7141,0.7141,0.7,-24.3668,412.3748)"
       y="217.52699"
       x="403.78101" /><rect
       style="fill:#8cd1e9"
       id="rect59"
       height="122.815"
       width="63.334999"
       transform="matrix(0.939,-0.3438,0.3438,0.939,-100.4876,175.0675)"
       y="309.48999"
       x="411.759" /><rect
       style="fill:#8cd1e9"
       id="rect61"
       height="49.106998"
       width="133.334"
       transform="matrix(0.923,-0.3849,0.3849,0.923,-99.9877,155.1219)"
       y="302.79199"
       x="270.85699" /><rect
       style="fill:#8cd1e9"
       id="rect63"
       height="93.464996"
       width="67.303001"
       transform="matrix(0.6568,-0.7541,0.7541,0.6568,-71.1109,356.7104)"
       y="209.73801"
       x="322.64001" /></g><g
     transform="translate(-242.31073,-134.49278)"
     id="_x33_"><rect
       style="fill:#c0e4f2"
       id="rect66"
       height="60.373001"
       width="132.14301"
       transform="matrix(0.8827,0.4699,-0.4699,0.8827,220.1436,-185.236)"
       y="318.22198"
       x="415.095" /><rect
       style="fill:#c0e4f2"
       id="rect68"
       height="63.247002"
       width="144.892"
       transform="matrix(-0.7874,0.6165,-0.6165,-0.7874,1039.7678,154.6175)"
       y="224.993"
       x="420.77399" /><rect
       style="fill:#c0e4f2"
       id="rect70"
       height="116.72"
       width="57.494999"
       transform="matrix(-0.9746,0.224,-0.224,-0.9746,814.0039,324.3039)"
       y="149.953"
       x="359.86401" /><rect
       style="fill:#c0e4f2"
       id="rect72"
       height="39.096001"
       width="134.54201"
       transform="matrix(-0.9986,-0.0522,0.0522,-0.9986,657.8024,598.6058)"
       y="271.16901"
       x="269.444" /><rect
       style="fill:#c0e4f2"
       id="rect74"
       height="42.548"
       width="124.768"
       transform="matrix(-0.6154,0.7882,-0.7882,-0.6154,874.5349,263.6456)"
       y="323.91101"
       x="310.561" /></g><g
     transform="translate(-242.31073,-134.49278)"
     id="_x32_"><rect
       style="fill:#ddf0fa"
       id="rect77"
       height="37.18"
       width="97.436996"
       transform="matrix(0.0688,0.9976,-0.9976,0.0688,765.9615,-76.7873)"
       y="353.30801"
       x="375.39401" /><polygon
       style="fill:#ddf0fa"
       id="polygon79"
       points="437.079,266.266 410.135,322.208 517.124,373.572 544.066,317.63 " /><rect
       style="fill:#ddf0fa"
       id="rect81"
       height="37.716999"
       width="135.258"
       transform="matrix(-0.3198,0.9475,-0.9475,-0.3198,808.3059,-135.5851)"
       y="203.485"
       x="385.19101" /><rect
       style="fill:#ddf0fa"
       id="rect83"
       height="100.642"
       width="66.666"
       transform="matrix(-0.1641,0.9864,-0.9864,-0.1641,703.9504,-13.0925)"
       y="241.394"
       x="324.19" /></g><g
     transform="translate(-242.31073,-134.49278)"
     id="Lightest"><rect
       style="fill:#f1f9fd"
       id="rect86"
       height="101.214"
       width="50.905998"
       transform="matrix(0.9962,-0.0867,0.0867,0.9962,-19.3713,35.8549)"
       y="190.252"
       x="377.491" /><rect
       style="fill:#f1f9fd"
       id="rect88"
       height="45.235001"
       width="139.92101"
       transform="matrix(0.8367,-0.5476,0.5476,0.8367,-77.741,303.4192)"
       y="259.46701"
       x="400.01599" /><rect
       style="fill:#f1f9fd"
       id="rect90"
       height="101.199"
       width="39.817001"
       transform="matrix(0.9919,0.1271,-0.1271,0.9919,49.3923,-48.2599)"
       y="312.39401"
       x="383.03601" /><rect
       style="fill:#f1f9fd"
       id="rect92"
       height="48.304001"
       width="109.001"
       transform="matrix(0.9772,-0.2125,0.2125,0.9772,-59.5594,85.7128)"
       y="295.767"
       x="314.444" /><rect
       style="fill:#f1f9fd"
       id="rect94"
       height="79.041"
       width="24.207001"
       transform="matrix(0.7145,-0.6996,0.6996,0.7145,-120.938,418.1074)"
       y="317.71301"
       x="439.71701" /></g><g
     transform="translate(-242.31073,-134.49278)"
     id="TextOutline"><path
       style="fill:#ffffff"
       id="path97"
       d="m 506.225,275.421 -5.885,0 c -3.098,0 -5.815,1.504 -7.45,4.115 l -1.911,3.042 -1.873,-3.022 c -1.639,-2.628 -4.359,-4.136 -7.463,-4.136 l -5.884,0 c -4.73,0 -8.436,3.705 -8.436,8.435 l 0,8.538 -3.537,-11.077 c -1.194,-3.582 -4.397,-5.896 -8.159,-5.896 l -8.084,0 c -3.762,0 -6.965,2.314 -8.189,5.988 l -3.349,10.484 c -1.158,-9.714 -8.823,-16.527 -19.099,-16.527 l -15.453,0 c -3.328,0 -6.142,1.838 -7.521,4.574 -3.788,-3.119 -8.864,-4.958 -14.698,-4.958 -7.362,0 -13.438,2.825 -17.292,7.538 -3.894,-4.664 -10.195,-7.538 -17.744,-7.538 -12.316,0 -20.918,7.562 -20.918,18.388 0,3.9 1.112,7.006 2.808,9.492 -1.892,1.534 -3.083,3.886 -3.083,6.566 l 0,0.935 c 0,11.184 8.964,18.994 21.798,18.994 7.513,0 13.667,-2.698 17.457,-7.165 3.867,4.491 9.815,7.165 16.973,7.165 5.839,0 10.919,-1.853 14.708,-4.994 1.383,2.725 4.192,4.554 7.512,4.554 l 5.885,0 c 3.087,0 5.738,-1.578 7.207,-3.99 1.607,2.484 4.327,3.99 7.311,3.99 l 6.215,0 c 1.341,0 2.609,-0.312 3.743,-0.863 1.143,0.555 2.417,0.863 3.741,0.863 l 6.379,0 c 3.765,0 6.969,-2.317 8.161,-5.903 l 0.081,-0.256 2.818,0 0.081,0.256 c 1.192,3.586 4.396,5.903 8.161,5.903 l 6.379,0 c 1.447,0 2.836,-0.367 4.056,-1.025 1.204,0.654 2.595,1.025 4.088,1.025 l 5.884,0 c 4.729,0 8.435,-3.705 8.435,-8.435 l 0,-6.743 1.828,0 0,6.743 c 0,4.729 3.705,8.435 8.435,8.435 l 5.885,0 c 4.729,0 8.435,-3.705 8.435,-8.435 l 0,-36.625 c -0.002,-4.73 -3.707,-8.435 -8.436,-8.435 z m -75.198,32.06 -0.049,0.153 -0.031,-0.065 c 0.029,-0.028 0.052,-0.059 0.08,-0.088 z m -16.945,-12.957 c -0.168,0.2 -0.348,0.39 -0.537,0.57 -0.045,-0.169 -0.069,-0.342 -0.069,-0.515 0,-0.209 0.031,-0.414 0.085,-0.61 0.184,0.176 0.357,0.362 0.521,0.555 z m -33.892,9.002 10e-4,-2.518 c 0.416,0.462 0.89,0.877 1.415,1.234 -0.523,0.373 -0.998,0.803 -1.416,1.284 z" /></g><g
     transform="translate(-242.31073,-134.49278)"
     id="ThinnerText"><g
       id="g100"><path
         style="fill:#1956a3"
         id="path102"
         d="m 330.505,310.362 0,-0.935 c 0,-0.604 0.33,-0.935 0.935,-0.935 l 5.774,0 c 0.605,0 0.935,0.274 0.935,0.715 l 0,0.77 c 0,2.805 2.805,5.225 7.259,5.225 4.18,0 5.72,-2.09 5.72,-4.289 0,-2.805 -2.805,-3.795 -8.029,-5.72 -5.72,-1.979 -12.318,-4.564 -12.318,-11.824 0,-6.764 5.554,-10.888 13.418,-10.888 8.469,0 14.463,4.729 14.463,11.823 l 0,0.55 c 0,0.605 -0.329,0.935 -0.935,0.935 l -5.774,0 c -0.604,0 -0.935,-0.22 -0.935,-0.55 l 0,-0.55 c 0,-2.859 -2.475,-5.554 -7.094,-5.554 -3.52,0 -5.5,1.54 -5.5,4.125 0,2.859 2.42,3.85 8.524,5.994 5.004,1.815 11.934,3.96 11.934,11.438 0,6.709 -5.444,11.164 -14.078,11.164 -8.635,0 -14.299,-4.509 -14.299,-11.494 z" /><path
         style="fill:#1956a3"
         id="path104"
         d="m 364.936,308.493 0,-12.703 c 0,-8.029 5.664,-13.308 14.298,-13.308 8.523,0 14.243,5.059 14.243,12.703 0,0.33 -0.33,0.55 -0.88,0.605 l -5.885,0.385 c -0.604,0.055 -0.989,-0.11 -0.989,-0.275 l 0,-0.33 c 0,-3.85 -2.585,-6.434 -6.489,-6.434 -3.96,0 -6.544,2.584 -6.544,6.434 l 0,13.254 c 0,3.794 2.584,6.379 6.544,6.379 3.904,0 6.489,-2.585 6.489,-6.379 0,-0.386 0.33,-0.66 0.935,-0.605 l 5.885,0.275 c 0.55,0.055 0.935,0.109 0.935,0.274 l 0,0.274 c 0,7.699 -5.72,12.814 -14.243,12.814 -8.635,0 -14.299,-5.335 -14.299,-13.363 z" /><path
         style="fill:#1956a3"
         id="path106"
         d="m 420.756,320.701 -6.764,-14.958 c -0.056,-0.165 -0.221,-0.275 -0.386,-0.275 l -5.004,0 c -0.22,0 -0.33,0.11 -0.33,0.33 l 0,14.684 c 0,0.604 -0.33,0.935 -0.935,0.935 l -5.885,0 c -0.604,0 -0.935,-0.33 -0.935,-0.935 l 0,-36.681 c 0,-0.604 0.33,-0.935 0.935,-0.935 l 15.453,0 c 7.094,0 11.769,4.674 11.769,11.604 0,5.004 -2.694,8.744 -7.039,10.229 -0.22,0.055 -0.274,0.275 -0.165,0.439 l 7.259,15.179 c 0.33,0.604 0.056,1.1 -0.659,1.1 l -6.215,0 c -0.494,-10e-4 -0.879,-0.275 -1.099,-0.716 z m -12.484,-30.796 0,9.239 c 0,0.166 0.11,0.33 0.33,0.33 l 7.149,0 c 3.079,0 5.224,-1.979 5.224,-4.894 0,-2.97 -2.145,-5.004 -5.224,-5.004 l -7.149,0 c -0.219,-0.001 -0.33,0.109 -0.33,0.329 z" /><path
         style="fill:#1956a3"
         id="path108"
         d="m 460.191,320.646 -1.54,-5.113 c -0.055,-0.221 -0.165,-0.275 -0.33,-0.275 l -13.473,0 c -0.165,0 -0.275,0.055 -0.33,0.275 l -1.54,5.113 c -0.165,0.496 -0.495,0.771 -1.045,0.771 l -6.379,0 c -0.66,0 -0.99,-0.44 -0.771,-1.045 l 11.714,-36.68 c 0.165,-0.495 0.495,-0.77 1.045,-0.77 l 8.084,0 c 0.55,0 0.88,0.275 1.045,0.77 l 11.713,36.68 c 0.221,0.604 -0.109,1.045 -0.77,1.045 l -6.379,0 c -0.548,-10e-4 -0.879,-0.275 -1.044,-0.771 z m -13.473,-11.383 9.733,0 c 0.221,0 0.33,-0.109 0.275,-0.385 l -4.949,-16.773 c -0.11,-0.275 -0.33,-0.275 -0.44,0 l -4.894,16.773 c -0.055,0.275 0.055,0.385 0.275,0.385 z" /><path
         style="fill:#1956a3"
         id="path110"
         d="m 474.823,320.481 0,-36.625 c 0,-0.605 0.33,-0.935 0.936,-0.935 l 5.884,0 c 0.495,0 0.825,0.165 1.1,0.605 l 7.975,12.869 c 0.109,0.22 0.33,0.22 0.439,0 l 8.084,-12.869 c 0.275,-0.44 0.605,-0.605 1.1,-0.605 l 5.885,0 c 0.604,0 0.935,0.33 0.935,0.935 l 0,36.625 c 0,0.604 -0.33,0.935 -0.935,0.935 l -5.885,0 c -0.604,0 -0.935,-0.33 -0.935,-0.935 l 0,-23.812 c 0,-0.33 -0.22,-0.385 -0.385,-0.11 l -5.555,9.074 c -0.274,0.439 -0.604,0.604 -1.1,0.604 l -2.805,0 c -0.495,0 -0.825,-0.165 -1.1,-0.604 l -5.499,-9.074 c -0.165,-0.275 -0.386,-0.22 -0.386,0.11 l 0,23.812 c 0,0.604 -0.329,0.935 -0.935,0.935 l -5.884,0 c -0.604,0 -0.934,-0.33 -0.934,-0.935 z" /></g></g></svg>