<?xml version="1.0" encoding="UTF-8" standalone="no"?>
<svg
   xmlns:dc="http://purl.org/dc/elements/1.1/"
   xmlns:cc="http://creativecommons.org/ns#"
   xmlns:rdf="http://www.w3.org/1999/02/22-rdf-syntax-ns#"
   xmlns:svg="http://www.w3.org/2000/svg"
   xmlns="http://www.w3.org/2000/svg"
   xml:space="preserve"
   enable-background="new 0 0 841.89 595.28"
   viewBox="0 0 340.16763 309.96465"
   height="309.96466"
   width="340.16763"
   y="0px"
   x="0px"
   id="Layer_1"
   version="1.1"><metadata
     id="metadata85"><rdf:RDF><cc:Work
         rdf:about=""><dc:format>image/svg+xml</dc:format><dc:type
           rdf:resource="http://purl.org/dc/dcmitype/StillImage" /><dc:title></dc:title></cc:Work></rdf:RDF></metadata><defs
     id="defs83" /><rect
     style="fill:#eaf7fb"
     id="rect3"
     height="87.18"
     width="172.438"
     y="105.37919"
     x="84.0298" /><rect
     style="fill:#eaf7fb"
     id="rect5"
     height="37.180584"
     width="97.438522"
     transform="matrix(0.67228945,0.74028838,-0.74028838,0.67228945,0,0)"
     y="-30.47109"
     x="280.73166" /><rect
     style="fill:#eaf7fb"
     id="rect7"
     height="58.329536"
     width="111.53429"
     transform="matrix(0.31121314,-0.95034014,0.95034014,0.31121314,0,0)"
     y="169.81433"
     x="-238.83972" /><rect
     style="fill:#eaf7fb"
     id="rect9"
     height="37.715416"
     width="135.25133"
     transform="matrix(0.90513801,0.42511785,-0.42511785,0.90513801,0,0)"
     y="57.157932"
     x="61.247059" /><rect
     style="fill:#eaf7fb"
     id="rect11"
     height="100.63925"
     width="66.663177"
     transform="matrix(0.82542253,0.56451541,-0.56451541,0.82542253,0,0)"
     y="-120.59196"
     x="210.30931" /><rect
     style="fill:#d2edf6"
     id="rect13"
     height="67.307098"
     width="147.32422"
     transform="matrix(0.18199974,0.98329858,-0.98329858,0.18199974,0,0)"
     y="-168.72231"
     x="186.67628" /><rect
     style="fill:#d2edf6"
     id="rect15"
     height="70.511795"
     width="161.53754"
     transform="matrix(0.99680287,0.07990023,-0.07990023,0.99680287,0,0)"
     y="128.45044"
     x="15.948117" /><rect
     style="fill:#d2edf6"
     id="rect17"
     height="130.13023"
     width="64.104095"
     transform="matrix(0.9965829,-0.08259858,0.08259858,0.9965829,0,0)"
     y="15.834441"
     x="126.94438" /><rect
     style="fill:#d2edf6"
     id="rect19"
     height="43.590492"
     width="150.00514"
     transform="matrix(0.90566899,-0.42398548,0.42398548,0.90566899,0,0)"
     y="201.45378"
     x="110.87652" /><rect
     style="fill:#d2edf6"
     id="rect21"
     height="47.435417"
     width="139.10422"
     transform="matrix(0.94809165,0.3179972,-0.3179972,0.94809165,0,0)"
     y="79.066933"
     x="225.68535" /><rect
     style="fill:#b0e1ee"
     id="rect23"
     height="48.771461"
     width="107.53561"
     transform="matrix(0.77282434,-0.63461999,0.63461999,0.77282434,0,0)"
     y="192.15102"
     x="-105.76192" /><rect
     style="fill:#b0e1ee"
     id="rect25"
     height="52.88559"
     width="109.88391"
     transform="matrix(0.67354342,0.73914765,-0.73914765,0.67354342,0,0)"
     y="-38.044098"
     x="90.95121" /><rect
     style="fill:#b0e1ee"
     id="rect27"
     height="103.42757"
     width="48.187733"
     transform="matrix(-0.99308492,-0.11739822,0.11739822,-0.99308492,0,0)"
     y="-101.19881"
     x="-229.35497" /><rect
     style="fill:#b0e1ee"
     id="rect29"
     height="45.96571"
     width="132.34993"
     transform="matrix(0.99676292,-0.08039701,0.08039701,0.99676292,0,0)"
     y="155.44492"
     x="164.49139" /><rect
     style="fill:#7ad0e6"
     id="rect31"
     height="29.551371"
     width="77.44297"
     transform="matrix(-0.98318771,-0.18259772,0.18259772,-0.98318771,0,0)"
     y="-134.19017"
     x="-166.33037" /><rect
     style="fill:#7ad0e6"
     id="rect33"
     height="46.36063"
     width="88.646385"
     transform="matrix(0.52121538,-0.85342518,0.85342518,0.52121538,0,0)"
     y="198.55005"
     x="-149.68578" /><rect
     style="fill:#7ad0e6"
     id="rect35"
     height="29.975407"
     width="107.49888"
     transform="matrix(-0.910818,-0.41280816,0.41280816,-0.910818,0,0)"
     y="-105.12492"
     x="-341.55054" /><rect
     style="fill:#7ad0e6"
     id="rect37"
     height="103.42288"
     width="50.946465"
     transform="matrix(-0.44661348,-0.894727,0.894727,-0.44661348,0,0)"
     y="94.687042"
     x="-240.19298" /><rect
     style="fill:#7ad0e6"
     id="rect39"
     height="34.644634"
     width="119.21874"
     transform="matrix(-0.36550386,-0.93080982,0.93080982,-0.36550386,0,0)"
     y="78.061028"
     x="-191.31609" /><rect
     style="fill:#4bc1f0"
     id="rect41"
     height="74.550255"
     width="36.130096"
     transform="matrix(0.99706976,0.07649768,-0.07649768,0.99706976,0,0)"
     y="48.452152"
     x="159.23965" /><rect
     style="fill:#4bc1f0"
     id="rect43"
     height="32.08791"
     width="98.38372"
     transform="matrix(0.99130285,0.13160038,-0.13160038,0.99130285,0,0)"
     y="117.51128"
     x="182.27336" /><rect
     style="fill:#4bc1f0"
     id="rect45"
     height="25.698013"
     width="108.9623"
     transform="matrix(0.70007241,-0.71407186,0.71407186,0.70007241,0,0)"
     y="212.61411"
     x="19.175816" /><rect
     style="fill:#4bc1f0"
     id="rect47"
     height="89.318398"
     width="46.062145"
     transform="matrix(0.93903783,-0.34381385,0.34381385,0.93903783,0,0)"
     y="211.09064"
     x="82.33387" /><rect
     style="fill:#4bc1f0"
     id="rect49"
     height="35.718376"
     width="96.97773"
     transform="matrix(0.92296446,-0.38488518,0.38488518,0.92296446,0,0)"
     y="183.42632"
     x="-13.366697" /><rect
     style="fill:#4bc1f0"
     id="rect51"
     height="67.973335"
     width="48.946087"
     transform="matrix(0.65672571,-0.75412952,0.75412952,0.65672571,0,0)"
     y="138.42677"
     x="-34.400253" /><rect
     style="fill:#409ed7"
     id="rect53"
     height="34.11541"
     width="74.6707"
     transform="matrix(0.88271532,0.46990815,-0.46990815,0.88271532,0,0)"
     y="50.33086"
     x="229.9749" /><rect
     style="fill:#409ed7"
     id="rect55"
     height="35.740269"
     width="81.880905"
     transform="matrix(-0.78737204,0.61647811,-0.61647811,-0.78737204,0,0)"
     y="-252.91777"
     x="-125.01502" /><rect
     style="fill:#409ed7"
     id="rect57"
     height="65.957222"
     width="32.489616"
     transform="matrix(-0.97461152,0.22390265,-0.22390265,-0.97461152,0,0)"
     y="-170.24448"
     x="-140.68507" /><rect
     style="fill:#409ed7"
     id="rect59"
     height="22.093191"
     width="76.025215"
     transform="matrix(-0.99863655,-0.05220191,0.05220191,-0.99863655,0,0)"
     y="-156.93628"
     x="-168.50546" /><rect
     style="fill:#409ed7"
     id="rect61"
     height="24.043716"
     width="70.504166"
     transform="matrix(-0.61540726,0.7882093,-0.7882093,-0.61540726,0,0)"
     y="-237.6387"
     x="21.098354" /><rect
     style="fill:#327dc1"
     id="rect63"
     height="16.862488"
     width="44.191658"
     transform="matrix(0.06880209,0.99763033,-0.99763033,0.06880209,0,0)"
     y="-162.47795"
     x="174.20386" /><rect
     style="fill:#327dc1"
     id="rect65"
     height="26.456814"
     width="50.58873"
     transform="matrix(-0.90124041,-0.43331943,0.43331943,-0.90124041,0,0)"
     y="-76.001335"
     x="-269.42474" /><rect
     style="fill:#327dc1"
     id="rect67"
     height="17.107243"
     width="61.349865"
     transform="matrix(-0.31979548,0.9474866,-0.9474866,-0.31979548,0,0)"
     y="-216.82492"
     x="22.95381" /><rect
     style="fill:#327dc1"
     id="rect69"
     height="45.64603"
     width="30.236696"
     transform="matrix(-0.16410708,0.98644253,-0.98644253,-0.16410708,0,0)"
     y="-182.36496"
     x="109.2377" /><rect
     style="fill:#0b60ad"
     id="rect71"
     height="41.875561"
     width="21.061277"
     transform="matrix(0.99623421,-0.08670298,0.08670298,0.99623421,0,0)"
     y="118.66"
     x="141.81865" /><rect
     style="fill:#0b60ad"
     id="rect73"
     height="18.713371"
     width="57.88805"
     transform="matrix(0.83672818,-0.54761844,0.54761844,0.83672818,0,0)"
     y="215.15962"
     x="53.114689" /><rect
     style="fill:#0b60ad"
     id="rect75"
     height="41.869419"
     width="16.473164"
     transform="matrix(0.99189007,0.12709873,-0.12709873,0.99189007,0,0)"
     y="133.20886"
     x="176.75308" /><rect
     style="fill:#0b60ad"
     id="rect77"
     height="19.985762"
     width="45.099716"
     transform="matrix(0.97716282,-0.21249192,0.21249192,0.97716282,0,0)"
     y="176.82413"
     x="90.167023" /><rect
     style="fill:#0b60ad"
     id="rect79"
     height="32.702477"
     width="10.016452"
     transform="matrix(0.71446773,-0.6996684,0.6996684,0.71446773,0,0)"
     y="236.80754"
     x="4.8063564" /></svg>