<?xml version="1.0" encoding="UTF-8" standalone="no"?>
<!DOCTYPE svg PUBLIC "-//W3C//DTD SVG 1.1//EN"
 "http://www.w3.org/Graphics/SVG/1.1/DTD/svg11.dtd">
<!-- Generated by graphviz version 2.38.0 (20140413.2041)
 -->
<!-- Title: scram::gui::EventDialog::setupData Pages: 1 -->
<svg width="563pt" height="253pt"
 viewBox="0.00 0.00 563.00 253.00" xmlns="http://www.w3.org/2000/svg" xmlns:xlink="http://www.w3.org/1999/xlink">
<g id="graph0" class="graph" transform="scale(1 1) rotate(0) translate(4 249)">
<title>scram::gui::EventDialog::setupData</title>
<polygon fill="white" stroke="none" points="-4,4 -4,-249 559,-249 559,4 -4,4"/>
<!-- Node1 -->
<g id="node1" class="node"><title>Node1</title>
<polygon fill="#bfbfbf" stroke="black" points="0,-129.5 0,-159.5 130,-159.5 130,-129.5 0,-129.5"/>
<text text-anchor="start" x="8" y="-147.5" font-family="Helvetica,sans-Serif" font-size="10.00">scram::gui::EventDialog</text>
<text text-anchor="middle" x="65" y="-136.5" font-family="Helvetica,sans-Serif" font-size="10.00">::setupData</text>
</g>
<!-- Node2 -->
<g id="node2" class="node"><title>Node2</title>
<g id="a_node2"><a xlink:href="classscram_1_1gui_1_1model_1_1Proxy.xhtml#a9302e19d5f845a33bdc31e13b09731c4" target="_top" xlink:title="scram::gui::model::\lProxy::data">
<polygon fill="white" stroke="black" points="332,-214.5 332,-244.5 441,-244.5 441,-214.5 332,-214.5"/>
<text text-anchor="start" x="340" y="-232.5" font-family="Helvetica,sans-Serif" font-size="10.00">scram::gui::model::</text>
<text text-anchor="middle" x="386.5" y="-221.5" font-family="Helvetica,sans-Serif" font-size="10.00">Proxy::data</text>
</a>
</g>
</g>
<!-- Node1&#45;&gt;Node2 -->
<g id="edge1" class="edge"><title>Node1&#45;&gt;Node2</title>
<path fill="none" stroke="midnightblue" d="M122.385,-159.501C178.269,-174.368 263.73,-197.104 321.981,-212.601"/>
<polygon fill="midnightblue" stroke="midnightblue" points="321.242,-216.027 331.806,-215.215 323.042,-209.262 321.242,-216.027"/>
</g>
<!-- Node3 -->
<g id="node3" class="node"><title>Node3</title>
<g id="a_node3"><a xlink:href="classscram_1_1gui_1_1EventDialog.xhtml#abe5bf2e13a1fbb54ce0d8c5a03ad3a05" target="_top" xlink:title="Sets up the dialog with element data. ">
<polygon fill="white" stroke="black" points="166,-129.5 166,-159.5 296,-159.5 296,-129.5 166,-129.5"/>
<text text-anchor="start" x="174" y="-147.5" font-family="Helvetica,sans-Serif" font-size="10.00">scram::gui::EventDialog</text>
<text text-anchor="middle" x="231" y="-136.5" font-family="Helvetica,sans-Serif" font-size="10.00">::setupData</text>
</a>
</g>
</g>
<!-- Node1&#45;&gt;Node3 -->
<g id="edge2" class="edge"><title>Node1&#45;&gt;Node3</title>
<path fill="none" stroke="midnightblue" d="M130.346,-144.5C138.64,-144.5 147.187,-144.5 155.625,-144.5"/>
<polygon fill="midnightblue" stroke="midnightblue" points="155.839,-148 165.839,-144.5 155.839,-141 155.839,-148"/>
</g>
<!-- Node8 -->
<g id="node8" class="node"><title>Node8</title>
<g id="a_node8"><a xlink:href="classscram_1_1gui_1_1model_1_1HouseEvent.xhtml#a5d7cf6bceaeb71186648ee0e30bb9710" target="_top" xlink:title="scram::gui::model::\lHouseEvent::state">
<polygon fill="white" stroke="black" points="176.5,-47.5 176.5,-77.5 285.5,-77.5 285.5,-47.5 176.5,-47.5"/>
<text text-anchor="start" x="184.5" y="-65.5" font-family="Helvetica,sans-Serif" font-size="10.00">scram::gui::model::</text>
<text text-anchor="middle" x="231" y="-54.5" font-family="Helvetica,sans-Serif" font-size="10.00">HouseEvent::state</text>
</a>
</g>
</g>
<!-- Node1&#45;&gt;Node8 -->
<g id="edge8" class="edge"><title>Node1&#45;&gt;Node8</title>
<path fill="none" stroke="midnightblue" d="M96.0801,-129.46C122.698,-116.151 161.715,-96.6426 190.776,-82.112"/>
<polygon fill="midnightblue" stroke="midnightblue" points="192.454,-85.186 199.833,-77.5833 189.324,-78.925 192.454,-85.186"/>
</g>
<!-- Node3&#45;&gt;Node2 -->
<g id="edge4" class="edge"><title>Node3&#45;&gt;Node2</title>
<path fill="none" stroke="midnightblue" d="M254.956,-159.647C274.92,-172.54 304.83,-191.192 332,-205.5 334.882,-207.018 337.88,-208.531 340.919,-210.018"/>
<polygon fill="midnightblue" stroke="midnightblue" points="339.553,-213.243 350.087,-214.373 342.556,-206.921 339.553,-213.243"/>
</g>
<!-- Node4 -->
<g id="node4" class="node"><title>Node4</title>
<g id="a_node4"><a xlink:href="classscram_1_1gui_1_1model_1_1Gate.xhtml#abe97d8835764cc5754d7141c6eaf7c7d" target="_top" xlink:title="scram::gui::model::\lGate::args">
<polygon fill="white" stroke="black" points="332,-165.5 332,-195.5 441,-195.5 441,-165.5 332,-165.5"/>
<text text-anchor="start" x="340" y="-183.5" font-family="Helvetica,sans-Serif" font-size="10.00">scram::gui::model::</text>
<text text-anchor="middle" x="386.5" y="-172.5" font-family="Helvetica,sans-Serif" font-size="10.00">Gate::args</text>
</a>
</g>
</g>
<!-- Node3&#45;&gt;Node4 -->
<g id="edge3" class="edge"><title>Node3&#45;&gt;Node4</title>
<path fill="none" stroke="midnightblue" d="M296.208,-159.559C304.711,-161.553 313.425,-163.597 321.918,-165.588"/>
<polygon fill="midnightblue" stroke="midnightblue" points="321.224,-169.02 331.759,-167.896 322.823,-162.205 321.224,-169.02"/>
</g>
<!-- Node5 -->
<g id="node5" class="node"><title>Node5</title>
<g id="a_node5"><a xlink:href="classscram_1_1gui_1_1model_1_1Gate.xhtml#a8cdf5b54a0e5653d5e2b7eb8c66ceb2e" target="_top" xlink:title="scram::gui::model::\lGate::minNumber">
<polygon fill="white" stroke="black" points="332,-116.5 332,-146.5 441,-146.5 441,-116.5 332,-116.5"/>
<text text-anchor="start" x="340" y="-134.5" font-family="Helvetica,sans-Serif" font-size="10.00">scram::gui::model::</text>
<text text-anchor="middle" x="386.5" y="-123.5" font-family="Helvetica,sans-Serif" font-size="10.00">Gate::minNumber</text>
</a>
</g>
</g>
<!-- Node3&#45;&gt;Node5 -->
<g id="edge5" class="edge"><title>Node3&#45;&gt;Node5</title>
<path fill="none" stroke="midnightblue" d="M296.208,-139.062C304.619,-138.35 313.236,-137.62 321.641,-136.908"/>
<polygon fill="midnightblue" stroke="midnightblue" points="322.09,-140.383 331.759,-136.051 321.5,-133.408 322.09,-140.383"/>
</g>
<!-- Node6 -->
<g id="node6" class="node"><title>Node6</title>
<g id="a_node6"><a xlink:href="classscram_1_1gui_1_1model_1_1Gate.xhtml#af6bdef0f594fd764a96912a4df8eb2f2" target="_top" xlink:title="scram::gui::model::\lGate::type">
<polygon fill="white" stroke="black" points="332,-67.5 332,-97.5 441,-97.5 441,-67.5 332,-67.5"/>
<text text-anchor="start" x="340" y="-85.5" font-family="Helvetica,sans-Serif" font-size="10.00">scram::gui::model::</text>
<text text-anchor="middle" x="386.5" y="-74.5" font-family="Helvetica,sans-Serif" font-size="10.00">Gate::type</text>
</a>
</g>
</g>
<!-- Node3&#45;&gt;Node6 -->
<g id="edge6" class="edge"><title>Node3&#45;&gt;Node6</title>
<path fill="none" stroke="midnightblue" d="M269.158,-129.492C290.12,-121.025 316.508,-110.366 338.852,-101.342"/>
<polygon fill="midnightblue" stroke="midnightblue" points="340.191,-104.576 348.152,-97.5851 337.569,-98.0851 340.191,-104.576"/>
</g>
<!-- Node7 -->
<g id="node7" class="node"><title>Node7</title>
<g id="a_node7"><a xlink:href="translate_8h.xhtml#adfe5f7367036126ec5ca81430fbf4c71" target="_top" xlink:title="Forwards to translate function with a default global context. ">
<polygon fill="white" stroke="black" points="477,-39 477,-58 555,-58 555,-39 477,-39"/>
<text text-anchor="middle" x="516" y="-46" font-family="Helvetica,sans-Serif" font-size="10.00">scram::gui::_</text>
</a>
</g>
</g>
<!-- Node6&#45;&gt;Node7 -->
<g id="edge7" class="edge"><title>Node6&#45;&gt;Node7</title>
<path fill="none" stroke="midnightblue" d="M441.202,-68.1795C450.598,-65.6739 460.293,-63.0886 469.442,-60.6488"/>
<polygon fill="midnightblue" stroke="midnightblue" points="470.355,-64.0277 479.116,-58.0692 468.551,-57.264 470.355,-64.0277"/>
</g>
<!-- Node9 -->
<g id="node9" class="node"><title>Node9</title>
<g id="a_node9"><a xlink:href="model_8h.xhtml#a7fb055e96982ca4cfbf9890bcec60b30" target="_top" xlink:title="Converts Boolean value to a UI string. ">
<polygon fill="white" stroke="black" points="332,-0.5 332,-30.5 441,-30.5 441,-0.5 332,-0.5"/>
<text text-anchor="start" x="340" y="-18.5" font-family="Helvetica,sans-Serif" font-size="10.00">scram::gui::model::</text>
<text text-anchor="middle" x="386.5" y="-7.5" font-family="Helvetica,sans-Serif" font-size="10.00">boolToString</text>
</a>
</g>
</g>
<!-- Node8&#45;&gt;Node9 -->
<g id="edge9" class="edge"><title>Node8&#45;&gt;Node9</title>
<path fill="none" stroke="midnightblue" d="M280.99,-47.4997C295.529,-43.0481 311.604,-38.1262 326.698,-33.5047"/>
<polygon fill="midnightblue" stroke="midnightblue" points="327.911,-36.7934 336.449,-30.519 325.862,-30.1002 327.911,-36.7934"/>
</g>
<!-- Node9&#45;&gt;Node7 -->
<g id="edge11" class="edge"><title>Node9&#45;&gt;Node7</title>
<path fill="none" stroke="midnightblue" d="M441.202,-29.3993C450.201,-31.7286 459.475,-34.1288 468.28,-36.4079"/>
<polygon fill="midnightblue" stroke="midnightblue" points="467.426,-39.802 477.984,-38.9194 469.18,-33.0253 467.426,-39.802"/>
</g>
<!-- Node9&#45;&gt;Node9 -->
<g id="edge10" class="edge"><title>Node9&#45;&gt;Node9</title>
<path fill="none" stroke="midnightblue" d="M364.193,-30.659C358.814,-40.0566 366.25,-49 386.5,-49 398.84,-49 406.421,-45.679 409.244,-40.9579"/>
<polygon fill="midnightblue" stroke="midnightblue" points="412.728,-40.5014 408.807,-30.659 405.734,-40.7985 412.728,-40.5014"/>
</g>
</g>
</svg>
