<?xml version="1.0" encoding="UTF-8" standalone="no"?>
<!DOCTYPE svg PUBLIC "-//W3C//DTD SVG 1.1//EN"
 "http://www.w3.org/Graphics/SVG/1.1/DTD/svg11.dtd">
<!-- Generated by graphviz version 2.38.0 (20140413.2041)
 -->
<!-- Title: scram::gui::model::Model Pages: 1 -->
<svg width="326pt" height="618pt"
 viewBox="0.00 0.00 325.50 618.00" xmlns="http://www.w3.org/2000/svg" xmlns:xlink="http://www.w3.org/1999/xlink">
<g id="graph0" class="graph" transform="scale(1 1) rotate(0) translate(4 614)">
<title>scram::gui::model::Model</title>
<polygon fill="white" stroke="none" points="-4,4 -4,-614 321.5,-614 321.5,4 -4,4"/>
<!-- Node1 -->
<g id="node1" class="node"><title>Node1</title>
<polygon fill="#bfbfbf" stroke="black" points="90,-0.5 90,-321.5 199,-321.5 199,-0.5 90,-0.5"/>
<text text-anchor="start" x="98" y="-309.5" font-family="Helvetica,sans-Serif" font-size="10.00">scram::gui::model::</text>
<text text-anchor="middle" x="144.5" y="-298.5" font-family="Helvetica,sans-Serif" font-size="10.00">Model</text>
<polyline fill="none" stroke="black" points="90,-291.5 199,-291.5 "/>
<text text-anchor="middle" x="144.5" y="-279.5" font-family="Helvetica,sans-Serif" font-size="10.00"> </text>
<polyline fill="none" stroke="black" points="90,-272.5 199,-272.5 "/>
<text text-anchor="start" x="98" y="-260.5" font-family="Helvetica,sans-Serif" font-size="10.00">+ Model()</text>
<text text-anchor="start" x="98" y="-249.5" font-family="Helvetica,sans-Serif" font-size="10.00">+ table()</text>
<text text-anchor="start" x="98" y="-238.5" font-family="Helvetica,sans-Serif" font-size="10.00">+ parents()</text>
<text text-anchor="start" x="98" y="-227.5" font-family="Helvetica,sans-Serif" font-size="10.00">+ houseEvents()</text>
<text text-anchor="start" x="98" y="-216.5" font-family="Helvetica,sans-Serif" font-size="10.00">+ basicEvents()</text>
<text text-anchor="start" x="98" y="-205.5" font-family="Helvetica,sans-Serif" font-size="10.00">+ gates()</text>
<text text-anchor="start" x="98" y="-194.5" font-family="Helvetica,sans-Serif" font-size="10.00">+ faultTrees()</text>
<text text-anchor="start" x="98" y="-183.5" font-family="Helvetica,sans-Serif" font-size="10.00">+ faultTrees()</text>
<text text-anchor="start" x="98" y="-172.5" font-family="Helvetica,sans-Serif" font-size="10.00">* m_houseEvents</text>
<text text-anchor="start" x="98" y="-161.5" font-family="Helvetica,sans-Serif" font-size="10.00">* m_basicEvents</text>
<text text-anchor="start" x="98" y="-150.5" font-family="Helvetica,sans-Serif" font-size="10.00">* m_gates</text>
<text text-anchor="start" x="98" y="-139.5" font-family="Helvetica,sans-Serif" font-size="10.00">* houseEvents()</text>
<text text-anchor="start" x="98" y="-128.5" font-family="Helvetica,sans-Serif" font-size="10.00">* basicEvents()</text>
<text text-anchor="start" x="98" y="-117.5" font-family="Helvetica,sans-Serif" font-size="10.00">* gates()</text>
<text text-anchor="start" x="98" y="-106.5" font-family="Helvetica,sans-Serif" font-size="10.00">* faultTrees()</text>
<text text-anchor="start" x="98" y="-95.5" font-family="Helvetica,sans-Serif" font-size="10.00">* faultTrees()</text>
<text text-anchor="start" x="98" y="-84.5" font-family="Helvetica,sans-Serif" font-size="10.00">* added()</text>
<text text-anchor="start" x="98" y="-73.5" font-family="Helvetica,sans-Serif" font-size="10.00">* added()</text>
<text text-anchor="start" x="98" y="-62.5" font-family="Helvetica,sans-Serif" font-size="10.00">* added()</text>
<text text-anchor="start" x="98" y="-51.5" font-family="Helvetica,sans-Serif" font-size="10.00">* added()</text>
<text text-anchor="start" x="98" y="-40.5" font-family="Helvetica,sans-Serif" font-size="10.00">* removed()</text>
<text text-anchor="start" x="98" y="-29.5" font-family="Helvetica,sans-Serif" font-size="10.00">* removed()</text>
<text text-anchor="start" x="98" y="-18.5" font-family="Helvetica,sans-Serif" font-size="10.00">* removed()</text>
<text text-anchor="start" x="98" y="-7.5" font-family="Helvetica,sans-Serif" font-size="10.00">* removed()</text>
</g>
<!-- Node2 -->
<g id="node2" class="node"><title>Node2</title>
<g id="a_node2"><a xlink:href="classscram_1_1gui_1_1model_1_1Element.xhtml" target="_top" xlink:title="The base proxy Element model for mef::Element. ">
<polygon fill="white" stroke="black" points="0,-365 0,-455 109,-455 109,-365 0,-365"/>
<text text-anchor="start" x="8" y="-443" font-family="Helvetica,sans-Serif" font-size="10.00">scram::gui::model::</text>
<text text-anchor="middle" x="54.5" y="-432" font-family="Helvetica,sans-Serif" font-size="10.00">Element</text>
<polyline fill="none" stroke="black" points="0,-425 109,-425 "/>
<text text-anchor="middle" x="54.5" y="-413" font-family="Helvetica,sans-Serif" font-size="10.00"> </text>
<polyline fill="none" stroke="black" points="0,-406 109,-406 "/>
<text text-anchor="start" x="8" y="-394" font-family="Helvetica,sans-Serif" font-size="10.00">+ id()</text>
<text text-anchor="start" x="8" y="-383" font-family="Helvetica,sans-Serif" font-size="10.00">+ label()</text>
<text text-anchor="start" x="8" y="-372" font-family="Helvetica,sans-Serif" font-size="10.00"># Element()</text>
</a>
</g>
</g>
<!-- Node2&#45;&gt;Node1 -->
<g id="edge1" class="edge"><title>Node2&#45;&gt;Node1</title>
<path fill="none" stroke="midnightblue" d="M74.1494,-355.073C78.9579,-341.877 84.3395,-327.107 89.9276,-311.771"/>
<polygon fill="none" stroke="midnightblue" points="70.7253,-354.247 70.5902,-364.841 77.3023,-356.644 70.7253,-354.247"/>
</g>
<!-- Node3 -->
<g id="node3" class="node"><title>Node3</title>
<polygon fill="white" stroke="#bfbfbf" points="27,-530.5 27,-587.5 82,-587.5 82,-530.5 27,-530.5"/>
<text text-anchor="middle" x="54.5" y="-575.5" font-family="Helvetica,sans-Serif" font-size="10.00">QObject</text>
<polyline fill="none" stroke="#bfbfbf" points="27,-568.5 82,-568.5 "/>
<text text-anchor="middle" x="54.5" y="-556.5" font-family="Helvetica,sans-Serif" font-size="10.00"> </text>
<polyline fill="none" stroke="#bfbfbf" points="27,-549.5 82,-549.5 "/>
<text text-anchor="middle" x="54.5" y="-537.5" font-family="Helvetica,sans-Serif" font-size="10.00"> </text>
</g>
<!-- Node3&#45;&gt;Node2 -->
<g id="edge2" class="edge"><title>Node3&#45;&gt;Node2</title>
<path fill="none" stroke="midnightblue" d="M54.5,-520.158C54.5,-500.345 54.5,-475.969 54.5,-455.282"/>
<polygon fill="none" stroke="midnightblue" points="51.0001,-520.35 54.5,-530.35 58.0001,-520.35 51.0001,-520.35"/>
</g>
<!-- Node4 -->
<g id="node4" class="node"><title>Node4</title>
<g id="a_node4"><a xlink:href="classscram_1_1gui_1_1model_1_1Proxy.xhtml" target="_top" xlink:title="{scram::gui::model::\lProxy\&lt; Model, mef::Model \&gt;\n||+ data()\l+ data()\l* data()\l* data()\l}">
<polygon fill="white" stroke="black" points="127,-359.5 127,-460.5 280,-460.5 280,-359.5 127,-359.5"/>
<text text-anchor="start" x="135" y="-448.5" font-family="Helvetica,sans-Serif" font-size="10.00">scram::gui::model::</text>
<text text-anchor="middle" x="203.5" y="-437.5" font-family="Helvetica,sans-Serif" font-size="10.00">Proxy&lt; Model, mef::Model &gt;</text>
<polyline fill="none" stroke="black" points="127,-430.5 280,-430.5 "/>
<text text-anchor="middle" x="203.5" y="-418.5" font-family="Helvetica,sans-Serif" font-size="10.00"> </text>
<polyline fill="none" stroke="black" points="127,-411.5 280,-411.5 "/>
<text text-anchor="start" x="135" y="-399.5" font-family="Helvetica,sans-Serif" font-size="10.00">+ data()</text>
<text text-anchor="start" x="135" y="-388.5" font-family="Helvetica,sans-Serif" font-size="10.00">+ data()</text>
<text text-anchor="start" x="135" y="-377.5" font-family="Helvetica,sans-Serif" font-size="10.00">* data()</text>
<text text-anchor="start" x="135" y="-366.5" font-family="Helvetica,sans-Serif" font-size="10.00">* data()</text>
</a>
</g>
</g>
<!-- Node4&#45;&gt;Node1 -->
<g id="edge3" class="edge"><title>Node4&#45;&gt;Node1</title>
<path fill="none" stroke="midnightblue" d="M189.26,-349.386C187.182,-340.687 184.965,-331.406 182.671,-321.802"/>
<polygon fill="none" stroke="midnightblue" points="185.904,-350.4 191.631,-359.313 192.712,-348.773 185.904,-350.4"/>
</g>
<!-- Node5 -->
<g id="node5" class="node"><title>Node5</title>
<g id="a_node5"><a xlink:href="classscram_1_1gui_1_1model_1_1Proxy.xhtml" target="_top" xlink:title="Provides the type and data of the origin for Proxy Elements. ">
<polygon fill="white" stroke="black" points="149,-508.5 149,-609.5 258,-609.5 258,-508.5 149,-508.5"/>
<text text-anchor="start" x="157" y="-597.5" font-family="Helvetica,sans-Serif" font-size="10.00">scram::gui::model::</text>
<text text-anchor="middle" x="203.5" y="-586.5" font-family="Helvetica,sans-Serif" font-size="10.00">Proxy&lt; E, T &gt;</text>
<polyline fill="none" stroke="black" points="149,-579.5 258,-579.5 "/>
<text text-anchor="middle" x="203.5" y="-567.5" font-family="Helvetica,sans-Serif" font-size="10.00"> </text>
<polyline fill="none" stroke="black" points="149,-560.5 258,-560.5 "/>
<text text-anchor="start" x="157" y="-548.5" font-family="Helvetica,sans-Serif" font-size="10.00">+ data()</text>
<text text-anchor="start" x="157" y="-537.5" font-family="Helvetica,sans-Serif" font-size="10.00">+ data()</text>
<text text-anchor="start" x="157" y="-526.5" font-family="Helvetica,sans-Serif" font-size="10.00">* data()</text>
<text text-anchor="start" x="157" y="-515.5" font-family="Helvetica,sans-Serif" font-size="10.00">* data()</text>
</a>
</g>
</g>
<!-- Node5&#45;&gt;Node4 -->
<g id="edge4" class="edge"><title>Node5&#45;&gt;Node4</title>
<path fill="none" stroke="orange" d="M203.5,-497.986C203.5,-485.601 203.5,-472.687 203.5,-460.716"/>
<polygon fill="orange" stroke="orange" points="200,-498.232 203.5,-508.233 207,-498.233 200,-498.232"/>
<text text-anchor="middle" x="260.5" y="-482" font-family="Helvetica,sans-Serif" font-size="10.00"> &lt; Model, mef::Model &gt;</text>
</g>
</g>
</svg>
