<?xml version="1.0" encoding="UTF-8" standalone="no"?>
<!DOCTYPE svg PUBLIC "-//W3C//DTD SVG 1.1//EN"
 "http://www.w3.org/Graphics/SVG/1.1/DTD/svg11.dtd">
<!-- Generated by graphviz version 2.38.0 (20140413.2041)
 -->
<!-- Title: scram::gui::EventDialog::expression Pages: 1 -->
<svg width="472pt" height="88pt"
 viewBox="0.00 0.00 472.00 88.00" xmlns="http://www.w3.org/2000/svg" xmlns:xlink="http://www.w3.org/1999/xlink">
<g id="graph0" class="graph" transform="scale(1 1) rotate(0) translate(4 84)">
<title>scram::gui::EventDialog::expression</title>
<polygon fill="white" stroke="none" points="-4,4 -4,-84 468,-84 468,4 -4,4"/>
<!-- Node1 -->
<g id="node1" class="node"><title>Node1</title>
<polygon fill="#bfbfbf" stroke="black" points="0,-24.5 0,-54.5 130,-54.5 130,-24.5 0,-24.5"/>
<text text-anchor="start" x="8" y="-42.5" font-family="Helvetica,sans-Serif" font-size="10.00">scram::gui::EventDialog</text>
<text text-anchor="middle" x="65" y="-31.5" font-family="Helvetica,sans-Serif" font-size="10.00">::expression</text>
</g>
<!-- Node2 -->
<g id="node2" class="node"><title>Node2</title>
<g id="a_node2"><a xlink:href="classscram_1_1gui_1_1EventDialog.xhtml#a1522bc4b9c9c0ef7d82b3a27d1778108" target="_top" xlink:title="scram::gui::EventDialog\l::booleanConstant">
<polygon fill="white" stroke="black" points="166.5,-49.5 166.5,-79.5 296.5,-79.5 296.5,-49.5 166.5,-49.5"/>
<text text-anchor="start" x="174.5" y="-67.5" font-family="Helvetica,sans-Serif" font-size="10.00">scram::gui::EventDialog</text>
<text text-anchor="middle" x="231.5" y="-56.5" font-family="Helvetica,sans-Serif" font-size="10.00">::booleanConstant</text>
</a>
</g>
</g>
<!-- Node1&#45;&gt;Node2 -->
<g id="edge1" class="edge"><title>Node1&#45;&gt;Node2</title>
<path fill="none" stroke="midnightblue" d="M140.222,-50.7799C148.936,-52.1043 157.772,-53.4472 166.333,-54.7482"/>
<polygon fill="midnightblue" stroke="midnightblue" points="140.483,-47.2796 130.071,-49.2372 139.432,-54.2001 140.483,-47.2796"/>
</g>
<!-- Node4 -->
<g id="node4" class="node"><title>Node4</title>
<g id="a_node4"><a xlink:href="classscram_1_1gui_1_1MainWindow.xhtml#ad8913c9fbbde4c878dd545047cc72d1f" target="_top" xlink:title="Specialization to construct basic event out of event editor data. ">
<polygon fill="white" stroke="black" points="166,-0.5 166,-30.5 297,-30.5 297,-0.5 166,-0.5"/>
<text text-anchor="start" x="174" y="-18.5" font-family="Helvetica,sans-Serif" font-size="10.00">scram::gui::MainWindow</text>
<text text-anchor="middle" x="231.5" y="-7.5" font-family="Helvetica,sans-Serif" font-size="10.00">::extract</text>
</a>
</g>
</g>
<!-- Node1&#45;&gt;Node4 -->
<g id="edge3" class="edge"><title>Node1&#45;&gt;Node4</title>
<path fill="none" stroke="midnightblue" d="M140.067,-28.6939C148.648,-27.442 157.349,-26.1725 165.791,-24.9408"/>
<polygon fill="midnightblue" stroke="midnightblue" points="139.461,-25.2451 130.071,-30.1523 140.472,-32.1718 139.461,-25.2451"/>
</g>
<!-- Node3 -->
<g id="node3" class="node"><title>Node3</title>
<g id="a_node3"><a xlink:href="classscram_1_1gui_1_1MainWindow.xhtml#ab81cf0fefbe4b8177047a462453eb6b5" target="_top" xlink:title="Specialization to construct house event out of event editor data. ">
<polygon fill="white" stroke="black" points="333,-49.5 333,-79.5 464,-79.5 464,-49.5 333,-49.5"/>
<text text-anchor="start" x="341" y="-67.5" font-family="Helvetica,sans-Serif" font-size="10.00">scram::gui::MainWindow</text>
<text text-anchor="middle" x="398.5" y="-56.5" font-family="Helvetica,sans-Serif" font-size="10.00">::extract</text>
</a>
</g>
</g>
<!-- Node2&#45;&gt;Node3 -->
<g id="edge2" class="edge"><title>Node2&#45;&gt;Node3</title>
<path fill="none" stroke="midnightblue" d="M306.87,-64.5C315.544,-64.5 324.339,-64.5 332.867,-64.5"/>
<polygon fill="midnightblue" stroke="midnightblue" points="306.766,-61.0001 296.766,-64.5 306.766,-68.0001 306.766,-61.0001"/>
</g>
</g>
</svg>
