<?xml version="1.0" encoding="UTF-8" standalone="no"?>
<!DOCTYPE svg PUBLIC "-//W3C//DTD SVG 1.1//EN"
 "http://www.w3.org/Graphics/SVG/1.1/DTD/svg11.dtd">
<!-- Generated by graphviz version 2.38.0 (20140413.2041)
 -->
<!-- Title: scram::gui::model::HouseEvent::state Pages: 1 -->
<svg width="376pt" height="57pt"
 viewBox="0.00 0.00 376.00 57.00" xmlns="http://www.w3.org/2000/svg" xmlns:xlink="http://www.w3.org/1999/xlink">
<g id="graph0" class="graph" transform="scale(1 1) rotate(0) translate(4 53)">
<title>scram::gui::model::HouseEvent::state</title>
<polygon fill="white" stroke="none" points="-4,4 -4,-53 372,-53 372,4 -4,4"/>
<!-- Node1 -->
<g id="node1" class="node"><title>Node1</title>
<polygon fill="#bfbfbf" stroke="black" points="0,-0.5 0,-30.5 109,-30.5 109,-0.5 0,-0.5"/>
<text text-anchor="start" x="8" y="-18.5" font-family="Helvetica,sans-Serif" font-size="10.00">scram::gui::model::</text>
<text text-anchor="middle" x="54.5" y="-7.5" font-family="Helvetica,sans-Serif" font-size="10.00">HouseEvent::state</text>
</g>
<!-- Node2 -->
<g id="node2" class="node"><title>Node2</title>
<g id="a_node2"><a xlink:href="model_8h.xhtml#a7fb055e96982ca4cfbf9890bcec60b30" target="_top" xlink:title="Converts Boolean value to a UI string. ">
<polygon fill="white" stroke="black" points="145,-0.5 145,-30.5 254,-30.5 254,-0.5 145,-0.5"/>
<text text-anchor="start" x="153" y="-18.5" font-family="Helvetica,sans-Serif" font-size="10.00">scram::gui::model::</text>
<text text-anchor="middle" x="199.5" y="-7.5" font-family="Helvetica,sans-Serif" font-size="10.00">boolToString</text>
</a>
</g>
</g>
<!-- Node1&#45;&gt;Node2 -->
<g id="edge1" class="edge"><title>Node1&#45;&gt;Node2</title>
<path fill="none" stroke="midnightblue" d="M109.155,-15.5C117.381,-15.5 125.944,-15.5 134.368,-15.5"/>
<polygon fill="midnightblue" stroke="midnightblue" points="134.545,-19.0001 144.545,-15.5 134.544,-12.0001 134.545,-19.0001"/>
</g>
<!-- Node2&#45;&gt;Node2 -->
<g id="edge2" class="edge"><title>Node2&#45;&gt;Node2</title>
<path fill="none" stroke="midnightblue" d="M177.193,-30.659C171.814,-40.0566 179.25,-49 199.5,-49 211.84,-49 219.421,-45.679 222.244,-40.9579"/>
<polygon fill="midnightblue" stroke="midnightblue" points="225.728,-40.5014 221.807,-30.659 218.734,-40.7985 225.728,-40.5014"/>
</g>
<!-- Node3 -->
<g id="node3" class="node"><title>Node3</title>
<g id="a_node3"><a xlink:href="translate_8h.xhtml#adfe5f7367036126ec5ca81430fbf4c71" target="_top" xlink:title="Forwards to translate function with a default global context. ">
<polygon fill="white" stroke="black" points="290,-6 290,-25 368,-25 368,-6 290,-6"/>
<text text-anchor="middle" x="329" y="-13" font-family="Helvetica,sans-Serif" font-size="10.00">scram::gui::_</text>
</a>
</g>
</g>
<!-- Node2&#45;&gt;Node3 -->
<g id="edge3" class="edge"><title>Node2&#45;&gt;Node3</title>
<path fill="none" stroke="midnightblue" d="M254.202,-15.5C262.624,-15.5 271.286,-15.5 279.58,-15.5"/>
<polygon fill="midnightblue" stroke="midnightblue" points="279.843,-19.0001 289.843,-15.5 279.843,-12.0001 279.843,-19.0001"/>
</g>
</g>
</svg>
