<?xml version="1.0" encoding="UTF-8" standalone="no"?>
<!DOCTYPE svg PUBLIC "-//W3C//DTD SVG 1.1//EN"
 "http://www.w3.org/Graphics/SVG/1.1/DTD/svg11.dtd">
<!-- Generated by graphviz version 2.38.0 (20140413.2041)
 -->
<!-- Title: scram::gui::model::Element::label Pages: 1 -->
<svg width="285pt" height="235pt"
 viewBox="0.00 0.00 285.00 235.00" xmlns="http://www.w3.org/2000/svg" xmlns:xlink="http://www.w3.org/1999/xlink">
<g id="graph0" class="graph" transform="scale(1 1) rotate(0) translate(4 231)">
<title>scram::gui::model::Element::label</title>
<polygon fill="white" stroke="none" points="-4,4 -4,-231 281,-231 281,4 -4,4"/>
<!-- Node1 -->
<g id="node1" class="node"><title>Node1</title>
<polygon fill="#bfbfbf" stroke="black" points="0,-98.5 0,-128.5 109,-128.5 109,-98.5 0,-98.5"/>
<text text-anchor="start" x="8" y="-116.5" font-family="Helvetica,sans-Serif" font-size="10.00">scram::gui::model::</text>
<text text-anchor="middle" x="54.5" y="-105.5" font-family="Helvetica,sans-Serif" font-size="10.00">Element::label</text>
</g>
<!-- Node2 -->
<g id="node2" class="node"><title>Node2</title>
<g id="a_node2"><a xlink:href="classscram_1_1gui_1_1MainWindow.xhtml#a8b334126b832c74b1034891efb5a416f" target="_top" xlink:title="Specialization to construct gate out of event editor data. ">
<polygon fill="white" stroke="black" points="145.5,-196.5 145.5,-226.5 276.5,-226.5 276.5,-196.5 145.5,-196.5"/>
<text text-anchor="start" x="153.5" y="-214.5" font-family="Helvetica,sans-Serif" font-size="10.00">scram::gui::MainWindow</text>
<text text-anchor="middle" x="211" y="-203.5" font-family="Helvetica,sans-Serif" font-size="10.00">::extract</text>
</a>
</g>
</g>
<!-- Node1&#45;&gt;Node2 -->
<g id="edge1" class="edge"><title>Node1&#45;&gt;Node2</title>
<path fill="none" stroke="midnightblue" d="M77.7833,-135.59C94.9846,-151.687 119.998,-173.109 145,-187.5 150.734,-190.801 157.005,-193.791 163.316,-196.452"/>
<polygon fill="midnightblue" stroke="midnightblue" points="80.113,-132.975 70.4579,-128.613 75.2853,-138.044 80.113,-132.975"/>
</g>
<!-- Node3 -->
<g id="node3" class="node"><title>Node3</title>
<g id="a_node3"><a xlink:href="classscram_1_1gui_1_1EventDialog.xhtml#aa7277e2f2b20420880a2a875680eaffa" target="_top" xlink:title="Finds fault tree container of the gate. ">
<polygon fill="white" stroke="black" points="146,-147.5 146,-177.5 276,-177.5 276,-147.5 146,-147.5"/>
<text text-anchor="start" x="154" y="-165.5" font-family="Helvetica,sans-Serif" font-size="10.00">scram::gui::EventDialog</text>
<text text-anchor="middle" x="211" y="-154.5" font-family="Helvetica,sans-Serif" font-size="10.00">::getFaultTree</text>
</a>
</g>
</g>
<!-- Node1&#45;&gt;Node3 -->
<g id="edge2" class="edge"><title>Node1&#45;&gt;Node3</title>
<path fill="none" stroke="midnightblue" d="M113.072,-131.759C129.368,-136.927 146.915,-142.492 162.541,-147.448"/>
<polygon fill="midnightblue" stroke="midnightblue" points="113.706,-128.288 103.116,-128.601 111.59,-134.961 113.706,-128.288"/>
</g>
<!-- Node4 -->
<g id="node4" class="node"><title>Node4</title>
<g id="a_node4"><a xlink:href="classscram_1_1gui_1_1diagram_1_1Event.xhtml#ab9341662591da72ff584e8a741cdee75" target="_top" xlink:title="Required standard member functions of QGraphicsItem interface. ">
<polygon fill="white" stroke="black" points="154.5,-98.5 154.5,-128.5 267.5,-128.5 267.5,-98.5 154.5,-98.5"/>
<text text-anchor="start" x="162.5" y="-116.5" font-family="Helvetica,sans-Serif" font-size="10.00">scram::gui::diagram</text>
<text text-anchor="middle" x="211" y="-105.5" font-family="Helvetica,sans-Serif" font-size="10.00">::Event::paint</text>
</a>
</g>
</g>
<!-- Node1&#45;&gt;Node4 -->
<g id="edge3" class="edge"><title>Node1&#45;&gt;Node4</title>
<path fill="none" stroke="midnightblue" d="M119.22,-113.5C130.889,-113.5 142.983,-113.5 154.392,-113.5"/>
<polygon fill="midnightblue" stroke="midnightblue" points="119.103,-110 109.103,-113.5 119.103,-117 119.103,-110"/>
</g>
<!-- Node5 -->
<g id="node5" class="node"><title>Node5</title>
<g id="a_node5"><a xlink:href="classscram_1_1gui_1_1model_1_1Element_1_1SetLabel.xhtml#a3ef4cffa2ba4d8878da5784dc878dc89" target="_top" xlink:title="Applies changes. ">
<polygon fill="white" stroke="black" points="145,-49.5 145,-79.5 277,-79.5 277,-49.5 145,-49.5"/>
<text text-anchor="start" x="153" y="-67.5" font-family="Helvetica,sans-Serif" font-size="10.00">scram::gui::model::</text>
<text text-anchor="middle" x="211" y="-56.5" font-family="Helvetica,sans-Serif" font-size="10.00">Element::SetLabel::redo</text>
</a>
</g>
</g>
<!-- Node1&#45;&gt;Node5 -->
<g id="edge4" class="edge"><title>Node1&#45;&gt;Node5</title>
<path fill="none" stroke="midnightblue" d="M113.072,-95.2409C129.368,-90.0727 146.915,-84.5076 162.541,-79.5516"/>
<polygon fill="midnightblue" stroke="midnightblue" points="111.59,-92.0391 103.116,-98.3986 113.706,-98.7116 111.59,-92.0391"/>
</g>
<!-- Node6 -->
<g id="node6" class="node"><title>Node6</title>
<g id="a_node6"><a xlink:href="classscram_1_1gui_1_1model_1_1Element_1_1SetId.xhtml#a4399dee61e3f769bf47f30873fd5cd8a" target="_top" xlink:title="Applies the new name to the element. ">
<polygon fill="white" stroke="black" points="153.5,-0.5 153.5,-30.5 268.5,-30.5 268.5,-0.5 153.5,-0.5"/>
<text text-anchor="start" x="161.5" y="-18.5" font-family="Helvetica,sans-Serif" font-size="10.00">scram::gui::model::</text>
<text text-anchor="middle" x="211" y="-7.5" font-family="Helvetica,sans-Serif" font-size="10.00">Element::SetId::redo</text>
</a>
</g>
</g>
<!-- Node1&#45;&gt;Node6 -->
<g id="edge5" class="edge"><title>Node1&#45;&gt;Node6</title>
<path fill="none" stroke="midnightblue" d="M78.2062,-91.5373C95.4516,-75.7501 120.334,-54.81 145,-40.5 151.275,-36.8597 158.179,-33.5525 165.073,-30.6222"/>
<polygon fill="midnightblue" stroke="midnightblue" points="75.7835,-89.0108 70.8482,-98.386 80.5527,-94.1347 75.7835,-89.0108"/>
</g>
</g>
</svg>
