<?xml version="1.0" encoding="UTF-8" standalone="no"?>
<!DOCTYPE svg PUBLIC "-//W3C//DTD SVG 1.1//EN"
 "http://www.w3.org/Graphics/SVG/1.1/DTD/svg11.dtd">
<!-- Generated by graphviz version 2.38.0 (20140413.2041)
 -->
<!-- Title: scram::gui::model::BasicEvent::SetFlavor Pages: 1 -->
<svg width="128pt" height="276pt"
 viewBox="0.00 0.00 128.00 276.00" xmlns="http://www.w3.org/2000/svg" xmlns:xlink="http://www.w3.org/1999/xlink">
<g id="graph0" class="graph" transform="scale(1 1) rotate(0) translate(4 272)">
<title>scram::gui::model::BasicEvent::SetFlavor</title>
<polygon fill="white" stroke="none" points="-4,4 -4,-272 124,-272 124,4 -4,4"/>
<!-- Node1 -->
<g id="node1" class="node"><title>Node1</title>
<polygon fill="#bfbfbf" stroke="black" points="-7.10543e-15,-0.5 -7.10543e-15,-79.5 120,-79.5 120,-0.5 -7.10543e-15,-0.5"/>
<text text-anchor="start" x="8" y="-67.5" font-family="Helvetica,sans-Serif" font-size="10.00">scram::gui::model::</text>
<text text-anchor="middle" x="60" y="-56.5" font-family="Helvetica,sans-Serif" font-size="10.00">BasicEvent::SetFlavor</text>
<polyline fill="none" stroke="black" points="-7.10543e-15,-49.5 120,-49.5 "/>
<text text-anchor="middle" x="60" y="-37.5" font-family="Helvetica,sans-Serif" font-size="10.00"> </text>
<polyline fill="none" stroke="black" points="-7.10543e-15,-30.5 120,-30.5 "/>
<text text-anchor="start" x="8" y="-18.5" font-family="Helvetica,sans-Serif" font-size="10.00">+ SetFlavor()</text>
<text text-anchor="start" x="8" y="-7.5" font-family="Helvetica,sans-Serif" font-size="10.00">+ redo()</text>
</g>
<!-- Node2 -->
<g id="node2" class="node"><title>Node2</title>
<g id="a_node2"><a xlink:href="classscram_1_1gui_1_1Involution.xhtml" target="_top" xlink:title="The function inverse is the function itself (i.e., f(f(x)) = id(x)). ">
<polygon fill="white" stroke="black" points="0.5,-116.5 0.5,-173.5 119.5,-173.5 119.5,-116.5 0.5,-116.5"/>
<text text-anchor="middle" x="60" y="-161.5" font-family="Helvetica,sans-Serif" font-size="10.00">scram::gui::Involution</text>
<polyline fill="none" stroke="black" points="0.5,-154.5 119.5,-154.5 "/>
<text text-anchor="middle" x="60" y="-142.5" font-family="Helvetica,sans-Serif" font-size="10.00"> </text>
<polyline fill="none" stroke="black" points="0.5,-135.5 119.5,-135.5 "/>
<text text-anchor="start" x="8.5" y="-123.5" font-family="Helvetica,sans-Serif" font-size="10.00">+ undo()</text>
</a>
</g>
</g>
<!-- Node2&#45;&gt;Node1 -->
<g id="edge1" class="edge"><title>Node2&#45;&gt;Node1</title>
<path fill="none" stroke="midnightblue" d="M60,-106.156C60,-97.4733 60,-88.2318 60,-79.5205"/>
<polygon fill="none" stroke="midnightblue" points="56.5001,-106.398 60,-116.398 63.5001,-106.398 56.5001,-106.398"/>
</g>
<!-- Node3 -->
<g id="node3" class="node"><title>Node3</title>
<polygon fill="white" stroke="#bfbfbf" points="10,-210.5 10,-267.5 110,-267.5 110,-210.5 10,-210.5"/>
<text text-anchor="middle" x="60" y="-255.5" font-family="Helvetica,sans-Serif" font-size="10.00">QUndoCommand</text>
<polyline fill="none" stroke="#bfbfbf" points="10,-248.5 110,-248.5 "/>
<text text-anchor="middle" x="60" y="-236.5" font-family="Helvetica,sans-Serif" font-size="10.00"> </text>
<polyline fill="none" stroke="#bfbfbf" points="10,-229.5 110,-229.5 "/>
<text text-anchor="middle" x="60" y="-217.5" font-family="Helvetica,sans-Serif" font-size="10.00"> </text>
</g>
<!-- Node3&#45;&gt;Node2 -->
<g id="edge2" class="edge"><title>Node3&#45;&gt;Node2</title>
<path fill="none" stroke="midnightblue" d="M60,-200.209C60,-191.293 60,-181.951 60,-173.584"/>
<polygon fill="none" stroke="midnightblue" points="56.5001,-200.397 60,-210.397 63.5001,-200.397 56.5001,-200.397"/>
</g>
</g>
</svg>
