<?xml version="1.0" encoding="UTF-8" standalone="no"?>
<!DOCTYPE svg PUBLIC "-//W3C//DTD SVG 1.1//EN"
 "http://www.w3.org/Graphics/SVG/1.1/DTD/svg11.dtd">
<!-- Generated by graphviz version 2.38.0 (20140413.2041)
 -->
<!-- Title: scram::gui::diagram::TransferIn::TransferIn Pages: 1 -->
<svg width="447pt" height="61pt"
 viewBox="0.00 0.00 447.00 61.00" xmlns="http://www.w3.org/2000/svg" xmlns:xlink="http://www.w3.org/1999/xlink">
<g id="graph0" class="graph" transform="scale(1 1) rotate(0) translate(4 57)">
<title>scram::gui::diagram::TransferIn::TransferIn</title>
<polygon fill="white" stroke="none" points="-4,4 -4,-57 443,-57 443,4 -4,4"/>
<!-- Node1 -->
<g id="node1" class="node"><title>Node1</title>
<polygon fill="#bfbfbf" stroke="black" points="0,-0.5 0,-30.5 120,-30.5 120,-0.5 0,-0.5"/>
<text text-anchor="start" x="8" y="-18.5" font-family="Helvetica,sans-Serif" font-size="10.00">scram::gui::diagram</text>
<text text-anchor="middle" x="60" y="-7.5" font-family="Helvetica,sans-Serif" font-size="10.00">::TransferIn::TransferIn</text>
</g>
<!-- Node2 -->
<g id="node2" class="node"><title>Node2</title>
<g id="a_node2"><a xlink:href="classscram_1_1gui_1_1diagram_1_1Event.xhtml#a689aedbf5244a97df88a76993241991d" target="_top" xlink:title="Releases the current derived class item, and sets the new one. ">
<polygon fill="white" stroke="black" points="156,-22.5 156,-52.5 290,-52.5 290,-22.5 156,-22.5"/>
<text text-anchor="start" x="164" y="-40.5" font-family="Helvetica,sans-Serif" font-size="10.00">scram::gui::diagram</text>
<text text-anchor="middle" x="223" y="-29.5" font-family="Helvetica,sans-Serif" font-size="10.00">::Event::setTypeGraphics</text>
</a>
</g>
</g>
<!-- Node1&#45;&gt;Node2 -->
<g id="edge1" class="edge"><title>Node1&#45;&gt;Node2</title>
<path fill="none" stroke="midnightblue" d="M120.036,-23.5671C128.422,-24.7129 137.143,-25.9046 145.797,-27.0871"/>
<polygon fill="midnightblue" stroke="midnightblue" points="145.52,-30.5817 155.902,-28.4679 146.468,-23.6462 145.52,-30.5817"/>
</g>
<!-- Node3 -->
<g id="node3" class="node"><title>Node3</title>
<g id="a_node3"><a xlink:href="classscram_1_1gui_1_1diagram_1_1Event.xhtml#a29eb38d7ae8c6258de2a2bcc69f79046" target="_top" xlink:title="scram::gui::diagram\l::Event::units">
<polygon fill="white" stroke="black" points="326,-0.5 326,-30.5 439,-30.5 439,-0.5 326,-0.5"/>
<text text-anchor="start" x="334" y="-18.5" font-family="Helvetica,sans-Serif" font-size="10.00">scram::gui::diagram</text>
<text text-anchor="middle" x="382.5" y="-7.5" font-family="Helvetica,sans-Serif" font-size="10.00">::Event::units</text>
</a>
</g>
</g>
<!-- Node1&#45;&gt;Node3 -->
<g id="edge3" class="edge"><title>Node1&#45;&gt;Node3</title>
<path fill="none" stroke="midnightblue" d="M120.035,-14.0643C131.941,-13.8291 144.37,-13.6224 156,-13.5 215.552,-12.8732 230.448,-12.8492 290,-13.5 298.336,-13.5911 307.099,-13.7289 315.763,-13.8903"/>
<polygon fill="midnightblue" stroke="midnightblue" points="315.791,-17.3915 325.858,-14.0894 315.929,-10.3928 315.791,-17.3915"/>
</g>
<!-- Node2&#45;&gt;Node3 -->
<g id="edge2" class="edge"><title>Node2&#45;&gt;Node3</title>
<path fill="none" stroke="midnightblue" d="M290.338,-28.2338C298.705,-27.065 307.265,-25.8694 315.625,-24.7016"/>
<polygon fill="midnightblue" stroke="midnightblue" points="316.278,-28.1444 325.698,-23.2946 315.31,-21.2117 316.278,-28.1444"/>
</g>
</g>
</svg>
