<?xml version="1.0" encoding="UTF-8" standalone="no"?>
<!DOCTYPE svg PUBLIC "-//W3C//DTD SVG 1.1//EN"
 "http://www.w3.org/Graphics/SVG/1.1/DTD/svg11.dtd">
<!-- Generated by graphviz version 2.38.0 (20140413.2041)
 -->
<!-- Title: scram::gui::EventDialog::EventDialog Pages: 1 -->
<svg width="418pt" height="263pt"
 viewBox="0.00 0.00 418.00 262.80" xmlns="http://www.w3.org/2000/svg" xmlns:xlink="http://www.w3.org/1999/xlink">
<g id="graph0" class="graph" transform="scale(1 1) rotate(0) translate(4 258.798)">
<title>scram::gui::EventDialog::EventDialog</title>
<polygon fill="white" stroke="none" points="-4,4 -4,-258.798 414,-258.798 414,4 -4,4"/>
<!-- Node1 -->
<g id="node1" class="node"><title>Node1</title>
<polygon fill="#bfbfbf" stroke="black" points="0,-122.5 0,-152.5 130,-152.5 130,-122.5 0,-122.5"/>
<text text-anchor="start" x="8" y="-140.5" font-family="Helvetica,sans-Serif" font-size="10.00">scram::gui::EventDialog</text>
<text text-anchor="middle" x="65" y="-129.5" font-family="Helvetica,sans-Serif" font-size="10.00">::EventDialog</text>
</g>
<!-- Node2 -->
<g id="node2" class="node"><title>Node2</title>
<g id="a_node2"><a xlink:href="translate_8h.xhtml#adfe5f7367036126ec5ca81430fbf4c71" target="_top" xlink:title="Forwards to translate function with a default global context. ">
<polygon fill="white" stroke="black" points="332,-126 332,-145 410,-145 410,-126 332,-126"/>
<text text-anchor="middle" x="371" y="-133" font-family="Helvetica,sans-Serif" font-size="10.00">scram::gui::_</text>
</a>
</g>
</g>
<!-- Node1&#45;&gt;Node2 -->
<g id="edge1" class="edge"><title>Node1&#45;&gt;Node2</title>
<path fill="none" stroke="midnightblue" d="M75.4157,-152.531C90.9554,-175.739 124.428,-219.402 166,-236.5 219.435,-258.476 244.467,-262.628 296,-236.5 329.777,-219.375 351.853,-178.781 362.511,-154.594"/>
<polygon fill="midnightblue" stroke="midnightblue" points="365.867,-155.639 366.493,-145.062 359.408,-152.94 365.867,-155.639"/>
</g>
<!-- Node3 -->
<g id="node3" class="node"><title>Node3</title>
<g id="a_node3"><a xlink:href="classscram_1_1gui_1_1Validator.xhtml#ade5c7bef2410bb4bc6bb05d88ee99793" target="_top" xlink:title="scram::gui::Validator\l::name">
<polygon fill="white" stroke="black" points="173.5,-196.5 173.5,-226.5 288.5,-226.5 288.5,-196.5 173.5,-196.5"/>
<text text-anchor="start" x="181.5" y="-214.5" font-family="Helvetica,sans-Serif" font-size="10.00">scram::gui::Validator</text>
<text text-anchor="middle" x="231" y="-203.5" font-family="Helvetica,sans-Serif" font-size="10.00">::name</text>
</a>
</g>
</g>
<!-- Node1&#45;&gt;Node3 -->
<g id="edge2" class="edge"><title>Node1&#45;&gt;Node3</title>
<path fill="none" stroke="midnightblue" d="M94.0732,-152.527C113.913,-162.902 141.269,-176.715 166,-187.5 169.916,-189.208 173.996,-190.91 178.117,-192.574"/>
<polygon fill="midnightblue" stroke="midnightblue" points="177.161,-195.959 187.748,-196.373 179.73,-189.447 177.161,-195.959"/>
</g>
<!-- Node4 -->
<g id="node4" class="node"><title>Node4</title>
<g id="a_node4"><a xlink:href="classscram_1_1gui_1_1EventDialog.xhtml#a0c144e53e44d5b9524d60698cb356653" target="_top" xlink:title="scram::gui::EventDialog\l::name">
<polygon fill="white" stroke="black" points="166,-147.5 166,-177.5 296,-177.5 296,-147.5 166,-147.5"/>
<text text-anchor="start" x="174" y="-165.5" font-family="Helvetica,sans-Serif" font-size="10.00">scram::gui::EventDialog</text>
<text text-anchor="middle" x="231" y="-154.5" font-family="Helvetica,sans-Serif" font-size="10.00">::name</text>
</a>
</g>
</g>
<!-- Node1&#45;&gt;Node4 -->
<g id="edge3" class="edge"><title>Node1&#45;&gt;Node4</title>
<path fill="none" stroke="midnightblue" d="M130.346,-147.309C138.731,-148.587 147.375,-149.905 155.903,-151.205"/>
<polygon fill="midnightblue" stroke="midnightblue" points="155.426,-154.672 165.839,-152.719 156.481,-147.752 155.426,-154.672"/>
</g>
<!-- Node5 -->
<g id="node5" class="node"><title>Node5</title>
<g id="a_node5"><a xlink:href="classscram_1_1gui_1_1Validator.xhtml#a5faf89430d1d02672239887e5fe3d0f7" target="_top" xlink:title="scram::gui::Validator\l::nonNegative">
<polygon fill="white" stroke="black" points="173.5,-98.5 173.5,-128.5 288.5,-128.5 288.5,-98.5 173.5,-98.5"/>
<text text-anchor="start" x="181.5" y="-116.5" font-family="Helvetica,sans-Serif" font-size="10.00">scram::gui::Validator</text>
<text text-anchor="middle" x="231" y="-105.5" font-family="Helvetica,sans-Serif" font-size="10.00">::nonNegative</text>
</a>
</g>
</g>
<!-- Node1&#45;&gt;Node5 -->
<g id="edge4" class="edge"><title>Node1&#45;&gt;Node5</title>
<path fill="none" stroke="midnightblue" d="M130.346,-128.083C141.091,-126.511 152.26,-124.877 163.068,-123.295"/>
<polygon fill="midnightblue" stroke="midnightblue" points="163.905,-126.71 173.293,-121.799 162.892,-119.784 163.905,-126.71"/>
</g>
<!-- Node6 -->
<g id="node6" class="node"><title>Node6</title>
<g id="a_node6"><a xlink:href="classscram_1_1gui_1_1Validator.xhtml#a212add9e7bae0f86c226e7183d8fa04e" target="_top" xlink:title="scram::gui::Validator\l::probability">
<polygon fill="white" stroke="black" points="173.5,-49.5 173.5,-79.5 288.5,-79.5 288.5,-49.5 173.5,-49.5"/>
<text text-anchor="start" x="181.5" y="-67.5" font-family="Helvetica,sans-Serif" font-size="10.00">scram::gui::Validator</text>
<text text-anchor="middle" x="231" y="-56.5" font-family="Helvetica,sans-Serif" font-size="10.00">::probability</text>
</a>
</g>
</g>
<!-- Node1&#45;&gt;Node6 -->
<g id="edge5" class="edge"><title>Node1&#45;&gt;Node6</title>
<path fill="none" stroke="midnightblue" d="M95.9224,-122.411C115.651,-112.644 142.157,-99.8619 166,-89.5 170.733,-87.443 175.695,-85.3671 180.672,-83.3376"/>
<polygon fill="midnightblue" stroke="midnightblue" points="182.232,-86.4831 190.207,-79.509 179.623,-79.9872 182.232,-86.4831"/>
</g>
<!-- Node7 -->
<g id="node7" class="node"><title>Node7</title>
<g id="a_node7"><a xlink:href="classscram_1_1gui_1_1EventDialog.xhtml#a38bf6ffaa2fb4575a8ddeb52a1a953a4" target="_top" xlink:title="Triggers validation of the current data. ">
<polygon fill="white" stroke="black" points="166,-0.5 166,-30.5 296,-30.5 296,-0.5 166,-0.5"/>
<text text-anchor="start" x="174" y="-18.5" font-family="Helvetica,sans-Serif" font-size="10.00">scram::gui::EventDialog</text>
<text text-anchor="middle" x="231" y="-7.5" font-family="Helvetica,sans-Serif" font-size="10.00">::validate</text>
</a>
</g>
</g>
<!-- Node1&#45;&gt;Node7 -->
<g id="edge6" class="edge"><title>Node1&#45;&gt;Node7</title>
<path fill="none" stroke="midnightblue" d="M78.1069,-122.456C95.5849,-101.581 129.784,-63.7791 166,-40.5 169.092,-38.5126 172.367,-36.6414 175.735,-34.8873"/>
<polygon fill="midnightblue" stroke="midnightblue" points="177.319,-38.0093 184.812,-30.518 174.283,-31.7021 177.319,-38.0093"/>
</g>
<!-- Node7&#45;&gt;Node2 -->
<g id="edge7" class="edge"><title>Node7&#45;&gt;Node2</title>
<path fill="none" stroke="midnightblue" d="M279.345,-30.5999C285.219,-33.4349 290.932,-36.7208 296,-40.5 324.196,-61.5243 347.291,-95.9431 359.813,-117.072"/>
<polygon fill="midnightblue" stroke="midnightblue" points="356.783,-118.824 364.802,-125.749 362.851,-115.335 356.783,-118.824"/>
</g>
</g>
</svg>
