<?xml version="1.0" encoding="UTF-8" standalone="no"?>
<!DOCTYPE svg PUBLIC "-//W3C//DTD SVG 1.1//EN"
 "http://www.w3.org/Graphics/SVG/1.1/DTD/svg11.dtd">
<!-- Generated by graphviz version 2.38.0 (20140413.2041)
 -->
<!-- Title: scram::gui::EventDialog::setupData Pages: 1 -->
<!--zoomable 210 -->
<svg id="main" version="1.1" xmlns="http://www.w3.org/2000/svg" xmlns:xlink="http://www.w3.org/1999/xlink" xml:space="preserve" onload="init(evt)">
<style type="text/css"><![CDATA[
.edge:hover path { stroke: red; }
.edge:hover polygon { stroke: red; fill: red; }
]]></style>
<script type="text/javascript"><![CDATA[
var edges = document.getElementsByTagName('g');
if (edges && edges.length) {
  for (var i=0;i<edges.length;i++) {
    if (edges[i].id.substr(0,4)=='edge') {
      edges[i].setAttribute('class','edge');
    }
  }
}
]]></script>
        <defs>
                <circle id="rim" cx="0" cy="0" r="7"/>
                <circle id="rim2" cx="0" cy="0" r="3.5"/>
                <g id="zoomPlus">
                        <use xlink:href="#rim" fill="#404040">
                                <set attributeName="fill" to="#808080" begin="zoomplus.mouseover" end="zoomplus.mouseout"/>
                        </use>
                        <path d="M-4,0h8M0,-4v8" fill="none" stroke="white" stroke-width="1.5" pointer-events="none"/>
                </g>
                <g id="zoomMin">
                        <use xlink:href="#rim" fill="#404040">
                                <set attributeName="fill" to="#808080" begin="zoomminus.mouseover" end="zoomminus.mouseout"/>
                        </use>
                        <path d="M-4,0h8" fill="none" stroke="white" stroke-width="1.5" pointer-events="none"/>
                </g>
                <g id="dirArrow">
                        <path fill="none" stroke="white" stroke-width="1.5" d="M0,-3.0v7 M-2.5,-0.5L0,-3.0L2.5,-0.5"/>
                </g>
               <g id="resetDef">
                       <use xlink:href="#rim2" fill="#404040">
                               <set attributeName="fill" to="#808080" begin="reset.mouseover" end="reset.mouseout"/>
                       </use>
               </g>
        </defs>

<script type="text/javascript">
var viewWidth = 538;
var viewHeight = 210;
var sectionId = 'dynsection-3';
</script>
<script xlink:href="svgpan.js"/>
<svg id="graph" class="graph">
<g id="viewport">
<title>scram::gui::EventDialog::setupData</title>
<polygon fill="white" stroke="none" points="-4,4 -4,-206 534,-206 534,4 -4,4"/>
<!-- Node1 -->
<g id="node1" class="node"><title>Node1</title>
<polygon fill="#bfbfbf" stroke="black" points="0,-93.5 0,-123.5 130,-123.5 130,-93.5 0,-93.5"/>
<text text-anchor="start" x="8" y="-111.5" font-family="Helvetica,sans-Serif" font-size="10.00">scram::gui::EventDialog</text>
<text text-anchor="middle" x="65" y="-100.5" font-family="Helvetica,sans-Serif" font-size="10.00">::setupData</text>
</g>
<!-- Node2 -->
<g id="node2" class="node"><title>Node2</title>
<g id="a_node2"><a xlink:href="classscram_1_1gui_1_1MainWindow.xhtml#a8b334126b832c74b1034891efb5a416f" target="_top" xlink:title="Specialization to construct gate out of event editor data. ">
<polygon fill="white" stroke="black" points="399,-171.5 399,-201.5 530,-201.5 530,-171.5 399,-171.5"/>
<text text-anchor="start" x="407" y="-189.5" font-family="Helvetica,sans-Serif" font-size="10.00">scram::gui::MainWindow</text>
<text text-anchor="middle" x="464.5" y="-178.5" font-family="Helvetica,sans-Serif" font-size="10.00">::extract</text>
</a>
</g>
</g>
<!-- Node1&#45;&gt;Node2 -->
<g id="edge1" class="edge"><title>Node1&#45;&gt;Node2</title>
<path fill="none" stroke="midnightblue" d="M89.2668,-130.41C108.28,-146.769 136.715,-167.889 166,-177.5 242.959,-202.757 337.211,-200.458 398.726,-194.88"/>
<polygon fill="midnightblue" stroke="midnightblue" points="91.5302,-127.739 81.72,-123.738 86.8937,-132.983 91.5302,-127.739"/>
</g>
<!-- Node3 -->
<g id="node3" class="node"><title>Node3</title>
<g id="a_node3"><a xlink:href="classscram_1_1gui_1_1EventDialog.xhtml#a4b0937931be261ac68e45aee3062daf9" target="_top" xlink:title="scram::gui::EventDialog\l::faultTree">
<polygon fill="white" stroke="black" points="199.5,-137.5 199.5,-167.5 329.5,-167.5 329.5,-137.5 199.5,-137.5"/>
<text text-anchor="start" x="207.5" y="-155.5" font-family="Helvetica,sans-Serif" font-size="10.00">scram::gui::EventDialog</text>
<text text-anchor="middle" x="264.5" y="-144.5" font-family="Helvetica,sans-Serif" font-size="10.00">::faultTree</text>
</a>
</g>
</g>
<!-- Node1&#45;&gt;Node3 -->
<g id="edge2" class="edge"><title>Node1&#45;&gt;Node3</title>
<path fill="none" stroke="midnightblue" d="M139.895,-124.963C159.442,-129.317 180.378,-133.982 199.361,-138.211"/>
<polygon fill="midnightblue" stroke="midnightblue" points="140.644,-121.544 130.123,-122.786 139.122,-128.376 140.644,-121.544"/>
</g>
<!-- Node4 -->
<g id="node4" class="node"><title>Node4</title>
<g id="a_node4"><a xlink:href="classscram_1_1gui_1_1EventDialog.xhtml#aa7277e2f2b20420880a2a875680eaffa" target="_top" xlink:title="Finds fault tree container of the gate. ">
<polygon fill="white" stroke="black" points="399.5,-112.5 399.5,-142.5 529.5,-142.5 529.5,-112.5 399.5,-112.5"/>
<text text-anchor="start" x="407.5" y="-130.5" font-family="Helvetica,sans-Serif" font-size="10.00">scram::gui::EventDialog</text>
<text text-anchor="middle" x="464.5" y="-119.5" font-family="Helvetica,sans-Serif" font-size="10.00">::getFaultTree</text>
</a>
</g>
</g>
<!-- Node1&#45;&gt;Node4 -->
<g id="edge5" class="edge"><title>Node1&#45;&gt;Node4</title>
<path fill="none" stroke="midnightblue" d="M140.561,-112.064C215.125,-115.628 328.6,-121.052 399.285,-124.431"/>
<polygon fill="midnightblue" stroke="midnightblue" points="140.463,-108.555 130.307,-111.574 140.128,-115.547 140.463,-108.555"/>
</g>
<!-- Node5 -->
<g id="node5" class="node"><title>Node5</title>
<g id="a_node5"><a xlink:href="mainwindow_8cpp.xhtml#ad0f4088e2f2115f81473cbb2a6db09ed" target="_top" xlink:title="Specialization to show gates as trees in tables. ">
<polygon fill="white" stroke="black" points="166,-49.5 166,-79.5 363,-79.5 363,-49.5 166,-49.5"/>
<text text-anchor="start" x="174" y="-67.5" font-family="Helvetica,sans-Serif" font-size="10.00">scram::gui::constructElement</text>
<text text-anchor="middle" x="264.5" y="-56.5" font-family="Helvetica,sans-Serif" font-size="10.00">Table&lt; model::GateContainerModel &gt;</text>
</a>
</g>
</g>
<!-- Node1&#45;&gt;Node5 -->
<g id="edge6" class="edge"><title>Node1&#45;&gt;Node5</title>
<path fill="none" stroke="midnightblue" d="M139.9,-92.0361C158.286,-87.9401 177.9,-83.5703 195.962,-79.5464"/>
<polygon fill="midnightblue" stroke="midnightblue" points="139.122,-88.6236 130.123,-94.2145 140.644,-95.4561 139.122,-88.6236"/>
</g>
<!-- Node6 -->
<g id="node6" class="node"><title>Node6</title>
<g id="a_node6"><a xlink:href="classscram_1_1gui_1_1EventDialog.xhtml#a355f7af9b2cef48f4e52ffc4a44cb020" target="_top" xlink:title="Sets up the dialog with element data. ">
<polygon fill="white" stroke="black" points="199.5,-0.5 199.5,-30.5 329.5,-30.5 329.5,-0.5 199.5,-0.5"/>
<text text-anchor="start" x="207.5" y="-18.5" font-family="Helvetica,sans-Serif" font-size="10.00">scram::gui::EventDialog</text>
<text text-anchor="middle" x="264.5" y="-7.5" font-family="Helvetica,sans-Serif" font-size="10.00">::setupData</text>
</a>
</g>
</g>
<!-- Node1&#45;&gt;Node6 -->
<g id="edge7" class="edge"><title>Node1&#45;&gt;Node6</title>
<path fill="none" stroke="midnightblue" d="M92.0272,-87.0736C111.378,-72.1048 138.997,-52.6913 166,-40.5 176.512,-35.7542 188.084,-31.7937 199.471,-28.5291"/>
<polygon fill="midnightblue" stroke="midnightblue" points="89.6988,-84.4522 84.0084,-93.3891 94.03,-89.9514 89.6988,-84.4522"/>
</g>
<!-- Node3&#45;&gt;Node2 -->
<g id="edge4" class="edge"><title>Node3&#45;&gt;Node2</title>
<path fill="none" stroke="midnightblue" d="M339.533,-165.213C358.969,-168.55 379.779,-172.124 398.691,-175.371"/>
<polygon fill="midnightblue" stroke="midnightblue" points="339.96,-161.735 329.511,-163.492 338.775,-168.634 339.96,-161.735"/>
</g>
<!-- Node3&#45;&gt;Node4 -->
<g id="edge3" class="edge"><title>Node3&#45;&gt;Node4</title>
<path fill="none" stroke="midnightblue" d="M339.637,-143.139C359.276,-140.66 380.311,-138.004 399.37,-135.597"/>
<polygon fill="midnightblue" stroke="midnightblue" points="338.994,-139.693 329.511,-144.418 339.871,-146.637 338.994,-139.693"/>
</g>
</g>
</svg>
        <g id="navigator" transform="translate(0 0)" fill="#404254">
                <rect fill="#f2f5e9" fill-opacity="0.5" stroke="#606060" stroke-width=".5" x="0" y="0" width="60" height="60"/>
                <use id="zoomplus" xlink:href="#zoomPlus" x="17" y="9" onmousedown="handleZoom(evt,'in')"/>
                <use id="zoomminus" xlink:href="#zoomMin" x="42" y="9" onmousedown="handleZoom(evt,'out')"/>
                <use id="reset" xlink:href="#resetDef" x="30" y="36" onmousedown="handleReset()"/>
                <g id="arrowUp" xlink:href="#dirArrow" transform="translate(30 24)" onmousedown="handlePan(0,-1)">
                  <use xlink:href="#rim" fill="#404040">
                        <set attributeName="fill" to="#808080" begin="arrowUp.mouseover" end="arrowUp.mouseout"/>
                  </use>
                  <path fill="none" stroke="white" stroke-width="1.5" d="M0,-3.0v7 M-2.5,-0.5L0,-3.0L2.5,-0.5"/>
                </g>
                <g id="arrowRight" xlink:href="#dirArrow" transform="rotate(90) translate(36 -43)" onmousedown="handlePan(1,0)">
                  <use xlink:href="#rim" fill="#404040">
                        <set attributeName="fill" to="#808080" begin="arrowRight.mouseover" end="arrowRight.mouseout"/>
                  </use>
                  <path fill="none" stroke="white" stroke-width="1.5" d="M0,-3.0v7 M-2.5,-0.5L0,-3.0L2.5,-0.5"/>
                </g>
                <g id="arrowDown" xlink:href="#dirArrow" transform="rotate(180) translate(-30 -48)" onmousedown="handlePan(0,1)">
                  <use xlink:href="#rim" fill="#404040">
                        <set attributeName="fill" to="#808080" begin="arrowDown.mouseover" end="arrowDown.mouseout"/>
                  </use>
                  <path fill="none" stroke="white" stroke-width="1.5" d="M0,-3.0v7 M-2.5,-0.5L0,-3.0L2.5,-0.5"/>
                </g>
                <g id="arrowLeft" xlink:href="#dirArrow" transform="rotate(270) translate(-36 17)" onmousedown="handlePan(-1,0)">
                  <use xlink:href="#rim" fill="#404040">
                        <set attributeName="fill" to="#808080" begin="arrowLeft.mouseover" end="arrowLeft.mouseout"/>
                  </use>
                  <path fill="none" stroke="white" stroke-width="1.5" d="M0,-3.0v7 M-2.5,-0.5L0,-3.0L2.5,-0.5"/>
                </g>
        </g>
        <svg viewBox="0 0 15 15" width="100%" height="30px" preserveAspectRatio="xMaxYMin meet">
         <g id="arrow_out" transform="scale(0.3 0.3)">
          <a xlink:href="classscram_1_1gui_1_1EventDialog_abe5bf2e13a1fbb54ce0d8c5a03ad3a05_icgraph_org.svg" target="_base">
           <rect id="button" ry="5" rx="5" y="6" x="6" height="38" width="38"
                fill="#f2f5e9" fill-opacity="0.5" stroke="#606060" stroke-width="1.0"/>
           <path id="arrow"
             d="M 11.500037,31.436501 C 11.940474,20.09759 22.043105,11.32322 32.158766,21.979434 L 37.068811,17.246167 C 37.068811,17.246167 37.088388,32 37.088388,32 L 22.160133,31.978069 C 22.160133,31.978069 26.997745,27.140456 26.997745,27.140456 C 18.528582,18.264221 13.291696,25.230495 11.500037,31.436501 z"
             style="fill:#404040;"/>
          </a>
         </g>
        </svg>
</svg>
