<?xml version="1.0" encoding="UTF-8" standalone="no"?>
<!DOCTYPE svg PUBLIC "-//W3C//DTD SVG 1.1//EN"
 "http://www.w3.org/Graphics/SVG/1.1/DTD/svg11.dtd">
<!-- Generated by graphviz version 2.38.0 (20140413.2041)
 -->
<!-- Title: scram::gui::diagram::HouseEvent Pages: 1 -->
<svg width="123pt" height="430pt"
 viewBox="0.00 0.00 123.00 430.00" xmlns="http://www.w3.org/2000/svg" xmlns:xlink="http://www.w3.org/1999/xlink">
<g id="graph0" class="graph" transform="scale(1 1) rotate(0) translate(4 426)">
<title>scram::gui::diagram::HouseEvent</title>
<polygon fill="white" stroke="none" points="-4,4 -4,-426 119,-426 119,4 -4,4"/>
<!-- Node1 -->
<g id="node1" class="node"><title>Node1</title>
<polygon fill="#bfbfbf" stroke="black" points="1,-0.5 1,-68.5 114,-68.5 114,-0.5 1,-0.5"/>
<text text-anchor="start" x="9" y="-56.5" font-family="Helvetica,sans-Serif" font-size="10.00">scram::gui::diagram</text>
<text text-anchor="middle" x="57.5" y="-45.5" font-family="Helvetica,sans-Serif" font-size="10.00">::HouseEvent</text>
<polyline fill="none" stroke="black" points="1,-38.5 114,-38.5 "/>
<text text-anchor="middle" x="57.5" y="-26.5" font-family="Helvetica,sans-Serif" font-size="10.00"> </text>
<polyline fill="none" stroke="black" points="1,-19.5 114,-19.5 "/>
<text text-anchor="start" x="9" y="-7.5" font-family="Helvetica,sans-Serif" font-size="10.00">+ HouseEvent()</text>
</g>
<!-- Node2 -->
<g id="node2" class="node"><title>Node2</title>
<g id="a_node2"><a xlink:href="classscram_1_1gui_1_1diagram_1_1Event.xhtml" target="_top" xlink:title="The base class for probabilistic events in a fault tree. ">
<polygon fill="white" stroke="black" points="-7.10543e-15,-105.5 -7.10543e-15,-327.5 115,-327.5 115,-105.5 -7.10543e-15,-105.5"/>
<text text-anchor="start" x="8" y="-315.5" font-family="Helvetica,sans-Serif" font-size="10.00">scram::gui::diagram</text>
<text text-anchor="middle" x="57.5" y="-304.5" font-family="Helvetica,sans-Serif" font-size="10.00">::Event</text>
<polyline fill="none" stroke="black" points="-7.10543e-15,-297.5 115,-297.5 "/>
<text text-anchor="start" x="8" y="-285.5" font-family="Helvetica,sans-Serif" font-size="10.00"># m_event</text>
<text text-anchor="start" x="8" y="-274.5" font-family="Helvetica,sans-Serif" font-size="10.00"># m_size</text>
<text text-anchor="start" x="8" y="-263.5" font-family="Helvetica,sans-Serif" font-size="10.00"># m_baseHeight</text>
<text text-anchor="start" x="8" y="-252.5" font-family="Helvetica,sans-Serif" font-size="10.00"># m_idBoxLength</text>
<text text-anchor="start" x="8" y="-241.5" font-family="Helvetica,sans-Serif" font-size="10.00"># m_labelBoxHeight</text>
<polyline fill="none" stroke="black" points="-7.10543e-15,-234.5 115,-234.5 "/>
<text text-anchor="start" x="8" y="-222.5" font-family="Helvetica,sans-Serif" font-size="10.00">+ ~Event()</text>
<text text-anchor="start" x="8" y="-211.5" font-family="Helvetica,sans-Serif" font-size="10.00">+ width()</text>
<text text-anchor="start" x="8" y="-200.5" font-family="Helvetica,sans-Serif" font-size="10.00">+ data()</text>
<text text-anchor="start" x="8" y="-189.5" font-family="Helvetica,sans-Serif" font-size="10.00">+ boundingRect()</text>
<text text-anchor="start" x="8" y="-178.5" font-family="Helvetica,sans-Serif" font-size="10.00">+ paint()</text>
<text text-anchor="start" x="8" y="-167.5" font-family="Helvetica,sans-Serif" font-size="10.00"># Event()</text>
<text text-anchor="start" x="8" y="-156.5" font-family="Helvetica,sans-Serif" font-size="10.00"># getTypeGraphics()</text>
<text text-anchor="start" x="8" y="-145.5" font-family="Helvetica,sans-Serif" font-size="10.00"># setTypeGraphics()</text>
<text text-anchor="start" x="8" y="-134.5" font-family="Helvetica,sans-Serif" font-size="10.00"># units()</text>
<text text-anchor="start" x="8" y="-123.5" font-family="Helvetica,sans-Serif" font-size="10.00">* boundingRect()</text>
<text text-anchor="start" x="8" y="-112.5" font-family="Helvetica,sans-Serif" font-size="10.00">* paint()</text>
</a>
</g>
</g>
<!-- Node2&#45;&gt;Node1 -->
<g id="edge1" class="edge"><title>Node2&#45;&gt;Node1</title>
<path fill="none" stroke="midnightblue" d="M57.5,-95.221C57.5,-85.6599 57.5,-76.6148 57.5,-68.5926"/>
<polygon fill="none" stroke="midnightblue" points="54.0001,-95.3503 57.5,-105.35 61.0001,-95.3504 54.0001,-95.3503"/>
</g>
<!-- Node3 -->
<g id="node3" class="node"><title>Node3</title>
<polygon fill="white" stroke="#bfbfbf" points="13.5,-364.5 13.5,-421.5 101.5,-421.5 101.5,-364.5 13.5,-364.5"/>
<text text-anchor="middle" x="57.5" y="-409.5" font-family="Helvetica,sans-Serif" font-size="10.00">QGraphicsItem</text>
<polyline fill="none" stroke="#bfbfbf" points="13.5,-402.5 101.5,-402.5 "/>
<text text-anchor="middle" x="57.5" y="-390.5" font-family="Helvetica,sans-Serif" font-size="10.00"> </text>
<polyline fill="none" stroke="#bfbfbf" points="13.5,-383.5 101.5,-383.5 "/>
<text text-anchor="middle" x="57.5" y="-371.5" font-family="Helvetica,sans-Serif" font-size="10.00"> </text>
</g>
<!-- Node3&#45;&gt;Node2 -->
<g id="edge2" class="edge"><title>Node3&#45;&gt;Node2</title>
<path fill="none" stroke="midnightblue" d="M57.5,-354.203C57.5,-346.081 57.5,-337.104 57.5,-327.748"/>
<polygon fill="none" stroke="midnightblue" points="54.0001,-354.35 57.5,-364.35 61.0001,-354.35 54.0001,-354.35"/>
</g>
</g>
</svg>
