<?xml version="1.0" encoding="UTF-8" standalone="no"?>
<!DOCTYPE svg PUBLIC "-//W3C//DTD SVG 1.1//EN"
 "http://www.w3.org/Graphics/SVG/1.1/DTD/svg11.dtd">
<!-- Generated by graphviz version 2.38.0 (20140413.2041)
 -->
<!-- Title: scram::gui::EventDialog Pages: 1 -->
<svg width="170pt" height="347pt"
 viewBox="0.00 0.00 169.50 347.00" xmlns="http://www.w3.org/2000/svg" xmlns:xlink="http://www.w3.org/1999/xlink">
<g id="graph0" class="graph" transform="scale(1 1) rotate(0) translate(4 343)">
<title>scram::gui::EventDialog</title>
<polygon fill="white" stroke="none" points="-4,4 -4,-343 165.5,-343 165.5,4 -4,4"/>
<!-- Node1 -->
<g id="node1" class="node"><title>Node1</title>
<polygon fill="#bfbfbf" stroke="black" points="7,-0.5 7,-244.5 137,-244.5 137,-0.5 7,-0.5"/>
<text text-anchor="middle" x="72" y="-232.5" font-family="Helvetica,sans-Serif" font-size="10.00">scram::gui::EventDialog</text>
<polyline fill="none" stroke="black" points="7,-225.5 137,-225.5 "/>
<text text-anchor="middle" x="72" y="-213.5" font-family="Helvetica,sans-Serif" font-size="10.00"> </text>
<polyline fill="none" stroke="black" points="7,-206.5 137,-206.5 "/>
<text text-anchor="start" x="15" y="-194.5" font-family="Helvetica,sans-Serif" font-size="10.00">+ EventDialog()</text>
<text text-anchor="start" x="15" y="-183.5" font-family="Helvetica,sans-Serif" font-size="10.00">+ currentType()</text>
<text text-anchor="start" x="15" y="-172.5" font-family="Helvetica,sans-Serif" font-size="10.00">+ name()</text>
<text text-anchor="start" x="15" y="-161.5" font-family="Helvetica,sans-Serif" font-size="10.00">+ label()</text>
<text text-anchor="start" x="15" y="-150.5" font-family="Helvetica,sans-Serif" font-size="10.00">+ booleanConstant()</text>
<text text-anchor="start" x="15" y="-139.5" font-family="Helvetica,sans-Serif" font-size="10.00">+ expression()</text>
<text text-anchor="start" x="15" y="-128.5" font-family="Helvetica,sans-Serif" font-size="10.00">+ connective()</text>
<text text-anchor="start" x="15" y="-117.5" font-family="Helvetica,sans-Serif" font-size="10.00">+ minNumber()</text>
<text text-anchor="start" x="15" y="-106.5" font-family="Helvetica,sans-Serif" font-size="10.00">+ arguments()</text>
<text text-anchor="start" x="15" y="-95.5" font-family="Helvetica,sans-Serif" font-size="10.00">+ faultTree()</text>
<text text-anchor="start" x="15" y="-84.5" font-family="Helvetica,sans-Serif" font-size="10.00">+ getFaultTree()</text>
<text text-anchor="start" x="15" y="-73.5" font-family="Helvetica,sans-Serif" font-size="10.00">+ setupData()</text>
<text text-anchor="start" x="15" y="-62.5" font-family="Helvetica,sans-Serif" font-size="10.00">+ setupData()</text>
<text text-anchor="start" x="15" y="-51.5" font-family="Helvetica,sans-Serif" font-size="10.00">+ setupData()</text>
<text text-anchor="start" x="15" y="-40.5" font-family="Helvetica,sans-Serif" font-size="10.00">+ validate()</text>
<text text-anchor="start" x="15" y="-29.5" font-family="Helvetica,sans-Serif" font-size="10.00">* setupData()</text>
<text text-anchor="start" x="15" y="-18.5" font-family="Helvetica,sans-Serif" font-size="10.00">* setupData()</text>
<text text-anchor="start" x="15" y="-7.5" font-family="Helvetica,sans-Serif" font-size="10.00">* setupData()</text>
</g>
<!-- Node2 -->
<g id="node2" class="node"><title>Node2</title>
<polygon fill="white" stroke="#bfbfbf" points="0,-281.5 0,-338.5 54,-338.5 54,-281.5 0,-281.5"/>
<text text-anchor="middle" x="27" y="-326.5" font-family="Helvetica,sans-Serif" font-size="10.00">QDialog</text>
<polyline fill="none" stroke="#bfbfbf" points="0,-319.5 54,-319.5 "/>
<text text-anchor="middle" x="27" y="-307.5" font-family="Helvetica,sans-Serif" font-size="10.00"> </text>
<polyline fill="none" stroke="#bfbfbf" points="0,-300.5 54,-300.5 "/>
<text text-anchor="middle" x="27" y="-288.5" font-family="Helvetica,sans-Serif" font-size="10.00"> </text>
</g>
<!-- Node2&#45;&gt;Node1 -->
<g id="edge1" class="edge"><title>Node2&#45;&gt;Node1</title>
<path fill="none" stroke="midnightblue" d="M36.1186,-271.411C38.097,-263.256 40.2921,-254.207 42.594,-244.718"/>
<polygon fill="none" stroke="midnightblue" points="32.6932,-270.685 33.737,-281.229 39.4959,-272.336 32.6932,-270.685"/>
</g>
<!-- Node3 -->
<g id="node3" class="node"><title>Node3</title>
<polygon fill="white" stroke="#bfbfbf" points="72.5,-281.5 72.5,-338.5 161.5,-338.5 161.5,-281.5 72.5,-281.5"/>
<text text-anchor="middle" x="117" y="-326.5" font-family="Helvetica,sans-Serif" font-size="10.00">Ui::EventDialog</text>
<polyline fill="none" stroke="#bfbfbf" points="72.5,-319.5 161.5,-319.5 "/>
<text text-anchor="middle" x="117" y="-307.5" font-family="Helvetica,sans-Serif" font-size="10.00"> </text>
<polyline fill="none" stroke="#bfbfbf" points="72.5,-300.5 161.5,-300.5 "/>
<text text-anchor="middle" x="117" y="-288.5" font-family="Helvetica,sans-Serif" font-size="10.00"> </text>
</g>
<!-- Node3&#45;&gt;Node1 -->
<g id="edge2" class="edge"><title>Node3&#45;&gt;Node1</title>
<path fill="none" stroke="#8b1a1a" d="M107.881,-271.411C105.903,-263.256 103.708,-254.207 101.406,-244.718"/>
<polygon fill="none" stroke="#8b1a1a" points="104.504,-272.336 110.263,-281.229 111.307,-270.685 104.504,-272.336"/>
</g>
</g>
</svg>
