<?xml version="1.0" encoding="UTF-8" standalone="no"?>
<!DOCTYPE svg PUBLIC "-//W3C//DTD SVG 1.1//EN"
 "http://www.w3.org/Graphics/SVG/1.1/DTD/svg11.dtd">
<!-- Generated by graphviz version 2.38.0 (20140413.2041)
 -->
<!-- Title: scram::gui::Involution Pages: 1 -->
<!--zoomable 276 -->
<svg id="main" version="1.1" xmlns="http://www.w3.org/2000/svg" xmlns:xlink="http://www.w3.org/1999/xlink" xml:space="preserve" onload="init(evt)">
<style type="text/css"><![CDATA[
.edge:hover path { stroke: red; }
.edge:hover polygon { stroke: red; fill: red; }
]]></style>
<script type="text/javascript"><![CDATA[
var edges = document.getElementsByTagName('g');
if (edges && edges.length) {
  for (var i=0;i<edges.length;i++) {
    if (edges[i].id.substr(0,4)=='edge') {
      edges[i].setAttribute('class','edge');
    }
  }
}
]]></script>
        <defs>
                <circle id="rim" cx="0" cy="0" r="7"/>
                <circle id="rim2" cx="0" cy="0" r="3.5"/>
                <g id="zoomPlus">
                        <use xlink:href="#rim" fill="#404040">
                                <set attributeName="fill" to="#808080" begin="zoomplus.mouseover" end="zoomplus.mouseout"/>
                        </use>
                        <path d="M-4,0h8M0,-4v8" fill="none" stroke="white" stroke-width="1.5" pointer-events="none"/>
                </g>
                <g id="zoomMin">
                        <use xlink:href="#rim" fill="#404040">
                                <set attributeName="fill" to="#808080" begin="zoomminus.mouseover" end="zoomminus.mouseout"/>
                        </use>
                        <path d="M-4,0h8" fill="none" stroke="white" stroke-width="1.5" pointer-events="none"/>
                </g>
                <g id="dirArrow">
                        <path fill="none" stroke="white" stroke-width="1.5" d="M0,-3.0v7 M-2.5,-0.5L0,-3.0L2.5,-0.5"/>
                </g>
               <g id="resetDef">
                       <use xlink:href="#rim2" fill="#404040">
                               <set attributeName="fill" to="#808080" begin="reset.mouseover" end="reset.mouseout"/>
                       </use>
               </g>
        </defs>

<script type="text/javascript">
var viewWidth = 945;
var viewHeight = 276;
var sectionId = 'dynsection-0';
</script>
<script xlink:href="svgpan.js"/>
<svg id="graph" class="graph">
<g id="viewport">
<title>scram::gui::Involution</title>
<polygon fill="white" stroke="none" points="-4,4 -4,-272 941,-272 941,4 -4,4"/>
<!-- Node1 -->
<g id="node1" class="node"><title>Node1</title>
<polygon fill="#bfbfbf" stroke="black" points="428,-116.5 428,-173.5 547,-173.5 547,-116.5 428,-116.5"/>
<text text-anchor="middle" x="487.5" y="-161.5" font-family="Helvetica,sans-Serif" font-size="10.00">scram::gui::Involution</text>
<polyline fill="none" stroke="black" points="428,-154.5 547,-154.5 "/>
<text text-anchor="middle" x="487.5" y="-142.5" font-family="Helvetica,sans-Serif" font-size="10.00"> </text>
<polyline fill="none" stroke="black" points="428,-135.5 547,-135.5 "/>
<text text-anchor="start" x="436" y="-123.5" font-family="Helvetica,sans-Serif" font-size="10.00">+ undo()</text>
</g>
<!-- Node3 -->
<g id="node3" class="node"><title>Node3</title>
<g id="a_node3"><a xlink:href="classscram_1_1gui_1_1model_1_1BasicEvent_1_1SetExpression.xhtml" target="_top" xlink:title="Sets the basic event expression. ">
<polygon fill="white" stroke="black" points="0,-0.5 0,-79.5 143,-79.5 143,-0.5 0,-0.5"/>
<text text-anchor="start" x="8" y="-67.5" font-family="Helvetica,sans-Serif" font-size="10.00">scram::gui::model::</text>
<text text-anchor="middle" x="71.5" y="-56.5" font-family="Helvetica,sans-Serif" font-size="10.00">BasicEvent::SetExpression</text>
<polyline fill="none" stroke="black" points="0,-49.5 143,-49.5 "/>
<text text-anchor="middle" x="71.5" y="-37.5" font-family="Helvetica,sans-Serif" font-size="10.00"> </text>
<polyline fill="none" stroke="black" points="0,-30.5 143,-30.5 "/>
<text text-anchor="start" x="8" y="-18.5" font-family="Helvetica,sans-Serif" font-size="10.00">+ SetExpression()</text>
<text text-anchor="start" x="8" y="-7.5" font-family="Helvetica,sans-Serif" font-size="10.00">+ redo()</text>
</a>
</g>
</g>
<!-- Node1&#45;&gt;Node3 -->
<g id="edge2" class="edge"><title>Node1&#45;&gt;Node3</title>
<path fill="none" stroke="midnightblue" d="M417.658,-136.038C348.95,-126.96 241.684,-109.431 152.5,-80 149.387,-78.9729 146.241,-77.8518 143.086,-76.6592"/>
<polygon fill="none" stroke="midnightblue" points="417.56,-139.554 427.927,-137.37 418.46,-132.613 417.56,-139.554"/>
</g>
<!-- Node4 -->
<g id="node4" class="node"><title>Node4</title>
<g id="a_node4"><a xlink:href="classscram_1_1gui_1_1model_1_1BasicEvent_1_1SetFlavor.xhtml" target="_top" xlink:title="Sets the flavor of the basic event. ">
<polygon fill="white" stroke="black" points="161.5,-0.5 161.5,-79.5 281.5,-79.5 281.5,-0.5 161.5,-0.5"/>
<text text-anchor="start" x="169.5" y="-67.5" font-family="Helvetica,sans-Serif" font-size="10.00">scram::gui::model::</text>
<text text-anchor="middle" x="221.5" y="-56.5" font-family="Helvetica,sans-Serif" font-size="10.00">BasicEvent::SetFlavor</text>
<polyline fill="none" stroke="black" points="161.5,-49.5 281.5,-49.5 "/>
<text text-anchor="middle" x="221.5" y="-37.5" font-family="Helvetica,sans-Serif" font-size="10.00"> </text>
<polyline fill="none" stroke="black" points="161.5,-30.5 281.5,-30.5 "/>
<text text-anchor="start" x="169.5" y="-18.5" font-family="Helvetica,sans-Serif" font-size="10.00">+ SetFlavor()</text>
<text text-anchor="start" x="169.5" y="-7.5" font-family="Helvetica,sans-Serif" font-size="10.00">+ redo()</text>
</a>
</g>
</g>
<!-- Node1&#45;&gt;Node4 -->
<g id="edge3" class="edge"><title>Node1&#45;&gt;Node4</title>
<path fill="none" stroke="midnightblue" d="M417.719,-125.047C379.462,-113.738 331.597,-98.0718 290.5,-80 287.603,-78.726 284.669,-77.3662 281.729,-75.9462"/>
<polygon fill="none" stroke="midnightblue" points="417.153,-128.528 427.734,-127.973 419.117,-121.809 417.153,-128.528"/>
</g>
<!-- Node5 -->
<g id="node5" class="node"><title>Node5</title>
<g id="a_node5"><a xlink:href="classscram_1_1gui_1_1model_1_1Element_1_1SetId.xhtml" target="_top" xlink:title="Sets the name of an Element. ">
<polygon fill="white" stroke="black" points="300,-0.5 300,-79.5 415,-79.5 415,-0.5 300,-0.5"/>
<text text-anchor="start" x="308" y="-67.5" font-family="Helvetica,sans-Serif" font-size="10.00">scram::gui::model::</text>
<text text-anchor="middle" x="357.5" y="-56.5" font-family="Helvetica,sans-Serif" font-size="10.00">Element::SetId&lt; T &gt;</text>
<polyline fill="none" stroke="black" points="300,-49.5 415,-49.5 "/>
<text text-anchor="middle" x="357.5" y="-37.5" font-family="Helvetica,sans-Serif" font-size="10.00"> </text>
<polyline fill="none" stroke="black" points="300,-30.5 415,-30.5 "/>
<text text-anchor="start" x="308" y="-18.5" font-family="Helvetica,sans-Serif" font-size="10.00">+ SetId()</text>
<text text-anchor="start" x="308" y="-7.5" font-family="Helvetica,sans-Serif" font-size="10.00">+ redo()</text>
</a>
</g>
</g>
<!-- Node1&#45;&gt;Node5 -->
<g id="edge4" class="edge"><title>Node1&#45;&gt;Node5</title>
<path fill="none" stroke="midnightblue" d="M444.739,-110.12C432.382,-100.329 418.805,-89.5721 406.118,-79.5205"/>
<polygon fill="none" stroke="midnightblue" points="442.651,-112.931 452.662,-116.398 446.998,-107.444 442.651,-112.931"/>
</g>
<!-- Node6 -->
<g id="node6" class="node"><title>Node6</title>
<g id="a_node6"><a xlink:href="classscram_1_1gui_1_1model_1_1Element_1_1SetLabel.xhtml" target="_top" xlink:title="Sets the label of an Element. ">
<polygon fill="white" stroke="black" points="433,-0.5 433,-79.5 542,-79.5 542,-0.5 433,-0.5"/>
<text text-anchor="start" x="441" y="-67.5" font-family="Helvetica,sans-Serif" font-size="10.00">scram::gui::model::</text>
<text text-anchor="middle" x="487.5" y="-56.5" font-family="Helvetica,sans-Serif" font-size="10.00">Element::SetLabel</text>
<polyline fill="none" stroke="black" points="433,-49.5 542,-49.5 "/>
<text text-anchor="middle" x="487.5" y="-37.5" font-family="Helvetica,sans-Serif" font-size="10.00"> </text>
<polyline fill="none" stroke="black" points="433,-30.5 542,-30.5 "/>
<text text-anchor="start" x="441" y="-18.5" font-family="Helvetica,sans-Serif" font-size="10.00">+ SetLabel()</text>
<text text-anchor="start" x="441" y="-7.5" font-family="Helvetica,sans-Serif" font-size="10.00">+ redo()</text>
</a>
</g>
</g>
<!-- Node1&#45;&gt;Node6 -->
<g id="edge5" class="edge"><title>Node1&#45;&gt;Node6</title>
<path fill="none" stroke="midnightblue" d="M487.5,-106.156C487.5,-97.4733 487.5,-88.2318 487.5,-79.5205"/>
<polygon fill="none" stroke="midnightblue" points="484,-106.398 487.5,-116.398 491,-106.398 484,-106.398"/>
</g>
<!-- Node7 -->
<g id="node7" class="node"><title>Node7</title>
<g id="a_node7"><a xlink:href="classscram_1_1gui_1_1model_1_1Gate_1_1SetFormula.xhtml" target="_top" xlink:title="Formula modification commands. ">
<polygon fill="white" stroke="black" points="560,-0.5 560,-79.5 669,-79.5 669,-0.5 560,-0.5"/>
<text text-anchor="start" x="568" y="-67.5" font-family="Helvetica,sans-Serif" font-size="10.00">scram::gui::model::</text>
<text text-anchor="middle" x="614.5" y="-56.5" font-family="Helvetica,sans-Serif" font-size="10.00">Gate::SetFormula</text>
<polyline fill="none" stroke="black" points="560,-49.5 669,-49.5 "/>
<text text-anchor="middle" x="614.5" y="-37.5" font-family="Helvetica,sans-Serif" font-size="10.00"> </text>
<polyline fill="none" stroke="black" points="560,-30.5 669,-30.5 "/>
<text text-anchor="start" x="568" y="-18.5" font-family="Helvetica,sans-Serif" font-size="10.00">+ SetFormula()</text>
<text text-anchor="start" x="568" y="-7.5" font-family="Helvetica,sans-Serif" font-size="10.00">+ redo()</text>
</a>
</g>
</g>
<!-- Node1&#45;&gt;Node7 -->
<g id="edge6" class="edge"><title>Node1&#45;&gt;Node7</title>
<path fill="none" stroke="midnightblue" d="M529.619,-109.84C541.599,-100.124 554.728,-89.4763 567.004,-79.5205"/>
<polygon fill="none" stroke="midnightblue" points="527.096,-107.38 521.534,-116.398 531.505,-112.817 527.096,-107.38"/>
</g>
<!-- Node8 -->
<g id="node8" class="node"><title>Node8</title>
<g id="a_node8"><a xlink:href="classscram_1_1gui_1_1model_1_1HouseEvent_1_1SetState.xhtml" target="_top" xlink:title="Flips the house event state. ">
<polygon fill="white" stroke="black" points="687,-0.5 687,-79.5 810,-79.5 810,-0.5 687,-0.5"/>
<text text-anchor="start" x="695" y="-67.5" font-family="Helvetica,sans-Serif" font-size="10.00">scram::gui::model::</text>
<text text-anchor="middle" x="748.5" y="-56.5" font-family="Helvetica,sans-Serif" font-size="10.00">HouseEvent::SetState</text>
<polyline fill="none" stroke="black" points="687,-49.5 810,-49.5 "/>
<text text-anchor="middle" x="748.5" y="-37.5" font-family="Helvetica,sans-Serif" font-size="10.00"> </text>
<polyline fill="none" stroke="black" points="687,-30.5 810,-30.5 "/>
<text text-anchor="start" x="695" y="-18.5" font-family="Helvetica,sans-Serif" font-size="10.00">+ SetState()</text>
<text text-anchor="start" x="695" y="-7.5" font-family="Helvetica,sans-Serif" font-size="10.00">+ redo()</text>
</a>
</g>
</g>
<!-- Node1&#45;&gt;Node8 -->
<g id="edge7" class="edge"><title>Node1&#45;&gt;Node8</title>
<path fill="none" stroke="midnightblue" d="M556.723,-124.198C593.515,-112.831 639.148,-97.3765 678.5,-80 681.3,-78.7637 684.135,-77.4519 686.98,-76.0867"/>
<polygon fill="none" stroke="midnightblue" points="555.621,-120.874 547.082,-127.146 557.668,-127.568 555.621,-120.874"/>
</g>
<!-- Node9 -->
<g id="node9" class="node"><title>Node9</title>
<g id="a_node9"><a xlink:href="classscram_1_1gui_1_1model_1_1Model_1_1SetName.xhtml" target="_top" xlink:title="Sets the optional name of the model. ">
<polygon fill="white" stroke="black" points="828,-0.5 828,-79.5 937,-79.5 937,-0.5 828,-0.5"/>
<text text-anchor="start" x="836" y="-67.5" font-family="Helvetica,sans-Serif" font-size="10.00">scram::gui::model::</text>
<text text-anchor="middle" x="882.5" y="-56.5" font-family="Helvetica,sans-Serif" font-size="10.00">Model::SetName</text>
<polyline fill="none" stroke="black" points="828,-49.5 937,-49.5 "/>
<text text-anchor="middle" x="882.5" y="-37.5" font-family="Helvetica,sans-Serif" font-size="10.00"> </text>
<polyline fill="none" stroke="black" points="828,-30.5 937,-30.5 "/>
<text text-anchor="start" x="836" y="-18.5" font-family="Helvetica,sans-Serif" font-size="10.00">+ SetName()</text>
<text text-anchor="start" x="836" y="-7.5" font-family="Helvetica,sans-Serif" font-size="10.00">+ redo()</text>
</a>
</g>
</g>
<!-- Node1&#45;&gt;Node9 -->
<g id="edge8" class="edge"><title>Node1&#45;&gt;Node9</title>
<path fill="none" stroke="midnightblue" d="M557.438,-137.967C626.074,-130.34 732.778,-113.873 819.5,-80 822.256,-78.9236 825.025,-77.7258 827.783,-76.4371"/>
<polygon fill="none" stroke="midnightblue" points="556.744,-134.521 547.177,-139.073 557.494,-141.481 556.744,-134.521"/>
</g>
<!-- Node2 -->
<g id="node2" class="node"><title>Node2</title>
<polygon fill="white" stroke="#bfbfbf" points="437.5,-210.5 437.5,-267.5 537.5,-267.5 537.5,-210.5 437.5,-210.5"/>
<text text-anchor="middle" x="487.5" y="-255.5" font-family="Helvetica,sans-Serif" font-size="10.00">QUndoCommand</text>
<polyline fill="none" stroke="#bfbfbf" points="437.5,-248.5 537.5,-248.5 "/>
<text text-anchor="middle" x="487.5" y="-236.5" font-family="Helvetica,sans-Serif" font-size="10.00"> </text>
<polyline fill="none" stroke="#bfbfbf" points="437.5,-229.5 537.5,-229.5 "/>
<text text-anchor="middle" x="487.5" y="-217.5" font-family="Helvetica,sans-Serif" font-size="10.00"> </text>
</g>
<!-- Node2&#45;&gt;Node1 -->
<g id="edge1" class="edge"><title>Node2&#45;&gt;Node1</title>
<path fill="none" stroke="midnightblue" d="M487.5,-200.209C487.5,-191.293 487.5,-181.951 487.5,-173.584"/>
<polygon fill="none" stroke="midnightblue" points="484,-200.397 487.5,-210.397 491,-200.397 484,-200.397"/>
</g>
</g>
</svg>
        <g id="navigator" transform="translate(0 0)" fill="#404254">
                <rect fill="#f2f5e9" fill-opacity="0.5" stroke="#606060" stroke-width=".5" x="0" y="0" width="60" height="60"/>
                <use id="zoomplus" xlink:href="#zoomPlus" x="17" y="9" onmousedown="handleZoom(evt,'in')"/>
                <use id="zoomminus" xlink:href="#zoomMin" x="42" y="9" onmousedown="handleZoom(evt,'out')"/>
                <use id="reset" xlink:href="#resetDef" x="30" y="36" onmousedown="handleReset()"/>
                <g id="arrowUp" xlink:href="#dirArrow" transform="translate(30 24)" onmousedown="handlePan(0,-1)">
                  <use xlink:href="#rim" fill="#404040">
                        <set attributeName="fill" to="#808080" begin="arrowUp.mouseover" end="arrowUp.mouseout"/>
                  </use>
                  <path fill="none" stroke="white" stroke-width="1.5" d="M0,-3.0v7 M-2.5,-0.5L0,-3.0L2.5,-0.5"/>
                </g>
                <g id="arrowRight" xlink:href="#dirArrow" transform="rotate(90) translate(36 -43)" onmousedown="handlePan(1,0)">
                  <use xlink:href="#rim" fill="#404040">
                        <set attributeName="fill" to="#808080" begin="arrowRight.mouseover" end="arrowRight.mouseout"/>
                  </use>
                  <path fill="none" stroke="white" stroke-width="1.5" d="M0,-3.0v7 M-2.5,-0.5L0,-3.0L2.5,-0.5"/>
                </g>
                <g id="arrowDown" xlink:href="#dirArrow" transform="rotate(180) translate(-30 -48)" onmousedown="handlePan(0,1)">
                  <use xlink:href="#rim" fill="#404040">
                        <set attributeName="fill" to="#808080" begin="arrowDown.mouseover" end="arrowDown.mouseout"/>
                  </use>
                  <path fill="none" stroke="white" stroke-width="1.5" d="M0,-3.0v7 M-2.5,-0.5L0,-3.0L2.5,-0.5"/>
                </g>
                <g id="arrowLeft" xlink:href="#dirArrow" transform="rotate(270) translate(-36 17)" onmousedown="handlePan(-1,0)">
                  <use xlink:href="#rim" fill="#404040">
                        <set attributeName="fill" to="#808080" begin="arrowLeft.mouseover" end="arrowLeft.mouseout"/>
                  </use>
                  <path fill="none" stroke="white" stroke-width="1.5" d="M0,-3.0v7 M-2.5,-0.5L0,-3.0L2.5,-0.5"/>
                </g>
        </g>
        <svg viewBox="0 0 15 15" width="100%" height="30px" preserveAspectRatio="xMaxYMin meet">
         <g id="arrow_out" transform="scale(0.3 0.3)">
          <a xlink:href="classscram_1_1gui_1_1Involution__inherit__graph_org.svg" target="_base">
           <rect id="button" ry="5" rx="5" y="6" x="6" height="38" width="38"
                fill="#f2f5e9" fill-opacity="0.5" stroke="#606060" stroke-width="1.0"/>
           <path id="arrow"
             d="M 11.500037,31.436501 C 11.940474,20.09759 22.043105,11.32322 32.158766,21.979434 L 37.068811,17.246167 C 37.068811,17.246167 37.088388,32 37.088388,32 L 22.160133,31.978069 C 22.160133,31.978069 26.997745,27.140456 26.997745,27.140456 C 18.528582,18.264221 13.291696,25.230495 11.500037,31.436501 z"
             style="fill:#404040;"/>
          </a>
         </g>
        </svg>
</svg>
