<?xml version="1.0" encoding="UTF-8" standalone="no"?>
<!DOCTYPE svg PUBLIC "-//W3C//DTD SVG 1.1//EN"
 "http://www.w3.org/Graphics/SVG/1.1/DTD/svg11.dtd">
<!-- Generated by graphviz version 2.38.0 (20140413.2041)
 -->
<!-- Title: scram::gui::model::ProductTableModel Pages: 1 -->
<svg width="133pt" height="259pt"
 viewBox="0.00 0.00 133.00 259.00" xmlns="http://www.w3.org/2000/svg" xmlns:xlink="http://www.w3.org/1999/xlink">
<g id="graph0" class="graph" transform="scale(1 1) rotate(0) translate(4 255)">
<title>scram::gui::model::ProductTableModel</title>
<polygon fill="white" stroke="none" points="-4,4 -4,-255 129,-255 129,4 -4,4"/>
<!-- Node1 -->
<g id="node1" class="node"><title>Node1</title>
<polygon fill="#bfbfbf" stroke="black" points="-7.10543e-15,-0.5 -7.10543e-15,-156.5 125,-156.5 125,-0.5 -7.10543e-15,-0.5"/>
<text text-anchor="start" x="8" y="-144.5" font-family="Helvetica,sans-Serif" font-size="10.00">scram::gui::model::</text>
<text text-anchor="middle" x="62.5" y="-133.5" font-family="Helvetica,sans-Serif" font-size="10.00">ProductTableModel</text>
<polyline fill="none" stroke="black" points="-7.10543e-15,-126.5 125,-126.5 "/>
<text text-anchor="middle" x="62.5" y="-114.5" font-family="Helvetica,sans-Serif" font-size="10.00"> </text>
<polyline fill="none" stroke="black" points="-7.10543e-15,-107.5 125,-107.5 "/>
<text text-anchor="start" x="8" y="-95.5" font-family="Helvetica,sans-Serif" font-size="10.00">+ ProductTableModel()</text>
<text text-anchor="start" x="8" y="-84.5" font-family="Helvetica,sans-Serif" font-size="10.00">+ rowCount()</text>
<text text-anchor="start" x="8" y="-73.5" font-family="Helvetica,sans-Serif" font-size="10.00">+ columnCount()</text>
<text text-anchor="start" x="8" y="-62.5" font-family="Helvetica,sans-Serif" font-size="10.00">+ headerData()</text>
<text text-anchor="start" x="8" y="-51.5" font-family="Helvetica,sans-Serif" font-size="10.00">+ data()</text>
<text text-anchor="start" x="8" y="-40.5" font-family="Helvetica,sans-Serif" font-size="10.00">* rowCount()</text>
<text text-anchor="start" x="8" y="-29.5" font-family="Helvetica,sans-Serif" font-size="10.00">* columnCount()</text>
<text text-anchor="start" x="8" y="-18.5" font-family="Helvetica,sans-Serif" font-size="10.00">* headerData()</text>
<text text-anchor="start" x="8" y="-7.5" font-family="Helvetica,sans-Serif" font-size="10.00">* data()</text>
</g>
<!-- Node2 -->
<g id="node2" class="node"><title>Node2</title>
<polygon fill="white" stroke="#bfbfbf" points="4,-193.5 4,-250.5 121,-250.5 121,-193.5 4,-193.5"/>
<text text-anchor="middle" x="62.5" y="-238.5" font-family="Helvetica,sans-Serif" font-size="10.00">QAbstractTableModel</text>
<polyline fill="none" stroke="#bfbfbf" points="4,-231.5 121,-231.5 "/>
<text text-anchor="middle" x="62.5" y="-219.5" font-family="Helvetica,sans-Serif" font-size="10.00"> </text>
<polyline fill="none" stroke="#bfbfbf" points="4,-212.5 121,-212.5 "/>
<text text-anchor="middle" x="62.5" y="-200.5" font-family="Helvetica,sans-Serif" font-size="10.00"> </text>
</g>
<!-- Node2&#45;&gt;Node1 -->
<g id="edge1" class="edge"><title>Node2&#45;&gt;Node1</title>
<path fill="none" stroke="midnightblue" d="M62.5,-183.34C62.5,-175.044 62.5,-165.964 62.5,-156.736"/>
<polygon fill="none" stroke="midnightblue" points="59.0001,-183.381 62.5,-193.381 66.0001,-183.382 59.0001,-183.381"/>
</g>
</g>
</svg>
