<?xml version="1.0" encoding="UTF-8" standalone="no"?>
<!DOCTYPE svg PUBLIC "-//W3C//DTD SVG 1.1//EN"
 "http://www.w3.org/Graphics/SVG/1.1/DTD/svg11.dtd">
<!-- Generated by graphviz version 2.38.0 (20140413.2041)
 -->
<!-- Title: scram::gui::diagram::Event::setTypeGraphics Pages: 1 -->
<svg width="483pt" height="295pt"
 viewBox="0.00 0.00 483.00 294.50" xmlns="http://www.w3.org/2000/svg" xmlns:xlink="http://www.w3.org/1999/xlink">
<g id="graph0" class="graph" transform="scale(1 1) rotate(0) translate(4 290.5)">
<title>scram::gui::diagram::Event::setTypeGraphics</title>
<polygon fill="white" stroke="none" points="-4,4 -4,-290.5 479,-290.5 479,4 -4,4"/>
<!-- Node1 -->
<g id="node1" class="node"><title>Node1</title>
<polygon fill="#bfbfbf" stroke="black" points="0,-133 0,-163 134,-163 134,-133 0,-133"/>
<text text-anchor="start" x="8" y="-151" font-family="Helvetica,sans-Serif" font-size="10.00">scram::gui::diagram</text>
<text text-anchor="middle" x="67" y="-140" font-family="Helvetica,sans-Serif" font-size="10.00">::Event::setTypeGraphics</text>
</g>
<!-- Node2 -->
<g id="node2" class="node"><title>Node2</title>
<g id="a_node2"><a xlink:href="classscram_1_1gui_1_1diagram_1_1BasicEvent.xhtml#a8d42e9b3c6a1f1dc7c764da03aa2134e" target="_top" xlink:title="Assigns an event to a presentation view. ">
<polygon fill="white" stroke="black" points="175,-256 175,-286 309,-286 309,-256 175,-256"/>
<text text-anchor="start" x="183" y="-274" font-family="Helvetica,sans-Serif" font-size="10.00">scram::gui::diagram</text>
<text text-anchor="middle" x="242" y="-263" font-family="Helvetica,sans-Serif" font-size="10.00">::BasicEvent::BasicEvent</text>
</a>
</g>
</g>
<!-- Node1&#45;&gt;Node2 -->
<g id="edge1" class="edge"><title>Node1&#45;&gt;Node2</title>
<path fill="none" stroke="midnightblue" d="M86.5103,-171.178C105.384,-193.429 136.571,-226.586 170,-247 175.552,-250.391 181.644,-253.372 187.853,-255.975"/>
<polygon fill="midnightblue" stroke="midnightblue" points="88.9868,-168.682 79.9004,-163.233 83.6057,-173.159 88.9868,-168.682"/>
</g>
<!-- Node3 -->
<g id="node3" class="node"><title>Node3</title>
<g id="a_node3"><a xlink:href="classscram_1_1gui_1_1diagram_1_1Gate.xhtml#a2111abee08814f57bc5cdfd0452b8ec0" target="_top" xlink:title="Constructs the graph with the transfer symbols for gates. ">
<polygon fill="white" stroke="black" points="185.5,-207 185.5,-237 298.5,-237 298.5,-207 185.5,-207"/>
<text text-anchor="start" x="193.5" y="-225" font-family="Helvetica,sans-Serif" font-size="10.00">scram::gui::diagram</text>
<text text-anchor="middle" x="242" y="-214" font-family="Helvetica,sans-Serif" font-size="10.00">::Gate::Gate</text>
</a>
</g>
</g>
<!-- Node1&#45;&gt;Node3 -->
<g id="edge2" class="edge"><title>Node1&#45;&gt;Node3</title>
<path fill="none" stroke="midnightblue" d="M105.1,-167.631C124.216,-177.373 148.062,-188.96 170,-198 177.579,-201.123 185.728,-204.163 193.707,-206.97"/>
<polygon fill="midnightblue" stroke="midnightblue" points="106.619,-164.476 96.1249,-163.015 103.417,-170.701 106.619,-164.476"/>
</g>
<!-- Node4 -->
<g id="node4" class="node"><title>Node4</title>
<g id="a_node4"><a xlink:href="classscram_1_1gui_1_1diagram_1_1Event.xhtml#a0cec58c01e850dc2571dcecfe1261c8e" target="_top" xlink:title="scram::gui::diagram\l::Event::getTypeGraphics">
<polygon fill="white" stroke="black" points="175,-158 175,-188 309,-188 309,-158 175,-158"/>
<text text-anchor="start" x="183" y="-176" font-family="Helvetica,sans-Serif" font-size="10.00">scram::gui::diagram</text>
<text text-anchor="middle" x="242" y="-165" font-family="Helvetica,sans-Serif" font-size="10.00">::Event::getTypeGraphics</text>
</a>
</g>
</g>
<!-- Node1&#45;&gt;Node4 -->
<g id="edge3" class="edge"><title>Node1&#45;&gt;Node4</title>
<path fill="none" stroke="midnightblue" d="M144.429,-159.045C154.55,-160.507 164.857,-161.997 174.786,-163.432"/>
<polygon fill="midnightblue" stroke="midnightblue" points="144.789,-155.56 134.392,-157.594 143.788,-162.488 144.789,-155.56"/>
</g>
<!-- Node6 -->
<g id="node6" class="node"><title>Node6</title>
<g id="a_node6"><a xlink:href="classscram_1_1gui_1_1diagram_1_1HouseEvent.xhtml#aa0e8d4250c50e7795f15e7e67fd8da5c" target="_top" xlink:title="Assigns an event to a presentation view. ">
<polygon fill="white" stroke="black" points="170,-109 170,-139 314,-139 314,-109 170,-109"/>
<text text-anchor="start" x="178" y="-127" font-family="Helvetica,sans-Serif" font-size="10.00">scram::gui::diagram</text>
<text text-anchor="middle" x="242" y="-116" font-family="Helvetica,sans-Serif" font-size="10.00">::HouseEvent::HouseEvent</text>
</a>
</g>
</g>
<!-- Node1&#45;&gt;Node6 -->
<g id="edge5" class="edge"><title>Node1&#45;&gt;Node6</title>
<path fill="none" stroke="midnightblue" d="M144.302,-137.415C152.813,-136.234 161.458,-135.035 169.901,-133.863"/>
<polygon fill="midnightblue" stroke="midnightblue" points="143.816,-133.949 134.392,-138.79 144.778,-140.882 143.816,-133.949"/>
</g>
<!-- Node7 -->
<g id="node7" class="node"><title>Node7</title>
<g id="a_node7"><a xlink:href="classscram_1_1gui_1_1diagram_1_1TransferIn.xhtml#a2730a1fcb6263bbe58286e9b6082f642" target="_top" xlink:title="Assigns an event to a presentation view. ">
<polygon fill="white" stroke="black" points="182,-60 182,-90 302,-90 302,-60 182,-60"/>
<text text-anchor="start" x="190" y="-78" font-family="Helvetica,sans-Serif" font-size="10.00">scram::gui::diagram</text>
<text text-anchor="middle" x="242" y="-67" font-family="Helvetica,sans-Serif" font-size="10.00">::TransferIn::TransferIn</text>
</a>
</g>
</g>
<!-- Node1&#45;&gt;Node7 -->
<g id="edge6" class="edge"><title>Node1&#45;&gt;Node7</title>
<path fill="none" stroke="midnightblue" d="M107.138,-128.445C125.947,-119.341 148.933,-108.64 170,-100 178.343,-96.5785 187.346,-93.1852 196.048,-90.0535"/>
<polygon fill="midnightblue" stroke="midnightblue" points="105.446,-125.376 97.9919,-132.905 108.514,-131.668 105.446,-125.376"/>
</g>
<!-- Node8 -->
<g id="node8" class="node"><title>Node8</title>
<g id="a_node8"><a xlink:href="classscram_1_1gui_1_1diagram_1_1UndevelopedEvent.xhtml#a5047cec2da3a7af805982b9acf10d063" target="_top" xlink:title="Assigns an event to a presentation view. ">
<polygon fill="white" stroke="black" points="182.5,-0.5 182.5,-41.5 301.5,-41.5 301.5,-0.5 182.5,-0.5"/>
<text text-anchor="start" x="190.5" y="-29.5" font-family="Helvetica,sans-Serif" font-size="10.00">scram::gui::diagram</text>
<text text-anchor="start" x="190.5" y="-18.5" font-family="Helvetica,sans-Serif" font-size="10.00">::UndevelopedEvent::</text>
<text text-anchor="middle" x="242" y="-7.5" font-family="Helvetica,sans-Serif" font-size="10.00">UndevelopedEvent</text>
</a>
</g>
</g>
<!-- Node1&#45;&gt;Node8 -->
<g id="edge7" class="edge"><title>Node1&#45;&gt;Node8</title>
<path fill="none" stroke="midnightblue" d="M87.5852,-125.113C106.836,-103.725 137.919,-72.0199 170,-51 175.149,-47.6265 180.74,-44.4967 186.447,-41.632"/>
<polygon fill="midnightblue" stroke="midnightblue" points="84.8209,-122.956 80.8092,-132.762 90.0604,-127.598 84.8209,-122.956"/>
</g>
<!-- Node5 -->
<g id="node5" class="node"><title>Node5</title>
<g id="a_node5"><a xlink:href="classscram_1_1gui_1_1diagram_1_1Gate.xhtml#a0d59d686a63ffaa23f6c121860354d4b" target="_top" xlink:title="Adds the transfer&#45;out symbol besides the gate shape. ">
<polygon fill="white" stroke="black" points="350,-158 350,-188 475,-188 475,-158 350,-158"/>
<text text-anchor="start" x="358" y="-176" font-family="Helvetica,sans-Serif" font-size="10.00">scram::gui::diagram</text>
<text text-anchor="middle" x="412.5" y="-165" font-family="Helvetica,sans-Serif" font-size="10.00">::Gate::addTransferOut</text>
</a>
</g>
</g>
<!-- Node4&#45;&gt;Node5 -->
<g id="edge4" class="edge"><title>Node4&#45;&gt;Node5</title>
<path fill="none" stroke="midnightblue" d="M319.307,-173C329.577,-173 340.006,-173 349.977,-173"/>
<polygon fill="midnightblue" stroke="midnightblue" points="319.112,-169.5 309.112,-173 319.112,-176.5 319.112,-169.5"/>
</g>
</g>
</svg>
