<?xml version="1.0" encoding="UTF-8" standalone="no"?>
<!DOCTYPE svg PUBLIC "-//W3C//DTD SVG 1.1//EN"
 "http://www.w3.org/Graphics/SVG/1.1/DTD/svg11.dtd">
<!-- Generated by graphviz version 2.38.0 (20140413.2041)
 -->
<!-- Title: scram::gui::model::BasicEvent::expressionChanged Pages: 1 -->
<svg width="386pt" height="88pt"
 viewBox="0.00 0.00 386.00 88.00" xmlns="http://www.w3.org/2000/svg" xmlns:xlink="http://www.w3.org/1999/xlink">
<g id="graph0" class="graph" transform="scale(1 1) rotate(0) translate(4 84)">
<title>scram::gui::model::BasicEvent::expressionChanged</title>
<polygon fill="white" stroke="none" points="-4,4 -4,-84 382,-84 382,4 -4,4"/>
<!-- Node1 -->
<g id="node1" class="node"><title>Node1</title>
<polygon fill="#bfbfbf" stroke="black" points="0,-24.5 0,-54.5 170,-54.5 170,-24.5 0,-24.5"/>
<text text-anchor="start" x="8" y="-42.5" font-family="Helvetica,sans-Serif" font-size="10.00">scram::gui::model::</text>
<text text-anchor="middle" x="85" y="-31.5" font-family="Helvetica,sans-Serif" font-size="10.00">BasicEvent::expressionChanged</text>
</g>
<!-- Node2 -->
<g id="node2" class="node"><title>Node2</title>
<g id="a_node2"><a xlink:href="classscram_1_1gui_1_1model_1_1BasicEventContainerModel.xhtml#a44a7b2e19f453595a7b6650d5273b2db" target="_top" xlink:title="Required standard member functions of QAbstractItemModel interface. ">
<polygon fill="white" stroke="black" points="206,-49.5 206,-79.5 378,-79.5 378,-49.5 206,-49.5"/>
<text text-anchor="start" x="214" y="-67.5" font-family="Helvetica,sans-Serif" font-size="10.00">scram::gui::model::</text>
<text text-anchor="middle" x="292" y="-56.5" font-family="Helvetica,sans-Serif" font-size="10.00">BasicEventContainerModel::data</text>
</a>
</g>
</g>
<!-- Node1&#45;&gt;Node2 -->
<g id="edge1" class="edge"><title>Node1&#45;&gt;Node2</title>
<path fill="none" stroke="midnightblue" d="M180.209,-50.9889C188.719,-52.0267 197.306,-53.0739 205.732,-54.1015"/>
<polygon fill="midnightblue" stroke="midnightblue" points="180.619,-47.5131 170.269,-49.7767 179.772,-54.4616 180.619,-47.5131"/>
</g>
<!-- Node3 -->
<g id="node3" class="node"><title>Node3</title>
<g id="a_node3"><a xlink:href="classscram_1_1gui_1_1model_1_1BasicEvent_1_1SetExpression.xhtml#ae6a0cda81a87f9e74eaf258a0a266963" target="_top" xlink:title="Applies the expression changes. ">
<polygon fill="white" stroke="black" points="206.5,-0.5 206.5,-30.5 377.5,-30.5 377.5,-0.5 206.5,-0.5"/>
<text text-anchor="start" x="214.5" y="-18.5" font-family="Helvetica,sans-Serif" font-size="10.00">scram::gui::model::</text>
<text text-anchor="middle" x="292" y="-7.5" font-family="Helvetica,sans-Serif" font-size="10.00">BasicEvent::SetExpression::redo</text>
</a>
</g>
</g>
<!-- Node1&#45;&gt;Node3 -->
<g id="edge2" class="edge"><title>Node1&#45;&gt;Node3</title>
<path fill="none" stroke="midnightblue" d="M180.398,-28.4486C189.069,-27.4333 197.819,-26.409 206.396,-25.4049"/>
<polygon fill="midnightblue" stroke="midnightblue" points="179.794,-24.9952 170.269,-29.6344 180.608,-31.9478 179.794,-24.9952"/>
</g>
</g>
</svg>
