<?xml version="1.0" encoding="UTF-8" standalone="no"?>
<!DOCTYPE svg PUBLIC "-//W3C//DTD SVG 1.1//EN"
 "http://www.w3.org/Graphics/SVG/1.1/DTD/svg11.dtd">
<!-- Generated by graphviz version 2.38.0 (20140413.2041)
 -->
<!-- Title: scram::gui::DiagramView Pages: 1 -->
<svg width="286pt" height="309pt"
 viewBox="0.00 0.00 285.50 309.00" xmlns="http://www.w3.org/2000/svg" xmlns:xlink="http://www.w3.org/1999/xlink">
<g id="graph0" class="graph" transform="scale(1 1) rotate(0) translate(4 305)">
<title>scram::gui::DiagramView</title>
<polygon fill="white" stroke="none" points="-4,4 -4,-305 281.5,-305 281.5,4 -4,4"/>
<!-- Node1 -->
<g id="node1" class="node"><title>Node1</title>
<polygon fill="#bfbfbf" stroke="black" points="78,-0.5 78,-57.5 214,-57.5 214,-0.5 78,-0.5"/>
<text text-anchor="middle" x="146" y="-45.5" font-family="Helvetica,sans-Serif" font-size="10.00">scram::gui::DiagramView</text>
<polyline fill="none" stroke="black" points="78,-38.5 214,-38.5 "/>
<text text-anchor="middle" x="146" y="-26.5" font-family="Helvetica,sans-Serif" font-size="10.00"> </text>
<polyline fill="none" stroke="black" points="78,-19.5 214,-19.5 "/>
<text text-anchor="start" x="86" y="-7.5" font-family="Helvetica,sans-Serif" font-size="10.00">+ exportAs()</text>
</g>
<!-- Node2 -->
<g id="node2" class="node"><title>Node2</title>
<g id="a_node2"><a xlink:href="classscram_1_1gui_1_1ZoomableView.xhtml" target="_top" xlink:title="The base class for graphics views with default zoom logic. ">
<polygon fill="white" stroke="black" points="0,-94.5 0,-206.5 144,-206.5 144,-94.5 0,-94.5"/>
<text text-anchor="middle" x="72" y="-194.5" font-family="Helvetica,sans-Serif" font-size="10.00">scram::gui::ZoomableView</text>
<polyline fill="none" stroke="black" points="0,-187.5 144,-187.5 "/>
<text text-anchor="middle" x="72" y="-175.5" font-family="Helvetica,sans-Serif" font-size="10.00"> </text>
<polyline fill="none" stroke="black" points="0,-168.5 144,-168.5 "/>
<text text-anchor="start" x="8" y="-156.5" font-family="Helvetica,sans-Serif" font-size="10.00">+ getZoom()</text>
<text text-anchor="start" x="8" y="-145.5" font-family="Helvetica,sans-Serif" font-size="10.00">+ setZoom()</text>
<text text-anchor="start" x="8" y="-134.5" font-family="Helvetica,sans-Serif" font-size="10.00">+ zoomIn()</text>
<text text-anchor="start" x="8" y="-123.5" font-family="Helvetica,sans-Serif" font-size="10.00">+ zoomOut()</text>
<text text-anchor="start" x="8" y="-112.5" font-family="Helvetica,sans-Serif" font-size="10.00">+ zoomBestFit()</text>
<text text-anchor="start" x="8" y="-101.5" font-family="Helvetica,sans-Serif" font-size="10.00"># wheelEvent()</text>
</a>
</g>
</g>
<!-- Node2&#45;&gt;Node1 -->
<g id="edge1" class="edge"><title>Node2&#45;&gt;Node1</title>
<path fill="none" stroke="midnightblue" d="M111.548,-85.6361C117.643,-75.7932 123.645,-66.0999 128.889,-57.6315"/>
<polygon fill="none" stroke="midnightblue" points="108.473,-83.9528 106.184,-94.2974 114.425,-87.6381 108.473,-83.9528"/>
</g>
<!-- Node3 -->
<g id="node3" class="node"><title>Node3</title>
<polygon fill="white" stroke="#bfbfbf" points="28,-243.5 28,-300.5 116,-300.5 116,-243.5 28,-243.5"/>
<text text-anchor="middle" x="72" y="-288.5" font-family="Helvetica,sans-Serif" font-size="10.00">QGraphicsView</text>
<polyline fill="none" stroke="#bfbfbf" points="28,-281.5 116,-281.5 "/>
<text text-anchor="middle" x="72" y="-269.5" font-family="Helvetica,sans-Serif" font-size="10.00"> </text>
<polyline fill="none" stroke="#bfbfbf" points="28,-262.5 116,-262.5 "/>
<text text-anchor="middle" x="72" y="-250.5" font-family="Helvetica,sans-Serif" font-size="10.00"> </text>
</g>
<!-- Node3&#45;&gt;Node2 -->
<g id="edge2" class="edge"><title>Node3&#45;&gt;Node2</title>
<path fill="none" stroke="midnightblue" d="M72,-233.108C72,-224.748 72,-215.725 72,-206.834"/>
<polygon fill="none" stroke="midnightblue" points="68.5001,-233.284 72,-243.284 75.5001,-233.284 68.5001,-233.284"/>
</g>
<!-- Node4 -->
<g id="node4" class="node"><title>Node4</title>
<g id="a_node4"><a xlink:href="classscram_1_1gui_1_1Printable.xhtml" target="_top" xlink:title="An abstract mixin class for printable objects. ">
<polygon fill="white" stroke="black" points="162.5,-111 162.5,-190 277.5,-190 277.5,-111 162.5,-111"/>
<text text-anchor="middle" x="220" y="-178" font-family="Helvetica,sans-Serif" font-size="10.00">scram::gui::Printable</text>
<polyline fill="none" stroke="black" points="162.5,-171 277.5,-171 "/>
<text text-anchor="middle" x="220" y="-159" font-family="Helvetica,sans-Serif" font-size="10.00"> </text>
<polyline fill="none" stroke="black" points="162.5,-152 277.5,-152 "/>
<text text-anchor="start" x="170.5" y="-140" font-family="Helvetica,sans-Serif" font-size="10.00">+ ~Printable()</text>
<text text-anchor="start" x="170.5" y="-129" font-family="Helvetica,sans-Serif" font-size="10.00">+ print()</text>
<text text-anchor="start" x="170.5" y="-118" font-family="Helvetica,sans-Serif" font-size="10.00">+ printPreview()</text>
</a>
</g>
</g>
<!-- Node4&#45;&gt;Node1 -->
<g id="edge3" class="edge"><title>Node4&#45;&gt;Node1</title>
<path fill="none" stroke="midnightblue" d="M190.583,-101.996C181.262,-86.9442 171.271,-70.8096 163.114,-57.6374"/>
<polygon fill="none" stroke="midnightblue" points="187.734,-104.043 195.974,-110.702 193.685,-100.357 187.734,-104.043"/>
</g>
</g>
</svg>
