<?xml version="1.0" encoding="UTF-8" standalone="no"?>
<!DOCTYPE svg PUBLIC "-//W3C//DTD SVG 1.1//EN"
 "http://www.w3.org/Graphics/SVG/1.1/DTD/svg11.dtd">
<!-- Generated by graphviz version 2.38.0 (20140413.2041)
 -->
<!-- Title: scram::gui::model::Gate Pages: 1 -->
<svg width="310pt" height="398pt"
 viewBox="0.00 0.00 309.50 398.00" xmlns="http://www.w3.org/2000/svg" xmlns:xlink="http://www.w3.org/1999/xlink">
<g id="graph0" class="graph" transform="scale(1 1) rotate(0) translate(4 394)">
<title>scram::gui::model::Gate</title>
<polygon fill="white" stroke="none" points="-4,4 -4,-394 305.5,-394 305.5,4 -4,4"/>
<!-- Node1 -->
<g id="node1" class="node"><title>Node1</title>
<polygon fill="#bfbfbf" stroke="black" points="74.5,-0.5 74.5,-101.5 206.5,-101.5 206.5,-0.5 74.5,-0.5"/>
<text text-anchor="middle" x="140.5" y="-89.5" font-family="Helvetica,sans-Serif" font-size="10.00">scram::gui::model::Gate</text>
<polyline fill="none" stroke="black" points="74.5,-82.5 206.5,-82.5 "/>
<text text-anchor="middle" x="140.5" y="-70.5" font-family="Helvetica,sans-Serif" font-size="10.00"> </text>
<polyline fill="none" stroke="black" points="74.5,-63.5 206.5,-63.5 "/>
<text text-anchor="start" x="82.5" y="-51.5" font-family="Helvetica,sans-Serif" font-size="10.00">+ Gate()</text>
<text text-anchor="start" x="82.5" y="-40.5" font-family="Helvetica,sans-Serif" font-size="10.00">+ type()</text>
<text text-anchor="start" x="82.5" y="-29.5" font-family="Helvetica,sans-Serif" font-size="10.00">+ numArgs()</text>
<text text-anchor="start" x="82.5" y="-18.5" font-family="Helvetica,sans-Serif" font-size="10.00">+ minNumber()</text>
<text text-anchor="start" x="82.5" y="-7.5" font-family="Helvetica,sans-Serif" font-size="10.00">+ args()</text>
</g>
<!-- Node2 -->
<g id="node2" class="node"><title>Node2</title>
<g id="a_node2"><a xlink:href="classscram_1_1gui_1_1model_1_1Element.xhtml" target="_top" xlink:title="The base proxy Element model for mef::Element. ">
<polygon fill="white" stroke="black" points="0,-145 0,-235 109,-235 109,-145 0,-145"/>
<text text-anchor="start" x="8" y="-223" font-family="Helvetica,sans-Serif" font-size="10.00">scram::gui::model::</text>
<text text-anchor="middle" x="54.5" y="-212" font-family="Helvetica,sans-Serif" font-size="10.00">Element</text>
<polyline fill="none" stroke="black" points="0,-205 109,-205 "/>
<text text-anchor="middle" x="54.5" y="-193" font-family="Helvetica,sans-Serif" font-size="10.00"> </text>
<polyline fill="none" stroke="black" points="0,-186 109,-186 "/>
<text text-anchor="start" x="8" y="-174" font-family="Helvetica,sans-Serif" font-size="10.00">+ id()</text>
<text text-anchor="start" x="8" y="-163" font-family="Helvetica,sans-Serif" font-size="10.00">+ label()</text>
<text text-anchor="start" x="8" y="-152" font-family="Helvetica,sans-Serif" font-size="10.00"># Element()</text>
</a>
</g>
</g>
<!-- Node2&#45;&gt;Node1 -->
<g id="edge1" class="edge"><title>Node2&#45;&gt;Node1</title>
<path fill="none" stroke="midnightblue" d="M87.5541,-136.344C94.693,-124.972 102.219,-112.983 109.285,-101.727"/>
<polygon fill="none" stroke="midnightblue" points="84.5367,-134.568 82.1843,-144.898 90.4654,-138.29 84.5367,-134.568"/>
</g>
<!-- Node3 -->
<g id="node3" class="node"><title>Node3</title>
<polygon fill="white" stroke="#bfbfbf" points="27,-310.5 27,-367.5 82,-367.5 82,-310.5 27,-310.5"/>
<text text-anchor="middle" x="54.5" y="-355.5" font-family="Helvetica,sans-Serif" font-size="10.00">QObject</text>
<polyline fill="none" stroke="#bfbfbf" points="27,-348.5 82,-348.5 "/>
<text text-anchor="middle" x="54.5" y="-336.5" font-family="Helvetica,sans-Serif" font-size="10.00"> </text>
<polyline fill="none" stroke="#bfbfbf" points="27,-329.5 82,-329.5 "/>
<text text-anchor="middle" x="54.5" y="-317.5" font-family="Helvetica,sans-Serif" font-size="10.00"> </text>
</g>
<!-- Node3&#45;&gt;Node2 -->
<g id="edge2" class="edge"><title>Node3&#45;&gt;Node2</title>
<path fill="none" stroke="midnightblue" d="M54.5,-300.158C54.5,-280.345 54.5,-255.969 54.5,-235.282"/>
<polygon fill="none" stroke="midnightblue" points="51.0001,-300.35 54.5,-310.35 58.0001,-300.35 51.0001,-300.35"/>
</g>
<!-- Node4 -->
<g id="node4" class="node"><title>Node4</title>
<g id="a_node4"><a xlink:href="classscram_1_1gui_1_1model_1_1Proxy.xhtml" target="_top" xlink:title="{scram::gui::model::\lProxy\&lt; Gate, mef::Gate \&gt;\n||+ data()\l+ data()\l* data()\l* data()\l}">
<polygon fill="white" stroke="black" points="127,-139.5 127,-240.5 270,-240.5 270,-139.5 127,-139.5"/>
<text text-anchor="start" x="135" y="-228.5" font-family="Helvetica,sans-Serif" font-size="10.00">scram::gui::model::</text>
<text text-anchor="middle" x="198.5" y="-217.5" font-family="Helvetica,sans-Serif" font-size="10.00">Proxy&lt; Gate, mef::Gate &gt;</text>
<polyline fill="none" stroke="black" points="127,-210.5 270,-210.5 "/>
<text text-anchor="middle" x="198.5" y="-198.5" font-family="Helvetica,sans-Serif" font-size="10.00"> </text>
<polyline fill="none" stroke="black" points="127,-191.5 270,-191.5 "/>
<text text-anchor="start" x="135" y="-179.5" font-family="Helvetica,sans-Serif" font-size="10.00">+ data()</text>
<text text-anchor="start" x="135" y="-168.5" font-family="Helvetica,sans-Serif" font-size="10.00">+ data()</text>
<text text-anchor="start" x="135" y="-157.5" font-family="Helvetica,sans-Serif" font-size="10.00">* data()</text>
<text text-anchor="start" x="135" y="-146.5" font-family="Helvetica,sans-Serif" font-size="10.00">* data()</text>
</a>
</g>
</g>
<!-- Node4&#45;&gt;Node1 -->
<g id="edge3" class="edge"><title>Node4&#45;&gt;Node1</title>
<path fill="none" stroke="midnightblue" d="M173.453,-129.837C169.464,-120.415 165.373,-110.753 161.491,-101.581"/>
<polygon fill="none" stroke="midnightblue" points="170.275,-131.308 177.397,-139.152 176.721,-128.579 170.275,-131.308"/>
</g>
<!-- Node5 -->
<g id="node5" class="node"><title>Node5</title>
<g id="a_node5"><a xlink:href="classscram_1_1gui_1_1model_1_1Proxy.xhtml" target="_top" xlink:title="Provides the type and data of the origin for Proxy Elements. ">
<polygon fill="white" stroke="black" points="144,-288.5 144,-389.5 253,-389.5 253,-288.5 144,-288.5"/>
<text text-anchor="start" x="152" y="-377.5" font-family="Helvetica,sans-Serif" font-size="10.00">scram::gui::model::</text>
<text text-anchor="middle" x="198.5" y="-366.5" font-family="Helvetica,sans-Serif" font-size="10.00">Proxy&lt; E, T &gt;</text>
<polyline fill="none" stroke="black" points="144,-359.5 253,-359.5 "/>
<text text-anchor="middle" x="198.5" y="-347.5" font-family="Helvetica,sans-Serif" font-size="10.00"> </text>
<polyline fill="none" stroke="black" points="144,-340.5 253,-340.5 "/>
<text text-anchor="start" x="152" y="-328.5" font-family="Helvetica,sans-Serif" font-size="10.00">+ data()</text>
<text text-anchor="start" x="152" y="-317.5" font-family="Helvetica,sans-Serif" font-size="10.00">+ data()</text>
<text text-anchor="start" x="152" y="-306.5" font-family="Helvetica,sans-Serif" font-size="10.00">* data()</text>
<text text-anchor="start" x="152" y="-295.5" font-family="Helvetica,sans-Serif" font-size="10.00">* data()</text>
</a>
</g>
</g>
<!-- Node5&#45;&gt;Node4 -->
<g id="edge4" class="edge"><title>Node5&#45;&gt;Node4</title>
<path fill="none" stroke="orange" d="M198.5,-277.986C198.5,-265.601 198.5,-252.687 198.5,-240.716"/>
<polygon fill="orange" stroke="orange" points="195,-278.232 198.5,-288.233 202,-278.233 195,-278.232"/>
<text text-anchor="middle" x="250" y="-262" font-family="Helvetica,sans-Serif" font-size="10.00"> &lt; Gate, mef::Gate &gt;</text>
</g>
</g>
</svg>
