<?xml version="1.0" encoding="UTF-8" standalone="no"?>
<!DOCTYPE svg PUBLIC "-//W3C//DTD SVG 1.1//EN"
 "http://www.w3.org/Graphics/SVG/1.1/DTD/svg11.dtd">
<!-- Generated by graphviz version 2.38.0 (20140413.2041)
 -->
<!-- Title: scram::gui::model::ElementContainerModel::getElement Pages: 1 -->
<!--zoomable 406 -->
<svg id="main" version="1.1" xmlns="http://www.w3.org/2000/svg" xmlns:xlink="http://www.w3.org/1999/xlink" xml:space="preserve" onload="init(evt)">
<style type="text/css"><![CDATA[
.edge:hover path { stroke: red; }
.edge:hover polygon { stroke: red; fill: red; }
]]></style>
<script type="text/javascript"><![CDATA[
var edges = document.getElementsByTagName('g');
if (edges && edges.length) {
  for (var i=0;i<edges.length;i++) {
    if (edges[i].id.substr(0,4)=='edge') {
      edges[i].setAttribute('class','edge');
    }
  }
}
]]></script>
        <defs>
                <circle id="rim" cx="0" cy="0" r="7"/>
                <circle id="rim2" cx="0" cy="0" r="3.5"/>
                <g id="zoomPlus">
                        <use xlink:href="#rim" fill="#404040">
                                <set attributeName="fill" to="#808080" begin="zoomplus.mouseover" end="zoomplus.mouseout"/>
                        </use>
                        <path d="M-4,0h8M0,-4v8" fill="none" stroke="white" stroke-width="1.5" pointer-events="none"/>
                </g>
                <g id="zoomMin">
                        <use xlink:href="#rim" fill="#404040">
                                <set attributeName="fill" to="#808080" begin="zoomminus.mouseover" end="zoomminus.mouseout"/>
                        </use>
                        <path d="M-4,0h8" fill="none" stroke="white" stroke-width="1.5" pointer-events="none"/>
                </g>
                <g id="dirArrow">
                        <path fill="none" stroke="white" stroke-width="1.5" d="M0,-3.0v7 M-2.5,-0.5L0,-3.0L2.5,-0.5"/>
                </g>
               <g id="resetDef">
                       <use xlink:href="#rim2" fill="#404040">
                               <set attributeName="fill" to="#808080" begin="reset.mouseover" end="reset.mouseout"/>
                       </use>
               </g>
        </defs>

<script type="text/javascript">
var viewWidth = 1047;
var viewHeight = 406;
var sectionId = 'dynsection-3';
</script>
<script xlink:href="svgpan.js"/>
<svg id="graph" class="graph">
<g id="viewport">
<title>scram::gui::model::ElementContainerModel::getElement</title>
<polygon fill="white" stroke="none" points="-4,4 -4,-402 1043,-402 1043,4 -4,4"/>
<!-- Node1 -->
<g id="node1" class="node"><title>Node1</title>
<polygon fill="#bfbfbf" stroke="black" points="0,-89.5 0,-130.5 131,-130.5 131,-89.5 0,-89.5"/>
<text text-anchor="start" x="8" y="-118.5" font-family="Helvetica,sans-Serif" font-size="10.00">scram::gui::model::</text>
<text text-anchor="start" x="8" y="-107.5" font-family="Helvetica,sans-Serif" font-size="10.00">ElementContainerModel</text>
<text text-anchor="middle" x="65.5" y="-96.5" font-family="Helvetica,sans-Serif" font-size="10.00">::getElement</text>
</g>
<!-- Node2 -->
<g id="node2" class="node"><title>Node2</title>
<g id="a_node2"><a xlink:href="classscram_1_1gui_1_1model_1_1ElementContainerModel.xhtml#a18aa736cabfb5651e6c90330e9046241" target="_top" xlink:title="Puts the element pointer into the index&#39;s internal pointer. ">
<polygon fill="white" stroke="black" points="167,-89.5 167,-130.5 298,-130.5 298,-89.5 167,-89.5"/>
<text text-anchor="start" x="175" y="-118.5" font-family="Helvetica,sans-Serif" font-size="10.00">scram::gui::model::</text>
<text text-anchor="start" x="175" y="-107.5" font-family="Helvetica,sans-Serif" font-size="10.00">ElementContainerModel</text>
<text text-anchor="middle" x="232.5" y="-96.5" font-family="Helvetica,sans-Serif" font-size="10.00">::index</text>
</a>
</g>
</g>
<!-- Node1&#45;&gt;Node2 -->
<g id="edge1" class="edge"><title>Node1&#45;&gt;Node2</title>
<path fill="none" stroke="midnightblue" d="M141.239,-103.277C149.821,-103.218 158.516,-103.257 166.948,-103.394"/>
<polygon fill="midnightblue" stroke="midnightblue" points="141.198,-99.7768 131.239,-103.391 141.278,-106.776 141.198,-99.7768"/>
</g>
<!-- Node10 -->
<g id="node10" class="node"><title>Node10</title>
<g id="a_node10"><a xlink:href="classscram_1_1gui_1_1model_1_1ElementContainerModel.xhtml#ab0b11ddc9cea4fe7494dcb8df120396b" target="_top" xlink:title="Assumes the table&#45;layout and returns null index. ">
<polygon fill="white" stroke="black" points="706,-0.5 706,-41.5 837,-41.5 837,-0.5 706,-0.5"/>
<text text-anchor="start" x="714" y="-29.5" font-family="Helvetica,sans-Serif" font-size="10.00">scram::gui::model::</text>
<text text-anchor="start" x="714" y="-18.5" font-family="Helvetica,sans-Serif" font-size="10.00">ElementContainerModel</text>
<text text-anchor="middle" x="771.5" y="-7.5" font-family="Helvetica,sans-Serif" font-size="10.00">::parent</text>
</a>
</g>
</g>
<!-- Node1&#45;&gt;Node10 -->
<g id="edge23" class="edge"><title>Node1&#45;&gt;Node10</title>
<path fill="none" stroke="midnightblue" d="M140.96,-86.9677C149.707,-84.5014 158.53,-82.1219 167,-80 240.474,-61.5933 258.885,-55.7462 334,-46 465.354,-28.9568 620.448,-23.5324 705.887,-21.806"/>
<polygon fill="midnightblue" stroke="midnightblue" points="139.79,-83.6621 131.14,-89.78 141.717,-90.3916 139.79,-83.6621"/>
</g>
<!-- Node2&#45;&gt;Node1 -->
<g id="edge18" class="edge"><title>Node2&#45;&gt;Node1</title>
<path fill="none" stroke="midnightblue" d="M156.671,-116.724C148.182,-116.782 139.583,-116.743 131.239,-116.609"/>
<polygon fill="midnightblue" stroke="midnightblue" points="156.989,-120.221 166.948,-116.606 156.908,-113.221 156.989,-120.221"/>
</g>
<!-- Node3 -->
<g id="node3" class="node"><title>Node3</title>
<g id="a_node3"><a xlink:href="classscram_1_1gui_1_1model_1_1ElementContainerModel.xhtml#a48973e3c3eb7a5323cf73c30f484d861" target="_top" xlink:title="Connects of the element change signals to the table modification. ">
<polygon fill="white" stroke="black" points="341.5,-160.5 341.5,-201.5 472.5,-201.5 472.5,-160.5 341.5,-160.5"/>
<text text-anchor="start" x="349.5" y="-189.5" font-family="Helvetica,sans-Serif" font-size="10.00">scram::gui::model::</text>
<text text-anchor="start" x="349.5" y="-178.5" font-family="Helvetica,sans-Serif" font-size="10.00">ElementContainerModel</text>
<text text-anchor="middle" x="407" y="-167.5" font-family="Helvetica,sans-Serif" font-size="10.00">::connectElement</text>
</a>
</g>
</g>
<!-- Node2&#45;&gt;Node3 -->
<g id="edge2" class="edge"><title>Node2&#45;&gt;Node3</title>
<path fill="none" stroke="midnightblue" d="M292.673,-134.355C313.261,-142.829 336.14,-152.246 355.919,-160.387"/>
<polygon fill="midnightblue" stroke="midnightblue" points="293.974,-131.106 283.394,-130.536 291.309,-137.579 293.974,-131.106"/>
</g>
<!-- Node4 -->
<g id="node4" class="node"><title>Node4</title>
<g id="a_node4"><a xlink:href="classscram_1_1gui_1_1model_1_1ElementContainerModel.xhtml#a057325384c34e69a890a8a409dea2d09" target="_top" xlink:title="scram::gui::model::\lElementContainerModel\l::getElementIndex">
<polygon fill="white" stroke="black" points="516,-122.5 516,-163.5 647,-163.5 647,-122.5 516,-122.5"/>
<text text-anchor="start" x="524" y="-151.5" font-family="Helvetica,sans-Serif" font-size="10.00">scram::gui::model::</text>
<text text-anchor="start" x="524" y="-140.5" font-family="Helvetica,sans-Serif" font-size="10.00">ElementContainerModel</text>
<text text-anchor="middle" x="581.5" y="-129.5" font-family="Helvetica,sans-Serif" font-size="10.00">::getElementIndex</text>
</a>
</g>
</g>
<!-- Node2&#45;&gt;Node4 -->
<g id="edge19" class="edge"><title>Node2&#45;&gt;Node4</title>
<path fill="none" stroke="midnightblue" d="M308.449,-117.128C370.301,-123.01 457.154,-131.27 515.957,-136.862"/>
<polygon fill="midnightblue" stroke="midnightblue" points="308.647,-113.631 298.361,-116.168 307.985,-120.599 308.647,-113.631"/>
</g>
<!-- Node5 -->
<g id="node5" class="node"><title>Node5</title>
<g id="a_node5"><a xlink:href="classscram_1_1gui_1_1model_1_1BasicEventContainerModel.xhtml#a44a7b2e19f453595a7b6650d5273b2db" target="_top" xlink:title="Required standard member functions of QAbstractItemModel interface. ">
<polygon fill="white" stroke="black" points="685.5,-182 685.5,-212 857.5,-212 857.5,-182 685.5,-182"/>
<text text-anchor="start" x="693.5" y="-200" font-family="Helvetica,sans-Serif" font-size="10.00">scram::gui::model::</text>
<text text-anchor="middle" x="771.5" y="-189" font-family="Helvetica,sans-Serif" font-size="10.00">BasicEventContainerModel::data</text>
</a>
</g>
</g>
<!-- Node2&#45;&gt;Node5 -->
<g id="edge20" class="edge"><title>Node2&#45;&gt;Node5</title>
<path fill="none" stroke="midnightblue" d="M252.256,-138.855C269.993,-163.249 299.06,-196.477 334,-211 463.523,-264.839 633.799,-233.552 718.286,-212.057"/>
<polygon fill="midnightblue" stroke="midnightblue" points="255.086,-136.796 246.463,-130.64 249.365,-140.83 255.086,-136.796"/>
</g>
<!-- Node6 -->
<g id="node6" class="node"><title>Node6</title>
<g id="a_node6"><a xlink:href="classscram_1_1gui_1_1model_1_1HouseEventContainerModel.xhtml#aa112416a8c25d3cf8f3c4e0fdcbdc069" target="_top" xlink:title="Required standard member functions of QAbstractItemModel interface. ">
<polygon fill="white" stroke="black" points="683,-74 683,-104 860,-104 860,-74 683,-74"/>
<text text-anchor="start" x="691" y="-92" font-family="Helvetica,sans-Serif" font-size="10.00">scram::gui::model::</text>
<text text-anchor="middle" x="771.5" y="-81" font-family="Helvetica,sans-Serif" font-size="10.00">HouseEventContainerModel::data</text>
</a>
</g>
</g>
<!-- Node2&#45;&gt;Node6 -->
<g id="edge21" class="edge"><title>Node2&#45;&gt;Node6</title>
<path fill="none" stroke="midnightblue" d="M277.144,-84.5106C294.277,-75.8824 314.486,-67.3375 334,-63 463.131,-34.297 618.705,-56.7141 704.897,-73.9583"/>
<polygon fill="midnightblue" stroke="midnightblue" points="275.221,-81.5656 267.966,-89.2864 278.452,-87.7752 275.221,-81.5656"/>
</g>
<!-- Node14 -->
<g id="node14" class="node"><title>Node14</title>
<g id="a_node14"><a xlink:href="classscram_1_1gui_1_1model_1_1GateContainerModel.xhtml#a6061c63e9a92327088cd1b0767a7c2ae" target="_top" xlink:title="The index for children embeds the parent information into the data. ">
<polygon fill="white" stroke="black" points="334,-73 334,-103 480,-103 480,-73 334,-73"/>
<text text-anchor="start" x="342" y="-91" font-family="Helvetica,sans-Serif" font-size="10.00">scram::gui::model::</text>
<text text-anchor="middle" x="407" y="-80" font-family="Helvetica,sans-Serif" font-size="10.00">GateContainerModel::index</text>
</a>
</g>
</g>
<!-- Node2&#45;&gt;Node14 -->
<g id="edge22" class="edge"><title>Node2&#45;&gt;Node14</title>
<path fill="none" stroke="midnightblue" d="M308.177,-100.476C316.734,-99.3847 325.445,-98.2736 333.967,-97.1868"/>
<polygon fill="midnightblue" stroke="midnightblue" points="307.7,-97.0083 298.223,-101.745 308.586,-103.952 307.7,-97.0083"/>
</g>
<!-- Node3&#45;&gt;Node4 -->
<g id="edge3" class="edge"><title>Node3&#45;&gt;Node4</title>
<path fill="none" stroke="midnightblue" d="M481.645,-158.091C493.025,-155.467 504.704,-152.937 515.867,-150.68"/>
<polygon fill="midnightblue" stroke="midnightblue" points="480.677,-154.723 471.743,-160.417 482.278,-161.538 480.677,-154.723"/>
</g>
<!-- Node3&#45;&gt;Node5 -->
<g id="edge11" class="edge"><title>Node3&#45;&gt;Node5</title>
<path fill="none" stroke="midnightblue" d="M483.164,-184.318C542.095,-186.919 624.117,-190.539 685.447,-193.246"/>
<polygon fill="midnightblue" stroke="midnightblue" points="482.952,-180.805 472.808,-183.86 482.644,-187.798 482.952,-180.805"/>
</g>
<!-- Node3&#45;&gt;Node6 -->
<g id="edge12" class="edge"><title>Node3&#45;&gt;Node6</title>
<path fill="none" stroke="midnightblue" d="M441.566,-154.067C461.887,-139.302 489.02,-122.18 516,-113 569.568,-94.7727 632.907,-88.7483 682.995,-87.2928"/>
<polygon fill="midnightblue" stroke="midnightblue" points="439.229,-151.444 433.295,-160.221 443.407,-157.06 439.229,-151.444"/>
</g>
<!-- Node7 -->
<g id="node7" class="node"><title>Node7</title>
<g id="a_node7"><a xlink:href="classscram_1_1gui_1_1model_1_1GateContainerModel.xhtml#a9cdee9017df030e4b41b29d5d8b895c9" target="_top" xlink:title="Constructs from the table of proxy Gates in the Model. ">
<polygon fill="white" stroke="black" points="711,-236.5 711,-277.5 832,-277.5 832,-236.5 711,-236.5"/>
<text text-anchor="start" x="719" y="-265.5" font-family="Helvetica,sans-Serif" font-size="10.00">scram::gui::model::</text>
<text text-anchor="start" x="719" y="-254.5" font-family="Helvetica,sans-Serif" font-size="10.00">GateContainerModel::</text>
<text text-anchor="middle" x="771.5" y="-243.5" font-family="Helvetica,sans-Serif" font-size="10.00">GateContainerModel</text>
</a>
</g>
</g>
<!-- Node3&#45;&gt;Node7 -->
<g id="edge13" class="edge"><title>Node3&#45;&gt;Node7</title>
<path fill="none" stroke="midnightblue" d="M482.955,-196.715C550.466,-210.869 648.403,-231.402 710.763,-244.476"/>
<polygon fill="midnightblue" stroke="midnightblue" points="483.313,-193.214 472.808,-194.587 481.877,-200.065 483.313,-193.214"/>
</g>
<!-- Node11 -->
<g id="node11" class="node"><title>Node11</title>
<g id="a_node11"><a xlink:href="classscram_1_1gui_1_1model_1_1ElementContainerModel.xhtml#af97ae0b24134a7c2fd8da6e2fdd3b042" target="_top" xlink:title="scram::gui::model::\lElementContainerModel\l::elements">
<polygon fill="white" stroke="black" points="516,-296.5 516,-337.5 647,-337.5 647,-296.5 516,-296.5"/>
<text text-anchor="start" x="524" y="-325.5" font-family="Helvetica,sans-Serif" font-size="10.00">scram::gui::model::</text>
<text text-anchor="start" x="524" y="-314.5" font-family="Helvetica,sans-Serif" font-size="10.00">ElementContainerModel</text>
<text text-anchor="middle" x="581.5" y="-303.5" font-family="Helvetica,sans-Serif" font-size="10.00">::elements</text>
</a>
</g>
</g>
<!-- Node3&#45;&gt;Node11 -->
<g id="edge14" class="edge"><title>Node3&#45;&gt;Node11</title>
<path fill="none" stroke="midnightblue" d="M433.925,-208.864C454.824,-230.393 485.635,-260.113 516,-282 523.131,-287.14 531.104,-292.052 538.947,-296.486"/>
<polygon fill="midnightblue" stroke="midnightblue" points="436.415,-206.403 426.964,-201.616 431.367,-211.253 436.415,-206.403"/>
</g>
<!-- Node4&#45;&gt;Node3 -->
<g id="edge4" class="edge"><title>Node4&#45;&gt;Node3</title>
<path fill="none" stroke="midnightblue" d="M506.946,-165.888C495.568,-168.512 483.889,-171.043 472.723,-173.302"/>
<polygon fill="midnightblue" stroke="midnightblue" points="507.912,-169.256 516.846,-163.562 506.311,-162.442 507.912,-169.256"/>
</g>
<!-- Node4&#45;&gt;Node5 -->
<g id="edge5" class="edge"><title>Node4&#45;&gt;Node5</title>
<path fill="none" stroke="midnightblue" d="M656.912,-165.415C665.697,-168.002 674.542,-170.578 683,-173 693.298,-175.949 704.298,-179.024 714.902,-181.951"/>
<polygon fill="midnightblue" stroke="midnightblue" points="657.625,-161.976 647.043,-162.499 655.641,-168.69 657.625,-161.976"/>
</g>
<!-- Node4&#45;&gt;Node6 -->
<g id="edge6" class="edge"><title>Node4&#45;&gt;Node6</title>
<path fill="none" stroke="midnightblue" d="M656.912,-120.585C665.697,-117.998 674.542,-115.422 683,-113 693.298,-110.051 704.298,-106.976 714.902,-104.049"/>
<polygon fill="midnightblue" stroke="midnightblue" points="655.641,-117.31 647.043,-123.501 657.625,-124.024 655.641,-117.31"/>
</g>
<!-- Node4&#45;&gt;Node7 -->
<g id="edge7" class="edge"><title>Node4&#45;&gt;Node7</title>
<path fill="none" stroke="midnightblue" d="M612.968,-170.161C632.138,-186.333 657.918,-206.467 683,-221 692.665,-226.6 703.369,-231.765 713.878,-236.331"/>
<polygon fill="midnightblue" stroke="midnightblue" points="615.054,-167.34 605.179,-163.501 610.505,-172.66 615.054,-167.34"/>
</g>
<!-- Node8 -->
<g id="node8" class="node"><title>Node8</title>
<g id="a_node8"><a xlink:href="classscram_1_1gui_1_1model_1_1GateContainerModel.xhtml#af26e5332d8f7a5df266b95aa965c147f" target="_top" xlink:title="The index for children embeds the parent information into the data. ">
<polygon fill="white" stroke="black" points="711,-122.5 711,-163.5 832,-163.5 832,-122.5 711,-122.5"/>
<text text-anchor="start" x="719" y="-151.5" font-family="Helvetica,sans-Serif" font-size="10.00">scram::gui::model::</text>
<text text-anchor="start" x="719" y="-140.5" font-family="Helvetica,sans-Serif" font-size="10.00">GateContainerModel::</text>
<text text-anchor="middle" x="771.5" y="-129.5" font-family="Helvetica,sans-Serif" font-size="10.00">parent</text>
</a>
</g>
</g>
<!-- Node4&#45;&gt;Node8 -->
<g id="edge8" class="edge"><title>Node4&#45;&gt;Node8</title>
<path fill="none" stroke="midnightblue" d="M657.489,-143C675.185,-143 693.818,-143 710.737,-143"/>
<polygon fill="midnightblue" stroke="midnightblue" points="657.199,-139.5 647.199,-143 657.199,-146.5 657.199,-139.5"/>
</g>
<!-- Node4&#45;&gt;Node10 -->
<g id="edge10" class="edge"><title>Node4&#45;&gt;Node10</title>
<path fill="none" stroke="midnightblue" d="M613.658,-115.729C632.896,-99.6096 658.508,-79.4058 683,-64 695.895,-55.8891 710.538,-48.1665 724.106,-41.5617"/>
<polygon fill="midnightblue" stroke="midnightblue" points="611.195,-113.228 605.825,-122.361 615.718,-118.57 611.195,-113.228"/>
</g>
<!-- Node9 -->
<g id="node9" class="node"><title>Node9</title>
<g id="a_node9"><a xlink:href="classscram_1_1gui_1_1model_1_1GateContainerModel.xhtml#a191036bcdd39eae7889c99ac42208fd6" target="_top" xlink:title="The index for children embeds the parent information into the data. ">
<polygon fill="white" stroke="black" points="896,-128 896,-158 1039,-158 1039,-128 896,-128"/>
<text text-anchor="start" x="904" y="-146" font-family="Helvetica,sans-Serif" font-size="10.00">scram::gui::model::</text>
<text text-anchor="middle" x="967.5" y="-135" font-family="Helvetica,sans-Serif" font-size="10.00">GateContainerModel::data</text>
</a>
</g>
</g>
<!-- Node8&#45;&gt;Node9 -->
<g id="edge9" class="edge"><title>Node8&#45;&gt;Node9</title>
<path fill="none" stroke="midnightblue" d="M842.134,-143C859.59,-143 878.332,-143 895.837,-143"/>
<polygon fill="midnightblue" stroke="midnightblue" points="842.025,-139.5 832.025,-143 842.025,-146.5 842.025,-139.5"/>
</g>
<!-- Node11&#45;&gt;Node7 -->
<g id="edge17" class="edge"><title>Node11&#45;&gt;Node7</title>
<path fill="none" stroke="midnightblue" d="M656.791,-293.29C674.747,-287.56 693.707,-281.508 710.89,-276.024"/>
<polygon fill="midnightblue" stroke="midnightblue" points="655.398,-290.061 646.936,-296.435 657.527,-296.729 655.398,-290.061"/>
</g>
<!-- Node12 -->
<g id="node12" class="node"><title>Node12</title>
<g id="a_node12"><a xlink:href="classscram_1_1gui_1_1model_1_1BasicEventContainerModel.xhtml#a64a95b2368b017f25fc06fd78d0a7f33" target="_top" xlink:title="Constructs from the table of proxy Basic Events in the Model. ">
<polygon fill="white" stroke="black" points="696.5,-296.5 696.5,-337.5 846.5,-337.5 846.5,-296.5 696.5,-296.5"/>
<text text-anchor="start" x="704.5" y="-325.5" font-family="Helvetica,sans-Serif" font-size="10.00">scram::gui::model::</text>
<text text-anchor="start" x="704.5" y="-314.5" font-family="Helvetica,sans-Serif" font-size="10.00">BasicEventContainerModel</text>
<text text-anchor="middle" x="771.5" y="-303.5" font-family="Helvetica,sans-Serif" font-size="10.00">::BasicEventContainerModel</text>
</a>
</g>
</g>
<!-- Node11&#45;&gt;Node12 -->
<g id="edge15" class="edge"><title>Node11&#45;&gt;Node12</title>
<path fill="none" stroke="midnightblue" d="M657.359,-317C670.184,-317 683.506,-317 696.313,-317"/>
<polygon fill="midnightblue" stroke="midnightblue" points="657.199,-313.5 647.199,-317 657.199,-320.5 657.199,-313.5"/>
</g>
<!-- Node13 -->
<g id="node13" class="node"><title>Node13</title>
<g id="a_node13"><a xlink:href="classscram_1_1gui_1_1model_1_1HouseEventContainerModel.xhtml#a1687ef3e47c335b5b3a52e21ba0e7dd2" target="_top" xlink:title="Constructs from the table of proxy House Events in the Model. ">
<polygon fill="white" stroke="black" points="694,-356.5 694,-397.5 849,-397.5 849,-356.5 694,-356.5"/>
<text text-anchor="start" x="702" y="-385.5" font-family="Helvetica,sans-Serif" font-size="10.00">scram::gui::model::</text>
<text text-anchor="start" x="702" y="-374.5" font-family="Helvetica,sans-Serif" font-size="10.00">HouseEventContainerModel</text>
<text text-anchor="middle" x="771.5" y="-363.5" font-family="Helvetica,sans-Serif" font-size="10.00">::HouseEventContainerModel</text>
</a>
</g>
</g>
<!-- Node11&#45;&gt;Node13 -->
<g id="edge16" class="edge"><title>Node11&#45;&gt;Node13</title>
<path fill="none" stroke="midnightblue" d="M656.484,-340.612C672.895,-345.849 690.159,-351.359 706.148,-356.462"/>
<polygon fill="midnightblue" stroke="midnightblue" points="657.527,-337.271 646.936,-337.565 655.398,-343.939 657.527,-337.271"/>
</g>
</g>
</svg>
        <g id="navigator" transform="translate(0 0)" fill="#404254">
                <rect fill="#f2f5e9" fill-opacity="0.5" stroke="#606060" stroke-width=".5" x="0" y="0" width="60" height="60"/>
                <use id="zoomplus" xlink:href="#zoomPlus" x="17" y="9" onmousedown="handleZoom(evt,'in')"/>
                <use id="zoomminus" xlink:href="#zoomMin" x="42" y="9" onmousedown="handleZoom(evt,'out')"/>
                <use id="reset" xlink:href="#resetDef" x="30" y="36" onmousedown="handleReset()"/>
                <g id="arrowUp" xlink:href="#dirArrow" transform="translate(30 24)" onmousedown="handlePan(0,-1)">
                  <use xlink:href="#rim" fill="#404040">
                        <set attributeName="fill" to="#808080" begin="arrowUp.mouseover" end="arrowUp.mouseout"/>
                  </use>
                  <path fill="none" stroke="white" stroke-width="1.5" d="M0,-3.0v7 M-2.5,-0.5L0,-3.0L2.5,-0.5"/>
                </g>
                <g id="arrowRight" xlink:href="#dirArrow" transform="rotate(90) translate(36 -43)" onmousedown="handlePan(1,0)">
                  <use xlink:href="#rim" fill="#404040">
                        <set attributeName="fill" to="#808080" begin="arrowRight.mouseover" end="arrowRight.mouseout"/>
                  </use>
                  <path fill="none" stroke="white" stroke-width="1.5" d="M0,-3.0v7 M-2.5,-0.5L0,-3.0L2.5,-0.5"/>
                </g>
                <g id="arrowDown" xlink:href="#dirArrow" transform="rotate(180) translate(-30 -48)" onmousedown="handlePan(0,1)">
                  <use xlink:href="#rim" fill="#404040">
                        <set attributeName="fill" to="#808080" begin="arrowDown.mouseover" end="arrowDown.mouseout"/>
                  </use>
                  <path fill="none" stroke="white" stroke-width="1.5" d="M0,-3.0v7 M-2.5,-0.5L0,-3.0L2.5,-0.5"/>
                </g>
                <g id="arrowLeft" xlink:href="#dirArrow" transform="rotate(270) translate(-36 17)" onmousedown="handlePan(-1,0)">
                  <use xlink:href="#rim" fill="#404040">
                        <set attributeName="fill" to="#808080" begin="arrowLeft.mouseover" end="arrowLeft.mouseout"/>
                  </use>
                  <path fill="none" stroke="white" stroke-width="1.5" d="M0,-3.0v7 M-2.5,-0.5L0,-3.0L2.5,-0.5"/>
                </g>
        </g>
        <svg viewBox="0 0 15 15" width="100%" height="30px" preserveAspectRatio="xMaxYMin meet">
         <g id="arrow_out" transform="scale(0.3 0.3)">
          <a xlink:href="classscram_1_1gui_1_1model_1_1ElementContainerModel_a9aee454164cf6db9962bd29e367c9082_icgraph_org.svg" target="_base">
           <rect id="button" ry="5" rx="5" y="6" x="6" height="38" width="38"
                fill="#f2f5e9" fill-opacity="0.5" stroke="#606060" stroke-width="1.0"/>
           <path id="arrow"
             d="M 11.500037,31.436501 C 11.940474,20.09759 22.043105,11.32322 32.158766,21.979434 L 37.068811,17.246167 C 37.068811,17.246167 37.088388,32 37.088388,32 L 22.160133,31.978069 C 22.160133,31.978069 26.997745,27.140456 26.997745,27.140456 C 18.528582,18.264221 13.291696,25.230495 11.500037,31.436501 z"
             style="fill:#404040;"/>
          </a>
         </g>
        </svg>
</svg>
