<?xml version="1.0" encoding="UTF-8" standalone="no"?>
<!DOCTYPE svg PUBLIC "-//W3C//DTD SVG 1.1//EN"
 "http://www.w3.org/Graphics/SVG/1.1/DTD/svg11.dtd">
<!-- Generated by graphviz version 2.38.0 (20140413.2041)
 -->
<!-- Title: scram::gui::MainWindow::setProjectFile Pages: 1 -->
<svg width="666pt" height="78pt"
 viewBox="0.00 0.00 666.00 77.50" xmlns="http://www.w3.org/2000/svg" xmlns:xlink="http://www.w3.org/1999/xlink">
<g id="graph0" class="graph" transform="scale(1 1) rotate(0) translate(4 73.5)">
<title>scram::gui::MainWindow::setProjectFile</title>
<polygon fill="white" stroke="none" points="-4,4 -4,-73.5 662,-73.5 662,4 -4,4"/>
<!-- Node1 -->
<g id="node1" class="node"><title>Node1</title>
<polygon fill="#bfbfbf" stroke="black" points="0,-22.5 0,-52.5 131,-52.5 131,-22.5 0,-22.5"/>
<text text-anchor="start" x="8" y="-40.5" font-family="Helvetica,sans-Serif" font-size="10.00">scram::gui::MainWindow</text>
<text text-anchor="middle" x="65.5" y="-29.5" font-family="Helvetica,sans-Serif" font-size="10.00">::setProjectFile</text>
</g>
<!-- Node2 -->
<g id="node2" class="node"><title>Node2</title>
<g id="a_node2"><a xlink:href="translate_8h.xhtml#adfe5f7367036126ec5ca81430fbf4c71" target="_top" xlink:title="Forwards to translate function with a default global context. ">
<polygon fill="white" stroke="black" points="367,-50 367,-69 445,-69 445,-50 367,-50"/>
<text text-anchor="middle" x="406" y="-57" font-family="Helvetica,sans-Serif" font-size="10.00">scram::gui::_</text>
</a>
</g>
</g>
<!-- Node1&#45;&gt;Node2 -->
<g id="edge1" class="edge"><title>Node1&#45;&gt;Node2</title>
<path fill="none" stroke="midnightblue" d="M131.366,-41.7158C197.104,-45.9883 297.312,-52.5011 356.474,-56.3462"/>
<polygon fill="midnightblue" stroke="midnightblue" points="356.465,-59.8529 366.671,-57.0089 356.919,-52.8676 356.465,-59.8529"/>
</g>
<!-- Node3 -->
<g id="node3" class="node"><title>Node3</title>
<g id="a_node3"><a xlink:href="classscram_1_1gui_1_1MainWindow.xhtml#ad25ffda8b13e4743312f9a3cad96d271" target="_top" xlink:title="Adds a new set of model elements from input files. ">
<polygon fill="white" stroke="black" points="167,-0.5 167,-30.5 298,-30.5 298,-0.5 167,-0.5"/>
<text text-anchor="start" x="175" y="-18.5" font-family="Helvetica,sans-Serif" font-size="10.00">scram::gui::MainWindow</text>
<text text-anchor="middle" x="232.5" y="-7.5" font-family="Helvetica,sans-Serif" font-size="10.00">::addInputFiles</text>
</a>
</g>
</g>
<!-- Node1&#45;&gt;Node3 -->
<g id="edge2" class="edge"><title>Node1&#45;&gt;Node3</title>
<path fill="none" stroke="midnightblue" d="M131.239,-28.8682C139.675,-27.7434 148.371,-26.5839 156.951,-25.4399"/>
<polygon fill="midnightblue" stroke="midnightblue" points="157.498,-28.898 166.948,-24.1069 156.573,-21.9594 157.498,-28.898"/>
</g>
<!-- Node3&#45;&gt;Node2 -->
<g id="edge3" class="edge"><title>Node3&#45;&gt;Node2</title>
<path fill="none" stroke="midnightblue" d="M292.041,-30.5192C313.639,-36.0604 337.806,-42.2607 358.227,-47.4999"/>
<polygon fill="midnightblue" stroke="midnightblue" points="357.367,-50.8926 367.923,-49.9876 359.107,-44.1122 357.367,-50.8926"/>
</g>
<!-- Node4 -->
<g id="node4" class="node"><title>Node4</title>
<g id="a_node4"><a xlink:href="classscram_1_1gui_1_1ZoomableView.xhtml#a859d676e6600e263ae4487bc1845385d" target="_top" xlink:title="Automatically adjusts the zoom to fit the view into the current scene. ">
<polygon fill="white" stroke="black" points="334,-0.5 334,-30.5 478,-30.5 478,-0.5 334,-0.5"/>
<text text-anchor="start" x="342" y="-18.5" font-family="Helvetica,sans-Serif" font-size="10.00">scram::gui::ZoomableView</text>
<text text-anchor="middle" x="406" y="-7.5" font-family="Helvetica,sans-Serif" font-size="10.00">::zoomBestFit</text>
</a>
</g>
</g>
<!-- Node3&#45;&gt;Node4 -->
<g id="edge4" class="edge"><title>Node3&#45;&gt;Node4</title>
<path fill="none" stroke="midnightblue" d="M298.337,-15.5C306.564,-15.5 315.065,-15.5 323.51,-15.5"/>
<polygon fill="midnightblue" stroke="midnightblue" points="323.762,-19.0001 333.762,-15.5 323.762,-12.0001 323.762,-19.0001"/>
</g>
<!-- Node5 -->
<g id="node5" class="node"><title>Node5</title>
<g id="a_node5"><a xlink:href="classscram_1_1gui_1_1ZoomableView.xhtml#ace3d3caf7b6043cceaf2dfb176df9c8a" target="_top" xlink:title="Accepts requests to change the zoom to the given level. ">
<polygon fill="white" stroke="black" points="514,-0.5 514,-30.5 658,-30.5 658,-0.5 514,-0.5"/>
<text text-anchor="start" x="522" y="-18.5" font-family="Helvetica,sans-Serif" font-size="10.00">scram::gui::ZoomableView</text>
<text text-anchor="middle" x="586" y="-7.5" font-family="Helvetica,sans-Serif" font-size="10.00">::setZoom</text>
</a>
</g>
</g>
<!-- Node4&#45;&gt;Node5 -->
<g id="edge5" class="edge"><title>Node4&#45;&gt;Node5</title>
<path fill="none" stroke="midnightblue" d="M478.118,-15.5C486.609,-15.5 495.327,-15.5 503.944,-15.5"/>
<polygon fill="midnightblue" stroke="midnightblue" points="503.995,-19.0001 513.995,-15.5 503.995,-12.0001 503.995,-19.0001"/>
</g>
</g>
</svg>
