<?xml version="1.0" encoding="UTF-8" standalone="no"?>
<!DOCTYPE svg PUBLIC "-//W3C//DTD SVG 1.1//EN"
 "http://www.w3.org/Graphics/SVG/1.1/DTD/svg11.dtd">
<!-- Generated by graphviz version 2.38.0 (20140413.2041)
 -->
<!-- Title: scram::gui::model::Element Pages: 1 -->
<!--zoomable 551 -->
<svg id="main" version="1.1" xmlns="http://www.w3.org/2000/svg" xmlns:xlink="http://www.w3.org/1999/xlink" xml:space="preserve" onload="init(evt)">
<style type="text/css"><![CDATA[
.edge:hover path { stroke: red; }
.edge:hover polygon { stroke: red; fill: red; }
]]></style>
<script type="text/javascript"><![CDATA[
var edges = document.getElementsByTagName('g');
if (edges && edges.length) {
  for (var i=0;i<edges.length;i++) {
    if (edges[i].id.substr(0,4)=='edge') {
      edges[i].setAttribute('class','edge');
    }
  }
}
]]></script>
        <defs>
                <circle id="rim" cx="0" cy="0" r="7"/>
                <circle id="rim2" cx="0" cy="0" r="3.5"/>
                <g id="zoomPlus">
                        <use xlink:href="#rim" fill="#404040">
                                <set attributeName="fill" to="#808080" begin="zoomplus.mouseover" end="zoomplus.mouseout"/>
                        </use>
                        <path d="M-4,0h8M0,-4v8" fill="none" stroke="white" stroke-width="1.5" pointer-events="none"/>
                </g>
                <g id="zoomMin">
                        <use xlink:href="#rim" fill="#404040">
                                <set attributeName="fill" to="#808080" begin="zoomminus.mouseover" end="zoomminus.mouseout"/>
                        </use>
                        <path d="M-4,0h8" fill="none" stroke="white" stroke-width="1.5" pointer-events="none"/>
                </g>
                <g id="dirArrow">
                        <path fill="none" stroke="white" stroke-width="1.5" d="M0,-3.0v7 M-2.5,-0.5L0,-3.0L2.5,-0.5"/>
                </g>
               <g id="resetDef">
                       <use xlink:href="#rim2" fill="#404040">
                               <set attributeName="fill" to="#808080" begin="reset.mouseover" end="reset.mouseout"/>
                       </use>
               </g>
        </defs>

<script type="text/javascript">
var viewWidth = 522;
var viewHeight = 551;
var sectionId = 'dynsection-0';
</script>
<script xlink:href="svgpan.js"/>
<svg id="graph" class="graph">
<g id="viewport">
<title>scram::gui::model::Element</title>
<polygon fill="white" stroke="none" points="-4,4 -4,-547 518,-547 518,4 -4,4"/>
<!-- Node1 -->
<g id="node1" class="node"><title>Node1</title>
<polygon fill="#bfbfbf" stroke="black" points="208,-358.5 208,-448.5 317,-448.5 317,-358.5 208,-358.5"/>
<text text-anchor="start" x="216" y="-436.5" font-family="Helvetica,sans-Serif" font-size="10.00">scram::gui::model::</text>
<text text-anchor="middle" x="262.5" y="-425.5" font-family="Helvetica,sans-Serif" font-size="10.00">Element</text>
<polyline fill="none" stroke="black" points="208,-418.5 317,-418.5 "/>
<text text-anchor="middle" x="262.5" y="-406.5" font-family="Helvetica,sans-Serif" font-size="10.00"> </text>
<polyline fill="none" stroke="black" points="208,-399.5 317,-399.5 "/>
<text text-anchor="start" x="216" y="-387.5" font-family="Helvetica,sans-Serif" font-size="10.00">+ id()</text>
<text text-anchor="start" x="216" y="-376.5" font-family="Helvetica,sans-Serif" font-size="10.00">+ label()</text>
<text text-anchor="start" x="216" y="-365.5" font-family="Helvetica,sans-Serif" font-size="10.00"># Element()</text>
</g>
<!-- Node3 -->
<g id="node3" class="node"><title>Node3</title>
<g id="a_node3"><a xlink:href="classscram_1_1gui_1_1model_1_1BasicEvent.xhtml" target="_top" xlink:title="The proxy to manage mef::BasicEvent. ">
<polygon fill="white" stroke="black" points="0,-105 0,-217 109,-217 109,-105 0,-105"/>
<text text-anchor="start" x="8" y="-205" font-family="Helvetica,sans-Serif" font-size="10.00">scram::gui::model::</text>
<text text-anchor="middle" x="54.5" y="-194" font-family="Helvetica,sans-Serif" font-size="10.00">BasicEvent</text>
<polyline fill="none" stroke="black" points="0,-187 109,-187 "/>
<text text-anchor="middle" x="54.5" y="-175" font-family="Helvetica,sans-Serif" font-size="10.00"> </text>
<polyline fill="none" stroke="black" points="0,-168 109,-168 "/>
<text text-anchor="start" x="8" y="-156" font-family="Helvetica,sans-Serif" font-size="10.00">+ BasicEvent()</text>
<text text-anchor="start" x="8" y="-145" font-family="Helvetica,sans-Serif" font-size="10.00">+ flavor()</text>
<text text-anchor="start" x="8" y="-134" font-family="Helvetica,sans-Serif" font-size="10.00">+ expression()</text>
<text text-anchor="start" x="8" y="-123" font-family="Helvetica,sans-Serif" font-size="10.00">+ probability()</text>
<text text-anchor="start" x="8" y="-112" font-family="Helvetica,sans-Serif" font-size="10.00">+ flavorToString()</text>
</a>
</g>
</g>
<!-- Node1&#45;&gt;Node3 -->
<g id="edge2" class="edge"><title>Node1&#45;&gt;Node3</title>
<path fill="none" stroke="midnightblue" d="M198.699,-378.35C171.016,-365.21 140.068,-346.552 118.5,-322 92.437,-292.331 76.2359,-250.719 66.6559,-217.368"/>
<polygon fill="none" stroke="midnightblue" points="197.395,-381.603 207.943,-382.596 200.316,-375.242 197.395,-381.603"/>
</g>
<!-- Node4 -->
<g id="node4" class="node"><title>Node4</title>
<g id="a_node4"><a xlink:href="classscram_1_1gui_1_1model_1_1Gate.xhtml" target="_top" xlink:title="The proxy to manage mef::Gate. ">
<polygon fill="white" stroke="black" points="127.5,-110.5 127.5,-211.5 259.5,-211.5 259.5,-110.5 127.5,-110.5"/>
<text text-anchor="middle" x="193.5" y="-199.5" font-family="Helvetica,sans-Serif" font-size="10.00">scram::gui::model::Gate</text>
<polyline fill="none" stroke="black" points="127.5,-192.5 259.5,-192.5 "/>
<text text-anchor="middle" x="193.5" y="-180.5" font-family="Helvetica,sans-Serif" font-size="10.00"> </text>
<polyline fill="none" stroke="black" points="127.5,-173.5 259.5,-173.5 "/>
<text text-anchor="start" x="135.5" y="-161.5" font-family="Helvetica,sans-Serif" font-size="10.00">+ Gate()</text>
<text text-anchor="start" x="135.5" y="-150.5" font-family="Helvetica,sans-Serif" font-size="10.00">+ type()</text>
<text text-anchor="start" x="135.5" y="-139.5" font-family="Helvetica,sans-Serif" font-size="10.00">+ numArgs()</text>
<text text-anchor="start" x="135.5" y="-128.5" font-family="Helvetica,sans-Serif" font-size="10.00">+ minNumber()</text>
<text text-anchor="start" x="135.5" y="-117.5" font-family="Helvetica,sans-Serif" font-size="10.00">+ args()</text>
</a>
</g>
</g>
<!-- Node1&#45;&gt;Node4 -->
<g id="edge3" class="edge"><title>Node1&#45;&gt;Node4</title>
<path fill="none" stroke="midnightblue" d="M247.026,-348.566C235.259,-307.55 219.194,-251.558 207.742,-211.64"/>
<polygon fill="none" stroke="midnightblue" points="243.722,-349.742 249.844,-358.389 250.451,-347.811 243.722,-349.742"/>
</g>
<!-- Node5 -->
<g id="node5" class="node"><title>Node5</title>
<g id="a_node5"><a xlink:href="classscram_1_1gui_1_1model_1_1HouseEvent.xhtml" target="_top" xlink:title="The proxy to manage mef::HouseEvent. ">
<polygon fill="white" stroke="black" points="278,-121.5 278,-200.5 387,-200.5 387,-121.5 278,-121.5"/>
<text text-anchor="start" x="286" y="-188.5" font-family="Helvetica,sans-Serif" font-size="10.00">scram::gui::model::</text>
<text text-anchor="middle" x="332.5" y="-177.5" font-family="Helvetica,sans-Serif" font-size="10.00">HouseEvent</text>
<polyline fill="none" stroke="black" points="278,-170.5 387,-170.5 "/>
<text text-anchor="middle" x="332.5" y="-158.5" font-family="Helvetica,sans-Serif" font-size="10.00"> </text>
<polyline fill="none" stroke="black" points="278,-151.5 387,-151.5 "/>
<text text-anchor="start" x="286" y="-139.5" font-family="Helvetica,sans-Serif" font-size="10.00">+ HouseEvent()</text>
<text text-anchor="start" x="286" y="-128.5" font-family="Helvetica,sans-Serif" font-size="10.00">+ state()</text>
</a>
</g>
</g>
<!-- Node1&#45;&gt;Node5 -->
<g id="edge4" class="edge"><title>Node1&#45;&gt;Node5</title>
<path fill="none" stroke="midnightblue" d="M278.211,-348.52C291.289,-303.59 309.59,-240.712 321.245,-200.67"/>
<polygon fill="none" stroke="midnightblue" points="274.773,-347.809 275.339,-358.389 281.494,-349.765 274.773,-347.809"/>
</g>
<!-- Node6 -->
<g id="node6" class="node"><title>Node6</title>
<g id="a_node6"><a xlink:href="classscram_1_1gui_1_1model_1_1Model.xhtml" target="_top" xlink:title="The wrapper around the MEF Model. ">
<polygon fill="white" stroke="black" points="405,-0.5 405,-321.5 514,-321.5 514,-0.5 405,-0.5"/>
<text text-anchor="start" x="413" y="-309.5" font-family="Helvetica,sans-Serif" font-size="10.00">scram::gui::model::</text>
<text text-anchor="middle" x="459.5" y="-298.5" font-family="Helvetica,sans-Serif" font-size="10.00">Model</text>
<polyline fill="none" stroke="black" points="405,-291.5 514,-291.5 "/>
<text text-anchor="middle" x="459.5" y="-279.5" font-family="Helvetica,sans-Serif" font-size="10.00"> </text>
<polyline fill="none" stroke="black" points="405,-272.5 514,-272.5 "/>
<text text-anchor="start" x="413" y="-260.5" font-family="Helvetica,sans-Serif" font-size="10.00">+ Model()</text>
<text text-anchor="start" x="413" y="-249.5" font-family="Helvetica,sans-Serif" font-size="10.00">+ table()</text>
<text text-anchor="start" x="413" y="-238.5" font-family="Helvetica,sans-Serif" font-size="10.00">+ parents()</text>
<text text-anchor="start" x="413" y="-227.5" font-family="Helvetica,sans-Serif" font-size="10.00">+ houseEvents()</text>
<text text-anchor="start" x="413" y="-216.5" font-family="Helvetica,sans-Serif" font-size="10.00">+ basicEvents()</text>
<text text-anchor="start" x="413" y="-205.5" font-family="Helvetica,sans-Serif" font-size="10.00">+ gates()</text>
<text text-anchor="start" x="413" y="-194.5" font-family="Helvetica,sans-Serif" font-size="10.00">+ faultTrees()</text>
<text text-anchor="start" x="413" y="-183.5" font-family="Helvetica,sans-Serif" font-size="10.00">+ faultTrees()</text>
<text text-anchor="start" x="413" y="-172.5" font-family="Helvetica,sans-Serif" font-size="10.00">* m_houseEvents</text>
<text text-anchor="start" x="413" y="-161.5" font-family="Helvetica,sans-Serif" font-size="10.00">* m_basicEvents</text>
<text text-anchor="start" x="413" y="-150.5" font-family="Helvetica,sans-Serif" font-size="10.00">* m_gates</text>
<text text-anchor="start" x="413" y="-139.5" font-family="Helvetica,sans-Serif" font-size="10.00">* houseEvents()</text>
<text text-anchor="start" x="413" y="-128.5" font-family="Helvetica,sans-Serif" font-size="10.00">* basicEvents()</text>
<text text-anchor="start" x="413" y="-117.5" font-family="Helvetica,sans-Serif" font-size="10.00">* gates()</text>
<text text-anchor="start" x="413" y="-106.5" font-family="Helvetica,sans-Serif" font-size="10.00">* faultTrees()</text>
<text text-anchor="start" x="413" y="-95.5" font-family="Helvetica,sans-Serif" font-size="10.00">* faultTrees()</text>
<text text-anchor="start" x="413" y="-84.5" font-family="Helvetica,sans-Serif" font-size="10.00">* added()</text>
<text text-anchor="start" x="413" y="-73.5" font-family="Helvetica,sans-Serif" font-size="10.00">* added()</text>
<text text-anchor="start" x="413" y="-62.5" font-family="Helvetica,sans-Serif" font-size="10.00">* added()</text>
<text text-anchor="start" x="413" y="-51.5" font-family="Helvetica,sans-Serif" font-size="10.00">* added()</text>
<text text-anchor="start" x="413" y="-40.5" font-family="Helvetica,sans-Serif" font-size="10.00">* removed()</text>
<text text-anchor="start" x="413" y="-29.5" font-family="Helvetica,sans-Serif" font-size="10.00">* removed()</text>
<text text-anchor="start" x="413" y="-18.5" font-family="Helvetica,sans-Serif" font-size="10.00">* removed()</text>
<text text-anchor="start" x="413" y="-7.5" font-family="Helvetica,sans-Serif" font-size="10.00">* removed()</text>
</a>
</g>
</g>
<!-- Node1&#45;&gt;Node6 -->
<g id="edge5" class="edge"><title>Node1&#45;&gt;Node6</title>
<path fill="none" stroke="midnightblue" d="M326.248,-375.239C350.871,-362.116 377.604,-344.322 396.5,-322 399.393,-318.582 402.164,-315.015 404.816,-311.329"/>
<polygon fill="none" stroke="midnightblue" points="324.571,-372.165 317.29,-379.862 327.781,-378.386 324.571,-372.165"/>
</g>
<!-- Node2 -->
<g id="node2" class="node"><title>Node2</title>
<polygon fill="white" stroke="#bfbfbf" points="235,-485.5 235,-542.5 290,-542.5 290,-485.5 235,-485.5"/>
<text text-anchor="middle" x="262.5" y="-530.5" font-family="Helvetica,sans-Serif" font-size="10.00">QObject</text>
<polyline fill="none" stroke="#bfbfbf" points="235,-523.5 290,-523.5 "/>
<text text-anchor="middle" x="262.5" y="-511.5" font-family="Helvetica,sans-Serif" font-size="10.00"> </text>
<polyline fill="none" stroke="#bfbfbf" points="235,-504.5 290,-504.5 "/>
<text text-anchor="middle" x="262.5" y="-492.5" font-family="Helvetica,sans-Serif" font-size="10.00"> </text>
</g>
<!-- Node2&#45;&gt;Node1 -->
<g id="edge1" class="edge"><title>Node2&#45;&gt;Node1</title>
<path fill="none" stroke="midnightblue" d="M262.5,-475.214C262.5,-466.609 262.5,-457.394 262.5,-448.554"/>
<polygon fill="none" stroke="midnightblue" points="259,-475.34 262.5,-485.34 266,-475.34 259,-475.34"/>
</g>
</g>
</svg>
        <g id="navigator" transform="translate(0 0)" fill="#404254">
                <rect fill="#f2f5e9" fill-opacity="0.5" stroke="#606060" stroke-width=".5" x="0" y="0" width="60" height="60"/>
                <use id="zoomplus" xlink:href="#zoomPlus" x="17" y="9" onmousedown="handleZoom(evt,'in')"/>
                <use id="zoomminus" xlink:href="#zoomMin" x="42" y="9" onmousedown="handleZoom(evt,'out')"/>
                <use id="reset" xlink:href="#resetDef" x="30" y="36" onmousedown="handleReset()"/>
                <g id="arrowUp" xlink:href="#dirArrow" transform="translate(30 24)" onmousedown="handlePan(0,-1)">
                  <use xlink:href="#rim" fill="#404040">
                        <set attributeName="fill" to="#808080" begin="arrowUp.mouseover" end="arrowUp.mouseout"/>
                  </use>
                  <path fill="none" stroke="white" stroke-width="1.5" d="M0,-3.0v7 M-2.5,-0.5L0,-3.0L2.5,-0.5"/>
                </g>
                <g id="arrowRight" xlink:href="#dirArrow" transform="rotate(90) translate(36 -43)" onmousedown="handlePan(1,0)">
                  <use xlink:href="#rim" fill="#404040">
                        <set attributeName="fill" to="#808080" begin="arrowRight.mouseover" end="arrowRight.mouseout"/>
                  </use>
                  <path fill="none" stroke="white" stroke-width="1.5" d="M0,-3.0v7 M-2.5,-0.5L0,-3.0L2.5,-0.5"/>
                </g>
                <g id="arrowDown" xlink:href="#dirArrow" transform="rotate(180) translate(-30 -48)" onmousedown="handlePan(0,1)">
                  <use xlink:href="#rim" fill="#404040">
                        <set attributeName="fill" to="#808080" begin="arrowDown.mouseover" end="arrowDown.mouseout"/>
                  </use>
                  <path fill="none" stroke="white" stroke-width="1.5" d="M0,-3.0v7 M-2.5,-0.5L0,-3.0L2.5,-0.5"/>
                </g>
                <g id="arrowLeft" xlink:href="#dirArrow" transform="rotate(270) translate(-36 17)" onmousedown="handlePan(-1,0)">
                  <use xlink:href="#rim" fill="#404040">
                        <set attributeName="fill" to="#808080" begin="arrowLeft.mouseover" end="arrowLeft.mouseout"/>
                  </use>
                  <path fill="none" stroke="white" stroke-width="1.5" d="M0,-3.0v7 M-2.5,-0.5L0,-3.0L2.5,-0.5"/>
                </g>
        </g>
        <svg viewBox="0 0 15 15" width="100%" height="30px" preserveAspectRatio="xMaxYMin meet">
         <g id="arrow_out" transform="scale(0.3 0.3)">
          <a xlink:href="classscram_1_1gui_1_1model_1_1Element__inherit__graph_org.svg" target="_base">
           <rect id="button" ry="5" rx="5" y="6" x="6" height="38" width="38"
                fill="#f2f5e9" fill-opacity="0.5" stroke="#606060" stroke-width="1.0"/>
           <path id="arrow"
             d="M 11.500037,31.436501 C 11.940474,20.09759 22.043105,11.32322 32.158766,21.979434 L 37.068811,17.246167 C 37.068811,17.246167 37.088388,32 37.088388,32 L 22.160133,31.978069 C 22.160133,31.978069 26.997745,27.140456 26.997745,27.140456 C 18.528582,18.264221 13.291696,25.230495 11.500037,31.436501 z"
             style="fill:#404040;"/>
          </a>
         </g>
        </svg>
</svg>
