<?xml version="1.0" encoding="UTF-8" standalone="no"?>
<!DOCTYPE svg PUBLIC "-//W3C//DTD SVG 1.1//EN"
 "http://www.w3.org/Graphics/SVG/1.1/DTD/svg11.dtd">
<!-- Generated by graphviz version 2.38.0 (20140413.2041)
 -->
<!-- Title: scram::gui::model::Gate::minNumber Pages: 1 -->
<svg width="683pt" height="220pt"
 viewBox="0.00 0.00 683.00 220.00" xmlns="http://www.w3.org/2000/svg" xmlns:xlink="http://www.w3.org/1999/xlink">
<g id="graph0" class="graph" transform="scale(1 1) rotate(0) translate(4 216)">
<title>scram::gui::model::Gate::minNumber</title>
<polygon fill="white" stroke="none" points="-4,4 -4,-216 679,-216 679,4 -4,4"/>
<!-- Node1 -->
<g id="node1" class="node"><title>Node1</title>
<polygon fill="#bfbfbf" stroke="black" points="0,-178.5 0,-208.5 109,-208.5 109,-178.5 0,-178.5"/>
<text text-anchor="start" x="8" y="-196.5" font-family="Helvetica,sans-Serif" font-size="10.00">scram::gui::model::</text>
<text text-anchor="middle" x="54.5" y="-185.5" font-family="Helvetica,sans-Serif" font-size="10.00">Gate::minNumber</text>
</g>
<!-- Node2 -->
<g id="node2" class="node"><title>Node2</title>
<g id="a_node2"><a xlink:href="classscram_1_1gui_1_1MainWindow.xhtml#a8b334126b832c74b1034891efb5a416f" target="_top" xlink:title="Specialization to construct gate out of event editor data. ">
<polygon fill="white" stroke="black" points="544,-181.5 544,-211.5 675,-211.5 675,-181.5 544,-181.5"/>
<text text-anchor="start" x="552" y="-199.5" font-family="Helvetica,sans-Serif" font-size="10.00">scram::gui::MainWindow</text>
<text text-anchor="middle" x="609.5" y="-188.5" font-family="Helvetica,sans-Serif" font-size="10.00">::extract</text>
</a>
</g>
</g>
<!-- Node1&#45;&gt;Node2 -->
<g id="edge1" class="edge"><title>Node1&#45;&gt;Node2</title>
<path fill="none" stroke="midnightblue" d="M119.186,-196.332C206.78,-199.837 369.356,-204.947 508,-201.5 519.614,-201.211 531.975,-200.735 543.912,-200.189"/>
<polygon fill="midnightblue" stroke="midnightblue" points="119.274,-192.833 109.14,-195.924 118.99,-199.827 119.274,-192.833"/>
</g>
<!-- Node3 -->
<g id="node3" class="node"><title>Node3</title>
<g id="a_node3"><a xlink:href="classscram_1_1gui_1_1EventDialog.xhtml#abe5bf2e13a1fbb54ce0d8c5a03ad3a05" target="_top" xlink:title="Sets up the dialog with element data. ">
<polygon fill="white" stroke="black" points="145,-115.5 145,-145.5 275,-145.5 275,-115.5 145,-115.5"/>
<text text-anchor="start" x="153" y="-133.5" font-family="Helvetica,sans-Serif" font-size="10.00">scram::gui::EventDialog</text>
<text text-anchor="middle" x="210" y="-122.5" font-family="Helvetica,sans-Serif" font-size="10.00">::setupData</text>
</a>
</g>
</g>
<!-- Node1&#45;&gt;Node3 -->
<g id="edge2" class="edge"><title>Node1&#45;&gt;Node3</title>
<path fill="none" stroke="midnightblue" d="M101.664,-174.553C124.26,-165.279 151.086,-154.269 172.267,-145.576"/>
<polygon fill="midnightblue" stroke="midnightblue" points="100.189,-171.375 92.2671,-178.41 102.847,-177.851 100.189,-171.375"/>
</g>
<!-- Node3&#45;&gt;Node2 -->
<g id="edge3" class="edge"><title>Node3&#45;&gt;Node2</title>
<path fill="none" stroke="midnightblue" d="M245.338,-150.575C264.097,-160.513 288.113,-171.618 311,-177.5 389.321,-197.63 482.863,-200.265 543.868,-199.263"/>
<polygon fill="midnightblue" stroke="midnightblue" points="246.769,-147.369 236.311,-145.668 243.426,-153.519 246.769,-147.369"/>
</g>
<!-- Node4 -->
<g id="node4" class="node"><title>Node4</title>
<g id="a_node4"><a xlink:href="classscram_1_1gui_1_1EventDialog.xhtml#a4b0937931be261ac68e45aee3062daf9" target="_top" xlink:title="scram::gui::EventDialog\l::faultTree">
<polygon fill="white" stroke="black" points="344.5,-137.5 344.5,-167.5 474.5,-167.5 474.5,-137.5 344.5,-137.5"/>
<text text-anchor="start" x="352.5" y="-155.5" font-family="Helvetica,sans-Serif" font-size="10.00">scram::gui::EventDialog</text>
<text text-anchor="middle" x="409.5" y="-144.5" font-family="Helvetica,sans-Serif" font-size="10.00">::faultTree</text>
</a>
</g>
</g>
<!-- Node3&#45;&gt;Node4 -->
<g id="edge4" class="edge"><title>Node3&#45;&gt;Node4</title>
<path fill="none" stroke="midnightblue" d="M285.163,-138.761C304.633,-140.93 325.465,-143.251 344.361,-145.355"/>
<polygon fill="midnightblue" stroke="midnightblue" points="285.449,-135.271 275.123,-137.643 284.674,-142.228 285.449,-135.271"/>
</g>
<!-- Node5 -->
<g id="node5" class="node"><title>Node5</title>
<g id="a_node5"><a xlink:href="classscram_1_1gui_1_1EventDialog.xhtml#aa7277e2f2b20420880a2a875680eaffa" target="_top" xlink:title="Finds fault tree container of the gate. ">
<polygon fill="white" stroke="black" points="544.5,-113.5 544.5,-143.5 674.5,-143.5 674.5,-113.5 544.5,-113.5"/>
<text text-anchor="start" x="552.5" y="-131.5" font-family="Helvetica,sans-Serif" font-size="10.00">scram::gui::EventDialog</text>
<text text-anchor="middle" x="609.5" y="-120.5" font-family="Helvetica,sans-Serif" font-size="10.00">::getFaultTree</text>
</a>
</g>
</g>
<!-- Node3&#45;&gt;Node5 -->
<g id="edge7" class="edge"><title>Node3&#45;&gt;Node5</title>
<path fill="none" stroke="midnightblue" d="M285.18,-128.851C293.884,-128.707 302.638,-128.584 311,-128.5 391.44,-127.696 484.12,-127.87 544.372,-128.13"/>
<polygon fill="midnightblue" stroke="midnightblue" points="284.95,-125.354 275.013,-129.029 285.073,-132.353 284.95,-125.354"/>
</g>
<!-- Node6 -->
<g id="node6" class="node"><title>Node6</title>
<g id="a_node6"><a xlink:href="mainwindow_8cpp.xhtml#ad0f4088e2f2115f81473cbb2a6db09ed" target="_top" xlink:title="Specialization to show gates as trees in tables. ">
<polygon fill="white" stroke="black" points="311,-49.5 311,-79.5 508,-79.5 508,-49.5 311,-49.5"/>
<text text-anchor="start" x="319" y="-67.5" font-family="Helvetica,sans-Serif" font-size="10.00">scram::gui::constructElement</text>
<text text-anchor="middle" x="409.5" y="-56.5" font-family="Helvetica,sans-Serif" font-size="10.00">Table&lt; model::GateContainerModel &gt;</text>
</a>
</g>
</g>
<!-- Node3&#45;&gt;Node6 -->
<g id="edge8" class="edge"><title>Node3&#45;&gt;Node6</title>
<path fill="none" stroke="midnightblue" d="M261.327,-111.86C277.168,-106.134 294.766,-99.9164 311,-94.5 326.204,-89.4274 342.843,-84.192 358.003,-79.543"/>
<polygon fill="midnightblue" stroke="midnightblue" points="259.922,-108.647 251.718,-115.351 262.312,-115.226 259.922,-108.647"/>
</g>
<!-- Node7 -->
<g id="node7" class="node"><title>Node7</title>
<g id="a_node7"><a xlink:href="classscram_1_1gui_1_1EventDialog.xhtml#a355f7af9b2cef48f4e52ffc4a44cb020" target="_top" xlink:title="Sets up the dialog with element data. ">
<polygon fill="white" stroke="black" points="344.5,-0.5 344.5,-30.5 474.5,-30.5 474.5,-0.5 344.5,-0.5"/>
<text text-anchor="start" x="352.5" y="-18.5" font-family="Helvetica,sans-Serif" font-size="10.00">scram::gui::EventDialog</text>
<text text-anchor="middle" x="409.5" y="-7.5" font-family="Helvetica,sans-Serif" font-size="10.00">::setupData</text>
</a>
</g>
</g>
<!-- Node3&#45;&gt;Node7 -->
<g id="edge9" class="edge"><title>Node3&#45;&gt;Node7</title>
<path fill="none" stroke="midnightblue" d="M229.972,-107.681C248.523,-86.8506 278.634,-56.7568 311,-39.5 321.306,-34.0049 332.896,-29.7423 344.392,-26.4433"/>
<polygon fill="midnightblue" stroke="midnightblue" points="227.147,-105.596 223.217,-115.435 232.425,-110.194 227.147,-105.596"/>
</g>
<!-- Node4&#45;&gt;Node2 -->
<g id="edge5" class="edge"><title>Node4&#45;&gt;Node2</title>
<path fill="none" stroke="midnightblue" d="M484.533,-168.952C503.969,-173.271 524.779,-177.895 543.691,-182.098"/>
<polygon fill="midnightblue" stroke="midnightblue" points="485.033,-165.478 474.511,-166.725 483.514,-172.311 485.033,-165.478"/>
</g>
<!-- Node4&#45;&gt;Node5 -->
<g id="edge6" class="edge"><title>Node4&#45;&gt;Node5</title>
<path fill="none" stroke="midnightblue" d="M484.637,-143.514C504.276,-141.133 525.311,-138.583 544.37,-136.273"/>
<polygon fill="midnightblue" stroke="midnightblue" points="484.018,-140.063 474.511,-144.741 484.86,-147.012 484.018,-140.063"/>
</g>
</g>
</svg>
