<?xml version="1.0" encoding="UTF-8" standalone="no"?>
<!DOCTYPE svg PUBLIC "-//W3C//DTD SVG 1.1//EN"
 "http://www.w3.org/Graphics/SVG/1.1/DTD/svg11.dtd">
<!-- Generated by graphviz version 2.38.0 (20140413.2041)
 -->
<!-- Title: scram::gui::model::HouseEvent::SetState Pages: 1 -->
<svg width="131pt" height="276pt"
 viewBox="0.00 0.00 131.00 276.00" xmlns="http://www.w3.org/2000/svg" xmlns:xlink="http://www.w3.org/1999/xlink">
<g id="graph0" class="graph" transform="scale(1 1) rotate(0) translate(4 272)">
<title>scram::gui::model::HouseEvent::SetState</title>
<polygon fill="white" stroke="none" points="-4,4 -4,-272 127,-272 127,4 -4,4"/>
<!-- Node1 -->
<g id="node1" class="node"><title>Node1</title>
<polygon fill="#bfbfbf" stroke="black" points="0,-0.5 0,-79.5 123,-79.5 123,-0.5 0,-0.5"/>
<text text-anchor="start" x="8" y="-67.5" font-family="Helvetica,sans-Serif" font-size="10.00">scram::gui::model::</text>
<text text-anchor="middle" x="61.5" y="-56.5" font-family="Helvetica,sans-Serif" font-size="10.00">HouseEvent::SetState</text>
<polyline fill="none" stroke="black" points="0,-49.5 123,-49.5 "/>
<text text-anchor="middle" x="61.5" y="-37.5" font-family="Helvetica,sans-Serif" font-size="10.00"> </text>
<polyline fill="none" stroke="black" points="0,-30.5 123,-30.5 "/>
<text text-anchor="start" x="8" y="-18.5" font-family="Helvetica,sans-Serif" font-size="10.00">+ SetState()</text>
<text text-anchor="start" x="8" y="-7.5" font-family="Helvetica,sans-Serif" font-size="10.00">+ redo()</text>
</g>
<!-- Node2 -->
<g id="node2" class="node"><title>Node2</title>
<g id="a_node2"><a xlink:href="classscram_1_1gui_1_1Involution.xhtml" target="_top" xlink:title="The function inverse is the function itself (i.e., f(f(x)) = id(x)). ">
<polygon fill="white" stroke="black" points="2,-116.5 2,-173.5 121,-173.5 121,-116.5 2,-116.5"/>
<text text-anchor="middle" x="61.5" y="-161.5" font-family="Helvetica,sans-Serif" font-size="10.00">scram::gui::Involution</text>
<polyline fill="none" stroke="black" points="2,-154.5 121,-154.5 "/>
<text text-anchor="middle" x="61.5" y="-142.5" font-family="Helvetica,sans-Serif" font-size="10.00"> </text>
<polyline fill="none" stroke="black" points="2,-135.5 121,-135.5 "/>
<text text-anchor="start" x="10" y="-123.5" font-family="Helvetica,sans-Serif" font-size="10.00">+ undo()</text>
</a>
</g>
</g>
<!-- Node2&#45;&gt;Node1 -->
<g id="edge1" class="edge"><title>Node2&#45;&gt;Node1</title>
<path fill="none" stroke="midnightblue" d="M61.5,-106.156C61.5,-97.4733 61.5,-88.2318 61.5,-79.5205"/>
<polygon fill="none" stroke="midnightblue" points="58.0001,-106.398 61.5,-116.398 65.0001,-106.398 58.0001,-106.398"/>
</g>
<!-- Node3 -->
<g id="node3" class="node"><title>Node3</title>
<polygon fill="white" stroke="#bfbfbf" points="11.5,-210.5 11.5,-267.5 111.5,-267.5 111.5,-210.5 11.5,-210.5"/>
<text text-anchor="middle" x="61.5" y="-255.5" font-family="Helvetica,sans-Serif" font-size="10.00">QUndoCommand</text>
<polyline fill="none" stroke="#bfbfbf" points="11.5,-248.5 111.5,-248.5 "/>
<text text-anchor="middle" x="61.5" y="-236.5" font-family="Helvetica,sans-Serif" font-size="10.00"> </text>
<polyline fill="none" stroke="#bfbfbf" points="11.5,-229.5 111.5,-229.5 "/>
<text text-anchor="middle" x="61.5" y="-217.5" font-family="Helvetica,sans-Serif" font-size="10.00"> </text>
</g>
<!-- Node3&#45;&gt;Node2 -->
<g id="edge2" class="edge"><title>Node3&#45;&gt;Node2</title>
<path fill="none" stroke="midnightblue" d="M61.5,-200.209C61.5,-191.293 61.5,-181.951 61.5,-173.584"/>
<polygon fill="none" stroke="midnightblue" points="58.0001,-200.397 61.5,-210.397 65.0001,-200.397 58.0001,-200.397"/>
</g>
</g>
</svg>
