<?xml version="1.0" encoding="UTF-8" standalone="no"?>
<!DOCTYPE svg PUBLIC "-//W3C//DTD SVG 1.1//EN"
 "http://www.w3.org/Graphics/SVG/1.1/DTD/svg11.dtd">
<!-- Generated by graphviz version 2.38.0 (20140413.2041)
 -->
<!-- Title: scram::gui::model::Element::idChanged Pages: 1 -->
<!--zoomable 388 -->
<svg id="main" version="1.1" xmlns="http://www.w3.org/2000/svg" xmlns:xlink="http://www.w3.org/1999/xlink" xml:space="preserve" onload="init(evt)">
<style type="text/css"><![CDATA[
.edge:hover path { stroke: red; }
.edge:hover polygon { stroke: red; fill: red; }
]]></style>
<script type="text/javascript"><![CDATA[
var edges = document.getElementsByTagName('g');
if (edges && edges.length) {
  for (var i=0;i<edges.length;i++) {
    if (edges[i].id.substr(0,4)=='edge') {
      edges[i].setAttribute('class','edge');
    }
  }
}
]]></script>
        <defs>
                <circle id="rim" cx="0" cy="0" r="7"/>
                <circle id="rim2" cx="0" cy="0" r="3.5"/>
                <g id="zoomPlus">
                        <use xlink:href="#rim" fill="#404040">
                                <set attributeName="fill" to="#808080" begin="zoomplus.mouseover" end="zoomplus.mouseout"/>
                        </use>
                        <path d="M-4,0h8M0,-4v8" fill="none" stroke="white" stroke-width="1.5" pointer-events="none"/>
                </g>
                <g id="zoomMin">
                        <use xlink:href="#rim" fill="#404040">
                                <set attributeName="fill" to="#808080" begin="zoomminus.mouseover" end="zoomminus.mouseout"/>
                        </use>
                        <path d="M-4,0h8" fill="none" stroke="white" stroke-width="1.5" pointer-events="none"/>
                </g>
                <g id="dirArrow">
                        <path fill="none" stroke="white" stroke-width="1.5" d="M0,-3.0v7 M-2.5,-0.5L0,-3.0L2.5,-0.5"/>
                </g>
               <g id="resetDef">
                       <use xlink:href="#rim2" fill="#404040">
                               <set attributeName="fill" to="#808080" begin="reset.mouseover" end="reset.mouseout"/>
                       </use>
               </g>
        </defs>

<script type="text/javascript">
var viewWidth = 847;
var viewHeight = 388;
var sectionId = 'dynsection-4';
</script>
<script xlink:href="svgpan.js"/>
<svg id="graph" class="graph">
<g id="viewport">
<title>scram::gui::model::Element::idChanged</title>
<polygon fill="white" stroke="none" points="-4,4 -4,-383.5 843,-383.5 843,4 -4,4"/>
<!-- Node1 -->
<g id="node1" class="node"><title>Node1</title>
<polygon fill="#bfbfbf" stroke="black" points="0,-192 0,-222 113,-222 113,-192 0,-192"/>
<text text-anchor="start" x="8" y="-210" font-family="Helvetica,sans-Serif" font-size="10.00">scram::gui::model::</text>
<text text-anchor="middle" x="56.5" y="-199" font-family="Helvetica,sans-Serif" font-size="10.00">Element::idChanged</text>
</g>
<!-- Node2 -->
<g id="node2" class="node"><title>Node2</title>
<g id="a_node2"><a xlink:href="classscram_1_1gui_1_1model_1_1ElementContainerModel.xhtml#a48973e3c3eb7a5323cf73c30f484d861" target="_top" xlink:title="Connects of the element change signals to the table modification. ">
<polygon fill="white" stroke="black" points="149,-240.5 149,-281.5 280,-281.5 280,-240.5 149,-240.5"/>
<text text-anchor="start" x="157" y="-269.5" font-family="Helvetica,sans-Serif" font-size="10.00">scram::gui::model::</text>
<text text-anchor="start" x="157" y="-258.5" font-family="Helvetica,sans-Serif" font-size="10.00">ElementContainerModel</text>
<text text-anchor="middle" x="214.5" y="-247.5" font-family="Helvetica,sans-Serif" font-size="10.00">::connectElement</text>
</a>
</g>
</g>
<!-- Node1&#45;&gt;Node2 -->
<g id="edge1" class="edge"><title>Node1&#45;&gt;Node2</title>
<path fill="none" stroke="midnightblue" d="M110.481,-225.34C124.561,-230.213 139.856,-235.508 154.247,-240.489"/>
<polygon fill="midnightblue" stroke="midnightblue" points="111.549,-222.006 100.955,-222.042 109.26,-228.621 111.549,-222.006"/>
</g>
<!-- Node13 -->
<g id="node13" class="node"><title>Node13</title>
<g id="a_node13"><a xlink:href="classscram_1_1gui_1_1diagram_1_1Event.xhtml#a4e59035f3b99fb4d8342a43db34144fa" target="_top" xlink:title="Assigns an event to a presentation view. ">
<polygon fill="white" stroke="black" points="158,-192 158,-222 271,-222 271,-192 158,-192"/>
<text text-anchor="start" x="166" y="-210" font-family="Helvetica,sans-Serif" font-size="10.00">scram::gui::diagram</text>
<text text-anchor="middle" x="214.5" y="-199" font-family="Helvetica,sans-Serif" font-size="10.00">::Event::Event</text>
</a>
</g>
</g>
<!-- Node1&#45;&gt;Node13 -->
<g id="edge17" class="edge"><title>Node1&#45;&gt;Node13</title>
<path fill="none" stroke="midnightblue" d="M123.675,-207C135.021,-207 146.71,-207 157.749,-207"/>
<polygon fill="midnightblue" stroke="midnightblue" points="123.379,-203.5 113.379,-207 123.379,-210.5 123.379,-203.5"/>
</g>
<!-- Node14 -->
<g id="node14" class="node"><title>Node14</title>
<g id="a_node14"><a xlink:href="classscram_1_1gui_1_1model_1_1Element_1_1SetId.xhtml#a4399dee61e3f769bf47f30873fd5cd8a" target="_top" xlink:title="Applies the new name to the element. ">
<polygon fill="white" stroke="black" points="157,-143 157,-173 272,-173 272,-143 157,-143"/>
<text text-anchor="start" x="165" y="-161" font-family="Helvetica,sans-Serif" font-size="10.00">scram::gui::model::</text>
<text text-anchor="middle" x="214.5" y="-150" font-family="Helvetica,sans-Serif" font-size="10.00">Element::SetId::redo</text>
</a>
</g>
</g>
<!-- Node1&#45;&gt;Node14 -->
<g id="edge18" class="edge"><title>Node1&#45;&gt;Node14</title>
<path fill="none" stroke="midnightblue" d="M115.166,-188.887C131.75,-183.678 149.654,-178.054 165.581,-173.052"/>
<polygon fill="midnightblue" stroke="midnightblue" points="114.07,-185.563 105.578,-191.899 116.167,-192.241 114.07,-185.563"/>
</g>
<!-- Node3 -->
<g id="node3" class="node"><title>Node3</title>
<g id="a_node3"><a xlink:href="classscram_1_1gui_1_1model_1_1ElementContainerModel.xhtml#a057325384c34e69a890a8a409dea2d09" target="_top" xlink:title="scram::gui::model::\lElementContainerModel\l::getElementIndex">
<polygon fill="white" stroke="black" points="316,-240.5 316,-281.5 447,-281.5 447,-240.5 316,-240.5"/>
<text text-anchor="start" x="324" y="-269.5" font-family="Helvetica,sans-Serif" font-size="10.00">scram::gui::model::</text>
<text text-anchor="start" x="324" y="-258.5" font-family="Helvetica,sans-Serif" font-size="10.00">ElementContainerModel</text>
<text text-anchor="middle" x="381.5" y="-247.5" font-family="Helvetica,sans-Serif" font-size="10.00">::getElementIndex</text>
</a>
</g>
</g>
<!-- Node2&#45;&gt;Node3 -->
<g id="edge2" class="edge"><title>Node2&#45;&gt;Node3</title>
<path fill="none" stroke="midnightblue" d="M290.239,-254.277C298.821,-254.218 307.516,-254.257 315.948,-254.394"/>
<polygon fill="midnightblue" stroke="midnightblue" points="290.198,-250.777 280.239,-254.391 290.278,-257.776 290.198,-250.777"/>
</g>
<!-- Node4 -->
<g id="node4" class="node"><title>Node4</title>
<g id="a_node4"><a xlink:href="classscram_1_1gui_1_1model_1_1BasicEventContainerModel.xhtml#a44a7b2e19f453595a7b6650d5273b2db" target="_top" xlink:title="Required standard member functions of QAbstractItemModel interface. ">
<polygon fill="white" stroke="black" points="485.5,-349 485.5,-379 657.5,-379 657.5,-349 485.5,-349"/>
<text text-anchor="start" x="493.5" y="-367" font-family="Helvetica,sans-Serif" font-size="10.00">scram::gui::model::</text>
<text text-anchor="middle" x="571.5" y="-356" font-family="Helvetica,sans-Serif" font-size="10.00">BasicEventContainerModel::data</text>
</a>
</g>
</g>
<!-- Node2&#45;&gt;Node4 -->
<g id="edge10" class="edge"><title>Node2&#45;&gt;Node4</title>
<path fill="none" stroke="midnightblue" d="M258.121,-286.413C275.571,-295.916 296.269,-306.073 316,-313 370.849,-332.256 435.043,-345.055 485.237,-353.016"/>
<polygon fill="midnightblue" stroke="midnightblue" points="259.757,-283.318 249.315,-281.524 256.359,-289.438 259.757,-283.318"/>
</g>
<!-- Node5 -->
<g id="node5" class="node"><title>Node5</title>
<g id="a_node5"><a xlink:href="classscram_1_1gui_1_1model_1_1HouseEventContainerModel.xhtml#aa112416a8c25d3cf8f3c4e0fdcbdc069" target="_top" xlink:title="Required standard member functions of QAbstractItemModel interface. ">
<polygon fill="white" stroke="black" points="483,-300 483,-330 660,-330 660,-300 483,-300"/>
<text text-anchor="start" x="491" y="-318" font-family="Helvetica,sans-Serif" font-size="10.00">scram::gui::model::</text>
<text text-anchor="middle" x="571.5" y="-307" font-family="Helvetica,sans-Serif" font-size="10.00">HouseEventContainerModel::data</text>
</a>
</g>
</g>
<!-- Node2&#45;&gt;Node5 -->
<g id="edge11" class="edge"><title>Node2&#45;&gt;Node5</title>
<path fill="none" stroke="midnightblue" d="M287.361,-284.299C296.92,-286.853 306.648,-289.181 316,-291 370.891,-301.674 433.401,-307.654 482.732,-310.976"/>
<polygon fill="midnightblue" stroke="midnightblue" points="288.054,-280.86 277.483,-281.568 286.189,-287.606 288.054,-280.86"/>
</g>
<!-- Node6 -->
<g id="node6" class="node"><title>Node6</title>
<g id="a_node6"><a xlink:href="classscram_1_1gui_1_1model_1_1GateContainerModel.xhtml#a9cdee9017df030e4b41b29d5d8b895c9" target="_top" xlink:title="Constructs from the table of proxy Gates in the Model. ">
<polygon fill="white" stroke="black" points="511,-120.5 511,-161.5 632,-161.5 632,-120.5 511,-120.5"/>
<text text-anchor="start" x="519" y="-149.5" font-family="Helvetica,sans-Serif" font-size="10.00">scram::gui::model::</text>
<text text-anchor="start" x="519" y="-138.5" font-family="Helvetica,sans-Serif" font-size="10.00">GateContainerModel::</text>
<text text-anchor="middle" x="571.5" y="-127.5" font-family="Helvetica,sans-Serif" font-size="10.00">GateContainerModel</text>
</a>
</g>
</g>
<!-- Node2&#45;&gt;Node6 -->
<g id="edge12" class="edge"><title>Node2&#45;&gt;Node6</title>
<path fill="none" stroke="midnightblue" d="M286.402,-237.033C352.174,-214.8 448.962,-182.083 510.861,-161.16"/>
<polygon fill="midnightblue" stroke="midnightblue" points="284.879,-233.853 276.527,-240.371 287.121,-240.485 284.879,-233.853"/>
</g>
<!-- Node10 -->
<g id="node10" class="node"><title>Node10</title>
<g id="a_node10"><a xlink:href="classscram_1_1gui_1_1model_1_1ElementContainerModel.xhtml#af97ae0b24134a7c2fd8da6e2fdd3b042" target="_top" xlink:title="scram::gui::model::\lElementContainerModel\l::elements">
<polygon fill="white" stroke="black" points="316,-83.5 316,-124.5 447,-124.5 447,-83.5 316,-83.5"/>
<text text-anchor="start" x="324" y="-112.5" font-family="Helvetica,sans-Serif" font-size="10.00">scram::gui::model::</text>
<text text-anchor="start" x="324" y="-101.5" font-family="Helvetica,sans-Serif" font-size="10.00">ElementContainerModel</text>
<text text-anchor="middle" x="381.5" y="-90.5" font-family="Helvetica,sans-Serif" font-size="10.00">::elements</text>
</a>
</g>
</g>
<!-- Node2&#45;&gt;Node10 -->
<g id="edge13" class="edge"><title>Node2&#45;&gt;Node10</title>
<path fill="none" stroke="midnightblue" d="M277.528,-234.229C278.373,-233.504 279.198,-232.761 280,-232 305.378,-207.92 294.642,-189.708 316,-162 326.665,-148.164 340.908,-134.959 353.297,-124.653"/>
<polygon fill="midnightblue" stroke="midnightblue" points="275.331,-231.502 269.428,-240.3 279.529,-237.103 275.331,-231.502"/>
</g>
<!-- Node3&#45;&gt;Node2 -->
<g id="edge3" class="edge"><title>Node3&#45;&gt;Node2</title>
<path fill="none" stroke="midnightblue" d="M305.671,-267.724C297.182,-267.782 288.583,-267.743 280.239,-267.609"/>
<polygon fill="midnightblue" stroke="midnightblue" points="305.989,-271.221 315.948,-267.606 305.908,-264.221 305.989,-271.221"/>
</g>
<!-- Node3&#45;&gt;Node4 -->
<g id="edge4" class="edge"><title>Node3&#45;&gt;Node4</title>
<path fill="none" stroke="midnightblue" d="M410.925,-288.424C429.968,-305.447 456.351,-326.565 483,-340 489.752,-343.404 497.047,-346.375 504.446,-348.956"/>
<polygon fill="midnightblue" stroke="midnightblue" points="413.24,-285.798 403.491,-281.652 408.526,-290.973 413.24,-285.798"/>
</g>
<!-- Node3&#45;&gt;Node5 -->
<g id="edge5" class="edge"><title>Node3&#45;&gt;Node5</title>
<path fill="none" stroke="midnightblue" d="M456.912,-283.415C465.697,-286.002 474.542,-288.578 483,-291 493.298,-293.949 504.298,-297.024 514.902,-299.951"/>
<polygon fill="midnightblue" stroke="midnightblue" points="457.625,-279.976 447.043,-280.499 455.641,-286.69 457.625,-279.976"/>
</g>
<!-- Node3&#45;&gt;Node6 -->
<g id="edge6" class="edge"><title>Node3&#45;&gt;Node6</title>
<path fill="none" stroke="midnightblue" d="M408.131,-232.68C427.165,-213.08 454.639,-187.629 483,-171 491.589,-165.964 501.15,-161.608 510.708,-157.897"/>
<polygon fill="midnightblue" stroke="midnightblue" points="405.384,-230.489 401.015,-240.141 410.45,-235.32 405.384,-230.489"/>
</g>
<!-- Node7 -->
<g id="node7" class="node"><title>Node7</title>
<g id="a_node7"><a xlink:href="classscram_1_1gui_1_1model_1_1GateContainerModel.xhtml#af26e5332d8f7a5df266b95aa965c147f" target="_top" xlink:title="The index for children embeds the parent information into the data. ">
<polygon fill="white" stroke="black" points="511,-180.5 511,-221.5 632,-221.5 632,-180.5 511,-180.5"/>
<text text-anchor="start" x="519" y="-209.5" font-family="Helvetica,sans-Serif" font-size="10.00">scram::gui::model::</text>
<text text-anchor="start" x="519" y="-198.5" font-family="Helvetica,sans-Serif" font-size="10.00">GateContainerModel::</text>
<text text-anchor="middle" x="571.5" y="-187.5" font-family="Helvetica,sans-Serif" font-size="10.00">parent</text>
</a>
</g>
</g>
<!-- Node3&#45;&gt;Node7 -->
<g id="edge7" class="edge"><title>Node3&#45;&gt;Node7</title>
<path fill="none" stroke="midnightblue" d="M456.791,-237.29C474.747,-231.56 493.707,-225.508 510.89,-220.024"/>
<polygon fill="midnightblue" stroke="midnightblue" points="455.398,-234.061 446.936,-240.435 457.527,-240.729 455.398,-234.061"/>
</g>
<!-- Node9 -->
<g id="node9" class="node"><title>Node9</title>
<g id="a_node9"><a xlink:href="classscram_1_1gui_1_1model_1_1ElementContainerModel.xhtml#ab0b11ddc9cea4fe7494dcb8df120396b" target="_top" xlink:title="Assumes the table&#45;layout and returns null index. ">
<polygon fill="white" stroke="black" points="506,-240.5 506,-281.5 637,-281.5 637,-240.5 506,-240.5"/>
<text text-anchor="start" x="514" y="-269.5" font-family="Helvetica,sans-Serif" font-size="10.00">scram::gui::model::</text>
<text text-anchor="start" x="514" y="-258.5" font-family="Helvetica,sans-Serif" font-size="10.00">ElementContainerModel</text>
<text text-anchor="middle" x="571.5" y="-247.5" font-family="Helvetica,sans-Serif" font-size="10.00">::parent</text>
</a>
</g>
</g>
<!-- Node3&#45;&gt;Node9 -->
<g id="edge9" class="edge"><title>Node3&#45;&gt;Node9</title>
<path fill="none" stroke="midnightblue" d="M457.54,-261C473.474,-261 490.167,-261 505.682,-261"/>
<polygon fill="midnightblue" stroke="midnightblue" points="457.199,-257.5 447.199,-261 457.199,-264.5 457.199,-257.5"/>
</g>
<!-- Node8 -->
<g id="node8" class="node"><title>Node8</title>
<g id="a_node8"><a xlink:href="classscram_1_1gui_1_1model_1_1GateContainerModel.xhtml#a191036bcdd39eae7889c99ac42208fd6" target="_top" xlink:title="The index for children embeds the parent information into the data. ">
<polygon fill="white" stroke="black" points="696,-186 696,-216 839,-216 839,-186 696,-186"/>
<text text-anchor="start" x="704" y="-204" font-family="Helvetica,sans-Serif" font-size="10.00">scram::gui::model::</text>
<text text-anchor="middle" x="767.5" y="-193" font-family="Helvetica,sans-Serif" font-size="10.00">GateContainerModel::data</text>
</a>
</g>
</g>
<!-- Node7&#45;&gt;Node8 -->
<g id="edge8" class="edge"><title>Node7&#45;&gt;Node8</title>
<path fill="none" stroke="midnightblue" d="M642.134,-201C659.59,-201 678.332,-201 695.837,-201"/>
<polygon fill="midnightblue" stroke="midnightblue" points="642.025,-197.5 632.025,-201 642.025,-204.5 642.025,-197.5"/>
</g>
<!-- Node10&#45;&gt;Node6 -->
<g id="edge16" class="edge"><title>Node10&#45;&gt;Node6</title>
<path fill="none" stroke="midnightblue" d="M457.489,-118.759C475.185,-122.241 493.818,-125.908 510.737,-129.238"/>
<polygon fill="midnightblue" stroke="midnightblue" points="457.687,-115.23 447.199,-116.733 456.335,-122.099 457.687,-115.23"/>
</g>
<!-- Node11 -->
<g id="node11" class="node"><title>Node11</title>
<g id="a_node11"><a xlink:href="classscram_1_1gui_1_1model_1_1BasicEventContainerModel.xhtml#a64a95b2368b017f25fc06fd78d0a7f33" target="_top" xlink:title="Constructs from the table of proxy Basic Events in the Model. ">
<polygon fill="white" stroke="black" points="496.5,-0.5 496.5,-41.5 646.5,-41.5 646.5,-0.5 496.5,-0.5"/>
<text text-anchor="start" x="504.5" y="-29.5" font-family="Helvetica,sans-Serif" font-size="10.00">scram::gui::model::</text>
<text text-anchor="start" x="504.5" y="-18.5" font-family="Helvetica,sans-Serif" font-size="10.00">BasicEventContainerModel</text>
<text text-anchor="middle" x="571.5" y="-7.5" font-family="Helvetica,sans-Serif" font-size="10.00">::BasicEventContainerModel</text>
</a>
</g>
</g>
<!-- Node10&#45;&gt;Node11 -->
<g id="edge14" class="edge"><title>Node10&#45;&gt;Node11</title>
<path fill="none" stroke="midnightblue" d="M427.329,-78.4525C444.461,-69.1987 464.36,-59.0527 483,-51 490.518,-47.7519 498.514,-44.6073 506.498,-41.6539"/>
<polygon fill="midnightblue" stroke="midnightblue" points="425.22,-75.6168 418.122,-83.4828 428.576,-81.7598 425.22,-75.6168"/>
</g>
<!-- Node12 -->
<g id="node12" class="node"><title>Node12</title>
<g id="a_node12"><a xlink:href="classscram_1_1gui_1_1model_1_1HouseEventContainerModel.xhtml#a1687ef3e47c335b5b3a52e21ba0e7dd2" target="_top" xlink:title="Constructs from the table of proxy House Events in the Model. ">
<polygon fill="white" stroke="black" points="494,-60.5 494,-101.5 649,-101.5 649,-60.5 494,-60.5"/>
<text text-anchor="start" x="502" y="-89.5" font-family="Helvetica,sans-Serif" font-size="10.00">scram::gui::model::</text>
<text text-anchor="start" x="502" y="-78.5" font-family="Helvetica,sans-Serif" font-size="10.00">HouseEventContainerModel</text>
<text text-anchor="middle" x="571.5" y="-67.5" font-family="Helvetica,sans-Serif" font-size="10.00">::HouseEventContainerModel</text>
</a>
</g>
</g>
<!-- Node10&#45;&gt;Node12 -->
<g id="edge15" class="edge"><title>Node10&#45;&gt;Node12</title>
<path fill="none" stroke="midnightblue" d="M457.167,-94.8652C469.179,-93.3957 481.631,-91.8723 493.692,-90.3967"/>
<polygon fill="midnightblue" stroke="midnightblue" points="456.7,-91.3962 447.199,-96.0847 457.55,-98.3444 456.7,-91.3962"/>
</g>
</g>
</svg>
        <g id="navigator" transform="translate(0 0)" fill="#404254">
                <rect fill="#f2f5e9" fill-opacity="0.5" stroke="#606060" stroke-width=".5" x="0" y="0" width="60" height="60"/>
                <use id="zoomplus" xlink:href="#zoomPlus" x="17" y="9" onmousedown="handleZoom(evt,'in')"/>
                <use id="zoomminus" xlink:href="#zoomMin" x="42" y="9" onmousedown="handleZoom(evt,'out')"/>
                <use id="reset" xlink:href="#resetDef" x="30" y="36" onmousedown="handleReset()"/>
                <g id="arrowUp" xlink:href="#dirArrow" transform="translate(30 24)" onmousedown="handlePan(0,-1)">
                  <use xlink:href="#rim" fill="#404040">
                        <set attributeName="fill" to="#808080" begin="arrowUp.mouseover" end="arrowUp.mouseout"/>
                  </use>
                  <path fill="none" stroke="white" stroke-width="1.5" d="M0,-3.0v7 M-2.5,-0.5L0,-3.0L2.5,-0.5"/>
                </g>
                <g id="arrowRight" xlink:href="#dirArrow" transform="rotate(90) translate(36 -43)" onmousedown="handlePan(1,0)">
                  <use xlink:href="#rim" fill="#404040">
                        <set attributeName="fill" to="#808080" begin="arrowRight.mouseover" end="arrowRight.mouseout"/>
                  </use>
                  <path fill="none" stroke="white" stroke-width="1.5" d="M0,-3.0v7 M-2.5,-0.5L0,-3.0L2.5,-0.5"/>
                </g>
                <g id="arrowDown" xlink:href="#dirArrow" transform="rotate(180) translate(-30 -48)" onmousedown="handlePan(0,1)">
                  <use xlink:href="#rim" fill="#404040">
                        <set attributeName="fill" to="#808080" begin="arrowDown.mouseover" end="arrowDown.mouseout"/>
                  </use>
                  <path fill="none" stroke="white" stroke-width="1.5" d="M0,-3.0v7 M-2.5,-0.5L0,-3.0L2.5,-0.5"/>
                </g>
                <g id="arrowLeft" xlink:href="#dirArrow" transform="rotate(270) translate(-36 17)" onmousedown="handlePan(-1,0)">
                  <use xlink:href="#rim" fill="#404040">
                        <set attributeName="fill" to="#808080" begin="arrowLeft.mouseover" end="arrowLeft.mouseout"/>
                  </use>
                  <path fill="none" stroke="white" stroke-width="1.5" d="M0,-3.0v7 M-2.5,-0.5L0,-3.0L2.5,-0.5"/>
                </g>
        </g>
        <svg viewBox="0 0 15 15" width="100%" height="30px" preserveAspectRatio="xMaxYMin meet">
         <g id="arrow_out" transform="scale(0.3 0.3)">
          <a xlink:href="classscram_1_1gui_1_1model_1_1Element_ad3a0378c2f765705286b393613606337_icgraph_org.svg" target="_base">
           <rect id="button" ry="5" rx="5" y="6" x="6" height="38" width="38"
                fill="#f2f5e9" fill-opacity="0.5" stroke="#606060" stroke-width="1.0"/>
           <path id="arrow"
             d="M 11.500037,31.436501 C 11.940474,20.09759 22.043105,11.32322 32.158766,21.979434 L 37.068811,17.246167 C 37.068811,17.246167 37.088388,32 37.088388,32 L 22.160133,31.978069 C 22.160133,31.978069 26.997745,27.140456 26.997745,27.140456 C 18.528582,18.264221 13.291696,25.230495 11.500037,31.436501 z"
             style="fill:#404040;"/>
          </a>
         </g>
        </svg>
</svg>
