<?xml version="1.0" encoding="UTF-8" standalone="no"?>
<!DOCTYPE svg PUBLIC "-//W3C//DTD SVG 1.1//EN"
 "http://www.w3.org/Graphics/SVG/1.1/DTD/svg11.dtd">
<!-- Generated by graphviz version 2.38.0 (20140413.2041)
 -->
<!-- Title: scram::gui::model::Model::modelNameChanged Pages: 1 -->
<svg width="394pt" height="88pt"
 viewBox="0.00 0.00 394.00 88.00" xmlns="http://www.w3.org/2000/svg" xmlns:xlink="http://www.w3.org/1999/xlink">
<g id="graph0" class="graph" transform="scale(1 1) rotate(0) translate(4 84)">
<title>scram::gui::model::Model::modelNameChanged</title>
<polygon fill="white" stroke="none" points="-4,4 -4,-84 390,-84 390,4 -4,4"/>
<!-- Node1 -->
<g id="node1" class="node"><title>Node1</title>
<polygon fill="#bfbfbf" stroke="black" points="0,-24.5 0,-54.5 153,-54.5 153,-24.5 0,-24.5"/>
<text text-anchor="start" x="8" y="-42.5" font-family="Helvetica,sans-Serif" font-size="10.00">scram::gui::model::</text>
<text text-anchor="middle" x="76.5" y="-31.5" font-family="Helvetica,sans-Serif" font-size="10.00">Model::modelNameChanged</text>
</g>
<!-- Node2 -->
<g id="node2" class="node"><title>Node2</title>
<g id="a_node2"><a xlink:href="mainwindow_8cpp.xhtml#ad0f4088e2f2115f81473cbb2a6db09ed" target="_top" xlink:title="Specialization to show gates as trees in tables. ">
<polygon fill="white" stroke="black" points="189,-49.5 189,-79.5 386,-79.5 386,-49.5 189,-49.5"/>
<text text-anchor="start" x="197" y="-67.5" font-family="Helvetica,sans-Serif" font-size="10.00">scram::gui::constructElement</text>
<text text-anchor="middle" x="287.5" y="-56.5" font-family="Helvetica,sans-Serif" font-size="10.00">Table&lt; model::GateContainerModel &gt;</text>
</a>
</g>
</g>
<!-- Node1&#45;&gt;Node2 -->
<g id="edge1" class="edge"><title>Node1&#45;&gt;Node2</title>
<path fill="none" stroke="midnightblue" d="M163.391,-49.774C171.785,-50.7781 180.345,-51.802 188.844,-52.8187"/>
<polygon fill="midnightblue" stroke="midnightblue" points="163.594,-46.2735 153.249,-48.5609 162.763,-53.2239 163.594,-46.2735"/>
</g>
<!-- Node3 -->
<g id="node3" class="node"><title>Node3</title>
<g id="a_node3"><a xlink:href="classscram_1_1gui_1_1model_1_1Model_1_1SetName.xhtml#aca2c5cdce29ffc23e004098401b1a23f" target="_top" xlink:title="Applies the new name to the model. ">
<polygon fill="white" stroke="black" points="225,-0.5 225,-30.5 350,-30.5 350,-0.5 225,-0.5"/>
<text text-anchor="start" x="233" y="-18.5" font-family="Helvetica,sans-Serif" font-size="10.00">scram::gui::model::</text>
<text text-anchor="middle" x="287.5" y="-7.5" font-family="Helvetica,sans-Serif" font-size="10.00">Model::SetName::redo</text>
</a>
</g>
</g>
<!-- Node1&#45;&gt;Node3 -->
<g id="edge2" class="edge"><title>Node1&#45;&gt;Node3</title>
<path fill="none" stroke="midnightblue" d="M163.265,-29.6514C183.862,-27.2861 205.463,-24.8057 224.725,-22.5938"/>
<polygon fill="midnightblue" stroke="midnightblue" points="162.785,-26.1835 153.249,-30.8015 163.583,-33.1377 162.785,-26.1835"/>
</g>
</g>
</svg>
