<?xml version="1.0" encoding="UTF-8" standalone="no"?>
<!DOCTYPE svg PUBLIC "-//W3C//DTD SVG 1.1//EN"
 "http://www.w3.org/Graphics/SVG/1.1/DTD/svg11.dtd">
<!-- Generated by graphviz version 2.38.0 (20140413.2041)
 -->
<!-- Title: scram::gui::model::ElementContainerModel::connectElement Pages: 1 -->
<svg width="640pt" height="75pt"
 viewBox="0.00 0.00 640.00 75.00" xmlns="http://www.w3.org/2000/svg" xmlns:xlink="http://www.w3.org/1999/xlink">
<g id="graph0" class="graph" transform="scale(1 1) rotate(0) translate(4 71)">
<title>scram::gui::model::ElementContainerModel::connectElement</title>
<polygon fill="white" stroke="none" points="-4,4 -4,-71 636,-71 636,4 -4,4"/>
<!-- Node1 -->
<g id="node1" class="node"><title>Node1</title>
<polygon fill="#bfbfbf" stroke="black" points="0,-25.5 0,-66.5 131,-66.5 131,-25.5 0,-25.5"/>
<text text-anchor="start" x="8" y="-54.5" font-family="Helvetica,sans-Serif" font-size="10.00">scram::gui::model::</text>
<text text-anchor="start" x="8" y="-43.5" font-family="Helvetica,sans-Serif" font-size="10.00">ElementContainerModel</text>
<text text-anchor="middle" x="65.5" y="-32.5" font-family="Helvetica,sans-Serif" font-size="10.00">::connectElement</text>
</g>
<!-- Node2 -->
<g id="node2" class="node"><title>Node2</title>
<g id="a_node2"><a xlink:href="classscram_1_1gui_1_1model_1_1ElementContainerModel.xhtml#a057325384c34e69a890a8a409dea2d09" target="_top" xlink:title="scram::gui::model::\lElementContainerModel\l::getElementIndex">
<polygon fill="white" stroke="black" points="167,-25.5 167,-66.5 298,-66.5 298,-25.5 167,-25.5"/>
<text text-anchor="start" x="175" y="-54.5" font-family="Helvetica,sans-Serif" font-size="10.00">scram::gui::model::</text>
<text text-anchor="start" x="175" y="-43.5" font-family="Helvetica,sans-Serif" font-size="10.00">ElementContainerModel</text>
<text text-anchor="middle" x="232.5" y="-32.5" font-family="Helvetica,sans-Serif" font-size="10.00">::getElementIndex</text>
</a>
</g>
</g>
<!-- Node1&#45;&gt;Node2 -->
<g id="edge1" class="edge"><title>Node1&#45;&gt;Node2</title>
<path fill="none" stroke="midnightblue" d="M131.239,-39.391C139.583,-39.2566 148.182,-39.2183 156.671,-39.276"/>
<polygon fill="midnightblue" stroke="midnightblue" points="156.908,-42.7789 166.948,-39.394 156.989,-35.7793 156.908,-42.7789"/>
</g>
<!-- Node3 -->
<g id="node3" class="node"><title>Node3</title>
<g id="a_node3"><a xlink:href="classscram_1_1gui_1_1model_1_1ElementContainerModel.xhtml#a18aa736cabfb5651e6c90330e9046241" target="_top" xlink:title="Puts the element pointer into the index&#39;s internal pointer. ">
<polygon fill="white" stroke="black" points="334,-0.5 334,-41.5 465,-41.5 465,-0.5 334,-0.5"/>
<text text-anchor="start" x="342" y="-29.5" font-family="Helvetica,sans-Serif" font-size="10.00">scram::gui::model::</text>
<text text-anchor="start" x="342" y="-18.5" font-family="Helvetica,sans-Serif" font-size="10.00">ElementContainerModel</text>
<text text-anchor="middle" x="399.5" y="-7.5" font-family="Helvetica,sans-Serif" font-size="10.00">::index</text>
</a>
</g>
</g>
<!-- Node1&#45;&gt;Node3 -->
<g id="edge6" class="edge"><title>Node1&#45;&gt;Node3</title>
<path fill="none" stroke="midnightblue" d="M124.844,-25.4818C138.507,-21.548 153.127,-18.0265 167,-16 218.959,-8.41043 278.164,-9.86756 323.694,-13.1153"/>
<polygon fill="midnightblue" stroke="midnightblue" points="323.545,-16.614 333.781,-13.8798 324.074,-9.63398 323.545,-16.614"/>
</g>
<!-- Node2&#45;&gt;Node1 -->
<g id="edge2" class="edge"><title>Node2&#45;&gt;Node1</title>
<path fill="none" stroke="midnightblue" d="M166.948,-52.606C158.516,-52.7433 149.821,-52.7824 141.239,-52.7234"/>
<polygon fill="midnightblue" stroke="midnightblue" points="141.278,-49.2237 131.239,-52.609 141.198,-56.2232 141.278,-49.2237"/>
</g>
<!-- Node2&#45;&gt;Node3 -->
<g id="edge3" class="edge"><title>Node2&#45;&gt;Node3</title>
<path fill="none" stroke="midnightblue" d="M298.239,-36.1911C306.675,-34.9129 315.371,-33.5953 323.951,-32.2953"/>
<polygon fill="midnightblue" stroke="midnightblue" points="324.585,-35.7393 333.948,-30.7806 323.536,-28.8183 324.585,-35.7393"/>
</g>
<!-- Node4 -->
<g id="node4" class="node"><title>Node4</title>
<g id="a_node4"><a xlink:href="classscram_1_1gui_1_1model_1_1ElementContainerModel.xhtml#a9aee454164cf6db9962bd29e367c9082" target="_top" xlink:title="scram::gui::model::\lElementContainerModel\l::getElement">
<polygon fill="white" stroke="black" points="501,-0.5 501,-41.5 632,-41.5 632,-0.5 501,-0.5"/>
<text text-anchor="start" x="509" y="-29.5" font-family="Helvetica,sans-Serif" font-size="10.00">scram::gui::model::</text>
<text text-anchor="start" x="509" y="-18.5" font-family="Helvetica,sans-Serif" font-size="10.00">ElementContainerModel</text>
<text text-anchor="middle" x="566.5" y="-7.5" font-family="Helvetica,sans-Serif" font-size="10.00">::getElement</text>
</a>
</g>
</g>
<!-- Node3&#45;&gt;Node4 -->
<g id="edge4" class="edge"><title>Node3&#45;&gt;Node4</title>
<path fill="none" stroke="midnightblue" d="M465.239,-14.391C473.583,-14.2566 482.182,-14.2183 490.671,-14.276"/>
<polygon fill="midnightblue" stroke="midnightblue" points="490.908,-17.7789 500.948,-14.394 490.989,-10.7793 490.908,-17.7789"/>
</g>
<!-- Node4&#45;&gt;Node3 -->
<g id="edge5" class="edge"><title>Node4&#45;&gt;Node3</title>
<path fill="none" stroke="midnightblue" d="M500.948,-27.606C492.516,-27.7433 483.821,-27.7824 475.239,-27.7234"/>
<polygon fill="midnightblue" stroke="midnightblue" points="475.278,-24.2237 465.239,-27.609 475.198,-31.2232 475.278,-24.2237"/>
</g>
</g>
</svg>
