<?xml version="1.0" encoding="UTF-8" standalone="no"?>
<!DOCTYPE svg PUBLIC "-//W3C//DTD SVG 1.1//EN"
 "http://www.w3.org/Graphics/SVG/1.1/DTD/svg11.dtd">
<!-- Generated by graphviz version 2.38.0 (20140413.2041)
 -->
<!-- Title: scram::gui::model::BasicEvent::expression Pages: 1 -->
<svg width="302pt" height="39pt"
 viewBox="0.00 0.00 302.00 39.00" xmlns="http://www.w3.org/2000/svg" xmlns:xlink="http://www.w3.org/1999/xlink">
<g id="graph0" class="graph" transform="scale(1 1) rotate(0) translate(4 35)">
<title>scram::gui::model::BasicEvent::expression</title>
<polygon fill="white" stroke="none" points="-4,4 -4,-35 298,-35 298,4 -4,4"/>
<!-- Node1 -->
<g id="node1" class="node"><title>Node1</title>
<polygon fill="#bfbfbf" stroke="black" points="0,-0.5 0,-30.5 127,-30.5 127,-0.5 0,-0.5"/>
<text text-anchor="start" x="8" y="-18.5" font-family="Helvetica,sans-Serif" font-size="10.00">scram::gui::model::</text>
<text text-anchor="middle" x="63.5" y="-7.5" font-family="Helvetica,sans-Serif" font-size="10.00">BasicEvent::expression</text>
</g>
<!-- Node2 -->
<g id="node2" class="node"><title>Node2</title>
<g id="a_node2"><a xlink:href="classscram_1_1gui_1_1MainWindow.xhtml#a8b334126b832c74b1034891efb5a416f" target="_top" xlink:title="Specialization to construct gate out of event editor data. ">
<polygon fill="white" stroke="black" points="163,-0.5 163,-30.5 294,-30.5 294,-0.5 163,-0.5"/>
<text text-anchor="start" x="171" y="-18.5" font-family="Helvetica,sans-Serif" font-size="10.00">scram::gui::MainWindow</text>
<text text-anchor="middle" x="228.5" y="-7.5" font-family="Helvetica,sans-Serif" font-size="10.00">::extract</text>
</a>
</g>
</g>
<!-- Node1&#45;&gt;Node2 -->
<g id="edge1" class="edge"><title>Node1&#45;&gt;Node2</title>
<path fill="none" stroke="midnightblue" d="M137.086,-15.5C145.705,-15.5 154.458,-15.5 162.954,-15.5"/>
<polygon fill="midnightblue" stroke="midnightblue" points="137.054,-12.0001 127.054,-15.5 137.054,-19.0001 137.054,-12.0001"/>
</g>
</g>
</svg>
