<?xml version="1.0" encoding="UTF-8" standalone="no"?>
<!DOCTYPE svg PUBLIC "-//W3C//DTD SVG 1.1//EN"
 "http://www.w3.org/Graphics/SVG/1.1/DTD/svg11.dtd">
<!-- Generated by graphviz version 2.38.0 (20140413.2041)
 -->
<!-- Title: scram::gui::EventDialog::validated Pages: 1 -->
<!--zoomable 122 -->
<svg id="main" version="1.1" xmlns="http://www.w3.org/2000/svg" xmlns:xlink="http://www.w3.org/1999/xlink" xml:space="preserve" onload="init(evt)">
<style type="text/css"><![CDATA[
.edge:hover path { stroke: red; }
.edge:hover polygon { stroke: red; fill: red; }
]]></style>
<script type="text/javascript"><![CDATA[
var edges = document.getElementsByTagName('g');
if (edges && edges.length) {
  for (var i=0;i<edges.length;i++) {
    if (edges[i].id.substr(0,4)=='edge') {
      edges[i].setAttribute('class','edge');
    }
  }
}
]]></script>
        <defs>
                <circle id="rim" cx="0" cy="0" r="7"/>
                <circle id="rim2" cx="0" cy="0" r="3.5"/>
                <g id="zoomPlus">
                        <use xlink:href="#rim" fill="#404040">
                                <set attributeName="fill" to="#808080" begin="zoomplus.mouseover" end="zoomplus.mouseout"/>
                        </use>
                        <path d="M-4,0h8M0,-4v8" fill="none" stroke="white" stroke-width="1.5" pointer-events="none"/>
                </g>
                <g id="zoomMin">
                        <use xlink:href="#rim" fill="#404040">
                                <set attributeName="fill" to="#808080" begin="zoomminus.mouseover" end="zoomminus.mouseout"/>
                        </use>
                        <path d="M-4,0h8" fill="none" stroke="white" stroke-width="1.5" pointer-events="none"/>
                </g>
                <g id="dirArrow">
                        <path fill="none" stroke="white" stroke-width="1.5" d="M0,-3.0v7 M-2.5,-0.5L0,-3.0L2.5,-0.5"/>
                </g>
               <g id="resetDef">
                       <use xlink:href="#rim2" fill="#404040">
                               <set attributeName="fill" to="#808080" begin="reset.mouseover" end="reset.mouseout"/>
                       </use>
               </g>
        </defs>

<script type="text/javascript">
var viewWidth = 637;
var viewHeight = 122;
var sectionId = 'dynsection-19';
</script>
<script xlink:href="svgpan.js"/>
<svg id="graph" class="graph">
<g id="viewport">
<title>scram::gui::EventDialog::validated</title>
<polygon fill="white" stroke="none" points="-4,4 -4,-118 633,-118 633,4 -4,4"/>
<!-- Node1 -->
<g id="node1" class="node"><title>Node1</title>
<polygon fill="#bfbfbf" stroke="black" points="0,-49.5 0,-79.5 130,-79.5 130,-49.5 0,-49.5"/>
<text text-anchor="start" x="8" y="-67.5" font-family="Helvetica,sans-Serif" font-size="10.00">scram::gui::EventDialog</text>
<text text-anchor="middle" x="65" y="-56.5" font-family="Helvetica,sans-Serif" font-size="10.00">::validated</text>
</g>
<!-- Node2 -->
<g id="node2" class="node"><title>Node2</title>
<g id="a_node2"><a xlink:href="classscram_1_1gui_1_1EventDialog.xhtml#abe5bd4a7b6bca6ddb91656f4bb87f905" target="_top" xlink:title="Creates a dialog for the definition of a new event. ">
<polygon fill="white" stroke="black" points="332,-83.5 332,-113.5 462,-113.5 462,-83.5 332,-83.5"/>
<text text-anchor="start" x="340" y="-101.5" font-family="Helvetica,sans-Serif" font-size="10.00">scram::gui::EventDialog</text>
<text text-anchor="middle" x="397" y="-90.5" font-family="Helvetica,sans-Serif" font-size="10.00">::EventDialog</text>
</a>
</g>
</g>
<!-- Node1&#45;&gt;Node2 -->
<g id="edge1" class="edge"><title>Node1&#45;&gt;Node2</title>
<path fill="none" stroke="midnightblue" d="M127.477,-81.9777C140.123,-84.9761 153.419,-87.7009 166,-89.5 221.58,-97.4484 285.431,-99.3831 331.733,-99.5109"/>
<polygon fill="midnightblue" stroke="midnightblue" points="128.046,-78.5135 117.5,-79.5268 126.376,-85.3114 128.046,-78.5135"/>
</g>
<!-- Node3 -->
<g id="node3" class="node"><title>Node3</title>
<g id="a_node3"><a xlink:href="classscram_1_1gui_1_1EventDialog.xhtml#a4b0937931be261ac68e45aee3062daf9" target="_top" xlink:title="scram::gui::EventDialog\l::faultTree">
<polygon fill="white" stroke="black" points="332,-24.5 332,-54.5 462,-54.5 462,-24.5 332,-24.5"/>
<text text-anchor="start" x="340" y="-42.5" font-family="Helvetica,sans-Serif" font-size="10.00">scram::gui::EventDialog</text>
<text text-anchor="middle" x="397" y="-31.5" font-family="Helvetica,sans-Serif" font-size="10.00">::faultTree</text>
</a>
</g>
</g>
<!-- Node1&#45;&gt;Node3 -->
<g id="edge2" class="edge"><title>Node1&#45;&gt;Node3</title>
<path fill="none" stroke="midnightblue" d="M125.776,-47.0264C138.915,-43.8978 152.837,-41.1204 166,-39.5 221.682,-32.6452 285.523,-33.3146 331.795,-35.314"/>
<polygon fill="midnightblue" stroke="midnightblue" points="124.77,-43.6697 115.907,-49.474 126.455,-50.4639 124.77,-43.6697"/>
</g>
<!-- Node6 -->
<g id="node6" class="node"><title>Node6</title>
<g id="a_node6"><a xlink:href="classscram_1_1gui_1_1EventDialog.xhtml#a38bf6ffaa2fb4575a8ddeb52a1a953a4" target="_top" xlink:title="Triggers validation of the current data. ">
<polygon fill="white" stroke="black" points="166,-49.5 166,-79.5 296,-79.5 296,-49.5 166,-49.5"/>
<text text-anchor="start" x="174" y="-67.5" font-family="Helvetica,sans-Serif" font-size="10.00">scram::gui::EventDialog</text>
<text text-anchor="middle" x="231" y="-56.5" font-family="Helvetica,sans-Serif" font-size="10.00">::validate</text>
</a>
</g>
</g>
<!-- Node1&#45;&gt;Node6 -->
<g id="edge5" class="edge"><title>Node1&#45;&gt;Node6</title>
<path fill="none" stroke="midnightblue" d="M140.564,-64.5C149.004,-64.5 157.549,-64.5 165.839,-64.5"/>
<polygon fill="midnightblue" stroke="midnightblue" points="140.346,-61.0001 130.346,-64.5 140.346,-68.0001 140.346,-61.0001"/>
</g>
<!-- Node4 -->
<g id="node4" class="node"><title>Node4</title>
<g id="a_node4"><a xlink:href="classscram_1_1gui_1_1MainWindow.xhtml#a8b334126b832c74b1034891efb5a416f" target="_top" xlink:title="Specialization to construct gate out of event editor data. ">
<polygon fill="white" stroke="black" points="498,-49.5 498,-79.5 629,-79.5 629,-49.5 498,-49.5"/>
<text text-anchor="start" x="506" y="-67.5" font-family="Helvetica,sans-Serif" font-size="10.00">scram::gui::MainWindow</text>
<text text-anchor="middle" x="563.5" y="-56.5" font-family="Helvetica,sans-Serif" font-size="10.00">::extract</text>
</a>
</g>
</g>
<!-- Node3&#45;&gt;Node4 -->
<g id="edge3" class="edge"><title>Node3&#45;&gt;Node4</title>
<path fill="none" stroke="midnightblue" d="M472.067,-50.7563C480.648,-52.0605 489.349,-53.3828 497.791,-54.6659"/>
<polygon fill="midnightblue" stroke="midnightblue" points="472.483,-47.2796 462.071,-49.2372 471.432,-54.2001 472.483,-47.2796"/>
</g>
<!-- Node5 -->
<g id="node5" class="node"><title>Node5</title>
<g id="a_node5"><a xlink:href="classscram_1_1gui_1_1EventDialog.xhtml#aa7277e2f2b20420880a2a875680eaffa" target="_top" xlink:title="Finds fault tree container of the gate. ">
<polygon fill="white" stroke="black" points="498.5,-0.5 498.5,-30.5 628.5,-30.5 628.5,-0.5 498.5,-0.5"/>
<text text-anchor="start" x="506.5" y="-18.5" font-family="Helvetica,sans-Serif" font-size="10.00">scram::gui::EventDialog</text>
<text text-anchor="middle" x="563.5" y="-7.5" font-family="Helvetica,sans-Serif" font-size="10.00">::getFaultTree</text>
</a>
</g>
</g>
<!-- Node3&#45;&gt;Node5 -->
<g id="edge4" class="edge"><title>Node3&#45;&gt;Node5</title>
<path fill="none" stroke="midnightblue" d="M472.222,-28.6713C480.936,-27.3999 489.772,-26.1107 498.333,-24.8617"/>
<polygon fill="midnightblue" stroke="midnightblue" points="471.461,-25.2452 462.071,-30.1523 472.472,-32.1718 471.461,-25.2452"/>
</g>
<!-- Node6&#45;&gt;Node2 -->
<g id="edge6" class="edge"><title>Node6&#45;&gt;Node2</title>
<path fill="none" stroke="midnightblue" d="M306.286,-79.9007C314.816,-81.6691 323.458,-83.4608 331.839,-85.1984"/>
<polygon fill="midnightblue" stroke="midnightblue" points="306.849,-76.4431 296.346,-77.8401 305.428,-83.2973 306.849,-76.4431"/>
</g>
<!-- Node6&#45;&gt;Node3 -->
<g id="edge7" class="edge"><title>Node6&#45;&gt;Node3</title>
<path fill="none" stroke="midnightblue" d="M306.286,-53.1759C314.816,-51.8756 323.458,-50.5582 331.839,-49.2806"/>
<polygon fill="midnightblue" stroke="midnightblue" points="305.705,-49.724 296.346,-54.6911 306.76,-56.6441 305.705,-49.724"/>
</g>
</g>
</svg>
        <g id="navigator" transform="translate(0 0)" fill="#404254">
                <rect fill="#f2f5e9" fill-opacity="0.5" stroke="#606060" stroke-width=".5" x="0" y="0" width="60" height="60"/>
                <use id="zoomplus" xlink:href="#zoomPlus" x="17" y="9" onmousedown="handleZoom(evt,'in')"/>
                <use id="zoomminus" xlink:href="#zoomMin" x="42" y="9" onmousedown="handleZoom(evt,'out')"/>
                <use id="reset" xlink:href="#resetDef" x="30" y="36" onmousedown="handleReset()"/>
                <g id="arrowUp" xlink:href="#dirArrow" transform="translate(30 24)" onmousedown="handlePan(0,-1)">
                  <use xlink:href="#rim" fill="#404040">
                        <set attributeName="fill" to="#808080" begin="arrowUp.mouseover" end="arrowUp.mouseout"/>
                  </use>
                  <path fill="none" stroke="white" stroke-width="1.5" d="M0,-3.0v7 M-2.5,-0.5L0,-3.0L2.5,-0.5"/>
                </g>
                <g id="arrowRight" xlink:href="#dirArrow" transform="rotate(90) translate(36 -43)" onmousedown="handlePan(1,0)">
                  <use xlink:href="#rim" fill="#404040">
                        <set attributeName="fill" to="#808080" begin="arrowRight.mouseover" end="arrowRight.mouseout"/>
                  </use>
                  <path fill="none" stroke="white" stroke-width="1.5" d="M0,-3.0v7 M-2.5,-0.5L0,-3.0L2.5,-0.5"/>
                </g>
                <g id="arrowDown" xlink:href="#dirArrow" transform="rotate(180) translate(-30 -48)" onmousedown="handlePan(0,1)">
                  <use xlink:href="#rim" fill="#404040">
                        <set attributeName="fill" to="#808080" begin="arrowDown.mouseover" end="arrowDown.mouseout"/>
                  </use>
                  <path fill="none" stroke="white" stroke-width="1.5" d="M0,-3.0v7 M-2.5,-0.5L0,-3.0L2.5,-0.5"/>
                </g>
                <g id="arrowLeft" xlink:href="#dirArrow" transform="rotate(270) translate(-36 17)" onmousedown="handlePan(-1,0)">
                  <use xlink:href="#rim" fill="#404040">
                        <set attributeName="fill" to="#808080" begin="arrowLeft.mouseover" end="arrowLeft.mouseout"/>
                  </use>
                  <path fill="none" stroke="white" stroke-width="1.5" d="M0,-3.0v7 M-2.5,-0.5L0,-3.0L2.5,-0.5"/>
                </g>
        </g>
        <svg viewBox="0 0 15 15" width="100%" height="30px" preserveAspectRatio="xMaxYMin meet">
         <g id="arrow_out" transform="scale(0.3 0.3)">
          <a xlink:href="classscram_1_1gui_1_1EventDialog_a26ac970b870dc37d46f1fd2ccd3b6f0c_icgraph_org.svg" target="_base">
           <rect id="button" ry="5" rx="5" y="6" x="6" height="38" width="38"
                fill="#f2f5e9" fill-opacity="0.5" stroke="#606060" stroke-width="1.0"/>
           <path id="arrow"
             d="M 11.500037,31.436501 C 11.940474,20.09759 22.043105,11.32322 32.158766,21.979434 L 37.068811,17.246167 C 37.068811,17.246167 37.088388,32 37.088388,32 L 22.160133,31.978069 C 22.160133,31.978069 26.997745,27.140456 26.997745,27.140456 C 18.528582,18.264221 13.291696,25.230495 11.500037,31.436501 z"
             style="fill:#404040;"/>
          </a>
         </g>
        </svg>
</svg>
