<?xml version="1.0" encoding="UTF-8" standalone="no"?>
<!DOCTYPE svg PUBLIC "-//W3C//DTD SVG 1.1//EN"
 "http://www.w3.org/Graphics/SVG/1.1/DTD/svg11.dtd">
<!-- Generated by graphviz version 2.38.0 (20140413.2041)
 -->
<!-- Title: scram::gui::model::HouseEvent Pages: 1 -->
<svg width="307pt" height="398pt"
 viewBox="0.00 0.00 306.50 398.00" xmlns="http://www.w3.org/2000/svg" xmlns:xlink="http://www.w3.org/1999/xlink">
<g id="graph0" class="graph" transform="scale(1 1) rotate(0) translate(4 394)">
<title>scram::gui::model::HouseEvent</title>
<polygon fill="white" stroke="none" points="-4,4 -4,-394 302.5,-394 302.5,4 -4,4"/>
<!-- Node1 -->
<g id="node1" class="node"><title>Node1</title>
<polygon fill="#bfbfbf" stroke="black" points="85,-0.5 85,-79.5 194,-79.5 194,-0.5 85,-0.5"/>
<text text-anchor="start" x="93" y="-67.5" font-family="Helvetica,sans-Serif" font-size="10.00">scram::gui::model::</text>
<text text-anchor="middle" x="139.5" y="-56.5" font-family="Helvetica,sans-Serif" font-size="10.00">HouseEvent</text>
<polyline fill="none" stroke="black" points="85,-49.5 194,-49.5 "/>
<text text-anchor="middle" x="139.5" y="-37.5" font-family="Helvetica,sans-Serif" font-size="10.00"> </text>
<polyline fill="none" stroke="black" points="85,-30.5 194,-30.5 "/>
<text text-anchor="start" x="93" y="-18.5" font-family="Helvetica,sans-Serif" font-size="10.00">+ HouseEvent()</text>
<text text-anchor="start" x="93" y="-7.5" font-family="Helvetica,sans-Serif" font-size="10.00">+ state()</text>
</g>
<!-- Node2 -->
<g id="node2" class="node"><title>Node2</title>
<g id="a_node2"><a xlink:href="classscram_1_1gui_1_1model_1_1Element.xhtml" target="_top" xlink:title="The base proxy Element model for mef::Element. ">
<polygon fill="white" stroke="black" points="0,-128.5 0,-218.5 109,-218.5 109,-128.5 0,-128.5"/>
<text text-anchor="start" x="8" y="-206.5" font-family="Helvetica,sans-Serif" font-size="10.00">scram::gui::model::</text>
<text text-anchor="middle" x="54.5" y="-195.5" font-family="Helvetica,sans-Serif" font-size="10.00">Element</text>
<polyline fill="none" stroke="black" points="0,-188.5 109,-188.5 "/>
<text text-anchor="middle" x="54.5" y="-176.5" font-family="Helvetica,sans-Serif" font-size="10.00"> </text>
<polyline fill="none" stroke="black" points="0,-169.5 109,-169.5 "/>
<text text-anchor="start" x="8" y="-157.5" font-family="Helvetica,sans-Serif" font-size="10.00">+ id()</text>
<text text-anchor="start" x="8" y="-146.5" font-family="Helvetica,sans-Serif" font-size="10.00">+ label()</text>
<text text-anchor="start" x="8" y="-135.5" font-family="Helvetica,sans-Serif" font-size="10.00"># Element()</text>
</a>
</g>
</g>
<!-- Node2&#45;&gt;Node1 -->
<g id="edge1" class="edge"><title>Node2&#45;&gt;Node1</title>
<path fill="none" stroke="midnightblue" d="M88.6534,-119.663C97.3252,-106.247 106.48,-92.0844 114.595,-79.5298"/>
<polygon fill="none" stroke="midnightblue" points="85.5294,-118.048 83.0402,-128.347 91.4082,-121.848 85.5294,-118.048"/>
</g>
<!-- Node3 -->
<g id="node3" class="node"><title>Node3</title>
<polygon fill="white" stroke="#bfbfbf" points="27,-310.5 27,-367.5 82,-367.5 82,-310.5 27,-310.5"/>
<text text-anchor="middle" x="54.5" y="-355.5" font-family="Helvetica,sans-Serif" font-size="10.00">QObject</text>
<polyline fill="none" stroke="#bfbfbf" points="27,-348.5 82,-348.5 "/>
<text text-anchor="middle" x="54.5" y="-336.5" font-family="Helvetica,sans-Serif" font-size="10.00"> </text>
<polyline fill="none" stroke="#bfbfbf" points="27,-329.5 82,-329.5 "/>
<text text-anchor="middle" x="54.5" y="-317.5" font-family="Helvetica,sans-Serif" font-size="10.00"> </text>
</g>
<!-- Node3&#45;&gt;Node2 -->
<g id="edge2" class="edge"><title>Node3&#45;&gt;Node2</title>
<path fill="none" stroke="midnightblue" d="M54.5,-300.008C54.5,-275.727 54.5,-244.143 54.5,-218.734"/>
<polygon fill="none" stroke="midnightblue" points="51.0001,-300.264 54.5,-310.264 58.0001,-300.264 51.0001,-300.264"/>
</g>
<!-- Node4 -->
<g id="node4" class="node"><title>Node4</title>
<g id="a_node4"><a xlink:href="classscram_1_1gui_1_1model_1_1Proxy.xhtml" target="_top" xlink:title="{scram::gui::model::\lProxy\&lt; HouseEvent, mef\l::HouseEvent \&gt;\n||+ data()\l+ data()\l* data()\l* data()\l}">
<polygon fill="white" stroke="black" points="127,-117.5 127,-229.5 264,-229.5 264,-117.5 127,-117.5"/>
<text text-anchor="start" x="135" y="-217.5" font-family="Helvetica,sans-Serif" font-size="10.00">scram::gui::model::</text>
<text text-anchor="start" x="135" y="-206.5" font-family="Helvetica,sans-Serif" font-size="10.00">Proxy&lt; HouseEvent, mef</text>
<text text-anchor="middle" x="195.5" y="-195.5" font-family="Helvetica,sans-Serif" font-size="10.00">::HouseEvent &gt;</text>
<polyline fill="none" stroke="black" points="127,-188.5 264,-188.5 "/>
<text text-anchor="middle" x="195.5" y="-176.5" font-family="Helvetica,sans-Serif" font-size="10.00"> </text>
<polyline fill="none" stroke="black" points="127,-169.5 264,-169.5 "/>
<text text-anchor="start" x="135" y="-157.5" font-family="Helvetica,sans-Serif" font-size="10.00">+ data()</text>
<text text-anchor="start" x="135" y="-146.5" font-family="Helvetica,sans-Serif" font-size="10.00">+ data()</text>
<text text-anchor="start" x="135" y="-135.5" font-family="Helvetica,sans-Serif" font-size="10.00">* data()</text>
<text text-anchor="start" x="135" y="-124.5" font-family="Helvetica,sans-Serif" font-size="10.00">* data()</text>
</a>
</g>
</g>
<!-- Node4&#45;&gt;Node1 -->
<g id="edge3" class="edge"><title>Node4&#45;&gt;Node1</title>
<path fill="none" stroke="midnightblue" d="M168.127,-108.221C163.99,-98.5069 159.834,-88.7498 156.023,-79.7985"/>
<polygon fill="none" stroke="midnightblue" points="164.937,-109.665 172.075,-117.494 171.377,-106.922 164.937,-109.665"/>
</g>
<!-- Node5 -->
<g id="node5" class="node"><title>Node5</title>
<g id="a_node5"><a xlink:href="classscram_1_1gui_1_1model_1_1Proxy.xhtml" target="_top" xlink:title="Provides the type and data of the origin for Proxy Elements. ">
<polygon fill="white" stroke="black" points="141,-288.5 141,-389.5 250,-389.5 250,-288.5 141,-288.5"/>
<text text-anchor="start" x="149" y="-377.5" font-family="Helvetica,sans-Serif" font-size="10.00">scram::gui::model::</text>
<text text-anchor="middle" x="195.5" y="-366.5" font-family="Helvetica,sans-Serif" font-size="10.00">Proxy&lt; E, T &gt;</text>
<polyline fill="none" stroke="black" points="141,-359.5 250,-359.5 "/>
<text text-anchor="middle" x="195.5" y="-347.5" font-family="Helvetica,sans-Serif" font-size="10.00"> </text>
<polyline fill="none" stroke="black" points="141,-340.5 250,-340.5 "/>
<text text-anchor="start" x="149" y="-328.5" font-family="Helvetica,sans-Serif" font-size="10.00">+ data()</text>
<text text-anchor="start" x="149" y="-317.5" font-family="Helvetica,sans-Serif" font-size="10.00">+ data()</text>
<text text-anchor="start" x="149" y="-306.5" font-family="Helvetica,sans-Serif" font-size="10.00">* data()</text>
<text text-anchor="start" x="149" y="-295.5" font-family="Helvetica,sans-Serif" font-size="10.00">* data()</text>
</a>
</g>
</g>
<!-- Node5&#45;&gt;Node4 -->
<g id="edge4" class="edge"><title>Node5&#45;&gt;Node4</title>
<path fill="none" stroke="orange" d="M195.5,-277.861C195.5,-262.051 195.5,-245.079 195.5,-229.551"/>
<polygon fill="orange" stroke="orange" points="192,-278.056 195.5,-288.056 199,-278.056 192,-278.056"/>
<text text-anchor="start" x="195.5" y="-262" font-family="Helvetica,sans-Serif" font-size="10.00"> &lt; HouseEvent, mef::</text>
<text text-anchor="middle" x="247" y="-251" font-family="Helvetica,sans-Serif" font-size="10.00">HouseEvent &gt;</text>
</g>
</g>
</svg>
