<?xml version="1.0" encoding="UTF-8" standalone="no"?>
<!DOCTYPE svg PUBLIC "-//W3C//DTD SVG 1.1//EN"
 "http://www.w3.org/Graphics/SVG/1.1/DTD/svg11.dtd">
<!-- Generated by graphviz version 2.38.0 (20140413.2041)
 -->
<!-- Title: scram::gui::EventDialog::setupData Pages: 1 -->
<svg width="563pt" height="186pt"
 viewBox="0.00 0.00 563.00 186.00" xmlns="http://www.w3.org/2000/svg" xmlns:xlink="http://www.w3.org/1999/xlink">
<g id="graph0" class="graph" transform="scale(1 1) rotate(0) translate(4 182)">
<title>scram::gui::EventDialog::setupData</title>
<polygon fill="white" stroke="none" points="-4,4 -4,-182 559,-182 559,4 -4,4"/>
<!-- Node1 -->
<g id="node1" class="node"><title>Node1</title>
<polygon fill="#bfbfbf" stroke="black" points="0,-103.5 0,-133.5 130,-133.5 130,-103.5 0,-103.5"/>
<text text-anchor="start" x="8" y="-121.5" font-family="Helvetica,sans-Serif" font-size="10.00">scram::gui::EventDialog</text>
<text text-anchor="middle" x="65" y="-110.5" font-family="Helvetica,sans-Serif" font-size="10.00">::setupData</text>
</g>
<!-- Node2 -->
<g id="node2" class="node"><title>Node2</title>
<g id="a_node2"><a xlink:href="classscram_1_1gui_1_1model_1_1Proxy.xhtml#a9302e19d5f845a33bdc31e13b09731c4" target="_top" xlink:title="scram::gui::model::\lProxy::data">
<polygon fill="white" stroke="black" points="332,-147.5 332,-177.5 441,-177.5 441,-147.5 332,-147.5"/>
<text text-anchor="start" x="340" y="-165.5" font-family="Helvetica,sans-Serif" font-size="10.00">scram::gui::model::</text>
<text text-anchor="middle" x="386.5" y="-154.5" font-family="Helvetica,sans-Serif" font-size="10.00">Proxy::data</text>
</a>
</g>
</g>
<!-- Node1&#45;&gt;Node2 -->
<g id="edge1" class="edge"><title>Node1&#45;&gt;Node2</title>
<path fill="none" stroke="midnightblue" d="M119.385,-133.509C134.365,-137.265 150.732,-140.947 166,-143.5 218.15,-152.219 277.98,-157.062 321.991,-159.672"/>
<polygon fill="midnightblue" stroke="midnightblue" points="321.794,-163.167 331.977,-160.243 322.193,-156.178 321.794,-163.167"/>
</g>
<!-- Node3 -->
<g id="node3" class="node"><title>Node3</title>
<g id="a_node3"><a xlink:href="classscram_1_1gui_1_1model_1_1BasicEvent.xhtml#a827dd95218bb3eece34e5777d487a590" target="_top" xlink:title="scram::gui::model::\lBasicEvent::flavor">
<polygon fill="white" stroke="black" points="176.5,-103.5 176.5,-133.5 285.5,-133.5 285.5,-103.5 176.5,-103.5"/>
<text text-anchor="start" x="184.5" y="-121.5" font-family="Helvetica,sans-Serif" font-size="10.00">scram::gui::model::</text>
<text text-anchor="middle" x="231" y="-110.5" font-family="Helvetica,sans-Serif" font-size="10.00">BasicEvent::flavor</text>
</a>
</g>
</g>
<!-- Node1&#45;&gt;Node3 -->
<g id="edge2" class="edge"><title>Node1&#45;&gt;Node3</title>
<path fill="none" stroke="midnightblue" d="M130.346,-118.5C142.146,-118.5 154.456,-118.5 166.238,-118.5"/>
<polygon fill="midnightblue" stroke="midnightblue" points="166.43,-122 176.43,-118.5 166.43,-115 166.43,-122"/>
</g>
<!-- Node4 -->
<g id="node4" class="node"><title>Node4</title>
<g id="a_node4"><a xlink:href="classscram_1_1gui_1_1EventDialog.xhtml#abe5bf2e13a1fbb54ce0d8c5a03ad3a05" target="_top" xlink:title="Sets up the dialog with element data. ">
<polygon fill="white" stroke="black" points="166,-54.5 166,-84.5 296,-84.5 296,-54.5 166,-54.5"/>
<text text-anchor="start" x="174" y="-72.5" font-family="Helvetica,sans-Serif" font-size="10.00">scram::gui::EventDialog</text>
<text text-anchor="middle" x="231" y="-61.5" font-family="Helvetica,sans-Serif" font-size="10.00">::setupData</text>
</a>
</g>
</g>
<!-- Node1&#45;&gt;Node4 -->
<g id="edge3" class="edge"><title>Node1&#45;&gt;Node4</title>
<path fill="none" stroke="midnightblue" d="M116.544,-103.399C133.458,-98.3449 152.477,-92.6624 170.039,-87.4152"/>
<polygon fill="midnightblue" stroke="midnightblue" points="171.044,-90.7679 179.623,-84.5516 169.04,-84.0609 171.044,-90.7679"/>
</g>
<!-- Node4&#45;&gt;Node2 -->
<g id="edge5" class="edge"><title>Node4&#45;&gt;Node2</title>
<path fill="none" stroke="midnightblue" d="M278.927,-84.556C284.931,-87.4091 290.79,-90.7116 296,-94.5 316.435,-109.36 311.937,-123.141 332,-138.5 333.773,-139.858 335.635,-141.159 337.558,-142.403"/>
<polygon fill="midnightblue" stroke="midnightblue" points="335.889,-145.481 346.29,-147.495 339.415,-139.434 335.889,-145.481"/>
</g>
<!-- Node5 -->
<g id="node5" class="node"><title>Node5</title>
<g id="a_node5"><a xlink:href="classscram_1_1gui_1_1model_1_1Gate.xhtml#abe97d8835764cc5754d7141c6eaf7c7d" target="_top" xlink:title="scram::gui::model::\lGate::args">
<polygon fill="white" stroke="black" points="332,-98.5 332,-128.5 441,-128.5 441,-98.5 332,-98.5"/>
<text text-anchor="start" x="340" y="-116.5" font-family="Helvetica,sans-Serif" font-size="10.00">scram::gui::model::</text>
<text text-anchor="middle" x="386.5" y="-105.5" font-family="Helvetica,sans-Serif" font-size="10.00">Gate::args</text>
</a>
</g>
</g>
<!-- Node4&#45;&gt;Node5 -->
<g id="edge4" class="edge"><title>Node4&#45;&gt;Node5</title>
<path fill="none" stroke="midnightblue" d="M284.397,-84.5192C296.924,-88.11 310.416,-91.9776 323.336,-95.681"/>
<polygon fill="midnightblue" stroke="midnightblue" points="322.502,-99.0827 333.079,-98.4738 324.431,-92.3537 322.502,-99.0827"/>
</g>
<!-- Node6 -->
<g id="node6" class="node"><title>Node6</title>
<g id="a_node6"><a xlink:href="classscram_1_1gui_1_1model_1_1Gate.xhtml#a8cdf5b54a0e5653d5e2b7eb8c66ceb2e" target="_top" xlink:title="scram::gui::model::\lGate::minNumber">
<polygon fill="white" stroke="black" points="332,-49.5 332,-79.5 441,-79.5 441,-49.5 332,-49.5"/>
<text text-anchor="start" x="340" y="-67.5" font-family="Helvetica,sans-Serif" font-size="10.00">scram::gui::model::</text>
<text text-anchor="middle" x="386.5" y="-56.5" font-family="Helvetica,sans-Serif" font-size="10.00">Gate::minNumber</text>
</a>
</g>
</g>
<!-- Node4&#45;&gt;Node6 -->
<g id="edge6" class="edge"><title>Node4&#45;&gt;Node6</title>
<path fill="none" stroke="midnightblue" d="M296.208,-67.4085C304.619,-67.1346 313.236,-66.8539 321.641,-66.5801"/>
<polygon fill="midnightblue" stroke="midnightblue" points="321.879,-70.0743 331.759,-66.2505 321.651,-63.078 321.879,-70.0743"/>
</g>
<!-- Node7 -->
<g id="node7" class="node"><title>Node7</title>
<g id="a_node7"><a xlink:href="classscram_1_1gui_1_1model_1_1Gate.xhtml#af6bdef0f594fd764a96912a4df8eb2f2" target="_top" xlink:title="scram::gui::model::\lGate::type">
<polygon fill="white" stroke="black" points="332,-0.5 332,-30.5 441,-30.5 441,-0.5 332,-0.5"/>
<text text-anchor="start" x="340" y="-18.5" font-family="Helvetica,sans-Serif" font-size="10.00">scram::gui::model::</text>
<text text-anchor="middle" x="386.5" y="-7.5" font-family="Helvetica,sans-Serif" font-size="10.00">Gate::type</text>
</a>
</g>
</g>
<!-- Node4&#45;&gt;Node7 -->
<g id="edge7" class="edge"><title>Node4&#45;&gt;Node7</title>
<path fill="none" stroke="midnightblue" d="M274.758,-54.458C292.896,-48.0774 314.207,-40.5803 333.265,-33.8759"/>
<polygon fill="midnightblue" stroke="midnightblue" points="334.433,-37.1752 342.705,-30.5549 332.11,-30.5719 334.433,-37.1752"/>
</g>
<!-- Node8 -->
<g id="node8" class="node"><title>Node8</title>
<g id="a_node8"><a xlink:href="translate_8h.xhtml#adfe5f7367036126ec5ca81430fbf4c71" target="_top" xlink:title="Forwards to translate function with a default global context. ">
<polygon fill="white" stroke="black" points="477,-6 477,-25 555,-25 555,-6 477,-6"/>
<text text-anchor="middle" x="516" y="-13" font-family="Helvetica,sans-Serif" font-size="10.00">scram::gui::_</text>
</a>
</g>
</g>
<!-- Node7&#45;&gt;Node8 -->
<g id="edge8" class="edge"><title>Node7&#45;&gt;Node8</title>
<path fill="none" stroke="midnightblue" d="M441.202,-15.5C449.624,-15.5 458.286,-15.5 466.58,-15.5"/>
<polygon fill="midnightblue" stroke="midnightblue" points="466.843,-19.0001 476.843,-15.5 466.843,-12.0001 466.843,-19.0001"/>
</g>
</g>
</svg>
