<?xml version="1.0" encoding="UTF-8" standalone="no"?>
<!DOCTYPE svg PUBLIC "-//W3C//DTD SVG 1.1//EN"
 "http://www.w3.org/Graphics/SVG/1.1/DTD/svg11.dtd">
<!-- Generated by graphviz version 2.38.0 (20140413.2041)
 -->
<!-- Title: scram::gui::model::ElementContainerModel::connectElement Pages: 1 -->
<svg width="698pt" height="388pt"
 viewBox="0.00 0.00 698.00 387.50" xmlns="http://www.w3.org/2000/svg" xmlns:xlink="http://www.w3.org/1999/xlink">
<g id="graph0" class="graph" transform="scale(1 1) rotate(0) translate(4 383.5)">
<title>scram::gui::model::ElementContainerModel::connectElement</title>
<polygon fill="white" stroke="none" points="-4,4 -4,-383.5 694,-383.5 694,4 -4,4"/>
<!-- Node1 -->
<g id="node1" class="node"><title>Node1</title>
<polygon fill="#bfbfbf" stroke="black" points="0,-240.5 0,-281.5 131,-281.5 131,-240.5 0,-240.5"/>
<text text-anchor="start" x="8" y="-269.5" font-family="Helvetica,sans-Serif" font-size="10.00">scram::gui::model::</text>
<text text-anchor="start" x="8" y="-258.5" font-family="Helvetica,sans-Serif" font-size="10.00">ElementContainerModel</text>
<text text-anchor="middle" x="65.5" y="-247.5" font-family="Helvetica,sans-Serif" font-size="10.00">::connectElement</text>
</g>
<!-- Node2 -->
<g id="node2" class="node"><title>Node2</title>
<g id="a_node2"><a xlink:href="classscram_1_1gui_1_1model_1_1BasicEventContainerModel.xhtml#a44a7b2e19f453595a7b6650d5273b2db" target="_top" xlink:title="Required standard member functions of QAbstractItemModel interface. ">
<polygon fill="white" stroke="black" points="336.5,-349 336.5,-379 508.5,-379 508.5,-349 336.5,-349"/>
<text text-anchor="start" x="344.5" y="-367" font-family="Helvetica,sans-Serif" font-size="10.00">scram::gui::model::</text>
<text text-anchor="middle" x="422.5" y="-356" font-family="Helvetica,sans-Serif" font-size="10.00">BasicEventContainerModel::data</text>
</a>
</g>
</g>
<!-- Node1&#45;&gt;Node2 -->
<g id="edge1" class="edge"><title>Node1&#45;&gt;Node2</title>
<path fill="none" stroke="midnightblue" d="M109.121,-286.413C126.571,-295.916 147.269,-306.073 167,-313 221.849,-332.256 286.043,-345.055 336.237,-353.016"/>
<polygon fill="midnightblue" stroke="midnightblue" points="110.757,-283.318 100.315,-281.524 107.359,-289.438 110.757,-283.318"/>
</g>
<!-- Node3 -->
<g id="node3" class="node"><title>Node3</title>
<g id="a_node3"><a xlink:href="classscram_1_1gui_1_1model_1_1HouseEventContainerModel.xhtml#aa112416a8c25d3cf8f3c4e0fdcbdc069" target="_top" xlink:title="Required standard member functions of QAbstractItemModel interface. ">
<polygon fill="white" stroke="black" points="334,-300 334,-330 511,-330 511,-300 334,-300"/>
<text text-anchor="start" x="342" y="-318" font-family="Helvetica,sans-Serif" font-size="10.00">scram::gui::model::</text>
<text text-anchor="middle" x="422.5" y="-307" font-family="Helvetica,sans-Serif" font-size="10.00">HouseEventContainerModel::data</text>
</a>
</g>
</g>
<!-- Node1&#45;&gt;Node3 -->
<g id="edge2" class="edge"><title>Node1&#45;&gt;Node3</title>
<path fill="none" stroke="midnightblue" d="M138.361,-284.299C147.92,-286.853 157.648,-289.181 167,-291 221.891,-301.674 284.401,-307.654 333.732,-310.976"/>
<polygon fill="midnightblue" stroke="midnightblue" points="139.054,-280.86 128.483,-281.568 137.189,-287.606 139.054,-280.86"/>
</g>
<!-- Node4 -->
<g id="node4" class="node"><title>Node4</title>
<g id="a_node4"><a xlink:href="classscram_1_1gui_1_1model_1_1ElementContainerModel.xhtml#af97ae0b24134a7c2fd8da6e2fdd3b042" target="_top" xlink:title="scram::gui::model::\lElementContainerModel\l::elements">
<polygon fill="white" stroke="black" points="167,-90.5 167,-131.5 298,-131.5 298,-90.5 167,-90.5"/>
<text text-anchor="start" x="175" y="-119.5" font-family="Helvetica,sans-Serif" font-size="10.00">scram::gui::model::</text>
<text text-anchor="start" x="175" y="-108.5" font-family="Helvetica,sans-Serif" font-size="10.00">ElementContainerModel</text>
<text text-anchor="middle" x="232.5" y="-97.5" font-family="Helvetica,sans-Serif" font-size="10.00">::elements</text>
</a>
</g>
</g>
<!-- Node1&#45;&gt;Node4 -->
<g id="edge3" class="edge"><title>Node1&#45;&gt;Node4</title>
<path fill="none" stroke="midnightblue" d="M96.5095,-233.719C128.898,-204.275 179.746,-158.049 208.912,-131.534"/>
<polygon fill="midnightblue" stroke="midnightblue" points="94.1416,-231.141 89.0966,-240.458 98.8504,-236.321 94.1416,-231.141"/>
</g>
<!-- Node6 -->
<g id="node6" class="node"><title>Node6</title>
<g id="a_node6"><a xlink:href="classscram_1_1gui_1_1model_1_1GateContainerModel.xhtml#a9cdee9017df030e4b41b29d5d8b895c9" target="_top" xlink:title="Constructs from the table of proxy Gates in the Model. ">
<polygon fill="white" stroke="black" points="362,-120.5 362,-161.5 483,-161.5 483,-120.5 362,-120.5"/>
<text text-anchor="start" x="370" y="-149.5" font-family="Helvetica,sans-Serif" font-size="10.00">scram::gui::model::</text>
<text text-anchor="start" x="370" y="-138.5" font-family="Helvetica,sans-Serif" font-size="10.00">GateContainerModel::</text>
<text text-anchor="middle" x="422.5" y="-127.5" font-family="Helvetica,sans-Serif" font-size="10.00">GateContainerModel</text>
</a>
</g>
</g>
<!-- Node1&#45;&gt;Node6 -->
<g id="edge7" class="edge"><title>Node1&#45;&gt;Node6</title>
<path fill="none" stroke="midnightblue" d="M137.402,-237.033C203.174,-214.8 299.962,-182.083 361.861,-161.16"/>
<polygon fill="midnightblue" stroke="midnightblue" points="135.879,-233.853 127.527,-240.371 138.121,-240.485 135.879,-233.853"/>
</g>
<!-- Node8 -->
<g id="node8" class="node"><title>Node8</title>
<g id="a_node8"><a xlink:href="classscram_1_1gui_1_1model_1_1ElementContainerModel.xhtml#a057325384c34e69a890a8a409dea2d09" target="_top" xlink:title="scram::gui::model::\lElementContainerModel\l::getElementIndex">
<polygon fill="white" stroke="black" points="167,-240.5 167,-281.5 298,-281.5 298,-240.5 167,-240.5"/>
<text text-anchor="start" x="175" y="-269.5" font-family="Helvetica,sans-Serif" font-size="10.00">scram::gui::model::</text>
<text text-anchor="start" x="175" y="-258.5" font-family="Helvetica,sans-Serif" font-size="10.00">ElementContainerModel</text>
<text text-anchor="middle" x="232.5" y="-247.5" font-family="Helvetica,sans-Serif" font-size="10.00">::getElementIndex</text>
</a>
</g>
</g>
<!-- Node1&#45;&gt;Node8 -->
<g id="edge8" class="edge"><title>Node1&#45;&gt;Node8</title>
<path fill="none" stroke="midnightblue" d="M141.239,-254.277C149.821,-254.218 158.516,-254.257 166.948,-254.394"/>
<polygon fill="midnightblue" stroke="midnightblue" points="141.198,-250.777 131.239,-254.391 141.278,-257.776 141.198,-250.777"/>
</g>
<!-- Node5 -->
<g id="node5" class="node"><title>Node5</title>
<g id="a_node5"><a xlink:href="classscram_1_1gui_1_1model_1_1BasicEventContainerModel.xhtml#a64a95b2368b017f25fc06fd78d0a7f33" target="_top" xlink:title="Constructs from the table of proxy Basic Events in the Model. ">
<polygon fill="white" stroke="black" points="347.5,-0.5 347.5,-41.5 497.5,-41.5 497.5,-0.5 347.5,-0.5"/>
<text text-anchor="start" x="355.5" y="-29.5" font-family="Helvetica,sans-Serif" font-size="10.00">scram::gui::model::</text>
<text text-anchor="start" x="355.5" y="-18.5" font-family="Helvetica,sans-Serif" font-size="10.00">BasicEventContainerModel</text>
<text text-anchor="middle" x="422.5" y="-7.5" font-family="Helvetica,sans-Serif" font-size="10.00">::BasicEventContainerModel</text>
</a>
</g>
</g>
<!-- Node4&#45;&gt;Node5 -->
<g id="edge4" class="edge"><title>Node4&#45;&gt;Node5</title>
<path fill="none" stroke="midnightblue" d="M272.833,-84.9257C290.976,-73.5831 313.088,-60.6986 334,-51 341.139,-47.6892 348.75,-44.5468 356.392,-41.6295"/>
<polygon fill="midnightblue" stroke="midnightblue" points="270.844,-82.0424 264.268,-90.3493 274.589,-87.9564 270.844,-82.0424"/>
</g>
<!-- Node4&#45;&gt;Node6 -->
<g id="edge5" class="edge"><title>Node4&#45;&gt;Node6</title>
<path fill="none" stroke="midnightblue" d="M308.489,-122.966C326.185,-125.79 344.818,-128.763 361.737,-131.463"/>
<polygon fill="midnightblue" stroke="midnightblue" points="308.626,-119.444 298.199,-121.324 307.522,-126.356 308.626,-119.444"/>
</g>
<!-- Node7 -->
<g id="node7" class="node"><title>Node7</title>
<g id="a_node7"><a xlink:href="classscram_1_1gui_1_1model_1_1HouseEventContainerModel.xhtml#a1687ef3e47c335b5b3a52e21ba0e7dd2" target="_top" xlink:title="Constructs from the table of proxy House Events in the Model. ">
<polygon fill="white" stroke="black" points="345,-60.5 345,-101.5 500,-101.5 500,-60.5 345,-60.5"/>
<text text-anchor="start" x="353" y="-89.5" font-family="Helvetica,sans-Serif" font-size="10.00">scram::gui::model::</text>
<text text-anchor="start" x="353" y="-78.5" font-family="Helvetica,sans-Serif" font-size="10.00">HouseEventContainerModel</text>
<text text-anchor="middle" x="422.5" y="-67.5" font-family="Helvetica,sans-Serif" font-size="10.00">::HouseEventContainerModel</text>
</a>
</g>
</g>
<!-- Node4&#45;&gt;Node7 -->
<g id="edge6" class="edge"><title>Node4&#45;&gt;Node7</title>
<path fill="none" stroke="midnightblue" d="M308.167,-99.085C320.179,-97.1683 332.631,-95.1812 344.692,-93.2566"/>
<polygon fill="midnightblue" stroke="midnightblue" points="307.522,-95.6435 298.199,-100.676 308.626,-102.556 307.522,-95.6435"/>
</g>
<!-- Node8&#45;&gt;Node1 -->
<g id="edge9" class="edge"><title>Node8&#45;&gt;Node1</title>
<path fill="none" stroke="midnightblue" d="M156.671,-267.724C148.182,-267.782 139.583,-267.743 131.239,-267.609"/>
<polygon fill="midnightblue" stroke="midnightblue" points="156.989,-271.221 166.948,-267.606 156.908,-264.221 156.989,-271.221"/>
</g>
<!-- Node8&#45;&gt;Node2 -->
<g id="edge10" class="edge"><title>Node8&#45;&gt;Node2</title>
<path fill="none" stroke="midnightblue" d="M261.925,-288.424C280.968,-305.447 307.351,-326.565 334,-340 340.752,-343.404 348.047,-346.375 355.446,-348.956"/>
<polygon fill="midnightblue" stroke="midnightblue" points="264.24,-285.798 254.491,-281.652 259.526,-290.973 264.24,-285.798"/>
</g>
<!-- Node8&#45;&gt;Node3 -->
<g id="edge11" class="edge"><title>Node8&#45;&gt;Node3</title>
<path fill="none" stroke="midnightblue" d="M307.912,-283.415C316.697,-286.002 325.542,-288.578 334,-291 344.298,-293.949 355.298,-297.024 365.902,-299.951"/>
<polygon fill="midnightblue" stroke="midnightblue" points="308.625,-279.976 298.043,-280.499 306.641,-286.69 308.625,-279.976"/>
</g>
<!-- Node8&#45;&gt;Node6 -->
<g id="edge12" class="edge"><title>Node8&#45;&gt;Node6</title>
<path fill="none" stroke="midnightblue" d="M274.104,-234.543C282.332,-228.503 290.694,-221.837 298,-215 316.448,-197.735 313.256,-185.427 334,-171 342.438,-165.132 352.125,-160.323 361.911,-156.41"/>
<polygon fill="midnightblue" stroke="midnightblue" points="272.067,-231.697 265.964,-240.358 276.136,-237.393 272.067,-231.697"/>
</g>
<!-- Node9 -->
<g id="node9" class="node"><title>Node9</title>
<g id="a_node9"><a xlink:href="classscram_1_1gui_1_1model_1_1ElementContainerModel.xhtml#ab0b11ddc9cea4fe7494dcb8df120396b" target="_top" xlink:title="Assumes the table&#45;layout and returns null index. ">
<polygon fill="white" stroke="black" points="357,-180.5 357,-221.5 488,-221.5 488,-180.5 357,-180.5"/>
<text text-anchor="start" x="365" y="-209.5" font-family="Helvetica,sans-Serif" font-size="10.00">scram::gui::model::</text>
<text text-anchor="start" x="365" y="-198.5" font-family="Helvetica,sans-Serif" font-size="10.00">ElementContainerModel</text>
<text text-anchor="middle" x="422.5" y="-187.5" font-family="Helvetica,sans-Serif" font-size="10.00">::parent</text>
</a>
</g>
</g>
<!-- Node8&#45;&gt;Node9 -->
<g id="edge13" class="edge"><title>Node8&#45;&gt;Node9</title>
<path fill="none" stroke="midnightblue" d="M307.484,-237.388C323.895,-232.151 341.159,-226.641 357.148,-221.538"/>
<polygon fill="midnightblue" stroke="midnightblue" points="306.398,-234.061 297.936,-240.435 308.527,-240.729 306.398,-234.061"/>
</g>
<!-- Node10 -->
<g id="node10" class="node"><title>Node10</title>
<g id="a_node10"><a xlink:href="classscram_1_1gui_1_1model_1_1GateContainerModel.xhtml#af26e5332d8f7a5df266b95aa965c147f" target="_top" xlink:title="The index for children embeds the parent information into the data. ">
<polygon fill="white" stroke="black" points="362,-240.5 362,-281.5 483,-281.5 483,-240.5 362,-240.5"/>
<text text-anchor="start" x="370" y="-269.5" font-family="Helvetica,sans-Serif" font-size="10.00">scram::gui::model::</text>
<text text-anchor="start" x="370" y="-258.5" font-family="Helvetica,sans-Serif" font-size="10.00">GateContainerModel::</text>
<text text-anchor="middle" x="422.5" y="-247.5" font-family="Helvetica,sans-Serif" font-size="10.00">parent</text>
</a>
</g>
</g>
<!-- Node8&#45;&gt;Node10 -->
<g id="edge14" class="edge"><title>Node8&#45;&gt;Node10</title>
<path fill="none" stroke="midnightblue" d="M308.489,-261C326.185,-261 344.818,-261 361.737,-261"/>
<polygon fill="midnightblue" stroke="midnightblue" points="308.199,-257.5 298.199,-261 308.199,-264.5 308.199,-257.5"/>
</g>
<!-- Node11 -->
<g id="node11" class="node"><title>Node11</title>
<g id="a_node11"><a xlink:href="classscram_1_1gui_1_1model_1_1GateContainerModel.xhtml#a191036bcdd39eae7889c99ac42208fd6" target="_top" xlink:title="The index for children embeds the parent information into the data. ">
<polygon fill="white" stroke="black" points="547,-246 547,-276 690,-276 690,-246 547,-246"/>
<text text-anchor="start" x="555" y="-264" font-family="Helvetica,sans-Serif" font-size="10.00">scram::gui::model::</text>
<text text-anchor="middle" x="618.5" y="-253" font-family="Helvetica,sans-Serif" font-size="10.00">GateContainerModel::data</text>
</a>
</g>
</g>
<!-- Node10&#45;&gt;Node11 -->
<g id="edge15" class="edge"><title>Node10&#45;&gt;Node11</title>
<path fill="none" stroke="midnightblue" d="M493.134,-261C510.59,-261 529.332,-261 546.837,-261"/>
<polygon fill="midnightblue" stroke="midnightblue" points="493.025,-257.5 483.025,-261 493.025,-264.5 493.025,-257.5"/>
</g>
</g>
</svg>
