<?xml version="1.0" encoding="UTF-8" standalone="no"?>
<!DOCTYPE svg PUBLIC "-//W3C//DTD SVG 1.1//EN"
 "http://www.w3.org/Graphics/SVG/1.1/DTD/svg11.dtd">
<!-- Generated by graphviz version 2.38.0 (20140413.2041)
 -->
<!-- Title: scram::gui::Inverse&lt; T &gt; Pages: 1 -->
<svg width="308pt" height="405pt"
 viewBox="0.00 0.00 307.50 405.00" xmlns="http://www.w3.org/2000/svg" xmlns:xlink="http://www.w3.org/1999/xlink">
<g id="graph0" class="graph" transform="scale(1 1) rotate(0) translate(4 401)">
<title>scram::gui::Inverse&lt; T &gt;</title>
<polygon fill="white" stroke="none" points="-4,4 -4,-401 303.5,-401 303.5,4 -4,4"/>
<!-- Node1 -->
<g id="node1" class="node"><title>Node1</title>
<polygon fill="#bfbfbf" stroke="black" points="70,-233.5 70,-301.5 205,-301.5 205,-233.5 70,-233.5"/>
<text text-anchor="middle" x="137.5" y="-289.5" font-family="Helvetica,sans-Serif" font-size="10.00">scram::gui::Inverse&lt; T &gt;</text>
<polyline fill="none" stroke="black" points="70,-282.5 205,-282.5 "/>
<text text-anchor="middle" x="137.5" y="-270.5" font-family="Helvetica,sans-Serif" font-size="10.00"> </text>
<polyline fill="none" stroke="black" points="70,-263.5 205,-263.5 "/>
<text text-anchor="start" x="78" y="-251.5" font-family="Helvetica,sans-Serif" font-size="10.00">+ redo()</text>
<text text-anchor="start" x="78" y="-240.5" font-family="Helvetica,sans-Serif" font-size="10.00">+ undo()</text>
</g>
<!-- Node3 -->
<g id="node3" class="node"><title>Node3</title>
<g id="a_node3"><a xlink:href="classscram_1_1gui_1_1Inverse.xhtml" target="_top" xlink:title="{scram::gui::Inverse\l\&lt; AddFaultTree \&gt;\n||+ redo()\l+ undo()\l}">
<polygon fill="white" stroke="black" points="18,-106.5 18,-185.5 125,-185.5 125,-106.5 18,-106.5"/>
<text text-anchor="start" x="26" y="-173.5" font-family="Helvetica,sans-Serif" font-size="10.00">scram::gui::Inverse</text>
<text text-anchor="middle" x="71.5" y="-162.5" font-family="Helvetica,sans-Serif" font-size="10.00">&lt; AddFaultTree &gt;</text>
<polyline fill="none" stroke="black" points="18,-155.5 125,-155.5 "/>
<text text-anchor="middle" x="71.5" y="-143.5" font-family="Helvetica,sans-Serif" font-size="10.00"> </text>
<polyline fill="none" stroke="black" points="18,-136.5 125,-136.5 "/>
<text text-anchor="start" x="26" y="-124.5" font-family="Helvetica,sans-Serif" font-size="10.00">+ redo()</text>
<text text-anchor="start" x="26" y="-113.5" font-family="Helvetica,sans-Serif" font-size="10.00">+ undo()</text>
</a>
</g>
</g>
<!-- Node1&#45;&gt;Node3 -->
<g id="edge2" class="edge"><title>Node1&#45;&gt;Node3</title>
<path fill="none" stroke="orange" d="M112.067,-224.775C110.157,-221.482 108.282,-218.196 106.5,-215 101.263,-205.606 95.836,-195.35 90.8636,-185.716"/>
<polygon fill="orange" stroke="orange" points="109.078,-226.597 117.161,-233.446 115.113,-223.051 109.078,-226.597"/>
<text text-anchor="middle" x="150" y="-207" font-family="Helvetica,sans-Serif" font-size="10.00"> &lt; AddFaultTree &gt;</text>
</g>
<!-- Node5 -->
<g id="node5" class="node"><title>Node5</title>
<g id="a_node5"><a xlink:href="classscram_1_1gui_1_1Inverse.xhtml" target="_top" xlink:title="{scram::gui::Inverse\l\&lt; AddEvent\&lt; T \&gt; \&gt;\n||+ redo()\l+ undo()\l}">
<polygon fill="white" stroke="black" points="162,-106.5 162,-185.5 275,-185.5 275,-106.5 162,-106.5"/>
<text text-anchor="start" x="170" y="-173.5" font-family="Helvetica,sans-Serif" font-size="10.00">scram::gui::Inverse</text>
<text text-anchor="middle" x="218.5" y="-162.5" font-family="Helvetica,sans-Serif" font-size="10.00">&lt; AddEvent&lt; T &gt; &gt;</text>
<polyline fill="none" stroke="black" points="162,-155.5 275,-155.5 "/>
<text text-anchor="middle" x="218.5" y="-143.5" font-family="Helvetica,sans-Serif" font-size="10.00"> </text>
<polyline fill="none" stroke="black" points="162,-136.5 275,-136.5 "/>
<text text-anchor="start" x="170" y="-124.5" font-family="Helvetica,sans-Serif" font-size="10.00">+ redo()</text>
<text text-anchor="start" x="170" y="-113.5" font-family="Helvetica,sans-Serif" font-size="10.00">+ undo()</text>
</a>
</g>
</g>
<!-- Node1&#45;&gt;Node5 -->
<g id="edge4" class="edge"><title>Node1&#45;&gt;Node5</title>
<path fill="none" stroke="orange" d="M185.135,-225.938C188.162,-222.405 190.994,-218.744 193.5,-215 199.446,-206.115 204.2,-195.633 207.897,-185.595"/>
<polygon fill="orange" stroke="orange" points="182.425,-223.715 178.248,-233.451 187.585,-228.445 182.425,-223.715"/>
<text text-anchor="middle" x="249.5" y="-207" font-family="Helvetica,sans-Serif" font-size="10.00"> &lt; AddEvent&lt; T &gt; &gt;</text>
</g>
<!-- Node2 -->
<g id="node2" class="node"><title>Node2</title>
<polygon fill="white" stroke="#bfbfbf" points="123,-339.5 123,-396.5 152,-396.5 152,-339.5 123,-339.5"/>
<text text-anchor="middle" x="137.5" y="-384.5" font-family="Helvetica,sans-Serif" font-size="10.00">T</text>
<polyline fill="none" stroke="#bfbfbf" points="123,-377.5 152,-377.5 "/>
<text text-anchor="middle" x="137.5" y="-365.5" font-family="Helvetica,sans-Serif" font-size="10.00"> </text>
<polyline fill="none" stroke="#bfbfbf" points="123,-358.5 152,-358.5 "/>
<text text-anchor="middle" x="137.5" y="-346.5" font-family="Helvetica,sans-Serif" font-size="10.00"> </text>
</g>
<!-- Node2&#45;&gt;Node1 -->
<g id="edge1" class="edge"><title>Node2&#45;&gt;Node1</title>
<path fill="none" stroke="midnightblue" d="M137.5,-329.007C137.5,-319.962 137.5,-310.383 137.5,-301.578"/>
<polygon fill="none" stroke="midnightblue" points="134,-329.3 137.5,-339.3 141,-329.3 134,-329.3"/>
</g>
<!-- Node4 -->
<g id="node4" class="node"><title>Node4</title>
<g id="a_node4"><a xlink:href="classscram_1_1gui_1_1model_1_1Model_1_1RemoveFaultTree.xhtml" target="_top" xlink:title="Removes a fault tree from the model. ">
<polygon fill="white" stroke="black" points="0,-0.5 0,-68.5 131,-68.5 131,-0.5 0,-0.5"/>
<text text-anchor="start" x="8" y="-56.5" font-family="Helvetica,sans-Serif" font-size="10.00">scram::gui::model::</text>
<text text-anchor="middle" x="65.5" y="-45.5" font-family="Helvetica,sans-Serif" font-size="10.00">Model::RemoveFaultTree</text>
<polyline fill="none" stroke="black" points="0,-38.5 131,-38.5 "/>
<text text-anchor="middle" x="65.5" y="-26.5" font-family="Helvetica,sans-Serif" font-size="10.00"> </text>
<polyline fill="none" stroke="black" points="0,-19.5 131,-19.5 "/>
<text text-anchor="start" x="8" y="-7.5" font-family="Helvetica,sans-Serif" font-size="10.00">+ RemoveFaultTree()</text>
</a>
</g>
</g>
<!-- Node3&#45;&gt;Node4 -->
<g id="edge3" class="edge"><title>Node3&#45;&gt;Node4</title>
<path fill="none" stroke="midnightblue" d="M68.8359,-96.3805C68.3228,-87.0158 67.7964,-77.4088 67.3178,-68.674"/>
<polygon fill="none" stroke="midnightblue" points="65.3426,-96.6009 69.3846,-106.394 72.3322,-96.2178 65.3426,-96.6009"/>
</g>
<!-- Node6 -->
<g id="node6" class="node"><title>Node6</title>
<g id="a_node6"><a xlink:href="classscram_1_1gui_1_1model_1_1Model_1_1RemoveEvent.xhtml" target="_top" xlink:title="Removes an existing event from the model. ">
<polygon fill="white" stroke="black" points="149.5,-0.5 149.5,-68.5 293.5,-68.5 293.5,-0.5 149.5,-0.5"/>
<text text-anchor="start" x="157.5" y="-56.5" font-family="Helvetica,sans-Serif" font-size="10.00">scram::gui::model::</text>
<text text-anchor="middle" x="221.5" y="-45.5" font-family="Helvetica,sans-Serif" font-size="10.00">Model::RemoveEvent&lt; T &gt;</text>
<polyline fill="none" stroke="black" points="149.5,-38.5 293.5,-38.5 "/>
<text text-anchor="middle" x="221.5" y="-26.5" font-family="Helvetica,sans-Serif" font-size="10.00"> </text>
<polyline fill="none" stroke="black" points="149.5,-19.5 293.5,-19.5 "/>
<text text-anchor="start" x="157.5" y="-7.5" font-family="Helvetica,sans-Serif" font-size="10.00">+ RemoveEvent()</text>
</a>
</g>
</g>
<!-- Node5&#45;&gt;Node6 -->
<g id="edge5" class="edge"><title>Node5&#45;&gt;Node6</title>
<path fill="none" stroke="midnightblue" d="M219.832,-96.3805C220.089,-87.0158 220.352,-77.4088 220.591,-68.674"/>
<polygon fill="none" stroke="midnightblue" points="216.333,-96.3023 219.558,-106.394 223.33,-96.494 216.333,-96.3023"/>
</g>
</g>
</svg>
