<?xml version="1.0" encoding="UTF-8" standalone="no"?>
<!DOCTYPE svg PUBLIC "-//W3C//DTD SVG 1.1//EN"
 "http://www.w3.org/Graphics/SVG/1.1/DTD/svg11.dtd">
<!-- Generated by graphviz version 2.38.0 (20140413.2041)
 -->
<!-- Title: scram::gui::model::Proxy::data Pages: 1 -->
<svg width="324pt" height="235pt"
 viewBox="0.00 0.00 324.00 235.00" xmlns="http://www.w3.org/2000/svg" xmlns:xlink="http://www.w3.org/1999/xlink">
<g id="graph0" class="graph" transform="scale(1 1) rotate(0) translate(4 231)">
<title>scram::gui::model::Proxy::data</title>
<polygon fill="white" stroke="none" points="-4,4 -4,-231 320,-231 320,4 -4,4"/>
<!-- Node1 -->
<g id="node1" class="node"><title>Node1</title>
<polygon fill="#bfbfbf" stroke="black" points="0,-98.5 0,-128.5 109,-128.5 109,-98.5 0,-98.5"/>
<text text-anchor="start" x="8" y="-116.5" font-family="Helvetica,sans-Serif" font-size="10.00">scram::gui::model::</text>
<text text-anchor="middle" x="54.5" y="-105.5" font-family="Helvetica,sans-Serif" font-size="10.00">Proxy::data</text>
</g>
<!-- Node2 -->
<g id="node2" class="node"><title>Node2</title>
<g id="a_node2"><a xlink:href="classscram_1_1gui_1_1model_1_1BasicEvent_1_1SetExpression.xhtml#ae6a0cda81a87f9e74eaf258a0a266963" target="_top" xlink:title="Applies the expression changes. ">
<polygon fill="white" stroke="black" points="145,-196.5 145,-226.5 316,-226.5 316,-196.5 145,-196.5"/>
<text text-anchor="start" x="153" y="-214.5" font-family="Helvetica,sans-Serif" font-size="10.00">scram::gui::model::</text>
<text text-anchor="middle" x="230.5" y="-203.5" font-family="Helvetica,sans-Serif" font-size="10.00">BasicEvent::SetExpression::redo</text>
</a>
</g>
</g>
<!-- Node1&#45;&gt;Node2 -->
<g id="edge1" class="edge"><title>Node1&#45;&gt;Node2</title>
<path fill="none" stroke="midnightblue" d="M77.162,-135.86C94.21,-152.284 119.308,-174 145,-187.5 151.48,-190.905 158.501,-193.877 165.632,-196.458"/>
<polygon fill="midnightblue" stroke="midnightblue" points="79.5047,-133.255 69.9224,-128.735 74.5946,-138.244 79.5047,-133.255"/>
</g>
<!-- Node3 -->
<g id="node3" class="node"><title>Node3</title>
<g id="a_node3"><a xlink:href="classscram_1_1gui_1_1model_1_1BasicEvent_1_1SetFlavor.xhtml#ac37ddcb53247b2404b909868566b34c7" target="_top" xlink:title="Applies the flavor changes. ">
<polygon fill="white" stroke="black" points="156.5,-147.5 156.5,-177.5 304.5,-177.5 304.5,-147.5 156.5,-147.5"/>
<text text-anchor="start" x="164.5" y="-165.5" font-family="Helvetica,sans-Serif" font-size="10.00">scram::gui::model::</text>
<text text-anchor="middle" x="230.5" y="-154.5" font-family="Helvetica,sans-Serif" font-size="10.00">BasicEvent::SetFlavor::redo</text>
</a>
</g>
</g>
<!-- Node1&#45;&gt;Node3 -->
<g id="edge2" class="edge"><title>Node1&#45;&gt;Node3</title>
<path fill="none" stroke="midnightblue" d="M118.784,-131.321C137.57,-136.612 157.955,-142.352 176.052,-147.448"/>
<polygon fill="midnightblue" stroke="midnightblue" points="119.7,-127.943 109.126,-128.601 117.802,-134.681 119.7,-127.943"/>
</g>
<!-- Node4 -->
<g id="node4" class="node"><title>Node4</title>
<g id="a_node4"><a xlink:href="classscram_1_1gui_1_1model_1_1HouseEvent_1_1SetState.xhtml#a932800361c8b3ae4342647f5be26759f" target="_top" xlink:title="Applies the new state to the house event. ">
<polygon fill="white" stroke="black" points="155,-98.5 155,-128.5 306,-128.5 306,-98.5 155,-98.5"/>
<text text-anchor="start" x="163" y="-116.5" font-family="Helvetica,sans-Serif" font-size="10.00">scram::gui::model::</text>
<text text-anchor="middle" x="230.5" y="-105.5" font-family="Helvetica,sans-Serif" font-size="10.00">HouseEvent::SetState::redo</text>
</a>
</g>
</g>
<!-- Node1&#45;&gt;Node4 -->
<g id="edge3" class="edge"><title>Node1&#45;&gt;Node4</title>
<path fill="none" stroke="midnightblue" d="M119.167,-113.5C130.797,-113.5 143.026,-113.5 154.938,-113.5"/>
<polygon fill="midnightblue" stroke="midnightblue" points="119.126,-110 109.126,-113.5 119.125,-117 119.126,-110"/>
</g>
<!-- Node5 -->
<g id="node5" class="node"><title>Node5</title>
<g id="a_node5"><a xlink:href="classscram_1_1gui_1_1model_1_1Gate_1_1SetFormula.xhtml#a7e970a42c601690b7c1b298e2b7478fb" target="_top" xlink:title="Applies the gate formula changes. ">
<polygon fill="white" stroke="black" points="166,-49.5 166,-79.5 295,-79.5 295,-49.5 166,-49.5"/>
<text text-anchor="start" x="174" y="-67.5" font-family="Helvetica,sans-Serif" font-size="10.00">scram::gui::model::</text>
<text text-anchor="middle" x="230.5" y="-56.5" font-family="Helvetica,sans-Serif" font-size="10.00">Gate::SetFormula::redo</text>
</a>
</g>
</g>
<!-- Node1&#45;&gt;Node5 -->
<g id="edge4" class="edge"><title>Node1&#45;&gt;Node5</title>
<path fill="none" stroke="midnightblue" d="M118.784,-95.6788C137.57,-90.3882 157.955,-84.6478 176.052,-79.5516"/>
<polygon fill="midnightblue" stroke="midnightblue" points="117.802,-92.3189 109.126,-98.3986 119.7,-99.0568 117.802,-92.3189"/>
</g>
<!-- Node6 -->
<g id="node6" class="node"><title>Node6</title>
<g id="a_node6"><a xlink:href="classscram_1_1gui_1_1EventDialog.xhtml#a355f7af9b2cef48f4e52ffc4a44cb020" target="_top" xlink:title="Sets up the dialog with element data. ">
<polygon fill="white" stroke="black" points="165.5,-0.5 165.5,-30.5 295.5,-30.5 295.5,-0.5 165.5,-0.5"/>
<text text-anchor="start" x="173.5" y="-18.5" font-family="Helvetica,sans-Serif" font-size="10.00">scram::gui::EventDialog</text>
<text text-anchor="middle" x="230.5" y="-7.5" font-family="Helvetica,sans-Serif" font-size="10.00">::setupData</text>
</a>
</g>
</g>
<!-- Node1&#45;&gt;Node6 -->
<g id="edge5" class="edge"><title>Node1&#45;&gt;Node6</title>
<path fill="none" stroke="midnightblue" d="M77.569,-91.2432C94.6606,-75.1255 119.631,-53.8994 145,-40.5 152.17,-36.7132 159.993,-33.4228 167.891,-30.5856"/>
<polygon fill="midnightblue" stroke="midnightblue" points="75.0747,-88.7861 70.2974,-98.2427 79.9292,-93.8293 75.0747,-88.7861"/>
</g>
</g>
</svg>
