<?xml version="1.0" encoding="UTF-8" standalone="no"?>
<!DOCTYPE svg PUBLIC "-//W3C//DTD SVG 1.1//EN"
 "http://www.w3.org/Graphics/SVG/1.1/DTD/svg11.dtd">
<!-- Generated by graphviz version 2.38.0 (20140413.2041)
 -->
<!-- Title: scram::gui::diagram::Event::getTypeGraphics Pages: 1 -->
<svg width="303pt" height="39pt"
 viewBox="0.00 0.00 303.00 39.00" xmlns="http://www.w3.org/2000/svg" xmlns:xlink="http://www.w3.org/1999/xlink">
<g id="graph0" class="graph" transform="scale(1 1) rotate(0) translate(4 35)">
<title>scram::gui::diagram::Event::getTypeGraphics</title>
<polygon fill="white" stroke="none" points="-4,4 -4,-35 299,-35 299,4 -4,4"/>
<!-- Node1 -->
<g id="node1" class="node"><title>Node1</title>
<polygon fill="#bfbfbf" stroke="black" points="0,-0.5 0,-30.5 134,-30.5 134,-0.5 0,-0.5"/>
<text text-anchor="start" x="8" y="-18.5" font-family="Helvetica,sans-Serif" font-size="10.00">scram::gui::diagram</text>
<text text-anchor="middle" x="67" y="-7.5" font-family="Helvetica,sans-Serif" font-size="10.00">::Event::getTypeGraphics</text>
</g>
<!-- Node2 -->
<g id="node2" class="node"><title>Node2</title>
<g id="a_node2"><a xlink:href="classscram_1_1gui_1_1diagram_1_1Gate.xhtml#a0d59d686a63ffaa23f6c121860354d4b" target="_top" xlink:title="Adds the transfer&#45;out symbol besides the gate shape. ">
<polygon fill="white" stroke="black" points="170,-0.5 170,-30.5 295,-30.5 295,-0.5 170,-0.5"/>
<text text-anchor="start" x="178" y="-18.5" font-family="Helvetica,sans-Serif" font-size="10.00">scram::gui::diagram</text>
<text text-anchor="middle" x="232.5" y="-7.5" font-family="Helvetica,sans-Serif" font-size="10.00">::Gate::addTransferOut</text>
</a>
</g>
</g>
<!-- Node1&#45;&gt;Node2 -->
<g id="edge1" class="edge"><title>Node1&#45;&gt;Node2</title>
<path fill="none" stroke="midnightblue" d="M144.137,-15.5C152.799,-15.5 161.545,-15.5 169.984,-15.5"/>
<polygon fill="midnightblue" stroke="midnightblue" points="144.03,-12.0001 134.03,-15.5 144.03,-19.0001 144.03,-12.0001"/>
</g>
</g>
</svg>
