<?xml version="1.0" encoding="UTF-8" standalone="no"?>
<!DOCTYPE svg PUBLIC "-//W3C//DTD SVG 1.1//EN"
 "http://www.w3.org/Graphics/SVG/1.1/DTD/svg11.dtd">
<!-- Generated by graphviz version 2.38.0 (20140413.2041)
 -->
<!-- Title: scram::gui::model::Element::labelChanged Pages: 1 -->
<svg width="863pt" height="388pt"
 viewBox="0.00 0.00 863.00 387.50" xmlns="http://www.w3.org/2000/svg" xmlns:xlink="http://www.w3.org/1999/xlink">
<g id="graph0" class="graph" transform="scale(1 1) rotate(0) translate(4 383.5)">
<title>scram::gui::model::Element::labelChanged</title>
<polygon fill="white" stroke="none" points="-4,4 -4,-383.5 859,-383.5 859,4 -4,4"/>
<!-- Node1 -->
<g id="node1" class="node"><title>Node1</title>
<polygon fill="#bfbfbf" stroke="black" points="0,-167 0,-197 128,-197 128,-167 0,-167"/>
<text text-anchor="start" x="8" y="-185" font-family="Helvetica,sans-Serif" font-size="10.00">scram::gui::model::</text>
<text text-anchor="middle" x="64" y="-174" font-family="Helvetica,sans-Serif" font-size="10.00">Element::labelChanged</text>
</g>
<!-- Node2 -->
<g id="node2" class="node"><title>Node2</title>
<g id="a_node2"><a xlink:href="classscram_1_1gui_1_1model_1_1ElementContainerModel.xhtml#a48973e3c3eb7a5323cf73c30f484d861" target="_top" xlink:title="Connects of the element change signals to the table modification. ">
<polygon fill="white" stroke="black" points="164.5,-240.5 164.5,-281.5 295.5,-281.5 295.5,-240.5 164.5,-240.5"/>
<text text-anchor="start" x="172.5" y="-269.5" font-family="Helvetica,sans-Serif" font-size="10.00">scram::gui::model::</text>
<text text-anchor="start" x="172.5" y="-258.5" font-family="Helvetica,sans-Serif" font-size="10.00">ElementContainerModel</text>
<text text-anchor="middle" x="230" y="-247.5" font-family="Helvetica,sans-Serif" font-size="10.00">::connectElement</text>
</a>
</g>
</g>
<!-- Node1&#45;&gt;Node2 -->
<g id="edge1" class="edge"><title>Node1&#45;&gt;Node2</title>
<path fill="none" stroke="midnightblue" d="M102.775,-201.614C121.149,-211.016 143.618,-222.313 164,-232 169.803,-234.758 175.931,-237.592 182.012,-240.358"/>
<polygon fill="midnightblue" stroke="midnightblue" points="104.338,-198.482 93.8432,-197.027 101.14,-204.709 104.338,-198.482"/>
</g>
<!-- Node13 -->
<g id="node13" class="node"><title>Node13</title>
<g id="a_node13"><a xlink:href="classscram_1_1gui_1_1diagram_1_1Event.xhtml#a4e59035f3b99fb4d8342a43db34144fa" target="_top" xlink:title="Assigns an event to a presentation view. ">
<polygon fill="white" stroke="black" points="173.5,-192 173.5,-222 286.5,-222 286.5,-192 173.5,-192"/>
<text text-anchor="start" x="181.5" y="-210" font-family="Helvetica,sans-Serif" font-size="10.00">scram::gui::diagram</text>
<text text-anchor="middle" x="230" y="-199" font-family="Helvetica,sans-Serif" font-size="10.00">::Event::Event</text>
</a>
</g>
</g>
<!-- Node1&#45;&gt;Node13 -->
<g id="edge17" class="edge"><title>Node1&#45;&gt;Node13</title>
<path fill="none" stroke="midnightblue" d="M138.561,-193.214C150.211,-194.989 162.09,-196.8 173.245,-198.501"/>
<polygon fill="midnightblue" stroke="midnightblue" points="138.82,-189.713 128.407,-191.666 137.765,-196.633 138.82,-189.713"/>
</g>
<!-- Node14 -->
<g id="node14" class="node"><title>Node14</title>
<g id="a_node14"><a xlink:href="classscram_1_1gui_1_1model_1_1Element_1_1SetLabel.xhtml#a3ef4cffa2ba4d8878da5784dc878dc89" target="_top" xlink:title="Applies changes. ">
<polygon fill="white" stroke="black" points="164,-143 164,-173 296,-173 296,-143 164,-143"/>
<text text-anchor="start" x="172" y="-161" font-family="Helvetica,sans-Serif" font-size="10.00">scram::gui::model::</text>
<text text-anchor="middle" x="230" y="-150" font-family="Helvetica,sans-Serif" font-size="10.00">Element::SetLabel::redo</text>
</a>
</g>
</g>
<!-- Node1&#45;&gt;Node14 -->
<g id="edge18" class="edge"><title>Node1&#45;&gt;Node14</title>
<path fill="none" stroke="midnightblue" d="M138.32,-171.27C146.833,-170.024 155.472,-168.76 163.865,-167.532"/>
<polygon fill="midnightblue" stroke="midnightblue" points="137.794,-167.81 128.407,-172.721 138.808,-174.736 137.794,-167.81"/>
</g>
<!-- Node15 -->
<g id="node15" class="node"><title>Node15</title>
<g id="a_node15"><a xlink:href="classscram_1_1gui_1_1model_1_1Element_1_1SetId.xhtml#a4399dee61e3f769bf47f30873fd5cd8a" target="_top" xlink:title="Applies the new name to the element. ">
<polygon fill="white" stroke="black" points="172.5,-94 172.5,-124 287.5,-124 287.5,-94 172.5,-94"/>
<text text-anchor="start" x="180.5" y="-112" font-family="Helvetica,sans-Serif" font-size="10.00">scram::gui::model::</text>
<text text-anchor="middle" x="230" y="-101" font-family="Helvetica,sans-Serif" font-size="10.00">Element::SetId::redo</text>
</a>
</g>
</g>
<!-- Node1&#45;&gt;Node15 -->
<g id="edge19" class="edge"><title>Node1&#45;&gt;Node15</title>
<path fill="none" stroke="midnightblue" d="M103.694,-162.303C121.839,-153.309 143.855,-142.739 164,-134 171.764,-130.632 180.142,-127.236 188.218,-124.08"/>
<polygon fill="midnightblue" stroke="midnightblue" points="101.975,-159.249 94.5887,-166.845 105.099,-165.513 101.975,-159.249"/>
</g>
<!-- Node3 -->
<g id="node3" class="node"><title>Node3</title>
<g id="a_node3"><a xlink:href="classscram_1_1gui_1_1model_1_1ElementContainerModel.xhtml#a057325384c34e69a890a8a409dea2d09" target="_top" xlink:title="scram::gui::model::\lElementContainerModel\l::getElementIndex">
<polygon fill="white" stroke="black" points="332,-240.5 332,-281.5 463,-281.5 463,-240.5 332,-240.5"/>
<text text-anchor="start" x="340" y="-269.5" font-family="Helvetica,sans-Serif" font-size="10.00">scram::gui::model::</text>
<text text-anchor="start" x="340" y="-258.5" font-family="Helvetica,sans-Serif" font-size="10.00">ElementContainerModel</text>
<text text-anchor="middle" x="397.5" y="-247.5" font-family="Helvetica,sans-Serif" font-size="10.00">::getElementIndex</text>
</a>
</g>
</g>
<!-- Node2&#45;&gt;Node3 -->
<g id="edge2" class="edge"><title>Node2&#45;&gt;Node3</title>
<path fill="none" stroke="midnightblue" d="M305.965,-254.277C314.573,-254.218 323.295,-254.257 331.752,-254.394"/>
<polygon fill="midnightblue" stroke="midnightblue" points="305.894,-250.777 295.935,-254.391 305.974,-257.777 305.894,-250.777"/>
</g>
<!-- Node4 -->
<g id="node4" class="node"><title>Node4</title>
<g id="a_node4"><a xlink:href="classscram_1_1gui_1_1model_1_1BasicEventContainerModel.xhtml#a44a7b2e19f453595a7b6650d5273b2db" target="_top" xlink:title="Required standard member functions of QAbstractItemModel interface. ">
<polygon fill="white" stroke="black" points="501.5,-349 501.5,-379 673.5,-379 673.5,-349 501.5,-349"/>
<text text-anchor="start" x="509.5" y="-367" font-family="Helvetica,sans-Serif" font-size="10.00">scram::gui::model::</text>
<text text-anchor="middle" x="587.5" y="-356" font-family="Helvetica,sans-Serif" font-size="10.00">BasicEventContainerModel::data</text>
</a>
</g>
</g>
<!-- Node2&#45;&gt;Node4 -->
<g id="edge10" class="edge"><title>Node2&#45;&gt;Node4</title>
<path fill="none" stroke="midnightblue" d="M273.847,-286.406C291.386,-295.908 312.185,-306.066 332,-313 386.868,-332.2 451.063,-345 501.252,-352.975"/>
<polygon fill="midnightblue" stroke="midnightblue" points="275.441,-283.288 264.995,-281.517 272.057,-289.416 275.441,-283.288"/>
</g>
<!-- Node5 -->
<g id="node5" class="node"><title>Node5</title>
<g id="a_node5"><a xlink:href="classscram_1_1gui_1_1model_1_1HouseEventContainerModel.xhtml#aa112416a8c25d3cf8f3c4e0fdcbdc069" target="_top" xlink:title="Required standard member functions of QAbstractItemModel interface. ">
<polygon fill="white" stroke="black" points="499,-300 499,-330 676,-330 676,-300 499,-300"/>
<text text-anchor="start" x="507" y="-318" font-family="Helvetica,sans-Serif" font-size="10.00">scram::gui::model::</text>
<text text-anchor="middle" x="587.5" y="-307" font-family="Helvetica,sans-Serif" font-size="10.00">HouseEventContainerModel::data</text>
</a>
</g>
</g>
<!-- Node2&#45;&gt;Node5 -->
<g id="edge11" class="edge"><title>Node2&#45;&gt;Node5</title>
<path fill="none" stroke="midnightblue" d="M303.223,-284.295C312.829,-286.85 322.604,-289.179 332,-291 386.898,-301.636 449.408,-307.617 498.738,-310.947"/>
<polygon fill="midnightblue" stroke="midnightblue" points="303.867,-280.843 293.297,-281.564 302.01,-287.592 303.867,-280.843"/>
</g>
<!-- Node6 -->
<g id="node6" class="node"><title>Node6</title>
<g id="a_node6"><a xlink:href="classscram_1_1gui_1_1model_1_1GateContainerModel.xhtml#a9cdee9017df030e4b41b29d5d8b895c9" target="_top" xlink:title="Constructs from the table of proxy Gates in the Model. ">
<polygon fill="white" stroke="black" points="527,-120.5 527,-161.5 648,-161.5 648,-120.5 527,-120.5"/>
<text text-anchor="start" x="535" y="-149.5" font-family="Helvetica,sans-Serif" font-size="10.00">scram::gui::model::</text>
<text text-anchor="start" x="535" y="-138.5" font-family="Helvetica,sans-Serif" font-size="10.00">GateContainerModel::</text>
<text text-anchor="middle" x="587.5" y="-127.5" font-family="Helvetica,sans-Serif" font-size="10.00">GateContainerModel</text>
</a>
</g>
</g>
<!-- Node2&#45;&gt;Node6 -->
<g id="edge12" class="edge"><title>Node2&#45;&gt;Node6</title>
<path fill="none" stroke="midnightblue" d="M301.596,-237.17C367.468,-214.935 464.664,-182.126 526.777,-161.16"/>
<polygon fill="midnightblue" stroke="midnightblue" points="300.468,-233.857 292.113,-240.371 302.707,-240.489 300.468,-233.857"/>
</g>
<!-- Node10 -->
<g id="node10" class="node"><title>Node10</title>
<g id="a_node10"><a xlink:href="classscram_1_1gui_1_1model_1_1ElementContainerModel.xhtml#af97ae0b24134a7c2fd8da6e2fdd3b042" target="_top" xlink:title="scram::gui::model::\lElementContainerModel\l::elements">
<polygon fill="white" stroke="black" points="332,-83.5 332,-124.5 463,-124.5 463,-83.5 332,-83.5"/>
<text text-anchor="start" x="340" y="-112.5" font-family="Helvetica,sans-Serif" font-size="10.00">scram::gui::model::</text>
<text text-anchor="start" x="340" y="-101.5" font-family="Helvetica,sans-Serif" font-size="10.00">ElementContainerModel</text>
<text text-anchor="middle" x="397.5" y="-90.5" font-family="Helvetica,sans-Serif" font-size="10.00">::elements</text>
</a>
</g>
</g>
<!-- Node2&#45;&gt;Node10 -->
<g id="edge13" class="edge"><title>Node2&#45;&gt;Node10</title>
<path fill="none" stroke="midnightblue" d="M293.508,-234.24C294.361,-233.511 295.192,-232.764 296,-232 321.413,-207.956 310.642,-189.708 332,-162 342.665,-148.164 356.908,-134.959 369.297,-124.653"/>
<polygon fill="midnightblue" stroke="midnightblue" points="291.266,-231.546 285.346,-240.333 295.453,-237.156 291.266,-231.546"/>
</g>
<!-- Node3&#45;&gt;Node2 -->
<g id="edge3" class="edge"><title>Node3&#45;&gt;Node2</title>
<path fill="none" stroke="midnightblue" d="M321.725,-267.722C313.119,-267.783 304.397,-267.745 295.935,-267.609"/>
<polygon fill="midnightblue" stroke="midnightblue" points="321.794,-271.222 331.752,-267.606 321.712,-264.222 321.794,-271.222"/>
</g>
<!-- Node3&#45;&gt;Node4 -->
<g id="edge4" class="edge"><title>Node3&#45;&gt;Node4</title>
<path fill="none" stroke="midnightblue" d="M426.925,-288.424C445.968,-305.447 472.351,-326.565 499,-340 505.752,-343.404 513.047,-346.375 520.446,-348.956"/>
<polygon fill="midnightblue" stroke="midnightblue" points="429.24,-285.798 419.491,-281.652 424.526,-290.973 429.24,-285.798"/>
</g>
<!-- Node3&#45;&gt;Node5 -->
<g id="edge5" class="edge"><title>Node3&#45;&gt;Node5</title>
<path fill="none" stroke="midnightblue" d="M472.912,-283.415C481.697,-286.002 490.542,-288.578 499,-291 509.298,-293.949 520.298,-297.024 530.902,-299.951"/>
<polygon fill="midnightblue" stroke="midnightblue" points="473.625,-279.976 463.043,-280.499 471.641,-286.69 473.625,-279.976"/>
</g>
<!-- Node3&#45;&gt;Node6 -->
<g id="edge6" class="edge"><title>Node3&#45;&gt;Node6</title>
<path fill="none" stroke="midnightblue" d="M424.131,-232.68C443.165,-213.08 470.639,-187.629 499,-171 507.589,-165.964 517.15,-161.608 526.708,-157.897"/>
<polygon fill="midnightblue" stroke="midnightblue" points="421.384,-230.489 417.015,-240.141 426.45,-235.32 421.384,-230.489"/>
</g>
<!-- Node7 -->
<g id="node7" class="node"><title>Node7</title>
<g id="a_node7"><a xlink:href="classscram_1_1gui_1_1model_1_1GateContainerModel.xhtml#af26e5332d8f7a5df266b95aa965c147f" target="_top" xlink:title="The index for children embeds the parent information into the data. ">
<polygon fill="white" stroke="black" points="527,-180.5 527,-221.5 648,-221.5 648,-180.5 527,-180.5"/>
<text text-anchor="start" x="535" y="-209.5" font-family="Helvetica,sans-Serif" font-size="10.00">scram::gui::model::</text>
<text text-anchor="start" x="535" y="-198.5" font-family="Helvetica,sans-Serif" font-size="10.00">GateContainerModel::</text>
<text text-anchor="middle" x="587.5" y="-187.5" font-family="Helvetica,sans-Serif" font-size="10.00">parent</text>
</a>
</g>
</g>
<!-- Node3&#45;&gt;Node7 -->
<g id="edge7" class="edge"><title>Node3&#45;&gt;Node7</title>
<path fill="none" stroke="midnightblue" d="M472.791,-237.29C490.747,-231.56 509.707,-225.508 526.89,-220.024"/>
<polygon fill="midnightblue" stroke="midnightblue" points="471.398,-234.061 462.936,-240.435 473.527,-240.729 471.398,-234.061"/>
</g>
<!-- Node9 -->
<g id="node9" class="node"><title>Node9</title>
<g id="a_node9"><a xlink:href="classscram_1_1gui_1_1model_1_1ElementContainerModel.xhtml#ab0b11ddc9cea4fe7494dcb8df120396b" target="_top" xlink:title="Assumes the table&#45;layout and returns null index. ">
<polygon fill="white" stroke="black" points="522,-240.5 522,-281.5 653,-281.5 653,-240.5 522,-240.5"/>
<text text-anchor="start" x="530" y="-269.5" font-family="Helvetica,sans-Serif" font-size="10.00">scram::gui::model::</text>
<text text-anchor="start" x="530" y="-258.5" font-family="Helvetica,sans-Serif" font-size="10.00">ElementContainerModel</text>
<text text-anchor="middle" x="587.5" y="-247.5" font-family="Helvetica,sans-Serif" font-size="10.00">::parent</text>
</a>
</g>
</g>
<!-- Node3&#45;&gt;Node9 -->
<g id="edge9" class="edge"><title>Node3&#45;&gt;Node9</title>
<path fill="none" stroke="midnightblue" d="M473.54,-261C489.474,-261 506.167,-261 521.682,-261"/>
<polygon fill="midnightblue" stroke="midnightblue" points="473.199,-257.5 463.199,-261 473.199,-264.5 473.199,-257.5"/>
</g>
<!-- Node8 -->
<g id="node8" class="node"><title>Node8</title>
<g id="a_node8"><a xlink:href="classscram_1_1gui_1_1model_1_1GateContainerModel.xhtml#a191036bcdd39eae7889c99ac42208fd6" target="_top" xlink:title="The index for children embeds the parent information into the data. ">
<polygon fill="white" stroke="black" points="712,-186 712,-216 855,-216 855,-186 712,-186"/>
<text text-anchor="start" x="720" y="-204" font-family="Helvetica,sans-Serif" font-size="10.00">scram::gui::model::</text>
<text text-anchor="middle" x="783.5" y="-193" font-family="Helvetica,sans-Serif" font-size="10.00">GateContainerModel::data</text>
</a>
</g>
</g>
<!-- Node7&#45;&gt;Node8 -->
<g id="edge8" class="edge"><title>Node7&#45;&gt;Node8</title>
<path fill="none" stroke="midnightblue" d="M658.134,-201C675.59,-201 694.332,-201 711.837,-201"/>
<polygon fill="midnightblue" stroke="midnightblue" points="658.025,-197.5 648.025,-201 658.025,-204.5 658.025,-197.5"/>
</g>
<!-- Node10&#45;&gt;Node6 -->
<g id="edge16" class="edge"><title>Node10&#45;&gt;Node6</title>
<path fill="none" stroke="midnightblue" d="M473.489,-118.759C491.185,-122.241 509.818,-125.908 526.737,-129.238"/>
<polygon fill="midnightblue" stroke="midnightblue" points="473.687,-115.23 463.199,-116.733 472.335,-122.099 473.687,-115.23"/>
</g>
<!-- Node11 -->
<g id="node11" class="node"><title>Node11</title>
<g id="a_node11"><a xlink:href="classscram_1_1gui_1_1model_1_1BasicEventContainerModel.xhtml#a64a95b2368b017f25fc06fd78d0a7f33" target="_top" xlink:title="Constructs from the table of proxy Basic Events in the Model. ">
<polygon fill="white" stroke="black" points="512.5,-0.5 512.5,-41.5 662.5,-41.5 662.5,-0.5 512.5,-0.5"/>
<text text-anchor="start" x="520.5" y="-29.5" font-family="Helvetica,sans-Serif" font-size="10.00">scram::gui::model::</text>
<text text-anchor="start" x="520.5" y="-18.5" font-family="Helvetica,sans-Serif" font-size="10.00">BasicEventContainerModel</text>
<text text-anchor="middle" x="587.5" y="-7.5" font-family="Helvetica,sans-Serif" font-size="10.00">::BasicEventContainerModel</text>
</a>
</g>
</g>
<!-- Node10&#45;&gt;Node11 -->
<g id="edge14" class="edge"><title>Node10&#45;&gt;Node11</title>
<path fill="none" stroke="midnightblue" d="M443.329,-78.4525C460.461,-69.1987 480.36,-59.0527 499,-51 506.518,-47.7519 514.514,-44.6073 522.498,-41.6539"/>
<polygon fill="midnightblue" stroke="midnightblue" points="441.22,-75.6168 434.122,-83.4828 444.576,-81.7598 441.22,-75.6168"/>
</g>
<!-- Node12 -->
<g id="node12" class="node"><title>Node12</title>
<g id="a_node12"><a xlink:href="classscram_1_1gui_1_1model_1_1HouseEventContainerModel.xhtml#a1687ef3e47c335b5b3a52e21ba0e7dd2" target="_top" xlink:title="Constructs from the table of proxy House Events in the Model. ">
<polygon fill="white" stroke="black" points="510,-60.5 510,-101.5 665,-101.5 665,-60.5 510,-60.5"/>
<text text-anchor="start" x="518" y="-89.5" font-family="Helvetica,sans-Serif" font-size="10.00">scram::gui::model::</text>
<text text-anchor="start" x="518" y="-78.5" font-family="Helvetica,sans-Serif" font-size="10.00">HouseEventContainerModel</text>
<text text-anchor="middle" x="587.5" y="-67.5" font-family="Helvetica,sans-Serif" font-size="10.00">::HouseEventContainerModel</text>
</a>
</g>
</g>
<!-- Node10&#45;&gt;Node12 -->
<g id="edge15" class="edge"><title>Node10&#45;&gt;Node12</title>
<path fill="none" stroke="midnightblue" d="M473.167,-94.8652C485.179,-93.3957 497.631,-91.8723 509.692,-90.3967"/>
<polygon fill="midnightblue" stroke="midnightblue" points="472.7,-91.3962 463.199,-96.0847 473.55,-98.3444 472.7,-91.3962"/>
</g>
</g>
</svg>
