<?xml version="1.0" encoding="UTF-8" standalone="no"?>
<!DOCTYPE svg PUBLIC "-//W3C//DTD SVG 1.1//EN"
 "http://www.w3.org/Graphics/SVG/1.1/DTD/svg11.dtd">
<!-- Generated by graphviz version 2.38.0 (20140413.2041)
 -->
<!-- Title: scram::gui::Involution Pages: 1 -->
<svg width="945pt" height="276pt"
 viewBox="0.00 0.00 945.00 276.00" xmlns="http://www.w3.org/2000/svg" xmlns:xlink="http://www.w3.org/1999/xlink">
<g id="graph0" class="graph" transform="scale(1 1) rotate(0) translate(4 272)">
<title>scram::gui::Involution</title>
<polygon fill="white" stroke="none" points="-4,4 -4,-272 941,-272 941,4 -4,4"/>
<!-- Node1 -->
<g id="node1" class="node"><title>Node1</title>
<polygon fill="#bfbfbf" stroke="black" points="428,-116.5 428,-173.5 547,-173.5 547,-116.5 428,-116.5"/>
<text text-anchor="middle" x="487.5" y="-161.5" font-family="Helvetica,sans-Serif" font-size="10.00">scram::gui::Involution</text>
<polyline fill="none" stroke="black" points="428,-154.5 547,-154.5 "/>
<text text-anchor="middle" x="487.5" y="-142.5" font-family="Helvetica,sans-Serif" font-size="10.00"> </text>
<polyline fill="none" stroke="black" points="428,-135.5 547,-135.5 "/>
<text text-anchor="start" x="436" y="-123.5" font-family="Helvetica,sans-Serif" font-size="10.00">+ undo()</text>
</g>
<!-- Node3 -->
<g id="node3" class="node"><title>Node3</title>
<g id="a_node3"><a xlink:href="classscram_1_1gui_1_1model_1_1BasicEvent_1_1SetExpression.xhtml" target="_top" xlink:title="Sets the basic event expression. ">
<polygon fill="white" stroke="black" points="0,-0.5 0,-79.5 143,-79.5 143,-0.5 0,-0.5"/>
<text text-anchor="start" x="8" y="-67.5" font-family="Helvetica,sans-Serif" font-size="10.00">scram::gui::model::</text>
<text text-anchor="middle" x="71.5" y="-56.5" font-family="Helvetica,sans-Serif" font-size="10.00">BasicEvent::SetExpression</text>
<polyline fill="none" stroke="black" points="0,-49.5 143,-49.5 "/>
<text text-anchor="middle" x="71.5" y="-37.5" font-family="Helvetica,sans-Serif" font-size="10.00"> </text>
<polyline fill="none" stroke="black" points="0,-30.5 143,-30.5 "/>
<text text-anchor="start" x="8" y="-18.5" font-family="Helvetica,sans-Serif" font-size="10.00">+ SetExpression()</text>
<text text-anchor="start" x="8" y="-7.5" font-family="Helvetica,sans-Serif" font-size="10.00">+ redo()</text>
</a>
</g>
</g>
<!-- Node1&#45;&gt;Node3 -->
<g id="edge2" class="edge"><title>Node1&#45;&gt;Node3</title>
<path fill="none" stroke="midnightblue" d="M417.658,-136.038C348.95,-126.96 241.684,-109.431 152.5,-80 149.387,-78.9729 146.241,-77.8518 143.086,-76.6592"/>
<polygon fill="none" stroke="midnightblue" points="417.56,-139.554 427.927,-137.37 418.46,-132.613 417.56,-139.554"/>
</g>
<!-- Node4 -->
<g id="node4" class="node"><title>Node4</title>
<g id="a_node4"><a xlink:href="classscram_1_1gui_1_1model_1_1BasicEvent_1_1SetFlavor.xhtml" target="_top" xlink:title="Sets the flavor of the basic event. ">
<polygon fill="white" stroke="black" points="161.5,-0.5 161.5,-79.5 281.5,-79.5 281.5,-0.5 161.5,-0.5"/>
<text text-anchor="start" x="169.5" y="-67.5" font-family="Helvetica,sans-Serif" font-size="10.00">scram::gui::model::</text>
<text text-anchor="middle" x="221.5" y="-56.5" font-family="Helvetica,sans-Serif" font-size="10.00">BasicEvent::SetFlavor</text>
<polyline fill="none" stroke="black" points="161.5,-49.5 281.5,-49.5 "/>
<text text-anchor="middle" x="221.5" y="-37.5" font-family="Helvetica,sans-Serif" font-size="10.00"> </text>
<polyline fill="none" stroke="black" points="161.5,-30.5 281.5,-30.5 "/>
<text text-anchor="start" x="169.5" y="-18.5" font-family="Helvetica,sans-Serif" font-size="10.00">+ SetFlavor()</text>
<text text-anchor="start" x="169.5" y="-7.5" font-family="Helvetica,sans-Serif" font-size="10.00">+ redo()</text>
</a>
</g>
</g>
<!-- Node1&#45;&gt;Node4 -->
<g id="edge3" class="edge"><title>Node1&#45;&gt;Node4</title>
<path fill="none" stroke="midnightblue" d="M417.719,-125.047C379.462,-113.738 331.597,-98.0718 290.5,-80 287.603,-78.726 284.669,-77.3662 281.729,-75.9462"/>
<polygon fill="none" stroke="midnightblue" points="417.153,-128.528 427.734,-127.973 419.117,-121.809 417.153,-128.528"/>
</g>
<!-- Node5 -->
<g id="node5" class="node"><title>Node5</title>
<g id="a_node5"><a xlink:href="classscram_1_1gui_1_1model_1_1Element_1_1SetId.xhtml" target="_top" xlink:title="Sets the name of an Element. ">
<polygon fill="white" stroke="black" points="300,-0.5 300,-79.5 415,-79.5 415,-0.5 300,-0.5"/>
<text text-anchor="start" x="308" y="-67.5" font-family="Helvetica,sans-Serif" font-size="10.00">scram::gui::model::</text>
<text text-anchor="middle" x="357.5" y="-56.5" font-family="Helvetica,sans-Serif" font-size="10.00">Element::SetId&lt; T &gt;</text>
<polyline fill="none" stroke="black" points="300,-49.5 415,-49.5 "/>
<text text-anchor="middle" x="357.5" y="-37.5" font-family="Helvetica,sans-Serif" font-size="10.00"> </text>
<polyline fill="none" stroke="black" points="300,-30.5 415,-30.5 "/>
<text text-anchor="start" x="308" y="-18.5" font-family="Helvetica,sans-Serif" font-size="10.00">+ SetId()</text>
<text text-anchor="start" x="308" y="-7.5" font-family="Helvetica,sans-Serif" font-size="10.00">+ redo()</text>
</a>
</g>
</g>
<!-- Node1&#45;&gt;Node5 -->
<g id="edge4" class="edge"><title>Node1&#45;&gt;Node5</title>
<path fill="none" stroke="midnightblue" d="M444.739,-110.12C432.382,-100.329 418.805,-89.5721 406.118,-79.5205"/>
<polygon fill="none" stroke="midnightblue" points="442.651,-112.931 452.662,-116.398 446.998,-107.444 442.651,-112.931"/>
</g>
<!-- Node6 -->
<g id="node6" class="node"><title>Node6</title>
<g id="a_node6"><a xlink:href="classscram_1_1gui_1_1model_1_1Element_1_1SetLabel.xhtml" target="_top" xlink:title="Sets the label of an Element. ">
<polygon fill="white" stroke="black" points="433,-0.5 433,-79.5 542,-79.5 542,-0.5 433,-0.5"/>
<text text-anchor="start" x="441" y="-67.5" font-family="Helvetica,sans-Serif" font-size="10.00">scram::gui::model::</text>
<text text-anchor="middle" x="487.5" y="-56.5" font-family="Helvetica,sans-Serif" font-size="10.00">Element::SetLabel</text>
<polyline fill="none" stroke="black" points="433,-49.5 542,-49.5 "/>
<text text-anchor="middle" x="487.5" y="-37.5" font-family="Helvetica,sans-Serif" font-size="10.00"> </text>
<polyline fill="none" stroke="black" points="433,-30.5 542,-30.5 "/>
<text text-anchor="start" x="441" y="-18.5" font-family="Helvetica,sans-Serif" font-size="10.00">+ SetLabel()</text>
<text text-anchor="start" x="441" y="-7.5" font-family="Helvetica,sans-Serif" font-size="10.00">+ redo()</text>
</a>
</g>
</g>
<!-- Node1&#45;&gt;Node6 -->
<g id="edge5" class="edge"><title>Node1&#45;&gt;Node6</title>
<path fill="none" stroke="midnightblue" d="M487.5,-106.156C487.5,-97.4733 487.5,-88.2318 487.5,-79.5205"/>
<polygon fill="none" stroke="midnightblue" points="484,-106.398 487.5,-116.398 491,-106.398 484,-106.398"/>
</g>
<!-- Node7 -->
<g id="node7" class="node"><title>Node7</title>
<g id="a_node7"><a xlink:href="classscram_1_1gui_1_1model_1_1Gate_1_1SetFormula.xhtml" target="_top" xlink:title="Formula modification commands. ">
<polygon fill="white" stroke="black" points="560,-0.5 560,-79.5 669,-79.5 669,-0.5 560,-0.5"/>
<text text-anchor="start" x="568" y="-67.5" font-family="Helvetica,sans-Serif" font-size="10.00">scram::gui::model::</text>
<text text-anchor="middle" x="614.5" y="-56.5" font-family="Helvetica,sans-Serif" font-size="10.00">Gate::SetFormula</text>
<polyline fill="none" stroke="black" points="560,-49.5 669,-49.5 "/>
<text text-anchor="middle" x="614.5" y="-37.5" font-family="Helvetica,sans-Serif" font-size="10.00"> </text>
<polyline fill="none" stroke="black" points="560,-30.5 669,-30.5 "/>
<text text-anchor="start" x="568" y="-18.5" font-family="Helvetica,sans-Serif" font-size="10.00">+ SetFormula()</text>
<text text-anchor="start" x="568" y="-7.5" font-family="Helvetica,sans-Serif" font-size="10.00">+ redo()</text>
</a>
</g>
</g>
<!-- Node1&#45;&gt;Node7 -->
<g id="edge6" class="edge"><title>Node1&#45;&gt;Node7</title>
<path fill="none" stroke="midnightblue" d="M529.619,-109.84C541.599,-100.124 554.728,-89.4763 567.004,-79.5205"/>
<polygon fill="none" stroke="midnightblue" points="527.096,-107.38 521.534,-116.398 531.505,-112.817 527.096,-107.38"/>
</g>
<!-- Node8 -->
<g id="node8" class="node"><title>Node8</title>
<g id="a_node8"><a xlink:href="classscram_1_1gui_1_1model_1_1HouseEvent_1_1SetState.xhtml" target="_top" xlink:title="Flips the house event state. ">
<polygon fill="white" stroke="black" points="687,-0.5 687,-79.5 810,-79.5 810,-0.5 687,-0.5"/>
<text text-anchor="start" x="695" y="-67.5" font-family="Helvetica,sans-Serif" font-size="10.00">scram::gui::model::</text>
<text text-anchor="middle" x="748.5" y="-56.5" font-family="Helvetica,sans-Serif" font-size="10.00">HouseEvent::SetState</text>
<polyline fill="none" stroke="black" points="687,-49.5 810,-49.5 "/>
<text text-anchor="middle" x="748.5" y="-37.5" font-family="Helvetica,sans-Serif" font-size="10.00"> </text>
<polyline fill="none" stroke="black" points="687,-30.5 810,-30.5 "/>
<text text-anchor="start" x="695" y="-18.5" font-family="Helvetica,sans-Serif" font-size="10.00">+ SetState()</text>
<text text-anchor="start" x="695" y="-7.5" font-family="Helvetica,sans-Serif" font-size="10.00">+ redo()</text>
</a>
</g>
</g>
<!-- Node1&#45;&gt;Node8 -->
<g id="edge7" class="edge"><title>Node1&#45;&gt;Node8</title>
<path fill="none" stroke="midnightblue" d="M556.723,-124.198C593.515,-112.831 639.148,-97.3765 678.5,-80 681.3,-78.7637 684.135,-77.4519 686.98,-76.0867"/>
<polygon fill="none" stroke="midnightblue" points="555.621,-120.874 547.082,-127.146 557.668,-127.568 555.621,-120.874"/>
</g>
<!-- Node9 -->
<g id="node9" class="node"><title>Node9</title>
<g id="a_node9"><a xlink:href="classscram_1_1gui_1_1model_1_1Model_1_1SetName.xhtml" target="_top" xlink:title="Sets the optional name of the model. ">
<polygon fill="white" stroke="black" points="828,-0.5 828,-79.5 937,-79.5 937,-0.5 828,-0.5"/>
<text text-anchor="start" x="836" y="-67.5" font-family="Helvetica,sans-Serif" font-size="10.00">scram::gui::model::</text>
<text text-anchor="middle" x="882.5" y="-56.5" font-family="Helvetica,sans-Serif" font-size="10.00">Model::SetName</text>
<polyline fill="none" stroke="black" points="828,-49.5 937,-49.5 "/>
<text text-anchor="middle" x="882.5" y="-37.5" font-family="Helvetica,sans-Serif" font-size="10.00"> </text>
<polyline fill="none" stroke="black" points="828,-30.5 937,-30.5 "/>
<text text-anchor="start" x="836" y="-18.5" font-family="Helvetica,sans-Serif" font-size="10.00">+ SetName()</text>
<text text-anchor="start" x="836" y="-7.5" font-family="Helvetica,sans-Serif" font-size="10.00">+ redo()</text>
</a>
</g>
</g>
<!-- Node1&#45;&gt;Node9 -->
<g id="edge8" class="edge"><title>Node1&#45;&gt;Node9</title>
<path fill="none" stroke="midnightblue" d="M557.438,-137.967C626.074,-130.34 732.778,-113.873 819.5,-80 822.256,-78.9236 825.025,-77.7258 827.783,-76.4371"/>
<polygon fill="none" stroke="midnightblue" points="556.744,-134.521 547.177,-139.073 557.494,-141.481 556.744,-134.521"/>
</g>
<!-- Node2 -->
<g id="node2" class="node"><title>Node2</title>
<polygon fill="white" stroke="#bfbfbf" points="437.5,-210.5 437.5,-267.5 537.5,-267.5 537.5,-210.5 437.5,-210.5"/>
<text text-anchor="middle" x="487.5" y="-255.5" font-family="Helvetica,sans-Serif" font-size="10.00">QUndoCommand</text>
<polyline fill="none" stroke="#bfbfbf" points="437.5,-248.5 537.5,-248.5 "/>
<text text-anchor="middle" x="487.5" y="-236.5" font-family="Helvetica,sans-Serif" font-size="10.00"> </text>
<polyline fill="none" stroke="#bfbfbf" points="437.5,-229.5 537.5,-229.5 "/>
<text text-anchor="middle" x="487.5" y="-217.5" font-family="Helvetica,sans-Serif" font-size="10.00"> </text>
</g>
<!-- Node2&#45;&gt;Node1 -->
<g id="edge1" class="edge"><title>Node2&#45;&gt;Node1</title>
<path fill="none" stroke="midnightblue" d="M487.5,-200.209C487.5,-191.293 487.5,-181.951 487.5,-173.584"/>
<polygon fill="none" stroke="midnightblue" points="484,-200.397 487.5,-210.397 491,-200.397 484,-200.397"/>
</g>
</g>
</svg>
