<?xml version="1.0" encoding="UTF-8" standalone="no"?>
<!DOCTYPE svg PUBLIC "-//W3C//DTD SVG 1.1//EN"
 "http://www.w3.org/Graphics/SVG/1.1/DTD/svg11.dtd">
<!-- Generated by graphviz version 2.38.0 (20140413.2041)
 -->
<!-- Title: scram::gui::diagram::Gate Pages: 1 -->
<svg width="145pt" height="463pt"
 viewBox="0.00 0.00 145.00 463.00" xmlns="http://www.w3.org/2000/svg" xmlns:xlink="http://www.w3.org/1999/xlink">
<g id="graph0" class="graph" transform="scale(1 1) rotate(0) translate(4 459)">
<title>scram::gui::diagram::Gate</title>
<polygon fill="white" stroke="none" points="-4,4 -4,-459 141,-459 141,4 -4,4"/>
<!-- Node1 -->
<g id="node1" class="node"><title>Node1</title>
<polygon fill="#bfbfbf" stroke="black" points="0,-0.5 0,-101.5 137,-101.5 137,-0.5 0,-0.5"/>
<text text-anchor="start" x="8" y="-89.5" font-family="Helvetica,sans-Serif" font-size="10.00">scram::gui::diagram</text>
<text text-anchor="middle" x="68.5" y="-78.5" font-family="Helvetica,sans-Serif" font-size="10.00">::Gate</text>
<polyline fill="none" stroke="black" points="0,-71.5 137,-71.5 "/>
<text text-anchor="middle" x="68.5" y="-59.5" font-family="Helvetica,sans-Serif" font-size="10.00"> </text>
<polyline fill="none" stroke="black" points="0,-52.5 137,-52.5 "/>
<text text-anchor="start" x="8" y="-40.5" font-family="Helvetica,sans-Serif" font-size="10.00">+ Gate()</text>
<text text-anchor="start" x="8" y="-29.5" font-family="Helvetica,sans-Serif" font-size="10.00">+ getGateGraphicsType()</text>
<text text-anchor="start" x="8" y="-18.5" font-family="Helvetica,sans-Serif" font-size="10.00">+ width()</text>
<text text-anchor="start" x="8" y="-7.5" font-family="Helvetica,sans-Serif" font-size="10.00">+ addTransferOut()</text>
</g>
<!-- Node2 -->
<g id="node2" class="node"><title>Node2</title>
<g id="a_node2"><a xlink:href="classscram_1_1gui_1_1diagram_1_1Event.xhtml" target="_top" xlink:title="The base class for probabilistic events in a fault tree. ">
<polygon fill="white" stroke="black" points="11,-138.5 11,-360.5 126,-360.5 126,-138.5 11,-138.5"/>
<text text-anchor="start" x="19" y="-348.5" font-family="Helvetica,sans-Serif" font-size="10.00">scram::gui::diagram</text>
<text text-anchor="middle" x="68.5" y="-337.5" font-family="Helvetica,sans-Serif" font-size="10.00">::Event</text>
<polyline fill="none" stroke="black" points="11,-330.5 126,-330.5 "/>
<text text-anchor="start" x="19" y="-318.5" font-family="Helvetica,sans-Serif" font-size="10.00"># m_event</text>
<text text-anchor="start" x="19" y="-307.5" font-family="Helvetica,sans-Serif" font-size="10.00"># m_size</text>
<text text-anchor="start" x="19" y="-296.5" font-family="Helvetica,sans-Serif" font-size="10.00"># m_baseHeight</text>
<text text-anchor="start" x="19" y="-285.5" font-family="Helvetica,sans-Serif" font-size="10.00"># m_idBoxLength</text>
<text text-anchor="start" x="19" y="-274.5" font-family="Helvetica,sans-Serif" font-size="10.00"># m_labelBoxHeight</text>
<polyline fill="none" stroke="black" points="11,-267.5 126,-267.5 "/>
<text text-anchor="start" x="19" y="-255.5" font-family="Helvetica,sans-Serif" font-size="10.00">+ ~Event()</text>
<text text-anchor="start" x="19" y="-244.5" font-family="Helvetica,sans-Serif" font-size="10.00">+ width()</text>
<text text-anchor="start" x="19" y="-233.5" font-family="Helvetica,sans-Serif" font-size="10.00">+ data()</text>
<text text-anchor="start" x="19" y="-222.5" font-family="Helvetica,sans-Serif" font-size="10.00">+ boundingRect()</text>
<text text-anchor="start" x="19" y="-211.5" font-family="Helvetica,sans-Serif" font-size="10.00">+ paint()</text>
<text text-anchor="start" x="19" y="-200.5" font-family="Helvetica,sans-Serif" font-size="10.00"># Event()</text>
<text text-anchor="start" x="19" y="-189.5" font-family="Helvetica,sans-Serif" font-size="10.00"># getTypeGraphics()</text>
<text text-anchor="start" x="19" y="-178.5" font-family="Helvetica,sans-Serif" font-size="10.00"># setTypeGraphics()</text>
<text text-anchor="start" x="19" y="-167.5" font-family="Helvetica,sans-Serif" font-size="10.00"># units()</text>
<text text-anchor="start" x="19" y="-156.5" font-family="Helvetica,sans-Serif" font-size="10.00">* boundingRect()</text>
<text text-anchor="start" x="19" y="-145.5" font-family="Helvetica,sans-Serif" font-size="10.00">* paint()</text>
</a>
</g>
</g>
<!-- Node2&#45;&gt;Node1 -->
<g id="edge1" class="edge"><title>Node2&#45;&gt;Node1</title>
<path fill="none" stroke="midnightblue" d="M68.5,-128.345C68.5,-119.093 68.5,-110.115 68.5,-101.761"/>
<polygon fill="none" stroke="midnightblue" points="65.0001,-128.474 68.5,-138.474 72.0001,-128.474 65.0001,-128.474"/>
</g>
<!-- Node3 -->
<g id="node3" class="node"><title>Node3</title>
<polygon fill="white" stroke="#bfbfbf" points="24.5,-397.5 24.5,-454.5 112.5,-454.5 112.5,-397.5 24.5,-397.5"/>
<text text-anchor="middle" x="68.5" y="-442.5" font-family="Helvetica,sans-Serif" font-size="10.00">QGraphicsItem</text>
<polyline fill="none" stroke="#bfbfbf" points="24.5,-435.5 112.5,-435.5 "/>
<text text-anchor="middle" x="68.5" y="-423.5" font-family="Helvetica,sans-Serif" font-size="10.00"> </text>
<polyline fill="none" stroke="#bfbfbf" points="24.5,-416.5 112.5,-416.5 "/>
<text text-anchor="middle" x="68.5" y="-404.5" font-family="Helvetica,sans-Serif" font-size="10.00"> </text>
</g>
<!-- Node3&#45;&gt;Node2 -->
<g id="edge2" class="edge"><title>Node3&#45;&gt;Node2</title>
<path fill="none" stroke="midnightblue" d="M68.5,-387.203C68.5,-379.081 68.5,-370.104 68.5,-360.748"/>
<polygon fill="none" stroke="midnightblue" points="65.0001,-387.35 68.5,-397.35 72.0001,-387.35 65.0001,-387.35"/>
</g>
</g>
</svg>
