<?xml version="1.0" encoding="UTF-8" standalone="no"?>
<!DOCTYPE svg PUBLIC "-//W3C//DTD SVG 1.1//EN"
 "http://www.w3.org/Graphics/SVG/1.1/DTD/svg11.dtd">
<!-- Generated by graphviz version 2.38.0 (20140413.2041)
 -->
<!-- Title: scram::gui::MainWindow::extract Pages: 1 -->
<svg width="637pt" height="103pt"
 viewBox="0.00 0.00 637.00 103.19" xmlns="http://www.w3.org/2000/svg" xmlns:xlink="http://www.w3.org/1999/xlink">
<g id="graph0" class="graph" transform="scale(1 1) rotate(0) translate(4 99.1877)">
<title>scram::gui::MainWindow::extract</title>
<polygon fill="white" stroke="none" points="-4,4 -4,-99.1877 633,-99.1877 633,4 -4,4"/>
<!-- Node1 -->
<g id="node1" class="node"><title>Node1</title>
<polygon fill="#bfbfbf" stroke="black" points="0,-49.5 0,-79.5 131,-79.5 131,-49.5 0,-49.5"/>
<text text-anchor="start" x="8" y="-67.5" font-family="Helvetica,sans-Serif" font-size="10.00">scram::gui::MainWindow</text>
<text text-anchor="middle" x="65.5" y="-56.5" font-family="Helvetica,sans-Serif" font-size="10.00">::extract</text>
</g>
<!-- Node2 -->
<g id="node2" class="node"><title>Node2</title>
<g id="a_node2"><a xlink:href="classscram_1_1gui_1_1EventDialog.xhtml#a3f52697e4e16187eb133aa1d59d249e8" target="_top" xlink:title="scram::gui::EventDialog\l::arguments">
<polygon fill="white" stroke="black" points="333,-46.5 333,-76.5 463,-76.5 463,-46.5 333,-46.5"/>
<text text-anchor="start" x="341" y="-64.5" font-family="Helvetica,sans-Serif" font-size="10.00">scram::gui::EventDialog</text>
<text text-anchor="middle" x="398" y="-53.5" font-family="Helvetica,sans-Serif" font-size="10.00">::arguments</text>
</a>
</g>
</g>
<!-- Node1&#45;&gt;Node2 -->
<g id="edge1" class="edge"><title>Node1&#45;&gt;Node2</title>
<path fill="none" stroke="midnightblue" d="M116.661,-79.5262C132.601,-83.6114 150.403,-87.4667 167,-89.5 224.349,-96.5259 239.76,-97.3624 297,-89.5 312.238,-87.407 328.425,-83.5994 343.237,-79.4524"/>
<polygon fill="midnightblue" stroke="midnightblue" points="344.617,-82.6961 353.243,-76.5441 342.664,-75.9743 344.617,-82.6961"/>
</g>
<!-- Node4 -->
<g id="node4" class="node"><title>Node4</title>
<g id="a_node4"><a xlink:href="classscram_1_1gui_1_1EventDialog.xhtml#aa142ac79eb69ec9404bf940bb9705dd9" target="_top" xlink:title="scram::gui::EventDialog\l::connective">
<polygon fill="white" stroke="black" points="167,-49.5 167,-79.5 297,-79.5 297,-49.5 167,-49.5"/>
<text text-anchor="start" x="175" y="-67.5" font-family="Helvetica,sans-Serif" font-size="10.00">scram::gui::EventDialog</text>
<text text-anchor="middle" x="232" y="-56.5" font-family="Helvetica,sans-Serif" font-size="10.00">::connective</text>
</a>
</g>
</g>
<!-- Node1&#45;&gt;Node4 -->
<g id="edge3" class="edge"><title>Node1&#45;&gt;Node4</title>
<path fill="none" stroke="midnightblue" d="M131.043,-64.5C139.518,-64.5 148.256,-64.5 156.874,-64.5"/>
<polygon fill="midnightblue" stroke="midnightblue" points="156.913,-68.0001 166.913,-64.5 156.913,-61.0001 156.913,-68.0001"/>
</g>
<!-- Node5 -->
<g id="node5" class="node"><title>Node5</title>
<g id="a_node5"><a xlink:href="classscram_1_1gui_1_1EventDialog.xhtml#a9e005cee0e7ca3b5a074f31c7971a581" target="_top" xlink:title="scram::gui::EventDialog\l::minNumber">
<polygon fill="white" stroke="black" points="167,-0.5 167,-30.5 297,-30.5 297,-0.5 167,-0.5"/>
<text text-anchor="start" x="175" y="-18.5" font-family="Helvetica,sans-Serif" font-size="10.00">scram::gui::EventDialog</text>
<text text-anchor="middle" x="232" y="-7.5" font-family="Helvetica,sans-Serif" font-size="10.00">::minNumber</text>
</a>
</g>
</g>
<!-- Node1&#45;&gt;Node5 -->
<g id="edge4" class="edge"><title>Node1&#45;&gt;Node5</title>
<path fill="none" stroke="midnightblue" d="M117.198,-49.3986C134.164,-44.3449 153.241,-38.6624 170.856,-33.4152"/>
<polygon fill="midnightblue" stroke="midnightblue" points="171.885,-36.7608 180.47,-30.5516 169.887,-30.0521 171.885,-36.7608"/>
</g>
<!-- Node3 -->
<g id="node3" class="node"><title>Node3</title>
<g id="a_node3"><a xlink:href="classscram_1_1gui_1_1EventDialog.xhtml#a0c144e53e44d5b9524d60698cb356653" target="_top" xlink:title="scram::gui::EventDialog\l::name">
<polygon fill="white" stroke="black" points="499,-46.5 499,-76.5 629,-76.5 629,-46.5 499,-46.5"/>
<text text-anchor="start" x="507" y="-64.5" font-family="Helvetica,sans-Serif" font-size="10.00">scram::gui::EventDialog</text>
<text text-anchor="middle" x="564" y="-53.5" font-family="Helvetica,sans-Serif" font-size="10.00">::name</text>
</a>
</g>
</g>
<!-- Node2&#45;&gt;Node3 -->
<g id="edge2" class="edge"><title>Node2&#45;&gt;Node3</title>
<path fill="none" stroke="midnightblue" d="M463.346,-61.5C471.64,-61.5 480.187,-61.5 488.625,-61.5"/>
<polygon fill="midnightblue" stroke="midnightblue" points="488.839,-65.0001 498.839,-61.5 488.839,-58.0001 488.839,-65.0001"/>
</g>
<!-- Node5&#45;&gt;Node2 -->
<g id="edge5" class="edge"><title>Node5&#45;&gt;Node2</title>
<path fill="none" stroke="midnightblue" d="M286.7,-30.5621C301.643,-34.7535 318.015,-39.3456 333.465,-43.6791"/>
<polygon fill="midnightblue" stroke="midnightblue" points="332.886,-47.1519 343.46,-46.4826 334.777,-40.412 332.886,-47.1519"/>
</g>
</g>
</svg>
