<?xml version="1.0" encoding="UTF-8" standalone="no"?>
<!DOCTYPE svg PUBLIC "-//W3C//DTD SVG 1.1//EN"
 "http://www.w3.org/Graphics/SVG/1.1/DTD/svg11.dtd">
<!-- Generated by graphviz version 2.38.0 (20140413.2041)
 -->
<!-- Title: command.h Pages: 1 -->
<svg width="690pt" height="196pt"
 viewBox="0.00 0.00 690.00 196.00" xmlns="http://www.w3.org/2000/svg" xmlns:xlink="http://www.w3.org/1999/xlink">
<g id="graph0" class="graph" transform="scale(1 1) rotate(0) translate(4 192)">
<title>command.h</title>
<polygon fill="white" stroke="none" points="-4,4 -4,-192 686,-192 686,4 -4,4"/>
<!-- Node1 -->
<g id="node1" class="node"><title>Node1</title>
<polygon fill="#bfbfbf" stroke="black" points="375.5,-168.5 375.5,-187.5 449.5,-187.5 449.5,-168.5 375.5,-168.5"/>
<text text-anchor="middle" x="412.5" y="-175.5" font-family="Helvetica,sans-Serif" font-size="10.00">command.h</text>
</g>
<!-- Node2 -->
<g id="node2" class="node"><title>Node2</title>
<g id="a_node2"><a xlink:href="model_8h.xhtml" target="_top" xlink:title="Wrapper Model classes for the MEF data. ">
<polygon fill="white" stroke="black" points="384.5,-112.5 384.5,-131.5 440.5,-131.5 440.5,-112.5 384.5,-112.5"/>
<text text-anchor="middle" x="412.5" y="-119.5" font-family="Helvetica,sans-Serif" font-size="10.00">model.h</text>
</a>
</g>
</g>
<!-- Node1&#45;&gt;Node2 -->
<g id="edge1" class="edge"><title>Node1&#45;&gt;Node2</title>
<path fill="none" stroke="midnightblue" d="M412.5,-157.805C412.5,-148.91 412.5,-138.78 412.5,-131.751"/>
<polygon fill="midnightblue" stroke="midnightblue" points="409,-158.083 412.5,-168.083 416,-158.083 409,-158.083"/>
</g>
<!-- Node3 -->
<g id="node3" class="node"><title>Node3</title>
<g id="a_node3"><a xlink:href="diagram_8h.xhtml" target="_top" xlink:title="Graphics classes to draw diagrams. ">
<polygon fill="white" stroke="black" points="80,-56.5 80,-75.5 145,-75.5 145,-56.5 80,-56.5"/>
<text text-anchor="middle" x="112.5" y="-63.5" font-family="Helvetica,sans-Serif" font-size="10.00">diagram.h</text>
</a>
</g>
</g>
<!-- Node2&#45;&gt;Node3 -->
<g id="edge2" class="edge"><title>Node2&#45;&gt;Node3</title>
<path fill="none" stroke="midnightblue" d="M374.05,-114.767C323.563,-106.475 232.213,-91.098 154.5,-76 151.425,-75.4027 148.229,-74.7591 145.034,-74.1005"/>
<polygon fill="midnightblue" stroke="midnightblue" points="373.75,-118.265 384.184,-116.427 374.881,-111.357 373.75,-118.265"/>
</g>
<!-- Node6 -->
<g id="node6" class="node"><title>Node6</title>
<g id="a_node6"><a xlink:href="elementcontainermodel_8h.xhtml" target="_top" xlink:title="The table model for elements. ">
<polygon fill="white" stroke="black" points="163.5,-56.5 163.5,-75.5 303.5,-75.5 303.5,-56.5 163.5,-56.5"/>
<text text-anchor="middle" x="233.5" y="-63.5" font-family="Helvetica,sans-Serif" font-size="10.00">elementcontainermodel.h</text>
</a>
</g>
</g>
<!-- Node2&#45;&gt;Node6 -->
<g id="edge5" class="edge"><title>Node2&#45;&gt;Node6</title>
<path fill="none" stroke="midnightblue" d="M374.169,-109.436C340.42,-99.2551 292.053,-84.664 261.73,-75.5164"/>
<polygon fill="midnightblue" stroke="midnightblue" points="373.552,-112.906 384.137,-112.444 375.574,-106.204 373.552,-112.906"/>
</g>
<!-- Node8 -->
<g id="node8" class="node"><title>Node8</title>
<g id="a_node8"><a xlink:href="eventdialog_8h.xhtml" target="_top" xlink:title="Dialog to edit and validate events. ">
<polygon fill="white" stroke="black" points="322,-56.5 322,-75.5 403,-75.5 403,-56.5 322,-56.5"/>
<text text-anchor="middle" x="362.5" y="-63.5" font-family="Helvetica,sans-Serif" font-size="10.00">eventdialog.h</text>
</a>
</g>
</g>
<!-- Node2&#45;&gt;Node8 -->
<g id="edge8" class="edge"><title>Node2&#45;&gt;Node8</title>
<path fill="none" stroke="midnightblue" d="M397.424,-104.718C388.611,-95.1997 377.834,-83.5608 370.603,-75.7511"/>
<polygon fill="midnightblue" stroke="midnightblue" points="394.881,-107.123 404.244,-112.083 400.018,-102.367 394.881,-107.123"/>
</g>
<!-- Node10 -->
<g id="node10" class="node"><title>Node10</title>
<g id="a_node10"><a xlink:href="mainwindow_8h.xhtml" target="_top" xlink:title="The main application window. ">
<polygon fill="white" stroke="black" points="421,-56.5 421,-75.5 504,-75.5 504,-56.5 421,-56.5"/>
<text text-anchor="middle" x="462.5" y="-63.5" font-family="Helvetica,sans-Serif" font-size="10.00">mainwindow.h</text>
</a>
</g>
</g>
<!-- Node2&#45;&gt;Node10 -->
<g id="edge11" class="edge"><title>Node2&#45;&gt;Node10</title>
<path fill="none" stroke="midnightblue" d="M427.576,-104.718C436.389,-95.1997 447.166,-83.5608 454.397,-75.7511"/>
<polygon fill="midnightblue" stroke="midnightblue" points="424.982,-102.367 420.756,-112.083 430.119,-107.123 424.982,-102.367"/>
</g>
<!-- Node12 -->
<g id="node12" class="node"><title>Node12</title>
<g id="a_node12"><a xlink:href="modeltree_8h.xhtml" target="_top" xlink:title="The main tree representation of the Model. ">
<polygon fill="white" stroke="black" points="522,-56.5 522,-75.5 597,-75.5 597,-56.5 522,-56.5"/>
<text text-anchor="middle" x="559.5" y="-63.5" font-family="Helvetica,sans-Serif" font-size="10.00">modeltree.h</text>
</a>
</g>
</g>
<!-- Node2&#45;&gt;Node12 -->
<g id="edge14" class="edge"><title>Node2&#45;&gt;Node12</title>
<path fill="none" stroke="midnightblue" d="M445.423,-108.906C473.06,-98.7536 511.844,-84.5063 536.316,-75.5164"/>
<polygon fill="midnightblue" stroke="midnightblue" points="443.972,-105.71 435.793,-112.444 446.386,-112.281 443.972,-105.71"/>
</g>
<!-- Node14 -->
<g id="node14" class="node"><title>Node14</title>
<g id="a_node14"><a xlink:href="model_8cpp.xhtml" target="_top" xlink:title="model.cpp">
<polygon fill="white" stroke="black" points="615,-56.5 615,-75.5 682,-75.5 682,-56.5 615,-56.5"/>
<text text-anchor="middle" x="648.5" y="-63.5" font-family="Helvetica,sans-Serif" font-size="10.00">model.cpp</text>
</a>
</g>
</g>
<!-- Node2&#45;&gt;Node14 -->
<g id="edge17" class="edge"><title>Node2&#45;&gt;Node14</title>
<path fill="none" stroke="midnightblue" d="M450.764,-112.245C496.311,-101.823 571.643,-84.5859 614.989,-74.6677"/>
<polygon fill="midnightblue" stroke="midnightblue" points="449.934,-108.844 440.967,-114.486 451.496,-115.668 449.934,-108.844"/>
</g>
<!-- Node4 -->
<g id="node4" class="node"><title>Node4</title>
<g id="a_node4"><a xlink:href="diagram_8cpp.xhtml" target="_top" xlink:title="Implementation of diagram graphics. ">
<polygon fill="white" stroke="black" points="0,-0.5 0,-19.5 77,-19.5 77,-0.5 0,-0.5"/>
<text text-anchor="middle" x="38.5" y="-7.5" font-family="Helvetica,sans-Serif" font-size="10.00">diagram.cpp</text>
</a>
</g>
</g>
<!-- Node3&#45;&gt;Node4 -->
<g id="edge3" class="edge"><title>Node3&#45;&gt;Node4</title>
<path fill="none" stroke="midnightblue" d="M92.4657,-50.3804C79.0909,-40.6204 61.9412,-28.1057 50.6057,-19.8339"/>
<polygon fill="midnightblue" stroke="midnightblue" points="90.4695,-53.2565 100.611,-56.324 94.5958,-47.602 90.4695,-53.2565"/>
</g>
<!-- Node5 -->
<g id="node5" class="node"><title>Node5</title>
<g id="a_node5"><a xlink:href="mainwindow_8cpp.xhtml" target="_top" xlink:title="mainwindow.cpp">
<polygon fill="white" stroke="black" points="265.5,-0.5 265.5,-19.5 359.5,-19.5 359.5,-0.5 265.5,-0.5"/>
<text text-anchor="middle" x="312.5" y="-7.5" font-family="Helvetica,sans-Serif" font-size="10.00">mainwindow.cpp</text>
</a>
</g>
</g>
<!-- Node3&#45;&gt;Node5 -->
<g id="edge4" class="edge"><title>Node3&#45;&gt;Node5</title>
<path fill="none" stroke="midnightblue" d="M153.874,-53.8291C191.636,-43.6333 246.64,-28.7823 280.958,-19.5164"/>
<polygon fill="midnightblue" stroke="midnightblue" points="152.933,-50.4578 144.191,-56.4435 154.757,-57.2158 152.933,-50.4578"/>
</g>
<!-- Node6&#45;&gt;Node5 -->
<g id="edge7" class="edge"><title>Node6&#45;&gt;Node5</title>
<path fill="none" stroke="midnightblue" d="M254.534,-50.6221C268.966,-40.7574 287.641,-27.9919 299.839,-19.6545"/>
<polygon fill="midnightblue" stroke="midnightblue" points="252.473,-47.7914 246.193,-56.324 256.423,-53.5703 252.473,-47.7914"/>
</g>
<!-- Node7 -->
<g id="node7" class="node"><title>Node7</title>
<g id="a_node7"><a xlink:href="elementcontainermodel_8cpp.xhtml" target="_top" xlink:title="elementcontainermodel.cpp">
<polygon fill="white" stroke="black" points="95.5,-0.5 95.5,-19.5 247.5,-19.5 247.5,-0.5 95.5,-0.5"/>
<text text-anchor="middle" x="171.5" y="-7.5" font-family="Helvetica,sans-Serif" font-size="10.00">elementcontainermodel.cpp</text>
</a>
</g>
</g>
<!-- Node6&#45;&gt;Node7 -->
<g id="edge6" class="edge"><title>Node6&#45;&gt;Node7</title>
<path fill="none" stroke="midnightblue" d="M215.746,-49.5372C204.692,-39.9087 190.869,-27.8694 181.643,-19.8339"/>
<polygon fill="midnightblue" stroke="midnightblue" points="213.699,-52.3954 223.539,-56.324 218.297,-47.1168 213.699,-52.3954"/>
</g>
<!-- Node8&#45;&gt;Node5 -->
<g id="edge10" class="edge"><title>Node8&#45;&gt;Node5</title>
<path fill="none" stroke="midnightblue" d="M347.424,-48.7175C338.611,-39.1997 327.834,-27.5608 320.603,-19.7511"/>
<polygon fill="midnightblue" stroke="midnightblue" points="344.881,-51.1233 354.244,-56.083 350.018,-46.3674 344.881,-51.1233"/>
</g>
<!-- Node9 -->
<g id="node9" class="node"><title>Node9</title>
<g id="a_node9"><a xlink:href="eventdialog_8cpp.xhtml" target="_top" xlink:title="eventdialog.cpp">
<polygon fill="white" stroke="black" points="377.5,-0.5 377.5,-19.5 469.5,-19.5 469.5,-0.5 377.5,-0.5"/>
<text text-anchor="middle" x="423.5" y="-7.5" font-family="Helvetica,sans-Serif" font-size="10.00">eventdialog.cpp</text>
</a>
</g>
</g>
<!-- Node8&#45;&gt;Node9 -->
<g id="edge9" class="edge"><title>Node8&#45;&gt;Node9</title>
<path fill="none" stroke="midnightblue" d="M379.967,-49.5372C390.844,-39.9087 404.444,-27.8694 413.521,-19.8339"/>
<polygon fill="midnightblue" stroke="midnightblue" points="377.468,-47.0749 372.301,-56.324 382.108,-52.3162 377.468,-47.0749"/>
</g>
<!-- Node10&#45;&gt;Node5 -->
<g id="edge13" class="edge"><title>Node10&#45;&gt;Node5</title>
<path fill="none" stroke="midnightblue" d="M429.275,-53.0392C401.052,-42.8786 361.238,-28.5457 336.157,-19.5164"/>
<polygon fill="midnightblue" stroke="midnightblue" points="428.138,-56.3494 438.732,-56.4435 430.509,-49.7632 428.138,-56.3494"/>
</g>
<!-- Node11 -->
<g id="node11" class="node"><title>Node11</title>
<g id="a_node11"><a xlink:href="main_8cpp.xhtml" target="_top" xlink:title="The main entrance to the SCRAM GUI. ">
<polygon fill="white" stroke="black" points="488,-0.5 488,-19.5 549,-19.5 549,-0.5 488,-0.5"/>
<text text-anchor="middle" x="518.5" y="-7.5" font-family="Helvetica,sans-Serif" font-size="10.00">main.cpp</text>
</a>
</g>
</g>
<!-- Node10&#45;&gt;Node11 -->
<g id="edge12" class="edge"><title>Node10&#45;&gt;Node11</title>
<path fill="none" stroke="midnightblue" d="M478.83,-49.2533C488.765,-39.6731 501.088,-27.7906 509.339,-19.8339"/>
<polygon fill="midnightblue" stroke="midnightblue" points="476.266,-46.8631 471.497,-56.324 481.125,-51.902 476.266,-46.8631"/>
</g>
<!-- Node12&#45;&gt;Node5 -->
<g id="edge15" class="edge"><title>Node12&#45;&gt;Node5</title>
<path fill="none" stroke="midnightblue" d="M512.125,-54.6427C465.495,-44.4483 395.129,-29.0645 351.593,-19.5467"/>
<polygon fill="midnightblue" stroke="midnightblue" points="511.469,-58.0819 521.986,-56.7986 512.964,-51.2435 511.469,-58.0819"/>
</g>
<!-- Node13 -->
<g id="node13" class="node"><title>Node13</title>
<g id="a_node13"><a xlink:href="modeltree_8cpp.xhtml" target="_top" xlink:title="modeltree.cpp">
<polygon fill="white" stroke="black" points="567.5,-0.5 567.5,-19.5 653.5,-19.5 653.5,-0.5 567.5,-0.5"/>
<text text-anchor="middle" x="610.5" y="-7.5" font-family="Helvetica,sans-Serif" font-size="10.00">modeltree.cpp</text>
</a>
</g>
</g>
<!-- Node12&#45;&gt;Node13 -->
<g id="edge16" class="edge"><title>Node12&#45;&gt;Node13</title>
<path fill="none" stroke="midnightblue" d="M574.878,-48.7175C583.867,-39.1997 594.859,-27.5608 602.235,-19.7511"/>
<polygon fill="midnightblue" stroke="midnightblue" points="572.243,-46.4096 567.922,-56.083 577.332,-51.216 572.243,-46.4096"/>
</g>
</g>
</svg>
