<?xml version="1.0" encoding="UTF-8" standalone="no"?>
<!DOCTYPE svg PUBLIC "-//W3C//DTD SVG 1.1//EN"
 "http://www.w3.org/Graphics/SVG/1.1/DTD/svg11.dtd">
<!-- Generated by graphviz version 2.38.0 (20140413.2041)
 -->
<!-- Title: diagram.h Pages: 1 -->
<svg width="198pt" height="84pt"
 viewBox="0.00 0.00 197.50 84.00" xmlns="http://www.w3.org/2000/svg" xmlns:xlink="http://www.w3.org/1999/xlink">
<g id="graph0" class="graph" transform="scale(1 1) rotate(0) translate(4 80)">
<title>diagram.h</title>
<polygon fill="white" stroke="none" points="-4,4 -4,-80 193.5,-80 193.5,4 -4,4"/>
<!-- Node1 -->
<g id="node1" class="node"><title>Node1</title>
<polygon fill="#bfbfbf" stroke="black" points="58,-56.5 58,-75.5 123,-75.5 123,-56.5 58,-56.5"/>
<text text-anchor="middle" x="90.5" y="-63.5" font-family="Helvetica,sans-Serif" font-size="10.00">diagram.h</text>
</g>
<!-- Node2 -->
<g id="node2" class="node"><title>Node2</title>
<g id="a_node2"><a xlink:href="diagram_8cpp.xhtml" target="_top" xlink:title="Implementation of diagram graphics. ">
<polygon fill="white" stroke="black" points="0,-0.5 0,-19.5 77,-19.5 77,-0.5 0,-0.5"/>
<text text-anchor="middle" x="38.5" y="-7.5" font-family="Helvetica,sans-Serif" font-size="10.00">diagram.cpp</text>
</a>
</g>
</g>
<!-- Node1&#45;&gt;Node2 -->
<g id="edge1" class="edge"><title>Node1&#45;&gt;Node2</title>
<path fill="none" stroke="midnightblue" d="M74.8206,-48.7175C65.6553,-39.1997 54.4474,-27.5608 46.927,-19.7511"/>
<polygon fill="midnightblue" stroke="midnightblue" points="72.4557,-51.3075 81.9133,-56.083 77.4979,-46.452 72.4557,-51.3075"/>
</g>
<!-- Node3 -->
<g id="node3" class="node"><title>Node3</title>
<g id="a_node3"><a xlink:href="mainwindow_8cpp.xhtml" target="_top" xlink:title="mainwindow.cpp">
<polygon fill="white" stroke="black" points="95.5,-0.5 95.5,-19.5 189.5,-19.5 189.5,-0.5 95.5,-0.5"/>
<text text-anchor="middle" x="142.5" y="-7.5" font-family="Helvetica,sans-Serif" font-size="10.00">mainwindow.cpp</text>
</a>
</g>
</g>
<!-- Node1&#45;&gt;Node3 -->
<g id="edge2" class="edge"><title>Node1&#45;&gt;Node3</title>
<path fill="none" stroke="midnightblue" d="M106.179,-48.7175C115.345,-39.1997 126.553,-27.5608 134.073,-19.7511"/>
<polygon fill="midnightblue" stroke="midnightblue" points="103.502,-46.452 99.0867,-56.083 108.544,-51.3075 103.502,-46.452"/>
</g>
</g>
</svg>
