<?xml version="1.0" encoding="UTF-8" standalone="no"?>
<!DOCTYPE svg PUBLIC "-//W3C//DTD SVG 1.1//EN"
 "http://www.w3.org/Graphics/SVG/1.1/DTD/svg11.dtd">
<!-- Generated by graphviz version 2.38.0 (20140413.2041)
 -->
<!-- Title: eventdialog.cpp Pages: 1 -->
<svg width="2931pt" height="263pt"
 viewBox="0.00 0.00 2930.50 263.00" xmlns="http://www.w3.org/2000/svg" xmlns:xlink="http://www.w3.org/1999/xlink">
<g id="graph0" class="graph" transform="scale(1 1) rotate(0) translate(4 259)">
<title>eventdialog.cpp</title>
<polygon fill="white" stroke="none" points="-4,4 -4,-259 2926.5,-259 2926.5,4 -4,4"/>
<!-- Node1 -->
<g id="node1" class="node"><title>Node1</title>
<polygon fill="#bfbfbf" stroke="black" points="1730.5,-235.5 1730.5,-254.5 1822.5,-254.5 1822.5,-235.5 1730.5,-235.5"/>
<text text-anchor="middle" x="1776.5" y="-242.5" font-family="Helvetica,sans-Serif" font-size="10.00">eventdialog.cpp</text>
</g>
<!-- Node2 -->
<g id="node2" class="node"><title>Node2</title>
<g id="a_node2"><a xlink:href="eventdialog_8h.xhtml" target="_top" xlink:title="Dialog to edit and validate events. ">
<polygon fill="white" stroke="black" points="797,-179.5 797,-198.5 878,-198.5 878,-179.5 797,-179.5"/>
<text text-anchor="middle" x="837.5" y="-186.5" font-family="Helvetica,sans-Serif" font-size="10.00">eventdialog.h</text>
</a>
</g>
</g>
<!-- Node1&#45;&gt;Node2 -->
<g id="edge1" class="edge"><title>Node1&#45;&gt;Node2</title>
<path fill="none" stroke="midnightblue" d="M1730.26,-241.341C1572.14,-232.248 1053.73,-202.435 888.547,-192.936"/>
<polygon fill="midnightblue" stroke="midnightblue" points="888.37,-189.42 878.185,-192.34 887.968,-196.408 888.37,-189.42"/>
</g>
<!-- Node4 -->
<g id="node4" class="node"><title>Node4</title>
<polygon fill="white" stroke="#bfbfbf" points="0,-62 0,-81 57,-81 57,-62 0,-62"/>
<text text-anchor="middle" x="28.5" y="-69" font-family="Helvetica,sans-Serif" font-size="10.00">memory</text>
</g>
<!-- Node1&#45;&gt;Node4 -->
<g id="edge45" class="edge"><title>Node1&#45;&gt;Node4</title>
<path fill="none" stroke="midnightblue" d="M1730.36,-242.853C1505.88,-236.988 526.769,-208.064 229.5,-143 166.327,-129.173 95.6697,-101.34 57.2309,-85.0872"/>
<polygon fill="midnightblue" stroke="midnightblue" points="58.2971,-81.7367 47.7262,-81.0258 55.5466,-88.1737 58.2971,-81.7367"/>
</g>
<!-- Node8 -->
<g id="node8" class="node"><title>Node8</title>
<polygon fill="white" stroke="#bfbfbf" points="1008.5,-123.5 1008.5,-142.5 1080.5,-142.5 1080.5,-123.5 1008.5,-123.5"/>
<text text-anchor="middle" x="1044.5" y="-130.5" font-family="Helvetica,sans-Serif" font-size="10.00">QStatusBar</text>
</g>
<!-- Node1&#45;&gt;Node8 -->
<g id="edge39" class="edge"><title>Node1&#45;&gt;Node8</title>
<path fill="none" stroke="midnightblue" d="M1730.19,-243.611C1637.33,-242.058 1422.14,-234.559 1245.5,-199 1183.62,-186.542 1114.09,-161.453 1075.17,-146.35"/>
<polygon fill="midnightblue" stroke="midnightblue" points="1076.08,-142.949 1065.49,-142.556 1073.52,-149.466 1076.08,-142.949"/>
</g>
<!-- Node12 -->
<g id="node12" class="node"><title>Node12</title>
<polygon fill="white" stroke="#bfbfbf" points="1099,-123.5 1099,-142.5 1194,-142.5 1194,-123.5 1099,-123.5"/>
<text text-anchor="middle" x="1146.5" y="-130.5" font-family="Helvetica,sans-Serif" font-size="10.00">src/expression.h</text>
</g>
<!-- Node1&#45;&gt;Node12 -->
<g id="edge43" class="edge"><title>Node1&#45;&gt;Node12</title>
<path fill="none" stroke="midnightblue" d="M1730.27,-243.895C1645.45,-242.751 1459.78,-235.816 1308.5,-199 1258.81,-186.909 1204.25,-162.517 1172.82,-147.294"/>
<polygon fill="midnightblue" stroke="midnightblue" points="1173.98,-143.966 1163.46,-142.7 1170.9,-150.249 1173.98,-143.966"/>
</g>
<!-- Node20 -->
<g id="node20" class="node"><title>Node20</title>
<polygon fill="white" stroke="#bfbfbf" points="1447,-0.5 1447,-19.5 1502,-19.5 1502,-0.5 1447,-0.5"/>
<text text-anchor="middle" x="1474.5" y="-7.5" font-family="Helvetica,sans-Serif" font-size="10.00">QObject</text>
</g>
<!-- Node1&#45;&gt;Node20 -->
<g id="edge36" class="edge"><title>Node1&#45;&gt;Node20</title>
<path fill="none" stroke="midnightblue" d="M1730.14,-240.252C1672.94,-234.688 1580.21,-222.301 1555.5,-199 1507.65,-153.888 1549.67,-113.354 1517.5,-56 1511.19,-44.7438 1501.4,-34.1956 1492.76,-26.1449"/>
<polygon fill="midnightblue" stroke="midnightblue" points="1495.09,-23.5254 1485.28,-19.5049 1490.44,-28.7607 1495.09,-23.5254"/>
</g>
<!-- Node25 -->
<g id="node25" class="node"><title>Node25</title>
<g id="a_node25"><a xlink:href="translate_8h.xhtml" target="_top" xlink:title="Translation helper facilities to workaround Qt Linguist shortcomings. ">
<polygon fill="white" stroke="black" points="1440.5,-62 1440.5,-81 1508.5,-81 1508.5,-62 1440.5,-62"/>
<text text-anchor="middle" x="1474.5" y="-69" font-family="Helvetica,sans-Serif" font-size="10.00">translate.h</text>
</a>
</g>
</g>
<!-- Node1&#45;&gt;Node25 -->
<g id="edge53" class="edge"><title>Node1&#45;&gt;Node25</title>
<path fill="none" stroke="midnightblue" d="M1730.3,-241.215C1665.88,-236.447 1553.45,-224.639 1522.5,-199 1489.59,-171.74 1479.21,-119.336 1475.96,-91.294"/>
<polygon fill="midnightblue" stroke="midnightblue" points="1479.44,-90.8357 1474.99,-81.2204 1472.47,-91.5117 1479.44,-90.8357"/>
</g>
<!-- Node26 -->
<g id="node26" class="node"><title>Node26</title>
<polygon fill="white" stroke="#bfbfbf" points="1564.5,-179.5 1564.5,-198.5 1638.5,-198.5 1638.5,-179.5 1564.5,-179.5"/>
<text text-anchor="middle" x="1601.5" y="-186.5" font-family="Helvetica,sans-Serif" font-size="10.00">QCompleter</text>
</g>
<!-- Node1&#45;&gt;Node26 -->
<g id="edge34" class="edge"><title>Node1&#45;&gt;Node26</title>
<path fill="none" stroke="midnightblue" d="M1748.77,-235.444C1719.07,-226.28 1671.78,-211.688 1638.83,-201.519"/>
<polygon fill="midnightblue" stroke="midnightblue" points="1639.69,-198.121 1629.1,-198.516 1637.62,-204.809 1639.69,-198.121"/>
</g>
<!-- Node27 -->
<g id="node27" class="node"><title>Node27</title>
<polygon fill="white" stroke="#bfbfbf" points="1656.5,-179.5 1656.5,-198.5 1718.5,-198.5 1718.5,-179.5 1656.5,-179.5"/>
<text text-anchor="middle" x="1687.5" y="-186.5" font-family="Helvetica,sans-Serif" font-size="10.00">QListView</text>
</g>
<!-- Node1&#45;&gt;Node27 -->
<g id="edge35" class="edge"><title>Node1&#45;&gt;Node27</title>
<path fill="none" stroke="midnightblue" d="M1762.2,-235.324C1748.32,-226.9 1727.01,-213.971 1710.7,-204.074"/>
<polygon fill="midnightblue" stroke="midnightblue" points="1712.13,-200.85 1701.76,-198.655 1708.5,-206.834 1712.13,-200.85"/>
</g>
<!-- Node28 -->
<g id="node28" class="node"><title>Node28</title>
<polygon fill="white" stroke="#bfbfbf" points="1736.5,-179.5 1736.5,-198.5 1816.5,-198.5 1816.5,-179.5 1736.5,-179.5"/>
<text text-anchor="middle" x="1776.5" y="-186.5" font-family="Helvetica,sans-Serif" font-size="10.00">QPushButton</text>
</g>
<!-- Node1&#45;&gt;Node28 -->
<g id="edge37" class="edge"><title>Node1&#45;&gt;Node28</title>
<path fill="none" stroke="midnightblue" d="M1776.5,-235.083C1776.5,-228.006 1776.5,-217.861 1776.5,-208.986"/>
<polygon fill="midnightblue" stroke="midnightblue" points="1780,-208.751 1776.5,-198.751 1773,-208.751 1780,-208.751"/>
</g>
<!-- Node29 -->
<g id="node29" class="node"><title>Node29</title>
<polygon fill="white" stroke="#bfbfbf" points="1835,-179.5 1835,-198.5 1900,-198.5 1900,-179.5 1835,-179.5"/>
<text text-anchor="middle" x="1867.5" y="-186.5" font-family="Helvetica,sans-Serif" font-size="10.00">QShortcut</text>
</g>
<!-- Node1&#45;&gt;Node29 -->
<g id="edge38" class="edge"><title>Node1&#45;&gt;Node29</title>
<path fill="none" stroke="midnightblue" d="M1791.12,-235.324C1805.45,-226.822 1827.51,-213.729 1844.25,-203.797"/>
<polygon fill="midnightblue" stroke="midnightblue" points="1846.1,-206.768 1852.92,-198.655 1842.53,-200.748 1846.1,-206.768"/>
</g>
<!-- Node30 -->
<g id="node30" class="node"><title>Node30</title>
<polygon fill="white" stroke="#bfbfbf" points="1918.5,-179.5 1918.5,-198.5 2062.5,-198.5 2062.5,-179.5 1918.5,-179.5"/>
<text text-anchor="middle" x="1990.5" y="-186.5" font-family="Helvetica,sans-Serif" font-size="10.00">boost/range/algorithm.hpp</text>
</g>
<!-- Node1&#45;&gt;Node30 -->
<g id="edge40" class="edge"><title>Node1&#45;&gt;Node30</title>
<path fill="none" stroke="midnightblue" d="M1810.41,-235.444C1847.35,-226.122 1906.55,-211.183 1946.92,-200.997"/>
<polygon fill="midnightblue" stroke="midnightblue" points="1947.91,-204.357 1956.75,-198.516 1946.2,-197.57 1947.91,-204.357"/>
</g>
<!-- Node31 -->
<g id="node31" class="node"><title>Node31</title>
<polygon fill="white" stroke="#bfbfbf" points="2081,-179.5 2081,-198.5 2164,-198.5 2164,-179.5 2081,-179.5"/>
<text text-anchor="middle" x="2122.5" y="-186.5" font-family="Helvetica,sans-Serif" font-size="10.00">src/element.h</text>
</g>
<!-- Node1&#45;&gt;Node31 -->
<g id="edge41" class="edge"><title>Node1&#45;&gt;Node31</title>
<path fill="none" stroke="midnightblue" d="M1822.54,-237.316C1878.64,-229.096 1976.59,-214.503 2070.78,-199.086"/>
<polygon fill="midnightblue" stroke="midnightblue" points="2071.46,-202.521 2080.76,-197.447 2070.33,-195.613 2071.46,-202.521"/>
</g>
<!-- Node32 -->
<g id="node32" class="node"><title>Node32</title>
<polygon fill="white" stroke="#bfbfbf" points="2182.5,-179.5 2182.5,-198.5 2322.5,-198.5 2322.5,-179.5 2182.5,-179.5"/>
<text text-anchor="middle" x="2252.5" y="-186.5" font-family="Helvetica,sans-Serif" font-size="10.00">src/expression/constant.h</text>
</g>
<!-- Node1&#45;&gt;Node32 -->
<g id="edge42" class="edge"><title>Node1&#45;&gt;Node32</title>
<path fill="none" stroke="midnightblue" d="M1822.57,-238.773C1903.44,-229.599 2071.84,-210.495 2172.2,-199.109"/>
<polygon fill="midnightblue" stroke="midnightblue" points="2172.75,-202.569 2182.3,-197.964 2171.97,-195.614 2172.75,-202.569"/>
</g>
<!-- Node33 -->
<g id="node33" class="node"><title>Node33</title>
<polygon fill="white" stroke="#bfbfbf" points="2341,-179.5 2341,-198.5 2494,-198.5 2494,-179.5 2341,-179.5"/>
<text text-anchor="middle" x="2417.5" y="-186.5" font-family="Helvetica,sans-Serif" font-size="10.00">src/expression/exponential.h</text>
</g>
<!-- Node1&#45;&gt;Node33 -->
<g id="edge44" class="edge"><title>Node1&#45;&gt;Node33</title>
<path fill="none" stroke="midnightblue" d="M1822.58,-240.63C1916.11,-233.71 2135.18,-217.099 2330.45,-199.077"/>
<polygon fill="midnightblue" stroke="midnightblue" points="2330.98,-202.543 2340.61,-198.136 2330.33,-195.573 2330.98,-202.543"/>
</g>
<!-- Node34 -->
<g id="node34" class="node"><title>Node34</title>
<polygon fill="white" stroke="#bfbfbf" points="2512.5,-179.5 2512.5,-198.5 2590.5,-198.5 2590.5,-179.5 2512.5,-179.5"/>
<text text-anchor="middle" x="2551.5" y="-186.5" font-family="Helvetica,sans-Serif" font-size="10.00">src/ext/bits.h</text>
</g>
<!-- Node1&#45;&gt;Node34 -->
<g id="edge46" class="edge"><title>Node1&#45;&gt;Node34</title>
<path fill="none" stroke="midnightblue" d="M1822.54,-243.058C1936.14,-240.324 2238.97,-230.547 2502.12,-198.87"/>
<polygon fill="midnightblue" stroke="midnightblue" points="2502.74,-202.319 2512.25,-197.637 2501.9,-195.371 2502.74,-202.319"/>
</g>
<!-- Node35 -->
<g id="node35" class="node"><title>Node35</title>
<polygon fill="white" stroke="#bfbfbf" points="2608.5,-179.5 2608.5,-198.5 2726.5,-198.5 2726.5,-179.5 2608.5,-179.5"/>
<text text-anchor="middle" x="2667.5" y="-186.5" font-family="Helvetica,sans-Serif" font-size="10.00">src/ext/find_iterator.h</text>
</g>
<!-- Node1&#45;&gt;Node35 -->
<g id="edge47" class="edge"><title>Node1&#45;&gt;Node35</title>
<path fill="none" stroke="midnightblue" d="M1822.54,-242.726C1946.24,-239.036 2296.24,-226.85 2597.93,-199.075"/>
<polygon fill="midnightblue" stroke="midnightblue" points="2598.56,-202.532 2608.19,-198.123 2597.91,-195.562 2598.56,-202.532"/>
</g>
<!-- Node36 -->
<g id="node36" class="node"><title>Node36</title>
<polygon fill="white" stroke="#bfbfbf" points="2744.5,-179.5 2744.5,-198.5 2838.5,-198.5 2838.5,-179.5 2744.5,-179.5"/>
<text text-anchor="middle" x="2791.5" y="-186.5" font-family="Helvetica,sans-Serif" font-size="10.00">src/ext/variant.h</text>
</g>
<!-- Node1&#45;&gt;Node36 -->
<g id="edge48" class="edge"><title>Node1&#45;&gt;Node36</title>
<path fill="none" stroke="midnightblue" d="M1822.55,-243.673C1959.75,-242.31 2377.83,-235.333 2734.49,-198.976"/>
<polygon fill="midnightblue" stroke="midnightblue" points="2734.91,-202.452 2744.5,-197.947 2734.19,-195.489 2734.91,-202.452"/>
</g>
<!-- Node37 -->
<g id="node37" class="node"><title>Node37</title>
<g id="a_node37"><a xlink:href="guiassert_8h.xhtml" target="_top" xlink:title="GUI assertions that should not crash the program by default. ">
<polygon fill="white" stroke="black" points="1317.5,-179.5 1317.5,-198.5 1387.5,-198.5 1387.5,-179.5 1317.5,-179.5"/>
<text text-anchor="middle" x="1352.5" y="-186.5" font-family="Helvetica,sans-Serif" font-size="10.00">guiassert.h</text>
</a>
</g>
</g>
<!-- Node1&#45;&gt;Node37 -->
<g id="edge49" class="edge"><title>Node1&#45;&gt;Node37</title>
<path fill="none" stroke="midnightblue" d="M1730.32,-238.118C1648.56,-227.706 1479.35,-206.155 1398.05,-195.801"/>
<polygon fill="midnightblue" stroke="midnightblue" points="1398.01,-192.268 1387.65,-194.476 1397.12,-199.212 1398.01,-192.268"/>
</g>
<!-- Node40 -->
<g id="node40" class="node"><title>Node40</title>
<g id="a_node40"><a xlink:href="validator_8h.xhtml" target="_top" xlink:title="Collection of validators. ">
<polygon fill="white" stroke="black" points="2856.5,-179.5 2856.5,-198.5 2922.5,-198.5 2922.5,-179.5 2856.5,-179.5"/>
<text text-anchor="middle" x="2889.5" y="-186.5" font-family="Helvetica,sans-Serif" font-size="10.00">validator.h</text>
</a>
</g>
</g>
<!-- Node1&#45;&gt;Node40 -->
<g id="edge54" class="edge"><title>Node1&#45;&gt;Node40</title>
<path fill="none" stroke="midnightblue" d="M1822.64,-243.101C1998.1,-239.523 2624.65,-225.262 2845.89,-198.948"/>
<polygon fill="midnightblue" stroke="midnightblue" points="2846.62,-202.385 2856.12,-197.686 2845.76,-195.437 2846.62,-202.385"/>
</g>
<!-- Node3 -->
<g id="node3" class="node"><title>Node3</title>
<polygon fill="white" stroke="#bfbfbf" points="799,-123.5 799,-142.5 876,-142.5 876,-123.5 799,-123.5"/>
<text text-anchor="middle" x="837.5" y="-130.5" font-family="Helvetica,sans-Serif" font-size="10.00">initializer_list</text>
</g>
<!-- Node2&#45;&gt;Node3 -->
<g id="edge2" class="edge"><title>Node2&#45;&gt;Node3</title>
<path fill="none" stroke="midnightblue" d="M837.5,-179.083C837.5,-172.006 837.5,-161.861 837.5,-152.986"/>
<polygon fill="midnightblue" stroke="midnightblue" points="841,-152.751 837.5,-142.751 834,-152.751 841,-152.751"/>
</g>
<!-- Node2&#45;&gt;Node4 -->
<g id="edge3" class="edge"><title>Node2&#45;&gt;Node4</title>
<path fill="none" stroke="midnightblue" d="M796.693,-186.209C680.66,-180.362 339.585,-157.928 66.5,-87 63.6808,-86.2678 60.7835,-85.395 57.9065,-84.4461"/>
<polygon fill="midnightblue" stroke="midnightblue" points="58.9405,-81.0987 48.3459,-81.0196 56.5787,-87.6883 58.9405,-81.0987"/>
</g>
<!-- Node5 -->
<g id="node5" class="node"><title>Node5</title>
<polygon fill="white" stroke="#bfbfbf" points="75.5,-62 75.5,-81 119.5,-81 119.5,-62 75.5,-62"/>
<text text-anchor="middle" x="97.5" y="-69" font-family="Helvetica,sans-Serif" font-size="10.00">string</text>
</g>
<!-- Node2&#45;&gt;Node5 -->
<g id="edge4" class="edge"><title>Node2&#45;&gt;Node5</title>
<path fill="none" stroke="midnightblue" d="M796.828,-180.069C762.804,-172.695 713.403,-160.245 672.5,-143 656.345,-136.189 655.243,-128.199 638.5,-123 421.492,-55.6105 348.441,-144.096 128.5,-87 126.516,-86.4849 124.504,-85.8454 122.507,-85.1242"/>
<polygon fill="midnightblue" stroke="midnightblue" points="123.426,-81.7126 112.852,-81.0369 120.697,-88.1587 123.426,-81.7126"/>
</g>
<!-- Node6 -->
<g id="node6" class="node"><title>Node6</title>
<polygon fill="white" stroke="#bfbfbf" points="138,-62 138,-81 185,-81 185,-62 138,-62"/>
<text text-anchor="middle" x="161.5" y="-69" font-family="Helvetica,sans-Serif" font-size="10.00">vector</text>
</g>
<!-- Node2&#45;&gt;Node6 -->
<g id="edge5" class="edge"><title>Node2&#45;&gt;Node6</title>
<path fill="none" stroke="midnightblue" d="M812.501,-179.454C787.676,-170.81 748.64,-156.792 715.5,-143 696.041,-134.902 692.894,-128.322 672.5,-123 466.357,-69.206 401.205,-138.59 194.5,-87 192.143,-86.4119 189.743,-85.6687 187.366,-84.8312"/>
<polygon fill="midnightblue" stroke="midnightblue" points="188.483,-81.5079 177.9,-81.0115 185.864,-87.9993 188.483,-81.5079"/>
</g>
<!-- Node7 -->
<g id="node7" class="node"><title>Node7</title>
<polygon fill="white" stroke="#bfbfbf" points="462.5,-123.5 462.5,-142.5 516.5,-142.5 516.5,-123.5 462.5,-123.5"/>
<text text-anchor="middle" x="489.5" y="-130.5" font-family="Helvetica,sans-Serif" font-size="10.00">QDialog</text>
</g>
<!-- Node2&#45;&gt;Node7 -->
<g id="edge6" class="edge"><title>Node2&#45;&gt;Node7</title>
<path fill="none" stroke="midnightblue" d="M796.89,-183.481C739.006,-176.747 629.291,-162.902 526.486,-143.021"/>
<polygon fill="midnightblue" stroke="midnightblue" points="527.047,-139.565 516.561,-141.079 525.702,-146.435 527.047,-139.565"/>
</g>
<!-- Node2&#45;&gt;Node8 -->
<g id="edge7" class="edge"><title>Node2&#45;&gt;Node8</title>
<path fill="none" stroke="midnightblue" d="M870.3,-179.444C905.88,-170.162 962.814,-155.309 1001.85,-145.127"/>
<polygon fill="midnightblue" stroke="midnightblue" points="1003.06,-148.427 1011.85,-142.516 1001.29,-141.654 1003.06,-148.427"/>
</g>
<!-- Node9 -->
<g id="node9" class="node"><title>Node9</title>
<polygon fill="white" stroke="#bfbfbf" points="1369,-62 1369,-81 1422,-81 1422,-62 1369,-62"/>
<text text-anchor="middle" x="1395.5" y="-69" font-family="Helvetica,sans-Serif" font-size="10.00">QString</text>
</g>
<!-- Node2&#45;&gt;Node9 -->
<g id="edge8" class="edge"><title>Node2&#45;&gt;Node9</title>
<path fill="none" stroke="midnightblue" d="M864.523,-179.378C889.927,-170.997 928.825,-157.447 961.5,-143 978.955,-135.282 981.223,-128.495 999.5,-123 1153.49,-76.7001 1203.36,-125.423 1359.5,-87 1362.17,-86.3434 1364.9,-85.528 1367.61,-84.6212"/>
<polygon fill="midnightblue" stroke="midnightblue" points="1369.01,-87.835 1377.15,-81.0559 1366.56,-81.2779 1369.01,-87.835"/>
</g>
<!-- Node10 -->
<g id="node10" class="node"><title>Node10</title>
<polygon fill="white" stroke="#bfbfbf" points="535,-123.5 535,-142.5 630,-142.5 630,-123.5 535,-123.5"/>
<text text-anchor="middle" x="582.5" y="-130.5" font-family="Helvetica,sans-Serif" font-size="10.00">ui_eventdialog.h</text>
</g>
<!-- Node2&#45;&gt;Node10 -->
<g id="edge9" class="edge"><title>Node2&#45;&gt;Node10</title>
<path fill="none" stroke="midnightblue" d="M797.094,-179.444C752.517,-170.004 680.732,-154.802 632.608,-144.611"/>
<polygon fill="midnightblue" stroke="midnightblue" points="633.225,-141.164 622.716,-142.516 631.774,-148.012 633.225,-141.164"/>
</g>
<!-- Node11 -->
<g id="node11" class="node"><title>Node11</title>
<polygon fill="white" stroke="#bfbfbf" points="1189.5,-62 1189.5,-81 1259.5,-81 1259.5,-62 1189.5,-62"/>
<text text-anchor="middle" x="1224.5" y="-69" font-family="Helvetica,sans-Serif" font-size="10.00">src/event.h</text>
</g>
<!-- Node2&#45;&gt;Node11 -->
<g id="edge10" class="edge"><title>Node2&#45;&gt;Node11</title>
<path fill="none" stroke="midnightblue" d="M846.672,-179.091C862.13,-164.658 894.979,-136.431 928.5,-123 1033.52,-80.9224 1070.35,-112.806 1180.5,-87 1183.97,-86.1865 1187.56,-85.2198 1191.12,-84.1773"/>
<polygon fill="midnightblue" stroke="midnightblue" points="1192.47,-87.4246 1200.97,-81.1031 1190.38,-80.7427 1192.47,-87.4246"/>
</g>
<!-- Node2&#45;&gt;Node12 -->
<g id="edge11" class="edge"><title>Node2&#45;&gt;Node12</title>
<path fill="none" stroke="midnightblue" d="M878.214,-180.885C932.159,-171.458 1027.63,-154.773 1088.94,-144.059"/>
<polygon fill="midnightblue" stroke="midnightblue" points="1089.6,-147.497 1098.85,-142.327 1088.4,-140.601 1089.6,-147.497"/>
</g>
<!-- Node13 -->
<g id="node13" class="node"><title>Node13</title>
<polygon fill="white" stroke="#bfbfbf" points="1278,-62 1278,-81 1351,-81 1351,-62 1278,-62"/>
<text text-anchor="middle" x="1314.5" y="-69" font-family="Helvetica,sans-Serif" font-size="10.00">src/model.h</text>
</g>
<!-- Node2&#45;&gt;Node13 -->
<g id="edge12" class="edge"><title>Node2&#45;&gt;Node13</title>
<path fill="none" stroke="midnightblue" d="M854.426,-179.376C888.746,-161.902 963.544,-123.891 966.5,-123 1095.92,-83.9982 1136.35,-115.443 1268.5,-87 1272.44,-86.1521 1276.52,-85.1105 1280.56,-83.9781"/>
<polygon fill="midnightblue" stroke="midnightblue" points="1281.8,-87.2589 1290.38,-81.0346 1279.79,-80.5538 1281.8,-87.2589"/>
</g>
<!-- Node14 -->
<g id="node14" class="node"><title>Node14</title>
<g id="a_node14"><a xlink:href="model_8h.xhtml" target="_top" xlink:title="Wrapper Model classes for the MEF data. ">
<polygon fill="white" stroke="black" points="724.5,-123.5 724.5,-142.5 780.5,-142.5 780.5,-123.5 724.5,-123.5"/>
<text text-anchor="middle" x="752.5" y="-130.5" font-family="Helvetica,sans-Serif" font-size="10.00">model.h</text>
</a>
</g>
</g>
<!-- Node2&#45;&gt;Node14 -->
<g id="edge13" class="edge"><title>Node2&#45;&gt;Node14</title>
<path fill="none" stroke="midnightblue" d="M823.843,-179.324C810.584,-170.9 790.232,-157.971 774.654,-148.074"/>
<polygon fill="midnightblue" stroke="midnightblue" points="776.44,-145.063 766.123,-142.655 772.687,-150.971 776.44,-145.063"/>
</g>
<!-- Node14&#45;&gt;Node4 -->
<g id="edge14" class="edge"><title>Node14&#45;&gt;Node4</title>
<path fill="none" stroke="midnightblue" d="M724.4,-129.656C701.332,-127.762 667.809,-125.079 638.5,-123 384.413,-104.976 315.432,-141.019 66.5,-87 63.4249,-86.3327 60.269,-85.4583 57.1535,-84.4693"/>
<polygon fill="midnightblue" stroke="midnightblue" points="58.0827,-81.085 47.4879,-81.0318 55.737,-87.6803 58.0827,-81.085"/>
</g>
<!-- Node14&#45;&gt;Node5 -->
<g id="edge16" class="edge"><title>Node14&#45;&gt;Node5</title>
<path fill="none" stroke="midnightblue" d="M724.394,-128.519C709.071,-126.701 689.762,-124.541 672.5,-123 431.154,-101.45 363.166,-147.369 128.5,-87 126.515,-86.4893 124.502,-85.8529 122.504,-85.134"/>
<polygon fill="midnightblue" stroke="midnightblue" points="123.422,-81.7222 112.849,-81.0512 120.696,-88.1695 123.422,-81.7222"/>
</g>
<!-- Node14&#45;&gt;Node6 -->
<g id="edge18" class="edge"><title>Node14&#45;&gt;Node6</title>
<path fill="none" stroke="midnightblue" d="M724.131,-125.352C719.591,-124.453 714.93,-123.626 710.5,-123 482.87,-90.8352 417.701,-142.053 194.5,-87 192.142,-86.4184 189.74,-85.6798 187.362,-84.8452"/>
<polygon fill="midnightblue" stroke="midnightblue" points="188.479,-81.5217 177.895,-81.0305 185.863,-88.0144 188.479,-81.5217"/>
</g>
<!-- Node14&#45;&gt;Node9 -->
<g id="edge23" class="edge"><title>Node14&#45;&gt;Node9</title>
<path fill="none" stroke="midnightblue" d="M780.68,-124.606C783.644,-123.99 786.624,-123.437 789.5,-123 1040.46,-84.8557 1111.95,-143.135 1359.5,-87 1362.33,-86.3574 1365.23,-85.5199 1368.1,-84.5712"/>
<polygon fill="midnightblue" stroke="midnightblue" points="1369.41,-87.8189 1377.55,-81.0402 1366.96,-81.2616 1369.41,-87.8189"/>
</g>
<!-- Node14&#45;&gt;Node11 -->
<g id="edge26" class="edge"><title>Node14&#45;&gt;Node11</title>
<path fill="none" stroke="midnightblue" d="M780.694,-124.69C783.655,-124.058 786.631,-123.478 789.5,-123 961.637,-94.2995 1009.64,-122.538 1180.5,-87 1184.38,-86.1939 1188.39,-85.1617 1192.34,-84.0203"/>
<polygon fill="midnightblue" stroke="midnightblue" points="1193.43,-87.3469 1201.93,-81.0242 1191.34,-80.6653 1193.43,-87.3469"/>
</g>
<!-- Node14&#45;&gt;Node13 -->
<g id="edge28" class="edge"><title>Node14&#45;&gt;Node13</title>
<path fill="none" stroke="midnightblue" d="M780.686,-124.641C783.648,-124.018 786.627,-123.454 789.5,-123 1000.37,-89.6593 1058.86,-127.359 1268.5,-87 1272.66,-86.1986 1276.98,-85.1472 1281.22,-83.9759"/>
<polygon fill="midnightblue" stroke="midnightblue" points="1282.31,-87.3027 1290.89,-81.0866 1280.31,-80.5957 1282.31,-87.3027"/>
</g>
<!-- Node15 -->
<g id="node15" class="node"><title>Node15</title>
<polygon fill="white" stroke="#bfbfbf" points="642,-62 642,-81 697,-81 697,-62 642,-62"/>
<text text-anchor="middle" x="669.5" y="-69" font-family="Helvetica,sans-Serif" font-size="10.00">optional</text>
</g>
<!-- Node14&#45;&gt;Node15 -->
<g id="edge15" class="edge"><title>Node14&#45;&gt;Node15</title>
<path fill="none" stroke="midnightblue" d="M740.608,-123.475C727.295,-113.931 705.5,-98.3073 689.543,-86.8683"/>
<polygon fill="midnightblue" stroke="midnightblue" points="691.536,-83.9908 681.37,-81.0091 687.458,-89.68 691.536,-83.9908"/>
</g>
<!-- Node16 -->
<g id="node16" class="node"><title>Node16</title>
<polygon fill="white" stroke="#bfbfbf" points="525.5,-0.5 525.5,-19.5 593.5,-19.5 593.5,-0.5 525.5,-0.5"/>
<text text-anchor="middle" x="559.5" y="-7.5" font-family="Helvetica,sans-Serif" font-size="10.00">type_traits</text>
</g>
<!-- Node14&#45;&gt;Node16 -->
<g id="edge17" class="edge"><title>Node14&#45;&gt;Node16</title>
<path fill="none" stroke="midnightblue" d="M724.098,-125.565C719.562,-124.638 714.912,-123.747 710.5,-123 646.907,-112.233 465.185,-135.353 422.5,-87 391.449,-51.8259 464.448,-29.547 515.372,-18.7556"/>
<polygon fill="midnightblue" stroke="midnightblue" points="516.124,-22.1744 525.225,-16.7501 514.728,-15.3151 516.124,-22.1744"/>
</g>
<!-- Node17 -->
<g id="node17" class="node"><title>Node17</title>
<polygon fill="white" stroke="#bfbfbf" points="883.5,-56.5 883.5,-86.5 1023.5,-86.5 1023.5,-56.5 883.5,-56.5"/>
<text text-anchor="start" x="891.5" y="-74.5" font-family="Helvetica,sans-Serif" font-size="10.00">boost/multi_index/hashed</text>
<text text-anchor="middle" x="953.5" y="-63.5" font-family="Helvetica,sans-Serif" font-size="10.00">_index.hpp</text>
</g>
<!-- Node14&#45;&gt;Node17 -->
<g id="edge19" class="edge"><title>Node14&#45;&gt;Node17</title>
<path fill="none" stroke="midnightblue" d="M780.872,-123.601C810.673,-114.78 858.358,-100.664 896.067,-89.5012"/>
<polygon fill="midnightblue" stroke="midnightblue" points="897.322,-92.7799 905.918,-86.5854 895.335,-86.0678 897.322,-92.7799"/>
</g>
<!-- Node18 -->
<g id="node18" class="node"><title>Node18</title>
<polygon fill="white" stroke="#bfbfbf" points="1041.5,-56.5 1041.5,-86.5 1171.5,-86.5 1171.5,-56.5 1041.5,-56.5"/>
<text text-anchor="start" x="1049.5" y="-74.5" font-family="Helvetica,sans-Serif" font-size="10.00">boost/multi_index/mem</text>
<text text-anchor="middle" x="1106.5" y="-63.5" font-family="Helvetica,sans-Serif" font-size="10.00">_fun.hpp</text>
</g>
<!-- Node14&#45;&gt;Node18 -->
<g id="edge20" class="edge"><title>Node14&#45;&gt;Node18</title>
<path fill="none" stroke="midnightblue" d="M780.723,-124.853C783.679,-124.189 786.645,-123.557 789.5,-123 893.516,-102.689 923.178,-105.322 1031.16,-87.1749"/>
<polygon fill="midnightblue" stroke="midnightblue" points="1031.89,-90.6019 1041.16,-85.4738 1030.71,-83.7012 1031.89,-90.6019"/>
</g>
<!-- Node19 -->
<g id="node19" class="node"><title>Node19</title>
<polygon fill="white" stroke="#bfbfbf" points="203.5,-62 203.5,-81 375.5,-81 375.5,-62 203.5,-62"/>
<text text-anchor="middle" x="289.5" y="-69" font-family="Helvetica,sans-Serif" font-size="10.00">boost/multi_index_container.hpp</text>
</g>
<!-- Node14&#45;&gt;Node19 -->
<g id="edge21" class="edge"><title>Node14&#45;&gt;Node19</title>
<path fill="none" stroke="midnightblue" d="M724.106,-125.516C719.569,-124.595 714.916,-123.719 710.5,-123 568.804,-99.9314 531.89,-105.303 389.5,-87 378.71,-85.613 367.279,-84.0471 356.151,-82.4703"/>
<polygon fill="midnightblue" stroke="midnightblue" points="356.439,-78.9759 346.044,-81.024 355.447,-85.9053 356.439,-78.9759"/>
</g>
<!-- Node14&#45;&gt;Node20 -->
<g id="edge22" class="edge"><title>Node14&#45;&gt;Node20</title>
<path fill="none" stroke="midnightblue" d="M764.833,-123.247C790.879,-104.942 851.019,-63.6772 874.5,-56 979.808,-21.5699 1322.56,-13.3012 1436.95,-11.4783"/>
<polygon fill="midnightblue" stroke="midnightblue" points="1437.04,-14.9775 1446.98,-11.3258 1436.93,-7.97832 1437.04,-14.9775"/>
</g>
<!-- Node21 -->
<g id="node21" class="node"><title>Node21</title>
<polygon fill="white" stroke="#bfbfbf" points="734.5,-0.5 734.5,-19.5 834.5,-19.5 834.5,-0.5 734.5,-0.5"/>
<text text-anchor="middle" x="784.5" y="-7.5" font-family="Helvetica,sans-Serif" font-size="10.00">QUndoCommand</text>
</g>
<!-- Node14&#45;&gt;Node21 -->
<g id="edge24" class="edge"><title>Node14&#45;&gt;Node21</title>
<path fill="none" stroke="midnightblue" d="M766.287,-123.189C777.326,-115.241 792.002,-102.447 798.5,-87 806.438,-68.131 799.94,-44.757 793.395,-28.9508"/>
<polygon fill="midnightblue" stroke="midnightblue" points="796.555,-27.4432 789.238,-19.7801 790.179,-30.3331 796.555,-27.4432"/>
</g>
<!-- Node22 -->
<g id="node22" class="node"><title>Node22</title>
<polygon fill="white" stroke="#bfbfbf" points="431.5,-62 431.5,-81 489.5,-81 489.5,-62 431.5,-62"/>
<text text-anchor="middle" x="460.5" y="-69" font-family="Helvetica,sans-Serif" font-size="10.00">QVariant</text>
</g>
<!-- Node14&#45;&gt;Node22 -->
<g id="edge25" class="edge"><title>Node14&#45;&gt;Node22</title>
<path fill="none" stroke="midnightblue" d="M724.067,-125.735C719.536,-124.786 714.894,-123.843 710.5,-123 616.643,-104.983 590.701,-112.157 498.5,-87 495.845,-86.2757 493.118,-85.4359 490.403,-84.5326"/>
<polygon fill="midnightblue" stroke="midnightblue" points="491.36,-81.1577 480.766,-81.0756 488.997,-87.7466 491.36,-81.1577"/>
</g>
<!-- Node23 -->
<g id="node23" class="node"><title>Node23</title>
<polygon fill="white" stroke="#bfbfbf" points="507.5,-62 507.5,-81 623.5,-81 623.5,-62 507.5,-62"/>
<text text-anchor="middle" x="565.5" y="-69" font-family="Helvetica,sans-Serif" font-size="10.00">src/ext/multi_index.h</text>
</g>
<!-- Node14&#45;&gt;Node23 -->
<g id="edge27" class="edge"><title>Node14&#45;&gt;Node23</title>
<path fill="none" stroke="midnightblue" d="M725.707,-123.475C693.214,-113.136 638.292,-95.6611 601.962,-84.1017"/>
<polygon fill="midnightblue" stroke="midnightblue" points="602.833,-80.7059 592.243,-81.0091 600.711,-87.3764 602.833,-80.7059"/>
</g>
<!-- Node24 -->
<g id="node24" class="node"><title>Node24</title>
<g id="a_node24"><a xlink:href="command_8h.xhtml" target="_top" xlink:title="Undo&#45;redo helper facilities based on the Qt Undo framework. ">
<polygon fill="white" stroke="black" points="715.5,-62 715.5,-81 789.5,-81 789.5,-62 715.5,-62"/>
<text text-anchor="middle" x="752.5" y="-69" font-family="Helvetica,sans-Serif" font-size="10.00">command.h</text>
</a>
</g>
</g>
<!-- Node14&#45;&gt;Node24 -->
<g id="edge29" class="edge"><title>Node14&#45;&gt;Node24</title>
<path fill="none" stroke="midnightblue" d="M752.5,-123.475C752.5,-115.08 752.5,-101.981 752.5,-91.1631"/>
<polygon fill="midnightblue" stroke="midnightblue" points="756,-91.0091 752.5,-81.0091 749,-91.0091 756,-91.0091"/>
</g>
<!-- Node14&#45;&gt;Node25 -->
<g id="edge32" class="edge"><title>Node14&#45;&gt;Node25</title>
<path fill="none" stroke="midnightblue" d="M780.677,-124.585C783.641,-123.973 786.623,-123.427 789.5,-123 1071.75,-81.1057 1150.15,-140.11 1430.5,-87 1434.48,-86.2468 1438.59,-85.2296 1442.63,-84.0812"/>
<polygon fill="midnightblue" stroke="midnightblue" points="1443.91,-87.349 1452.41,-81.0323 1441.83,-80.666 1443.91,-87.349"/>
</g>
<!-- Node24&#45;&gt;Node16 -->
<g id="edge30" class="edge"><title>Node24&#45;&gt;Node16</title>
<path fill="none" stroke="midnightblue" d="M724.665,-61.9114C718.363,-59.9672 711.702,-57.9124 705.5,-56 668.656,-44.6387 626.581,-31.671 597.094,-22.5842"/>
<polygon fill="midnightblue" stroke="midnightblue" points="597.806,-19.1411 587.218,-19.5409 595.744,-25.8307 597.806,-19.1411"/>
</g>
<!-- Node24&#45;&gt;Node21 -->
<g id="edge31" class="edge"><title>Node24&#45;&gt;Node21</title>
<path fill="none" stroke="midnightblue" d="M757.085,-61.9751C761.742,-53.3152 769.092,-39.6486 775.01,-28.6453"/>
<polygon fill="midnightblue" stroke="midnightblue" points="778.27,-29.974 779.924,-19.5091 772.105,-26.6584 778.27,-29.974"/>
</g>
<!-- Node25&#45;&gt;Node20 -->
<g id="edge33" class="edge"><title>Node25&#45;&gt;Node20</title>
<path fill="none" stroke="midnightblue" d="M1474.5,-61.9751C1474.5,-53.5803 1474.5,-40.4806 1474.5,-29.6631"/>
<polygon fill="midnightblue" stroke="midnightblue" points="1478,-29.5091 1474.5,-19.5091 1471,-29.5091 1478,-29.5091"/>
</g>
<!-- Node37&#45;&gt;Node9 -->
<g id="edge51" class="edge"><title>Node37&#45;&gt;Node9</title>
<path fill="none" stroke="midnightblue" d="M1317.46,-181.647C1276.95,-172.709 1218.58,-153.96 1241.5,-123 1274.13,-78.9335 1307.8,-105.26 1359.5,-87 1361.41,-86.3268 1363.36,-85.6123 1365.32,-84.8754"/>
<polygon fill="midnightblue" stroke="midnightblue" points="1367,-87.9772 1375.06,-81.0916 1364.47,-81.4529 1367,-87.9772"/>
</g>
<!-- Node38 -->
<g id="node38" class="node"><title>Node38</title>
<polygon fill="white" stroke="#bfbfbf" points="1251,-123.5 1251,-142.5 1336,-142.5 1336,-123.5 1251,-123.5"/>
<text text-anchor="middle" x="1293.5" y="-130.5" font-family="Helvetica,sans-Serif" font-size="10.00">QMessageBox</text>
</g>
<!-- Node37&#45;&gt;Node38 -->
<g id="edge50" class="edge"><title>Node37&#45;&gt;Node38</title>
<path fill="none" stroke="midnightblue" d="M1343.02,-179.324C1334.3,-171.341 1321.16,-159.313 1310.6,-149.653"/>
<polygon fill="midnightblue" stroke="midnightblue" points="1312.89,-147.004 1303.15,-142.834 1308.17,-152.167 1312.89,-147.004"/>
</g>
<!-- Node39 -->
<g id="node39" class="node"><title>Node39</title>
<polygon fill="white" stroke="#bfbfbf" points="1354.5,-123.5 1354.5,-142.5 1470.5,-142.5 1470.5,-123.5 1354.5,-123.5"/>
<text text-anchor="middle" x="1412.5" y="-130.5" font-family="Helvetica,sans-Serif" font-size="10.00">src/ext/source_info.h</text>
</g>
<!-- Node37&#45;&gt;Node39 -->
<g id="edge52" class="edge"><title>Node37&#45;&gt;Node39</title>
<path fill="none" stroke="midnightblue" d="M1362.14,-179.324C1371.01,-171.341 1384.37,-159.313 1395.11,-149.653"/>
<polygon fill="midnightblue" stroke="midnightblue" points="1397.59,-152.125 1402.68,-142.834 1392.91,-146.922 1397.59,-152.125"/>
</g>
<!-- Node41 -->
<g id="node41" class="node"><title>Node41</title>
<polygon fill="white" stroke="#bfbfbf" points="2856.5,-123.5 2856.5,-142.5 2922.5,-142.5 2922.5,-123.5 2856.5,-123.5"/>
<text text-anchor="middle" x="2889.5" y="-130.5" font-family="Helvetica,sans-Serif" font-size="10.00">QValidator</text>
</g>
<!-- Node40&#45;&gt;Node41 -->
<g id="edge55" class="edge"><title>Node40&#45;&gt;Node41</title>
<path fill="none" stroke="midnightblue" d="M2889.5,-179.083C2889.5,-172.006 2889.5,-161.861 2889.5,-152.986"/>
<polygon fill="midnightblue" stroke="midnightblue" points="2893,-152.751 2889.5,-142.751 2886,-152.751 2893,-152.751"/>
</g>
</g>
</svg>
