<?xml version="1.0" encoding="UTF-8" standalone="no"?>
<!DOCTYPE svg PUBLIC "-//W3C//DTD SVG 1.1//EN"
 "http://www.w3.org/Graphics/SVG/1.1/DTD/svg11.dtd">
<!-- Generated by graphviz version 2.38.0 (20140413.2041)
 -->
<!-- Title: eventdialog.h Pages: 1 -->
<!--zoomable 207 -->
<svg id="main" version="1.1" xmlns="http://www.w3.org/2000/svg" xmlns:xlink="http://www.w3.org/1999/xlink" xml:space="preserve" onload="init(evt)">
<style type="text/css"><![CDATA[
.edge:hover path { stroke: red; }
.edge:hover polygon { stroke: red; fill: red; }
]]></style>
<script type="text/javascript"><![CDATA[
var edges = document.getElementsByTagName('g');
if (edges && edges.length) {
  for (var i=0;i<edges.length;i++) {
    if (edges[i].id.substr(0,4)=='edge') {
      edges[i].setAttribute('class','edge');
    }
  }
}
]]></script>
        <defs>
                <circle id="rim" cx="0" cy="0" r="7"/>
                <circle id="rim2" cx="0" cy="0" r="3.5"/>
                <g id="zoomPlus">
                        <use xlink:href="#rim" fill="#404040">
                                <set attributeName="fill" to="#808080" begin="zoomplus.mouseover" end="zoomplus.mouseout"/>
                        </use>
                        <path d="M-4,0h8M0,-4v8" fill="none" stroke="white" stroke-width="1.5" pointer-events="none"/>
                </g>
                <g id="zoomMin">
                        <use xlink:href="#rim" fill="#404040">
                                <set attributeName="fill" to="#808080" begin="zoomminus.mouseover" end="zoomminus.mouseout"/>
                        </use>
                        <path d="M-4,0h8" fill="none" stroke="white" stroke-width="1.5" pointer-events="none"/>
                </g>
                <g id="dirArrow">
                        <path fill="none" stroke="white" stroke-width="1.5" d="M0,-3.0v7 M-2.5,-0.5L0,-3.0L2.5,-0.5"/>
                </g>
               <g id="resetDef">
                       <use xlink:href="#rim2" fill="#404040">
                               <set attributeName="fill" to="#808080" begin="reset.mouseover" end="reset.mouseout"/>
                       </use>
               </g>
        </defs>

<script type="text/javascript">
var viewWidth = 1517;
var viewHeight = 207;
var sectionId = 'dynsection-0';
</script>
<script xlink:href="svgpan.js"/>
<svg id="graph" class="graph">
<g id="viewport">
<title>eventdialog.h</title>
<polygon fill="white" stroke="none" points="-4,4 -4,-203 1512.5,-203 1512.5,4 -4,4"/>
<!-- Node1 -->
<g id="node1" class="node"><title>Node1</title>
<polygon fill="#bfbfbf" stroke="black" points="340,-179.5 340,-198.5 421,-198.5 421,-179.5 340,-179.5"/>
<text text-anchor="middle" x="380.5" y="-186.5" font-family="Helvetica,sans-Serif" font-size="10.00">eventdialog.h</text>
</g>
<!-- Node2 -->
<g id="node2" class="node"><title>Node2</title>
<polygon fill="white" stroke="#bfbfbf" points="104,-123.5 104,-142.5 181,-142.5 181,-123.5 104,-123.5"/>
<text text-anchor="middle" x="142.5" y="-130.5" font-family="Helvetica,sans-Serif" font-size="10.00">initializer_list</text>
</g>
<!-- Node1&#45;&gt;Node2 -->
<g id="edge1" class="edge"><title>Node1&#45;&gt;Node2</title>
<path fill="none" stroke="midnightblue" d="M342.788,-179.444C301.357,-170.043 234.743,-154.929 189.833,-144.739"/>
<polygon fill="midnightblue" stroke="midnightblue" points="190.562,-141.316 180.035,-142.516 189.013,-148.142 190.562,-141.316"/>
</g>
<!-- Node3 -->
<g id="node3" class="node"><title>Node3</title>
<polygon fill="white" stroke="#bfbfbf" points="0,-62 0,-81 57,-81 57,-62 0,-62"/>
<text text-anchor="middle" x="28.5" y="-69" font-family="Helvetica,sans-Serif" font-size="10.00">memory</text>
</g>
<!-- Node1&#45;&gt;Node3 -->
<g id="edge2" class="edge"><title>Node1&#45;&gt;Node3</title>
<path fill="none" stroke="midnightblue" d="M340.511,-179.491C308.197,-171.921 261.932,-159.496 223.5,-143 207.39,-136.085 205.591,-129.96 189.5,-123 137.221,-100.388 120.485,-105.168 66.5,-87 64.2413,-86.2399 61.9177,-85.4282 59.5856,-84.5917"/>
<polygon fill="midnightblue" stroke="midnightblue" points="60.6881,-81.2678 50.0949,-81.0821 58.2602,-87.8333 60.6881,-81.2678"/>
</g>
<!-- Node4 -->
<g id="node4" class="node"><title>Node4</title>
<polygon fill="white" stroke="#bfbfbf" points="75.5,-62 75.5,-81 119.5,-81 119.5,-62 75.5,-62"/>
<text text-anchor="middle" x="97.5" y="-69" font-family="Helvetica,sans-Serif" font-size="10.00">string</text>
</g>
<!-- Node1&#45;&gt;Node4 -->
<g id="edge3" class="edge"><title>Node1&#45;&gt;Node4</title>
<path fill="none" stroke="midnightblue" d="M355.062,-179.402C330.714,-170.935 293.121,-157.235 261.5,-143 244.097,-135.165 240.9,-130.841 223.5,-123 182.334,-104.451 170.09,-104.578 128.5,-87 127.132,-86.4217 125.735,-85.8181 124.329,-85.1997"/>
<polygon fill="midnightblue" stroke="midnightblue" points="125.654,-81.9578 115.102,-81.0131 122.762,-88.3323 125.654,-81.9578"/>
</g>
<!-- Node5 -->
<g id="node5" class="node"><title>Node5</title>
<polygon fill="white" stroke="#bfbfbf" points="138,-62 138,-81 185,-81 185,-62 138,-62"/>
<text text-anchor="middle" x="161.5" y="-69" font-family="Helvetica,sans-Serif" font-size="10.00">vector</text>
</g>
<!-- Node1&#45;&gt;Node5 -->
<g id="edge4" class="edge"><title>Node1&#45;&gt;Node5</title>
<path fill="none" stroke="midnightblue" d="M365.181,-179.426C342.604,-166.837 299.011,-142.709 261.5,-123 236.791,-110.017 208.358,-95.7194 188.142,-85.6616"/>
<polygon fill="midnightblue" stroke="midnightblue" points="189.443,-82.4003 178.93,-81.0891 186.331,-88.6703 189.443,-82.4003"/>
</g>
<!-- Node6 -->
<g id="node6" class="node"><title>Node6</title>
<polygon fill="white" stroke="#bfbfbf" points="517.5,-123.5 517.5,-142.5 571.5,-142.5 571.5,-123.5 517.5,-123.5"/>
<text text-anchor="middle" x="544.5" y="-130.5" font-family="Helvetica,sans-Serif" font-size="10.00">QDialog</text>
</g>
<!-- Node1&#45;&gt;Node6 -->
<g id="edge5" class="edge"><title>Node1&#45;&gt;Node6</title>
<path fill="none" stroke="midnightblue" d="M406.486,-179.444C434.196,-170.32 478.252,-155.813 509.116,-145.651"/>
<polygon fill="midnightblue" stroke="midnightblue" points="510.232,-148.968 518.635,-142.516 508.042,-142.32 510.232,-148.968"/>
</g>
<!-- Node7 -->
<g id="node7" class="node"><title>Node7</title>
<polygon fill="white" stroke="#bfbfbf" points="589.5,-123.5 589.5,-142.5 661.5,-142.5 661.5,-123.5 589.5,-123.5"/>
<text text-anchor="middle" x="625.5" y="-130.5" font-family="Helvetica,sans-Serif" font-size="10.00">QStatusBar</text>
</g>
<!-- Node1&#45;&gt;Node7 -->
<g id="edge6" class="edge"><title>Node1&#45;&gt;Node7</title>
<path fill="none" stroke="midnightblue" d="M419.321,-179.444C462.724,-169.877 532.972,-154.394 579.202,-144.205"/>
<polygon fill="midnightblue" stroke="midnightblue" points="580.244,-147.559 589.257,-141.988 578.738,-140.723 580.244,-147.559"/>
</g>
<!-- Node8 -->
<g id="node8" class="node"><title>Node8</title>
<polygon fill="white" stroke="#bfbfbf" points="203,-62 203,-81 256,-81 256,-62 203,-62"/>
<text text-anchor="middle" x="229.5" y="-69" font-family="Helvetica,sans-Serif" font-size="10.00">QString</text>
</g>
<!-- Node1&#45;&gt;Node8 -->
<g id="edge7" class="edge"><title>Node1&#45;&gt;Node8</title>
<path fill="none" stroke="midnightblue" d="M370.15,-179.413C354.879,-166.806 325.325,-142.657 299.5,-123 283.165,-110.567 264.267,-96.9788 250.228,-87.0327"/>
<polygon fill="midnightblue" stroke="midnightblue" points="251.967,-83.9767 241.779,-81.0712 247.932,-89.6963 251.967,-83.9767"/>
</g>
<!-- Node9 -->
<g id="node9" class="node"><title>Node9</title>
<polygon fill="white" stroke="#bfbfbf" points="680,-123.5 680,-142.5 775,-142.5 775,-123.5 680,-123.5"/>
<text text-anchor="middle" x="727.5" y="-130.5" font-family="Helvetica,sans-Serif" font-size="10.00">ui_eventdialog.h</text>
</g>
<!-- Node1&#45;&gt;Node9 -->
<g id="edge8" class="edge"><title>Node1&#45;&gt;Node9</title>
<path fill="none" stroke="midnightblue" d="M421.328,-181.7C475.55,-173.325 574.59,-158 669.822,-143.103"/>
<polygon fill="midnightblue" stroke="midnightblue" points="670.577,-146.527 679.916,-141.523 669.495,-139.611 670.577,-146.527"/>
</g>
<!-- Node10 -->
<g id="node10" class="node"><title>Node10</title>
<polygon fill="white" stroke="#bfbfbf" points="274.5,-62 274.5,-81 344.5,-81 344.5,-62 274.5,-62"/>
<text text-anchor="middle" x="309.5" y="-69" font-family="Helvetica,sans-Serif" font-size="10.00">src/event.h</text>
</g>
<!-- Node1&#45;&gt;Node10 -->
<g id="edge9" class="edge"><title>Node1&#45;&gt;Node10</title>
<path fill="none" stroke="midnightblue" d="M375.163,-179.319C363.548,-160.422 335.778,-115.248 320.332,-90.1206"/>
<polygon fill="midnightblue" stroke="midnightblue" points="323.117,-87.9682 314.898,-81.282 317.154,-91.6341 323.117,-87.9682"/>
</g>
<!-- Node11 -->
<g id="node11" class="node"><title>Node11</title>
<polygon fill="white" stroke="#bfbfbf" points="793,-123.5 793,-142.5 888,-142.5 888,-123.5 793,-123.5"/>
<text text-anchor="middle" x="840.5" y="-130.5" font-family="Helvetica,sans-Serif" font-size="10.00">src/expression.h</text>
</g>
<!-- Node1&#45;&gt;Node11 -->
<g id="edge10" class="edge"><title>Node1&#45;&gt;Node11</title>
<path fill="none" stroke="midnightblue" d="M421.006,-184.144C492.16,-177.227 644.453,-161.788 782.92,-143.163"/>
<polygon fill="midnightblue" stroke="midnightblue" points="783.424,-146.627 792.864,-141.817 782.485,-139.69 783.424,-146.627"/>
</g>
<!-- Node12 -->
<g id="node12" class="node"><title>Node12</title>
<polygon fill="white" stroke="#bfbfbf" points="363,-62 363,-81 436,-81 436,-62 363,-62"/>
<text text-anchor="middle" x="399.5" y="-69" font-family="Helvetica,sans-Serif" font-size="10.00">src/model.h</text>
</g>
<!-- Node1&#45;&gt;Node12 -->
<g id="edge11" class="edge"><title>Node1&#45;&gt;Node12</title>
<path fill="none" stroke="midnightblue" d="M381.928,-179.319C384.982,-160.757 392.206,-116.839 396.379,-91.4734"/>
<polygon fill="midnightblue" stroke="midnightblue" points="399.886,-91.7175 398.055,-81.282 392.978,-90.5812 399.886,-91.7175"/>
</g>
<!-- Node13 -->
<g id="node13" class="node"><title>Node13</title>
<g id="a_node13"><a xlink:href="model_8h.xhtml" target="_top" xlink:title="Wrapper Model classes for the MEF data. ">
<polygon fill="white" stroke="black" points="443.5,-123.5 443.5,-142.5 499.5,-142.5 499.5,-123.5 443.5,-123.5"/>
<text text-anchor="middle" x="471.5" y="-130.5" font-family="Helvetica,sans-Serif" font-size="10.00">model.h</text>
</a>
</g>
</g>
<!-- Node1&#45;&gt;Node13 -->
<g id="edge12" class="edge"><title>Node1&#45;&gt;Node13</title>
<path fill="none" stroke="midnightblue" d="M395.121,-179.324C409.449,-170.822 431.513,-157.729 448.249,-147.797"/>
<polygon fill="midnightblue" stroke="midnightblue" points="450.102,-150.768 456.916,-142.655 446.53,-144.748 450.102,-150.768"/>
</g>
<!-- Node13&#45;&gt;Node3 -->
<g id="edge13" class="edge"><title>Node13&#45;&gt;Node3</title>
<path fill="none" stroke="midnightblue" d="M443.087,-131.312C376.405,-129.165 205.047,-120.551 66.5,-87 63.6691,-86.3144 60.7639,-85.4734 57.8818,-84.5446"/>
<polygon fill="midnightblue" stroke="midnightblue" points="58.9084,-81.1951 48.3136,-81.1483 56.5667,-87.7919 58.9084,-81.1951"/>
</g>
<!-- Node13&#45;&gt;Node4 -->
<g id="edge15" class="edge"><title>Node13&#45;&gt;Node4</title>
<path fill="none" stroke="midnightblue" d="M443.34,-131.213C383.969,-128.928 242.077,-120.15 128.5,-87 126.618,-86.4506 124.706,-85.802 122.803,-85.0887"/>
<polygon fill="midnightblue" stroke="midnightblue" points="124.116,-81.8439 113.544,-81.1451 121.373,-88.284 124.116,-81.8439"/>
</g>
<!-- Node13&#45;&gt;Node5 -->
<g id="edge17" class="edge"><title>Node13&#45;&gt;Node5</title>
<path fill="none" stroke="midnightblue" d="M443.328,-129.919C392.492,-125.621 282.437,-113.827 193.5,-87 191.573,-86.4187 189.611,-85.7464 187.655,-85.0161"/>
<polygon fill="midnightblue" stroke="midnightblue" points="188.693,-81.6568 178.117,-81.0352 185.997,-88.1168 188.693,-81.6568"/>
</g>
<!-- Node13&#45;&gt;Node8 -->
<g id="edge22" class="edge"><title>Node13&#45;&gt;Node8</title>
<path fill="none" stroke="midnightblue" d="M443.461,-127.416C403.461,-120.532 327.945,-106.247 265.5,-87 263.218,-86.2967 260.878,-85.5102 258.54,-84.6772"/>
<polygon fill="midnightblue" stroke="midnightblue" points="259.682,-81.3669 249.091,-81.0834 257.193,-87.9097 259.682,-81.3669"/>
</g>
<!-- Node13&#45;&gt;Node10 -->
<g id="edge25" class="edge"><title>Node13&#45;&gt;Node10</title>
<path fill="none" stroke="midnightblue" d="M448.289,-123.475C420.501,-113.269 373.777,-96.108 342.306,-84.5492"/>
<polygon fill="midnightblue" stroke="midnightblue" points="343.261,-81.1714 332.668,-81.0091 340.848,-87.7422 343.261,-81.1714"/>
</g>
<!-- Node13&#45;&gt;Node12 -->
<g id="edge27" class="edge"><title>Node13&#45;&gt;Node12</title>
<path fill="none" stroke="midnightblue" d="M461.184,-123.475C449.849,-114.108 431.427,-98.8839 417.661,-87.5081"/>
<polygon fill="midnightblue" stroke="midnightblue" points="419.735,-84.6813 409.797,-81.0091 415.276,-90.0773 419.735,-84.6813"/>
</g>
<!-- Node14 -->
<g id="node14" class="node"><title>Node14</title>
<polygon fill="white" stroke="#bfbfbf" points="789,-62 789,-81 844,-81 844,-62 789,-62"/>
<text text-anchor="middle" x="816.5" y="-69" font-family="Helvetica,sans-Serif" font-size="10.00">optional</text>
</g>
<!-- Node13&#45;&gt;Node14 -->
<g id="edge14" class="edge"><title>Node13&#45;&gt;Node14</title>
<path fill="none" stroke="midnightblue" d="M499.715,-124.809C502.672,-124.154 505.641,-123.536 508.5,-123 627.922,-100.61 661.859,-117.388 779.5,-87 782.164,-86.312 784.895,-85.4865 787.609,-84.583"/>
<polygon fill="midnightblue" stroke="midnightblue" points="789.014,-87.7959 797.205,-81.076 786.611,-81.2212 789.014,-87.7959"/>
</g>
<!-- Node15 -->
<g id="node15" class="node"><title>Node15</title>
<polygon fill="white" stroke="#bfbfbf" points="845.5,-0.5 845.5,-19.5 913.5,-19.5 913.5,-0.5 845.5,-0.5"/>
<text text-anchor="middle" x="879.5" y="-7.5" font-family="Helvetica,sans-Serif" font-size="10.00">type_traits</text>
</g>
<!-- Node13&#45;&gt;Node15 -->
<g id="edge16" class="edge"><title>Node13&#45;&gt;Node15</title>
<path fill="none" stroke="midnightblue" d="M499.7,-124.726C502.66,-124.087 505.634,-123.496 508.5,-123 584.455,-109.861 793.204,-135.023 853.5,-87 870.762,-73.2515 876.618,-47.459 878.573,-29.7665"/>
<polygon fill="midnightblue" stroke="midnightblue" points="882.066,-29.992 879.364,-19.7474 875.088,-29.4407 882.066,-29.992"/>
</g>
<!-- Node16 -->
<g id="node16" class="node"><title>Node16</title>
<polygon fill="white" stroke="#bfbfbf" points="1030.5,-56.5 1030.5,-86.5 1170.5,-86.5 1170.5,-56.5 1030.5,-56.5"/>
<text text-anchor="start" x="1038.5" y="-74.5" font-family="Helvetica,sans-Serif" font-size="10.00">boost/multi_index/hashed</text>
<text text-anchor="middle" x="1100.5" y="-63.5" font-family="Helvetica,sans-Serif" font-size="10.00">_index.hpp</text>
</g>
<!-- Node13&#45;&gt;Node16 -->
<g id="edge18" class="edge"><title>Node13&#45;&gt;Node16</title>
<path fill="none" stroke="midnightblue" d="M499.684,-124.628C502.647,-124.008 505.626,-123.448 508.5,-123 732.142,-88.1289 791.807,-114.285 1016.5,-87 1017.78,-86.8445 1019.07,-86.6827 1020.37,-86.5153"/>
<polygon fill="midnightblue" stroke="midnightblue" points="1021.02,-89.9592 1030.45,-85.132 1020.07,-83.0242 1021.02,-89.9592"/>
</g>
<!-- Node17 -->
<g id="node17" class="node"><title>Node17</title>
<polygon fill="white" stroke="#bfbfbf" points="1188.5,-56.5 1188.5,-86.5 1318.5,-86.5 1318.5,-56.5 1188.5,-56.5"/>
<text text-anchor="start" x="1196.5" y="-74.5" font-family="Helvetica,sans-Serif" font-size="10.00">boost/multi_index/mem</text>
<text text-anchor="middle" x="1253.5" y="-63.5" font-family="Helvetica,sans-Serif" font-size="10.00">_fun.hpp</text>
</g>
<!-- Node13&#45;&gt;Node17 -->
<g id="edge19" class="edge"><title>Node13&#45;&gt;Node17</title>
<path fill="none" stroke="midnightblue" d="M499.676,-124.577C502.641,-123.967 505.622,-123.423 508.5,-123 800.651,-80.0091 881.32,-122.82 1178.02,-87.0568"/>
<polygon fill="midnightblue" stroke="midnightblue" points="1178.71,-90.498 1188.21,-85.8075 1177.86,-83.55 1178.71,-90.498"/>
</g>
<!-- Node18 -->
<g id="node18" class="node"><title>Node18</title>
<polygon fill="white" stroke="#bfbfbf" points="1336.5,-62 1336.5,-81 1508.5,-81 1508.5,-62 1336.5,-62"/>
<text text-anchor="middle" x="1422.5" y="-69" font-family="Helvetica,sans-Serif" font-size="10.00">boost/multi_index_container.hpp</text>
</g>
<!-- Node13&#45;&gt;Node18 -->
<g id="edge20" class="edge"><title>Node13&#45;&gt;Node18</title>
<path fill="none" stroke="midnightblue" d="M499.672,-124.549C502.637,-123.944 505.62,-123.41 508.5,-123 869.222,-71.6996 964.886,-122.539 1327.5,-87 1339.06,-85.8672 1351.35,-84.2784 1363.13,-82.5653"/>
<polygon fill="midnightblue" stroke="midnightblue" points="1363.95,-85.982 1373.32,-81.0362 1362.91,-79.0596 1363.95,-85.982"/>
</g>
<!-- Node19 -->
<g id="node19" class="node"><title>Node19</title>
<polygon fill="white" stroke="#bfbfbf" points="492,-0.5 492,-19.5 547,-19.5 547,-0.5 492,-0.5"/>
<text text-anchor="middle" x="519.5" y="-7.5" font-family="Helvetica,sans-Serif" font-size="10.00">QObject</text>
</g>
<!-- Node13&#45;&gt;Node19 -->
<g id="edge21" class="edge"><title>Node13&#45;&gt;Node19</title>
<path fill="none" stroke="midnightblue" d="M490.796,-123.48C504.929,-116.081 523.057,-103.887 531.5,-87 540.615,-68.7705 534.602,-45.2737 528.256,-29.2639"/>
<polygon fill="midnightblue" stroke="midnightblue" points="531.401,-27.7202 524.193,-19.9549 524.985,-30.5201 531.401,-27.7202"/>
</g>
<!-- Node20 -->
<g id="node20" class="node"><title>Node20</title>
<polygon fill="white" stroke="#bfbfbf" points="945.5,-0.5 945.5,-19.5 1045.5,-19.5 1045.5,-0.5 945.5,-0.5"/>
<text text-anchor="middle" x="995.5" y="-7.5" font-family="Helvetica,sans-Serif" font-size="10.00">QUndoCommand</text>
</g>
<!-- Node13&#45;&gt;Node20 -->
<g id="edge23" class="edge"><title>Node13&#45;&gt;Node20</title>
<path fill="none" stroke="midnightblue" d="M499.686,-124.643C502.649,-124.02 505.627,-123.455 508.5,-123 560.777,-114.718 944.59,-122.881 983.5,-87 998.966,-72.7376 999.944,-47.2576 998.407,-29.7615"/>
<polygon fill="midnightblue" stroke="midnightblue" points="1001.85,-29.1136 997.16,-19.615 994.906,-29.9672 1001.85,-29.1136"/>
</g>
<!-- Node21 -->
<g id="node21" class="node"><title>Node21</title>
<polygon fill="white" stroke="#bfbfbf" points="578.5,-62 578.5,-81 636.5,-81 636.5,-62 578.5,-62"/>
<text text-anchor="middle" x="607.5" y="-69" font-family="Helvetica,sans-Serif" font-size="10.00">QVariant</text>
</g>
<!-- Node13&#45;&gt;Node21 -->
<g id="edge24" class="edge"><title>Node13&#45;&gt;Node21</title>
<path fill="none" stroke="midnightblue" d="M490.985,-123.475C513.91,-113.445 552.185,-96.7002 578.575,-85.1546"/>
<polygon fill="midnightblue" stroke="midnightblue" points="580.292,-88.2239 588.051,-81.0091 577.486,-81.8108 580.292,-88.2239"/>
</g>
<!-- Node22 -->
<g id="node22" class="node"><title>Node22</title>
<polygon fill="white" stroke="#bfbfbf" points="654.5,-62 654.5,-81 770.5,-81 770.5,-62 654.5,-62"/>
<text text-anchor="middle" x="712.5" y="-69" font-family="Helvetica,sans-Serif" font-size="10.00">src/ext/multi_index.h</text>
</g>
<!-- Node13&#45;&gt;Node22 -->
<g id="edge26" class="edge"><title>Node13&#45;&gt;Node22</title>
<path fill="none" stroke="midnightblue" d="M499.617,-125.058C541.088,-114.82 619.041,-95.5738 668.233,-83.4289"/>
<polygon fill="midnightblue" stroke="midnightblue" points="669.1,-86.8201 677.97,-81.0251 667.422,-80.0242 669.1,-86.8201"/>
</g>
<!-- Node23 -->
<g id="node23" class="node"><title>Node23</title>
<g id="a_node23"><a xlink:href="command_8h.xhtml" target="_top" xlink:title="Undo&#45;redo helper facilities based on the Qt Undo framework. ">
<polygon fill="white" stroke="black" points="900.5,-62 900.5,-81 974.5,-81 974.5,-62 900.5,-62"/>
<text text-anchor="middle" x="937.5" y="-69" font-family="Helvetica,sans-Serif" font-size="10.00">command.h</text>
</a>
</g>
</g>
<!-- Node13&#45;&gt;Node23 -->
<g id="edge28" class="edge"><title>Node13&#45;&gt;Node23</title>
<path fill="none" stroke="midnightblue" d="M499.695,-124.7C502.656,-124.066 505.632,-123.483 508.5,-123 674.919,-94.9844 720.65,-118.205 886.5,-87 891.28,-86.1006 896.26,-84.9546 901.154,-83.7022"/>
<polygon fill="midnightblue" stroke="midnightblue" points="902.255,-87.0299 910.985,-81.027 900.417,-80.2755 902.255,-87.0299"/>
</g>
<!-- Node24 -->
<g id="node24" class="node"><title>Node24</title>
<g id="a_node24"><a xlink:href="translate_8h.xhtml" target="_top" xlink:title="Translation helper facilities to workaround Qt Linguist shortcomings. ">
<polygon fill="white" stroke="black" points="454.5,-62 454.5,-81 522.5,-81 522.5,-62 454.5,-62"/>
<text text-anchor="middle" x="488.5" y="-69" font-family="Helvetica,sans-Serif" font-size="10.00">translate.h</text>
</a>
</g>
</g>
<!-- Node13&#45;&gt;Node24 -->
<g id="edge31" class="edge"><title>Node13&#45;&gt;Node24</title>
<path fill="none" stroke="midnightblue" d="M473.936,-123.475C476.359,-114.992 480.156,-101.704 483.265,-90.8222"/>
<polygon fill="midnightblue" stroke="midnightblue" points="486.687,-91.5859 486.069,-81.0091 479.956,-89.6628 486.687,-91.5859"/>
</g>
<!-- Node23&#45;&gt;Node15 -->
<g id="edge29" class="edge"><title>Node23&#45;&gt;Node15</title>
<path fill="none" stroke="midnightblue" d="M929.19,-61.9751C920.318,-52.8733 906.054,-38.241 895.08,-26.983"/>
<polygon fill="midnightblue" stroke="midnightblue" points="897.281,-24.2268 887.795,-19.5091 892.269,-29.113 897.281,-24.2268"/>
</g>
<!-- Node23&#45;&gt;Node20 -->
<g id="edge30" class="edge"><title>Node23&#45;&gt;Node20</title>
<path fill="none" stroke="midnightblue" d="M945.81,-61.9751C954.682,-52.8733 968.946,-38.241 979.92,-26.983"/>
<polygon fill="midnightblue" stroke="midnightblue" points="982.731,-29.113 987.205,-19.5091 977.719,-24.2268 982.731,-29.113"/>
</g>
<!-- Node24&#45;&gt;Node19 -->
<g id="edge32" class="edge"><title>Node24&#45;&gt;Node19</title>
<path fill="none" stroke="midnightblue" d="M492.942,-61.9751C497.453,-53.3152 504.574,-39.6486 510.307,-28.6453"/>
<polygon fill="midnightblue" stroke="midnightblue" points="513.55,-29.9948 515.067,-19.5091 507.342,-26.7604 513.55,-29.9948"/>
</g>
</g>
</svg>
        <g id="navigator" transform="translate(0 0)" fill="#404254">
                <rect fill="#f2f5e9" fill-opacity="0.5" stroke="#606060" stroke-width=".5" x="0" y="0" width="60" height="60"/>
                <use id="zoomplus" xlink:href="#zoomPlus" x="17" y="9" onmousedown="handleZoom(evt,'in')"/>
                <use id="zoomminus" xlink:href="#zoomMin" x="42" y="9" onmousedown="handleZoom(evt,'out')"/>
                <use id="reset" xlink:href="#resetDef" x="30" y="36" onmousedown="handleReset()"/>
                <g id="arrowUp" xlink:href="#dirArrow" transform="translate(30 24)" onmousedown="handlePan(0,-1)">
                  <use xlink:href="#rim" fill="#404040">
                        <set attributeName="fill" to="#808080" begin="arrowUp.mouseover" end="arrowUp.mouseout"/>
                  </use>
                  <path fill="none" stroke="white" stroke-width="1.5" d="M0,-3.0v7 M-2.5,-0.5L0,-3.0L2.5,-0.5"/>
                </g>
                <g id="arrowRight" xlink:href="#dirArrow" transform="rotate(90) translate(36 -43)" onmousedown="handlePan(1,0)">
                  <use xlink:href="#rim" fill="#404040">
                        <set attributeName="fill" to="#808080" begin="arrowRight.mouseover" end="arrowRight.mouseout"/>
                  </use>
                  <path fill="none" stroke="white" stroke-width="1.5" d="M0,-3.0v7 M-2.5,-0.5L0,-3.0L2.5,-0.5"/>
                </g>
                <g id="arrowDown" xlink:href="#dirArrow" transform="rotate(180) translate(-30 -48)" onmousedown="handlePan(0,1)">
                  <use xlink:href="#rim" fill="#404040">
                        <set attributeName="fill" to="#808080" begin="arrowDown.mouseover" end="arrowDown.mouseout"/>
                  </use>
                  <path fill="none" stroke="white" stroke-width="1.5" d="M0,-3.0v7 M-2.5,-0.5L0,-3.0L2.5,-0.5"/>
                </g>
                <g id="arrowLeft" xlink:href="#dirArrow" transform="rotate(270) translate(-36 17)" onmousedown="handlePan(-1,0)">
                  <use xlink:href="#rim" fill="#404040">
                        <set attributeName="fill" to="#808080" begin="arrowLeft.mouseover" end="arrowLeft.mouseout"/>
                  </use>
                  <path fill="none" stroke="white" stroke-width="1.5" d="M0,-3.0v7 M-2.5,-0.5L0,-3.0L2.5,-0.5"/>
                </g>
        </g>
        <svg viewBox="0 0 15 15" width="100%" height="30px" preserveAspectRatio="xMaxYMin meet">
         <g id="arrow_out" transform="scale(0.3 0.3)">
          <a xlink:href="eventdialog_8h__incl_org.svg" target="_base">
           <rect id="button" ry="5" rx="5" y="6" x="6" height="38" width="38"
                fill="#f2f5e9" fill-opacity="0.5" stroke="#606060" stroke-width="1.0"/>
           <path id="arrow"
             d="M 11.500037,31.436501 C 11.940474,20.09759 22.043105,11.32322 32.158766,21.979434 L 37.068811,17.246167 C 37.068811,17.246167 37.088388,32 37.088388,32 L 22.160133,31.978069 C 22.160133,31.978069 26.997745,27.140456 26.997745,27.140456 C 18.528582,18.264221 13.291696,25.230495 11.500037,31.436501 z"
             style="fill:#404040;"/>
          </a>
         </g>
        </svg>
</svg>
