<?xml version="1.0" encoding="UTF-8" standalone="no"?>
<!DOCTYPE svg PUBLIC "-//W3C//DTD SVG 1.1//EN"
 "http://www.w3.org/Graphics/SVG/1.1/DTD/svg11.dtd">
<!-- Generated by graphviz version 2.38.0 (20140413.2041)
 -->
<!-- Title: importancetablemodel.cpp Pages: 1 -->
<svg width="4751pt" height="151pt"
 viewBox="0.00 0.00 4751.00 151.00" xmlns="http://www.w3.org/2000/svg" xmlns:xlink="http://www.w3.org/1999/xlink">
<g id="graph0" class="graph" transform="scale(1 1) rotate(0) translate(4 147)">
<title>importancetablemodel.cpp</title>
<polygon fill="white" stroke="none" points="-4,4 -4,-147 4747,-147 4747,4 -4,4"/>
<!-- Node1 -->
<g id="node1" class="node"><title>Node1</title>
<polygon fill="#bfbfbf" stroke="black" points="2233.5,-123.5 2233.5,-142.5 2379.5,-142.5 2379.5,-123.5 2233.5,-123.5"/>
<text text-anchor="middle" x="2306.5" y="-130.5" font-family="Helvetica,sans-Serif" font-size="10.00">importancetablemodel.cpp</text>
</g>
<!-- Node2 -->
<g id="node2" class="node"><title>Node2</title>
<g id="a_node2"><a xlink:href="importancetablemodel_8h.xhtml" target="_top" xlink:title="Table model for reporting importance factors. ">
<polygon fill="white" stroke="black" points="54.5,-62 54.5,-81 188.5,-81 188.5,-62 54.5,-62"/>
<text text-anchor="middle" x="121.5" y="-69" font-family="Helvetica,sans-Serif" font-size="10.00">importancetablemodel.h</text>
</a>
</g>
</g>
<!-- Node1&#45;&gt;Node2 -->
<g id="edge1" class="edge"><title>Node1&#45;&gt;Node2</title>
<path fill="none" stroke="midnightblue" d="M2233.38,-132.081C1909.8,-132.186 604.738,-129.889 197.5,-87 188.377,-86.0392 178.712,-84.559 169.444,-82.9049"/>
<polygon fill="midnightblue" stroke="midnightblue" points="170.061,-79.4597 159.588,-81.0582 168.772,-86.34 170.061,-79.4597"/>
</g>
<!-- Node3 -->
<g id="node3" class="node"><title>Node3</title>
<polygon fill="white" stroke="#bfbfbf" points="0,-0.5 0,-19.5 47,-19.5 47,-0.5 0,-0.5"/>
<text text-anchor="middle" x="23.5" y="-7.5" font-family="Helvetica,sans-Serif" font-size="10.00">vector</text>
</g>
<!-- Node1&#45;&gt;Node3 -->
<g id="edge5" class="edge"><title>Node1&#45;&gt;Node3</title>
<path fill="none" stroke="midnightblue" d="M2233.5,-131.728C1850.59,-130.154 89.9115,-121.076 45.5,-87 28.2541,-73.7677 23.923,-47.8532 23.1299,-29.9923"/>
<polygon fill="midnightblue" stroke="midnightblue" points="26.6283,-29.8242 23.0143,-19.8648 19.6287,-29.9041 26.6283,-29.8242"/>
</g>
<!-- Node6 -->
<g id="node6" class="node"><title>Node6</title>
<polygon fill="white" stroke="#bfbfbf" points="207,-62 207,-81 304,-81 304,-62 207,-62"/>
<text text-anchor="middle" x="255.5" y="-69" font-family="Helvetica,sans-Serif" font-size="10.00">/scram/src/bdd.h</text>
</g>
<!-- Node1&#45;&gt;Node6 -->
<g id="edge6" class="edge"><title>Node1&#45;&gt;Node6</title>
<path fill="none" stroke="midnightblue" d="M2233.23,-131.33C1896.46,-128.116 505.268,-113.346 312.5,-87 306.259,-86.147 299.716,-84.8632 293.379,-83.4057"/>
<polygon fill="midnightblue" stroke="midnightblue" points="294.211,-80.0059 283.664,-81.0093 292.534,-86.8023 294.211,-80.0059"/>
</g>
<!-- Node7 -->
<g id="node7" class="node"><title>Node7</title>
<polygon fill="white" stroke="#bfbfbf" points="322,-62 322,-81 369,-81 369,-62 322,-62"/>
<text text-anchor="middle" x="345.5" y="-69" font-family="Helvetica,sans-Serif" font-size="10.00">cmath</text>
</g>
<!-- Node1&#45;&gt;Node7 -->
<g id="edge7" class="edge"><title>Node1&#45;&gt;Node7</title>
<path fill="none" stroke="midnightblue" d="M2233.34,-131.974C1903.37,-131.63 561.735,-127.719 378.5,-87 375.988,-86.4417 373.431,-85.6886 370.909,-84.8177"/>
<polygon fill="midnightblue" stroke="midnightblue" points="372.105,-81.5261 361.521,-81.0377 369.49,-88.0195 372.105,-81.5261"/>
</g>
<!-- Node8 -->
<g id="node8" class="node"><title>Node8</title>
<polygon fill="white" stroke="#bfbfbf" points="387.5,-62 387.5,-81 449.5,-81 449.5,-62 387.5,-62"/>
<text text-anchor="middle" x="418.5" y="-69" font-family="Helvetica,sans-Serif" font-size="10.00">algorithm</text>
</g>
<!-- Node1&#45;&gt;Node8 -->
<g id="edge8" class="edge"><title>Node1&#45;&gt;Node8</title>
<path fill="none" stroke="midnightblue" d="M2233.5,-131.614C1912.52,-129.727 634.773,-120.181 458.5,-87 454.982,-86.3377 451.362,-85.4064 447.805,-84.3318"/>
<polygon fill="midnightblue" stroke="midnightblue" points="448.678,-80.9321 438.084,-81.0277 446.425,-87.5597 448.678,-80.9321"/>
</g>
<!-- Node9 -->
<g id="node9" class="node"><title>Node9</title>
<polygon fill="white" stroke="#bfbfbf" points="468,-62 468,-81 539,-81 539,-62 468,-62"/>
<text text-anchor="middle" x="503.5" y="-69" font-family="Helvetica,sans-Serif" font-size="10.00">forward_list</text>
</g>
<!-- Node1&#45;&gt;Node9 -->
<g id="edge9" class="edge"><title>Node1&#45;&gt;Node9</title>
<path fill="none" stroke="midnightblue" d="M2233.41,-131.391C1922.11,-128.624 715.059,-116.1 547.5,-87 543.31,-86.2723 538.974,-85.2266 534.73,-84.0254"/>
<polygon fill="midnightblue" stroke="midnightblue" points="535.7,-80.6614 525.111,-81.0166 533.61,-87.3422 535.7,-80.6614"/>
</g>
<!-- Node10 -->
<g id="node10" class="node"><title>Node10</title>
<polygon fill="white" stroke="#bfbfbf" points="557,-62 557,-81 614,-81 614,-62 557,-62"/>
<text text-anchor="middle" x="585.5" y="-69" font-family="Helvetica,sans-Serif" font-size="10.00">memory</text>
</g>
<!-- Node1&#45;&gt;Node10 -->
<g id="edge10" class="edge"><title>Node1&#45;&gt;Node10</title>
<path fill="none" stroke="midnightblue" d="M2233.44,-131.535C1930.5,-129.405 781.535,-119.256 622.5,-87 619.421,-86.3756 616.267,-85.5146 613.162,-84.521"/>
<polygon fill="midnightblue" stroke="midnightblue" points="614.156,-81.158 603.562,-81.0221 611.759,-87.7348 614.156,-81.158"/>
</g>
<!-- Node11 -->
<g id="node11" class="node"><title>Node11</title>
<polygon fill="white" stroke="#bfbfbf" points="632,-62 632,-81 725,-81 725,-62 632,-62"/>
<text text-anchor="middle" x="678.5" y="-69" font-family="Helvetica,sans-Serif" font-size="10.00">unordered_map</text>
</g>
<!-- Node1&#45;&gt;Node11 -->
<g id="edge11" class="edge"><title>Node1&#45;&gt;Node11</title>
<path fill="none" stroke="midnightblue" d="M2233.22,-132.128C1963.82,-132.254 1028.58,-129.542 733.5,-87 727.677,-86.1605 721.585,-84.9264 715.666,-83.5268"/>
<polygon fill="midnightblue" stroke="midnightblue" points="716.497,-80.1269 705.943,-81.0557 714.773,-86.9112 716.497,-80.1269"/>
</g>
<!-- Node12 -->
<g id="node12" class="node"><title>Node12</title>
<polygon fill="white" stroke="#bfbfbf" points="742.5,-62 742.5,-81 784.5,-81 784.5,-62 742.5,-62"/>
<text text-anchor="middle" x="763.5" y="-69" font-family="Helvetica,sans-Serif" font-size="10.00">utility</text>
</g>
<!-- Node1&#45;&gt;Node12 -->
<g id="edge12" class="edge"><title>Node1&#45;&gt;Node12</title>
<path fill="none" stroke="midnightblue" d="M2233.48,-131.619C1950.37,-129.896 933.892,-121.353 793.5,-87 791.519,-86.5153 789.515,-85.8892 787.532,-85.1698"/>
<polygon fill="midnightblue" stroke="midnightblue" points="788.557,-81.7988 777.991,-81.018 785.764,-88.2174 788.557,-81.7988"/>
</g>
<!-- Node13 -->
<g id="node13" class="node"><title>Node13</title>
<polygon fill="white" stroke="#bfbfbf" points="802.5,-62 802.5,-81 942.5,-81 942.5,-62 802.5,-62"/>
<text text-anchor="middle" x="872.5" y="-69" font-family="Helvetica,sans-Serif" font-size="10.00">boost/functional/hash.hpp</text>
</g>
<!-- Node1&#45;&gt;Node13 -->
<g id="edge13" class="edge"><title>Node1&#45;&gt;Node13</title>
<path fill="none" stroke="midnightblue" d="M2233.15,-131C1988.73,-127.44 1203.22,-114.129 951.5,-87 942.033,-85.9797 931.997,-84.4722 922.367,-82.8099"/>
<polygon fill="midnightblue" stroke="midnightblue" points="922.983,-79.3645 912.521,-81.0354 921.741,-86.2536 922.983,-79.3645"/>
</g>
<!-- Node14 -->
<g id="node14" class="node"><title>Node14</title>
<polygon fill="white" stroke="#bfbfbf" points="960.5,-62 960.5,-81 1088.5,-81 1088.5,-62 960.5,-62"/>
<text text-anchor="middle" x="1024.5" y="-69" font-family="Helvetica,sans-Serif" font-size="10.00">boost/noncopyable.hpp</text>
</g>
<!-- Node1&#45;&gt;Node14 -->
<g id="edge14" class="edge"><title>Node1&#45;&gt;Node14</title>
<path fill="none" stroke="midnightblue" d="M2233.24,-130.8C2006.67,-126.849 1319.28,-112.987 1097.5,-87 1089.01,-86.0057 1080.04,-84.5576 1071.4,-82.9565"/>
<polygon fill="midnightblue" stroke="midnightblue" points="1071.94,-79.4961 1061.46,-81.0247 1070.6,-86.3676 1071.94,-79.4961"/>
</g>
<!-- Node15 -->
<g id="node15" class="node"><title>Node15</title>
<polygon fill="white" stroke="#bfbfbf" points="1107,-56.5 1107,-86.5 1244,-86.5 1244,-56.5 1107,-56.5"/>
<text text-anchor="start" x="1115" y="-74.5" font-family="Helvetica,sans-Serif" font-size="10.00">boost/smart_ptr/intrusive</text>
<text text-anchor="middle" x="1175.5" y="-63.5" font-family="Helvetica,sans-Serif" font-size="10.00">_ptr.hpp</text>
</g>
<!-- Node1&#45;&gt;Node15 -->
<g id="edge15" class="edge"><title>Node1&#45;&gt;Node15</title>
<path fill="none" stroke="midnightblue" d="M2233.38,-132.478C2063.16,-132.813 1627.11,-129.194 1254.45,-87.1168"/>
<polygon fill="midnightblue" stroke="midnightblue" points="1254.6,-83.6121 1244.27,-85.9565 1253.81,-90.5671 1254.6,-83.6121"/>
</g>
<!-- Node16 -->
<g id="node16" class="node"><title>Node16</title>
<polygon fill="white" stroke="#bfbfbf" points="1262,-62 1262,-81 1365,-81 1365,-62 1262,-62"/>
<text text-anchor="middle" x="1313.5" y="-69" font-family="Helvetica,sans-Serif" font-size="10.00">/scram/src/pdag.h</text>
</g>
<!-- Node1&#45;&gt;Node16 -->
<g id="edge16" class="edge"><title>Node1&#45;&gt;Node16</title>
<path fill="none" stroke="midnightblue" d="M2233.24,-130.256C2043.44,-125.451 1539.04,-110.776 1373.5,-87 1367.1,-86.0801 1360.37,-84.7876 1353.84,-83.3495"/>
<polygon fill="midnightblue" stroke="midnightblue" points="1354.34,-79.8716 1343.81,-81.0021 1352.75,-86.6877 1354.34,-79.8716"/>
</g>
<!-- Node17 -->
<g id="node17" class="node"><title>Node17</title>
<polygon fill="white" stroke="#bfbfbf" points="1383,-62 1383,-81 1432,-81 1432,-62 1383,-62"/>
<text text-anchor="middle" x="1407.5" y="-69" font-family="Helvetica,sans-Serif" font-size="10.00">cstdint</text>
</g>
<!-- Node1&#45;&gt;Node17 -->
<g id="edge17" class="edge"><title>Node1&#45;&gt;Node17</title>
<path fill="none" stroke="midnightblue" d="M2233.31,-131.581C2052.81,-130.005 1590.19,-122.516 1440.5,-87 1438.14,-86.4393 1435.73,-85.7153 1433.35,-84.8904"/>
<polygon fill="midnightblue" stroke="midnightblue" points="1434.46,-81.566 1423.88,-81.0916 1431.86,-88.0628 1434.46,-81.566"/>
</g>
<!-- Node18 -->
<g id="node18" class="node"><title>Node18</title>
<polygon fill="white" stroke="#bfbfbf" points="1450,-62 1450,-81 1497,-81 1497,-62 1450,-62"/>
<text text-anchor="middle" x="1473.5" y="-69" font-family="Helvetica,sans-Serif" font-size="10.00">cstdlib</text>
</g>
<!-- Node1&#45;&gt;Node18 -->
<g id="edge18" class="edge"><title>Node1&#45;&gt;Node18</title>
<path fill="none" stroke="midnightblue" d="M2233.29,-131.211C2062.76,-128.836 1643.22,-119.748 1506.5,-87 1504.14,-86.4342 1501.73,-85.7067 1499.35,-84.8795"/>
<polygon fill="midnightblue" stroke="midnightblue" points="1500.47,-81.5553 1489.88,-81.0768 1497.86,-88.0511 1500.47,-81.5553"/>
</g>
<!-- Node19 -->
<g id="node19" class="node"><title>Node19</title>
<polygon fill="white" stroke="#bfbfbf" points="1515.5,-62 1515.5,-81 1561.5,-81 1561.5,-62 1515.5,-62"/>
<text text-anchor="middle" x="1538.5" y="-69" font-family="Helvetica,sans-Serif" font-size="10.00">iosfwd</text>
</g>
<!-- Node1&#45;&gt;Node19 -->
<g id="edge19" class="edge"><title>Node1&#45;&gt;Node19</title>
<path fill="none" stroke="midnightblue" d="M2233.49,-130.897C2073.13,-127.931 1694.59,-117.796 1570.5,-87 1568.29,-86.4509 1566.04,-85.7531 1563.81,-84.9617"/>
<polygon fill="midnightblue" stroke="midnightblue" points="1564.95,-81.6432 1554.37,-81.0639 1562.28,-88.1139 1564.95,-81.6432"/>
</g>
<!-- Node20 -->
<g id="node20" class="node"><title>Node20</title>
<polygon fill="white" stroke="#bfbfbf" points="1579.5,-62 1579.5,-81 1647.5,-81 1647.5,-62 1579.5,-62"/>
<text text-anchor="middle" x="1613.5" y="-69" font-family="Helvetica,sans-Serif" font-size="10.00">type_traits</text>
</g>
<!-- Node1&#45;&gt;Node20 -->
<g id="edge20" class="edge"><title>Node1&#45;&gt;Node20</title>
<path fill="none" stroke="midnightblue" d="M2233.48,-129.3C2087.65,-123.52 1765.07,-108.689 1656.5,-87 1652.81,-86.2621 1648.99,-85.294 1645.23,-84.2075"/>
<polygon fill="midnightblue" stroke="midnightblue" points="1646.11,-80.8151 1635.52,-81.1315 1644,-87.4882 1646.11,-80.8151"/>
</g>
<!-- Node21 -->
<g id="node21" class="node"><title>Node21</title>
<polygon fill="white" stroke="#bfbfbf" points="1665.5,-62 1665.5,-81 1715.5,-81 1715.5,-62 1665.5,-62"/>
<text text-anchor="middle" x="1690.5" y="-69" font-family="Helvetica,sans-Serif" font-size="10.00">variant</text>
</g>
<!-- Node1&#45;&gt;Node21 -->
<g id="edge21" class="edge"><title>Node1&#45;&gt;Node21</title>
<path fill="none" stroke="midnightblue" d="M2233.28,-129.307C2099.12,-123.882 1819,-110.139 1724.5,-87 1722.13,-86.4205 1719.72,-85.6939 1717.33,-84.8767"/>
<polygon fill="midnightblue" stroke="midnightblue" points="1718.36,-81.5224 1707.77,-81.151 1715.82,-88.0443 1718.36,-81.5224"/>
</g>
<!-- Node22 -->
<g id="node22" class="node"><title>Node22</title>
<polygon fill="white" stroke="#bfbfbf" points="1733.5,-56.5 1733.5,-86.5 1843.5,-86.5 1843.5,-56.5 1733.5,-56.5"/>
<text text-anchor="start" x="1741.5" y="-74.5" font-family="Helvetica,sans-Serif" font-size="10.00">boost/container/flat</text>
<text text-anchor="middle" x="1788.5" y="-63.5" font-family="Helvetica,sans-Serif" font-size="10.00">_set.hpp</text>
</g>
<!-- Node1&#45;&gt;Node22 -->
<g id="edge22" class="edge"><title>Node1&#45;&gt;Node22</title>
<path fill="none" stroke="midnightblue" d="M2233.41,-127.557C2145.5,-121.584 1993.34,-109.249 1853.61,-87.0488"/>
<polygon fill="midnightblue" stroke="midnightblue" points="1854,-83.5668 1843.57,-85.4332 1852.89,-90.4778 1854,-83.5668"/>
</g>
<!-- Node23 -->
<g id="node23" class="node"><title>Node23</title>
<polygon fill="white" stroke="#bfbfbf" points="1862,-56.5 1862,-86.5 1977,-86.5 1977,-56.5 1862,-56.5"/>
<text text-anchor="start" x="1870" y="-74.5" font-family="Helvetica,sans-Serif" font-size="10.00">boost/range/adaptor</text>
<text text-anchor="middle" x="1919.5" y="-63.5" font-family="Helvetica,sans-Serif" font-size="10.00">/transformed.hpp</text>
</g>
<!-- Node1&#45;&gt;Node23 -->
<g id="edge23" class="edge"><title>Node1&#45;&gt;Node23</title>
<path fill="none" stroke="midnightblue" d="M2234.22,-123.481C2171.28,-115.695 2077.4,-103.193 1986.92,-87.1792"/>
<polygon fill="midnightblue" stroke="midnightblue" points="1987.5,-83.7281 1977.04,-85.4148 1986.27,-90.619 1987.5,-83.7281"/>
</g>
<!-- Node24 -->
<g id="node24" class="node"><title>Node24</title>
<polygon fill="white" stroke="#bfbfbf" points="1995,-56.5 1995,-86.5 2100,-86.5 2100,-56.5 1995,-56.5"/>
<text text-anchor="start" x="2003" y="-74.5" font-family="Helvetica,sans-Serif" font-size="10.00">/scram/src/ext/find</text>
<text text-anchor="middle" x="2047.5" y="-63.5" font-family="Helvetica,sans-Serif" font-size="10.00">_iterator.h</text>
</g>
<!-- Node1&#45;&gt;Node24 -->
<g id="edge24" class="edge"><title>Node1&#45;&gt;Node24</title>
<path fill="none" stroke="midnightblue" d="M2268.52,-123.485C2230.66,-114.972 2170.61,-101.399 2109.82,-87.2968"/>
<polygon fill="midnightblue" stroke="midnightblue" points="2110.6,-83.8833 2100.06,-85.0297 2109.01,-90.7018 2110.6,-83.8833"/>
</g>
<!-- Node25 -->
<g id="node25" class="node"><title>Node25</title>
<polygon fill="white" stroke="#bfbfbf" points="2118,-56.5 2118,-86.5 2231,-86.5 2231,-56.5 2118,-56.5"/>
<text text-anchor="start" x="2126" y="-74.5" font-family="Helvetica,sans-Serif" font-size="10.00">/scram/src/ext/index</text>
<text text-anchor="middle" x="2174.5" y="-63.5" font-family="Helvetica,sans-Serif" font-size="10.00">_map.h</text>
</g>
<!-- Node1&#45;&gt;Node25 -->
<g id="edge25" class="edge"><title>Node1&#45;&gt;Node25</title>
<path fill="none" stroke="midnightblue" d="M2287.59,-123.475C2268.71,-114.965 2239.1,-101.619 2214.92,-90.718"/>
<polygon fill="midnightblue" stroke="midnightblue" points="2216.16,-87.4416 2205.61,-86.523 2213.29,-93.8232 2216.16,-87.4416"/>
</g>
<!-- Node26 -->
<g id="node26" class="node"><title>Node26</title>
<polygon fill="white" stroke="#bfbfbf" points="2249.5,-56.5 2249.5,-86.5 2363.5,-86.5 2363.5,-56.5 2249.5,-56.5"/>
<text text-anchor="start" x="2257.5" y="-74.5" font-family="Helvetica,sans-Serif" font-size="10.00">/scram/src/ext/linear</text>
<text text-anchor="middle" x="2306.5" y="-63.5" font-family="Helvetica,sans-Serif" font-size="10.00">_map.h</text>
</g>
<!-- Node1&#45;&gt;Node26 -->
<g id="edge26" class="edge"><title>Node1&#45;&gt;Node26</title>
<path fill="none" stroke="midnightblue" d="M2306.5,-123.475C2306.5,-116.471 2306.5,-106.192 2306.5,-96.6956"/>
<polygon fill="midnightblue" stroke="midnightblue" points="2310,-96.5229 2306.5,-86.523 2303,-96.523 2310,-96.5229"/>
</g>
<!-- Node27 -->
<g id="node27" class="node"><title>Node27</title>
<polygon fill="white" stroke="#bfbfbf" points="2381.5,-62 2381.5,-81 2433.5,-81 2433.5,-62 2381.5,-62"/>
<text text-anchor="middle" x="2407.5" y="-69" font-family="Helvetica,sans-Serif" font-size="10.00">cassert</text>
</g>
<!-- Node1&#45;&gt;Node27 -->
<g id="edge27" class="edge"><title>Node1&#45;&gt;Node27</title>
<path fill="none" stroke="midnightblue" d="M2320.97,-123.475C2337.47,-113.755 2364.68,-97.7266 2384.18,-86.2372"/>
<polygon fill="midnightblue" stroke="midnightblue" points="2386.22,-89.1005 2393.06,-81.0091 2382.66,-83.0693 2386.22,-89.1005"/>
</g>
<!-- Node28 -->
<g id="node28" class="node"><title>Node28</title>
<polygon fill="white" stroke="#bfbfbf" points="2452,-62 2452,-81 2529,-81 2529,-62 2452,-62"/>
<text text-anchor="middle" x="2490.5" y="-69" font-family="Helvetica,sans-Serif" font-size="10.00">initializer_list</text>
</g>
<!-- Node1&#45;&gt;Node28 -->
<g id="edge28" class="edge"><title>Node1&#45;&gt;Node28</title>
<path fill="none" stroke="midnightblue" d="M2332.86,-123.475C2364.84,-113.136 2418.88,-95.6611 2454.62,-84.1017"/>
<polygon fill="midnightblue" stroke="midnightblue" points="2455.75,-87.4162 2464.19,-81.0091 2453.59,-80.7558 2455.75,-87.4162"/>
</g>
<!-- Node29 -->
<g id="node29" class="node"><title>Node29</title>
<polygon fill="white" stroke="#bfbfbf" points="2547.5,-62 2547.5,-81 2611.5,-81 2611.5,-62 2547.5,-62"/>
<text text-anchor="middle" x="2579.5" y="-69" font-family="Helvetica,sans-Serif" font-size="10.00">stdexcept</text>
</g>
<!-- Node1&#45;&gt;Node29 -->
<g id="edge29" class="edge"><title>Node1&#45;&gt;Node29</title>
<path fill="none" stroke="midnightblue" d="M2361.6,-123.499C2408.72,-115.7 2478.11,-102.951 2537.5,-87 2540.53,-86.1858 2543.66,-85.2641 2546.78,-84.2897"/>
<polygon fill="midnightblue" stroke="midnightblue" points="2548.17,-87.5166 2556.57,-81.0647 2545.98,-80.8677 2548.17,-87.5166"/>
</g>
<!-- Node30 -->
<g id="node30" class="node"><title>Node30</title>
<polygon fill="white" stroke="#bfbfbf" points="2630,-62 2630,-81 2747,-81 2747,-62 2630,-62"/>
<text text-anchor="middle" x="2688.5" y="-69" font-family="Helvetica,sans-Serif" font-size="10.00">/scram/src/settings.h</text>
</g>
<!-- Node1&#45;&gt;Node30 -->
<g id="edge30" class="edge"><title>Node1&#45;&gt;Node30</title>
<path fill="none" stroke="midnightblue" d="M2375.63,-123.462C2439.39,-115.261 2536.6,-101.94 2620.5,-87 2627.13,-85.8199 2634.09,-84.4659 2640.94,-83.0698"/>
<polygon fill="midnightblue" stroke="midnightblue" points="2641.75,-86.4763 2650.82,-81.0094 2640.32,-79.6236 2641.75,-86.4763"/>
</g>
<!-- Node31 -->
<g id="node31" class="node"><title>Node31</title>
<polygon fill="white" stroke="#bfbfbf" points="2765,-62 2765,-81 2834,-81 2834,-62 2765,-62"/>
<text text-anchor="middle" x="2799.5" y="-69" font-family="Helvetica,sans-Serif" font-size="10.00">string_view</text>
</g>
<!-- Node1&#45;&gt;Node31 -->
<g id="edge31" class="edge"><title>Node1&#45;&gt;Node31</title>
<path fill="none" stroke="midnightblue" d="M2379.57,-129.573C2469.06,-125.483 2624.84,-114.729 2755.5,-87 2759.18,-86.2194 2762.98,-85.2404 2766.74,-84.1614"/>
<polygon fill="midnightblue" stroke="midnightblue" points="2767.96,-87.4481 2776.47,-81.1395 2765.88,-80.7631 2767.96,-87.4481"/>
</g>
<!-- Node32 -->
<g id="node32" class="node"><title>Node32</title>
<polygon fill="white" stroke="#bfbfbf" points="2852,-56.5 2852,-86.5 2971,-86.5 2971,-56.5 2852,-56.5"/>
<text text-anchor="start" x="2860" y="-74.5" font-family="Helvetica,sans-Serif" font-size="10.00">/scram/src/probability</text>
<text text-anchor="middle" x="2911.5" y="-63.5" font-family="Helvetica,sans-Serif" font-size="10.00">_analysis.h</text>
</g>
<!-- Node1&#45;&gt;Node32 -->
<g id="edge32" class="edge"><title>Node1&#45;&gt;Node32</title>
<path fill="none" stroke="midnightblue" d="M2379.65,-128.722C2481.17,-123.537 2670.64,-111.559 2841.8,-86.9748"/>
<polygon fill="midnightblue" stroke="midnightblue" points="2842.35,-90.4312 2851.74,-85.5288 2841.34,-83.504 2842.35,-90.4312"/>
</g>
<!-- Node33 -->
<g id="node33" class="node"><title>Node33</title>
<polygon fill="white" stroke="#bfbfbf" points="2989,-62 2989,-81 3106,-81 3106,-62 2989,-62"/>
<text text-anchor="middle" x="3047.5" y="-69" font-family="Helvetica,sans-Serif" font-size="10.00">/scram/src/analysis.h</text>
</g>
<!-- Node1&#45;&gt;Node33 -->
<g id="edge33" class="edge"><title>Node1&#45;&gt;Node33</title>
<path fill="none" stroke="midnightblue" d="M2379.55,-130.54C2503.48,-127.3 2762.62,-117.216 2979.5,-87 2986.82,-85.9809 2994.52,-84.6205 3002.01,-83.1404"/>
<polygon fill="midnightblue" stroke="midnightblue" points="3002.94,-86.5209 3012.03,-81.0684 3001.52,-79.666 3002.94,-86.5209"/>
</g>
<!-- Node34 -->
<g id="node34" class="node"><title>Node34</title>
<polygon fill="white" stroke="#bfbfbf" points="3124.5,-62 3124.5,-81 3168.5,-81 3168.5,-62 3124.5,-62"/>
<text text-anchor="middle" x="3146.5" y="-69" font-family="Helvetica,sans-Serif" font-size="10.00">string</text>
</g>
<!-- Node1&#45;&gt;Node34 -->
<g id="edge34" class="edge"><title>Node1&#45;&gt;Node34</title>
<path fill="none" stroke="midnightblue" d="M2379.52,-131.366C2551.18,-129.321 2976.34,-120.888 3114.5,-87 3116.71,-86.4569 3118.96,-85.7634 3121.19,-84.9748"/>
<polygon fill="midnightblue" stroke="midnightblue" points="3122.73,-88.1281 3130.64,-81.0821 3120.06,-81.6561 3122.73,-88.1281"/>
</g>
<!-- Node35 -->
<g id="node35" class="node"><title>Node35</title>
<polygon fill="white" stroke="#bfbfbf" points="3186.5,-56.5 3186.5,-86.5 3302.5,-86.5 3302.5,-56.5 3186.5,-56.5"/>
<text text-anchor="start" x="3194.5" y="-74.5" font-family="Helvetica,sans-Serif" font-size="10.00">/scram/src/fault_tree</text>
<text text-anchor="middle" x="3244.5" y="-63.5" font-family="Helvetica,sans-Serif" font-size="10.00">_analysis.h</text>
</g>
<!-- Node1&#45;&gt;Node35 -->
<g id="edge35" class="edge"><title>Node1&#45;&gt;Node35</title>
<path fill="none" stroke="midnightblue" d="M2379.7,-132.196C2528.25,-131.731 2875.77,-126.246 3176.28,-87.0032"/>
<polygon fill="midnightblue" stroke="midnightblue" points="3177.04,-90.4326 3186.5,-85.6529 3176.12,-83.4929 3177.04,-90.4326"/>
</g>
<!-- Node36 -->
<g id="node36" class="node"><title>Node36</title>
<polygon fill="white" stroke="#bfbfbf" points="3320.5,-62 3320.5,-81 3406.5,-81 3406.5,-62 3320.5,-62"/>
<text text-anchor="middle" x="3363.5" y="-69" font-family="Helvetica,sans-Serif" font-size="10.00">unordered_set</text>
</g>
<!-- Node1&#45;&gt;Node36 -->
<g id="edge36" class="edge"><title>Node1&#45;&gt;Node36</title>
<path fill="none" stroke="midnightblue" d="M2379.61,-130.88C2579.45,-127.476 3131.92,-115.676 3311.5,-87 3316.69,-86.1715 3322.1,-85.0105 3327.38,-83.7023"/>
<polygon fill="midnightblue" stroke="midnightblue" points="3328.54,-87.015 3337.3,-81.054 3326.74,-80.2519 3328.54,-87.015"/>
</g>
<!-- Node37 -->
<g id="node37" class="node"><title>Node37</title>
<polygon fill="white" stroke="#bfbfbf" points="3424.5,-56.5 3424.5,-86.5 3544.5,-86.5 3544.5,-56.5 3424.5,-56.5"/>
<text text-anchor="start" x="3432.5" y="-74.5" font-family="Helvetica,sans-Serif" font-size="10.00">boost/iterator/iterator</text>
<text text-anchor="middle" x="3484.5" y="-63.5" font-family="Helvetica,sans-Serif" font-size="10.00">_facade.hpp</text>
</g>
<!-- Node1&#45;&gt;Node37 -->
<g id="edge37" class="edge"><title>Node1&#45;&gt;Node37</title>
<path fill="none" stroke="midnightblue" d="M2379.69,-130.623C2590.07,-126.415 3194.83,-112.511 3414.23,-86.9724"/>
<polygon fill="midnightblue" stroke="midnightblue" points="3414.88,-90.42 3424.39,-85.7474 3414.04,-83.4704 3414.88,-90.42"/>
</g>
<!-- Node38 -->
<g id="node38" class="node"><title>Node38</title>
<polygon fill="white" stroke="#bfbfbf" points="3562.5,-56.5 3562.5,-86.5 3694.5,-86.5 3694.5,-56.5 3562.5,-56.5"/>
<text text-anchor="start" x="3570.5" y="-74.5" font-family="Helvetica,sans-Serif" font-size="10.00">boost/iterator/transform</text>
<text text-anchor="middle" x="3628.5" y="-63.5" font-family="Helvetica,sans-Serif" font-size="10.00">_iterator.hpp</text>
</g>
<!-- Node1&#45;&gt;Node38 -->
<g id="edge38" class="edge"><title>Node1&#45;&gt;Node38</title>
<path fill="none" stroke="midnightblue" d="M2379.6,-130.85C2607.56,-127.034 3304.46,-113.557 3552.29,-86.9814"/>
<polygon fill="midnightblue" stroke="midnightblue" points="3552.78,-90.4485 3562.33,-85.8687 3552.01,-83.4911 3552.78,-90.4485"/>
</g>
<!-- Node39 -->
<g id="node39" class="node"><title>Node39</title>
<polygon fill="white" stroke="#bfbfbf" points="3713,-62 3713,-81 3854,-81 3854,-62 3713,-62"/>
<text text-anchor="middle" x="3783.5" y="-69" font-family="Helvetica,sans-Serif" font-size="10.00">/scram/src/preprocessor.h</text>
</g>
<!-- Node1&#45;&gt;Node39 -->
<g id="edge39" class="edge"><title>Node1&#45;&gt;Node39</title>
<path fill="none" stroke="midnightblue" d="M2379.51,-131.068C2628.46,-127.666 3443.04,-114.647 3703.5,-87 3713.08,-85.9827 3723.25,-84.4765 3733,-82.8146"/>
<polygon fill="midnightblue" stroke="midnightblue" points="3733.74,-86.2382 3742.97,-81.0403 3732.51,-79.3464 3733.74,-86.2382"/>
</g>
<!-- Node40 -->
<g id="node40" class="node"><title>Node40</title>
<polygon fill="white" stroke="#bfbfbf" points="3872.5,-62 3872.5,-81 3904.5,-81 3904.5,-62 3872.5,-62"/>
<text text-anchor="middle" x="3888.5" y="-69" font-family="Helvetica,sans-Serif" font-size="10.00">set</text>
</g>
<!-- Node1&#45;&gt;Node40 -->
<g id="edge40" class="edge"><title>Node1&#45;&gt;Node40</title>
<path fill="none" stroke="midnightblue" d="M2379.68,-131.927C2668.29,-131.359 3718.87,-126.567 3862.5,-87 3863.96,-86.5968 3865.43,-86.0952 3866.89,-85.5231"/>
<polygon fill="midnightblue" stroke="midnightblue" points="3868.63,-88.5667 3876.07,-81.0206 3865.55,-82.282 3868.63,-88.5667"/>
</g>
<!-- Node41 -->
<g id="node41" class="node"><title>Node41</title>
<polygon fill="white" stroke="#bfbfbf" points="3922.5,-62 3922.5,-81 4066.5,-81 4066.5,-62 3922.5,-62"/>
<text text-anchor="middle" x="3994.5" y="-69" font-family="Helvetica,sans-Serif" font-size="10.00">boost/unordered_map.hpp</text>
</g>
<!-- Node1&#45;&gt;Node41 -->
<g id="edge41" class="edge"><title>Node1&#45;&gt;Node41</title>
<path fill="none" stroke="midnightblue" d="M2379.85,-131.4C2652.86,-128.941 3610.01,-118.237 3913.5,-87 3923.2,-86.0013 3933.49,-84.5037 3943.37,-82.8446"/>
<polygon fill="midnightblue" stroke="midnightblue" points="3944.22,-86.2486 3953.46,-81.0712 3943.01,-79.3542 3944.22,-86.2486"/>
</g>
<!-- Node42 -->
<g id="node42" class="node"><title>Node42</title>
<polygon fill="white" stroke="#bfbfbf" points="4084.5,-62 4084.5,-81 4186.5,-81 4186.5,-62 4084.5,-62"/>
<text text-anchor="middle" x="4135.5" y="-69" font-family="Helvetica,sans-Serif" font-size="10.00">/scram/src/zbdd.h</text>
</g>
<!-- Node1&#45;&gt;Node42 -->
<g id="edge42" class="edge"><title>Node1&#45;&gt;Node42</title>
<path fill="none" stroke="midnightblue" d="M2379.75,-132.202C2669.97,-132.681 3739.71,-131.337 4075.5,-87 4081.98,-86.1439 4088.79,-84.8718 4095.39,-83.4308"/>
<polygon fill="midnightblue" stroke="midnightblue" points="4096.58,-86.7469 4105.52,-81.0628 4094.98,-79.9306 4096.58,-86.7469"/>
</g>
<!-- Node43 -->
<g id="node43" class="node"><title>Node43</title>
<polygon fill="white" stroke="#bfbfbf" points="4205,-62 4205,-81 4246,-81 4246,-62 4205,-62"/>
<text text-anchor="middle" x="4225.5" y="-69" font-family="Helvetica,sans-Serif" font-size="10.00">array</text>
</g>
<!-- Node1&#45;&gt;Node43 -->
<g id="edge43" class="edge"><title>Node1&#45;&gt;Node43</title>
<path fill="none" stroke="midnightblue" d="M2379.57,-132.089C2705.32,-132.236 4016.98,-130.123 4195.5,-87 4197.48,-86.5212 4199.49,-85.8993 4201.47,-85.1829"/>
<polygon fill="midnightblue" stroke="midnightblue" points="4203.24,-88.2319 4211.01,-81.0368 4200.45,-81.8117 4203.24,-88.2319"/>
</g>
<!-- Node44 -->
<g id="node44" class="node"><title>Node44</title>
<polygon fill="white" stroke="#bfbfbf" points="4264.5,-62 4264.5,-81 4302.5,-81 4302.5,-62 4264.5,-62"/>
<text text-anchor="middle" x="4283.5" y="-69" font-family="Helvetica,sans-Serif" font-size="10.00">map</text>
</g>
<!-- Node1&#45;&gt;Node44 -->
<g id="edge44" class="edge"><title>Node1&#45;&gt;Node44</title>
<path fill="none" stroke="midnightblue" d="M2379.63,-132.202C2711.81,-132.866 4070.28,-132.74 4254.5,-87 4256.43,-86.5218 4258.37,-85.9005 4260.29,-85.1843"/>
<polygon fill="midnightblue" stroke="midnightblue" points="4261.84,-88.3275 4269.53,-81.0389 4258.97,-81.9415 4261.84,-88.3275"/>
</g>
<!-- Node45 -->
<g id="node45" class="node"><title>Node45</title>
<polygon fill="white" stroke="#bfbfbf" points="4320.5,-62 4320.5,-81 4390.5,-81 4390.5,-62 4320.5,-62"/>
<text text-anchor="middle" x="4355.5" y="-69" font-family="Helvetica,sans-Serif" font-size="10.00">src/event.h</text>
</g>
<!-- Node1&#45;&gt;Node45 -->
<g id="edge45" class="edge"><title>Node1&#45;&gt;Node45</title>
<path fill="none" stroke="midnightblue" d="M2379.65,-131.638C2717.5,-129.794 4118.59,-120.191 4311.5,-87 4315.69,-86.2789 4320.03,-85.2371 4324.27,-84.0378"/>
<polygon fill="midnightblue" stroke="midnightblue" points="4325.39,-87.3549 4333.89,-81.0306 4323.3,-80.6737 4325.39,-87.3549"/>
</g>
<!-- Node46 -->
<g id="node46" class="node"><title>Node46</title>
<g id="a_node46"><a xlink:href="align_8h.xhtml" target="_top" xlink:title="Text alignment common conventions. ">
<polygon fill="white" stroke="black" points="4408.5,-62 4408.5,-81 4456.5,-81 4456.5,-62 4408.5,-62"/>
<text text-anchor="middle" x="4432.5" y="-69" font-family="Helvetica,sans-Serif" font-size="10.00">align.h</text>
</a>
</g>
</g>
<!-- Node1&#45;&gt;Node46 -->
<g id="edge46" class="edge"><title>Node1&#45;&gt;Node46</title>
<path fill="none" stroke="midnightblue" d="M2379.74,-132.121C2727.03,-132.464 4199.39,-131.276 4399.5,-87 4402.01,-86.444 4404.57,-85.6925 4407.09,-84.8226"/>
<polygon fill="midnightblue" stroke="midnightblue" points="4408.51,-88.0247 4416.48,-81.0441 4405.9,-81.5309 4408.51,-88.0247"/>
</g>
<!-- Node48 -->
<g id="node48" class="node"><title>Node48</title>
<g id="a_node48"><a xlink:href="guiassert_8h.xhtml" target="_top" xlink:title="GUI assertions that should not crash the program by default. ">
<polygon fill="white" stroke="black" points="4474.5,-62 4474.5,-81 4544.5,-81 4544.5,-62 4474.5,-62"/>
<text text-anchor="middle" x="4509.5" y="-69" font-family="Helvetica,sans-Serif" font-size="10.00">guiassert.h</text>
</a>
</g>
</g>
<!-- Node1&#45;&gt;Node48 -->
<g id="edge48" class="edge"><title>Node1&#45;&gt;Node48</title>
<path fill="none" stroke="midnightblue" d="M2379.6,-131.765C2733.09,-130.454 4256.66,-122.761 4465.5,-87 4469.69,-86.2822 4474.03,-85.2424 4478.27,-84.0442"/>
<polygon fill="midnightblue" stroke="midnightblue" points="4479.39,-87.3613 4487.89,-81.0378 4477.3,-80.68 4479.39,-87.3613"/>
</g>
<!-- Node52 -->
<g id="node52" class="node"><title>Node52</title>
<g id="a_node52"><a xlink:href="translate_8h.xhtml" target="_top" xlink:title="Translation helper facilities to workaround Qt Linguist shortcomings. ">
<polygon fill="white" stroke="black" points="4621.5,-62 4621.5,-81 4689.5,-81 4689.5,-62 4621.5,-62"/>
<text text-anchor="middle" x="4655.5" y="-69" font-family="Helvetica,sans-Serif" font-size="10.00">translate.h</text>
</a>
</g>
</g>
<!-- Node1&#45;&gt;Node52 -->
<g id="edge52" class="edge"><title>Node1&#45;&gt;Node52</title>
<path fill="none" stroke="midnightblue" d="M2379.52,-131.729C2715.68,-130.3 4116.58,-122.3 4553.5,-87 4572.43,-85.4708 4593.2,-82.7163 4611.03,-80.0156"/>
<polygon fill="midnightblue" stroke="midnightblue" points="4611.81,-83.4367 4621.15,-78.4415 4610.73,-76.5198 4611.81,-83.4367"/>
</g>
<!-- Node2&#45;&gt;Node3 -->
<g id="edge2" class="edge"><title>Node2&#45;&gt;Node3</title>
<path fill="none" stroke="midnightblue" d="M107.459,-61.9751C91.449,-52.2548 65.0496,-36.2266 46.126,-24.7372"/>
<polygon fill="midnightblue" stroke="midnightblue" points="47.8793,-21.7072 37.515,-19.5091 44.2464,-27.6907 47.8793,-21.7072"/>
</g>
<!-- Node4 -->
<g id="node4" class="node"><title>Node4</title>
<polygon fill="white" stroke="#bfbfbf" points="65,-0.5 65,-19.5 182,-19.5 182,-0.5 65,-0.5"/>
<text text-anchor="middle" x="123.5" y="-7.5" font-family="Helvetica,sans-Serif" font-size="10.00">QAbstractTableModel</text>
</g>
<!-- Node2&#45;&gt;Node4 -->
<g id="edge3" class="edge"><title>Node2&#45;&gt;Node4</title>
<path fill="none" stroke="midnightblue" d="M121.787,-61.9751C122.069,-53.5803 122.509,-40.4806 122.873,-29.6631"/>
<polygon fill="midnightblue" stroke="midnightblue" points="126.376,-29.6211 123.214,-19.5091 119.38,-29.3858 126.376,-29.6211"/>
</g>
<!-- Node5 -->
<g id="node5" class="node"><title>Node5</title>
<polygon fill="white" stroke="#bfbfbf" points="200,-0.5 200,-19.5 341,-19.5 341,-0.5 200,-0.5"/>
<text text-anchor="middle" x="270.5" y="-7.5" font-family="Helvetica,sans-Serif" font-size="10.00">src/importance_analysis.h</text>
</g>
<!-- Node2&#45;&gt;Node5 -->
<g id="edge4" class="edge"><title>Node2&#45;&gt;Node5</title>
<path fill="none" stroke="midnightblue" d="M142.848,-61.9751C168.186,-51.8571 210.638,-34.9046 239.571,-23.3507"/>
<polygon fill="midnightblue" stroke="midnightblue" points="241.203,-26.4681 249.192,-19.5091 238.607,-19.9673 241.203,-26.4681"/>
</g>
<!-- Node47 -->
<g id="node47" class="node"><title>Node47</title>
<polygon fill="white" stroke="#bfbfbf" points="4333,-0.5 4333,-19.5 4362,-19.5 4362,-0.5 4333,-0.5"/>
<text text-anchor="middle" x="4347.5" y="-7.5" font-family="Helvetica,sans-Serif" font-size="10.00">Qt</text>
</g>
<!-- Node46&#45;&gt;Node47 -->
<g id="edge47" class="edge"><title>Node46&#45;&gt;Node47</title>
<path fill="none" stroke="midnightblue" d="M4420.32,-61.9751C4406.69,-52.4315 4384.37,-36.8073 4368.03,-25.3683"/>
<polygon fill="midnightblue" stroke="midnightblue" points="4369.86,-22.3764 4359.66,-19.5091 4365.84,-28.1111 4369.86,-22.3764"/>
</g>
<!-- Node49 -->
<g id="node49" class="node"><title>Node49</title>
<polygon fill="white" stroke="#bfbfbf" points="4380,-0.5 4380,-19.5 4465,-19.5 4465,-0.5 4380,-0.5"/>
<text text-anchor="middle" x="4422.5" y="-7.5" font-family="Helvetica,sans-Serif" font-size="10.00">QMessageBox</text>
</g>
<!-- Node48&#45;&gt;Node49 -->
<g id="edge49" class="edge"><title>Node48&#45;&gt;Node49</title>
<path fill="none" stroke="midnightblue" d="M4497.04,-61.9751C4483.08,-52.4315 4460.24,-36.8073 4443.51,-25.3683"/>
<polygon fill="midnightblue" stroke="midnightblue" points="4445.17,-22.2653 4434.94,-19.5091 4441.22,-28.0433 4445.17,-22.2653"/>
</g>
<!-- Node50 -->
<g id="node50" class="node"><title>Node50</title>
<polygon fill="white" stroke="#bfbfbf" points="4483,-0.5 4483,-19.5 4536,-19.5 4536,-0.5 4483,-0.5"/>
<text text-anchor="middle" x="4509.5" y="-7.5" font-family="Helvetica,sans-Serif" font-size="10.00">QString</text>
</g>
<!-- Node48&#45;&gt;Node50 -->
<g id="edge50" class="edge"><title>Node48&#45;&gt;Node50</title>
<path fill="none" stroke="midnightblue" d="M4509.5,-61.9751C4509.5,-53.5803 4509.5,-40.4806 4509.5,-29.6631"/>
<polygon fill="midnightblue" stroke="midnightblue" points="4513,-29.5091 4509.5,-19.5091 4506,-29.5091 4513,-29.5091"/>
</g>
<!-- Node51 -->
<g id="node51" class="node"><title>Node51</title>
<polygon fill="white" stroke="#bfbfbf" points="4553.5,-0.5 4553.5,-19.5 4669.5,-19.5 4669.5,-0.5 4553.5,-0.5"/>
<text text-anchor="middle" x="4611.5" y="-7.5" font-family="Helvetica,sans-Serif" font-size="10.00">src/ext/source_info.h</text>
</g>
<!-- Node48&#45;&gt;Node51 -->
<g id="edge51" class="edge"><title>Node48&#45;&gt;Node51</title>
<path fill="none" stroke="midnightblue" d="M4524.11,-61.9751C4540.85,-52.2106 4568.5,-36.0807 4588.22,-24.5808"/>
<polygon fill="midnightblue" stroke="midnightblue" points="4590.04,-27.5711 4596.91,-19.5091 4586.51,-21.5246 4590.04,-27.5711"/>
</g>
<!-- Node53 -->
<g id="node53" class="node"><title>Node53</title>
<polygon fill="white" stroke="#bfbfbf" points="4688,-0.5 4688,-19.5 4743,-19.5 4743,-0.5 4688,-0.5"/>
<text text-anchor="middle" x="4715.5" y="-7.5" font-family="Helvetica,sans-Serif" font-size="10.00">QObject</text>
</g>
<!-- Node52&#45;&gt;Node53 -->
<g id="edge53" class="edge"><title>Node52&#45;&gt;Node53</title>
<path fill="none" stroke="midnightblue" d="M4664.1,-61.9751C4673.36,-52.785 4688.32,-37.9563 4699.71,-26.656"/>
<polygon fill="midnightblue" stroke="midnightblue" points="4702.28,-29.0358 4706.92,-19.5091 4697.35,-24.0653 4702.28,-29.0358"/>
</g>
</g>
</svg>
