<?xml version="1.0" encoding="UTF-8" standalone="no"?>
<!DOCTYPE svg PUBLIC "-//W3C//DTD SVG 1.1//EN"
 "http://www.w3.org/Graphics/SVG/1.1/DTD/svg11.dtd">
<!-- Generated by graphviz version 2.38.0 (20140413.2041)
 -->
<!-- Title: Graphical Class Hierarchy Pages: 1 -->
<svg width="280pt" height="142pt"
 viewBox="0.00 0.00 280.00 142.00" xmlns="http://www.w3.org/2000/svg" xmlns:xlink="http://www.w3.org/1999/xlink">
<g id="graph0" class="graph" transform="scale(1 1) rotate(0) translate(4 138)">
<title>Graphical Class Hierarchy</title>
<polygon fill="white" stroke="none" points="-4,4 -4,-138 276,-138 276,4 -4,4"/>
<!-- Node1 -->
<g id="node1" class="node"><title>Node1</title>
<polygon fill="white" stroke="#bfbfbf" points="1,-114.5 1,-133.5 75,-133.5 75,-114.5 1,-114.5"/>
<text text-anchor="middle" x="38" y="-121.5" font-family="Helvetica,sans-Serif" font-size="10.00">EventDialog</text>
</g>
<!-- Node2 -->
<g id="node2" class="node"><title>Node2</title>
<g id="a_node2"><a xlink:href="classscram_1_1gui_1_1EventDialog.xhtml" target="_top" xlink:title="The Dialog to create, present, and manipulate event data. ">
<polygon fill="white" stroke="black" points="127,-114.5 127,-133.5 257,-133.5 257,-114.5 127,-114.5"/>
<text text-anchor="middle" x="192" y="-121.5" font-family="Helvetica,sans-Serif" font-size="10.00">scram::gui::EventDialog</text>
</a>
</g>
</g>
<!-- Node1&#45;&gt;Node2 -->
<g id="edge1" class="edge"><title>Node1&#45;&gt;Node2</title>
<path fill="none" stroke="#8b1a1a" d="M85.2334,-124C98.3913,-124 112.963,-124 126.977,-124"/>
<polygon fill="#8b1a1a" stroke="#8b1a1a" points="85.0219,-120.5 75.0219,-124 85.0218,-127.5 85.0219,-120.5"/>
</g>
<!-- Node3 -->
<g id="node3" class="node"><title>Node3</title>
<polygon fill="white" stroke="#bfbfbf" points="0,-76.5 0,-95.5 76,-95.5 76,-76.5 0,-76.5"/>
<text text-anchor="middle" x="38" y="-83.5" font-family="Helvetica,sans-Serif" font-size="10.00">NameDialog</text>
</g>
<!-- Node4 -->
<g id="node4" class="node"><title>Node4</title>
<g id="a_node4"><a xlink:href="classscram_1_1gui_1_1NameDialog.xhtml" target="_top" xlink:title="The dialog to set the model name. ">
<polygon fill="white" stroke="black" points="126,-76.5 126,-95.5 258,-95.5 258,-76.5 126,-76.5"/>
<text text-anchor="middle" x="192" y="-83.5" font-family="Helvetica,sans-Serif" font-size="10.00">scram::gui::NameDialog</text>
</a>
</g>
</g>
<!-- Node3&#45;&gt;Node4 -->
<g id="edge2" class="edge"><title>Node3&#45;&gt;Node4</title>
<path fill="none" stroke="midnightblue" d="M86.3451,-86C98.8235,-86 112.509,-86 125.751,-86"/>
<polygon fill="midnightblue" stroke="midnightblue" points="86.1834,-82.5001 76.1834,-86 86.1833,-89.5001 86.1834,-82.5001"/>
</g>
<!-- Node5 -->
<g id="node5" class="node"><title>Node5</title>
<polygon fill="white" stroke="#bfbfbf" points="11,-38.5 11,-57.5 65,-57.5 65,-38.5 11,-38.5"/>
<text text-anchor="middle" x="38" y="-45.5" font-family="Helvetica,sans-Serif" font-size="10.00">QDialog</text>
</g>
<!-- Node5&#45;&gt;Node2 -->
<g id="edge3" class="edge"><title>Node5&#45;&gt;Node2</title>
<path fill="none" stroke="midnightblue" d="M69.5935,-62.6417C71.8172,-64.027 73.978,-65.4838 76,-67 94.6128,-80.957 91.8596,-93.3552 112,-105 118.717,-108.883 126.194,-111.975 133.794,-114.436"/>
<polygon fill="midnightblue" stroke="midnightblue" points="71.288,-59.579 60.8649,-57.679 67.8282,-65.6642 71.288,-59.579"/>
</g>
<!-- Node5&#45;&gt;Node4 -->
<g id="edge4" class="edge"><title>Node5&#45;&gt;Node4</title>
<path fill="none" stroke="midnightblue" d="M75.2209,-57.5694C86.9446,-60.6287 100.013,-63.9988 112,-67 124.589,-70.1519 138.333,-73.4923 150.775,-76.4785"/>
<polygon fill="midnightblue" stroke="midnightblue" points="75.8858,-54.1256 65.3253,-54.978 74.1124,-60.8972 75.8858,-54.1256"/>
</g>
<!-- Node6 -->
<g id="node6" class="node"><title>Node6</title>
<g id="a_node6"><a xlink:href="classscram_1_1gui_1_1PreferencesDialog.xhtml" target="_top" xlink:title="The dialog to present and manage GUI application preferences. ">
<polygon fill="white" stroke="black" points="112,-38.5 112,-57.5 272,-57.5 272,-38.5 112,-38.5"/>
<text text-anchor="middle" x="192" y="-45.5" font-family="Helvetica,sans-Serif" font-size="10.00">scram::gui::PreferencesDialog</text>
</a>
</g>
</g>
<!-- Node5&#45;&gt;Node6 -->
<g id="edge5" class="edge"><title>Node5&#45;&gt;Node6</title>
<path fill="none" stroke="midnightblue" d="M75.2691,-48C86.4,-48 99.1127,-48 111.942,-48"/>
<polygon fill="midnightblue" stroke="midnightblue" points="75.1298,-44.5001 65.1297,-48 75.1297,-51.5001 75.1298,-44.5001"/>
</g>
<!-- Node7 -->
<g id="node7" class="node"><title>Node7</title>
<g id="a_node7"><a xlink:href="classscram_1_1gui_1_1SettingsDialog.xhtml" target="_top" xlink:title="The dialog to present and set analysis settings. ">
<polygon fill="white" stroke="black" points="120.5,-0.5 120.5,-19.5 263.5,-19.5 263.5,-0.5 120.5,-0.5"/>
<text text-anchor="middle" x="192" y="-7.5" font-family="Helvetica,sans-Serif" font-size="10.00">scram::gui::SettingsDialog</text>
</a>
</g>
</g>
<!-- Node5&#45;&gt;Node7 -->
<g id="edge6" class="edge"><title>Node5&#45;&gt;Node7</title>
<path fill="none" stroke="midnightblue" d="M75.2209,-38.4306C86.9446,-35.3713 100.013,-32.0012 112,-29 124.589,-25.8481 138.333,-22.5077 150.775,-19.5215"/>
<polygon fill="midnightblue" stroke="midnightblue" points="74.1124,-35.1028 65.3253,-41.022 75.8858,-41.8744 74.1124,-35.1028"/>
</g>
</g>
</svg>
