<?xml version="1.0" encoding="UTF-8" standalone="no"?>
<!DOCTYPE svg PUBLIC "-//W3C//DTD SVG 1.1//EN"
 "http://www.w3.org/Graphics/SVG/1.1/DTD/svg11.dtd">
<!-- Generated by graphviz version 2.38.0 (20140413.2041)
 -->
<!-- Title: Graphical Class Hierarchy Pages: 1 -->
<svg width="394pt" height="235pt"
 viewBox="0.00 0.00 394.00 235.00" xmlns="http://www.w3.org/2000/svg" xmlns:xlink="http://www.w3.org/1999/xlink">
<g id="graph0" class="graph" transform="scale(1 1) rotate(0) translate(4 231)">
<title>Graphical Class Hierarchy</title>
<polygon fill="white" stroke="none" points="-4,4 -4,-231 390,-231 390,4 -4,4"/>
<!-- Node1 -->
<g id="node1" class="node"><title>Node1</title>
<polygon fill="white" stroke="#bfbfbf" points="0,-104 0,-123 88,-123 88,-104 0,-104"/>
<text text-anchor="middle" x="44" y="-111" font-family="Helvetica,sans-Serif" font-size="10.00">QGraphicsItem</text>
</g>
<!-- Node2 -->
<g id="node2" class="node"><title>Node2</title>
<g id="a_node2"><a xlink:href="classscram_1_1gui_1_1diagram_1_1Event.xhtml" target="_top" xlink:title="The base class for probabilistic events in a fault tree. ">
<polygon fill="white" stroke="black" points="124,-98.5 124,-128.5 237,-128.5 237,-98.5 124,-98.5"/>
<text text-anchor="start" x="132" y="-116.5" font-family="Helvetica,sans-Serif" font-size="10.00">scram::gui::diagram</text>
<text text-anchor="middle" x="180.5" y="-105.5" font-family="Helvetica,sans-Serif" font-size="10.00">::Event</text>
</a>
</g>
</g>
<!-- Node1&#45;&gt;Node2 -->
<g id="edge1" class="edge"><title>Node1&#45;&gt;Node2</title>
<path fill="none" stroke="midnightblue" d="M98.3786,-113.5C106.798,-113.5 115.52,-113.5 123.987,-113.5"/>
<polygon fill="midnightblue" stroke="midnightblue" points="98.297,-110 88.297,-113.5 98.297,-117 98.297,-110"/>
</g>
<!-- Node3 -->
<g id="node3" class="node"><title>Node3</title>
<g id="a_node3"><a xlink:href="classscram_1_1gui_1_1diagram_1_1BasicEvent.xhtml" target="_top" xlink:title="Representation of a fault tree basic event. ">
<polygon fill="white" stroke="black" points="273,-196.5 273,-226.5 386,-226.5 386,-196.5 273,-196.5"/>
<text text-anchor="start" x="281" y="-214.5" font-family="Helvetica,sans-Serif" font-size="10.00">scram::gui::diagram</text>
<text text-anchor="middle" x="329.5" y="-203.5" font-family="Helvetica,sans-Serif" font-size="10.00">::BasicEvent</text>
</a>
</g>
</g>
<!-- Node2&#45;&gt;Node3 -->
<g id="edge2" class="edge"><title>Node2&#45;&gt;Node3</title>
<path fill="none" stroke="midnightblue" d="M204.926,-135.447C222.662,-151.292 248.14,-172.459 273,-187.5 278.299,-190.706 284.104,-193.709 289.899,-196.433"/>
<polygon fill="midnightblue" stroke="midnightblue" points="207.111,-132.704 197.351,-128.582 202.41,-137.891 207.111,-132.704"/>
</g>
<!-- Node4 -->
<g id="node4" class="node"><title>Node4</title>
<g id="a_node4"><a xlink:href="classscram_1_1gui_1_1diagram_1_1Gate.xhtml" target="_top" xlink:title="Fault tree intermediate events or gates. ">
<polygon fill="white" stroke="black" points="273,-147.5 273,-177.5 386,-177.5 386,-147.5 273,-147.5"/>
<text text-anchor="start" x="281" y="-165.5" font-family="Helvetica,sans-Serif" font-size="10.00">scram::gui::diagram</text>
<text text-anchor="middle" x="329.5" y="-154.5" font-family="Helvetica,sans-Serif" font-size="10.00">::Gate</text>
</a>
</g>
</g>
<!-- Node2&#45;&gt;Node4 -->
<g id="edge3" class="edge"><title>Node2&#45;&gt;Node4</title>
<path fill="none" stroke="midnightblue" d="M236.716,-131.905C252.097,-137.032 268.618,-142.539 283.345,-147.448"/>
<polygon fill="midnightblue" stroke="midnightblue" points="237.398,-128.443 226.804,-128.601 235.184,-135.084 237.398,-128.443"/>
</g>
<!-- Node5 -->
<g id="node5" class="node"><title>Node5</title>
<g id="a_node5"><a xlink:href="classscram_1_1gui_1_1diagram_1_1HouseEvent.xhtml" target="_top" xlink:title="Representation of a fault tree house events. ">
<polygon fill="white" stroke="black" points="273,-98.5 273,-128.5 386,-128.5 386,-98.5 273,-98.5"/>
<text text-anchor="start" x="281" y="-116.5" font-family="Helvetica,sans-Serif" font-size="10.00">scram::gui::diagram</text>
<text text-anchor="middle" x="329.5" y="-105.5" font-family="Helvetica,sans-Serif" font-size="10.00">::HouseEvent</text>
</a>
</g>
</g>
<!-- Node2&#45;&gt;Node5 -->
<g id="edge4" class="edge"><title>Node2&#45;&gt;Node5</title>
<path fill="none" stroke="midnightblue" d="M247.078,-113.5C255.681,-113.5 264.43,-113.5 272.847,-113.5"/>
<polygon fill="midnightblue" stroke="midnightblue" points="247.074,-110 237.074,-113.5 247.074,-117 247.074,-110"/>
</g>
<!-- Node6 -->
<g id="node6" class="node"><title>Node6</title>
<g id="a_node6"><a xlink:href="classscram_1_1gui_1_1diagram_1_1TransferIn.xhtml" target="_top" xlink:title="An alias pointer to a gate. ">
<polygon fill="white" stroke="black" points="273,-49.5 273,-79.5 386,-79.5 386,-49.5 273,-49.5"/>
<text text-anchor="start" x="281" y="-67.5" font-family="Helvetica,sans-Serif" font-size="10.00">scram::gui::diagram</text>
<text text-anchor="middle" x="329.5" y="-56.5" font-family="Helvetica,sans-Serif" font-size="10.00">::TransferIn</text>
</a>
</g>
</g>
<!-- Node2&#45;&gt;Node6 -->
<g id="edge5" class="edge"><title>Node2&#45;&gt;Node6</title>
<path fill="none" stroke="midnightblue" d="M236.716,-95.0945C252.097,-89.9678 268.618,-84.4608 283.345,-79.5516"/>
<polygon fill="midnightblue" stroke="midnightblue" points="235.184,-91.9158 226.804,-98.3986 237.398,-98.5566 235.184,-91.9158"/>
</g>
<!-- Node7 -->
<g id="node7" class="node"><title>Node7</title>
<g id="a_node7"><a xlink:href="classscram_1_1gui_1_1diagram_1_1UndevelopedEvent.xhtml" target="_top" xlink:title="Placeholder for events with a potential to become a gate. ">
<polygon fill="white" stroke="black" points="273,-0.5 273,-30.5 386,-30.5 386,-0.5 273,-0.5"/>
<text text-anchor="start" x="281" y="-18.5" font-family="Helvetica,sans-Serif" font-size="10.00">scram::gui::diagram</text>
<text text-anchor="middle" x="329.5" y="-7.5" font-family="Helvetica,sans-Serif" font-size="10.00">::UndevelopedEvent</text>
</a>
</g>
</g>
<!-- Node2&#45;&gt;Node7 -->
<g id="edge6" class="edge"><title>Node2&#45;&gt;Node7</title>
<path fill="none" stroke="midnightblue" d="M205.368,-91.6994C223.147,-76.1669 248.486,-55.4729 273,-40.5 278.862,-36.9195 285.325,-33.5455 291.707,-30.5039"/>
<polygon fill="midnightblue" stroke="midnightblue" points="202.929,-89.1843 197.761,-98.4336 207.569,-94.4256 202.929,-89.1843"/>
</g>
</g>
</svg>
