<?xml version="1.0" encoding="UTF-8" standalone="no"?>
<!DOCTYPE svg PUBLIC "-//W3C//DTD SVG 1.1//EN"
 "http://www.w3.org/Graphics/SVG/1.1/DTD/svg11.dtd">
<!-- Generated by graphviz version 2.38.0 (20140413.2041)
 -->
<!-- Title: Graphical Class Hierarchy Pages: 1 -->
<svg width="459pt" height="339pt"
 viewBox="0.00 0.00 459.00 338.50" xmlns="http://www.w3.org/2000/svg" xmlns:xlink="http://www.w3.org/1999/xlink">
<g id="graph0" class="graph" transform="scale(1 1) rotate(0) translate(4 334.5)">
<title>Graphical Class Hierarchy</title>
<polygon fill="white" stroke="none" points="-4,4 -4,-334.5 455,-334.5 455,4 -4,4"/>
<!-- Node1 -->
<g id="node1" class="node"><title>Node1</title>
<polygon fill="white" stroke="#bfbfbf" points="0,-89.5 0,-108.5 100,-108.5 100,-89.5 0,-89.5"/>
<text text-anchor="middle" x="50" y="-96.5" font-family="Helvetica,sans-Serif" font-size="10.00">QUndoCommand</text>
</g>
<!-- Node2 -->
<g id="node2" class="node"><title>Node2</title>
<g id="a_node2"><a xlink:href="classscram_1_1gui_1_1Involution.xhtml" target="_top" xlink:title="The function inverse is the function itself (i.e., f(f(x)) = id(x)). ">
<polygon fill="white" stroke="black" points="144.5,-158.5 144.5,-177.5 263.5,-177.5 263.5,-158.5 144.5,-158.5"/>
<text text-anchor="middle" x="204" y="-165.5" font-family="Helvetica,sans-Serif" font-size="10.00">scram::gui::Involution</text>
</a>
</g>
</g>
<!-- Node1&#45;&gt;Node2 -->
<g id="edge1" class="edge"><title>Node1&#45;&gt;Node2</title>
<path fill="none" stroke="midnightblue" d="M73.7262,-114.052C90.4264,-124.622 113.955,-138.51 136,-148 145.254,-151.984 155.551,-155.487 165.241,-158.402"/>
<polygon fill="midnightblue" stroke="midnightblue" points="75.5075,-111.037 65.2035,-108.571 71.7208,-116.924 75.5075,-111.037"/>
</g>
<!-- Node10 -->
<g id="node10" class="node"><title>Node10</title>
<g id="a_node10"><a xlink:href="classscram_1_1gui_1_1model_1_1Model_1_1AddEvent.xhtml" target="_top" xlink:title="Adds an event to the model. ">
<polygon fill="white" stroke="black" points="141.5,-109 141.5,-139 266.5,-139 266.5,-109 141.5,-109"/>
<text text-anchor="start" x="149.5" y="-127" font-family="Helvetica,sans-Serif" font-size="10.00">scram::gui::model::</text>
<text text-anchor="middle" x="204" y="-116" font-family="Helvetica,sans-Serif" font-size="10.00">Model::AddEvent&lt; T &gt;</text>
</a>
</g>
</g>
<!-- Node1&#45;&gt;Node10 -->
<g id="edge9" class="edge"><title>Node1&#45;&gt;Node10</title>
<path fill="none" stroke="midnightblue" d="M110.365,-108.764C120.548,-110.439 131.15,-112.183 141.391,-113.867"/>
<polygon fill="midnightblue" stroke="midnightblue" points="110.786,-105.286 100.35,-107.117 109.649,-112.193 110.786,-105.286"/>
</g>
<!-- Node11 -->
<g id="node11" class="node"><title>Node11</title>
<g id="a_node11"><a xlink:href="classscram_1_1gui_1_1model_1_1Model_1_1AddFaultTree.xhtml" target="_top" xlink:title="Adds a fault tree into a model. ">
<polygon fill="white" stroke="black" points="148,-60 148,-90 260,-90 260,-60 148,-60"/>
<text text-anchor="start" x="156" y="-78" font-family="Helvetica,sans-Serif" font-size="10.00">scram::gui::model::</text>
<text text-anchor="middle" x="204" y="-67" font-family="Helvetica,sans-Serif" font-size="10.00">Model::AddFaultTree</text>
</a>
</g>
</g>
<!-- Node1&#45;&gt;Node11 -->
<g id="edge10" class="edge"><title>Node1&#45;&gt;Node11</title>
<path fill="none" stroke="midnightblue" d="M110.508,-89.604C122.806,-87.6622 135.71,-85.6248 147.845,-83.7087"/>
<polygon fill="midnightblue" stroke="midnightblue" points="109.682,-86.191 100.35,-91.2079 110.774,-93.1054 109.682,-86.191"/>
</g>
<!-- Node12 -->
<g id="node12" class="node"><title>Node12</title>
<g id="a_node12"><a xlink:href="classscram_1_1gui_1_1model_1_1Model_1_1ChangeEventType.xhtml" target="_top" xlink:title="Changes the event type. ">
<polygon fill="white" stroke="black" points="136,-0.5 136,-41.5 272,-41.5 272,-0.5 136,-0.5"/>
<text text-anchor="start" x="144" y="-29.5" font-family="Helvetica,sans-Serif" font-size="10.00">scram::gui::model::</text>
<text text-anchor="start" x="144" y="-18.5" font-family="Helvetica,sans-Serif" font-size="10.00">Model::ChangeEventType</text>
<text text-anchor="middle" x="204" y="-7.5" font-family="Helvetica,sans-Serif" font-size="10.00">&lt; E, T &gt;</text>
</a>
</g>
</g>
<!-- Node1&#45;&gt;Node12 -->
<g id="edge11" class="edge"><title>Node1&#45;&gt;Node12</title>
<path fill="none" stroke="midnightblue" d="M75.006,-84.1758C91.8128,-74.0427 114.94,-60.5843 136,-50 141.662,-47.1541 147.669,-44.3137 153.669,-41.585"/>
<polygon fill="midnightblue" stroke="midnightblue" points="73.0996,-81.2386 66.3724,-89.4237 76.7356,-87.2203 73.0996,-81.2386"/>
</g>
<!-- Node3 -->
<g id="node3" class="node"><title>Node3</title>
<g id="a_node3"><a xlink:href="classscram_1_1gui_1_1model_1_1BasicEvent_1_1SetExpression.xhtml" target="_top" xlink:title="Sets the basic event expression. ">
<polygon fill="white" stroke="black" points="308,-300 308,-330 451,-330 451,-300 308,-300"/>
<text text-anchor="start" x="316" y="-318" font-family="Helvetica,sans-Serif" font-size="10.00">scram::gui::model::</text>
<text text-anchor="middle" x="379.5" y="-307" font-family="Helvetica,sans-Serif" font-size="10.00">BasicEvent::SetExpression</text>
</a>
</g>
</g>
<!-- Node2&#45;&gt;Node3 -->
<g id="edge2" class="edge"><title>Node2&#45;&gt;Node3</title>
<path fill="none" stroke="midnightblue" d="M215.69,-186.236C232.223,-212.924 266.464,-262.53 308,-291 313.012,-294.436 318.561,-297.419 324.279,-300"/>
<polygon fill="midnightblue" stroke="midnightblue" points="218.59,-184.268 210.42,-177.523 212.6,-187.891 218.59,-184.268"/>
</g>
<!-- Node4 -->
<g id="node4" class="node"><title>Node4</title>
<g id="a_node4"><a xlink:href="classscram_1_1gui_1_1model_1_1BasicEvent_1_1SetFlavor.xhtml" target="_top" xlink:title="Sets the flavor of the basic event. ">
<polygon fill="white" stroke="black" points="319.5,-251 319.5,-281 439.5,-281 439.5,-251 319.5,-251"/>
<text text-anchor="start" x="327.5" y="-269" font-family="Helvetica,sans-Serif" font-size="10.00">scram::gui::model::</text>
<text text-anchor="middle" x="379.5" y="-258" font-family="Helvetica,sans-Serif" font-size="10.00">BasicEvent::SetFlavor</text>
</a>
</g>
</g>
<!-- Node2&#45;&gt;Node4 -->
<g id="edge3" class="edge"><title>Node2&#45;&gt;Node4</title>
<path fill="none" stroke="midnightblue" d="M223.949,-184.257C243.808,-200.638 276.454,-225.754 308,-242 314.322,-245.256 321.182,-248.22 328.056,-250.869"/>
<polygon fill="midnightblue" stroke="midnightblue" points="225.931,-181.352 216.017,-177.615 221.437,-186.719 225.931,-181.352"/>
</g>
<!-- Node5 -->
<g id="node5" class="node"><title>Node5</title>
<g id="a_node5"><a xlink:href="classscram_1_1gui_1_1model_1_1Element_1_1SetId.xhtml" target="_top" xlink:title="Sets the name of an Element. ">
<polygon fill="white" stroke="black" points="322,-202 322,-232 437,-232 437,-202 322,-202"/>
<text text-anchor="start" x="330" y="-220" font-family="Helvetica,sans-Serif" font-size="10.00">scram::gui::model::</text>
<text text-anchor="middle" x="379.5" y="-209" font-family="Helvetica,sans-Serif" font-size="10.00">Element::SetId&lt; T &gt;</text>
</a>
</g>
</g>
<!-- Node2&#45;&gt;Node5 -->
<g id="edge4" class="edge"><title>Node2&#45;&gt;Node5</title>
<path fill="none" stroke="midnightblue" d="M248.785,-180.366C272.015,-186.926 300.745,-195.04 325.257,-201.963"/>
<polygon fill="midnightblue" stroke="midnightblue" points="249.439,-176.914 238.864,-177.564 247.537,-183.65 249.439,-176.914"/>
</g>
<!-- Node6 -->
<g id="node6" class="node"><title>Node6</title>
<g id="a_node6"><a xlink:href="classscram_1_1gui_1_1model_1_1Element_1_1SetLabel.xhtml" target="_top" xlink:title="Sets the label of an Element. ">
<polygon fill="white" stroke="black" points="325,-153 325,-183 434,-183 434,-153 325,-153"/>
<text text-anchor="start" x="333" y="-171" font-family="Helvetica,sans-Serif" font-size="10.00">scram::gui::model::</text>
<text text-anchor="middle" x="379.5" y="-160" font-family="Helvetica,sans-Serif" font-size="10.00">Element::SetLabel</text>
</a>
</g>
</g>
<!-- Node2&#45;&gt;Node6 -->
<g id="edge5" class="edge"><title>Node2&#45;&gt;Node6</title>
<path fill="none" stroke="midnightblue" d="M274.096,-168C290.962,-168 308.757,-168 324.784,-168"/>
<polygon fill="midnightblue" stroke="midnightblue" points="273.739,-164.5 263.739,-168 273.739,-171.5 273.739,-164.5"/>
</g>
<!-- Node7 -->
<g id="node7" class="node"><title>Node7</title>
<g id="a_node7"><a xlink:href="classscram_1_1gui_1_1model_1_1Gate_1_1SetFormula.xhtml" target="_top" xlink:title="Formula modification commands. ">
<polygon fill="white" stroke="black" points="325,-104 325,-134 434,-134 434,-104 325,-104"/>
<text text-anchor="start" x="333" y="-122" font-family="Helvetica,sans-Serif" font-size="10.00">scram::gui::model::</text>
<text text-anchor="middle" x="379.5" y="-111" font-family="Helvetica,sans-Serif" font-size="10.00">Gate::SetFormula</text>
</a>
</g>
</g>
<!-- Node2&#45;&gt;Node7 -->
<g id="edge6" class="edge"><title>Node2&#45;&gt;Node7</title>
<path fill="none" stroke="midnightblue" d="M248.785,-155.634C272.015,-149.074 300.745,-140.96 325.257,-134.037"/>
<polygon fill="midnightblue" stroke="midnightblue" points="247.537,-152.35 238.864,-158.436 249.439,-159.086 247.537,-152.35"/>
</g>
<!-- Node8 -->
<g id="node8" class="node"><title>Node8</title>
<g id="a_node8"><a xlink:href="classscram_1_1gui_1_1model_1_1HouseEvent_1_1SetState.xhtml" target="_top" xlink:title="Flips the house event state. ">
<polygon fill="white" stroke="black" points="318,-55 318,-85 441,-85 441,-55 318,-55"/>
<text text-anchor="start" x="326" y="-73" font-family="Helvetica,sans-Serif" font-size="10.00">scram::gui::model::</text>
<text text-anchor="middle" x="379.5" y="-62" font-family="Helvetica,sans-Serif" font-size="10.00">HouseEvent::SetState</text>
</a>
</g>
</g>
<!-- Node2&#45;&gt;Node8 -->
<g id="edge7" class="edge"><title>Node2&#45;&gt;Node8</title>
<path fill="none" stroke="midnightblue" d="M261.676,-154.3C265.314,-152.456 268.797,-150.367 272,-148 295.197,-130.857 285.133,-111.581 308,-94 312.408,-90.6113 317.323,-87.6838 322.453,-85.1583"/>
<polygon fill="midnightblue" stroke="midnightblue" points="260.123,-151.159 252.383,-158.393 262.946,-157.565 260.123,-151.159"/>
</g>
<!-- Node9 -->
<g id="node9" class="node"><title>Node9</title>
<g id="a_node9"><a xlink:href="classscram_1_1gui_1_1model_1_1Model_1_1SetName.xhtml" target="_top" xlink:title="Sets the optional name of the model. ">
<polygon fill="white" stroke="black" points="325,-6 325,-36 434,-36 434,-6 325,-6"/>
<text text-anchor="start" x="333" y="-24" font-family="Helvetica,sans-Serif" font-size="10.00">scram::gui::model::</text>
<text text-anchor="middle" x="379.5" y="-13" font-family="Helvetica,sans-Serif" font-size="10.00">Model::SetName</text>
</a>
</g>
</g>
<!-- Node2&#45;&gt;Node9 -->
<g id="edge8" class="edge"><title>Node2&#45;&gt;Node9</title>
<path fill="none" stroke="midnightblue" d="M265.038,-153.528C267.52,-151.879 269.86,-150.043 272,-148 307.072,-114.51 273.571,-79.1504 308,-45 312.865,-40.1742 318.738,-36.3179 324.992,-33.2365"/>
<polygon fill="midnightblue" stroke="midnightblue" points="263.195,-150.547 256.133,-158.445 266.579,-156.675 263.195,-150.547"/>
</g>
</g>
</svg>
