<?xml version="1.0" encoding="UTF-8" standalone="no"?>
<!DOCTYPE svg PUBLIC "-//W3C//DTD SVG 1.1//EN"
 "http://www.w3.org/Graphics/SVG/1.1/DTD/svg11.dtd">
<!-- Generated by graphviz version 2.38.0 (20140413.2041)
 -->
<!-- Title: language.cpp Pages: 1 -->
<!--zoomable 151 -->
<svg id="main" version="1.1" xmlns="http://www.w3.org/2000/svg" xmlns:xlink="http://www.w3.org/1999/xlink" xml:space="preserve" onload="init(evt)">
<style type="text/css"><![CDATA[
.edge:hover path { stroke: red; }
.edge:hover polygon { stroke: red; fill: red; }
]]></style>
<script type="text/javascript"><![CDATA[
var edges = document.getElementsByTagName('g');
if (edges && edges.length) {
  for (var i=0;i<edges.length;i++) {
    if (edges[i].id.substr(0,4)=='edge') {
      edges[i].setAttribute('class','edge');
    }
  }
}
]]></script>
        <defs>
                <circle id="rim" cx="0" cy="0" r="7"/>
                <circle id="rim2" cx="0" cy="0" r="3.5"/>
                <g id="zoomPlus">
                        <use xlink:href="#rim" fill="#404040">
                                <set attributeName="fill" to="#808080" begin="zoomplus.mouseover" end="zoomplus.mouseout"/>
                        </use>
                        <path d="M-4,0h8M0,-4v8" fill="none" stroke="white" stroke-width="1.5" pointer-events="none"/>
                </g>
                <g id="zoomMin">
                        <use xlink:href="#rim" fill="#404040">
                                <set attributeName="fill" to="#808080" begin="zoomminus.mouseover" end="zoomminus.mouseout"/>
                        </use>
                        <path d="M-4,0h8" fill="none" stroke="white" stroke-width="1.5" pointer-events="none"/>
                </g>
                <g id="dirArrow">
                        <path fill="none" stroke="white" stroke-width="1.5" d="M0,-3.0v7 M-2.5,-0.5L0,-3.0L2.5,-0.5"/>
                </g>
               <g id="resetDef">
                       <use xlink:href="#rim2" fill="#404040">
                               <set attributeName="fill" to="#808080" begin="reset.mouseover" end="reset.mouseout"/>
                       </use>
               </g>
        </defs>

<script type="text/javascript">
var viewWidth = 1004;
var viewHeight = 151;
var sectionId = 'dynsection-0';
</script>
<script xlink:href="svgpan.js"/>
<svg id="graph" class="graph">
<g id="viewport">
<title>language.cpp</title>
<polygon fill="white" stroke="none" points="-4,4 -4,-147 1000,-147 1000,4 -4,4"/>
<!-- Node1 -->
<g id="node1" class="node"><title>Node1</title>
<polygon fill="#bfbfbf" stroke="black" points="390.5,-123.5 390.5,-142.5 471.5,-142.5 471.5,-123.5 390.5,-123.5"/>
<text text-anchor="middle" x="431" y="-130.5" font-family="Helvetica,sans-Serif" font-size="10.00">language.cpp</text>
</g>
<!-- Node2 -->
<g id="node2" class="node"><title>Node2</title>
<g id="a_node2"><a xlink:href="language_8h.xhtml" target="_top" xlink:title="Localization and translation facilities. ">
<polygon fill="white" stroke="black" points="50,-62 50,-81 120,-81 120,-62 50,-62"/>
<text text-anchor="middle" x="85" y="-69" font-family="Helvetica,sans-Serif" font-size="10.00">language.h</text>
</a>
</g>
</g>
<!-- Node1&#45;&gt;Node2 -->
<g id="edge1" class="edge"><title>Node1&#45;&gt;Node2</title>
<path fill="none" stroke="midnightblue" d="M390.037,-128.135C331.567,-122.113 221.062,-108.86 129,-87 125.53,-86.176 121.942,-85.2025 118.381,-84.1558"/>
<polygon fill="midnightblue" stroke="midnightblue" points="119.125,-80.7216 108.536,-81.0763 117.035,-87.4023 119.125,-80.7216"/>
</g>
<!-- Node3 -->
<g id="node3" class="node"><title>Node3</title>
<polygon fill="white" stroke="#bfbfbf" points="0,-0.5 0,-19.5 44,-19.5 44,-0.5 0,-0.5"/>
<text text-anchor="middle" x="22" y="-7.5" font-family="Helvetica,sans-Serif" font-size="10.00">string</text>
</g>
<!-- Node1&#45;&gt;Node3 -->
<g id="edge11" class="edge"><title>Node1&#45;&gt;Node3</title>
<path fill="none" stroke="midnightblue" d="M390.418,-129.908C295.864,-124.67 66.933,-109.761 41,-87 24.9006,-72.8698 21.4193,-47.3594 21.1237,-29.8202"/>
<polygon fill="midnightblue" stroke="midnightblue" points="24.626,-29.7008 21.2889,-19.6453 17.6269,-29.5871 24.626,-29.7008"/>
</g>
<!-- Node6 -->
<g id="node6" class="node"><title>Node6</title>
<polygon fill="white" stroke="#bfbfbf" points="138.5,-62 138.5,-81 187.5,-81 187.5,-62 138.5,-62"/>
<text text-anchor="middle" x="163" y="-69" font-family="Helvetica,sans-Serif" font-size="10.00">cstring</text>
</g>
<!-- Node1&#45;&gt;Node6 -->
<g id="edge5" class="edge"><title>Node1&#45;&gt;Node6</title>
<path fill="none" stroke="midnightblue" d="M390.199,-126.844C342.995,-120.265 263.269,-107.249 197,-87 194.856,-86.3448 192.664,-85.5984 190.477,-84.7979"/>
<polygon fill="midnightblue" stroke="midnightblue" points="191.67,-81.5058 181.085,-81.0568 189.08,-88.0089 191.67,-81.5058"/>
</g>
<!-- Node7 -->
<g id="node7" class="node"><title>Node7</title>
<polygon fill="white" stroke="#bfbfbf" points="206,-56.5 206,-86.5 328,-86.5 328,-56.5 206,-56.5"/>
<text text-anchor="start" x="214" y="-74.5" font-family="Helvetica,sans-Serif" font-size="10.00">boost/algorithm/string</text>
<text text-anchor="middle" x="267" y="-63.5" font-family="Helvetica,sans-Serif" font-size="10.00">/predicate.hpp</text>
</g>
<!-- Node1&#45;&gt;Node7 -->
<g id="edge6" class="edge"><title>Node1&#45;&gt;Node7</title>
<path fill="none" stroke="midnightblue" d="M407.503,-123.475C383.527,-114.776 345.627,-101.026 315.23,-89.9981"/>
<polygon fill="midnightblue" stroke="midnightblue" points="316.246,-86.6434 305.652,-86.523 313.858,-93.2237 316.246,-86.6434"/>
</g>
<!-- Node8 -->
<g id="node8" class="node"><title>Node8</title>
<polygon fill="white" stroke="#bfbfbf" points="346,-62 346,-81 516,-81 516,-62 346,-62"/>
<text text-anchor="middle" x="431" y="-69" font-family="Helvetica,sans-Serif" font-size="10.00">boost/filesystem/operations.hpp</text>
</g>
<!-- Node1&#45;&gt;Node8 -->
<g id="edge7" class="edge"><title>Node1&#45;&gt;Node8</title>
<path fill="none" stroke="midnightblue" d="M431,-123.475C431,-115.08 431,-101.981 431,-91.1631"/>
<polygon fill="midnightblue" stroke="midnightblue" points="434.5,-91.0091 431,-81.0091 427.5,-91.0091 434.5,-91.0091"/>
</g>
<!-- Node9 -->
<g id="node9" class="node"><title>Node9</title>
<polygon fill="white" stroke="#bfbfbf" points="534.5,-62 534.5,-81 675.5,-81 675.5,-62 534.5,-62"/>
<text text-anchor="middle" x="605" y="-69" font-family="Helvetica,sans-Serif" font-size="10.00">boost/filesystem/path.hpp</text>
</g>
<!-- Node1&#45;&gt;Node9 -->
<g id="edge8" class="edge"><title>Node1&#45;&gt;Node9</title>
<path fill="none" stroke="midnightblue" d="M455.93,-123.475C486.036,-113.18 536.832,-95.8103 570.638,-84.2502"/>
<polygon fill="midnightblue" stroke="midnightblue" points="571.787,-87.5565 580.116,-81.0091 569.522,-80.933 571.787,-87.5565"/>
</g>
<!-- Node10 -->
<g id="node10" class="node"><title>Node10</title>
<polygon fill="white" stroke="#bfbfbf" points="693.5,-62 693.5,-81 748.5,-81 748.5,-62 693.5,-62"/>
<text text-anchor="middle" x="721" y="-69" font-family="Helvetica,sans-Serif" font-size="10.00">QLocale</text>
</g>
<!-- Node1&#45;&gt;Node10 -->
<g id="edge9" class="edge"><title>Node1&#45;&gt;Node10</title>
<path fill="none" stroke="midnightblue" d="M471.869,-127.257C522.356,-120.823 610.573,-107.698 684,-87 686.588,-86.2705 689.245,-85.4272 691.891,-84.5215"/>
<polygon fill="midnightblue" stroke="midnightblue" points="693.105,-87.8042 701.276,-81.0606 690.683,-81.2365 693.105,-87.8042"/>
</g>
<!-- Node11 -->
<g id="node11" class="node"><title>Node11</title>
<polygon fill="white" stroke="#bfbfbf" points="766.5,-62 766.5,-81 825.5,-81 825.5,-62 766.5,-62"/>
<text text-anchor="middle" x="796" y="-69" font-family="Helvetica,sans-Serif" font-size="10.00">src/env.h</text>
</g>
<!-- Node1&#45;&gt;Node11 -->
<g id="edge10" class="edge"><title>Node1&#45;&gt;Node11</title>
<path fill="none" stroke="midnightblue" d="M471.694,-129.256C533.932,-124.417 656.161,-112.38 757,-87 759.986,-86.2485 763.059,-85.3452 766.107,-84.3616"/>
<polygon fill="midnightblue" stroke="midnightblue" points="767.338,-87.6389 775.622,-81.0332 765.027,-81.0315 767.338,-87.6389"/>
</g>
<!-- Node12 -->
<g id="node12" class="node"><title>Node12</title>
<g id="a_node12"><a xlink:href="guiassert_8h.xhtml" target="_top" xlink:title="GUI assertions that should not crash the program by default. ">
<polygon fill="white" stroke="black" points="844,-62 844,-81 914,-81 914,-62 844,-62"/>
<text text-anchor="middle" x="879" y="-69" font-family="Helvetica,sans-Serif" font-size="10.00">guiassert.h</text>
</a>
</g>
</g>
<!-- Node1&#45;&gt;Node12 -->
<g id="edge12" class="edge"><title>Node1&#45;&gt;Node12</title>
<path fill="none" stroke="midnightblue" d="M471.758,-130.152C544.994,-126.234 703.391,-115.038 834,-87 837.862,-86.1709 841.862,-85.1411 845.813,-84.0154"/>
<polygon fill="midnightblue" stroke="midnightblue" points="846.88,-87.349 855.421,-81.0791 844.834,-80.6546 846.88,-87.349"/>
</g>
<!-- Node2&#45;&gt;Node3 -->
<g id="edge2" class="edge"><title>Node2&#45;&gt;Node3</title>
<path fill="none" stroke="midnightblue" d="M75.9736,-61.9751C66.2429,-52.785 50.542,-37.9563 38.577,-26.656"/>
<polygon fill="midnightblue" stroke="midnightblue" points="40.683,-23.8308 31.0096,-19.5091 35.8766,-28.9199 40.683,-23.8308"/>
</g>
<!-- Node4 -->
<g id="node4" class="node"><title>Node4</title>
<polygon fill="white" stroke="#bfbfbf" points="62.5,-0.5 62.5,-19.5 109.5,-19.5 109.5,-0.5 62.5,-0.5"/>
<text text-anchor="middle" x="86" y="-7.5" font-family="Helvetica,sans-Serif" font-size="10.00">vector</text>
</g>
<!-- Node2&#45;&gt;Node4 -->
<g id="edge3" class="edge"><title>Node2&#45;&gt;Node4</title>
<path fill="none" stroke="midnightblue" d="M85.1433,-61.9751C85.2844,-53.5803 85.5045,-40.4806 85.6863,-29.6631"/>
<polygon fill="midnightblue" stroke="midnightblue" points="89.1884,-29.5665 85.857,-19.5091 82.1893,-29.4488 89.1884,-29.5665"/>
</g>
<!-- Node5 -->
<g id="node5" class="node"><title>Node5</title>
<polygon fill="white" stroke="#bfbfbf" points="416.5,-0.5 416.5,-19.5 469.5,-19.5 469.5,-0.5 416.5,-0.5"/>
<text text-anchor="middle" x="443" y="-7.5" font-family="Helvetica,sans-Serif" font-size="10.00">QString</text>
</g>
<!-- Node2&#45;&gt;Node5 -->
<g id="edge4" class="edge"><title>Node2&#45;&gt;Node5</title>
<path fill="none" stroke="midnightblue" d="M108.53,-61.8989C115.09,-59.7338 122.266,-57.5792 129,-56 227.883,-32.8117 347.258,-19.6789 406.279,-14.148"/>
<polygon fill="midnightblue" stroke="midnightblue" points="406.602,-17.6332 416.24,-13.2334 405.962,-10.6625 406.602,-17.6332"/>
</g>
<!-- Node12&#45;&gt;Node5 -->
<g id="edge14" class="edge"><title>Node12&#45;&gt;Node5</title>
<path fill="none" stroke="midnightblue" d="M855.417,-61.9363C848.583,-59.7189 841.06,-57.528 834,-56 705.684,-28.2274 549.728,-16.7948 479.902,-12.8191"/>
<polygon fill="midnightblue" stroke="midnightblue" points="480.023,-9.32051 469.845,-12.2646 479.637,-16.3099 480.023,-9.32051"/>
</g>
<!-- Node13 -->
<g id="node13" class="node"><title>Node13</title>
<polygon fill="white" stroke="#bfbfbf" points="776.5,-0.5 776.5,-19.5 861.5,-19.5 861.5,-0.5 776.5,-0.5"/>
<text text-anchor="middle" x="819" y="-7.5" font-family="Helvetica,sans-Serif" font-size="10.00">QMessageBox</text>
</g>
<!-- Node12&#45;&gt;Node13 -->
<g id="edge13" class="edge"><title>Node12&#45;&gt;Node13</title>
<path fill="none" stroke="midnightblue" d="M870.403,-61.9751C861.136,-52.785 846.183,-37.9563 834.788,-26.656"/>
<polygon fill="midnightblue" stroke="midnightblue" points="837.146,-24.0653 827.581,-19.5091 832.217,-29.0358 837.146,-24.0653"/>
</g>
<!-- Node14 -->
<g id="node14" class="node"><title>Node14</title>
<polygon fill="white" stroke="#bfbfbf" points="880,-0.5 880,-19.5 996,-19.5 996,-0.5 880,-0.5"/>
<text text-anchor="middle" x="938" y="-7.5" font-family="Helvetica,sans-Serif" font-size="10.00">src/ext/source_info.h</text>
</g>
<!-- Node12&#45;&gt;Node14 -->
<g id="edge15" class="edge"><title>Node12&#45;&gt;Node14</title>
<path fill="none" stroke="midnightblue" d="M887.453,-61.9751C896.566,-52.785 911.27,-37.9563 922.476,-26.656"/>
<polygon fill="midnightblue" stroke="midnightblue" points="925.007,-29.0744 929.562,-19.5091 920.036,-24.1455 925.007,-29.0744"/>
</g>
</g>
</svg>
        <g id="navigator" transform="translate(0 0)" fill="#404254">
                <rect fill="#f2f5e9" fill-opacity="0.5" stroke="#606060" stroke-width=".5" x="0" y="0" width="60" height="60"/>
                <use id="zoomplus" xlink:href="#zoomPlus" x="17" y="9" onmousedown="handleZoom(evt,'in')"/>
                <use id="zoomminus" xlink:href="#zoomMin" x="42" y="9" onmousedown="handleZoom(evt,'out')"/>
                <use id="reset" xlink:href="#resetDef" x="30" y="36" onmousedown="handleReset()"/>
                <g id="arrowUp" xlink:href="#dirArrow" transform="translate(30 24)" onmousedown="handlePan(0,-1)">
                  <use xlink:href="#rim" fill="#404040">
                        <set attributeName="fill" to="#808080" begin="arrowUp.mouseover" end="arrowUp.mouseout"/>
                  </use>
                  <path fill="none" stroke="white" stroke-width="1.5" d="M0,-3.0v7 M-2.5,-0.5L0,-3.0L2.5,-0.5"/>
                </g>
                <g id="arrowRight" xlink:href="#dirArrow" transform="rotate(90) translate(36 -43)" onmousedown="handlePan(1,0)">
                  <use xlink:href="#rim" fill="#404040">
                        <set attributeName="fill" to="#808080" begin="arrowRight.mouseover" end="arrowRight.mouseout"/>
                  </use>
                  <path fill="none" stroke="white" stroke-width="1.5" d="M0,-3.0v7 M-2.5,-0.5L0,-3.0L2.5,-0.5"/>
                </g>
                <g id="arrowDown" xlink:href="#dirArrow" transform="rotate(180) translate(-30 -48)" onmousedown="handlePan(0,1)">
                  <use xlink:href="#rim" fill="#404040">
                        <set attributeName="fill" to="#808080" begin="arrowDown.mouseover" end="arrowDown.mouseout"/>
                  </use>
                  <path fill="none" stroke="white" stroke-width="1.5" d="M0,-3.0v7 M-2.5,-0.5L0,-3.0L2.5,-0.5"/>
                </g>
                <g id="arrowLeft" xlink:href="#dirArrow" transform="rotate(270) translate(-36 17)" onmousedown="handlePan(-1,0)">
                  <use xlink:href="#rim" fill="#404040">
                        <set attributeName="fill" to="#808080" begin="arrowLeft.mouseover" end="arrowLeft.mouseout"/>
                  </use>
                  <path fill="none" stroke="white" stroke-width="1.5" d="M0,-3.0v7 M-2.5,-0.5L0,-3.0L2.5,-0.5"/>
                </g>
        </g>
        <svg viewBox="0 0 15 15" width="100%" height="30px" preserveAspectRatio="xMaxYMin meet">
         <g id="arrow_out" transform="scale(0.3 0.3)">
          <a xlink:href="language_8cpp__incl_org.svg" target="_base">
           <rect id="button" ry="5" rx="5" y="6" x="6" height="38" width="38"
                fill="#f2f5e9" fill-opacity="0.5" stroke="#606060" stroke-width="1.0"/>
           <path id="arrow"
             d="M 11.500037,31.436501 C 11.940474,20.09759 22.043105,11.32322 32.158766,21.979434 L 37.068811,17.246167 C 37.068811,17.246167 37.088388,32 37.088388,32 L 22.160133,31.978069 C 22.160133,31.978069 26.997745,27.140456 26.997745,27.140456 C 18.528582,18.264221 13.291696,25.230495 11.500037,31.436501 z"
             style="fill:#404040;"/>
          </a>
         </g>
        </svg>
</svg>
