<?xml version="1.0" encoding="UTF-8" standalone="no"?>
<!DOCTYPE svg PUBLIC "-//W3C//DTD SVG 1.1//EN"
 "http://www.w3.org/Graphics/SVG/1.1/DTD/svg11.dtd">
<!-- Generated by graphviz version 2.38.0 (20140413.2041)
 -->
<!-- Title: main Pages: 1 -->
<svg width="743pt" height="83pt"
 viewBox="0.00 0.00 743.00 83.00" xmlns="http://www.w3.org/2000/svg" xmlns:xlink="http://www.w3.org/1999/xlink">
<g id="graph0" class="graph" transform="scale(1 1) rotate(0) translate(4 79)">
<title>main</title>
<polygon fill="white" stroke="none" points="-4,4 -4,-79 739,-79 739,4 -4,4"/>
<!-- Node1 -->
<g id="node1" class="node"><title>Node1</title>
<polygon fill="#bfbfbf" stroke="black" points="0,-28 0,-47 41,-47 41,-28 0,-28"/>
<text text-anchor="middle" x="20.5" y="-35" font-family="Helvetica,sans-Serif" font-size="10.00">main</text>
</g>
<!-- Node2 -->
<g id="node2" class="node"><title>Node2</title>
<g id="a_node2"><a xlink:href="classscram_1_1gui_1_1MainWindow.xhtml#ad25ffda8b13e4743312f9a3cad96d271" target="_top" xlink:title="Adds a new set of model elements from input files. ">
<polygon fill="white" stroke="black" points="244,-44.5 244,-74.5 375,-74.5 375,-44.5 244,-44.5"/>
<text text-anchor="start" x="252" y="-62.5" font-family="Helvetica,sans-Serif" font-size="10.00">scram::gui::MainWindow</text>
<text text-anchor="middle" x="309.5" y="-51.5" font-family="Helvetica,sans-Serif" font-size="10.00">::addInputFiles</text>
</a>
</g>
</g>
<!-- Node1&#45;&gt;Node2 -->
<g id="edge1" class="edge"><title>Node1&#45;&gt;Node2</title>
<path fill="none" stroke="midnightblue" d="M41.2267,-39.0121C80.2356,-42.0024 169.042,-48.8099 233.611,-53.7594"/>
<polygon fill="midnightblue" stroke="midnightblue" points="233.516,-57.2623 243.755,-54.5369 234.052,-50.2828 233.516,-57.2623"/>
</g>
<!-- Node6 -->
<g id="node6" class="node"><title>Node6</title>
<g id="a_node6"><a xlink:href="classscram_1_1gui_1_1MainWindow.xhtml#a503dcecee96b43d2111e2fce27413cad" target="_top" xlink:title="Loads a model and analysis from a project file. ">
<polygon fill="white" stroke="black" points="77,-0.5 77,-30.5 208,-30.5 208,-0.5 77,-0.5"/>
<text text-anchor="start" x="85" y="-18.5" font-family="Helvetica,sans-Serif" font-size="10.00">scram::gui::MainWindow</text>
<text text-anchor="middle" x="142.5" y="-7.5" font-family="Helvetica,sans-Serif" font-size="10.00">::setProjectFile</text>
</a>
</g>
</g>
<!-- Node1&#45;&gt;Node6 -->
<g id="edge5" class="edge"><title>Node1&#45;&gt;Node6</title>
<path fill="none" stroke="midnightblue" d="M41.0471,-33.9164C48.4408,-32.5609 57.3684,-30.9241 66.8134,-29.1925"/>
<polygon fill="midnightblue" stroke="midnightblue" points="67.5959,-32.6075 76.8008,-27.3615 66.3335,-25.7223 67.5959,-32.6075"/>
</g>
<!-- Node3 -->
<g id="node3" class="node"><title>Node3</title>
<g id="a_node3"><a xlink:href="translate_8h.xhtml#adfe5f7367036126ec5ca81430fbf4c71" target="_top" xlink:title="Forwards to translate function with a default global context. ">
<polygon fill="white" stroke="black" points="444,-6 444,-25 522,-25 522,-6 444,-6"/>
<text text-anchor="middle" x="483" y="-13" font-family="Helvetica,sans-Serif" font-size="10.00">scram::gui::_</text>
</a>
</g>
</g>
<!-- Node2&#45;&gt;Node3 -->
<g id="edge2" class="edge"><title>Node2&#45;&gt;Node3</title>
<path fill="none" stroke="midnightblue" d="M369.041,-44.4808C390.639,-38.9396 414.806,-32.7393 435.227,-27.5001"/>
<polygon fill="midnightblue" stroke="midnightblue" points="436.107,-30.8878 444.923,-25.0124 434.367,-24.1074 436.107,-30.8878"/>
</g>
<!-- Node4 -->
<g id="node4" class="node"><title>Node4</title>
<g id="a_node4"><a xlink:href="classscram_1_1gui_1_1ZoomableView.xhtml#a859d676e6600e263ae4487bc1845385d" target="_top" xlink:title="Automatically adjusts the zoom to fit the view into the current scene. ">
<polygon fill="white" stroke="black" points="411,-44.5 411,-74.5 555,-74.5 555,-44.5 411,-44.5"/>
<text text-anchor="start" x="419" y="-62.5" font-family="Helvetica,sans-Serif" font-size="10.00">scram::gui::ZoomableView</text>
<text text-anchor="middle" x="483" y="-51.5" font-family="Helvetica,sans-Serif" font-size="10.00">::zoomBestFit</text>
</a>
</g>
</g>
<!-- Node2&#45;&gt;Node4 -->
<g id="edge3" class="edge"><title>Node2&#45;&gt;Node4</title>
<path fill="none" stroke="midnightblue" d="M375.337,-59.5C383.564,-59.5 392.065,-59.5 400.51,-59.5"/>
<polygon fill="midnightblue" stroke="midnightblue" points="400.762,-63.0001 410.762,-59.5 400.762,-56.0001 400.762,-63.0001"/>
</g>
<!-- Node5 -->
<g id="node5" class="node"><title>Node5</title>
<g id="a_node5"><a xlink:href="classscram_1_1gui_1_1ZoomableView.xhtml#ace3d3caf7b6043cceaf2dfb176df9c8a" target="_top" xlink:title="Accepts requests to change the zoom to the given level. ">
<polygon fill="white" stroke="black" points="591,-44.5 591,-74.5 735,-74.5 735,-44.5 591,-44.5"/>
<text text-anchor="start" x="599" y="-62.5" font-family="Helvetica,sans-Serif" font-size="10.00">scram::gui::ZoomableView</text>
<text text-anchor="middle" x="663" y="-51.5" font-family="Helvetica,sans-Serif" font-size="10.00">::setZoom</text>
</a>
</g>
</g>
<!-- Node4&#45;&gt;Node5 -->
<g id="edge4" class="edge"><title>Node4&#45;&gt;Node5</title>
<path fill="none" stroke="midnightblue" d="M555.118,-59.5C563.609,-59.5 572.327,-59.5 580.944,-59.5"/>
<polygon fill="midnightblue" stroke="midnightblue" points="580.995,-63.0001 590.995,-59.5 580.995,-56.0001 580.995,-63.0001"/>
</g>
<!-- Node6&#45;&gt;Node2 -->
<g id="edge6" class="edge"><title>Node6&#45;&gt;Node2</title>
<path fill="none" stroke="midnightblue" d="M199.822,-30.5192C213.42,-34.1452 228.075,-38.0534 242.087,-41.7899"/>
<polygon fill="midnightblue" stroke="midnightblue" points="241.588,-45.2789 252.152,-44.4738 243.391,-38.5153 241.588,-45.2789"/>
</g>
<!-- Node6&#45;&gt;Node3 -->
<g id="edge7" class="edge"><title>Node6&#45;&gt;Node3</title>
<path fill="none" stroke="midnightblue" d="M208.366,-15.5C274.104,-15.5 374.312,-15.5 433.474,-15.5"/>
<polygon fill="midnightblue" stroke="midnightblue" points="433.671,-19.0001 443.671,-15.5 433.671,-12.0001 433.671,-19.0001"/>
</g>
</g>
</svg>
