<?xml version="1.0" encoding="UTF-8" standalone="no"?>
<!DOCTYPE svg PUBLIC "-//W3C//DTD SVG 1.1//EN"
 "http://www.w3.org/Graphics/SVG/1.1/DTD/svg11.dtd">
<!-- Generated by graphviz version 2.38.0 (20140413.2041)
 -->
<!-- Title: mainwindow.h Pages: 1 -->
<!--zoomable 207 -->
<svg id="main" version="1.1" xmlns="http://www.w3.org/2000/svg" xmlns:xlink="http://www.w3.org/1999/xlink" xml:space="preserve" onload="init(evt)">
<style type="text/css"><![CDATA[
.edge:hover path { stroke: red; }
.edge:hover polygon { stroke: red; fill: red; }
]]></style>
<script type="text/javascript"><![CDATA[
var edges = document.getElementsByTagName('g');
if (edges && edges.length) {
  for (var i=0;i<edges.length;i++) {
    if (edges[i].id.substr(0,4)=='edge') {
      edges[i].setAttribute('class','edge');
    }
  }
}
]]></script>
        <defs>
                <circle id="rim" cx="0" cy="0" r="7"/>
                <circle id="rim2" cx="0" cy="0" r="3.5"/>
                <g id="zoomPlus">
                        <use xlink:href="#rim" fill="#404040">
                                <set attributeName="fill" to="#808080" begin="zoomplus.mouseover" end="zoomplus.mouseout"/>
                        </use>
                        <path d="M-4,0h8M0,-4v8" fill="none" stroke="white" stroke-width="1.5" pointer-events="none"/>
                </g>
                <g id="zoomMin">
                        <use xlink:href="#rim" fill="#404040">
                                <set attributeName="fill" to="#808080" begin="zoomminus.mouseover" end="zoomminus.mouseout"/>
                        </use>
                        <path d="M-4,0h8" fill="none" stroke="white" stroke-width="1.5" pointer-events="none"/>
                </g>
                <g id="dirArrow">
                        <path fill="none" stroke="white" stroke-width="1.5" d="M0,-3.0v7 M-2.5,-0.5L0,-3.0L2.5,-0.5"/>
                </g>
               <g id="resetDef">
                       <use xlink:href="#rim2" fill="#404040">
                               <set attributeName="fill" to="#808080" begin="reset.mouseover" end="reset.mouseout"/>
                       </use>
               </g>
        </defs>

<script type="text/javascript">
var viewWidth = 1947;
var viewHeight = 207;
var sectionId = 'dynsection-0';
</script>
<script xlink:href="svgpan.js"/>
<svg id="graph" class="graph">
<g id="viewport">
<title>mainwindow.h</title>
<polygon fill="white" stroke="none" points="-4,4 -4,-203 1942.5,-203 1942.5,4 -4,4"/>
<!-- Node1 -->
<g id="node1" class="node"><title>Node1</title>
<polygon fill="#bfbfbf" stroke="black" points="946,-179.5 946,-198.5 1029,-198.5 1029,-179.5 946,-179.5"/>
<text text-anchor="middle" x="987.5" y="-186.5" font-family="Helvetica,sans-Serif" font-size="10.00">mainwindow.h</text>
</g>
<!-- Node2 -->
<g id="node2" class="node"><title>Node2</title>
<polygon fill="white" stroke="#bfbfbf" points="346,-123.5 346,-142.5 387,-142.5 387,-123.5 346,-123.5"/>
<text text-anchor="middle" x="366.5" y="-130.5" font-family="Helvetica,sans-Serif" font-size="10.00">array</text>
</g>
<!-- Node1&#45;&gt;Node2 -->
<g id="edge1" class="edge"><title>Node1&#45;&gt;Node2</title>
<path fill="none" stroke="midnightblue" d="M945.81,-188.036C850.037,-187.437 607.019,-182.022 397.231,-142.945"/>
<polygon fill="midnightblue" stroke="midnightblue" points="397.743,-139.48 387.267,-141.059 396.441,-146.358 397.743,-139.48"/>
</g>
<!-- Node3 -->
<g id="node3" class="node"><title>Node3</title>
<polygon fill="white" stroke="#bfbfbf" points="405,-123.5 405,-142.5 468,-142.5 468,-123.5 405,-123.5"/>
<text text-anchor="middle" x="436.5" y="-130.5" font-family="Helvetica,sans-Serif" font-size="10.00">functional</text>
</g>
<!-- Node1&#45;&gt;Node3 -->
<g id="edge2" class="edge"><title>Node1&#45;&gt;Node3</title>
<path fill="none" stroke="midnightblue" d="M945.762,-185.759C859.112,-180.781 653.526,-167.283 482.5,-143 481.04,-142.793 479.556,-142.57 478.058,-142.334"/>
<polygon fill="midnightblue" stroke="midnightblue" points="478.547,-138.867 468.1,-140.633 477.368,-145.767 478.547,-138.867"/>
</g>
<!-- Node4 -->
<g id="node4" class="node"><title>Node4</title>
<polygon fill="white" stroke="#bfbfbf" points="0,-62 0,-81 57,-81 57,-62 0,-62"/>
<text text-anchor="middle" x="28.5" y="-69" font-family="Helvetica,sans-Serif" font-size="10.00">memory</text>
</g>
<!-- Node1&#45;&gt;Node4 -->
<g id="edge3" class="edge"><title>Node1&#45;&gt;Node4</title>
<path fill="none" stroke="midnightblue" d="M945.705,-186.386C844.945,-182.121 591.027,-169.052 510.5,-143 493.82,-137.604 493.198,-128.342 476.5,-123 302.277,-67.2583 244.769,-127.999 66.5,-87 63.5001,-86.3101 60.4199,-85.4346 57.3739,-84.4569"/>
<polygon fill="midnightblue" stroke="midnightblue" points="58.4946,-81.1408 47.8999,-81.0869 56.1486,-87.736 58.4946,-81.1408"/>
</g>
<!-- Node5 -->
<g id="node5" class="node"><title>Node5</title>
<polygon fill="white" stroke="#bfbfbf" points="75.5,-62 75.5,-81 119.5,-81 119.5,-62 75.5,-62"/>
<text text-anchor="middle" x="97.5" y="-69" font-family="Helvetica,sans-Serif" font-size="10.00">string</text>
</g>
<!-- Node1&#45;&gt;Node5 -->
<g id="edge4" class="edge"><title>Node1&#45;&gt;Node5</title>
<path fill="none" stroke="midnightblue" d="M945.928,-188.938C866.766,-189.599 689.684,-185.641 548.5,-143 530.23,-137.482 528.793,-128.443 510.5,-123 347.053,-74.3639 293.044,-131.785 128.5,-87 126.565,-86.4734 124.602,-85.8336 122.651,-85.1196"/>
<polygon fill="midnightblue" stroke="midnightblue" points="123.764,-81.7903 113.191,-81.1122 121.034,-88.2358 123.764,-81.7903"/>
</g>
<!-- Node6 -->
<g id="node6" class="node"><title>Node6</title>
<polygon fill="white" stroke="#bfbfbf" points="138,-62 138,-81 185,-81 185,-62 138,-62"/>
<text text-anchor="middle" x="161.5" y="-69" font-family="Helvetica,sans-Serif" font-size="10.00">vector</text>
</g>
<!-- Node1&#45;&gt;Node6 -->
<g id="edge5" class="edge"><title>Node1&#45;&gt;Node6</title>
<path fill="none" stroke="midnightblue" d="M945.777,-188.36C871.736,-187.9 713.231,-181.941 586.5,-143 568.257,-137.394 566.773,-128.508 548.5,-123 396.661,-77.2309 346.623,-128.268 193.5,-87 191.347,-86.4197 189.156,-85.7094 186.982,-84.918"/>
<polygon fill="midnightblue" stroke="midnightblue" points="188.308,-81.6789 177.73,-81.0818 185.627,-88.1451 188.308,-81.6789"/>
</g>
<!-- Node7 -->
<g id="node7" class="node"><title>Node7</title>
<polygon fill="white" stroke="#bfbfbf" points="712.5,-123.5 712.5,-142.5 820.5,-142.5 820.5,-123.5 712.5,-123.5"/>
<text text-anchor="middle" x="766.5" y="-130.5" font-family="Helvetica,sans-Serif" font-size="10.00">QAbstractItemView</text>
</g>
<!-- Node1&#45;&gt;Node7 -->
<g id="edge6" class="edge"><title>Node1&#45;&gt;Node7</title>
<path fill="none" stroke="midnightblue" d="M952.482,-179.444C914.252,-170.102 852.933,-155.119 811.243,-144.933"/>
<polygon fill="midnightblue" stroke="midnightblue" points="811.899,-141.49 801.354,-142.516 810.238,-148.29 811.899,-141.49"/>
</g>
<!-- Node8 -->
<g id="node8" class="node"><title>Node8</title>
<polygon fill="white" stroke="#bfbfbf" points="838.5,-123.5 838.5,-142.5 892.5,-142.5 892.5,-123.5 838.5,-123.5"/>
<text text-anchor="middle" x="865.5" y="-130.5" font-family="Helvetica,sans-Serif" font-size="10.00">QAction</text>
</g>
<!-- Node1&#45;&gt;Node8 -->
<g id="edge7" class="edge"><title>Node1&#45;&gt;Node8</title>
<path fill="none" stroke="midnightblue" d="M968.169,-179.444C948.18,-170.596 916.757,-156.687 893.936,-146.586"/>
<polygon fill="midnightblue" stroke="midnightblue" points="895.302,-143.363 884.741,-142.516 892.468,-149.764 895.302,-143.363"/>
</g>
<!-- Node9 -->
<g id="node9" class="node"><title>Node9</title>
<polygon fill="white" stroke="#bfbfbf" points="911,-123.5 911,-142.5 988,-142.5 988,-123.5 911,-123.5"/>
<text text-anchor="middle" x="949.5" y="-130.5" font-family="Helvetica,sans-Serif" font-size="10.00">QComboBox</text>
</g>
<!-- Node1&#45;&gt;Node9 -->
<g id="edge8" class="edge"><title>Node1&#45;&gt;Node9</title>
<path fill="none" stroke="midnightblue" d="M981.225,-179.083C975.858,-171.455 967.982,-160.264 961.421,-150.941"/>
<polygon fill="midnightblue" stroke="midnightblue" points="964.275,-148.915 955.658,-142.751 958.551,-152.943 964.275,-148.915"/>
</g>
<!-- Node10 -->
<g id="node10" class="node"><title>Node10</title>
<polygon fill="white" stroke="#bfbfbf" points="1006.5,-123.5 1006.5,-142.5 1044.5,-142.5 1044.5,-123.5 1006.5,-123.5"/>
<text text-anchor="middle" x="1025.5" y="-130.5" font-family="Helvetica,sans-Serif" font-size="10.00">QDir</text>
</g>
<!-- Node1&#45;&gt;Node10 -->
<g id="edge9" class="edge"><title>Node1&#45;&gt;Node10</title>
<path fill="none" stroke="midnightblue" d="M993.775,-179.083C999.142,-171.455 1007.02,-160.264 1013.58,-150.941"/>
<polygon fill="midnightblue" stroke="midnightblue" points="1016.45,-152.943 1019.34,-142.751 1010.72,-148.915 1016.45,-152.943"/>
</g>
<!-- Node11 -->
<g id="node11" class="node"><title>Node11</title>
<polygon fill="white" stroke="#bfbfbf" points="1062.5,-123.5 1062.5,-142.5 1124.5,-142.5 1124.5,-123.5 1062.5,-123.5"/>
<text text-anchor="middle" x="1093.5" y="-130.5" font-family="Helvetica,sans-Serif" font-size="10.00">QLineEdit</text>
</g>
<!-- Node1&#45;&gt;Node11 -->
<g id="edge10" class="edge"><title>Node1&#45;&gt;Node11</title>
<path fill="none" stroke="midnightblue" d="M1004.53,-179.324C1021.53,-170.664 1047.88,-157.242 1067.49,-147.249"/>
<polygon fill="midnightblue" stroke="midnightblue" points="1069.19,-150.312 1076.51,-142.655 1066.01,-144.075 1069.19,-150.312"/>
</g>
<!-- Node12 -->
<g id="node12" class="node"><title>Node12</title>
<polygon fill="white" stroke="#bfbfbf" points="1142.5,-123.5 1142.5,-142.5 1224.5,-142.5 1224.5,-123.5 1142.5,-123.5"/>
<text text-anchor="middle" x="1183.5" y="-130.5" font-family="Helvetica,sans-Serif" font-size="10.00">QMainWindow</text>
</g>
<!-- Node1&#45;&gt;Node12 -->
<g id="edge11" class="edge"><title>Node1&#45;&gt;Node12</title>
<path fill="none" stroke="midnightblue" d="M1018.56,-179.444C1052.1,-170.201 1105.7,-155.436 1142.64,-145.257"/>
<polygon fill="midnightblue" stroke="midnightblue" points="1143.88,-148.547 1152.59,-142.516 1142.02,-141.798 1143.88,-148.547"/>
</g>
<!-- Node13 -->
<g id="node13" class="node"><title>Node13</title>
<polygon fill="white" stroke="#bfbfbf" points="1242.5,-123.5 1242.5,-142.5 1306.5,-142.5 1306.5,-123.5 1242.5,-123.5"/>
<text text-anchor="middle" x="1274.5" y="-130.5" font-family="Helvetica,sans-Serif" font-size="10.00">QSettings</text>
</g>
<!-- Node1&#45;&gt;Node13 -->
<g id="edge12" class="edge"><title>Node1&#45;&gt;Node13</title>
<path fill="none" stroke="midnightblue" d="M1029.37,-180.803C1076.38,-172.619 1155.19,-158.595 1232.4,-143.168"/>
<polygon fill="midnightblue" stroke="midnightblue" points="1233.18,-146.582 1242.29,-141.182 1231.8,-139.719 1233.18,-146.582"/>
</g>
<!-- Node14 -->
<g id="node14" class="node"><title>Node14</title>
<polygon fill="white" stroke="#bfbfbf" points="1324.5,-123.5 1324.5,-142.5 1394.5,-142.5 1394.5,-123.5 1324.5,-123.5"/>
<text text-anchor="middle" x="1359.5" y="-130.5" font-family="Helvetica,sans-Serif" font-size="10.00">QTableView</text>
</g>
<!-- Node1&#45;&gt;Node14 -->
<g id="edge13" class="edge"><title>Node1&#45;&gt;Node14</title>
<path fill="none" stroke="midnightblue" d="M1029.06,-183.183C1089.56,-175.976 1205.65,-161.42 1314.32,-143.106"/>
<polygon fill="midnightblue" stroke="midnightblue" points="1315.2,-146.506 1324.47,-141.379 1314.03,-139.605 1315.2,-146.506"/>
</g>
<!-- Node15 -->
<g id="node15" class="node"><title>Node15</title>
<polygon fill="white" stroke="#bfbfbf" points="1413,-123.5 1413,-142.5 1464,-142.5 1464,-123.5 1413,-123.5"/>
<text text-anchor="middle" x="1438.5" y="-130.5" font-family="Helvetica,sans-Serif" font-size="10.00">QTimer</text>
</g>
<!-- Node1&#45;&gt;Node15 -->
<g id="edge14" class="edge"><title>Node1&#45;&gt;Node15</title>
<path fill="none" stroke="midnightblue" d="M1029.12,-185.489C1102.57,-180.626 1260.09,-168.27 1402.74,-142.866"/>
<polygon fill="midnightblue" stroke="midnightblue" points="1403.76,-146.238 1412.98,-141.015 1402.52,-139.35 1403.76,-146.238"/>
</g>
<!-- Node16 -->
<g id="node16" class="node"><title>Node16</title>
<polygon fill="white" stroke="#bfbfbf" points="1482,-123.5 1482,-142.5 1559,-142.5 1559,-123.5 1482,-123.5"/>
<text text-anchor="middle" x="1520.5" y="-130.5" font-family="Helvetica,sans-Serif" font-size="10.00">QUndoStack</text>
</g>
<!-- Node1&#45;&gt;Node16 -->
<g id="edge15" class="edge"><title>Node1&#45;&gt;Node16</title>
<path fill="none" stroke="midnightblue" d="M1029.27,-185.501C1111.9,-180.262 1302.27,-166.725 1471.72,-143.136"/>
<polygon fill="midnightblue" stroke="midnightblue" points="1472.41,-146.574 1481.82,-141.714 1471.43,-139.642 1472.41,-146.574"/>
</g>
<!-- Node17 -->
<g id="node17" class="node"><title>Node17</title>
<polygon fill="white" stroke="#bfbfbf" points="203,-62 203,-81 276,-81 276,-62 203,-62"/>
<text text-anchor="middle" x="239.5" y="-69" font-family="Helvetica,sans-Serif" font-size="10.00">src/model.h</text>
</g>
<!-- Node1&#45;&gt;Node17 -->
<g id="edge16" class="edge"><title>Node1&#45;&gt;Node17</title>
<path fill="none" stroke="midnightblue" d="M945.862,-186.931C878.233,-184.277 740.868,-175.048 629.5,-143 609.245,-137.171 606.773,-128.768 586.5,-123 456.912,-86.1297 417.209,-115.376 285.5,-87 281.561,-86.1513 277.477,-85.1093 273.442,-83.9766"/>
<polygon fill="midnightblue" stroke="midnightblue" points="274.208,-80.5523 263.624,-81.0328 272.197,-87.2574 274.208,-80.5523"/>
</g>
<!-- Node18 -->
<g id="node18" class="node"><title>Node18</title>
<polygon fill="white" stroke="#bfbfbf" points="1577,-123.5 1577,-142.5 1680,-142.5 1680,-123.5 1577,-123.5"/>
<text text-anchor="middle" x="1628.5" y="-130.5" font-family="Helvetica,sans-Serif" font-size="10.00">src/risk_analysis.h</text>
</g>
<!-- Node1&#45;&gt;Node18 -->
<g id="edge17" class="edge"><title>Node1&#45;&gt;Node18</title>
<path fill="none" stroke="midnightblue" d="M1029.16,-185.8C1123.18,-180.614 1359.18,-166.361 1566.65,-143.14"/>
<polygon fill="midnightblue" stroke="midnightblue" points="1567.28,-146.592 1576.82,-141.992 1566.49,-139.636 1567.28,-146.592"/>
</g>
<!-- Node19 -->
<g id="node19" class="node"><title>Node19</title>
<polygon fill="white" stroke="#bfbfbf" points="1698,-123.5 1698,-142.5 1779,-142.5 1779,-123.5 1698,-123.5"/>
<text text-anchor="middle" x="1738.5" y="-130.5" font-family="Helvetica,sans-Serif" font-size="10.00">src/settings.h</text>
</g>
<!-- Node1&#45;&gt;Node19 -->
<g id="edge18" class="edge"><title>Node1&#45;&gt;Node19</title>
<path fill="none" stroke="midnightblue" d="M1029.2,-187.038C1136.71,-184.192 1432.19,-174.059 1687.7,-143.087"/>
<polygon fill="midnightblue" stroke="midnightblue" points="1688.41,-146.525 1697.91,-141.834 1687.56,-139.577 1688.41,-146.525"/>
</g>
<!-- Node20 -->
<g id="node20" class="node"><title>Node20</title>
<g id="a_node20"><a xlink:href="model_8h.xhtml" target="_top" xlink:title="Wrapper Model classes for the MEF data. ">
<polygon fill="white" stroke="black" points="638.5,-123.5 638.5,-142.5 694.5,-142.5 694.5,-123.5 638.5,-123.5"/>
<text text-anchor="middle" x="666.5" y="-130.5" font-family="Helvetica,sans-Serif" font-size="10.00">model.h</text>
</a>
</g>
</g>
<!-- Node1&#45;&gt;Node20 -->
<g id="edge19" class="edge"><title>Node1&#45;&gt;Node20</title>
<path fill="none" stroke="midnightblue" d="M945.922,-182.494C892.369,-175.164 796.22,-161.201 704.711,-143.111"/>
<polygon fill="midnightblue" stroke="midnightblue" points="705.221,-139.644 694.729,-141.117 703.85,-146.508 705.221,-139.644"/>
</g>
<!-- Node34 -->
<g id="node34" class="node"><title>Node34</title>
<g id="a_node34"><a xlink:href="zoomableview_8h.xhtml" target="_top" xlink:title="Provides a GraphicsView with zoom in/out and other convenience features. ">
<polygon fill="white" stroke="black" points="1797.5,-123.5 1797.5,-142.5 1889.5,-142.5 1889.5,-123.5 1797.5,-123.5"/>
<text text-anchor="middle" x="1843.5" y="-130.5" font-family="Helvetica,sans-Serif" font-size="10.00">zoomableview.h</text>
</a>
</g>
</g>
<!-- Node1&#45;&gt;Node34 -->
<g id="edge40" class="edge"><title>Node1&#45;&gt;Node34</title>
<path fill="none" stroke="midnightblue" d="M1029.32,-187.213C1147.03,-184.667 1491.28,-174.935 1787.27,-143.015"/>
<polygon fill="midnightblue" stroke="midnightblue" points="1787.77,-146.481 1797.34,-141.919 1787.02,-139.522 1787.77,-146.481"/>
</g>
<!-- Node20&#45;&gt;Node4 -->
<g id="edge20" class="edge"><title>Node20&#45;&gt;Node4</title>
<path fill="none" stroke="midnightblue" d="M638.328,-130.368C527.218,-123.865 122.699,-99.5491 66.5,-87 63.4957,-86.3292 60.4127,-85.4663 57.3649,-84.4963"/>
<polygon fill="midnightblue" stroke="midnightblue" points="58.4834,-81.1795 47.8887,-81.1367 56.1443,-87.7771 58.4834,-81.1795"/>
</g>
<!-- Node20&#45;&gt;Node5 -->
<g id="edge22" class="edge"><title>Node20&#45;&gt;Node5</title>
<path fill="none" stroke="midnightblue" d="M638.314,-129.778C529.329,-121.167 140.953,-90.3192 128.5,-87 126.562,-86.4836 124.597,-85.8513 122.644,-85.1426"/>
<polygon fill="midnightblue" stroke="midnightblue" points="123.756,-81.8127 113.182,-81.1465 121.032,-88.2612 123.756,-81.8127"/>
</g>
<!-- Node20&#45;&gt;Node6 -->
<g id="edge24" class="edge"><title>Node20&#45;&gt;Node6</title>
<path fill="none" stroke="midnightblue" d="M638.377,-128.692C623.05,-126.926 603.741,-124.759 586.5,-123 412.008,-105.195 363.075,-131.82 193.5,-87 191.344,-86.4301 189.151,-85.7273 186.976,-84.9411"/>
<polygon fill="midnightblue" stroke="midnightblue" points="188.3,-81.7012 177.721,-81.1143 185.625,-88.1699 188.3,-81.7012"/>
</g>
<!-- Node20&#45;&gt;Node17 -->
<g id="edge34" class="edge"><title>Node20&#45;&gt;Node17</title>
<path fill="none" stroke="midnightblue" d="M638.11,-125.493C633.573,-124.575 628.918,-123.706 624.5,-123 474.884,-99.0936 433.823,-117.929 285.5,-87 281.555,-86.1774 277.468,-85.1516 273.431,-84.0282"/>
<polygon fill="midnightblue" stroke="midnightblue" points="274.194,-80.6033 263.611,-81.0944 272.19,-87.3105 274.194,-80.6033"/>
</g>
<!-- Node21 -->
<g id="node21" class="node"><title>Node21</title>
<polygon fill="white" stroke="#bfbfbf" points="1127,-62 1127,-81 1182,-81 1182,-62 1127,-62"/>
<text text-anchor="middle" x="1154.5" y="-69" font-family="Helvetica,sans-Serif" font-size="10.00">optional</text>
</g>
<!-- Node20&#45;&gt;Node21 -->
<g id="edge21" class="edge"><title>Node20&#45;&gt;Node21</title>
<path fill="none" stroke="midnightblue" d="M694.691,-124.675C697.653,-124.046 700.63,-123.471 703.5,-123 885.756,-93.0874 937.674,-129.127 1117.5,-87 1120.33,-86.3361 1123.24,-85.4972 1126.11,-84.5591"/>
<polygon fill="midnightblue" stroke="midnightblue" points="1127.43,-87.8051 1135.63,-81.0971 1125.04,-81.2269 1127.43,-87.8051"/>
</g>
<!-- Node22 -->
<g id="node22" class="node"><title>Node22</title>
<polygon fill="white" stroke="#bfbfbf" points="1183.5,-0.5 1183.5,-19.5 1251.5,-19.5 1251.5,-0.5 1183.5,-0.5"/>
<text text-anchor="middle" x="1217.5" y="-7.5" font-family="Helvetica,sans-Serif" font-size="10.00">type_traits</text>
</g>
<!-- Node20&#45;&gt;Node22 -->
<g id="edge23" class="edge"><title>Node20&#45;&gt;Node22</title>
<path fill="none" stroke="midnightblue" d="M694.685,-124.637C697.648,-124.015 700.627,-123.453 703.5,-123 757.098,-114.559 1147.36,-119.906 1190.5,-87 1208.12,-73.5614 1214.27,-47.6957 1216.4,-29.9021"/>
<polygon fill="midnightblue" stroke="midnightblue" points="1219.9,-30.086 1217.29,-19.8179 1212.93,-29.473 1219.9,-30.086"/>
</g>
<!-- Node23 -->
<g id="node23" class="node"><title>Node23</title>
<polygon fill="white" stroke="#bfbfbf" points="1368.5,-56.5 1368.5,-86.5 1508.5,-86.5 1508.5,-56.5 1368.5,-56.5"/>
<text text-anchor="start" x="1376.5" y="-74.5" font-family="Helvetica,sans-Serif" font-size="10.00">boost/multi_index/hashed</text>
<text text-anchor="middle" x="1438.5" y="-63.5" font-family="Helvetica,sans-Serif" font-size="10.00">_index.hpp</text>
</g>
<!-- Node20&#45;&gt;Node23 -->
<g id="edge25" class="edge"><title>Node20&#45;&gt;Node23</title>
<path fill="none" stroke="midnightblue" d="M694.677,-124.582C697.641,-123.971 700.623,-123.426 703.5,-123 990.153,-80.5774 1066.58,-119.701 1354.5,-87 1355.78,-86.8544 1357.07,-86.7019 1358.37,-86.5431"/>
<polygon fill="midnightblue" stroke="midnightblue" points="1359,-89.9905 1368.46,-85.2139 1358.09,-83.0505 1359,-89.9905"/>
</g>
<!-- Node24 -->
<g id="node24" class="node"><title>Node24</title>
<polygon fill="white" stroke="#bfbfbf" points="294.5,-56.5 294.5,-86.5 424.5,-86.5 424.5,-56.5 294.5,-56.5"/>
<text text-anchor="start" x="302.5" y="-74.5" font-family="Helvetica,sans-Serif" font-size="10.00">boost/multi_index/mem</text>
<text text-anchor="middle" x="359.5" y="-63.5" font-family="Helvetica,sans-Serif" font-size="10.00">_fun.hpp</text>
</g>
<!-- Node20&#45;&gt;Node24 -->
<g id="edge26" class="edge"><title>Node20&#45;&gt;Node24</title>
<path fill="none" stroke="midnightblue" d="M638.053,-125.805C633.524,-124.847 628.886,-123.883 624.5,-123 542.876,-106.565 519.966,-103.515 434.721,-87.2239"/>
<polygon fill="midnightblue" stroke="midnightblue" points="435.345,-83.7799 424.865,-85.3345 434.027,-90.6547 435.345,-83.7799"/>
</g>
<!-- Node25 -->
<g id="node25" class="node"><title>Node25</title>
<polygon fill="white" stroke="#bfbfbf" points="442.5,-62 442.5,-81 614.5,-81 614.5,-62 442.5,-62"/>
<text text-anchor="middle" x="528.5" y="-69" font-family="Helvetica,sans-Serif" font-size="10.00">boost/multi_index_container.hpp</text>
</g>
<!-- Node20&#45;&gt;Node25 -->
<g id="edge27" class="edge"><title>Node20&#45;&gt;Node25</title>
<path fill="none" stroke="midnightblue" d="M646.728,-123.475C623.364,-113.401 584.286,-96.5525 557.497,-85.0023"/>
<polygon fill="midnightblue" stroke="midnightblue" points="558.804,-81.7544 548.235,-81.0091 556.032,-88.1824 558.804,-81.7544"/>
</g>
<!-- Node26 -->
<g id="node26" class="node"><title>Node26</title>
<polygon fill="white" stroke="#bfbfbf" points="670,-0.5 670,-19.5 725,-19.5 725,-0.5 670,-0.5"/>
<text text-anchor="middle" x="697.5" y="-7.5" font-family="Helvetica,sans-Serif" font-size="10.00">QObject</text>
</g>
<!-- Node20&#45;&gt;Node26 -->
<g id="edge28" class="edge"><title>Node20&#45;&gt;Node26</title>
<path fill="none" stroke="midnightblue" d="M678.997,-123.302C689.374,-115.251 703.387,-102.245 709.5,-87 717.013,-68.263 711.474,-45.1627 705.674,-29.3804"/>
<polygon fill="midnightblue" stroke="midnightblue" points="708.777,-27.7181 701.775,-19.7669 702.29,-30.3492 708.777,-27.7181"/>
</g>
<!-- Node27 -->
<g id="node27" class="node"><title>Node27</title>
<polygon fill="white" stroke="#bfbfbf" points="757,-62 757,-81 810,-81 810,-62 757,-62"/>
<text text-anchor="middle" x="783.5" y="-69" font-family="Helvetica,sans-Serif" font-size="10.00">QString</text>
</g>
<!-- Node20&#45;&gt;Node27 -->
<g id="edge29" class="edge"><title>Node20&#45;&gt;Node27</title>
<path fill="none" stroke="midnightblue" d="M683.263,-123.475C702.725,-113.578 735.045,-97.1416 757.711,-85.6151"/>
<polygon fill="midnightblue" stroke="midnightblue" points="759.441,-88.6619 766.768,-81.0091 756.268,-82.4224 759.441,-88.6619"/>
</g>
<!-- Node28 -->
<g id="node28" class="node"><title>Node28</title>
<polygon fill="white" stroke="#bfbfbf" points="1283.5,-0.5 1283.5,-19.5 1383.5,-19.5 1383.5,-0.5 1283.5,-0.5"/>
<text text-anchor="middle" x="1333.5" y="-7.5" font-family="Helvetica,sans-Serif" font-size="10.00">QUndoCommand</text>
</g>
<!-- Node20&#45;&gt;Node28 -->
<g id="edge30" class="edge"><title>Node20&#45;&gt;Node28</title>
<path fill="none" stroke="midnightblue" d="M694.678,-124.591C697.642,-123.978 700.623,-123.43 703.5,-123 771.527,-112.83 1270.53,-133.186 1321.5,-87 1337.09,-72.8731 1338.04,-47.3619 1336.46,-29.8217"/>
<polygon fill="midnightblue" stroke="midnightblue" points="1339.9,-29.1341 1335.19,-19.646 1332.96,-30.0032 1339.9,-29.1341"/>
</g>
<!-- Node29 -->
<g id="node29" class="node"><title>Node29</title>
<polygon fill="white" stroke="#bfbfbf" points="828.5,-62 828.5,-81 886.5,-81 886.5,-62 828.5,-62"/>
<text text-anchor="middle" x="857.5" y="-69" font-family="Helvetica,sans-Serif" font-size="10.00">QVariant</text>
</g>
<!-- Node20&#45;&gt;Node29 -->
<g id="edge31" class="edge"><title>Node20&#45;&gt;Node29</title>
<path fill="none" stroke="midnightblue" d="M694.694,-124.274C725.345,-115.731 775.684,-101.279 818.5,-87 820.898,-86.2001 823.37,-85.348 825.85,-84.4727"/>
<polygon fill="midnightblue" stroke="midnightblue" points="827.108,-87.7398 835.319,-81.0446 824.725,-81.1579 827.108,-87.7398"/>
</g>
<!-- Node30 -->
<g id="node30" class="node"><title>Node30</title>
<polygon fill="white" stroke="#bfbfbf" points="904.5,-62 904.5,-81 974.5,-81 974.5,-62 904.5,-62"/>
<text text-anchor="middle" x="939.5" y="-69" font-family="Helvetica,sans-Serif" font-size="10.00">src/event.h</text>
</g>
<!-- Node20&#45;&gt;Node30 -->
<g id="edge32" class="edge"><title>Node20&#45;&gt;Node30</title>
<path fill="none" stroke="midnightblue" d="M694.746,-124.965C697.697,-124.279 700.656,-123.612 703.5,-123 788.377,-104.733 811.418,-108.635 895.5,-87 898.874,-86.1319 902.365,-85.1425 905.838,-84.0977"/>
<polygon fill="midnightblue" stroke="midnightblue" points="906.98,-87.4076 915.464,-81.0611 904.874,-80.7319 906.98,-87.4076"/>
</g>
<!-- Node31 -->
<g id="node31" class="node"><title>Node31</title>
<polygon fill="white" stroke="#bfbfbf" points="992.5,-62 992.5,-81 1108.5,-81 1108.5,-62 992.5,-62"/>
<text text-anchor="middle" x="1050.5" y="-69" font-family="Helvetica,sans-Serif" font-size="10.00">src/ext/multi_index.h</text>
</g>
<!-- Node20&#45;&gt;Node31 -->
<g id="edge33" class="edge"><title>Node20&#45;&gt;Node31</title>
<path fill="none" stroke="midnightblue" d="M694.712,-124.797C697.67,-124.144 700.64,-123.53 703.5,-123 826.868,-100.138 859.851,-108.289 983.5,-87 990.119,-85.8603 997.076,-84.5184 1003.9,-83.1189"/>
<polygon fill="midnightblue" stroke="midnightblue" points="1004.69,-86.5304 1013.75,-81.0439 1003.24,-79.6808 1004.69,-86.5304"/>
</g>
<!-- Node32 -->
<g id="node32" class="node"><title>Node32</title>
<g id="a_node32"><a xlink:href="command_8h.xhtml" target="_top" xlink:title="Undo&#45;redo helper facilities based on the Qt Undo framework. ">
<polygon fill="white" stroke="black" points="1238.5,-62 1238.5,-81 1312.5,-81 1312.5,-62 1238.5,-62"/>
<text text-anchor="middle" x="1275.5" y="-69" font-family="Helvetica,sans-Serif" font-size="10.00">command.h</text>
</a>
</g>
</g>
<!-- Node20&#45;&gt;Node32 -->
<g id="edge35" class="edge"><title>Node20&#45;&gt;Node32</title>
<path fill="none" stroke="midnightblue" d="M694.683,-124.623C697.646,-124.004 700.626,-123.446 703.5,-123 932.868,-87.4427 995.857,-126.954 1224.5,-87 1229.4,-86.1439 1234.5,-85.0032 1239.51,-83.7363"/>
<polygon fill="midnightblue" stroke="midnightblue" points="1240.8,-87.0103 1249.53,-81.009 1238.97,-80.2556 1240.8,-87.0103"/>
</g>
<!-- Node33 -->
<g id="node33" class="node"><title>Node33</title>
<g id="a_node33"><a xlink:href="translate_8h.xhtml" target="_top" xlink:title="Translation helper facilities to workaround Qt Linguist shortcomings. ">
<polygon fill="white" stroke="black" points="632.5,-62 632.5,-81 700.5,-81 700.5,-62 632.5,-62"/>
<text text-anchor="middle" x="666.5" y="-69" font-family="Helvetica,sans-Serif" font-size="10.00">translate.h</text>
</a>
</g>
</g>
<!-- Node20&#45;&gt;Node33 -->
<g id="edge38" class="edge"><title>Node20&#45;&gt;Node33</title>
<path fill="none" stroke="midnightblue" d="M666.5,-123.475C666.5,-115.08 666.5,-101.981 666.5,-91.1631"/>
<polygon fill="midnightblue" stroke="midnightblue" points="670,-91.0091 666.5,-81.0091 663,-91.0091 670,-91.0091"/>
</g>
<!-- Node32&#45;&gt;Node22 -->
<g id="edge36" class="edge"><title>Node32&#45;&gt;Node22</title>
<path fill="none" stroke="midnightblue" d="M1267.19,-61.9751C1258.32,-52.8733 1244.05,-38.241 1233.08,-26.983"/>
<polygon fill="midnightblue" stroke="midnightblue" points="1235.28,-24.2268 1225.79,-19.5091 1230.27,-29.113 1235.28,-24.2268"/>
</g>
<!-- Node32&#45;&gt;Node28 -->
<g id="edge37" class="edge"><title>Node32&#45;&gt;Node28</title>
<path fill="none" stroke="midnightblue" d="M1283.81,-61.9751C1292.68,-52.8733 1306.95,-38.241 1317.92,-26.983"/>
<polygon fill="midnightblue" stroke="midnightblue" points="1320.73,-29.113 1325.21,-19.5091 1315.72,-24.2268 1320.73,-29.113"/>
</g>
<!-- Node33&#45;&gt;Node26 -->
<g id="edge39" class="edge"><title>Node33&#45;&gt;Node26</title>
<path fill="none" stroke="midnightblue" d="M670.942,-61.9751C675.453,-53.3152 682.574,-39.6486 688.307,-28.6453"/>
<polygon fill="midnightblue" stroke="midnightblue" points="691.55,-29.9948 693.067,-19.5091 685.342,-26.7604 691.55,-29.9948"/>
</g>
<!-- Node35 -->
<g id="node35" class="node"><title>Node35</title>
<polygon fill="white" stroke="#bfbfbf" points="1850.5,-62 1850.5,-81 1938.5,-81 1938.5,-62 1850.5,-62"/>
<text text-anchor="middle" x="1894.5" y="-69" font-family="Helvetica,sans-Serif" font-size="10.00">QGraphicsView</text>
</g>
<!-- Node34&#45;&gt;Node35 -->
<g id="edge41" class="edge"><title>Node34&#45;&gt;Node35</title>
<path fill="none" stroke="midnightblue" d="M1850.81,-123.475C1858.53,-114.462 1870.91,-100.025 1880.52,-88.8118"/>
<polygon fill="midnightblue" stroke="midnightblue" points="1883.36,-90.8795 1887.21,-81.0091 1878.04,-86.3239 1883.36,-90.8795"/>
</g>
<!-- Node36 -->
<g id="node36" class="node"><title>Node36</title>
<polygon fill="white" stroke="#bfbfbf" points="1752.5,-62 1752.5,-81 1832.5,-81 1832.5,-62 1752.5,-62"/>
<text text-anchor="middle" x="1792.5" y="-69" font-family="Helvetica,sans-Serif" font-size="10.00">QWheelEvent</text>
</g>
<!-- Node34&#45;&gt;Node36 -->
<g id="edge42" class="edge"><title>Node34&#45;&gt;Node36</title>
<path fill="none" stroke="midnightblue" d="M1836.19,-123.475C1828.47,-114.462 1816.09,-100.025 1806.48,-88.8118"/>
<polygon fill="midnightblue" stroke="midnightblue" points="1808.96,-86.3239 1799.79,-81.0091 1803.64,-90.8795 1808.96,-86.3239"/>
</g>
</g>
</svg>
        <g id="navigator" transform="translate(0 0)" fill="#404254">
                <rect fill="#f2f5e9" fill-opacity="0.5" stroke="#606060" stroke-width=".5" x="0" y="0" width="60" height="60"/>
                <use id="zoomplus" xlink:href="#zoomPlus" x="17" y="9" onmousedown="handleZoom(evt,'in')"/>
                <use id="zoomminus" xlink:href="#zoomMin" x="42" y="9" onmousedown="handleZoom(evt,'out')"/>
                <use id="reset" xlink:href="#resetDef" x="30" y="36" onmousedown="handleReset()"/>
                <g id="arrowUp" xlink:href="#dirArrow" transform="translate(30 24)" onmousedown="handlePan(0,-1)">
                  <use xlink:href="#rim" fill="#404040">
                        <set attributeName="fill" to="#808080" begin="arrowUp.mouseover" end="arrowUp.mouseout"/>
                  </use>
                  <path fill="none" stroke="white" stroke-width="1.5" d="M0,-3.0v7 M-2.5,-0.5L0,-3.0L2.5,-0.5"/>
                </g>
                <g id="arrowRight" xlink:href="#dirArrow" transform="rotate(90) translate(36 -43)" onmousedown="handlePan(1,0)">
                  <use xlink:href="#rim" fill="#404040">
                        <set attributeName="fill" to="#808080" begin="arrowRight.mouseover" end="arrowRight.mouseout"/>
                  </use>
                  <path fill="none" stroke="white" stroke-width="1.5" d="M0,-3.0v7 M-2.5,-0.5L0,-3.0L2.5,-0.5"/>
                </g>
                <g id="arrowDown" xlink:href="#dirArrow" transform="rotate(180) translate(-30 -48)" onmousedown="handlePan(0,1)">
                  <use xlink:href="#rim" fill="#404040">
                        <set attributeName="fill" to="#808080" begin="arrowDown.mouseover" end="arrowDown.mouseout"/>
                  </use>
                  <path fill="none" stroke="white" stroke-width="1.5" d="M0,-3.0v7 M-2.5,-0.5L0,-3.0L2.5,-0.5"/>
                </g>
                <g id="arrowLeft" xlink:href="#dirArrow" transform="rotate(270) translate(-36 17)" onmousedown="handlePan(-1,0)">
                  <use xlink:href="#rim" fill="#404040">
                        <set attributeName="fill" to="#808080" begin="arrowLeft.mouseover" end="arrowLeft.mouseout"/>
                  </use>
                  <path fill="none" stroke="white" stroke-width="1.5" d="M0,-3.0v7 M-2.5,-0.5L0,-3.0L2.5,-0.5"/>
                </g>
        </g>
        <svg viewBox="0 0 15 15" width="100%" height="30px" preserveAspectRatio="xMaxYMin meet">
         <g id="arrow_out" transform="scale(0.3 0.3)">
          <a xlink:href="mainwindow_8h__incl_org.svg" target="_base">
           <rect id="button" ry="5" rx="5" y="6" x="6" height="38" width="38"
                fill="#f2f5e9" fill-opacity="0.5" stroke="#606060" stroke-width="1.0"/>
           <path id="arrow"
             d="M 11.500037,31.436501 C 11.940474,20.09759 22.043105,11.32322 32.158766,21.979434 L 37.068811,17.246167 C 37.068811,17.246167 37.088388,32 37.088388,32 L 22.160133,31.978069 C 22.160133,31.978069 26.997745,27.140456 26.997745,27.140456 C 18.528582,18.264221 13.291696,25.230495 11.500037,31.436501 z"
             style="fill:#404040;"/>
          </a>
         </g>
        </svg>
</svg>
