<?xml version="1.0" encoding="UTF-8" standalone="no"?>
<!DOCTYPE svg PUBLIC "-//W3C//DTD SVG 1.1//EN"
 "http://www.w3.org/Graphics/SVG/1.1/DTD/svg11.dtd">
<!-- Generated by graphviz version 2.38.0 (20140413.2041)
 -->
<!-- Title: model.h Pages: 1 -->
<svg width="1503pt" height="151pt"
 viewBox="0.00 0.00 1503.00 151.00" xmlns="http://www.w3.org/2000/svg" xmlns:xlink="http://www.w3.org/1999/xlink">
<g id="graph0" class="graph" transform="scale(1 1) rotate(0) translate(4 147)">
<title>model.h</title>
<polygon fill="white" stroke="none" points="-4,4 -4,-147 1499,-147 1499,4 -4,4"/>
<!-- Node1 -->
<g id="node1" class="node"><title>Node1</title>
<polygon fill="#bfbfbf" stroke="black" points="819.5,-123.5 819.5,-142.5 875.5,-142.5 875.5,-123.5 819.5,-123.5"/>
<text text-anchor="middle" x="847.5" y="-130.5" font-family="Helvetica,sans-Serif" font-size="10.00">model.h</text>
</g>
<!-- Node2 -->
<g id="node2" class="node"><title>Node2</title>
<polygon fill="white" stroke="#bfbfbf" points="0,-62 0,-81 57,-81 57,-62 0,-62"/>
<text text-anchor="middle" x="28.5" y="-69" font-family="Helvetica,sans-Serif" font-size="10.00">memory</text>
</g>
<!-- Node1&#45;&gt;Node2 -->
<g id="edge1" class="edge"><title>Node1&#45;&gt;Node2</title>
<path fill="none" stroke="midnightblue" d="M819.251,-131.566C697.072,-129.505 213.62,-119.422 65.5,-87 62.4966,-86.3426 59.4177,-85.4747 56.3806,-84.4895"/>
<polygon fill="midnightblue" stroke="midnightblue" points="57.5588,-81.1938 46.9648,-81.0569 55.1612,-87.7704 57.5588,-81.1938"/>
</g>
<!-- Node3 -->
<g id="node3" class="node"><title>Node3</title>
<polygon fill="white" stroke="#bfbfbf" points="75,-62 75,-81 130,-81 130,-62 75,-62"/>
<text text-anchor="middle" x="102.5" y="-69" font-family="Helvetica,sans-Serif" font-size="10.00">optional</text>
</g>
<!-- Node1&#45;&gt;Node3 -->
<g id="edge2" class="edge"><title>Node1&#45;&gt;Node3</title>
<path fill="none" stroke="midnightblue" d="M819.258,-131.37C704.445,-128.63 272.512,-116.533 139.5,-87 136.499,-86.3336 133.421,-85.4598 130.385,-84.4711"/>
<polygon fill="midnightblue" stroke="midnightblue" points="131.564,-81.1757 120.97,-81.0341 129.163,-87.7512 131.564,-81.1757"/>
</g>
<!-- Node4 -->
<g id="node4" class="node"><title>Node4</title>
<polygon fill="white" stroke="#bfbfbf" points="148.5,-62 148.5,-81 192.5,-81 192.5,-62 148.5,-62"/>
<text text-anchor="middle" x="170.5" y="-69" font-family="Helvetica,sans-Serif" font-size="10.00">string</text>
</g>
<!-- Node1&#45;&gt;Node4 -->
<g id="edge3" class="edge"><title>Node1&#45;&gt;Node4</title>
<path fill="none" stroke="midnightblue" d="M819.4,-131.193C711.767,-127.923 325.809,-114.494 206.5,-87 203.668,-86.3475 200.769,-85.5033 197.906,-84.5506"/>
<polygon fill="midnightblue" stroke="midnightblue" points="199.049,-81.2414 188.456,-81.0141 196.595,-87.7973 199.049,-81.2414"/>
</g>
<!-- Node5 -->
<g id="node5" class="node"><title>Node5</title>
<polygon fill="white" stroke="#bfbfbf" points="448.5,-0.5 448.5,-19.5 516.5,-19.5 516.5,-0.5 448.5,-0.5"/>
<text text-anchor="middle" x="482.5" y="-7.5" font-family="Helvetica,sans-Serif" font-size="10.00">type_traits</text>
</g>
<!-- Node1&#45;&gt;Node5 -->
<g id="edge4" class="edge"><title>Node1&#45;&gt;Node5</title>
<path fill="none" stroke="midnightblue" d="M819.135,-132.109C704.457,-132.259 279.341,-129.898 239.5,-87 180.737,-23.7274 353.159,-12.7649 438.153,-11.1219"/>
<polygon fill="midnightblue" stroke="midnightblue" points="438.365,-14.6191 448.309,-10.9619 438.255,-7.61999 438.365,-14.6191"/>
</g>
<!-- Node6 -->
<g id="node6" class="node"><title>Node6</title>
<polygon fill="white" stroke="#bfbfbf" points="249,-62 249,-81 296,-81 296,-62 249,-62"/>
<text text-anchor="middle" x="272.5" y="-69" font-family="Helvetica,sans-Serif" font-size="10.00">vector</text>
</g>
<!-- Node1&#45;&gt;Node6 -->
<g id="edge5" class="edge"><title>Node1&#45;&gt;Node6</title>
<path fill="none" stroke="midnightblue" d="M819.177,-130.884C722.246,-126.871 404.344,-112.073 305.5,-87 303.197,-86.4158 300.851,-85.6859 298.526,-84.8665"/>
<polygon fill="midnightblue" stroke="midnightblue" points="299.829,-81.6183 289.246,-81.1369 297.219,-88.1135 299.829,-81.6183"/>
</g>
<!-- Node7 -->
<g id="node7" class="node"><title>Node7</title>
<polygon fill="white" stroke="#bfbfbf" points="314.5,-56.5 314.5,-86.5 454.5,-86.5 454.5,-56.5 314.5,-56.5"/>
<text text-anchor="start" x="322.5" y="-74.5" font-family="Helvetica,sans-Serif" font-size="10.00">boost/multi_index/hashed</text>
<text text-anchor="middle" x="384.5" y="-63.5" font-family="Helvetica,sans-Serif" font-size="10.00">_index.hpp</text>
</g>
<!-- Node1&#45;&gt;Node7 -->
<g id="edge6" class="edge"><title>Node1&#45;&gt;Node7</title>
<path fill="none" stroke="midnightblue" d="M819.472,-129.345C757.445,-123.334 603.69,-107.697 464.655,-87.1141"/>
<polygon fill="midnightblue" stroke="midnightblue" points="465.079,-83.6387 454.672,-85.6237 464.045,-90.5619 465.079,-83.6387"/>
</g>
<!-- Node8 -->
<g id="node8" class="node"><title>Node8</title>
<polygon fill="white" stroke="#bfbfbf" points="472.5,-56.5 472.5,-86.5 602.5,-86.5 602.5,-56.5 472.5,-56.5"/>
<text text-anchor="start" x="480.5" y="-74.5" font-family="Helvetica,sans-Serif" font-size="10.00">boost/multi_index/mem</text>
<text text-anchor="middle" x="537.5" y="-63.5" font-family="Helvetica,sans-Serif" font-size="10.00">_fun.hpp</text>
</g>
<!-- Node1&#45;&gt;Node8 -->
<g id="edge7" class="edge"><title>Node1&#45;&gt;Node8</title>
<path fill="none" stroke="midnightblue" d="M819.156,-126.643C776.655,-118.601 693.62,-102.849 613.171,-87.3179"/>
<polygon fill="midnightblue" stroke="midnightblue" points="613.349,-83.7876 602.866,-85.327 612.021,-90.6605 613.349,-83.7876"/>
</g>
<!-- Node9 -->
<g id="node9" class="node"><title>Node9</title>
<polygon fill="white" stroke="#bfbfbf" points="620.5,-62 620.5,-81 792.5,-81 792.5,-62 620.5,-62"/>
<text text-anchor="middle" x="706.5" y="-69" font-family="Helvetica,sans-Serif" font-size="10.00">boost/multi_index_container.hpp</text>
</g>
<!-- Node1&#45;&gt;Node9 -->
<g id="edge8" class="edge"><title>Node1&#45;&gt;Node9</title>
<path fill="none" stroke="midnightblue" d="M827.298,-123.475C803.426,-113.401 763.498,-96.5525 736.127,-85.0023"/>
<polygon fill="midnightblue" stroke="midnightblue" points="737.238,-81.6724 726.664,-81.0091 734.517,-88.1217 737.238,-81.6724"/>
</g>
<!-- Node10 -->
<g id="node10" class="node"><title>Node10</title>
<polygon fill="white" stroke="#bfbfbf" points="1440,-0.5 1440,-19.5 1495,-19.5 1495,-0.5 1440,-0.5"/>
<text text-anchor="middle" x="1467.5" y="-7.5" font-family="Helvetica,sans-Serif" font-size="10.00">QObject</text>
</g>
<!-- Node1&#45;&gt;Node10 -->
<g id="edge9" class="edge"><title>Node1&#45;&gt;Node10</title>
<path fill="none" stroke="midnightblue" d="M875.781,-132.194C993.175,-132.708 1437.89,-131.676 1479.5,-87 1494.04,-71.3926 1485.77,-45.6905 1477.49,-28.5567"/>
<polygon fill="midnightblue" stroke="midnightblue" points="1480.54,-26.8262 1472.79,-19.5997 1474.34,-30.0806 1480.54,-26.8262"/>
</g>
<!-- Node11 -->
<g id="node11" class="node"><title>Node11</title>
<polygon fill="white" stroke="#bfbfbf" points="903,-62 903,-81 956,-81 956,-62 903,-62"/>
<text text-anchor="middle" x="929.5" y="-69" font-family="Helvetica,sans-Serif" font-size="10.00">QString</text>
</g>
<!-- Node1&#45;&gt;Node11 -->
<g id="edge10" class="edge"><title>Node1&#45;&gt;Node11</title>
<path fill="none" stroke="midnightblue" d="M859.249,-123.475C872.279,-114.02 893.536,-98.5961 909.259,-87.1871"/>
<polygon fill="midnightblue" stroke="midnightblue" points="911.735,-89.7149 917.773,-81.0091 907.624,-84.0492 911.735,-89.7149"/>
</g>
<!-- Node12 -->
<g id="node12" class="node"><title>Node12</title>
<polygon fill="white" stroke="#bfbfbf" points="865.5,-0.5 865.5,-19.5 965.5,-19.5 965.5,-0.5 865.5,-0.5"/>
<text text-anchor="middle" x="915.5" y="-7.5" font-family="Helvetica,sans-Serif" font-size="10.00">QUndoCommand</text>
</g>
<!-- Node1&#45;&gt;Node12 -->
<g id="edge11" class="edge"><title>Node1&#45;&gt;Node12</title>
<path fill="none" stroke="midnightblue" d="M875.683,-129.941C903.501,-126.235 944.663,-115.883 964.5,-87 972.3,-75.6428 970.042,-68.614 964.5,-56 959.11,-43.732 948.542,-33.3414 938.596,-25.6461"/>
<polygon fill="midnightblue" stroke="midnightblue" points="940.328,-22.5811 930.161,-19.598 936.248,-28.2697 940.328,-22.5811"/>
</g>
<!-- Node13 -->
<g id="node13" class="node"><title>Node13</title>
<polygon fill="white" stroke="#bfbfbf" points="1012.5,-62 1012.5,-81 1070.5,-81 1070.5,-62 1012.5,-62"/>
<text text-anchor="middle" x="1041.5" y="-69" font-family="Helvetica,sans-Serif" font-size="10.00">QVariant</text>
</g>
<!-- Node1&#45;&gt;Node13 -->
<g id="edge12" class="edge"><title>Node1&#45;&gt;Node13</title>
<path fill="none" stroke="midnightblue" d="M875.7,-123.921C906.102,-115.136 955.872,-100.534 998.5,-87 1001.25,-86.1283 1004.08,-85.2099 1006.93,-84.2758"/>
<polygon fill="midnightblue" stroke="midnightblue" points="1008.15,-87.559 1016.54,-81.0849 1005.94,-80.916 1008.15,-87.559"/>
</g>
<!-- Node14 -->
<g id="node14" class="node"><title>Node14</title>
<polygon fill="white" stroke="#bfbfbf" points="1088.5,-62 1088.5,-81 1158.5,-81 1158.5,-62 1088.5,-62"/>
<text text-anchor="middle" x="1123.5" y="-69" font-family="Helvetica,sans-Serif" font-size="10.00">src/event.h</text>
</g>
<!-- Node1&#45;&gt;Node14 -->
<g id="edge13" class="edge"><title>Node1&#45;&gt;Node14</title>
<path fill="none" stroke="midnightblue" d="M875.612,-127.729C919.512,-120.795 1006.85,-105.936 1079.5,-87 1082.87,-86.1214 1086.36,-85.125 1089.83,-84.0759"/>
<polygon fill="midnightblue" stroke="midnightblue" points="1090.98,-87.385 1099.46,-81.0335 1088.87,-80.7106 1090.98,-87.385"/>
</g>
<!-- Node15 -->
<g id="node15" class="node"><title>Node15</title>
<polygon fill="white" stroke="#bfbfbf" points="1176.5,-62 1176.5,-81 1292.5,-81 1292.5,-62 1176.5,-62"/>
<text text-anchor="middle" x="1234.5" y="-69" font-family="Helvetica,sans-Serif" font-size="10.00">src/ext/multi_index.h</text>
</g>
<!-- Node1&#45;&gt;Node15 -->
<g id="edge14" class="edge"><title>Node1&#45;&gt;Node15</title>
<path fill="none" stroke="midnightblue" d="M875.863,-128.721C931.83,-122.095 1060.35,-106.102 1167.5,-87 1173.88,-85.8623 1180.58,-84.5523 1187.17,-83.1948"/>
<polygon fill="midnightblue" stroke="midnightblue" points="1188.32,-86.5295 1197.39,-81.0406 1186.88,-79.6803 1188.32,-86.5295"/>
</g>
<!-- Node16 -->
<g id="node16" class="node"><title>Node16</title>
<polygon fill="white" stroke="#bfbfbf" points="1311,-62 1311,-81 1384,-81 1384,-62 1311,-62"/>
<text text-anchor="middle" x="1347.5" y="-69" font-family="Helvetica,sans-Serif" font-size="10.00">src/model.h</text>
</g>
<!-- Node1&#45;&gt;Node16 -->
<g id="edge15" class="edge"><title>Node1&#45;&gt;Node16</title>
<path fill="none" stroke="midnightblue" d="M875.699,-131.225C947.47,-128.818 1142.63,-119.549 1301.5,-87 1305.45,-86.1912 1309.54,-85.1741 1313.57,-84.0555"/>
<polygon fill="midnightblue" stroke="midnightblue" points="1314.81,-87.3386 1323.4,-81.1271 1312.81,-80.6304 1314.81,-87.3386"/>
</g>
<!-- Node17 -->
<g id="node17" class="node"><title>Node17</title>
<g id="a_node17"><a xlink:href="command_8h.xhtml" target="_top" xlink:title="Undo&#45;redo helper facilities based on the Qt Undo framework. ">
<polygon fill="white" stroke="black" points="810.5,-62 810.5,-81 884.5,-81 884.5,-62 810.5,-62"/>
<text text-anchor="middle" x="847.5" y="-69" font-family="Helvetica,sans-Serif" font-size="10.00">command.h</text>
</a>
</g>
</g>
<!-- Node1&#45;&gt;Node17 -->
<g id="edge16" class="edge"><title>Node1&#45;&gt;Node17</title>
<path fill="none" stroke="midnightblue" d="M847.5,-123.475C847.5,-115.08 847.5,-101.981 847.5,-91.1631"/>
<polygon fill="midnightblue" stroke="midnightblue" points="851,-91.0091 847.5,-81.0091 844,-91.0091 851,-91.0091"/>
</g>
<!-- Node18 -->
<g id="node18" class="node"><title>Node18</title>
<g id="a_node18"><a xlink:href="translate_8h.xhtml" target="_top" xlink:title="Translation helper facilities to workaround Qt Linguist shortcomings. ">
<polygon fill="white" stroke="black" points="1402.5,-62 1402.5,-81 1470.5,-81 1470.5,-62 1402.5,-62"/>
<text text-anchor="middle" x="1436.5" y="-69" font-family="Helvetica,sans-Serif" font-size="10.00">translate.h</text>
</a>
</g>
</g>
<!-- Node1&#45;&gt;Node18 -->
<g id="edge19" class="edge"><title>Node1&#45;&gt;Node18</title>
<path fill="none" stroke="midnightblue" d="M875.684,-132.076C956.946,-131.783 1198.36,-127.316 1393.5,-87 1397.19,-86.2379 1401,-85.2546 1404.76,-84.1595"/>
<polygon fill="midnightblue" stroke="midnightblue" points="1406,-87.4387 1414.47,-81.0741 1403.88,-80.7676 1406,-87.4387"/>
</g>
<!-- Node17&#45;&gt;Node5 -->
<g id="edge17" class="edge"><title>Node17&#45;&gt;Node5</title>
<path fill="none" stroke="midnightblue" d="M822.877,-61.9143C816.019,-59.7492 808.523,-57.5908 801.5,-56 704.815,-34.1 589.093,-20.9539 527.044,-14.9382"/>
<polygon fill="midnightblue" stroke="midnightblue" points="527.114,-11.4292 516.828,-13.9654 526.451,-18.3976 527.114,-11.4292"/>
</g>
<!-- Node17&#45;&gt;Node12 -->
<g id="edge18" class="edge"><title>Node17&#45;&gt;Node12</title>
<path fill="none" stroke="midnightblue" d="M857.243,-61.9751C867.847,-52.6966 885.019,-37.6706 897.979,-26.331"/>
<polygon fill="midnightblue" stroke="midnightblue" points="900.554,-28.7282 905.775,-19.5091 895.945,-23.4601 900.554,-28.7282"/>
</g>
<!-- Node18&#45;&gt;Node10 -->
<g id="edge20" class="edge"><title>Node18&#45;&gt;Node10</title>
<path fill="none" stroke="midnightblue" d="M1440.94,-61.9751C1445.45,-53.3152 1452.57,-39.6486 1458.31,-28.6453"/>
<polygon fill="midnightblue" stroke="midnightblue" points="1461.55,-29.9948 1463.07,-19.5091 1455.34,-26.7604 1461.55,-29.9948"/>
</g>
</g>
</svg>
