<?xml version="1.0" encoding="UTF-8" standalone="no"?>
<!DOCTYPE svg PUBLIC "-//W3C//DTD SVG 1.1//EN"
 "http://www.w3.org/Graphics/SVG/1.1/DTD/svg11.dtd">
<!-- Generated by graphviz version 2.38.0 (20140413.2041)
 -->
<!-- Title: modeltree.h Pages: 1 -->
<!--zoomable 218 -->
<svg id="main" version="1.1" xmlns="http://www.w3.org/2000/svg" xmlns:xlink="http://www.w3.org/1999/xlink" xml:space="preserve" onload="init(evt)">
<style type="text/css"><![CDATA[
.edge:hover path { stroke: red; }
.edge:hover polygon { stroke: red; fill: red; }
]]></style>
<script type="text/javascript"><![CDATA[
var edges = document.getElementsByTagName('g');
if (edges && edges.length) {
  for (var i=0;i<edges.length;i++) {
    if (edges[i].id.substr(0,4)=='edge') {
      edges[i].setAttribute('class','edge');
    }
  }
}
]]></script>
        <defs>
                <circle id="rim" cx="0" cy="0" r="7"/>
                <circle id="rim2" cx="0" cy="0" r="3.5"/>
                <g id="zoomPlus">
                        <use xlink:href="#rim" fill="#404040">
                                <set attributeName="fill" to="#808080" begin="zoomplus.mouseover" end="zoomplus.mouseout"/>
                        </use>
                        <path d="M-4,0h8M0,-4v8" fill="none" stroke="white" stroke-width="1.5" pointer-events="none"/>
                </g>
                <g id="zoomMin">
                        <use xlink:href="#rim" fill="#404040">
                                <set attributeName="fill" to="#808080" begin="zoomminus.mouseover" end="zoomminus.mouseout"/>
                        </use>
                        <path d="M-4,0h8" fill="none" stroke="white" stroke-width="1.5" pointer-events="none"/>
                </g>
                <g id="dirArrow">
                        <path fill="none" stroke="white" stroke-width="1.5" d="M0,-3.0v7 M-2.5,-0.5L0,-3.0L2.5,-0.5"/>
                </g>
               <g id="resetDef">
                       <use xlink:href="#rim2" fill="#404040">
                               <set attributeName="fill" to="#808080" begin="reset.mouseover" end="reset.mouseout"/>
                       </use>
               </g>
        </defs>

<script type="text/javascript">
var viewWidth = 1503;
var viewHeight = 218;
var sectionId = 'dynsection-0';
</script>
<script xlink:href="svgpan.js"/>
<svg id="graph" class="graph">
<g id="viewport">
<title>modeltree.h</title>
<polygon fill="white" stroke="none" points="-4,4 -4,-214 1499,-214 1499,4 -4,4"/>
<!-- Node1 -->
<g id="node1" class="node"><title>Node1</title>
<polygon fill="#bfbfbf" stroke="black" points="616,-190.5 616,-209.5 691,-209.5 691,-190.5 616,-190.5"/>
<text text-anchor="middle" x="653.5" y="-197.5" font-family="Helvetica,sans-Serif" font-size="10.00">modeltree.h</text>
</g>
<!-- Node2 -->
<g id="node2" class="node"><title>Node2</title>
<polygon fill="white" stroke="#bfbfbf" points="350,-129 350,-148 465,-148 465,-129 350,-129"/>
<text text-anchor="middle" x="407.5" y="-136" font-family="Helvetica,sans-Serif" font-size="10.00">QAbstractItemModel</text>
</g>
<!-- Node1&#45;&gt;Node2 -->
<g id="edge1" class="edge"><title>Node1&#45;&gt;Node2</title>
<path fill="none" stroke="midnightblue" d="M618.254,-190.475C574.595,-179.915 500.157,-161.911 452.437,-150.369"/>
<polygon fill="midnightblue" stroke="midnightblue" points="453.223,-146.958 442.68,-148.009 451.577,-153.762 453.223,-146.958"/>
</g>
<!-- Node3 -->
<g id="node3" class="node"><title>Node3</title>
<polygon fill="white" stroke="#bfbfbf" points="483.5,-123.5 483.5,-153.5 593.5,-153.5 593.5,-123.5 483.5,-123.5"/>
<text text-anchor="start" x="491.5" y="-141.5" font-family="Helvetica,sans-Serif" font-size="10.00">boost/container/flat</text>
<text text-anchor="middle" x="538.5" y="-130.5" font-family="Helvetica,sans-Serif" font-size="10.00">_set.hpp</text>
</g>
<!-- Node1&#45;&gt;Node3 -->
<g id="edge2" class="edge"><title>Node1&#45;&gt;Node3</title>
<path fill="none" stroke="midnightblue" d="M637.023,-190.475C620.793,-182.078 595.464,-168.973 574.553,-158.153"/>
<polygon fill="midnightblue" stroke="midnightblue" points="576.093,-155.01 565.603,-153.523 572.877,-161.227 576.093,-155.01"/>
</g>
<!-- Node4 -->
<g id="node4" class="node"><title>Node4</title>
<polygon fill="white" stroke="#bfbfbf" points="612,-129 612,-148 695,-148 695,-129 612,-129"/>
<text text-anchor="middle" x="653.5" y="-136" font-family="Helvetica,sans-Serif" font-size="10.00">src/element.h</text>
</g>
<!-- Node1&#45;&gt;Node4 -->
<g id="edge3" class="edge"><title>Node1&#45;&gt;Node4</title>
<path fill="none" stroke="midnightblue" d="M653.5,-190.475C653.5,-182.08 653.5,-168.981 653.5,-158.163"/>
<polygon fill="midnightblue" stroke="midnightblue" points="657,-158.009 653.5,-148.009 650,-158.009 657,-158.009"/>
</g>
<!-- Node5 -->
<g id="node5" class="node"><title>Node5</title>
<polygon fill="white" stroke="#bfbfbf" points="713,-129 713,-148 802,-148 802,-129 713,-129"/>
<text text-anchor="middle" x="757.5" y="-136" font-family="Helvetica,sans-Serif" font-size="10.00">src/fault_tree.h</text>
</g>
<!-- Node1&#45;&gt;Node5 -->
<g id="edge4" class="edge"><title>Node1&#45;&gt;Node5</title>
<path fill="none" stroke="midnightblue" d="M668.401,-190.475C685.468,-180.711 713.661,-164.581 733.762,-153.081"/>
<polygon fill="midnightblue" stroke="midnightblue" points="735.685,-156.013 742.627,-148.009 732.209,-149.937 735.685,-156.013"/>
</g>
<!-- Node6 -->
<g id="node6" class="node"><title>Node6</title>
<g id="a_node6"><a xlink:href="model_8h.xhtml" target="_top" xlink:title="Wrapper Model classes for the MEF data. ">
<polygon fill="white" stroke="black" points="819.5,-129 819.5,-148 875.5,-148 875.5,-129 819.5,-129"/>
<text text-anchor="middle" x="847.5" y="-136" font-family="Helvetica,sans-Serif" font-size="10.00">model.h</text>
</a>
</g>
</g>
<!-- Node1&#45;&gt;Node6 -->
<g id="edge5" class="edge"><title>Node1&#45;&gt;Node6</title>
<path fill="none" stroke="midnightblue" d="M686.555,-190.499C718.521,-182.049 768.198,-168.316 810.5,-154 812.624,-153.281 814.805,-152.511 816.994,-151.715"/>
<polygon fill="midnightblue" stroke="midnightblue" points="818.375,-154.934 826.495,-148.128 815.903,-148.386 818.375,-154.934"/>
</g>
<!-- Node7 -->
<g id="node7" class="node"><title>Node7</title>
<polygon fill="white" stroke="#bfbfbf" points="0,-62 0,-81 57,-81 57,-62 0,-62"/>
<text text-anchor="middle" x="28.5" y="-69" font-family="Helvetica,sans-Serif" font-size="10.00">memory</text>
</g>
<!-- Node6&#45;&gt;Node7 -->
<g id="edge6" class="edge"><title>Node6&#45;&gt;Node7</title>
<path fill="none" stroke="midnightblue" d="M829.043,-128.908C823.231,-126.575 816.707,-124.329 810.5,-123 486.347,-53.6073 389.653,-156.393 65.5,-87 62.4936,-86.3564 59.4128,-85.4975 56.3744,-84.5178"/>
<polygon fill="midnightblue" stroke="midnightblue" points="57.5513,-81.2215 46.9572,-81.0921 55.1582,-87.7998 57.5513,-81.2215"/>
</g>
<!-- Node8 -->
<g id="node8" class="node"><title>Node8</title>
<polygon fill="white" stroke="#bfbfbf" points="75,-62 75,-81 130,-81 130,-62 75,-62"/>
<text text-anchor="middle" x="102.5" y="-69" font-family="Helvetica,sans-Serif" font-size="10.00">optional</text>
</g>
<!-- Node6&#45;&gt;Node8 -->
<g id="edge7" class="edge"><title>Node6&#45;&gt;Node8</title>
<path fill="none" stroke="midnightblue" d="M829.038,-128.928C823.226,-126.596 816.703,-124.345 810.5,-123 518.633,-59.7071 431.367,-150.293 139.5,-87 136.495,-86.3484 133.416,-85.4843 130.378,-84.5014"/>
<polygon fill="midnightblue" stroke="midnightblue" points="131.556,-81.2055 120.962,-81.0718 129.16,-87.7828 131.556,-81.2055"/>
</g>
<!-- Node9 -->
<g id="node9" class="node"><title>Node9</title>
<polygon fill="white" stroke="#bfbfbf" points="148.5,-62 148.5,-81 192.5,-81 192.5,-62 148.5,-62"/>
<text text-anchor="middle" x="170.5" y="-69" font-family="Helvetica,sans-Serif" font-size="10.00">string</text>
</g>
<!-- Node6&#45;&gt;Node9 -->
<g id="edge8" class="edge"><title>Node6&#45;&gt;Node9</title>
<path fill="none" stroke="midnightblue" d="M829.033,-128.951C823.221,-126.62 816.699,-124.364 810.5,-123 547.858,-65.2285 468.868,-146.005 206.5,-87 203.665,-86.3624 200.764,-85.5282 197.899,-84.5816"/>
<polygon fill="midnightblue" stroke="midnightblue" points="199.04,-81.2718 188.447,-81.0533 196.592,-87.8298 199.04,-81.2718"/>
</g>
<!-- Node10 -->
<g id="node10" class="node"><title>Node10</title>
<polygon fill="white" stroke="#bfbfbf" points="448.5,-0.5 448.5,-19.5 516.5,-19.5 516.5,-0.5 448.5,-0.5"/>
<text text-anchor="middle" x="482.5" y="-7.5" font-family="Helvetica,sans-Serif" font-size="10.00">type_traits</text>
</g>
<!-- Node6&#45;&gt;Node10 -->
<g id="edge9" class="edge"><title>Node6&#45;&gt;Node10</title>
<path fill="none" stroke="midnightblue" d="M829.031,-128.964C823.218,-126.633 816.697,-124.374 810.5,-123 748.437,-109.237 283.014,-133.344 239.5,-87 180.393,-24.049 352.996,-12.9173 438.095,-11.1761"/>
<polygon fill="midnightblue" stroke="midnightblue" points="438.324,-14.6728 448.264,-11.0041 438.206,-7.67381 438.324,-14.6728"/>
</g>
<!-- Node11 -->
<g id="node11" class="node"><title>Node11</title>
<polygon fill="white" stroke="#bfbfbf" points="249,-62 249,-81 296,-81 296,-62 249,-62"/>
<text text-anchor="middle" x="272.5" y="-69" font-family="Helvetica,sans-Serif" font-size="10.00">vector</text>
</g>
<!-- Node6&#45;&gt;Node11 -->
<g id="edge10" class="edge"><title>Node6&#45;&gt;Node11</title>
<path fill="none" stroke="midnightblue" d="M829.024,-128.995C823.211,-126.666 816.691,-124.4 810.5,-123 591.024,-73.3833 523.926,-141.051 305.5,-87 303.142,-86.4166 300.741,-85.6768 298.363,-84.8414"/>
<polygon fill="midnightblue" stroke="midnightblue" points="299.48,-81.5179 288.897,-81.0253 296.863,-88.0102 299.48,-81.5179"/>
</g>
<!-- Node12 -->
<g id="node12" class="node"><title>Node12</title>
<polygon fill="white" stroke="#bfbfbf" points="314.5,-56.5 314.5,-86.5 454.5,-86.5 454.5,-56.5 314.5,-56.5"/>
<text text-anchor="start" x="322.5" y="-74.5" font-family="Helvetica,sans-Serif" font-size="10.00">boost/multi_index/hashed</text>
<text text-anchor="middle" x="384.5" y="-63.5" font-family="Helvetica,sans-Serif" font-size="10.00">_index.hpp</text>
</g>
<!-- Node6&#45;&gt;Node12 -->
<g id="edge11" class="edge"><title>Node6&#45;&gt;Node12</title>
<path fill="none" stroke="midnightblue" d="M828.615,-128.966C822.898,-126.694 816.534,-124.467 810.5,-123 663.074,-87.1664 618.871,-108.067 464.963,-87.114"/>
<polygon fill="midnightblue" stroke="midnightblue" points="465.053,-83.5926 454.665,-85.6723 464.083,-90.525 465.053,-83.5926"/>
</g>
<!-- Node13 -->
<g id="node13" class="node"><title>Node13</title>
<polygon fill="white" stroke="#bfbfbf" points="472.5,-56.5 472.5,-86.5 602.5,-86.5 602.5,-56.5 472.5,-56.5"/>
<text text-anchor="start" x="480.5" y="-74.5" font-family="Helvetica,sans-Serif" font-size="10.00">boost/multi_index/mem</text>
<text text-anchor="middle" x="537.5" y="-63.5" font-family="Helvetica,sans-Serif" font-size="10.00">_fun.hpp</text>
</g>
<!-- Node6&#45;&gt;Node13 -->
<g id="edge12" class="edge"><title>Node6&#45;&gt;Node13</title>
<path fill="none" stroke="midnightblue" d="M827.773,-128.951C822.257,-126.786 816.208,-124.618 810.5,-123 727.067,-99.3485 701.605,-103.316 612.823,-87.204"/>
<polygon fill="midnightblue" stroke="midnightblue" points="613.33,-83.7385 602.86,-85.3605 612.056,-90.6216 613.33,-83.7385"/>
</g>
<!-- Node14 -->
<g id="node14" class="node"><title>Node14</title>
<polygon fill="white" stroke="#bfbfbf" points="620.5,-62 620.5,-81 792.5,-81 792.5,-62 620.5,-62"/>
<text text-anchor="middle" x="706.5" y="-69" font-family="Helvetica,sans-Serif" font-size="10.00">boost/multi_index_container.hpp</text>
</g>
<!-- Node6&#45;&gt;Node14 -->
<g id="edge13" class="edge"><title>Node6&#45;&gt;Node14</title>
<path fill="none" stroke="midnightblue" d="M828.776,-128.869C804.652,-117.748 762.502,-98.3167 734.545,-85.4286"/>
<polygon fill="midnightblue" stroke="midnightblue" points="735.848,-82.1752 725.301,-81.1672 732.917,-88.5323 735.848,-82.1752"/>
</g>
<!-- Node15 -->
<g id="node15" class="node"><title>Node15</title>
<polygon fill="white" stroke="#bfbfbf" points="1440,-0.5 1440,-19.5 1495,-19.5 1495,-0.5 1440,-0.5"/>
<text text-anchor="middle" x="1467.5" y="-7.5" font-family="Helvetica,sans-Serif" font-size="10.00">QObject</text>
</g>
<!-- Node6&#45;&gt;Node15 -->
<g id="edge14" class="edge"><title>Node6&#45;&gt;Node15</title>
<path fill="none" stroke="midnightblue" d="M875.79,-137.439C993.219,-136.899 1438.06,-131.884 1479.5,-87 1493.97,-71.3299 1485.72,-45.6433 1477.47,-28.53"/>
<polygon fill="midnightblue" stroke="midnightblue" points="1480.52,-26.8163 1472.78,-19.5852 1474.32,-30.067 1480.52,-26.8163"/>
</g>
<!-- Node16 -->
<g id="node16" class="node"><title>Node16</title>
<polygon fill="white" stroke="#bfbfbf" points="903,-62 903,-81 956,-81 956,-62 903,-62"/>
<text text-anchor="middle" x="929.5" y="-69" font-family="Helvetica,sans-Serif" font-size="10.00">QString</text>
</g>
<!-- Node6&#45;&gt;Node16 -->
<g id="edge15" class="edge"><title>Node6&#45;&gt;Node16</title>
<path fill="none" stroke="midnightblue" d="M858.559,-128.734C871.838,-118.208 894.329,-100.379 910.429,-87.6174"/>
<polygon fill="midnightblue" stroke="midnightblue" points="912.954,-90.0821 918.616,-81.1273 908.606,-84.5965 912.954,-90.0821"/>
</g>
<!-- Node17 -->
<g id="node17" class="node"><title>Node17</title>
<polygon fill="white" stroke="#bfbfbf" points="865.5,-0.5 865.5,-19.5 965.5,-19.5 965.5,-0.5 865.5,-0.5"/>
<text text-anchor="middle" x="915.5" y="-7.5" font-family="Helvetica,sans-Serif" font-size="10.00">QUndoCommand</text>
</g>
<!-- Node6&#45;&gt;Node17 -->
<g id="edge16" class="edge"><title>Node6&#45;&gt;Node17</title>
<path fill="none" stroke="midnightblue" d="M875.534,-134.14C903.443,-129.139 944.869,-116.854 964.5,-87 972.07,-75.488 970.042,-68.614 964.5,-56 959.11,-43.732 948.542,-33.3414 938.596,-25.6461"/>
<polygon fill="midnightblue" stroke="midnightblue" points="940.328,-22.5811 930.161,-19.598 936.248,-28.2697 940.328,-22.5811"/>
</g>
<!-- Node18 -->
<g id="node18" class="node"><title>Node18</title>
<polygon fill="white" stroke="#bfbfbf" points="1012.5,-62 1012.5,-81 1070.5,-81 1070.5,-62 1012.5,-62"/>
<text text-anchor="middle" x="1041.5" y="-69" font-family="Helvetica,sans-Serif" font-size="10.00">QVariant</text>
</g>
<!-- Node6&#45;&gt;Node18 -->
<g id="edge17" class="edge"><title>Node6&#45;&gt;Node18</title>
<path fill="none" stroke="midnightblue" d="M873.156,-128.941C903.204,-118.913 954.477,-101.784 998.5,-87 1001.07,-86.1363 1003.73,-85.2426 1006.4,-84.3425"/>
<polygon fill="midnightblue" stroke="midnightblue" points="1007.68,-87.6069 1016.04,-81.0978 1005.44,-80.9731 1007.68,-87.6069"/>
</g>
<!-- Node19 -->
<g id="node19" class="node"><title>Node19</title>
<polygon fill="white" stroke="#bfbfbf" points="1088.5,-62 1088.5,-81 1158.5,-81 1158.5,-62 1088.5,-62"/>
<text text-anchor="middle" x="1123.5" y="-69" font-family="Helvetica,sans-Serif" font-size="10.00">src/event.h</text>
</g>
<!-- Node6&#45;&gt;Node19 -->
<g id="edge18" class="edge"><title>Node6&#45;&gt;Node19</title>
<path fill="none" stroke="midnightblue" d="M875.583,-132.366C919.443,-124.129 1006.73,-106.854 1079.5,-87 1082.68,-86.1321 1085.97,-85.1702 1089.26,-84.1668"/>
<polygon fill="midnightblue" stroke="midnightblue" points="1090.5,-87.4452 1098.97,-81.0842 1088.38,-80.7732 1090.5,-87.4452"/>
</g>
<!-- Node20 -->
<g id="node20" class="node"><title>Node20</title>
<polygon fill="white" stroke="#bfbfbf" points="1176.5,-62 1176.5,-81 1292.5,-81 1292.5,-62 1176.5,-62"/>
<text text-anchor="middle" x="1234.5" y="-69" font-family="Helvetica,sans-Serif" font-size="10.00">src/ext/multi_index.h</text>
</g>
<!-- Node6&#45;&gt;Node20 -->
<g id="edge19" class="edge"><title>Node6&#45;&gt;Node20</title>
<path fill="none" stroke="midnightblue" d="M875.844,-133.577C931.78,-125.714 1060.25,-107.052 1167.5,-87 1173.8,-85.823 1180.4,-84.5002 1186.92,-83.1448"/>
<polygon fill="midnightblue" stroke="midnightblue" points="1187.96,-86.5022 1197.01,-81.0043 1186.51,-79.6544 1187.96,-86.5022"/>
</g>
<!-- Node21 -->
<g id="node21" class="node"><title>Node21</title>
<polygon fill="white" stroke="#bfbfbf" points="1311,-62 1311,-81 1384,-81 1384,-62 1311,-62"/>
<text text-anchor="middle" x="1347.5" y="-69" font-family="Helvetica,sans-Serif" font-size="10.00">src/model.h</text>
</g>
<!-- Node6&#45;&gt;Node21 -->
<g id="edge20" class="edge"><title>Node6&#45;&gt;Node21</title>
<path fill="none" stroke="midnightblue" d="M875.699,-136.271C947.469,-132.734 1142.62,-120.542 1301.5,-87 1305.44,-86.1676 1309.53,-85.1357 1313.56,-84.0088"/>
<polygon fill="midnightblue" stroke="midnightblue" points="1314.81,-87.2905 1323.38,-81.0712 1312.8,-80.5841 1314.81,-87.2905"/>
</g>
<!-- Node22 -->
<g id="node22" class="node"><title>Node22</title>
<g id="a_node22"><a xlink:href="command_8h.xhtml" target="_top" xlink:title="Undo&#45;redo helper facilities based on the Qt Undo framework. ">
<polygon fill="white" stroke="black" points="810.5,-62 810.5,-81 884.5,-81 884.5,-62 810.5,-62"/>
<text text-anchor="middle" x="847.5" y="-69" font-family="Helvetica,sans-Serif" font-size="10.00">command.h</text>
</a>
</g>
</g>
<!-- Node6&#45;&gt;Node22 -->
<g id="edge21" class="edge"><title>Node6&#45;&gt;Node22</title>
<path fill="none" stroke="midnightblue" d="M847.5,-128.734C847.5,-119.183 847.5,-103.618 847.5,-91.2829"/>
<polygon fill="midnightblue" stroke="midnightblue" points="851,-91.1273 847.5,-81.1273 844,-91.1273 851,-91.1273"/>
</g>
<!-- Node23 -->
<g id="node23" class="node"><title>Node23</title>
<g id="a_node23"><a xlink:href="translate_8h.xhtml" target="_top" xlink:title="Translation helper facilities to workaround Qt Linguist shortcomings. ">
<polygon fill="white" stroke="black" points="1402.5,-62 1402.5,-81 1470.5,-81 1470.5,-62 1402.5,-62"/>
<text text-anchor="middle" x="1436.5" y="-69" font-family="Helvetica,sans-Serif" font-size="10.00">translate.h</text>
</a>
</g>
</g>
<!-- Node6&#45;&gt;Node23 -->
<g id="edge24" class="edge"><title>Node6&#45;&gt;Node23</title>
<path fill="none" stroke="midnightblue" d="M875.622,-137.125C956.707,-135.568 1197.61,-127.596 1392.5,-87 1396.38,-86.1927 1400.39,-85.1599 1404.34,-84.018"/>
<polygon fill="midnightblue" stroke="midnightblue" points="1405.43,-87.3446 1413.93,-81.0216 1403.34,-80.6631 1405.43,-87.3446"/>
</g>
<!-- Node22&#45;&gt;Node10 -->
<g id="edge22" class="edge"><title>Node22&#45;&gt;Node10</title>
<path fill="none" stroke="midnightblue" d="M822.877,-61.9143C816.019,-59.7492 808.523,-57.5908 801.5,-56 704.815,-34.1 589.093,-20.9539 527.044,-14.9382"/>
<polygon fill="midnightblue" stroke="midnightblue" points="527.114,-11.4292 516.828,-13.9654 526.451,-18.3976 527.114,-11.4292"/>
</g>
<!-- Node22&#45;&gt;Node17 -->
<g id="edge23" class="edge"><title>Node22&#45;&gt;Node17</title>
<path fill="none" stroke="midnightblue" d="M857.243,-61.9751C867.847,-52.6966 885.019,-37.6706 897.979,-26.331"/>
<polygon fill="midnightblue" stroke="midnightblue" points="900.554,-28.7282 905.775,-19.5091 895.945,-23.4601 900.554,-28.7282"/>
</g>
<!-- Node23&#45;&gt;Node15 -->
<g id="edge25" class="edge"><title>Node23&#45;&gt;Node15</title>
<path fill="none" stroke="midnightblue" d="M1440.94,-61.9751C1445.45,-53.3152 1452.57,-39.6486 1458.31,-28.6453"/>
<polygon fill="midnightblue" stroke="midnightblue" points="1461.55,-29.9948 1463.07,-19.5091 1455.34,-26.7604 1461.55,-29.9948"/>
</g>
</g>
</svg>
        <g id="navigator" transform="translate(0 0)" fill="#404254">
                <rect fill="#f2f5e9" fill-opacity="0.5" stroke="#606060" stroke-width=".5" x="0" y="0" width="60" height="60"/>
                <use id="zoomplus" xlink:href="#zoomPlus" x="17" y="9" onmousedown="handleZoom(evt,'in')"/>
                <use id="zoomminus" xlink:href="#zoomMin" x="42" y="9" onmousedown="handleZoom(evt,'out')"/>
                <use id="reset" xlink:href="#resetDef" x="30" y="36" onmousedown="handleReset()"/>
                <g id="arrowUp" xlink:href="#dirArrow" transform="translate(30 24)" onmousedown="handlePan(0,-1)">
                  <use xlink:href="#rim" fill="#404040">
                        <set attributeName="fill" to="#808080" begin="arrowUp.mouseover" end="arrowUp.mouseout"/>
                  </use>
                  <path fill="none" stroke="white" stroke-width="1.5" d="M0,-3.0v7 M-2.5,-0.5L0,-3.0L2.5,-0.5"/>
                </g>
                <g id="arrowRight" xlink:href="#dirArrow" transform="rotate(90) translate(36 -43)" onmousedown="handlePan(1,0)">
                  <use xlink:href="#rim" fill="#404040">
                        <set attributeName="fill" to="#808080" begin="arrowRight.mouseover" end="arrowRight.mouseout"/>
                  </use>
                  <path fill="none" stroke="white" stroke-width="1.5" d="M0,-3.0v7 M-2.5,-0.5L0,-3.0L2.5,-0.5"/>
                </g>
                <g id="arrowDown" xlink:href="#dirArrow" transform="rotate(180) translate(-30 -48)" onmousedown="handlePan(0,1)">
                  <use xlink:href="#rim" fill="#404040">
                        <set attributeName="fill" to="#808080" begin="arrowDown.mouseover" end="arrowDown.mouseout"/>
                  </use>
                  <path fill="none" stroke="white" stroke-width="1.5" d="M0,-3.0v7 M-2.5,-0.5L0,-3.0L2.5,-0.5"/>
                </g>
                <g id="arrowLeft" xlink:href="#dirArrow" transform="rotate(270) translate(-36 17)" onmousedown="handlePan(-1,0)">
                  <use xlink:href="#rim" fill="#404040">
                        <set attributeName="fill" to="#808080" begin="arrowLeft.mouseover" end="arrowLeft.mouseout"/>
                  </use>
                  <path fill="none" stroke="white" stroke-width="1.5" d="M0,-3.0v7 M-2.5,-0.5L0,-3.0L2.5,-0.5"/>
                </g>
        </g>
        <svg viewBox="0 0 15 15" width="100%" height="30px" preserveAspectRatio="xMaxYMin meet">
         <g id="arrow_out" transform="scale(0.3 0.3)">
          <a xlink:href="modeltree_8h__incl_org.svg" target="_base">
           <rect id="button" ry="5" rx="5" y="6" x="6" height="38" width="38"
                fill="#f2f5e9" fill-opacity="0.5" stroke="#606060" stroke-width="1.0"/>
           <path id="arrow"
             d="M 11.500037,31.436501 C 11.940474,20.09759 22.043105,11.32322 32.158766,21.979434 L 37.068811,17.246167 C 37.068811,17.246167 37.088388,32 37.088388,32 L 22.160133,31.978069 C 22.160133,31.978069 26.997745,27.140456 26.997745,27.140456 C 18.528582,18.264221 13.291696,25.230495 11.500037,31.436501 z"
             style="fill:#404040;"/>
          </a>
         </g>
        </svg>
</svg>
