<?xml version="1.0" encoding="UTF-8" standalone="no"?>
<!DOCTYPE svg PUBLIC "-//W3C//DTD SVG 1.1//EN"
 "http://www.w3.org/Graphics/SVG/1.1/DTD/svg11.dtd">
<!-- Generated by graphviz version 2.38.0 (20140413.2041)
 -->
<!-- Title: preferencesdialog.h Pages: 1 -->
<svg width="242pt" height="84pt"
 viewBox="0.00 0.00 242.00 84.00" xmlns="http://www.w3.org/2000/svg" xmlns:xlink="http://www.w3.org/1999/xlink">
<g id="graph0" class="graph" transform="scale(1 1) rotate(0) translate(4 80)">
<title>preferencesdialog.h</title>
<polygon fill="white" stroke="none" points="-4,4 -4,-80 238,-80 238,4 -4,4"/>
<!-- Node1 -->
<g id="node1" class="node"><title>Node1</title>
<polygon fill="#bfbfbf" stroke="black" points="54.5,-56.5 54.5,-75.5 165.5,-75.5 165.5,-56.5 54.5,-56.5"/>
<text text-anchor="middle" x="110" y="-63.5" font-family="Helvetica,sans-Serif" font-size="10.00">preferencesdialog.h</text>
</g>
<!-- Node2 -->
<g id="node2" class="node"><title>Node2</title>
<g id="a_node2"><a xlink:href="mainwindow_8cpp.xhtml" target="_top" xlink:title="mainwindow.cpp">
<polygon fill="white" stroke="black" points="0,-0.5 0,-19.5 94,-19.5 94,-0.5 0,-0.5"/>
<text text-anchor="middle" x="47" y="-7.5" font-family="Helvetica,sans-Serif" font-size="10.00">mainwindow.cpp</text>
</a>
</g>
</g>
<!-- Node1&#45;&gt;Node2 -->
<g id="edge1" class="edge"><title>Node1&#45;&gt;Node2</title>
<path fill="none" stroke="midnightblue" d="M91.9601,-49.5372C80.7269,-39.9087 66.6809,-27.8694 57.3062,-19.8339"/>
<polygon fill="midnightblue" stroke="midnightblue" points="90.0076,-52.4734 99.878,-56.324 94.5632,-47.1586 90.0076,-52.4734"/>
</g>
<!-- Node3 -->
<g id="node3" class="node"><title>Node3</title>
<g id="a_node3"><a xlink:href="preferencesdialog_8cpp.xhtml" target="_top" xlink:title="preferencesdialog.cpp">
<polygon fill="white" stroke="black" points="112,-0.5 112,-19.5 234,-19.5 234,-0.5 112,-0.5"/>
<text text-anchor="middle" x="173" y="-7.5" font-family="Helvetica,sans-Serif" font-size="10.00">preferencesdialog.cpp</text>
</a>
</g>
</g>
<!-- Node1&#45;&gt;Node3 -->
<g id="edge2" class="edge"><title>Node1&#45;&gt;Node3</title>
<path fill="none" stroke="midnightblue" d="M128.04,-49.5372C139.273,-39.9087 153.319,-27.8694 162.694,-19.8339"/>
<polygon fill="midnightblue" stroke="midnightblue" points="125.437,-47.1586 120.122,-56.324 129.992,-52.4734 125.437,-47.1586"/>
</g>
</g>
</svg>
