<?xml version="1.0" encoding="UTF-8" standalone="no"?>
<!DOCTYPE svg PUBLIC "-//W3C//DTD SVG 1.1//EN"
 "http://www.w3.org/Graphics/SVG/1.1/DTD/svg11.dtd">
<!-- Generated by graphviz version 2.38.0 (20140413.2041)
 -->
<!-- Title: preferencesdialog.h Pages: 1 -->
<svg width="384pt" height="84pt"
 viewBox="0.00 0.00 384.00 84.00" xmlns="http://www.w3.org/2000/svg" xmlns:xlink="http://www.w3.org/1999/xlink">
<g id="graph0" class="graph" transform="scale(1 1) rotate(0) translate(4 80)">
<title>preferencesdialog.h</title>
<polygon fill="white" stroke="none" points="-4,4 -4,-80 380,-80 380,4 -4,4"/>
<!-- Node1 -->
<g id="node1" class="node"><title>Node1</title>
<polygon fill="#bfbfbf" stroke="black" points="124,-56.5 124,-75.5 235,-75.5 235,-56.5 124,-56.5"/>
<text text-anchor="middle" x="179.5" y="-63.5" font-family="Helvetica,sans-Serif" font-size="10.00">preferencesdialog.h</text>
</g>
<!-- Node2 -->
<g id="node2" class="node"><title>Node2</title>
<polygon fill="white" stroke="#bfbfbf" points="0,-0.5 0,-19.5 57,-19.5 57,-0.5 0,-0.5"/>
<text text-anchor="middle" x="28.5" y="-7.5" font-family="Helvetica,sans-Serif" font-size="10.00">memory</text>
</g>
<!-- Node1&#45;&gt;Node2 -->
<g id="edge1" class="edge"><title>Node1&#45;&gt;Node2</title>
<path fill="none" stroke="midnightblue" d="M155.574,-56.4435C130.281,-47.3986 90.1976,-33.064 61.8202,-22.9158"/>
<polygon fill="midnightblue" stroke="midnightblue" points="62.9091,-19.5882 52.3145,-19.5164 60.5519,-26.1794 62.9091,-19.5882"/>
</g>
<!-- Node3 -->
<g id="node3" class="node"><title>Node3</title>
<polygon fill="white" stroke="#bfbfbf" points="75.5,-0.5 75.5,-19.5 129.5,-19.5 129.5,-0.5 75.5,-0.5"/>
<text text-anchor="middle" x="102.5" y="-7.5" font-family="Helvetica,sans-Serif" font-size="10.00">QDialog</text>
</g>
<!-- Node1&#45;&gt;Node3 -->
<g id="edge2" class="edge"><title>Node1&#45;&gt;Node3</title>
<path fill="none" stroke="midnightblue" d="M167.129,-56.324C155.342,-48.0577 137.368,-35.4527 123.364,-25.6322"/>
<polygon fill="midnightblue" stroke="midnightblue" points="125.038,-22.5307 114.841,-19.6545 121.018,-28.2619 125.038,-22.5307"/>
</g>
<!-- Node4 -->
<g id="node4" class="node"><title>Node4</title>
<polygon fill="white" stroke="#bfbfbf" points="147.5,-0.5 147.5,-19.5 211.5,-19.5 211.5,-0.5 147.5,-0.5"/>
<text text-anchor="middle" x="179.5" y="-7.5" font-family="Helvetica,sans-Serif" font-size="10.00">QSettings</text>
</g>
<!-- Node1&#45;&gt;Node4 -->
<g id="edge3" class="edge"><title>Node1&#45;&gt;Node4</title>
<path fill="none" stroke="midnightblue" d="M179.5,-56.083C179.5,-49.0059 179.5,-38.8611 179.5,-29.9865"/>
<polygon fill="midnightblue" stroke="midnightblue" points="183,-29.751 179.5,-19.7511 176,-29.7511 183,-29.751"/>
</g>
<!-- Node5 -->
<g id="node5" class="node"><title>Node5</title>
<polygon fill="white" stroke="#bfbfbf" points="230,-0.5 230,-19.5 281,-19.5 281,-0.5 230,-0.5"/>
<text text-anchor="middle" x="255.5" y="-7.5" font-family="Helvetica,sans-Serif" font-size="10.00">QTimer</text>
</g>
<!-- Node1&#45;&gt;Node5 -->
<g id="edge4" class="edge"><title>Node1&#45;&gt;Node5</title>
<path fill="none" stroke="midnightblue" d="M191.711,-56.324C203.276,-48.1066 220.875,-35.6017 234.661,-25.8069"/>
<polygon fill="midnightblue" stroke="midnightblue" points="236.943,-28.4791 243.067,-19.8339 232.888,-22.7729 236.943,-28.4791"/>
</g>
<!-- Node6 -->
<g id="node6" class="node"><title>Node6</title>
<polygon fill="white" stroke="#bfbfbf" points="299,-0.5 299,-19.5 376,-19.5 376,-0.5 299,-0.5"/>
<text text-anchor="middle" x="337.5" y="-7.5" font-family="Helvetica,sans-Serif" font-size="10.00">QUndoStack</text>
</g>
<!-- Node1&#45;&gt;Node6 -->
<g id="edge5" class="edge"><title>Node1&#45;&gt;Node6</title>
<path fill="none" stroke="midnightblue" d="M204.536,-56.4435C231.116,-47.3591 273.309,-32.9388 303.023,-22.7831"/>
<polygon fill="midnightblue" stroke="midnightblue" points="304.251,-26.0625 312.582,-19.5164 301.987,-19.4386 304.251,-26.0625"/>
</g>
</g>
</svg>
