<?xml version="1.0" encoding="UTF-8" standalone="no"?>
<!DOCTYPE svg PUBLIC "-//W3C//DTD SVG 1.1//EN"
 "http://www.w3.org/Graphics/SVG/1.1/DTD/svg11.dtd">
<!-- Generated by graphviz version 2.38.0 (20140413.2041)
 -->
<!-- Title: printable.cpp Pages: 1 -->
<svg width="374pt" height="140pt"
 viewBox="0.00 0.00 374.00 140.00" xmlns="http://www.w3.org/2000/svg" xmlns:xlink="http://www.w3.org/1999/xlink">
<g id="graph0" class="graph" transform="scale(1 1) rotate(0) translate(4 136)">
<title>printable.cpp</title>
<polygon fill="white" stroke="none" points="-4,4 -4,-136 370,-136 370,4 -4,4"/>
<!-- Node1 -->
<g id="node1" class="node"><title>Node1</title>
<polygon fill="#bfbfbf" stroke="black" points="116.5,-112.5 116.5,-131.5 195.5,-131.5 195.5,-112.5 116.5,-112.5"/>
<text text-anchor="middle" x="156" y="-119.5" font-family="Helvetica,sans-Serif" font-size="10.00">printable.cpp</text>
</g>
<!-- Node2 -->
<g id="node2" class="node"><title>Node2</title>
<g id="a_node2"><a xlink:href="printable_8h.xhtml" target="_top" xlink:title="Interface for printable objects. ">
<polygon fill="white" stroke="black" points="0,-56.5 0,-75.5 68,-75.5 68,-56.5 0,-56.5"/>
<text text-anchor="middle" x="34" y="-63.5" font-family="Helvetica,sans-Serif" font-size="10.00">printable.h</text>
</a>
</g>
</g>
<!-- Node1&#45;&gt;Node2 -->
<g id="edge1" class="edge"><title>Node1&#45;&gt;Node2</title>
<path fill="none" stroke="midnightblue" d="M136.669,-112.444C116.68,-103.596 85.2569,-89.6875 62.4361,-79.5865"/>
<polygon fill="midnightblue" stroke="midnightblue" points="63.8018,-76.3635 53.2408,-75.5164 60.9685,-82.7645 63.8018,-76.3635"/>
</g>
<!-- Node4 -->
<g id="node4" class="node"><title>Node4</title>
<polygon fill="white" stroke="#bfbfbf" points="86.5,-56.5 86.5,-75.5 141.5,-75.5 141.5,-56.5 86.5,-56.5"/>
<text text-anchor="middle" x="114" y="-63.5" font-family="Helvetica,sans-Serif" font-size="10.00">QObject</text>
</g>
<!-- Node1&#45;&gt;Node4 -->
<g id="edge3" class="edge"><title>Node1&#45;&gt;Node4</title>
<path fill="none" stroke="midnightblue" d="M149.065,-112.083C143.071,-104.377 134.248,-93.0333 126.952,-83.6531"/>
<polygon fill="midnightblue" stroke="midnightblue" points="129.709,-81.4958 120.806,-75.7511 124.183,-85.7934 129.709,-81.4958"/>
</g>
<!-- Node5 -->
<g id="node5" class="node"><title>Node5</title>
<polygon fill="white" stroke="#bfbfbf" points="160,-56.5 160,-75.5 236,-75.5 236,-56.5 160,-56.5"/>
<text text-anchor="middle" x="198" y="-63.5" font-family="Helvetica,sans-Serif" font-size="10.00">QPrintDialog</text>
</g>
<!-- Node1&#45;&gt;Node5 -->
<g id="edge4" class="edge"><title>Node1&#45;&gt;Node5</title>
<path fill="none" stroke="midnightblue" d="M162.935,-112.083C168.929,-104.377 177.752,-93.0333 185.048,-83.6531"/>
<polygon fill="midnightblue" stroke="midnightblue" points="187.817,-85.7934 191.194,-75.7511 182.291,-81.4958 187.817,-85.7934"/>
</g>
<!-- Node6 -->
<g id="node6" class="node"><title>Node6</title>
<polygon fill="white" stroke="#bfbfbf" points="254,-56.5 254,-75.5 366,-75.5 366,-56.5 254,-56.5"/>
<text text-anchor="middle" x="310" y="-63.5" font-family="Helvetica,sans-Serif" font-size="10.00">QPrintPreviewDialog</text>
</g>
<!-- Node1&#45;&gt;Node6 -->
<g id="edge5" class="edge"><title>Node1&#45;&gt;Node6</title>
<path fill="none" stroke="midnightblue" d="M180.402,-112.444C206.197,-103.399 247.077,-89.064 276.018,-78.9158"/>
<polygon fill="midnightblue" stroke="midnightblue" points="277.434,-82.1283 285.712,-75.5164 275.118,-75.5226 277.434,-82.1283"/>
</g>
<!-- Node3 -->
<g id="node3" class="node"><title>Node3</title>
<polygon fill="white" stroke="#bfbfbf" points="6,-0.5 6,-19.5 62,-19.5 62,-0.5 6,-0.5"/>
<text text-anchor="middle" x="34" y="-7.5" font-family="Helvetica,sans-Serif" font-size="10.00">QPrinter</text>
</g>
<!-- Node2&#45;&gt;Node3 -->
<g id="edge2" class="edge"><title>Node2&#45;&gt;Node3</title>
<path fill="none" stroke="midnightblue" d="M34,-56.083C34,-49.0059 34,-38.8611 34,-29.9865"/>
<polygon fill="midnightblue" stroke="midnightblue" points="37.5001,-29.751 34,-19.7511 30.5001,-29.7511 37.5001,-29.751"/>
</g>
</g>
</svg>
