<?xml version="1.0" encoding="UTF-8" standalone="no"?>
<!DOCTYPE svg PUBLIC "-//W3C//DTD SVG 1.1//EN"
 "http://www.w3.org/Graphics/SVG/1.1/DTD/svg11.dtd">
<!-- Generated by graphviz version 2.38.0 (20140413.2041)
 -->
<!-- Title: producttablemodel.cpp Pages: 1 -->
<!--zoomable 140 -->
<svg id="main" version="1.1" xmlns="http://www.w3.org/2000/svg" xmlns:xlink="http://www.w3.org/1999/xlink" xml:space="preserve" onload="init(evt)">
<style type="text/css"><![CDATA[
.edge:hover path { stroke: red; }
.edge:hover polygon { stroke: red; fill: red; }
]]></style>
<script type="text/javascript"><![CDATA[
var edges = document.getElementsByTagName('g');
if (edges && edges.length) {
  for (var i=0;i<edges.length;i++) {
    if (edges[i].id.substr(0,4)=='edge') {
      edges[i].setAttribute('class','edge');
    }
  }
}
]]></script>
        <defs>
                <circle id="rim" cx="0" cy="0" r="7"/>
                <circle id="rim2" cx="0" cy="0" r="3.5"/>
                <g id="zoomPlus">
                        <use xlink:href="#rim" fill="#404040">
                                <set attributeName="fill" to="#808080" begin="zoomplus.mouseover" end="zoomplus.mouseout"/>
                        </use>
                        <path d="M-4,0h8M0,-4v8" fill="none" stroke="white" stroke-width="1.5" pointer-events="none"/>
                </g>
                <g id="zoomMin">
                        <use xlink:href="#rim" fill="#404040">
                                <set attributeName="fill" to="#808080" begin="zoomminus.mouseover" end="zoomminus.mouseout"/>
                        </use>
                        <path d="M-4,0h8" fill="none" stroke="white" stroke-width="1.5" pointer-events="none"/>
                </g>
                <g id="dirArrow">
                        <path fill="none" stroke="white" stroke-width="1.5" d="M0,-3.0v7 M-2.5,-0.5L0,-3.0L2.5,-0.5"/>
                </g>
               <g id="resetDef">
                       <use xlink:href="#rim2" fill="#404040">
                               <set attributeName="fill" to="#808080" begin="reset.mouseover" end="reset.mouseout"/>
                       </use>
               </g>
        </defs>

<script type="text/javascript">
var viewWidth = 769;
var viewHeight = 140;
var sectionId = 'dynsection-0';
</script>
<script xlink:href="svgpan.js"/>
<svg id="graph" class="graph">
<g id="viewport">
<title>producttablemodel.cpp</title>
<polygon fill="white" stroke="none" points="-4,4 -4,-136 765,-136 765,4 -4,4"/>
<!-- Node1 -->
<g id="node1" class="node"><title>Node1</title>
<polygon fill="#bfbfbf" stroke="black" points="322.5,-112.5 322.5,-131.5 450.5,-131.5 450.5,-112.5 322.5,-112.5"/>
<text text-anchor="middle" x="386.5" y="-119.5" font-family="Helvetica,sans-Serif" font-size="10.00">producttablemodel.cpp</text>
</g>
<!-- Node2 -->
<g id="node2" class="node"><title>Node2</title>
<g id="a_node2"><a xlink:href="producttablemodel_8h.xhtml" target="_top" xlink:title="Table model for reporting products. ">
<polygon fill="white" stroke="black" points="113.5,-56.5 113.5,-75.5 229.5,-75.5 229.5,-56.5 113.5,-56.5"/>
<text text-anchor="middle" x="171.5" y="-63.5" font-family="Helvetica,sans-Serif" font-size="10.00">producttablemodel.h</text>
</a>
</g>
</g>
<!-- Node1&#45;&gt;Node2 -->
<g id="edge1" class="edge"><title>Node1&#45;&gt;Node2</title>
<path fill="none" stroke="midnightblue" d="M352.433,-112.444C315.32,-103.122 255.839,-88.1828 215.285,-77.9972"/>
<polygon fill="midnightblue" stroke="midnightblue" points="215.959,-74.5579 205.408,-75.5164 214.254,-81.347 215.959,-74.5579"/>
</g>
<!-- Node6 -->
<g id="node6" class="node"><title>Node6</title>
<polygon fill="white" stroke="#bfbfbf" points="274.5,-56.5 274.5,-75.5 344.5,-75.5 344.5,-56.5 274.5,-56.5"/>
<text text-anchor="middle" x="309.5" y="-63.5" font-family="Helvetica,sans-Serif" font-size="10.00">src/event.h</text>
</g>
<!-- Node1&#45;&gt;Node6 -->
<g id="edge5" class="edge"><title>Node1&#45;&gt;Node6</title>
<path fill="none" stroke="midnightblue" d="M374.129,-112.324C362.342,-104.058 344.368,-91.4527 330.364,-81.6322"/>
<polygon fill="midnightblue" stroke="midnightblue" points="332.038,-78.5307 321.841,-75.6545 328.018,-84.2619 332.038,-78.5307"/>
</g>
<!-- Node7 -->
<g id="node7" class="node"><title>Node7</title>
<g id="a_node7"><a xlink:href="align_8h.xhtml" target="_top" xlink:title="Text alignment common conventions. ">
<polygon fill="white" stroke="black" points="362.5,-56.5 362.5,-75.5 410.5,-75.5 410.5,-56.5 362.5,-56.5"/>
<text text-anchor="middle" x="386.5" y="-63.5" font-family="Helvetica,sans-Serif" font-size="10.00">align.h</text>
</a>
</g>
</g>
<!-- Node1&#45;&gt;Node7 -->
<g id="edge6" class="edge"><title>Node1&#45;&gt;Node7</title>
<path fill="none" stroke="midnightblue" d="M386.5,-112.083C386.5,-105.006 386.5,-94.8611 386.5,-85.9865"/>
<polygon fill="midnightblue" stroke="midnightblue" points="390,-85.751 386.5,-75.7511 383,-85.7511 390,-85.751"/>
</g>
<!-- Node9 -->
<g id="node9" class="node"><title>Node9</title>
<g id="a_node9"><a xlink:href="guiassert_8h.xhtml" target="_top" xlink:title="GUI assertions that should not crash the program by default. ">
<polygon fill="white" stroke="black" points="470.5,-56.5 470.5,-75.5 540.5,-75.5 540.5,-56.5 470.5,-56.5"/>
<text text-anchor="middle" x="505.5" y="-63.5" font-family="Helvetica,sans-Serif" font-size="10.00">guiassert.h</text>
</a>
</g>
</g>
<!-- Node1&#45;&gt;Node9 -->
<g id="edge8" class="edge"><title>Node1&#45;&gt;Node9</title>
<path fill="none" stroke="midnightblue" d="M405.356,-112.444C424.766,-103.636 455.23,-89.8116 477.465,-79.722"/>
<polygon fill="midnightblue" stroke="midnightblue" points="479.072,-82.836 486.732,-75.5164 476.18,-76.4615 479.072,-82.836"/>
</g>
<!-- Node13 -->
<g id="node13" class="node"><title>Node13</title>
<g id="a_node13"><a xlink:href="translate_8h.xhtml" target="_top" xlink:title="Translation helper facilities to workaround Qt Linguist shortcomings. ">
<polygon fill="white" stroke="black" points="660.5,-56.5 660.5,-75.5 728.5,-75.5 728.5,-56.5 660.5,-56.5"/>
<text text-anchor="middle" x="694.5" y="-63.5" font-family="Helvetica,sans-Serif" font-size="10.00">translate.h</text>
</a>
</g>
</g>
<!-- Node1&#45;&gt;Node13 -->
<g id="edge12" class="edge"><title>Node1&#45;&gt;Node13</title>
<path fill="none" stroke="midnightblue" d="M435.304,-112.444C494.387,-102.085 593.043,-84.7879 650.082,-74.7875"/>
<polygon fill="midnightblue" stroke="midnightblue" points="650.984,-78.1828 660.23,-73.0084 649.776,-71.288 650.984,-78.1828"/>
</g>
<!-- Node3 -->
<g id="node3" class="node"><title>Node3</title>
<polygon fill="white" stroke="#bfbfbf" points="0,-0.5 0,-19.5 47,-19.5 47,-0.5 0,-0.5"/>
<text text-anchor="middle" x="23.5" y="-7.5" font-family="Helvetica,sans-Serif" font-size="10.00">vector</text>
</g>
<!-- Node2&#45;&gt;Node3 -->
<g id="edge2" class="edge"><title>Node2&#45;&gt;Node3</title>
<path fill="none" stroke="midnightblue" d="M148.049,-56.4435C123.367,-47.4381 84.3147,-33.1891 56.5233,-23.049"/>
<polygon fill="midnightblue" stroke="midnightblue" points="57.4352,-19.6561 46.8413,-19.5164 55.0359,-26.2321 57.4352,-19.6561"/>
</g>
<!-- Node4 -->
<g id="node4" class="node"><title>Node4</title>
<polygon fill="white" stroke="#bfbfbf" points="65,-0.5 65,-19.5 182,-19.5 182,-0.5 65,-0.5"/>
<text text-anchor="middle" x="123.5" y="-7.5" font-family="Helvetica,sans-Serif" font-size="10.00">QAbstractTableModel</text>
</g>
<!-- Node2&#45;&gt;Node4 -->
<g id="edge3" class="edge"><title>Node2&#45;&gt;Node4</title>
<path fill="none" stroke="midnightblue" d="M163.574,-56.083C156.654,-48.2982 146.435,-36.8015 138.048,-27.3665"/>
<polygon fill="midnightblue" stroke="midnightblue" points="140.538,-24.8999 131.279,-19.7511 135.306,-29.5505 140.538,-24.8999"/>
</g>
<!-- Node5 -->
<g id="node5" class="node"><title>Node5</title>
<polygon fill="white" stroke="#bfbfbf" points="200.5,-0.5 200.5,-19.5 332.5,-19.5 332.5,-0.5 200.5,-0.5"/>
<text text-anchor="middle" x="266.5" y="-7.5" font-family="Helvetica,sans-Serif" font-size="10.00">src/fault_tree_analysis.h</text>
</g>
<!-- Node2&#45;&gt;Node5 -->
<g id="edge4" class="edge"><title>Node2&#45;&gt;Node5</title>
<path fill="none" stroke="midnightblue" d="M186.763,-56.324C201.721,-47.8215 224.755,-34.7288 242.227,-24.7975"/>
<polygon fill="midnightblue" stroke="midnightblue" points="244.31,-27.639 251.274,-19.6545 240.851,-21.5534 244.31,-27.639"/>
</g>
<!-- Node8 -->
<g id="node8" class="node"><title>Node8</title>
<polygon fill="white" stroke="#bfbfbf" points="351,-0.5 351,-19.5 380,-19.5 380,-0.5 351,-0.5"/>
<text text-anchor="middle" x="365.5" y="-7.5" font-family="Helvetica,sans-Serif" font-size="10.00">Qt</text>
</g>
<!-- Node7&#45;&gt;Node8 -->
<g id="edge7" class="edge"><title>Node7&#45;&gt;Node8</title>
<path fill="none" stroke="midnightblue" d="M383.032,-56.083C380.188,-48.77 376.071,-38.1814 372.54,-29.1034"/>
<polygon fill="midnightblue" stroke="midnightblue" points="375.79,-27.8025 368.903,-19.7511 369.266,-30.3397 375.79,-27.8025"/>
</g>
<!-- Node10 -->
<g id="node10" class="node"><title>Node10</title>
<polygon fill="white" stroke="#bfbfbf" points="398,-0.5 398,-19.5 483,-19.5 483,-0.5 398,-0.5"/>
<text text-anchor="middle" x="440.5" y="-7.5" font-family="Helvetica,sans-Serif" font-size="10.00">QMessageBox</text>
</g>
<!-- Node9&#45;&gt;Node10 -->
<g id="edge9" class="edge"><title>Node9&#45;&gt;Node10</title>
<path fill="none" stroke="midnightblue" d="M495.057,-56.324C485.354,-48.2631 470.685,-36.0765 459,-26.3695"/>
<polygon fill="midnightblue" stroke="midnightblue" points="461.062,-23.532 451.133,-19.8339 456.589,-28.9163 461.062,-23.532"/>
</g>
<!-- Node11 -->
<g id="node11" class="node"><title>Node11</title>
<polygon fill="white" stroke="#bfbfbf" points="501,-0.5 501,-19.5 554,-19.5 554,-0.5 501,-0.5"/>
<text text-anchor="middle" x="527.5" y="-7.5" font-family="Helvetica,sans-Serif" font-size="10.00">QString</text>
</g>
<!-- Node9&#45;&gt;Node11 -->
<g id="edge10" class="edge"><title>Node9&#45;&gt;Node11</title>
<path fill="none" stroke="midnightblue" d="M509.133,-56.083C512.112,-48.77 516.426,-38.1814 520.125,-29.1034"/>
<polygon fill="midnightblue" stroke="midnightblue" points="523.403,-30.3326 523.935,-19.7511 516.92,-27.6914 523.403,-30.3326"/>
</g>
<!-- Node12 -->
<g id="node12" class="node"><title>Node12</title>
<polygon fill="white" stroke="#bfbfbf" points="571.5,-0.5 571.5,-19.5 687.5,-19.5 687.5,-0.5 571.5,-0.5"/>
<text text-anchor="middle" x="629.5" y="-7.5" font-family="Helvetica,sans-Serif" font-size="10.00">src/ext/source_info.h</text>
</g>
<!-- Node9&#45;&gt;Node12 -->
<g id="edge11" class="edge"><title>Node9&#45;&gt;Node12</title>
<path fill="none" stroke="midnightblue" d="M525.148,-56.4435C545.465,-47.5961 577.403,-33.6875 600.598,-23.5865"/>
<polygon fill="midnightblue" stroke="midnightblue" points="602.173,-26.7181 609.944,-19.5164 599.378,-20.3002 602.173,-26.7181"/>
</g>
<!-- Node14 -->
<g id="node14" class="node"><title>Node14</title>
<polygon fill="white" stroke="#bfbfbf" points="706,-0.5 706,-19.5 761,-19.5 761,-0.5 706,-0.5"/>
<text text-anchor="middle" x="733.5" y="-7.5" font-family="Helvetica,sans-Serif" font-size="10.00">QObject</text>
</g>
<!-- Node13&#45;&gt;Node14 -->
<g id="edge13" class="edge"><title>Node13&#45;&gt;Node14</title>
<path fill="none" stroke="midnightblue" d="M700.94,-56.083C706.449,-48.4554 714.531,-37.2645 721.265,-27.9408"/>
<polygon fill="midnightblue" stroke="midnightblue" points="724.162,-29.9071 727.18,-19.7511 718.487,-25.8087 724.162,-29.9071"/>
</g>
</g>
</svg>
        <g id="navigator" transform="translate(0 0)" fill="#404254">
                <rect fill="#f2f5e9" fill-opacity="0.5" stroke="#606060" stroke-width=".5" x="0" y="0" width="60" height="60"/>
                <use id="zoomplus" xlink:href="#zoomPlus" x="17" y="9" onmousedown="handleZoom(evt,'in')"/>
                <use id="zoomminus" xlink:href="#zoomMin" x="42" y="9" onmousedown="handleZoom(evt,'out')"/>
                <use id="reset" xlink:href="#resetDef" x="30" y="36" onmousedown="handleReset()"/>
                <g id="arrowUp" xlink:href="#dirArrow" transform="translate(30 24)" onmousedown="handlePan(0,-1)">
                  <use xlink:href="#rim" fill="#404040">
                        <set attributeName="fill" to="#808080" begin="arrowUp.mouseover" end="arrowUp.mouseout"/>
                  </use>
                  <path fill="none" stroke="white" stroke-width="1.5" d="M0,-3.0v7 M-2.5,-0.5L0,-3.0L2.5,-0.5"/>
                </g>
                <g id="arrowRight" xlink:href="#dirArrow" transform="rotate(90) translate(36 -43)" onmousedown="handlePan(1,0)">
                  <use xlink:href="#rim" fill="#404040">
                        <set attributeName="fill" to="#808080" begin="arrowRight.mouseover" end="arrowRight.mouseout"/>
                  </use>
                  <path fill="none" stroke="white" stroke-width="1.5" d="M0,-3.0v7 M-2.5,-0.5L0,-3.0L2.5,-0.5"/>
                </g>
                <g id="arrowDown" xlink:href="#dirArrow" transform="rotate(180) translate(-30 -48)" onmousedown="handlePan(0,1)">
                  <use xlink:href="#rim" fill="#404040">
                        <set attributeName="fill" to="#808080" begin="arrowDown.mouseover" end="arrowDown.mouseout"/>
                  </use>
                  <path fill="none" stroke="white" stroke-width="1.5" d="M0,-3.0v7 M-2.5,-0.5L0,-3.0L2.5,-0.5"/>
                </g>
                <g id="arrowLeft" xlink:href="#dirArrow" transform="rotate(270) translate(-36 17)" onmousedown="handlePan(-1,0)">
                  <use xlink:href="#rim" fill="#404040">
                        <set attributeName="fill" to="#808080" begin="arrowLeft.mouseover" end="arrowLeft.mouseout"/>
                  </use>
                  <path fill="none" stroke="white" stroke-width="1.5" d="M0,-3.0v7 M-2.5,-0.5L0,-3.0L2.5,-0.5"/>
                </g>
        </g>
        <svg viewBox="0 0 15 15" width="100%" height="30px" preserveAspectRatio="xMaxYMin meet">
         <g id="arrow_out" transform="scale(0.3 0.3)">
          <a xlink:href="producttablemodel_8cpp__incl_org.svg" target="_base">
           <rect id="button" ry="5" rx="5" y="6" x="6" height="38" width="38"
                fill="#f2f5e9" fill-opacity="0.5" stroke="#606060" stroke-width="1.0"/>
           <path id="arrow"
             d="M 11.500037,31.436501 C 11.940474,20.09759 22.043105,11.32322 32.158766,21.979434 L 37.068811,17.246167 C 37.068811,17.246167 37.088388,32 37.088388,32 L 22.160133,31.978069 C 22.160133,31.978069 26.997745,27.140456 26.997745,27.140456 C 18.528582,18.264221 13.291696,25.230495 11.500037,31.436501 z"
             style="fill:#404040;"/>
          </a>
         </g>
        </svg>
</svg>
