<?xml version="1.0" encoding="UTF-8" standalone="no"?>
<!DOCTYPE svg PUBLIC "-//W3C//DTD SVG 1.1//EN"
 "http://www.w3.org/Graphics/SVG/1.1/DTD/svg11.dtd">
<!-- Generated by graphviz version 2.38.0 (20140413.2041)
 -->
<!-- Title: reporttree.h Pages: 1 -->
<svg width="309pt" height="84pt"
 viewBox="0.00 0.00 309.00 84.00" xmlns="http://www.w3.org/2000/svg" xmlns:xlink="http://www.w3.org/1999/xlink">
<g id="graph0" class="graph" transform="scale(1 1) rotate(0) translate(4 80)">
<title>reporttree.h</title>
<polygon fill="white" stroke="none" points="-4,4 -4,-80 305,-80 305,4 -4,4"/>
<!-- Node1 -->
<g id="node1" class="node"><title>Node1</title>
<polygon fill="#bfbfbf" stroke="black" points="85.5,-56.5 85.5,-75.5 159.5,-75.5 159.5,-56.5 85.5,-56.5"/>
<text text-anchor="middle" x="122.5" y="-63.5" font-family="Helvetica,sans-Serif" font-size="10.00">reporttree.h</text>
</g>
<!-- Node2 -->
<g id="node2" class="node"><title>Node2</title>
<polygon fill="white" stroke="#bfbfbf" points="0,-0.5 0,-19.5 47,-19.5 47,-0.5 0,-0.5"/>
<text text-anchor="middle" x="23.5" y="-7.5" font-family="Helvetica,sans-Serif" font-size="10.00">vector</text>
</g>
<!-- Node1&#45;&gt;Node2 -->
<g id="edge1" class="edge"><title>Node1&#45;&gt;Node2</title>
<path fill="none" stroke="midnightblue" d="M106.594,-56.324C90.8618,-47.7428 66.5577,-34.486 48.2911,-24.5224"/>
<polygon fill="midnightblue" stroke="midnightblue" points="49.8216,-21.3704 39.3666,-19.6545 46.4696,-27.5157 49.8216,-21.3704"/>
</g>
<!-- Node3 -->
<g id="node3" class="node"><title>Node3</title>
<polygon fill="white" stroke="#bfbfbf" points="65,-0.5 65,-19.5 180,-19.5 180,-0.5 65,-0.5"/>
<text text-anchor="middle" x="122.5" y="-7.5" font-family="Helvetica,sans-Serif" font-size="10.00">QAbstractItemModel</text>
</g>
<!-- Node1&#45;&gt;Node3 -->
<g id="edge2" class="edge"><title>Node1&#45;&gt;Node3</title>
<path fill="none" stroke="midnightblue" d="M122.5,-56.083C122.5,-49.0059 122.5,-38.8611 122.5,-29.9865"/>
<polygon fill="midnightblue" stroke="midnightblue" points="126,-29.751 122.5,-19.7511 119,-29.7511 126,-29.751"/>
</g>
<!-- Node4 -->
<g id="node4" class="node"><title>Node4</title>
<polygon fill="white" stroke="#bfbfbf" points="198,-0.5 198,-19.5 301,-19.5 301,-0.5 198,-0.5"/>
<text text-anchor="middle" x="249.5" y="-7.5" font-family="Helvetica,sans-Serif" font-size="10.00">src/risk_analysis.h</text>
</g>
<!-- Node1&#45;&gt;Node4 -->
<g id="edge3" class="edge"><title>Node1&#45;&gt;Node4</title>
<path fill="none" stroke="midnightblue" d="M142.624,-56.4435C163.524,-47.5566 196.435,-33.5632 220.216,-23.4514"/>
<polygon fill="midnightblue" stroke="midnightblue" points="221.638,-26.6504 229.471,-19.5164 218.898,-20.2085 221.638,-26.6504"/>
</g>
</g>
</svg>
