<?xml version="1.0" encoding="UTF-8" standalone="no"?>
<!DOCTYPE svg PUBLIC "-//W3C//DTD SVG 1.1//EN"
 "http://www.w3.org/Graphics/SVG/1.1/DTD/svg11.dtd">
<!-- Generated by graphviz version 2.38.0 (20140413.2041)
 -->
<!-- Title: reporttree.cpp Pages: 1 -->
<svg width="690pt" height="140pt"
 viewBox="0.00 0.00 690.00 140.00" xmlns="http://www.w3.org/2000/svg" xmlns:xlink="http://www.w3.org/1999/xlink">
<g id="graph0" class="graph" transform="scale(1 1) rotate(0) translate(4 136)">
<title>reporttree.cpp</title>
<polygon fill="white" stroke="none" points="-4,4 -4,-136 686,-136 686,4 -4,4"/>
<!-- Node1 -->
<g id="node1" class="node"><title>Node1</title>
<polygon fill="#bfbfbf" stroke="black" points="262.5,-112.5 262.5,-131.5 348.5,-131.5 348.5,-112.5 262.5,-112.5"/>
<text text-anchor="middle" x="305.5" y="-119.5" font-family="Helvetica,sans-Serif" font-size="10.00">reporttree.cpp</text>
</g>
<!-- Node2 -->
<g id="node2" class="node"><title>Node2</title>
<polygon fill="white" stroke="#bfbfbf" points="145,-56.5 145,-75.5 194,-75.5 194,-56.5 145,-56.5"/>
<text text-anchor="middle" x="169.5" y="-63.5" font-family="Helvetica,sans-Serif" font-size="10.00">cstdint</text>
</g>
<!-- Node1&#45;&gt;Node2 -->
<g id="edge1" class="edge"><title>Node1&#45;&gt;Node2</title>
<path fill="none" stroke="midnightblue" d="M283.95,-112.444C261.469,-103.517 226.012,-89.4387 200.52,-79.3168"/>
<polygon fill="midnightblue" stroke="midnightblue" points="201.535,-75.9539 190.949,-75.5164 198.951,-82.4598 201.535,-75.9539"/>
</g>
<!-- Node3 -->
<g id="node3" class="node"><title>Node3</title>
<g id="a_node3"><a xlink:href="reporttree_8h.xhtml" target="_top" xlink:title="Report tree model to represent the analysis results. ">
<polygon fill="white" stroke="black" points="212.5,-56.5 212.5,-75.5 286.5,-75.5 286.5,-56.5 212.5,-56.5"/>
<text text-anchor="middle" x="249.5" y="-63.5" font-family="Helvetica,sans-Serif" font-size="10.00">reporttree.h</text>
</a>
</g>
</g>
<!-- Node1&#45;&gt;Node3 -->
<g id="edge2" class="edge"><title>Node1&#45;&gt;Node3</title>
<path fill="none" stroke="midnightblue" d="M296.503,-112.324C288.306,-104.42 275.994,-92.5482 266.028,-82.9377"/>
<polygon fill="midnightblue" stroke="midnightblue" points="268.289,-80.2558 258.661,-75.8339 263.43,-85.2947 268.289,-80.2558"/>
</g>
<!-- Node7 -->
<g id="node7" class="node"><title>Node7</title>
<g id="a_node7"><a xlink:href="guiassert_8h.xhtml" target="_top" xlink:title="GUI assertions that should not crash the program by default. ">
<polygon fill="white" stroke="black" points="369.5,-56.5 369.5,-75.5 439.5,-75.5 439.5,-56.5 369.5,-56.5"/>
<text text-anchor="middle" x="404.5" y="-63.5" font-family="Helvetica,sans-Serif" font-size="10.00">guiassert.h</text>
</a>
</g>
</g>
<!-- Node1&#45;&gt;Node7 -->
<g id="edge6" class="edge"><title>Node1&#45;&gt;Node7</title>
<path fill="none" stroke="midnightblue" d="M321.406,-112.324C337.138,-103.743 361.442,-90.486 379.709,-80.5224"/>
<polygon fill="midnightblue" stroke="midnightblue" points="381.53,-83.5157 388.633,-75.6545 378.178,-77.3704 381.53,-83.5157"/>
</g>
<!-- Node11 -->
<g id="node11" class="node"><title>Node11</title>
<g id="a_node11"><a xlink:href="translate_8h.xhtml" target="_top" xlink:title="Translation helper facilities to workaround Qt Linguist shortcomings. ">
<polygon fill="white" stroke="black" points="560.5,-56.5 560.5,-75.5 628.5,-75.5 628.5,-56.5 560.5,-56.5"/>
<text text-anchor="middle" x="594.5" y="-63.5" font-family="Helvetica,sans-Serif" font-size="10.00">translate.h</text>
</a>
</g>
</g>
<!-- Node1&#45;&gt;Node11 -->
<g id="edge10" class="edge"><title>Node1&#45;&gt;Node11</title>
<path fill="none" stroke="midnightblue" d="M348.766,-112.916C403.056,-102.771 495.66,-85.4683 550.358,-75.2479"/>
<polygon fill="midnightblue" stroke="midnightblue" points="551.254,-78.6411 560.441,-73.3639 549.969,-71.7602 551.254,-78.6411"/>
</g>
<!-- Node4 -->
<g id="node4" class="node"><title>Node4</title>
<polygon fill="white" stroke="#bfbfbf" points="0,-0.5 0,-19.5 47,-19.5 47,-0.5 0,-0.5"/>
<text text-anchor="middle" x="23.5" y="-7.5" font-family="Helvetica,sans-Serif" font-size="10.00">vector</text>
</g>
<!-- Node3&#45;&gt;Node4 -->
<g id="edge3" class="edge"><title>Node3&#45;&gt;Node4</title>
<path fill="none" stroke="midnightblue" d="M212.185,-56.882C175.096,-48.6944 116.362,-35.4092 57.1266,-20.3394"/>
<polygon fill="midnightblue" stroke="midnightblue" points="57.7883,-16.896 47.2327,-17.8066 56.0523,-23.6773 57.7883,-16.896"/>
</g>
<!-- Node5 -->
<g id="node5" class="node"><title>Node5</title>
<polygon fill="white" stroke="#bfbfbf" points="65,-0.5 65,-19.5 180,-19.5 180,-0.5 65,-0.5"/>
<text text-anchor="middle" x="122.5" y="-7.5" font-family="Helvetica,sans-Serif" font-size="10.00">QAbstractItemModel</text>
</g>
<!-- Node3&#45;&gt;Node5 -->
<g id="edge4" class="edge"><title>Node3&#45;&gt;Node5</title>
<path fill="none" stroke="midnightblue" d="M229.376,-56.4435C208.476,-47.5566 175.565,-33.5632 151.784,-23.4514"/>
<polygon fill="midnightblue" stroke="midnightblue" points="153.102,-20.2085 142.529,-19.5164 150.362,-26.6504 153.102,-20.2085"/>
</g>
<!-- Node6 -->
<g id="node6" class="node"><title>Node6</title>
<polygon fill="white" stroke="#bfbfbf" points="198,-0.5 198,-19.5 301,-19.5 301,-0.5 198,-0.5"/>
<text text-anchor="middle" x="249.5" y="-7.5" font-family="Helvetica,sans-Serif" font-size="10.00">src/risk_analysis.h</text>
</g>
<!-- Node3&#45;&gt;Node6 -->
<g id="edge5" class="edge"><title>Node3&#45;&gt;Node6</title>
<path fill="none" stroke="midnightblue" d="M249.5,-56.083C249.5,-49.0059 249.5,-38.8611 249.5,-29.9865"/>
<polygon fill="midnightblue" stroke="midnightblue" points="253,-29.751 249.5,-19.7511 246,-29.7511 253,-29.751"/>
</g>
<!-- Node8 -->
<g id="node8" class="node"><title>Node8</title>
<polygon fill="white" stroke="#bfbfbf" points="319,-0.5 319,-19.5 404,-19.5 404,-0.5 319,-0.5"/>
<text text-anchor="middle" x="361.5" y="-7.5" font-family="Helvetica,sans-Serif" font-size="10.00">QMessageBox</text>
</g>
<!-- Node7&#45;&gt;Node8 -->
<g id="edge7" class="edge"><title>Node7&#45;&gt;Node8</title>
<path fill="none" stroke="midnightblue" d="M397.399,-56.083C391.263,-48.3768 382.23,-37.0333 374.761,-27.6531"/>
<polygon fill="midnightblue" stroke="midnightblue" points="377.436,-25.3936 368.468,-19.7511 371.96,-29.7542 377.436,-25.3936"/>
</g>
<!-- Node9 -->
<g id="node9" class="node"><title>Node9</title>
<polygon fill="white" stroke="#bfbfbf" points="422,-0.5 422,-19.5 475,-19.5 475,-0.5 422,-0.5"/>
<text text-anchor="middle" x="448.5" y="-7.5" font-family="Helvetica,sans-Serif" font-size="10.00">QString</text>
</g>
<!-- Node7&#45;&gt;Node9 -->
<g id="edge8" class="edge"><title>Node7&#45;&gt;Node9</title>
<path fill="none" stroke="midnightblue" d="M411.766,-56.083C418.045,-48.3768 427.288,-37.0333 434.931,-27.6531"/>
<polygon fill="midnightblue" stroke="midnightblue" points="437.766,-29.7143 441.369,-19.7511 432.339,-25.2926 437.766,-29.7143"/>
</g>
<!-- Node10 -->
<g id="node10" class="node"><title>Node10</title>
<polygon fill="white" stroke="#bfbfbf" points="492.5,-0.5 492.5,-19.5 608.5,-19.5 608.5,-0.5 492.5,-0.5"/>
<text text-anchor="middle" x="550.5" y="-7.5" font-family="Helvetica,sans-Serif" font-size="10.00">src/ext/source_info.h</text>
</g>
<!-- Node7&#45;&gt;Node10 -->
<g id="edge9" class="edge"><title>Node7&#45;&gt;Node10</title>
<path fill="none" stroke="midnightblue" d="M427.634,-56.4435C451.982,-47.4381 490.507,-33.1891 517.923,-23.049"/>
<polygon fill="midnightblue" stroke="midnightblue" points="519.309,-26.2681 527.474,-19.5164 516.881,-19.7028 519.309,-26.2681"/>
</g>
<!-- Node12 -->
<g id="node12" class="node"><title>Node12</title>
<polygon fill="white" stroke="#bfbfbf" points="627,-0.5 627,-19.5 682,-19.5 682,-0.5 627,-0.5"/>
<text text-anchor="middle" x="654.5" y="-7.5" font-family="Helvetica,sans-Serif" font-size="10.00">QObject</text>
</g>
<!-- Node11&#45;&gt;Node12 -->
<g id="edge11" class="edge"><title>Node11&#45;&gt;Node12</title>
<path fill="none" stroke="midnightblue" d="M604.14,-56.324C613.01,-48.3414 626.375,-36.3128 637.108,-26.6529"/>
<polygon fill="midnightblue" stroke="midnightblue" points="639.593,-29.1251 644.685,-19.8339 634.91,-23.922 639.593,-29.1251"/>
</g>
</g>
</svg>
