<?xml version="1.0" encoding="UTF-8" standalone="no"?>
<!DOCTYPE svg PUBLIC "-//W3C//DTD SVG 1.1//EN"
 "http://www.w3.org/Graphics/SVG/1.1/DTD/svg11.dtd">
<!-- Generated by graphviz version 2.38.0 (20140413.2041)
 -->
<!-- Title: settingsdialog.cpp Pages: 1 -->
<svg width="578pt" height="140pt"
 viewBox="0.00 0.00 577.50 140.00" xmlns="http://www.w3.org/2000/svg" xmlns:xlink="http://www.w3.org/1999/xlink">
<g id="graph0" class="graph" transform="scale(1 1) rotate(0) translate(4 136)">
<title>settingsdialog.cpp</title>
<polygon fill="white" stroke="none" points="-4,4 -4,-136 573.5,-136 573.5,4 -4,4"/>
<!-- Node1 -->
<g id="node1" class="node"><title>Node1</title>
<polygon fill="#bfbfbf" stroke="black" points="219.5,-112.5 219.5,-131.5 323.5,-131.5 323.5,-112.5 219.5,-112.5"/>
<text text-anchor="middle" x="271.5" y="-119.5" font-family="Helvetica,sans-Serif" font-size="10.00">settingsdialog.cpp</text>
</g>
<!-- Node2 -->
<g id="node2" class="node"><title>Node2</title>
<g id="a_node2"><a xlink:href="settingsdialog_8h.xhtml" target="_top" xlink:title="Dialog to manage analysis settings. ">
<polygon fill="white" stroke="black" points="56.5,-56.5 56.5,-75.5 148.5,-75.5 148.5,-56.5 56.5,-56.5"/>
<text text-anchor="middle" x="102.5" y="-63.5" font-family="Helvetica,sans-Serif" font-size="10.00">settingsdialog.h</text>
</a>
</g>
</g>
<!-- Node1&#45;&gt;Node2 -->
<g id="edge1" class="edge"><title>Node1&#45;&gt;Node2</title>
<path fill="none" stroke="midnightblue" d="M244.721,-112.444C216.167,-103.32 170.767,-88.8133 138.963,-78.6509"/>
<polygon fill="midnightblue" stroke="midnightblue" points="139.744,-75.2262 129.153,-75.5164 137.614,-81.8941 139.744,-75.2262"/>
</g>
<!-- Node6 -->
<g id="node6" class="node"><title>Node6</title>
<polygon fill="white" stroke="#bfbfbf" points="166.5,-56.5 166.5,-75.5 272.5,-75.5 272.5,-56.5 166.5,-56.5"/>
<text text-anchor="middle" x="219.5" y="-63.5" font-family="Helvetica,sans-Serif" font-size="10.00">ui_settingsdialog.h</text>
</g>
<!-- Node1&#45;&gt;Node6 -->
<g id="edge5" class="edge"><title>Node1&#45;&gt;Node6</title>
<path fill="none" stroke="midnightblue" d="M262.913,-112.083C255.341,-104.22 244.122,-92.5688 234.986,-83.0813"/>
<polygon fill="midnightblue" stroke="midnightblue" points="237.385,-80.5266 227.927,-75.7511 232.342,-85.3821 237.385,-80.5266"/>
</g>
<!-- Node7 -->
<g id="node7" class="node"><title>Node7</title>
<polygon fill="white" stroke="#bfbfbf" points="291,-56.5 291,-75.5 356,-75.5 356,-56.5 291,-56.5"/>
<text text-anchor="middle" x="323.5" y="-63.5" font-family="Helvetica,sans-Serif" font-size="10.00">src/error.h</text>
</g>
<!-- Node1&#45;&gt;Node7 -->
<g id="edge6" class="edge"><title>Node1&#45;&gt;Node7</title>
<path fill="none" stroke="midnightblue" d="M280.087,-112.083C287.659,-104.22 298.878,-92.5688 308.014,-83.0813"/>
<polygon fill="midnightblue" stroke="midnightblue" points="310.658,-85.3821 315.073,-75.7511 305.615,-80.5266 310.658,-85.3821"/>
</g>
<!-- Node8 -->
<g id="node8" class="node"><title>Node8</title>
<g id="a_node8"><a xlink:href="guiassert_8h.xhtml" target="_top" xlink:title="GUI assertions that should not crash the program by default. ">
<polygon fill="white" stroke="black" points="374.5,-56.5 374.5,-75.5 444.5,-75.5 444.5,-56.5 374.5,-56.5"/>
<text text-anchor="middle" x="409.5" y="-63.5" font-family="Helvetica,sans-Serif" font-size="10.00">guiassert.h</text>
</a>
</g>
</g>
<!-- Node1&#45;&gt;Node8 -->
<g id="edge7" class="edge"><title>Node1&#45;&gt;Node8</title>
<path fill="none" stroke="midnightblue" d="M293.367,-112.444C316.279,-103.478 352.475,-89.314 378.366,-79.1827"/>
<polygon fill="midnightblue" stroke="midnightblue" points="379.699,-82.4198 387.736,-75.5164 377.148,-75.9011 379.699,-82.4198"/>
</g>
<!-- Node3 -->
<g id="node3" class="node"><title>Node3</title>
<polygon fill="white" stroke="#bfbfbf" points="0,-0.5 0,-19.5 57,-19.5 57,-0.5 0,-0.5"/>
<text text-anchor="middle" x="28.5" y="-7.5" font-family="Helvetica,sans-Serif" font-size="10.00">memory</text>
</g>
<!-- Node2&#45;&gt;Node3 -->
<g id="edge2" class="edge"><title>Node2&#45;&gt;Node3</title>
<path fill="none" stroke="midnightblue" d="M90.6106,-56.324C79.3498,-48.1066 62.2134,-35.6017 48.7909,-25.8069"/>
<polygon fill="midnightblue" stroke="midnightblue" points="50.7468,-22.9014 40.6057,-19.8339 46.6205,-28.5559 50.7468,-22.9014"/>
</g>
<!-- Node4 -->
<g id="node4" class="node"><title>Node4</title>
<polygon fill="white" stroke="#bfbfbf" points="75.5,-0.5 75.5,-19.5 129.5,-19.5 129.5,-0.5 75.5,-0.5"/>
<text text-anchor="middle" x="102.5" y="-7.5" font-family="Helvetica,sans-Serif" font-size="10.00">QDialog</text>
</g>
<!-- Node2&#45;&gt;Node4 -->
<g id="edge3" class="edge"><title>Node2&#45;&gt;Node4</title>
<path fill="none" stroke="midnightblue" d="M102.5,-56.083C102.5,-49.0059 102.5,-38.8611 102.5,-29.9865"/>
<polygon fill="midnightblue" stroke="midnightblue" points="106,-29.751 102.5,-19.7511 99.0001,-29.7511 106,-29.751"/>
</g>
<!-- Node5 -->
<g id="node5" class="node"><title>Node5</title>
<polygon fill="white" stroke="#bfbfbf" points="148,-0.5 148,-19.5 229,-19.5 229,-0.5 148,-0.5"/>
<text text-anchor="middle" x="188.5" y="-7.5" font-family="Helvetica,sans-Serif" font-size="10.00">src/settings.h</text>
</g>
<!-- Node2&#45;&gt;Node5 -->
<g id="edge4" class="edge"><title>Node2&#45;&gt;Node5</title>
<path fill="none" stroke="midnightblue" d="M116.317,-56.324C129.733,-47.9002 150.324,-34.9709 166.086,-25.0741"/>
<polygon fill="midnightblue" stroke="midnightblue" points="168.109,-27.9364 174.717,-19.6545 164.387,-22.0081 168.109,-27.9364"/>
</g>
<!-- Node9 -->
<g id="node9" class="node"><title>Node9</title>
<polygon fill="white" stroke="#bfbfbf" points="280,-0.5 280,-19.5 365,-19.5 365,-0.5 280,-0.5"/>
<text text-anchor="middle" x="322.5" y="-7.5" font-family="Helvetica,sans-Serif" font-size="10.00">QMessageBox</text>
</g>
<!-- Node8&#45;&gt;Node9 -->
<g id="edge8" class="edge"><title>Node8&#45;&gt;Node9</title>
<path fill="none" stroke="midnightblue" d="M395.522,-56.324C381.95,-47.9002 361.12,-34.9709 345.175,-25.0741"/>
<polygon fill="midnightblue" stroke="midnightblue" points="346.786,-21.9544 336.443,-19.6545 343.094,-27.9019 346.786,-21.9544"/>
</g>
<!-- Node10 -->
<g id="node10" class="node"><title>Node10</title>
<polygon fill="white" stroke="#bfbfbf" points="383,-0.5 383,-19.5 436,-19.5 436,-0.5 383,-0.5"/>
<text text-anchor="middle" x="409.5" y="-7.5" font-family="Helvetica,sans-Serif" font-size="10.00">QString</text>
</g>
<!-- Node8&#45;&gt;Node10 -->
<g id="edge9" class="edge"><title>Node8&#45;&gt;Node10</title>
<path fill="none" stroke="midnightblue" d="M409.5,-56.083C409.5,-49.0059 409.5,-38.8611 409.5,-29.9865"/>
<polygon fill="midnightblue" stroke="midnightblue" points="413,-29.751 409.5,-19.7511 406,-29.7511 413,-29.751"/>
</g>
<!-- Node11 -->
<g id="node11" class="node"><title>Node11</title>
<polygon fill="white" stroke="#bfbfbf" points="453.5,-0.5 453.5,-19.5 569.5,-19.5 569.5,-0.5 453.5,-0.5"/>
<text text-anchor="middle" x="511.5" y="-7.5" font-family="Helvetica,sans-Serif" font-size="10.00">src/ext/source_info.h</text>
</g>
<!-- Node8&#45;&gt;Node11 -->
<g id="edge10" class="edge"><title>Node8&#45;&gt;Node11</title>
<path fill="none" stroke="midnightblue" d="M425.888,-56.324C442.171,-47.7034 467.367,-34.3643 486.216,-24.3855"/>
<polygon fill="midnightblue" stroke="midnightblue" points="487.952,-27.4267 495.153,-19.6545 484.677,-21.2402 487.952,-27.4267"/>
</g>
</g>
</svg>
