<?xml version="1.0" encoding="UTF-8" standalone="no"?>
<!DOCTYPE svg PUBLIC "-//W3C//DTD SVG 1.1//EN"
 "http://www.w3.org/Graphics/SVG/1.1/DTD/svg11.dtd">
<!-- Generated by graphviz version 2.38.0 (20140413.2041)
 -->
<!-- Title: settingsdialog.h Pages: 1 -->
<svg width="237pt" height="84pt"
 viewBox="0.00 0.00 237.00 84.00" xmlns="http://www.w3.org/2000/svg" xmlns:xlink="http://www.w3.org/1999/xlink">
<g id="graph0" class="graph" transform="scale(1 1) rotate(0) translate(4 80)">
<title>settingsdialog.h</title>
<polygon fill="white" stroke="none" points="-4,4 -4,-80 233,-80 233,4 -4,4"/>
<!-- Node1 -->
<g id="node1" class="node"><title>Node1</title>
<polygon fill="#bfbfbf" stroke="black" points="56.5,-56.5 56.5,-75.5 148.5,-75.5 148.5,-56.5 56.5,-56.5"/>
<text text-anchor="middle" x="102.5" y="-63.5" font-family="Helvetica,sans-Serif" font-size="10.00">settingsdialog.h</text>
</g>
<!-- Node2 -->
<g id="node2" class="node"><title>Node2</title>
<polygon fill="white" stroke="#bfbfbf" points="0,-0.5 0,-19.5 57,-19.5 57,-0.5 0,-0.5"/>
<text text-anchor="middle" x="28.5" y="-7.5" font-family="Helvetica,sans-Serif" font-size="10.00">memory</text>
</g>
<!-- Node1&#45;&gt;Node2 -->
<g id="edge1" class="edge"><title>Node1&#45;&gt;Node2</title>
<path fill="none" stroke="midnightblue" d="M90.6106,-56.324C79.3498,-48.1066 62.2134,-35.6017 48.7909,-25.8069"/>
<polygon fill="midnightblue" stroke="midnightblue" points="50.7468,-22.9014 40.6057,-19.8339 46.6205,-28.5559 50.7468,-22.9014"/>
</g>
<!-- Node3 -->
<g id="node3" class="node"><title>Node3</title>
<polygon fill="white" stroke="#bfbfbf" points="75.5,-0.5 75.5,-19.5 129.5,-19.5 129.5,-0.5 75.5,-0.5"/>
<text text-anchor="middle" x="102.5" y="-7.5" font-family="Helvetica,sans-Serif" font-size="10.00">QDialog</text>
</g>
<!-- Node1&#45;&gt;Node3 -->
<g id="edge2" class="edge"><title>Node1&#45;&gt;Node3</title>
<path fill="none" stroke="midnightblue" d="M102.5,-56.083C102.5,-49.0059 102.5,-38.8611 102.5,-29.9865"/>
<polygon fill="midnightblue" stroke="midnightblue" points="106,-29.751 102.5,-19.7511 99.0001,-29.7511 106,-29.751"/>
</g>
<!-- Node4 -->
<g id="node4" class="node"><title>Node4</title>
<polygon fill="white" stroke="#bfbfbf" points="148,-0.5 148,-19.5 229,-19.5 229,-0.5 148,-0.5"/>
<text text-anchor="middle" x="188.5" y="-7.5" font-family="Helvetica,sans-Serif" font-size="10.00">src/settings.h</text>
</g>
<!-- Node1&#45;&gt;Node4 -->
<g id="edge3" class="edge"><title>Node1&#45;&gt;Node4</title>
<path fill="none" stroke="midnightblue" d="M116.317,-56.324C129.733,-47.9002 150.324,-34.9709 166.086,-25.0741"/>
<polygon fill="midnightblue" stroke="midnightblue" points="168.109,-27.9364 174.717,-19.6545 164.387,-22.0081 168.109,-27.9364"/>
</g>
</g>
</svg>
