<?xml version="1.0" encoding="UTF-8" standalone="no"?>
<!DOCTYPE svg PUBLIC "-//W3C//DTD SVG 1.1//EN"
 "http://www.w3.org/Graphics/SVG/1.1/DTD/svg11.dtd">
<!-- Generated by graphviz version 2.38.0 (20140413.2041)
 -->
<!-- Title: validator.h Pages: 1 -->
<svg width="308pt" height="84pt"
 viewBox="0.00 0.00 307.50 84.00" xmlns="http://www.w3.org/2000/svg" xmlns:xlink="http://www.w3.org/1999/xlink">
<g id="graph0" class="graph" transform="scale(1 1) rotate(0) translate(4 80)">
<title>validator.h</title>
<polygon fill="white" stroke="none" points="-4,4 -4,-80 303.5,-80 303.5,4 -4,4"/>
<!-- Node1 -->
<g id="node1" class="node"><title>Node1</title>
<polygon fill="#bfbfbf" stroke="black" points="124,-56.5 124,-75.5 190,-75.5 190,-56.5 124,-56.5"/>
<text text-anchor="middle" x="157" y="-63.5" font-family="Helvetica,sans-Serif" font-size="10.00">validator.h</text>
</g>
<!-- Node2 -->
<g id="node2" class="node"><title>Node2</title>
<g id="a_node2"><a xlink:href="eventdialog_8cpp.xhtml" target="_top" xlink:title="eventdialog.cpp">
<polygon fill="white" stroke="black" points="0,-0.5 0,-19.5 92,-19.5 92,-0.5 0,-0.5"/>
<text text-anchor="middle" x="46" y="-7.5" font-family="Helvetica,sans-Serif" font-size="10.00">eventdialog.cpp</text>
</a>
</g>
</g>
<!-- Node1&#45;&gt;Node2 -->
<g id="edge1" class="edge"><title>Node1&#45;&gt;Node2</title>
<path fill="none" stroke="midnightblue" d="M129.995,-51.8622C109.412,-41.8492 81.6553,-28.3458 63.7898,-19.6545"/>
<polygon fill="midnightblue" stroke="midnightblue" points="128.642,-55.0966 139.166,-56.324 131.705,-48.8019 128.642,-55.0966"/>
</g>
<!-- Node3 -->
<g id="node3" class="node"><title>Node3</title>
<g id="a_node3"><a xlink:href="mainwindow_8cpp.xhtml" target="_top" xlink:title="mainwindow.cpp">
<polygon fill="white" stroke="black" points="110,-0.5 110,-19.5 204,-19.5 204,-0.5 110,-0.5"/>
<text text-anchor="middle" x="157" y="-7.5" font-family="Helvetica,sans-Serif" font-size="10.00">mainwindow.cpp</text>
</a>
</g>
</g>
<!-- Node1&#45;&gt;Node3 -->
<g id="edge2" class="edge"><title>Node1&#45;&gt;Node3</title>
<path fill="none" stroke="midnightblue" d="M157,-45.8045C157,-36.9102 157,-26.7798 157,-19.7511"/>
<polygon fill="midnightblue" stroke="midnightblue" points="153.5,-46.083 157,-56.083 160.5,-46.083 153.5,-46.083"/>
</g>
<!-- Node4 -->
<g id="node4" class="node"><title>Node4</title>
<g id="a_node4"><a xlink:href="validator_8cpp.xhtml" target="_top" xlink:title="Definition and initialization of validators. ">
<polygon fill="white" stroke="black" points="222.5,-0.5 222.5,-19.5 299.5,-19.5 299.5,-0.5 222.5,-0.5"/>
<text text-anchor="middle" x="261" y="-7.5" font-family="Helvetica,sans-Serif" font-size="10.00">validator.cpp</text>
</a>
</g>
</g>
<!-- Node1&#45;&gt;Node4 -->
<g id="edge3" class="edge"><title>Node1&#45;&gt;Node4</title>
<path fill="none" stroke="midnightblue" d="M182.828,-51.5895C202.057,-41.6052 227.745,-28.2672 244.332,-19.6545"/>
<polygon fill="midnightblue" stroke="midnightblue" points="180.971,-48.6095 173.709,-56.324 184.197,-54.822 180.971,-48.6095"/>
</g>
</g>
</svg>
