<?xml version="1.0" encoding="UTF-8" standalone="no"?>
<!DOCTYPE svg PUBLIC "-//W3C//DTD SVG 1.1//EN"
 "http://www.w3.org/Graphics/SVG/1.1/DTD/svg11.dtd">
<!-- Generated by graphviz version 2.38.0 (20140413.2041)
 -->
<!-- Title: validator.cpp Pages: 1 -->
<svg width="553pt" height="140pt"
 viewBox="0.00 0.00 552.50 140.00" xmlns="http://www.w3.org/2000/svg" xmlns:xlink="http://www.w3.org/1999/xlink">
<g id="graph0" class="graph" transform="scale(1 1) rotate(0) translate(4 136)">
<title>validator.cpp</title>
<polygon fill="white" stroke="none" points="-4,4 -4,-136 548.5,-136 548.5,4 -4,4"/>
<!-- Node1 -->
<g id="node1" class="node"><title>Node1</title>
<polygon fill="#bfbfbf" stroke="black" points="155.5,-112.5 155.5,-131.5 232.5,-131.5 232.5,-112.5 155.5,-112.5"/>
<text text-anchor="middle" x="194" y="-119.5" font-family="Helvetica,sans-Serif" font-size="10.00">validator.cpp</text>
</g>
<!-- Node2 -->
<g id="node2" class="node"><title>Node2</title>
<g id="a_node2"><a xlink:href="validator_8h.xhtml" target="_top" xlink:title="Collection of validators. ">
<polygon fill="white" stroke="black" points="0,-56.5 0,-75.5 66,-75.5 66,-56.5 0,-56.5"/>
<text text-anchor="middle" x="33" y="-63.5" font-family="Helvetica,sans-Serif" font-size="10.00">validator.h</text>
</a>
</g>
</g>
<!-- Node1&#45;&gt;Node2 -->
<g id="edge1" class="edge"><title>Node1&#45;&gt;Node2</title>
<path fill="none" stroke="midnightblue" d="M168.489,-112.444C141.404,-103.359 98.41,-88.9388 68.1312,-78.7831"/>
<polygon fill="midnightblue" stroke="midnightblue" points="68.9855,-75.3781 58.3916,-75.5164 66.7595,-82.0148 68.9855,-75.3781"/>
</g>
<!-- Node4 -->
<g id="node4" class="node"><title>Node4</title>
<polygon fill="white" stroke="#bfbfbf" points="84,-56.5 84,-75.5 126,-75.5 126,-56.5 84,-56.5"/>
<text text-anchor="middle" x="105" y="-63.5" font-family="Helvetica,sans-Serif" font-size="10.00">limits</text>
</g>
<!-- Node1&#45;&gt;Node4 -->
<g id="edge3" class="edge"><title>Node1&#45;&gt;Node4</title>
<path fill="none" stroke="midnightblue" d="M179.701,-112.324C165.817,-103.9 144.508,-90.9709 128.196,-81.0741"/>
<polygon fill="midnightblue" stroke="midnightblue" points="129.629,-77.8495 119.264,-75.6545 125.998,-83.8341 129.629,-77.8495"/>
</g>
<!-- Node5 -->
<g id="node5" class="node"><title>Node5</title>
<polygon fill="white" stroke="#bfbfbf" points="144,-56.5 144,-75.5 244,-75.5 244,-56.5 144,-56.5"/>
<text text-anchor="middle" x="194" y="-63.5" font-family="Helvetica,sans-Serif" font-size="10.00">QDoubleValidator</text>
</g>
<!-- Node1&#45;&gt;Node5 -->
<g id="edge4" class="edge"><title>Node1&#45;&gt;Node5</title>
<path fill="none" stroke="midnightblue" d="M194,-112.083C194,-105.006 194,-94.8611 194,-85.9865"/>
<polygon fill="midnightblue" stroke="midnightblue" points="197.5,-85.751 194,-75.7511 190.5,-85.7511 197.5,-85.751"/>
</g>
<!-- Node6 -->
<g id="node6" class="node"><title>Node6</title>
<polygon fill="white" stroke="#bfbfbf" points="262.5,-56.5 262.5,-75.5 373.5,-75.5 373.5,-56.5 262.5,-56.5"/>
<text text-anchor="middle" x="318" y="-63.5" font-family="Helvetica,sans-Serif" font-size="10.00">QRegularExpression</text>
</g>
<!-- Node1&#45;&gt;Node6 -->
<g id="edge5" class="edge"><title>Node1&#45;&gt;Node6</title>
<path fill="none" stroke="midnightblue" d="M213.648,-112.444C233.965,-103.596 265.903,-89.6875 289.098,-79.5865"/>
<polygon fill="midnightblue" stroke="midnightblue" points="290.673,-82.7181 298.444,-75.5164 287.878,-76.3002 290.673,-82.7181"/>
</g>
<!-- Node7 -->
<g id="node7" class="node"><title>Node7</title>
<polygon fill="white" stroke="#bfbfbf" points="391.5,-56.5 391.5,-75.5 544.5,-75.5 544.5,-56.5 391.5,-56.5"/>
<text text-anchor="middle" x="468" y="-63.5" font-family="Helvetica,sans-Serif" font-size="10.00">QRegularExpressionValidator</text>
</g>
<!-- Node1&#45;&gt;Node7 -->
<g id="edge6" class="edge"><title>Node1&#45;&gt;Node7</title>
<path fill="none" stroke="midnightblue" d="M232.676,-113.378C280.211,-104.01 361.123,-88.0633 414.572,-77.5297"/>
<polygon fill="midnightblue" stroke="midnightblue" points="415.413,-80.9313 424.547,-75.5637 414.059,-74.0634 415.413,-80.9313"/>
</g>
<!-- Node3 -->
<g id="node3" class="node"><title>Node3</title>
<polygon fill="white" stroke="#bfbfbf" points="0,-0.5 0,-19.5 66,-19.5 66,-0.5 0,-0.5"/>
<text text-anchor="middle" x="33" y="-7.5" font-family="Helvetica,sans-Serif" font-size="10.00">QValidator</text>
</g>
<!-- Node2&#45;&gt;Node3 -->
<g id="edge2" class="edge"><title>Node2&#45;&gt;Node3</title>
<path fill="none" stroke="midnightblue" d="M33,-56.083C33,-49.0059 33,-38.8611 33,-29.9865"/>
<polygon fill="midnightblue" stroke="midnightblue" points="36.5001,-29.751 33,-19.7511 29.5001,-29.7511 36.5001,-29.751"/>
</g>
</g>
</svg>
