<?xml version="1.0" encoding="UTF-8" standalone="no"?>
<!DOCTYPE svg PUBLIC "-//W3C//DTD SVG 1.1//EN"
 "http://www.w3.org/Graphics/SVG/1.1/DTD/svg11.dtd">
<!-- Generated by graphviz version 2.38.0 (20140413.2041)
 -->
<!-- Title: zoomableview.h Pages: 1 -->
<svg width="251pt" height="140pt"
 viewBox="0.00 0.00 250.50 140.00" xmlns="http://www.w3.org/2000/svg" xmlns:xlink="http://www.w3.org/1999/xlink">
<g id="graph0" class="graph" transform="scale(1 1) rotate(0) translate(4 136)">
<title>zoomableview.h</title>
<polygon fill="white" stroke="none" points="-4,4 -4,-136 246.5,-136 246.5,4 -4,4"/>
<!-- Node1 -->
<g id="node1" class="node"><title>Node1</title>
<polygon fill="#bfbfbf" stroke="black" points="88.5,-112.5 88.5,-131.5 180.5,-131.5 180.5,-112.5 88.5,-112.5"/>
<text text-anchor="middle" x="134.5" y="-119.5" font-family="Helvetica,sans-Serif" font-size="10.00">zoomableview.h</text>
</g>
<!-- Node2 -->
<g id="node2" class="node"><title>Node2</title>
<g id="a_node2"><a xlink:href="mainwindow_8h.xhtml" target="_top" xlink:title="The main application window. ">
<polygon fill="white" stroke="black" points="37,-56.5 37,-75.5 120,-75.5 120,-56.5 37,-56.5"/>
<text text-anchor="middle" x="78.5" y="-63.5" font-family="Helvetica,sans-Serif" font-size="10.00">mainwindow.h</text>
</a>
</g>
</g>
<!-- Node1&#45;&gt;Node2 -->
<g id="edge1" class="edge"><title>Node1&#45;&gt;Node2</title>
<path fill="none" stroke="midnightblue" d="M118.17,-105.253C108.235,-95.6731 95.9125,-83.7906 87.6611,-75.8339"/>
<polygon fill="midnightblue" stroke="midnightblue" points="115.875,-107.902 125.503,-112.324 120.734,-102.863 115.875,-107.902"/>
</g>
<!-- Node5 -->
<g id="node5" class="node"><title>Node5</title>
<g id="a_node5"><a xlink:href="zoomableview_8cpp.xhtml" target="_top" xlink:title="zoomableview.cpp">
<polygon fill="white" stroke="black" points="138.5,-56.5 138.5,-75.5 242.5,-75.5 242.5,-56.5 138.5,-56.5"/>
<text text-anchor="middle" x="190.5" y="-63.5" font-family="Helvetica,sans-Serif" font-size="10.00">zoomableview.cpp</text>
</a>
</g>
</g>
<!-- Node1&#45;&gt;Node5 -->
<g id="edge4" class="edge"><title>Node1&#45;&gt;Node5</title>
<path fill="none" stroke="midnightblue" d="M150.83,-105.253C160.765,-95.6731 173.088,-83.7906 181.339,-75.8339"/>
<polygon fill="midnightblue" stroke="midnightblue" points="148.266,-102.863 143.497,-112.324 153.125,-107.902 148.266,-102.863"/>
</g>
<!-- Node3 -->
<g id="node3" class="node"><title>Node3</title>
<g id="a_node3"><a xlink:href="main_8cpp.xhtml" target="_top" xlink:title="The main entrance to the SCRAM GUI. ">
<polygon fill="white" stroke="black" points="0,-0.5 0,-19.5 61,-19.5 61,-0.5 0,-0.5"/>
<text text-anchor="middle" x="30.5" y="-7.5" font-family="Helvetica,sans-Serif" font-size="10.00">main.cpp</text>
</a>
</g>
</g>
<!-- Node2&#45;&gt;Node3 -->
<g id="edge2" class="edge"><title>Node2&#45;&gt;Node3</title>
<path fill="none" stroke="midnightblue" d="M63.7723,-48.4314C55.3599,-38.9673 45.1513,-27.4827 38.2787,-19.7511"/>
<polygon fill="midnightblue" stroke="midnightblue" points="61.3142,-50.9342 70.5738,-56.083 66.546,-46.2836 61.3142,-50.9342"/>
</g>
<!-- Node4 -->
<g id="node4" class="node"><title>Node4</title>
<g id="a_node4"><a xlink:href="mainwindow_8cpp.xhtml" target="_top" xlink:title="mainwindow.cpp">
<polygon fill="white" stroke="black" points="79.5,-0.5 79.5,-19.5 173.5,-19.5 173.5,-0.5 79.5,-0.5"/>
<text text-anchor="middle" x="126.5" y="-7.5" font-family="Helvetica,sans-Serif" font-size="10.00">mainwindow.cpp</text>
</a>
</g>
</g>
<!-- Node2&#45;&gt;Node4 -->
<g id="edge3" class="edge"><title>Node2&#45;&gt;Node4</title>
<path fill="none" stroke="midnightblue" d="M93.2277,-48.4314C101.64,-38.9673 111.849,-27.4827 118.721,-19.7511"/>
<polygon fill="midnightblue" stroke="midnightblue" points="90.454,-46.2836 86.4262,-56.083 95.6858,-50.9342 90.454,-46.2836"/>
</g>
</g>
</svg>
