<?xml version="1.0" encoding="UTF-8" standalone="no"?>
<!DOCTYPE svg PUBLIC "-//W3C//DTD SVG 1.1//EN"
 "http://www.w3.org/Graphics/SVG/1.1/DTD/svg11.dtd">
<!-- Generated by graphviz version 2.38.0 (20140413.2041)
 -->
<!-- Title: algorithm.h Pages: 1 -->
<svg width="232pt" height="84pt"
 viewBox="0.00 0.00 232.00 84.00" xmlns="http://www.w3.org/2000/svg" xmlns:xlink="http://www.w3.org/1999/xlink">
<g id="graph0" class="graph" transform="scale(1 1) rotate(0) translate(4 80)">
<title>algorithm.h</title>
<polygon fill="white" stroke="none" points="-4,4 -4,-80 228,-80 228,4 -4,4"/>
<!-- Node1 -->
<g id="node1" class="node"><title>Node1</title>
<polygon fill="#bfbfbf" stroke="black" points="55.5,-56.5 55.5,-75.5 126.5,-75.5 126.5,-56.5 55.5,-56.5"/>
<text text-anchor="middle" x="91" y="-63.5" font-family="Helvetica,sans-Serif" font-size="10.00">algorithm.h</text>
</g>
<!-- Node2 -->
<g id="node2" class="node"><title>Node2</title>
<polygon fill="white" stroke="#bfbfbf" points="0,-0.5 0,-19.5 62,-19.5 62,-0.5 0,-0.5"/>
<text text-anchor="middle" x="31" y="-7.5" font-family="Helvetica,sans-Serif" font-size="10.00">algorithm</text>
</g>
<!-- Node1&#45;&gt;Node2 -->
<g id="edge1" class="edge"><title>Node1&#45;&gt;Node2</title>
<path fill="none" stroke="midnightblue" d="M81.36,-56.324C72.4904,-48.3414 59.1253,-36.3128 48.3921,-26.6529"/>
<polygon fill="midnightblue" stroke="midnightblue" points="50.5898,-23.922 40.8154,-19.8339 45.907,-29.1251 50.5898,-23.922"/>
</g>
<!-- Node3 -->
<g id="node3" class="node"><title>Node3</title>
<polygon fill="white" stroke="#bfbfbf" points="80,-0.5 80,-19.5 224,-19.5 224,-0.5 80,-0.5"/>
<text text-anchor="middle" x="152" y="-7.5" font-family="Helvetica,sans-Serif" font-size="10.00">boost/range/algorithm.hpp</text>
</g>
<!-- Node1&#45;&gt;Node3 -->
<g id="edge2" class="edge"><title>Node1&#45;&gt;Node3</title>
<path fill="none" stroke="midnightblue" d="M100.801,-56.324C109.818,-48.3414 123.406,-36.3128 134.318,-26.6529"/>
<polygon fill="midnightblue" stroke="midnightblue" points="136.853,-29.083 142.021,-19.8339 132.213,-23.8416 136.853,-29.083"/>
</g>
</g>
</svg>
