<?xml version="1.0" encoding="UTF-8" standalone="no"?>
<!DOCTYPE svg PUBLIC "-//W3C//DTD SVG 1.1//EN"
 "http://www.w3.org/Graphics/SVG/1.1/DTD/svg11.dtd">
<!-- Generated by graphviz version 2.38.0 (20140413.2041)
 -->
<!-- Title: algorithm.h Pages: 1 -->
<!--zoomable 84 -->
<svg id="main" version="1.1" xmlns="http://www.w3.org/2000/svg" xmlns:xlink="http://www.w3.org/1999/xlink" xml:space="preserve" onload="init(evt)">
<style type="text/css"><![CDATA[
.edge:hover path { stroke: red; }
.edge:hover polygon { stroke: red; fill: red; }
]]></style>
<script type="text/javascript"><![CDATA[
var edges = document.getElementsByTagName('g');
if (edges && edges.length) {
  for (var i=0;i<edges.length;i++) {
    if (edges[i].id.substr(0,4)=='edge') {
      edges[i].setAttribute('class','edge');
    }
  }
}
]]></script>
        <defs>
                <circle id="rim" cx="0" cy="0" r="7"/>
                <circle id="rim2" cx="0" cy="0" r="3.5"/>
                <g id="zoomPlus">
                        <use xlink:href="#rim" fill="#404040">
                                <set attributeName="fill" to="#808080" begin="zoomplus.mouseover" end="zoomplus.mouseout"/>
                        </use>
                        <path d="M-4,0h8M0,-4v8" fill="none" stroke="white" stroke-width="1.5" pointer-events="none"/>
                </g>
                <g id="zoomMin">
                        <use xlink:href="#rim" fill="#404040">
                                <set attributeName="fill" to="#808080" begin="zoomminus.mouseover" end="zoomminus.mouseout"/>
                        </use>
                        <path d="M-4,0h8" fill="none" stroke="white" stroke-width="1.5" pointer-events="none"/>
                </g>
                <g id="dirArrow">
                        <path fill="none" stroke="white" stroke-width="1.5" d="M0,-3.0v7 M-2.5,-0.5L0,-3.0L2.5,-0.5"/>
                </g>
               <g id="resetDef">
                       <use xlink:href="#rim2" fill="#404040">
                               <set attributeName="fill" to="#808080" begin="reset.mouseover" end="reset.mouseout"/>
                       </use>
               </g>
        </defs>

<script type="text/javascript">
var viewWidth = 834;
var viewHeight = 84;
var sectionId = 'dynsection-1';
</script>
<script xlink:href="svgpan.js"/>
<svg id="graph" class="graph">
<g id="viewport">
<title>algorithm.h</title>
<polygon fill="white" stroke="none" points="-4,4 -4,-80 830,-80 830,4 -4,4"/>
<!-- Node1 -->
<g id="node1" class="node"><title>Node1</title>
<polygon fill="#bfbfbf" stroke="black" points="397,-56.5 397,-75.5 468,-75.5 468,-56.5 397,-56.5"/>
<text text-anchor="middle" x="432.5" y="-63.5" font-family="Helvetica,sans-Serif" font-size="10.00">algorithm.h</text>
</g>
<!-- Node2 -->
<g id="node2" class="node"><title>Node2</title>
<g id="a_node2"><a xlink:href="ccf__group_8cc.xhtml" target="_top" xlink:title="Implementation of various common cause failure models. ">
<polygon fill="white" stroke="black" points="0,-0.5 0,-19.5 77,-19.5 77,-0.5 0,-0.5"/>
<text text-anchor="middle" x="38.5" y="-7.5" font-family="Helvetica,sans-Serif" font-size="10.00">ccf_group.cc</text>
</a>
</g>
</g>
<!-- Node1&#45;&gt;Node2 -->
<g id="edge1" class="edge"><title>Node1&#45;&gt;Node2</title>
<path fill="none" stroke="midnightblue" d="M386.794,-59.9615C320.308,-52.4309 193.106,-37.264 85.5,-20 82.793,-19.5657 80.0029,-19.0938 77.1961,-18.6012"/>
<polygon fill="midnightblue" stroke="midnightblue" points="386.602,-63.462 396.931,-61.1037 387.386,-56.506 386.602,-63.462"/>
</g>
<!-- Node3 -->
<g id="node3" class="node"><title>Node3</title>
<g id="a_node3"><a xlink:href="event_8cc.xhtml" target="_top" xlink:title="Implementation of Event Class and its derived classes. ">
<polygon fill="white" stroke="black" points="95,-0.5 95,-19.5 152,-19.5 152,-0.5 95,-0.5"/>
<text text-anchor="middle" x="123.5" y="-7.5" font-family="Helvetica,sans-Serif" font-size="10.00">event.cc</text>
</a>
</g>
</g>
<!-- Node1&#45;&gt;Node3 -->
<g id="edge2" class="edge"><title>Node1&#45;&gt;Node3</title>
<path fill="none" stroke="midnightblue" d="M386.902,-58.3968C332.906,-50.3541 240.345,-35.864 161.5,-20 158.443,-19.3848 155.257,-18.7002 152.088,-17.9908"/>
<polygon fill="midnightblue" stroke="midnightblue" points="386.442,-61.8668 396.847,-59.8702 387.468,-54.9424 386.442,-61.8668"/>
</g>
<!-- Node4 -->
<g id="node4" class="node"><title>Node4</title>
<g id="a_node4"><a xlink:href="random__deviate_8cc.xhtml" target="_top" xlink:title="Implementations of random deviate expressions. ">
<polygon fill="white" stroke="black" points="170.5,-0.5 170.5,-19.5 278.5,-19.5 278.5,-0.5 170.5,-0.5"/>
<text text-anchor="middle" x="224.5" y="-7.5" font-family="Helvetica,sans-Serif" font-size="10.00">random_deviate.cc</text>
</a>
</g>
</g>
<!-- Node1&#45;&gt;Node4 -->
<g id="edge3" class="edge"><title>Node1&#45;&gt;Node4</title>
<path fill="none" stroke="midnightblue" d="M389.722,-53.8941C350.442,-43.6966 293.071,-28.802 257.304,-19.5164"/>
<polygon fill="midnightblue" stroke="midnightblue" points="388.983,-57.3183 399.542,-56.4435 390.742,-50.5429 388.983,-57.3183"/>
</g>
<!-- Node5 -->
<g id="node5" class="node"><title>Node5</title>
<g id="a_node5"><a xlink:href="expression_8cc.xhtml" target="_top" xlink:title="Implementation of the expression base class. ">
<polygon fill="white" stroke="black" points="296.5,-0.5 296.5,-19.5 378.5,-19.5 378.5,-0.5 296.5,-0.5"/>
<text text-anchor="middle" x="337.5" y="-7.5" font-family="Helvetica,sans-Serif" font-size="10.00">expression.cc</text>
</a>
</g>
</g>
<!-- Node1&#45;&gt;Node5 -->
<g id="edge4" class="edge"><title>Node1&#45;&gt;Node5</title>
<path fill="none" stroke="midnightblue" d="M408.182,-51.1774C390.701,-41.2407 367.67,-28.1492 352.726,-19.6545"/>
<polygon fill="midnightblue" stroke="midnightblue" points="406.813,-54.425 417.237,-56.324 410.273,-48.3395 406.813,-54.425"/>
</g>
<!-- Node6 -->
<g id="node6" class="node"><title>Node6</title>
<g id="a_node6"><a xlink:href="initializer_8cc.xhtml" target="_top" xlink:title="Implementation of input file processing into analysis constructs. ">
<polygon fill="white" stroke="black" points="397,-0.5 397,-19.5 468,-19.5 468,-0.5 397,-0.5"/>
<text text-anchor="middle" x="432.5" y="-7.5" font-family="Helvetica,sans-Serif" font-size="10.00">initializer.cc</text>
</a>
</g>
</g>
<!-- Node1&#45;&gt;Node6 -->
<g id="edge5" class="edge"><title>Node1&#45;&gt;Node6</title>
<path fill="none" stroke="midnightblue" d="M432.5,-45.8045C432.5,-36.9102 432.5,-26.7798 432.5,-19.7511"/>
<polygon fill="midnightblue" stroke="midnightblue" points="429,-46.083 432.5,-56.083 436,-46.083 429,-46.083"/>
</g>
<!-- Node7 -->
<g id="node7" class="node"><title>Node7</title>
<g id="a_node7"><a xlink:href="pdag_8cc.xhtml" target="_top" xlink:title="Implementation of a Propositional Directed Acyclic Graph with indexed nodes, variables, and gates. ">
<polygon fill="white" stroke="black" points="486.5,-0.5 486.5,-19.5 540.5,-19.5 540.5,-0.5 486.5,-0.5"/>
<text text-anchor="middle" x="513.5" y="-7.5" font-family="Helvetica,sans-Serif" font-size="10.00">pdag.cc</text>
</a>
</g>
</g>
<!-- Node1&#45;&gt;Node7 -->
<g id="edge6" class="edge"><title>Node1&#45;&gt;Node7</title>
<path fill="none" stroke="midnightblue" d="M454.067,-50.6221C468.864,-40.7574 488.012,-27.9919 500.518,-19.6545"/>
<polygon fill="midnightblue" stroke="midnightblue" points="451.893,-47.8647 445.514,-56.324 455.776,-53.6891 451.893,-47.8647"/>
</g>
<!-- Node8 -->
<g id="node8" class="node"><title>Node8</title>
<g id="a_node8"><a xlink:href="preprocessor_8cc.xhtml" target="_top" xlink:title="Implementation of preprocessing algorithms. ">
<polygon fill="white" stroke="black" points="558.5,-0.5 558.5,-19.5 650.5,-19.5 650.5,-0.5 558.5,-0.5"/>
<text text-anchor="middle" x="604.5" y="-7.5" font-family="Helvetica,sans-Serif" font-size="10.00">preprocessor.cc</text>
</a>
</g>
</g>
<!-- Node1&#45;&gt;Node8 -->
<g id="edge7" class="edge"><title>Node1&#45;&gt;Node8</title>
<path fill="none" stroke="midnightblue" d="M469.332,-53.4363C501.762,-43.2551 548.237,-28.664 577.374,-19.5164"/>
<polygon fill="midnightblue" stroke="midnightblue" points="468.246,-50.1088 459.754,-56.4435 470.343,-56.7874 468.246,-50.1088"/>
</g>
<!-- Node9 -->
<g id="node9" class="node"><title>Node9</title>
<g id="a_node9"><a xlink:href="substitution_8cc.xhtml" target="_top" xlink:title="Implementation of Substitution members. ">
<polygon fill="white" stroke="black" points="668.5,-0.5 668.5,-19.5 754.5,-19.5 754.5,-0.5 668.5,-0.5"/>
<text text-anchor="middle" x="711.5" y="-7.5" font-family="Helvetica,sans-Serif" font-size="10.00">substitution.cc</text>
</a>
</g>
</g>
<!-- Node1&#45;&gt;Node9 -->
<g id="edge8" class="edge"><title>Node1&#45;&gt;Node9</title>
<path fill="none" stroke="midnightblue" d="M478.188,-56.1572C530.847,-45.9651 616.744,-29.3399 668.32,-19.3575"/>
<polygon fill="midnightblue" stroke="midnightblue" points="477.272,-52.7695 468.119,-58.106 478.602,-59.6419 477.272,-52.7695"/>
</g>
<!-- Node10 -->
<g id="node10" class="node"><title>Node10</title>
<g id="a_node10"><a xlink:href="zbdd_8cc.xhtml" target="_top" xlink:title="Implementation of Zero&#45;Suppressed BDD algorithms. ">
<polygon fill="white" stroke="black" points="773,-0.5 773,-19.5 826,-19.5 826,-0.5 773,-0.5"/>
<text text-anchor="middle" x="799.5" y="-7.5" font-family="Helvetica,sans-Serif" font-size="10.00">zbdd.cc</text>
</a>
</g>
</g>
<!-- Node1&#45;&gt;Node10 -->
<g id="edge9" class="edge"><title>Node1&#45;&gt;Node10</title>
<path fill="none" stroke="midnightblue" d="M478.66,-60.3448C542.867,-53.5021 662.62,-39.4065 763.5,-20 766.537,-19.4158 769.7,-18.7343 772.836,-18.0125"/>
<polygon fill="midnightblue" stroke="midnightblue" points="478.044,-56.8903 468.466,-61.4198 478.778,-63.8517 478.044,-56.8903"/>
</g>
</g>
</svg>
        <g id="navigator" transform="translate(0 0)" fill="#404254">
                <rect fill="#f2f5e9" fill-opacity="0.5" stroke="#606060" stroke-width=".5" x="0" y="0" width="60" height="60"/>
                <use id="zoomplus" xlink:href="#zoomPlus" x="17" y="9" onmousedown="handleZoom(evt,'in')"/>
                <use id="zoomminus" xlink:href="#zoomMin" x="42" y="9" onmousedown="handleZoom(evt,'out')"/>
                <use id="reset" xlink:href="#resetDef" x="30" y="36" onmousedown="handleReset()"/>
                <g id="arrowUp" xlink:href="#dirArrow" transform="translate(30 24)" onmousedown="handlePan(0,-1)">
                  <use xlink:href="#rim" fill="#404040">
                        <set attributeName="fill" to="#808080" begin="arrowUp.mouseover" end="arrowUp.mouseout"/>
                  </use>
                  <path fill="none" stroke="white" stroke-width="1.5" d="M0,-3.0v7 M-2.5,-0.5L0,-3.0L2.5,-0.5"/>
                </g>
                <g id="arrowRight" xlink:href="#dirArrow" transform="rotate(90) translate(36 -43)" onmousedown="handlePan(1,0)">
                  <use xlink:href="#rim" fill="#404040">
                        <set attributeName="fill" to="#808080" begin="arrowRight.mouseover" end="arrowRight.mouseout"/>
                  </use>
                  <path fill="none" stroke="white" stroke-width="1.5" d="M0,-3.0v7 M-2.5,-0.5L0,-3.0L2.5,-0.5"/>
                </g>
                <g id="arrowDown" xlink:href="#dirArrow" transform="rotate(180) translate(-30 -48)" onmousedown="handlePan(0,1)">
                  <use xlink:href="#rim" fill="#404040">
                        <set attributeName="fill" to="#808080" begin="arrowDown.mouseover" end="arrowDown.mouseout"/>
                  </use>
                  <path fill="none" stroke="white" stroke-width="1.5" d="M0,-3.0v7 M-2.5,-0.5L0,-3.0L2.5,-0.5"/>
                </g>
                <g id="arrowLeft" xlink:href="#dirArrow" transform="rotate(270) translate(-36 17)" onmousedown="handlePan(-1,0)">
                  <use xlink:href="#rim" fill="#404040">
                        <set attributeName="fill" to="#808080" begin="arrowLeft.mouseover" end="arrowLeft.mouseout"/>
                  </use>
                  <path fill="none" stroke="white" stroke-width="1.5" d="M0,-3.0v7 M-2.5,-0.5L0,-3.0L2.5,-0.5"/>
                </g>
        </g>
        <svg viewBox="0 0 15 15" width="100%" height="30px" preserveAspectRatio="xMaxYMin meet">
         <g id="arrow_out" transform="scale(0.3 0.3)">
          <a xlink:href="algorithm_8h__dep__incl_org.svg" target="_base">
           <rect id="button" ry="5" rx="5" y="6" x="6" height="38" width="38"
                fill="#f2f5e9" fill-opacity="0.5" stroke="#606060" stroke-width="1.0"/>
           <path id="arrow"
             d="M 11.500037,31.436501 C 11.940474,20.09759 22.043105,11.32322 32.158766,21.979434 L 37.068811,17.246167 C 37.068811,17.246167 37.088388,32 37.088388,32 L 22.160133,31.978069 C 22.160133,31.978069 26.997745,27.140456 26.997745,27.140456 C 18.528582,18.264221 13.291696,25.230495 11.500037,31.436501 z"
             style="fill:#404040;"/>
          </a>
         </g>
        </svg>
</svg>
