<?xml version="1.0" encoding="UTF-8" standalone="no"?>
<!DOCTYPE svg PUBLIC "-//W3C//DTD SVG 1.1//EN"
 "http://www.w3.org/Graphics/SVG/1.1/DTD/svg11.dtd">
<!-- Generated by graphviz version 2.38.0 (20140413.2041)
 -->
<!-- Title: bdd.cc Pages: 1 -->
<svg width="2065pt" height="352pt"
 viewBox="0.00 0.00 2065.04 352.00" xmlns="http://www.w3.org/2000/svg" xmlns:xlink="http://www.w3.org/1999/xlink">
<g id="graph0" class="graph" transform="scale(1 1) rotate(0) translate(4 348)">
<title>bdd.cc</title>
<polygon fill="white" stroke="none" points="-4,4 -4,-348 2061.04,-348 2061.04,4 -4,4"/>
<!-- Node1 -->
<g id="node1" class="node"><title>Node1</title>
<polygon fill="#bfbfbf" stroke="black" points="1545.04,-324.5 1545.04,-343.5 1593.04,-343.5 1593.04,-324.5 1545.04,-324.5"/>
<text text-anchor="middle" x="1569.04" y="-331.5" font-family="Helvetica,sans-Serif" font-size="10.00">bdd.cc</text>
</g>
<!-- Node2 -->
<g id="node2" class="node"><title>Node2</title>
<g id="a_node2"><a xlink:href="bdd_8h.xhtml" target="_top" xlink:title="Fault tree analysis with the Binary Decision Diagram algorithms. ">
<polygon fill="white" stroke="black" points="832.044,-196 832.044,-215 876.044,-215 876.044,-196 832.044,-196"/>
<text text-anchor="middle" x="854.044" y="-203" font-family="Helvetica,sans-Serif" font-size="10.00">bdd.h</text>
</a>
</g>
</g>
<!-- Node1&#45;&gt;Node2 -->
<g id="edge1" class="edge"><title>Node1&#45;&gt;Node2</title>
<path fill="none" stroke="midnightblue" d="M1544.85,-328.719C1437.93,-309.803 1007.88,-233.717 886.241,-212.196"/>
<polygon fill="midnightblue" stroke="midnightblue" points="886.545,-208.696 876.088,-210.4 885.325,-215.589 886.545,-208.696"/>
</g>
<!-- Node21 -->
<g id="node21" class="node"><title>Node21</title>
<g id="a_node21"><a xlink:href="find__iterator_8h.xhtml" target="_top" xlink:title="Convenience iterator adaptor to wrap find calls and results. ">
<polygon fill="white" stroke="black" points="331.544,-62 331.544,-81 432.544,-81 432.544,-62 331.544,-62"/>
<text text-anchor="middle" x="382.044" y="-69" font-family="Helvetica,sans-Serif" font-size="10.00">ext/find_iterator.h</text>
</a>
</g>
</g>
<!-- Node1&#45;&gt;Node21 -->
<g id="edge42" class="edge"><title>Node1&#45;&gt;Node21</title>
<path fill="none" stroke="midnightblue" d="M1545,-331.104C1480.11,-325.845 1296.05,-310.004 1144.04,-288 818.447,-240.867 672.107,-360.56 416.044,-154 396.783,-138.463 388.294,-110.117 384.651,-91.2928"/>
<polygon fill="midnightblue" stroke="midnightblue" points="388.073,-90.5343 382.988,-81.2396 381.167,-91.6768 388.073,-90.5343"/>
</g>
<!-- Node29 -->
<g id="node29" class="node"><title>Node29</title>
<polygon fill="white" stroke="#bfbfbf" points="1781.54,-257.5 1781.54,-287.5 1894.54,-287.5 1894.54,-257.5 1781.54,-257.5"/>
<text text-anchor="start" x="1789.54" y="-275.5" font-family="Helvetica,sans-Serif" font-size="10.00">boost/multiprecision</text>
<text text-anchor="middle" x="1838.04" y="-264.5" font-family="Helvetica,sans-Serif" font-size="10.00">/miller_rabin.hpp</text>
</g>
<!-- Node1&#45;&gt;Node29 -->
<g id="edge40" class="edge"><title>Node1&#45;&gt;Node29</title>
<path fill="none" stroke="midnightblue" d="M1593.39,-327.615C1633.25,-318.799 1713.76,-300.991 1771.54,-288.209"/>
<polygon fill="midnightblue" stroke="midnightblue" points="1772.32,-291.621 1781.33,-286.044 1770.81,-284.786 1772.32,-291.621"/>
</g>
<!-- Node30 -->
<g id="node30" class="node"><title>Node30</title>
<polygon fill="white" stroke="#bfbfbf" points="1913.04,-263 1913.04,-282 2057.04,-282 2057.04,-263 1913.04,-263"/>
<text text-anchor="middle" x="1985.04" y="-270" font-family="Helvetica,sans-Serif" font-size="10.00">boost/range/algorithm.hpp</text>
</g>
<!-- Node1&#45;&gt;Node30 -->
<g id="edge41" class="edge"><title>Node1&#45;&gt;Node30</title>
<path fill="none" stroke="midnightblue" d="M1593.06,-330.139C1648.15,-323.496 1787.8,-306.203 1904.04,-288 1912.17,-286.727 1920.74,-285.293 1929.14,-283.835"/>
<polygon fill="midnightblue" stroke="midnightblue" points="1930.03,-287.234 1939.27,-282.054 1928.81,-280.34 1930.03,-287.234"/>
</g>
<!-- Node31 -->
<g id="node31" class="node"><title>Node31</title>
<g id="a_node31"><a xlink:href="logger_8h.xhtml" target="_top" xlink:title="Logging capability for various purposes, such as warnings and debugging. ">
<polygon fill="white" stroke="black" points="1734.54,-129 1734.54,-148 1789.54,-148 1789.54,-129 1734.54,-129"/>
<text text-anchor="middle" x="1762.04" y="-136" font-family="Helvetica,sans-Serif" font-size="10.00">logger.h</text>
</a>
</g>
</g>
<!-- Node1&#45;&gt;Node31 -->
<g id="edge43" class="edge"><title>Node1&#45;&gt;Node31</title>
<path fill="none" stroke="midnightblue" d="M1587.72,-324.43C1620.58,-308.486 1689.02,-271.268 1729.04,-221 1744.01,-202.2 1753.05,-175.702 1757.79,-158.083"/>
<polygon fill="midnightblue" stroke="midnightblue" points="1761.24,-158.732 1760.25,-148.183 1754.44,-157.042 1761.24,-158.732"/>
</g>
<!-- Node35 -->
<g id="node35" class="node"><title>Node35</title>
<g id="a_node35"><a xlink:href="zbdd_8h.xhtml" target="_top" xlink:title="Zero&#45;Suppressed Binary Decision Diagram facilities. ">
<polygon fill="white" stroke="black" points="1360.54,-263 1360.54,-282 1409.54,-282 1409.54,-263 1360.54,-263"/>
<text text-anchor="middle" x="1385.04" y="-270" font-family="Helvetica,sans-Serif" font-size="10.00">zbdd.h</text>
</a>
</g>
</g>
<!-- Node1&#45;&gt;Node35 -->
<g id="edge49" class="edge"><title>Node1&#45;&gt;Node35</title>
<path fill="none" stroke="midnightblue" d="M1544.99,-325.221C1512.93,-314.856 1456.02,-296.45 1419.43,-284.62"/>
<polygon fill="midnightblue" stroke="midnightblue" points="1420.28,-281.217 1409.69,-281.47 1418.13,-287.878 1420.28,-281.217"/>
</g>
<!-- Node3 -->
<g id="node3" class="node"><title>Node3</title>
<polygon fill="white" stroke="#bfbfbf" points="669.544,-129 669.544,-148 716.544,-148 716.544,-129 669.544,-129"/>
<text text-anchor="middle" x="693.044" y="-136" font-family="Helvetica,sans-Serif" font-size="10.00">cmath</text>
</g>
<!-- Node2&#45;&gt;Node3 -->
<g id="edge2" class="edge"><title>Node2&#45;&gt;Node3</title>
<path fill="none" stroke="midnightblue" d="M831.742,-195.998C806.12,-186.162 762.869,-169.348 726.044,-154 724.636,-153.413 723.197,-152.807 721.746,-152.19"/>
<polygon fill="midnightblue" stroke="midnightblue" points="722.754,-148.812 712.186,-148.058 719.977,-155.238 722.754,-148.812"/>
</g>
<!-- Node4 -->
<g id="node4" class="node"><title>Node4</title>
<polygon fill="white" stroke="#bfbfbf" points="94.0444,-0.5 94.0444,-19.5 156.044,-19.5 156.044,-0.5 94.0444,-0.5"/>
<text text-anchor="middle" x="125.044" y="-7.5" font-family="Helvetica,sans-Serif" font-size="10.00">algorithm</text>
</g>
<!-- Node2&#45;&gt;Node4 -->
<g id="edge3" class="edge"><title>Node2&#45;&gt;Node4</title>
<path fill="none" stroke="midnightblue" d="M831.978,-204.492C750.296,-204.092 457.671,-199.378 222.044,-154 123.346,-134.992 65.6669,-167.919 6.04442,-87 -2.12837,-75.908 -1.78769,-67.3351 6.04442,-56 23.4684,-30.7829 56.9699,-19.6819 83.9984,-14.8029"/>
<polygon fill="midnightblue" stroke="midnightblue" points="84.6634,-18.2413 93.9934,-13.2212 83.5692,-11.3274 84.6634,-18.2413"/>
</g>
<!-- Node5 -->
<g id="node5" class="node"><title>Node5</title>
<polygon fill="white" stroke="#bfbfbf" points="425.544,-129 425.544,-148 496.544,-148 496.544,-129 425.544,-129"/>
<text text-anchor="middle" x="461.044" y="-136" font-family="Helvetica,sans-Serif" font-size="10.00">forward_list</text>
</g>
<!-- Node2&#45;&gt;Node5 -->
<g id="edge4" class="edge"><title>Node2&#45;&gt;Node5</title>
<path fill="none" stroke="midnightblue" d="M831.744,-202.635C776.052,-197.685 626.618,-182.596 505.044,-154 501.573,-153.183 497.983,-152.215 494.422,-151.171"/>
<polygon fill="midnightblue" stroke="midnightblue" points="495.165,-147.736 484.576,-148.095 493.078,-154.418 495.165,-147.736"/>
</g>
<!-- Node6 -->
<g id="node6" class="node"><title>Node6</title>
<polygon fill="white" stroke="#bfbfbf" points="15.5444,-62 15.5444,-81 72.5444,-81 72.5444,-62 15.5444,-62"/>
<text text-anchor="middle" x="44.0444" y="-69" font-family="Helvetica,sans-Serif" font-size="10.00">memory</text>
</g>
<!-- Node2&#45;&gt;Node6 -->
<g id="edge5" class="edge"><title>Node2&#45;&gt;Node6</title>
<path fill="none" stroke="midnightblue" d="M831.747,-203.305C738.327,-197.843 369.874,-171.76 81.0444,-87 78.6115,-86.286 76.1147,-85.4783 73.6223,-84.6183"/>
<polygon fill="midnightblue" stroke="midnightblue" points="74.7703,-81.3112 64.1769,-81.131 72.3458,-87.878 74.7703,-81.3112"/>
</g>
<!-- Node7 -->
<g id="node7" class="node"><title>Node7</title>
<polygon fill="white" stroke="#bfbfbf" points="1262.54,-62 1262.54,-81 1355.54,-81 1355.54,-62 1262.54,-62"/>
<text text-anchor="middle" x="1309.04" y="-69" font-family="Helvetica,sans-Serif" font-size="10.00">unordered_map</text>
</g>
<!-- Node2&#45;&gt;Node7 -->
<g id="edge6" class="edge"><title>Node2&#45;&gt;Node7</title>
<path fill="none" stroke="midnightblue" d="M876.08,-201.236C913.318,-195.205 990.55,-180.451 1051.04,-154 1074.31,-143.826 1075.7,-133 1099.04,-123 1100.96,-122.178 1201.84,-98.0615 1263.06,-83.4577"/>
<polygon fill="midnightblue" stroke="midnightblue" points="1263.98,-86.8372 1272.89,-81.1128 1262.35,-80.0281 1263.98,-86.8372"/>
</g>
<!-- Node8 -->
<g id="node8" class="node"><title>Node8</title>
<polygon fill="white" stroke="#bfbfbf" points="440.044,-0.5 440.044,-19.5 482.044,-19.5 482.044,-0.5 440.044,-0.5"/>
<text text-anchor="middle" x="461.044" y="-7.5" font-family="Helvetica,sans-Serif" font-size="10.00">utility</text>
</g>
<!-- Node2&#45;&gt;Node8 -->
<g id="edge7" class="edge"><title>Node2&#45;&gt;Node8</title>
<path fill="none" stroke="midnightblue" d="M851.957,-195.797C847.334,-178.608 834.482,-140.459 808.044,-123 686.773,-42.9154 594.228,-180.586 483.044,-87 466.493,-73.0682 461.98,-47.512 460.958,-29.9083"/>
<polygon fill="midnightblue" stroke="midnightblue" points="464.451,-29.5986 460.699,-19.6906 457.454,-29.7762 464.451,-29.5986"/>
</g>
<!-- Node9 -->
<g id="node9" class="node"><title>Node9</title>
<polygon fill="white" stroke="#bfbfbf" points="1172.54,-0.5 1172.54,-19.5 1219.54,-19.5 1219.54,-0.5 1172.54,-0.5"/>
<text text-anchor="middle" x="1196.04" y="-7.5" font-family="Helvetica,sans-Serif" font-size="10.00">vector</text>
</g>
<!-- Node2&#45;&gt;Node9 -->
<g id="edge8" class="edge"><title>Node2&#45;&gt;Node9</title>
<path fill="none" stroke="midnightblue" d="M872.155,-195.89C906.444,-179.841 983.469,-144.994 1051.04,-123 1115.83,-101.915 1157.91,-140.532 1200.04,-87 1212.78,-70.8186 1208.53,-46.1696 1203.25,-29.3616"/>
<polygon fill="midnightblue" stroke="midnightblue" points="1206.44,-27.8765 1199.8,-19.6165 1199.84,-30.2112 1206.44,-27.8765"/>
</g>
<!-- Node10 -->
<g id="node10" class="node"><title>Node10</title>
<polygon fill="white" stroke="#bfbfbf" points="1141.04,-129 1141.04,-148 1281.04,-148 1281.04,-129 1141.04,-129"/>
<text text-anchor="middle" x="1211.04" y="-136" font-family="Helvetica,sans-Serif" font-size="10.00">boost/functional/hash.hpp</text>
</g>
<!-- Node2&#45;&gt;Node10 -->
<g id="edge9" class="edge"><title>Node2&#45;&gt;Node10</title>
<path fill="none" stroke="midnightblue" d="M876.107,-200.483C930.776,-190.529 1073.89,-164.473 1154.23,-149.845"/>
<polygon fill="midnightblue" stroke="midnightblue" points="1154.97,-153.267 1164.18,-148.033 1153.71,-146.381 1154.97,-153.267"/>
</g>
<!-- Node11 -->
<g id="node11" class="node"><title>Node11</title>
<polygon fill="white" stroke="#bfbfbf" points="1441.04,-62 1441.04,-81 1569.04,-81 1569.04,-62 1441.04,-62"/>
<text text-anchor="middle" x="1505.04" y="-69" font-family="Helvetica,sans-Serif" font-size="10.00">boost/noncopyable.hpp</text>
</g>
<!-- Node2&#45;&gt;Node11 -->
<g id="edge10" class="edge"><title>Node2&#45;&gt;Node11</title>
<path fill="none" stroke="midnightblue" d="M876.364,-202.772C919.252,-198.8 1015.44,-186.705 1089.04,-154 1110.57,-144.433 1110.1,-131.569 1132.04,-123 1256.73,-74.3201 1298.83,-107.883 1431.04,-87 1438.68,-85.7936 1446.73,-84.3721 1454.6,-82.8989"/>
<polygon fill="midnightblue" stroke="midnightblue" points="1455.26,-86.3359 1464.43,-81.0175 1453.95,-79.4609 1455.26,-86.3359"/>
</g>
<!-- Node12 -->
<g id="node12" class="node"><title>Node12</title>
<polygon fill="white" stroke="#bfbfbf" points="514.544,-123.5 514.544,-153.5 651.544,-153.5 651.544,-123.5 514.544,-123.5"/>
<text text-anchor="start" x="522.544" y="-141.5" font-family="Helvetica,sans-Serif" font-size="10.00">boost/smart_ptr/intrusive</text>
<text text-anchor="middle" x="583.044" y="-130.5" font-family="Helvetica,sans-Serif" font-size="10.00">_ptr.hpp</text>
</g>
<!-- Node2&#45;&gt;Node12 -->
<g id="edge11" class="edge"><title>Node2&#45;&gt;Node12</title>
<path fill="none" stroke="midnightblue" d="M831.867,-199.181C792.971,-189.851 710.958,-170.18 651.701,-155.968"/>
<polygon fill="midnightblue" stroke="midnightblue" points="652.199,-152.488 641.658,-153.559 650.566,-159.295 652.199,-152.488"/>
</g>
<!-- Node13 -->
<g id="node13" class="node"><title>Node13</title>
<g id="a_node13"><a xlink:href="pdag_8h.xhtml" target="_top" xlink:title="Classes and facilities to represent fault trees as PDAGs with event and gate indices instead of ID na...">
<polygon fill="white" stroke="black" points="855.044,-129 855.044,-148 905.044,-148 905.044,-129 855.044,-129"/>
<text text-anchor="middle" x="880.044" y="-136" font-family="Helvetica,sans-Serif" font-size="10.00">pdag.h</text>
</a>
</g>
</g>
<!-- Node2&#45;&gt;Node13 -->
<g id="edge12" class="edge"><title>Node2&#45;&gt;Node13</title>
<path fill="none" stroke="midnightblue" d="M857.551,-195.734C861.449,-185.988 867.852,-169.981 872.832,-157.532"/>
<polygon fill="midnightblue" stroke="midnightblue" points="876.129,-158.712 876.594,-148.127 869.63,-156.112 876.129,-158.712"/>
</g>
<!-- Node27 -->
<g id="node27" class="node"><title>Node27</title>
<g id="a_node27"><a xlink:href="settings_8h.xhtml" target="_top" xlink:title="Builder for settings. ">
<polygon fill="white" stroke="black" points="735.044,-129 735.044,-148 799.044,-148 799.044,-129 735.044,-129"/>
<text text-anchor="middle" x="767.044" y="-136" font-family="Helvetica,sans-Serif" font-size="10.00">settings.h</text>
</a>
</g>
</g>
<!-- Node2&#45;&gt;Node27 -->
<g id="edge37" class="edge"><title>Node2&#45;&gt;Node27</title>
<path fill="none" stroke="midnightblue" d="M842.311,-195.734C828.092,-185.111 803.917,-167.049 786.806,-154.264"/>
<polygon fill="midnightblue" stroke="midnightblue" points="788.698,-151.309 778.592,-148.127 784.508,-156.916 788.698,-151.309"/>
</g>
<!-- Node13&#45;&gt;Node4 -->
<g id="edge15" class="edge"><title>Node13&#45;&gt;Node4</title>
<path fill="none" stroke="midnightblue" d="M854.863,-131.536C841.106,-128.504 823.724,-125.038 808.044,-123 675.366,-105.751 330.088,-139.55 207.044,-87 191.512,-80.3665 159.205,-47.6321 140.107,-27.3478"/>
<polygon fill="midnightblue" stroke="midnightblue" points="142.423,-24.6999 133.043,-19.7734 137.304,-29.4739 142.423,-24.6999"/>
</g>
<!-- Node13&#45;&gt;Node6 -->
<g id="edge17" class="edge"><title>Node13&#45;&gt;Node6</title>
<path fill="none" stroke="midnightblue" d="M854.872,-131.471C841.117,-128.42 823.734,-124.957 808.044,-123 487.026,-82.9543 397.344,-154.909 81.0444,-87 78.0384,-86.3546 74.9578,-85.4946 71.9197,-84.5141"/>
<polygon fill="midnightblue" stroke="midnightblue" points="73.0966,-81.2179 62.5026,-81.0875 70.703,-87.796 73.0966,-81.2179"/>
</g>
<!-- Node13&#45;&gt;Node7 -->
<g id="edge19" class="edge"><title>Node13&#45;&gt;Node7</title>
<path fill="none" stroke="midnightblue" d="M905.279,-133.677C972.69,-123.463 1158.24,-95.3491 1252.5,-81.0673"/>
<polygon fill="midnightblue" stroke="midnightblue" points="1253.07,-84.5214 1262.43,-79.5628 1252.02,-77.6004 1253.07,-84.5214"/>
</g>
<!-- Node13&#45;&gt;Node8 -->
<g id="edge20" class="edge"><title>Node13&#45;&gt;Node8</title>
<path fill="none" stroke="midnightblue" d="M859.691,-128.862C853.77,-126.644 847.229,-124.471 841.044,-123 700.519,-89.5811 643.457,-158.665 518.044,-87 494.953,-73.8052 478.337,-47.0795 469.2,-29.1038"/>
<polygon fill="midnightblue" stroke="midnightblue" points="472.278,-27.4296 464.795,-19.9292 465.968,-30.4589 472.278,-27.4296"/>
</g>
<!-- Node13&#45;&gt;Node9 -->
<g id="edge22" class="edge"><title>Node13&#45;&gt;Node9</title>
<path fill="none" stroke="midnightblue" d="M905.349,-134.789C973.496,-127.268 1157.09,-105.481 1177.04,-87 1192.76,-72.4439 1196.33,-47.0316 1196.75,-29.631"/>
<polygon fill="midnightblue" stroke="midnightblue" points="1200.25,-29.5189 1196.67,-19.5479 1193.25,-29.5762 1200.25,-29.5189"/>
</g>
<!-- Node13&#45;&gt;Node11 -->
<g id="edge24" class="edge"><title>Node13&#45;&gt;Node11</title>
<path fill="none" stroke="midnightblue" d="M905.138,-136.115C983.299,-131.607 1229.22,-115.945 1431.04,-87 1439.06,-85.8505 1447.52,-84.41 1455.75,-82.8862"/>
<polygon fill="midnightblue" stroke="midnightblue" points="1456.45,-86.3152 1465.62,-81.0003 1455.14,-79.4396 1456.45,-86.3152"/>
</g>
<!-- Node14 -->
<g id="node14" class="node"><title>Node14</title>
<polygon fill="white" stroke="#bfbfbf" points="1373.54,-62 1373.54,-81 1422.54,-81 1422.54,-62 1373.54,-62"/>
<text text-anchor="middle" x="1398.04" y="-69" font-family="Helvetica,sans-Serif" font-size="10.00">cstdint</text>
</g>
<!-- Node13&#45;&gt;Node14 -->
<g id="edge13" class="edge"><title>Node13&#45;&gt;Node14</title>
<path fill="none" stroke="midnightblue" d="M905.332,-135.863C991.876,-130.104 1275.72,-109.887 1364.04,-87 1366.4,-86.3888 1368.81,-85.64 1371.2,-84.8078"/>
<polygon fill="midnightblue" stroke="midnightblue" points="1372.72,-87.9703 1380.75,-81.0563 1370.16,-81.455 1372.72,-87.9703"/>
</g>
<!-- Node15 -->
<g id="node15" class="node"><title>Node15</title>
<polygon fill="white" stroke="#bfbfbf" points="856.544,-62 856.544,-81 903.544,-81 903.544,-62 856.544,-62"/>
<text text-anchor="middle" x="880.044" y="-69" font-family="Helvetica,sans-Serif" font-size="10.00">cstdlib</text>
</g>
<!-- Node13&#45;&gt;Node15 -->
<g id="edge14" class="edge"><title>Node13&#45;&gt;Node15</title>
<path fill="none" stroke="midnightblue" d="M880.044,-128.734C880.044,-119.183 880.044,-103.618 880.044,-91.2829"/>
<polygon fill="midnightblue" stroke="midnightblue" points="883.545,-91.1273 880.044,-81.1273 876.545,-91.1273 883.545,-91.1273"/>
</g>
<!-- Node16 -->
<g id="node16" class="node"><title>Node16</title>
<polygon fill="white" stroke="#bfbfbf" points="922.044,-62 922.044,-81 968.044,-81 968.044,-62 922.044,-62"/>
<text text-anchor="middle" x="945.044" y="-69" font-family="Helvetica,sans-Serif" font-size="10.00">iosfwd</text>
</g>
<!-- Node13&#45;&gt;Node16 -->
<g id="edge16" class="edge"><title>Node13&#45;&gt;Node16</title>
<path fill="none" stroke="midnightblue" d="M888.811,-128.734C899.141,-118.403 916.507,-101.037 929.213,-88.3315"/>
<polygon fill="midnightblue" stroke="midnightblue" points="931.821,-90.6733 936.417,-81.1273 926.871,-85.7235 931.821,-90.6733"/>
</g>
<!-- Node17 -->
<g id="node17" class="node"><title>Node17</title>
<polygon fill="white" stroke="#bfbfbf" points="986.044,-62 986.044,-81 1054.04,-81 1054.04,-62 986.044,-62"/>
<text text-anchor="middle" x="1020.04" y="-69" font-family="Helvetica,sans-Serif" font-size="10.00">type_traits</text>
</g>
<!-- Node13&#45;&gt;Node17 -->
<g id="edge18" class="edge"><title>Node13&#45;&gt;Node17</title>
<path fill="none" stroke="midnightblue" d="M898.635,-128.869C922.588,-117.748 964.439,-98.3167 992.198,-85.4286"/>
<polygon fill="midnightblue" stroke="midnightblue" points="993.78,-88.5529 1001.38,-81.1672 990.833,-82.2038 993.78,-88.5529"/>
</g>
<!-- Node18 -->
<g id="node18" class="node"><title>Node18</title>
<polygon fill="white" stroke="#bfbfbf" points="527.044,-62 527.044,-81 577.044,-81 577.044,-62 527.044,-62"/>
<text text-anchor="middle" x="552.044" y="-69" font-family="Helvetica,sans-Serif" font-size="10.00">variant</text>
</g>
<!-- Node13&#45;&gt;Node18 -->
<g id="edge21" class="edge"><title>Node13&#45;&gt;Node18</title>
<path fill="none" stroke="midnightblue" d="M859.663,-128.979C853.741,-126.762 847.207,-124.561 841.044,-123 730.092,-94.8932 696.303,-117.715 586.044,-87 583.749,-86.3607 581.405,-85.6019 579.074,-84.7716"/>
<polygon fill="midnightblue" stroke="midnightblue" points="580.312,-81.4976 569.725,-81.0799 577.741,-88.0083 580.312,-81.4976"/>
</g>
<!-- Node19 -->
<g id="node19" class="node"><title>Node19</title>
<polygon fill="white" stroke="#bfbfbf" points="595.044,-56.5 595.044,-86.5 705.044,-86.5 705.044,-56.5 595.044,-56.5"/>
<text text-anchor="start" x="603.044" y="-74.5" font-family="Helvetica,sans-Serif" font-size="10.00">boost/container/flat</text>
<text text-anchor="middle" x="650.044" y="-63.5" font-family="Helvetica,sans-Serif" font-size="10.00">_set.hpp</text>
</g>
<!-- Node13&#45;&gt;Node19 -->
<g id="edge23" class="edge"><title>Node13&#45;&gt;Node19</title>
<path fill="none" stroke="midnightblue" d="M858.31,-128.993C852.721,-126.923 846.69,-124.791 841.044,-123 799.479,-109.813 752.089,-97.2682 714.913,-87.9808"/>
<polygon fill="midnightblue" stroke="midnightblue" points="715.751,-84.5827 705.203,-85.5708 714.065,-91.3766 715.751,-84.5827"/>
</g>
<!-- Node20 -->
<g id="node20" class="node"><title>Node20</title>
<polygon fill="white" stroke="#bfbfbf" points="723.544,-56.5 723.544,-86.5 838.544,-86.5 838.544,-56.5 723.544,-56.5"/>
<text text-anchor="start" x="731.544" y="-74.5" font-family="Helvetica,sans-Serif" font-size="10.00">boost/range/adaptor</text>
<text text-anchor="middle" x="781.044" y="-63.5" font-family="Helvetica,sans-Serif" font-size="10.00">/transformed.hpp</text>
</g>
<!-- Node13&#45;&gt;Node20 -->
<g id="edge25" class="edge"><title>Node13&#45;&gt;Node20</title>
<path fill="none" stroke="midnightblue" d="M866.693,-128.734C852.477,-119.4 829.516,-104.325 810.944,-92.1311"/>
<polygon fill="midnightblue" stroke="midnightblue" points="812.783,-89.1517 802.503,-86.589 808.941,-95.0032 812.783,-89.1517"/>
</g>
<!-- Node13&#45;&gt;Node21 -->
<g id="edge26" class="edge"><title>Node13&#45;&gt;Node21</title>
<path fill="none" stroke="midnightblue" d="M854.818,-131.855C841.047,-128.917 823.666,-125.439 808.044,-123 665.329,-100.72 628.354,-105.07 485.044,-87 471.276,-85.264 456.492,-83.2636 442.544,-81.314"/>
<polygon fill="midnightblue" stroke="midnightblue" points="442.951,-77.8369 432.561,-79.9079 441.975,-84.7685 442.951,-77.8369"/>
</g>
<!-- Node22 -->
<g id="node22" class="node"><title>Node22</title>
<g id="a_node22"><a xlink:href="index__map_8h.xhtml" target="_top" xlink:title="Non&#45;zero based Index&#45;&gt;Value map adapter on sequential containers. ">
<polygon fill="white" stroke="black" points="1072.04,-62 1072.04,-81 1168.04,-81 1168.04,-62 1072.04,-62"/>
<text text-anchor="middle" x="1120.04" y="-69" font-family="Helvetica,sans-Serif" font-size="10.00">ext/index_map.h</text>
</a>
</g>
</g>
<!-- Node13&#45;&gt;Node22 -->
<g id="edge28" class="edge"><title>Node13&#45;&gt;Node22</title>
<path fill="none" stroke="midnightblue" d="M905.275,-130.667C946.484,-119.506 1028.63,-97.2579 1078.53,-83.7439"/>
<polygon fill="midnightblue" stroke="midnightblue" points="1079.62,-87.0742 1088.36,-81.0817 1077.79,-80.3177 1079.62,-87.0742"/>
</g>
<!-- Node23 -->
<g id="node23" class="node"><title>Node23</title>
<g id="a_node23"><a xlink:href="linear__map_8h.xhtml" target="_top" xlink:title="Implementation of a vector&#45;based map for a small number of entries. ">
<polygon fill="white" stroke="black" points="216.544,-62 216.544,-81 313.544,-81 313.544,-62 216.544,-62"/>
<text text-anchor="middle" x="265.044" y="-69" font-family="Helvetica,sans-Serif" font-size="10.00">ext/linear_map.h</text>
</a>
</g>
</g>
<!-- Node13&#45;&gt;Node23 -->
<g id="edge30" class="edge"><title>Node13&#45;&gt;Node23</title>
<path fill="none" stroke="midnightblue" d="M854.852,-131.624C841.091,-128.618 823.709,-125.149 808.044,-123 593.462,-93.5624 535.817,-121.832 322.044,-87 316.234,-86.0532 310.149,-84.7974 304.209,-83.4198"/>
<polygon fill="midnightblue" stroke="midnightblue" points="304.967,-80.0022 294.422,-81.0194 303.3,-86.8007 304.967,-80.0022"/>
</g>
<!-- Node21&#45;&gt;Node8 -->
<g id="edge27" class="edge"><title>Node21&#45;&gt;Node8</title>
<path fill="none" stroke="midnightblue" d="M393.363,-61.9751C405.917,-52.5199 426.396,-37.0961 441.544,-25.6871"/>
<polygon fill="midnightblue" stroke="midnightblue" points="443.864,-28.321 449.747,-19.5091 439.653,-22.7295 443.864,-28.321"/>
</g>
<!-- Node22&#45;&gt;Node9 -->
<g id="edge29" class="edge"><title>Node22&#45;&gt;Node9</title>
<path fill="none" stroke="midnightblue" d="M1130.93,-61.9751C1143.01,-52.5199 1162.71,-37.0961 1177.28,-25.6871"/>
<polygon fill="midnightblue" stroke="midnightblue" points="1179.46,-28.4295 1185.18,-19.5091 1175.14,-22.9177 1179.46,-28.4295"/>
</g>
<!-- Node23&#45;&gt;Node4 -->
<g id="edge32" class="edge"><title>Node23&#45;&gt;Node4</title>
<path fill="none" stroke="midnightblue" d="M244.986,-61.9751C221.283,-51.9013 181.639,-35.0525 154.462,-23.5023"/>
<polygon fill="midnightblue" stroke="midnightblue" points="155.638,-20.1994 145.066,-19.5091 152.9,-26.6417 155.638,-20.1994"/>
</g>
<!-- Node23&#45;&gt;Node8 -->
<g id="edge35" class="edge"><title>Node23&#45;&gt;Node8</title>
<path fill="none" stroke="midnightblue" d="M293.126,-61.9751C329.409,-50.9606 392.372,-31.8469 430.03,-20.4152"/>
<polygon fill="midnightblue" stroke="midnightblue" points="431.385,-23.6617 439.937,-17.4077 429.351,-16.9635 431.385,-23.6617"/>
</g>
<!-- Node23&#45;&gt;Node9 -->
<g id="edge36" class="edge"><title>Node23&#45;&gt;Node9</title>
<path fill="none" stroke="midnightblue" d="M294.108,-61.9277C302.999,-59.6254 312.857,-57.3911 322.044,-56 488.586,-30.7833 1022.27,-15.4909 1162.19,-11.8479"/>
<polygon fill="midnightblue" stroke="midnightblue" points="1162.41,-15.3437 1172.31,-11.587 1162.23,-8.346 1162.41,-15.3437"/>
</g>
<!-- Node24 -->
<g id="node24" class="node"><title>Node24</title>
<polygon fill="white" stroke="#bfbfbf" points="174.044,-0.5 174.044,-19.5 226.044,-19.5 226.044,-0.5 174.044,-0.5"/>
<text text-anchor="middle" x="200.044" y="-7.5" font-family="Helvetica,sans-Serif" font-size="10.00">cassert</text>
</g>
<!-- Node23&#45;&gt;Node24 -->
<g id="edge31" class="edge"><title>Node23&#45;&gt;Node24</title>
<path fill="none" stroke="midnightblue" d="M255.732,-61.9751C245.595,-52.6966 229.18,-37.6706 216.793,-26.331"/>
<polygon fill="midnightblue" stroke="midnightblue" points="219.08,-23.6795 209.34,-19.5091 214.353,-28.8429 219.08,-23.6795"/>
</g>
<!-- Node25 -->
<g id="node25" class="node"><title>Node25</title>
<polygon fill="white" stroke="#bfbfbf" points="244.544,-0.5 244.544,-19.5 321.544,-19.5 321.544,-0.5 244.544,-0.5"/>
<text text-anchor="middle" x="283.044" y="-7.5" font-family="Helvetica,sans-Serif" font-size="10.00">initializer_list</text>
</g>
<!-- Node23&#45;&gt;Node25 -->
<g id="edge33" class="edge"><title>Node23&#45;&gt;Node25</title>
<path fill="none" stroke="midnightblue" d="M267.623,-61.9751C270.19,-53.4919 274.21,-40.2043 277.502,-29.3222"/>
<polygon fill="midnightblue" stroke="midnightblue" points="280.925,-30.0942 280.47,-19.5091 274.225,-28.0672 280.925,-30.0942"/>
</g>
<!-- Node26 -->
<g id="node26" class="node"><title>Node26</title>
<polygon fill="white" stroke="#bfbfbf" points="340.044,-0.5 340.044,-19.5 404.044,-19.5 404.044,-0.5 340.044,-0.5"/>
<text text-anchor="middle" x="372.044" y="-7.5" font-family="Helvetica,sans-Serif" font-size="10.00">stdexcept</text>
</g>
<!-- Node23&#45;&gt;Node26 -->
<g id="edge34" class="edge"><title>Node23&#45;&gt;Node26</title>
<path fill="none" stroke="midnightblue" d="M280.375,-61.9751C298.014,-52.1664 327.204,-35.9346 347.902,-24.425"/>
<polygon fill="midnightblue" stroke="midnightblue" points="349.704,-27.4279 356.742,-19.5091 346.302,-21.3102 349.704,-27.4279"/>
</g>
<!-- Node27&#45;&gt;Node14 -->
<g id="edge38" class="edge"><title>Node27&#45;&gt;Node14</title>
<path fill="none" stroke="midnightblue" d="M799.204,-130.753C813.491,-127.974 830.549,-124.954 846.044,-123 1075.01,-94.1236 1139.68,-141.016 1364.04,-87 1366.56,-86.3954 1369.12,-85.6226 1371.65,-84.7492"/>
<polygon fill="midnightblue" stroke="midnightblue" points="1373.1,-87.9407 1381.13,-81.0266 1370.54,-81.4254 1373.1,-87.9407"/>
</g>
<!-- Node28 -->
<g id="node28" class="node"><title>Node28</title>
<polygon fill="white" stroke="#bfbfbf" points="90.5444,-62 90.5444,-81 159.544,-81 159.544,-62 90.5444,-62"/>
<text text-anchor="middle" x="125.044" y="-69" font-family="Helvetica,sans-Serif" font-size="10.00">string_view</text>
</g>
<!-- Node27&#45;&gt;Node28 -->
<g id="edge39" class="edge"><title>Node27&#45;&gt;Node28</title>
<path fill="none" stroke="midnightblue" d="M745.984,-128.998C739.382,-126.669 732.001,-124.402 725.044,-123 484.469,-74.5247 415.644,-130.085 174.044,-87 169.325,-86.1585 164.416,-85.0262 159.606,-83.7635"/>
<polygon fill="midnightblue" stroke="midnightblue" points="160.542,-80.3909 149.967,-81.0396 158.638,-87.1271 160.542,-80.3909"/>
</g>
<!-- Node31&#45;&gt;Node11 -->
<g id="edge47" class="edge"><title>Node31&#45;&gt;Node11</title>
<path fill="none" stroke="midnightblue" d="M1734.54,-130.544C1690.02,-119.283 1601.79,-96.9693 1548.64,-83.5268"/>
<polygon fill="midnightblue" stroke="midnightblue" points="1549.38,-80.1024 1538.82,-81.0435 1547.66,-86.8888 1549.38,-80.1024"/>
</g>
<!-- Node31&#45;&gt;Node14 -->
<g id="edge44" class="edge"><title>Node31&#45;&gt;Node14</title>
<path fill="none" stroke="midnightblue" d="M1734.16,-135.606C1676.7,-131.189 1541.3,-118.119 1432.04,-87 1429.75,-86.3474 1427.41,-85.5791 1425.08,-84.7424"/>
<polygon fill="midnightblue" stroke="midnightblue" points="1426.32,-81.4694 1415.74,-81.0392 1423.74,-87.9771 1426.32,-81.4694"/>
</g>
<!-- Node32 -->
<g id="node32" class="node"><title>Node32</title>
<polygon fill="white" stroke="#bfbfbf" points="1936.04,-62 1936.04,-81 1986.04,-81 1986.04,-62 1936.04,-62"/>
<text text-anchor="middle" x="1961.04" y="-69" font-family="Helvetica,sans-Serif" font-size="10.00">chrono</text>
</g>
<!-- Node31&#45;&gt;Node32 -->
<g id="edge45" class="edge"><title>Node31&#45;&gt;Node32</title>
<path fill="none" stroke="midnightblue" d="M1789.78,-129.983C1822.81,-120.81 1879.49,-104.363 1927.04,-87 1928.7,-86.3948 1930.4,-85.7523 1932.1,-85.0875"/>
<polygon fill="midnightblue" stroke="midnightblue" points="1933.83,-88.1603 1941.77,-81.1404 1931.19,-81.6795 1933.83,-88.1603"/>
</g>
<!-- Node33 -->
<g id="node33" class="node"><title>Node33</title>
<polygon fill="white" stroke="#bfbfbf" points="1734.04,-62 1734.04,-81 1790.04,-81 1790.04,-62 1734.04,-62"/>
<text text-anchor="middle" x="1762.04" y="-69" font-family="Helvetica,sans-Serif" font-size="10.00">sstream</text>
</g>
<!-- Node31&#45;&gt;Node33 -->
<g id="edge46" class="edge"><title>Node31&#45;&gt;Node33</title>
<path fill="none" stroke="midnightblue" d="M1762.04,-128.734C1762.04,-119.183 1762.04,-103.618 1762.04,-91.2829"/>
<polygon fill="midnightblue" stroke="midnightblue" points="1765.54,-91.1273 1762.04,-81.1273 1758.54,-91.1273 1765.54,-91.1273"/>
</g>
<!-- Node34 -->
<g id="node34" class="node"><title>Node34</title>
<polygon fill="white" stroke="#bfbfbf" points="1808.04,-56.5 1808.04,-86.5 1918.04,-86.5 1918.04,-56.5 1808.04,-56.5"/>
<text text-anchor="start" x="1816.04" y="-74.5" font-family="Helvetica,sans-Serif" font-size="10.00">boost/preprocessor</text>
<text text-anchor="middle" x="1863.04" y="-63.5" font-family="Helvetica,sans-Serif" font-size="10.00">/cat.hpp</text>
</g>
<!-- Node31&#45;&gt;Node34 -->
<g id="edge48" class="edge"><title>Node31&#45;&gt;Node34</title>
<path fill="none" stroke="midnightblue" d="M1775.67,-128.734C1790.17,-119.4 1813.59,-104.325 1832.54,-92.1311"/>
<polygon fill="midnightblue" stroke="midnightblue" points="1834.64,-94.944 1841.15,-86.589 1830.85,-89.0577 1834.64,-94.944"/>
</g>
<!-- Node35&#45;&gt;Node2 -->
<g id="edge60" class="edge"><title>Node35&#45;&gt;Node2</title>
<path fill="none" stroke="midnightblue" d="M1360.5,-268.495C1274.09,-257.918 983.97,-222.404 886.383,-210.459"/>
<polygon fill="midnightblue" stroke="midnightblue" points="886.592,-206.958 876.241,-209.217 885.742,-213.906 886.592,-206.958"/>
</g>
<!-- Node35&#45;&gt;Node6 -->
<g id="edge53" class="edge"><title>Node35&#45;&gt;Node6</title>
<path fill="none" stroke="midnightblue" d="M1360.4,-270.147C1213.11,-261.891 447.933,-216.565 222.044,-154 163.911,-137.899 100.829,-104.951 67.6017,-86.2539"/>
<polygon fill="midnightblue" stroke="midnightblue" points="69.0893,-83.0733 58.6679,-81.1636 65.6238,-89.1553 69.0893,-83.0733"/>
</g>
<!-- Node35&#45;&gt;Node7 -->
<g id="edge54" class="edge"><title>Node35&#45;&gt;Node7</title>
<path fill="none" stroke="midnightblue" d="M1381.14,-262.99C1376.61,-253.007 1369,-235.921 1363.04,-221 1344.55,-174.666 1325.08,-119.222 1315.35,-90.9931"/>
<polygon fill="midnightblue" stroke="midnightblue" points="1318.58,-89.599 1312.02,-81.2753 1311.96,-91.8699 1318.58,-89.599"/>
</g>
<!-- Node35&#45;&gt;Node8 -->
<g id="edge55" class="edge"><title>Node35&#45;&gt;Node8</title>
<path fill="none" stroke="midnightblue" d="M1389.92,-262.754C1398.91,-247.079 1419.29,-213.633 1442.04,-190 1500.9,-128.873 1636.83,-117.197 1578.04,-56 1539.44,-15.8125 670.901,-11.5139 492.789,-11.0548"/>
<polygon fill="midnightblue" stroke="midnightblue" points="492.531,-7.55428 482.523,-11.0307 492.515,-14.5543 492.531,-7.55428"/>
</g>
<!-- Node35&#45;&gt;Node9 -->
<g id="edge56" class="edge"><title>Node35&#45;&gt;Node9</title>
<path fill="none" stroke="midnightblue" d="M1409.86,-271.41C1476.91,-270.587 1659.18,-264.33 1696.04,-221 1704.97,-210.506 1699.89,-203.231 1696.04,-190 1676.38,-122.272 1670.92,-93.2693 1611.04,-56 1547.63,-16.5254 1317.23,-11.4456 1229.91,-10.964"/>
<polygon fill="midnightblue" stroke="midnightblue" points="1229.76,-7.46356 1219.75,-10.9256 1229.74,-14.4635 1229.76,-7.46356"/>
</g>
<!-- Node35&#45;&gt;Node10 -->
<g id="edge57" class="edge"><title>Node35&#45;&gt;Node10</title>
<path fill="none" stroke="midnightblue" d="M1366.61,-262.923C1347.8,-253.773 1318.17,-238.245 1295.04,-221 1268.31,-201.06 1241.32,-173.185 1225.4,-155.748"/>
<polygon fill="midnightblue" stroke="midnightblue" points="1227.82,-153.197 1218.52,-148.107 1222.61,-157.881 1227.82,-153.197"/>
</g>
<!-- Node35&#45;&gt;Node11 -->
<g id="edge59" class="edge"><title>Node35&#45;&gt;Node11</title>
<path fill="none" stroke="midnightblue" d="M1386.4,-262.984C1389.08,-247.673 1395.96,-214.784 1409.04,-190 1430.53,-149.307 1467.39,-109.439 1488.64,-88.217"/>
<polygon fill="midnightblue" stroke="midnightblue" points="1491.27,-90.5373 1495.96,-81.0338 1486.37,-85.5425 1491.27,-90.5373"/>
</g>
<!-- Node35&#45;&gt;Node13 -->
<g id="edge61" class="edge"><title>Node35&#45;&gt;Node13</title>
<path fill="none" stroke="midnightblue" d="M1360.35,-265.044C1277.81,-243.469 1011.34,-173.819 915.116,-148.667"/>
<polygon fill="midnightblue" stroke="midnightblue" points="915.853,-145.242 905.293,-146.1 914.082,-152.015 915.853,-145.242"/>
</g>
<!-- Node35&#45;&gt;Node14 -->
<g id="edge50" class="edge"><title>Node35&#45;&gt;Node14</title>
<path fill="none" stroke="midnightblue" d="M1381.82,-262.713C1378.36,-252.756 1373.08,-235.965 1371.04,-221 1365.17,-177.842 1360.46,-165.25 1371.04,-123 1373.99,-111.262 1380.23,-99.2694 1385.98,-89.9182"/>
<polygon fill="midnightblue" stroke="midnightblue" points="1389.1,-91.5402 1391.62,-81.2507 1383.23,-87.7196 1389.1,-91.5402"/>
</g>
<!-- Node36 -->
<g id="node36" class="node"><title>Node36</title>
<polygon fill="white" stroke="#bfbfbf" points="1451.54,-196 1451.54,-215 1492.54,-215 1492.54,-196 1451.54,-196"/>
<text text-anchor="middle" x="1472.04" y="-203" font-family="Helvetica,sans-Serif" font-size="10.00">array</text>
</g>
<!-- Node35&#45;&gt;Node36 -->
<g id="edge51" class="edge"><title>Node35&#45;&gt;Node36</title>
<path fill="none" stroke="midnightblue" d="M1396.78,-262.734C1411,-252.111 1435.17,-234.049 1452.28,-221.264"/>
<polygon fill="midnightblue" stroke="midnightblue" points="1454.58,-223.916 1460.5,-215.127 1450.39,-218.309 1454.58,-223.916"/>
</g>
<!-- Node37 -->
<g id="node37" class="node"><title>Node37</title>
<polygon fill="white" stroke="#bfbfbf" points="1511.04,-196 1511.04,-215 1549.04,-215 1549.04,-196 1511.04,-196"/>
<text text-anchor="middle" x="1530.04" y="-203" font-family="Helvetica,sans-Serif" font-size="10.00">map</text>
</g>
<!-- Node35&#45;&gt;Node37 -->
<g id="edge52" class="edge"><title>Node35&#45;&gt;Node37</title>
<path fill="none" stroke="midnightblue" d="M1405.73,-262.887C1429.04,-253.087 1468.01,-236.435 1501.04,-221 1502.04,-220.535 1503.05,-220.057 1504.07,-219.571"/>
<polygon fill="midnightblue" stroke="midnightblue" points="1505.8,-222.62 1513.25,-215.086 1502.73,-216.331 1505.8,-222.62"/>
</g>
<!-- Node38 -->
<g id="node38" class="node"><title>Node38</title>
<polygon fill="white" stroke="#bfbfbf" points="1567.04,-190.5 1567.04,-220.5 1687.04,-220.5 1687.04,-190.5 1567.04,-190.5"/>
<text text-anchor="start" x="1575.04" y="-208.5" font-family="Helvetica,sans-Serif" font-size="10.00">boost/iterator/iterator</text>
<text text-anchor="middle" x="1627.04" y="-197.5" font-family="Helvetica,sans-Serif" font-size="10.00">_facade.hpp</text>
</g>
<!-- Node35&#45;&gt;Node38 -->
<g id="edge58" class="edge"><title>Node35&#45;&gt;Node38</title>
<path fill="none" stroke="midnightblue" d="M1409.58,-264.91C1445.63,-255.227 1514.09,-236.838 1564.61,-223.269"/>
<polygon fill="midnightblue" stroke="midnightblue" points="1565.71,-226.598 1574.46,-220.624 1563.89,-219.838 1565.71,-226.598"/>
</g>
</g>
</svg>
