<?xml version="1.0" encoding="UTF-8" standalone="no"?>
<!DOCTYPE svg PUBLIC "-//W3C//DTD SVG 1.1//EN"
 "http://www.w3.org/Graphics/SVG/1.1/DTD/svg11.dtd">
<!-- Generated by graphviz version 2.38.0 (20140413.2041)
 -->
<!-- Title: bdd.h Pages: 1 -->
<!--zoomable 420 -->
<svg id="main" version="1.1" xmlns="http://www.w3.org/2000/svg" xmlns:xlink="http://www.w3.org/1999/xlink" xml:space="preserve" onload="init(evt)">
<style type="text/css"><![CDATA[
.edge:hover path { stroke: red; }
.edge:hover polygon { stroke: red; fill: red; }
]]></style>
<script type="text/javascript"><![CDATA[
var edges = document.getElementsByTagName('g');
if (edges && edges.length) {
  for (var i=0;i<edges.length;i++) {
    if (edges[i].id.substr(0,4)=='edge') {
      edges[i].setAttribute('class','edge');
    }
  }
}
]]></script>
        <defs>
                <circle id="rim" cx="0" cy="0" r="7"/>
                <circle id="rim2" cx="0" cy="0" r="3.5"/>
                <g id="zoomPlus">
                        <use xlink:href="#rim" fill="#404040">
                                <set attributeName="fill" to="#808080" begin="zoomplus.mouseover" end="zoomplus.mouseout"/>
                        </use>
                        <path d="M-4,0h8M0,-4v8" fill="none" stroke="white" stroke-width="1.5" pointer-events="none"/>
                </g>
                <g id="zoomMin">
                        <use xlink:href="#rim" fill="#404040">
                                <set attributeName="fill" to="#808080" begin="zoomminus.mouseover" end="zoomminus.mouseout"/>
                        </use>
                        <path d="M-4,0h8" fill="none" stroke="white" stroke-width="1.5" pointer-events="none"/>
                </g>
                <g id="dirArrow">
                        <path fill="none" stroke="white" stroke-width="1.5" d="M0,-3.0v7 M-2.5,-0.5L0,-3.0L2.5,-0.5"/>
                </g>
               <g id="resetDef">
                       <use xlink:href="#rim2" fill="#404040">
                               <set attributeName="fill" to="#808080" begin="reset.mouseover" end="reset.mouseout"/>
                       </use>
               </g>
        </defs>

<script type="text/javascript">
var viewWidth = 699;
var viewHeight = 420;
var sectionId = 'dynsection-1';
</script>
<script xlink:href="svgpan.js"/>
<svg id="graph" class="graph">
<g id="viewport">
<title>bdd.h</title>
<polygon fill="white" stroke="none" points="-4,4 -4,-416 694.519,-416 694.519,4 -4,4"/>
<!-- Node1 -->
<g id="node1" class="node"><title>Node1</title>
<polygon fill="#bfbfbf" stroke="black" points="383.519,-392.5 383.519,-411.5 427.519,-411.5 427.519,-392.5 383.519,-392.5"/>
<text text-anchor="middle" x="405.519" y="-399.5" font-family="Helvetica,sans-Serif" font-size="10.00">bdd.h</text>
</g>
<!-- Node2 -->
<g id="node2" class="node"><title>Node2</title>
<g id="a_node2"><a xlink:href="bdd_8cc.xhtml" target="_top" xlink:title="Implementation of BDD fault tree analysis algorithms. ">
<polygon fill="white" stroke="black" points="139.519,-280.5 139.519,-299.5 187.519,-299.5 187.519,-280.5 139.519,-280.5"/>
<text text-anchor="middle" x="163.519" y="-287.5" font-family="Helvetica,sans-Serif" font-size="10.00">bdd.cc</text>
</a>
</g>
</g>
<!-- Node1&#45;&gt;Node2 -->
<g id="edge1" class="edge"><title>Node1&#45;&gt;Node2</title>
<path fill="none" stroke="midnightblue" d="M377.278,-388.163C327.344,-365.466 224.747,-318.831 182.42,-299.591"/>
<polygon fill="midnightblue" stroke="midnightblue" points="375.977,-391.417 386.529,-392.368 378.874,-385.044 375.977,-391.417"/>
</g>
<!-- Node3 -->
<g id="node3" class="node"><title>Node3</title>
<g id="a_node3"><a xlink:href="zbdd_8h.xhtml" target="_top" xlink:title="Zero&#45;Suppressed Binary Decision Diagram facilities. ">
<polygon fill="white" stroke="black" points="381.019,-336.5 381.019,-355.5 430.019,-355.5 430.019,-336.5 381.019,-336.5"/>
<text text-anchor="middle" x="405.519" y="-343.5" font-family="Helvetica,sans-Serif" font-size="10.00">zbdd.h</text>
</a>
</g>
</g>
<!-- Node1&#45;&gt;Node3 -->
<g id="edge2" class="edge"><title>Node1&#45;&gt;Node3</title>
<path fill="none" stroke="midnightblue" d="M405.519,-381.805C405.519,-372.91 405.519,-362.78 405.519,-355.751"/>
<polygon fill="midnightblue" stroke="midnightblue" points="402.019,-382.083 405.519,-392.083 409.019,-382.083 402.019,-382.083"/>
</g>
<!-- Node6 -->
<g id="node6" class="node"><title>Node6</title>
<g id="a_node6"><a xlink:href="probability__analysis_8h.xhtml" target="_top" xlink:title="Contains functionality to do numerical analysis of probabilities. ">
<polygon fill="white" stroke="black" points="66.0188,-224.5 66.0188,-243.5 185.019,-243.5 185.019,-224.5 66.0188,-224.5"/>
<text text-anchor="middle" x="125.519" y="-231.5" font-family="Helvetica,sans-Serif" font-size="10.00">probability_analysis.h</text>
</a>
</g>
</g>
<!-- Node1&#45;&gt;Node6 -->
<g id="edge33" class="edge"><title>Node1&#45;&gt;Node6</title>
<path fill="none" stroke="midnightblue" d="M373.149,-400.13C313.502,-396.575 187.172,-379.524 130.519,-300 118.435,-283.039 121.139,-256.88 123.615,-243.508"/>
<polygon fill="midnightblue" stroke="midnightblue" points="372.979,-403.626 383.143,-400.635 373.332,-396.635 372.979,-403.626"/>
</g>
<!-- Node7 -->
<g id="node7" class="node"><title>Node7</title>
<g id="a_node7"><a xlink:href="importance__analysis_8h.xhtml" target="_top" xlink:title="Contains functionality to do numerical analysis of importance factors. ">
<polygon fill="white" stroke="black" points="383.519,-168.5 383.519,-187.5 507.519,-187.5 507.519,-168.5 383.519,-168.5"/>
<text text-anchor="middle" x="445.519" y="-175.5" font-family="Helvetica,sans-Serif" font-size="10.00">importance_analysis.h</text>
</a>
</g>
</g>
<!-- Node1&#45;&gt;Node7 -->
<g id="edge32" class="edge"><title>Node1&#45;&gt;Node7</title>
<path fill="none" stroke="midnightblue" d="M421.255,-384.565C427.865,-376.59 434.858,-366.478 438.519,-356 459.922,-294.742 450.799,-214.222 446.93,-187.806"/>
<polygon fill="midnightblue" stroke="midnightblue" points="418.418,-382.489 414.409,-392.296 423.659,-387.13 418.418,-382.489"/>
</g>
<!-- Node13 -->
<g id="node13" class="node"><title>Node13</title>
<g id="a_node13"><a xlink:href="risk__analysis_8cc.xhtml" target="_top" xlink:title="Implementation of risk analysis handler. ">
<polygon fill="white" stroke="black" points="588.519,-56.5 588.519,-75.5 678.519,-75.5 678.519,-56.5 588.519,-56.5"/>
<text text-anchor="middle" x="633.519" y="-63.5" font-family="Helvetica,sans-Serif" font-size="10.00">risk_analysis.cc</text>
</a>
</g>
</g>
<!-- Node1&#45;&gt;Node13 -->
<g id="edge34" class="edge"><title>Node1&#45;&gt;Node13</title>
<path fill="none" stroke="midnightblue" d="M438.142,-395.544C512.962,-382.11 690.519,-344.584 690.519,-291 690.519,-291 690.519,-291 690.519,-177 690.519,-135.058 657.446,-93.1882 641.685,-75.6161"/>
<polygon fill="midnightblue" stroke="midnightblue" points="437.124,-392.17 427.882,-397.351 438.338,-399.064 437.124,-392.17"/>
</g>
<!-- Node3&#45;&gt;Node2 -->
<g id="edge3" class="edge"><title>Node3&#45;&gt;Node2</title>
<path fill="none" stroke="midnightblue" d="M371.086,-338.182C329.553,-329.821 257.685,-314.914 196.519,-300 193.634,-299.297 190.617,-298.525 187.63,-297.738"/>
<polygon fill="midnightblue" stroke="midnightblue" points="370.474,-341.629 380.967,-340.163 371.85,-334.765 370.474,-341.629"/>
</g>
<!-- Node4 -->
<g id="node4" class="node"><title>Node4</title>
<g id="a_node4"><a xlink:href="fault__tree__analysis_8h.xhtml" target="_top" xlink:title="Fault Tree Analysis. ">
<polygon fill="white" stroke="black" points="206.019,-280.5 206.019,-299.5 321.019,-299.5 321.019,-280.5 206.019,-280.5"/>
<text text-anchor="middle" x="263.519" y="-287.5" font-family="Helvetica,sans-Serif" font-size="10.00">fault_tree_analysis.h</text>
</a>
</g>
</g>
<!-- Node3&#45;&gt;Node4 -->
<g id="edge4" class="edge"><title>Node3&#45;&gt;Node4</title>
<path fill="none" stroke="midnightblue" d="M373.364,-332.772C346.69,-322.629 309.45,-308.467 285.914,-299.516"/>
<polygon fill="midnightblue" stroke="midnightblue" points="372.427,-336.16 383.018,-336.444 374.916,-329.618 372.427,-336.16"/>
</g>
<!-- Node8 -->
<g id="node8" class="node"><title>Node8</title>
<g id="a_node8"><a xlink:href="importance__analysis_8cc.xhtml" target="_top" xlink:title="Implementations of functions to provide quantitative importance informations. ">
<polygon fill="white" stroke="black" points="419.519,-112.5 419.519,-131.5 547.519,-131.5 547.519,-112.5 419.519,-112.5"/>
<text text-anchor="middle" x="483.519" y="-119.5" font-family="Helvetica,sans-Serif" font-size="10.00">importance_analysis.cc</text>
</a>
</g>
</g>
<!-- Node3&#45;&gt;Node8 -->
<g id="edge25" class="edge"><title>Node3&#45;&gt;Node8</title>
<path fill="none" stroke="midnightblue" d="M422.134,-328.997C448.243,-302.561 497.827,-246.815 516.519,-188 519.211,-179.529 519.284,-176.448 516.519,-168 511.817,-153.637 500.591,-140.068 492.539,-131.66"/>
<polygon fill="midnightblue" stroke="midnightblue" points="419.477,-326.703 414.845,-336.231 424.408,-331.671 419.477,-326.703"/>
</g>
<!-- Node3&#45;&gt;Node13 -->
<g id="edge30" class="edge"><title>Node3&#45;&gt;Node13</title>
<path fill="none" stroke="midnightblue" d="M440.343,-344.851C508.412,-342.534 652.519,-326.79 652.519,-235 652.519,-235 652.519,-235 652.519,-177 652.519,-138.821 641.267,-94.2624 636.081,-75.7514"/>
<polygon fill="midnightblue" stroke="midnightblue" points="440.011,-341.358 430.105,-345.117 440.193,-348.356 440.011,-341.358"/>
</g>
<!-- Node14 -->
<g id="node14" class="node"><title>Node14</title>
<g id="a_node14"><a xlink:href="probability__analysis_8cc.xhtml" target="_top" xlink:title="Implementations of functions to provide probability analysis. ">
<polygon fill="white" stroke="black" points="242.019,-168.5 242.019,-187.5 365.019,-187.5 365.019,-168.5 242.019,-168.5"/>
<text text-anchor="middle" x="303.519" y="-175.5" font-family="Helvetica,sans-Serif" font-size="10.00">probability_analysis.cc</text>
</a>
</g>
</g>
<!-- Node3&#45;&gt;Node14 -->
<g id="edge29" class="edge"><title>Node3&#45;&gt;Node14</title>
<path fill="none" stroke="midnightblue" d="M406.171,-326.185C406.124,-312.994 405.042,-295.094 400.519,-280 392.352,-252.75 388.679,-245.027 369.519,-224 355.321,-208.419 334.715,-195.476 320.317,-187.531"/>
<polygon fill="midnightblue" stroke="midnightblue" points="402.668,-326.319 406.005,-336.375 409.667,-326.433 402.668,-326.319"/>
</g>
<!-- Node17 -->
<g id="node17" class="node"><title>Node17</title>
<g id="a_node17"><a xlink:href="mocus_8h.xhtml" target="_top" xlink:title="Fault tree analysis with the MOCUS algorithm. ">
<polygon fill="white" stroke="black" points="526.519,-280.5 526.519,-299.5 584.519,-299.5 584.519,-280.5 526.519,-280.5"/>
<text text-anchor="middle" x="555.519" y="-287.5" font-family="Helvetica,sans-Serif" font-size="10.00">mocus.h</text>
</a>
</g>
</g>
<!-- Node3&#45;&gt;Node17 -->
<g id="edge26" class="edge"><title>Node3&#45;&gt;Node17</title>
<path fill="none" stroke="midnightblue" d="M438.743,-333.039C466.967,-322.879 506.781,-308.546 531.862,-299.516"/>
<polygon fill="midnightblue" stroke="midnightblue" points="437.51,-329.763 429.287,-336.444 439.881,-336.349 437.51,-329.763"/>
</g>
<!-- Node19 -->
<g id="node19" class="node"><title>Node19</title>
<g id="a_node19"><a xlink:href="zbdd_8cc.xhtml" target="_top" xlink:title="Implementation of Zero&#45;Suppressed BDD algorithms. ">
<polygon fill="white" stroke="black" points="339.019,-280.5 339.019,-299.5 392.019,-299.5 392.019,-280.5 339.019,-280.5"/>
<text text-anchor="middle" x="365.519" y="-287.5" font-family="Helvetica,sans-Serif" font-size="10.00">zbdd.cc</text>
</a>
</g>
</g>
<!-- Node3&#45;&gt;Node19 -->
<g id="edge31" class="edge"><title>Node3&#45;&gt;Node19</title>
<path fill="none" stroke="midnightblue" d="M392.819,-327.855C385.893,-318.505 377.612,-307.327 372.001,-299.751"/>
<polygon fill="midnightblue" stroke="midnightblue" points="390.149,-330.131 398.914,-336.083 395.774,-325.964 390.149,-330.131"/>
</g>
<!-- Node5 -->
<g id="node5" class="node"><title>Node5</title>
<g id="a_node5"><a xlink:href="fault__tree__analysis_8cc.xhtml" target="_top" xlink:title="Implementation of fault tree analysis. ">
<polygon fill="white" stroke="black" points="242.019,-224.5 242.019,-243.5 361.019,-243.5 361.019,-224.5 242.019,-224.5"/>
<text text-anchor="middle" x="301.519" y="-231.5" font-family="Helvetica,sans-Serif" font-size="10.00">fault_tree_analysis.cc</text>
</a>
</g>
</g>
<!-- Node4&#45;&gt;Node5 -->
<g id="edge5" class="edge"><title>Node4&#45;&gt;Node5</title>
<path fill="none" stroke="midnightblue" d="M275.584,-271.855C282.164,-262.505 290.03,-251.327 295.361,-243.751"/>
<polygon fill="midnightblue" stroke="midnightblue" points="272.686,-269.891 269.794,-280.083 278.411,-273.919 272.686,-269.891"/>
</g>
<!-- Node4&#45;&gt;Node6 -->
<g id="edge6" class="edge"><title>Node4&#45;&gt;Node6</title>
<path fill="none" stroke="midnightblue" d="M232.269,-276.772C206.348,-266.629 170.156,-252.467 147.283,-243.516"/>
<polygon fill="midnightblue" stroke="midnightblue" points="231.064,-280.059 241.652,-280.444 233.615,-273.54 231.064,-280.059"/>
</g>
<!-- Node9 -->
<g id="node9" class="node"><title>Node9</title>
<g id="a_node9"><a xlink:href="reporter_8h.xhtml" target="_top" xlink:title="Reporter of results. ">
<polygon fill="white" stroke="black" points="18.5188,-56.5 18.5188,-75.5 82.5188,-75.5 82.5188,-56.5 18.5188,-56.5"/>
<text text-anchor="middle" x="50.5188" y="-63.5" font-family="Helvetica,sans-Serif" font-size="10.00">reporter.h</text>
</a>
</g>
</g>
<!-- Node4&#45;&gt;Node9 -->
<g id="edge23" class="edge"><title>Node4&#45;&gt;Node9</title>
<path fill="none" stroke="midnightblue" d="M196.38,-278.809C145.401,-270.26 80.1689,-257.337 56.5188,-244 26.6698,-227.167 16.1959,-219.837 3.51878,-188 -2.35072,-173.259 -0.524016,-132.25 8.51878,-112 15.2293,-96.9729 29.0651,-83.7408 39.0251,-75.582"/>
<polygon fill="midnightblue" stroke="midnightblue" points="195.933,-282.282 206.37,-280.459 197.074,-275.376 195.933,-282.282"/>
</g>
<!-- Node12 -->
<g id="node12" class="node"><title>Node12</title>
<g id="a_node12"><a xlink:href="risk__analysis_8h.xhtml" target="_top" xlink:title="Contains the main system for performing analysis. ">
<polygon fill="white" stroke="black" points="207.519,-112.5 207.519,-131.5 293.519,-131.5 293.519,-112.5 207.519,-112.5"/>
<text text-anchor="middle" x="250.519" y="-119.5" font-family="Helvetica,sans-Serif" font-size="10.00">risk_analysis.h</text>
</a>
</g>
</g>
<!-- Node4&#45;&gt;Node12 -->
<g id="edge24" class="edge"><title>Node4&#45;&gt;Node12</title>
<path fill="none" stroke="midnightblue" d="M248.543,-272.473C242.295,-264.479 235.747,-254.378 232.519,-244 222.485,-211.747 226.131,-201.168 232.519,-168 235.065,-154.78 241.459,-140.507 245.898,-131.661"/>
<polygon fill="midnightblue" stroke="midnightblue" points="245.935,-274.81 255.036,-280.234 251.304,-270.318 245.935,-274.81"/>
</g>
<!-- Node6&#45;&gt;Node7 -->
<g id="edge7" class="edge"><title>Node6&#45;&gt;Node7</title>
<path fill="none" stroke="midnightblue" d="M186.393,-222.727C246.864,-212.523 338.507,-197.058 395.051,-187.516"/>
<polygon fill="midnightblue" stroke="midnightblue" points="185.502,-219.328 176.224,-224.444 186.667,-226.231 185.502,-219.328"/>
</g>
<!-- Node6&#45;&gt;Node9 -->
<g id="edge17" class="edge"><title>Node6&#45;&gt;Node9</title>
<path fill="none" stroke="midnightblue" d="M61.8499,-221.332C43.5052,-214.7 25.5003,-204.302 14.5188,-188 -10.3387,-151.1 26.863,-96.6364 43.3323,-75.6666"/>
<polygon fill="midnightblue" stroke="midnightblue" points="60.846,-224.686 71.4386,-224.468 63.0221,-218.033 60.846,-224.686"/>
</g>
<!-- Node6&#45;&gt;Node12 -->
<g id="edge18" class="edge"><title>Node6&#45;&gt;Node12</title>
<path fill="none" stroke="midnightblue" d="M143.119,-217.512C169.829,-194.007 219.712,-150.11 240.756,-131.591"/>
<polygon fill="midnightblue" stroke="midnightblue" points="140.522,-215.135 135.327,-224.368 145.147,-220.39 140.522,-215.135"/>
</g>
<!-- Node6&#45;&gt;Node14 -->
<g id="edge16" class="edge"><title>Node6&#45;&gt;Node14</title>
<path fill="none" stroke="midnightblue" d="M163.636,-221.436C197.196,-211.255 245.293,-196.664 275.446,-187.516"/>
<polygon fill="midnightblue" stroke="midnightblue" points="162.277,-218.191 153.723,-224.444 164.309,-224.89 162.277,-218.191"/>
</g>
<!-- Node15 -->
<g id="node15" class="node"><title>Node15</title>
<g id="a_node15"><a xlink:href="uncertainty__analysis_8h.xhtml" target="_top" xlink:title="Provides functionality for uncertainty analysis with Monte Carlo method. ">
<polygon fill="white" stroke="black" points="24.0188,-168.5 24.0188,-187.5 147.019,-187.5 147.019,-168.5 24.0188,-168.5"/>
<text text-anchor="middle" x="85.5188" y="-175.5" font-family="Helvetica,sans-Serif" font-size="10.00">uncertainty_analysis.h</text>
</a>
</g>
</g>
<!-- Node6&#45;&gt;Node15 -->
<g id="edge19" class="edge"><title>Node6&#45;&gt;Node15</title>
<path fill="none" stroke="midnightblue" d="M112.819,-215.855C105.893,-206.505 97.6125,-195.327 92.0011,-187.751"/>
<polygon fill="midnightblue" stroke="midnightblue" points="110.149,-218.131 118.914,-224.083 115.774,-213.964 110.149,-218.131"/>
</g>
<!-- Node7&#45;&gt;Node8 -->
<g id="edge8" class="edge"><title>Node7&#45;&gt;Node8</title>
<path fill="none" stroke="midnightblue" d="M457.584,-159.855C464.164,-150.505 472.03,-139.327 477.361,-131.751"/>
<polygon fill="midnightblue" stroke="midnightblue" points="454.686,-157.891 451.794,-168.083 460.411,-161.919 454.686,-157.891"/>
</g>
<!-- Node7&#45;&gt;Node9 -->
<g id="edge9" class="edge"><title>Node7&#45;&gt;Node9</title>
<path fill="none" stroke="midnightblue" d="M421.143,-163.637C393.257,-148.895 345.844,-125.481 302.519,-112 225.499,-88.0341 131.021,-75.4315 82.5544,-70.126"/>
<polygon fill="midnightblue" stroke="midnightblue" points="419.686,-166.826 430.154,-168.458 422.989,-160.654 419.686,-166.826"/>
</g>
<!-- Node7&#45;&gt;Node12 -->
<g id="edge12" class="edge"><title>Node7&#45;&gt;Node12</title>
<path fill="none" stroke="midnightblue" d="M404.708,-165.699C367.905,-155.507 314.59,-140.743 281.273,-131.516"/>
<polygon fill="midnightblue" stroke="midnightblue" points="404.049,-169.148 414.62,-168.444 405.917,-162.402 404.049,-169.148"/>
</g>
<!-- Node10 -->
<g id="node10" class="node"><title>Node10</title>
<g id="a_node10"><a xlink:href="reporter_8cc.xhtml" target="_top" xlink:title="Implements Reporter class. ">
<polygon fill="white" stroke="black" points="16.5188,-0.5 16.5188,-19.5 84.5188,-19.5 84.5188,-0.5 16.5188,-0.5"/>
<text text-anchor="middle" x="50.5188" y="-7.5" font-family="Helvetica,sans-Serif" font-size="10.00">reporter.cc</text>
</a>
</g>
</g>
<!-- Node9&#45;&gt;Node10 -->
<g id="edge10" class="edge"><title>Node9&#45;&gt;Node10</title>
<path fill="none" stroke="midnightblue" d="M50.5188,-45.8045C50.5188,-36.9102 50.5188,-26.7798 50.5188,-19.7511"/>
<polygon fill="midnightblue" stroke="midnightblue" points="47.0189,-46.083 50.5188,-56.083 54.0189,-46.083 47.0189,-46.083"/>
</g>
<!-- Node11 -->
<g id="node11" class="node"><title>Node11</title>
<g id="a_node11"><a xlink:href="scram_8cc.xhtml" target="_top" xlink:title="Main entrance. ">
<polygon fill="white" stroke="black" points="136.519,-0.5 136.519,-19.5 196.519,-19.5 196.519,-0.5 136.519,-0.5"/>
<text text-anchor="middle" x="166.519" y="-7.5" font-family="Helvetica,sans-Serif" font-size="10.00">scram.cc</text>
</a>
</g>
</g>
<!-- Node9&#45;&gt;Node11 -->
<g id="edge11" class="edge"><title>Node9&#45;&gt;Node11</title>
<path fill="none" stroke="midnightblue" d="M78.2385,-52.096C99.9104,-42.0073 129.421,-28.2697 148.224,-19.5164"/>
<polygon fill="midnightblue" stroke="midnightblue" points="76.488,-49.0501 68.8993,-56.4435 79.4423,-55.3962 76.488,-49.0501"/>
</g>
<!-- Node12&#45;&gt;Node9 -->
<g id="edge13" class="edge"><title>Node12&#45;&gt;Node9</title>
<path fill="none" stroke="midnightblue" d="M209.145,-109.829C171.383,-99.6333 116.379,-84.7823 82.0611,-75.5164"/>
<polygon fill="midnightblue" stroke="midnightblue" points="208.262,-113.216 218.828,-112.444 210.086,-106.458 208.262,-113.216"/>
</g>
<!-- Node12&#45;&gt;Node11 -->
<g id="edge15" class="edge"><title>Node12&#45;&gt;Node11</title>
<path fill="none" stroke="midnightblue" d="M237.745,-104.272C219.587,-80.4942 186.976,-37.7889 173.079,-19.5914"/>
<polygon fill="midnightblue" stroke="midnightblue" points="235.077,-106.545 243.927,-112.368 240.64,-102.297 235.077,-106.545"/>
</g>
<!-- Node12&#45;&gt;Node13 -->
<g id="edge14" class="edge"><title>Node12&#45;&gt;Node13</title>
<path fill="none" stroke="midnightblue" d="M303.992,-113.461C379.865,-102.763 517.413,-83.37 588.416,-73.3592"/>
<polygon fill="midnightblue" stroke="midnightblue" points="303.123,-110.049 293.709,-114.91 304.1,-116.98 303.123,-110.049"/>
</g>
<!-- Node15&#45;&gt;Node9 -->
<g id="edge21" class="edge"><title>Node15&#45;&gt;Node9</title>
<path fill="none" stroke="midnightblue" d="M69.9515,-160.833C63.271,-152.822 56.1722,-142.605 52.5188,-132 45.8998,-112.786 47.6,-88.4567 49.1928,-75.7046"/>
<polygon fill="midnightblue" stroke="midnightblue" points="67.338,-163.161 76.5998,-168.306 72.568,-158.508 67.338,-163.161"/>
</g>
<!-- Node15&#45;&gt;Node12 -->
<g id="edge20" class="edge"><title>Node15&#45;&gt;Node12</title>
<path fill="none" stroke="midnightblue" d="M121.255,-165.304C152.346,-155.129 196.666,-140.625 224.496,-131.516"/>
<polygon fill="midnightblue" stroke="midnightblue" points="120.079,-162.007 111.664,-168.444 122.256,-168.659 120.079,-162.007"/>
</g>
<!-- Node16 -->
<g id="node16" class="node"><title>Node16</title>
<g id="a_node16"><a xlink:href="uncertainty__analysis_8cc.xhtml" target="_top" xlink:title="Implements the functionality to run Monte Carlo simulations. ">
<polygon fill="white" stroke="black" points="61.5188,-112.5 61.5188,-131.5 189.519,-131.5 189.519,-112.5 61.5188,-112.5"/>
<text text-anchor="middle" x="125.519" y="-119.5" font-family="Helvetica,sans-Serif" font-size="10.00">uncertainty_analysis.cc</text>
</a>
</g>
</g>
<!-- Node15&#45;&gt;Node16 -->
<g id="edge22" class="edge"><title>Node15&#45;&gt;Node16</title>
<path fill="none" stroke="midnightblue" d="M98.2185,-159.855C105.145,-150.505 113.425,-139.327 119.036,-131.751"/>
<polygon fill="midnightblue" stroke="midnightblue" points="95.2638,-157.964 92.124,-168.083 100.889,-162.131 95.2638,-157.964"/>
</g>
<!-- Node17&#45;&gt;Node13 -->
<g id="edge28" class="edge"><title>Node17&#45;&gt;Node13</title>
<path fill="none" stroke="midnightblue" d="M573.201,-273.255C581.16,-265.246 589.99,-254.909 595.519,-244 625.639,-184.566 631.933,-102.185 633.206,-75.6217"/>
<polygon fill="midnightblue" stroke="midnightblue" points="570.507,-270.988 565.687,-280.423 575.338,-276.053 570.507,-270.988"/>
</g>
<!-- Node18 -->
<g id="node18" class="node"><title>Node18</title>
<g id="a_node18"><a xlink:href="mocus_8cc.xhtml" target="_top" xlink:title="Implementation of the MOCUS algorithm. ">
<polygon fill="white" stroke="black" points="524.519,-224.5 524.519,-243.5 586.519,-243.5 586.519,-224.5 524.519,-224.5"/>
<text text-anchor="middle" x="555.519" y="-231.5" font-family="Helvetica,sans-Serif" font-size="10.00">mocus.cc</text>
</a>
</g>
</g>
<!-- Node17&#45;&gt;Node18 -->
<g id="edge27" class="edge"><title>Node17&#45;&gt;Node18</title>
<path fill="none" stroke="midnightblue" d="M555.519,-269.805C555.519,-260.91 555.519,-250.78 555.519,-243.751"/>
<polygon fill="midnightblue" stroke="midnightblue" points="552.019,-270.083 555.519,-280.083 559.019,-270.083 552.019,-270.083"/>
</g>
</g>
</svg>
        <g id="navigator" transform="translate(0 0)" fill="#404254">
                <rect fill="#f2f5e9" fill-opacity="0.5" stroke="#606060" stroke-width=".5" x="0" y="0" width="60" height="60"/>
                <use id="zoomplus" xlink:href="#zoomPlus" x="17" y="9" onmousedown="handleZoom(evt,'in')"/>
                <use id="zoomminus" xlink:href="#zoomMin" x="42" y="9" onmousedown="handleZoom(evt,'out')"/>
                <use id="reset" xlink:href="#resetDef" x="30" y="36" onmousedown="handleReset()"/>
                <g id="arrowUp" xlink:href="#dirArrow" transform="translate(30 24)" onmousedown="handlePan(0,-1)">
                  <use xlink:href="#rim" fill="#404040">
                        <set attributeName="fill" to="#808080" begin="arrowUp.mouseover" end="arrowUp.mouseout"/>
                  </use>
                  <path fill="none" stroke="white" stroke-width="1.5" d="M0,-3.0v7 M-2.5,-0.5L0,-3.0L2.5,-0.5"/>
                </g>
                <g id="arrowRight" xlink:href="#dirArrow" transform="rotate(90) translate(36 -43)" onmousedown="handlePan(1,0)">
                  <use xlink:href="#rim" fill="#404040">
                        <set attributeName="fill" to="#808080" begin="arrowRight.mouseover" end="arrowRight.mouseout"/>
                  </use>
                  <path fill="none" stroke="white" stroke-width="1.5" d="M0,-3.0v7 M-2.5,-0.5L0,-3.0L2.5,-0.5"/>
                </g>
                <g id="arrowDown" xlink:href="#dirArrow" transform="rotate(180) translate(-30 -48)" onmousedown="handlePan(0,1)">
                  <use xlink:href="#rim" fill="#404040">
                        <set attributeName="fill" to="#808080" begin="arrowDown.mouseover" end="arrowDown.mouseout"/>
                  </use>
                  <path fill="none" stroke="white" stroke-width="1.5" d="M0,-3.0v7 M-2.5,-0.5L0,-3.0L2.5,-0.5"/>
                </g>
                <g id="arrowLeft" xlink:href="#dirArrow" transform="rotate(270) translate(-36 17)" onmousedown="handlePan(-1,0)">
                  <use xlink:href="#rim" fill="#404040">
                        <set attributeName="fill" to="#808080" begin="arrowLeft.mouseover" end="arrowLeft.mouseout"/>
                  </use>
                  <path fill="none" stroke="white" stroke-width="1.5" d="M0,-3.0v7 M-2.5,-0.5L0,-3.0L2.5,-0.5"/>
                </g>
        </g>
        <svg viewBox="0 0 15 15" width="100%" height="30px" preserveAspectRatio="xMaxYMin meet">
         <g id="arrow_out" transform="scale(0.3 0.3)">
          <a xlink:href="bdd_8h__dep__incl_org.svg" target="_base">
           <rect id="button" ry="5" rx="5" y="6" x="6" height="38" width="38"
                fill="#f2f5e9" fill-opacity="0.5" stroke="#606060" stroke-width="1.0"/>
           <path id="arrow"
             d="M 11.500037,31.436501 C 11.940474,20.09759 22.043105,11.32322 32.158766,21.979434 L 37.068811,17.246167 C 37.068811,17.246167 37.088388,32 37.088388,32 L 22.160133,31.978069 C 22.160133,31.978069 26.997745,27.140456 26.997745,27.140456 C 18.528582,18.264221 13.291696,25.230495 11.500037,31.436501 z"
             style="fill:#404040;"/>
          </a>
         </g>
        </svg>
</svg>
