<?xml version="1.0" encoding="UTF-8" standalone="no"?>
<!DOCTYPE svg PUBLIC "-//W3C//DTD SVG 1.1//EN"
 "http://www.w3.org/Graphics/SVG/1.1/DTD/svg11.dtd">
<!-- Generated by graphviz version 2.38.0 (20140413.2041)
 -->
<!-- Title: ext::test_bit Pages: 1 -->
<svg width="360pt" height="57pt"
 viewBox="0.00 0.00 360.00 57.00" xmlns="http://www.w3.org/2000/svg" xmlns:xlink="http://www.w3.org/1999/xlink">
<g id="graph0" class="graph" transform="scale(1 1) rotate(0) translate(4 53)">
<title>ext::test_bit</title>
<polygon fill="white" stroke="none" points="-4,4 -4,-53 356,-53 356,4 -4,4"/>
<!-- Node1 -->
<g id="node1" class="node"><title>Node1</title>
<polygon fill="#bfbfbf" stroke="black" points="0,-6 0,-25 74,-25 74,-6 0,-6"/>
<text text-anchor="middle" x="37" y="-13" font-family="Helvetica,sans-Serif" font-size="10.00">ext::test_bit</text>
</g>
<!-- Node1&#45;&gt;Node1 -->
<g id="edge5" class="edge"><title>Node1&#45;&gt;Node1</title>
<path fill="none" stroke="midnightblue" d="M13.9346,-34.5292C15.1928,-39.628 22.8812,-43.5 37,-43.5 59.0391,-43.5 65.4097,-34.0653 56.112,-25.2571"/>
<polygon fill="midnightblue" stroke="midnightblue" points="17.1854,-35.8286 17.888,-25.2571 10.7463,-33.0831 17.1854,-35.8286"/>
</g>
<!-- Node2 -->
<g id="node2" class="node"><title>Node2</title>
<g id="a_node2"><a xlink:href="bits_8h.xhtml#a4e5cca94aa78c46f2b70b5473427bd68" target="_top" xlink:title="Counts the trailing zero bits. ">
<polygon fill="white" stroke="black" points="110,-0.5 110,-30.5 212,-30.5 212,-0.5 110,-0.5"/>
<text text-anchor="start" x="118" y="-18.5" font-family="Helvetica,sans-Serif" font-size="10.00">ext::count_trailing</text>
<text text-anchor="middle" x="161" y="-7.5" font-family="Helvetica,sans-Serif" font-size="10.00">_zero_bits</text>
</a>
</g>
</g>
<!-- Node1&#45;&gt;Node2 -->
<g id="edge1" class="edge"><title>Node1&#45;&gt;Node2</title>
<path fill="none" stroke="midnightblue" d="M84.4563,-15.5C92.6923,-15.5 101.304,-15.5 109.642,-15.5"/>
<polygon fill="midnightblue" stroke="midnightblue" points="84.2737,-12.0001 74.2737,-15.5 84.2737,-19.0001 84.2737,-12.0001"/>
</g>
<!-- Node2&#45;&gt;Node2 -->
<g id="edge2" class="edge"><title>Node2&#45;&gt;Node2</title>
<path fill="none" stroke="midnightblue" d="M138.967,-40.9579C141.701,-45.679 149.046,-49 161,-49 180.617,-49 187.82,-40.0566 182.61,-30.659"/>
<polygon fill="midnightblue" stroke="midnightblue" points="142.476,-40.7945 139.39,-30.659 135.482,-40.5066 142.476,-40.7945"/>
</g>
<!-- Node3 -->
<g id="node3" class="node"><title>Node3</title>
<g id="a_node3"><a xlink:href="bits_8h.xhtml#a43b440e9884b56087fdef078cc7f526b" target="_top" xlink:title="Helper function to map single bit integer/enum values into indices. ">
<polygon fill="white" stroke="black" points="248,-6 248,-25 352,-25 352,-6 248,-6"/>
<text text-anchor="middle" x="300" y="-13" font-family="Helvetica,sans-Serif" font-size="10.00">ext::one_bit_index</text>
</a>
</g>
</g>
<!-- Node2&#45;&gt;Node3 -->
<g id="edge3" class="edge"><title>Node2&#45;&gt;Node3</title>
<path fill="none" stroke="midnightblue" d="M222.456,-15.5C230.931,-15.5 239.573,-15.5 247.852,-15.5"/>
<polygon fill="midnightblue" stroke="midnightblue" points="222.236,-12.0001 212.236,-15.5 222.236,-19.0001 222.236,-12.0001"/>
</g>
<!-- Node3&#45;&gt;Node3 -->
<g id="edge4" class="edge"><title>Node3&#45;&gt;Node3</title>
<path fill="none" stroke="midnightblue" d="M274.33,-34.5292C275.731,-39.628 284.287,-43.5 300,-43.5 324.527,-43.5 331.617,-34.0653 321.27,-25.2571"/>
<polygon fill="midnightblue" stroke="midnightblue" points="277.605,-35.792 278.73,-25.2571 271.281,-32.7911 277.605,-35.792"/>
</g>
</g>
</svg>
