<?xml version="1.0" encoding="UTF-8" standalone="no"?>
<!DOCTYPE svg PUBLIC "-//W3C//DTD SVG 1.1//EN"
 "http://www.w3.org/Graphics/SVG/1.1/DTD/svg11.dtd">
<!-- Generated by graphviz version 2.38.0 (20140413.2041)
 -->
<!-- Title: ext::count_trailing_zero_bits Pages: 1 -->
<svg width="250pt" height="57pt"
 viewBox="0.00 0.00 250.00 57.00" xmlns="http://www.w3.org/2000/svg" xmlns:xlink="http://www.w3.org/1999/xlink">
<g id="graph0" class="graph" transform="scale(1 1) rotate(0) translate(4 53)">
<title>ext::count_trailing_zero_bits</title>
<polygon fill="white" stroke="none" points="-4,4 -4,-53 246,-53 246,4 -4,4"/>
<!-- Node1 -->
<g id="node1" class="node"><title>Node1</title>
<polygon fill="#bfbfbf" stroke="black" points="0,-0.5 0,-30.5 102,-30.5 102,-0.5 0,-0.5"/>
<text text-anchor="start" x="8" y="-18.5" font-family="Helvetica,sans-Serif" font-size="10.00">ext::count_trailing</text>
<text text-anchor="middle" x="51" y="-7.5" font-family="Helvetica,sans-Serif" font-size="10.00">_zero_bits</text>
</g>
<!-- Node1&#45;&gt;Node1 -->
<g id="edge1" class="edge"><title>Node1&#45;&gt;Node1</title>
<path fill="none" stroke="midnightblue" d="M26.4791,-40.9579C29.5225,-45.679 37.6961,-49 51,-49 72.832,-49 80.8485,-40.0566 75.0493,-30.659"/>
<polygon fill="midnightblue" stroke="midnightblue" points="29.9895,-40.8087 26.9507,-30.659 22.9968,-40.4884 29.9895,-40.8087"/>
</g>
<!-- Node2 -->
<g id="node2" class="node"><title>Node2</title>
<g id="a_node2"><a xlink:href="bits_8h.xhtml#a43b440e9884b56087fdef078cc7f526b" target="_top" xlink:title="Helper function to map single bit integer/enum values into indices. ">
<polygon fill="white" stroke="black" points="138,-6 138,-25 242,-25 242,-6 138,-6"/>
<text text-anchor="middle" x="190" y="-13" font-family="Helvetica,sans-Serif" font-size="10.00">ext::one_bit_index</text>
</a>
</g>
</g>
<!-- Node1&#45;&gt;Node2 -->
<g id="edge2" class="edge"><title>Node1&#45;&gt;Node2</title>
<path fill="none" stroke="midnightblue" d="M112.456,-15.5C120.931,-15.5 129.573,-15.5 137.852,-15.5"/>
<polygon fill="midnightblue" stroke="midnightblue" points="112.236,-12.0001 102.236,-15.5 112.236,-19.0001 112.236,-12.0001"/>
</g>
<!-- Node2&#45;&gt;Node2 -->
<g id="edge3" class="edge"><title>Node2&#45;&gt;Node2</title>
<path fill="none" stroke="midnightblue" d="M164.33,-34.5292C165.731,-39.628 174.287,-43.5 190,-43.5 214.527,-43.5 221.617,-34.0653 211.27,-25.2571"/>
<polygon fill="midnightblue" stroke="midnightblue" points="167.605,-35.792 168.73,-25.2571 161.281,-32.7911 167.605,-35.792"/>
</g>
</g>
</svg>
