<?xml version="1.0" encoding="UTF-8" standalone="no"?>
<!DOCTYPE svg PUBLIC "-//W3C//DTD SVG 1.1//EN"
 "http://www.w3.org/Graphics/SVG/1.1/DTD/svg11.dtd">
<!-- Generated by graphviz version 2.38.0 (20140413.2041)
 -->
<!-- Title: ext::one_bit_index Pages: 1 -->
<svg width="360pt" height="57pt"
 viewBox="0.00 0.00 360.00 57.00" xmlns="http://www.w3.org/2000/svg" xmlns:xlink="http://www.w3.org/1999/xlink">
<g id="graph0" class="graph" transform="scale(1 1) rotate(0) translate(4 53)">
<title>ext::one_bit_index</title>
<polygon fill="white" stroke="none" points="-4,4 -4,-53 356,-53 356,4 -4,4"/>
<!-- Node1 -->
<g id="node1" class="node"><title>Node1</title>
<polygon fill="#bfbfbf" stroke="black" points="0,-6 0,-25 104,-25 104,-6 0,-6"/>
<text text-anchor="middle" x="52" y="-13" font-family="Helvetica,sans-Serif" font-size="10.00">ext::one_bit_index</text>
</g>
<!-- Node1&#45;&gt;Node1 -->
<g id="edge5" class="edge"><title>Node1&#45;&gt;Node1</title>
<path fill="none" stroke="midnightblue" d="M30.7302,-25.2571C20.3827,-34.0653 27.4727,-43.5 52,-43.5 67.7128,-43.5 76.2693,-39.628 77.6695,-34.5292"/>
<polygon fill="midnightblue" stroke="midnightblue" points="80.7189,-32.7911 73.2698,-25.2571 74.3948,-35.792 80.7189,-32.7911"/>
</g>
<!-- Node2 -->
<g id="node2" class="node"><title>Node2</title>
<g id="a_node2"><a xlink:href="bits_8h.xhtml#a4e5cca94aa78c46f2b70b5473427bd68" target="_top" xlink:title="Counts the trailing zero bits. ">
<polygon fill="white" stroke="black" points="140,-0.5 140,-30.5 242,-30.5 242,-0.5 140,-0.5"/>
<text text-anchor="start" x="148" y="-18.5" font-family="Helvetica,sans-Serif" font-size="10.00">ext::count_trailing</text>
<text text-anchor="middle" x="191" y="-7.5" font-family="Helvetica,sans-Serif" font-size="10.00">_zero_bits</text>
</a>
</g>
</g>
<!-- Node1&#45;&gt;Node2 -->
<g id="edge1" class="edge"><title>Node1&#45;&gt;Node2</title>
<path fill="none" stroke="midnightblue" d="M104.014,-15.5C112.434,-15.5 121.233,-15.5 129.852,-15.5"/>
<polygon fill="midnightblue" stroke="midnightblue" points="129.855,-19.0001 139.855,-15.5 129.855,-12.0001 129.855,-19.0001"/>
</g>
<!-- Node2&#45;&gt;Node2 -->
<g id="edge2" class="edge"><title>Node2&#45;&gt;Node2</title>
<path fill="none" stroke="midnightblue" d="M169.39,-30.659C164.18,-40.0566 171.383,-49 191,-49 202.954,-49 210.299,-45.679 213.033,-40.9579"/>
<polygon fill="midnightblue" stroke="midnightblue" points="216.518,-40.5066 212.61,-30.659 209.524,-40.7945 216.518,-40.5066"/>
</g>
<!-- Node3 -->
<g id="node3" class="node"><title>Node3</title>
<g id="a_node3"><a xlink:href="bits_8h.xhtml#af88a4b720a719c9b6cef4e45a742a49e" target="_top" xlink:title="Tests the value of a bit. ">
<polygon fill="white" stroke="black" points="278,-6 278,-25 352,-25 352,-6 278,-6"/>
<text text-anchor="middle" x="315" y="-13" font-family="Helvetica,sans-Serif" font-size="10.00">ext::test_bit</text>
</a>
</g>
</g>
<!-- Node2&#45;&gt;Node3 -->
<g id="edge3" class="edge"><title>Node2&#45;&gt;Node3</title>
<path fill="none" stroke="midnightblue" d="M242.326,-15.5C250.726,-15.5 259.404,-15.5 267.697,-15.5"/>
<polygon fill="midnightblue" stroke="midnightblue" points="267.945,-19.0001 277.945,-15.5 267.945,-12.0001 267.945,-19.0001"/>
</g>
<!-- Node3&#45;&gt;Node3 -->
<g id="edge4" class="edge"><title>Node3&#45;&gt;Node3</title>
<path fill="none" stroke="midnightblue" d="M295.888,-25.2571C286.59,-34.0653 292.961,-43.5 315,-43.5 329.119,-43.5 336.807,-39.628 338.065,-34.5292"/>
<polygon fill="midnightblue" stroke="midnightblue" points="341.254,-33.0831 334.112,-25.2571 334.815,-35.8286 341.254,-33.0831"/>
</g>
</g>
</svg>
