<?xml version="1.0" encoding="UTF-8" standalone="no"?>
<!DOCTYPE svg PUBLIC "-//W3C//DTD SVG 1.1//EN"
 "http://www.w3.org/Graphics/SVG/1.1/DTD/svg11.dtd">
<!-- Generated by graphviz version 2.38.0 (20140413.2041)
 -->
<!-- Title: ext::count_trailing_zero_bits Pages: 1 -->
<svg width="220pt" height="57pt"
 viewBox="0.00 0.00 220.00 57.00" xmlns="http://www.w3.org/2000/svg" xmlns:xlink="http://www.w3.org/1999/xlink">
<g id="graph0" class="graph" transform="scale(1 1) rotate(0) translate(4 53)">
<title>ext::count_trailing_zero_bits</title>
<polygon fill="white" stroke="none" points="-4,4 -4,-53 216,-53 216,4 -4,4"/>
<!-- Node1 -->
<g id="node1" class="node"><title>Node1</title>
<polygon fill="#bfbfbf" stroke="black" points="0,-0.5 0,-30.5 102,-30.5 102,-0.5 0,-0.5"/>
<text text-anchor="start" x="8" y="-18.5" font-family="Helvetica,sans-Serif" font-size="10.00">ext::count_trailing</text>
<text text-anchor="middle" x="51" y="-7.5" font-family="Helvetica,sans-Serif" font-size="10.00">_zero_bits</text>
</g>
<!-- Node1&#45;&gt;Node1 -->
<g id="edge1" class="edge"><title>Node1&#45;&gt;Node1</title>
<path fill="none" stroke="midnightblue" d="M29.3904,-30.659C24.1796,-40.0566 31.3828,-49 51,-49 62.9542,-49 70.2987,-45.679 73.0333,-40.9579"/>
<polygon fill="midnightblue" stroke="midnightblue" points="76.5178,-40.5066 72.6096,-30.659 69.5237,-40.7945 76.5178,-40.5066"/>
</g>
<!-- Node2 -->
<g id="node2" class="node"><title>Node2</title>
<g id="a_node2"><a xlink:href="bits_8h.xhtml#af88a4b720a719c9b6cef4e45a742a49e" target="_top" xlink:title="Tests the value of a bit. ">
<polygon fill="white" stroke="black" points="138,-6 138,-25 212,-25 212,-6 138,-6"/>
<text text-anchor="middle" x="175" y="-13" font-family="Helvetica,sans-Serif" font-size="10.00">ext::test_bit</text>
</a>
</g>
</g>
<!-- Node1&#45;&gt;Node2 -->
<g id="edge2" class="edge"><title>Node1&#45;&gt;Node2</title>
<path fill="none" stroke="midnightblue" d="M102.326,-15.5C110.726,-15.5 119.404,-15.5 127.697,-15.5"/>
<polygon fill="midnightblue" stroke="midnightblue" points="127.945,-19.0001 137.945,-15.5 127.945,-12.0001 127.945,-19.0001"/>
</g>
<!-- Node2&#45;&gt;Node2 -->
<g id="edge3" class="edge"><title>Node2&#45;&gt;Node2</title>
<path fill="none" stroke="midnightblue" d="M155.888,-25.2571C146.59,-34.0653 152.961,-43.5 175,-43.5 189.119,-43.5 196.807,-39.628 198.065,-34.5292"/>
<polygon fill="midnightblue" stroke="midnightblue" points="201.254,-33.0831 194.112,-25.2571 194.815,-35.8286 201.254,-33.0831"/>
</g>
</g>
</svg>
