<?xml version="1.0" encoding="UTF-8" standalone="no"?>
<!DOCTYPE svg PUBLIC "-//W3C//DTD SVG 1.1//EN"
 "http://www.w3.org/Graphics/SVG/1.1/DTD/svg11.dtd">
<!-- Generated by graphviz version 2.38.0 (20140413.2041)
 -->
<!-- Title: ccf_group.cc Pages: 1 -->
<svg width="2779pt" height="341pt"
 viewBox="0.00 0.00 2778.50 341.00" xmlns="http://www.w3.org/2000/svg" xmlns:xlink="http://www.w3.org/1999/xlink">
<g id="graph0" class="graph" transform="scale(1 1) rotate(0) translate(4 337)">
<title>ccf_group.cc</title>
<polygon fill="white" stroke="none" points="-4,4 -4,-337 2774.5,-337 2774.5,4 -4,4"/>
<!-- Node1 -->
<g id="node1" class="node"><title>Node1</title>
<polygon fill="#bfbfbf" stroke="black" points="2170.5,-313.5 2170.5,-332.5 2247.5,-332.5 2247.5,-313.5 2170.5,-313.5"/>
<text text-anchor="middle" x="2209" y="-320.5" font-family="Helvetica,sans-Serif" font-size="10.00">ccf_group.cc</text>
</g>
<!-- Node2 -->
<g id="node2" class="node"><title>Node2</title>
<g id="a_node2"><a xlink:href="ccf__group_8h.xhtml" target="_top" xlink:title="Functional containers for basic events grouped by common cause failure. ">
<polygon fill="white" stroke="black" points="1281,-252 1281,-271 1353,-271 1353,-252 1281,-252"/>
<text text-anchor="middle" x="1317" y="-259" font-family="Helvetica,sans-Serif" font-size="10.00">ccf_group.h</text>
</a>
</g>
</g>
<!-- Node1&#45;&gt;Node2 -->
<g id="edge1" class="edge"><title>Node1&#45;&gt;Node2</title>
<path fill="none" stroke="midnightblue" d="M2170.39,-319.424C2026.23,-309.808 1519.83,-276.03 1363.39,-265.595"/>
<polygon fill="midnightblue" stroke="midnightblue" points="1363.38,-262.086 1353.17,-264.913 1362.92,-269.071 1363.38,-262.086"/>
</g>
<!-- Node7 -->
<g id="node7" class="node"><title>Node7</title>
<polygon fill="white" stroke="#bfbfbf" points="1851,-6 1851,-25 1893,-25 1893,-6 1851,-6"/>
<text text-anchor="middle" x="1872" y="-13" font-family="Helvetica,sans-Serif" font-size="10.00">utility</text>
</g>
<!-- Node1&#45;&gt;Node7 -->
<g id="edge55" class="edge"><title>Node1&#45;&gt;Node7</title>
<path fill="none" stroke="midnightblue" d="M2204.34,-313.485C2194.19,-294.119 2171,-245.037 2171,-201 2171,-201 2171,-201 2171,-143 2171,-105.812 2165.28,-89.921 2136,-67 2100.12,-38.9173 1965.37,-24.2936 1903.46,-18.936"/>
<polygon fill="midnightblue" stroke="midnightblue" points="1903.39,-15.418 1893.13,-18.0703 1902.81,-22.3936 1903.39,-15.418"/>
</g>
<!-- Node18 -->
<g id="node18" class="node"><title>Node18</title>
<g id="a_node18"><a xlink:href="error_8h.xhtml" target="_top" xlink:title="Exceptions for SCRAM. ">
<polygon fill="white" stroke="black" points="334,-73 334,-92 382,-92 382,-73 334,-73"/>
<text text-anchor="middle" x="358" y="-80" font-family="Helvetica,sans-Serif" font-size="10.00">error.h</text>
</a>
</g>
</g>
<!-- Node1&#45;&gt;Node18 -->
<g id="edge58" class="edge"><title>Node1&#45;&gt;Node18</title>
<path fill="none" stroke="midnightblue" d="M2170.41,-322.353C1948.74,-323.949 836.049,-325.98 518,-210 454.989,-187.022 397.633,-128.799 372.056,-100.062"/>
<polygon fill="midnightblue" stroke="midnightblue" points="374.378,-97.3992 365.168,-92.1621 369.102,-102 374.378,-97.3992"/>
</g>
<!-- Node33 -->
<g id="node33" class="node"><title>Node33</title>
<polygon fill="white" stroke="#bfbfbf" points="2455.5,-190.5 2455.5,-209.5 2502.5,-209.5 2502.5,-190.5 2455.5,-190.5"/>
<text text-anchor="middle" x="2479" y="-197.5" font-family="Helvetica,sans-Serif" font-size="10.00">cmath</text>
</g>
<!-- Node1&#45;&gt;Node33 -->
<g id="edge54" class="edge"><title>Node1&#45;&gt;Node33</title>
<path fill="none" stroke="midnightblue" d="M2242.38,-313.462C2268.77,-305.948 2306.03,-293.612 2336,-277 2355.37,-266.267 2356.01,-257.384 2375,-246 2397.58,-232.466 2424.97,-220.786 2445.97,-212.719"/>
<polygon fill="midnightblue" stroke="midnightblue" points="2447.29,-215.961 2455.42,-209.166 2444.83,-209.408 2447.29,-215.961"/>
</g>
<!-- Node34 -->
<g id="node34" class="node"><title>Node34</title>
<polygon fill="white" stroke="#bfbfbf" points="2515,-246.5 2515,-276.5 2637,-276.5 2637,-246.5 2515,-246.5"/>
<text text-anchor="start" x="2523" y="-264.5" font-family="Helvetica,sans-Serif" font-size="10.00">boost/algorithm/string</text>
<text text-anchor="middle" x="2576" y="-253.5" font-family="Helvetica,sans-Serif" font-size="10.00">/join.hpp</text>
</g>
<!-- Node1&#45;&gt;Node34 -->
<g id="edge56" class="edge"><title>Node1&#45;&gt;Node34</title>
<path fill="none" stroke="midnightblue" d="M2247.56,-316.835C2302.42,-309.336 2406.4,-294.58 2504.83,-277.152"/>
<polygon fill="midnightblue" stroke="midnightblue" points="2505.72,-280.549 2514.95,-275.347 2504.49,-273.657 2505.72,-280.549"/>
</g>
<!-- Node35 -->
<g id="node35" class="node"><title>Node35</title>
<polygon fill="white" stroke="#bfbfbf" points="2655.5,-246.5 2655.5,-276.5 2770.5,-276.5 2770.5,-246.5 2655.5,-246.5"/>
<text text-anchor="start" x="2663.5" y="-264.5" font-family="Helvetica,sans-Serif" font-size="10.00">boost/range/adaptor</text>
<text text-anchor="middle" x="2713" y="-253.5" font-family="Helvetica,sans-Serif" font-size="10.00">/transformed.hpp</text>
</g>
<!-- Node1&#45;&gt;Node35 -->
<g id="edge57" class="edge"><title>Node1&#45;&gt;Node35</title>
<path fill="none" stroke="midnightblue" d="M2247.77,-319.453C2322.62,-314.225 2492.38,-300.853 2645.29,-276.991"/>
<polygon fill="midnightblue" stroke="midnightblue" points="2646,-280.421 2655.33,-275.404 2644.91,-273.507 2646,-280.421"/>
</g>
<!-- Node36 -->
<g id="node36" class="node"><title>Node36</title>
<g id="a_node36"><a xlink:href="constant_8h.xhtml" target="_top" xlink:title="Constant expressions that cannot have uncertainties. ">
<polygon fill="white" stroke="black" points="1891,-190.5 1891,-209.5 2013,-209.5 2013,-190.5 1891,-190.5"/>
<text text-anchor="middle" x="1952" y="-197.5" font-family="Helvetica,sans-Serif" font-size="10.00">expression/constant.h</text>
</a>
</g>
</g>
<!-- Node1&#45;&gt;Node36 -->
<g id="edge59" class="edge"><title>Node1&#45;&gt;Node36</title>
<path fill="none" stroke="midnightblue" d="M2170.28,-321.526C2126.89,-319.263 2056.09,-310.219 2006,-277 1984.35,-262.642 1968.62,-236.414 1959.9,-218.844"/>
<polygon fill="midnightblue" stroke="midnightblue" points="1963,-217.217 1955.58,-209.654 1956.67,-220.194 1963,-217.217"/>
</g>
<!-- Node37 -->
<g id="node37" class="node"><title>Node37</title>
<g id="a_node37"><a xlink:href="numerical_8h.xhtml" target="_top" xlink:title="A collection of numerical expressions. ">
<polygon fill="white" stroke="black" points="2015,-252 2015,-271 2143,-271 2143,-252 2015,-252"/>
<text text-anchor="middle" x="2079" y="-259" font-family="Helvetica,sans-Serif" font-size="10.00">expression/numerical.h</text>
</a>
</g>
</g>
<!-- Node1&#45;&gt;Node37 -->
<g id="edge61" class="edge"><title>Node1&#45;&gt;Node37</title>
<path fill="none" stroke="midnightblue" d="M2190.37,-313.475C2168.56,-303.49 2132.2,-286.848 2106.98,-275.307"/>
<polygon fill="midnightblue" stroke="midnightblue" points="2108.14,-271.988 2097.59,-271.009 2105.23,-278.353 2108.14,-271.988"/>
</g>
<!-- Node38 -->
<g id="node38" class="node"><title>Node38</title>
<g id="a_node38"><a xlink:href="algorithm_8h.xhtml" target="_top" xlink:title="Helpful algorithm facilities as an extension to the STL or Boost. ">
<polygon fill="white" stroke="black" points="2237.5,-252 2237.5,-271 2326.5,-271 2326.5,-252 2237.5,-252"/>
<text text-anchor="middle" x="2282" y="-259" font-family="Helvetica,sans-Serif" font-size="10.00">ext/algorithm.h</text>
</a>
</g>
</g>
<!-- Node1&#45;&gt;Node38 -->
<g id="edge67" class="edge"><title>Node1&#45;&gt;Node38</title>
<path fill="none" stroke="midnightblue" d="M2219.46,-313.475C2230.95,-304.108 2249.63,-288.884 2263.59,-277.508"/>
<polygon fill="midnightblue" stroke="midnightblue" points="2266.02,-280.04 2271.56,-271.009 2261.6,-274.614 2266.02,-280.04"/>
</g>
<!-- Node40 -->
<g id="node40" class="node"><title>Node40</title>
<g id="a_node40"><a xlink:href="combination_8h.xhtml" target="_top" xlink:title="n&#45;choose&#45;k combination generation facilities from http://howardhinnant.github.io/combinations.html ">
<polygon fill="white" stroke="black" points="2199.5,-73 2199.5,-92 2302.5,-92 2302.5,-73 2199.5,-73"/>
<text text-anchor="middle" x="2251" y="-80" font-family="Helvetica,sans-Serif" font-size="10.00">ext/combination.h</text>
</a>
</g>
</g>
<!-- Node1&#45;&gt;Node40 -->
<g id="edge70" class="edge"><title>Node1&#45;&gt;Node40</title>
<path fill="none" stroke="midnightblue" d="M2210.54,-313.229C2216.66,-278.529 2239.22,-150.392 2247.73,-102.088"/>
<polygon fill="midnightblue" stroke="midnightblue" points="2251.2,-102.555 2249.49,-92.0994 2244.3,-101.341 2251.2,-102.555"/>
</g>
<!-- Node42 -->
<g id="node42" class="node"><title>Node42</title>
<g id="a_node42"><a xlink:href="float__compare_8h.xhtml" target="_top" xlink:title="Floating pointing comparison helper functions. ">
<polygon fill="white" stroke="black" points="2383.5,-252 2383.5,-271 2496.5,-271 2496.5,-252 2383.5,-252"/>
<text text-anchor="middle" x="2440" y="-259" font-family="Helvetica,sans-Serif" font-size="10.00">ext/float_compare.h</text>
</a>
</g>
</g>
<!-- Node1&#45;&gt;Node42 -->
<g id="edge74" class="edge"><title>Node1&#45;&gt;Node42</title>
<path fill="none" stroke="midnightblue" d="M2242.1,-313.475C2282.92,-302.959 2352.41,-285.062 2397.24,-273.514"/>
<polygon fill="midnightblue" stroke="midnightblue" points="2398.15,-276.893 2406.96,-271.009 2396.41,-270.114 2398.15,-276.893"/>
</g>
<!-- Node3 -->
<g id="node3" class="node"><title>Node3</title>
<polygon fill="white" stroke="#bfbfbf" points="543.5,-73 543.5,-92 600.5,-92 600.5,-73 543.5,-73"/>
<text text-anchor="middle" x="572" y="-80" font-family="Helvetica,sans-Serif" font-size="10.00">memory</text>
</g>
<!-- Node2&#45;&gt;Node3 -->
<g id="edge2" class="edge"><title>Node2&#45;&gt;Node3</title>
<path fill="none" stroke="midnightblue" d="M1280.79,-255.62C1192.6,-243.266 960.152,-207.853 772,-154 711.274,-136.619 642.115,-110.871 603.1,-95.7764"/>
<polygon fill="midnightblue" stroke="midnightblue" points="604.211,-92.4531 593.623,-92.0894 601.673,-98.9768 604.211,-92.4531"/>
</g>
<!-- Node4 -->
<g id="node4" class="node"><title>Node4</title>
<polygon fill="white" stroke="#bfbfbf" points="222.5,-73 222.5,-92 277.5,-92 277.5,-73 222.5,-73"/>
<text text-anchor="middle" x="250" y="-80" font-family="Helvetica,sans-Serif" font-size="10.00">optional</text>
</g>
<!-- Node2&#45;&gt;Node4 -->
<g id="edge3" class="edge"><title>Node2&#45;&gt;Node4</title>
<path fill="none" stroke="midnightblue" d="M1280.66,-259.425C1144.84,-255.219 667.293,-238.681 518,-210 439.465,-194.912 418.21,-190.395 347,-154 316.778,-138.554 285.709,-114.189 267.129,-98.529"/>
<polygon fill="midnightblue" stroke="midnightblue" points="269.391,-95.8576 259.519,-92.0099 264.837,-101.174 269.391,-95.8576"/>
</g>
<!-- Node5 -->
<g id="node5" class="node"><title>Node5</title>
<polygon fill="white" stroke="#bfbfbf" points="0,-6 0,-25 44,-25 44,-6 0,-6"/>
<text text-anchor="middle" x="22" y="-13" font-family="Helvetica,sans-Serif" font-size="10.00">string</text>
</g>
<!-- Node2&#45;&gt;Node5 -->
<g id="edge4" class="edge"><title>Node2&#45;&gt;Node5</title>
<path fill="none" stroke="midnightblue" d="M1280.58,-259.871C1135.03,-257.134 595.041,-244.801 428,-210 287.446,-180.717 250.181,-168.305 125,-98 91.5986,-79.2409 57.6782,-50.004 38.3047,-32.1203"/>
<polygon fill="midnightblue" stroke="midnightblue" points="40.6262,-29.4991 30.9363,-25.2146 35.8394,-34.6067 40.6262,-29.4991"/>
</g>
<!-- Node6 -->
<g id="node6" class="node"><title>Node6</title>
<polygon fill="white" stroke="#bfbfbf" points="1489,-73 1489,-92 1557,-92 1557,-73 1489,-73"/>
<text text-anchor="middle" x="1523" y="-80" font-family="Helvetica,sans-Serif" font-size="10.00">type_traits</text>
</g>
<!-- Node2&#45;&gt;Node6 -->
<g id="edge5" class="edge"><title>Node2&#45;&gt;Node6</title>
<path fill="none" stroke="midnightblue" d="M1334.21,-251.755C1365,-235.527 1430.45,-198.34 1475,-154 1491.01,-138.062 1504.99,-116.079 1513.67,-100.918"/>
<polygon fill="midnightblue" stroke="midnightblue" points="1516.78,-102.515 1518.57,-92.0727 1510.66,-99.1197 1516.78,-102.515"/>
</g>
<!-- Node2&#45;&gt;Node7 -->
<g id="edge6" class="edge"><title>Node2&#45;&gt;Node7</title>
<path fill="none" stroke="midnightblue" d="M1353.12,-258.717C1408.19,-254.981 1515.63,-243.655 1600,-210 1709.28,-166.408 1816.29,-70.2657 1855.91,-32.3346"/>
<polygon fill="midnightblue" stroke="midnightblue" points="1858.37,-34.8293 1863.12,-25.36 1853.5,-29.799 1858.37,-34.8293"/>
</g>
<!-- Node8 -->
<g id="node8" class="node"><title>Node8</title>
<polygon fill="white" stroke="#bfbfbf" points="1535.5,-6 1535.5,-25 1582.5,-25 1582.5,-6 1535.5,-6"/>
<text text-anchor="middle" x="1559" y="-13" font-family="Helvetica,sans-Serif" font-size="10.00">vector</text>
</g>
<!-- Node2&#45;&gt;Node8 -->
<g id="edge7" class="edge"><title>Node2&#45;&gt;Node8</title>
<path fill="none" stroke="midnightblue" d="M1353.28,-258.289C1434.31,-251.162 1629.35,-221.366 1712,-98 1743.41,-51.118 1646.73,-29.1908 1592.75,-20.813"/>
<polygon fill="midnightblue" stroke="midnightblue" points="1592.97,-17.3086 1582.57,-19.3147 1591.95,-24.2339 1592.97,-17.3086"/>
</g>
<!-- Node9 -->
<g id="node9" class="node"><title>Node9</title>
<g id="a_node9"><a xlink:href="element_8h.xhtml" target="_top" xlink:title="Base/mixin classes, structs, and properties common to all MEF classes/constructs. ...">
<polygon fill="white" stroke="black" points="781.5,-134.5 781.5,-153.5 846.5,-153.5 846.5,-134.5 781.5,-134.5"/>
<text text-anchor="middle" x="814" y="-141.5" font-family="Helvetica,sans-Serif" font-size="10.00">element.h</text>
</a>
</g>
</g>
<!-- Node2&#45;&gt;Node9 -->
<g id="edge8" class="edge"><title>Node2&#45;&gt;Node9</title>
<path fill="none" stroke="midnightblue" d="M1280.83,-252.194C1190.1,-231.362 953.253,-176.976 856.304,-154.714"/>
<polygon fill="midnightblue" stroke="midnightblue" points="857.079,-151.301 846.549,-152.474 855.512,-158.123 857.079,-151.301"/>
</g>
<!-- Node29 -->
<g id="node29" class="node"><title>Node29</title>
<g id="a_node29"><a xlink:href="event_8h.xhtml" target="_top" xlink:title="Contains event classes for fault trees. ">
<polygon fill="white" stroke="black" points="527.5,-190.5 527.5,-209.5 580.5,-209.5 580.5,-190.5 527.5,-190.5"/>
<text text-anchor="middle" x="554" y="-197.5" font-family="Helvetica,sans-Serif" font-size="10.00">event.h</text>
</a>
</g>
</g>
<!-- Node2&#45;&gt;Node29 -->
<g id="edge37" class="edge"><title>Node2&#45;&gt;Node29</title>
<path fill="none" stroke="midnightblue" d="M1280.78,-257.787C1181.71,-250.348 897.902,-228.923 662,-210 638.255,-208.095 611.58,-205.873 590.682,-204.114"/>
<polygon fill="midnightblue" stroke="midnightblue" points="590.885,-200.618 580.626,-203.265 590.297,-207.594 590.885,-200.618"/>
</g>
<!-- Node31 -->
<g id="node31" class="node"><title>Node31</title>
<g id="a_node31"><a xlink:href="expression_8h.xhtml" target="_top" xlink:title="Provides the base class for all expressions and units for expression values. ">
<polygon fill="white" stroke="black" points="1852.5,-134.5 1852.5,-153.5 1929.5,-153.5 1929.5,-134.5 1852.5,-134.5"/>
<text text-anchor="middle" x="1891" y="-141.5" font-family="Helvetica,sans-Serif" font-size="10.00">expression.h</text>
</a>
</g>
</g>
<!-- Node2&#45;&gt;Node31 -->
<g id="edge53" class="edge"><title>Node2&#45;&gt;Node31</title>
<path fill="none" stroke="midnightblue" d="M1353.25,-258.593C1448.38,-253.269 1703.28,-236.85 1783,-210 1816.96,-198.561 1851.67,-175.158 1872.27,-159.778"/>
<polygon fill="midnightblue" stroke="midnightblue" points="1874.61,-162.392 1880.44,-153.543 1870.37,-156.827 1874.61,-162.392"/>
</g>
<!-- Node9&#45;&gt;Node3 -->
<g id="edge11" class="edge"><title>Node9&#45;&gt;Node3</title>
<path fill="none" stroke="midnightblue" d="M781.471,-137.358C740.892,-129.97 669.588,-115.835 610,-98 607.425,-97.2293 604.776,-96.3673 602.131,-95.4581"/>
<polygon fill="midnightblue" stroke="midnightblue" points="603.31,-92.1624 592.716,-92.0378 600.92,-98.7418 603.31,-92.1624"/>
</g>
<!-- Node9&#45;&gt;Node4 -->
<g id="edge12" class="edge"><title>Node9&#45;&gt;Node4</title>
<path fill="none" stroke="midnightblue" d="M781.215,-142.96C698.312,-142.259 473.959,-136.633 292,-98 288.498,-97.2565 284.886,-96.3061 281.318,-95.2482"/>
<polygon fill="midnightblue" stroke="midnightblue" points="282.102,-91.8231 271.51,-92.0649 279.941,-98.4811 282.102,-91.8231"/>
</g>
<!-- Node9&#45;&gt;Node5 -->
<g id="edge13" class="edge"><title>Node9&#45;&gt;Node5</title>
<path fill="none" stroke="midnightblue" d="M781.382,-142.416C685.882,-140.327 408.372,-131.463 325,-98 304.451,-89.7524 306.285,-75.8758 286,-67 190.003,-24.9967 153.246,-61.5053 53,-31 51.1242,-30.4292 49.2169,-29.7646 47.3174,-29.0399"/>
<polygon fill="midnightblue" stroke="midnightblue" points="48.6363,-25.7973 38.0664,-25.0712 45.8765,-32.2303 48.6363,-25.7973"/>
</g>
<!-- Node9&#45;&gt;Node6 -->
<g id="edge15" class="edge"><title>Node9&#45;&gt;Node6</title>
<path fill="none" stroke="midnightblue" d="M846.808,-141.871C940.189,-138.396 1215.31,-126.331 1442,-98 1453.95,-96.5064 1466.81,-94.424 1478.69,-92.3026"/>
<polygon fill="midnightblue" stroke="midnightblue" points="1479.63,-95.6897 1488.83,-90.4422 1478.37,-88.8046 1479.63,-95.6897"/>
</g>
<!-- Node9&#45;&gt;Node8 -->
<g id="edge16" class="edge"><title>Node9&#45;&gt;Node8</title>
<path fill="none" stroke="midnightblue" d="M808.701,-134.393C799.829,-118.767 784.57,-85.6316 802,-67 827.047,-40.2267 1381.28,-21.8212 1525.13,-17.4833"/>
<polygon fill="midnightblue" stroke="midnightblue" points="1525.26,-20.9812 1535.15,-17.1841 1525.05,-13.9844 1525.26,-20.9812"/>
</g>
<!-- Node10 -->
<g id="node10" class="node"><title>Node10</title>
<polygon fill="white" stroke="#bfbfbf" points="476.5,-73 476.5,-92 525.5,-92 525.5,-73 476.5,-73"/>
<text text-anchor="middle" x="501" y="-80" font-family="Helvetica,sans-Serif" font-size="10.00">cstdint</text>
</g>
<!-- Node9&#45;&gt;Node10 -->
<g id="edge9" class="edge"><title>Node9&#45;&gt;Node10</title>
<path fill="none" stroke="midnightblue" d="M781.495,-140.479C728.687,-135.787 621.367,-123.756 534,-98 531.854,-97.3674 529.664,-96.6287 527.484,-95.8259"/>
<polygon fill="midnightblue" stroke="midnightblue" points="528.74,-92.5582 518.158,-92.026 526.098,-99.0407 528.74,-92.5582"/>
</g>
<!-- Node11 -->
<g id="node11" class="node"><title>Node11</title>
<polygon fill="white" stroke="#bfbfbf" points="2041.5,-73 2041.5,-92 2104.5,-92 2104.5,-73 2041.5,-73"/>
<text text-anchor="middle" x="2073" y="-80" font-family="Helvetica,sans-Serif" font-size="10.00">functional</text>
</g>
<!-- Node9&#45;&gt;Node11 -->
<g id="edge10" class="edge"><title>Node9&#45;&gt;Node11</title>
<path fill="none" stroke="midnightblue" d="M846.765,-142.714C982.998,-141.314 1517.96,-133.711 1956,-98 1981.01,-95.9613 2008.89,-92.5502 2031.17,-89.5486"/>
<polygon fill="midnightblue" stroke="midnightblue" points="2031.86,-92.9862 2041.29,-88.1604 2030.91,-86.0511 2031.86,-92.9862"/>
</g>
<!-- Node12 -->
<g id="node12" class="node"><title>Node12</title>
<polygon fill="white" stroke="#bfbfbf" points="811.5,-73 811.5,-92 880.5,-92 880.5,-73 811.5,-73"/>
<text text-anchor="middle" x="846" y="-80" font-family="Helvetica,sans-Serif" font-size="10.00">string_view</text>
</g>
<!-- Node9&#45;&gt;Node12 -->
<g id="edge14" class="edge"><title>Node9&#45;&gt;Node12</title>
<path fill="none" stroke="midnightblue" d="M818.585,-134.475C823.242,-125.815 830.592,-112.149 836.51,-101.145"/>
<polygon fill="midnightblue" stroke="midnightblue" points="839.77,-102.474 841.424,-92.0091 833.605,-99.1584 839.77,-102.474"/>
</g>
<!-- Node13 -->
<g id="node13" class="node"><title>Node13</title>
<polygon fill="white" stroke="#bfbfbf" points="899,-67.5 899,-97.5 1019,-97.5 1019,-67.5 899,-67.5"/>
<text text-anchor="start" x="907" y="-85.5" font-family="Helvetica,sans-Serif" font-size="10.00">boost/iterator/iterator</text>
<text text-anchor="middle" x="959" y="-74.5" font-family="Helvetica,sans-Serif" font-size="10.00">_facade.hpp</text>
</g>
<!-- Node9&#45;&gt;Node13 -->
<g id="edge17" class="edge"><title>Node9&#45;&gt;Node13</title>
<path fill="none" stroke="midnightblue" d="M834.775,-134.475C855.698,-125.889 888.614,-112.383 915.307,-101.429"/>
<polygon fill="midnightblue" stroke="midnightblue" points="916.904,-104.557 924.826,-97.523 914.246,-98.0813 916.904,-104.557"/>
</g>
<!-- Node14 -->
<g id="node14" class="node"><title>Node14</title>
<polygon fill="white" stroke="#bfbfbf" points="1037,-67.5 1037,-97.5 1177,-97.5 1177,-67.5 1037,-67.5"/>
<text text-anchor="start" x="1045" y="-85.5" font-family="Helvetica,sans-Serif" font-size="10.00">boost/multi_index/hashed</text>
<text text-anchor="middle" x="1107" y="-74.5" font-family="Helvetica,sans-Serif" font-size="10.00">_index.hpp</text>
</g>
<!-- Node9&#45;&gt;Node14 -->
<g id="edge18" class="edge"><title>Node9&#45;&gt;Node14</title>
<path fill="none" stroke="midnightblue" d="M846.758,-136.348C890.237,-127.519 968.423,-111.641 1027.78,-99.5869"/>
<polygon fill="midnightblue" stroke="midnightblue" points="1028.78,-102.955 1037.88,-97.5353 1027.39,-96.0955 1028.78,-102.955"/>
</g>
<!-- Node15 -->
<g id="node15" class="node"><title>Node15</title>
<polygon fill="white" stroke="#bfbfbf" points="1195,-67.5 1195,-97.5 1325,-97.5 1325,-67.5 1195,-67.5"/>
<text text-anchor="start" x="1203" y="-85.5" font-family="Helvetica,sans-Serif" font-size="10.00">boost/multi_index/mem</text>
<text text-anchor="middle" x="1260" y="-74.5" font-family="Helvetica,sans-Serif" font-size="10.00">_fun.hpp</text>
</g>
<!-- Node9&#45;&gt;Node15 -->
<g id="edge19" class="edge"><title>Node9&#45;&gt;Node15</title>
<path fill="none" stroke="midnightblue" d="M846.955,-139.831C910.337,-133.56 1053.82,-118.515 1184.49,-98.1697"/>
<polygon fill="midnightblue" stroke="midnightblue" points="1185.34,-101.579 1194.68,-96.5688 1184.25,-94.664 1185.34,-101.579"/>
</g>
<!-- Node16 -->
<g id="node16" class="node"><title>Node16</title>
<polygon fill="white" stroke="#bfbfbf" points="986,-6 986,-25 1158,-25 1158,-6 986,-6"/>
<text text-anchor="middle" x="1072" y="-13" font-family="Helvetica,sans-Serif" font-size="10.00">boost/multi_index_container.hpp</text>
</g>
<!-- Node9&#45;&gt;Node16 -->
<g id="edge20" class="edge"><title>Node9&#45;&gt;Node16</title>
<path fill="none" stroke="midnightblue" d="M802.217,-134.418C783.37,-119.673 750.366,-88.9961 769,-67 772.827,-62.4819 917.261,-39.9148 1005.31,-26.5251"/>
<polygon fill="midnightblue" stroke="midnightblue" points="1005.86,-29.9809 1015.23,-25.0194 1004.81,-23.0602 1005.86,-29.9809"/>
</g>
<!-- Node17 -->
<g id="node17" class="node"><title>Node17</title>
<polygon fill="white" stroke="#bfbfbf" points="1575,-73 1575,-92 1703,-92 1703,-73 1575,-73"/>
<text text-anchor="middle" x="1639" y="-80" font-family="Helvetica,sans-Serif" font-size="10.00">boost/noncopyable.hpp</text>
</g>
<!-- Node9&#45;&gt;Node17 -->
<g id="edge21" class="edge"><title>Node9&#45;&gt;Node17</title>
<path fill="none" stroke="midnightblue" d="M846.765,-142.631C951.796,-141.109 1289.37,-133.582 1566,-98 1574.2,-96.9453 1582.86,-95.512 1591.24,-93.9552"/>
<polygon fill="midnightblue" stroke="midnightblue" points="1592.12,-97.3499 1601.27,-92.0123 1590.79,-90.4777 1592.12,-97.3499"/>
</g>
<!-- Node9&#45;&gt;Node18 -->
<g id="edge22" class="edge"><title>Node9&#45;&gt;Node18</title>
<path fill="none" stroke="midnightblue" d="M781.464,-138.817C720.008,-130.908 582.642,-113.19 467,-98 441.95,-94.7096 413.67,-90.9461 392.193,-88.0779"/>
<polygon fill="midnightblue" stroke="midnightblue" points="392.616,-84.6035 382.241,-86.7479 391.689,-91.5418 392.616,-84.6035"/>
</g>
<!-- Node25 -->
<g id="node25" class="node"><title>Node25</title>
<g id="a_node25"><a xlink:href="linear__set_8h.xhtml" target="_top" xlink:title="Implementation of a vector&#45;based set for a small number of entries. ">
<polygon fill="white" stroke="black" points="1343,-73 1343,-92 1433,-92 1433,-73 1343,-73"/>
<text text-anchor="middle" x="1388" y="-80" font-family="Helvetica,sans-Serif" font-size="10.00">ext/linear_set.h</text>
</a>
</g>
</g>
<!-- Node9&#45;&gt;Node25 -->
<g id="edge30" class="edge"><title>Node9&#45;&gt;Node25</title>
<path fill="none" stroke="midnightblue" d="M846.509,-142.171C928.747,-139.647 1151.5,-130.141 1334,-98 1339.18,-97.0869 1344.6,-95.9099 1349.91,-94.6218"/>
<polygon fill="midnightblue" stroke="midnightblue" points="1351.09,-97.9305 1359.9,-92.0479 1349.35,-91.1515 1351.09,-97.9305"/>
</g>
<!-- Node28 -->
<g id="node28" class="node"><title>Node28</title>
<g id="a_node28"><a xlink:href="multi__index_8h.xhtml" target="_top" xlink:title="Helper functions to boost multi_index_container. ">
<polygon fill="white" stroke="black" points="619,-73 619,-92 717,-92 717,-73 619,-73"/>
<text text-anchor="middle" x="668" y="-80" font-family="Helvetica,sans-Serif" font-size="10.00">ext/multi_index.h</text>
</a>
</g>
</g>
<!-- Node9&#45;&gt;Node28 -->
<g id="edge35" class="edge"><title>Node9&#45;&gt;Node28</title>
<path fill="none" stroke="midnightblue" d="M793.082,-134.475C768.254,-124.357 726.657,-107.405 698.306,-95.8507"/>
<polygon fill="midnightblue" stroke="midnightblue" points="699.461,-92.5419 688.879,-92.0091 696.819,-99.0243 699.461,-92.5419"/>
</g>
<!-- Node18&#45;&gt;Node5 -->
<g id="edge24" class="edge"><title>Node18&#45;&gt;Node5</title>
<path fill="none" stroke="midnightblue" d="M338.164,-72.9428C332.394,-70.7254 326.022,-68.533 320,-67 203.961,-37.4599 167.884,-64.754 53,-31 51.1188,-30.4473 49.2075,-29.7961 47.305,-29.0811"/>
<polygon fill="midnightblue" stroke="midnightblue" points="48.6193,-25.8366 38.0478,-25.1335 45.8735,-32.2756 48.6193,-25.8366"/>
</g>
<!-- Node19 -->
<g id="node19" class="node"><title>Node19</title>
<polygon fill="white" stroke="#bfbfbf" points="62.5,-6 62.5,-25 125.5,-25 125.5,-6 62.5,-6"/>
<text text-anchor="middle" x="94" y="-13" font-family="Helvetica,sans-Serif" font-size="10.00">exception</text>
</g>
<!-- Node18&#45;&gt;Node19 -->
<g id="edge23" class="edge"><title>Node18&#45;&gt;Node19</title>
<path fill="none" stroke="midnightblue" d="M337.312,-72.8661C331.755,-70.7512 325.703,-68.6298 320,-67 239.46,-43.9833 215.817,-53.0245 135,-31 132.036,-30.1923 128.979,-29.275 125.932,-28.3035"/>
<polygon fill="midnightblue" stroke="midnightblue" points="126.962,-24.957 116.367,-25.0828 124.728,-31.591 126.962,-24.957"/>
</g>
<!-- Node20 -->
<g id="node20" class="node"><title>Node20</title>
<polygon fill="white" stroke="#bfbfbf" points="144,-6 144,-25 290,-25 290,-6 144,-6"/>
<text text-anchor="middle" x="217" y="-13" font-family="Helvetica,sans-Serif" font-size="10.00">boost/current_function.hpp</text>
</g>
<!-- Node18&#45;&gt;Node20 -->
<g id="edge25" class="edge"><title>Node18&#45;&gt;Node20</title>
<path fill="none" stroke="midnightblue" d="M339.276,-72.8685C315.152,-61.7476 273.002,-42.3167 245.045,-29.4286"/>
<polygon fill="midnightblue" stroke="midnightblue" points="246.348,-26.1752 235.801,-25.1672 243.417,-32.5323 246.348,-26.1752"/>
</g>
<!-- Node21 -->
<g id="node21" class="node"><title>Node21</title>
<polygon fill="white" stroke="#bfbfbf" points="308,-6 308,-25 472,-25 472,-6 308,-6"/>
<text text-anchor="middle" x="390" y="-13" font-family="Helvetica,sans-Serif" font-size="10.00">boost/exception/exception.hpp</text>
</g>
<!-- Node18&#45;&gt;Node21 -->
<g id="edge26" class="edge"><title>Node18&#45;&gt;Node21</title>
<path fill="none" stroke="midnightblue" d="M362.316,-72.7338C367.162,-62.8903 375.152,-46.6598 381.306,-34.1594"/>
<polygon fill="midnightblue" stroke="midnightblue" points="384.476,-35.6449 385.753,-25.1273 378.196,-32.5531 384.476,-35.6449"/>
</g>
<!-- Node22 -->
<g id="node22" class="node"><title>Node22</title>
<polygon fill="white" stroke="#bfbfbf" points="490,-6 490,-25 624,-25 624,-6 490,-6"/>
<text text-anchor="middle" x="557" y="-13" font-family="Helvetica,sans-Serif" font-size="10.00">boost/exception/info.hpp</text>
</g>
<!-- Node18&#45;&gt;Node22 -->
<g id="edge27" class="edge"><title>Node18&#45;&gt;Node22</title>
<path fill="none" stroke="midnightblue" d="M379.62,-72.9907C384.952,-70.9641 390.664,-68.8531 396,-67 437.505,-52.5867 485.64,-37.728 518.389,-27.8933"/>
<polygon fill="midnightblue" stroke="midnightblue" points="519.457,-31.2272 528.035,-25.0084 517.451,-24.5208 519.457,-31.2272"/>
</g>
<!-- Node23 -->
<g id="node23" class="node"><title>Node23</title>
<polygon fill="white" stroke="#bfbfbf" points="642.5,-0.5 642.5,-30.5 755.5,-30.5 755.5,-0.5 642.5,-0.5"/>
<text text-anchor="start" x="650.5" y="-18.5" font-family="Helvetica,sans-Serif" font-size="10.00">boost/exception/info</text>
<text text-anchor="middle" x="699" y="-7.5" font-family="Helvetica,sans-Serif" font-size="10.00">_tuple.hpp</text>
</g>
<!-- Node18&#45;&gt;Node23 -->
<g id="edge28" class="edge"><title>Node18&#45;&gt;Node23</title>
<path fill="none" stroke="midnightblue" d="M378.247,-72.8567C383.913,-70.6914 390.128,-68.5473 396,-67 495.906,-40.6755 526.41,-49.8348 632.049,-31.0744"/>
<polygon fill="midnightblue" stroke="midnightblue" points="632.954,-34.4672 642.166,-29.2339 631.701,-27.5802 632.954,-34.4672"/>
</g>
<!-- Node24 -->
<g id="node24" class="node"><title>Node24</title>
<g id="a_node24"><a xlink:href="source__info_8h.xhtml" target="_top" xlink:title="Helper facilities to get source file information. ">
<polygon fill="white" stroke="black" points="774,-6 774,-25 872,-25 872,-6 774,-6"/>
<text text-anchor="middle" x="823" y="-13" font-family="Helvetica,sans-Serif" font-size="10.00">ext/source_info.h</text>
</a>
</g>
</g>
<!-- Node18&#45;&gt;Node24 -->
<g id="edge29" class="edge"><title>Node18&#45;&gt;Node24</title>
<path fill="none" stroke="midnightblue" d="M377.409,-72.9519C383.281,-70.6793 389.814,-68.4551 396,-67 555.97,-29.3717 602.012,-58.6815 764,-31 769.861,-29.9984 776.002,-28.7347 782.016,-27.373"/>
<polygon fill="midnightblue" stroke="midnightblue" points="783.021,-30.7317 791.943,-25.0178 781.405,-23.9208 783.021,-30.7317"/>
</g>
<!-- Node25&#45;&gt;Node7 -->
<g id="edge33" class="edge"><title>Node25&#45;&gt;Node7</title>
<path fill="none" stroke="midnightblue" d="M1419.69,-72.9538C1428.49,-70.7889 1438.07,-68.6207 1447,-67 1593.03,-40.483 1769.92,-24.6017 1840.61,-18.9025"/>
<polygon fill="midnightblue" stroke="midnightblue" points="1840.94,-22.3868 1850.64,-18.1052 1840.39,-15.4089 1840.94,-22.3868"/>
</g>
<!-- Node25&#45;&gt;Node8 -->
<g id="edge34" class="edge"><title>Node25&#45;&gt;Node8</title>
<path fill="none" stroke="midnightblue" d="M1410.71,-72.8685C1440.56,-61.5219 1493.17,-41.5246 1527.03,-28.6522"/>
<polygon fill="midnightblue" stroke="midnightblue" points="1528.37,-31.8885 1536.47,-25.0637 1525.88,-25.3452 1528.37,-31.8885"/>
</g>
<!-- Node26 -->
<g id="node26" class="node"><title>Node26</title>
<polygon fill="white" stroke="#bfbfbf" points="2063,-6 2063,-25 2125,-25 2125,-6 2063,-6"/>
<text text-anchor="middle" x="2094" y="-13" font-family="Helvetica,sans-Serif" font-size="10.00">algorithm</text>
</g>
<!-- Node25&#45;&gt;Node26 -->
<g id="edge31" class="edge"><title>Node25&#45;&gt;Node26</title>
<path fill="none" stroke="midnightblue" d="M1433.3,-73.6758C1448.15,-71.2943 1464.75,-68.8266 1480,-67 1536.55,-60.2271 1924.1,-29.7616 2052.66,-19.7208"/>
<polygon fill="midnightblue" stroke="midnightblue" points="2053.18,-23.1911 2062.87,-18.9234 2052.63,-16.2124 2053.18,-23.1911"/>
</g>
<!-- Node27 -->
<g id="node27" class="node"><title>Node27</title>
<polygon fill="white" stroke="#bfbfbf" points="890.5,-6 890.5,-25 967.5,-25 967.5,-6 890.5,-6"/>
<text text-anchor="middle" x="929" y="-13" font-family="Helvetica,sans-Serif" font-size="10.00">initializer_list</text>
</g>
<!-- Node25&#45;&gt;Node27 -->
<g id="edge32" class="edge"><title>Node25&#45;&gt;Node27</title>
<path fill="none" stroke="midnightblue" d="M1359.61,-72.9534C1351.41,-70.7362 1342.4,-68.5412 1334,-67 1177.15,-38.2278 1133.39,-62.2027 977,-31 972.774,-30.1569 968.388,-29.0977 964.061,-27.9375"/>
<polygon fill="midnightblue" stroke="midnightblue" points="964.755,-24.4954 954.178,-25.1012 962.824,-31.2238 964.755,-24.4954"/>
</g>
<!-- Node28&#45;&gt;Node16 -->
<g id="edge36" class="edge"><title>Node28&#45;&gt;Node16</title>
<path fill="none" stroke="midnightblue" d="M702.885,-72.9452C712.004,-70.8533 721.845,-68.7232 731,-67 839.159,-46.6409 867.143,-47.2185 976,-31 985.69,-29.5562 995.929,-28.0206 1005.97,-26.5092"/>
<polygon fill="midnightblue" stroke="midnightblue" points="1006.55,-29.9617 1015.91,-25.0102 1005.5,-23.0399 1006.55,-29.9617"/>
</g>
<!-- Node29&#45;&gt;Node3 -->
<g id="edge40" class="edge"><title>Node29&#45;&gt;Node3</title>
<path fill="none" stroke="midnightblue" d="M557.446,-190.196C560.782,-181.239 565.667,-166.881 568,-154 571.137,-136.676 572.013,-116.603 572.178,-102.317"/>
<polygon fill="midnightblue" stroke="midnightblue" points="575.678,-102.267 572.187,-92.2633 568.678,-102.26 575.678,-102.267"/>
</g>
<!-- Node29&#45;&gt;Node4 -->
<g id="edge41" class="edge"><title>Node29&#45;&gt;Node4</title>
<path fill="none" stroke="midnightblue" d="M527.267,-192.881C495.477,-185.265 441.049,-171.145 396,-154 351.802,-137.179 302.734,-112.072 274.224,-96.7997"/>
<polygon fill="midnightblue" stroke="midnightblue" points="275.843,-93.6959 265.381,-92.0236 272.516,-99.8551 275.843,-93.6959"/>
</g>
<!-- Node29&#45;&gt;Node5 -->
<g id="edge42" class="edge"><title>Node29&#45;&gt;Node5</title>
<path fill="none" stroke="midnightblue" d="M527.459,-194.822C487.682,-188.206 410.495,-173.987 347,-154 232.569,-117.98 103.048,-56.6171 48.4708,-29.7543"/>
<polygon fill="midnightblue" stroke="midnightblue" points="49.6877,-26.4515 39.1727,-25.1538 46.5835,-32.7255 49.6877,-26.4515"/>
</g>
<!-- Node29&#45;&gt;Node7 -->
<g id="edge43" class="edge"><title>Node29&#45;&gt;Node7</title>
<path fill="none" stroke="midnightblue" d="M580.637,-197.986C710.803,-192.73 1280.25,-166.154 1442,-98 1462.09,-89.5369 1459.98,-75.6122 1480,-67 1545,-39.0411 1759.69,-23.3549 1840.69,-18.3132"/>
<polygon fill="midnightblue" stroke="midnightblue" points="1841,-21.801 1850.77,-17.6983 1840.58,-14.814 1841,-21.801"/>
</g>
<!-- Node29&#45;&gt;Node8 -->
<g id="edge45" class="edge"><title>Node29&#45;&gt;Node8</title>
<path fill="none" stroke="midnightblue" d="M553.581,-190.446C552.506,-177.009 548.672,-150.765 535,-134 513.388,-107.499 484.639,-127.296 467,-98 459.893,-86.1965 457.485,-76.9648 467,-67 476.377,-57.1797 1342.32,-24.5358 1525.29,-17.7443"/>
<polygon fill="midnightblue" stroke="midnightblue" points="1525.53,-21.2377 1535.4,-17.3696 1525.28,-14.2425 1525.53,-21.2377"/>
</g>
<!-- Node29&#45;&gt;Node9 -->
<g id="edge46" class="edge"><title>Node29&#45;&gt;Node9</title>
<path fill="none" stroke="midnightblue" d="M580.845,-193.424C625.944,-184.058 717.271,-165.09 771.27,-153.875"/>
<polygon fill="midnightblue" stroke="midnightblue" points="772.144,-157.268 781.223,-151.808 770.72,-150.414 772.144,-157.268"/>
</g>
<!-- Node29&#45;&gt;Node10 -->
<g id="edge38" class="edge"><title>Node29&#45;&gt;Node10</title>
<path fill="none" stroke="midnightblue" d="M527.183,-193.087C506.753,-187.022 479.996,-175.354 467,-154 456.032,-135.979 470.872,-113.887 484.25,-99.2898"/>
<polygon fill="midnightblue" stroke="midnightblue" points="486.867,-101.62 491.36,-92.0247 481.864,-96.7241 486.867,-101.62"/>
</g>
<!-- Node29&#45;&gt;Node27 -->
<g id="edge39" class="edge"><title>Node29&#45;&gt;Node27</title>
<path fill="none" stroke="midnightblue" d="M527.134,-191.622C506.531,-184.783 478.568,-172.789 460,-154 431.633,-125.296 406.633,-96.6596 434,-67 467.79,-30.3797 832.04,-40.2569 881,-31 885.451,-30.1585 890.075,-29.0601 894.618,-27.844"/>
<polygon fill="midnightblue" stroke="midnightblue" points="895.695,-31.1763 904.337,-25.0476 893.759,-24.4492 895.695,-31.1763"/>
</g>
<!-- Node30 -->
<g id="node30" class="node"><title>Node30</title>
<polygon fill="white" stroke="#bfbfbf" points="476,-134.5 476,-153.5 526,-153.5 526,-134.5 476,-134.5"/>
<text text-anchor="middle" x="501" y="-141.5" font-family="Helvetica,sans-Serif" font-size="10.00">variant</text>
</g>
<!-- Node29&#45;&gt;Node30 -->
<g id="edge44" class="edge"><title>Node29&#45;&gt;Node30</title>
<path fill="none" stroke="midnightblue" d="M545.248,-190.083C537.53,-182.22 526.095,-170.569 516.783,-161.081"/>
<polygon fill="midnightblue" stroke="midnightblue" points="519.092,-158.436 509.589,-153.751 514.096,-163.34 519.092,-158.436"/>
</g>
<!-- Node29&#45;&gt;Node31 -->
<g id="edge47" class="edge"><title>Node29&#45;&gt;Node31</title>
<path fill="none" stroke="midnightblue" d="M580.707,-197.921C745.558,-191.263 1624.78,-155.752 1842.3,-146.967"/>
<polygon fill="midnightblue" stroke="midnightblue" points="1842.6,-150.458 1852.45,-146.557 1842.32,-143.463 1842.6,-150.458"/>
</g>
<!-- Node31&#45;&gt;Node7 -->
<g id="edge49" class="edge"><title>Node31&#45;&gt;Node7</title>
<path fill="none" stroke="midnightblue" d="M1912.81,-134.447C1927.94,-127.221 1946.95,-115.264 1956,-98 1962.39,-85.7959 1962.78,-78.9924 1956,-67 1944.66,-46.9463 1921.82,-33.9788 1902.81,-26.2114"/>
<polygon fill="midnightblue" stroke="midnightblue" points="1903.9,-22.8796 1893.3,-22.6136 1901.42,-29.4265 1903.9,-22.8796"/>
</g>
<!-- Node31&#45;&gt;Node8 -->
<g id="edge50" class="edge"><title>Node31&#45;&gt;Node8</title>
<path fill="none" stroke="midnightblue" d="M1876.97,-134.391C1851.5,-119.054 1795.57,-86.7617 1745,-67 1693.3,-46.795 1630.49,-31.5691 1592.69,-23.3545"/>
<polygon fill="midnightblue" stroke="midnightblue" points="1593.23,-19.8912 1582.72,-21.2252 1591.77,-26.7368 1593.23,-19.8912"/>
</g>
<!-- Node31&#45;&gt;Node17 -->
<g id="edge52" class="edge"><title>Node31&#45;&gt;Node17</title>
<path fill="none" stroke="midnightblue" d="M1854.89,-134.475C1810.17,-123.915 1733.92,-105.911 1685.03,-94.3689"/>
<polygon fill="midnightblue" stroke="midnightblue" points="1685.58,-90.9007 1675.04,-92.0091 1683.97,-97.7134 1685.58,-90.9007"/>
</g>
<!-- Node31&#45;&gt;Node26 -->
<g id="edge48" class="edge"><title>Node31&#45;&gt;Node26</title>
<path fill="none" stroke="midnightblue" d="M1907.59,-134.466C1924.33,-125.719 1950.81,-111.521 1973,-98 2009.25,-75.9103 2049.89,-47.8146 2073.64,-31.0434"/>
<polygon fill="midnightblue" stroke="midnightblue" points="2075.74,-33.8459 2081.87,-25.2063 2071.69,-28.1359 2075.74,-33.8459"/>
</g>
<!-- Node32 -->
<g id="node32" class="node"><title>Node32</title>
<polygon fill="white" stroke="#bfbfbf" points="1835,-67.5 1835,-97.5 1947,-97.5 1947,-67.5 1835,-67.5"/>
<text text-anchor="start" x="1843" y="-85.5" font-family="Helvetica,sans-Serif" font-size="10.00">boost/icl/continuous</text>
<text text-anchor="middle" x="1891" y="-74.5" font-family="Helvetica,sans-Serif" font-size="10.00">_interval.hpp</text>
</g>
<!-- Node31&#45;&gt;Node32 -->
<g id="edge51" class="edge"><title>Node31&#45;&gt;Node32</title>
<path fill="none" stroke="midnightblue" d="M1891,-134.475C1891,-127.471 1891,-117.192 1891,-107.696"/>
<polygon fill="midnightblue" stroke="midnightblue" points="1894.5,-107.523 1891,-97.523 1887.5,-107.523 1894.5,-107.523"/>
</g>
<!-- Node36&#45;&gt;Node31 -->
<g id="edge60" class="edge"><title>Node36&#45;&gt;Node31</title>
<path fill="none" stroke="midnightblue" d="M1942.2,-190.324C1933.18,-182.341 1919.59,-170.313 1908.68,-160.653"/>
<polygon fill="midnightblue" stroke="midnightblue" points="1910.79,-157.842 1900.98,-153.834 1906.15,-163.083 1910.79,-157.842"/>
</g>
<!-- Node37&#45;&gt;Node8 -->
<g id="edge64" class="edge"><title>Node37&#45;&gt;Node8</title>
<path fill="none" stroke="midnightblue" d="M2084.94,-251.792C2104.62,-221.772 2163.72,-121.453 2114,-67 2096.33,-47.6439 1710.78,-24.8658 1592.92,-18.3336"/>
<polygon fill="midnightblue" stroke="midnightblue" points="1592.86,-14.8252 1582.68,-17.77 1592.47,-21.8146 1592.86,-14.8252"/>
</g>
<!-- Node37&#45;&gt;Node11 -->
<g id="edge63" class="edge"><title>Node37&#45;&gt;Node11</title>
<path fill="none" stroke="midnightblue" d="M2078.71,-251.963C2077.79,-224.928 2074.94,-140.739 2073.65,-102.609"/>
<polygon fill="midnightblue" stroke="midnightblue" points="2077.14,-102.244 2073.3,-92.3684 2070.14,-102.481 2077.14,-102.244"/>
</g>
<!-- Node37&#45;&gt;Node31 -->
<g id="edge66" class="edge"><title>Node37&#45;&gt;Node31</title>
<path fill="none" stroke="midnightblue" d="M2074.2,-251.812C2065.62,-237.038 2046.24,-206.973 2022,-190 1997.37,-172.754 1965.55,-161.62 1939.44,-154.742"/>
<polygon fill="midnightblue" stroke="midnightblue" points="1940.29,-151.347 1929.74,-152.31 1938.59,-158.136 1940.29,-151.347"/>
</g>
<!-- Node37&#45;&gt;Node33 -->
<g id="edge62" class="edge"><title>Node37&#45;&gt;Node33</title>
<path fill="none" stroke="midnightblue" d="M2143.07,-254.227C2214.5,-246.665 2333.54,-232.365 2445.21,-209.915"/>
<polygon fill="midnightblue" stroke="midnightblue" points="2446.2,-213.285 2455.3,-207.859 2444.8,-206.426 2446.2,-213.285"/>
</g>
<!-- Node37&#45;&gt;Node36 -->
<g id="edge65" class="edge"><title>Node37&#45;&gt;Node36</title>
<path fill="none" stroke="midnightblue" d="M2060.8,-251.975C2039.49,-241.99 2003.97,-225.348 1979.34,-213.807"/>
<polygon fill="midnightblue" stroke="midnightblue" points="1980.7,-210.582 1970.16,-209.509 1977.73,-216.921 1980.7,-210.582"/>
</g>
<!-- Node38&#45;&gt;Node26 -->
<g id="edge68" class="edge"><title>Node38&#45;&gt;Node26</title>
<path fill="none" stroke="midnightblue" d="M2281.5,-251.746C2280.91,-238.348 2280.41,-211.994 2284,-190 2293.04,-134.668 2346.89,-110.89 2312,-67 2290.38,-39.8007 2192.55,-25.9565 2135.56,-20.0832"/>
<polygon fill="midnightblue" stroke="midnightblue" points="2135.72,-16.5818 2125.42,-19.0779 2135.02,-23.5476 2135.72,-16.5818"/>
</g>
<!-- Node39 -->
<g id="node39" class="node"><title>Node39</title>
<polygon fill="white" stroke="#bfbfbf" points="2293,-190.5 2293,-209.5 2437,-209.5 2437,-190.5 2293,-190.5"/>
<text text-anchor="middle" x="2365" y="-197.5" font-family="Helvetica,sans-Serif" font-size="10.00">boost/range/algorithm.hpp</text>
</g>
<!-- Node38&#45;&gt;Node39 -->
<g id="edge69" class="edge"><title>Node38&#45;&gt;Node39</title>
<path fill="none" stroke="midnightblue" d="M2293.89,-251.975C2307.2,-242.431 2329,-226.807 2344.96,-215.368"/>
<polygon fill="midnightblue" stroke="midnightblue" points="2347.04,-218.18 2353.13,-209.509 2342.96,-212.491 2347.04,-218.18"/>
</g>
<!-- Node40&#45;&gt;Node7 -->
<g id="edge73" class="edge"><title>Node40&#45;&gt;Node7</title>
<path fill="none" stroke="midnightblue" d="M2213.73,-72.9275C2204.37,-70.8812 2194.33,-68.777 2185,-67 2082.39,-47.4664 1959.91,-29.1427 1903.41,-20.969"/>
<polygon fill="midnightblue" stroke="midnightblue" points="1903.72,-17.4786 1893.33,-19.5175 1902.72,-24.4072 1903.72,-17.4786"/>
</g>
<!-- Node40&#45;&gt;Node26 -->
<g id="edge71" class="edge"><title>Node40&#45;&gt;Node26</title>
<path fill="none" stroke="midnightblue" d="M2230.15,-72.8685C2203.06,-61.6504 2155.54,-41.9766 2124.42,-29.0925"/>
<polygon fill="midnightblue" stroke="midnightblue" points="2125.51,-25.7587 2114.93,-25.1672 2122.84,-32.2263 2125.51,-25.7587"/>
</g>
<!-- Node41 -->
<g id="node41" class="node"><title>Node41</title>
<polygon fill="white" stroke="#bfbfbf" points="2225,-6 2225,-25 2277,-25 2277,-6 2225,-6"/>
<text text-anchor="middle" x="2251" y="-13" font-family="Helvetica,sans-Serif" font-size="10.00">iterator</text>
</g>
<!-- Node40&#45;&gt;Node41 -->
<g id="edge72" class="edge"><title>Node40&#45;&gt;Node41</title>
<path fill="none" stroke="midnightblue" d="M2251,-72.7338C2251,-63.1826 2251,-47.6183 2251,-35.2829"/>
<polygon fill="midnightblue" stroke="midnightblue" points="2254.5,-35.1273 2251,-25.1273 2247.5,-35.1273 2254.5,-35.1273"/>
</g>
<!-- Node42&#45;&gt;Node33 -->
<g id="edge76" class="edge"><title>Node42&#45;&gt;Node33</title>
<path fill="none" stroke="midnightblue" d="M2445.59,-251.975C2451.38,-243.138 2460.59,-229.089 2467.87,-217.975"/>
<polygon fill="midnightblue" stroke="midnightblue" points="2470.87,-219.791 2473.42,-209.509 2465.01,-215.954 2470.87,-219.791"/>
</g>
<!-- Node43 -->
<g id="node43" class="node"><title>Node43</title>
<polygon fill="white" stroke="#bfbfbf" points="2521,-190.5 2521,-209.5 2573,-209.5 2573,-190.5 2521,-190.5"/>
<text text-anchor="middle" x="2547" y="-197.5" font-family="Helvetica,sans-Serif" font-size="10.00">cassert</text>
</g>
<!-- Node42&#45;&gt;Node43 -->
<g id="edge75" class="edge"><title>Node42&#45;&gt;Node43</title>
<path fill="none" stroke="midnightblue" d="M2455.33,-251.975C2472.97,-242.166 2502.16,-225.935 2522.86,-214.425"/>
<polygon fill="midnightblue" stroke="midnightblue" points="2524.66,-217.428 2531.7,-209.509 2521.26,-211.31 2524.66,-217.428"/>
</g>
</g>
</svg>
