<?xml version="1.0" encoding="UTF-8" standalone="no"?>
<!DOCTYPE svg PUBLIC "-//W3C//DTD SVG 1.1//EN"
 "http://www.w3.org/Graphics/SVG/1.1/DTD/svg11.dtd">
<!-- Generated by graphviz version 2.38.0 (20140413.2041)
 -->
<!-- Title: scram::mef::Element::AddAttribute Pages: 1 -->
<svg width="280pt" height="78pt"
 viewBox="0.00 0.00 280.00 77.50" xmlns="http://www.w3.org/2000/svg" xmlns:xlink="http://www.w3.org/1999/xlink">
<g id="graph0" class="graph" transform="scale(1 1) rotate(0) translate(4 73.5)">
<title>scram::mef::Element::AddAttribute</title>
<polygon fill="white" stroke="none" points="-4,4 -4,-73.5 276,-73.5 276,4 -4,4"/>
<!-- Node1 -->
<g id="node1" class="node"><title>Node1</title>
<polygon fill="#bfbfbf" stroke="black" points="0,-22.5 0,-52.5 117,-52.5 117,-22.5 0,-22.5"/>
<text text-anchor="start" x="8" y="-40.5" font-family="Helvetica,sans-Serif" font-size="10.00">scram::mef::Element</text>
<text text-anchor="middle" x="58.5" y="-29.5" font-family="Helvetica,sans-Serif" font-size="10.00">::AddAttribute</text>
</g>
<!-- Node2 -->
<g id="node2" class="node"><title>Node2</title>
<g id="a_node2"><a xlink:href="classext_1_1linear__set.xhtml#a4802c2d5b142b5badc347ae6f4ac0025" target="_top" xlink:title="Inserts a value into the set if the equal value is not in the set. ">
<polygon fill="white" stroke="black" points="154,-50 154,-69 271,-69 271,-50 154,-50"/>
<text text-anchor="middle" x="212.5" y="-57" font-family="Helvetica,sans-Serif" font-size="10.00">ext::linear_set::insert</text>
</a>
</g>
</g>
<!-- Node1&#45;&gt;Node2 -->
<g id="edge1" class="edge"><title>Node1&#45;&gt;Node2</title>
<path fill="none" stroke="midnightblue" d="M117.398,-45.88C125.961,-47.1194 134.849,-48.4058 143.593,-49.6713"/>
<polygon fill="midnightblue" stroke="midnightblue" points="143.364,-53.1747 153.763,-51.1433 144.367,-46.2469 143.364,-53.1747"/>
</g>
<!-- Node3 -->
<g id="node3" class="node"><title>Node3</title>
<g id="a_node3"><a xlink:href="classscram_1_1mef_1_1Attribute.xhtml#ac7f1839e267723753611c9ae863da8a0" target="_top" xlink:title="scram::mef::Attribute\l::name">
<polygon fill="white" stroke="black" points="153,-0.5 153,-30.5 272,-30.5 272,-0.5 153,-0.5"/>
<text text-anchor="start" x="161" y="-18.5" font-family="Helvetica,sans-Serif" font-size="10.00">scram::mef::Attribute</text>
<text text-anchor="middle" x="212.5" y="-7.5" font-family="Helvetica,sans-Serif" font-size="10.00">::name</text>
</a>
</g>
</g>
<!-- Node1&#45;&gt;Node3 -->
<g id="edge2" class="edge"><title>Node1&#45;&gt;Node3</title>
<path fill="none" stroke="midnightblue" d="M117.398,-29.12C125.72,-27.9156 134.349,-26.6666 142.854,-25.4357"/>
<polygon fill="midnightblue" stroke="midnightblue" points="143.359,-28.899 152.755,-24.0026 142.357,-21.9712 143.359,-28.899"/>
</g>
</g>
</svg>
