<?xml version="1.0" encoding="UTF-8" standalone="no"?>
<!DOCTYPE svg PUBLIC "-//W3C//DTD SVG 1.1//EN"
 "http://www.w3.org/Graphics/SVG/1.1/DTD/svg11.dtd">
<!-- Generated by graphviz version 2.38.0 (20140413.2041)
 -->
<!-- Title: scram::core::zbdd::CutSetContainer::Merge Pages: 1 -->
<svg width="310pt" height="274pt"
 viewBox="0.00 0.00 310.00 274.00" xmlns="http://www.w3.org/2000/svg" xmlns:xlink="http://www.w3.org/1999/xlink">
<g id="graph0" class="graph" transform="scale(1 1) rotate(0) translate(4 270)">
<title>scram::core::zbdd::CutSetContainer::Merge</title>
<polygon fill="white" stroke="none" points="-4,4 -4,-270 306,-270 306,4 -4,4"/>
<!-- Node1 -->
<g id="node1" class="node"><title>Node1</title>
<polygon fill="#bfbfbf" stroke="black" points="0,-112.5 0,-142.5 132,-142.5 132,-112.5 0,-112.5"/>
<text text-anchor="start" x="8" y="-130.5" font-family="Helvetica,sans-Serif" font-size="10.00">scram::core::zbdd::</text>
<text text-anchor="middle" x="66" y="-119.5" font-family="Helvetica,sans-Serif" font-size="10.00">CutSetContainer::Merge</text>
</g>
<!-- Node2 -->
<g id="node2" class="node"><title>Node2</title>
<g id="a_node2"><a xlink:href="classscram_1_1core_1_1Zbdd.xhtml#a7c1129acd9810b5b9ff4952f587ce490" target="_top" xlink:title="Clears all memoization tables. ">
<polygon fill="white" stroke="black" points="179.5,-235.5 179.5,-265.5 290.5,-265.5 290.5,-235.5 179.5,-235.5"/>
<text text-anchor="start" x="187.5" y="-253.5" font-family="Helvetica,sans-Serif" font-size="10.00">scram::core::Zbdd::</text>
<text text-anchor="middle" x="235" y="-242.5" font-family="Helvetica,sans-Serif" font-size="10.00">ClearTables</text>
</a>
</g>
</g>
<!-- Node1&#45;&gt;Node2 -->
<g id="edge1" class="edge"><title>Node1&#45;&gt;Node2</title>
<path fill="none" stroke="midnightblue" d="M78.8221,-142.624C96.249,-164.007 130.811,-203.076 168,-226.5 170.466,-228.053 173.048,-229.526 175.701,-230.919"/>
<polygon fill="midnightblue" stroke="midnightblue" points="174.407,-234.18 184.936,-235.353 177.436,-227.87 174.407,-234.18"/>
</g>
<!-- Node3 -->
<g id="node3" class="node"><title>Node3</title>
<g id="a_node3"><a xlink:href="classscram_1_1core_1_1Settings.xhtml#a0e43ec0f017d23a4fa4e376c4060d380" target="_top" xlink:title="scram::core::Settings\l::limit_order">
<polygon fill="white" stroke="black" points="175.5,-186.5 175.5,-216.5 294.5,-216.5 294.5,-186.5 175.5,-186.5"/>
<text text-anchor="start" x="183.5" y="-204.5" font-family="Helvetica,sans-Serif" font-size="10.00">scram::core::Settings</text>
<text text-anchor="middle" x="235" y="-193.5" font-family="Helvetica,sans-Serif" font-size="10.00">::limit_order</text>
</a>
</g>
</g>
<!-- Node1&#45;&gt;Node3 -->
<g id="edge2" class="edge"><title>Node1&#45;&gt;Node3</title>
<path fill="none" stroke="midnightblue" d="M95.3376,-142.582C115.368,-152.982 142.995,-166.803 168,-177.5 172.148,-179.274 176.475,-181.037 180.844,-182.755"/>
<polygon fill="midnightblue" stroke="midnightblue" points="179.829,-186.114 190.419,-186.429 182.337,-179.579 179.829,-186.114"/>
</g>
<!-- Node4 -->
<g id="node4" class="node"><title>Node4</title>
<g id="a_node4"><a xlink:href="classscram_1_1core_1_1SetNode.xhtml#a2d7f99792b82961df2e5ecfcd735bb5f" target="_top" xlink:title="scram::core::SetNode\l::max_set_order">
<polygon fill="white" stroke="black" points="174,-137.5 174,-167.5 296,-167.5 296,-137.5 174,-137.5"/>
<text text-anchor="start" x="182" y="-155.5" font-family="Helvetica,sans-Serif" font-size="10.00">scram::core::SetNode</text>
<text text-anchor="middle" x="235" y="-144.5" font-family="Helvetica,sans-Serif" font-size="10.00">::max_set_order</text>
</a>
</g>
</g>
<!-- Node1&#45;&gt;Node4 -->
<g id="edge3" class="edge"><title>Node1&#45;&gt;Node4</title>
<path fill="none" stroke="midnightblue" d="M132.045,-137.237C142.455,-138.796 153.269,-140.414 163.793,-141.99"/>
<polygon fill="midnightblue" stroke="midnightblue" points="163.364,-145.465 173.772,-143.484 164.4,-138.542 163.364,-145.465"/>
</g>
<!-- Node5 -->
<g id="node5" class="node"><title>Node5</title>
<g id="a_node5"><a xlink:href="structscram_1_1core_1_1IntrusivePtrCast.xhtml#af153c12dc6133b7d9f9b7a57bba29f1d" target="_top" xlink:title="scram::core::IntrusivePtr\lCast\&lt; SetNode \&gt;::Ref">
<polygon fill="white" stroke="black" points="168,-88.5 168,-118.5 302,-118.5 302,-88.5 168,-88.5"/>
<text text-anchor="start" x="176" y="-106.5" font-family="Helvetica,sans-Serif" font-size="10.00">scram::core::IntrusivePtr</text>
<text text-anchor="middle" x="235" y="-95.5" font-family="Helvetica,sans-Serif" font-size="10.00">Cast&lt; SetNode &gt;::Ref</text>
</a>
</g>
</g>
<!-- Node1&#45;&gt;Node5 -->
<g id="edge4" class="edge"><title>Node1&#45;&gt;Node5</title>
<path fill="none" stroke="midnightblue" d="M132.045,-118.152C140.47,-116.941 149.16,-115.693 157.747,-114.459"/>
<polygon fill="midnightblue" stroke="midnightblue" points="158.357,-117.907 167.757,-113.02 157.361,-110.978 158.357,-117.907"/>
</g>
<!-- Node6 -->
<g id="node6" class="node"><title>Node6</title>
<g id="a_node6"><a xlink:href="classscram_1_1core_1_1Zbdd.xhtml#aa599878612e128fa09e17d0520280dbe" target="_top" xlink:title="scram::core::Zbdd::root">
<polygon fill="white" stroke="black" points="169.5,-50 169.5,-69 300.5,-69 300.5,-50 169.5,-50"/>
<text text-anchor="middle" x="235" y="-57" font-family="Helvetica,sans-Serif" font-size="10.00">scram::core::Zbdd::root</text>
</a>
</g>
</g>
<!-- Node1&#45;&gt;Node6 -->
<g id="edge5" class="edge"><title>Node1&#45;&gt;Node6</title>
<path fill="none" stroke="midnightblue" d="M95.6665,-112.465C115.614,-102.355 143.011,-89.1618 168,-79.5 174.833,-76.8581 182.17,-74.3365 189.38,-72.0287"/>
<polygon fill="midnightblue" stroke="midnightblue" points="190.558,-75.3277 199.073,-69.0229 188.485,-68.6417 190.558,-75.3277"/>
</g>
<!-- Node7 -->
<g id="node7" class="node"><title>Node7</title>
<g id="a_node7"><a xlink:href="classscram_1_1core_1_1Zbdd.xhtml#ab71281cd644eb442dd2d3ee1c5df56c4" target="_top" xlink:title="scram::core::Zbdd::\lsettings">
<polygon fill="white" stroke="black" points="179.5,-0.5 179.5,-30.5 290.5,-30.5 290.5,-0.5 179.5,-0.5"/>
<text text-anchor="start" x="187.5" y="-18.5" font-family="Helvetica,sans-Serif" font-size="10.00">scram::core::Zbdd::</text>
<text text-anchor="middle" x="235" y="-7.5" font-family="Helvetica,sans-Serif" font-size="10.00">settings</text>
</a>
</g>
</g>
<!-- Node1&#45;&gt;Node7 -->
<g id="edge6" class="edge"><title>Node1&#45;&gt;Node7</title>
<path fill="none" stroke="midnightblue" d="M81.1147,-112.449C99.562,-93.5028 133.589,-60.9671 168,-40.5 171.398,-38.479 174.988,-36.5703 178.667,-34.7777"/>
<polygon fill="midnightblue" stroke="midnightblue" points="180.284,-37.8875 187.939,-30.5632 177.387,-31.515 180.284,-37.8875"/>
</g>
</g>
</svg>
