<?xml version="1.0" encoding="UTF-8" standalone="no"?>
<!DOCTYPE svg PUBLIC "-//W3C//DTD SVG 1.1//EN"
 "http://www.w3.org/Graphics/SVG/1.1/DTD/svg11.dtd">
<!-- Generated by graphviz version 2.38.0 (20140413.2041)
 -->
<!-- Title: scram::Project::Project Pages: 1 -->
<!--zoomable 1215 -->
<svg id="main" version="1.1" xmlns="http://www.w3.org/2000/svg" xmlns:xlink="http://www.w3.org/1999/xlink" xml:space="preserve" onload="init(evt)">
<style type="text/css"><![CDATA[
.edge:hover path { stroke: red; }
.edge:hover polygon { stroke: red; fill: red; }
]]></style>
<script type="text/javascript"><![CDATA[
var edges = document.getElementsByTagName('g');
if (edges && edges.length) {
  for (var i=0;i<edges.length;i++) {
    if (edges[i].id.substr(0,4)=='edge') {
      edges[i].setAttribute('class','edge');
    }
  }
}
]]></script>
        <defs>
                <circle id="rim" cx="0" cy="0" r="7"/>
                <circle id="rim2" cx="0" cy="0" r="3.5"/>
                <g id="zoomPlus">
                        <use xlink:href="#rim" fill="#404040">
                                <set attributeName="fill" to="#808080" begin="zoomplus.mouseover" end="zoomplus.mouseout"/>
                        </use>
                        <path d="M-4,0h8M0,-4v8" fill="none" stroke="white" stroke-width="1.5" pointer-events="none"/>
                </g>
                <g id="zoomMin">
                        <use xlink:href="#rim" fill="#404040">
                                <set attributeName="fill" to="#808080" begin="zoomminus.mouseover" end="zoomminus.mouseout"/>
                        </use>
                        <path d="M-4,0h8" fill="none" stroke="white" stroke-width="1.5" pointer-events="none"/>
                </g>
                <g id="dirArrow">
                        <path fill="none" stroke="white" stroke-width="1.5" d="M0,-3.0v7 M-2.5,-0.5L0,-3.0L2.5,-0.5"/>
                </g>
               <g id="resetDef">
                       <use xlink:href="#rim2" fill="#404040">
                               <set attributeName="fill" to="#808080" begin="reset.mouseover" end="reset.mouseout"/>
                       </use>
               </g>
        </defs>

<script type="text/javascript">
var viewWidth = 481;
var viewHeight = 1215;
var sectionId = 'dynsection-0';
</script>
<script xlink:href="svgpan.js"/>
<svg id="graph" class="graph">
<g id="viewport">
<title>scram::Project::Project</title>
<polygon fill="white" stroke="none" points="-4,4 -4,-1211 477,-1211 477,4 -4,4"/>
<!-- Node1 -->
<g id="node1" class="node"><title>Node1</title>
<polygon fill="#bfbfbf" stroke="black" points="0,-594 0,-613 125,-613 125,-594 0,-594"/>
<text text-anchor="middle" x="62.5" y="-601" font-family="Helvetica,sans-Serif" font-size="10.00">scram::Project::Project</text>
</g>
<!-- Node2 -->
<g id="node2" class="node"><title>Node2</title>
<g id="a_node2"><a xlink:href="classscram_1_1core_1_1Settings.xhtml#a34ae01bd2f50a2625c22ff3441315a61" target="_top" xlink:title="scram::core::Settings\l::algorithm">
<polygon fill="white" stroke="black" points="165.5,-1176.5 165.5,-1206.5 284.5,-1206.5 284.5,-1176.5 165.5,-1176.5"/>
<text text-anchor="start" x="173.5" y="-1194.5" font-family="Helvetica,sans-Serif" font-size="10.00">scram::core::Settings</text>
<text text-anchor="middle" x="225" y="-1183.5" font-family="Helvetica,sans-Serif" font-size="10.00">::algorithm</text>
</a>
</g>
</g>
<!-- Node1&#45;&gt;Node2 -->
<g id="edge1" class="edge"><title>Node1&#45;&gt;Node2</title>
<path fill="none" stroke="midnightblue" d="M63.8988,-613.292C66.8336,-680.848 87.0849,-1077.76 161,-1167.5 161.707,-1168.36 162.448,-1169.19 163.22,-1169.98"/>
<polygon fill="midnightblue" stroke="midnightblue" points="160.984,-1172.68 170.904,-1176.4 165.47,-1167.3 160.984,-1172.68"/>
</g>
<!-- Node3 -->
<g id="node3" class="node"><title>Node3</title>
<g id="a_node3"><a xlink:href="classscram_1_1core_1_1Settings.xhtml#ace850c06d594dd41a09bda3b3e1cc179" target="_top" xlink:title="scram::core::Settings\l::approximation">
<polygon fill="white" stroke="black" points="165.5,-1127.5 165.5,-1157.5 284.5,-1157.5 284.5,-1127.5 165.5,-1127.5"/>
<text text-anchor="start" x="173.5" y="-1145.5" font-family="Helvetica,sans-Serif" font-size="10.00">scram::core::Settings</text>
<text text-anchor="middle" x="225" y="-1134.5" font-family="Helvetica,sans-Serif" font-size="10.00">::approximation</text>
</a>
</g>
</g>
<!-- Node1&#45;&gt;Node3 -->
<g id="edge2" class="edge"><title>Node1&#45;&gt;Node3</title>
<path fill="none" stroke="midnightblue" d="M64.0718,-613.256C68.0051,-677.275 92.9515,-1037.21 161,-1118.5 161.714,-1119.35 162.461,-1120.17 163.239,-1120.97"/>
<polygon fill="midnightblue" stroke="midnightblue" points="161.024,-1123.68 170.963,-1127.35 165.482,-1118.28 161.024,-1123.68"/>
</g>
<!-- Node4 -->
<g id="node4" class="node"><title>Node4</title>
<g id="a_node4"><a xlink:href="classscram_1_1xml_1_1Element.xhtml#a60d62e931d3865a3c76b4e1be95e1d11" target="_top" xlink:title="Retrieves the XML element&#39;s attribute values. ">
<polygon fill="white" stroke="black" points="167,-1078.5 167,-1108.5 283,-1108.5 283,-1078.5 167,-1078.5"/>
<text text-anchor="start" x="175" y="-1096.5" font-family="Helvetica,sans-Serif" font-size="10.00">scram::xml::Element</text>
<text text-anchor="middle" x="225" y="-1085.5" font-family="Helvetica,sans-Serif" font-size="10.00">::attribute</text>
</a>
</g>
</g>
<!-- Node1&#45;&gt;Node4 -->
<g id="edge3" class="edge"><title>Node1&#45;&gt;Node4</title>
<path fill="none" stroke="midnightblue" d="M64.2689,-613.096C69.2534,-673.105 98.7549,-996.573 161,-1069.5 161.741,-1070.37 162.517,-1071.2 163.324,-1072.01"/>
<polygon fill="midnightblue" stroke="midnightblue" points="161.352,-1074.92 171.329,-1078.49 165.754,-1069.48 161.352,-1074.92"/>
</g>
<!-- Node5 -->
<g id="node5" class="node"><title>Node5</title>
<g id="a_node5"><a xlink:href="classscram_1_1core_1_1Settings.xhtml#a4a71410d7b91bb82cadc29c0fe0b2506" target="_top" xlink:title="scram::core::Settings\l::ccf_analysis">
<polygon fill="white" stroke="black" points="165.5,-1029.5 165.5,-1059.5 284.5,-1059.5 284.5,-1029.5 165.5,-1029.5"/>
<text text-anchor="start" x="173.5" y="-1047.5" font-family="Helvetica,sans-Serif" font-size="10.00">scram::core::Settings</text>
<text text-anchor="middle" x="225" y="-1036.5" font-family="Helvetica,sans-Serif" font-size="10.00">::ccf_analysis</text>
</a>
</g>
</g>
<!-- Node1&#45;&gt;Node5 -->
<g id="edge4" class="edge"><title>Node1&#45;&gt;Node5</title>
<path fill="none" stroke="midnightblue" d="M64.531,-613.168C70.7229,-669.583 104.612,-955.982 161,-1020.5 161.751,-1021.36 162.536,-1022.19 163.352,-1022.99"/>
<polygon fill="midnightblue" stroke="midnightblue" points="161.413,-1025.92 171.416,-1029.41 165.774,-1020.44 161.413,-1025.92"/>
</g>
<!-- Node6 -->
<g id="node6" class="node"><title>Node6</title>
<g id="a_node6"><a xlink:href="classscram_1_1xml_1_1Element.xhtml#ab164f33b4aa86b74b853b87126bc8ff8" target="_top" xlink:title="scram::xml::Element\l::child">
<polygon fill="white" stroke="black" points="167,-980.5 167,-1010.5 283,-1010.5 283,-980.5 167,-980.5"/>
<text text-anchor="start" x="175" y="-998.5" font-family="Helvetica,sans-Serif" font-size="10.00">scram::xml::Element</text>
<text text-anchor="middle" x="225" y="-987.5" font-family="Helvetica,sans-Serif" font-size="10.00">::child</text>
</a>
</g>
</g>
<!-- Node1&#45;&gt;Node6 -->
<g id="edge5" class="edge"><title>Node1&#45;&gt;Node6</title>
<path fill="none" stroke="midnightblue" d="M63.076,-613.209C61.5888,-659.569 61.2872,-860.728 161,-971.5 161.763,-972.348 162.56,-973.167 163.386,-973.956"/>
<polygon fill="midnightblue" stroke="midnightblue" points="161.489,-976.915 171.524,-980.314 165.799,-971.399 161.489,-976.915"/>
</g>
<!-- Node7 -->
<g id="node7" class="node"><title>Node7</title>
<g id="a_node7"><a xlink:href="classscram_1_1xml_1_1Element.xhtml#a57646bebfb4ea93e00a11d2f7ef4fabf" target="_top" xlink:title="scram::xml::Element\l::children">
<polygon fill="white" stroke="black" points="167,-931.5 167,-961.5 283,-961.5 283,-931.5 167,-931.5"/>
<text text-anchor="start" x="175" y="-949.5" font-family="Helvetica,sans-Serif" font-size="10.00">scram::xml::Element</text>
<text text-anchor="middle" x="225" y="-938.5" font-family="Helvetica,sans-Serif" font-size="10.00">::children</text>
</a>
</g>
</g>
<!-- Node1&#45;&gt;Node7 -->
<g id="edge6" class="edge"><title>Node1&#45;&gt;Node7</title>
<path fill="none" stroke="midnightblue" d="M63.5416,-613.047C64.2421,-655.348 72.6118,-827.949 161,-922.5 161.899,-923.462 162.841,-924.386 163.82,-925.273"/>
<polygon fill="midnightblue" stroke="midnightblue" points="161.862,-928.179 171.962,-931.379 166.062,-922.579 161.862,-928.179"/>
</g>
<!-- Node8 -->
<g id="node8" class="node"><title>Node8</title>
<g id="a_node8"><a xlink:href="classscram_1_1core_1_1Settings.xhtml#acbba7a642ade93cf58155748cdf0b446" target="_top" xlink:title="scram::core::Settings\l::cut_off">
<polygon fill="white" stroke="black" points="165.5,-882.5 165.5,-912.5 284.5,-912.5 284.5,-882.5 165.5,-882.5"/>
<text text-anchor="start" x="173.5" y="-900.5" font-family="Helvetica,sans-Serif" font-size="10.00">scram::core::Settings</text>
<text text-anchor="middle" x="225" y="-889.5" font-family="Helvetica,sans-Serif" font-size="10.00">::cut_off</text>
</a>
</g>
</g>
<!-- Node1&#45;&gt;Node8 -->
<g id="edge7" class="edge"><title>Node1&#45;&gt;Node8</title>
<path fill="none" stroke="midnightblue" d="M64.1612,-613.115C67.3037,-651.453 83.9751,-795.12 161,-873.5 162.051,-874.57 163.155,-875.592 164.303,-876.57"/>
<polygon fill="midnightblue" stroke="midnightblue" points="162.277,-879.424 172.447,-882.392 166.348,-873.729 162.277,-879.424"/>
</g>
<!-- Node9 -->
<g id="node9" class="node"><title>Node9</title>
<g id="a_node9"><a xlink:href="classscram_1_1xml_1_1Element.xhtml#a959df73174a6e363f71ffb7772abbe20" target="_top" xlink:title="scram::xml::Element\l::filename">
<polygon fill="white" stroke="black" points="167,-833.5 167,-863.5 283,-863.5 283,-833.5 167,-833.5"/>
<text text-anchor="start" x="175" y="-851.5" font-family="Helvetica,sans-Serif" font-size="10.00">scram::xml::Element</text>
<text text-anchor="middle" x="225" y="-840.5" font-family="Helvetica,sans-Serif" font-size="10.00">::filename</text>
</a>
</g>
</g>
<!-- Node1&#45;&gt;Node9 -->
<g id="edge8" class="edge"><title>Node1&#45;&gt;Node9</title>
<path fill="none" stroke="midnightblue" d="M65.0867,-613.432C71.0636,-647.673 95.3206,-762.12 161,-824.5 162.114,-825.558 163.279,-826.57 164.488,-827.539"/>
<polygon fill="midnightblue" stroke="midnightblue" points="162.764,-830.6 173.003,-833.323 166.697,-824.809 162.764,-830.6"/>
</g>
<!-- Node10 -->
<g id="node10" class="node"><title>Node10</title>
<g id="a_node10"><a xlink:href="classscram_1_1core_1_1Settings.xhtml#a16c99e2ccd22a9be037f6c6fe229894b" target="_top" xlink:title="scram::core::Settings\l::importance_analysis">
<polygon fill="white" stroke="black" points="164.5,-784.5 164.5,-814.5 285.5,-814.5 285.5,-784.5 164.5,-784.5"/>
<text text-anchor="start" x="172.5" y="-802.5" font-family="Helvetica,sans-Serif" font-size="10.00">scram::core::Settings</text>
<text text-anchor="middle" x="225" y="-791.5" font-family="Helvetica,sans-Serif" font-size="10.00">::importance_analysis</text>
</a>
</g>
</g>
<!-- Node1&#45;&gt;Node10 -->
<g id="edge9" class="edge"><title>Node1&#45;&gt;Node10</title>
<path fill="none" stroke="midnightblue" d="M66.3854,-613.202C75.4475,-642.066 106.053,-728.316 161,-775.5 162.498,-776.787 164.073,-778.008 165.707,-779.167"/>
<polygon fill="midnightblue" stroke="midnightblue" points="163.949,-782.195 174.299,-784.457 167.619,-776.234 163.949,-782.195"/>
</g>
<!-- Node11 -->
<g id="node11" class="node"><title>Node11</title>
<g id="a_node11"><a xlink:href="classscram_1_1Project.xhtml#a19b3056564d3dfc04b55a8c9150460ce" target="_top" xlink:title="scram::Project::input\l_files">
<polygon fill="white" stroke="black" points="167,-735.5 167,-765.5 283,-765.5 283,-735.5 167,-735.5"/>
<text text-anchor="start" x="175" y="-753.5" font-family="Helvetica,sans-Serif" font-size="10.00">scram::Project::input</text>
<text text-anchor="middle" x="225" y="-742.5" font-family="Helvetica,sans-Serif" font-size="10.00">_files</text>
</a>
</g>
</g>
<!-- Node1&#45;&gt;Node11 -->
<g id="edge10" class="edge"><title>Node1&#45;&gt;Node11</title>
<path fill="none" stroke="midnightblue" d="M68.7573,-613.268C81.5618,-636.195 116.596,-693.971 161,-726.5 162.88,-727.877 164.848,-729.185 166.879,-730.426"/>
<polygon fill="midnightblue" stroke="midnightblue" points="165.658,-733.746 176.115,-735.449 169.003,-727.597 165.658,-733.746"/>
</g>
<!-- Node12 -->
<g id="node12" class="node"><title>Node12</title>
<g id="a_node12"><a xlink:href="classscram_1_1core_1_1Settings.xhtml#a0e43ec0f017d23a4fa4e376c4060d380" target="_top" xlink:title="scram::core::Settings\l::limit_order">
<polygon fill="white" stroke="black" points="165.5,-686.5 165.5,-716.5 284.5,-716.5 284.5,-686.5 165.5,-686.5"/>
<text text-anchor="start" x="173.5" y="-704.5" font-family="Helvetica,sans-Serif" font-size="10.00">scram::core::Settings</text>
<text text-anchor="middle" x="225" y="-693.5" font-family="Helvetica,sans-Serif" font-size="10.00">::limit_order</text>
</a>
</g>
</g>
<!-- Node1&#45;&gt;Node12 -->
<g id="edge11" class="edge"><title>Node1&#45;&gt;Node12</title>
<path fill="none" stroke="midnightblue" d="M73.9066,-613.017C91.0148,-628.274 126.625,-658.425 161,-677.5 164.008,-679.169 167.156,-680.771 170.371,-682.3"/>
<polygon fill="midnightblue" stroke="midnightblue" points="168.996,-685.519 179.554,-686.408 171.855,-679.129 168.996,-685.519"/>
</g>
<!-- Node13 -->
<g id="node13" class="node"><title>Node13</title>
<g id="a_node13"><a xlink:href="classscram_1_1xml_1_1Element.xhtml#a4a447a4146a0131bc1461762d55f6482" target="_top" xlink:title="scram::xml::Element\l::line">
<polygon fill="white" stroke="black" points="167,-637.5 167,-667.5 283,-667.5 283,-637.5 167,-637.5"/>
<text text-anchor="start" x="175" y="-655.5" font-family="Helvetica,sans-Serif" font-size="10.00">scram::xml::Element</text>
<text text-anchor="middle" x="225" y="-644.5" font-family="Helvetica,sans-Serif" font-size="10.00">::line</text>
</a>
</g>
</g>
<!-- Node1&#45;&gt;Node13 -->
<g id="edge12" class="edge"><title>Node1&#45;&gt;Node13</title>
<path fill="none" stroke="midnightblue" d="M94.827,-613.064C114.792,-619.159 141.29,-627.249 165.088,-634.514"/>
<polygon fill="midnightblue" stroke="midnightblue" points="164.16,-637.891 174.746,-637.463 166.204,-631.196 164.16,-637.891"/>
</g>
<!-- Node14 -->
<g id="node14" class="node"><title>Node14</title>
<g id="a_node14"><a xlink:href="classscram_1_1core_1_1Settings.xhtml#a0c130c599ff39bd4a5b269907f06b66d" target="_top" xlink:title="scram::core::Settings\l::mission_time">
<polygon fill="white" stroke="black" points="165.5,-588.5 165.5,-618.5 284.5,-618.5 284.5,-588.5 165.5,-588.5"/>
<text text-anchor="start" x="173.5" y="-606.5" font-family="Helvetica,sans-Serif" font-size="10.00">scram::core::Settings</text>
<text text-anchor="middle" x="225" y="-595.5" font-family="Helvetica,sans-Serif" font-size="10.00">::mission_time</text>
</a>
</g>
</g>
<!-- Node1&#45;&gt;Node14 -->
<g id="edge13" class="edge"><title>Node1&#45;&gt;Node14</title>
<path fill="none" stroke="midnightblue" d="M125.094,-603.5C134.936,-603.5 145.174,-603.5 155.171,-603.5"/>
<polygon fill="midnightblue" stroke="midnightblue" points="155.474,-607 165.474,-603.5 155.474,-600 155.474,-607"/>
</g>
<!-- Node15 -->
<g id="node15" class="node"><title>Node15</title>
<g id="a_node15"><a xlink:href="classscram_1_1xml_1_1Element.xhtml#a58abc717fb3ff89dcbd4f1cf392855e5" target="_top" xlink:title="scram::xml::Element\l::name">
<polygon fill="white" stroke="black" points="167,-539.5 167,-569.5 283,-569.5 283,-539.5 167,-539.5"/>
<text text-anchor="start" x="175" y="-557.5" font-family="Helvetica,sans-Serif" font-size="10.00">scram::xml::Element</text>
<text text-anchor="middle" x="225" y="-546.5" font-family="Helvetica,sans-Serif" font-size="10.00">::name</text>
</a>
</g>
</g>
<!-- Node1&#45;&gt;Node15 -->
<g id="edge14" class="edge"><title>Node1&#45;&gt;Node15</title>
<path fill="none" stroke="midnightblue" d="M94.827,-593.936C114.792,-587.841 141.29,-579.751 165.088,-572.486"/>
<polygon fill="midnightblue" stroke="midnightblue" points="166.204,-575.804 174.746,-569.537 164.16,-569.109 166.204,-575.804"/>
</g>
<!-- Node16 -->
<g id="node16" class="node"><title>Node16</title>
<g id="a_node16"><a xlink:href="classscram_1_1core_1_1Settings.xhtml#ad646c62b90b1e6cef5a2db6ea9834601" target="_top" xlink:title="scram::core::Settings\l::num_bins">
<polygon fill="white" stroke="black" points="165.5,-490.5 165.5,-520.5 284.5,-520.5 284.5,-490.5 165.5,-490.5"/>
<text text-anchor="start" x="173.5" y="-508.5" font-family="Helvetica,sans-Serif" font-size="10.00">scram::core::Settings</text>
<text text-anchor="middle" x="225" y="-497.5" font-family="Helvetica,sans-Serif" font-size="10.00">::num_bins</text>
</a>
</g>
</g>
<!-- Node1&#45;&gt;Node16 -->
<g id="edge15" class="edge"><title>Node1&#45;&gt;Node16</title>
<path fill="none" stroke="midnightblue" d="M74.2418,-593.934C91.5329,-578.9 127.047,-549.502 161,-530.5 164.639,-528.463 168.478,-526.512 172.391,-524.66"/>
<polygon fill="midnightblue" stroke="midnightblue" points="173.908,-527.816 181.599,-520.53 171.042,-521.429 173.908,-527.816"/>
</g>
<!-- Node17 -->
<g id="node17" class="node"><title>Node17</title>
<g id="a_node17"><a xlink:href="classscram_1_1core_1_1Settings.xhtml#a35d180dd84bc1006157a02791c4bd210" target="_top" xlink:title="scram::core::Settings\l::num_quantiles">
<polygon fill="white" stroke="black" points="165.5,-441.5 165.5,-471.5 284.5,-471.5 284.5,-441.5 165.5,-441.5"/>
<text text-anchor="start" x="173.5" y="-459.5" font-family="Helvetica,sans-Serif" font-size="10.00">scram::core::Settings</text>
<text text-anchor="middle" x="225" y="-448.5" font-family="Helvetica,sans-Serif" font-size="10.00">::num_quantiles</text>
</a>
</g>
</g>
<!-- Node1&#45;&gt;Node17 -->
<g id="edge16" class="edge"><title>Node1&#45;&gt;Node17</title>
<path fill="none" stroke="midnightblue" d="M68.8081,-593.854C81.7224,-571.206 116.977,-514.083 161,-481.5 163.474,-479.669 166.1,-477.951 168.821,-476.342"/>
<polygon fill="midnightblue" stroke="midnightblue" points="170.591,-479.365 177.767,-471.571 167.296,-473.189 170.591,-479.365"/>
</g>
<!-- Node18 -->
<g id="node18" class="node"><title>Node18</title>
<g id="a_node18"><a xlink:href="classscram_1_1core_1_1Settings.xhtml#adda26a07ac3d505246a23b80829f8267" target="_top" xlink:title="scram::core::Settings\l::num_trials">
<polygon fill="white" stroke="black" points="165.5,-392.5 165.5,-422.5 284.5,-422.5 284.5,-392.5 165.5,-392.5"/>
<text text-anchor="start" x="173.5" y="-410.5" font-family="Helvetica,sans-Serif" font-size="10.00">scram::core::Settings</text>
<text text-anchor="middle" x="225" y="-399.5" font-family="Helvetica,sans-Serif" font-size="10.00">::num_trials</text>
</a>
</g>
</g>
<!-- Node1&#45;&gt;Node18 -->
<g id="edge17" class="edge"><title>Node1&#45;&gt;Node18</title>
<path fill="none" stroke="midnightblue" d="M66.4325,-593.89C75.6259,-565.29 106.561,-479.785 161,-432.5 162.943,-430.812 165.015,-429.23 167.178,-427.748"/>
<polygon fill="midnightblue" stroke="midnightblue" points="169.124,-430.662 175.9,-422.517 165.524,-424.659 169.124,-430.662"/>
</g>
<!-- Node19 -->
<g id="node19" class="node"><title>Node19</title>
<g id="a_node19"><a xlink:href="classscram_1_1core_1_1Settings.xhtml#ae64f362fceb44402e101140dfc1725ba" target="_top" xlink:title="scram::core::Settings\l::prime_implicants">
<polygon fill="white" stroke="black" points="165.5,-343.5 165.5,-373.5 284.5,-373.5 284.5,-343.5 165.5,-343.5"/>
<text text-anchor="start" x="173.5" y="-361.5" font-family="Helvetica,sans-Serif" font-size="10.00">scram::core::Settings</text>
<text text-anchor="middle" x="225" y="-350.5" font-family="Helvetica,sans-Serif" font-size="10.00">::prime_implicants</text>
</a>
</g>
</g>
<!-- Node1&#45;&gt;Node19 -->
<g id="edge18" class="edge"><title>Node1&#45;&gt;Node19</title>
<path fill="none" stroke="midnightblue" d="M65.1326,-593.646C71.2592,-559.665 95.9468,-446.039 161,-383.5 162.62,-381.943 164.348,-380.479 166.16,-379.103"/>
<polygon fill="midnightblue" stroke="midnightblue" points="168.103,-382.015 174.563,-373.617 164.276,-376.153 168.103,-382.015"/>
</g>
<!-- Node20 -->
<g id="node20" class="node"><title>Node20</title>
<g id="a_node20"><a xlink:href="classscram_1_1core_1_1Settings.xhtml#a83ddd939f7217fb9f0438bd1dd01f7b1" target="_top" xlink:title="scram::core::Settings\l::probability_analysis">
<polygon fill="white" stroke="black" points="165.5,-294.5 165.5,-324.5 284.5,-324.5 284.5,-294.5 165.5,-294.5"/>
<text text-anchor="start" x="173.5" y="-312.5" font-family="Helvetica,sans-Serif" font-size="10.00">scram::core::Settings</text>
<text text-anchor="middle" x="225" y="-301.5" font-family="Helvetica,sans-Serif" font-size="10.00">::probability_analysis</text>
</a>
</g>
</g>
<!-- Node1&#45;&gt;Node20 -->
<g id="edge19" class="edge"><title>Node1&#45;&gt;Node20</title>
<path fill="none" stroke="midnightblue" d="M64.2042,-593.951C67.5106,-555.868 84.7212,-413.105 161,-334.5 162.414,-333.043 163.923,-331.669 165.508,-330.374"/>
<polygon fill="midnightblue" stroke="midnightblue" points="167.739,-333.087 173.981,-324.527 163.763,-327.326 167.739,-333.087"/>
</g>
<!-- Node21 -->
<g id="node21" class="node"><title>Node21</title>
<g id="a_node21"><a xlink:href="classscram_1_1xml_1_1Document.xhtml#a4ac45d9407199ac54ebea609595cf942" target="_top" xlink:title="scram::xml::Document\l::root">
<polygon fill="white" stroke="black" points="162,-245.5 162,-275.5 288,-275.5 288,-245.5 162,-245.5"/>
<text text-anchor="start" x="170" y="-263.5" font-family="Helvetica,sans-Serif" font-size="10.00">scram::xml::Document</text>
<text text-anchor="middle" x="225" y="-252.5" font-family="Helvetica,sans-Serif" font-size="10.00">::root</text>
</a>
</g>
</g>
<!-- Node1&#45;&gt;Node21 -->
<g id="edge20" class="edge"><title>Node1&#45;&gt;Node21</title>
<path fill="none" stroke="midnightblue" d="M63.5894,-593.727C64.5022,-551.198 73.6714,-380.135 161,-285.5 162.347,-284.041 163.79,-282.665 165.31,-281.369"/>
<polygon fill="midnightblue" stroke="midnightblue" points="167.381,-284.191 173.474,-275.523 163.306,-278.499 167.381,-284.191"/>
</g>
<!-- Node22 -->
<g id="node22" class="node"><title>Node22</title>
<g id="a_node22"><a xlink:href="classscram_1_1core_1_1Settings.xhtml#a694757a6ab5effaea2d585905950d6bd" target="_top" xlink:title="scram::core::Settings\l::safety_integrity_levels">
<polygon fill="white" stroke="black" points="161,-196.5 161,-226.5 289,-226.5 289,-196.5 161,-196.5"/>
<text text-anchor="start" x="169" y="-214.5" font-family="Helvetica,sans-Serif" font-size="10.00">scram::core::Settings</text>
<text text-anchor="middle" x="225" y="-203.5" font-family="Helvetica,sans-Serif" font-size="10.00">::safety_integrity_levels</text>
</a>
</g>
</g>
<!-- Node1&#45;&gt;Node22 -->
<g id="edge21" class="edge"><title>Node1&#45;&gt;Node22</title>
<path fill="none" stroke="midnightblue" d="M63.1177,-593.846C61.8222,-547.743 62.267,-347.64 161,-236.5 162.182,-235.169 163.444,-233.909 164.773,-232.715"/>
<polygon fill="midnightblue" stroke="midnightblue" points="167.088,-235.355 173.018,-226.575 162.907,-229.74 167.088,-235.355"/>
</g>
<!-- Node23 -->
<g id="node23" class="node"><title>Node23</title>
<g id="a_node23"><a xlink:href="classscram_1_1core_1_1Settings.xhtml#a9937a41d3fd1369f2eea59e1f33a1ac5" target="_top" xlink:title="scram::core::Settings\l::seed">
<polygon fill="white" stroke="black" points="165.5,-147.5 165.5,-177.5 284.5,-177.5 284.5,-147.5 165.5,-147.5"/>
<text text-anchor="start" x="173.5" y="-165.5" font-family="Helvetica,sans-Serif" font-size="10.00">scram::core::Settings</text>
<text text-anchor="middle" x="225" y="-154.5" font-family="Helvetica,sans-Serif" font-size="10.00">::seed</text>
</a>
</g>
</g>
<!-- Node1&#45;&gt;Node23 -->
<g id="edge22" class="edge"><title>Node1&#45;&gt;Node23</title>
<path fill="none" stroke="midnightblue" d="M64.5476,-593.867C70.8337,-537.651 105.168,-252.243 161,-187.5 162.136,-186.183 163.351,-184.934 164.631,-183.751"/>
<polygon fill="midnightblue" stroke="midnightblue" points="166.778,-186.516 172.598,-177.663 162.527,-180.954 166.778,-186.516"/>
</g>
<!-- Node24 -->
<g id="node24" class="node"><title>Node24</title>
<g id="a_node24"><a xlink:href="classscram_1_1core_1_1Settings.xhtml#a2bc9e5d7c8028a8fd8e2ea02d766bb2b" target="_top" xlink:title="scram::core::Settings\l::time_step">
<polygon fill="white" stroke="black" points="165.5,-98.5 165.5,-128.5 284.5,-128.5 284.5,-98.5 165.5,-98.5"/>
<text text-anchor="start" x="173.5" y="-116.5" font-family="Helvetica,sans-Serif" font-size="10.00">scram::core::Settings</text>
<text text-anchor="middle" x="225" y="-105.5" font-family="Helvetica,sans-Serif" font-size="10.00">::time_step</text>
</a>
</g>
</g>
<!-- Node1&#45;&gt;Node24 -->
<g id="edge23" class="edge"><title>Node1&#45;&gt;Node24</title>
<path fill="none" stroke="midnightblue" d="M64.2851,-593.935C69.3688,-534.123 99.3703,-211.691 161,-138.5 162.12,-137.17 163.321,-135.909 164.59,-134.716"/>
<polygon fill="midnightblue" stroke="midnightblue" points="166.744,-137.475 172.504,-128.583 162.456,-131.942 166.744,-137.475"/>
</g>
<!-- Node25 -->
<g id="node25" class="node"><title>Node25</title>
<g id="a_node25"><a xlink:href="classscram_1_1core_1_1Settings.xhtml#aa07ede20b118ae78028fb0807e52f632" target="_top" xlink:title="scram::core::Settings\l::uncertainty_analysis">
<polygon fill="white" stroke="black" points="165,-49.5 165,-79.5 285,-79.5 285,-49.5 165,-49.5"/>
<text text-anchor="start" x="173" y="-67.5" font-family="Helvetica,sans-Serif" font-size="10.00">scram::core::Settings</text>
<text text-anchor="middle" x="225" y="-56.5" font-family="Helvetica,sans-Serif" font-size="10.00">::uncertainty_analysis</text>
</a>
</g>
</g>
<!-- Node1&#45;&gt;Node25 -->
<g id="edge24" class="edge"><title>Node1&#45;&gt;Node25</title>
<path fill="none" stroke="midnightblue" d="M64.0881,-593.774C68.1262,-529.951 93.6255,-171.092 161,-89.5 162.107,-88.1588 163.297,-86.8892 164.556,-85.6873"/>
<polygon fill="midnightblue" stroke="midnightblue" points="166.715,-88.4417 172.426,-79.5179 162.397,-82.9324 166.715,-88.4417"/>
</g>
<!-- Node26 -->
<g id="node26" class="node"><title>Node26</title>
<g id="a_node26"><a xlink:href="classscram_1_1xml_1_1Validator.xhtml#ad1626f649d58bab2db7a077f4b6b061e" target="_top" xlink:title="Validates XML DOM documents against the schema. ">
<polygon fill="white" stroke="black" points="166,-0.5 166,-30.5 284,-30.5 284,-0.5 166,-0.5"/>
<text text-anchor="start" x="174" y="-18.5" font-family="Helvetica,sans-Serif" font-size="10.00">scram::xml::Validator</text>
<text text-anchor="middle" x="225" y="-7.5" font-family="Helvetica,sans-Serif" font-size="10.00">::validate</text>
</a>
</g>
</g>
<!-- Node1&#45;&gt;Node26 -->
<g id="edge25" class="edge"><title>Node1&#45;&gt;Node26</title>
<path fill="none" stroke="midnightblue" d="M63.915,-593.737C66.9596,-526.375 87.818,-130.582 161,-40.5 161.974,-39.3013 163.013,-38.1598 164.109,-37.0727"/>
<polygon fill="midnightblue" stroke="midnightblue" points="166.475,-39.6615 172.064,-30.6605 162.082,-34.2117 166.475,-39.6615"/>
</g>
<!-- Node27 -->
<g id="node27" class="node"><title>Node27</title>
<g id="a_node27"><a xlink:href="classscram_1_1xml_1_1Document.xhtml#afcabff07e31e1f4947f5c393364a1ea7" target="_top" xlink:title="scram::xml::Document::get">
<polygon fill="white" stroke="black" points="325,-6 325,-25 473,-25 473,-6 325,-6"/>
<text text-anchor="middle" x="399" y="-13" font-family="Helvetica,sans-Serif" font-size="10.00">scram::xml::Document::get</text>
</a>
</g>
</g>
<!-- Node26&#45;&gt;Node27 -->
<g id="edge26" class="edge"><title>Node26&#45;&gt;Node27</title>
<path fill="none" stroke="midnightblue" d="M284.231,-15.5C294.026,-15.5 304.359,-15.5 314.641,-15.5"/>
<polygon fill="midnightblue" stroke="midnightblue" points="314.885,-19.0001 324.885,-15.5 314.885,-12.0001 314.885,-19.0001"/>
</g>
</g>
</svg>
        <g id="navigator" transform="translate(0 0)" fill="#404254">
                <rect fill="#f2f5e9" fill-opacity="0.5" stroke="#606060" stroke-width=".5" x="0" y="0" width="60" height="60"/>
                <use id="zoomplus" xlink:href="#zoomPlus" x="17" y="9" onmousedown="handleZoom(evt,'in')"/>
                <use id="zoomminus" xlink:href="#zoomMin" x="42" y="9" onmousedown="handleZoom(evt,'out')"/>
                <use id="reset" xlink:href="#resetDef" x="30" y="36" onmousedown="handleReset()"/>
                <g id="arrowUp" xlink:href="#dirArrow" transform="translate(30 24)" onmousedown="handlePan(0,-1)">
                  <use xlink:href="#rim" fill="#404040">
                        <set attributeName="fill" to="#808080" begin="arrowUp.mouseover" end="arrowUp.mouseout"/>
                  </use>
                  <path fill="none" stroke="white" stroke-width="1.5" d="M0,-3.0v7 M-2.5,-0.5L0,-3.0L2.5,-0.5"/>
                </g>
                <g id="arrowRight" xlink:href="#dirArrow" transform="rotate(90) translate(36 -43)" onmousedown="handlePan(1,0)">
                  <use xlink:href="#rim" fill="#404040">
                        <set attributeName="fill" to="#808080" begin="arrowRight.mouseover" end="arrowRight.mouseout"/>
                  </use>
                  <path fill="none" stroke="white" stroke-width="1.5" d="M0,-3.0v7 M-2.5,-0.5L0,-3.0L2.5,-0.5"/>
                </g>
                <g id="arrowDown" xlink:href="#dirArrow" transform="rotate(180) translate(-30 -48)" onmousedown="handlePan(0,1)">
                  <use xlink:href="#rim" fill="#404040">
                        <set attributeName="fill" to="#808080" begin="arrowDown.mouseover" end="arrowDown.mouseout"/>
                  </use>
                  <path fill="none" stroke="white" stroke-width="1.5" d="M0,-3.0v7 M-2.5,-0.5L0,-3.0L2.5,-0.5"/>
                </g>
                <g id="arrowLeft" xlink:href="#dirArrow" transform="rotate(270) translate(-36 17)" onmousedown="handlePan(-1,0)">
                  <use xlink:href="#rim" fill="#404040">
                        <set attributeName="fill" to="#808080" begin="arrowLeft.mouseover" end="arrowLeft.mouseout"/>
                  </use>
                  <path fill="none" stroke="white" stroke-width="1.5" d="M0,-3.0v7 M-2.5,-0.5L0,-3.0L2.5,-0.5"/>
                </g>
        </g>
        <svg viewBox="0 0 15 15" width="100%" height="30px" preserveAspectRatio="xMaxYMin meet">
         <g id="arrow_out" transform="scale(0.3 0.3)">
          <a xlink:href="classscram_1_1Project_aa72871e05c53f98f8c4f48ec61277754_cgraph_org.svg" target="_base">
           <rect id="button" ry="5" rx="5" y="6" x="6" height="38" width="38"
                fill="#f2f5e9" fill-opacity="0.5" stroke="#606060" stroke-width="1.0"/>
           <path id="arrow"
             d="M 11.500037,31.436501 C 11.940474,20.09759 22.043105,11.32322 32.158766,21.979434 L 37.068811,17.246167 C 37.068811,17.246167 37.088388,32 37.088388,32 L 22.160133,31.978069 C 22.160133,31.978069 26.997745,27.140456 26.997745,27.140456 C 18.528582,18.264221 13.291696,25.230495 11.500037,31.436501 z"
             style="fill:#404040;"/>
          </a>
         </g>
        </svg>
</svg>
