<?xml version="1.0" encoding="UTF-8" standalone="no"?>
<!DOCTYPE svg PUBLIC "-//W3C//DTD SVG 1.1//EN"
 "http://www.w3.org/Graphics/SVG/1.1/DTD/svg11.dtd">
<!-- Generated by graphviz version 2.38.0 (20140413.2041)
 -->
<!-- Title: scram::mef::Link::event_tree Pages: 1 -->
<svg width="363pt" height="137pt"
 viewBox="0.00 0.00 363.00 137.00" xmlns="http://www.w3.org/2000/svg" xmlns:xlink="http://www.w3.org/1999/xlink">
<g id="graph0" class="graph" transform="scale(1 1) rotate(0) translate(4 133)">
<title>scram::mef::Link::event_tree</title>
<polygon fill="white" stroke="none" points="-4,4 -4,-133 359,-133 359,4 -4,4"/>
<!-- Node1 -->
<g id="node1" class="node"><title>Node1</title>
<polygon fill="#bfbfbf" stroke="black" points="0,-55 0,-74 154,-74 154,-55 0,-55"/>
<text text-anchor="middle" x="77" y="-62" font-family="Helvetica,sans-Serif" font-size="10.00">scram::mef::Link::event_tree</text>
</g>
<!-- Node2 -->
<g id="node2" class="node"><title>Node2</title>
<g id="a_node2"><a xlink:href="classscram_1_1core_1_1EventTreeAnalysis.xhtml#a070c68c0d67edb30c9bf57e226aaf88e" target="_top" xlink:title="Analyzes an event tree given the initiating event. ">
<polygon fill="white" stroke="black" points="190,-98.5 190,-128.5 355,-128.5 355,-98.5 190,-98.5"/>
<text text-anchor="start" x="198" y="-116.5" font-family="Helvetica,sans-Serif" font-size="10.00">scram::core::EventTreeAnalysis</text>
<text text-anchor="middle" x="272.5" y="-105.5" font-family="Helvetica,sans-Serif" font-size="10.00">::Analyze</text>
</a>
</g>
</g>
<!-- Node1&#45;&gt;Node2 -->
<g id="edge1" class="edge"><title>Node1&#45;&gt;Node2</title>
<path fill="none" stroke="midnightblue" d="M125.79,-76.6018C151.877,-83.208 184.414,-91.4471 212.119,-98.463"/>
<polygon fill="midnightblue" stroke="midnightblue" points="126.321,-73.126 115.768,-74.064 124.603,-79.9118 126.321,-73.126"/>
</g>
<!-- Node3 -->
<g id="node3" class="node"><title>Node3</title>
<g id="a_node3"><a xlink:href="cycle_8h.xhtml#af609a68b90815b8ced53adf15d93df00" target="_top" xlink:title="Determines the connectors between nodes. ">
<polygon fill="white" stroke="black" points="219,-49.5 219,-79.5 326,-79.5 326,-49.5 219,-49.5"/>
<text text-anchor="start" x="227" y="-67.5" font-family="Helvetica,sans-Serif" font-size="10.00">scram::mef::cycle::</text>
<text text-anchor="middle" x="272.5" y="-56.5" font-family="Helvetica,sans-Serif" font-size="10.00">GetConnector</text>
</a>
</g>
</g>
<!-- Node1&#45;&gt;Node3 -->
<g id="edge2" class="edge"><title>Node1&#45;&gt;Node3</title>
<path fill="none" stroke="midnightblue" d="M164.449,-64.5C183.028,-64.5 202.118,-64.5 218.939,-64.5"/>
<polygon fill="midnightblue" stroke="midnightblue" points="164.199,-61.0001 154.199,-64.5 164.199,-68.0001 164.199,-61.0001"/>
</g>
<!-- Node4 -->
<g id="node4" class="node"><title>Node4</title>
<g id="a_node4"><a xlink:href="cycle_8h.xhtml#a230f776f001ca1a60c9ad6ee960aa2f0" target="_top" xlink:title="Specialization for event&#45;tree link name retrieval. ">
<polygon fill="white" stroke="black" points="219,-0.5 219,-30.5 326,-30.5 326,-0.5 219,-0.5"/>
<text text-anchor="start" x="227" y="-18.5" font-family="Helvetica,sans-Serif" font-size="10.00">scram::mef::cycle::</text>
<text text-anchor="middle" x="272.5" y="-7.5" font-family="Helvetica,sans-Serif" font-size="10.00">GetUniqueName</text>
</a>
</g>
</g>
<!-- Node1&#45;&gt;Node4 -->
<g id="edge3" class="edge"><title>Node1&#45;&gt;Node4</title>
<path fill="none" stroke="midnightblue" d="M125.798,-52.3961C154.021,-45.2493 189.788,-36.1918 218.822,-28.8397"/>
<polygon fill="midnightblue" stroke="midnightblue" points="124.603,-49.0882 115.768,-54.936 126.321,-55.874 124.603,-49.0882"/>
</g>
</g>
</svg>
