<?xml version="1.0" encoding="UTF-8" standalone="no"?>
<!DOCTYPE svg PUBLIC "-//W3C//DTD SVG 1.1//EN"
 "http://www.w3.org/Graphics/SVG/1.1/DTD/svg11.dtd">
<!-- Generated by graphviz version 2.38.0 (20140413.2041)
 -->
<!-- Title: scram::mef::Element::GetAttribute Pages: 1 -->
<svg width="325pt" height="165pt"
 viewBox="0.00 0.00 325.00 165.00" xmlns="http://www.w3.org/2000/svg" xmlns:xlink="http://www.w3.org/1999/xlink">
<g id="graph0" class="graph" transform="scale(1 1) rotate(0) translate(4 161)">
<title>scram::mef::Element::GetAttribute</title>
<polygon fill="white" stroke="none" points="-4,4 -4,-161 321,-161 321,4 -4,4"/>
<!-- Node1 -->
<g id="node1" class="node"><title>Node1</title>
<polygon fill="#bfbfbf" stroke="black" points="0,-63.5 0,-93.5 117,-93.5 117,-63.5 0,-63.5"/>
<text text-anchor="start" x="8" y="-81.5" font-family="Helvetica,sans-Serif" font-size="10.00">scram::mef::Element</text>
<text text-anchor="middle" x="58.5" y="-70.5" font-family="Helvetica,sans-Serif" font-size="10.00">::GetAttribute</text>
</g>
<!-- Node1&#45;&gt;Node1 -->
<g id="edge4" class="edge"><title>Node1&#45;&gt;Node1</title>
<path fill="none" stroke="midnightblue" d="M27.8284,-93.659C20.4324,-103.057 30.6562,-112 58.5,-112 75.4673,-112 85.8916,-108.679 89.7731,-103.958"/>
<polygon fill="midnightblue" stroke="midnightblue" points="93.2488,-103.438 89.1716,-93.659 86.2607,-103.846 93.2488,-103.438"/>
</g>
<!-- Node2 -->
<g id="node2" class="node"><title>Node2</title>
<g id="a_node2"><a xlink:href="classscram_1_1mef_1_1ContainerElement.xhtml#a6594a0f41cf172ef1ddf4cb25398d485" target="_top" xlink:title="scram::mef::ContainerElement\l::container">
<polygon fill="white" stroke="black" points="153,-126.5 153,-156.5 317,-156.5 317,-126.5 153,-126.5"/>
<text text-anchor="start" x="161" y="-144.5" font-family="Helvetica,sans-Serif" font-size="10.00">scram::mef::ContainerElement</text>
<text text-anchor="middle" x="235" y="-133.5" font-family="Helvetica,sans-Serif" font-size="10.00">::container</text>
</a>
</g>
</g>
<!-- Node1&#45;&gt;Node2 -->
<g id="edge1" class="edge"><title>Node1&#45;&gt;Node2</title>
<path fill="none" stroke="midnightblue" d="M94.7408,-93.6653C112.14,-100.936 133.526,-109.552 153,-116.5 159.426,-118.793 166.181,-121.075 172.935,-123.275"/>
<polygon fill="midnightblue" stroke="midnightblue" points="172.2,-126.715 182.791,-126.432 174.335,-120.048 172.2,-126.715"/>
</g>
<!-- Node3 -->
<g id="node3" class="node"><title>Node3</title>
<g id="a_node3"><a xlink:href="classext_1_1linear__set.xhtml#a155eaa9a4cd913286959ad03f01e2306" target="_top" xlink:title="ext::linear_set::end">
<polygon fill="white" stroke="black" points="181,-88 181,-107 289,-107 289,-88 181,-88"/>
<text text-anchor="middle" x="235" y="-95" font-family="Helvetica,sans-Serif" font-size="10.00">ext::linear_set::end</text>
</a>
</g>
</g>
<!-- Node1&#45;&gt;Node3 -->
<g id="edge2" class="edge"><title>Node1&#45;&gt;Node3</title>
<path fill="none" stroke="midnightblue" d="M117.121,-84.774C134.3,-86.6444 153.217,-88.7041 170.735,-90.6115"/>
<polygon fill="midnightblue" stroke="midnightblue" points="170.544,-94.1113 180.864,-91.7144 171.302,-87.1525 170.544,-94.1113"/>
</g>
<!-- Node4 -->
<g id="node4" class="node"><title>Node4</title>
<g id="a_node4"><a xlink:href="classext_1_1linear__set.xhtml#a69ed39f3d7df4fd4dd53a05f6a600f63" target="_top" xlink:title="Finds an entry in the set by key. ">
<polygon fill="white" stroke="black" points="181.5,-50 181.5,-69 288.5,-69 288.5,-50 181.5,-50"/>
<text text-anchor="middle" x="235" y="-57" font-family="Helvetica,sans-Serif" font-size="10.00">ext::linear_set::find</text>
</a>
</g>
</g>
<!-- Node1&#45;&gt;Node4 -->
<g id="edge3" class="edge"><title>Node1&#45;&gt;Node4</title>
<path fill="none" stroke="midnightblue" d="M117.121,-72.226C134.466,-70.3376 153.582,-68.2561 171.242,-66.3332"/>
<polygon fill="midnightblue" stroke="midnightblue" points="171.885,-69.784 181.447,-65.2221 171.127,-62.8251 171.885,-69.784"/>
</g>
<!-- Node5 -->
<g id="node5" class="node"><title>Node5</title>
<g id="a_node5"><a xlink:href="classscram_1_1mef_1_1Element.xhtml#adb401e2ca84aa98cb60797bec2500a81" target="_top" xlink:title="scram::mef::Element\l::name">
<polygon fill="white" stroke="black" points="176.5,-0.5 176.5,-30.5 293.5,-30.5 293.5,-0.5 176.5,-0.5"/>
<text text-anchor="start" x="184.5" y="-18.5" font-family="Helvetica,sans-Serif" font-size="10.00">scram::mef::Element</text>
<text text-anchor="middle" x="235" y="-7.5" font-family="Helvetica,sans-Serif" font-size="10.00">::name</text>
</a>
</g>
</g>
<!-- Node1&#45;&gt;Node5 -->
<g id="edge5" class="edge"><title>Node1&#45;&gt;Node5</title>
<path fill="none" stroke="midnightblue" d="M94.7408,-63.3347C112.14,-56.0641 133.526,-47.4477 153,-40.5 159.426,-38.2074 166.181,-35.9252 172.935,-33.725"/>
<polygon fill="midnightblue" stroke="midnightblue" points="174.335,-36.9517 182.791,-30.5683 172.2,-30.2852 174.335,-36.9517"/>
</g>
</g>
</svg>
