<?xml version="1.0" encoding="UTF-8" standalone="no"?>
<!DOCTYPE svg PUBLIC "-//W3C//DTD SVG 1.1//EN"
 "http://www.w3.org/Graphics/SVG/1.1/DTD/svg11.dtd">
<!-- Generated by graphviz version 2.38.0 (20140413.2041)
 -->
<!-- Title: scram::mef::FaultTree::top_events Pages: 1 -->
<svg width="297pt" height="39pt"
 viewBox="0.00 0.00 297.00 39.00" xmlns="http://www.w3.org/2000/svg" xmlns:xlink="http://www.w3.org/1999/xlink">
<g id="graph0" class="graph" transform="scale(1 1) rotate(0) translate(4 35)">
<title>scram::mef::FaultTree::top_events</title>
<polygon fill="white" stroke="none" points="-4,4 -4,-35 293,-35 293,4 -4,4"/>
<!-- Node1 -->
<g id="node1" class="node"><title>Node1</title>
<polygon fill="#bfbfbf" stroke="black" points="0,-0.5 0,-30.5 119,-30.5 119,-0.5 0,-0.5"/>
<text text-anchor="start" x="8" y="-18.5" font-family="Helvetica,sans-Serif" font-size="10.00">scram::mef::FaultTree</text>
<text text-anchor="middle" x="59.5" y="-7.5" font-family="Helvetica,sans-Serif" font-size="10.00">::top_events</text>
</g>
<!-- Node2 -->
<g id="node2" class="node"><title>Node2</title>
<g id="a_node2"><a xlink:href="classscram_1_1mef_1_1Component.xhtml#a35a4bac8e19804608ed9ce8ae6d37db6" target="_top" xlink:title="scram::mef::Component\l::gates">
<polygon fill="white" stroke="black" points="155,-0.5 155,-30.5 289,-30.5 289,-0.5 155,-0.5"/>
<text text-anchor="start" x="163" y="-18.5" font-family="Helvetica,sans-Serif" font-size="10.00">scram::mef::Component</text>
<text text-anchor="middle" x="222" y="-7.5" font-family="Helvetica,sans-Serif" font-size="10.00">::gates</text>
</a>
</g>
</g>
<!-- Node1&#45;&gt;Node2 -->
<g id="edge1" class="edge"><title>Node1&#45;&gt;Node2</title>
<path fill="none" stroke="midnightblue" d="M119.353,-15.5C127.558,-15.5 136.085,-15.5 144.555,-15.5"/>
<polygon fill="midnightblue" stroke="midnightblue" points="144.834,-19.0001 154.834,-15.5 144.834,-12.0001 144.834,-19.0001"/>
</g>
</g>
</svg>
