<?xml version="1.0" encoding="UTF-8" standalone="no"?>
<!DOCTYPE svg PUBLIC "-//W3C//DTD SVG 1.1//EN"
 "http://www.w3.org/Graphics/SVG/1.1/DTD/svg11.dtd">
<!-- Generated by graphviz version 2.38.0 (20140413.2041)
 -->
<!-- Title: scram::core::Bdd::Analyze Pages: 1 -->
<svg width="374pt" height="1073pt"
 viewBox="0.00 0.00 374.00 1073.00" xmlns="http://www.w3.org/2000/svg" xmlns:xlink="http://www.w3.org/1999/xlink">
<g id="graph0" class="graph" transform="scale(1 1) rotate(0) translate(4 1069)">
<title>scram::core::Bdd::Analyze</title>
<polygon fill="white" stroke="none" points="-4,4 -4,-1069 370,-1069 370,4 -4,4"/>
<!-- Node1 -->
<g id="node1" class="node"><title>Node1</title>
<polygon fill="#bfbfbf" stroke="black" points="0,-519.5 0,-538.5 142,-538.5 142,-519.5 0,-519.5"/>
<text text-anchor="middle" x="71" y="-526.5" font-family="Helvetica,sans-Serif" font-size="10.00">scram::core::Bdd::Analyze</text>
</g>
<!-- Node2 -->
<g id="node2" class="node"><title>Node2</title>
<g id="a_node2"><a xlink:href="classscram_1_1core_1_1Gate.xhtml#aa793eeaa12244c5b39a0d80e5b1518ae" target="_top" xlink:title="scram::core::Gate::args">
<polygon fill="white" stroke="black" points="207,-1045.5 207,-1064.5 337,-1064.5 337,-1045.5 207,-1045.5"/>
<text text-anchor="middle" x="272" y="-1052.5" font-family="Helvetica,sans-Serif" font-size="10.00">scram::core::Gate::args</text>
</a>
</g>
</g>
<!-- Node1&#45;&gt;Node2 -->
<g id="edge1" class="edge"><title>Node1&#45;&gt;Node2</title>
<path fill="none" stroke="midnightblue" d="M72.6152,-538.752C76.85,-602.729 103.753,-962.092 178,-1036 183.38,-1041.36 189.834,-1045.4 196.803,-1048.43"/>
<polygon fill="midnightblue" stroke="midnightblue" points="195.977,-1051.85 206.572,-1051.96 198.357,-1045.27 195.977,-1051.85"/>
</g>
<!-- Node3 -->
<g id="node3" class="node"><title>Node3</title>
<g id="a_node3"><a xlink:href="classscram_1_1core_1_1Bdd.xhtml#a85ca781ff5bec86a44c217fb4b26ff76" target="_top" xlink:title="Helper function to clear and set vertex marks. ">
<polygon fill="white" stroke="black" points="193,-989.5 193,-1008.5 351,-1008.5 351,-989.5 193,-989.5"/>
<text text-anchor="middle" x="272" y="-996.5" font-family="Helvetica,sans-Serif" font-size="10.00">scram::core::Bdd::ClearMarks</text>
</a>
</g>
</g>
<!-- Node1&#45;&gt;Node3 -->
<g id="edge2" class="edge"><title>Node1&#45;&gt;Node3</title>
<path fill="none" stroke="midnightblue" d="M72.8916,-538.819C78.5342,-598.779 111.21,-915.14 178,-980 179.914,-981.858 181.957,-983.558 184.107,-985.111"/>
<polygon fill="midnightblue" stroke="midnightblue" points="182.5,-988.229 192.87,-990.402 186.118,-982.237 182.5,-988.229"/>
</g>
<!-- Node4 -->
<g id="node4" class="node"><title>Node4</title>
<g id="a_node4"><a xlink:href="classscram_1_1core_1_1Gate.xhtml#a0d070ec20569129162398c73165f65bc" target="_top" xlink:title="scram::core::Gate::\lcoherent">
<polygon fill="white" stroke="black" points="217.5,-940 217.5,-970 326.5,-970 326.5,-940 217.5,-940"/>
<text text-anchor="start" x="225.5" y="-958" font-family="Helvetica,sans-Serif" font-size="10.00">scram::core::Gate::</text>
<text text-anchor="middle" x="272" y="-947" font-family="Helvetica,sans-Serif" font-size="10.00">coherent</text>
</a>
</g>
</g>
<!-- Node1&#45;&gt;Node4 -->
<g id="edge4" class="edge"><title>Node1&#45;&gt;Node4</title>
<path fill="none" stroke="midnightblue" d="M73.2498,-538.753C80.5686,-594.398 119.567,-871.322 178,-930 186.121,-938.155 196.599,-943.732 207.578,-947.527"/>
<polygon fill="midnightblue" stroke="midnightblue" points="206.727,-950.926 217.31,-950.425 208.725,-944.217 206.727,-950.926"/>
</g>
<!-- Node5 -->
<g id="node5" class="node"><title>Node5</title>
<g id="a_node5"><a xlink:href="classscram_1_1core_1_1Ite.xhtml#afc14becd66d22adf37cf1177671d5a2c" target="_top" xlink:title="scram::core::Ite::complement_edge">
<polygon fill="white" stroke="black" points="178,-901.5 178,-920.5 366,-920.5 366,-901.5 178,-901.5"/>
<text text-anchor="middle" x="272" y="-908.5" font-family="Helvetica,sans-Serif" font-size="10.00">scram::core::Ite::complement_edge</text>
</a>
</g>
</g>
<!-- Node1&#45;&gt;Node5 -->
<g id="edge5" class="edge"><title>Node1&#45;&gt;Node5</title>
<path fill="none" stroke="midnightblue" d="M71.5287,-538.646C69.804,-585.539 68.8413,-791.503 178,-892 179.546,-893.423 181.168,-894.752 182.856,-895.991"/>
<polygon fill="midnightblue" stroke="midnightblue" points="181.433,-899.225 191.785,-901.478 185.097,-893.261 181.433,-899.225"/>
</g>
<!-- Node6 -->
<g id="node6" class="node"><title>Node6</title>
<g id="a_node6"><a xlink:href="classscram_1_1core_1_1Gate.xhtml#ab2a4e8ac78b36541a32cc719863910a5" target="_top" xlink:title="scram::core::Gate::\lconstant">
<polygon fill="white" stroke="black" points="217.5,-852 217.5,-882 326.5,-882 326.5,-852 217.5,-852"/>
<text text-anchor="start" x="225.5" y="-870" font-family="Helvetica,sans-Serif" font-size="10.00">scram::core::Gate::</text>
<text text-anchor="middle" x="272" y="-859" font-family="Helvetica,sans-Serif" font-size="10.00">constant</text>
</a>
</g>
</g>
<!-- Node1&#45;&gt;Node6 -->
<g id="edge6" class="edge"><title>Node1&#45;&gt;Node6</title>
<path fill="none" stroke="midnightblue" d="M72.1374,-538.664C73.2908,-581.436 83.8124,-755.45 178,-843 186.313,-850.727 196.779,-856.042 207.666,-859.681"/>
<polygon fill="midnightblue" stroke="midnightblue" points="206.72,-863.05 217.299,-862.466 208.664,-856.326 206.72,-863.05"/>
</g>
<!-- Node7 -->
<g id="node7" class="node"><title>Node7</title>
<g id="a_node7"><a xlink:href="classscram_1_1core_1_1CacheTable.xhtml#ae97b2ee82cab1f6944e8bb7c973575d6" target="_top" xlink:title="Emplaces a new entry. ">
<polygon fill="white" stroke="black" points="205,-803 205,-833 339,-833 339,-803 205,-803"/>
<text text-anchor="start" x="213" y="-821" font-family="Helvetica,sans-Serif" font-size="10.00">scram::core::CacheTable</text>
<text text-anchor="middle" x="272" y="-810" font-family="Helvetica,sans-Serif" font-size="10.00">::emplace</text>
</a>
</g>
</g>
<!-- Node1&#45;&gt;Node7 -->
<g id="edge7" class="edge"><title>Node1&#45;&gt;Node7</title>
<path fill="none" stroke="midnightblue" d="M72.8169,-538.711C76.6069,-577.387 95.9603,-721.839 178,-794 183.131,-798.514 189.004,-802.197 195.248,-805.201"/>
<polygon fill="midnightblue" stroke="midnightblue" points="194.043,-808.491 204.619,-809.132 196.751,-802.036 194.043,-808.491"/>
</g>
<!-- Node8 -->
<g id="node8" class="node"><title>Node8</title>
<g id="a_node8"><a xlink:href="classscram_1_1core_1_1WeakIntrusivePtr.xhtml#a7c782e61588664e379a54ad68b6a0c39" target="_top" xlink:title="scram::core::WeakIntrusive\lPtr::expired">
<polygon fill="white" stroke="black" points="199.5,-754 199.5,-784 344.5,-784 344.5,-754 199.5,-754"/>
<text text-anchor="start" x="207.5" y="-772" font-family="Helvetica,sans-Serif" font-size="10.00">scram::core::WeakIntrusive</text>
<text text-anchor="middle" x="272" y="-761" font-family="Helvetica,sans-Serif" font-size="10.00">Ptr::expired</text>
</a>
</g>
</g>
<!-- Node1&#45;&gt;Node8 -->
<g id="edge8" class="edge"><title>Node1&#45;&gt;Node8</title>
<path fill="none" stroke="midnightblue" d="M73.7375,-538.526C80.4234,-572.357 107.72,-687.752 178,-745 181.761,-748.064 185.869,-750.741 190.195,-753.081"/>
<polygon fill="midnightblue" stroke="midnightblue" points="188.808,-756.296 199.343,-757.423 191.81,-749.973 188.808,-756.296"/>
</g>
<!-- Node9 -->
<g id="node9" class="node"><title>Node9</title>
<g id="a_node9"><a xlink:href="classscram_1_1core_1_1NonTerminal.xhtml#a7b184b2ba68a289aae9f3737f1d13b97" target="_top" xlink:title="scram::core::NonTerminal\l::high">
<polygon fill="white" stroke="black" points="202.5,-705 202.5,-735 341.5,-735 341.5,-705 202.5,-705"/>
<text text-anchor="start" x="210.5" y="-723" font-family="Helvetica,sans-Serif" font-size="10.00">scram::core::NonTerminal</text>
<text text-anchor="middle" x="272" y="-712" font-family="Helvetica,sans-Serif" font-size="10.00">::high</text>
</a>
</g>
</g>
<!-- Node1&#45;&gt;Node9 -->
<g id="edge9" class="edge"><title>Node1&#45;&gt;Node9</title>
<path fill="none" stroke="midnightblue" d="M75.2428,-538.715C85.3904,-567.566 119.405,-653.377 178,-696 182.551,-699.311 187.519,-702.165 192.714,-704.627"/>
<polygon fill="midnightblue" stroke="midnightblue" points="191.695,-707.995 202.269,-708.647 194.409,-701.543 191.695,-707.995"/>
</g>
<!-- Node10 -->
<g id="node10" class="node"><title>Node10</title>
<g id="a_node10"><a xlink:href="classscram_1_1core_1_1Node.xhtml#a62121e217b0da73112af7e07275f2c15" target="_top" xlink:title="scram::core::Node::\lindex">
<polygon fill="white" stroke="black" points="216.5,-656 216.5,-686 327.5,-686 327.5,-656 216.5,-656"/>
<text text-anchor="start" x="224.5" y="-674" font-family="Helvetica,sans-Serif" font-size="10.00">scram::core::Node::</text>
<text text-anchor="middle" x="272" y="-663" font-family="Helvetica,sans-Serif" font-size="10.00">index</text>
</a>
</g>
</g>
<!-- Node1&#45;&gt;Node10 -->
<g id="edge10" class="edge"><title>Node1&#45;&gt;Node10</title>
<path fill="none" stroke="midnightblue" d="M77.8128,-538.682C91.9435,-561.35 130.453,-618.127 178,-647 186.659,-652.258 196.445,-656.372 206.336,-659.589"/>
<polygon fill="midnightblue" stroke="midnightblue" points="205.642,-663.033 216.224,-662.516 207.629,-656.321 205.642,-663.033"/>
</g>
<!-- Node11 -->
<g id="node11" class="node"><title>Node11</title>
<g id="a_node11"><a xlink:href="classscram_1_1core_1_1NonTerminal.xhtml#aeeaafd82ae5890a7ec3462c68ffc8628" target="_top" xlink:title="scram::core::NonTerminal\l::index">
<polygon fill="white" stroke="black" points="202.5,-607 202.5,-637 341.5,-637 341.5,-607 202.5,-607"/>
<text text-anchor="start" x="210.5" y="-625" font-family="Helvetica,sans-Serif" font-size="10.00">scram::core::NonTerminal</text>
<text text-anchor="middle" x="272" y="-614" font-family="Helvetica,sans-Serif" font-size="10.00">::index</text>
</a>
</g>
</g>
<!-- Node1&#45;&gt;Node11 -->
<g id="edge11" class="edge"><title>Node1&#45;&gt;Node11</title>
<path fill="none" stroke="midnightblue" d="M83.971,-538.682C102.86,-553.505 141.224,-581.806 178,-598 182.65,-600.048 187.51,-601.948 192.465,-603.706"/>
<polygon fill="midnightblue" stroke="midnightblue" points="191.486,-607.069 202.08,-606.916 193.703,-600.43 191.486,-607.069"/>
</g>
<!-- Node12 -->
<g id="node12" class="node"><title>Node12</title>
<g id="a_node12"><a xlink:href="classscram_1_1core_1_1WeakIntrusivePtr.xhtml#ad1e3be6267e1316cbc4fb440fc08dde1" target="_top" xlink:title="scram::core::WeakIntrusive\lPtr::lock">
<polygon fill="white" stroke="black" points="199.5,-558 199.5,-588 344.5,-588 344.5,-558 199.5,-558"/>
<text text-anchor="start" x="207.5" y="-576" font-family="Helvetica,sans-Serif" font-size="10.00">scram::core::WeakIntrusive</text>
<text text-anchor="middle" x="272" y="-565" font-family="Helvetica,sans-Serif" font-size="10.00">Ptr::lock</text>
</a>
</g>
</g>
<!-- Node1&#45;&gt;Node12 -->
<g id="edge12" class="edge"><title>Node1&#45;&gt;Node12</title>
<path fill="none" stroke="midnightblue" d="M115.18,-538.547C137.885,-543.568 166.424,-549.878 192.854,-555.721"/>
<polygon fill="midnightblue" stroke="midnightblue" points="192.344,-559.193 202.863,-557.935 193.855,-552.358 192.344,-559.193"/>
</g>
<!-- Node13 -->
<g id="node13" class="node"><title>Node13</title>
<g id="a_node13"><a xlink:href="classscram_1_1core_1_1NonTerminal.xhtml#adeb100923176ebd5f820c75b79280796" target="_top" xlink:title="scram::core::NonTerminal::low">
<polygon fill="white" stroke="black" points="192,-519.5 192,-538.5 352,-538.5 352,-519.5 192,-519.5"/>
<text text-anchor="middle" x="272" y="-526.5" font-family="Helvetica,sans-Serif" font-size="10.00">scram::core::NonTerminal::low</text>
</a>
</g>
</g>
<!-- Node1&#45;&gt;Node13 -->
<g id="edge13" class="edge"><title>Node1&#45;&gt;Node13</title>
<path fill="none" stroke="midnightblue" d="M142.16,-529C155.001,-529 168.557,-529 181.864,-529"/>
<polygon fill="midnightblue" stroke="midnightblue" points="181.975,-532.5 191.975,-529 181.975,-525.5 181.975,-532.5"/>
</g>
<!-- Node14 -->
<g id="node14" class="node"><title>Node14</title>
<g id="a_node14"><a xlink:href="classscram_1_1core_1_1NonTerminal.xhtml#a7b70ab1b978f3197458c95e0891fd79c" target="_top" xlink:title="scram::core::NonTerminal\l::mark">
<polygon fill="white" stroke="black" points="202.5,-470 202.5,-500 341.5,-500 341.5,-470 202.5,-470"/>
<text text-anchor="start" x="210.5" y="-488" font-family="Helvetica,sans-Serif" font-size="10.00">scram::core::NonTerminal</text>
<text text-anchor="middle" x="272" y="-477" font-family="Helvetica,sans-Serif" font-size="10.00">::mark</text>
</a>
</g>
</g>
<!-- Node1&#45;&gt;Node14 -->
<g id="edge14" class="edge"><title>Node1&#45;&gt;Node14</title>
<path fill="none" stroke="midnightblue" d="M115.18,-519.453C137.885,-514.432 166.424,-508.122 192.854,-502.279"/>
<polygon fill="midnightblue" stroke="midnightblue" points="193.855,-505.642 202.863,-500.065 192.344,-498.807 193.855,-505.642"/>
</g>
<!-- Node15 -->
<g id="node15" class="node"><title>Node15</title>
<g id="a_node15"><a xlink:href="classscram_1_1core_1_1NonTerminal.xhtml#a9230422e92d086c34f67bcb864bfc8a9" target="_top" xlink:title="scram::core::NonTerminal\l::module">
<polygon fill="white" stroke="black" points="202.5,-421 202.5,-451 341.5,-451 341.5,-421 202.5,-421"/>
<text text-anchor="start" x="210.5" y="-439" font-family="Helvetica,sans-Serif" font-size="10.00">scram::core::NonTerminal</text>
<text text-anchor="middle" x="272" y="-428" font-family="Helvetica,sans-Serif" font-size="10.00">::module</text>
</a>
</g>
</g>
<!-- Node1&#45;&gt;Node15 -->
<g id="edge15" class="edge"><title>Node1&#45;&gt;Node15</title>
<path fill="none" stroke="midnightblue" d="M84.3286,-519.275C103.386,-504.676 141.609,-477.098 178,-461 183.387,-458.617 189.053,-456.416 194.819,-454.393"/>
<polygon fill="midnightblue" stroke="midnightblue" points="196.196,-457.624 204.586,-451.154 193.992,-450.979 196.196,-457.624"/>
</g>
<!-- Node16 -->
<g id="node16" class="node"><title>Node16</title>
<g id="a_node16"><a xlink:href="classscram_1_1core_1_1Gate.xhtml#a93fa477d60140843c4abae7de52fffa1" target="_top" xlink:title="scram::core::Gate::\lmodule">
<polygon fill="white" stroke="black" points="217.5,-372 217.5,-402 326.5,-402 326.5,-372 217.5,-372"/>
<text text-anchor="start" x="225.5" y="-390" font-family="Helvetica,sans-Serif" font-size="10.00">scram::core::Gate::</text>
<text text-anchor="middle" x="272" y="-379" font-family="Helvetica,sans-Serif" font-size="10.00">module</text>
</a>
</g>
</g>
<!-- Node1&#45;&gt;Node16 -->
<g id="edge16" class="edge"><title>Node1&#45;&gt;Node16</title>
<path fill="none" stroke="midnightblue" d="M77.8537,-519.433C92.0728,-497.028 130.76,-440.875 178,-412 186.973,-406.516 197.15,-402.217 207.399,-398.853"/>
<polygon fill="midnightblue" stroke="midnightblue" points="208.64,-402.134 217.21,-395.905 206.626,-395.43 208.64,-402.134"/>
</g>
<!-- Node17 -->
<g id="node17" class="node"><title>Node17</title>
<g id="a_node17"><a xlink:href="classscram_1_1core_1_1Node.xhtml#a8b76f2081293edc1cf85ddf8cb2ac2ed" target="_top" xlink:title="scram::core::Node::\lorder">
<polygon fill="white" stroke="black" points="216.5,-323 216.5,-353 327.5,-353 327.5,-323 216.5,-323"/>
<text text-anchor="start" x="224.5" y="-341" font-family="Helvetica,sans-Serif" font-size="10.00">scram::core::Node::</text>
<text text-anchor="middle" x="272" y="-330" font-family="Helvetica,sans-Serif" font-size="10.00">order</text>
</a>
</g>
</g>
<!-- Node1&#45;&gt;Node17 -->
<g id="edge17" class="edge"><title>Node1&#45;&gt;Node17</title>
<path fill="none" stroke="midnightblue" d="M75.2804,-519.37C85.5331,-490.766 119.81,-405.655 178,-363 186.481,-356.783 196.409,-352.112 206.561,-348.602"/>
<polygon fill="midnightblue" stroke="midnightblue" points="207.804,-351.881 216.322,-345.58 205.734,-345.194 207.804,-351.881"/>
</g>
<!-- Node18 -->
<g id="node18" class="node"><title>Node18</title>
<g id="a_node18"><a xlink:href="classscram_1_1core_1_1NonTerminal.xhtml#af5853746ad388f479a7aa45c5d843466" target="_top" xlink:title="scram::core::NonTerminal\l::order">
<polygon fill="white" stroke="black" points="202.5,-274 202.5,-304 341.5,-304 341.5,-274 202.5,-274"/>
<text text-anchor="start" x="210.5" y="-292" font-family="Helvetica,sans-Serif" font-size="10.00">scram::core::NonTerminal</text>
<text text-anchor="middle" x="272" y="-281" font-family="Helvetica,sans-Serif" font-size="10.00">::order</text>
</a>
</g>
</g>
<!-- Node1&#45;&gt;Node18 -->
<g id="edge18" class="edge"><title>Node1&#45;&gt;Node18</title>
<path fill="none" stroke="midnightblue" d="M73.8675,-519.072C80.8305,-484.892 108.539,-371.058 178,-314 182.552,-310.261 187.613,-307.077 192.956,-304.367"/>
<polygon fill="midnightblue" stroke="midnightblue" points="194.478,-307.521 202.175,-300.239 191.617,-301.132 194.478,-307.521"/>
</g>
<!-- Node19 -->
<g id="node19" class="node"><title>Node19</title>
<g id="a_node19"><a xlink:href="classscram_1_1core_1_1NodeParentManager.xhtml#a6fca1af860a85acc2907699d1d1be716" target="_top" xlink:title="scram::core::NodeParentManager\l::parents">
<polygon fill="white" stroke="black" points="183,-225 183,-255 361,-255 361,-225 183,-225"/>
<text text-anchor="start" x="191" y="-243" font-family="Helvetica,sans-Serif" font-size="10.00">scram::core::NodeParentManager</text>
<text text-anchor="middle" x="272" y="-232" font-family="Helvetica,sans-Serif" font-size="10.00">::parents</text>
</a>
</g>
</g>
<!-- Node1&#45;&gt;Node19 -->
<g id="edge19" class="edge"><title>Node1&#45;&gt;Node19</title>
<path fill="none" stroke="midnightblue" d="M72.8505,-519.348C76.7683,-480.905 96.5425,-337.283 178,-265 179.778,-263.422 181.646,-261.942 183.587,-260.555"/>
<polygon fill="midnightblue" stroke="midnightblue" points="185.851,-263.271 192.525,-255.042 182.177,-257.313 185.851,-263.271"/>
</g>
<!-- Node20 -->
<g id="node20" class="node"><title>Node20</title>
<g id="a_node20"><a xlink:href="structscram_1_1core_1_1IntrusivePtrCast.xhtml#adc53e5b89cace18e05bac95316da7d91" target="_top" xlink:title="scram::core::IntrusivePtr\lCast\&lt; Ite \&gt;::Ptr">
<polygon fill="white" stroke="black" points="205,-176 205,-206 339,-206 339,-176 205,-176"/>
<text text-anchor="start" x="213" y="-194" font-family="Helvetica,sans-Serif" font-size="10.00">scram::core::IntrusivePtr</text>
<text text-anchor="middle" x="272" y="-183" font-family="Helvetica,sans-Serif" font-size="10.00">Cast&lt; Ite &gt;::Ptr</text>
</a>
</g>
</g>
<!-- Node1&#45;&gt;Node20 -->
<g id="edge20" class="edge"><title>Node1&#45;&gt;Node20</title>
<path fill="none" stroke="midnightblue" d="M72.1696,-519.389C73.4601,-476.846 84.4792,-303.726 178,-216 183.08,-211.235 188.968,-207.359 195.269,-204.209"/>
<polygon fill="midnightblue" stroke="midnightblue" points="196.969,-207.286 204.748,-200.093 194.181,-200.865 196.969,-207.286"/>
</g>
<!-- Node21 -->
<g id="node21" class="node"><title>Node21</title>
<g id="a_node21"><a xlink:href="structscram_1_1core_1_1IntrusivePtrCast.xhtml#af153c12dc6133b7d9f9b7a57bba29f1d" target="_top" xlink:title="scram::core::IntrusivePtr\lCast\&lt; Ite \&gt;::Ref">
<polygon fill="white" stroke="black" points="205,-127 205,-157 339,-157 339,-127 205,-127"/>
<text text-anchor="start" x="213" y="-145" font-family="Helvetica,sans-Serif" font-size="10.00">scram::core::IntrusivePtr</text>
<text text-anchor="middle" x="272" y="-134" font-family="Helvetica,sans-Serif" font-size="10.00">Cast&lt; Ite &gt;::Ref</text>
</a>
</g>
</g>
<!-- Node1&#45;&gt;Node21 -->
<g id="edge21" class="edge"><title>Node1&#45;&gt;Node21</title>
<path fill="none" stroke="midnightblue" d="M71.6596,-519.206C70.5968,-472.483 72.4257,-270.251 178,-167 183.059,-162.052 188.988,-158.057 195.361,-154.834"/>
<polygon fill="midnightblue" stroke="midnightblue" points="197.198,-157.851 204.965,-150.645 194.399,-151.435 197.198,-157.851"/>
</g>
<!-- Node22 -->
<g id="node22" class="node"><title>Node22</title>
<g id="a_node22"><a xlink:href="classext_1_1linear__map.xhtml#a670bc30d04c01d2fb124d5ebbc8ade71" target="_top" xlink:title="ext::linear_map::size">
<polygon fill="white" stroke="black" points="214,-88.5 214,-107.5 330,-107.5 330,-88.5 214,-88.5"/>
<text text-anchor="middle" x="272" y="-95.5" font-family="Helvetica,sans-Serif" font-size="10.00">ext::linear_map::size</text>
</a>
</g>
</g>
<!-- Node1&#45;&gt;Node22 -->
<g id="edge22" class="edge"><title>Node1&#45;&gt;Node22</title>
<path fill="none" stroke="midnightblue" d="M73.1223,-519.329C79.8617,-462.917 116.742,-176.821 178,-118 185.237,-111.051 194.276,-106.274 203.855,-103.029"/>
<polygon fill="midnightblue" stroke="midnightblue" points="204.903,-106.37 213.567,-100.271 202.991,-99.6361 204.903,-106.37"/>
</g>
<!-- Node23 -->
<g id="node23" class="node"><title>Node23</title>
<g id="a_node23"><a xlink:href="structscram_1_1core_1_1Bdd_1_1Function.xhtml#abed3bea3547fa39e96f4dee788311e00" target="_top" xlink:title="Swaps with another function. ">
<polygon fill="white" stroke="black" points="200,-39 200,-69 344,-69 344,-39 200,-39"/>
<text text-anchor="start" x="208" y="-57" font-family="Helvetica,sans-Serif" font-size="10.00">scram::core::Bdd::Function</text>
<text text-anchor="middle" x="272" y="-46" font-family="Helvetica,sans-Serif" font-size="10.00">::swap</text>
</a>
</g>
</g>
<!-- Node1&#45;&gt;Node23 -->
<g id="edge23" class="edge"><title>Node1&#45;&gt;Node23</title>
<path fill="none" stroke="midnightblue" d="M72.9501,-519.257C78.9422,-459.758 113.342,-145.713 178,-79 181.854,-75.0232 186.268,-71.6569 191.033,-68.8098"/>
<polygon fill="midnightblue" stroke="midnightblue" points="192.651,-71.9135 199.941,-64.226 189.448,-65.6891 192.651,-71.9135"/>
</g>
<!-- Node24 -->
<g id="node24" class="node"><title>Node24</title>
<g id="a_node24"><a xlink:href="classscram_1_1core_1_1Gate.xhtml#ad88384625a5cdf44af140edefd250869" target="_top" xlink:title="scram::core::Gate::type">
<polygon fill="white" stroke="black" points="207,-0.5 207,-19.5 337,-19.5 337,-0.5 207,-0.5"/>
<text text-anchor="middle" x="272" y="-7.5" font-family="Helvetica,sans-Serif" font-size="10.00">scram::core::Gate::type</text>
</a>
</g>
</g>
<!-- Node1&#45;&gt;Node24 -->
<g id="edge24" class="edge"><title>Node1&#45;&gt;Node24</title>
<path fill="none" stroke="midnightblue" d="M72.6486,-519.409C77.0981,-456.49 105.134,-103.05 178,-30 183.372,-24.6141 189.822,-20.5189 196.788,-17.4243"/>
<polygon fill="midnightblue" stroke="midnightblue" points="198.398,-20.56 206.554,-13.7973 195.961,-13.9979 198.398,-20.56"/>
</g>
<!-- Node3&#45;&gt;Node3 -->
<g id="edge3" class="edge"><title>Node3&#45;&gt;Node3</title>
<path fill="none" stroke="midnightblue" d="M241.174,-1008.76C226.178,-1017.57 236.453,-1027 272,-1027 296.994,-1027 309.494,-1022.34 309.5,-1016.5"/>
<polygon fill="midnightblue" stroke="midnightblue" points="312.004,-1014.05 302.826,-1008.76 306.701,-1018.62 312.004,-1014.05"/>
</g>
</g>
</svg>
