<?xml version="1.0" encoding="UTF-8" standalone="no"?>
<!DOCTYPE svg PUBLIC "-//W3C//DTD SVG 1.1//EN"
 "http://www.w3.org/Graphics/SVG/1.1/DTD/svg11.dtd">
<!-- Generated by graphviz version 2.38.0 (20140413.2041)
 -->
<!-- Title: scram::core::Preprocessor::GatherNodes Pages: 1 -->
<svg width="367pt" height="39pt"
 viewBox="0.00 0.00 367.00 39.00" xmlns="http://www.w3.org/2000/svg" xmlns:xlink="http://www.w3.org/1999/xlink">
<g id="graph0" class="graph" transform="scale(1 1) rotate(0) translate(4 35)">
<title>scram::core::Preprocessor::GatherNodes</title>
<polygon fill="white" stroke="none" points="-4,4 -4,-35 363,-35 363,4 -4,4"/>
<!-- Node1 -->
<g id="node1" class="node"><title>Node1</title>
<polygon fill="#bfbfbf" stroke="black" points="0,-0.5 0,-30.5 143,-30.5 143,-0.5 0,-0.5"/>
<text text-anchor="start" x="8" y="-18.5" font-family="Helvetica,sans-Serif" font-size="10.00">scram::core::Preprocessor</text>
<text text-anchor="middle" x="71.5" y="-7.5" font-family="Helvetica,sans-Serif" font-size="10.00">::GatherNodes</text>
</g>
<!-- Node2 -->
<g id="node2" class="node"><title>Node2</title>
<g id="a_node2"><a xlink:href="classscram_1_1core_1_1CustomPreprocessor_3_01Zbdd_01_4.xhtml#a5185075f852c647c7aa4313d23420ee5" target="_top" xlink:title="Performs preprocessing for analyses with Zero&#45;Suppressed Binary Decision Diagrams. ">
<polygon fill="white" stroke="black" points="179,-0.5 179,-30.5 359,-30.5 359,-0.5 179,-0.5"/>
<text text-anchor="start" x="187" y="-18.5" font-family="Helvetica,sans-Serif" font-size="10.00">scram::core::CustomPreprocessor</text>
<text text-anchor="middle" x="269" y="-7.5" font-family="Helvetica,sans-Serif" font-size="10.00">&lt; Zbdd &gt;::Run</text>
</a>
</g>
</g>
<!-- Node1&#45;&gt;Node2 -->
<g id="edge1" class="edge"><title>Node1&#45;&gt;Node2</title>
<path fill="none" stroke="midnightblue" d="M153.255,-15.5C161.682,-15.5 170.282,-15.5 178.796,-15.5"/>
<polygon fill="midnightblue" stroke="midnightblue" points="153.08,-12.0001 143.08,-15.5 153.08,-19.0001 153.08,-12.0001"/>
</g>
</g>
</svg>
