<?xml version="1.0" encoding="UTF-8" standalone="no"?>
<!DOCTYPE svg PUBLIC "-//W3C//DTD SVG 1.1//EN"
 "http://www.w3.org/Graphics/SVG/1.1/DTD/svg11.dtd">
<!-- Generated by graphviz version 2.38.0 (20140413.2041)
 -->
<!-- Title: scram::mef::Substitution::declarative Pages: 1 -->
<svg width="632pt" height="127pt"
 viewBox="0.00 0.00 632.00 126.50" xmlns="http://www.w3.org/2000/svg" xmlns:xlink="http://www.w3.org/1999/xlink">
<g id="graph0" class="graph" transform="scale(1 1) rotate(0) translate(4 122.5)">
<title>scram::mef::Substitution::declarative</title>
<polygon fill="white" stroke="none" points="-4,4 -4,-122.5 628,-122.5 628,4 -4,4"/>
<!-- Node1 -->
<g id="node1" class="node"><title>Node1</title>
<polygon fill="#bfbfbf" stroke="black" points="0,-24.5 0,-54.5 135,-54.5 135,-24.5 0,-24.5"/>
<text text-anchor="start" x="8" y="-42.5" font-family="Helvetica,sans-Serif" font-size="10.00">scram::mef::Substitution</text>
<text text-anchor="middle" x="67.5" y="-31.5" font-family="Helvetica,sans-Serif" font-size="10.00">::declarative</text>
</g>
<!-- Node2 -->
<g id="node2" class="node"><title>Node2</title>
<g id="a_node2"><a xlink:href="classscram_1_1mef_1_1Substitution.xhtml#a0a6da28d1514d7543d80e554e144df6f" target="_top" xlink:title="Adds a source event to the substitution container. ">
<polygon fill="white" stroke="black" points="171,-99 171,-118 331,-118 331,-99 171,-99"/>
<text text-anchor="middle" x="251" y="-106" font-family="Helvetica,sans-Serif" font-size="10.00">scram::mef::Substitution::Add</text>
</a>
</g>
</g>
<!-- Node1&#45;&gt;Node2 -->
<g id="edge1" class="edge"><title>Node1&#45;&gt;Node2</title>
<path fill="none" stroke="midnightblue" d="M95.2076,-54.5296C115.494,-65.4469 144.354,-79.9263 171,-89.5 178.015,-92.0206 185.5,-94.3101 192.963,-96.3566"/>
<polygon fill="midnightblue" stroke="midnightblue" points="192.158,-99.7638 202.718,-98.906 193.928,-92.9912 192.158,-99.7638"/>
</g>
<!-- Node6 -->
<g id="node6" class="node"><title>Node6</title>
<g id="a_node6"><a xlink:href="classscram_1_1mef_1_1Substitution.xhtml#a01bb7b2682e333bb6cd4b730447162c2" target="_top" xlink:title="scram::mef::Substitution\l::type">
<polygon fill="white" stroke="black" points="183.5,-49.5 183.5,-79.5 318.5,-79.5 318.5,-49.5 183.5,-49.5"/>
<text text-anchor="start" x="191.5" y="-67.5" font-family="Helvetica,sans-Serif" font-size="10.00">scram::mef::Substitution</text>
<text text-anchor="middle" x="251" y="-56.5" font-family="Helvetica,sans-Serif" font-size="10.00">::type</text>
</a>
</g>
</g>
<!-- Node1&#45;&gt;Node6 -->
<g id="edge5" class="edge"><title>Node1&#45;&gt;Node6</title>
<path fill="none" stroke="midnightblue" d="M135.053,-48.6671C147.507,-50.3825 160.616,-52.1882 173.347,-53.9417"/>
<polygon fill="midnightblue" stroke="midnightblue" points="173.071,-57.4366 183.455,-55.334 174.026,-50.5021 173.071,-57.4366"/>
</g>
<!-- Node7 -->
<g id="node7" class="node"><title>Node7</title>
<g id="a_node7"><a xlink:href="classscram_1_1mef_1_1Substitution.xhtml#ab1859efddac529e0827537fae2f16cbb" target="_top" xlink:title="Checks if the substitution is setup correctly. ">
<polygon fill="white" stroke="black" points="183.5,-0.5 183.5,-30.5 318.5,-30.5 318.5,-0.5 183.5,-0.5"/>
<text text-anchor="start" x="191.5" y="-18.5" font-family="Helvetica,sans-Serif" font-size="10.00">scram::mef::Substitution</text>
<text text-anchor="middle" x="251" y="-7.5" font-family="Helvetica,sans-Serif" font-size="10.00">::Validate</text>
</a>
</g>
</g>
<!-- Node1&#45;&gt;Node7 -->
<g id="edge6" class="edge"><title>Node1&#45;&gt;Node7</title>
<path fill="none" stroke="midnightblue" d="M133.001,-24.4784C145.992,-22.499 159.769,-20.615 173.134,-18.9849"/>
<polygon fill="midnightblue" stroke="midnightblue" points="173.733,-22.4385 183.254,-17.7904 172.912,-15.4868 173.733,-22.4385"/>
</g>
<!-- Node3 -->
<g id="node3" class="node"><title>Node3</title>
<g id="a_node3"><a xlink:href="classscram_1_1mef_1_1Id.xhtml#a7e258c5f6332715d5ed6a3fdbf681a8b" target="_top" xlink:title="scram::mef::Id::id">
<polygon fill="white" stroke="black" points="367,-92 367,-111 467,-111 467,-92 367,-92"/>
<text text-anchor="middle" x="417" y="-99" font-family="Helvetica,sans-Serif" font-size="10.00">scram::mef::Id::id</text>
</a>
</g>
</g>
<!-- Node2&#45;&gt;Node3 -->
<g id="edge2" class="edge"><title>Node2&#45;&gt;Node3</title>
<path fill="none" stroke="midnightblue" d="M331.118,-105.123C339.641,-104.759 348.207,-104.394 356.445,-104.042"/>
<polygon fill="midnightblue" stroke="midnightblue" points="356.835,-107.529 366.676,-103.605 356.536,-100.535 356.835,-107.529"/>
</g>
<!-- Node4 -->
<g id="node4" class="node"><title>Node4</title>
<g id="a_node4"><a xlink:href="classscram_1_1mef_1_1Element.xhtml#adb401e2ca84aa98cb60797bec2500a81" target="_top" xlink:title="scram::mef::Element\l::name">
<polygon fill="white" stroke="black" points="505,-36.5 505,-66.5 622,-66.5 622,-36.5 505,-36.5"/>
<text text-anchor="start" x="513" y="-54.5" font-family="Helvetica,sans-Serif" font-size="10.00">scram::mef::Element</text>
<text text-anchor="middle" x="563.5" y="-43.5" font-family="Helvetica,sans-Serif" font-size="10.00">::name</text>
</a>
</g>
</g>
<!-- Node3&#45;&gt;Node4 -->
<g id="edge3" class="edge"><title>Node3&#45;&gt;Node4</title>
<path fill="none" stroke="midnightblue" d="M445.519,-91.9777C463.485,-85.7612 487.534,-77.4398 509.154,-69.9589"/>
<polygon fill="midnightblue" stroke="midnightblue" points="510.58,-73.1691 518.886,-66.5915 508.291,-66.5539 510.58,-73.1691"/>
</g>
<!-- Node5 -->
<g id="node5" class="node"><title>Node5</title>
<g id="a_node5"><a xlink:href="classscram_1_1mef_1_1Role.xhtml#aa1843c29411c29b27d79414d34525bbc" target="_top" xlink:title="scram::mef::Role::role">
<polygon fill="white" stroke="black" points="503,-92 503,-111 624,-111 624,-92 503,-92"/>
<text text-anchor="middle" x="563.5" y="-99" font-family="Helvetica,sans-Serif" font-size="10.00">scram::mef::Role::role</text>
</a>
</g>
</g>
<!-- Node3&#45;&gt;Node5 -->
<g id="edge4" class="edge"><title>Node3&#45;&gt;Node5</title>
<path fill="none" stroke="midnightblue" d="M467.325,-101.5C475.552,-101.5 484.221,-101.5 492.841,-101.5"/>
<polygon fill="midnightblue" stroke="midnightblue" points="492.908,-105 502.908,-101.5 492.908,-98.0001 492.908,-105"/>
</g>
<!-- Node7&#45;&gt;Node1 -->
<g id="edge8" class="edge"><title>Node7&#45;&gt;Node1</title>
<path fill="none" stroke="midnightblue" d="M185.573,-30.5103C172.514,-32.5009 158.659,-34.3952 145.225,-36.0324"/>
<polygon fill="midnightblue" stroke="midnightblue" points="144.575,-32.5847 135.053,-37.2316 145.394,-39.5366 144.575,-32.5847"/>
</g>
<!-- Node7&#45;&gt;Node4 -->
<g id="edge7" class="edge"><title>Node7&#45;&gt;Node4</title>
<path fill="none" stroke="midnightblue" d="M318.61,-23.2229C370.565,-29.2466 442.437,-37.5796 494.694,-43.6384"/>
<polygon fill="midnightblue" stroke="midnightblue" points="494.535,-47.1434 504.872,-44.8185 495.341,-40.19 494.535,-47.1434"/>
</g>
</g>
</svg>
