<?xml version="1.0" encoding="UTF-8" standalone="no"?>
<!DOCTYPE svg PUBLIC "-//W3C//DTD SVG 1.1//EN"
 "http://www.w3.org/Graphics/SVG/1.1/DTD/svg11.dtd">
<!-- Generated by graphviz version 2.38.0 (20140413.2041)
 -->
<!-- Title: scram::mef::Formula::Swap Pages: 1 -->
<svg width="433pt" height="323pt"
 viewBox="0.00 0.00 433.00 323.00" xmlns="http://www.w3.org/2000/svg" xmlns:xlink="http://www.w3.org/1999/xlink">
<g id="graph0" class="graph" transform="scale(1 1) rotate(0) translate(4 319)">
<title>scram::mef::Formula::Swap</title>
<polygon fill="white" stroke="none" points="-4,4 -4,-319 429,-319 429,4 -4,4"/>
<!-- Node1 -->
<g id="node1" class="node"><title>Node1</title>
<polygon fill="#bfbfbf" stroke="black" points="0,-147.5 0,-177.5 116,-177.5 116,-147.5 0,-147.5"/>
<text text-anchor="start" x="8" y="-165.5" font-family="Helvetica,sans-Serif" font-size="10.00">scram::mef::Formula</text>
<text text-anchor="middle" x="58" y="-154.5" font-family="Helvetica,sans-Serif" font-size="10.00">::Swap</text>
</g>
<!-- Node2 -->
<g id="node2" class="node"><title>Node2</title>
<g id="a_node2"><a xlink:href="classscram_1_1mef_1_1Formula_1_1ArgSet.xhtml#a9e35c2fdad19fe30bc9e1ba4ccc8ed93" target="_top" xlink:title="scram::mef::Formula\l::ArgSet::data">
<polygon fill="white" stroke="black" points="152,-284.5 152,-314.5 268,-314.5 268,-284.5 152,-284.5"/>
<text text-anchor="start" x="160" y="-302.5" font-family="Helvetica,sans-Serif" font-size="10.00">scram::mef::Formula</text>
<text text-anchor="middle" x="210" y="-291.5" font-family="Helvetica,sans-Serif" font-size="10.00">::ArgSet::data</text>
</a>
</g>
</g>
<!-- Node1&#45;&gt;Node2 -->
<g id="edge1" class="edge"><title>Node1&#45;&gt;Node2</title>
<path fill="none" stroke="midnightblue" d="M68.0352,-177.659C82.8688,-201.412 114.512,-247.568 152,-275.5 153.819,-276.855 155.726,-278.15 157.694,-279.386"/>
<polygon fill="midnightblue" stroke="midnightblue" points="156.199,-282.561 166.629,-284.423 159.637,-276.463 156.199,-282.561"/>
</g>
<!-- Node3 -->
<g id="node3" class="node"><title>Node3</title>
<g id="a_node3"><a xlink:href="classscram_1_1mef_1_1Formula_1_1ArgSet.xhtml#a1e4a926eb0379fdb33ee354f65348418" target="_top" xlink:title="scram::mef::Formula\l::ArgSet::empty">
<polygon fill="white" stroke="black" points="152,-235.5 152,-265.5 268,-265.5 268,-235.5 152,-235.5"/>
<text text-anchor="start" x="160" y="-253.5" font-family="Helvetica,sans-Serif" font-size="10.00">scram::mef::Formula</text>
<text text-anchor="middle" x="210" y="-242.5" font-family="Helvetica,sans-Serif" font-size="10.00">::ArgSet::empty</text>
</a>
</g>
</g>
<!-- Node1&#45;&gt;Node3 -->
<g id="edge2" class="edge"><title>Node1&#45;&gt;Node3</title>
<path fill="none" stroke="midnightblue" d="M79.0047,-177.622C97.3932,-191.136 125.707,-210.987 152,-225.5 155.466,-227.413 159.108,-229.291 162.804,-231.104"/>
<polygon fill="midnightblue" stroke="midnightblue" points="161.497,-234.358 172.034,-235.462 164.485,-228.028 161.497,-234.358"/>
</g>
<!-- Node4 -->
<g id="node4" class="node"><title>Node4</title>
<g id="a_node4"><a xlink:href="classscram_1_1mef_1_1Id.xhtml#a7e258c5f6332715d5ed6a3fdbf681a8b" target="_top" xlink:title="scram::mef::Id::id">
<polygon fill="white" stroke="black" points="160,-197 160,-216 260,-216 260,-197 160,-197"/>
<text text-anchor="middle" x="210" y="-204" font-family="Helvetica,sans-Serif" font-size="10.00">scram::mef::Id::id</text>
</a>
</g>
</g>
<!-- Node1&#45;&gt;Node4 -->
<g id="edge3" class="edge"><title>Node1&#45;&gt;Node4</title>
<path fill="none" stroke="midnightblue" d="M110.202,-177.519C128.506,-182.888 148.92,-188.877 166.419,-194.01"/>
<polygon fill="midnightblue" stroke="midnightblue" points="165.766,-197.465 176.347,-196.922 167.736,-190.748 165.766,-197.465"/>
</g>
<!-- Node7 -->
<g id="node7" class="node"><title>Node7</title>
<g id="a_node7"><a xlink:href="classscram_1_1mef_1_1Formula.xhtml#a306266e72a52153d168abdce3d039368" target="_top" xlink:title="scram::mef::Formula\l::max_number">
<polygon fill="white" stroke="black" points="152,-147.5 152,-177.5 268,-177.5 268,-147.5 152,-147.5"/>
<text text-anchor="start" x="160" y="-165.5" font-family="Helvetica,sans-Serif" font-size="10.00">scram::mef::Formula</text>
<text text-anchor="middle" x="210" y="-154.5" font-family="Helvetica,sans-Serif" font-size="10.00">::max_number</text>
</a>
</g>
</g>
<!-- Node1&#45;&gt;Node7 -->
<g id="edge6" class="edge"><title>Node1&#45;&gt;Node7</title>
<path fill="none" stroke="midnightblue" d="M116.136,-162.5C124.377,-162.5 132.923,-162.5 141.344,-162.5"/>
<polygon fill="midnightblue" stroke="midnightblue" points="141.526,-166 151.525,-162.5 141.525,-159 141.526,-166"/>
</g>
<!-- Node8 -->
<g id="node8" class="node"><title>Node8</title>
<g id="a_node8"><a xlink:href="classscram_1_1mef_1_1Formula.xhtml#a7a1e721a74179b966543929fcaabd6af" target="_top" xlink:title="scram::mef::Formula\l::min_number">
<polygon fill="white" stroke="black" points="152,-98.5 152,-128.5 268,-128.5 268,-98.5 152,-98.5"/>
<text text-anchor="start" x="160" y="-116.5" font-family="Helvetica,sans-Serif" font-size="10.00">scram::mef::Formula</text>
<text text-anchor="middle" x="210" y="-105.5" font-family="Helvetica,sans-Serif" font-size="10.00">::min_number</text>
</a>
</g>
</g>
<!-- Node1&#45;&gt;Node8 -->
<g id="edge7" class="edge"><title>Node1&#45;&gt;Node8</title>
<path fill="none" stroke="midnightblue" d="M105.229,-147.399C120.413,-142.438 137.451,-136.873 153.264,-131.707"/>
<polygon fill="midnightblue" stroke="midnightblue" points="154.505,-134.984 162.924,-128.552 152.331,-128.33 154.505,-134.984"/>
</g>
<!-- Node9 -->
<g id="node9" class="node"><title>Node9</title>
<g id="a_node9"><a xlink:href="classscram_1_1mef_1_1Formula_1_1ArgSet.xhtml#add1c73d7d5e7c20b08ec0eb814101aed" target="_top" xlink:title="scram::mef::Formula\l::ArgSet::size">
<polygon fill="white" stroke="black" points="152,-49.5 152,-79.5 268,-79.5 268,-49.5 152,-49.5"/>
<text text-anchor="start" x="160" y="-67.5" font-family="Helvetica,sans-Serif" font-size="10.00">scram::mef::Formula</text>
<text text-anchor="middle" x="210" y="-56.5" font-family="Helvetica,sans-Serif" font-size="10.00">::ArgSet::size</text>
</a>
</g>
</g>
<!-- Node1&#45;&gt;Node9 -->
<g id="edge8" class="edge"><title>Node1&#45;&gt;Node9</title>
<path fill="none" stroke="midnightblue" d="M75.5376,-147.401C93.4397,-131.581 123.293,-106.685 152,-89.5 155.152,-87.6129 158.473,-85.7861 161.861,-84.0369"/>
<polygon fill="midnightblue" stroke="midnightblue" points="163.479,-87.1418 170.919,-79.5995 160.399,-80.8555 163.479,-87.1418"/>
</g>
<!-- Node10 -->
<g id="node10" class="node"><title>Node10</title>
<g id="a_node10"><a xlink:href="classscram_1_1mef_1_1Usage.xhtml#ae2ee222f7ce6cd4660567ce97d551222" target="_top" xlink:title="scram::mef::Usage::\lusage">
<polygon fill="white" stroke="black" points="153,-0.5 153,-30.5 267,-30.5 267,-0.5 153,-0.5"/>
<text text-anchor="start" x="161" y="-18.5" font-family="Helvetica,sans-Serif" font-size="10.00">scram::mef::Usage::</text>
<text text-anchor="middle" x="210" y="-7.5" font-family="Helvetica,sans-Serif" font-size="10.00">usage</text>
</a>
</g>
</g>
<!-- Node1&#45;&gt;Node10 -->
<g id="edge9" class="edge"><title>Node1&#45;&gt;Node10</title>
<path fill="none" stroke="midnightblue" d="M67.0946,-147.398C81.2735,-122.193 112.852,-71.2865 152,-40.5 154.081,-38.8635 156.286,-37.3112 158.572,-35.8421"/>
<polygon fill="midnightblue" stroke="midnightblue" points="160.78,-38.609 167.699,-30.5852 157.287,-32.5432 160.78,-38.609"/>
</g>
<!-- Node5 -->
<g id="node5" class="node"><title>Node5</title>
<g id="a_node5"><a xlink:href="classscram_1_1mef_1_1Role.xhtml#aa1843c29411c29b27d79414d34525bbc" target="_top" xlink:title="scram::mef::Role::role">
<polygon fill="white" stroke="black" points="304,-219 304,-238 425,-238 425,-219 304,-219"/>
<text text-anchor="middle" x="364.5" y="-226" font-family="Helvetica,sans-Serif" font-size="10.00">scram::mef::Role::role</text>
</a>
</g>
</g>
<!-- Node4&#45;&gt;Node5 -->
<g id="edge4" class="edge"><title>Node4&#45;&gt;Node5</title>
<path fill="none" stroke="midnightblue" d="M260.091,-213.582C270.866,-215.136 282.474,-216.811 293.882,-218.457"/>
<polygon fill="midnightblue" stroke="midnightblue" points="293.432,-221.928 303.83,-219.892 294.432,-215 293.432,-221.928"/>
</g>
<!-- Node6 -->
<g id="node6" class="node"><title>Node6</title>
<g id="a_node6"><a xlink:href="classscram_1_1mef_1_1Element.xhtml#adb401e2ca84aa98cb60797bec2500a81" target="_top" xlink:title="scram::mef::Element\l::name">
<polygon fill="white" stroke="black" points="306,-169.5 306,-199.5 423,-199.5 423,-169.5 306,-169.5"/>
<text text-anchor="start" x="314" y="-187.5" font-family="Helvetica,sans-Serif" font-size="10.00">scram::mef::Element</text>
<text text-anchor="middle" x="364.5" y="-176.5" font-family="Helvetica,sans-Serif" font-size="10.00">::name</text>
</a>
</g>
</g>
<!-- Node4&#45;&gt;Node6 -->
<g id="edge5" class="edge"><title>Node4&#45;&gt;Node6</title>
<path fill="none" stroke="midnightblue" d="M260.091,-199.418C271.52,-197.769 283.884,-195.986 295.954,-194.244"/>
<polygon fill="midnightblue" stroke="midnightblue" points="296.598,-197.688 305.996,-192.796 295.598,-190.759 296.598,-197.688"/>
</g>
</g>
</svg>
