<?xml version="1.0" encoding="UTF-8" standalone="no"?>
<!DOCTYPE svg PUBLIC "-//W3C//DTD SVG 1.1//EN"
 "http://www.w3.org/Graphics/SVG/1.1/DTD/svg11.dtd">
<!-- Generated by graphviz version 2.38.0 (20140413.2041)
 -->
<!-- Title: scram::mef::Formula::min_number Pages: 1 -->
<svg width="325pt" height="145pt"
 viewBox="0.00 0.00 325.00 145.00" xmlns="http://www.w3.org/2000/svg" xmlns:xlink="http://www.w3.org/1999/xlink">
<g id="graph0" class="graph" transform="scale(1 1) rotate(0) translate(4 141)">
<title>scram::mef::Formula::min_number</title>
<polygon fill="white" stroke="none" points="-4,4 -4,-141 321,-141 321,4 -4,4"/>
<!-- Node1 -->
<g id="node1" class="node"><title>Node1</title>
<polygon fill="#bfbfbf" stroke="black" points="0,-44.5 0,-74.5 116,-74.5 116,-44.5 0,-44.5"/>
<text text-anchor="start" x="8" y="-62.5" font-family="Helvetica,sans-Serif" font-size="10.00">scram::mef::Formula</text>
<text text-anchor="middle" x="58" y="-51.5" font-family="Helvetica,sans-Serif" font-size="10.00">::min_number</text>
</g>
<!-- Node2 -->
<g id="node2" class="node"><title>Node2</title>
<g id="a_node2"><a xlink:href="classscram_1_1core_1_1EventTreeAnalysis.xhtml#a3e3404417cbdcf92474e5653ec24f936" target="_top" xlink:title="scram::core::EventTreeAnalysis\l::EventTreeAnalysis">
<polygon fill="white" stroke="black" points="152,-106.5 152,-136.5 317,-136.5 317,-106.5 152,-106.5"/>
<text text-anchor="start" x="160" y="-124.5" font-family="Helvetica,sans-Serif" font-size="10.00">scram::core::EventTreeAnalysis</text>
<text text-anchor="middle" x="234.5" y="-113.5" font-family="Helvetica,sans-Serif" font-size="10.00">::EventTreeAnalysis</text>
</a>
</g>
</g>
<!-- Node1&#45;&gt;Node2 -->
<g id="edge1" class="edge"><title>Node1&#45;&gt;Node2</title>
<path fill="none" stroke="midnightblue" d="M104.531,-78.4681C119.55,-84.4952 136.401,-91.0147 152,-96.5 161.634,-99.8877 171.995,-103.265 181.992,-106.392"/>
<polygon fill="midnightblue" stroke="midnightblue" points="105.542,-75.1012 94.9588,-74.5944 102.916,-81.5901 105.542,-75.1012"/>
</g>
<!-- Node3 -->
<g id="node3" class="node"><title>Node3</title>
<g id="a_node3"><a xlink:href="serialization_8cc.xhtml#a83f7058a5caad9ec3ffb5fd6c7d7b8f6" target="_top" xlink:title="Convenience function for serialization into a file. ">
<polygon fill="white" stroke="black" points="175.5,-50 175.5,-69 293.5,-69 293.5,-50 175.5,-50"/>
<text text-anchor="middle" x="234.5" y="-57" font-family="Helvetica,sans-Serif" font-size="10.00">scram::mef::Serialize</text>
</a>
</g>
</g>
<!-- Node1&#45;&gt;Node3 -->
<g id="edge2" class="edge"><title>Node1&#45;&gt;Node3</title>
<path fill="none" stroke="midnightblue" d="M126.557,-59.5C142.657,-59.5 159.701,-59.5 175.337,-59.5"/>
<polygon fill="midnightblue" stroke="midnightblue" points="126.138,-56.0001 116.138,-59.5 126.138,-63.0001 126.138,-56.0001"/>
</g>
<!-- Node4 -->
<g id="node4" class="node"><title>Node4</title>
<g id="a_node4"><a xlink:href="classscram_1_1mef_1_1Formula.xhtml#a6a6ea9595613f23e0f19af5f96754683" target="_top" xlink:title="Swaps an argument event with another one. ">
<polygon fill="white" stroke="black" points="176.5,-0.5 176.5,-30.5 292.5,-30.5 292.5,-0.5 176.5,-0.5"/>
<text text-anchor="start" x="184.5" y="-18.5" font-family="Helvetica,sans-Serif" font-size="10.00">scram::mef::Formula</text>
<text text-anchor="middle" x="234.5" y="-7.5" font-family="Helvetica,sans-Serif" font-size="10.00">::Swap</text>
</a>
</g>
</g>
<!-- Node1&#45;&gt;Node4 -->
<g id="edge4" class="edge"><title>Node1&#45;&gt;Node4</title>
<path fill="none" stroke="midnightblue" d="M126.256,-42.5414C142.753,-38.3819 160.257,-33.9682 176.234,-29.9396"/>
<polygon fill="midnightblue" stroke="midnightblue" points="124.979,-39.2539 116.138,-45.0928 126.69,-46.0415 124.979,-39.2539"/>
</g>
<!-- Node3&#45;&gt;Node3 -->
<g id="edge3" class="edge"><title>Node3&#45;&gt;Node3</title>
<path fill="none" stroke="midnightblue" d="M201.517,-77.3913C202,-83.0406 212.994,-87.5 234.5,-87.5 265.781,-87.5 274.823,-78.0653 261.627,-69.2571"/>
<polygon fill="midnightblue" stroke="midnightblue" points="204.371,-79.4175 207.373,-69.2571 198.69,-75.3273 204.371,-79.4175"/>
</g>
</g>
</svg>
