<?xml version="1.0" encoding="UTF-8" standalone="no"?>
<!DOCTYPE svg PUBLIC "-//W3C//DTD SVG 1.1//EN"
 "http://www.w3.org/Graphics/SVG/1.1/DTD/svg11.dtd">
<!-- Generated by graphviz version 2.38.0 (20140413.2041)
 -->
<!-- Title: scram::core::Node::index Pages: 1 -->
<svg width="444pt" height="653pt"
 viewBox="0.00 0.00 444.00 652.50" xmlns="http://www.w3.org/2000/svg" xmlns:xlink="http://www.w3.org/1999/xlink">
<g id="graph0" class="graph" transform="scale(1 1) rotate(0) translate(4 648.5)">
<title>scram::core::Node::index</title>
<polygon fill="white" stroke="none" points="-4,4 -4,-648.5 440,-648.5 440,4 -4,4"/>
<!-- Node1 -->
<g id="node1" class="node"><title>Node1</title>
<polygon fill="#bfbfbf" stroke="black" points="0,-316 0,-346 111,-346 111,-316 0,-316"/>
<text text-anchor="start" x="8" y="-334" font-family="Helvetica,sans-Serif" font-size="10.00">scram::core::Node::</text>
<text text-anchor="middle" x="55.5" y="-323" font-family="Helvetica,sans-Serif" font-size="10.00">index</text>
</g>
<!-- Node2 -->
<g id="node2" class="node"><title>Node2</title>
<g id="a_node2"><a xlink:href="classscram_1_1core_1_1Mocus.xhtml#a951c8e2f7667d884d4dbda3206dc15e0" target="_top" xlink:title="Finds minimal cut sets from the PDAG. ">
<polygon fill="white" stroke="black" points="163.5,-614 163.5,-644 273.5,-644 273.5,-614 163.5,-614"/>
<text text-anchor="start" x="171.5" y="-632" font-family="Helvetica,sans-Serif" font-size="10.00">scram::core::Mocus</text>
<text text-anchor="middle" x="218.5" y="-621" font-family="Helvetica,sans-Serif" font-size="10.00">::Analyze</text>
</a>
</g>
</g>
<!-- Node1&#45;&gt;Node2 -->
<g id="edge1" class="edge"><title>Node1&#45;&gt;Node2</title>
<path fill="none" stroke="midnightblue" d="M57.7098,-356.252C61.6043,-409.373 78.0081,-533.567 147,-604 151.635,-608.731 157.221,-612.57 163.195,-615.683"/>
<polygon fill="midnightblue" stroke="midnightblue" points="61.1877,-355.796 57.0541,-346.04 54.2021,-356.244 61.1877,-355.796"/>
</g>
<!-- Node3 -->
<g id="node3" class="node"><title>Node3</title>
<g id="a_node3"><a xlink:href="classscram_1_1core_1_1Bdd.xhtml#a1e7f5f7608e5839e27d6be41712b4800" target="_top" xlink:title="Runs the Qualitative analysis with the representation of a PDAG as ROBDD. ">
<polygon fill="white" stroke="black" points="147.5,-575.5 147.5,-594.5 289.5,-594.5 289.5,-575.5 147.5,-575.5"/>
<text text-anchor="middle" x="218.5" y="-582.5" font-family="Helvetica,sans-Serif" font-size="10.00">scram::core::Bdd::Analyze</text>
</a>
</g>
</g>
<!-- Node1&#45;&gt;Node3 -->
<g id="edge2" class="edge"><title>Node1&#45;&gt;Node3</title>
<path fill="none" stroke="midnightblue" d="M58.857,-356.455C64.7107,-404.671 84.3151,-509.537 147,-566 151.333,-569.903 156.384,-573.016 161.757,-575.498"/>
<polygon fill="midnightblue" stroke="midnightblue" points="62.3082,-355.821 57.7255,-346.268 55.351,-356.593 62.3082,-355.821"/>
</g>
<!-- Node4 -->
<g id="node4" class="node"><title>Node4</title>
<g id="a_node4"><a xlink:href="classscram_1_1core_1_1Bdd.xhtml#ab7af95900c1ab921446e2e67177a315c" target="_top" xlink:title="Constructor with the analysis target. ">
<polygon fill="white" stroke="black" points="157,-537.5 157,-556.5 280,-556.5 280,-537.5 157,-537.5"/>
<text text-anchor="middle" x="218.5" y="-544.5" font-family="Helvetica,sans-Serif" font-size="10.00">scram::core::Bdd::Bdd</text>
</a>
</g>
</g>
<!-- Node1&#45;&gt;Node4 -->
<g id="edge3" class="edge"><title>Node1&#45;&gt;Node4</title>
<path fill="none" stroke="midnightblue" d="M60.9357,-356.18C69.6825,-398.209 93.1872,-482.517 147,-528 151.55,-531.846 156.806,-534.92 162.355,-537.376"/>
<polygon fill="midnightblue" stroke="midnightblue" points="64.3407,-355.356 58.9767,-346.219 57.4723,-356.707 64.3407,-355.356"/>
</g>
<!-- Node5 -->
<g id="node5" class="node"><title>Node5</title>
<g id="a_node5"><a xlink:href="classscram_1_1core_1_1Gate.xhtml#a9f9390cdf7bfb3c552a7ef843629ddc0" target="_top" xlink:title="Clones arguments and parameters. ">
<polygon fill="white" stroke="black" points="164,-488 164,-518 273,-518 273,-488 164,-488"/>
<text text-anchor="start" x="172" y="-506" font-family="Helvetica,sans-Serif" font-size="10.00">scram::core::Gate::</text>
<text text-anchor="middle" x="218.5" y="-495" font-family="Helvetica,sans-Serif" font-size="10.00">Clone</text>
</a>
</g>
</g>
<!-- Node1&#45;&gt;Node5 -->
<g id="edge4" class="edge"><title>Node1&#45;&gt;Node5</title>
<path fill="none" stroke="midnightblue" d="M65.5772,-356.151C78.6545,-388.961 105.841,-446.052 147,-479 152.047,-483.04 157.812,-486.417 163.821,-489.237"/>
<polygon fill="midnightblue" stroke="midnightblue" points="68.6871,-354.487 61.8272,-346.413 62.1547,-357.003 68.6871,-354.487"/>
</g>
<!-- Node6 -->
<g id="node6" class="node"><title>Node6</title>
<g id="a_node6"><a xlink:href="classscram_1_1core_1_1Gate.xhtml#afb7c7d1264436f419af973286a4b2439" target="_top" xlink:title="Adds arguments of an argument gate to this gate. ">
<polygon fill="white" stroke="black" points="164,-439 164,-469 273,-469 273,-439 164,-439"/>
<text text-anchor="start" x="172" y="-457" font-family="Helvetica,sans-Serif" font-size="10.00">scram::core::Gate::</text>
<text text-anchor="middle" x="218.5" y="-446" font-family="Helvetica,sans-Serif" font-size="10.00">CoalesceGate</text>
</a>
</g>
</g>
<!-- Node1&#45;&gt;Node6 -->
<g id="edge5" class="edge"><title>Node1&#45;&gt;Node6</title>
<path fill="none" stroke="midnightblue" d="M72.5882,-354.553C88.943,-376.861 116.203,-409.859 147,-430 152.194,-433.397 157.919,-436.364 163.793,-438.942"/>
<polygon fill="midnightblue" stroke="midnightblue" points="75.3376,-352.381 66.669,-346.289 69.647,-356.457 75.3376,-352.381"/>
</g>
<!-- Node7 -->
<g id="node7" class="node"><title>Node7</title>
<g id="a_node7"><a xlink:href="classscram_1_1core_1_1Gate.xhtml#a499891e2b42db9746c9b8f53ef40ee96" target="_top" xlink:title="Removes an argument from the arguments container. ">
<polygon fill="white" stroke="black" points="164,-390 164,-420 273,-420 273,-390 164,-390"/>
<text text-anchor="start" x="172" y="-408" font-family="Helvetica,sans-Serif" font-size="10.00">scram::core::Gate::</text>
<text text-anchor="middle" x="218.5" y="-397" font-family="Helvetica,sans-Serif" font-size="10.00">EraseArg</text>
</a>
</g>
</g>
<!-- Node1&#45;&gt;Node7 -->
<g id="edge6" class="edge"><title>Node1&#45;&gt;Node7</title>
<path fill="none" stroke="midnightblue" d="M89.7436,-351.216C106.547,-360.954 127.47,-372.362 147,-381 154.213,-384.19 161.991,-387.223 169.656,-389.992"/>
<polygon fill="midnightblue" stroke="midnightblue" points="91.2632,-348.05 80.8672,-346.007 87.7199,-354.087 91.2632,-348.05"/>
</g>
<!-- Node8 -->
<g id="node8" class="node"><title>Node8</title>
<g id="a_node8"><a xlink:href="classscram_1_1core_1_1Gate.xhtml#a1f1f6c207ed48810d094de6c505c2643" target="_top" xlink:title="Clears all the arguments of this gate. ">
<polygon fill="white" stroke="black" points="164,-341 164,-371 273,-371 273,-341 164,-341"/>
<text text-anchor="start" x="172" y="-359" font-family="Helvetica,sans-Serif" font-size="10.00">scram::core::Gate::</text>
<text text-anchor="middle" x="218.5" y="-348" font-family="Helvetica,sans-Serif" font-size="10.00">EraseArgs</text>
</a>
</g>
</g>
<!-- Node1&#45;&gt;Node8 -->
<g id="edge7" class="edge"><title>Node1&#45;&gt;Node8</title>
<path fill="none" stroke="midnightblue" d="M121.176,-341.043C135.343,-343.243 150.19,-345.548 163.868,-347.672"/>
<polygon fill="midnightblue" stroke="midnightblue" points="121.426,-337.54 111.007,-339.464 120.352,-344.457 121.426,-337.54"/>
</g>
<!-- Node9 -->
<g id="node9" class="node"><title>Node9</title>
<g id="a_node9"><a xlink:href="classscram_1_1core_1_1Zbdd.xhtml#ac90d12f0c653c679d22109124fa6344c" target="_top" xlink:title="Find or adds a ZBDD SetNode vertex using information from gates. ">
<polygon fill="white" stroke="black" points="163,-292 163,-322 274,-322 274,-292 163,-292"/>
<text text-anchor="start" x="171" y="-310" font-family="Helvetica,sans-Serif" font-size="10.00">scram::core::Zbdd::</text>
<text text-anchor="middle" x="218.5" y="-299" font-family="Helvetica,sans-Serif" font-size="10.00">FindOrAddVertex</text>
</a>
</g>
</g>
<!-- Node1&#45;&gt;Node9 -->
<g id="edge8" class="edge"><title>Node1&#45;&gt;Node9</title>
<path fill="none" stroke="midnightblue" d="M120.955,-321.392C134.812,-319.326 149.33,-317.162 162.775,-315.158"/>
<polygon fill="midnightblue" stroke="midnightblue" points="120.382,-317.938 111.007,-322.875 121.414,-324.862 120.382,-317.938"/>
</g>
<!-- Node10 -->
<g id="node10" class="node"><title>Node10</title>
<g id="a_node10"><a xlink:href="classscram_1_1core_1_1Preprocessor_1_1GateSet.xhtml#ae00239084858979e096032c4cf2f05b9" target="_top" xlink:title="Inserts a gate into the set if it is semantically unique. ">
<polygon fill="white" stroke="black" points="147,-243 147,-273 290,-273 290,-243 147,-243"/>
<text text-anchor="start" x="155" y="-261" font-family="Helvetica,sans-Serif" font-size="10.00">scram::core::Preprocessor</text>
<text text-anchor="middle" x="218.5" y="-250" font-family="Helvetica,sans-Serif" font-size="10.00">::GateSet::insert</text>
</a>
</g>
</g>
<!-- Node1&#45;&gt;Node10 -->
<g id="edge9" class="edge"><title>Node1&#45;&gt;Node10</title>
<path fill="none" stroke="midnightblue" d="M91.3246,-310.989C107.904,-301.863 128.18,-291.274 147,-283 154.965,-279.498 163.59,-276.117 171.984,-273.033"/>
<polygon fill="midnightblue" stroke="midnightblue" points="89.5631,-307.963 82.5265,-315.884 92.9667,-314.08 89.5631,-307.963"/>
</g>
<!-- Node11 -->
<g id="node11" class="node"><title>Node11</title>
<g id="a_node11"><a xlink:href="classscram_1_1core_1_1Gate.xhtml#a97e099c6298b6f9096546e839066dee4" target="_top" xlink:title="Swaps a single argument of a NULL type argument gate. ">
<polygon fill="white" stroke="black" points="164,-194 164,-224 273,-224 273,-194 164,-194"/>
<text text-anchor="start" x="172" y="-212" font-family="Helvetica,sans-Serif" font-size="10.00">scram::core::Gate::</text>
<text text-anchor="middle" x="218.5" y="-201" font-family="Helvetica,sans-Serif" font-size="10.00">JoinNullGate</text>
</a>
</g>
</g>
<!-- Node1&#45;&gt;Node11 -->
<g id="edge10" class="edge"><title>Node1&#45;&gt;Node11</title>
<path fill="none" stroke="midnightblue" d="M73.0245,-307.655C89.5258,-285.877 116.735,-253.847 147,-234 152.756,-230.226 159.15,-226.943 165.671,-224.109"/>
<polygon fill="midnightblue" stroke="midnightblue" points="70.1796,-305.616 67.0371,-315.734 75.8034,-309.784 70.1796,-305.616"/>
</g>
<!-- Node12 -->
<g id="node12" class="node"><title>Node12</title>
<g id="a_node12"><a xlink:href="classscram_1_1core_1_1Gate.xhtml#ac1eeb543de0928d926ed68e1ed51f565" target="_top" xlink:title="Sets the logic of this gate to pass&#45;through and clears all its arguments except for a Boolean constan...">
<polygon fill="white" stroke="black" points="164,-145 164,-175 273,-175 273,-145 164,-145"/>
<text text-anchor="start" x="172" y="-163" font-family="Helvetica,sans-Serif" font-size="10.00">scram::core::Gate::</text>
<text text-anchor="middle" x="218.5" y="-152" font-family="Helvetica,sans-Serif" font-size="10.00">MakeConstant</text>
</a>
</g>
</g>
<!-- Node1&#45;&gt;Node12 -->
<g id="edge11" class="edge"><title>Node1&#45;&gt;Node12</title>
<path fill="none" stroke="midnightblue" d="M65.7307,-306.266C78.9781,-273.984 106.353,-217.758 147,-185 152.056,-180.926 157.826,-177.489 163.839,-174.597"/>
<polygon fill="midnightblue" stroke="midnightblue" points="62.3645,-305.26 61.927,-315.845 68.8704,-307.843 62.3645,-305.26"/>
</g>
<!-- Node13 -->
<g id="node13" class="node"><title>Node13</title>
<g id="a_node13"><a xlink:href="pdag_8cc.xhtml#a3655e18b0516364663797b84c544bd8b" target="_top" xlink:title="Prints PDAG nodes in the Aralia format. ">
<polygon fill="white" stroke="black" points="150,-88.5 150,-107.5 287,-107.5 287,-88.5 150,-88.5"/>
<text text-anchor="middle" x="218.5" y="-95.5" font-family="Helvetica,sans-Serif" font-size="10.00">scram::core::operator&lt;&lt;</text>
</a>
</g>
</g>
<!-- Node1&#45;&gt;Node13 -->
<g id="edge12" class="edge"><title>Node1&#45;&gt;Node13</title>
<path fill="none" stroke="midnightblue" d="M62.5225,-306.2C73.3572,-266.084 99.5493,-186.379 147,-136 159.012,-123.247 176.278,-113.842 190.717,-107.579"/>
<polygon fill="midnightblue" stroke="midnightblue" points="59.1148,-305.397 59.9816,-315.957 65.8889,-307.162 59.1148,-305.397"/>
</g>
<!-- Node15 -->
<g id="node15" class="node"><title>Node15</title>
<g id="a_node15"><a xlink:href="classscram_1_1core_1_1Gate.xhtml#aff8127ed74cf083d742ede72b3c422e6" target="_top" xlink:title="Transfers this gate&#39;s argument to another gate. ">
<polygon fill="white" stroke="black" points="164,-39 164,-69 273,-69 273,-39 164,-39"/>
<text text-anchor="start" x="172" y="-57" font-family="Helvetica,sans-Serif" font-size="10.00">scram::core::Gate::</text>
<text text-anchor="middle" x="218.5" y="-46" font-family="Helvetica,sans-Serif" font-size="10.00">TransferArg</text>
</a>
</g>
</g>
<!-- Node1&#45;&gt;Node15 -->
<g id="edge15" class="edge"><title>Node1&#45;&gt;Node15</title>
<path fill="none" stroke="midnightblue" d="M58.5457,-305.613C63.9277,-255.433 82.8504,-142.893 147,-79 151.785,-74.2346 157.534,-70.3736 163.66,-67.2462"/>
<polygon fill="midnightblue" stroke="midnightblue" points="55.0317,-305.587 57.5432,-315.88 61.9985,-306.267 55.0317,-305.587"/>
</g>
<!-- Node16 -->
<g id="node16" class="node"><title>Node16</title>
<g id="a_node16"><a xlink:href="classscram_1_1core_1_1Zbdd.xhtml#a38b5c81971df473b1b46de59d0752c81" target="_top" xlink:title="Constructor with the analysis target. ">
<polygon fill="white" stroke="black" points="150,-0.5 150,-19.5 287,-19.5 287,-0.5 150,-0.5"/>
<text text-anchor="middle" x="218.5" y="-7.5" font-family="Helvetica,sans-Serif" font-size="10.00">scram::core::Zbdd::Zbdd</text>
</a>
</g>
</g>
<!-- Node1&#45;&gt;Node16 -->
<g id="edge16" class="edge"><title>Node1&#45;&gt;Node16</title>
<path fill="none" stroke="midnightblue" d="M56.4206,-305.623C57.6669,-248.093 68.9852,-106.804 147,-30 151.442,-25.6265 156.767,-22.1944 162.474,-19.5037"/>
<polygon fill="midnightblue" stroke="midnightblue" points="52.9166,-305.924 56.2889,-315.968 59.916,-306.014 52.9166,-305.924"/>
</g>
<!-- Node13&#45;&gt;Node13 -->
<g id="edge13" class="edge"><title>Node13&#45;&gt;Node13</title>
<path fill="none" stroke="midnightblue" d="M188.186,-116.275C189.05,-121.741 199.155,-126 218.5,-126 247.293,-126 255.616,-116.565 243.469,-107.757"/>
<polygon fill="midnightblue" stroke="midnightblue" points="191.18,-118.088 193.531,-107.757 185.251,-114.367 191.18,-118.088"/>
</g>
<!-- Node14 -->
<g id="node14" class="node"><title>Node14</title>
<g id="a_node14"><a xlink:href="classscram_1_1core_1_1Pdag.xhtml#a6f08191830efe0648dbebb6059486162" target="_top" xlink:title="Determines the proper &quot;clear&quot; state for the graph node mark, and set the clear mark to nodes starting...">
<polygon fill="white" stroke="black" points="326,-83 326,-113 436,-113 436,-83 326,-83"/>
<text text-anchor="start" x="334" y="-101" font-family="Helvetica,sans-Serif" font-size="10.00">scram::core::Pdag::</text>
<text text-anchor="middle" x="381" y="-90" font-family="Helvetica,sans-Serif" font-size="10.00">Clear</text>
</a>
</g>
</g>
<!-- Node13&#45;&gt;Node14 -->
<g id="edge14" class="edge"><title>Node13&#45;&gt;Node14</title>
<path fill="none" stroke="midnightblue" d="M297.106,-98C306.746,-98 316.437,-98 325.622,-98"/>
<polygon fill="midnightblue" stroke="midnightblue" points="297.101,-94.5001 287.101,-98 297.101,-101.5 297.101,-94.5001"/>
</g>
</g>
</svg>
