<?xml version="1.0" encoding="UTF-8" standalone="no"?>
<!DOCTYPE svg PUBLIC "-//W3C//DTD SVG 1.1//EN"
 "http://www.w3.org/Graphics/SVG/1.1/DTD/svg11.dtd">
<!-- Generated by graphviz version 2.38.0 (20140413.2041)
 -->
<!-- Title: scram::core::Preprocessor Pages: 1 -->
<!--zoomable 513 -->
<svg id="main" version="1.1" xmlns="http://www.w3.org/2000/svg" xmlns:xlink="http://www.w3.org/1999/xlink" xml:space="preserve" onload="init(evt)">
<style type="text/css"><![CDATA[
.edge:hover path { stroke: red; }
.edge:hover polygon { stroke: red; fill: red; }
]]></style>
<script type="text/javascript"><![CDATA[
var edges = document.getElementsByTagName('g');
if (edges && edges.length) {
  for (var i=0;i<edges.length;i++) {
    if (edges[i].id.substr(0,4)=='edge') {
      edges[i].setAttribute('class','edge');
    }
  }
}
]]></script>
        <defs>
                <circle id="rim" cx="0" cy="0" r="7"/>
                <circle id="rim2" cx="0" cy="0" r="3.5"/>
                <g id="zoomPlus">
                        <use xlink:href="#rim" fill="#404040">
                                <set attributeName="fill" to="#808080" begin="zoomplus.mouseover" end="zoomplus.mouseout"/>
                        </use>
                        <path d="M-4,0h8M0,-4v8" fill="none" stroke="white" stroke-width="1.5" pointer-events="none"/>
                </g>
                <g id="zoomMin">
                        <use xlink:href="#rim" fill="#404040">
                                <set attributeName="fill" to="#808080" begin="zoomminus.mouseover" end="zoomminus.mouseout"/>
                        </use>
                        <path d="M-4,0h8" fill="none" stroke="white" stroke-width="1.5" pointer-events="none"/>
                </g>
                <g id="dirArrow">
                        <path fill="none" stroke="white" stroke-width="1.5" d="M0,-3.0v7 M-2.5,-0.5L0,-3.0L2.5,-0.5"/>
                </g>
               <g id="resetDef">
                       <use xlink:href="#rim2" fill="#404040">
                               <set attributeName="fill" to="#808080" begin="reset.mouseover" end="reset.mouseout"/>
                       </use>
               </g>
        </defs>

<script type="text/javascript">
var viewWidth = 386;
var viewHeight = 513;
var sectionId = 'dynsection-0';
</script>
<script xlink:href="svgpan.js"/>
<svg id="graph" class="graph">
<g id="viewport">
<title>scram::core::Preprocessor</title>
<polygon fill="white" stroke="none" points="-4,4 -4,-509 382,-509 382,4 -4,4"/>
<!-- Node1 -->
<g id="node1" class="node"><title>Node1</title>
<polygon fill="#bfbfbf" stroke="black" points="98.5,-210.5 98.5,-410.5 279.5,-410.5 279.5,-210.5 98.5,-210.5"/>
<text text-anchor="middle" x="189" y="-398.5" font-family="Helvetica,sans-Serif" font-size="10.00">scram::core::Preprocessor</text>
<polyline fill="none" stroke="black" points="98.5,-391.5 279.5,-391.5 "/>
<text text-anchor="start" x="106.5" y="-379.5" font-family="Helvetica,sans-Serif" font-size="10.00"># graph_</text>
<polyline fill="none" stroke="black" points="98.5,-372.5 279.5,-372.5 "/>
<text text-anchor="start" x="106.5" y="-360.5" font-family="Helvetica,sans-Serif" font-size="10.00">+ Preprocessor()</text>
<text text-anchor="start" x="106.5" y="-349.5" font-family="Helvetica,sans-Serif" font-size="10.00">+ ~Preprocessor()</text>
<text text-anchor="start" x="106.5" y="-338.5" font-family="Helvetica,sans-Serif" font-size="10.00">+ operator()()</text>
<text text-anchor="start" x="106.5" y="-327.5" font-family="Helvetica,sans-Serif" font-size="10.00"># Run()</text>
<text text-anchor="start" x="106.5" y="-316.5" font-family="Helvetica,sans-Serif" font-size="10.00"># RunPhaseOne()</text>
<text text-anchor="start" x="106.5" y="-305.5" font-family="Helvetica,sans-Serif" font-size="10.00"># RunPhaseTwo()</text>
<text text-anchor="start" x="106.5" y="-294.5" font-family="Helvetica,sans-Serif" font-size="10.00"># RunPhaseThree()</text>
<text text-anchor="start" x="106.5" y="-283.5" font-family="Helvetica,sans-Serif" font-size="10.00"># RunPhaseFour()</text>
<text text-anchor="start" x="106.5" y="-272.5" font-family="Helvetica,sans-Serif" font-size="10.00"># RunPhaseFive()</text>
<text text-anchor="start" x="106.5" y="-261.5" font-family="Helvetica,sans-Serif" font-size="10.00"># NormalizeGates()</text>
<text text-anchor="start" x="106.5" y="-250.5" font-family="Helvetica,sans-Serif" font-size="10.00"># NotifyParentsOfNegativeGates()</text>
<text text-anchor="start" x="106.5" y="-239.5" font-family="Helvetica,sans-Serif" font-size="10.00"># NormalizeGate()</text>
<text text-anchor="start" x="106.5" y="-228.5" font-family="Helvetica,sans-Serif" font-size="10.00"># NormalizeXorGate()</text>
<text text-anchor="start" x="106.5" y="-217.5" font-family="Helvetica,sans-Serif" font-size="10.00">and 48 more...</text>
</g>
<!-- Node3 -->
<g id="node3" class="node"><title>Node3</title>
<g id="a_node3"><a xlink:href="classscram_1_1core_1_1CustomPreprocessor_3_01Bdd_01_4.xhtml" target="_top" xlink:title="Specialization of preprocessing for BDD based analyses. ">
<polygon fill="white" stroke="black" points="0,-105.5 0,-173.5 180,-173.5 180,-105.5 0,-105.5"/>
<text text-anchor="start" x="8" y="-161.5" font-family="Helvetica,sans-Serif" font-size="10.00">scram::core::CustomPreprocessor</text>
<text text-anchor="middle" x="90" y="-150.5" font-family="Helvetica,sans-Serif" font-size="10.00">&lt; Bdd &gt;</text>
<polyline fill="none" stroke="black" points="0,-143.5 180,-143.5 "/>
<text text-anchor="middle" x="90" y="-131.5" font-family="Helvetica,sans-Serif" font-size="10.00"> </text>
<polyline fill="none" stroke="black" points="0,-124.5 180,-124.5 "/>
<text text-anchor="middle" x="90" y="-112.5" font-family="Helvetica,sans-Serif" font-size="10.00"> </text>
</a>
</g>
</g>
<!-- Node1&#45;&gt;Node3 -->
<g id="edge2" class="edge"><title>Node1&#45;&gt;Node3</title>
<path fill="none" stroke="midnightblue" d="M125.685,-201.417C119.891,-191.526 114.371,-182.103 109.48,-173.753"/>
<polygon fill="none" stroke="midnightblue" points="122.764,-203.355 130.839,-210.214 128.804,-199.817 122.764,-203.355"/>
</g>
<!-- Node4 -->
<g id="node4" class="node"><title>Node4</title>
<g id="a_node4"><a xlink:href="classscram_1_1core_1_1CustomPreprocessor_3_01Zbdd_01_4.xhtml" target="_top" xlink:title="Specialization of preprocessing for ZBDD based analyses. ">
<polygon fill="white" stroke="black" points="198,-105.5 198,-173.5 378,-173.5 378,-105.5 198,-105.5"/>
<text text-anchor="start" x="206" y="-161.5" font-family="Helvetica,sans-Serif" font-size="10.00">scram::core::CustomPreprocessor</text>
<text text-anchor="middle" x="288" y="-150.5" font-family="Helvetica,sans-Serif" font-size="10.00">&lt; Zbdd &gt;</text>
<polyline fill="none" stroke="black" points="198,-143.5 378,-143.5 "/>
<text text-anchor="middle" x="288" y="-131.5" font-family="Helvetica,sans-Serif" font-size="10.00"> </text>
<polyline fill="none" stroke="black" points="198,-124.5 378,-124.5 "/>
<text text-anchor="start" x="206" y="-112.5" font-family="Helvetica,sans-Serif" font-size="10.00"># Run()</text>
</a>
</g>
</g>
<!-- Node1&#45;&gt;Node4 -->
<g id="edge3" class="edge"><title>Node1&#45;&gt;Node4</title>
<path fill="none" stroke="midnightblue" d="M252.315,-201.417C258.109,-191.526 263.629,-182.103 268.52,-173.753"/>
<polygon fill="none" stroke="midnightblue" points="249.196,-199.817 247.161,-210.214 255.236,-203.355 249.196,-199.817"/>
</g>
<!-- Node2 -->
<g id="node2" class="node"><title>Node2</title>
<polygon fill="white" stroke="#bfbfbf" points="150.5,-447.5 150.5,-504.5 227.5,-504.5 227.5,-447.5 150.5,-447.5"/>
<text text-anchor="middle" x="189" y="-492.5" font-family="Helvetica,sans-Serif" font-size="10.00">noncopyable</text>
<polyline fill="none" stroke="#bfbfbf" points="150.5,-485.5 227.5,-485.5 "/>
<text text-anchor="middle" x="189" y="-473.5" font-family="Helvetica,sans-Serif" font-size="10.00"> </text>
<polyline fill="none" stroke="#bfbfbf" points="150.5,-466.5 227.5,-466.5 "/>
<text text-anchor="middle" x="189" y="-454.5" font-family="Helvetica,sans-Serif" font-size="10.00"> </text>
</g>
<!-- Node2&#45;&gt;Node1 -->
<g id="edge1" class="edge"><title>Node2&#45;&gt;Node1</title>
<path fill="none" stroke="#8b1a1a" d="M189,-437.04C189,-428.867 189,-419.865 189,-410.549"/>
<polygon fill="none" stroke="#8b1a1a" points="185.5,-437.264 189,-447.264 192.5,-437.264 185.5,-437.264"/>
</g>
<!-- Node5 -->
<g id="node5" class="node"><title>Node5</title>
<g id="a_node5"><a xlink:href="classscram_1_1core_1_1CustomPreprocessor_3_01Mocus_01_4.xhtml" target="_top" xlink:title="Specialization of preprocessing for MOCUS based analyses. ">
<polygon fill="white" stroke="black" points="198,-0.5 198,-68.5 378,-68.5 378,-0.5 198,-0.5"/>
<text text-anchor="start" x="206" y="-56.5" font-family="Helvetica,sans-Serif" font-size="10.00">scram::core::CustomPreprocessor</text>
<text text-anchor="middle" x="288" y="-45.5" font-family="Helvetica,sans-Serif" font-size="10.00">&lt; Mocus &gt;</text>
<polyline fill="none" stroke="black" points="198,-38.5 378,-38.5 "/>
<text text-anchor="middle" x="288" y="-26.5" font-family="Helvetica,sans-Serif" font-size="10.00"> </text>
<polyline fill="none" stroke="black" points="198,-19.5 378,-19.5 "/>
<text text-anchor="middle" x="288" y="-7.5" font-family="Helvetica,sans-Serif" font-size="10.00"> </text>
</a>
</g>
</g>
<!-- Node4&#45;&gt;Node5 -->
<g id="edge4" class="edge"><title>Node4&#45;&gt;Node5</title>
<path fill="none" stroke="midnightblue" d="M288,-95.1362C288,-86.256 288,-77.0447 288,-68.5947"/>
<polygon fill="none" stroke="midnightblue" points="284.5,-95.3432 288,-105.343 291.5,-95.3432 284.5,-95.3432"/>
</g>
</g>
</svg>
        <g id="navigator" transform="translate(0 0)" fill="#404254">
                <rect fill="#f2f5e9" fill-opacity="0.5" stroke="#606060" stroke-width=".5" x="0" y="0" width="60" height="60"/>
                <use id="zoomplus" xlink:href="#zoomPlus" x="17" y="9" onmousedown="handleZoom(evt,'in')"/>
                <use id="zoomminus" xlink:href="#zoomMin" x="42" y="9" onmousedown="handleZoom(evt,'out')"/>
                <use id="reset" xlink:href="#resetDef" x="30" y="36" onmousedown="handleReset()"/>
                <g id="arrowUp" xlink:href="#dirArrow" transform="translate(30 24)" onmousedown="handlePan(0,-1)">
                  <use xlink:href="#rim" fill="#404040">
                        <set attributeName="fill" to="#808080" begin="arrowUp.mouseover" end="arrowUp.mouseout"/>
                  </use>
                  <path fill="none" stroke="white" stroke-width="1.5" d="M0,-3.0v7 M-2.5,-0.5L0,-3.0L2.5,-0.5"/>
                </g>
                <g id="arrowRight" xlink:href="#dirArrow" transform="rotate(90) translate(36 -43)" onmousedown="handlePan(1,0)">
                  <use xlink:href="#rim" fill="#404040">
                        <set attributeName="fill" to="#808080" begin="arrowRight.mouseover" end="arrowRight.mouseout"/>
                  </use>
                  <path fill="none" stroke="white" stroke-width="1.5" d="M0,-3.0v7 M-2.5,-0.5L0,-3.0L2.5,-0.5"/>
                </g>
                <g id="arrowDown" xlink:href="#dirArrow" transform="rotate(180) translate(-30 -48)" onmousedown="handlePan(0,1)">
                  <use xlink:href="#rim" fill="#404040">
                        <set attributeName="fill" to="#808080" begin="arrowDown.mouseover" end="arrowDown.mouseout"/>
                  </use>
                  <path fill="none" stroke="white" stroke-width="1.5" d="M0,-3.0v7 M-2.5,-0.5L0,-3.0L2.5,-0.5"/>
                </g>
                <g id="arrowLeft" xlink:href="#dirArrow" transform="rotate(270) translate(-36 17)" onmousedown="handlePan(-1,0)">
                  <use xlink:href="#rim" fill="#404040">
                        <set attributeName="fill" to="#808080" begin="arrowLeft.mouseover" end="arrowLeft.mouseout"/>
                  </use>
                  <path fill="none" stroke="white" stroke-width="1.5" d="M0,-3.0v7 M-2.5,-0.5L0,-3.0L2.5,-0.5"/>
                </g>
        </g>
        <svg viewBox="0 0 15 15" width="100%" height="30px" preserveAspectRatio="xMaxYMin meet">
         <g id="arrow_out" transform="scale(0.3 0.3)">
          <a xlink:href="classscram_1_1core_1_1Preprocessor__inherit__graph_org.svg" target="_base">
           <rect id="button" ry="5" rx="5" y="6" x="6" height="38" width="38"
                fill="#f2f5e9" fill-opacity="0.5" stroke="#606060" stroke-width="1.0"/>
           <path id="arrow"
             d="M 11.500037,31.436501 C 11.940474,20.09759 22.043105,11.32322 32.158766,21.979434 L 37.068811,17.246167 C 37.068811,17.246167 37.088388,32 37.088388,32 L 22.160133,31.978069 C 22.160133,31.978069 26.997745,27.140456 26.997745,27.140456 C 18.528582,18.264221 13.291696,25.230495 11.500037,31.436501 z"
             style="fill:#404040;"/>
          </a>
         </g>
        </svg>
</svg>
