<?xml version="1.0" encoding="UTF-8" standalone="no"?>
<!DOCTYPE svg PUBLIC "-//W3C//DTD SVG 1.1//EN"
 "http://www.w3.org/Graphics/SVG/1.1/DTD/svg11.dtd">
<!-- Generated by graphviz version 2.38.0 (20140413.2041)
 -->
<!-- Title: scram::mef::TestEvent Pages: 1 -->
<svg width="308pt" height="491pt"
 viewBox="0.00 0.00 307.50 491.00" xmlns="http://www.w3.org/2000/svg" xmlns:xlink="http://www.w3.org/1999/xlink">
<g id="graph0" class="graph" transform="scale(1 1) rotate(0) translate(4 487)">
<title>scram::mef::TestEvent</title>
<polygon fill="white" stroke="none" points="-4,4 -4,-487 303.5,-487 303.5,4 -4,4"/>
<!-- Node1 -->
<g id="node1" class="node"><title>Node1</title>
<polygon fill="#bfbfbf" stroke="black" points="89.5,-116.5 89.5,-195.5 212.5,-195.5 212.5,-116.5 89.5,-116.5"/>
<text text-anchor="middle" x="151" y="-183.5" font-family="Helvetica,sans-Serif" font-size="10.00">scram::mef::TestEvent</text>
<polyline fill="none" stroke="black" points="89.5,-176.5 212.5,-176.5 "/>
<text text-anchor="start" x="97.5" y="-164.5" font-family="Helvetica,sans-Serif" font-size="10.00"># context_</text>
<polyline fill="none" stroke="black" points="89.5,-157.5 212.5,-157.5 "/>
<text text-anchor="start" x="97.5" y="-145.5" font-family="Helvetica,sans-Serif" font-size="10.00">+ TestEvent()</text>
<text text-anchor="start" x="97.5" y="-134.5" font-family="Helvetica,sans-Serif" font-size="10.00">+ interval()</text>
<text text-anchor="start" x="97.5" y="-123.5" font-family="Helvetica,sans-Serif" font-size="10.00">+ IsDeviate()</text>
</g>
<!-- Node4 -->
<g id="node4" class="node"><title>Node4</title>
<g id="a_node4"><a xlink:href="classscram_1_1mef_1_1TestFunctionalEvent.xhtml" target="_top" xlink:title="Upon event&#45;tree walk, tests whether a functional event has occurred. ">
<polygon fill="white" stroke="black" points="0,-0.5 0,-79.5 144,-79.5 144,-0.5 0,-0.5"/>
<text text-anchor="start" x="8" y="-67.5" font-family="Helvetica,sans-Serif" font-size="10.00">scram::mef::TestFunctional</text>
<text text-anchor="middle" x="72" y="-56.5" font-family="Helvetica,sans-Serif" font-size="10.00">Event</text>
<polyline fill="none" stroke="black" points="0,-49.5 144,-49.5 "/>
<text text-anchor="middle" x="72" y="-37.5" font-family="Helvetica,sans-Serif" font-size="10.00"> </text>
<polyline fill="none" stroke="black" points="0,-30.5 144,-30.5 "/>
<text text-anchor="start" x="8" y="-18.5" font-family="Helvetica,sans-Serif" font-size="10.00">+ TestFunctionalEvent()</text>
<text text-anchor="start" x="8" y="-7.5" font-family="Helvetica,sans-Serif" font-size="10.00">+ value()</text>
</a>
</g>
</g>
<!-- Node1&#45;&gt;Node4 -->
<g id="edge3" class="edge"><title>Node1&#45;&gt;Node4</title>
<path fill="none" stroke="midnightblue" d="M118.548,-108.17C111.953,-98.6535 105.087,-88.746 98.7183,-79.5555"/>
<polygon fill="none" stroke="midnightblue" points="115.682,-110.179 124.254,-116.405 121.435,-106.192 115.682,-110.179"/>
</g>
<!-- Node5 -->
<g id="node5" class="node"><title>Node5</title>
<g id="a_node5"><a xlink:href="classscram_1_1mef_1_1TestInitiatingEvent.xhtml" target="_top" xlink:title="Upon event&#45;tree walk, tests whether an initiating event has occurred. ">
<polygon fill="white" stroke="black" points="162.5,-0.5 162.5,-79.5 299.5,-79.5 299.5,-0.5 162.5,-0.5"/>
<text text-anchor="start" x="170.5" y="-67.5" font-family="Helvetica,sans-Serif" font-size="10.00">scram::mef::TestInitiating</text>
<text text-anchor="middle" x="231" y="-56.5" font-family="Helvetica,sans-Serif" font-size="10.00">Event</text>
<polyline fill="none" stroke="black" points="162.5,-49.5 299.5,-49.5 "/>
<text text-anchor="middle" x="231" y="-37.5" font-family="Helvetica,sans-Serif" font-size="10.00"> </text>
<polyline fill="none" stroke="black" points="162.5,-30.5 299.5,-30.5 "/>
<text text-anchor="start" x="170.5" y="-18.5" font-family="Helvetica,sans-Serif" font-size="10.00">+ TestInitiatingEvent()</text>
<text text-anchor="start" x="170.5" y="-7.5" font-family="Helvetica,sans-Serif" font-size="10.00">+ value()</text>
</a>
</g>
</g>
<!-- Node1&#45;&gt;Node5 -->
<g id="edge4" class="edge"><title>Node1&#45;&gt;Node5</title>
<path fill="none" stroke="midnightblue" d="M183.863,-108.17C190.541,-98.6535 197.494,-88.746 203.944,-79.5555"/>
<polygon fill="none" stroke="midnightblue" points="180.964,-106.209 178.084,-116.405 186.694,-110.23 180.964,-106.209"/>
</g>
<!-- Node2 -->
<g id="node2" class="node"><title>Node2</title>
<g id="a_node2"><a xlink:href="classscram_1_1mef_1_1Expression.xhtml" target="_top" xlink:title="Abstract base class for all sorts of expressions to describe events. ">
<polygon fill="white" stroke="black" points="86.5,-232.5 86.5,-388.5 215.5,-388.5 215.5,-232.5 86.5,-232.5"/>
<text text-anchor="middle" x="151" y="-376.5" font-family="Helvetica,sans-Serif" font-size="10.00">scram::mef::Expression</text>
<polyline fill="none" stroke="black" points="86.5,-369.5 215.5,-369.5 "/>
<text text-anchor="middle" x="151" y="-357.5" font-family="Helvetica,sans-Serif" font-size="10.00"> </text>
<polyline fill="none" stroke="black" points="86.5,-350.5 215.5,-350.5 "/>
<text text-anchor="start" x="94.5" y="-338.5" font-family="Helvetica,sans-Serif" font-size="10.00">+ Expression()</text>
<text text-anchor="start" x="94.5" y="-327.5" font-family="Helvetica,sans-Serif" font-size="10.00">+ ~Expression()</text>
<text text-anchor="start" x="94.5" y="-316.5" font-family="Helvetica,sans-Serif" font-size="10.00">+ args()</text>
<text text-anchor="start" x="94.5" y="-305.5" font-family="Helvetica,sans-Serif" font-size="10.00">+ Validate()</text>
<text text-anchor="start" x="94.5" y="-294.5" font-family="Helvetica,sans-Serif" font-size="10.00">+ value()</text>
<text text-anchor="start" x="94.5" y="-283.5" font-family="Helvetica,sans-Serif" font-size="10.00">+ interval()</text>
<text text-anchor="start" x="94.5" y="-272.5" font-family="Helvetica,sans-Serif" font-size="10.00">+ IsDeviate()</text>
<text text-anchor="start" x="94.5" y="-261.5" font-family="Helvetica,sans-Serif" font-size="10.00">+ Sample()</text>
<text text-anchor="start" x="94.5" y="-250.5" font-family="Helvetica,sans-Serif" font-size="10.00">+ Reset()</text>
<text text-anchor="start" x="94.5" y="-239.5" font-family="Helvetica,sans-Serif" font-size="10.00"># AddArg()</text>
</a>
</g>
</g>
<!-- Node2&#45;&gt;Node1 -->
<g id="edge1" class="edge"><title>Node2&#45;&gt;Node1</title>
<path fill="none" stroke="midnightblue" d="M151,-222.264C151,-213.019 151,-203.993 151,-195.747"/>
<polygon fill="none" stroke="midnightblue" points="147.5,-222.356 151,-232.356 154.5,-222.356 147.5,-222.356"/>
</g>
<!-- Node3 -->
<g id="node3" class="node"><title>Node3</title>
<polygon fill="white" stroke="#bfbfbf" points="112.5,-425.5 112.5,-482.5 189.5,-482.5 189.5,-425.5 112.5,-425.5"/>
<text text-anchor="middle" x="151" y="-470.5" font-family="Helvetica,sans-Serif" font-size="10.00">noncopyable</text>
<polyline fill="none" stroke="#bfbfbf" points="112.5,-463.5 189.5,-463.5 "/>
<text text-anchor="middle" x="151" y="-451.5" font-family="Helvetica,sans-Serif" font-size="10.00"> </text>
<polyline fill="none" stroke="#bfbfbf" points="112.5,-444.5 189.5,-444.5 "/>
<text text-anchor="middle" x="151" y="-432.5" font-family="Helvetica,sans-Serif" font-size="10.00"> </text>
</g>
<!-- Node3&#45;&gt;Node2 -->
<g id="edge2" class="edge"><title>Node3&#45;&gt;Node2</title>
<path fill="none" stroke="#8b1a1a" d="M151,-415.34C151,-407.044 151,-397.964 151,-388.736"/>
<polygon fill="none" stroke="#8b1a1a" points="147.5,-415.381 151,-425.381 154.5,-415.382 147.5,-415.381"/>
</g>
</g>
</svg>
