<?xml version="1.0" encoding="UTF-8" standalone="no"?>
<!DOCTYPE svg PUBLIC "-//W3C//DTD SVG 1.1//EN"
 "http://www.w3.org/Graphics/SVG/1.1/DTD/svg11.dtd">
<!-- Generated by graphviz version 2.38.0 (20140413.2041)
 -->
<!-- Title: scram::core::Zbdd::EliminateConstantModules Pages: 1 -->
<svg width="678pt" height="439pt"
 viewBox="0.00 0.00 678.00 439.00" xmlns="http://www.w3.org/2000/svg" xmlns:xlink="http://www.w3.org/1999/xlink">
<g id="graph0" class="graph" transform="scale(1 1) rotate(0) translate(4 435)">
<title>scram::core::Zbdd::EliminateConstantModules</title>
<polygon fill="white" stroke="none" points="-4,4 -4,-435 674,-435 674,4 -4,4"/>
<!-- Node1 -->
<g id="node1" class="node"><title>Node1</title>
<polygon fill="#bfbfbf" stroke="black" points="0,-242.5 0,-272.5 144,-272.5 144,-242.5 0,-242.5"/>
<text text-anchor="start" x="8" y="-260.5" font-family="Helvetica,sans-Serif" font-size="10.00">scram::core::Zbdd::</text>
<text text-anchor="middle" x="72" y="-249.5" font-family="Helvetica,sans-Serif" font-size="10.00">EliminateConstantModules</text>
</g>
<!-- Node2 -->
<g id="node2" class="node"><title>Node2</title>
<g id="a_node2"><a xlink:href="classscram_1_1core_1_1Settings.xhtml#a0e43ec0f017d23a4fa4e376c4060d380" target="_top" xlink:title="scram::core::Settings\l::limit_order">
<polygon fill="white" stroke="black" points="180,-308.5 180,-338.5 299,-338.5 299,-308.5 180,-308.5"/>
<text text-anchor="start" x="188" y="-326.5" font-family="Helvetica,sans-Serif" font-size="10.00">scram::core::Settings</text>
<text text-anchor="middle" x="239.5" y="-315.5" font-family="Helvetica,sans-Serif" font-size="10.00">::limit_order</text>
</a>
</g>
</g>
<!-- Node1&#45;&gt;Node2 -->
<g id="edge1" class="edge"><title>Node1&#45;&gt;Node2</title>
<path fill="none" stroke="midnightblue" d="M110.969,-272.642C134.832,-282.158 165.806,-294.51 191.252,-304.658"/>
<polygon fill="midnightblue" stroke="midnightblue" points="190.122,-307.975 200.708,-308.429 192.715,-301.473 190.122,-307.975"/>
</g>
<!-- Node3 -->
<g id="node3" class="node"><title>Node3</title>
<g id="a_node3"><a xlink:href="classscram_1_1core_1_1Zbdd.xhtml#a3dbb8ef5da2882daf6c39e9724eae459" target="_top" xlink:title="Removes subsets in ZBDD. ">
<polygon fill="white" stroke="black" points="184,-220.5 184,-250.5 295,-250.5 295,-220.5 184,-220.5"/>
<text text-anchor="start" x="192" y="-238.5" font-family="Helvetica,sans-Serif" font-size="10.00">scram::core::Zbdd::</text>
<text text-anchor="middle" x="239.5" y="-227.5" font-family="Helvetica,sans-Serif" font-size="10.00">Minimize</text>
</a>
</g>
</g>
<!-- Node1&#45;&gt;Node3 -->
<g id="edge2" class="edge"><title>Node1&#45;&gt;Node3</title>
<path fill="none" stroke="midnightblue" d="M144.147,-248.042C154.031,-246.729 164.14,-245.385 173.895,-244.088"/>
<polygon fill="midnightblue" stroke="midnightblue" points="174.456,-247.544 183.908,-242.757 173.534,-240.605 174.456,-247.544"/>
</g>
<!-- Node4 -->
<g id="node4" class="node"><title>Node4</title>
<g id="a_node4"><a xlink:href="structscram_1_1core_1_1IntrusivePtrCast.xhtml#adc53e5b89cace18e05bac95316da7d91" target="_top" xlink:title="scram::core::IntrusivePtr\lCast\&lt; SetNode \&gt;::Ptr">
<polygon fill="white" stroke="black" points="337.5,-400.5 337.5,-430.5 471.5,-430.5 471.5,-400.5 337.5,-400.5"/>
<text text-anchor="start" x="345.5" y="-418.5" font-family="Helvetica,sans-Serif" font-size="10.00">scram::core::IntrusivePtr</text>
<text text-anchor="middle" x="404.5" y="-407.5" font-family="Helvetica,sans-Serif" font-size="10.00">Cast&lt; SetNode &gt;::Ptr</text>
</a>
</g>
</g>
<!-- Node1&#45;&gt;Node4 -->
<g id="edge16" class="edge"><title>Node1&#45;&gt;Node4</title>
<path fill="none" stroke="midnightblue" d="M144.104,-263.655C201.032,-269.848 275.165,-281.15 299,-299.5 328.616,-322.3 309.734,-347.958 335,-375.5 341.982,-383.111 350.753,-389.696 359.664,-395.202"/>
<polygon fill="midnightblue" stroke="midnightblue" points="358.153,-398.371 368.562,-400.347 361.657,-392.312 358.153,-398.371"/>
</g>
<!-- Node9 -->
<g id="node9" class="node"><title>Node9</title>
<g id="a_node9"><a xlink:href="classscram_1_1core_1_1Terminal.xhtml#a7a25b0b40498f4876571a5dac4e724c3" target="_top" xlink:title="scram::core::Terminal\l::value">
<polygon fill="white" stroke="black" points="345,-0.5 345,-30.5 464,-30.5 464,-0.5 345,-0.5"/>
<text text-anchor="start" x="353" y="-18.5" font-family="Helvetica,sans-Serif" font-size="10.00">scram::core::Terminal</text>
<text text-anchor="middle" x="404.5" y="-7.5" font-family="Helvetica,sans-Serif" font-size="10.00">::value</text>
</a>
</g>
</g>
<!-- Node1&#45;&gt;Node9 -->
<g id="edge17" class="edge"><title>Node1&#45;&gt;Node9</title>
<path fill="none" stroke="midnightblue" d="M87.2128,-242.395C124.431,-203.625 229.202,-99.4443 335,-39.5 337.996,-37.8024 341.133,-36.1937 344.347,-34.6744"/>
<polygon fill="midnightblue" stroke="midnightblue" points="345.806,-37.8562 353.554,-30.6293 342.991,-31.4475 345.806,-37.8562"/>
</g>
<!-- Node3&#45;&gt;Node4 -->
<g id="edge3" class="edge"><title>Node3&#45;&gt;Node4</title>
<path fill="none" stroke="midnightblue" d="M280.776,-250.623C287.579,-254.622 294.034,-259.535 299,-265.5 334.624,-308.295 298.087,-343.812 335,-385.5 338.219,-389.136 341.961,-392.35 346.002,-395.187"/>
<polygon fill="midnightblue" stroke="midnightblue" points="344.296,-398.247 354.649,-400.498 347.96,-392.282 344.296,-398.247"/>
</g>
<!-- Node5 -->
<g id="node5" class="node"><title>Node5</title>
<g id="a_node5"><a xlink:href="structscram_1_1core_1_1IntrusivePtrCast.xhtml#af153c12dc6133b7d9f9b7a57bba29f1d" target="_top" xlink:title="scram::core::IntrusivePtr\lCast\&lt; T, Terminal\&lt; T \&gt; \&gt;::Ref">
<polygon fill="white" stroke="black" points="510,-347.5 510,-377.5 670,-377.5 670,-347.5 510,-347.5"/>
<text text-anchor="start" x="518" y="-365.5" font-family="Helvetica,sans-Serif" font-size="10.00">scram::core::IntrusivePtr</text>
<text text-anchor="middle" x="590" y="-354.5" font-family="Helvetica,sans-Serif" font-size="10.00">Cast&lt; T, Terminal&lt; T &gt; &gt;::Ref</text>
</a>
</g>
</g>
<!-- Node3&#45;&gt;Node5 -->
<g id="edge4" class="edge"><title>Node3&#45;&gt;Node5</title>
<path fill="none" stroke="midnightblue" d="M292.213,-250.58C294.613,-252.433 296.894,-254.409 299,-256.5 323.544,-280.872 306.449,-305.973 335,-325.5 382.634,-358.077 447.439,-364.778 499.667,-364.668"/>
<polygon fill="midnightblue" stroke="midnightblue" points="499.973,-368.165 509.936,-364.561 499.9,-361.165 499.973,-368.165"/>
</g>
<!-- Node3&#45;&gt;Node5 -->
<g id="edge8" class="edge"><title>Node3&#45;&gt;Node5</title>
<path fill="none" stroke="midnightblue" d="M261.693,-250.513C273.779,-256.589 288.552,-264.125 299,-274.5 323.544,-298.872 306.449,-323.973 335,-343.5 389.727,-380.929 467.12,-384.199 522.064,-378.647"/>
<polygon fill="midnightblue" stroke="midnightblue" points="522.51,-382.119 532.052,-377.514 521.721,-375.164 522.51,-382.119"/>
</g>
<!-- Node6 -->
<g id="node6" class="node"><title>Node6</title>
<g id="a_node6"><a xlink:href="classscram_1_1core_1_1Zbdd.xhtml#a42af18229ba2e80201bc0fdac07b7091" target="_top" xlink:title="Finds or adds a unique SetNode in the ZBDD. ">
<polygon fill="white" stroke="black" points="349,-294.5 349,-324.5 460,-324.5 460,-294.5 349,-294.5"/>
<text text-anchor="start" x="357" y="-312.5" font-family="Helvetica,sans-Serif" font-size="10.00">scram::core::Zbdd::</text>
<text text-anchor="middle" x="404.5" y="-301.5" font-family="Helvetica,sans-Serif" font-size="10.00">FindOrAddVertex</text>
</a>
</g>
</g>
<!-- Node3&#45;&gt;Node6 -->
<g id="edge5" class="edge"><title>Node3&#45;&gt;Node6</title>
<path fill="none" stroke="midnightblue" d="M270.36,-250.571C279.577,-255.288 289.737,-260.554 299,-265.5 315.146,-274.122 318.303,-278.002 335,-285.5 339.054,-287.32 343.291,-289.095 347.583,-290.801"/>
<polygon fill="midnightblue" stroke="midnightblue" points="346.43,-294.107 357.02,-294.419 348.936,-287.571 346.43,-294.107"/>
</g>
<!-- Node8 -->
<g id="node8" class="node"><title>Node8</title>
<g id="a_node8"><a xlink:href="classscram_1_1core_1_1SetNode.xhtml#a88d05af2b9f4f08b7bc66a31c2b9e249" target="_top" xlink:title="scram::core::SetNode\l::minimal">
<polygon fill="white" stroke="black" points="343.5,-245.5 343.5,-275.5 465.5,-275.5 465.5,-245.5 343.5,-245.5"/>
<text text-anchor="start" x="351.5" y="-263.5" font-family="Helvetica,sans-Serif" font-size="10.00">scram::core::SetNode</text>
<text text-anchor="middle" x="404.5" y="-252.5" font-family="Helvetica,sans-Serif" font-size="10.00">::minimal</text>
</a>
</g>
</g>
<!-- Node3&#45;&gt;Node8 -->
<g id="edge9" class="edge"><title>Node3&#45;&gt;Node8</title>
<path fill="none" stroke="midnightblue" d="M295.23,-243.894C307.417,-245.763 320.503,-247.77 333.218,-249.72"/>
<polygon fill="midnightblue" stroke="midnightblue" points="332.895,-253.212 343.31,-251.268 333.957,-246.293 332.895,-253.212"/>
</g>
<!-- Node3&#45;&gt;Node9 -->
<g id="edge10" class="edge"><title>Node3&#45;&gt;Node9</title>
<path fill="none" stroke="midnightblue" d="M249.634,-220.364C261.698,-200.07 283.253,-162.743 299,-129.5 317.443,-90.5662 303.881,-69.2933 335,-39.5 336.109,-38.4379 337.268,-37.4226 338.47,-36.4519"/>
<polygon fill="midnightblue" stroke="midnightblue" points="340.65,-39.201 346.937,-30.6727 336.704,-33.4194 340.65,-39.201"/>
</g>
<!-- Node11 -->
<g id="node11" class="node"><title>Node11</title>
<g id="a_node11"><a xlink:href="classscram_1_1core_1_1Settings.xhtml#ae64f362fceb44402e101140dfc1725ba" target="_top" xlink:title="scram::core::Settings\l::prime_implicants">
<polygon fill="white" stroke="black" points="345,-196.5 345,-226.5 464,-226.5 464,-196.5 345,-196.5"/>
<text text-anchor="start" x="353" y="-214.5" font-family="Helvetica,sans-Serif" font-size="10.00">scram::core::Settings</text>
<text text-anchor="middle" x="404.5" y="-203.5" font-family="Helvetica,sans-Serif" font-size="10.00">::prime_implicants</text>
</a>
</g>
</g>
<!-- Node3&#45;&gt;Node11 -->
<g id="edge12" class="edge"><title>Node3&#45;&gt;Node11</title>
<path fill="none" stroke="midnightblue" d="M295.23,-227.442C307.907,-225.575 321.555,-223.566 334.747,-221.623"/>
<polygon fill="midnightblue" stroke="midnightblue" points="335.338,-225.074 344.722,-220.154 334.318,-218.149 335.338,-225.074"/>
</g>
<!-- Node12 -->
<g id="node12" class="node"><title>Node12</title>
<g id="a_node12"><a xlink:href="classscram_1_1core_1_1NonTerminal.xhtml#aeeaafd82ae5890a7ec3462c68ffc8628" target="_top" xlink:title="scram::core::NonTerminal\l::index">
<polygon fill="white" stroke="black" points="335,-147.5 335,-177.5 474,-177.5 474,-147.5 335,-147.5"/>
<text text-anchor="start" x="343" y="-165.5" font-family="Helvetica,sans-Serif" font-size="10.00">scram::core::NonTerminal</text>
<text text-anchor="middle" x="404.5" y="-154.5" font-family="Helvetica,sans-Serif" font-size="10.00">::index</text>
</a>
</g>
</g>
<!-- Node3&#45;&gt;Node12 -->
<g id="edge13" class="edge"><title>Node3&#45;&gt;Node12</title>
<path fill="none" stroke="midnightblue" d="M268.197,-220.322C286.812,-210.398 312.048,-197.475 335,-187.5 339.935,-185.356 345.119,-183.234 350.333,-181.187"/>
<polygon fill="midnightblue" stroke="midnightblue" points="351.621,-184.442 359.706,-177.594 349.115,-177.906 351.621,-184.442"/>
</g>
<!-- Node13 -->
<g id="node13" class="node"><title>Node13</title>
<g id="a_node13"><a xlink:href="classscram_1_1core_1_1NonTerminal.xhtml#a9230422e92d086c34f67bcb864bfc8a9" target="_top" xlink:title="scram::core::NonTerminal\l::module">
<polygon fill="white" stroke="black" points="335,-98.5 335,-128.5 474,-128.5 474,-98.5 335,-98.5"/>
<text text-anchor="start" x="343" y="-116.5" font-family="Helvetica,sans-Serif" font-size="10.00">scram::core::NonTerminal</text>
<text text-anchor="middle" x="404.5" y="-105.5" font-family="Helvetica,sans-Serif" font-size="10.00">::module</text>
</a>
</g>
</g>
<!-- Node3&#45;&gt;Node13 -->
<g id="edge14" class="edge"><title>Node3&#45;&gt;Node13</title>
<path fill="none" stroke="midnightblue" d="M251.687,-220.303C267.901,-199.247 299.862,-161.231 335,-138.5 338.106,-136.491 341.395,-134.615 344.785,-132.867"/>
<polygon fill="midnightblue" stroke="midnightblue" points="346.394,-135.978 353.939,-128.54 343.402,-129.65 346.394,-135.978"/>
</g>
<!-- Node14 -->
<g id="node14" class="node"><title>Node14</title>
<g id="a_node14"><a xlink:href="classscram_1_1core_1_1NonTerminal.xhtml#adcdd0c5114aa6a1d32a03928adc07c49" target="_top" xlink:title="scram::core::NonTerminal\l::coherent">
<polygon fill="white" stroke="black" points="335,-49.5 335,-79.5 474,-79.5 474,-49.5 335,-49.5"/>
<text text-anchor="start" x="343" y="-67.5" font-family="Helvetica,sans-Serif" font-size="10.00">scram::core::NonTerminal</text>
<text text-anchor="middle" x="404.5" y="-56.5" font-family="Helvetica,sans-Serif" font-size="10.00">::coherent</text>
</a>
</g>
</g>
<!-- Node3&#45;&gt;Node14 -->
<g id="edge15" class="edge"><title>Node3&#45;&gt;Node14</title>
<path fill="none" stroke="midnightblue" d="M248.669,-220.173C266.903,-186.446 311.186,-107.298 335,-88.5 336.768,-87.1044 338.623,-85.7867 340.544,-84.5427"/>
<polygon fill="midnightblue" stroke="midnightblue" points="342.365,-87.5338 349.329,-79.5489 338.906,-81.4484 342.365,-87.5338"/>
</g>
<!-- Node6&#45;&gt;Node5 -->
<g id="edge7" class="edge"><title>Node6&#45;&gt;Node5</title>
<path fill="none" stroke="midnightblue" d="M457.593,-324.546C479.191,-330.784 504.42,-338.071 526.965,-344.582"/>
<polygon fill="midnightblue" stroke="midnightblue" points="526.198,-348.004 536.777,-347.416 528.141,-341.279 526.198,-348.004"/>
</g>
<!-- Node7 -->
<g id="node7" class="node"><title>Node7</title>
<g id="a_node7"><a xlink:href="classscram_1_1core_1_1SetNode.xhtml#a2d7f99792b82961df2e5ecfcd735bb5f" target="_top" xlink:title="scram::core::SetNode\l::max_set_order">
<polygon fill="white" stroke="black" points="529,-294.5 529,-324.5 651,-324.5 651,-294.5 529,-294.5"/>
<text text-anchor="start" x="537" y="-312.5" font-family="Helvetica,sans-Serif" font-size="10.00">scram::core::SetNode</text>
<text text-anchor="middle" x="590" y="-301.5" font-family="Helvetica,sans-Serif" font-size="10.00">::max_set_order</text>
</a>
</g>
</g>
<!-- Node6&#45;&gt;Node7 -->
<g id="edge6" class="edge"><title>Node6&#45;&gt;Node7</title>
<path fill="none" stroke="midnightblue" d="M460.059,-309.5C478.502,-309.5 499.358,-309.5 518.837,-309.5"/>
<polygon fill="midnightblue" stroke="midnightblue" points="518.879,-313 528.879,-309.5 518.878,-306 518.879,-313"/>
</g>
<!-- Node10 -->
<g id="node10" class="node"><title>Node10</title>
<g id="a_node10"><a xlink:href="classscram_1_1core_1_1Vertex.xhtml#a8a4a6e9871c7b80b9951fea57617d438" target="_top" xlink:title="scram::core::Vertex::id">
<polygon fill="white" stroke="black" points="527.5,-6 527.5,-25 652.5,-25 652.5,-6 527.5,-6"/>
<text text-anchor="middle" x="590" y="-13" font-family="Helvetica,sans-Serif" font-size="10.00">scram::core::Vertex::id</text>
</a>
</g>
</g>
<!-- Node9&#45;&gt;Node10 -->
<g id="edge11" class="edge"><title>Node9&#45;&gt;Node10</title>
<path fill="none" stroke="midnightblue" d="M464.065,-15.5C480.9,-15.5 499.457,-15.5 517.002,-15.5"/>
<polygon fill="midnightblue" stroke="midnightblue" points="517.195,-19.0001 527.195,-15.5 517.195,-12.0001 517.195,-19.0001"/>
</g>
</g>
</svg>
