<?xml version="1.0" encoding="UTF-8" standalone="no"?>
<!DOCTYPE svg PUBLIC "-//W3C//DTD SVG 1.1//EN"
 "http://www.w3.org/Graphics/SVG/1.1/DTD/svg11.dtd">
<!-- Generated by graphviz version 2.38.0 (20140413.2041)
 -->
<!-- Title: scram::mef::Role::base_path Pages: 1 -->
<svg width="358pt" height="88pt"
 viewBox="0.00 0.00 358.00 88.00" xmlns="http://www.w3.org/2000/svg" xmlns:xlink="http://www.w3.org/1999/xlink">
<g id="graph0" class="graph" transform="scale(1 1) rotate(0) translate(4 84)">
<title>scram::mef::Role::base_path</title>
<polygon fill="white" stroke="none" points="-4,4 -4,-84 354,-84 354,4 -4,4"/>
<!-- Node1 -->
<g id="node1" class="node"><title>Node1</title>
<polygon fill="#bfbfbf" stroke="black" points="0,-30 0,-49 153,-49 153,-30 0,-30"/>
<text text-anchor="middle" x="76.5" y="-37" font-family="Helvetica,sans-Serif" font-size="10.00">scram::mef::Role::base_path</text>
</g>
<!-- Node2 -->
<g id="node2" class="node"><title>Node2</title>
<g id="a_node2"><a xlink:href="classscram_1_1mef_1_1Initializer.xhtml#a3d457bc3c3c2794545465c7dd9364e32" target="_top" xlink:title="Specializations for elements defined after registration. ">
<polygon fill="white" stroke="black" points="210,-49.5 210,-79.5 329,-79.5 329,-49.5 210,-49.5"/>
<text text-anchor="start" x="218" y="-67.5" font-family="Helvetica,sans-Serif" font-size="10.00">scram::mef::Initializer</text>
<text text-anchor="middle" x="269.5" y="-56.5" font-family="Helvetica,sans-Serif" font-size="10.00">::Define</text>
</a>
</g>
</g>
<!-- Node1&#45;&gt;Node2 -->
<g id="edge1" class="edge"><title>Node1&#45;&gt;Node2</title>
<path fill="none" stroke="midnightblue" d="M160.522,-50.3668C177.15,-52.5432 194.291,-54.7868 209.882,-56.8275"/>
<polygon fill="midnightblue" stroke="midnightblue" points="160.623,-46.8503 150.254,-49.0227 159.715,-53.7911 160.623,-46.8503"/>
</g>
<!-- Node3 -->
<g id="node3" class="node"><title>Node3</title>
<g id="a_node3"><a xlink:href="structscram_1_1mef_1_1Initializer_1_1Extractor_3_01T_00-1_01_4.xhtml#aed4438ca816e65ced748e4bc1f67a631" target="_top" xlink:title="Constructs an expression with a variable number of arguments. ">
<polygon fill="white" stroke="black" points="189,-0.5 189,-30.5 350,-30.5 350,-0.5 189,-0.5"/>
<text text-anchor="start" x="197" y="-18.5" font-family="Helvetica,sans-Serif" font-size="10.00">scram::mef::Initializer</text>
<text text-anchor="middle" x="269.5" y="-7.5" font-family="Helvetica,sans-Serif" font-size="10.00">::Extractor&lt; T,&#45;1 &gt;::operator()</text>
</a>
</g>
</g>
<!-- Node1&#45;&gt;Node3 -->
<g id="edge2" class="edge"><title>Node1&#45;&gt;Node3</title>
<path fill="none" stroke="midnightblue" d="M163.186,-28.7332C171.694,-27.664 180.308,-26.5817 188.752,-25.5206"/>
<polygon fill="midnightblue" stroke="midnightblue" points="162.748,-25.2606 153.263,-29.9801 163.621,-32.206 162.748,-25.2606"/>
</g>
</g>
</svg>
