<?xml version="1.0" encoding="UTF-8" standalone="no"?>
<!DOCTYPE svg PUBLIC "-//W3C//DTD SVG 1.1//EN"
 "http://www.w3.org/Graphics/SVG/1.1/DTD/svg11.dtd">
<!-- Generated by graphviz version 2.38.0 (20140413.2041)
 -->
<!-- Title: ext::find_iterator&lt; Iterator &gt; Pages: 1 -->
<svg width="108pt" height="182pt"
 viewBox="0.00 0.00 108.00 182.00" xmlns="http://www.w3.org/2000/svg" xmlns:xlink="http://www.w3.org/1999/xlink">
<g id="graph0" class="graph" transform="scale(1 1) rotate(0) translate(4 178)">
<title>ext::find_iterator&lt; Iterator &gt;</title>
<polygon fill="white" stroke="none" points="-4,4 -4,-178 104,-178 104,4 -4,4"/>
<!-- Node1 -->
<g id="node1" class="node"><title>Node1</title>
<polygon fill="#bfbfbf" stroke="black" points="0,-0.5 0,-79.5 100,-79.5 100,-0.5 0,-0.5"/>
<text text-anchor="start" x="8" y="-67.5" font-family="Helvetica,sans-Serif" font-size="10.00">ext::find_iterator</text>
<text text-anchor="middle" x="50" y="-56.5" font-family="Helvetica,sans-Serif" font-size="10.00">&lt; Iterator &gt;</text>
<polyline fill="none" stroke="black" points="0,-49.5 100,-49.5 "/>
<text text-anchor="middle" x="50" y="-37.5" font-family="Helvetica,sans-Serif" font-size="10.00"> </text>
<polyline fill="none" stroke="black" points="0,-30.5 100,-30.5 "/>
<text text-anchor="start" x="8" y="-18.5" font-family="Helvetica,sans-Serif" font-size="10.00">+ find_iterator()</text>
<text text-anchor="start" x="8" y="-7.5" font-family="Helvetica,sans-Serif" font-size="10.00">+ operator bool()</text>
</g>
<!-- Node2 -->
<g id="node2" class="node"><title>Node2</title>
<polygon fill="white" stroke="#bfbfbf" points="24,-116.5 24,-173.5 76,-173.5 76,-116.5 24,-116.5"/>
<text text-anchor="middle" x="50" y="-161.5" font-family="Helvetica,sans-Serif" font-size="10.00">Iterator</text>
<polyline fill="none" stroke="#bfbfbf" points="24,-154.5 76,-154.5 "/>
<text text-anchor="middle" x="50" y="-142.5" font-family="Helvetica,sans-Serif" font-size="10.00"> </text>
<polyline fill="none" stroke="#bfbfbf" points="24,-135.5 76,-135.5 "/>
<text text-anchor="middle" x="50" y="-123.5" font-family="Helvetica,sans-Serif" font-size="10.00"> </text>
</g>
<!-- Node2&#45;&gt;Node1 -->
<g id="edge1" class="edge"><title>Node2&#45;&gt;Node1</title>
<path fill="none" stroke="midnightblue" d="M50,-106.156C50,-97.4733 50,-88.2318 50,-79.5205"/>
<polygon fill="none" stroke="midnightblue" points="46.5001,-106.398 50,-116.398 53.5001,-106.398 46.5001,-106.398"/>
</g>
</g>
</svg>
