<?xml version="1.0" encoding="UTF-8" standalone="no"?>
<!DOCTYPE svg PUBLIC "-//W3C//DTD SVG 1.1//EN"
 "http://www.w3.org/Graphics/SVG/1.1/DTD/svg11.dtd">
<!-- Generated by graphviz version 2.38.0 (20140413.2041)
 -->
<!-- Title: scram::mef::Branch Pages: 1 -->
<svg width="270pt" height="204pt"
 viewBox="0.00 0.00 270.00 204.00" xmlns="http://www.w3.org/2000/svg" xmlns:xlink="http://www.w3.org/1999/xlink">
<g id="graph0" class="graph" transform="scale(1 1) rotate(0) translate(4 200)">
<title>scram::mef::Branch</title>
<polygon fill="white" stroke="none" points="-4,4 -4,-200 266,-200 266,4 -4,4"/>
<!-- Node1 -->
<g id="node1" class="node"><title>Node1</title>
<polygon fill="#bfbfbf" stroke="black" points="87.5,-105.5 87.5,-195.5 198.5,-195.5 198.5,-105.5 87.5,-105.5"/>
<text text-anchor="middle" x="143" y="-183.5" font-family="Helvetica,sans-Serif" font-size="10.00">scram::mef::Branch</text>
<polyline fill="none" stroke="black" points="87.5,-176.5 198.5,-176.5 "/>
<text text-anchor="middle" x="143" y="-164.5" font-family="Helvetica,sans-Serif" font-size="10.00"> </text>
<polyline fill="none" stroke="black" points="87.5,-157.5 198.5,-157.5 "/>
<text text-anchor="start" x="95.5" y="-145.5" font-family="Helvetica,sans-Serif" font-size="10.00">+ instructions()</text>
<text text-anchor="start" x="95.5" y="-134.5" font-family="Helvetica,sans-Serif" font-size="10.00">+ instructions()</text>
<text text-anchor="start" x="95.5" y="-123.5" font-family="Helvetica,sans-Serif" font-size="10.00">+ target()</text>
<text text-anchor="start" x="95.5" y="-112.5" font-family="Helvetica,sans-Serif" font-size="10.00">+ target()</text>
</g>
<!-- Node2 -->
<g id="node2" class="node"><title>Node2</title>
<g id="a_node2"><a xlink:href="classscram_1_1mef_1_1NamedBranch.xhtml" target="_top" xlink:title="Named branches that can be referenced and reused. ">
<polygon fill="white" stroke="black" points="0,-6 0,-63 146,-63 146,-6 0,-6"/>
<text text-anchor="middle" x="73" y="-51" font-family="Helvetica,sans-Serif" font-size="10.00">scram::mef::NamedBranch</text>
<polyline fill="none" stroke="black" points="0,-44 146,-44 "/>
<text text-anchor="start" x="8" y="-32" font-family="Helvetica,sans-Serif" font-size="10.00">+ kTypeString</text>
<polyline fill="none" stroke="black" points="0,-25 146,-25 "/>
<text text-anchor="middle" x="73" y="-13" font-family="Helvetica,sans-Serif" font-size="10.00"> </text>
</a>
</g>
</g>
<!-- Node1&#45;&gt;Node2 -->
<g id="edge1" class="edge"><title>Node1&#45;&gt;Node2</title>
<path fill="none" stroke="midnightblue" d="M110.572,-96.6882C103.495,-85.164 96.2782,-73.4102 90.0854,-63.3249"/>
<polygon fill="none" stroke="midnightblue" points="107.721,-98.7343 115.936,-105.425 113.686,-95.0715 107.721,-98.7343"/>
</g>
<!-- Node3 -->
<g id="node3" class="node"><title>Node3</title>
<g id="a_node3"><a xlink:href="classscram_1_1mef_1_1Path.xhtml" target="_top" xlink:title="Functional&#45;event state paths in event trees. ">
<polygon fill="white" stroke="black" points="164,-0.5 164,-68.5 262,-68.5 262,-0.5 164,-0.5"/>
<text text-anchor="middle" x="213" y="-56.5" font-family="Helvetica,sans-Serif" font-size="10.00">scram::mef::Path</text>
<polyline fill="none" stroke="black" points="164,-49.5 262,-49.5 "/>
<text text-anchor="middle" x="213" y="-37.5" font-family="Helvetica,sans-Serif" font-size="10.00"> </text>
<polyline fill="none" stroke="black" points="164,-30.5 262,-30.5 "/>
<text text-anchor="start" x="172" y="-18.5" font-family="Helvetica,sans-Serif" font-size="10.00">+ Path()</text>
<text text-anchor="start" x="172" y="-7.5" font-family="Helvetica,sans-Serif" font-size="10.00">+ state()</text>
</a>
</g>
</g>
<!-- Node1&#45;&gt;Node3 -->
<g id="edge2" class="edge"><title>Node1&#45;&gt;Node3</title>
<path fill="none" stroke="midnightblue" d="M175.377,-96.7722C181.212,-87.2686 187.146,-77.6057 192.523,-68.8483"/>
<polygon fill="none" stroke="midnightblue" points="172.314,-95.0715 170.064,-105.425 178.279,-98.7343 172.314,-95.0715"/>
</g>
</g>
</svg>
