<?xml version="1.0" encoding="UTF-8" standalone="no"?>
<!DOCTYPE svg PUBLIC "-//W3C//DTD SVG 1.1//EN"
 "http://www.w3.org/Graphics/SVG/1.1/DTD/svg11.dtd">
<!-- Generated by graphviz version 2.38.0 (20140413.2041)
 -->
<!-- Title: scram::core::Terminal::value Pages: 1 -->
<!--zoomable 406 -->
<svg id="main" version="1.1" xmlns="http://www.w3.org/2000/svg" xmlns:xlink="http://www.w3.org/1999/xlink" xml:space="preserve" onload="init(evt)">
<style type="text/css"><![CDATA[
.edge:hover path { stroke: red; }
.edge:hover polygon { stroke: red; fill: red; }
]]></style>
<script type="text/javascript"><![CDATA[
var edges = document.getElementsByTagName('g');
if (edges && edges.length) {
  for (var i=0;i<edges.length;i++) {
    if (edges[i].id.substr(0,4)=='edge') {
      edges[i].setAttribute('class','edge');
    }
  }
}
]]></script>
        <defs>
                <circle id="rim" cx="0" cy="0" r="7"/>
                <circle id="rim2" cx="0" cy="0" r="3.5"/>
                <g id="zoomPlus">
                        <use xlink:href="#rim" fill="#404040">
                                <set attributeName="fill" to="#808080" begin="zoomplus.mouseover" end="zoomplus.mouseout"/>
                        </use>
                        <path d="M-4,0h8M0,-4v8" fill="none" stroke="white" stroke-width="1.5" pointer-events="none"/>
                </g>
                <g id="zoomMin">
                        <use xlink:href="#rim" fill="#404040">
                                <set attributeName="fill" to="#808080" begin="zoomminus.mouseover" end="zoomminus.mouseout"/>
                        </use>
                        <path d="M-4,0h8" fill="none" stroke="white" stroke-width="1.5" pointer-events="none"/>
                </g>
                <g id="dirArrow">
                        <path fill="none" stroke="white" stroke-width="1.5" d="M0,-3.0v7 M-2.5,-0.5L0,-3.0L2.5,-0.5"/>
                </g>
               <g id="resetDef">
                       <use xlink:href="#rim2" fill="#404040">
                               <set attributeName="fill" to="#808080" begin="reset.mouseover" end="reset.mouseout"/>
                       </use>
               </g>
        </defs>

<script type="text/javascript">
var viewWidth = 866;
var viewHeight = 406;
var sectionId = 'dynsection-2';
</script>
<script xlink:href="svgpan.js"/>
<svg id="graph" class="graph">
<g id="viewport">
<title>scram::core::Terminal::value</title>
<polygon fill="white" stroke="none" points="-4,4 -4,-402 862,-402 862,4 -4,4"/>
<!-- Node1 -->
<g id="node1" class="node"><title>Node1</title>
<polygon fill="#bfbfbf" stroke="black" points="0,-274.5 0,-304.5 119,-304.5 119,-274.5 0,-274.5"/>
<text text-anchor="start" x="8" y="-292.5" font-family="Helvetica,sans-Serif" font-size="10.00">scram::core::Terminal</text>
<text text-anchor="middle" x="59.5" y="-281.5" font-family="Helvetica,sans-Serif" font-size="10.00">::value</text>
</g>
<!-- Node2 -->
<g id="node2" class="node"><title>Node2</title>
<g id="a_node2"><a xlink:href="classscram_1_1core_1_1Zbdd.xhtml#a363960002737004ea45f67758d9ac17d" target="_top" xlink:title="Specialization of Apply for AND connective for any ZBDD vertices. ">
<polygon fill="white" stroke="black" points="155,-367.5 155,-397.5 266,-397.5 266,-367.5 155,-367.5"/>
<text text-anchor="start" x="163" y="-385.5" font-family="Helvetica,sans-Serif" font-size="10.00">scram::core::Zbdd::</text>
<text text-anchor="middle" x="210.5" y="-374.5" font-family="Helvetica,sans-Serif" font-size="10.00">Apply</text>
</a>
</g>
</g>
<!-- Node1&#45;&gt;Node2 -->
<g id="edge1" class="edge"><title>Node1&#45;&gt;Node2</title>
<path fill="none" stroke="midnightblue" d="M87.2529,-310.889C105.678,-325.075 131.062,-343.574 155,-357.5 161.029,-361.007 167.635,-364.391 174.103,-367.476"/>
<polygon fill="midnightblue" stroke="midnightblue" points="89.3487,-308.085 79.3072,-304.706 85.0498,-313.609 89.3487,-308.085"/>
</g>
<!-- Node3 -->
<g id="node3" class="node"><title>Node3</title>
<g id="a_node3"><a xlink:href="classscram_1_1core_1_1Zbdd.xhtml#a8cfceb8301f35bce33c34f1283f33725" target="_top" xlink:title="Applies non&#45;declarative substitutions at the end of analysis. ">
<polygon fill="white" stroke="black" points="334,-0.5 334,-30.5 445,-30.5 445,-0.5 334,-0.5"/>
<text text-anchor="start" x="342" y="-18.5" font-family="Helvetica,sans-Serif" font-size="10.00">scram::core::Zbdd::</text>
<text text-anchor="middle" x="389.5" y="-7.5" font-family="Helvetica,sans-Serif" font-size="10.00">ApplySubstitutions</text>
</a>
</g>
</g>
<!-- Node1&#45;&gt;Node3 -->
<g id="edge2" class="edge"><title>Node1&#45;&gt;Node3</title>
<path fill="none" stroke="midnightblue" d="M73.7926,-265.18C90.3904,-236.131 120.796,-187.014 155,-151.5 211.421,-92.9169 229.496,-79.3568 302,-42.5 311.957,-37.4385 323.045,-33.1077 333.87,-29.4916"/>
<polygon fill="midnightblue" stroke="midnightblue" points="70.563,-263.782 68.7076,-274.213 76.663,-267.216 70.563,-263.782"/>
</g>
<!-- Node6 -->
<g id="node6" class="node"><title>Node6</title>
<g id="a_node6"><a xlink:href="classscram_1_1core_1_1Zbdd.xhtml#aeb83fd37f2aee74ac41e6ccadba82d39" target="_top" xlink:title="Removes constant modules from products. ">
<polygon fill="white" stroke="black" points="317.5,-274.5 317.5,-304.5 461.5,-304.5 461.5,-274.5 317.5,-274.5"/>
<text text-anchor="start" x="325.5" y="-292.5" font-family="Helvetica,sans-Serif" font-size="10.00">scram::core::Zbdd::</text>
<text text-anchor="middle" x="389.5" y="-281.5" font-family="Helvetica,sans-Serif" font-size="10.00">EliminateConstantModules</text>
</a>
</g>
</g>
<!-- Node1&#45;&gt;Node6 -->
<g id="edge5" class="edge"><title>Node1&#45;&gt;Node6</title>
<path fill="none" stroke="midnightblue" d="M129.166,-289.5C184.288,-289.5 261.423,-289.5 317.225,-289.5"/>
<polygon fill="midnightblue" stroke="midnightblue" points="129.14,-286 119.14,-289.5 129.14,-293 129.14,-286"/>
</g>
<!-- Node9 -->
<g id="node9" class="node"><title>Node9</title>
<g id="a_node9"><a xlink:href="classscram_1_1core_1_1Zbdd.xhtml#a516f0d2f35ad213399f83fb9ab102561" target="_top" xlink:title="Traverses ZBDD to find modules and adjusted cut&#45;offs. ">
<polygon fill="white" stroke="black" points="155,-318.5 155,-348.5 266,-348.5 266,-318.5 155,-318.5"/>
<text text-anchor="start" x="163" y="-336.5" font-family="Helvetica,sans-Serif" font-size="10.00">scram::core::Zbdd::</text>
<text text-anchor="middle" x="210.5" y="-325.5" font-family="Helvetica,sans-Serif" font-size="10.00">GatherModules</text>
</a>
</g>
</g>
<!-- Node1&#45;&gt;Node9 -->
<g id="edge8" class="edge"><title>Node1&#45;&gt;Node9</title>
<path fill="none" stroke="midnightblue" d="M121.186,-307.421C133.614,-311.091 146.574,-314.918 158.616,-318.474"/>
<polygon fill="midnightblue" stroke="midnightblue" points="121.942,-303.995 111.361,-304.519 119.96,-310.708 121.942,-303.995"/>
</g>
<!-- Node11 -->
<g id="node11" class="node"><title>Node11</title>
<g id="a_node11"><a xlink:href="classscram_1_1core_1_1Zbdd.xhtml#a3dbb8ef5da2882daf6c39e9724eae459" target="_top" xlink:title="Removes subsets in ZBDD. ">
<polygon fill="white" stroke="black" points="155,-161.5 155,-191.5 266,-191.5 266,-161.5 155,-161.5"/>
<text text-anchor="start" x="163" y="-179.5" font-family="Helvetica,sans-Serif" font-size="10.00">scram::core::Zbdd::</text>
<text text-anchor="middle" x="210.5" y="-168.5" font-family="Helvetica,sans-Serif" font-size="10.00">Minimize</text>
</a>
</g>
</g>
<!-- Node1&#45;&gt;Node11 -->
<g id="edge11" class="edge"><title>Node1&#45;&gt;Node11</title>
<path fill="none" stroke="midnightblue" d="M88.5092,-268.258C117.991,-245.899 163.653,-211.27 189.632,-191.568"/>
<polygon fill="midnightblue" stroke="midnightblue" points="86.1389,-265.663 80.286,-274.494 90.3688,-271.24 86.1389,-265.663"/>
</g>
<!-- Node4 -->
<g id="node4" class="node"><title>Node4</title>
<g id="a_node4"><a xlink:href="classscram_1_1core_1_1Zbdd.xhtml#aac27b9279de1ee1a63822896daeca0c7" target="_top" xlink:title="Runs the analysis with the representation of a PDAG as ZBDD. ">
<polygon fill="white" stroke="black" points="530.5,-22.5 530.5,-52.5 641.5,-52.5 641.5,-22.5 530.5,-22.5"/>
<text text-anchor="start" x="538.5" y="-40.5" font-family="Helvetica,sans-Serif" font-size="10.00">scram::core::Zbdd::</text>
<text text-anchor="middle" x="586" y="-29.5" font-family="Helvetica,sans-Serif" font-size="10.00">Analyze</text>
</a>
</g>
</g>
<!-- Node3&#45;&gt;Node4 -->
<g id="edge3" class="edge"><title>Node3&#45;&gt;Node4</title>
<path fill="none" stroke="midnightblue" d="M455.41,-22.8421C479.726,-25.5924 507.085,-28.687 530.377,-31.3216"/>
<polygon fill="midnightblue" stroke="midnightblue" points="455.527,-19.333 445.197,-21.6868 454.74,-26.2886 455.527,-19.333"/>
</g>
<!-- Node5 -->
<g id="node5" class="node"><title>Node5</title>
<g id="a_node5"><a xlink:href="classscram_1_1core_1_1FaultTreeAnalyzer.xhtml#aedae0c884539dab245018194771f5021" target="_top" xlink:title="scram::core::FaultTreeAnalyzer\l::algorithm">
<polygon fill="white" stroke="black" points="695,-22.5 695,-52.5 858,-52.5 858,-22.5 695,-22.5"/>
<text text-anchor="start" x="703" y="-40.5" font-family="Helvetica,sans-Serif" font-size="10.00">scram::core::FaultTreeAnalyzer</text>
<text text-anchor="middle" x="776.5" y="-29.5" font-family="Helvetica,sans-Serif" font-size="10.00">::algorithm</text>
</a>
</g>
</g>
<!-- Node4&#45;&gt;Node5 -->
<g id="edge4" class="edge"><title>Node4&#45;&gt;Node5</title>
<path fill="none" stroke="midnightblue" d="M651.887,-37.5C665.71,-37.5 680.469,-37.5 694.801,-37.5"/>
<polygon fill="midnightblue" stroke="midnightblue" points="651.522,-34.0001 641.522,-37.5 651.522,-41.0001 651.522,-34.0001"/>
</g>
<!-- Node7 -->
<g id="node7" class="node"><title>Node7</title>
<g id="a_node7"><a xlink:href="classscram_1_1core_1_1Zbdd.xhtml#af92e04ed908364e0177ce444d7b72712" target="_top" xlink:title="The common constructor to initialize member variables. ">
<polygon fill="white" stroke="black" points="517.5,-236 517.5,-255 654.5,-255 654.5,-236 517.5,-236"/>
<text text-anchor="middle" x="586" y="-243" font-family="Helvetica,sans-Serif" font-size="10.00">scram::core::Zbdd::Zbdd</text>
</a>
</g>
</g>
<!-- Node6&#45;&gt;Node7 -->
<g id="edge6" class="edge"><title>Node6&#45;&gt;Node7</title>
<path fill="none" stroke="midnightblue" d="M466.714,-272.259C492.652,-266.391 520.687,-260.049 542.951,-255.012"/>
<polygon fill="midnightblue" stroke="midnightblue" points="465.873,-268.86 456.892,-274.481 467.418,-275.688 465.873,-268.86"/>
</g>
<!-- Node8 -->
<g id="node8" class="node"><title>Node8</title>
<g id="a_node8"><a xlink:href="classscram_1_1core_1_1zbdd_1_1CutSetContainer.xhtml#a1022ad7a4699257a6f0c0809d8f1903d" target="_top" xlink:title="Removes constant modules from cut sets. ">
<polygon fill="white" stroke="black" points="513,-274 513,-315 659,-315 659,-274 513,-274"/>
<text text-anchor="start" x="521" y="-303" font-family="Helvetica,sans-Serif" font-size="10.00">scram::core::zbdd::</text>
<text text-anchor="start" x="521" y="-292" font-family="Helvetica,sans-Serif" font-size="10.00">CutSetContainer::Eliminate</text>
<text text-anchor="middle" x="586" y="-281" font-family="Helvetica,sans-Serif" font-size="10.00">ConstantModules</text>
</a>
</g>
</g>
<!-- Node6&#45;&gt;Node8 -->
<g id="edge7" class="edge"><title>Node6&#45;&gt;Node8</title>
<path fill="none" stroke="midnightblue" d="M471.848,-291.591C485.455,-291.941 499.488,-292.302 512.844,-292.645"/>
<polygon fill="midnightblue" stroke="midnightblue" points="471.631,-288.085 461.545,-291.326 471.451,-295.082 471.631,-288.085"/>
</g>
<!-- Node9&#45;&gt;Node7 -->
<g id="edge9" class="edge"><title>Node9&#45;&gt;Node7</title>
<path fill="none" stroke="midnightblue" d="M276.36,-343.095C332.924,-348.233 415.344,-347.679 477,-313.5 500.635,-300.398 490.66,-279.705 513,-264.5 518.664,-260.645 525.069,-257.572 531.666,-255.122"/>
<polygon fill="midnightblue" stroke="midnightblue" points="276.408,-339.582 266.111,-342.076 275.715,-346.548 276.408,-339.582"/>
</g>
<!-- Node10 -->
<g id="node10" class="node"><title>Node10</title>
<g id="a_node10"><a xlink:href="classscram_1_1core_1_1zbdd_1_1CutSetContainer.xhtml#a478c89f64731781882b50ec55898900b" target="_top" xlink:title="Gathers all module indices in the cut sets. ">
<polygon fill="white" stroke="black" points="302,-362.5 302,-392.5 477,-392.5 477,-362.5 302,-362.5"/>
<text text-anchor="start" x="310" y="-380.5" font-family="Helvetica,sans-Serif" font-size="10.00">scram::core::zbdd::</text>
<text text-anchor="middle" x="389.5" y="-369.5" font-family="Helvetica,sans-Serif" font-size="10.00">CutSetContainer::GatherModules</text>
</a>
</g>
</g>
<!-- Node9&#45;&gt;Node10 -->
<g id="edge10" class="edge"><title>Node9&#45;&gt;Node10</title>
<path fill="none" stroke="midnightblue" d="M275.89,-349.506C292.889,-353.732 311.173,-358.277 327.961,-362.451"/>
<polygon fill="midnightblue" stroke="midnightblue" points="276.599,-346.076 266.05,-347.06 274.91,-352.87 276.599,-346.076"/>
</g>
<!-- Node11&#45;&gt;Node3 -->
<g id="edge19" class="edge"><title>Node11&#45;&gt;Node3</title>
<path fill="none" stroke="midnightblue" d="M228.516,-153.314C239.398,-138.353 253.723,-118.413 266,-100.5 282.516,-76.4015 278.966,-63.4708 302,-45.5 311.274,-38.2648 322.414,-32.7058 333.566,-28.4584"/>
<polygon fill="midnightblue" stroke="midnightblue" points="225.615,-151.352 222.548,-161.493 231.27,-155.478 225.615,-151.352"/>
</g>
<!-- Node11&#45;&gt;Node4 -->
<g id="edge12" class="edge"><title>Node11&#45;&gt;Node4</title>
<path fill="none" stroke="midnightblue" d="M226.364,-152.682C242.128,-129.636 269.254,-95.7365 302,-78.5 340.604,-58.18 459.585,-46.4364 530.387,-41.0705"/>
<polygon fill="midnightblue" stroke="midnightblue" points="223.311,-150.954 220.701,-161.222 229.145,-154.823 223.311,-150.954"/>
</g>
<!-- Node11&#45;&gt;Node6 -->
<g id="edge18" class="edge"><title>Node11&#45;&gt;Node6</title>
<path fill="none" stroke="midnightblue" d="M231.203,-199.116C248.32,-217.562 274.608,-243.154 302,-259.5 311.828,-265.364 322.969,-270.303 333.909,-274.373"/>
<polygon fill="midnightblue" stroke="midnightblue" points="233.771,-196.737 224.452,-191.696 228.593,-201.448 233.771,-196.737"/>
</g>
<!-- Node11&#45;&gt;Node7 -->
<g id="edge13" class="edge"><title>Node11&#45;&gt;Node7</title>
<path fill="none" stroke="midnightblue" d="M241.891,-197.199C258.82,-207.609 280.723,-219.303 302,-225.5 373.408,-246.297 459.037,-249.518 517.266,-248.662"/>
<polygon fill="midnightblue" stroke="midnightblue" points="243.355,-193.983 233.034,-191.591 239.611,-199.897 243.355,-193.983"/>
</g>
<!-- Node12 -->
<g id="node12" class="node"><title>Node12</title>
<g id="a_node12"><a xlink:href="classscram_1_1core_1_1Zbdd.xhtml#a499a8bc4bc3854e7b2928c08515243cf" target="_top" xlink:title="Specialization of Apply for AND connective for non&#45;terminal ZBDD vertices. ">
<polygon fill="white" stroke="black" points="334,-88.5 334,-118.5 445,-118.5 445,-88.5 334,-88.5"/>
<text text-anchor="start" x="342" y="-106.5" font-family="Helvetica,sans-Serif" font-size="10.00">scram::core::Zbdd::</text>
<text text-anchor="middle" x="389.5" y="-95.5" font-family="Helvetica,sans-Serif" font-size="10.00">Apply</text>
</a>
</g>
</g>
<!-- Node11&#45;&gt;Node12 -->
<g id="edge14" class="edge"><title>Node11&#45;&gt;Node12</title>
<path fill="none" stroke="midnightblue" d="M244.587,-156.247C261.352,-146.596 282.287,-135.452 302,-127.5 312.117,-123.419 323.169,-119.775 333.888,-116.634"/>
<polygon fill="midnightblue" stroke="midnightblue" points="242.6,-153.354 235.736,-161.425 246.135,-159.396 242.6,-153.354"/>
</g>
<!-- Node13 -->
<g id="node13" class="node"><title>Node13</title>
<g id="a_node13"><a xlink:href="classscram_1_1core_1_1Zbdd.xhtml#ac3ac27090b550d973b20bd971c3de9f9" target="_top" xlink:title="Removes complements of variables from products. ">
<polygon fill="white" stroke="black" points="325.5,-137.5 325.5,-167.5 453.5,-167.5 453.5,-137.5 325.5,-137.5"/>
<text text-anchor="start" x="333.5" y="-155.5" font-family="Helvetica,sans-Serif" font-size="10.00">scram::core::Zbdd::</text>
<text text-anchor="middle" x="389.5" y="-144.5" font-family="Helvetica,sans-Serif" font-size="10.00">EliminateComplements</text>
</a>
</g>
</g>
<!-- Node11&#45;&gt;Node13 -->
<g id="edge15" class="edge"><title>Node11&#45;&gt;Node13</title>
<path fill="none" stroke="midnightblue" d="M276.389,-167.702C292.402,-165.53 309.528,-163.208 325.453,-161.049"/>
<polygon fill="midnightblue" stroke="midnightblue" points="275.489,-164.291 266.05,-169.103 276.43,-171.228 275.489,-164.291"/>
</g>
<!-- Node15 -->
<g id="node15" class="node"><title>Node15</title>
<g id="a_node15"><a xlink:href="classscram_1_1core_1_1zbdd_1_1CutSetContainer.xhtml#a1648d3f24a95302fac2a40e95f743dda" target="_top" xlink:title="Minimizes cut sets in the container. ">
<polygon fill="white" stroke="black" points="317.5,-186.5 317.5,-216.5 461.5,-216.5 461.5,-186.5 317.5,-186.5"/>
<text text-anchor="start" x="325.5" y="-204.5" font-family="Helvetica,sans-Serif" font-size="10.00">scram::core::zbdd::</text>
<text text-anchor="middle" x="389.5" y="-193.5" font-family="Helvetica,sans-Serif" font-size="10.00">CutSetContainer::Minimize</text>
</a>
</g>
</g>
<!-- Node11&#45;&gt;Node15 -->
<g id="edge20" class="edge"><title>Node11&#45;&gt;Node15</title>
<path fill="none" stroke="midnightblue" d="M276.154,-185.632C289.598,-187.531 303.836,-189.542 317.495,-191.471"/>
<polygon fill="midnightblue" stroke="midnightblue" points="276.441,-182.138 266.05,-184.205 275.462,-189.069 276.441,-182.138"/>
</g>
<!-- Node13&#45;&gt;Node7 -->
<g id="edge16" class="edge"><title>Node13&#45;&gt;Node7</title>
<path fill="none" stroke="midnightblue" d="M463.334,-170.989C468.013,-172.703 472.606,-174.54 477,-176.5 514.186,-193.088 553.396,-221.219 572.734,-235.914"/>
<polygon fill="midnightblue" stroke="midnightblue" points="464.238,-167.599 453.644,-167.642 461.953,-174.215 464.238,-167.599"/>
</g>
<!-- Node14 -->
<g id="node14" class="node"><title>Node14</title>
<g id="a_node14"><a xlink:href="classscram_1_1core_1_1zbdd_1_1CutSetContainer.xhtml#a49532388bd9b917f4351f94f728518aa" target="_top" xlink:title="Eliminates all complements from cut sets. ">
<polygon fill="white" stroke="black" points="513,-132 513,-173 659,-173 659,-132 513,-132"/>
<text text-anchor="start" x="521" y="-161" font-family="Helvetica,sans-Serif" font-size="10.00">scram::core::zbdd::</text>
<text text-anchor="start" x="521" y="-150" font-family="Helvetica,sans-Serif" font-size="10.00">CutSetContainer::Eliminate</text>
<text text-anchor="middle" x="586" y="-139" font-family="Helvetica,sans-Serif" font-size="10.00">Complements</text>
</a>
</g>
</g>
<!-- Node13&#45;&gt;Node14 -->
<g id="edge17" class="edge"><title>Node13&#45;&gt;Node14</title>
<path fill="none" stroke="midnightblue" d="M463.984,-152.5C479.94,-152.5 496.806,-152.5 512.716,-152.5"/>
<polygon fill="midnightblue" stroke="midnightblue" points="463.649,-149 453.649,-152.5 463.649,-156 463.649,-149"/>
</g>
</g>
</svg>
        <g id="navigator" transform="translate(0 0)" fill="#404254">
                <rect fill="#f2f5e9" fill-opacity="0.5" stroke="#606060" stroke-width=".5" x="0" y="0" width="60" height="60"/>
                <use id="zoomplus" xlink:href="#zoomPlus" x="17" y="9" onmousedown="handleZoom(evt,'in')"/>
                <use id="zoomminus" xlink:href="#zoomMin" x="42" y="9" onmousedown="handleZoom(evt,'out')"/>
                <use id="reset" xlink:href="#resetDef" x="30" y="36" onmousedown="handleReset()"/>
                <g id="arrowUp" xlink:href="#dirArrow" transform="translate(30 24)" onmousedown="handlePan(0,-1)">
                  <use xlink:href="#rim" fill="#404040">
                        <set attributeName="fill" to="#808080" begin="arrowUp.mouseover" end="arrowUp.mouseout"/>
                  </use>
                  <path fill="none" stroke="white" stroke-width="1.5" d="M0,-3.0v7 M-2.5,-0.5L0,-3.0L2.5,-0.5"/>
                </g>
                <g id="arrowRight" xlink:href="#dirArrow" transform="rotate(90) translate(36 -43)" onmousedown="handlePan(1,0)">
                  <use xlink:href="#rim" fill="#404040">
                        <set attributeName="fill" to="#808080" begin="arrowRight.mouseover" end="arrowRight.mouseout"/>
                  </use>
                  <path fill="none" stroke="white" stroke-width="1.5" d="M0,-3.0v7 M-2.5,-0.5L0,-3.0L2.5,-0.5"/>
                </g>
                <g id="arrowDown" xlink:href="#dirArrow" transform="rotate(180) translate(-30 -48)" onmousedown="handlePan(0,1)">
                  <use xlink:href="#rim" fill="#404040">
                        <set attributeName="fill" to="#808080" begin="arrowDown.mouseover" end="arrowDown.mouseout"/>
                  </use>
                  <path fill="none" stroke="white" stroke-width="1.5" d="M0,-3.0v7 M-2.5,-0.5L0,-3.0L2.5,-0.5"/>
                </g>
                <g id="arrowLeft" xlink:href="#dirArrow" transform="rotate(270) translate(-36 17)" onmousedown="handlePan(-1,0)">
                  <use xlink:href="#rim" fill="#404040">
                        <set attributeName="fill" to="#808080" begin="arrowLeft.mouseover" end="arrowLeft.mouseout"/>
                  </use>
                  <path fill="none" stroke="white" stroke-width="1.5" d="M0,-3.0v7 M-2.5,-0.5L0,-3.0L2.5,-0.5"/>
                </g>
        </g>
        <svg viewBox="0 0 15 15" width="100%" height="30px" preserveAspectRatio="xMaxYMin meet">
         <g id="arrow_out" transform="scale(0.3 0.3)">
          <a xlink:href="classscram_1_1core_1_1Terminal_a7a25b0b40498f4876571a5dac4e724c3_icgraph_org.svg" target="_base">
           <rect id="button" ry="5" rx="5" y="6" x="6" height="38" width="38"
                fill="#f2f5e9" fill-opacity="0.5" stroke="#606060" stroke-width="1.0"/>
           <path id="arrow"
             d="M 11.500037,31.436501 C 11.940474,20.09759 22.043105,11.32322 32.158766,21.979434 L 37.068811,17.246167 C 37.068811,17.246167 37.088388,32 37.088388,32 L 22.160133,31.978069 C 22.160133,31.978069 26.997745,27.140456 26.997745,27.140456 C 18.528582,18.264221 13.291696,25.230495 11.500037,31.436501 z"
             style="fill:#404040;"/>
          </a>
         </g>
        </svg>
</svg>
