<?xml version="1.0" encoding="UTF-8" standalone="no"?>
<!DOCTYPE svg PUBLIC "-//W3C//DTD SVG 1.1//EN"
 "http://www.w3.org/Graphics/SVG/1.1/DTD/svg11.dtd">
<!-- Generated by graphviz version 2.38.0 (20140413.2041)
 -->
<!-- Title: scram::mef::Expression::interval Pages: 1 -->
<svg width="916pt" height="516pt"
 viewBox="0.00 0.00 916.00 515.50" xmlns="http://www.w3.org/2000/svg" xmlns:xlink="http://www.w3.org/1999/xlink">
<g id="graph0" class="graph" transform="scale(1 1) rotate(0) translate(4 511.5)">
<title>scram::mef::Expression::interval</title>
<polygon fill="white" stroke="none" points="-4,4 -4,-511.5 912,-511.5 912,4 -4,4"/>
<!-- Node1 -->
<g id="node1" class="node"><title>Node1</title>
<polygon fill="#bfbfbf" stroke="black" points="0,-227.5 0,-257.5 129,-257.5 129,-227.5 0,-227.5"/>
<text text-anchor="start" x="8" y="-245.5" font-family="Helvetica,sans-Serif" font-size="10.00">scram::mef::Expression</text>
<text text-anchor="middle" x="64.5" y="-234.5" font-family="Helvetica,sans-Serif" font-size="10.00">::interval</text>
</g>
<!-- Node2 -->
<g id="node2" class="node"><title>Node2</title>
<g id="a_node2"><a xlink:href="classscram_1_1mef_1_1NaryExpression_3_01T_00-1_01_4.xhtml#aad5811e7fc2298aaf486697e050774fa" target="_top" xlink:title="Computes the expression value with a given argument value extractor. ">
<polygon fill="white" stroke="black" points="375,-419.5 375,-449.5 527,-449.5 527,-419.5 375,-419.5"/>
<text text-anchor="start" x="383" y="-437.5" font-family="Helvetica,sans-Serif" font-size="10.00">scram::mef::NaryExpression</text>
<text text-anchor="middle" x="451" y="-426.5" font-family="Helvetica,sans-Serif" font-size="10.00">&lt; T,&#45;1 &gt;::Compute</text>
</a>
</g>
</g>
<!-- Node1&#45;&gt;Node2 -->
<g id="edge1" class="edge"><title>Node1&#45;&gt;Node2</title>
<path fill="none" stroke="midnightblue" d="M71.0219,-267.45C81.4853,-308.077 108.412,-387.497 165,-422.5 229.65,-462.489 319.237,-458.837 380.612,-449.502"/>
<polygon fill="midnightblue" stroke="midnightblue" points="74.3759,-266.431 68.6018,-257.548 67.576,-268.093 74.3759,-266.431"/>
</g>
<!-- Node3 -->
<g id="node3" class="node"><title>Node3</title>
<g id="a_node3"><a xlink:href="expression_8cc.xhtml#aac4a2edaf2210ace71f0d39e50a3738b" target="_top" xlink:title="Ensures the number of args for multivariate expressions. ">
<polygon fill="white" stroke="black" points="185,-196.5 185,-226.5 318,-226.5 318,-196.5 185,-196.5"/>
<text text-anchor="start" x="193" y="-214.5" font-family="Helvetica,sans-Serif" font-size="10.00">scram::mef::detail</text>
<text text-anchor="middle" x="251.5" y="-203.5" font-family="Helvetica,sans-Serif" font-size="10.00">::EnsureMultivariateArgs</text>
</a>
</g>
</g>
<!-- Node1&#45;&gt;Node3 -->
<g id="edge2" class="edge"><title>Node1&#45;&gt;Node3</title>
<path fill="none" stroke="midnightblue" d="M139.429,-230.112C154.438,-227.597 170.128,-224.968 184.828,-222.504"/>
<polygon fill="midnightblue" stroke="midnightblue" points="138.451,-226.727 129.167,-231.832 139.607,-233.631 138.451,-226.727"/>
</g>
<!-- Node4 -->
<g id="node4" class="node"><title>Node4</title>
<g id="a_node4"><a xlink:href="expression_8cc.xhtml#a262d38f7d6438e25ea34765b8d6a03eb" target="_top" xlink:title="Ensures that expression yields non&#45;negative (&gt;= 0) values. ">
<polygon fill="white" stroke="black" points="165,-320 165,-339 338,-339 338,-320 165,-320"/>
<text text-anchor="middle" x="251.5" y="-327" font-family="Helvetica,sans-Serif" font-size="10.00">scram::mef::EnsureNonNegative</text>
</a>
</g>
</g>
<!-- Node1&#45;&gt;Node4 -->
<g id="edge4" class="edge"><title>Node1&#45;&gt;Node4</title>
<path fill="none" stroke="midnightblue" d="M90.9085,-263.917C110.113,-279.056 137.743,-298.683 165,-310.5 173.789,-314.311 183.431,-317.396 192.972,-319.883"/>
<polygon fill="midnightblue" stroke="midnightblue" points="92.9516,-261.069 82.9648,-257.531 88.5658,-266.525 92.9516,-261.069"/>
</g>
<!-- Node11 -->
<g id="node11" class="node"><title>Node11</title>
<g id="a_node11"><a xlink:href="expression_8cc.xhtml#ab3b34a51ff3513ee93b109cd33ccdda6" target="_top" xlink:title="Ensures that expression yields positive (&gt; 0) values. ">
<polygon fill="white" stroke="black" points="178,-376 178,-395 325,-395 325,-376 178,-376"/>
<text text-anchor="middle" x="251.5" y="-383" font-family="Helvetica,sans-Serif" font-size="10.00">scram::mef::EnsurePositive</text>
</a>
</g>
</g>
<!-- Node1&#45;&gt;Node11 -->
<g id="edge13" class="edge"><title>Node1&#45;&gt;Node11</title>
<path fill="none" stroke="midnightblue" d="M78.2103,-266.785C94.4263,-295.269 125.206,-341.738 165,-366.5 171.197,-370.356 178.076,-373.434 185.163,-375.89"/>
<polygon fill="midnightblue" stroke="midnightblue" points="81.1819,-264.926 73.2773,-257.871 75.0573,-268.316 81.1819,-264.926"/>
</g>
<!-- Node12 -->
<g id="node12" class="node"><title>Node12</title>
<g id="a_node12"><a xlink:href="expression_8cc.xhtml#a287db91ea8f1c33cca483d75195bc2bc" target="_top" xlink:title="Ensures that expression can be used for probability ([0, 1]). ">
<polygon fill="white" stroke="black" points="171.5,-264 171.5,-283 331.5,-283 331.5,-264 171.5,-264"/>
<text text-anchor="middle" x="251.5" y="-271" font-family="Helvetica,sans-Serif" font-size="10.00">scram::mef::EnsureProbability</text>
</a>
</g>
</g>
<!-- Node1&#45;&gt;Node12 -->
<g id="edge20" class="edge"><title>Node1&#45;&gt;Node12</title>
<path fill="none" stroke="midnightblue" d="M139.106,-254.834C157.219,-257.869 176.341,-261.073 193.532,-263.954"/>
<polygon fill="midnightblue" stroke="midnightblue" points="139.607,-251.369 129.167,-253.168 138.451,-258.273 139.607,-251.369"/>
</g>
<!-- Node19 -->
<g id="node19" class="node"><title>Node19</title>
<g id="a_node19"><a xlink:href="expression_8cc.xhtml#aa5f8250f3fc162fc8c018bd57c877a0e" target="_top" xlink:title="Ensures that expression values are within the interval. ">
<polygon fill="white" stroke="black" points="182,-470 182,-489 321,-489 321,-470 182,-470"/>
<text text-anchor="middle" x="251.5" y="-477" font-family="Helvetica,sans-Serif" font-size="10.00">scram::mef::EnsureWithin</text>
</a>
</g>
</g>
<!-- Node1&#45;&gt;Node19 -->
<g id="edge31" class="edge"><title>Node1&#45;&gt;Node19</title>
<path fill="none" stroke="midnightblue" d="M70.1638,-267.775C79.7466,-312.447 105.922,-405.362 165,-455.5 172.406,-461.785 181.344,-466.43 190.613,-469.862"/>
<polygon fill="midnightblue" stroke="midnightblue" points="73.5492,-266.86 68.1226,-257.76 66.6902,-268.258 73.5492,-266.86"/>
</g>
<!-- Node20 -->
<g id="node20" class="node"><title>Node20</title>
<g id="a_node20"><a xlink:href="classscram_1_1mef_1_1Switch.xhtml#aece696754288dcbdbcda71355da80a19" target="_top" xlink:title="scram::mef::Switch\l::interval">
<polygon fill="white" stroke="black" points="197.5,-147.5 197.5,-177.5 305.5,-177.5 305.5,-147.5 197.5,-147.5"/>
<text text-anchor="start" x="205.5" y="-165.5" font-family="Helvetica,sans-Serif" font-size="10.00">scram::mef::Switch</text>
<text text-anchor="middle" x="251.5" y="-154.5" font-family="Helvetica,sans-Serif" font-size="10.00">::interval</text>
</a>
</g>
</g>
<!-- Node1&#45;&gt;Node20 -->
<g id="edge35" class="edge"><title>Node1&#45;&gt;Node20</title>
<path fill="none" stroke="midnightblue" d="M97.3925,-221.96C116.444,-210.358 141.448,-196.268 165,-186.5 175.254,-182.247 186.503,-178.489 197.376,-175.282"/>
<polygon fill="midnightblue" stroke="midnightblue" points="95.4853,-219.025 88.8184,-227.259 99.1651,-224.979 95.4853,-219.025"/>
</g>
<!-- Node21 -->
<g id="node21" class="node"><title>Node21</title>
<g id="a_node21"><a xlink:href="classscram_1_1mef_1_1LognormalDeviate.xhtml#a18f3499d5d98d1af462db56d07069997" target="_top" xlink:title="scram::mef::LognormalDeviate\l::value">
<polygon fill="white" stroke="black" points="169,-98.5 169,-128.5 334,-128.5 334,-98.5 169,-98.5"/>
<text text-anchor="start" x="177" y="-116.5" font-family="Helvetica,sans-Serif" font-size="10.00">scram::mef::LognormalDeviate</text>
<text text-anchor="middle" x="251.5" y="-105.5" font-family="Helvetica,sans-Serif" font-size="10.00">::value</text>
</a>
</g>
</g>
<!-- Node1&#45;&gt;Node21 -->
<g id="edge36" class="edge"><title>Node1&#45;&gt;Node21</title>
<path fill="none" stroke="midnightblue" d="M81.7738,-218.97C99.5392,-195.027 130.147,-158.533 165,-137.5 170.676,-134.075 176.858,-131.123 183.215,-128.582"/>
<polygon fill="midnightblue" stroke="midnightblue" points="78.8635,-217.022 75.8257,-227.172 84.5301,-221.131 78.8635,-217.022"/>
</g>
<!-- Node22 -->
<g id="node22" class="node"><title>Node22</title>
<g id="a_node22"><a xlink:href="classscram_1_1mef_1_1GammaDeviate.xhtml#aac9dd9e446203c28033a32385a68570c" target="_top" xlink:title="scram::mef::GammaDeviate\l::value">
<polygon fill="white" stroke="black" points="175,-49.5 175,-79.5 328,-79.5 328,-49.5 175,-49.5"/>
<text text-anchor="start" x="183" y="-67.5" font-family="Helvetica,sans-Serif" font-size="10.00">scram::mef::GammaDeviate</text>
<text text-anchor="middle" x="251.5" y="-56.5" font-family="Helvetica,sans-Serif" font-size="10.00">::value</text>
</a>
</g>
</g>
<!-- Node1&#45;&gt;Node22 -->
<g id="edge37" class="edge"><title>Node1&#45;&gt;Node22</title>
<path fill="none" stroke="midnightblue" d="M74.9724,-217.471C89.2353,-183.187 119.495,-122.057 165,-88.5 169.715,-85.0228 174.914,-82.0492 180.35,-79.5061"/>
<polygon fill="midnightblue" stroke="midnightblue" points="71.5479,-216.605 71.0603,-227.189 78.0415,-219.22 71.5479,-216.605"/>
</g>
<!-- Node23 -->
<g id="node23" class="node"><title>Node23</title>
<g id="a_node23"><a xlink:href="classscram_1_1mef_1_1BetaDeviate.xhtml#a23cf22ef291bb47601ddefd7640fe93a" target="_top" xlink:title="scram::mef::BetaDeviate\l::value">
<polygon fill="white" stroke="black" points="183,-0.5 183,-30.5 320,-30.5 320,-0.5 183,-0.5"/>
<text text-anchor="start" x="191" y="-18.5" font-family="Helvetica,sans-Serif" font-size="10.00">scram::mef::BetaDeviate</text>
<text text-anchor="middle" x="251.5" y="-7.5" font-family="Helvetica,sans-Serif" font-size="10.00">::value</text>
</a>
</g>
</g>
<!-- Node1&#45;&gt;Node23 -->
<g id="edge38" class="edge"><title>Node1&#45;&gt;Node23</title>
<path fill="none" stroke="midnightblue" d="M70.7428,-217.493C81.0648,-174.55 108.139,-86.8479 165,-39.5 170.331,-35.0605 176.43,-31.4402 182.862,-28.4882"/>
<polygon fill="midnightblue" stroke="midnightblue" points="67.296,-216.865 68.4716,-227.395 74.1188,-218.43 67.296,-216.865"/>
</g>
<!-- Node3&#45;&gt;Node3 -->
<g id="edge3" class="edge"><title>Node3&#45;&gt;Node3</title>
<path fill="none" stroke="midnightblue" d="M218.45,-236.958C222.552,-241.679 233.569,-245 251.5,-245 280.926,-245 291.731,-236.057 283.914,-226.659"/>
<polygon fill="midnightblue" stroke="midnightblue" points="221.963,-236.856 219.086,-226.659 214.976,-236.424 221.963,-236.856"/>
</g>
<!-- Node4&#45;&gt;Node2 -->
<g id="edge6" class="edge"><title>Node4&#45;&gt;Node2</title>
<path fill="none" stroke="midnightblue" d="M293.569,-342.673C308.415,-348.582 324.765,-356.506 338,-366.5 358.164,-381.726 353.082,-396.328 374,-410.5 379.04,-413.915 384.593,-416.865 390.333,-419.409"/>
<polygon fill="midnightblue" stroke="midnightblue" points="294.669,-339.348 284.078,-339.08 292.191,-345.894 294.669,-339.348"/>
</g>
<!-- Node4&#45;&gt;Node4 -->
<g id="edge7" class="edge"><title>Node4&#45;&gt;Node4</title>
<path fill="none" stroke="midnightblue" d="M216.643,-347.391C217.153,-353.041 228.772,-357.5 251.5,-357.5 284.559,-357.5 294.115,-348.065 280.168,-339.257"/>
<polygon fill="midnightblue" stroke="midnightblue" points="219.562,-349.335 222.832,-339.257 213.991,-345.096 219.562,-349.335"/>
</g>
<!-- Node5 -->
<g id="node5" class="node"><title>Node5</title>
<g id="a_node5"><a xlink:href="classscram_1_1mef_1_1Mean.xhtml#ab75b082938d5f6ed2b7bd2d45c3c850b" target="_top" xlink:title="Computes the expression value with a given argument value extractor. ">
<polygon fill="white" stroke="black" points="374,-469 374,-488 528,-488 528,-469 374,-469"/>
<text text-anchor="middle" x="451" y="-476" font-family="Helvetica,sans-Serif" font-size="10.00">scram::mef::Mean::Compute</text>
</a>
</g>
</g>
<!-- Node4&#45;&gt;Node5 -->
<g id="edge5" class="edge"><title>Node4&#45;&gt;Node5</title>
<path fill="none" stroke="midnightblue" d="M300.945,-342.738C314.309,-348.298 327.896,-355.993 338,-366.5 368.722,-398.447 340.773,-430.168 374,-459.5 378.384,-463.37 383.44,-466.477 388.818,-468.966"/>
<polygon fill="midnightblue" stroke="midnightblue" points="301.896,-339.355 291.305,-339.057 299.398,-345.894 301.896,-339.355"/>
</g>
<!-- Node6 -->
<g id="node6" class="node"><title>Node6</title>
<g id="a_node6"><a xlink:href="classscram_1_1mef_1_1PeriodicTest.xhtml#a546bf1c23ba3926f124de31d7b08b4c3" target="_top" xlink:title="Fully parametrized periodic&#45;test description. ">
<polygon fill="white" stroke="black" points="384,-321.5 384,-351.5 518,-351.5 518,-321.5 384,-321.5"/>
<text text-anchor="start" x="392" y="-339.5" font-family="Helvetica,sans-Serif" font-size="10.00">scram::mef::PeriodicTest</text>
<text text-anchor="middle" x="451" y="-328.5" font-family="Helvetica,sans-Serif" font-size="10.00">::PeriodicTest</text>
</a>
</g>
</g>
<!-- Node4&#45;&gt;Node6 -->
<g id="edge8" class="edge"><title>Node4&#45;&gt;Node6</title>
<path fill="none" stroke="midnightblue" d="M348.352,-332.897C360.396,-333.324 372.497,-333.753 383.939,-334.159"/>
<polygon fill="midnightblue" stroke="midnightblue" points="348.382,-329.396 338.265,-332.54 348.134,-336.392 348.382,-329.396"/>
</g>
<!-- Node7 -->
<g id="node7" class="node"><title>Node7</title>
<g id="a_node7"><a xlink:href="classscram_1_1mef_1_1Exponential.xhtml#a93569be7f366dce3dd25dcbb083ca774" target="_top" xlink:title="scram::mef::Exponential\l::Validate">
<polygon fill="white" stroke="black" points="384.5,-233.5 384.5,-263.5 517.5,-263.5 517.5,-233.5 384.5,-233.5"/>
<text text-anchor="start" x="392.5" y="-251.5" font-family="Helvetica,sans-Serif" font-size="10.00">scram::mef::Exponential</text>
<text text-anchor="middle" x="451" y="-240.5" font-family="Helvetica,sans-Serif" font-size="10.00">::Validate</text>
</a>
</g>
</g>
<!-- Node4&#45;&gt;Node7 -->
<g id="edge9" class="edge"><title>Node4&#45;&gt;Node7</title>
<path fill="none" stroke="midnightblue" d="M325.411,-316.429C329.774,-314.693 334.008,-312.727 338,-310.5 358.037,-299.322 354.542,-285.657 374,-273.5 380.125,-269.673 386.898,-266.369 393.803,-263.534"/>
<polygon fill="midnightblue" stroke="midnightblue" points="323.952,-313.233 315.696,-319.872 326.29,-319.831 323.952,-313.233"/>
</g>
<!-- Node9 -->
<g id="node9" class="node"><title>Node9</title>
<g id="a_node9"><a xlink:href="classscram_1_1mef_1_1Glm.xhtml#a48b4b735418eee27d2c4b81b9e59be85" target="_top" xlink:title="Validates the expression. ">
<polygon fill="white" stroke="black" points="380.5,-283 380.5,-302 521.5,-302 521.5,-283 380.5,-283"/>
<text text-anchor="middle" x="451" y="-290" font-family="Helvetica,sans-Serif" font-size="10.00">scram::mef::Glm::Validate</text>
</a>
</g>
</g>
<!-- Node4&#45;&gt;Node9 -->
<g id="edge11" class="edge"><title>Node4&#45;&gt;Node9</title>
<path fill="none" stroke="midnightblue" d="M313.247,-318.119C340.702,-312.976 372.782,-306.966 398.968,-302.06"/>
<polygon fill="midnightblue" stroke="midnightblue" points="312.546,-314.69 303.361,-319.972 313.835,-321.57 312.546,-314.69"/>
</g>
<!-- Node10 -->
<g id="node10" class="node"><title>Node10</title>
<g id="a_node10"><a xlink:href="classscram_1_1mef_1_1Weibull.xhtml#ad36688cf28ab24dd909832cd05aad328" target="_top" xlink:title="Validates the expression. ">
<polygon fill="white" stroke="black" points="396,-370.5 396,-400.5 506,-400.5 506,-370.5 396,-370.5"/>
<text text-anchor="start" x="404" y="-388.5" font-family="Helvetica,sans-Serif" font-size="10.00">scram::mef::Weibull</text>
<text text-anchor="middle" x="451" y="-377.5" font-family="Helvetica,sans-Serif" font-size="10.00">::Validate</text>
</a>
</g>
</g>
<!-- Node4&#45;&gt;Node10 -->
<g id="edge12" class="edge"><title>Node4&#45;&gt;Node10</title>
<path fill="none" stroke="midnightblue" d="M296.119,-341.868C325.806,-350.286 365.276,-361.477 396.809,-370.418"/>
<polygon fill="midnightblue" stroke="midnightblue" points="297.027,-338.487 286.451,-339.127 295.117,-345.222 297.027,-338.487"/>
</g>
<!-- Node8 -->
<g id="node8" class="node"><title>Node8</title>
<g id="a_node8"><a xlink:href="classscram_1_1mef_1_1PeriodicTest.xhtml#a0aa8dc4d62e8fc24194f0183bc533638" target="_top" xlink:title="scram::mef::PeriodicTest\l::interval">
<polygon fill="white" stroke="black" points="564,-233.5 564,-263.5 698,-263.5 698,-233.5 564,-233.5"/>
<text text-anchor="start" x="572" y="-251.5" font-family="Helvetica,sans-Serif" font-size="10.00">scram::mef::PeriodicTest</text>
<text text-anchor="middle" x="631" y="-240.5" font-family="Helvetica,sans-Serif" font-size="10.00">::interval</text>
</a>
</g>
</g>
<!-- Node7&#45;&gt;Node8 -->
<g id="edge10" class="edge"><title>Node7&#45;&gt;Node8</title>
<path fill="none" stroke="midnightblue" d="M527.529,-248.5C539.56,-248.5 551.927,-248.5 563.723,-248.5"/>
<polygon fill="midnightblue" stroke="midnightblue" points="527.522,-245 517.522,-248.5 527.522,-252 527.522,-245"/>
</g>
<!-- Node11&#45;&gt;Node2 -->
<g id="edge15" class="edge"><title>Node11&#45;&gt;Node2</title>
<path fill="none" stroke="midnightblue" d="M300.925,-397.514C327.611,-404.135 360.988,-412.416 389.392,-419.463"/>
<polygon fill="midnightblue" stroke="midnightblue" points="301.597,-394.075 291.049,-395.064 299.912,-400.869 301.597,-394.075"/>
</g>
<!-- Node11&#45;&gt;Node5 -->
<g id="edge14" class="edge"><title>Node11&#45;&gt;Node5</title>
<path fill="none" stroke="midnightblue" d="M273.42,-400.966C296.83,-417.605 336.418,-443.787 374,-459.5 382.909,-463.225 392.722,-466.345 402.253,-468.91"/>
<polygon fill="midnightblue" stroke="midnightblue" points="275.437,-398.106 265.278,-395.098 271.344,-403.784 275.437,-398.106"/>
</g>
<!-- Node11&#45;&gt;Node6 -->
<g id="edge17" class="edge"><title>Node11&#45;&gt;Node6</title>
<path fill="none" stroke="midnightblue" d="M307.43,-373.66C317.611,-371.362 328.141,-368.915 338,-366.5 356.868,-361.879 377.425,-356.479 395.718,-351.544"/>
<polygon fill="midnightblue" stroke="midnightblue" points="306.397,-370.305 297.402,-375.903 307.925,-377.136 306.397,-370.305"/>
</g>
<!-- Node11&#45;&gt;Node9 -->
<g id="edge18" class="edge"><title>Node11&#45;&gt;Node9</title>
<path fill="none" stroke="midnightblue" d="M328.8,-371.888C332.004,-370.283 335.089,-368.494 338,-366.5 361.794,-350.196 350.525,-329.261 374,-312.5 380.107,-308.14 387.098,-304.73 394.311,-302.063"/>
<polygon fill="midnightblue" stroke="midnightblue" points="327.27,-368.736 319.499,-375.937 330.065,-375.154 327.27,-368.736"/>
</g>
<!-- Node11&#45;&gt;Node10 -->
<g id="edge19" class="edge"><title>Node11&#45;&gt;Node10</title>
<path fill="none" stroke="midnightblue" d="M335.473,-385.5C355.931,-385.5 377.317,-385.5 395.995,-385.5"/>
<polygon fill="midnightblue" stroke="midnightblue" points="335.2,-382 325.2,-385.5 335.2,-389 335.2,-382"/>
</g>
<!-- Node11&#45;&gt;Node11 -->
<g id="edge16" class="edge"><title>Node11&#45;&gt;Node11</title>
<path fill="none" stroke="midnightblue" d="M216.643,-403.391C217.153,-409.041 228.772,-413.5 251.5,-413.5 284.559,-413.5 294.115,-404.065 280.168,-395.257"/>
<polygon fill="midnightblue" stroke="midnightblue" points="219.562,-405.335 222.832,-395.257 213.991,-401.096 219.562,-405.335"/>
</g>
<!-- Node12&#45;&gt;Node2 -->
<g id="edge21" class="edge"><title>Node12&#45;&gt;Node2</title>
<path fill="none" stroke="midnightblue" d="M301.461,-286.737C314.714,-292.282 328.111,-299.969 338,-310.5 370.335,-344.935 339.943,-377.768 374,-410.5 377.591,-413.952 381.676,-416.907 386.043,-419.438"/>
<polygon fill="midnightblue" stroke="midnightblue" points="302.479,-283.379 291.888,-283.068 299.973,-289.915 302.479,-283.379"/>
</g>
<!-- Node12&#45;&gt;Node6 -->
<g id="edge23" class="edge"><title>Node12&#45;&gt;Node6</title>
<path fill="none" stroke="midnightblue" d="M292.368,-286.218C324.267,-296.393 369.078,-310.687 402.772,-321.435"/>
<polygon fill="midnightblue" stroke="midnightblue" points="293.087,-282.773 282.496,-283.068 290.959,-289.442 293.087,-282.773"/>
</g>
<!-- Node12&#45;&gt;Node9 -->
<g id="edge24" class="edge"><title>Node12&#45;&gt;Node9</title>
<path fill="none" stroke="midnightblue" d="M341.959,-282.106C354.838,-283.345 367.93,-284.605 380.347,-285.799"/>
<polygon fill="midnightblue" stroke="midnightblue" points="341.982,-278.592 331.693,-281.119 341.312,-285.56 341.982,-278.592"/>
</g>
<!-- Node12&#45;&gt;Node12 -->
<g id="edge22" class="edge"><title>Node12&#45;&gt;Node12</title>
<path fill="none" stroke="midnightblue" d="M216.643,-291.391C217.153,-297.041 228.772,-301.5 251.5,-301.5 284.559,-301.5 294.115,-292.065 280.168,-283.257"/>
<polygon fill="midnightblue" stroke="midnightblue" points="219.562,-293.335 222.832,-283.257 213.991,-289.096 219.562,-293.335"/>
</g>
<!-- Node13 -->
<g id="node13" class="node"><title>Node13</title>
<g id="a_node13"><a xlink:href="classscram_1_1mef_1_1BasicEvent.xhtml#acfc0e73e1add67aa2ace841350eb62cd" target="_top" xlink:title="Validates the probability expressions for the primary event. ">
<polygon fill="white" stroke="black" points="386,-135.5 386,-165.5 516,-165.5 516,-135.5 386,-135.5"/>
<text text-anchor="start" x="394" y="-153.5" font-family="Helvetica,sans-Serif" font-size="10.00">scram::mef::BasicEvent</text>
<text text-anchor="middle" x="451" y="-142.5" font-family="Helvetica,sans-Serif" font-size="10.00">::Validate</text>
</a>
</g>
</g>
<!-- Node12&#45;&gt;Node13 -->
<g id="edge25" class="edge"><title>Node12&#45;&gt;Node13</title>
<path fill="none" stroke="midnightblue" d="M331.483,-259.129C333.755,-257.719 335.936,-256.18 338,-254.5 368.236,-229.883 344.866,-200.411 374,-174.5 377.826,-171.098 382.133,-168.178 386.703,-165.671"/>
<polygon fill="midnightblue" stroke="midnightblue" points="329.539,-256.197 322.316,-263.948 332.796,-262.392 329.539,-256.197"/>
</g>
<!-- Node18 -->
<g id="node18" class="node"><title>Node18</title>
<g id="a_node18"><a xlink:href="classscram_1_1mef_1_1CcfGroup.xhtml#a31cbe59ce89f295de7bb810d8b75990e" target="_top" xlink:title="Validates the setup for the CCF model and group. ">
<polygon fill="white" stroke="black" points="390,-184.5 390,-214.5 512,-214.5 512,-184.5 390,-184.5"/>
<text text-anchor="start" x="398" y="-202.5" font-family="Helvetica,sans-Serif" font-size="10.00">scram::mef::CcfGroup</text>
<text text-anchor="middle" x="451" y="-191.5" font-family="Helvetica,sans-Serif" font-size="10.00">::Validate</text>
</a>
</g>
</g>
<!-- Node12&#45;&gt;Node18 -->
<g id="edge30" class="edge"><title>Node12&#45;&gt;Node18</title>
<path fill="none" stroke="midnightblue" d="M322.406,-260.908C327.792,-259.054 333.053,-256.931 338,-254.5 356.693,-245.315 355.785,-234.6 374,-224.5 380.803,-220.728 388.266,-217.41 395.775,-214.528"/>
<polygon fill="midnightblue" stroke="midnightblue" points="321.12,-257.643 312.617,-263.964 323.206,-264.325 321.12,-257.643"/>
</g>
<!-- Node14 -->
<g id="node14" class="node"><title>Node14</title>
<g id="a_node14"><a xlink:href="classscram_1_1mef_1_1CcfGroup.xhtml#a06dd05cabcbeddf42090536f6a47a184" target="_top" xlink:title="scram::mef::CcfGroup\l::members">
<polygon fill="white" stroke="black" points="570,-135.5 570,-165.5 692,-165.5 692,-135.5 570,-135.5"/>
<text text-anchor="start" x="578" y="-153.5" font-family="Helvetica,sans-Serif" font-size="10.00">scram::mef::CcfGroup</text>
<text text-anchor="middle" x="631" y="-142.5" font-family="Helvetica,sans-Serif" font-size="10.00">::members</text>
</a>
</g>
</g>
<!-- Node13&#45;&gt;Node14 -->
<g id="edge26" class="edge"><title>Node13&#45;&gt;Node14</title>
<path fill="none" stroke="midnightblue" d="M526.428,-150.5C540.893,-150.5 555.886,-150.5 569.823,-150.5"/>
<polygon fill="midnightblue" stroke="midnightblue" points="526.011,-147 516.011,-150.5 526.011,-154 526.011,-147"/>
</g>
<!-- Node15 -->
<g id="node15" class="node"><title>Node15</title>
<g id="a_node15"><a xlink:href="classscram_1_1mef_1_1Component.xhtml#a4fd4a9b195b92c8061149da20f5bd3f0" target="_top" xlink:title="Adds MEF constructs into this component container. ">
<polygon fill="white" stroke="black" points="742,-185 742,-204 900,-204 900,-185 742,-185"/>
<text text-anchor="middle" x="821" y="-192" font-family="Helvetica,sans-Serif" font-size="10.00">scram::mef::Component::Add</text>
</a>
</g>
</g>
<!-- Node14&#45;&gt;Node15 -->
<g id="edge27" class="edge"><title>Node14&#45;&gt;Node15</title>
<path fill="none" stroke="midnightblue" d="M701.914,-166.976C712.658,-169.5 723.625,-172.073 734,-174.5 748.628,-177.922 764.659,-181.655 778.875,-184.959"/>
<polygon fill="midnightblue" stroke="midnightblue" points="702.667,-163.557 692.132,-164.676 701.065,-170.372 702.667,-163.557"/>
</g>
<!-- Node16 -->
<g id="node16" class="node"><title>Node16</title>
<g id="a_node16"><a xlink:href="classscram_1_1mef_1_1CcfGroup.xhtml#ab399c5ed0c1d7d0a316ac3b7244b7eb9" target="_top" xlink:title="Processes the given factors and members to create common cause failure probabilities and new events t...">
<polygon fill="white" stroke="black" points="760,-135.5 760,-165.5 882,-165.5 882,-135.5 760,-135.5"/>
<text text-anchor="start" x="768" y="-153.5" font-family="Helvetica,sans-Serif" font-size="10.00">scram::mef::CcfGroup</text>
<text text-anchor="middle" x="821" y="-142.5" font-family="Helvetica,sans-Serif" font-size="10.00">::ApplyModel</text>
</a>
</g>
</g>
<!-- Node14&#45;&gt;Node16 -->
<g id="edge28" class="edge"><title>Node14&#45;&gt;Node16</title>
<path fill="none" stroke="midnightblue" d="M702.097,-150.5C721.109,-150.5 741.519,-150.5 759.924,-150.5"/>
<polygon fill="midnightblue" stroke="midnightblue" points="702.001,-147 692.001,-150.5 702.001,-154 702.001,-147"/>
</g>
<!-- Node17 -->
<g id="node17" class="node"><title>Node17</title>
<g id="a_node17"><a xlink:href="reporter_8cc.xhtml#a73f9569f4c2e2b6a3eac8d2c01b81943" target="_top" xlink:title="Describes all performed analyses deduced from settings. ">
<polygon fill="white" stroke="black" points="734,-86.5 734,-116.5 908,-116.5 908,-86.5 734,-86.5"/>
<text text-anchor="start" x="742" y="-104.5" font-family="Helvetica,sans-Serif" font-size="10.00">scram::ReportCalculatedQuantity</text>
<text text-anchor="middle" x="821" y="-93.5" font-family="Helvetica,sans-Serif" font-size="10.00">&lt; core::RiskAnalysis &gt;</text>
</a>
</g>
</g>
<!-- Node14&#45;&gt;Node17 -->
<g id="edge29" class="edge"><title>Node14&#45;&gt;Node17</title>
<path fill="none" stroke="midnightblue" d="M699.614,-132.877C720.182,-127.516 742.584,-121.677 762.425,-116.506"/>
<polygon fill="midnightblue" stroke="midnightblue" points="698.478,-129.556 689.684,-135.465 700.243,-136.33 698.478,-129.556"/>
</g>
<!-- Node19&#45;&gt;Node2 -->
<g id="edge33" class="edge"><title>Node19&#45;&gt;Node2</title>
<path fill="none" stroke="midnightblue" d="M304.176,-467.726C328.609,-462.159 358.061,-455.448 384.081,-449.52"/>
<polygon fill="midnightblue" stroke="midnightblue" points="303.357,-464.322 294.385,-469.957 304.912,-471.148 303.357,-464.322"/>
</g>
<!-- Node19&#45;&gt;Node5 -->
<g id="edge32" class="edge"><title>Node19&#45;&gt;Node5</title>
<path fill="none" stroke="midnightblue" d="M331.144,-479.102C345.208,-479.031 359.84,-478.957 373.832,-478.886"/>
<polygon fill="midnightblue" stroke="midnightblue" points="331.004,-475.602 321.022,-479.153 331.039,-482.602 331.004,-475.602"/>
</g>
<!-- Node19&#45;&gt;Node19 -->
<g id="edge34" class="edge"><title>Node19&#45;&gt;Node19</title>
<path fill="none" stroke="midnightblue" d="M216.643,-497.391C217.153,-503.041 228.772,-507.5 251.5,-507.5 284.559,-507.5 294.115,-498.065 280.168,-489.257"/>
<polygon fill="midnightblue" stroke="midnightblue" points="219.562,-499.335 222.832,-489.257 213.991,-495.096 219.562,-499.335"/>
</g>
</g>
</svg>
