<?xml version="1.0" encoding="UTF-8" standalone="no"?>
<!DOCTYPE svg PUBLIC "-//W3C//DTD SVG 1.1//EN"
 "http://www.w3.org/Graphics/SVG/1.1/DTD/svg11.dtd">
<!-- Generated by graphviz version 2.38.0 (20140413.2041)
 -->
<!-- Title: scram::core::SetNode::minimal Pages: 1 -->
<!--zoomable 458 -->
<svg id="main" version="1.1" xmlns="http://www.w3.org/2000/svg" xmlns:xlink="http://www.w3.org/1999/xlink" xml:space="preserve" onload="init(evt)">
<style type="text/css"><![CDATA[
.edge:hover path { stroke: red; }
.edge:hover polygon { stroke: red; fill: red; }
]]></style>
<script type="text/javascript"><![CDATA[
var edges = document.getElementsByTagName('g');
if (edges && edges.length) {
  for (var i=0;i<edges.length;i++) {
    if (edges[i].id.substr(0,4)=='edge') {
      edges[i].setAttribute('class','edge');
    }
  }
}
]]></script>
        <defs>
                <circle id="rim" cx="0" cy="0" r="7"/>
                <circle id="rim2" cx="0" cy="0" r="3.5"/>
                <g id="zoomPlus">
                        <use xlink:href="#rim" fill="#404040">
                                <set attributeName="fill" to="#808080" begin="zoomplus.mouseover" end="zoomplus.mouseout"/>
                        </use>
                        <path d="M-4,0h8M0,-4v8" fill="none" stroke="white" stroke-width="1.5" pointer-events="none"/>
                </g>
                <g id="zoomMin">
                        <use xlink:href="#rim" fill="#404040">
                                <set attributeName="fill" to="#808080" begin="zoomminus.mouseover" end="zoomminus.mouseout"/>
                        </use>
                        <path d="M-4,0h8" fill="none" stroke="white" stroke-width="1.5" pointer-events="none"/>
                </g>
                <g id="dirArrow">
                        <path fill="none" stroke="white" stroke-width="1.5" d="M0,-3.0v7 M-2.5,-0.5L0,-3.0L2.5,-0.5"/>
                </g>
               <g id="resetDef">
                       <use xlink:href="#rim2" fill="#404040">
                               <set attributeName="fill" to="#808080" begin="reset.mouseover" end="reset.mouseout"/>
                       </use>
               </g>
        </defs>

<script type="text/javascript">
var viewWidth = 869;
var viewHeight = 458;
var sectionId = 'dynsection-1';
</script>
<script xlink:href="svgpan.js"/>
<svg id="graph" class="graph">
<g id="viewport">
<title>scram::core::SetNode::minimal</title>
<polygon fill="white" stroke="none" points="-4,4 -4,-453.568 865,-453.568 865,4 -4,4"/>
<!-- Node1 -->
<g id="node1" class="node"><title>Node1</title>
<polygon fill="#bfbfbf" stroke="black" points="0,-262.5 0,-292.5 122,-292.5 122,-262.5 0,-262.5"/>
<text text-anchor="start" x="8" y="-280.5" font-family="Helvetica,sans-Serif" font-size="10.00">scram::core::SetNode</text>
<text text-anchor="middle" x="61" y="-269.5" font-family="Helvetica,sans-Serif" font-size="10.00">::minimal</text>
</g>
<!-- Node2 -->
<g id="node2" class="node"><title>Node2</title>
<g id="a_node2"><a xlink:href="classscram_1_1core_1_1Zbdd.xhtml#aac27b9279de1ee1a63822896daeca0c7" target="_top" xlink:title="Runs the analysis with the representation of a PDAG as ZBDD. ">
<polygon fill="white" stroke="black" points="533.5,-399.5 533.5,-429.5 644.5,-429.5 644.5,-399.5 533.5,-399.5"/>
<text text-anchor="start" x="541.5" y="-417.5" font-family="Helvetica,sans-Serif" font-size="10.00">scram::core::Zbdd::</text>
<text text-anchor="middle" x="589" y="-406.5" font-family="Helvetica,sans-Serif" font-size="10.00">Analyze</text>
</a>
</g>
</g>
<!-- Node1&#45;&gt;Node2 -->
<g id="edge1" class="edge"><title>Node1&#45;&gt;Node2</title>
<path fill="none" stroke="midnightblue" d="M83.9143,-299.845C123.622,-338.397 212.009,-415.576 305,-439.5 383.578,-459.716 478.024,-443.629 535.499,-429.546"/>
<polygon fill="midnightblue" stroke="midnightblue" points="86.216,-297.2 76.6349,-292.677 81.3045,-302.187 86.216,-297.2"/>
</g>
<!-- Node4 -->
<g id="node4" class="node"><title>Node4</title>
<g id="a_node4"><a xlink:href="classscram_1_1core_1_1Zbdd.xhtml#a8cfceb8301f35bce33c34f1283f33725" target="_top" xlink:title="Applies non&#45;declarative substitutions at the end of analysis. ">
<polygon fill="white" stroke="black" points="337,-399.5 337,-429.5 448,-429.5 448,-399.5 337,-399.5"/>
<text text-anchor="start" x="345" y="-417.5" font-family="Helvetica,sans-Serif" font-size="10.00">scram::core::Zbdd::</text>
<text text-anchor="middle" x="392.5" y="-406.5" font-family="Helvetica,sans-Serif" font-size="10.00">ApplySubstitutions</text>
</a>
</g>
</g>
<!-- Node1&#45;&gt;Node4 -->
<g id="edge3" class="edge"><title>Node1&#45;&gt;Node4</title>
<path fill="none" stroke="midnightblue" d="M103.01,-296.775C150.977,-319.035 233.001,-356.216 305,-384.5 318.167,-389.672 332.634,-394.874 345.905,-399.46"/>
<polygon fill="midnightblue" stroke="midnightblue" points="104.427,-293.574 93.8835,-292.529 101.474,-299.921 104.427,-293.574"/>
</g>
<!-- Node5 -->
<g id="node5" class="node"><title>Node5</title>
<g id="a_node5"><a xlink:href="classscram_1_1core_1_1Zbdd.xhtml#a4ecbf60e6ac51e5260e8d8139c1b8599" target="_top" xlink:title="Joins a ZBDD representing a module gate. ">
<polygon fill="white" stroke="black" points="158,-38.5 158,-68.5 269,-68.5 269,-38.5 158,-38.5"/>
<text text-anchor="start" x="166" y="-56.5" font-family="Helvetica,sans-Serif" font-size="10.00">scram::core::Zbdd::</text>
<text text-anchor="middle" x="213.5" y="-45.5" font-family="Helvetica,sans-Serif" font-size="10.00">JoinModule</text>
</a>
</g>
</g>
<!-- Node1&#45;&gt;Node5 -->
<g id="edge5" class="edge"><title>Node1&#45;&gt;Node5</title>
<path fill="none" stroke="midnightblue" d="M68.9694,-252.58C81.2092,-212.645 109.934,-133.712 158,-83.5 163.601,-77.6484 170.599,-72.6506 177.693,-68.5085"/>
<polygon fill="midnightblue" stroke="midnightblue" points="65.5735,-251.721 66.0809,-262.303 72.2837,-253.714 65.5735,-251.721"/>
</g>
<!-- Node6 -->
<g id="node6" class="node"><title>Node6</title>
<g id="a_node6"><a xlink:href="classscram_1_1core_1_1Zbdd.xhtml#af92e04ed908364e0177ce444d7b72712" target="_top" xlink:title="The common constructor to initialize member variables. ">
<polygon fill="white" stroke="black" points="520.5,-121 520.5,-140 657.5,-140 657.5,-121 520.5,-121"/>
<text text-anchor="middle" x="589" y="-128" font-family="Helvetica,sans-Serif" font-size="10.00">scram::core::Zbdd::Zbdd</text>
</a>
</g>
</g>
<!-- Node1&#45;&gt;Node6 -->
<g id="edge20" class="edge"><title>Node1&#45;&gt;Node6</title>
<path fill="none" stroke="midnightblue" d="M84.7346,-255.39C125.071,-217.889 213.556,-143.187 305,-115.5 390.703,-89.5511 497.585,-108.08 552.214,-120.96"/>
<polygon fill="midnightblue" stroke="midnightblue" points="82.2037,-252.966 77.3228,-262.37 87.0025,-258.062 82.2037,-252.966"/>
</g>
<!-- Node8 -->
<g id="node8" class="node"><title>Node8</title>
<g id="a_node8"><a xlink:href="classscram_1_1core_1_1Zbdd.xhtml#a3dbb8ef5da2882daf6c39e9724eae459" target="_top" xlink:title="Removes subsets in ZBDD. ">
<polygon fill="white" stroke="black" points="158,-262.5 158,-292.5 269,-292.5 269,-262.5 158,-262.5"/>
<text text-anchor="start" x="166" y="-280.5" font-family="Helvetica,sans-Serif" font-size="10.00">scram::core::Zbdd::</text>
<text text-anchor="middle" x="213.5" y="-269.5" font-family="Helvetica,sans-Serif" font-size="10.00">Minimize</text>
</a>
</g>
</g>
<!-- Node1&#45;&gt;Node8 -->
<g id="edge8" class="edge"><title>Node1&#45;&gt;Node8</title>
<path fill="none" stroke="midnightblue" d="M132.376,-277.5C140.976,-277.5 149.661,-277.5 157.98,-277.5"/>
<polygon fill="midnightblue" stroke="midnightblue" points="132.347,-274 122.347,-277.5 132.347,-281 132.347,-274"/>
</g>
<!-- Node3 -->
<g id="node3" class="node"><title>Node3</title>
<g id="a_node3"><a xlink:href="classscram_1_1core_1_1FaultTreeAnalyzer.xhtml#aedae0c884539dab245018194771f5021" target="_top" xlink:title="scram::core::FaultTreeAnalyzer\l::algorithm">
<polygon fill="white" stroke="black" points="698,-399.5 698,-429.5 861,-429.5 861,-399.5 698,-399.5"/>
<text text-anchor="start" x="706" y="-417.5" font-family="Helvetica,sans-Serif" font-size="10.00">scram::core::FaultTreeAnalyzer</text>
<text text-anchor="middle" x="779.5" y="-406.5" font-family="Helvetica,sans-Serif" font-size="10.00">::algorithm</text>
</a>
</g>
</g>
<!-- Node2&#45;&gt;Node3 -->
<g id="edge2" class="edge"><title>Node2&#45;&gt;Node3</title>
<path fill="none" stroke="midnightblue" d="M654.887,-414.5C668.71,-414.5 683.469,-414.5 697.801,-414.5"/>
<polygon fill="midnightblue" stroke="midnightblue" points="654.522,-411 644.522,-414.5 654.522,-418 654.522,-411"/>
</g>
<!-- Node4&#45;&gt;Node2 -->
<g id="edge4" class="edge"><title>Node4&#45;&gt;Node2</title>
<path fill="none" stroke="midnightblue" d="M458.41,-414.5C482.726,-414.5 510.085,-414.5 533.377,-414.5"/>
<polygon fill="midnightblue" stroke="midnightblue" points="458.197,-411 448.197,-414.5 458.197,-418 458.197,-411"/>
</g>
<!-- Node5&#45;&gt;Node6 -->
<g id="edge6" class="edge"><title>Node5&#45;&gt;Node6</title>
<path fill="none" stroke="midnightblue" d="M279.218,-55.4416C333.601,-58.3417 412.96,-65.5589 480,-83.5 513.186,-92.3811 549.327,-109.847 570.253,-120.805"/>
<polygon fill="midnightblue" stroke="midnightblue" points="279.186,-51.9357 269.024,-54.9329 278.837,-58.927 279.186,-51.9357"/>
</g>
<!-- Node7 -->
<g id="node7" class="node"><title>Node7</title>
<g id="a_node7"><a xlink:href="classscram_1_1core_1_1zbdd_1_1CutSetContainer.xhtml#a478c89f64731781882b50ec55898900b" target="_top" xlink:title="Gathers all module indices in the cut sets. ">
<polygon fill="white" stroke="black" points="305,-0.5 305,-30.5 480,-30.5 480,-0.5 305,-0.5"/>
<text text-anchor="start" x="313" y="-18.5" font-family="Helvetica,sans-Serif" font-size="10.00">scram::core::zbdd::</text>
<text text-anchor="middle" x="392.5" y="-7.5" font-family="Helvetica,sans-Serif" font-size="10.00">CutSetContainer::GatherModules</text>
</a>
</g>
</g>
<!-- Node5&#45;&gt;Node7 -->
<g id="edge7" class="edge"><title>Node5&#45;&gt;Node7</title>
<path fill="none" stroke="midnightblue" d="M278.944,-39.6646C292.766,-36.6971 307.436,-33.5477 321.459,-30.5372"/>
<polygon fill="midnightblue" stroke="midnightblue" points="278.093,-36.2675 269.05,-41.7887 279.562,-43.1116 278.093,-36.2675"/>
</g>
<!-- Node8&#45;&gt;Node2 -->
<g id="edge9" class="edge"><title>Node8&#45;&gt;Node2</title>
<path fill="none" stroke="midnightblue" d="M243.614,-298.586C251.941,-304.835 260.941,-311.802 269,-318.5 285.692,-332.374 285.753,-341.468 305,-351.5 305.32,-351.667 450.982,-384.052 533.176,-402.318"/>
<polygon fill="midnightblue" stroke="midnightblue" points="245.685,-295.764 235.57,-292.612 241.511,-301.384 245.685,-295.764"/>
</g>
<!-- Node8&#45;&gt;Node4 -->
<g id="edge18" class="edge"><title>Node8&#45;&gt;Node4</title>
<path fill="none" stroke="midnightblue" d="M229.181,-301.442C245.101,-325.558 272.623,-362.288 305,-384.5 314.568,-391.064 325.713,-396.324 336.758,-400.49"/>
<polygon fill="midnightblue" stroke="midnightblue" points="232.019,-299.385 223.661,-292.874 226.134,-303.176 232.019,-299.385"/>
</g>
<!-- Node8&#45;&gt;Node6 -->
<g id="edge10" class="edge"><title>Node8&#45;&gt;Node6</title>
<path fill="none" stroke="midnightblue" d="M224.974,-252.619C238.684,-223.515 265.687,-176.518 305,-154.5 371.144,-117.455 459.917,-116.251 520.279,-121.198"/>
<polygon fill="midnightblue" stroke="midnightblue" points="221.619,-251.544 220.681,-262.097 227.995,-254.432 221.619,-251.544"/>
</g>
<!-- Node9 -->
<g id="node9" class="node"><title>Node9</title>
<g id="a_node9"><a xlink:href="classscram_1_1core_1_1Zbdd.xhtml#a499a8bc4bc3854e7b2928c08515243cf" target="_top" xlink:title="Specialization of Apply for AND connective for non&#45;terminal ZBDD vertices. ">
<polygon fill="white" stroke="black" points="337,-311.5 337,-341.5 448,-341.5 448,-311.5 337,-311.5"/>
<text text-anchor="start" x="345" y="-329.5" font-family="Helvetica,sans-Serif" font-size="10.00">scram::core::Zbdd::</text>
<text text-anchor="middle" x="392.5" y="-318.5" font-family="Helvetica,sans-Serif" font-size="10.00">Apply</text>
</a>
</g>
</g>
<!-- Node8&#45;&gt;Node9 -->
<g id="edge11" class="edge"><title>Node8&#45;&gt;Node9</title>
<path fill="none" stroke="midnightblue" d="M278.875,-295.321C297.985,-300.612 318.721,-306.352 337.13,-311.448"/>
<polygon fill="midnightblue" stroke="midnightblue" points="279.621,-291.896 269.05,-292.601 277.754,-298.643 279.621,-291.896"/>
</g>
<!-- Node10 -->
<g id="node10" class="node"><title>Node10</title>
<g id="a_node10"><a xlink:href="classscram_1_1core_1_1Zbdd.xhtml#ac3ac27090b550d973b20bd971c3de9f9" target="_top" xlink:title="Removes complements of variables from products. ">
<polygon fill="white" stroke="black" points="328.5,-213.5 328.5,-243.5 456.5,-243.5 456.5,-213.5 328.5,-213.5"/>
<text text-anchor="start" x="336.5" y="-231.5" font-family="Helvetica,sans-Serif" font-size="10.00">scram::core::Zbdd::</text>
<text text-anchor="middle" x="392.5" y="-220.5" font-family="Helvetica,sans-Serif" font-size="10.00">EliminateComplements</text>
</a>
</g>
</g>
<!-- Node8&#45;&gt;Node10 -->
<g id="edge12" class="edge"><title>Node8&#45;&gt;Node10</title>
<path fill="none" stroke="midnightblue" d="M278.875,-259.679C297.985,-254.388 318.721,-248.648 337.13,-243.552"/>
<polygon fill="midnightblue" stroke="midnightblue" points="277.754,-256.357 269.05,-262.399 279.621,-263.104 277.754,-256.357"/>
</g>
<!-- Node12 -->
<g id="node12" class="node"><title>Node12</title>
<g id="a_node12"><a xlink:href="classscram_1_1core_1_1Zbdd.xhtml#aeb83fd37f2aee74ac41e6ccadba82d39" target="_top" xlink:title="Removes constant modules from products. ">
<polygon fill="white" stroke="black" points="320.5,-164.5 320.5,-194.5 464.5,-194.5 464.5,-164.5 320.5,-164.5"/>
<text text-anchor="start" x="328.5" y="-182.5" font-family="Helvetica,sans-Serif" font-size="10.00">scram::core::Zbdd::</text>
<text text-anchor="middle" x="392.5" y="-171.5" font-family="Helvetica,sans-Serif" font-size="10.00">EliminateConstantModules</text>
</a>
</g>
</g>
<!-- Node8&#45;&gt;Node12 -->
<g id="edge15" class="edge"><title>Node8&#45;&gt;Node12</title>
<path fill="none" stroke="midnightblue" d="M236.426,-255.106C253.676,-238.664 279.059,-216.941 305,-203.5 311.504,-200.13 318.535,-197.189 325.681,-194.632"/>
<polygon fill="midnightblue" stroke="midnightblue" points="233.823,-252.755 229.1,-262.239 238.706,-257.771 233.823,-252.755"/>
</g>
<!-- Node14 -->
<g id="node14" class="node"><title>Node14</title>
<g id="a_node14"><a xlink:href="classscram_1_1core_1_1zbdd_1_1CutSetContainer.xhtml#a1648d3f24a95302fac2a40e95f743dda" target="_top" xlink:title="Minimizes cut sets in the container. ">
<polygon fill="white" stroke="black" points="320.5,-262.5 320.5,-292.5 464.5,-292.5 464.5,-262.5 320.5,-262.5"/>
<text text-anchor="start" x="328.5" y="-280.5" font-family="Helvetica,sans-Serif" font-size="10.00">scram::core::zbdd::</text>
<text text-anchor="middle" x="392.5" y="-269.5" font-family="Helvetica,sans-Serif" font-size="10.00">CutSetContainer::Minimize</text>
</a>
</g>
</g>
<!-- Node8&#45;&gt;Node14 -->
<g id="edge19" class="edge"><title>Node8&#45;&gt;Node14</title>
<path fill="none" stroke="midnightblue" d="M279.154,-277.5C292.598,-277.5 306.836,-277.5 320.495,-277.5"/>
<polygon fill="midnightblue" stroke="midnightblue" points="279.05,-274 269.05,-277.5 279.05,-281 279.05,-274"/>
</g>
<!-- Node10&#45;&gt;Node6 -->
<g id="edge13" class="edge"><title>Node10&#45;&gt;Node6</title>
<path fill="none" stroke="midnightblue" d="M466.362,-211.687C471.17,-209.309 475.773,-206.595 480,-203.5 503.272,-186.458 492.531,-166.269 516,-149.5 521.47,-145.592 527.688,-142.487 534.125,-140.021"/>
<polygon fill="midnightblue" stroke="midnightblue" points="464.644,-208.62 456.909,-215.86 467.471,-215.024 464.644,-208.62"/>
</g>
<!-- Node11 -->
<g id="node11" class="node"><title>Node11</title>
<g id="a_node11"><a xlink:href="classscram_1_1core_1_1zbdd_1_1CutSetContainer.xhtml#a49532388bd9b917f4351f94f728518aa" target="_top" xlink:title="Eliminates all complements from cut sets. ">
<polygon fill="white" stroke="black" points="516,-219 516,-260 662,-260 662,-219 516,-219"/>
<text text-anchor="start" x="524" y="-248" font-family="Helvetica,sans-Serif" font-size="10.00">scram::core::zbdd::</text>
<text text-anchor="start" x="524" y="-237" font-family="Helvetica,sans-Serif" font-size="10.00">CutSetContainer::Eliminate</text>
<text text-anchor="middle" x="589" y="-226" font-family="Helvetica,sans-Serif" font-size="10.00">Complements</text>
</a>
</g>
</g>
<!-- Node10&#45;&gt;Node11 -->
<g id="edge14" class="edge"><title>Node10&#45;&gt;Node11</title>
<path fill="none" stroke="midnightblue" d="M466.984,-232.656C482.94,-233.558 499.806,-234.512 515.716,-235.412"/>
<polygon fill="midnightblue" stroke="midnightblue" points="466.83,-229.142 456.649,-232.071 466.435,-236.131 466.83,-229.142"/>
</g>
<!-- Node12&#45;&gt;Node6 -->
<g id="edge16" class="edge"><title>Node12&#45;&gt;Node6</title>
<path fill="none" stroke="midnightblue" d="M462.983,-161.995C492.364,-154.593 525.435,-146.262 550.18,-140.028"/>
<polygon fill="midnightblue" stroke="midnightblue" points="462.02,-158.628 453.178,-164.465 463.73,-165.416 462.02,-158.628"/>
</g>
<!-- Node13 -->
<g id="node13" class="node"><title>Node13</title>
<g id="a_node13"><a xlink:href="classscram_1_1core_1_1zbdd_1_1CutSetContainer.xhtml#a1022ad7a4699257a6f0c0809d8f1903d" target="_top" xlink:title="Removes constant modules from cut sets. ">
<polygon fill="white" stroke="black" points="516,-159 516,-200 662,-200 662,-159 516,-159"/>
<text text-anchor="start" x="524" y="-188" font-family="Helvetica,sans-Serif" font-size="10.00">scram::core::zbdd::</text>
<text text-anchor="start" x="524" y="-177" font-family="Helvetica,sans-Serif" font-size="10.00">CutSetContainer::Eliminate</text>
<text text-anchor="middle" x="589" y="-166" font-family="Helvetica,sans-Serif" font-size="10.00">ConstantModules</text>
</a>
</g>
</g>
<!-- Node12&#45;&gt;Node13 -->
<g id="edge17" class="edge"><title>Node12&#45;&gt;Node13</title>
<path fill="none" stroke="midnightblue" d="M474.848,-179.5C488.455,-179.5 502.488,-179.5 515.844,-179.5"/>
<polygon fill="midnightblue" stroke="midnightblue" points="474.545,-176 464.545,-179.5 474.545,-183 474.545,-176"/>
</g>
</g>
</svg>
        <g id="navigator" transform="translate(0 0)" fill="#404254">
                <rect fill="#f2f5e9" fill-opacity="0.5" stroke="#606060" stroke-width=".5" x="0" y="0" width="60" height="60"/>
                <use id="zoomplus" xlink:href="#zoomPlus" x="17" y="9" onmousedown="handleZoom(evt,'in')"/>
                <use id="zoomminus" xlink:href="#zoomMin" x="42" y="9" onmousedown="handleZoom(evt,'out')"/>
                <use id="reset" xlink:href="#resetDef" x="30" y="36" onmousedown="handleReset()"/>
                <g id="arrowUp" xlink:href="#dirArrow" transform="translate(30 24)" onmousedown="handlePan(0,-1)">
                  <use xlink:href="#rim" fill="#404040">
                        <set attributeName="fill" to="#808080" begin="arrowUp.mouseover" end="arrowUp.mouseout"/>
                  </use>
                  <path fill="none" stroke="white" stroke-width="1.5" d="M0,-3.0v7 M-2.5,-0.5L0,-3.0L2.5,-0.5"/>
                </g>
                <g id="arrowRight" xlink:href="#dirArrow" transform="rotate(90) translate(36 -43)" onmousedown="handlePan(1,0)">
                  <use xlink:href="#rim" fill="#404040">
                        <set attributeName="fill" to="#808080" begin="arrowRight.mouseover" end="arrowRight.mouseout"/>
                  </use>
                  <path fill="none" stroke="white" stroke-width="1.5" d="M0,-3.0v7 M-2.5,-0.5L0,-3.0L2.5,-0.5"/>
                </g>
                <g id="arrowDown" xlink:href="#dirArrow" transform="rotate(180) translate(-30 -48)" onmousedown="handlePan(0,1)">
                  <use xlink:href="#rim" fill="#404040">
                        <set attributeName="fill" to="#808080" begin="arrowDown.mouseover" end="arrowDown.mouseout"/>
                  </use>
                  <path fill="none" stroke="white" stroke-width="1.5" d="M0,-3.0v7 M-2.5,-0.5L0,-3.0L2.5,-0.5"/>
                </g>
                <g id="arrowLeft" xlink:href="#dirArrow" transform="rotate(270) translate(-36 17)" onmousedown="handlePan(-1,0)">
                  <use xlink:href="#rim" fill="#404040">
                        <set attributeName="fill" to="#808080" begin="arrowLeft.mouseover" end="arrowLeft.mouseout"/>
                  </use>
                  <path fill="none" stroke="white" stroke-width="1.5" d="M0,-3.0v7 M-2.5,-0.5L0,-3.0L2.5,-0.5"/>
                </g>
        </g>
        <svg viewBox="0 0 15 15" width="100%" height="30px" preserveAspectRatio="xMaxYMin meet">
         <g id="arrow_out" transform="scale(0.3 0.3)">
          <a xlink:href="classscram_1_1core_1_1SetNode_a88d05af2b9f4f08b7bc66a31c2b9e249_icgraph_org.svg" target="_base">
           <rect id="button" ry="5" rx="5" y="6" x="6" height="38" width="38"
                fill="#f2f5e9" fill-opacity="0.5" stroke="#606060" stroke-width="1.0"/>
           <path id="arrow"
             d="M 11.500037,31.436501 C 11.940474,20.09759 22.043105,11.32322 32.158766,21.979434 L 37.068811,17.246167 C 37.068811,17.246167 37.088388,32 37.088388,32 L 22.160133,31.978069 C 22.160133,31.978069 26.997745,27.140456 26.997745,27.140456 C 18.528582,18.264221 13.291696,25.230495 11.500037,31.436501 z"
             style="fill:#404040;"/>
          </a>
         </g>
        </svg>
</svg>
