<?xml version="1.0" encoding="UTF-8" standalone="no"?>
<!DOCTYPE svg PUBLIC "-//W3C//DTD SVG 1.1//EN"
 "http://www.w3.org/Graphics/SVG/1.1/DTD/svg11.dtd">
<!-- Generated by graphviz version 2.38.0 (20140413.2041)
 -->
<!-- Title: scram::mef::BasicEvent::Validate Pages: 1 -->
<svg width="506pt" height="127pt"
 viewBox="0.00 0.00 506.00 127.00" xmlns="http://www.w3.org/2000/svg" xmlns:xlink="http://www.w3.org/1999/xlink">
<g id="graph0" class="graph" transform="scale(1 1) rotate(0) translate(4 123)">
<title>scram::mef::BasicEvent::Validate</title>
<polygon fill="white" stroke="none" points="-4,4 -4,-123 502,-123 502,4 -4,4"/>
<!-- Node1 -->
<g id="node1" class="node"><title>Node1</title>
<polygon fill="#bfbfbf" stroke="black" points="0,-44.5 0,-74.5 130,-74.5 130,-44.5 0,-44.5"/>
<text text-anchor="start" x="8" y="-62.5" font-family="Helvetica,sans-Serif" font-size="10.00">scram::mef::BasicEvent</text>
<text text-anchor="middle" x="65" y="-51.5" font-family="Helvetica,sans-Serif" font-size="10.00">::Validate</text>
</g>
<!-- Node2 -->
<g id="node2" class="node"><title>Node2</title>
<g id="a_node2"><a xlink:href="classscram_1_1mef_1_1CcfGroup.xhtml#a06dd05cabcbeddf42090536f6a47a184" target="_top" xlink:title="scram::mef::CcfGroup\l::members">
<polygon fill="white" stroke="black" points="166,-44.5 166,-74.5 288,-74.5 288,-44.5 166,-44.5"/>
<text text-anchor="start" x="174" y="-62.5" font-family="Helvetica,sans-Serif" font-size="10.00">scram::mef::CcfGroup</text>
<text text-anchor="middle" x="227" y="-51.5" font-family="Helvetica,sans-Serif" font-size="10.00">::members</text>
</a>
</g>
</g>
<!-- Node1&#45;&gt;Node2 -->
<g id="edge1" class="edge"><title>Node1&#45;&gt;Node2</title>
<path fill="none" stroke="midnightblue" d="M140.222,-59.5C148.853,-59.5 157.574,-59.5 165.981,-59.5"/>
<polygon fill="midnightblue" stroke="midnightblue" points="140.156,-56.0001 130.156,-59.5 140.156,-63.0001 140.156,-56.0001"/>
</g>
<!-- Node3 -->
<g id="node3" class="node"><title>Node3</title>
<g id="a_node3"><a xlink:href="classscram_1_1mef_1_1CcfGroup.xhtml#ab399c5ed0c1d7d0a316ac3b7244b7eb9" target="_top" xlink:title="Processes the given factors and members to create common cause failure probabilities and new events t...">
<polygon fill="white" stroke="black" points="350,-88.5 350,-118.5 472,-118.5 472,-88.5 350,-88.5"/>
<text text-anchor="start" x="358" y="-106.5" font-family="Helvetica,sans-Serif" font-size="10.00">scram::mef::CcfGroup</text>
<text text-anchor="middle" x="411" y="-95.5" font-family="Helvetica,sans-Serif" font-size="10.00">::ApplyModel</text>
</a>
</g>
</g>
<!-- Node2&#45;&gt;Node3 -->
<g id="edge2" class="edge"><title>Node2&#45;&gt;Node3</title>
<path fill="none" stroke="midnightblue" d="M298.043,-76.4335C315.173,-80.5748 333.351,-84.9694 349.965,-88.9861"/>
<polygon fill="midnightblue" stroke="midnightblue" points="298.64,-72.9772 288.098,-74.0292 296.996,-79.7811 298.64,-72.9772"/>
</g>
<!-- Node4 -->
<g id="node4" class="node"><title>Node4</title>
<g id="a_node4"><a xlink:href="classscram_1_1mef_1_1Component.xhtml#a4fd4a9b195b92c8061149da20f5bd3f0" target="_top" xlink:title="Adds MEF constructs into this component container. ">
<polygon fill="white" stroke="black" points="332,-50 332,-69 490,-69 490,-50 332,-50"/>
<text text-anchor="middle" x="411" y="-57" font-family="Helvetica,sans-Serif" font-size="10.00">scram::mef::Component::Add</text>
</a>
</g>
</g>
<!-- Node2&#45;&gt;Node4 -->
<g id="edge3" class="edge"><title>Node2&#45;&gt;Node4</title>
<path fill="none" stroke="midnightblue" d="M298.426,-59.5C309.355,-59.5 320.701,-59.5 331.789,-59.5"/>
<polygon fill="midnightblue" stroke="midnightblue" points="298.098,-56.0001 288.098,-59.5 298.098,-63.0001 298.098,-56.0001"/>
</g>
<!-- Node5 -->
<g id="node5" class="node"><title>Node5</title>
<g id="a_node5"><a xlink:href="reporter_8cc.xhtml#a73f9569f4c2e2b6a3eac8d2c01b81943" target="_top" xlink:title="Describes all performed analyses deduced from settings. ">
<polygon fill="white" stroke="black" points="324,-0.5 324,-30.5 498,-30.5 498,-0.5 324,-0.5"/>
<text text-anchor="start" x="332" y="-18.5" font-family="Helvetica,sans-Serif" font-size="10.00">scram::ReportCalculatedQuantity</text>
<text text-anchor="middle" x="411" y="-7.5" font-family="Helvetica,sans-Serif" font-size="10.00">&lt; core::RiskAnalysis &gt;</text>
</a>
</g>
</g>
<!-- Node2&#45;&gt;Node5 -->
<g id="edge4" class="edge"><title>Node2&#45;&gt;Node5</title>
<path fill="none" stroke="midnightblue" d="M298.138,-42.5435C314.493,-38.5896 331.798,-34.4059 347.783,-30.5416"/>
<polygon fill="midnightblue" stroke="midnightblue" points="296.996,-39.2189 288.098,-44.9708 298.64,-46.0228 296.996,-39.2189"/>
</g>
</g>
</svg>
