<?xml version="1.0" encoding="UTF-8" standalone="no"?>
<!DOCTYPE svg PUBLIC "-//W3C//DTD SVG 1.1//EN"
 "http://www.w3.org/Graphics/SVG/1.1/DTD/svg11.dtd">
<!-- Generated by graphviz version 2.38.0 (20140413.2041)
 -->
<!-- Title: scram::mef::LognormalDeviate::value Pages: 1 -->
<svg width="503pt" height="223pt"
 viewBox="0.00 0.00 503.00 223.00" xmlns="http://www.w3.org/2000/svg" xmlns:xlink="http://www.w3.org/1999/xlink">
<g id="graph0" class="graph" transform="scale(1 1) rotate(0) translate(4 219)">
<title>scram::mef::LognormalDeviate::value</title>
<polygon fill="white" stroke="none" points="-4,4 -4,-219 499,-219 499,4 -4,4"/>
<!-- Node1 -->
<g id="node1" class="node"><title>Node1</title>
<polygon fill="#bfbfbf" stroke="black" points="0,-44.5 0,-74.5 165,-74.5 165,-44.5 0,-44.5"/>
<text text-anchor="start" x="8" y="-62.5" font-family="Helvetica,sans-Serif" font-size="10.00">scram::mef::LognormalDeviate</text>
<text text-anchor="middle" x="82.5" y="-51.5" font-family="Helvetica,sans-Serif" font-size="10.00">::value</text>
</g>
<!-- Node2 -->
<g id="node2" class="node"><title>Node2</title>
<g id="a_node2"><a xlink:href="classscram_1_1mef_1_1Expression.xhtml#a179b21e75df522673e6d51b784d10e86" target="_top" xlink:title="scram::mef::Expression\l::interval">
<polygon fill="white" stroke="black" points="201,-88.5 201,-118.5 330,-118.5 330,-88.5 201,-88.5"/>
<text text-anchor="start" x="209" y="-106.5" font-family="Helvetica,sans-Serif" font-size="10.00">scram::mef::Expression</text>
<text text-anchor="middle" x="265.5" y="-95.5" font-family="Helvetica,sans-Serif" font-size="10.00">::interval</text>
</a>
</g>
</g>
<!-- Node1&#45;&gt;Node2 -->
<g id="edge1" class="edge"><title>Node1&#45;&gt;Node2</title>
<path fill="none" stroke="midnightblue" d="M145.284,-74.5192C160.489,-78.2156 176.901,-82.2053 192.542,-86.0074"/>
<polygon fill="midnightblue" stroke="midnightblue" points="192.144,-89.5125 202.688,-88.4738 193.797,-82.7106 192.144,-89.5125"/>
</g>
<!-- Node6 -->
<g id="node6" class="node"><title>Node6</title>
<g id="a_node6"><a xlink:href="classscram_1_1mef_1_1Expression.xhtml#af4c1a5cb29e8f45623a99742b7ba8bc5" target="_top" xlink:title="scram::mef::Expression\l::value">
<polygon fill="white" stroke="black" points="366,-19.5 366,-49.5 495,-49.5 495,-19.5 366,-19.5"/>
<text text-anchor="start" x="374" y="-37.5" font-family="Helvetica,sans-Serif" font-size="10.00">scram::mef::Expression</text>
<text text-anchor="middle" x="430.5" y="-26.5" font-family="Helvetica,sans-Serif" font-size="10.00">::value</text>
</a>
</g>
</g>
<!-- Node1&#45;&gt;Node6 -->
<g id="edge9" class="edge"><title>Node1&#45;&gt;Node6</title>
<path fill="none" stroke="midnightblue" d="M165.059,-53.607C222.801,-49.4349 299.615,-43.8848 355.57,-39.8417"/>
<polygon fill="midnightblue" stroke="midnightblue" points="356.045,-43.3167 365.767,-39.105 355.54,-36.3349 356.045,-43.3167"/>
</g>
<!-- Node7 -->
<g id="node7" class="node"><title>Node7</title>
<g id="a_node7"><a xlink:href="classscram_1_1mef_1_1Expression.xhtml#af3e09d926b52f6077aa85c26454c4e18" target="_top" xlink:title="Validates the expression. ">
<polygon fill="white" stroke="black" points="201,-0.5 201,-30.5 330,-30.5 330,-0.5 201,-0.5"/>
<text text-anchor="start" x="209" y="-18.5" font-family="Helvetica,sans-Serif" font-size="10.00">scram::mef::Expression</text>
<text text-anchor="middle" x="265.5" y="-7.5" font-family="Helvetica,sans-Serif" font-size="10.00">::Validate</text>
</a>
</g>
</g>
<!-- Node1&#45;&gt;Node7 -->
<g id="edge7" class="edge"><title>Node1&#45;&gt;Node7</title>
<path fill="none" stroke="midnightblue" d="M145.284,-44.4808C160.489,-40.7844 176.901,-36.7947 192.542,-32.9926"/>
<polygon fill="midnightblue" stroke="midnightblue" points="193.797,-36.2894 202.688,-30.5262 192.144,-29.4875 193.797,-36.2894"/>
</g>
<!-- Node3 -->
<g id="node3" class="node"><title>Node3</title>
<g id="a_node3"><a xlink:href="classscram_1_1mef_1_1Expression.xhtml#a058aef65da884a47ea3345bc31488b7a" target="_top" xlink:title="Determines if the value of the expression contains deviate expressions. ">
<polygon fill="white" stroke="black" points="366,-166.5 366,-196.5 495,-196.5 495,-166.5 366,-166.5"/>
<text text-anchor="start" x="374" y="-184.5" font-family="Helvetica,sans-Serif" font-size="10.00">scram::mef::Expression</text>
<text text-anchor="middle" x="430.5" y="-173.5" font-family="Helvetica,sans-Serif" font-size="10.00">::IsDeviate</text>
</a>
</g>
</g>
<!-- Node2&#45;&gt;Node3 -->
<g id="edge2" class="edge"><title>Node2&#45;&gt;Node3</title>
<path fill="none" stroke="midnightblue" d="M292.193,-118.699C312,-130.106 340.266,-145.72 366,-157.5 369.797,-159.238 373.76,-160.955 377.77,-162.624"/>
<polygon fill="midnightblue" stroke="midnightblue" points="376.573,-165.915 387.156,-166.415 379.194,-159.424 376.573,-165.915"/>
</g>
<!-- Node4 -->
<g id="node4" class="node"><title>Node4</title>
<g id="a_node4"><a xlink:href="classscram_1_1mef_1_1Expression.xhtml#ab6d31c4ddb5d4a827727829cbd4e4449" target="_top" xlink:title="This routine resets the sampling to get new values. ">
<polygon fill="white" stroke="black" points="366,-117.5 366,-147.5 495,-147.5 495,-117.5 366,-117.5"/>
<text text-anchor="start" x="374" y="-135.5" font-family="Helvetica,sans-Serif" font-size="10.00">scram::mef::Expression</text>
<text text-anchor="middle" x="430.5" y="-124.5" font-family="Helvetica,sans-Serif" font-size="10.00">::Reset</text>
</a>
</g>
</g>
<!-- Node2&#45;&gt;Node4 -->
<g id="edge4" class="edge"><title>Node2&#45;&gt;Node4</title>
<path fill="none" stroke="midnightblue" d="M330.454,-114.878C338.852,-116.372 347.511,-117.913 356.05,-119.432"/>
<polygon fill="midnightblue" stroke="midnightblue" points="355.539,-122.896 365.998,-121.202 356.765,-116.004 355.539,-122.896"/>
</g>
<!-- Node5 -->
<g id="node5" class="node"><title>Node5</title>
<g id="a_node5"><a xlink:href="classscram_1_1mef_1_1Expression.xhtml#a5cf00d8b2ff843ad029a501a89ee572a" target="_top" xlink:title="scram::mef::Expression\l::Sample">
<polygon fill="white" stroke="black" points="366,-68.5 366,-98.5 495,-98.5 495,-68.5 366,-68.5"/>
<text text-anchor="start" x="374" y="-86.5" font-family="Helvetica,sans-Serif" font-size="10.00">scram::mef::Expression</text>
<text text-anchor="middle" x="430.5" y="-75.5" font-family="Helvetica,sans-Serif" font-size="10.00">::Sample</text>
</a>
</g>
</g>
<!-- Node2&#45;&gt;Node5 -->
<g id="edge5" class="edge"><title>Node2&#45;&gt;Node5</title>
<path fill="none" stroke="midnightblue" d="M330.454,-95.6529C338.852,-94.6225 347.511,-93.56 356.05,-92.5122"/>
<polygon fill="midnightblue" stroke="midnightblue" points="356.498,-95.9836 365.998,-91.2917 355.646,-89.0357 356.498,-95.9836"/>
</g>
<!-- Node2&#45;&gt;Node6 -->
<g id="edge6" class="edge"><title>Node2&#45;&gt;Node6</title>
<path fill="none" stroke="midnightblue" d="M298.538,-88.3875C317.93,-79.3965 343.233,-67.9397 366,-58.5 370.154,-56.7777 374.48,-55.0356 378.835,-53.3179"/>
<polygon fill="midnightblue" stroke="midnightblue" points="380.308,-56.5006 388.36,-49.6138 377.771,-49.9766 380.308,-56.5006"/>
</g>
<!-- Node3&#45;&gt;Node3 -->
<g id="edge3" class="edge"><title>Node3&#45;&gt;Node3</title>
<path fill="none" stroke="midnightblue" d="M401.92,-196.659C395.028,-206.057 404.555,-215 430.5,-215 446.31,-215 456.024,-211.679 459.641,-206.958"/>
<polygon fill="midnightblue" stroke="midnightblue" points="463.119,-206.454 459.08,-196.659 456.129,-206.834 463.119,-206.454"/>
</g>
<!-- Node7&#45;&gt;Node6 -->
<g id="edge8" class="edge"><title>Node7&#45;&gt;Node6</title>
<path fill="none" stroke="midnightblue" d="M330.454,-22.9548C338.852,-23.9337 347.511,-24.943 356.05,-25.9384"/>
<polygon fill="midnightblue" stroke="midnightblue" points="355.66,-29.4165 365.998,-27.0979 356.47,-22.4635 355.66,-29.4165"/>
</g>
</g>
</svg>
