<?xml version="1.0" encoding="UTF-8" standalone="no"?>
<!DOCTYPE svg PUBLIC "-//W3C//DTD SVG 1.1//EN"
 "http://www.w3.org/Graphics/SVG/1.1/DTD/svg11.dtd">
<!-- Generated by graphviz version 2.38.0 (20140413.2041)
 -->
<!-- Title: scram::mef::Role::role Pages: 1 -->
<!--zoomable 396 -->
<svg id="main" version="1.1" xmlns="http://www.w3.org/2000/svg" xmlns:xlink="http://www.w3.org/1999/xlink" xml:space="preserve" onload="init(evt)">
<style type="text/css"><![CDATA[
.edge:hover path { stroke: red; }
.edge:hover polygon { stroke: red; fill: red; }
]]></style>
<script type="text/javascript"><![CDATA[
var edges = document.getElementsByTagName('g');
if (edges && edges.length) {
  for (var i=0;i<edges.length;i++) {
    if (edges[i].id.substr(0,4)=='edge') {
      edges[i].setAttribute('class','edge');
    }
  }
}
]]></script>
        <defs>
                <circle id="rim" cx="0" cy="0" r="7"/>
                <circle id="rim2" cx="0" cy="0" r="3.5"/>
                <g id="zoomPlus">
                        <use xlink:href="#rim" fill="#404040">
                                <set attributeName="fill" to="#808080" begin="zoomplus.mouseover" end="zoomplus.mouseout"/>
                        </use>
                        <path d="M-4,0h8M0,-4v8" fill="none" stroke="white" stroke-width="1.5" pointer-events="none"/>
                </g>
                <g id="zoomMin">
                        <use xlink:href="#rim" fill="#404040">
                                <set attributeName="fill" to="#808080" begin="zoomminus.mouseover" end="zoomminus.mouseout"/>
                        </use>
                        <path d="M-4,0h8" fill="none" stroke="white" stroke-width="1.5" pointer-events="none"/>
                </g>
                <g id="dirArrow">
                        <path fill="none" stroke="white" stroke-width="1.5" d="M0,-3.0v7 M-2.5,-0.5L0,-3.0L2.5,-0.5"/>
                </g>
               <g id="resetDef">
                       <use xlink:href="#rim2" fill="#404040">
                               <set attributeName="fill" to="#808080" begin="reset.mouseover" end="reset.mouseout"/>
                       </use>
               </g>
        </defs>

<script type="text/javascript">
var viewWidth = 1063;
var viewHeight = 396;
var sectionId = 'dynsection-1';
</script>
<script xlink:href="svgpan.js"/>
<svg id="graph" class="graph">
<g id="viewport">
<title>scram::mef::Role::role</title>
<polygon fill="white" stroke="none" points="-4,4 -4,-392 1059,-392 1059,4 -4,4"/>
<!-- Node1 -->
<g id="node1" class="node"><title>Node1</title>
<polygon fill="#bfbfbf" stroke="black" points="0,-142.5 0,-161.5 121,-161.5 121,-142.5 0,-142.5"/>
<text text-anchor="middle" x="60.5" y="-149.5" font-family="Helvetica,sans-Serif" font-size="10.00">scram::mef::Role::role</text>
</g>
<!-- Node2 -->
<g id="node2" class="node"><title>Node2</title>
<g id="a_node2"><a xlink:href="classscram_1_1mef_1_1Initializer.xhtml#a969f088f20697a8a317cb7c998f034ad" target="_top" xlink:title="Specializations for elements defined after registration. ">
<polygon fill="white" stroke="black" points="936,-313 936,-343 1055,-343 1055,-313 936,-313"/>
<text text-anchor="start" x="944" y="-331" font-family="Helvetica,sans-Serif" font-size="10.00">scram::mef::Initializer</text>
<text text-anchor="middle" x="995.5" y="-320" font-family="Helvetica,sans-Serif" font-size="10.00">::Define</text>
</a>
</g>
</g>
<!-- Node1&#45;&gt;Node2 -->
<g id="edge1" class="edge"><title>Node1&#45;&gt;Node2</title>
<path fill="none" stroke="midnightblue" d="M75.6137,-169.297C121.74,-223.741 274.611,-388 440,-388 440,-388 440,-388 647.5,-388 752.808,-388 873.5,-360.836 941.197,-343.063"/>
<polygon fill="midnightblue" stroke="midnightblue" points="78.2369,-166.978 69.1415,-161.544 72.8631,-171.463 78.2369,-166.978"/>
</g>
<!-- Node3 -->
<g id="node3" class="node"><title>Node3</title>
<g id="a_node3"><a xlink:href="classscram_1_1mef_1_1Id.xhtml#a7e258c5f6332715d5ed6a3fdbf681a8b" target="_top" xlink:title="scram::mef::Id::id">
<polygon fill="white" stroke="black" points="187.5,-164.5 187.5,-183.5 287.5,-183.5 287.5,-164.5 187.5,-164.5"/>
<text text-anchor="middle" x="237.5" y="-171.5" font-family="Helvetica,sans-Serif" font-size="10.00">scram::mef::Id::id</text>
</a>
</g>
</g>
<!-- Node1&#45;&gt;Node3 -->
<g id="edge2" class="edge"><title>Node1&#45;&gt;Node3</title>
<path fill="none" stroke="midnightblue" d="M131.255,-160.769C150.082,-163.136 170.054,-165.647 187.482,-167.838"/>
<polygon fill="midnightblue" stroke="midnightblue" points="131.594,-157.284 121.236,-159.51 130.721,-164.23 131.594,-157.284"/>
</g>
<!-- Node14 -->
<g id="node14" class="node"><title>Node14</title>
<g id="a_node14"><a xlink:href="structscram_1_1mef_1_1Initializer_1_1Extractor_3_01T_00-1_01_4.xhtml#aed4438ca816e65ced748e4bc1f67a631" target="_top" xlink:title="Constructs an expression with a variable number of arguments. ">
<polygon fill="white" stroke="black" points="157,-115 157,-145 318,-145 318,-115 157,-115"/>
<text text-anchor="start" x="165" y="-133" font-family="Helvetica,sans-Serif" font-size="10.00">scram::mef::Initializer</text>
<text text-anchor="middle" x="237.5" y="-122" font-family="Helvetica,sans-Serif" font-size="10.00">::Extractor&lt; T,&#45;1 &gt;::operator()</text>
</a>
</g>
</g>
<!-- Node1&#45;&gt;Node14 -->
<g id="edge18" class="edge"><title>Node1&#45;&gt;Node14</title>
<path fill="none" stroke="midnightblue" d="M131.352,-143.219C139.757,-142.162 148.387,-141.077 156.917,-140.005"/>
<polygon fill="midnightblue" stroke="midnightblue" points="130.721,-139.77 121.236,-144.49 131.594,-146.716 130.721,-139.77"/>
</g>
<!-- Node15 -->
<g id="node15" class="node"><title>Node15</title>
<g id="a_node15"><a xlink:href="serialization_8cc.xhtml#a83f7058a5caad9ec3ffb5fd6c7d7b8f6" target="_top" xlink:title="Convenience function for serialization into a file. ">
<polygon fill="white" stroke="black" points="178.5,-58.5 178.5,-77.5 296.5,-77.5 296.5,-58.5 178.5,-58.5"/>
<text text-anchor="middle" x="237.5" y="-65.5" font-family="Helvetica,sans-Serif" font-size="10.00">scram::mef::Serialize</text>
</a>
</g>
</g>
<!-- Node1&#45;&gt;Node15 -->
<g id="edge19" class="edge"><title>Node1&#45;&gt;Node15</title>
<path fill="none" stroke="midnightblue" d="M89.8288,-137.857C108.789,-128.441 134.329,-115.853 157,-105 176.773,-95.5344 199.456,-85.0106 215.518,-77.614"/>
<polygon fill="midnightblue" stroke="midnightblue" points="88.2228,-134.747 80.828,-142.334 91.3403,-141.015 88.2228,-134.747"/>
</g>
<!-- Node4 -->
<g id="node4" class="node"><title>Node4</title>
<g id="a_node4"><a xlink:href="classscram_1_1mef_1_1Substitution.xhtml#a0a6da28d1514d7543d80e554e144df6f" target="_top" xlink:title="Adds a source event to the substitution container. ">
<polygon fill="white" stroke="black" points="361,-296.5 361,-315.5 521,-315.5 521,-296.5 361,-296.5"/>
<text text-anchor="middle" x="441" y="-303.5" font-family="Helvetica,sans-Serif" font-size="10.00">scram::mef::Substitution::Add</text>
</a>
</g>
</g>
<!-- Node3&#45;&gt;Node4 -->
<g id="edge3" class="edge"><title>Node3&#45;&gt;Node4</title>
<path fill="none" stroke="midnightblue" d="M256.614,-190.371C278.593,-209.724 317.279,-242.178 354,-265 374.089,-277.486 398.569,-288.816 416.266,-296.385"/>
<polygon fill="midnightblue" stroke="midnightblue" points="258.847,-187.672 249.048,-183.643 254.195,-192.903 258.847,-187.672"/>
</g>
<!-- Node7 -->
<g id="node7" class="node"><title>Node7</title>
<g id="a_node7"><a xlink:href="classscram_1_1mef_1_1Formula_1_1ArgSet.xhtml#adef52f323d9a5b26ceaa951d5b304bb7" target="_top" xlink:title="Adds an event into the arguments set. ">
<polygon fill="white" stroke="black" points="383,-225 383,-255 499,-255 499,-225 383,-225"/>
<text text-anchor="start" x="391" y="-243" font-family="Helvetica,sans-Serif" font-size="10.00">scram::mef::Formula</text>
<text text-anchor="middle" x="441" y="-232" font-family="Helvetica,sans-Serif" font-size="10.00">::ArgSet::Add</text>
</a>
</g>
</g>
<!-- Node3&#45;&gt;Node7 -->
<g id="edge9" class="edge"><title>Node3&#45;&gt;Node7</title>
<path fill="none" stroke="midnightblue" d="M277.629,-186.817C310.906,-197.716 358.744,-213.385 393.877,-224.893"/>
<polygon fill="midnightblue" stroke="midnightblue" points="278.393,-183.384 267.8,-183.597 276.214,-190.036 278.393,-183.384"/>
</g>
<!-- Node9 -->
<g id="node9" class="node"><title>Node9</title>
<g id="a_node9"><a xlink:href="classscram_1_1core_1_1EventTreeAnalysis.xhtml#a3e3404417cbdcf92474e5653ec24f936" target="_top" xlink:title="scram::core::EventTreeAnalysis\l::EventTreeAnalysis">
<polygon fill="white" stroke="black" points="564,-154 564,-184 729,-184 729,-154 564,-154"/>
<text text-anchor="start" x="572" y="-172" font-family="Helvetica,sans-Serif" font-size="10.00">scram::core::EventTreeAnalysis</text>
<text text-anchor="middle" x="646.5" y="-161" font-family="Helvetica,sans-Serif" font-size="10.00">::EventTreeAnalysis</text>
</a>
</g>
</g>
<!-- Node3&#45;&gt;Node9 -->
<g id="edge14" class="edge"><title>Node3&#45;&gt;Node9</title>
<path fill="none" stroke="midnightblue" d="M297.776,-175.223C315.827,-175.543 335.726,-175.842 354,-176 431.33,-176.669 450.701,-178.3 528,-176 539.643,-175.653 551.926,-175.114 563.988,-174.485"/>
<polygon fill="midnightblue" stroke="midnightblue" points="297.737,-171.722 287.674,-175.039 297.609,-178.721 297.737,-171.722"/>
</g>
<!-- Node10 -->
<g id="node10" class="node"><title>Node10</title>
<g id="a_node10"><a xlink:href="classscram_1_1mef_1_1Initializer.xhtml#aa6329e9c18a0ef61415f8c7cb6076265" target="_top" xlink:title="Specializations for elements defined after registration. ">
<polygon fill="white" stroke="black" points="381.5,-137 381.5,-167 500.5,-167 500.5,-137 381.5,-137"/>
<text text-anchor="start" x="389.5" y="-155" font-family="Helvetica,sans-Serif" font-size="10.00">scram::mef::Initializer</text>
<text text-anchor="middle" x="441" y="-144" font-family="Helvetica,sans-Serif" font-size="10.00">::Define</text>
</a>
</g>
</g>
<!-- Node3&#45;&gt;Node10 -->
<g id="edge13" class="edge"><title>Node3&#45;&gt;Node10</title>
<path fill="none" stroke="midnightblue" d="M297.773,-167.529C324.146,-164.649 355.114,-161.268 381.408,-158.397"/>
<polygon fill="midnightblue" stroke="midnightblue" points="297.096,-164.082 287.535,-168.646 297.856,-171.04 297.096,-164.082"/>
</g>
<!-- Node11 -->
<g id="node11" class="node"><title>Node11</title>
<g id="a_node11"><a xlink:href="reporter_8cc.xhtml#a73f9569f4c2e2b6a3eac8d2c01b81943" target="_top" xlink:title="Describes all performed analyses deduced from settings. ">
<polygon fill="white" stroke="black" points="354,-88 354,-118 528,-118 528,-88 354,-88"/>
<text text-anchor="start" x="362" y="-106" font-family="Helvetica,sans-Serif" font-size="10.00">scram::ReportCalculatedQuantity</text>
<text text-anchor="middle" x="441" y="-95" font-family="Helvetica,sans-Serif" font-size="10.00">&lt; core::RiskAnalysis &gt;</text>
</a>
</g>
</g>
<!-- Node3&#45;&gt;Node11 -->
<g id="edge15" class="edge"><title>Node3&#45;&gt;Node11</title>
<path fill="none" stroke="midnightblue" d="M297.53,-161.966C304.578,-159.712 311.553,-157.075 318,-154 336.052,-145.391 336.06,-135.84 354,-127 360.813,-123.643 368.169,-120.692 375.61,-118.114"/>
<polygon fill="midnightblue" stroke="midnightblue" points="296.515,-158.616 287.917,-164.807 298.499,-165.329 296.515,-158.616"/>
</g>
<!-- Node12 -->
<g id="node12" class="node"><title>Node12</title>
<g id="a_node12"><a xlink:href="classscram_1_1mef_1_1Formula.xhtml#a6a6ea9595613f23e0f19af5f96754683" target="_top" xlink:title="Swaps an argument event with another one. ">
<polygon fill="white" stroke="black" points="383,-39 383,-69 499,-69 499,-39 383,-39"/>
<text text-anchor="start" x="391" y="-57" font-family="Helvetica,sans-Serif" font-size="10.00">scram::mef::Formula</text>
<text text-anchor="middle" x="441" y="-46" font-family="Helvetica,sans-Serif" font-size="10.00">::Swap</text>
</a>
</g>
</g>
<!-- Node3&#45;&gt;Node12 -->
<g id="edge16" class="edge"><title>Node3&#45;&gt;Node12</title>
<path fill="none" stroke="midnightblue" d="M297.443,-165.535C304.871,-162.702 311.967,-158.953 318,-154 346.887,-130.283 325.42,-102.086 354,-78 362.297,-71.0074 372.487,-66.0445 382.914,-62.524"/>
<polygon fill="midnightblue" stroke="midnightblue" points="296.327,-162.217 287.913,-168.656 298.505,-168.87 296.327,-162.217"/>
</g>
<!-- Node13 -->
<g id="node13" class="node"><title>Node13</title>
<g id="a_node13"><a xlink:href="classscram_1_1mef_1_1Id.xhtml#a846997cebdf27bbff872fa87e7f1a9e2" target="_top" xlink:title="Produces unique name for the model element within the same type. ">
<polygon fill="white" stroke="black" points="362.5,-0.5 362.5,-19.5 519.5,-19.5 519.5,-0.5 362.5,-0.5"/>
<text text-anchor="middle" x="441" y="-7.5" font-family="Helvetica,sans-Serif" font-size="10.00">scram::mef::Id::unique_name</text>
</a>
</g>
</g>
<!-- Node3&#45;&gt;Node13 -->
<g id="edge17" class="edge"><title>Node3&#45;&gt;Node13</title>
<path fill="none" stroke="midnightblue" d="M297.122,-166.846C304.843,-163.841 312.107,-159.696 318,-154 359.569,-113.819 311.853,-68.5732 354,-29 358.013,-25.2321 362.598,-22.1482 367.515,-19.6304"/>
<polygon fill="midnightblue" stroke="midnightblue" points="295.961,-163.543 287.54,-169.972 298.132,-170.198 295.961,-163.543"/>
</g>
<!-- Node4&#45;&gt;Node2 -->
<g id="edge4" class="edge"><title>Node4&#45;&gt;Node2</title>
<path fill="none" stroke="midnightblue" d="M488.544,-317.841C511.154,-323 538.818,-328.446 564,-331 696.361,-344.422 852.787,-337.729 935.821,-332.404"/>
<polygon fill="midnightblue" stroke="midnightblue" points="489.073,-314.37 478.539,-315.502 487.48,-321.186 489.073,-314.37"/>
</g>
<!-- Node5 -->
<g id="node5" class="node"><title>Node5</title>
<g id="a_node5"><a xlink:href="classscram_1_1mef_1_1Substitution.xhtml#ad29f35247718d44ff8d6f9bd9bd41d9f" target="_top" xlink:title="scram::mef::Substitution\l::declarative">
<polygon fill="white" stroke="black" points="579,-291 579,-321 714,-321 714,-291 579,-291"/>
<text text-anchor="start" x="587" y="-309" font-family="Helvetica,sans-Serif" font-size="10.00">scram::mef::Substitution</text>
<text text-anchor="middle" x="646.5" y="-298" font-family="Helvetica,sans-Serif" font-size="10.00">::declarative</text>
</a>
</g>
</g>
<!-- Node4&#45;&gt;Node5 -->
<g id="edge5" class="edge"><title>Node4&#45;&gt;Node5</title>
<path fill="none" stroke="midnightblue" d="M531.639,-306C547.545,-306 563.852,-306 578.974,-306"/>
<polygon fill="midnightblue" stroke="midnightblue" points="531.261,-302.5 521.261,-306 531.261,-309.5 531.261,-302.5"/>
</g>
<!-- Node6 -->
<g id="node6" class="node"><title>Node6</title>
<g id="a_node6"><a xlink:href="classscram_1_1mef_1_1Substitution.xhtml#ab1859efddac529e0827537fae2f16cbb" target="_top" xlink:title="Checks if the substitution is setup correctly. ">
<polygon fill="white" stroke="black" points="765,-291 765,-321 900,-321 900,-291 765,-291"/>
<text text-anchor="start" x="773" y="-309" font-family="Helvetica,sans-Serif" font-size="10.00">scram::mef::Substitution</text>
<text text-anchor="middle" x="832.5" y="-298" font-family="Helvetica,sans-Serif" font-size="10.00">::Validate</text>
</a>
</g>
</g>
<!-- Node5&#45;&gt;Node6 -->
<g id="edge6" class="edge"><title>Node5&#45;&gt;Node6</title>
<path fill="none" stroke="midnightblue" d="M724.341,-299.332C737.757,-299.186 751.614,-299.235 764.73,-299.481"/>
<polygon fill="midnightblue" stroke="midnightblue" points="724.135,-295.835 714.188,-299.482 724.239,-302.834 724.135,-295.835"/>
</g>
<!-- Node6&#45;&gt;Node2 -->
<g id="edge7" class="edge"><title>Node6&#45;&gt;Node2</title>
<path fill="none" stroke="midnightblue" d="M910.365,-316.503C918.912,-317.671 927.514,-318.847 935.785,-319.977"/>
<polygon fill="midnightblue" stroke="midnightblue" points="910.762,-313.025 900.38,-315.139 909.814,-319.961 910.762,-313.025"/>
</g>
<!-- Node6&#45;&gt;Node5 -->
<g id="edge8" class="edge"><title>Node6&#45;&gt;Node5</title>
<path fill="none" stroke="midnightblue" d="M754.575,-312.669C741.158,-312.815 727.301,-312.764 714.188,-312.518"/>
<polygon fill="midnightblue" stroke="midnightblue" points="754.783,-316.166 764.73,-312.519 754.68,-309.167 754.783,-316.166"/>
</g>
<!-- Node7&#45;&gt;Node2 -->
<g id="edge11" class="edge"><title>Node7&#45;&gt;Node2</title>
<path fill="none" stroke="midnightblue" d="M509.535,-243.203C618.565,-248.875 828.383,-262.008 900,-282 924.956,-288.967 951.302,-302.358 969.818,-312.903"/>
<polygon fill="midnightblue" stroke="midnightblue" points="509.473,-239.695 499.307,-242.677 509.114,-246.686 509.473,-239.695"/>
</g>
<!-- Node8 -->
<g id="node8" class="node"><title>Node8</title>
<g id="a_node8"><a xlink:href="classscram_1_1core_1_1EventTreeAnalysis.xhtml#a070c68c0d67edb30c9bf57e226aaf88e" target="_top" xlink:title="Analyzes an event tree given the initiating event. ">
<polygon fill="white" stroke="black" points="564,-203 564,-233 729,-233 729,-203 564,-203"/>
<text text-anchor="start" x="572" y="-221" font-family="Helvetica,sans-Serif" font-size="10.00">scram::core::EventTreeAnalysis</text>
<text text-anchor="middle" x="646.5" y="-210" font-family="Helvetica,sans-Serif" font-size="10.00">::Analyze</text>
</a>
</g>
</g>
<!-- Node7&#45;&gt;Node8 -->
<g id="edge10" class="edge"><title>Node7&#45;&gt;Node8</title>
<path fill="none" stroke="midnightblue" d="M509.276,-232.727C526.673,-230.846 545.595,-228.801 563.647,-226.849"/>
<polygon fill="midnightblue" stroke="midnightblue" points="508.793,-229.259 499.228,-233.813 509.546,-236.218 508.793,-229.259"/>
</g>
<!-- Node7&#45;&gt;Node9 -->
<g id="edge12" class="edge"><title>Node7&#45;&gt;Node9</title>
<path fill="none" stroke="midnightblue" d="M497.869,-221.474C507.968,-217.853 518.351,-213.948 528,-210 544.376,-203.299 547.464,-199.296 564,-193 572.271,-189.851 581.142,-186.86 589.877,-184.125"/>
<polygon fill="midnightblue" stroke="midnightblue" points="496.57,-218.221 488.307,-224.851 498.902,-224.821 496.57,-218.221"/>
</g>
<!-- Node15&#45;&gt;Node15 -->
<g id="edge20" class="edge"><title>Node15&#45;&gt;Node15</title>
<path fill="none" stroke="midnightblue" d="M204.517,-85.8913C205,-91.5406 215.994,-96 237.5,-96 268.781,-96 277.823,-86.5653 264.627,-77.7571"/>
<polygon fill="midnightblue" stroke="midnightblue" points="207.371,-87.9175 210.373,-77.7571 201.69,-83.8273 207.371,-87.9175"/>
</g>
</g>
</svg>
        <g id="navigator" transform="translate(0 0)" fill="#404254">
                <rect fill="#f2f5e9" fill-opacity="0.5" stroke="#606060" stroke-width=".5" x="0" y="0" width="60" height="60"/>
                <use id="zoomplus" xlink:href="#zoomPlus" x="17" y="9" onmousedown="handleZoom(evt,'in')"/>
                <use id="zoomminus" xlink:href="#zoomMin" x="42" y="9" onmousedown="handleZoom(evt,'out')"/>
                <use id="reset" xlink:href="#resetDef" x="30" y="36" onmousedown="handleReset()"/>
                <g id="arrowUp" xlink:href="#dirArrow" transform="translate(30 24)" onmousedown="handlePan(0,-1)">
                  <use xlink:href="#rim" fill="#404040">
                        <set attributeName="fill" to="#808080" begin="arrowUp.mouseover" end="arrowUp.mouseout"/>
                  </use>
                  <path fill="none" stroke="white" stroke-width="1.5" d="M0,-3.0v7 M-2.5,-0.5L0,-3.0L2.5,-0.5"/>
                </g>
                <g id="arrowRight" xlink:href="#dirArrow" transform="rotate(90) translate(36 -43)" onmousedown="handlePan(1,0)">
                  <use xlink:href="#rim" fill="#404040">
                        <set attributeName="fill" to="#808080" begin="arrowRight.mouseover" end="arrowRight.mouseout"/>
                  </use>
                  <path fill="none" stroke="white" stroke-width="1.5" d="M0,-3.0v7 M-2.5,-0.5L0,-3.0L2.5,-0.5"/>
                </g>
                <g id="arrowDown" xlink:href="#dirArrow" transform="rotate(180) translate(-30 -48)" onmousedown="handlePan(0,1)">
                  <use xlink:href="#rim" fill="#404040">
                        <set attributeName="fill" to="#808080" begin="arrowDown.mouseover" end="arrowDown.mouseout"/>
                  </use>
                  <path fill="none" stroke="white" stroke-width="1.5" d="M0,-3.0v7 M-2.5,-0.5L0,-3.0L2.5,-0.5"/>
                </g>
                <g id="arrowLeft" xlink:href="#dirArrow" transform="rotate(270) translate(-36 17)" onmousedown="handlePan(-1,0)">
                  <use xlink:href="#rim" fill="#404040">
                        <set attributeName="fill" to="#808080" begin="arrowLeft.mouseover" end="arrowLeft.mouseout"/>
                  </use>
                  <path fill="none" stroke="white" stroke-width="1.5" d="M0,-3.0v7 M-2.5,-0.5L0,-3.0L2.5,-0.5"/>
                </g>
        </g>
        <svg viewBox="0 0 15 15" width="100%" height="30px" preserveAspectRatio="xMaxYMin meet">
         <g id="arrow_out" transform="scale(0.3 0.3)">
          <a xlink:href="classscram_1_1mef_1_1Role_aa1843c29411c29b27d79414d34525bbc_icgraph_org.svg" target="_base">
           <rect id="button" ry="5" rx="5" y="6" x="6" height="38" width="38"
                fill="#f2f5e9" fill-opacity="0.5" stroke="#606060" stroke-width="1.0"/>
           <path id="arrow"
             d="M 11.500037,31.436501 C 11.940474,20.09759 22.043105,11.32322 32.158766,21.979434 L 37.068811,17.246167 C 37.068811,17.246167 37.088388,32 37.088388,32 L 22.160133,31.978069 C 22.160133,31.978069 26.997745,27.140456 26.997745,27.140456 C 18.528582,18.264221 13.291696,25.230495 11.500037,31.436501 z"
             style="fill:#404040;"/>
          </a>
         </g>
        </svg>
</svg>
