<?xml version="1.0" encoding="UTF-8" standalone="no"?>
<!DOCTYPE svg PUBLIC "-//W3C//DTD SVG 1.1//EN"
 "http://www.w3.org/Graphics/SVG/1.1/DTD/svg11.dtd">
<!-- Generated by graphviz version 2.38.0 (20140413.2041)
 -->
<!-- Title: scram::core::Zbdd::GatherModules Pages: 1 -->
<svg width="485pt" height="404pt"
 viewBox="0.00 0.00 485.00 404.00" xmlns="http://www.w3.org/2000/svg" xmlns:xlink="http://www.w3.org/1999/xlink">
<g id="graph0" class="graph" transform="scale(1 1) rotate(0) translate(4 400)">
<title>scram::core::Zbdd::GatherModules</title>
<polygon fill="white" stroke="none" points="-4,4 -4,-400 481,-400 481,4 -4,4"/>
<!-- Node1 -->
<g id="node1" class="node"><title>Node1</title>
<polygon fill="#bfbfbf" stroke="black" points="0,-180.5 0,-210.5 111,-210.5 111,-180.5 0,-180.5"/>
<text text-anchor="start" x="8" y="-198.5" font-family="Helvetica,sans-Serif" font-size="10.00">scram::core::Zbdd::</text>
<text text-anchor="middle" x="55.5" y="-187.5" font-family="Helvetica,sans-Serif" font-size="10.00">GatherModules</text>
</g>
<!-- Node2 -->
<g id="node2" class="node"><title>Node2</title>
<g id="a_node2"><a xlink:href="classscram_1_1core_1_1NonTerminal.xhtml#adcdd0c5114aa6a1d32a03928adc07c49" target="_top" xlink:title="scram::core::NonTerminal\l::coherent">
<polygon fill="white" stroke="black" points="327.5,-365.5 327.5,-395.5 466.5,-395.5 466.5,-365.5 327.5,-365.5"/>
<text text-anchor="start" x="335.5" y="-383.5" font-family="Helvetica,sans-Serif" font-size="10.00">scram::core::NonTerminal</text>
<text text-anchor="middle" x="397" y="-372.5" font-family="Helvetica,sans-Serif" font-size="10.00">::coherent</text>
</a>
</g>
</g>
<!-- Node1&#45;&gt;Node2 -->
<g id="edge1" class="edge"><title>Node1&#45;&gt;Node2</title>
<path fill="none" stroke="midnightblue" d="M61.9757,-210.631C73.1606,-239.235 101.486,-301.093 147,-331.5 197.23,-365.057 265.081,-376.725 317.269,-380.324"/>
<polygon fill="midnightblue" stroke="midnightblue" points="317.296,-383.832 327.488,-380.94 317.717,-376.845 317.296,-383.832"/>
</g>
<!-- Node3 -->
<g id="node3" class="node"><title>Node3</title>
<g id="a_node3"><a xlink:href="classscram_1_1core_1_1NonTerminal.xhtml#a7b184b2ba68a289aae9f3737f1d13b97" target="_top" xlink:title="scram::core::NonTerminal\l::high">
<polygon fill="white" stroke="black" points="327.5,-316.5 327.5,-346.5 466.5,-346.5 466.5,-316.5 327.5,-316.5"/>
<text text-anchor="start" x="335.5" y="-334.5" font-family="Helvetica,sans-Serif" font-size="10.00">scram::core::NonTerminal</text>
<text text-anchor="middle" x="397" y="-323.5" font-family="Helvetica,sans-Serif" font-size="10.00">::high</text>
</a>
</g>
</g>
<!-- Node1&#45;&gt;Node3 -->
<g id="edge2" class="edge"><title>Node1&#45;&gt;Node3</title>
<path fill="none" stroke="midnightblue" d="M64.4176,-210.558C77.8524,-234.413 107.544,-280.353 147,-301.5 199.079,-329.413 265.913,-336.163 317.225,-336.343"/>
<polygon fill="midnightblue" stroke="midnightblue" points="317.288,-339.843 327.271,-336.296 317.255,-332.843 317.288,-339.843"/>
</g>
<!-- Node4 -->
<g id="node4" class="node"><title>Node4</title>
<g id="a_node4"><a xlink:href="classscram_1_1core_1_1NonTerminal.xhtml#aeeaafd82ae5890a7ec3462c68ffc8628" target="_top" xlink:title="scram::core::NonTerminal\l::index">
<polygon fill="white" stroke="black" points="327.5,-218.5 327.5,-248.5 466.5,-248.5 466.5,-218.5 327.5,-218.5"/>
<text text-anchor="start" x="335.5" y="-236.5" font-family="Helvetica,sans-Serif" font-size="10.00">scram::core::NonTerminal</text>
<text text-anchor="middle" x="397" y="-225.5" font-family="Helvetica,sans-Serif" font-size="10.00">::index</text>
</a>
</g>
</g>
<!-- Node1&#45;&gt;Node4 -->
<g id="edge3" class="edge"><title>Node1&#45;&gt;Node4</title>
<path fill="none" stroke="midnightblue" d="M111.026,-202.979C122.877,-204.535 135.353,-206.12 147,-207.5 203.817,-214.232 268.041,-220.915 317.031,-225.82"/>
<polygon fill="midnightblue" stroke="midnightblue" points="316.947,-229.329 327.245,-226.839 317.642,-222.364 316.947,-229.329"/>
</g>
<!-- Node5 -->
<g id="node5" class="node"><title>Node5</title>
<g id="a_node5"><a xlink:href="classscram_1_1core_1_1Settings.xhtml#a0e43ec0f017d23a4fa4e376c4060d380" target="_top" xlink:title="scram::core::Settings\l::limit_order">
<polygon fill="white" stroke="black" points="154.5,-98.5 154.5,-128.5 273.5,-128.5 273.5,-98.5 154.5,-98.5"/>
<text text-anchor="start" x="162.5" y="-116.5" font-family="Helvetica,sans-Serif" font-size="10.00">scram::core::Settings</text>
<text text-anchor="middle" x="214" y="-105.5" font-family="Helvetica,sans-Serif" font-size="10.00">::limit_order</text>
</a>
</g>
</g>
<!-- Node1&#45;&gt;Node5 -->
<g id="edge4" class="edge"><title>Node1&#45;&gt;Node5</title>
<path fill="none" stroke="midnightblue" d="M81.5022,-180.279C99.4788,-169.547 124.429,-155.081 147,-143.5 154.008,-139.904 161.533,-136.274 168.905,-132.841"/>
<polygon fill="midnightblue" stroke="midnightblue" points="170.481,-135.968 178.109,-128.615 167.56,-129.607 170.481,-135.968"/>
</g>
<!-- Node6 -->
<g id="node6" class="node"><title>Node6</title>
<g id="a_node6"><a xlink:href="classscram_1_1core_1_1NonTerminal.xhtml#adeb100923176ebd5f820c75b79280796" target="_top" xlink:title="scram::core::NonTerminal::low">
<polygon fill="white" stroke="black" points="317,-180 317,-199 477,-199 477,-180 317,-180"/>
<text text-anchor="middle" x="397" y="-187" font-family="Helvetica,sans-Serif" font-size="10.00">scram::core::NonTerminal::low</text>
</a>
</g>
</g>
<!-- Node1&#45;&gt;Node6 -->
<g id="edge5" class="edge"><title>Node1&#45;&gt;Node6</title>
<path fill="none" stroke="midnightblue" d="M111.047,-194.536C163.78,-193.604 244.599,-192.176 306.716,-191.078"/>
<polygon fill="midnightblue" stroke="midnightblue" points="306.971,-194.574 316.908,-190.898 306.847,-187.575 306.971,-194.574"/>
</g>
<!-- Node7 -->
<g id="node7" class="node"><title>Node7</title>
<g id="a_node7"><a xlink:href="classscram_1_1core_1_1NonTerminal.xhtml#a9230422e92d086c34f67bcb864bfc8a9" target="_top" xlink:title="scram::core::NonTerminal\l::module">
<polygon fill="white" stroke="black" points="327.5,-130.5 327.5,-160.5 466.5,-160.5 466.5,-130.5 327.5,-130.5"/>
<text text-anchor="start" x="335.5" y="-148.5" font-family="Helvetica,sans-Serif" font-size="10.00">scram::core::NonTerminal</text>
<text text-anchor="middle" x="397" y="-137.5" font-family="Helvetica,sans-Serif" font-size="10.00">::module</text>
</a>
</g>
</g>
<!-- Node1&#45;&gt;Node7 -->
<g id="edge6" class="edge"><title>Node1&#45;&gt;Node7</title>
<path fill="none" stroke="midnightblue" d="M111.047,-187.467C166.825,-179.252 254.024,-166.41 317.278,-157.094"/>
<polygon fill="midnightblue" stroke="midnightblue" points="317.832,-160.55 327.216,-155.63 316.812,-153.625 317.832,-160.55"/>
</g>
<!-- Node8 -->
<g id="node8" class="node"><title>Node8</title>
<g id="a_node8"><a xlink:href="classscram_1_1core_1_1Zbdd.xhtml#aed1eaa96df30e6eaa32e9e51427c9743" target="_top" xlink:title="scram::core::Zbdd::\lmodules">
<polygon fill="white" stroke="black" points="158.5,-262.5 158.5,-292.5 269.5,-292.5 269.5,-262.5 158.5,-262.5"/>
<text text-anchor="start" x="166.5" y="-280.5" font-family="Helvetica,sans-Serif" font-size="10.00">scram::core::Zbdd::</text>
<text text-anchor="middle" x="214" y="-269.5" font-family="Helvetica,sans-Serif" font-size="10.00">modules</text>
</a>
</g>
</g>
<!-- Node1&#45;&gt;Node8 -->
<g id="edge7" class="edge"><title>Node1&#45;&gt;Node8</title>
<path fill="none" stroke="midnightblue" d="M81.5022,-210.721C99.4788,-221.453 124.429,-235.919 147,-247.5 154.008,-251.096 161.533,-254.726 168.905,-258.159"/>
<polygon fill="midnightblue" stroke="midnightblue" points="167.56,-261.393 178.109,-262.385 170.481,-255.032 167.56,-261.393"/>
</g>
<!-- Node10 -->
<g id="node10" class="node"><title>Node10</title>
<g id="a_node10"><a xlink:href="structscram_1_1core_1_1IntrusivePtrCast.xhtml#af153c12dc6133b7d9f9b7a57bba29f1d" target="_top" xlink:title="scram::core::IntrusivePtr\lCast\&lt; SetNode \&gt;::Ref">
<polygon fill="white" stroke="black" points="147,-49.5 147,-79.5 281,-79.5 281,-49.5 147,-49.5"/>
<text text-anchor="start" x="155" y="-67.5" font-family="Helvetica,sans-Serif" font-size="10.00">scram::core::IntrusivePtr</text>
<text text-anchor="middle" x="214" y="-56.5" font-family="Helvetica,sans-Serif" font-size="10.00">Cast&lt; SetNode &gt;::Ref</text>
</a>
</g>
</g>
<!-- Node1&#45;&gt;Node10 -->
<g id="edge14" class="edge"><title>Node1&#45;&gt;Node10</title>
<path fill="none" stroke="midnightblue" d="M65.7082,-180.194C80.2576,-157.22 110.674,-113.822 147,-88.5 149.1,-87.0358 151.3,-85.6504 153.569,-84.3406"/>
<polygon fill="midnightblue" stroke="midnightblue" points="155.334,-87.3684 162.599,-79.6572 152.111,-81.1545 155.334,-87.3684"/>
</g>
<!-- Node11 -->
<g id="node11" class="node"><title>Node11</title>
<g id="a_node11"><a xlink:href="classscram_1_1core_1_1Terminal.xhtml#a7a25b0b40498f4876571a5dac4e724c3" target="_top" xlink:title="scram::core::Terminal\l::value">
<polygon fill="white" stroke="black" points="154.5,-0.5 154.5,-30.5 273.5,-30.5 273.5,-0.5 154.5,-0.5"/>
<text text-anchor="start" x="162.5" y="-18.5" font-family="Helvetica,sans-Serif" font-size="10.00">scram::core::Terminal</text>
<text text-anchor="middle" x="214" y="-7.5" font-family="Helvetica,sans-Serif" font-size="10.00">::value</text>
</a>
</g>
</g>
<!-- Node1&#45;&gt;Node11 -->
<g id="edge15" class="edge"><title>Node1&#45;&gt;Node11</title>
<path fill="none" stroke="midnightblue" d="M61.3287,-180.3C71.8919,-149.409 99.9416,-78.8915 147,-39.5 148.543,-38.2087 150.161,-36.9842 151.838,-35.8231"/>
<polygon fill="midnightblue" stroke="midnightblue" points="153.874,-38.6831 160.642,-30.5323 150.268,-32.6831 153.874,-38.6831"/>
</g>
<!-- Node8&#45;&gt;Node2 -->
<g id="edge8" class="edge"><title>Node8&#45;&gt;Node2</title>
<path fill="none" stroke="midnightblue" d="M230.682,-292.649C249.691,-310.26 283.371,-339.122 317,-356.5 320.552,-358.335 324.267,-360.056 328.069,-361.664"/>
<polygon fill="midnightblue" stroke="midnightblue" points="327.064,-365.03 337.651,-365.434 329.627,-358.516 327.064,-365.03"/>
</g>
<!-- Node8&#45;&gt;Node3 -->
<g id="edge9" class="edge"><title>Node8&#45;&gt;Node3</title>
<path fill="none" stroke="midnightblue" d="M265.419,-292.542C287.294,-299.068 313.084,-306.763 335.942,-313.582"/>
<polygon fill="midnightblue" stroke="midnightblue" points="334.955,-316.94 345.538,-316.445 336.956,-310.232 334.955,-316.94"/>
</g>
<!-- Node8&#45;&gt;Node4 -->
<g id="edge10" class="edge"><title>Node8&#45;&gt;Node4</title>
<path fill="none" stroke="midnightblue" d="M269.797,-264.179C286.916,-260.018 306.066,-255.363 324.172,-250.961"/>
<polygon fill="midnightblue" stroke="midnightblue" points="325.214,-254.31 334.105,-248.546 323.561,-247.508 325.214,-254.31"/>
</g>
<!-- Node8&#45;&gt;Node6 -->
<g id="edge11" class="edge"><title>Node8&#45;&gt;Node6</title>
<path fill="none" stroke="midnightblue" d="M232.979,-262.366C252.482,-246.691 285.115,-222.563 317,-208.5 322.675,-205.997 328.731,-203.793 334.87,-201.86"/>
<polygon fill="midnightblue" stroke="midnightblue" points="335.921,-205.199 344.541,-199.04 333.962,-198.479 335.921,-205.199"/>
</g>
<!-- Node8&#45;&gt;Node7 -->
<g id="edge12" class="edge"><title>Node8&#45;&gt;Node7</title>
<path fill="none" stroke="midnightblue" d="M225.432,-262.426C242.154,-239.357 277.155,-195.364 317,-170.5 320.337,-168.418 323.863,-166.495 327.498,-164.721"/>
<polygon fill="midnightblue" stroke="midnightblue" points="329.007,-167.881 336.717,-160.614 326.159,-161.486 329.007,-167.881"/>
</g>
<!-- Node9 -->
<g id="node9" class="node"><title>Node9</title>
<g id="a_node9"><a xlink:href="classscram_1_1core_1_1NonTerminal.xhtml#af5853746ad388f479a7aa45c5d843466" target="_top" xlink:title="scram::core::NonTerminal\l\&lt; SetNode \&gt;::order">
<polygon fill="white" stroke="black" points="327.5,-267.5 327.5,-297.5 466.5,-297.5 466.5,-267.5 327.5,-267.5"/>
<text text-anchor="start" x="335.5" y="-285.5" font-family="Helvetica,sans-Serif" font-size="10.00">scram::core::NonTerminal</text>
<text text-anchor="middle" x="397" y="-274.5" font-family="Helvetica,sans-Serif" font-size="10.00">&lt; SetNode &gt;::order</text>
</a>
</g>
</g>
<!-- Node8&#45;&gt;Node9 -->
<g id="edge13" class="edge"><title>Node8&#45;&gt;Node9</title>
<path fill="none" stroke="midnightblue" d="M269.797,-279.014C284.648,-279.424 301.028,-279.876 316.928,-280.316"/>
<polygon fill="midnightblue" stroke="midnightblue" points="317.194,-283.824 327.287,-280.602 317.388,-276.827 317.194,-283.824"/>
</g>
<!-- Node12 -->
<g id="node12" class="node"><title>Node12</title>
<g id="a_node12"><a xlink:href="classscram_1_1core_1_1Vertex.xhtml#a8a4a6e9871c7b80b9951fea57617d438" target="_top" xlink:title="scram::core::Vertex::id">
<polygon fill="white" stroke="black" points="334.5,-6 334.5,-25 459.5,-25 459.5,-6 334.5,-6"/>
<text text-anchor="middle" x="397" y="-13" font-family="Helvetica,sans-Serif" font-size="10.00">scram::core::Vertex::id</text>
</a>
</g>
</g>
<!-- Node11&#45;&gt;Node12 -->
<g id="edge16" class="edge"><title>Node11&#45;&gt;Node12</title>
<path fill="none" stroke="midnightblue" d="M273.766,-15.5C289.836,-15.5 307.436,-15.5 324.148,-15.5"/>
<polygon fill="midnightblue" stroke="midnightblue" points="324.418,-19.0001 334.418,-15.5 324.418,-12.0001 324.418,-19.0001"/>
</g>
</g>
</svg>
