<?xml version="1.0" encoding="UTF-8" standalone="no"?>
<!DOCTYPE svg PUBLIC "-//W3C//DTD SVG 1.1//EN"
 "http://www.w3.org/Graphics/SVG/1.1/DTD/svg11.dtd">
<!-- Generated by graphviz version 2.38.0 (20140413.2041)
 -->
<!-- Title: scram::mef::PeriodicTest::interval Pages: 1 -->
<!--zoomable 258 -->
<svg id="main" version="1.1" xmlns="http://www.w3.org/2000/svg" xmlns:xlink="http://www.w3.org/1999/xlink" xml:space="preserve" onload="init(evt)">
<style type="text/css"><![CDATA[
.edge:hover path { stroke: red; }
.edge:hover polygon { stroke: red; fill: red; }
]]></style>
<script type="text/javascript"><![CDATA[
var edges = document.getElementsByTagName('g');
if (edges && edges.length) {
  for (var i=0;i<edges.length;i++) {
    if (edges[i].id.substr(0,4)=='edge') {
      edges[i].setAttribute('class','edge');
    }
  }
}
]]></script>
        <defs>
                <circle id="rim" cx="0" cy="0" r="7"/>
                <circle id="rim2" cx="0" cy="0" r="3.5"/>
                <g id="zoomPlus">
                        <use xlink:href="#rim" fill="#404040">
                                <set attributeName="fill" to="#808080" begin="zoomplus.mouseover" end="zoomplus.mouseout"/>
                        </use>
                        <path d="M-4,0h8M0,-4v8" fill="none" stroke="white" stroke-width="1.5" pointer-events="none"/>
                </g>
                <g id="zoomMin">
                        <use xlink:href="#rim" fill="#404040">
                                <set attributeName="fill" to="#808080" begin="zoomminus.mouseover" end="zoomminus.mouseout"/>
                        </use>
                        <path d="M-4,0h8" fill="none" stroke="white" stroke-width="1.5" pointer-events="none"/>
                </g>
                <g id="dirArrow">
                        <path fill="none" stroke="white" stroke-width="1.5" d="M0,-3.0v7 M-2.5,-0.5L0,-3.0L2.5,-0.5"/>
                </g>
               <g id="resetDef">
                       <use xlink:href="#rim2" fill="#404040">
                               <set attributeName="fill" to="#808080" begin="reset.mouseover" end="reset.mouseout"/>
                       </use>
               </g>
        </defs>

<script type="text/javascript">
var viewWidth = 903;
var viewHeight = 258;
var sectionId = 'dynsection-2';
</script>
<script xlink:href="svgpan.js"/>
<svg id="graph" class="graph">
<g id="viewport">
<title>scram::mef::PeriodicTest::interval</title>
<polygon fill="white" stroke="none" points="-4,4 -4,-253.5 899,-253.5 899,4 -4,4"/>
<!-- Node1 -->
<g id="node1" class="node"><title>Node1</title>
<polygon fill="#bfbfbf" stroke="black" points="0,-153 0,-183 134,-183 134,-153 0,-153"/>
<text text-anchor="start" x="8" y="-171" font-family="Helvetica,sans-Serif" font-size="10.00">scram::mef::PeriodicTest</text>
<text text-anchor="middle" x="67" y="-160" font-family="Helvetica,sans-Serif" font-size="10.00">::interval</text>
</g>
<!-- Node2 -->
<g id="node2" class="node"><title>Node2</title>
<g id="a_node2"><a xlink:href="classscram_1_1mef_1_1Exponential.xhtml#aad85ef30a15dac65afb7033244e2539a" target="_top" xlink:title="Evaluates the expression. ">
<polygon fill="white" stroke="black" points="187.5,-219 187.5,-249 320.5,-249 320.5,-219 187.5,-219"/>
<text text-anchor="start" x="195.5" y="-237" font-family="Helvetica,sans-Serif" font-size="10.00">scram::mef::Exponential</text>
<text text-anchor="middle" x="254" y="-226" font-family="Helvetica,sans-Serif" font-size="10.00">::Compute</text>
</a>
</g>
</g>
<!-- Node1&#45;&gt;Node2 -->
<g id="edge1" class="edge"><title>Node1&#45;&gt;Node2</title>
<path fill="none" stroke="midnightblue" d="M110.443,-183.142C137.47,-192.784 172.657,-205.337 201.309,-215.559"/>
<polygon fill="midnightblue" stroke="midnightblue" points="200.16,-218.865 210.755,-218.929 202.512,-212.272 200.16,-218.865"/>
</g>
<!-- Node3 -->
<g id="node3" class="node"><title>Node3</title>
<g id="a_node3"><a xlink:href="classscram_1_1mef_1_1Expression.xhtml#a5cf00d8b2ff843ad029a501a89ee572a" target="_top" xlink:title="scram::mef::Expression\l::Sample">
<polygon fill="white" stroke="black" points="766,-193 766,-223 895,-223 895,-193 766,-193"/>
<text text-anchor="start" x="774" y="-211" font-family="Helvetica,sans-Serif" font-size="10.00">scram::mef::Expression</text>
<text text-anchor="middle" x="830.5" y="-200" font-family="Helvetica,sans-Serif" font-size="10.00">::Sample</text>
</a>
</g>
</g>
<!-- Node1&#45;&gt;Node3 -->
<g id="edge2" class="edge"><title>Node1&#45;&gt;Node3</title>
<path fill="none" stroke="midnightblue" d="M134.246,-171.48C275.859,-178.918 607.193,-196.323 755.474,-204.112"/>
<polygon fill="midnightblue" stroke="midnightblue" points="755.659,-207.626 765.829,-204.656 756.027,-200.636 755.659,-207.626"/>
</g>
<!-- Node4 -->
<g id="node4" class="node"><title>Node4</title>
<g id="a_node4"><a xlink:href="classscram_1_1mef_1_1Exponential.xhtml#a93569be7f366dce3dd25dcbb083ca774" target="_top" xlink:title="scram::mef::Exponential\l::Validate">
<polygon fill="white" stroke="black" points="187.5,-131 187.5,-161 320.5,-161 320.5,-131 187.5,-131"/>
<text text-anchor="start" x="195.5" y="-149" font-family="Helvetica,sans-Serif" font-size="10.00">scram::mef::Exponential</text>
<text text-anchor="middle" x="254" y="-138" font-family="Helvetica,sans-Serif" font-size="10.00">::Validate</text>
</a>
</g>
</g>
<!-- Node1&#45;&gt;Node4 -->
<g id="edge3" class="edge"><title>Node1&#45;&gt;Node4</title>
<path fill="none" stroke="midnightblue" d="M134.006,-160.151C147.95,-158.492 162.772,-156.73 177.051,-155.032"/>
<polygon fill="midnightblue" stroke="midnightblue" points="177.814,-158.466 187.331,-153.809 176.987,-151.515 177.814,-158.466"/>
</g>
<!-- Node11 -->
<g id="node11" class="node"><title>Node11</title>
<g id="a_node11"><a xlink:href="classscram_1_1mef_1_1ExpressionFormula.xhtml#a1f7c71744d679ab1a4e5ca3ca98277a6" target="_top" xlink:title="Computes the expression with argument expression default values. ">
<polygon fill="white" stroke="black" points="170,-82 170,-112 338,-112 338,-82 170,-82"/>
<text text-anchor="start" x="178" y="-100" font-family="Helvetica,sans-Serif" font-size="10.00">scram::mef::ExpressionFormula</text>
<text text-anchor="middle" x="254" y="-89" font-family="Helvetica,sans-Serif" font-size="10.00">&lt; Exponential &gt;::value</text>
</a>
</g>
</g>
<!-- Node1&#45;&gt;Node11 -->
<g id="edge15" class="edge"><title>Node1&#45;&gt;Node11</title>
<path fill="none" stroke="midnightblue" d="M97.8453,-152.803C117.917,-142.944 145.151,-130.258 170,-121 175.493,-118.954 181.243,-116.973 187.043,-115.085"/>
<polygon fill="midnightblue" stroke="midnightblue" points="188.333,-118.348 196.817,-112.001 186.227,-111.673 188.333,-118.348"/>
</g>
<!-- Node5 -->
<g id="node5" class="node"><title>Node5</title>
<g id="a_node5"><a xlink:href="expression_8cc.xhtml#a262d38f7d6438e25ea34765b8d6a03eb" target="_top" xlink:title="Ensures that expression yields non&#45;negative (&gt;= 0) values. ">
<polygon fill="white" stroke="black" points="374,-72.5 374,-91.5 547,-91.5 547,-72.5 374,-72.5"/>
<text text-anchor="middle" x="460.5" y="-79.5" font-family="Helvetica,sans-Serif" font-size="10.00">scram::mef::EnsureNonNegative</text>
</a>
</g>
</g>
<!-- Node4&#45;&gt;Node5 -->
<g id="edge4" class="edge"><title>Node4&#45;&gt;Node5</title>
<path fill="none" stroke="midnightblue" d="M305.521,-130.942C316.253,-127.698 327.51,-124.263 338,-121 365.579,-112.421 396.58,-102.465 420.365,-94.7596"/>
<polygon fill="midnightblue" stroke="midnightblue" points="421.654,-98.0211 430.085,-91.6057 419.493,-91.3628 421.654,-98.0211"/>
</g>
<!-- Node5&#45;&gt;Node5 -->
<g id="edge5" class="edge"><title>Node5&#45;&gt;Node5</title>
<path fill="none" stroke="midnightblue" d="M430.291,-91.7571C415.594,-100.565 425.664,-110 460.5,-110 484.994,-110 497.244,-105.336 497.25,-99.5043"/>
<polygon fill="midnightblue" stroke="midnightblue" points="499.835,-97.1402 490.709,-91.7571 494.486,-101.656 499.835,-97.1402"/>
</g>
<!-- Node6 -->
<g id="node6" class="node"><title>Node6</title>
<g id="a_node6"><a xlink:href="classscram_1_1mef_1_1Expression.xhtml#a179b21e75df522673e6d51b784d10e86" target="_top" xlink:title="scram::mef::Expression\l::interval">
<polygon fill="white" stroke="black" points="592,-95 592,-125 721,-125 721,-95 592,-95"/>
<text text-anchor="start" x="600" y="-113" font-family="Helvetica,sans-Serif" font-size="10.00">scram::mef::Expression</text>
<text text-anchor="middle" x="656.5" y="-102" font-family="Helvetica,sans-Serif" font-size="10.00">::interval</text>
</a>
</g>
</g>
<!-- Node5&#45;&gt;Node6 -->
<g id="edge6" class="edge"><title>Node5&#45;&gt;Node6</title>
<path fill="none" stroke="midnightblue" d="M527.45,-91.5186C544.805,-94.0234 563.642,-96.7422 581.394,-99.3043"/>
<polygon fill="midnightblue" stroke="midnightblue" points="581.304,-102.828 591.702,-100.792 582.304,-95.8993 581.304,-102.828"/>
</g>
<!-- Node9 -->
<g id="node9" class="node"><title>Node9</title>
<g id="a_node9"><a xlink:href="classscram_1_1mef_1_1Expression.xhtml#af4c1a5cb29e8f45623a99742b7ba8bc5" target="_top" xlink:title="scram::mef::Expression\l::value">
<polygon fill="white" stroke="black" points="766,-28 766,-58 895,-58 895,-28 766,-28"/>
<text text-anchor="start" x="774" y="-46" font-family="Helvetica,sans-Serif" font-size="10.00">scram::mef::Expression</text>
<text text-anchor="middle" x="830.5" y="-35" font-family="Helvetica,sans-Serif" font-size="10.00">::value</text>
</a>
</g>
</g>
<!-- Node5&#45;&gt;Node9 -->
<g id="edge14" class="edge"><title>Node5&#45;&gt;Node9</title>
<path fill="none" stroke="midnightblue" d="M547.315,-72.9055C610.457,-66.2138 695.416,-57.21 755.564,-50.8356"/>
<polygon fill="midnightblue" stroke="midnightblue" points="756.17,-54.2911 765.745,-49.7566 755.432,-47.3301 756.17,-54.2911"/>
</g>
<!-- Node10 -->
<g id="node10" class="node"><title>Node10</title>
<g id="a_node10"><a xlink:href="expression_8h.xhtml#a5682dd6fbc6d7dd33ebf8b5665006b99" target="_top" xlink:title="Checks if all values in a given interval are non&#45;negative. ">
<polygon fill="white" stroke="black" points="583,-0.5 583,-19.5 730,-19.5 730,-0.5 583,-0.5"/>
<text text-anchor="middle" x="656.5" y="-7.5" font-family="Helvetica,sans-Serif" font-size="10.00">scram::mef::IsNonNegative</text>
</a>
</g>
</g>
<!-- Node5&#45;&gt;Node10 -->
<g id="edge12" class="edge"><title>Node5&#45;&gt;Node10</title>
<path fill="none" stroke="midnightblue" d="M487.262,-72.439C521.323,-59.7976 581.503,-37.4627 619.895,-23.214"/>
<polygon fill="midnightblue" stroke="midnightblue" points="621.474,-26.3614 629.632,-19.6006 619.039,-19.7988 621.474,-26.3614"/>
</g>
<!-- Node6&#45;&gt;Node3 -->
<g id="edge10" class="edge"><title>Node6&#45;&gt;Node3</title>
<path fill="none" stroke="midnightblue" d="M677.082,-125.089C698.209,-140.902 733.238,-165.791 766,-183 769.942,-185.07 774.094,-187.072 778.311,-188.979"/>
<polygon fill="midnightblue" stroke="midnightblue" points="777.021,-192.235 787.588,-192.997 779.803,-185.811 777.021,-192.235"/>
</g>
<!-- Node7 -->
<g id="node7" class="node"><title>Node7</title>
<g id="a_node7"><a xlink:href="classscram_1_1mef_1_1Expression.xhtml#a058aef65da884a47ea3345bc31488b7a" target="_top" xlink:title="Determines if the value of the expression contains deviate expressions. ">
<polygon fill="white" stroke="black" points="766,-126 766,-156 895,-156 895,-126 766,-126"/>
<text text-anchor="start" x="774" y="-144" font-family="Helvetica,sans-Serif" font-size="10.00">scram::mef::Expression</text>
<text text-anchor="middle" x="830.5" y="-133" font-family="Helvetica,sans-Serif" font-size="10.00">::IsDeviate</text>
</a>
</g>
</g>
<!-- Node6&#45;&gt;Node7 -->
<g id="edge7" class="edge"><title>Node6&#45;&gt;Node7</title>
<path fill="none" stroke="midnightblue" d="M721.058,-121.455C732.382,-123.496 744.265,-125.638 755.842,-127.724"/>
<polygon fill="midnightblue" stroke="midnightblue" points="755.454,-131.211 765.916,-129.54 756.696,-124.322 755.454,-131.211"/>
</g>
<!-- Node8 -->
<g id="node8" class="node"><title>Node8</title>
<g id="a_node8"><a xlink:href="classscram_1_1mef_1_1Expression.xhtml#ab6d31c4ddb5d4a827727829cbd4e4449" target="_top" xlink:title="This routine resets the sampling to get new values. ">
<polygon fill="white" stroke="black" points="766,-77 766,-107 895,-107 895,-77 766,-77"/>
<text text-anchor="start" x="774" y="-95" font-family="Helvetica,sans-Serif" font-size="10.00">scram::mef::Expression</text>
<text text-anchor="middle" x="830.5" y="-84" font-family="Helvetica,sans-Serif" font-size="10.00">::Reset</text>
</a>
</g>
</g>
<!-- Node6&#45;&gt;Node8 -->
<g id="edge9" class="edge"><title>Node6&#45;&gt;Node8</title>
<path fill="none" stroke="midnightblue" d="M721.058,-103.349C732.382,-102.164 744.265,-100.92 755.842,-99.7084"/>
<polygon fill="midnightblue" stroke="midnightblue" points="756.335,-103.176 765.916,-98.6541 755.606,-96.214 756.335,-103.176"/>
</g>
<!-- Node6&#45;&gt;Node9 -->
<g id="edge11" class="edge"><title>Node6&#45;&gt;Node9</title>
<path fill="none" stroke="midnightblue" d="M695.102,-94.927C715.958,-86.6096 742.38,-76.1433 766,-67 770.503,-65.257 775.191,-63.4572 779.889,-61.6634"/>
<polygon fill="midnightblue" stroke="midnightblue" points="781.39,-64.8371 789.492,-58.01 778.901,-58.2946 781.39,-64.8371"/>
</g>
<!-- Node7&#45;&gt;Node7 -->
<g id="edge8" class="edge"><title>Node7&#45;&gt;Node7</title>
<path fill="none" stroke="midnightblue" d="M800.177,-156.159C792.865,-165.557 802.973,-174.5 830.5,-174.5 847.274,-174.5 857.58,-171.179 861.418,-166.458"/>
<polygon fill="midnightblue" stroke="midnightblue" points="864.894,-165.941 860.823,-156.159 857.905,-166.344 864.894,-165.941"/>
</g>
<!-- Node10&#45;&gt;Node10 -->
<g id="edge13" class="edge"><title>Node10&#45;&gt;Node10</title>
<path fill="none" stroke="midnightblue" d="M629.682,-19.7571C616.635,-28.5653 625.574,-38 656.5,-38 677.278,-38 688.132,-33.741 689.06,-28.2746"/>
<polygon fill="midnightblue" stroke="midnightblue" points="691.81,-26.0928 683.318,-19.7571 686.006,-30.0054 691.81,-26.0928"/>
</g>
</g>
</svg>
        <g id="navigator" transform="translate(0 0)" fill="#404254">
                <rect fill="#f2f5e9" fill-opacity="0.5" stroke="#606060" stroke-width=".5" x="0" y="0" width="60" height="60"/>
                <use id="zoomplus" xlink:href="#zoomPlus" x="17" y="9" onmousedown="handleZoom(evt,'in')"/>
                <use id="zoomminus" xlink:href="#zoomMin" x="42" y="9" onmousedown="handleZoom(evt,'out')"/>
                <use id="reset" xlink:href="#resetDef" x="30" y="36" onmousedown="handleReset()"/>
                <g id="arrowUp" xlink:href="#dirArrow" transform="translate(30 24)" onmousedown="handlePan(0,-1)">
                  <use xlink:href="#rim" fill="#404040">
                        <set attributeName="fill" to="#808080" begin="arrowUp.mouseover" end="arrowUp.mouseout"/>
                  </use>
                  <path fill="none" stroke="white" stroke-width="1.5" d="M0,-3.0v7 M-2.5,-0.5L0,-3.0L2.5,-0.5"/>
                </g>
                <g id="arrowRight" xlink:href="#dirArrow" transform="rotate(90) translate(36 -43)" onmousedown="handlePan(1,0)">
                  <use xlink:href="#rim" fill="#404040">
                        <set attributeName="fill" to="#808080" begin="arrowRight.mouseover" end="arrowRight.mouseout"/>
                  </use>
                  <path fill="none" stroke="white" stroke-width="1.5" d="M0,-3.0v7 M-2.5,-0.5L0,-3.0L2.5,-0.5"/>
                </g>
                <g id="arrowDown" xlink:href="#dirArrow" transform="rotate(180) translate(-30 -48)" onmousedown="handlePan(0,1)">
                  <use xlink:href="#rim" fill="#404040">
                        <set attributeName="fill" to="#808080" begin="arrowDown.mouseover" end="arrowDown.mouseout"/>
                  </use>
                  <path fill="none" stroke="white" stroke-width="1.5" d="M0,-3.0v7 M-2.5,-0.5L0,-3.0L2.5,-0.5"/>
                </g>
                <g id="arrowLeft" xlink:href="#dirArrow" transform="rotate(270) translate(-36 17)" onmousedown="handlePan(-1,0)">
                  <use xlink:href="#rim" fill="#404040">
                        <set attributeName="fill" to="#808080" begin="arrowLeft.mouseover" end="arrowLeft.mouseout"/>
                  </use>
                  <path fill="none" stroke="white" stroke-width="1.5" d="M0,-3.0v7 M-2.5,-0.5L0,-3.0L2.5,-0.5"/>
                </g>
        </g>
        <svg viewBox="0 0 15 15" width="100%" height="30px" preserveAspectRatio="xMaxYMin meet">
         <g id="arrow_out" transform="scale(0.3 0.3)">
          <a xlink:href="classscram_1_1mef_1_1PeriodicTest_a0aa8dc4d62e8fc24194f0183bc533638_cgraph_org.svg" target="_base">
           <rect id="button" ry="5" rx="5" y="6" x="6" height="38" width="38"
                fill="#f2f5e9" fill-opacity="0.5" stroke="#606060" stroke-width="1.0"/>
           <path id="arrow"
             d="M 11.500037,31.436501 C 11.940474,20.09759 22.043105,11.32322 32.158766,21.979434 L 37.068811,17.246167 C 37.068811,17.246167 37.088388,32 37.088388,32 L 22.160133,31.978069 C 22.160133,31.978069 26.997745,27.140456 26.997745,27.140456 C 18.528582,18.264221 13.291696,25.230495 11.500037,31.436501 z"
             style="fill:#404040;"/>
          </a>
         </g>
        </svg>
</svg>
