<?xml version="1.0" encoding="UTF-8" standalone="no"?>
<!DOCTYPE svg PUBLIC "-//W3C//DTD SVG 1.1//EN"
 "http://www.w3.org/Graphics/SVG/1.1/DTD/svg11.dtd">
<!-- Generated by graphviz version 2.38.0 (20140413.2041)
 -->
<!-- Title: scram::core::ProbabilityAnalyzer&lt; Bdd &gt;::CalculateTotalProbability Pages: 1 -->
<!--zoomable 646 -->
<svg id="main" version="1.1" xmlns="http://www.w3.org/2000/svg" xmlns:xlink="http://www.w3.org/1999/xlink" xml:space="preserve" onload="init(evt)">
<style type="text/css"><![CDATA[
.edge:hover path { stroke: red; }
.edge:hover polygon { stroke: red; fill: red; }
]]></style>
<script type="text/javascript"><![CDATA[
var edges = document.getElementsByTagName('g');
if (edges && edges.length) {
  for (var i=0;i<edges.length;i++) {
    if (edges[i].id.substr(0,4)=='edge') {
      edges[i].setAttribute('class','edge');
    }
  }
}
]]></script>
        <defs>
                <circle id="rim" cx="0" cy="0" r="7"/>
                <circle id="rim2" cx="0" cy="0" r="3.5"/>
                <g id="zoomPlus">
                        <use xlink:href="#rim" fill="#404040">
                                <set attributeName="fill" to="#808080" begin="zoomplus.mouseover" end="zoomplus.mouseout"/>
                        </use>
                        <path d="M-4,0h8M0,-4v8" fill="none" stroke="white" stroke-width="1.5" pointer-events="none"/>
                </g>
                <g id="zoomMin">
                        <use xlink:href="#rim" fill="#404040">
                                <set attributeName="fill" to="#808080" begin="zoomminus.mouseover" end="zoomminus.mouseout"/>
                        </use>
                        <path d="M-4,0h8" fill="none" stroke="white" stroke-width="1.5" pointer-events="none"/>
                </g>
                <g id="dirArrow">
                        <path fill="none" stroke="white" stroke-width="1.5" d="M0,-3.0v7 M-2.5,-0.5L0,-3.0L2.5,-0.5"/>
                </g>
               <g id="resetDef">
                       <use xlink:href="#rim2" fill="#404040">
                               <set attributeName="fill" to="#808080" begin="reset.mouseover" end="reset.mouseout"/>
                       </use>
               </g>
        </defs>

<script type="text/javascript">
var viewWidth = 403;
var viewHeight = 646;
var sectionId = 'dynsection-2';
</script>
<script xlink:href="svgpan.js"/>
<svg id="graph" class="graph">
<g id="viewport">
<title>scram::core::ProbabilityAnalyzer&lt; Bdd &gt;::CalculateTotalProbability</title>
<polygon fill="white" stroke="none" points="-4,4 -4,-642 399,-642 399,4 -4,4"/>
<!-- Node1 -->
<g id="node1" class="node"><title>Node1</title>
<polygon fill="#bfbfbf" stroke="black" points="0,-301 0,-342 171,-342 171,-301 0,-301"/>
<text text-anchor="start" x="8" y="-330" font-family="Helvetica,sans-Serif" font-size="10.00">scram::core::Probability</text>
<text text-anchor="start" x="8" y="-319" font-family="Helvetica,sans-Serif" font-size="10.00">Analyzer&lt; Bdd &gt;::CalculateTotal</text>
<text text-anchor="middle" x="85.5" y="-308" font-family="Helvetica,sans-Serif" font-size="10.00">Probability</text>
</g>
<!-- Node2 -->
<g id="node2" class="node"><title>Node2</title>
<g id="a_node2"><a xlink:href="classscram_1_1core_1_1Analysis.xhtml#a1a4f345f29240b0236853641f728a103" target="_top" xlink:title="Adds time to the total analysis time. ">
<polygon fill="white" stroke="black" points="241.5,-607.5 241.5,-637.5 360.5,-637.5 360.5,-607.5 241.5,-607.5"/>
<text text-anchor="start" x="249.5" y="-625.5" font-family="Helvetica,sans-Serif" font-size="10.00">scram::core::Analysis</text>
<text text-anchor="middle" x="301" y="-614.5" font-family="Helvetica,sans-Serif" font-size="10.00">::AddAnalysisTime</text>
</a>
</g>
</g>
<!-- Node1&#45;&gt;Node2 -->
<g id="edge1" class="edge"><title>Node1&#45;&gt;Node2</title>
<path fill="none" stroke="midnightblue" d="M89.2638,-342.167C97.2844,-393.727 125.425,-528.877 207,-598.5 214.079,-604.542 222.492,-609.09 231.32,-612.508"/>
<polygon fill="midnightblue" stroke="midnightblue" points="230.425,-615.9 241.02,-615.792 232.67,-609.27 230.425,-615.9"/>
</g>
<!-- Node3 -->
<g id="node3" class="node"><title>Node3</title>
<g id="a_node3"><a xlink:href="classscram_1_1core_1_1Settings.xhtml#a4a71410d7b91bb82cadc29c0fe0b2506" target="_top" xlink:title="scram::core::Settings\l::ccf_analysis">
<polygon fill="white" stroke="black" points="241.5,-558.5 241.5,-588.5 360.5,-588.5 360.5,-558.5 241.5,-558.5"/>
<text text-anchor="start" x="249.5" y="-576.5" font-family="Helvetica,sans-Serif" font-size="10.00">scram::core::Settings</text>
<text text-anchor="middle" x="301" y="-565.5" font-family="Helvetica,sans-Serif" font-size="10.00">::ccf_analysis</text>
</a>
</g>
</g>
<!-- Node1&#45;&gt;Node3 -->
<g id="edge2" class="edge"><title>Node1&#45;&gt;Node3</title>
<path fill="none" stroke="midnightblue" d="M91.4328,-342.021C103.261,-386.695 137.553,-493.175 207,-548.5 214.298,-554.314 222.835,-558.782 231.723,-562.213"/>
<polygon fill="midnightblue" stroke="midnightblue" points="230.868,-565.62 241.463,-565.545 233.134,-558.997 230.868,-565.62"/>
</g>
<!-- Node4 -->
<g id="node4" class="node"><title>Node4</title>
<g id="a_node4"><a xlink:href="classscram_1_1core_1_1Ite.xhtml#afc14becd66d22adf37cf1177671d5a2c" target="_top" xlink:title="scram::core::Ite::complement_edge">
<polygon fill="white" stroke="black" points="207,-520 207,-539 395,-539 395,-520 207,-520"/>
<text text-anchor="middle" x="301" y="-527" font-family="Helvetica,sans-Serif" font-size="10.00">scram::core::Ite::complement_edge</text>
</a>
</g>
</g>
<!-- Node1&#45;&gt;Node4 -->
<g id="edge3" class="edge"><title>Node1&#45;&gt;Node4</title>
<path fill="none" stroke="midnightblue" d="M93.4454,-342.166C107.86,-381.688 144.954,-467.836 207,-510.5 209.784,-512.414 212.718,-514.144 215.761,-515.705"/>
<polygon fill="midnightblue" stroke="midnightblue" points="214.615,-519.027 225.173,-519.907 217.468,-512.635 214.615,-519.027"/>
</g>
<!-- Node5 -->
<g id="node5" class="node"><title>Node5</title>
<g id="a_node5"><a xlink:href="classscram_1_1core_1_1ProbabilityAnalyzerBase.xhtml#a95a4dfedc736e018dcb6b0b50fe6a21d" target="_top" xlink:title="scram::core::Probability\lAnalyzerBase::graph">
<polygon fill="white" stroke="black" points="236.5,-470.5 236.5,-500.5 365.5,-500.5 365.5,-470.5 236.5,-470.5"/>
<text text-anchor="start" x="244.5" y="-488.5" font-family="Helvetica,sans-Serif" font-size="10.00">scram::core::Probability</text>
<text text-anchor="middle" x="301" y="-477.5" font-family="Helvetica,sans-Serif" font-size="10.00">AnalyzerBase::graph</text>
</a>
</g>
</g>
<!-- Node1&#45;&gt;Node5 -->
<g id="edge4" class="edge"><title>Node1&#45;&gt;Node5</title>
<path fill="none" stroke="midnightblue" d="M98.4608,-342.105C117.441,-372.921 157.436,-430.679 207,-461.5 213.133,-465.314 219.853,-468.524 226.786,-471.226"/>
<polygon fill="midnightblue" stroke="midnightblue" points="225.741,-474.569 236.336,-474.604 228.076,-467.97 225.741,-474.569"/>
</g>
<!-- Node6 -->
<g id="node6" class="node"><title>Node6</title>
<g id="a_node6"><a xlink:href="classscram_1_1core_1_1NonTerminal.xhtml#a7b184b2ba68a289aae9f3737f1d13b97" target="_top" xlink:title="scram::core::NonTerminal\l::high">
<polygon fill="white" stroke="black" points="231.5,-421.5 231.5,-451.5 370.5,-451.5 370.5,-421.5 231.5,-421.5"/>
<text text-anchor="start" x="239.5" y="-439.5" font-family="Helvetica,sans-Serif" font-size="10.00">scram::core::NonTerminal</text>
<text text-anchor="middle" x="301" y="-428.5" font-family="Helvetica,sans-Serif" font-size="10.00">::high</text>
</a>
</g>
</g>
<!-- Node1&#45;&gt;Node6 -->
<g id="edge5" class="edge"><title>Node1&#45;&gt;Node6</title>
<path fill="none" stroke="midnightblue" d="M108.263,-342.215C131.128,-362.891 168.989,-394.154 207,-412.5 211.667,-414.753 216.572,-416.812 221.587,-418.692"/>
<polygon fill="midnightblue" stroke="midnightblue" points="220.741,-422.103 231.336,-422.089 223.045,-415.493 220.741,-422.103"/>
</g>
<!-- Node7 -->
<g id="node7" class="node"><title>Node7</title>
<g id="a_node7"><a xlink:href="classscram_1_1core_1_1NonTerminal.xhtml#aeeaafd82ae5890a7ec3462c68ffc8628" target="_top" xlink:title="scram::core::NonTerminal\l::index">
<polygon fill="white" stroke="black" points="231.5,-372.5 231.5,-402.5 370.5,-402.5 370.5,-372.5 231.5,-372.5"/>
<text text-anchor="start" x="239.5" y="-390.5" font-family="Helvetica,sans-Serif" font-size="10.00">scram::core::NonTerminal</text>
<text text-anchor="middle" x="301" y="-379.5" font-family="Helvetica,sans-Serif" font-size="10.00">::index</text>
</a>
</g>
</g>
<!-- Node1&#45;&gt;Node7 -->
<g id="edge6" class="edge"><title>Node1&#45;&gt;Node7</title>
<path fill="none" stroke="midnightblue" d="M144.477,-342.083C164.226,-348.865 186.493,-356.262 207,-362.5 215.048,-364.948 223.524,-367.399 231.95,-369.758"/>
<polygon fill="midnightblue" stroke="midnightblue" points="231.219,-373.187 241.79,-372.479 233.084,-366.44 231.219,-373.187"/>
</g>
<!-- Node8 -->
<g id="node8" class="node"><title>Node8</title>
<g id="a_node8"><a xlink:href="classscram_1_1core_1_1NonTerminal.xhtml#adeb100923176ebd5f820c75b79280796" target="_top" xlink:title="scram::core::NonTerminal::low">
<polygon fill="white" stroke="black" points="221,-334 221,-353 381,-353 381,-334 221,-334"/>
<text text-anchor="middle" x="301" y="-341" font-family="Helvetica,sans-Serif" font-size="10.00">scram::core::NonTerminal::low</text>
</a>
</g>
</g>
<!-- Node1&#45;&gt;Node8 -->
<g id="edge7" class="edge"><title>Node1&#45;&gt;Node8</title>
<path fill="none" stroke="midnightblue" d="M171.187,-330.227C184.269,-331.575 197.812,-332.97 210.984,-334.327"/>
<polygon fill="midnightblue" stroke="midnightblue" points="210.665,-337.813 220.971,-335.357 211.383,-330.85 210.665,-337.813"/>
</g>
<!-- Node9 -->
<g id="node9" class="node"><title>Node9</title>
<g id="a_node9"><a xlink:href="classscram_1_1core_1_1NonTerminal.xhtml#a7b70ab1b978f3197458c95e0891fd79c" target="_top" xlink:title="scram::core::NonTerminal\l::mark">
<polygon fill="white" stroke="black" points="231.5,-284.5 231.5,-314.5 370.5,-314.5 370.5,-284.5 231.5,-284.5"/>
<text text-anchor="start" x="239.5" y="-302.5" font-family="Helvetica,sans-Serif" font-size="10.00">scram::core::NonTerminal</text>
<text text-anchor="middle" x="301" y="-291.5" font-family="Helvetica,sans-Serif" font-size="10.00">::mark</text>
</a>
</g>
</g>
<!-- Node1&#45;&gt;Node9 -->
<g id="edge8" class="edge"><title>Node1&#45;&gt;Node9</title>
<path fill="none" stroke="midnightblue" d="M171.187,-312.773C187.674,-311.075 204.894,-309.3 221.182,-307.622"/>
<polygon fill="midnightblue" stroke="midnightblue" points="221.599,-311.097 231.188,-306.591 220.881,-304.134 221.599,-311.097"/>
</g>
<!-- Node10 -->
<g id="node10" class="node"><title>Node10</title>
<g id="a_node10"><a xlink:href="classscram_1_1core_1_1NonTerminal.xhtml#a9230422e92d086c34f67bcb864bfc8a9" target="_top" xlink:title="scram::core::NonTerminal\l::module">
<polygon fill="white" stroke="black" points="231.5,-235.5 231.5,-265.5 370.5,-265.5 370.5,-235.5 231.5,-235.5"/>
<text text-anchor="start" x="239.5" y="-253.5" font-family="Helvetica,sans-Serif" font-size="10.00">scram::core::NonTerminal</text>
<text text-anchor="middle" x="301" y="-242.5" font-family="Helvetica,sans-Serif" font-size="10.00">::module</text>
</a>
</g>
</g>
<!-- Node1&#45;&gt;Node10 -->
<g id="edge9" class="edge"><title>Node1&#45;&gt;Node10</title>
<path fill="none" stroke="midnightblue" d="M136.806,-300.981C158.259,-292.574 183.676,-283.065 207,-275.5 214.575,-273.043 222.551,-270.635 230.517,-268.342"/>
<polygon fill="midnightblue" stroke="midnightblue" points="231.527,-271.694 240.199,-265.608 229.625,-264.957 231.527,-271.694"/>
</g>
<!-- Node11 -->
<g id="node11" class="node"><title>Node11</title>
<g id="a_node11"><a xlink:href="classscram_1_1core_1_1Ite.xhtml#ac059e4ac83547ef311c55b7ab1954a57" target="_top" xlink:title="scram::core::Ite::p">
<polygon fill="white" stroke="black" points="249,-197 249,-216 353,-216 353,-197 249,-197"/>
<text text-anchor="middle" x="301" y="-204" font-family="Helvetica,sans-Serif" font-size="10.00">scram::core::Ite::p</text>
</a>
</g>
</g>
<!-- Node1&#45;&gt;Node11 -->
<g id="edge10" class="edge"><title>Node1&#45;&gt;Node11</title>
<path fill="none" stroke="midnightblue" d="M106.685,-300.716C129.132,-278.855 167.467,-245.098 207,-226.5 216.954,-221.817 228.024,-218.217 238.956,-215.454"/>
<polygon fill="midnightblue" stroke="midnightblue" points="239.969,-218.812 248.92,-213.144 238.388,-211.993 239.969,-218.812"/>
</g>
<!-- Node12 -->
<g id="node12" class="node"><title>Node12</title>
<g id="a_node12"><a xlink:href="classscram_1_1core_1_1ProbabilityAnalyzerBase.xhtml#a509947ba8cc81815779840c27c5bba09" target="_top" xlink:title="scram::core::Probability\lAnalyzerBase::p_vars">
<polygon fill="white" stroke="black" points="236.5,-147.5 236.5,-177.5 365.5,-177.5 365.5,-147.5 236.5,-147.5"/>
<text text-anchor="start" x="244.5" y="-165.5" font-family="Helvetica,sans-Serif" font-size="10.00">scram::core::Probability</text>
<text text-anchor="middle" x="301" y="-154.5" font-family="Helvetica,sans-Serif" font-size="10.00">AnalyzerBase::p_vars</text>
</a>
</g>
</g>
<!-- Node1&#45;&gt;Node12 -->
<g id="edge11" class="edge"><title>Node1&#45;&gt;Node12</title>
<path fill="none" stroke="midnightblue" d="M99.3646,-300.871C118.929,-271.239 159.004,-216.96 207,-187.5 213.172,-183.712 219.917,-180.49 226.865,-177.751"/>
<polygon fill="midnightblue" stroke="midnightblue" points="228.208,-180.988 236.431,-174.308 225.837,-174.402 228.208,-180.988"/>
</g>
<!-- Node13 -->
<g id="node13" class="node"><title>Node13</title>
<g id="a_node13"><a xlink:href="structscram_1_1core_1_1IntrusivePtrCast.xhtml#af153c12dc6133b7d9f9b7a57bba29f1d" target="_top" xlink:title="scram::core::IntrusivePtr\lCast\&lt; Ite \&gt;::Ref">
<polygon fill="white" stroke="black" points="234,-98.5 234,-128.5 368,-128.5 368,-98.5 234,-98.5"/>
<text text-anchor="start" x="242" y="-116.5" font-family="Helvetica,sans-Serif" font-size="10.00">scram::core::IntrusivePtr</text>
<text text-anchor="middle" x="301" y="-105.5" font-family="Helvetica,sans-Serif" font-size="10.00">Cast&lt; Ite &gt;::Ref</text>
</a>
</g>
</g>
<!-- Node1&#45;&gt;Node13 -->
<g id="edge12" class="edge"><title>Node1&#45;&gt;Node13</title>
<path fill="none" stroke="midnightblue" d="M94.2269,-300.925C109.615,-262.821 147.793,-181.266 207,-138.5 212.248,-134.71 218.035,-131.494 224.08,-128.766"/>
<polygon fill="midnightblue" stroke="midnightblue" points="225.782,-131.853 233.748,-124.867 223.165,-125.361 225.782,-131.853"/>
</g>
<!-- Node14 -->
<g id="node14" class="node"><title>Node14</title>
<g id="a_node14"><a xlink:href="classscram_1_1core_1_1Analysis.xhtml#ab04a96c555ba726368fa3868a8701610" target="_top" xlink:title="scram::core::Analysis\l::settings">
<polygon fill="white" stroke="black" points="241.5,-49.5 241.5,-79.5 360.5,-79.5 360.5,-49.5 241.5,-49.5"/>
<text text-anchor="start" x="249.5" y="-67.5" font-family="Helvetica,sans-Serif" font-size="10.00">scram::core::Analysis</text>
<text text-anchor="middle" x="301" y="-56.5" font-family="Helvetica,sans-Serif" font-size="10.00">::settings</text>
</a>
</g>
</g>
<!-- Node1&#45;&gt;Node14 -->
<g id="edge13" class="edge"><title>Node1&#45;&gt;Node14</title>
<path fill="none" stroke="midnightblue" d="M91.2059,-300.877C102.671,-255.438 136.433,-146.236 207,-89.5 214.272,-83.653 222.794,-79.1672 231.675,-75.727"/>
<polygon fill="midnightblue" stroke="midnightblue" points="233.086,-78.9434 241.41,-72.3895 230.815,-72.3217 233.086,-78.9434"/>
</g>
<!-- Node15 -->
<g id="node15" class="node"><title>Node15</title>
<g id="a_node15"><a xlink:href="classscram_1_1core_1_1FaultTreeAnalysis.xhtml#a92d788d624b1d726fadf51960af052a9" target="_top" xlink:title="scram::core::FaultTreeAnalysis\l::top_event">
<polygon fill="white" stroke="black" points="220.5,-0.5 220.5,-30.5 381.5,-30.5 381.5,-0.5 220.5,-0.5"/>
<text text-anchor="start" x="228.5" y="-18.5" font-family="Helvetica,sans-Serif" font-size="10.00">scram::core::FaultTreeAnalysis</text>
<text text-anchor="middle" x="301" y="-7.5" font-family="Helvetica,sans-Serif" font-size="10.00">::top_event</text>
</a>
</g>
</g>
<!-- Node1&#45;&gt;Node15 -->
<g id="edge14" class="edge"><title>Node1&#45;&gt;Node15</title>
<path fill="none" stroke="midnightblue" d="M89.1514,-300.972C96.967,-249.089 124.773,-111.772 207,-40.5 208.796,-38.943 210.68,-37.4818 212.636,-36.1106"/>
<polygon fill="midnightblue" stroke="midnightblue" points="214.891,-38.836 221.626,-30.6569 211.261,-32.8512 214.891,-38.836"/>
</g>
</g>
</svg>
        <g id="navigator" transform="translate(0 0)" fill="#404254">
                <rect fill="#f2f5e9" fill-opacity="0.5" stroke="#606060" stroke-width=".5" x="0" y="0" width="60" height="60"/>
                <use id="zoomplus" xlink:href="#zoomPlus" x="17" y="9" onmousedown="handleZoom(evt,'in')"/>
                <use id="zoomminus" xlink:href="#zoomMin" x="42" y="9" onmousedown="handleZoom(evt,'out')"/>
                <use id="reset" xlink:href="#resetDef" x="30" y="36" onmousedown="handleReset()"/>
                <g id="arrowUp" xlink:href="#dirArrow" transform="translate(30 24)" onmousedown="handlePan(0,-1)">
                  <use xlink:href="#rim" fill="#404040">
                        <set attributeName="fill" to="#808080" begin="arrowUp.mouseover" end="arrowUp.mouseout"/>
                  </use>
                  <path fill="none" stroke="white" stroke-width="1.5" d="M0,-3.0v7 M-2.5,-0.5L0,-3.0L2.5,-0.5"/>
                </g>
                <g id="arrowRight" xlink:href="#dirArrow" transform="rotate(90) translate(36 -43)" onmousedown="handlePan(1,0)">
                  <use xlink:href="#rim" fill="#404040">
                        <set attributeName="fill" to="#808080" begin="arrowRight.mouseover" end="arrowRight.mouseout"/>
                  </use>
                  <path fill="none" stroke="white" stroke-width="1.5" d="M0,-3.0v7 M-2.5,-0.5L0,-3.0L2.5,-0.5"/>
                </g>
                <g id="arrowDown" xlink:href="#dirArrow" transform="rotate(180) translate(-30 -48)" onmousedown="handlePan(0,1)">
                  <use xlink:href="#rim" fill="#404040">
                        <set attributeName="fill" to="#808080" begin="arrowDown.mouseover" end="arrowDown.mouseout"/>
                  </use>
                  <path fill="none" stroke="white" stroke-width="1.5" d="M0,-3.0v7 M-2.5,-0.5L0,-3.0L2.5,-0.5"/>
                </g>
                <g id="arrowLeft" xlink:href="#dirArrow" transform="rotate(270) translate(-36 17)" onmousedown="handlePan(-1,0)">
                  <use xlink:href="#rim" fill="#404040">
                        <set attributeName="fill" to="#808080" begin="arrowLeft.mouseover" end="arrowLeft.mouseout"/>
                  </use>
                  <path fill="none" stroke="white" stroke-width="1.5" d="M0,-3.0v7 M-2.5,-0.5L0,-3.0L2.5,-0.5"/>
                </g>
        </g>
        <svg viewBox="0 0 15 15" width="100%" height="30px" preserveAspectRatio="xMaxYMin meet">
         <g id="arrow_out" transform="scale(0.3 0.3)">
          <a xlink:href="classscram_1_1core_1_1ProbabilityAnalyzer_3_01Bdd_01_4_a45b66605634ae60f1c00e3ac469a7c7a_cgraph_org.svg" target="_base">
           <rect id="button" ry="5" rx="5" y="6" x="6" height="38" width="38"
                fill="#f2f5e9" fill-opacity="0.5" stroke="#606060" stroke-width="1.0"/>
           <path id="arrow"
             d="M 11.500037,31.436501 C 11.940474,20.09759 22.043105,11.32322 32.158766,21.979434 L 37.068811,17.246167 C 37.068811,17.246167 37.088388,32 37.088388,32 L 22.160133,31.978069 C 22.160133,31.978069 26.997745,27.140456 26.997745,27.140456 C 18.528582,18.264221 13.291696,25.230495 11.500037,31.436501 z"
             style="fill:#404040;"/>
          </a>
         </g>
        </svg>
</svg>
