<?xml version="1.0" encoding="UTF-8" standalone="no"?>
<!DOCTYPE svg PUBLIC "-//W3C//DTD SVG 1.1//EN"
 "http://www.w3.org/Graphics/SVG/1.1/DTD/svg11.dtd">
<!-- Generated by graphviz version 2.38.0 (20140413.2041)
 -->
<!-- Title: scram::core::ImportanceAnalysis::Analyze Pages: 1 -->
<svg width="405pt" height="526pt"
 viewBox="0.00 0.00 405.00 526.00" xmlns="http://www.w3.org/2000/svg" xmlns:xlink="http://www.w3.org/1999/xlink">
<g id="graph0" class="graph" transform="scale(1 1) rotate(0) translate(4 522)">
<title>scram::core::ImportanceAnalysis::Analyze</title>
<polygon fill="white" stroke="none" points="-4,4 -4,-522 401,-522 401,4 -4,4"/>
<!-- Node1 -->
<g id="node1" class="node"><title>Node1</title>
<polygon fill="#bfbfbf" stroke="black" points="0,-246.5 0,-276.5 173,-276.5 173,-246.5 0,-246.5"/>
<text text-anchor="start" x="8" y="-264.5" font-family="Helvetica,sans-Serif" font-size="10.00">scram::core::ImportanceAnalysis</text>
<text text-anchor="middle" x="86.5" y="-253.5" font-family="Helvetica,sans-Serif" font-size="10.00">::Analyze</text>
</g>
<!-- Node2 -->
<g id="node2" class="node"><title>Node2</title>
<g id="a_node2"><a xlink:href="classscram_1_1core_1_1Analysis.xhtml#a1a4f345f29240b0236853641f728a103" target="_top" xlink:title="Adds time to the total analysis time. ">
<polygon fill="white" stroke="black" points="243.5,-487.5 243.5,-517.5 362.5,-517.5 362.5,-487.5 243.5,-487.5"/>
<text text-anchor="start" x="251.5" y="-505.5" font-family="Helvetica,sans-Serif" font-size="10.00">scram::core::Analysis</text>
<text text-anchor="middle" x="303" y="-494.5" font-family="Helvetica,sans-Serif" font-size="10.00">::AddAnalysisTime</text>
</a>
</g>
</g>
<!-- Node1&#45;&gt;Node2 -->
<g id="edge1" class="edge"><title>Node1&#45;&gt;Node2</title>
<path fill="none" stroke="midnightblue" d="M91.5842,-276.778C102.986,-316.394 139.009,-423.122 209,-477.5 216.272,-483.15 224.719,-487.525 233.5,-490.914"/>
<polygon fill="midnightblue" stroke="midnightblue" points="232.525,-494.28 243.12,-494.217 234.798,-487.659 232.525,-494.28"/>
</g>
<!-- Node3 -->
<g id="node3" class="node"><title>Node3</title>
<g id="a_node3"><a xlink:href="classscram_1_1core_1_1Ite.xhtml#afc14becd66d22adf37cf1177671d5a2c" target="_top" xlink:title="scram::core::Ite::complement_edge">
<polygon fill="white" stroke="black" points="209,-449 209,-468 397,-468 397,-449 209,-449"/>
<text text-anchor="middle" x="303" y="-456" font-family="Helvetica,sans-Serif" font-size="10.00">scram::core::Ite::complement_edge</text>
</a>
</g>
</g>
<!-- Node1&#45;&gt;Node3 -->
<g id="edge2" class="edge"><title>Node1&#45;&gt;Node3</title>
<path fill="none" stroke="midnightblue" d="M93.1387,-276.592C106.993,-311.45 146.215,-397.762 209,-439.5 211.972,-441.476 215.107,-443.253 218.355,-444.852"/>
<polygon fill="midnightblue" stroke="midnightblue" points="217.202,-448.166 227.772,-448.899 219.967,-441.735 217.202,-448.166"/>
</g>
<!-- Node4 -->
<g id="node4" class="node"><title>Node4</title>
<g id="a_node4"><a xlink:href="classscram_1_1core_1_1Ite.xhtml#a72ac21f2d1545dc570131867ea5396ff" target="_top" xlink:title="scram::core::Ite::factor">
<polygon fill="white" stroke="black" points="240.5,-411 240.5,-430 365.5,-430 365.5,-411 240.5,-411"/>
<text text-anchor="middle" x="303" y="-418" font-family="Helvetica,sans-Serif" font-size="10.00">scram::core::Ite::factor</text>
</a>
</g>
</g>
<!-- Node1&#45;&gt;Node4 -->
<g id="edge3" class="edge"><title>Node1&#45;&gt;Node4</title>
<path fill="none" stroke="midnightblue" d="M95.942,-276.615C113.114,-305.845 155.093,-370.004 209,-401.5 215.703,-405.416 223.088,-408.535 230.678,-411.016"/>
<polygon fill="midnightblue" stroke="midnightblue" points="229.785,-414.402 240.365,-413.831 231.739,-407.68 229.785,-414.402"/>
</g>
<!-- Node5 -->
<g id="node5" class="node"><title>Node5</title>
<g id="a_node5"><a xlink:href="classscram_1_1core_1_1NonTerminal.xhtml#a7b184b2ba68a289aae9f3737f1d13b97" target="_top" xlink:title="scram::core::NonTerminal\l::high">
<polygon fill="white" stroke="black" points="233.5,-361.5 233.5,-391.5 372.5,-391.5 372.5,-361.5 233.5,-361.5"/>
<text text-anchor="start" x="241.5" y="-379.5" font-family="Helvetica,sans-Serif" font-size="10.00">scram::core::NonTerminal</text>
<text text-anchor="middle" x="303" y="-368.5" font-family="Helvetica,sans-Serif" font-size="10.00">::high</text>
</a>
</g>
</g>
<!-- Node1&#45;&gt;Node5 -->
<g id="edge4" class="edge"><title>Node1&#45;&gt;Node5</title>
<path fill="none" stroke="midnightblue" d="M103.43,-276.723C125.44,-296.939 167.188,-332.421 209,-352.5 213.671,-354.743 218.579,-356.796 223.597,-358.67"/>
<polygon fill="midnightblue" stroke="midnightblue" points="222.755,-362.083 233.35,-362.06 225.053,-355.471 222.755,-362.083"/>
</g>
<!-- Node6 -->
<g id="node6" class="node"><title>Node6</title>
<g id="a_node6"><a xlink:href="classscram_1_1core_1_1NonTerminal.xhtml#aeeaafd82ae5890a7ec3462c68ffc8628" target="_top" xlink:title="scram::core::NonTerminal\l::index">
<polygon fill="white" stroke="black" points="233.5,-312.5 233.5,-342.5 372.5,-342.5 372.5,-312.5 233.5,-312.5"/>
<text text-anchor="start" x="241.5" y="-330.5" font-family="Helvetica,sans-Serif" font-size="10.00">scram::core::NonTerminal</text>
<text text-anchor="middle" x="303" y="-319.5" font-family="Helvetica,sans-Serif" font-size="10.00">::index</text>
</a>
</g>
</g>
<!-- Node1&#45;&gt;Node6 -->
<g id="edge5" class="edge"><title>Node1&#45;&gt;Node6</title>
<path fill="none" stroke="midnightblue" d="M130.023,-276.58C153.248,-284.63 182.579,-294.5 209,-302.5 217.051,-304.938 225.529,-307.383 233.956,-309.739"/>
<polygon fill="midnightblue" stroke="midnightblue" points="233.226,-313.168 243.797,-312.457 235.089,-306.42 233.226,-313.168"/>
</g>
<!-- Node7 -->
<g id="node7" class="node"><title>Node7</title>
<g id="a_node7"><a xlink:href="classscram_1_1core_1_1NonTerminal.xhtml#adeb100923176ebd5f820c75b79280796" target="_top" xlink:title="scram::core::NonTerminal::low">
<polygon fill="white" stroke="black" points="223,-274 223,-293 383,-293 383,-274 223,-274"/>
<text text-anchor="middle" x="303" y="-281" font-family="Helvetica,sans-Serif" font-size="10.00">scram::core::NonTerminal::low</text>
</a>
</g>
</g>
<!-- Node1&#45;&gt;Node7 -->
<g id="edge6" class="edge"><title>Node1&#45;&gt;Node7</title>
<path fill="none" stroke="midnightblue" d="M173.201,-270.29C186.092,-271.612 199.416,-272.979 212.386,-274.309"/>
<polygon fill="midnightblue" stroke="midnightblue" points="212.392,-277.828 222.697,-275.366 213.106,-270.864 212.392,-277.828"/>
</g>
<!-- Node8 -->
<g id="node8" class="node"><title>Node8</title>
<g id="a_node8"><a xlink:href="classscram_1_1core_1_1NonTerminal.xhtml#a7b70ab1b978f3197458c95e0891fd79c" target="_top" xlink:title="scram::core::NonTerminal\l::mark">
<polygon fill="white" stroke="black" points="233.5,-224.5 233.5,-254.5 372.5,-254.5 372.5,-224.5 233.5,-224.5"/>
<text text-anchor="start" x="241.5" y="-242.5" font-family="Helvetica,sans-Serif" font-size="10.00">scram::core::NonTerminal</text>
<text text-anchor="middle" x="303" y="-231.5" font-family="Helvetica,sans-Serif" font-size="10.00">::mark</text>
</a>
</g>
</g>
<!-- Node1&#45;&gt;Node8 -->
<g id="edge7" class="edge"><title>Node1&#45;&gt;Node8</title>
<path fill="none" stroke="midnightblue" d="M173.201,-252.71C189.726,-251.015 206.962,-249.247 223.253,-247.577"/>
<polygon fill="midnightblue" stroke="midnightblue" points="223.668,-251.052 233.259,-246.55 222.954,-244.089 223.668,-251.052"/>
</g>
<!-- Node9 -->
<g id="node9" class="node"><title>Node9</title>
<g id="a_node9"><a xlink:href="classscram_1_1core_1_1NonTerminal.xhtml#a9230422e92d086c34f67bcb864bfc8a9" target="_top" xlink:title="scram::core::NonTerminal\l::module">
<polygon fill="white" stroke="black" points="233.5,-175.5 233.5,-205.5 372.5,-205.5 372.5,-175.5 233.5,-175.5"/>
<text text-anchor="start" x="241.5" y="-193.5" font-family="Helvetica,sans-Serif" font-size="10.00">scram::core::NonTerminal</text>
<text text-anchor="middle" x="303" y="-182.5" font-family="Helvetica,sans-Serif" font-size="10.00">::module</text>
</a>
</g>
</g>
<!-- Node1&#45;&gt;Node9 -->
<g id="edge8" class="edge"><title>Node1&#45;&gt;Node9</title>
<path fill="none" stroke="midnightblue" d="M124.385,-246.442C148.297,-236.953 180.238,-224.785 209,-215.5 216.579,-213.053 224.557,-210.652 232.523,-208.363"/>
<polygon fill="midnightblue" stroke="midnightblue" points="233.533,-211.715 242.207,-205.632 231.633,-204.978 233.533,-211.715"/>
</g>
<!-- Node10 -->
<g id="node10" class="node"><title>Node10</title>
<g id="a_node10"><a xlink:href="classscram_1_1core_1_1NonTerminal.xhtml#af5853746ad388f479a7aa45c5d843466" target="_top" xlink:title="scram::core::NonTerminal\l::order">
<polygon fill="white" stroke="black" points="233.5,-126.5 233.5,-156.5 372.5,-156.5 372.5,-126.5 233.5,-126.5"/>
<text text-anchor="start" x="241.5" y="-144.5" font-family="Helvetica,sans-Serif" font-size="10.00">scram::core::NonTerminal</text>
<text text-anchor="middle" x="303" y="-133.5" font-family="Helvetica,sans-Serif" font-size="10.00">::order</text>
</a>
</g>
</g>
<!-- Node1&#45;&gt;Node10 -->
<g id="edge9" class="edge"><title>Node1&#45;&gt;Node10</title>
<path fill="none" stroke="midnightblue" d="M102.589,-246.346C124.275,-225.403 166.359,-187.792 209,-166.5 213.649,-164.179 218.539,-162.053 223.545,-160.109"/>
<polygon fill="midnightblue" stroke="midnightblue" points="225.063,-163.282 233.278,-156.591 222.684,-156.698 225.063,-163.282"/>
</g>
<!-- Node11 -->
<g id="node11" class="node"><title>Node11</title>
<g id="a_node11"><a xlink:href="classscram_1_1mef_1_1BasicEvent.xhtml#a91e64a6329fa4a535fd2cae3c5d4acf7" target="_top" xlink:title="scram::mef::BasicEvent::p">
<polygon fill="white" stroke="black" points="232,-88 232,-107 374,-107 374,-88 232,-88"/>
<text text-anchor="middle" x="303" y="-95" font-family="Helvetica,sans-Serif" font-size="10.00">scram::mef::BasicEvent::p</text>
</a>
</g>
</g>
<!-- Node1&#45;&gt;Node11 -->
<g id="edge10" class="edge"><title>Node1&#45;&gt;Node11</title>
<path fill="none" stroke="midnightblue" d="M95.5942,-246.462C112.446,-216.702 154.32,-150.342 209,-117.5 213.4,-114.857 218.102,-112.561 222.968,-110.567"/>
<polygon fill="midnightblue" stroke="midnightblue" points="224.298,-113.808 232.492,-107.092 221.899,-107.232 224.298,-113.808"/>
</g>
<!-- Node12 -->
<g id="node12" class="node"><title>Node12</title>
<g id="a_node12"><a xlink:href="classscram_1_1core_1_1Ite.xhtml#ac059e4ac83547ef311c55b7ab1954a57" target="_top" xlink:title="scram::core::Ite::p">
<polygon fill="white" stroke="black" points="251,-50 251,-69 355,-69 355,-50 251,-50"/>
<text text-anchor="middle" x="303" y="-57" font-family="Helvetica,sans-Serif" font-size="10.00">scram::core::Ite::p</text>
</a>
</g>
</g>
<!-- Node1&#45;&gt;Node12 -->
<g id="edge11" class="edge"><title>Node1&#45;&gt;Node12</title>
<path fill="none" stroke="midnightblue" d="M92.911,-246.255C106.403,-210.604 145.123,-121.558 209,-78.5 218.512,-72.0883 229.727,-67.7586 241.016,-64.8528"/>
<polygon fill="midnightblue" stroke="midnightblue" points="241.914,-68.2387 250.915,-62.6492 240.393,-61.4059 241.914,-68.2387"/>
</g>
<!-- Node13 -->
<g id="node13" class="node"><title>Node13</title>
<g id="a_node13"><a xlink:href="structscram_1_1core_1_1IntrusivePtrCast.xhtml#af153c12dc6133b7d9f9b7a57bba29f1d" target="_top" xlink:title="scram::core::IntrusivePtr\lCast\&lt; Ite \&gt;::Ref">
<polygon fill="white" stroke="black" points="236,-0.5 236,-30.5 370,-30.5 370,-0.5 236,-0.5"/>
<text text-anchor="start" x="244" y="-18.5" font-family="Helvetica,sans-Serif" font-size="10.00">scram::core::IntrusivePtr</text>
<text text-anchor="middle" x="303" y="-7.5" font-family="Helvetica,sans-Serif" font-size="10.00">Cast&lt; Ite &gt;::Ref</text>
</a>
</g>
</g>
<!-- Node1&#45;&gt;Node13 -->
<g id="edge12" class="edge"><title>Node1&#45;&gt;Node13</title>
<path fill="none" stroke="midnightblue" d="M91.3134,-246.459C102.266,-206.414 137.7,-96.4523 209,-40.5 214.302,-36.3392 220.241,-32.8688 226.483,-29.9747"/>
<polygon fill="midnightblue" stroke="midnightblue" points="227.896,-33.1783 235.809,-26.1334 225.23,-26.7059 227.896,-33.1783"/>
</g>
</g>
</svg>
