<?xml version="1.0" encoding="UTF-8" standalone="no"?>
<!DOCTYPE svg PUBLIC "-//W3C//DTD SVG 1.1//EN"
 "http://www.w3.org/Graphics/SVG/1.1/DTD/svg11.dtd">
<!-- Generated by graphviz version 2.38.0 (20140413.2041)
 -->
<!-- Title: scram::core::Zbdd::modules Pages: 1 -->
<svg width="294pt" height="284pt"
 viewBox="0.00 0.00 294.00 284.00" xmlns="http://www.w3.org/2000/svg" xmlns:xlink="http://www.w3.org/1999/xlink">
<g id="graph0" class="graph" transform="scale(1 1) rotate(0) translate(4 280)">
<title>scram::core::Zbdd::modules</title>
<polygon fill="white" stroke="none" points="-4,4 -4,-280 290,-280 290,4 -4,4"/>
<!-- Node1 -->
<g id="node1" class="node"><title>Node1</title>
<polygon fill="#bfbfbf" stroke="black" points="0,-122.5 0,-152.5 111,-152.5 111,-122.5 0,-122.5"/>
<text text-anchor="start" x="8" y="-140.5" font-family="Helvetica,sans-Serif" font-size="10.00">scram::core::Zbdd::</text>
<text text-anchor="middle" x="55.5" y="-129.5" font-family="Helvetica,sans-Serif" font-size="10.00">modules</text>
</g>
<!-- Node2 -->
<g id="node2" class="node"><title>Node2</title>
<g id="a_node2"><a xlink:href="classscram_1_1core_1_1NonTerminal.xhtml#adcdd0c5114aa6a1d32a03928adc07c49" target="_top" xlink:title="scram::core::NonTerminal\l\&lt; SetNode \&gt;::coherent">
<polygon fill="white" stroke="black" points="147,-245.5 147,-275.5 286,-275.5 286,-245.5 147,-245.5"/>
<text text-anchor="start" x="155" y="-263.5" font-family="Helvetica,sans-Serif" font-size="10.00">scram::core::NonTerminal</text>
<text text-anchor="middle" x="216.5" y="-252.5" font-family="Helvetica,sans-Serif" font-size="10.00">&lt; SetNode &gt;::coherent</text>
</a>
</g>
</g>
<!-- Node1&#45;&gt;Node2 -->
<g id="edge1" class="edge"><title>Node1&#45;&gt;Node2</title>
<path fill="none" stroke="midnightblue" d="M66.6966,-152.748C81.8293,-174.281 112.216,-213.531 147,-236.5 149.415,-238.095 151.949,-239.597 154.559,-241.01"/>
<polygon fill="midnightblue" stroke="midnightblue" points="153.155,-244.219 163.675,-245.475 156.234,-237.933 153.155,-244.219"/>
</g>
<!-- Node3 -->
<g id="node3" class="node"><title>Node3</title>
<g id="a_node3"><a xlink:href="classscram_1_1core_1_1NonTerminal.xhtml#a7b184b2ba68a289aae9f3737f1d13b97" target="_top" xlink:title="scram::core::NonTerminal\l\&lt; SetNode \&gt;::high">
<polygon fill="white" stroke="black" points="147,-196.5 147,-226.5 286,-226.5 286,-196.5 147,-196.5"/>
<text text-anchor="start" x="155" y="-214.5" font-family="Helvetica,sans-Serif" font-size="10.00">scram::core::NonTerminal</text>
<text text-anchor="middle" x="216.5" y="-203.5" font-family="Helvetica,sans-Serif" font-size="10.00">&lt; SetNode &gt;::high</text>
</a>
</g>
</g>
<!-- Node1&#45;&gt;Node3 -->
<g id="edge2" class="edge"><title>Node1&#45;&gt;Node3</title>
<path fill="none" stroke="midnightblue" d="M81.2767,-152.67C99.147,-163.242 124.063,-177.233 147,-187.5 151.056,-189.316 155.295,-191.086 159.588,-192.79"/>
<polygon fill="midnightblue" stroke="midnightblue" points="158.436,-196.097 169.027,-196.405 160.94,-189.56 158.436,-196.097"/>
</g>
<!-- Node4 -->
<g id="node4" class="node"><title>Node4</title>
<g id="a_node4"><a xlink:href="classscram_1_1core_1_1NonTerminal.xhtml#aeeaafd82ae5890a7ec3462c68ffc8628" target="_top" xlink:title="scram::core::NonTerminal\l\&lt; SetNode \&gt;::index">
<polygon fill="white" stroke="black" points="147,-147.5 147,-177.5 286,-177.5 286,-147.5 147,-147.5"/>
<text text-anchor="start" x="155" y="-165.5" font-family="Helvetica,sans-Serif" font-size="10.00">scram::core::NonTerminal</text>
<text text-anchor="middle" x="216.5" y="-154.5" font-family="Helvetica,sans-Serif" font-size="10.00">&lt; SetNode &gt;::index</text>
</a>
</g>
</g>
<!-- Node1&#45;&gt;Node4 -->
<g id="edge3" class="edge"><title>Node1&#45;&gt;Node4</title>
<path fill="none" stroke="midnightblue" d="M111.219,-146.104C119.483,-147.403 128.145,-148.765 136.793,-150.125"/>
<polygon fill="midnightblue" stroke="midnightblue" points="136.494,-153.621 146.916,-151.716 137.581,-146.706 136.494,-153.621"/>
</g>
<!-- Node5 -->
<g id="node5" class="node"><title>Node5</title>
<g id="a_node5"><a xlink:href="classscram_1_1core_1_1NonTerminal.xhtml#adeb100923176ebd5f820c75b79280796" target="_top" xlink:title="scram::core::NonTerminal\l\&lt; SetNode \&gt;::low">
<polygon fill="white" stroke="black" points="147,-98.5 147,-128.5 286,-128.5 286,-98.5 147,-98.5"/>
<text text-anchor="start" x="155" y="-116.5" font-family="Helvetica,sans-Serif" font-size="10.00">scram::core::NonTerminal</text>
<text text-anchor="middle" x="216.5" y="-105.5" font-family="Helvetica,sans-Serif" font-size="10.00">&lt; SetNode &gt;::low</text>
</a>
</g>
</g>
<!-- Node1&#45;&gt;Node5 -->
<g id="edge4" class="edge"><title>Node1&#45;&gt;Node5</title>
<path fill="none" stroke="midnightblue" d="M111.219,-129.241C119.483,-127.993 128.145,-126.686 136.793,-125.38"/>
<polygon fill="midnightblue" stroke="midnightblue" points="137.55,-128.806 146.916,-123.852 136.506,-121.884 137.55,-128.806"/>
</g>
<!-- Node6 -->
<g id="node6" class="node"><title>Node6</title>
<g id="a_node6"><a xlink:href="classscram_1_1core_1_1NonTerminal.xhtml#a9230422e92d086c34f67bcb864bfc8a9" target="_top" xlink:title="scram::core::NonTerminal\l\&lt; SetNode \&gt;::module">
<polygon fill="white" stroke="black" points="147,-49.5 147,-79.5 286,-79.5 286,-49.5 147,-49.5"/>
<text text-anchor="start" x="155" y="-67.5" font-family="Helvetica,sans-Serif" font-size="10.00">scram::core::NonTerminal</text>
<text text-anchor="middle" x="216.5" y="-56.5" font-family="Helvetica,sans-Serif" font-size="10.00">&lt; SetNode &gt;::module</text>
</a>
</g>
</g>
<!-- Node1&#45;&gt;Node6 -->
<g id="edge5" class="edge"><title>Node1&#45;&gt;Node6</title>
<path fill="none" stroke="midnightblue" d="M82.5558,-122.45C100.387,-112.459 124.74,-99.4086 147,-89.5 151.722,-87.3981 156.68,-85.3307 161.679,-83.3403"/>
<polygon fill="midnightblue" stroke="midnightblue" points="163.229,-86.4934 171.291,-79.6188 160.702,-79.9656 163.229,-86.4934"/>
</g>
<!-- Node7 -->
<g id="node7" class="node"><title>Node7</title>
<g id="a_node7"><a xlink:href="classscram_1_1core_1_1NonTerminal.xhtml#af5853746ad388f479a7aa45c5d843466" target="_top" xlink:title="scram::core::NonTerminal\l\&lt; SetNode \&gt;::order">
<polygon fill="white" stroke="black" points="147,-0.5 147,-30.5 286,-30.5 286,-0.5 147,-0.5"/>
<text text-anchor="start" x="155" y="-18.5" font-family="Helvetica,sans-Serif" font-size="10.00">scram::core::NonTerminal</text>
<text text-anchor="middle" x="216.5" y="-7.5" font-family="Helvetica,sans-Serif" font-size="10.00">&lt; SetNode &gt;::order</text>
</a>
</g>
</g>
<!-- Node1&#45;&gt;Node7 -->
<g id="edge6" class="edge"><title>Node1&#45;&gt;Node7</title>
<path fill="none" stroke="midnightblue" d="M67.0659,-122.277C82.419,-101.191 112.821,-63.138 147,-40.5 149.939,-38.5536 153.049,-36.7348 156.258,-35.0389"/>
<polygon fill="midnightblue" stroke="midnightblue" points="158.016,-38.0768 165.504,-30.5811 154.976,-31.7714 158.016,-38.0768"/>
</g>
</g>
</svg>
