<?xml version="1.0" encoding="UTF-8" standalone="no"?>
<!DOCTYPE svg PUBLIC "-//W3C//DTD SVG 1.1//EN"
 "http://www.w3.org/Graphics/SVG/1.1/DTD/svg11.dtd">
<!-- Generated by graphviz version 2.38.0 (20140413.2041)
 -->
<!-- Title: scram::mef::CcfEvent Pages: 1 -->
<svg width="398pt" height="866pt"
 viewBox="0.00 0.00 398.00 866.00" xmlns="http://www.w3.org/2000/svg" xmlns:xlink="http://www.w3.org/1999/xlink">
<g id="graph0" class="graph" transform="scale(1 1) rotate(0) translate(4 862)">
<title>scram::mef::CcfEvent</title>
<polygon fill="white" stroke="none" points="-4,4 -4,-862 394,-862 394,4 -4,4"/>
<!-- Node1 -->
<g id="node1" class="node"><title>Node1</title>
<polygon fill="#bfbfbf" stroke="black" points="214.5,-0.5 214.5,-79.5 333.5,-79.5 333.5,-0.5 214.5,-0.5"/>
<text text-anchor="middle" x="274" y="-67.5" font-family="Helvetica,sans-Serif" font-size="10.00">scram::mef::CcfEvent</text>
<polyline fill="none" stroke="black" points="214.5,-60.5 333.5,-60.5 "/>
<text text-anchor="middle" x="274" y="-48.5" font-family="Helvetica,sans-Serif" font-size="10.00"> </text>
<polyline fill="none" stroke="black" points="214.5,-41.5 333.5,-41.5 "/>
<text text-anchor="start" x="222.5" y="-29.5" font-family="Helvetica,sans-Serif" font-size="10.00">+ CcfEvent()</text>
<text text-anchor="start" x="222.5" y="-18.5" font-family="Helvetica,sans-Serif" font-size="10.00">+ ccf_group()</text>
<text text-anchor="start" x="222.5" y="-7.5" font-family="Helvetica,sans-Serif" font-size="10.00">+ members()</text>
</g>
<!-- Node2 -->
<g id="node2" class="node"><title>Node2</title>
<g id="a_node2"><a xlink:href="classscram_1_1mef_1_1BasicEvent.xhtml" target="_top" xlink:title="Representation of a basic event in a fault tree. ">
<polygon fill="white" stroke="black" points="209,-116.5 209,-261.5 339,-261.5 339,-116.5 209,-116.5"/>
<text text-anchor="middle" x="274" y="-249.5" font-family="Helvetica,sans-Serif" font-size="10.00">scram::mef::BasicEvent</text>
<polyline fill="none" stroke="black" points="209,-242.5 339,-242.5 "/>
<text text-anchor="start" x="217" y="-230.5" font-family="Helvetica,sans-Serif" font-size="10.00">+ kTypeString</text>
<polyline fill="none" stroke="black" points="209,-223.5 339,-223.5 "/>
<text text-anchor="start" x="217" y="-211.5" font-family="Helvetica,sans-Serif" font-size="10.00">+ ~BasicEvent()</text>
<text text-anchor="start" x="217" y="-200.5" font-family="Helvetica,sans-Serif" font-size="10.00">+ HasExpression()</text>
<text text-anchor="start" x="217" y="-189.5" font-family="Helvetica,sans-Serif" font-size="10.00">+ expression()</text>
<text text-anchor="start" x="217" y="-178.5" font-family="Helvetica,sans-Serif" font-size="10.00">+ expression()</text>
<text text-anchor="start" x="217" y="-167.5" font-family="Helvetica,sans-Serif" font-size="10.00">+ p()</text>
<text text-anchor="start" x="217" y="-156.5" font-family="Helvetica,sans-Serif" font-size="10.00">+ Validate()</text>
<text text-anchor="start" x="217" y="-145.5" font-family="Helvetica,sans-Serif" font-size="10.00">+ HasCcf()</text>
<text text-anchor="start" x="217" y="-134.5" font-family="Helvetica,sans-Serif" font-size="10.00">+ ccf_gate()</text>
<text text-anchor="start" x="217" y="-123.5" font-family="Helvetica,sans-Serif" font-size="10.00">+ ccf_gate()</text>
</a>
</g>
</g>
<!-- Node2&#45;&gt;Node1 -->
<g id="edge1" class="edge"><title>Node2&#45;&gt;Node1</title>
<path fill="none" stroke="midnightblue" d="M274,-105.954C274,-96.8992 274,-88.0195 274,-79.875"/>
<polygon fill="none" stroke="midnightblue" points="270.5,-106.222 274,-116.223 277.5,-106.223 270.5,-106.222"/>
</g>
<!-- Node3 -->
<g id="node3" class="node"><title>Node3</title>
<g id="a_node3"><a xlink:href="classscram_1_1mef_1_1Event.xhtml" target="_top" xlink:title="Abstract base class for general fault tree events. ">
<polygon fill="white" stroke="black" points="222,-298.5 222,-355.5 326,-355.5 326,-298.5 222,-298.5"/>
<text text-anchor="middle" x="274" y="-343.5" font-family="Helvetica,sans-Serif" font-size="10.00">scram::mef::Event</text>
<polyline fill="none" stroke="black" points="222,-336.5 326,-336.5 "/>
<text text-anchor="start" x="230" y="-324.5" font-family="Helvetica,sans-Serif" font-size="10.00">+ kTypeString</text>
<polyline fill="none" stroke="black" points="222,-317.5 326,-317.5 "/>
<text text-anchor="start" x="230" y="-305.5" font-family="Helvetica,sans-Serif" font-size="10.00">+ ~Event()</text>
</a>
</g>
</g>
<!-- Node3&#45;&gt;Node2 -->
<g id="edge2" class="edge"><title>Node3&#45;&gt;Node2</title>
<path fill="none" stroke="midnightblue" d="M274,-288.356C274,-279.999 274,-270.872 274,-261.656"/>
<polygon fill="none" stroke="midnightblue" points="270.5,-288.478 274,-298.478 277.5,-288.478 270.5,-288.478"/>
</g>
<!-- Node4 -->
<g id="node4" class="node"><title>Node4</title>
<g id="a_node4"><a xlink:href="classscram_1_1mef_1_1Id.xhtml" target="_top" xlink:title="Mixin class for assigning unique identifiers to elements. ">
<polygon fill="white" stroke="black" points="162.5,-392.5 162.5,-548.5 263.5,-548.5 263.5,-392.5 162.5,-392.5"/>
<text text-anchor="middle" x="213" y="-536.5" font-family="Helvetica,sans-Serif" font-size="10.00">scram::mef::Id</text>
<polyline fill="none" stroke="black" points="162.5,-529.5 263.5,-529.5 "/>
<text text-anchor="middle" x="213" y="-517.5" font-family="Helvetica,sans-Serif" font-size="10.00"> </text>
<polyline fill="none" stroke="black" points="162.5,-510.5 263.5,-510.5 "/>
<text text-anchor="start" x="170.5" y="-498.5" font-family="Helvetica,sans-Serif" font-size="10.00">+ Id()</text>
<text text-anchor="start" x="170.5" y="-487.5" font-family="Helvetica,sans-Serif" font-size="10.00">+ id()</text>
<text text-anchor="start" x="170.5" y="-476.5" font-family="Helvetica,sans-Serif" font-size="10.00">+ id_view()</text>
<text text-anchor="start" x="170.5" y="-465.5" font-family="Helvetica,sans-Serif" font-size="10.00">+ full_path()</text>
<text text-anchor="start" x="170.5" y="-454.5" font-family="Helvetica,sans-Serif" font-size="10.00">+ id()</text>
<text text-anchor="start" x="170.5" y="-443.5" font-family="Helvetica,sans-Serif" font-size="10.00">+ unique_name()</text>
<text text-anchor="start" x="170.5" y="-432.5" font-family="Helvetica,sans-Serif" font-size="10.00">+ unique_name()</text>
<text text-anchor="start" x="170.5" y="-421.5" font-family="Helvetica,sans-Serif" font-size="10.00"># ~Id()</text>
<text text-anchor="start" x="170.5" y="-410.5" font-family="Helvetica,sans-Serif" font-size="10.00">* unique_name()</text>
<text text-anchor="start" x="170.5" y="-399.5" font-family="Helvetica,sans-Serif" font-size="10.00">* unique_name()</text>
</a>
</g>
</g>
<!-- Node4&#45;&gt;Node3 -->
<g id="edge3" class="edge"><title>Node4&#45;&gt;Node3</title>
<path fill="none" stroke="midnightblue" d="M250.404,-382.735C254.58,-373.049 258.573,-363.786 262.048,-355.724"/>
<polygon fill="none" stroke="midnightblue" points="247.1,-381.557 246.356,-392.126 253.529,-384.328 247.1,-381.557"/>
</g>
<!-- Node5 -->
<g id="node5" class="node"><title>Node5</title>
<g id="a_node5"><a xlink:href="classscram_1_1mef_1_1Element.xhtml" target="_top" xlink:title="The MEF Element with attributes and a label. ">
<polygon fill="white" stroke="black" points="92.5,-585.5 92.5,-763.5 209.5,-763.5 209.5,-585.5 92.5,-585.5"/>
<text text-anchor="middle" x="151" y="-751.5" font-family="Helvetica,sans-Serif" font-size="10.00">scram::mef::Element</text>
<polyline fill="none" stroke="black" points="92.5,-744.5 209.5,-744.5 "/>
<text text-anchor="middle" x="151" y="-732.5" font-family="Helvetica,sans-Serif" font-size="10.00"> </text>
<polyline fill="none" stroke="black" points="92.5,-725.5 209.5,-725.5 "/>
<text text-anchor="start" x="100.5" y="-713.5" font-family="Helvetica,sans-Serif" font-size="10.00">+ Element()</text>
<text text-anchor="start" x="100.5" y="-702.5" font-family="Helvetica,sans-Serif" font-size="10.00">+ name()</text>
<text text-anchor="start" x="100.5" y="-691.5" font-family="Helvetica,sans-Serif" font-size="10.00">+ name_view()</text>
<text text-anchor="start" x="100.5" y="-680.5" font-family="Helvetica,sans-Serif" font-size="10.00">+ label()</text>
<text text-anchor="start" x="100.5" y="-669.5" font-family="Helvetica,sans-Serif" font-size="10.00">+ label()</text>
<text text-anchor="start" x="100.5" y="-658.5" font-family="Helvetica,sans-Serif" font-size="10.00">+ attributes()</text>
<text text-anchor="start" x="100.5" y="-647.5" font-family="Helvetica,sans-Serif" font-size="10.00">+ AddAttribute()</text>
<text text-anchor="start" x="100.5" y="-636.5" font-family="Helvetica,sans-Serif" font-size="10.00">+ SetAttribute()</text>
<text text-anchor="start" x="100.5" y="-625.5" font-family="Helvetica,sans-Serif" font-size="10.00">+ GetAttribute()</text>
<text text-anchor="start" x="100.5" y="-614.5" font-family="Helvetica,sans-Serif" font-size="10.00">+ RemoveAttribute()</text>
<text text-anchor="start" x="100.5" y="-603.5" font-family="Helvetica,sans-Serif" font-size="10.00"># ~Element()</text>
<text text-anchor="start" x="100.5" y="-592.5" font-family="Helvetica,sans-Serif" font-size="10.00"># name()</text>
</a>
</g>
</g>
<!-- Node5&#45;&gt;Node4 -->
<g id="edge4" class="edge"><title>Node5&#45;&gt;Node4</title>
<path fill="none" stroke="midnightblue" d="M181.017,-575.704C183.792,-566.662 186.578,-557.586 189.285,-548.766"/>
<polygon fill="none" stroke="midnightblue" points="177.602,-574.901 178.014,-585.487 184.294,-576.955 177.602,-574.901"/>
</g>
<!-- Node6 -->
<g id="node6" class="node"><title>Node6</title>
<g id="a_node6"><a xlink:href="classscram_1_1mef_1_1ContainerElement.xhtml" target="_top" xlink:title="Elements in MEF containers. ">
<polygon fill="white" stroke="black" points="0,-800.5 0,-857.5 164,-857.5 164,-800.5 0,-800.5"/>
<text text-anchor="middle" x="82" y="-845.5" font-family="Helvetica,sans-Serif" font-size="10.00">scram::mef::ContainerElement</text>
<polyline fill="none" stroke="black" points="0,-838.5 164,-838.5 "/>
<text text-anchor="middle" x="82" y="-826.5" font-family="Helvetica,sans-Serif" font-size="10.00"> </text>
<polyline fill="none" stroke="black" points="0,-819.5 164,-819.5 "/>
<text text-anchor="start" x="8" y="-807.5" font-family="Helvetica,sans-Serif" font-size="10.00"># container()</text>
</a>
</g>
</g>
<!-- Node6&#45;&gt;Node5 -->
<g id="edge5" class="edge"><title>Node6&#45;&gt;Node5</title>
<path fill="none" stroke="midnightblue" d="M98.6504,-791.2C102.498,-782.696 106.755,-773.288 111.129,-763.62"/>
<polygon fill="none" stroke="midnightblue" points="95.4289,-789.83 94.4954,-800.383 101.806,-792.715 95.4289,-789.83"/>
</g>
<!-- Node7 -->
<g id="node7" class="node"><title>Node7</title>
<polygon fill="white" stroke="#bfbfbf" points="182.5,-800.5 182.5,-857.5 259.5,-857.5 259.5,-800.5 182.5,-800.5"/>
<text text-anchor="middle" x="221" y="-845.5" font-family="Helvetica,sans-Serif" font-size="10.00">noncopyable</text>
<polyline fill="none" stroke="#bfbfbf" points="182.5,-838.5 259.5,-838.5 "/>
<text text-anchor="middle" x="221" y="-826.5" font-family="Helvetica,sans-Serif" font-size="10.00"> </text>
<polyline fill="none" stroke="#bfbfbf" points="182.5,-819.5 259.5,-819.5 "/>
<text text-anchor="middle" x="221" y="-807.5" font-family="Helvetica,sans-Serif" font-size="10.00"> </text>
</g>
<!-- Node7&#45;&gt;Node5 -->
<g id="edge6" class="edge"><title>Node7&#45;&gt;Node5</title>
<path fill="none" stroke="#8b1a1a" d="M204.108,-791.2C200.205,-782.696 195.887,-773.288 191.448,-763.62"/>
<polygon fill="none" stroke="#8b1a1a" points="200.971,-792.755 208.324,-800.383 207.333,-789.835 200.971,-792.755"/>
</g>
<!-- Node8 -->
<g id="node8" class="node"><title>Node8</title>
<g id="a_node8"><a xlink:href="classscram_1_1mef_1_1Role.xhtml" target="_top" xlink:title="Mixin class that manages private or public roles for elements as needed. ">
<polygon fill="white" stroke="black" points="227.5,-629.5 227.5,-719.5 324.5,-719.5 324.5,-629.5 227.5,-629.5"/>
<text text-anchor="middle" x="276" y="-707.5" font-family="Helvetica,sans-Serif" font-size="10.00">scram::mef::Role</text>
<polyline fill="none" stroke="black" points="227.5,-700.5 324.5,-700.5 "/>
<text text-anchor="middle" x="276" y="-688.5" font-family="Helvetica,sans-Serif" font-size="10.00"> </text>
<polyline fill="none" stroke="black" points="227.5,-681.5 324.5,-681.5 "/>
<text text-anchor="start" x="235.5" y="-669.5" font-family="Helvetica,sans-Serif" font-size="10.00">+ Role()</text>
<text text-anchor="start" x="235.5" y="-658.5" font-family="Helvetica,sans-Serif" font-size="10.00">+ role()</text>
<text text-anchor="start" x="235.5" y="-647.5" font-family="Helvetica,sans-Serif" font-size="10.00">+ base_path()</text>
<text text-anchor="start" x="235.5" y="-636.5" font-family="Helvetica,sans-Serif" font-size="10.00"># ~Role()</text>
</a>
</g>
</g>
<!-- Node8&#45;&gt;Node4 -->
<g id="edge7" class="edge"><title>Node8&#45;&gt;Node4</title>
<path fill="none" stroke="midnightblue" d="M259.15,-619.474C252.377,-597.757 244.442,-572.312 237.079,-548.706"/>
<polygon fill="none" stroke="midnightblue" points="255.856,-620.666 262.174,-629.17 262.538,-618.582 255.856,-620.666"/>
</g>
<!-- Node9 -->
<g id="node9" class="node"><title>Node9</title>
<g id="a_node9"><a xlink:href="classscram_1_1mef_1_1Usage.xhtml" target="_top" xlink:title="Mixin class for providing usage marks for elements. ">
<polygon fill="white" stroke="black" points="282,-431 282,-510 390,-510 390,-431 282,-431"/>
<text text-anchor="middle" x="336" y="-498" font-family="Helvetica,sans-Serif" font-size="10.00">scram::mef::Usage</text>
<polyline fill="none" stroke="black" points="282,-491 390,-491 "/>
<text text-anchor="middle" x="336" y="-479" font-family="Helvetica,sans-Serif" font-size="10.00"> </text>
<polyline fill="none" stroke="black" points="282,-472 390,-472 "/>
<text text-anchor="start" x="290" y="-460" font-family="Helvetica,sans-Serif" font-size="10.00">+ usage()</text>
<text text-anchor="start" x="290" y="-449" font-family="Helvetica,sans-Serif" font-size="10.00">+ usage()</text>
<text text-anchor="start" x="290" y="-438" font-family="Helvetica,sans-Serif" font-size="10.00"># ~Usage()</text>
</a>
</g>
</g>
<!-- Node9&#45;&gt;Node3 -->
<g id="edge8" class="edge"><title>Node9&#45;&gt;Node3</title>
<path fill="none" stroke="midnightblue" d="M314.917,-421.384C305.351,-399.552 294.377,-374.505 286.203,-355.85"/>
<polygon fill="none" stroke="midnightblue" points="311.839,-423.08 319.058,-430.835 318.251,-420.27 311.839,-423.08"/>
</g>
</g>
</svg>
