<?xml version="1.0" encoding="UTF-8" standalone="no"?>
<!DOCTYPE svg PUBLIC "-//W3C//DTD SVG 1.1//EN"
 "http://www.w3.org/Graphics/SVG/1.1/DTD/svg11.dtd">
<!-- Generated by graphviz version 2.38.0 (20140413.2041)
 -->
<!-- Title: scram::mef::Gate::formula Pages: 1 -->
<svg width="783pt" height="261pt"
 viewBox="0.00 0.00 783.00 260.50" xmlns="http://www.w3.org/2000/svg" xmlns:xlink="http://www.w3.org/1999/xlink">
<g id="graph0" class="graph" transform="scale(1 1) rotate(0) translate(4 256.5)">
<title>scram::mef::Gate::formula</title>
<polygon fill="white" stroke="none" points="-4,4 -4,-256.5 779,-256.5 779,4 -4,4"/>
<!-- Node1 -->
<g id="node1" class="node"><title>Node1</title>
<polygon fill="#bfbfbf" stroke="black" points="0,-129.5 0,-148.5 143,-148.5 143,-129.5 0,-129.5"/>
<text text-anchor="middle" x="71.5" y="-136.5" font-family="Helvetica,sans-Serif" font-size="10.00">scram::mef::Gate::formula</text>
</g>
<!-- Node2 -->
<g id="node2" class="node"><title>Node2</title>
<g id="a_node2"><a xlink:href="classscram_1_1mef_1_1FaultTree.xhtml#a9535bd49edb4598ead887faf8dadd9f2" target="_top" xlink:title="Collects top event gates in this fault tree with components. ">
<polygon fill="white" stroke="black" points="202,-222 202,-252 321,-252 321,-222 202,-222"/>
<text text-anchor="start" x="210" y="-240" font-family="Helvetica,sans-Serif" font-size="10.00">scram::mef::FaultTree</text>
<text text-anchor="middle" x="261.5" y="-229" font-family="Helvetica,sans-Serif" font-size="10.00">::CollectTopEvents</text>
</a>
</g>
</g>
<!-- Node1&#45;&gt;Node2 -->
<g id="edge1" class="edge"><title>Node1&#45;&gt;Node2</title>
<path fill="none" stroke="midnightblue" d="M91.4441,-155C111.882,-171.557 145.955,-197.167 179,-213 186.183,-216.442 193.962,-219.499 201.766,-222.182"/>
<polygon fill="midnightblue" stroke="midnightblue" points="93.5081,-152.166 83.5626,-148.514 89.0599,-157.571 93.5081,-152.166"/>
</g>
<!-- Node3 -->
<g id="node3" class="node"><title>Node3</title>
<g id="a_node3"><a xlink:href="classscram_1_1mef_1_1Initializer.xhtml#a3d457bc3c3c2794545465c7dd9364e32" target="_top" xlink:title="Specializations for elements defined after registration. ">
<polygon fill="white" stroke="black" points="202,-173 202,-203 321,-203 321,-173 202,-173"/>
<text text-anchor="start" x="210" y="-191" font-family="Helvetica,sans-Serif" font-size="10.00">scram::mef::Initializer</text>
<text text-anchor="middle" x="261.5" y="-180" font-family="Helvetica,sans-Serif" font-size="10.00">::Define</text>
</a>
</g>
</g>
<!-- Node1&#45;&gt;Node3 -->
<g id="edge2" class="edge"><title>Node1&#45;&gt;Node3</title>
<path fill="none" stroke="midnightblue" d="M118.931,-151.102C144.277,-157.708 175.889,-165.947 202.807,-172.963"/>
<polygon fill="midnightblue" stroke="midnightblue" points="119.754,-147.699 109.195,-148.564 117.989,-154.473 119.754,-147.699"/>
</g>
<!-- Node4 -->
<g id="node4" class="node"><title>Node4</title>
<g id="a_node4"><a xlink:href="classscram_1_1core_1_1EventTreeAnalysis.xhtml#a3e3404417cbdcf92474e5653ec24f936" target="_top" xlink:title="scram::core::EventTreeAnalysis\l::EventTreeAnalysis">
<polygon fill="white" stroke="black" points="179,-124 179,-154 344,-154 344,-124 179,-124"/>
<text text-anchor="start" x="187" y="-142" font-family="Helvetica,sans-Serif" font-size="10.00">scram::core::EventTreeAnalysis</text>
<text text-anchor="middle" x="261.5" y="-131" font-family="Helvetica,sans-Serif" font-size="10.00">::EventTreeAnalysis</text>
</a>
</g>
</g>
<!-- Node1&#45;&gt;Node4 -->
<g id="edge3" class="edge"><title>Node1&#45;&gt;Node4</title>
<path fill="none" stroke="midnightblue" d="M153.269,-139C161.73,-139 170.338,-139 178.809,-139"/>
<polygon fill="midnightblue" stroke="midnightblue" points="153.039,-135.5 143.039,-139 153.039,-142.5 153.039,-135.5"/>
</g>
<!-- Node5 -->
<g id="node5" class="node"><title>Node5</title>
<g id="a_node5"><a xlink:href="cycle_8h.xhtml#a5e9e5b23ea9b3c45f67cb2c004ece82c" target="_top" xlink:title="Determines the connectors between nodes. ">
<polygon fill="white" stroke="black" points="208,-57 208,-87 315,-87 315,-57 208,-57"/>
<text text-anchor="start" x="216" y="-75" font-family="Helvetica,sans-Serif" font-size="10.00">scram::mef::cycle::</text>
<text text-anchor="middle" x="261.5" y="-64" font-family="Helvetica,sans-Serif" font-size="10.00">GetConnector</text>
</a>
</g>
</g>
<!-- Node1&#45;&gt;Node5 -->
<g id="edge4" class="edge"><title>Node1&#45;&gt;Node5</title>
<path fill="none" stroke="midnightblue" d="M109.088,-125.961C140.412,-114.797 185.52,-98.7216 218.349,-87.0218"/>
<polygon fill="midnightblue" stroke="midnightblue" points="107.681,-122.747 99.4358,-129.401 110.03,-129.34 107.681,-122.747"/>
</g>
<!-- Node10 -->
<g id="node10" class="node"><title>Node10</title>
<g id="a_node10"><a xlink:href="serialization_8cc.xhtml#a83f7058a5caad9ec3ffb5fd6c7d7b8f6" target="_top" xlink:title="Convenience function for serialization into a file. ">
<polygon fill="white" stroke="black" points="202.5,-0.5 202.5,-19.5 320.5,-19.5 320.5,-0.5 202.5,-0.5"/>
<text text-anchor="middle" x="261.5" y="-7.5" font-family="Helvetica,sans-Serif" font-size="10.00">scram::mef::Serialize</text>
</a>
</g>
</g>
<!-- Node1&#45;&gt;Node10 -->
<g id="edge13" class="edge"><title>Node1&#45;&gt;Node10</title>
<path fill="none" stroke="midnightblue" d="M89.2001,-122.186C109.253,-102.626 144.513,-70.1872 179,-48 196.856,-36.5125 218.741,-26.5058 235.336,-19.6487"/>
<polygon fill="midnightblue" stroke="midnightblue" points="86.7123,-119.723 82.0557,-129.24 91.6306,-124.704 86.7123,-119.723"/>
</g>
<!-- Node5&#45;&gt;Node5 -->
<g id="edge12" class="edge"><title>Node5&#45;&gt;Node5</title>
<path fill="none" stroke="midnightblue" d="M230.938,-97.4579C234.731,-102.179 244.918,-105.5 261.5,-105.5 288.711,-105.5 298.702,-96.5566 291.475,-87.159"/>
<polygon fill="midnightblue" stroke="midnightblue" points="234.45,-97.3422 231.525,-87.159 227.461,-96.9433 234.45,-97.3422"/>
</g>
<!-- Node6 -->
<g id="node6" class="node"><title>Node6</title>
<g id="a_node6"><a xlink:href="cycle_8h.xhtml#ac003a658a591ba3581a74b4322df67cb" target="_top" xlink:title="Traverses nodes with connectors to find a cycle. ">
<polygon fill="white" stroke="black" points="380,-57 380,-87 487,-87 487,-57 380,-57"/>
<text text-anchor="start" x="388" y="-75" font-family="Helvetica,sans-Serif" font-size="10.00">scram::mef::cycle::</text>
<text text-anchor="middle" x="433.5" y="-64" font-family="Helvetica,sans-Serif" font-size="10.00">DetectCycle</text>
</a>
</g>
</g>
<!-- Node5&#45;&gt;Node6 -->
<g id="edge5" class="edge"><title>Node5&#45;&gt;Node6</title>
<path fill="none" stroke="midnightblue" d="M325.441,-72C343.377,-72 362.722,-72 379.968,-72"/>
<polygon fill="midnightblue" stroke="midnightblue" points="325.357,-68.5001 315.357,-72 325.357,-75.5001 325.357,-68.5001"/>
</g>
<!-- Node6&#45;&gt;Node6 -->
<g id="edge11" class="edge"><title>Node6&#45;&gt;Node6</title>
<path fill="none" stroke="midnightblue" d="M407.913,-97.4579C411.089,-102.179 419.618,-105.5 433.5,-105.5 456.281,-105.5 464.646,-96.5566 458.595,-87.159"/>
<polygon fill="midnightblue" stroke="midnightblue" points="411.424,-97.3147 408.405,-87.159 404.432,-96.9805 411.424,-97.3147"/>
</g>
<!-- Node7 -->
<g id="node7" class="node"><title>Node7</title>
<g id="a_node7"><a xlink:href="cycle_8h.xhtml#a8ff9fbf65ad4582369783058a9dec0fc" target="_top" xlink:title="Checks for cycles in a model constructs. ">
<polygon fill="white" stroke="black" points="524,-91 524,-121 631,-121 631,-91 524,-91"/>
<text text-anchor="start" x="532" y="-109" font-family="Helvetica,sans-Serif" font-size="10.00">scram::mef::cycle::</text>
<text text-anchor="middle" x="577.5" y="-98" font-family="Helvetica,sans-Serif" font-size="10.00">CheckCycle</text>
</a>
</g>
</g>
<!-- Node6&#45;&gt;Node7 -->
<g id="edge6" class="edge"><title>Node6&#45;&gt;Node7</title>
<path fill="none" stroke="midnightblue" d="M497.21,-87.0151C506.012,-89.1225 514.985,-91.2711 523.58,-93.3291"/>
<polygon fill="midnightblue" stroke="midnightblue" points="497.916,-83.5852 487.376,-84.6603 496.286,-90.3928 497.916,-83.5852"/>
</g>
<!-- Node8 -->
<g id="node8" class="node"><title>Node8</title>
<g id="a_node8"><a xlink:href="cycle_8cc.xhtml#aadcc06d587ab75cf72d05c8ef7dc8fee" target="_top" xlink:title="Cycle detection specialization for event tree named branches. ">
<polygon fill="white" stroke="black" points="523,-24 523,-54 632,-54 632,-24 523,-24"/>
<text text-anchor="start" x="531" y="-42" font-family="Helvetica,sans-Serif" font-size="10.00">scram::mef::cycle::</text>
<text text-anchor="middle" x="577.5" y="-31" font-family="Helvetica,sans-Serif" font-size="10.00">ContinueConnector</text>
</a>
</g>
</g>
<!-- Node6&#45;&gt;Node8 -->
<g id="edge8" class="edge"><title>Node6&#45;&gt;Node8</title>
<path fill="none" stroke="midnightblue" d="M497.221,-57.4239C505.696,-55.4544 514.33,-53.4478 522.632,-51.5185"/>
<polygon fill="midnightblue" stroke="midnightblue" points="496.324,-54.0392 487.376,-59.712 497.908,-60.8575 496.324,-54.0392"/>
</g>
<!-- Node7&#45;&gt;Node7 -->
<g id="edge7" class="edge"><title>Node7&#45;&gt;Node7</title>
<path fill="none" stroke="midnightblue" d="M551.913,-131.458C555.089,-136.179 563.618,-139.5 577.5,-139.5 600.281,-139.5 608.646,-130.557 602.595,-121.159"/>
<polygon fill="midnightblue" stroke="midnightblue" points="555.424,-131.315 552.405,-121.159 548.432,-130.981 555.424,-131.315"/>
</g>
<!-- Node8&#45;&gt;Node8 -->
<g id="edge9" class="edge"><title>Node8&#45;&gt;Node8</title>
<path fill="none" stroke="midnightblue" d="M551.913,-64.4579C555.089,-69.179 563.618,-72.5 577.5,-72.5 600.281,-72.5 608.646,-63.5566 602.595,-54.159"/>
<polygon fill="midnightblue" stroke="midnightblue" points="555.424,-64.3147 552.405,-54.159 548.432,-63.9805 555.424,-64.3147"/>
</g>
<!-- Node9 -->
<g id="node9" class="node"><title>Node9</title>
<g id="a_node9"><a xlink:href="cycle_8h.xhtml#aeed4b968387a7629985a8d3d9528c4e0" target="_top" xlink:title="Retrieves connectors from a connector. ">
<polygon fill="white" stroke="black" points="668,-24 668,-54 775,-54 775,-24 668,-24"/>
<text text-anchor="start" x="676" y="-42" font-family="Helvetica,sans-Serif" font-size="10.00">scram::mef::cycle::</text>
<text text-anchor="middle" x="721.5" y="-31" font-family="Helvetica,sans-Serif" font-size="10.00">GetConnectors</text>
</a>
</g>
</g>
<!-- Node8&#45;&gt;Node9 -->
<g id="edge10" class="edge"><title>Node8&#45;&gt;Node9</title>
<path fill="none" stroke="midnightblue" d="M642.397,-39C650.851,-39 659.441,-39 667.681,-39"/>
<polygon fill="midnightblue" stroke="midnightblue" points="642.184,-35.5001 632.184,-39 642.184,-42.5001 642.184,-35.5001"/>
</g>
<!-- Node10&#45;&gt;Node10 -->
<g id="edge14" class="edge"><title>Node10&#45;&gt;Node10</title>
<path fill="none" stroke="midnightblue" d="M229.314,-28.2746C230.232,-33.741 240.961,-38 261.5,-38 292.07,-38 300.907,-28.5653 288.01,-19.7571"/>
<polygon fill="midnightblue" stroke="midnightblue" points="232.357,-30.0197 234.99,-19.7571 226.532,-26.1381 232.357,-30.0197"/>
</g>
</g>
</svg>
