<?xml version="1.0" encoding="UTF-8" standalone="no"?>
<!DOCTYPE svg PUBLIC "-//W3C//DTD SVG 1.1//EN"
 "http://www.w3.org/Graphics/SVG/1.1/DTD/svg11.dtd">
<!-- Generated by graphviz version 2.38.0 (20140413.2041)
 -->
<!-- Title: scram::mef::Glm Pages: 1 -->
<svg width="285pt" height="632pt"
 viewBox="0.00 0.00 284.50 632.00" xmlns="http://www.w3.org/2000/svg" xmlns:xlink="http://www.w3.org/1999/xlink">
<g id="graph0" class="graph" transform="scale(1 1) rotate(0) translate(4 628)">
<title>scram::mef::Glm</title>
<polygon fill="white" stroke="none" points="-4,4 -4,-628 280.5,-628 280.5,4 -4,4"/>
<!-- Node1 -->
<g id="node1" class="node"><title>Node1</title>
<polygon fill="#bfbfbf" stroke="black" points="43,-0.5 43,-123.5 140,-123.5 140,-0.5 43,-0.5"/>
<text text-anchor="middle" x="91.5" y="-111.5" font-family="Helvetica,sans-Serif" font-size="10.00">scram::mef::Glm</text>
<polyline fill="none" stroke="black" points="43,-104.5 140,-104.5 "/>
<text text-anchor="middle" x="91.5" y="-92.5" font-family="Helvetica,sans-Serif" font-size="10.00"> </text>
<polyline fill="none" stroke="black" points="43,-85.5 140,-85.5 "/>
<text text-anchor="start" x="51" y="-73.5" font-family="Helvetica,sans-Serif" font-size="10.00">+ Glm()</text>
<text text-anchor="start" x="51" y="-62.5" font-family="Helvetica,sans-Serif" font-size="10.00">+ Validate()</text>
<text text-anchor="start" x="51" y="-51.5" font-family="Helvetica,sans-Serif" font-size="10.00">+ interval()</text>
<text text-anchor="start" x="51" y="-40.5" font-family="Helvetica,sans-Serif" font-size="10.00">+ Compute()</text>
<text text-anchor="start" x="51" y="-29.5" font-family="Helvetica,sans-Serif" font-size="10.00">+ Compute()</text>
<text text-anchor="start" x="51" y="-18.5" font-family="Helvetica,sans-Serif" font-size="10.00">* Compute()</text>
<text text-anchor="start" x="51" y="-7.5" font-family="Helvetica,sans-Serif" font-size="10.00">* Compute()</text>
</g>
<!-- Node2 -->
<g id="node2" class="node"><title>Node2</title>
<g id="a_node2"><a xlink:href="classscram_1_1mef_1_1ExpressionFormula.xhtml" target="_top" xlink:title="{scram::mef::ExpressionFormula\l\&lt; Glm \&gt;\n||+ value()\l}">
<polygon fill="white" stroke="black" points="7.5,-161.5 7.5,-229.5 175.5,-229.5 175.5,-161.5 7.5,-161.5"/>
<text text-anchor="start" x="15.5" y="-217.5" font-family="Helvetica,sans-Serif" font-size="10.00">scram::mef::ExpressionFormula</text>
<text text-anchor="middle" x="91.5" y="-206.5" font-family="Helvetica,sans-Serif" font-size="10.00">&lt; Glm &gt;</text>
<polyline fill="none" stroke="black" points="7.5,-199.5 175.5,-199.5 "/>
<text text-anchor="middle" x="91.5" y="-187.5" font-family="Helvetica,sans-Serif" font-size="10.00"> </text>
<polyline fill="none" stroke="black" points="7.5,-180.5 175.5,-180.5 "/>
<text text-anchor="start" x="15.5" y="-168.5" font-family="Helvetica,sans-Serif" font-size="10.00">+ value()</text>
</a>
</g>
</g>
<!-- Node2&#45;&gt;Node1 -->
<g id="edge1" class="edge"><title>Node2&#45;&gt;Node1</title>
<path fill="none" stroke="midnightblue" d="M91.5,-151.248C91.5,-142.389 91.5,-132.91 91.5,-123.572"/>
<polygon fill="none" stroke="midnightblue" points="88.0001,-151.317 91.5,-161.317 95.0001,-151.317 88.0001,-151.317"/>
</g>
<!-- Node3 -->
<g id="node3" class="node"><title>Node3</title>
<g id="a_node3"><a xlink:href="classscram_1_1mef_1_1Expression.xhtml" target="_top" xlink:title="Abstract base class for all sorts of expressions to describe events. ">
<polygon fill="white" stroke="black" points="0,-372.5 0,-528.5 129,-528.5 129,-372.5 0,-372.5"/>
<text text-anchor="middle" x="64.5" y="-516.5" font-family="Helvetica,sans-Serif" font-size="10.00">scram::mef::Expression</text>
<polyline fill="none" stroke="black" points="0,-509.5 129,-509.5 "/>
<text text-anchor="middle" x="64.5" y="-497.5" font-family="Helvetica,sans-Serif" font-size="10.00"> </text>
<polyline fill="none" stroke="black" points="0,-490.5 129,-490.5 "/>
<text text-anchor="start" x="8" y="-478.5" font-family="Helvetica,sans-Serif" font-size="10.00">+ Expression()</text>
<text text-anchor="start" x="8" y="-467.5" font-family="Helvetica,sans-Serif" font-size="10.00">+ ~Expression()</text>
<text text-anchor="start" x="8" y="-456.5" font-family="Helvetica,sans-Serif" font-size="10.00">+ args()</text>
<text text-anchor="start" x="8" y="-445.5" font-family="Helvetica,sans-Serif" font-size="10.00">+ Validate()</text>
<text text-anchor="start" x="8" y="-434.5" font-family="Helvetica,sans-Serif" font-size="10.00">+ value()</text>
<text text-anchor="start" x="8" y="-423.5" font-family="Helvetica,sans-Serif" font-size="10.00">+ interval()</text>
<text text-anchor="start" x="8" y="-412.5" font-family="Helvetica,sans-Serif" font-size="10.00">+ IsDeviate()</text>
<text text-anchor="start" x="8" y="-401.5" font-family="Helvetica,sans-Serif" font-size="10.00">+ Sample()</text>
<text text-anchor="start" x="8" y="-390.5" font-family="Helvetica,sans-Serif" font-size="10.00">+ Reset()</text>
<text text-anchor="start" x="8" y="-379.5" font-family="Helvetica,sans-Serif" font-size="10.00"># AddArg()</text>
</a>
</g>
</g>
<!-- Node3&#45;&gt;Node2 -->
<g id="edge2" class="edge"><title>Node3&#45;&gt;Node2</title>
<path fill="none" stroke="midnightblue" d="M64.611,-362.017C65.5659,-334.684 67.5684,-304.494 71.5,-277 73.7424,-261.319 77.7504,-244.251 81.5926,-229.883"/>
<polygon fill="none" stroke="midnightblue" points="61.1027,-362.239 64.2945,-372.341 68.0994,-362.453 61.1027,-362.239"/>
</g>
<!-- Node5 -->
<g id="node5" class="node"><title>Node5</title>
<g id="a_node5"><a xlink:href="classscram_1_1mef_1_1ExpressionFormula.xhtml" target="_top" xlink:title="CRTP for Expressions with the same formula to evaluate and sample. ">
<polygon fill="white" stroke="black" points="80.5,-277.5 80.5,-334.5 276.5,-334.5 276.5,-277.5 80.5,-277.5"/>
<text text-anchor="middle" x="178.5" y="-322.5" font-family="Helvetica,sans-Serif" font-size="10.00">scram::mef::ExpressionFormula&lt; T &gt;</text>
<polyline fill="none" stroke="black" points="80.5,-315.5 276.5,-315.5 "/>
<text text-anchor="middle" x="178.5" y="-303.5" font-family="Helvetica,sans-Serif" font-size="10.00"> </text>
<polyline fill="none" stroke="black" points="80.5,-296.5 276.5,-296.5 "/>
<text text-anchor="start" x="88.5" y="-284.5" font-family="Helvetica,sans-Serif" font-size="10.00">+ value()</text>
</a>
</g>
</g>
<!-- Node3&#45;&gt;Node5 -->
<g id="edge5" class="edge"><title>Node3&#45;&gt;Node5</title>
<path fill="none" stroke="midnightblue" d="M132.466,-364.542C141.044,-353.821 149.277,-343.529 156.349,-334.689"/>
<polygon fill="none" stroke="midnightblue" points="129.685,-362.416 126.171,-372.411 135.151,-366.789 129.685,-362.416"/>
</g>
<!-- Node4 -->
<g id="node4" class="node"><title>Node4</title>
<polygon fill="white" stroke="#bfbfbf" points="26,-566.5 26,-623.5 103,-623.5 103,-566.5 26,-566.5"/>
<text text-anchor="middle" x="64.5" y="-611.5" font-family="Helvetica,sans-Serif" font-size="10.00">noncopyable</text>
<polyline fill="none" stroke="#bfbfbf" points="26,-604.5 103,-604.5 "/>
<text text-anchor="middle" x="64.5" y="-592.5" font-family="Helvetica,sans-Serif" font-size="10.00"> </text>
<polyline fill="none" stroke="#bfbfbf" points="26,-585.5 103,-585.5 "/>
<text text-anchor="middle" x="64.5" y="-573.5" font-family="Helvetica,sans-Serif" font-size="10.00"> </text>
</g>
<!-- Node4&#45;&gt;Node3 -->
<g id="edge3" class="edge"><title>Node4&#45;&gt;Node3</title>
<path fill="none" stroke="#8b1a1a" d="M64.5,-555.915C64.5,-547.424 64.5,-538.125 64.5,-528.686"/>
<polygon fill="none" stroke="#8b1a1a" points="61.0001,-556.186 64.5,-566.186 68.0001,-556.186 61.0001,-556.186"/>
</g>
<!-- Node5&#45;&gt;Node2 -->
<g id="edge4" class="edge"><title>Node5&#45;&gt;Node2</title>
<path fill="none" stroke="orange" d="M149.789,-269.194C139.534,-256.405 128.034,-242.062 117.976,-229.519"/>
<polygon fill="orange" stroke="orange" points="147.335,-271.728 156.321,-277.34 152.796,-267.349 147.335,-271.728"/>
<text text-anchor="middle" x="162.5" y="-251" font-family="Helvetica,sans-Serif" font-size="10.00"> &lt; Glm &gt;</text>
</g>
</g>
</svg>
