<?xml version="1.0" encoding="UTF-8" standalone="no"?>
<!DOCTYPE svg PUBLIC "-//W3C//DTD SVG 1.1//EN"
 "http://www.w3.org/Graphics/SVG/1.1/DTD/svg11.dtd">
<!-- Generated by graphviz version 2.38.0 (20140413.2041)
 -->
<!-- Title: scram::mef::ExternFunction&lt; void &gt; Pages: 1 -->
<svg width="421pt" height="665pt"
 viewBox="0.00 0.00 421.00 665.00" xmlns="http://www.w3.org/2000/svg" xmlns:xlink="http://www.w3.org/1999/xlink">
<g id="graph0" class="graph" transform="scale(1 1) rotate(0) translate(4 661)">
<title>scram::mef::ExternFunction&lt; void &gt;</title>
<polygon fill="white" stroke="none" points="-4,4 -4,-661 417,-661 417,4 -4,4"/>
<!-- Node1 -->
<g id="node1" class="node"><title>Node1</title>
<polygon fill="#bfbfbf" stroke="black" points="175,-266.5 175,-345.5 323,-345.5 323,-266.5 175,-266.5"/>
<text text-anchor="start" x="183" y="-333.5" font-family="Helvetica,sans-Serif" font-size="10.00">scram::mef::ExternFunction</text>
<text text-anchor="middle" x="249" y="-322.5" font-family="Helvetica,sans-Serif" font-size="10.00">&lt; void &gt;</text>
<polyline fill="none" stroke="black" points="175,-315.5 323,-315.5 "/>
<text text-anchor="start" x="183" y="-303.5" font-family="Helvetica,sans-Serif" font-size="10.00">+ kTypeString</text>
<polyline fill="none" stroke="black" points="175,-296.5 323,-296.5 "/>
<text text-anchor="start" x="183" y="-284.5" font-family="Helvetica,sans-Serif" font-size="10.00">+ ~ExternFunction()</text>
<text text-anchor="start" x="183" y="-273.5" font-family="Helvetica,sans-Serif" font-size="10.00">+ apply()</text>
</g>
<!-- Node6 -->
<g id="node6" class="node"><title>Node6</title>
<g id="a_node6"><a xlink:href="classscram_1_1mef_1_1ExternFunction.xhtml" target="_top" xlink:title="{scram::mef::ExternFunction\l\&lt; R, Args... \&gt;\n||+ ExternFunction()\l+ operator()()\l+ apply()\l}">
<polygon fill="white" stroke="black" points="196,-0.5 196,-90.5 344,-90.5 344,-0.5 196,-0.5"/>
<text text-anchor="start" x="204" y="-78.5" font-family="Helvetica,sans-Serif" font-size="10.00">scram::mef::ExternFunction</text>
<text text-anchor="middle" x="270" y="-67.5" font-family="Helvetica,sans-Serif" font-size="10.00">&lt; R, Args... &gt;</text>
<polyline fill="none" stroke="black" points="196,-60.5 344,-60.5 "/>
<text text-anchor="middle" x="270" y="-48.5" font-family="Helvetica,sans-Serif" font-size="10.00"> </text>
<polyline fill="none" stroke="black" points="196,-41.5 344,-41.5 "/>
<text text-anchor="start" x="204" y="-29.5" font-family="Helvetica,sans-Serif" font-size="10.00">+ ExternFunction()</text>
<text text-anchor="start" x="204" y="-18.5" font-family="Helvetica,sans-Serif" font-size="10.00">+ operator()()</text>
<text text-anchor="start" x="204" y="-7.5" font-family="Helvetica,sans-Serif" font-size="10.00">+ apply()</text>
</a>
</g>
</g>
<!-- Node1&#45;&gt;Node6 -->
<g id="edge5" class="edge"><title>Node1&#45;&gt;Node6</title>
<path fill="none" stroke="midnightblue" d="M249.637,-256.056C250.417,-222.717 252.151,-177.614 256,-138 257.508,-122.485 259.883,-105.591 262.251,-90.59"/>
<polygon fill="none" stroke="midnightblue" points="246.129,-256.373 249.415,-266.446 253.127,-256.522 246.129,-256.373"/>
</g>
<!-- Node7 -->
<g id="node7" class="node"><title>Node7</title>
<g id="a_node7"><a xlink:href="classscram_1_1mef_1_1ExternFunction.xhtml" target="_top" xlink:title="Extern function abstraction to be referenced by expressions. ">
<polygon fill="white" stroke="black" points="265,-138.5 265,-228.5 413,-228.5 413,-138.5 265,-138.5"/>
<text text-anchor="start" x="273" y="-216.5" font-family="Helvetica,sans-Serif" font-size="10.00">scram::mef::ExternFunction</text>
<text text-anchor="middle" x="339" y="-205.5" font-family="Helvetica,sans-Serif" font-size="10.00">&lt; R, Args &gt;</text>
<polyline fill="none" stroke="black" points="265,-198.5 413,-198.5 "/>
<text text-anchor="middle" x="339" y="-186.5" font-family="Helvetica,sans-Serif" font-size="10.00"> </text>
<polyline fill="none" stroke="black" points="265,-179.5 413,-179.5 "/>
<text text-anchor="start" x="273" y="-167.5" font-family="Helvetica,sans-Serif" font-size="10.00">+ ExternFunction()</text>
<text text-anchor="start" x="273" y="-156.5" font-family="Helvetica,sans-Serif" font-size="10.00">+ operator()()</text>
<text text-anchor="start" x="273" y="-145.5" font-family="Helvetica,sans-Serif" font-size="10.00">+ apply()</text>
</a>
</g>
</g>
<!-- Node1&#45;&gt;Node7 -->
<g id="edge6" class="edge"><title>Node1&#45;&gt;Node7</title>
<path fill="none" stroke="midnightblue" d="M283.961,-258.191C291.215,-248.478 298.836,-238.275 306.016,-228.661"/>
<polygon fill="none" stroke="midnightblue" points="281.152,-256.103 277.972,-266.21 286.76,-260.292 281.152,-256.103"/>
</g>
<!-- Node2 -->
<g id="node2" class="node"><title>Node2</title>
<g id="a_node2"><a xlink:href="classscram_1_1mef_1_1Element.xhtml" target="_top" xlink:title="The MEF Element with attributes and a label. ">
<polygon fill="white" stroke="black" points="92.5,-383.5 92.5,-561.5 209.5,-561.5 209.5,-383.5 92.5,-383.5"/>
<text text-anchor="middle" x="151" y="-549.5" font-family="Helvetica,sans-Serif" font-size="10.00">scram::mef::Element</text>
<polyline fill="none" stroke="black" points="92.5,-542.5 209.5,-542.5 "/>
<text text-anchor="middle" x="151" y="-530.5" font-family="Helvetica,sans-Serif" font-size="10.00"> </text>
<polyline fill="none" stroke="black" points="92.5,-523.5 209.5,-523.5 "/>
<text text-anchor="start" x="100.5" y="-511.5" font-family="Helvetica,sans-Serif" font-size="10.00">+ Element()</text>
<text text-anchor="start" x="100.5" y="-500.5" font-family="Helvetica,sans-Serif" font-size="10.00">+ name()</text>
<text text-anchor="start" x="100.5" y="-489.5" font-family="Helvetica,sans-Serif" font-size="10.00">+ name_view()</text>
<text text-anchor="start" x="100.5" y="-478.5" font-family="Helvetica,sans-Serif" font-size="10.00">+ label()</text>
<text text-anchor="start" x="100.5" y="-467.5" font-family="Helvetica,sans-Serif" font-size="10.00">+ label()</text>
<text text-anchor="start" x="100.5" y="-456.5" font-family="Helvetica,sans-Serif" font-size="10.00">+ attributes()</text>
<text text-anchor="start" x="100.5" y="-445.5" font-family="Helvetica,sans-Serif" font-size="10.00">+ AddAttribute()</text>
<text text-anchor="start" x="100.5" y="-434.5" font-family="Helvetica,sans-Serif" font-size="10.00">+ SetAttribute()</text>
<text text-anchor="start" x="100.5" y="-423.5" font-family="Helvetica,sans-Serif" font-size="10.00">+ GetAttribute()</text>
<text text-anchor="start" x="100.5" y="-412.5" font-family="Helvetica,sans-Serif" font-size="10.00">+ RemoveAttribute()</text>
<text text-anchor="start" x="100.5" y="-401.5" font-family="Helvetica,sans-Serif" font-size="10.00"># ~Element()</text>
<text text-anchor="start" x="100.5" y="-390.5" font-family="Helvetica,sans-Serif" font-size="10.00"># name()</text>
</a>
</g>
</g>
<!-- Node2&#45;&gt;Node1 -->
<g id="edge1" class="edge"><title>Node2&#45;&gt;Node1</title>
<path fill="none" stroke="midnightblue" d="M208.613,-374.792C214.727,-364.529 220.656,-354.577 226.004,-345.6"/>
<polygon fill="none" stroke="midnightblue" points="205.554,-373.089 203.443,-383.471 211.568,-376.671 205.554,-373.089"/>
</g>
<!-- Node3 -->
<g id="node3" class="node"><title>Node3</title>
<g id="a_node3"><a xlink:href="classscram_1_1mef_1_1ContainerElement.xhtml" target="_top" xlink:title="Elements in MEF containers. ">
<polygon fill="white" stroke="black" points="0,-599.5 0,-656.5 164,-656.5 164,-599.5 0,-599.5"/>
<text text-anchor="middle" x="82" y="-644.5" font-family="Helvetica,sans-Serif" font-size="10.00">scram::mef::ContainerElement</text>
<polyline fill="none" stroke="black" points="0,-637.5 164,-637.5 "/>
<text text-anchor="middle" x="82" y="-625.5" font-family="Helvetica,sans-Serif" font-size="10.00"> </text>
<polyline fill="none" stroke="black" points="0,-618.5 164,-618.5 "/>
<text text-anchor="start" x="8" y="-606.5" font-family="Helvetica,sans-Serif" font-size="10.00"># container()</text>
</a>
</g>
</g>
<!-- Node3&#45;&gt;Node2 -->
<g id="edge2" class="edge"><title>Node3&#45;&gt;Node2</title>
<path fill="none" stroke="midnightblue" d="M98.7205,-589.803C102.635,-581.094 106.97,-571.45 111.421,-561.549"/>
<polygon fill="none" stroke="midnightblue" points="95.4031,-588.646 94.4954,-599.202 101.788,-591.516 95.4031,-588.646"/>
</g>
<!-- Node4 -->
<g id="node4" class="node"><title>Node4</title>
<polygon fill="white" stroke="#bfbfbf" points="182.5,-599.5 182.5,-656.5 259.5,-656.5 259.5,-599.5 182.5,-599.5"/>
<text text-anchor="middle" x="221" y="-644.5" font-family="Helvetica,sans-Serif" font-size="10.00">noncopyable</text>
<polyline fill="none" stroke="#bfbfbf" points="182.5,-637.5 259.5,-637.5 "/>
<text text-anchor="middle" x="221" y="-625.5" font-family="Helvetica,sans-Serif" font-size="10.00"> </text>
<polyline fill="none" stroke="#bfbfbf" points="182.5,-618.5 259.5,-618.5 "/>
<text text-anchor="middle" x="221" y="-606.5" font-family="Helvetica,sans-Serif" font-size="10.00"> </text>
</g>
<!-- Node4&#45;&gt;Node2 -->
<g id="edge3" class="edge"><title>Node4&#45;&gt;Node2</title>
<path fill="none" stroke="#8b1a1a" d="M204.165,-590.084C200.16,-581.301 195.716,-571.556 191.153,-561.549"/>
<polygon fill="none" stroke="#8b1a1a" points="200.99,-591.556 208.324,-599.202 207.359,-588.651 200.99,-591.556"/>
</g>
<!-- Node5 -->
<g id="node5" class="node"><title>Node5</title>
<g id="a_node5"><a xlink:href="classscram_1_1mef_1_1Usage.xhtml" target="_top" xlink:title="Mixin class for providing usage marks for elements. ">
<polygon fill="white" stroke="black" points="228,-433 228,-512 336,-512 336,-433 228,-433"/>
<text text-anchor="middle" x="282" y="-500" font-family="Helvetica,sans-Serif" font-size="10.00">scram::mef::Usage</text>
<polyline fill="none" stroke="black" points="228,-493 336,-493 "/>
<text text-anchor="middle" x="282" y="-481" font-family="Helvetica,sans-Serif" font-size="10.00"> </text>
<polyline fill="none" stroke="black" points="228,-474 336,-474 "/>
<text text-anchor="start" x="236" y="-462" font-family="Helvetica,sans-Serif" font-size="10.00">+ usage()</text>
<text text-anchor="start" x="236" y="-451" font-family="Helvetica,sans-Serif" font-size="10.00">+ usage()</text>
<text text-anchor="start" x="236" y="-440" font-family="Helvetica,sans-Serif" font-size="10.00"># ~Usage()</text>
</a>
</g>
</g>
<!-- Node5&#45;&gt;Node1 -->
<g id="edge4" class="edge"><title>Node5&#45;&gt;Node1</title>
<path fill="none" stroke="midnightblue" d="M272.278,-423.036C267.325,-398.346 261.385,-368.739 256.746,-345.611"/>
<polygon fill="none" stroke="midnightblue" points="268.864,-423.816 274.263,-432.932 275.728,-422.439 268.864,-423.816"/>
</g>
<!-- Node7&#45;&gt;Node6 -->
<g id="edge7" class="edge"><title>Node7&#45;&gt;Node6</title>
<path fill="none" stroke="orange" d="M311.986,-129.256C305.546,-116.562 298.74,-103.148 292.526,-90.8992"/>
<polygon fill="orange" stroke="orange" points="308.952,-131.01 316.598,-138.345 315.194,-127.843 308.952,-131.01"/>
<text text-anchor="middle" x="340.5" y="-112" font-family="Helvetica,sans-Serif" font-size="10.00"> &lt; R, Args... &gt;</text>
</g>
</g>
</svg>
