<?xml version="1.0" encoding="UTF-8" standalone="no"?>
<!DOCTYPE svg PUBLIC "-//W3C//DTD SVG 1.1//EN"
 "http://www.w3.org/Graphics/SVG/1.1/DTD/svg11.dtd">
<!-- Generated by graphviz version 2.38.0 (20140413.2041)
 -->
<!-- Title: ext::linear_map::size Pages: 1 -->
<svg width="302pt" height="78pt"
 viewBox="0.00 0.00 302.00 77.50" xmlns="http://www.w3.org/2000/svg" xmlns:xlink="http://www.w3.org/1999/xlink">
<g id="graph0" class="graph" transform="scale(1 1) rotate(0) translate(4 73.5)">
<title>ext::linear_map::size</title>
<polygon fill="white" stroke="none" points="-4,4 -4,-73.5 298,-73.5 298,4 -4,4"/>
<!-- Node1 -->
<g id="node1" class="node"><title>Node1</title>
<polygon fill="#bfbfbf" stroke="black" points="0,-28 0,-47 116,-47 116,-28 0,-28"/>
<text text-anchor="middle" x="58" y="-35" font-family="Helvetica,sans-Serif" font-size="10.00">ext::linear_map::size</text>
</g>
<!-- Node2 -->
<g id="node2" class="node"><title>Node2</title>
<g id="a_node2"><a xlink:href="classscram_1_1core_1_1Bdd.xhtml#a1e7f5f7608e5839e27d6be41712b4800" target="_top" xlink:title="Runs the Qualitative analysis with the representation of a PDAG as ROBDD. ">
<polygon fill="white" stroke="black" points="152,-50 152,-69 294,-69 294,-50 152,-50"/>
<text text-anchor="middle" x="223" y="-57" font-family="Helvetica,sans-Serif" font-size="10.00">scram::core::Bdd::Analyze</text>
</a>
</g>
</g>
<!-- Node1&#45;&gt;Node2 -->
<g id="edge1" class="edge"><title>Node1&#45;&gt;Node2</title>
<path fill="none" stroke="midnightblue" d="M126.197,-46.5695C134.656,-47.7113 143.328,-48.8816 151.831,-50.0294"/>
<polygon fill="midnightblue" stroke="midnightblue" points="126.388,-43.0636 116.009,-45.1945 125.451,-50.0007 126.388,-43.0636"/>
</g>
<!-- Node3 -->
<g id="node3" class="node"><title>Node3</title>
<g id="a_node3"><a xlink:href="classscram_1_1core_1_1Zbdd.xhtml#ac90d12f0c653c679d22109124fa6344c" target="_top" xlink:title="Find or adds a ZBDD SetNode vertex using information from gates. ">
<polygon fill="white" stroke="black" points="167.5,-0.5 167.5,-30.5 278.5,-30.5 278.5,-0.5 167.5,-0.5"/>
<text text-anchor="start" x="175.5" y="-18.5" font-family="Helvetica,sans-Serif" font-size="10.00">scram::core::Zbdd::</text>
<text text-anchor="middle" x="223" y="-7.5" font-family="Helvetica,sans-Serif" font-size="10.00">FindOrAddVertex</text>
</a>
</g>
</g>
<!-- Node1&#45;&gt;Node3 -->
<g id="edge2" class="edge"><title>Node1&#45;&gt;Node3</title>
<path fill="none" stroke="midnightblue" d="M125.949,-28.4639C139.772,-26.5982 154.173,-24.6546 167.49,-22.8572"/>
<polygon fill="midnightblue" stroke="midnightblue" points="125.451,-24.9993 116.009,-29.8055 126.388,-31.9364 125.451,-24.9993"/>
</g>
</g>
</svg>
