<?xml version="1.0" encoding="UTF-8" standalone="no"?>
<!DOCTYPE svg PUBLIC "-//W3C//DTD SVG 1.1//EN"
 "http://www.w3.org/Graphics/SVG/1.1/DTD/svg11.dtd">
<!-- Generated by graphviz version 2.38.0 (20140413.2041)
 -->
<!-- Title: scram::core::Gate Pages: 1 -->
<svg width="281pt" height="623pt"
 viewBox="0.00 0.00 280.50 623.00" xmlns="http://www.w3.org/2000/svg" xmlns:xlink="http://www.w3.org/1999/xlink">
<g id="graph0" class="graph" transform="scale(1 1) rotate(0) translate(4 619)">
<title>scram::core::Gate</title>
<polygon fill="white" stroke="none" points="-4,4 -4,-619 276.5,-619 276.5,4 -4,4"/>
<!-- Node1 -->
<g id="node1" class="node"><title>Node1</title>
<polygon fill="#bfbfbf" stroke="black" points="100.5,-0.5 100.5,-211.5 203.5,-211.5 203.5,-0.5 100.5,-0.5"/>
<text text-anchor="middle" x="152" y="-199.5" font-family="Helvetica,sans-Serif" font-size="10.00">scram::core::Gate</text>
<polyline fill="none" stroke="black" points="100.5,-192.5 203.5,-192.5 "/>
<text text-anchor="middle" x="152" y="-180.5" font-family="Helvetica,sans-Serif" font-size="10.00"> </text>
<polyline fill="none" stroke="black" points="100.5,-173.5 203.5,-173.5 "/>
<text text-anchor="start" x="108.5" y="-161.5" font-family="Helvetica,sans-Serif" font-size="10.00">+ Gate()</text>
<text text-anchor="start" x="108.5" y="-150.5" font-family="Helvetica,sans-Serif" font-size="10.00">+ ~Gate()</text>
<text text-anchor="start" x="108.5" y="-139.5" font-family="Helvetica,sans-Serif" font-size="10.00">+ Clone()</text>
<text text-anchor="start" x="108.5" y="-128.5" font-family="Helvetica,sans-Serif" font-size="10.00">+ type()</text>
<text text-anchor="start" x="108.5" y="-117.5" font-family="Helvetica,sans-Serif" font-size="10.00">+ type()</text>
<text text-anchor="start" x="108.5" y="-106.5" font-family="Helvetica,sans-Serif" font-size="10.00">+ min_number()</text>
<text text-anchor="start" x="108.5" y="-95.5" font-family="Helvetica,sans-Serif" font-size="10.00">+ min_number()</text>
<text text-anchor="start" x="108.5" y="-84.5" font-family="Helvetica,sans-Serif" font-size="10.00">+ constant()</text>
<text text-anchor="start" x="108.5" y="-73.5" font-family="Helvetica,sans-Serif" font-size="10.00">+ args()</text>
<text text-anchor="start" x="108.5" y="-62.5" font-family="Helvetica,sans-Serif" font-size="10.00">+ args()</text>
<text text-anchor="start" x="108.5" y="-51.5" font-family="Helvetica,sans-Serif" font-size="10.00">and 33 more...</text>
<text text-anchor="start" x="108.5" y="-40.5" font-family="Helvetica,sans-Serif" font-size="10.00">* Arg</text>
<text text-anchor="start" x="108.5" y="-29.5" font-family="Helvetica,sans-Serif" font-size="10.00">* ConstArg</text>
<text text-anchor="start" x="108.5" y="-18.5" font-family="Helvetica,sans-Serif" font-size="10.00">* gate_args_</text>
<text text-anchor="start" x="108.5" y="-7.5" font-family="Helvetica,sans-Serif" font-size="10.00">* variable_args_</text>
</g>
<!-- Node2 -->
<g id="node2" class="node"><title>Node2</title>
<g id="a_node2"><a xlink:href="classscram_1_1core_1_1Node.xhtml" target="_top" xlink:title="An abstract base class that represents a node in a PDAG. ">
<polygon fill="white" stroke="black" points="36.5,-248.5 36.5,-415.5 141.5,-415.5 141.5,-248.5 36.5,-248.5"/>
<text text-anchor="middle" x="89" y="-403.5" font-family="Helvetica,sans-Serif" font-size="10.00">scram::core::Node</text>
<polyline fill="none" stroke="black" points="36.5,-396.5 141.5,-396.5 "/>
<text text-anchor="middle" x="89" y="-384.5" font-family="Helvetica,sans-Serif" font-size="10.00"> </text>
<polyline fill="none" stroke="black" points="36.5,-377.5 141.5,-377.5 "/>
<text text-anchor="start" x="44.5" y="-365.5" font-family="Helvetica,sans-Serif" font-size="10.00">+ Node()</text>
<text text-anchor="start" x="44.5" y="-354.5" font-family="Helvetica,sans-Serif" font-size="10.00">+ ~Node()</text>
<text text-anchor="start" x="44.5" y="-343.5" font-family="Helvetica,sans-Serif" font-size="10.00">+ graph()</text>
<text text-anchor="start" x="44.5" y="-332.5" font-family="Helvetica,sans-Serif" font-size="10.00">+ index()</text>
<text text-anchor="start" x="44.5" y="-321.5" font-family="Helvetica,sans-Serif" font-size="10.00">+ order()</text>
<text text-anchor="start" x="44.5" y="-310.5" font-family="Helvetica,sans-Serif" font-size="10.00">+ order()</text>
<text text-anchor="start" x="44.5" y="-299.5" font-family="Helvetica,sans-Serif" font-size="10.00">+ opti_value()</text>
<text text-anchor="start" x="44.5" y="-288.5" font-family="Helvetica,sans-Serif" font-size="10.00">+ opti_value()</text>
<text text-anchor="start" x="44.5" y="-277.5" font-family="Helvetica,sans-Serif" font-size="10.00">+ Visit()</text>
<text text-anchor="start" x="44.5" y="-266.5" font-family="Helvetica,sans-Serif" font-size="10.00">+ EnterTime()</text>
<text text-anchor="start" x="44.5" y="-255.5" font-family="Helvetica,sans-Serif" font-size="10.00">and 11 more...</text>
</a>
</g>
</g>
<!-- Node2&#45;&gt;Node1 -->
<g id="edge1" class="edge"><title>Node2&#45;&gt;Node1</title>
<path fill="none" stroke="midnightblue" d="M115.038,-238.422C117.5,-229.665 120.009,-220.745 122.501,-211.884"/>
<polygon fill="none" stroke="midnightblue" points="111.618,-237.653 112.28,-248.227 118.357,-239.548 111.618,-237.653"/>
</g>
<!-- Node3 -->
<g id="node3" class="node"><title>Node3</title>
<g id="a_node3"><a xlink:href="classscram_1_1core_1_1NodeParentManager.xhtml" target="_top" xlink:title="A manager of information about parents. ">
<polygon fill="white" stroke="black" points="0,-452.5 0,-520.5 178,-520.5 178,-452.5 0,-452.5"/>
<text text-anchor="middle" x="89" y="-508.5" font-family="Helvetica,sans-Serif" font-size="10.00">scram::core::NodeParentManager</text>
<polyline fill="none" stroke="black" points="0,-501.5 178,-501.5 "/>
<text text-anchor="middle" x="89" y="-489.5" font-family="Helvetica,sans-Serif" font-size="10.00"> </text>
<polyline fill="none" stroke="black" points="0,-482.5 178,-482.5 "/>
<text text-anchor="start" x="8" y="-470.5" font-family="Helvetica,sans-Serif" font-size="10.00">+ parents()</text>
<text text-anchor="start" x="8" y="-459.5" font-family="Helvetica,sans-Serif" font-size="10.00"># ~NodeParentManager()</text>
</a>
</g>
</g>
<!-- Node3&#45;&gt;Node2 -->
<g id="edge2" class="edge"><title>Node3&#45;&gt;Node2</title>
<path fill="none" stroke="midnightblue" d="M89,-442.229C89,-433.884 89,-424.887 89,-415.765"/>
<polygon fill="none" stroke="midnightblue" points="85.5001,-442.41 89,-452.41 92.5001,-442.41 85.5001,-442.41"/>
</g>
<!-- Node4 -->
<g id="node4" class="node"><title>Node4</title>
<polygon fill="white" stroke="#bfbfbf" points="50.5,-557.5 50.5,-614.5 127.5,-614.5 127.5,-557.5 50.5,-557.5"/>
<text text-anchor="middle" x="89" y="-602.5" font-family="Helvetica,sans-Serif" font-size="10.00">noncopyable</text>
<polyline fill="none" stroke="#bfbfbf" points="50.5,-595.5 127.5,-595.5 "/>
<text text-anchor="middle" x="89" y="-583.5" font-family="Helvetica,sans-Serif" font-size="10.00"> </text>
<polyline fill="none" stroke="#bfbfbf" points="50.5,-576.5 127.5,-576.5 "/>
<text text-anchor="middle" x="89" y="-564.5" font-family="Helvetica,sans-Serif" font-size="10.00"> </text>
</g>
<!-- Node4&#45;&gt;Node3 -->
<g id="edge3" class="edge"><title>Node4&#45;&gt;Node3</title>
<path fill="none" stroke="#8b1a1a" d="M89,-547.063C89,-538.393 89,-529.243 89,-520.786"/>
<polygon fill="none" stroke="#8b1a1a" points="85.5001,-547.321 89,-557.321 92.5001,-547.321 85.5001,-547.321"/>
</g>
<!-- Node5 -->
<g id="node5" class="node"><title>Node5</title>
<polygon fill="white" stroke="#bfbfbf" points="159.5,-298 159.5,-366 272.5,-366 272.5,-298 159.5,-298"/>
<text text-anchor="start" x="167.5" y="-354" font-family="Helvetica,sans-Serif" font-size="10.00">std::enable_shared</text>
<text text-anchor="middle" x="216" y="-343" font-family="Helvetica,sans-Serif" font-size="10.00">_from_this&lt; Gate &gt;</text>
<polyline fill="none" stroke="#bfbfbf" points="159.5,-336 272.5,-336 "/>
<text text-anchor="middle" x="216" y="-324" font-family="Helvetica,sans-Serif" font-size="10.00"> </text>
<polyline fill="none" stroke="#bfbfbf" points="159.5,-317 272.5,-317 "/>
<text text-anchor="middle" x="216" y="-305" font-family="Helvetica,sans-Serif" font-size="10.00"> </text>
</g>
<!-- Node5&#45;&gt;Node1 -->
<g id="edge4" class="edge"><title>Node5&#45;&gt;Node1</title>
<path fill="none" stroke="midnightblue" d="M203.808,-288.328C197.557,-266.45 189.644,-238.755 181.896,-211.637"/>
<polygon fill="none" stroke="midnightblue" points="200.444,-289.294 206.557,-297.948 207.175,-287.371 200.444,-289.294"/>
</g>
</g>
</svg>
