<?xml version="1.0" encoding="UTF-8" standalone="no"?>
<!DOCTYPE svg PUBLIC "-//W3C//DTD SVG 1.1//EN"
 "http://www.w3.org/Graphics/SVG/1.1/DTD/svg11.dtd">
<!-- Generated by graphviz version 2.38.0 (20140413.2041)
 -->
<!-- Title: scram::xml::Document::root Pages: 1 -->
<svg width="295pt" height="127pt"
 viewBox="0.00 0.00 295.00 127.00" xmlns="http://www.w3.org/2000/svg" xmlns:xlink="http://www.w3.org/1999/xlink">
<g id="graph0" class="graph" transform="scale(1 1) rotate(0) translate(4 123)">
<title>scram::xml::Document::root</title>
<polygon fill="white" stroke="none" points="-4,4 -4,-123 291,-123 291,4 -4,4"/>
<!-- Node1 -->
<g id="node1" class="node"><title>Node1</title>
<polygon fill="#bfbfbf" stroke="black" points="0,-44.5 0,-74.5 126,-74.5 126,-44.5 0,-44.5"/>
<text text-anchor="start" x="8" y="-62.5" font-family="Helvetica,sans-Serif" font-size="10.00">scram::xml::Document</text>
<text text-anchor="middle" x="63" y="-51.5" font-family="Helvetica,sans-Serif" font-size="10.00">::root</text>
</g>
<!-- Node2 -->
<g id="node2" class="node"><title>Node2</title>
<g id="a_node2"><a xlink:href="classscram_1_1mef_1_1Initializer.xhtml#a969f088f20697a8a317cb7c998f034ad" target="_top" xlink:title="Specializations for elements defined after registration. ">
<polygon fill="white" stroke="black" points="165,-88.5 165,-118.5 284,-118.5 284,-88.5 165,-88.5"/>
<text text-anchor="start" x="173" y="-106.5" font-family="Helvetica,sans-Serif" font-size="10.00">scram::mef::Initializer</text>
<text text-anchor="middle" x="224.5" y="-95.5" font-family="Helvetica,sans-Serif" font-size="10.00">::Define</text>
</a>
</g>
</g>
<!-- Node1&#45;&gt;Node2 -->
<g id="edge1" class="edge"><title>Node1&#45;&gt;Node2</title>
<path fill="none" stroke="midnightblue" d="M128.173,-77.2029C141.717,-80.9392 155.885,-84.8475 169.03,-88.4738"/>
<polygon fill="midnightblue" stroke="midnightblue" points="129.015,-73.8046 118.445,-74.5192 127.154,-80.5526 129.015,-73.8046"/>
</g>
<!-- Node3 -->
<g id="node3" class="node"><title>Node3</title>
<g id="a_node3"><a xlink:href="classscram_1_1Project.xhtml#aa72871e05c53f98f8c4f48ec61277754" target="_top" xlink:title="A constructor with project configurations for analysis. ">
<polygon fill="white" stroke="black" points="162,-50 162,-69 287,-69 287,-50 162,-50"/>
<text text-anchor="middle" x="224.5" y="-57" font-family="Helvetica,sans-Serif" font-size="10.00">scram::Project::Project</text>
</a>
</g>
</g>
<!-- Node1&#45;&gt;Node3 -->
<g id="edge2" class="edge"><title>Node1&#45;&gt;Node3</title>
<path fill="none" stroke="midnightblue" d="M136.396,-59.5C144.884,-59.5 153.485,-59.5 161.808,-59.5"/>
<polygon fill="midnightblue" stroke="midnightblue" points="136.124,-56.0001 126.124,-59.5 136.124,-63.0001 136.124,-56.0001"/>
</g>
<!-- Node4 -->
<g id="node4" class="node"><title>Node4</title>
<g id="a_node4"><a xlink:href="classscram_1_1mef_1_1Initializer.xhtml#a86055e4406a999be79a4d14e8a7ec4e3" target="_top" xlink:title="Specializations for element registrations. ">
<polygon fill="white" stroke="black" points="165,-0.5 165,-30.5 284,-30.5 284,-0.5 165,-0.5"/>
<text text-anchor="start" x="173" y="-18.5" font-family="Helvetica,sans-Serif" font-size="10.00">scram::mef::Initializer</text>
<text text-anchor="middle" x="224.5" y="-7.5" font-family="Helvetica,sans-Serif" font-size="10.00">::Register</text>
</a>
</g>
</g>
<!-- Node1&#45;&gt;Node4 -->
<g id="edge3" class="edge"><title>Node1&#45;&gt;Node4</title>
<path fill="none" stroke="midnightblue" d="M128.173,-41.7971C141.717,-38.0608 155.885,-34.1525 169.03,-30.5262"/>
<polygon fill="midnightblue" stroke="midnightblue" points="127.154,-38.4474 118.445,-44.4808 129.015,-45.1954 127.154,-38.4474"/>
</g>
</g>
</svg>
