<?xml version="1.0" encoding="UTF-8" standalone="no"?>
<!DOCTYPE svg PUBLIC "-//W3C//DTD SVG 1.1//EN"
 "http://www.w3.org/Graphics/SVG/1.1/DTD/svg11.dtd">
<!-- Generated by graphviz version 2.38.0 (20140413.2041)
 -->
<!-- Title: scram::mef::Id::Id Pages: 1 -->
<svg width="275pt" height="46pt"
 viewBox="0.00 0.00 275.00 46.00" xmlns="http://www.w3.org/2000/svg" xmlns:xlink="http://www.w3.org/1999/xlink">
<g id="graph0" class="graph" transform="scale(1 1) rotate(0) translate(4 42)">
<title>scram::mef::Id::Id</title>
<polygon fill="white" stroke="none" points="-4,4 -4,-42 271,-42 271,4 -4,4"/>
<!-- Node1 -->
<g id="node1" class="node"><title>Node1</title>
<polygon fill="#bfbfbf" stroke="black" points="0,-0.5 0,-19.5 100,-19.5 100,-0.5 0,-0.5"/>
<text text-anchor="middle" x="50" y="-7.5" font-family="Helvetica,sans-Serif" font-size="10.00">scram::mef::Id::Id</text>
</g>
<!-- Node2 -->
<g id="node2" class="node"><title>Node2</title>
<g id="a_node2"><a xlink:href="element_8h.xhtml#aa0a41336bfd1eb2482e64470eddf3a2c" target="_top" xlink:title="Computes the full path of an element. ">
<polygon fill="white" stroke="black" points="136,-0.5 136,-19.5 267,-19.5 267,-0.5 136,-0.5"/>
<text text-anchor="middle" x="201.5" y="-7.5" font-family="Helvetica,sans-Serif" font-size="10.00">scram::mef::GetFullPath</text>
</a>
</g>
</g>
<!-- Node1&#45;&gt;Node2 -->
<g id="edge1" class="edge"><title>Node1&#45;&gt;Node2</title>
<path fill="none" stroke="midnightblue" d="M100.366,-10C108.558,-10 117.211,-10 125.862,-10"/>
<polygon fill="midnightblue" stroke="midnightblue" points="125.988,-13.5001 135.988,-10 125.988,-6.5001 125.988,-13.5001"/>
</g>
<!-- Node2&#45;&gt;Node2 -->
<g id="edge2" class="edge"><title>Node2&#45;&gt;Node2</title>
<path fill="none" stroke="midnightblue" d="M178.381,-19.7571C167.133,-28.5653 174.84,-38 201.5,-38 218.996,-38 228.329,-33.9368 229.499,-28.6539"/>
<polygon fill="midnightblue" stroke="midnightblue" points="232.497,-26.8417 224.619,-19.7571 226.36,-30.208 232.497,-26.8417"/>
</g>
</g>
</svg>
