<?xml version="1.0" encoding="UTF-8" standalone="no"?>
<!DOCTYPE svg PUBLIC "-//W3C//DTD SVG 1.1//EN"
 "http://www.w3.org/Graphics/SVG/1.1/DTD/svg11.dtd">
<!-- Generated by graphviz version 2.38.0 (20140413.2041)
 -->
<!-- Title: ext::linear_set::find Pages: 1 -->
<svg width="291pt" height="204pt"
 viewBox="0.00 0.00 291.00 204.00" xmlns="http://www.w3.org/2000/svg" xmlns:xlink="http://www.w3.org/1999/xlink">
<g id="graph0" class="graph" transform="scale(1 1) rotate(0) translate(4 200)">
<title>ext::linear_set::find</title>
<polygon fill="white" stroke="none" points="-4,4 -4,-200 287,-200 287,4 -4,4"/>
<!-- Node1 -->
<g id="node1" class="node"><title>Node1</title>
<polygon fill="#bfbfbf" stroke="black" points="0,-88 0,-107 107,-107 107,-88 0,-88"/>
<text text-anchor="middle" x="53.5" y="-95" font-family="Helvetica,sans-Serif" font-size="10.00">ext::linear_set::find</text>
</g>
<!-- Node2 -->
<g id="node2" class="node"><title>Node2</title>
<g id="a_node2"><a xlink:href="classext_1_1linear__set.xhtml#a0f3a1810658f8464438f195b876bd9bf" target="_top" xlink:title="Determines if an entry in the set. ">
<polygon fill="white" stroke="black" points="143,-165.5 143,-195.5 283,-195.5 283,-165.5 143,-165.5"/>
<text text-anchor="start" x="151" y="-183.5" font-family="Helvetica,sans-Serif" font-size="10.00">ext::linear_set&lt; Attribute,</text>
<text text-anchor="middle" x="213" y="-172.5" font-family="Helvetica,sans-Serif" font-size="10.00"> AttributeKey &gt;::count</text>
</a>
</g>
</g>
<!-- Node1&#45;&gt;Node2 -->
<g id="edge1" class="edge"><title>Node1&#45;&gt;Node2</title>
<path fill="none" stroke="midnightblue" d="M75.0375,-113.38C92.4162,-126.268 118.359,-144.249 143,-156.5 149.474,-159.718 156.485,-162.693 163.474,-165.374"/>
<polygon fill="midnightblue" stroke="midnightblue" points="76.8758,-110.383 66.7825,-107.162 72.664,-115.974 76.8758,-110.383"/>
</g>
<!-- Node3 -->
<g id="node3" class="node"><title>Node3</title>
<g id="a_node3"><a xlink:href="classext_1_1linear__set.xhtml#a1a08e9373da1ab3b63d05ddc0e75381b" target="_top" xlink:title="Erases the entry with a key. ">
<polygon fill="white" stroke="black" points="143,-116.5 143,-146.5 283,-146.5 283,-116.5 143,-116.5"/>
<text text-anchor="start" x="151" y="-134.5" font-family="Helvetica,sans-Serif" font-size="10.00">ext::linear_set&lt; Attribute,</text>
<text text-anchor="middle" x="213" y="-123.5" font-family="Helvetica,sans-Serif" font-size="10.00"> AttributeKey &gt;::erase</text>
</a>
</g>
</g>
<!-- Node1&#45;&gt;Node3 -->
<g id="edge2" class="edge"><title>Node1&#45;&gt;Node3</title>
<path fill="none" stroke="midnightblue" d="M108.643,-109.188C119.618,-111.557 131.301,-114.079 142.716,-116.543"/>
<polygon fill="midnightblue" stroke="midnightblue" points="109.305,-105.75 98.7917,-107.061 107.828,-112.593 109.305,-105.75"/>
</g>
<!-- Node4 -->
<g id="node4" class="node"><title>Node4</title>
<g id="a_node4"><a xlink:href="classscram_1_1mef_1_1Element.xhtml#adc6d9dba718f5c89524803d035f94e05" target="_top" xlink:title="scram::mef::Element\l::GetAttribute">
<polygon fill="white" stroke="black" points="154.5,-49.5 154.5,-79.5 271.5,-79.5 271.5,-49.5 154.5,-49.5"/>
<text text-anchor="start" x="162.5" y="-67.5" font-family="Helvetica,sans-Serif" font-size="10.00">scram::mef::Element</text>
<text text-anchor="middle" x="213" y="-56.5" font-family="Helvetica,sans-Serif" font-size="10.00">::GetAttribute</text>
</a>
</g>
</g>
<!-- Node1&#45;&gt;Node4 -->
<g id="edge3" class="edge"><title>Node1&#45;&gt;Node4</title>
<path fill="none" stroke="midnightblue" d="M109.851,-85.9027C124.306,-82.874 139.918,-79.6029 154.483,-76.5513"/>
<polygon fill="midnightblue" stroke="midnightblue" points="109.125,-82.4786 100.056,-87.955 110.561,-89.3299 109.125,-82.4786"/>
</g>
<!-- Node5 -->
<g id="node5" class="node"><title>Node5</title>
<g id="a_node5"><a xlink:href="classscram_1_1mef_1_1Element.xhtml#adbe5cb2da18b56b56a6c6542a0492373" target="_top" xlink:title="Removes an attribute of this element. ">
<polygon fill="white" stroke="black" points="154.5,-0.5 154.5,-30.5 271.5,-30.5 271.5,-0.5 154.5,-0.5"/>
<text text-anchor="start" x="162.5" y="-18.5" font-family="Helvetica,sans-Serif" font-size="10.00">scram::mef::Element</text>
<text text-anchor="middle" x="213" y="-7.5" font-family="Helvetica,sans-Serif" font-size="10.00">::RemoveAttribute</text>
</a>
</g>
</g>
<!-- Node1&#45;&gt;Node5 -->
<g id="edge5" class="edge"><title>Node1&#45;&gt;Node5</title>
<path fill="none" stroke="midnightblue" d="M75.7629,-81.8649C93.2072,-69.523 118.874,-52.4503 143,-40.5 150.193,-36.9372 158.024,-33.6139 165.744,-30.628"/>
<polygon fill="midnightblue" stroke="midnightblue" points="73.5263,-79.162 67.4419,-87.8356 77.6072,-84.8494 73.5263,-79.162"/>
</g>
<!-- Node4&#45;&gt;Node4 -->
<g id="edge4" class="edge"><title>Node4&#45;&gt;Node4</title>
<path fill="none" stroke="midnightblue" d="M184.925,-89.9579C188.41,-94.679 197.768,-98 213,-98 237.996,-98 247.174,-89.0566 240.535,-79.659"/>
<polygon fill="midnightblue" stroke="midnightblue" points="188.437,-89.8286 185.465,-79.659 181.446,-89.462 188.437,-89.8286"/>
</g>
</g>
</svg>
