<?xml version="1.0" encoding="UTF-8" standalone="no"?>
<!DOCTYPE svg PUBLIC "-//W3C//DTD SVG 1.1//EN"
 "http://www.w3.org/Graphics/SVG/1.1/DTD/svg11.dtd">
<!-- Generated by graphviz version 2.38.0 (20140413.2041)
 -->
<!-- Title: scram::core::Vertex&lt; T &gt; Pages: 1 -->
<!--zoomable 873 -->
<svg id="main" version="1.1" xmlns="http://www.w3.org/2000/svg" xmlns:xlink="http://www.w3.org/1999/xlink" xml:space="preserve" onload="init(evt)">
<style type="text/css"><![CDATA[
.edge:hover path { stroke: red; }
.edge:hover polygon { stroke: red; fill: red; }
]]></style>
<script type="text/javascript"><![CDATA[
var edges = document.getElementsByTagName('g');
if (edges && edges.length) {
  for (var i=0;i<edges.length;i++) {
    if (edges[i].id.substr(0,4)=='edge') {
      edges[i].setAttribute('class','edge');
    }
  }
}
]]></script>
        <defs>
                <circle id="rim" cx="0" cy="0" r="7"/>
                <circle id="rim2" cx="0" cy="0" r="3.5"/>
                <g id="zoomPlus">
                        <use xlink:href="#rim" fill="#404040">
                                <set attributeName="fill" to="#808080" begin="zoomplus.mouseover" end="zoomplus.mouseout"/>
                        </use>
                        <path d="M-4,0h8M0,-4v8" fill="none" stroke="white" stroke-width="1.5" pointer-events="none"/>
                </g>
                <g id="zoomMin">
                        <use xlink:href="#rim" fill="#404040">
                                <set attributeName="fill" to="#808080" begin="zoomminus.mouseover" end="zoomminus.mouseout"/>
                        </use>
                        <path d="M-4,0h8" fill="none" stroke="white" stroke-width="1.5" pointer-events="none"/>
                </g>
                <g id="dirArrow">
                        <path fill="none" stroke="white" stroke-width="1.5" d="M0,-3.0v7 M-2.5,-0.5L0,-3.0L2.5,-0.5"/>
                </g>
               <g id="resetDef">
                       <use xlink:href="#rim2" fill="#404040">
                               <set attributeName="fill" to="#808080" begin="reset.mouseover" end="reset.mouseout"/>
                       </use>
               </g>
        </defs>

<script type="text/javascript">
var viewWidth = 597;
var viewHeight = 873;
var sectionId = 'dynsection-0';
</script>
<script xlink:href="svgpan.js"/>
<svg id="graph" class="graph">
<g id="viewport">
<title>scram::core::Vertex&lt; T &gt;</title>
<polygon fill="white" stroke="none" points="-4,4 -4,-869 593,-869 593,4 -4,4"/>
<!-- Node1 -->
<g id="node1" class="node"><title>Node1</title>
<polygon fill="#bfbfbf" stroke="black" points="145,-657.5 145,-769.5 283,-769.5 283,-657.5 145,-657.5"/>
<text text-anchor="middle" x="214" y="-757.5" font-family="Helvetica,sans-Serif" font-size="10.00">scram::core::Vertex&lt; T &gt;</text>
<polyline fill="none" stroke="black" points="145,-750.5 283,-750.5 "/>
<text text-anchor="middle" x="214" y="-738.5" font-family="Helvetica,sans-Serif" font-size="10.00"> </text>
<polyline fill="none" stroke="black" points="145,-731.5 283,-731.5 "/>
<text text-anchor="start" x="153" y="-719.5" font-family="Helvetica,sans-Serif" font-size="10.00">+ Vertex()</text>
<text text-anchor="start" x="153" y="-708.5" font-family="Helvetica,sans-Serif" font-size="10.00">+ id()</text>
<text text-anchor="start" x="153" y="-697.5" font-family="Helvetica,sans-Serif" font-size="10.00">+ terminal()</text>
<text text-anchor="start" x="153" y="-686.5" font-family="Helvetica,sans-Serif" font-size="10.00">+ use_count()</text>
<text text-anchor="start" x="153" y="-675.5" font-family="Helvetica,sans-Serif" font-size="10.00">+ unique()</text>
<text text-anchor="start" x="153" y="-664.5" font-family="Helvetica,sans-Serif" font-size="10.00"># ~Vertex()</text>
</g>
<!-- Node3 -->
<g id="node3" class="node"><title>Node3</title>
<g id="a_node3"><a xlink:href="classscram_1_1core_1_1NonTerminal.xhtml" target="_top" xlink:title="Representation of non&#45;terminal vertices in BDD graphs. ">
<polygon fill="white" stroke="black" points="293.5,-409.5 293.5,-609.5 460.5,-609.5 460.5,-409.5 293.5,-409.5"/>
<text text-anchor="middle" x="377" y="-597.5" font-family="Helvetica,sans-Serif" font-size="10.00">scram::core::NonTerminal&lt; T &gt;</text>
<polyline fill="none" stroke="black" points="293.5,-590.5 460.5,-590.5 "/>
<text text-anchor="middle" x="377" y="-578.5" font-family="Helvetica,sans-Serif" font-size="10.00"> </text>
<polyline fill="none" stroke="black" points="293.5,-571.5 460.5,-571.5 "/>
<text text-anchor="start" x="301.5" y="-559.5" font-family="Helvetica,sans-Serif" font-size="10.00">+ NonTerminal()</text>
<text text-anchor="start" x="301.5" y="-548.5" font-family="Helvetica,sans-Serif" font-size="10.00">+ index()</text>
<text text-anchor="start" x="301.5" y="-537.5" font-family="Helvetica,sans-Serif" font-size="10.00">+ order()</text>
<text text-anchor="start" x="301.5" y="-526.5" font-family="Helvetica,sans-Serif" font-size="10.00">+ module()</text>
<text text-anchor="start" x="301.5" y="-515.5" font-family="Helvetica,sans-Serif" font-size="10.00">+ module()</text>
<text text-anchor="start" x="301.5" y="-504.5" font-family="Helvetica,sans-Serif" font-size="10.00">+ coherent()</text>
<text text-anchor="start" x="301.5" y="-493.5" font-family="Helvetica,sans-Serif" font-size="10.00">+ coherent()</text>
<text text-anchor="start" x="301.5" y="-482.5" font-family="Helvetica,sans-Serif" font-size="10.00">+ high()</text>
<text text-anchor="start" x="301.5" y="-471.5" font-family="Helvetica,sans-Serif" font-size="10.00">+ low()</text>
<text text-anchor="start" x="301.5" y="-460.5" font-family="Helvetica,sans-Serif" font-size="10.00">+ mark()</text>
<text text-anchor="start" x="301.5" y="-449.5" font-family="Helvetica,sans-Serif" font-size="10.00">+ mark()</text>
<text text-anchor="start" x="301.5" y="-438.5" font-family="Helvetica,sans-Serif" font-size="10.00"># ~NonTerminal()</text>
<text text-anchor="start" x="301.5" y="-427.5" font-family="Helvetica,sans-Serif" font-size="10.00">* get_high_id</text>
<text text-anchor="start" x="301.5" y="-416.5" font-family="Helvetica,sans-Serif" font-size="10.00">* get_low_id</text>
</a>
</g>
</g>
<!-- Node1&#45;&gt;Node3 -->
<g id="edge2" class="edge"><title>Node1&#45;&gt;Node3</title>
<path fill="none" stroke="midnightblue" d="M264.826,-649.514C275.089,-636.795 286.112,-623.134 297.097,-609.521"/>
<polygon fill="none" stroke="midnightblue" points="262.096,-647.322 258.54,-657.303 267.544,-651.718 262.096,-647.322"/>
</g>
<!-- Node8 -->
<g id="node8" class="node"><title>Node8</title>
<g id="a_node8"><a xlink:href="classscram_1_1core_1_1Terminal.xhtml" target="_top" xlink:title="Representation of terminal vertices in BDD graphs. ">
<polygon fill="white" stroke="black" points="128.5,-475.5 128.5,-543.5 275.5,-543.5 275.5,-475.5 128.5,-475.5"/>
<text text-anchor="middle" x="202" y="-531.5" font-family="Helvetica,sans-Serif" font-size="10.00">scram::core::Terminal&lt; T &gt;</text>
<polyline fill="none" stroke="black" points="128.5,-524.5 275.5,-524.5 "/>
<text text-anchor="middle" x="202" y="-512.5" font-family="Helvetica,sans-Serif" font-size="10.00"> </text>
<polyline fill="none" stroke="black" points="128.5,-505.5 275.5,-505.5 "/>
<text text-anchor="start" x="136.5" y="-493.5" font-family="Helvetica,sans-Serif" font-size="10.00">+ Terminal()</text>
<text text-anchor="start" x="136.5" y="-482.5" font-family="Helvetica,sans-Serif" font-size="10.00">+ value()</text>
</a>
</g>
</g>
<!-- Node1&#45;&gt;Node8 -->
<g id="edge7" class="edge"><title>Node1&#45;&gt;Node8</title>
<path fill="none" stroke="midnightblue" d="M210.124,-647.254C208.067,-612.621 205.627,-571.549 203.961,-543.517"/>
<polygon fill="none" stroke="midnightblue" points="206.634,-647.528 210.721,-657.303 213.622,-647.113 206.634,-647.528"/>
</g>
<!-- Node9 -->
<g id="node9" class="node"><title>Node9</title>
<g id="a_node9"><a xlink:href="classscram_1_1core_1_1Vertex.xhtml" target="_top" xlink:title="{scram::core::Vertex\l\&lt; Ite \&gt;\n||+ Vertex()\l+ id()\l+ terminal()\l+ use_count()\l+ unique()\l# ~Vertex()\l}">
<polygon fill="white" stroke="black" points="0,-448 0,-571 110,-571 110,-448 0,-448"/>
<text text-anchor="start" x="8" y="-559" font-family="Helvetica,sans-Serif" font-size="10.00">scram::core::Vertex</text>
<text text-anchor="middle" x="55" y="-548" font-family="Helvetica,sans-Serif" font-size="10.00">&lt; Ite &gt;</text>
<polyline fill="none" stroke="black" points="0,-541 110,-541 "/>
<text text-anchor="middle" x="55" y="-529" font-family="Helvetica,sans-Serif" font-size="10.00"> </text>
<polyline fill="none" stroke="black" points="0,-522 110,-522 "/>
<text text-anchor="start" x="8" y="-510" font-family="Helvetica,sans-Serif" font-size="10.00">+ Vertex()</text>
<text text-anchor="start" x="8" y="-499" font-family="Helvetica,sans-Serif" font-size="10.00">+ id()</text>
<text text-anchor="start" x="8" y="-488" font-family="Helvetica,sans-Serif" font-size="10.00">+ terminal()</text>
<text text-anchor="start" x="8" y="-477" font-family="Helvetica,sans-Serif" font-size="10.00">+ use_count()</text>
<text text-anchor="start" x="8" y="-466" font-family="Helvetica,sans-Serif" font-size="10.00">+ unique()</text>
<text text-anchor="start" x="8" y="-455" font-family="Helvetica,sans-Serif" font-size="10.00"># ~Vertex()</text>
</a>
</g>
</g>
<!-- Node1&#45;&gt;Node9 -->
<g id="edge8" class="edge"><title>Node1&#45;&gt;Node9</title>
<path fill="none" stroke="orange" d="M152.806,-649.947C141.158,-637.09 129.377,-623.384 119,-610 109.561,-597.826 100.16,-584.245 91.584,-571.127"/>
<polygon fill="orange" stroke="orange" points="150.303,-652.396 159.637,-657.41 155.467,-647.67 150.303,-652.396"/>
<text text-anchor="middle" x="160" y="-631" font-family="Helvetica,sans-Serif" font-size="10.00"> &lt; Ite &gt;</text>
</g>
<!-- Node10 -->
<g id="node10" class="node"><title>Node10</title>
<g id="a_node10"><a xlink:href="classscram_1_1core_1_1Vertex.xhtml" target="_top" xlink:title="{scram::core::Vertex\l\&lt; SetNode \&gt;\n||+ Vertex()\l+ id()\l+ terminal()\l+ use_count()\l+ unique()\l# ~Vertex()\l}">
<polygon fill="white" stroke="black" points="479,-448 479,-571 589,-571 589,-448 479,-448"/>
<text text-anchor="start" x="487" y="-559" font-family="Helvetica,sans-Serif" font-size="10.00">scram::core::Vertex</text>
<text text-anchor="middle" x="534" y="-548" font-family="Helvetica,sans-Serif" font-size="10.00">&lt; SetNode &gt;</text>
<polyline fill="none" stroke="black" points="479,-541 589,-541 "/>
<text text-anchor="middle" x="534" y="-529" font-family="Helvetica,sans-Serif" font-size="10.00"> </text>
<polyline fill="none" stroke="black" points="479,-522 589,-522 "/>
<text text-anchor="start" x="487" y="-510" font-family="Helvetica,sans-Serif" font-size="10.00">+ Vertex()</text>
<text text-anchor="start" x="487" y="-499" font-family="Helvetica,sans-Serif" font-size="10.00">+ id()</text>
<text text-anchor="start" x="487" y="-488" font-family="Helvetica,sans-Serif" font-size="10.00">+ terminal()</text>
<text text-anchor="start" x="487" y="-477" font-family="Helvetica,sans-Serif" font-size="10.00">+ use_count()</text>
<text text-anchor="start" x="487" y="-466" font-family="Helvetica,sans-Serif" font-size="10.00">+ unique()</text>
<text text-anchor="start" x="487" y="-455" font-family="Helvetica,sans-Serif" font-size="10.00"># ~Vertex()</text>
</a>
</g>
</g>
<!-- Node1&#45;&gt;Node10 -->
<g id="edge10" class="edge"><title>Node1&#45;&gt;Node10</title>
<path fill="none" stroke="orange" d="M293.144,-694.155C347.103,-678.619 417.783,-652.028 469,-610 482.08,-599.267 493.449,-585.201 502.862,-571.039"/>
<polygon fill="orange" stroke="orange" points="291.952,-690.855 283.271,-696.929 293.845,-697.594 291.952,-690.855"/>
<text text-anchor="middle" x="472" y="-631" font-family="Helvetica,sans-Serif" font-size="10.00"> &lt; SetNode &gt;</text>
</g>
<!-- Node2 -->
<g id="node2" class="node"><title>Node2</title>
<polygon fill="white" stroke="#bfbfbf" points="175.5,-807.5 175.5,-864.5 252.5,-864.5 252.5,-807.5 175.5,-807.5"/>
<text text-anchor="middle" x="214" y="-852.5" font-family="Helvetica,sans-Serif" font-size="10.00">noncopyable</text>
<polyline fill="none" stroke="#bfbfbf" points="175.5,-845.5 252.5,-845.5 "/>
<text text-anchor="middle" x="214" y="-833.5" font-family="Helvetica,sans-Serif" font-size="10.00"> </text>
<polyline fill="none" stroke="#bfbfbf" points="175.5,-826.5 252.5,-826.5 "/>
<text text-anchor="middle" x="214" y="-814.5" font-family="Helvetica,sans-Serif" font-size="10.00"> </text>
</g>
<!-- Node2&#45;&gt;Node1 -->
<g id="edge1" class="edge"><title>Node2&#45;&gt;Node1</title>
<path fill="none" stroke="#8b1a1a" d="M214,-797.109C214,-788.362 214,-778.883 214,-769.569"/>
<polygon fill="none" stroke="#8b1a1a" points="210.5,-797.355 214,-807.355 217.5,-797.355 210.5,-797.355"/>
</g>
<!-- Node4 -->
<g id="node4" class="node"><title>Node4</title>
<g id="a_node4"><a xlink:href="classscram_1_1core_1_1NonTerminal.xhtml" target="_top" xlink:title="{scram::core::NonTerminal\l\&lt; Ite \&gt;\n||+ NonTerminal()\l+ index()\l+ order()\l+ module()\l+ module()\l+ coherent()\l+ coherent()\l+ high()\l+ low()\l+ mark()\l+ mark()\l# ~NonTerminal()\l* get_high_id\l* get_low_id\l}">
<polygon fill="white" stroke="black" points="216.5,-150.5 216.5,-361.5 355.5,-361.5 355.5,-150.5 216.5,-150.5"/>
<text text-anchor="start" x="224.5" y="-349.5" font-family="Helvetica,sans-Serif" font-size="10.00">scram::core::NonTerminal</text>
<text text-anchor="middle" x="286" y="-338.5" font-family="Helvetica,sans-Serif" font-size="10.00">&lt; Ite &gt;</text>
<polyline fill="none" stroke="black" points="216.5,-331.5 355.5,-331.5 "/>
<text text-anchor="middle" x="286" y="-319.5" font-family="Helvetica,sans-Serif" font-size="10.00"> </text>
<polyline fill="none" stroke="black" points="216.5,-312.5 355.5,-312.5 "/>
<text text-anchor="start" x="224.5" y="-300.5" font-family="Helvetica,sans-Serif" font-size="10.00">+ NonTerminal()</text>
<text text-anchor="start" x="224.5" y="-289.5" font-family="Helvetica,sans-Serif" font-size="10.00">+ index()</text>
<text text-anchor="start" x="224.5" y="-278.5" font-family="Helvetica,sans-Serif" font-size="10.00">+ order()</text>
<text text-anchor="start" x="224.5" y="-267.5" font-family="Helvetica,sans-Serif" font-size="10.00">+ module()</text>
<text text-anchor="start" x="224.5" y="-256.5" font-family="Helvetica,sans-Serif" font-size="10.00">+ module()</text>
<text text-anchor="start" x="224.5" y="-245.5" font-family="Helvetica,sans-Serif" font-size="10.00">+ coherent()</text>
<text text-anchor="start" x="224.5" y="-234.5" font-family="Helvetica,sans-Serif" font-size="10.00">+ coherent()</text>
<text text-anchor="start" x="224.5" y="-223.5" font-family="Helvetica,sans-Serif" font-size="10.00">+ high()</text>
<text text-anchor="start" x="224.5" y="-212.5" font-family="Helvetica,sans-Serif" font-size="10.00">+ low()</text>
<text text-anchor="start" x="224.5" y="-201.5" font-family="Helvetica,sans-Serif" font-size="10.00">+ mark()</text>
<text text-anchor="start" x="224.5" y="-190.5" font-family="Helvetica,sans-Serif" font-size="10.00">+ mark()</text>
<text text-anchor="start" x="224.5" y="-179.5" font-family="Helvetica,sans-Serif" font-size="10.00"># ~NonTerminal()</text>
<text text-anchor="start" x="224.5" y="-168.5" font-family="Helvetica,sans-Serif" font-size="10.00">* get_high_id</text>
<text text-anchor="start" x="224.5" y="-157.5" font-family="Helvetica,sans-Serif" font-size="10.00">* get_low_id</text>
</a>
</g>
</g>
<!-- Node3&#45;&gt;Node4 -->
<g id="edge3" class="edge"><title>Node3&#45;&gt;Node4</title>
<path fill="none" stroke="orange" d="M337.687,-399.849C333.113,-387.208 328.454,-374.332 323.9,-361.745"/>
<polygon fill="orange" stroke="orange" points="334.471,-401.249 341.165,-409.462 341.054,-398.867 334.471,-401.249"/>
<text text-anchor="middle" x="354" y="-383" font-family="Helvetica,sans-Serif" font-size="10.00"> &lt; Ite &gt;</text>
</g>
<!-- Node6 -->
<g id="node6" class="node"><title>Node6</title>
<g id="a_node6"><a xlink:href="classscram_1_1core_1_1NonTerminal.xhtml" target="_top" xlink:title="{scram::core::NonTerminal\l\&lt; SetNode \&gt;\n||+ NonTerminal()\l+ index()\l+ order()\l+ module()\l+ module()\l+ coherent()\l+ coherent()\l+ high()\l+ low()\l+ mark()\l+ mark()\l# ~NonTerminal()\l* get_high_id\l* get_low_id\l}">
<polygon fill="white" stroke="black" points="409.5,-150.5 409.5,-361.5 548.5,-361.5 548.5,-150.5 409.5,-150.5"/>
<text text-anchor="start" x="417.5" y="-349.5" font-family="Helvetica,sans-Serif" font-size="10.00">scram::core::NonTerminal</text>
<text text-anchor="middle" x="479" y="-338.5" font-family="Helvetica,sans-Serif" font-size="10.00">&lt; SetNode &gt;</text>
<polyline fill="none" stroke="black" points="409.5,-331.5 548.5,-331.5 "/>
<text text-anchor="middle" x="479" y="-319.5" font-family="Helvetica,sans-Serif" font-size="10.00"> </text>
<polyline fill="none" stroke="black" points="409.5,-312.5 548.5,-312.5 "/>
<text text-anchor="start" x="417.5" y="-300.5" font-family="Helvetica,sans-Serif" font-size="10.00">+ NonTerminal()</text>
<text text-anchor="start" x="417.5" y="-289.5" font-family="Helvetica,sans-Serif" font-size="10.00">+ index()</text>
<text text-anchor="start" x="417.5" y="-278.5" font-family="Helvetica,sans-Serif" font-size="10.00">+ order()</text>
<text text-anchor="start" x="417.5" y="-267.5" font-family="Helvetica,sans-Serif" font-size="10.00">+ module()</text>
<text text-anchor="start" x="417.5" y="-256.5" font-family="Helvetica,sans-Serif" font-size="10.00">+ module()</text>
<text text-anchor="start" x="417.5" y="-245.5" font-family="Helvetica,sans-Serif" font-size="10.00">+ coherent()</text>
<text text-anchor="start" x="417.5" y="-234.5" font-family="Helvetica,sans-Serif" font-size="10.00">+ coherent()</text>
<text text-anchor="start" x="417.5" y="-223.5" font-family="Helvetica,sans-Serif" font-size="10.00">+ high()</text>
<text text-anchor="start" x="417.5" y="-212.5" font-family="Helvetica,sans-Serif" font-size="10.00">+ low()</text>
<text text-anchor="start" x="417.5" y="-201.5" font-family="Helvetica,sans-Serif" font-size="10.00">+ mark()</text>
<text text-anchor="start" x="417.5" y="-190.5" font-family="Helvetica,sans-Serif" font-size="10.00">+ mark()</text>
<text text-anchor="start" x="417.5" y="-179.5" font-family="Helvetica,sans-Serif" font-size="10.00"># ~NonTerminal()</text>
<text text-anchor="start" x="417.5" y="-168.5" font-family="Helvetica,sans-Serif" font-size="10.00">* get_high_id</text>
<text text-anchor="start" x="417.5" y="-157.5" font-family="Helvetica,sans-Serif" font-size="10.00">* get_low_id</text>
</a>
</g>
</g>
<!-- Node3&#45;&gt;Node6 -->
<g id="edge5" class="edge"><title>Node3&#45;&gt;Node6</title>
<path fill="none" stroke="orange" d="M421.065,-399.849C426.192,-387.208 431.414,-374.332 436.519,-361.745"/>
<polygon fill="orange" stroke="orange" points="417.682,-398.879 417.167,-409.462 424.168,-401.51 417.682,-398.879"/>
<text text-anchor="middle" x="462" y="-383" font-family="Helvetica,sans-Serif" font-size="10.00"> &lt; SetNode &gt;</text>
</g>
<!-- Node5 -->
<g id="node5" class="node"><title>Node5</title>
<g id="a_node5"><a xlink:href="classscram_1_1core_1_1Ite.xhtml" target="_top" xlink:title="Representation of non&#45;terminal if&#45;then&#45;else vertices in BDD graphs. ">
<polygon fill="white" stroke="black" points="223.5,-0.5 223.5,-112.5 348.5,-112.5 348.5,-0.5 223.5,-0.5"/>
<text text-anchor="middle" x="286" y="-100.5" font-family="Helvetica,sans-Serif" font-size="10.00">scram::core::Ite</text>
<polyline fill="none" stroke="black" points="223.5,-93.5 348.5,-93.5 "/>
<text text-anchor="middle" x="286" y="-81.5" font-family="Helvetica,sans-Serif" font-size="10.00"> </text>
<polyline fill="none" stroke="black" points="223.5,-74.5 348.5,-74.5 "/>
<text text-anchor="start" x="231.5" y="-62.5" font-family="Helvetica,sans-Serif" font-size="10.00">+ complement_edge()</text>
<text text-anchor="start" x="231.5" y="-51.5" font-family="Helvetica,sans-Serif" font-size="10.00">+ complement_edge()</text>
<text text-anchor="start" x="231.5" y="-40.5" font-family="Helvetica,sans-Serif" font-size="10.00">+ p()</text>
<text text-anchor="start" x="231.5" y="-29.5" font-family="Helvetica,sans-Serif" font-size="10.00">+ p()</text>
<text text-anchor="start" x="231.5" y="-18.5" font-family="Helvetica,sans-Serif" font-size="10.00">+ factor()</text>
<text text-anchor="start" x="231.5" y="-7.5" font-family="Helvetica,sans-Serif" font-size="10.00">+ factor()</text>
</a>
</g>
</g>
<!-- Node4&#45;&gt;Node5 -->
<g id="edge4" class="edge"><title>Node4&#45;&gt;Node5</title>
<path fill="none" stroke="midnightblue" d="M286,-140.419C286,-130.833 286,-121.451 286,-112.648"/>
<polygon fill="none" stroke="midnightblue" points="282.5,-140.467 286,-150.467 289.5,-140.467 282.5,-140.467"/>
</g>
<!-- Node7 -->
<g id="node7" class="node"><title>Node7</title>
<g id="a_node7"><a xlink:href="classscram_1_1core_1_1SetNode.xhtml" target="_top" xlink:title="Representation of non&#45;terminal nodes in ZBDD. ">
<polygon fill="white" stroke="black" points="418,-0.5 418,-112.5 540,-112.5 540,-0.5 418,-0.5"/>
<text text-anchor="middle" x="479" y="-100.5" font-family="Helvetica,sans-Serif" font-size="10.00">scram::core::SetNode</text>
<polyline fill="none" stroke="black" points="418,-93.5 540,-93.5 "/>
<text text-anchor="middle" x="479" y="-81.5" font-family="Helvetica,sans-Serif" font-size="10.00"> </text>
<polyline fill="none" stroke="black" points="418,-74.5 540,-74.5 "/>
<text text-anchor="start" x="426" y="-62.5" font-family="Helvetica,sans-Serif" font-size="10.00">+ minimal()</text>
<text text-anchor="start" x="426" y="-51.5" font-family="Helvetica,sans-Serif" font-size="10.00">+ minimal()</text>
<text text-anchor="start" x="426" y="-40.5" font-family="Helvetica,sans-Serif" font-size="10.00">+ max_set_order()</text>
<text text-anchor="start" x="426" y="-29.5" font-family="Helvetica,sans-Serif" font-size="10.00">+ max_set_order()</text>
<text text-anchor="start" x="426" y="-18.5" font-family="Helvetica,sans-Serif" font-size="10.00">+ count()</text>
<text text-anchor="start" x="426" y="-7.5" font-family="Helvetica,sans-Serif" font-size="10.00">+ count()</text>
</a>
</g>
</g>
<!-- Node6&#45;&gt;Node7 -->
<g id="edge6" class="edge"><title>Node6&#45;&gt;Node7</title>
<path fill="none" stroke="midnightblue" d="M479,-140.419C479,-130.833 479,-121.451 479,-112.648"/>
<polygon fill="none" stroke="midnightblue" points="475.5,-140.467 479,-150.467 482.5,-140.467 475.5,-140.467"/>
</g>
<!-- Node9&#45;&gt;Node4 -->
<g id="edge9" class="edge"><title>Node9&#45;&gt;Node4</title>
<path fill="none" stroke="midnightblue" d="M96.1182,-439.366C103.307,-428.863 111.046,-418.405 119,-409 148.113,-374.575 184.77,-340.406 216.318,-313.209"/>
<polygon fill="none" stroke="midnightblue" points="93.1393,-437.524 90.4773,-447.779 98.9534,-441.422 93.1393,-437.524"/>
</g>
<!-- Node10&#45;&gt;Node6 -->
<g id="edge11" class="edge"><title>Node10&#45;&gt;Node6</title>
<path fill="none" stroke="midnightblue" d="M518.585,-438.012C513.411,-414.352 507.524,-387.434 501.902,-361.722"/>
<polygon fill="none" stroke="midnightblue" points="515.2,-438.918 520.756,-447.939 522.039,-437.423 515.2,-438.918"/>
</g>
</g>
</svg>
        <g id="navigator" transform="translate(0 0)" fill="#404254">
                <rect fill="#f2f5e9" fill-opacity="0.5" stroke="#606060" stroke-width=".5" x="0" y="0" width="60" height="60"/>
                <use id="zoomplus" xlink:href="#zoomPlus" x="17" y="9" onmousedown="handleZoom(evt,'in')"/>
                <use id="zoomminus" xlink:href="#zoomMin" x="42" y="9" onmousedown="handleZoom(evt,'out')"/>
                <use id="reset" xlink:href="#resetDef" x="30" y="36" onmousedown="handleReset()"/>
                <g id="arrowUp" xlink:href="#dirArrow" transform="translate(30 24)" onmousedown="handlePan(0,-1)">
                  <use xlink:href="#rim" fill="#404040">
                        <set attributeName="fill" to="#808080" begin="arrowUp.mouseover" end="arrowUp.mouseout"/>
                  </use>
                  <path fill="none" stroke="white" stroke-width="1.5" d="M0,-3.0v7 M-2.5,-0.5L0,-3.0L2.5,-0.5"/>
                </g>
                <g id="arrowRight" xlink:href="#dirArrow" transform="rotate(90) translate(36 -43)" onmousedown="handlePan(1,0)">
                  <use xlink:href="#rim" fill="#404040">
                        <set attributeName="fill" to="#808080" begin="arrowRight.mouseover" end="arrowRight.mouseout"/>
                  </use>
                  <path fill="none" stroke="white" stroke-width="1.5" d="M0,-3.0v7 M-2.5,-0.5L0,-3.0L2.5,-0.5"/>
                </g>
                <g id="arrowDown" xlink:href="#dirArrow" transform="rotate(180) translate(-30 -48)" onmousedown="handlePan(0,1)">
                  <use xlink:href="#rim" fill="#404040">
                        <set attributeName="fill" to="#808080" begin="arrowDown.mouseover" end="arrowDown.mouseout"/>
                  </use>
                  <path fill="none" stroke="white" stroke-width="1.5" d="M0,-3.0v7 M-2.5,-0.5L0,-3.0L2.5,-0.5"/>
                </g>
                <g id="arrowLeft" xlink:href="#dirArrow" transform="rotate(270) translate(-36 17)" onmousedown="handlePan(-1,0)">
                  <use xlink:href="#rim" fill="#404040">
                        <set attributeName="fill" to="#808080" begin="arrowLeft.mouseover" end="arrowLeft.mouseout"/>
                  </use>
                  <path fill="none" stroke="white" stroke-width="1.5" d="M0,-3.0v7 M-2.5,-0.5L0,-3.0L2.5,-0.5"/>
                </g>
        </g>
        <svg viewBox="0 0 15 15" width="100%" height="30px" preserveAspectRatio="xMaxYMin meet">
         <g id="arrow_out" transform="scale(0.3 0.3)">
          <a xlink:href="classscram_1_1core_1_1Vertex__inherit__graph_org.svg" target="_base">
           <rect id="button" ry="5" rx="5" y="6" x="6" height="38" width="38"
                fill="#f2f5e9" fill-opacity="0.5" stroke="#606060" stroke-width="1.0"/>
           <path id="arrow"
             d="M 11.500037,31.436501 C 11.940474,20.09759 22.043105,11.32322 32.158766,21.979434 L 37.068811,17.246167 C 37.068811,17.246167 37.088388,32 37.088388,32 L 22.160133,31.978069 C 22.160133,31.978069 26.997745,27.140456 26.997745,27.140456 C 18.528582,18.264221 13.291696,25.230495 11.500037,31.436501 z"
             style="fill:#404040;"/>
          </a>
         </g>
        </svg>
</svg>
