<?xml version="1.0" encoding="UTF-8" standalone="no"?>
<!DOCTYPE svg PUBLIC "-//W3C//DTD SVG 1.1//EN"
 "http://www.w3.org/Graphics/SVG/1.1/DTD/svg11.dtd">
<!-- Generated by graphviz version 2.38.0 (20140413.2041)
 -->
<!-- Title: scram::core::Zbdd::EliminateComplements Pages: 1 -->
<!--zoomable 559 -->
<svg id="main" version="1.1" xmlns="http://www.w3.org/2000/svg" xmlns:xlink="http://www.w3.org/1999/xlink" xml:space="preserve" onload="init(evt)">
<style type="text/css"><![CDATA[
.edge:hover path { stroke: red; }
.edge:hover polygon { stroke: red; fill: red; }
]]></style>
<script type="text/javascript"><![CDATA[
var edges = document.getElementsByTagName('g');
if (edges && edges.length) {
  for (var i=0;i<edges.length;i++) {
    if (edges[i].id.substr(0,4)=='edge') {
      edges[i].setAttribute('class','edge');
    }
  }
}
]]></script>
        <defs>
                <circle id="rim" cx="0" cy="0" r="7"/>
                <circle id="rim2" cx="0" cy="0" r="3.5"/>
                <g id="zoomPlus">
                        <use xlink:href="#rim" fill="#404040">
                                <set attributeName="fill" to="#808080" begin="zoomplus.mouseover" end="zoomplus.mouseout"/>
                        </use>
                        <path d="M-4,0h8M0,-4v8" fill="none" stroke="white" stroke-width="1.5" pointer-events="none"/>
                </g>
                <g id="zoomMin">
                        <use xlink:href="#rim" fill="#404040">
                                <set attributeName="fill" to="#808080" begin="zoomminus.mouseover" end="zoomminus.mouseout"/>
                        </use>
                        <path d="M-4,0h8" fill="none" stroke="white" stroke-width="1.5" pointer-events="none"/>
                </g>
                <g id="dirArrow">
                        <path fill="none" stroke="white" stroke-width="1.5" d="M0,-3.0v7 M-2.5,-0.5L0,-3.0L2.5,-0.5"/>
                </g>
               <g id="resetDef">
                       <use xlink:href="#rim2" fill="#404040">
                               <set attributeName="fill" to="#808080" begin="reset.mouseover" end="reset.mouseout"/>
                       </use>
               </g>
        </defs>

<script type="text/javascript">
var viewWidth = 662;
var viewHeight = 559;
var sectionId = 'dynsection-19';
</script>
<script xlink:href="svgpan.js"/>
<svg id="graph" class="graph">
<g id="viewport">
<title>scram::core::Zbdd::EliminateComplements</title>
<polygon fill="white" stroke="none" points="-4,4 -4,-555.125 658,-555.125 658,4 -4,4"/>
<!-- Node1 -->
<g id="node1" class="node"><title>Node1</title>
<polygon fill="#bfbfbf" stroke="black" points="0,-432.625 0,-462.625 128,-462.625 128,-432.625 0,-432.625"/>
<text text-anchor="start" x="8" y="-450.625" font-family="Helvetica,sans-Serif" font-size="10.00">scram::core::Zbdd::</text>
<text text-anchor="middle" x="64" y="-439.625" font-family="Helvetica,sans-Serif" font-size="10.00">EliminateComplements</text>
</g>
<!-- Node2 -->
<g id="node2" class="node"><title>Node2</title>
<g id="a_node2"><a xlink:href="classscram_1_1core_1_1Settings.xhtml#a0e43ec0f017d23a4fa4e376c4060d380" target="_top" xlink:title="scram::core::Settings\l::limit_order">
<polygon fill="white" stroke="black" points="164,-520.625 164,-550.625 283,-550.625 283,-520.625 164,-520.625"/>
<text text-anchor="start" x="172" y="-538.625" font-family="Helvetica,sans-Serif" font-size="10.00">scram::core::Settings</text>
<text text-anchor="middle" x="223.5" y="-527.625" font-family="Helvetica,sans-Serif" font-size="10.00">::limit_order</text>
</a>
</g>
</g>
<!-- Node1&#45;&gt;Node2 -->
<g id="edge1" class="edge"><title>Node1&#45;&gt;Node2</title>
<path fill="none" stroke="midnightblue" d="M90.0052,-462.799C109.889,-474.736 138.504,-491.634 164,-505.625 170.118,-508.983 176.65,-512.448 183.05,-515.777"/>
<polygon fill="midnightblue" stroke="midnightblue" points="181.777,-519.058 192.269,-520.53 184.984,-512.836 181.777,-519.058"/>
</g>
<!-- Node3 -->
<g id="node3" class="node"><title>Node3</title>
<g id="a_node3"><a xlink:href="classscram_1_1core_1_1SetNode.xhtml#a2d7f99792b82961df2e5ecfcd735bb5f" target="_top" xlink:title="scram::core::SetNode\l::max_set_order">
<polygon fill="white" stroke="black" points="513,-429.625 513,-459.625 635,-459.625 635,-429.625 513,-429.625"/>
<text text-anchor="start" x="521" y="-447.625" font-family="Helvetica,sans-Serif" font-size="10.00">scram::core::SetNode</text>
<text text-anchor="middle" x="574" y="-436.625" font-family="Helvetica,sans-Serif" font-size="10.00">::max_set_order</text>
</a>
</g>
</g>
<!-- Node1&#45;&gt;Node3 -->
<g id="edge2" class="edge"><title>Node1&#45;&gt;Node3</title>
<path fill="none" stroke="midnightblue" d="M128.159,-458.723C205.968,-470.766 342.095,-486.532 458,-472.625 475.908,-470.477 495.055,-466.51 512.486,-462.224"/>
<polygon fill="midnightblue" stroke="midnightblue" points="513.697,-465.528 522.528,-459.675 511.975,-458.743 513.697,-465.528"/>
</g>
<!-- Node4 -->
<g id="node4" class="node"><title>Node4</title>
<g id="a_node4"><a xlink:href="classscram_1_1core_1_1Zbdd.xhtml#a3dbb8ef5da2882daf6c39e9724eae459" target="_top" xlink:title="Removes subsets in ZBDD. ">
<polygon fill="white" stroke="black" points="168,-232.625 168,-262.625 279,-262.625 279,-232.625 168,-232.625"/>
<text text-anchor="start" x="176" y="-250.625" font-family="Helvetica,sans-Serif" font-size="10.00">scram::core::Zbdd::</text>
<text text-anchor="middle" x="223.5" y="-239.625" font-family="Helvetica,sans-Serif" font-size="10.00">Minimize</text>
</a>
</g>
</g>
<!-- Node1&#45;&gt;Node4 -->
<g id="edge3" class="edge"><title>Node1&#45;&gt;Node4</title>
<path fill="none" stroke="midnightblue" d="M76.8381,-432.593C104.145,-397.917 171.694,-312.141 204.306,-270.728"/>
<polygon fill="midnightblue" stroke="midnightblue" points="207.087,-272.854 210.525,-262.832 201.588,-268.523 207.087,-272.854"/>
</g>
<!-- Node5 -->
<g id="node5" class="node"><title>Node5</title>
<g id="a_node5"><a xlink:href="structscram_1_1core_1_1IntrusivePtrCast.xhtml#adc53e5b89cace18e05bac95316da7d91" target="_top" xlink:title="scram::core::IntrusivePtr\lCast\&lt; SetNode \&gt;::Ptr">
<polygon fill="white" stroke="black" points="321.5,-432.625 321.5,-462.625 455.5,-462.625 455.5,-432.625 321.5,-432.625"/>
<text text-anchor="start" x="329.5" y="-450.625" font-family="Helvetica,sans-Serif" font-size="10.00">scram::core::IntrusivePtr</text>
<text text-anchor="middle" x="388.5" y="-439.625" font-family="Helvetica,sans-Serif" font-size="10.00">Cast&lt; SetNode &gt;::Ptr</text>
</a>
</g>
</g>
<!-- Node1&#45;&gt;Node5 -->
<g id="edge17" class="edge"><title>Node1&#45;&gt;Node5</title>
<path fill="none" stroke="midnightblue" d="M128.331,-447.625C180.742,-447.625 255.366,-447.625 311.09,-447.625"/>
<polygon fill="midnightblue" stroke="midnightblue" points="311.265,-451.125 321.265,-447.625 311.265,-444.125 311.265,-451.125"/>
</g>
<!-- Node6 -->
<g id="node6" class="node"><title>Node6</title>
<g id="a_node6"><a xlink:href="structscram_1_1core_1_1IntrusivePtrCast.xhtml#af153c12dc6133b7d9f9b7a57bba29f1d" target="_top" xlink:title="scram::core::IntrusivePtr\lCast\&lt; T, Terminal\&lt; T \&gt; \&gt;::Ref">
<polygon fill="white" stroke="black" points="494,-232.625 494,-262.625 654,-262.625 654,-232.625 494,-232.625"/>
<text text-anchor="start" x="502" y="-250.625" font-family="Helvetica,sans-Serif" font-size="10.00">scram::core::IntrusivePtr</text>
<text text-anchor="middle" x="574" y="-239.625" font-family="Helvetica,sans-Serif" font-size="10.00">Cast&lt; T, Terminal&lt; T &gt; &gt;::Ref</text>
</a>
</g>
</g>
<!-- Node1&#45;&gt;Node6 -->
<g id="edge18" class="edge"><title>Node1&#45;&gt;Node6</title>
<path fill="none" stroke="midnightblue" d="M67.9986,-432.476C81.9149,-366.921 146.981,-107.2 319,-22.6253 374.44,4.63182 405.305,9.62032 458,-22.6253 476.885,-34.1819 537.501,-167.433 562.286,-223.258"/>
<polygon fill="midnightblue" stroke="midnightblue" points="559.099,-224.705 566.346,-232.433 565.5,-221.872 559.099,-224.705"/>
</g>
<!-- Node4&#45;&gt;Node5 -->
<g id="edge4" class="edge"><title>Node4&#45;&gt;Node5</title>
<path fill="none" stroke="midnightblue" d="M228.52,-262.735C238.259,-296.48 266.286,-378.543 319,-423.625 320.508,-424.915 322.09,-426.137 323.731,-427.295"/>
<polygon fill="midnightblue" stroke="midnightblue" points="322,-430.338 332.358,-432.563 325.647,-424.364 322,-430.338"/>
</g>
<!-- Node4&#45;&gt;Node6 -->
<g id="edge5" class="edge"><title>Node4&#45;&gt;Node6</title>
<path fill="none" stroke="midnightblue" d="M279.336,-242.55C334.104,-240.676 419.195,-240.375 483.712,-241.646"/>
<polygon fill="midnightblue" stroke="midnightblue" points="483.809,-245.149 493.882,-241.864 483.959,-238.151 483.809,-245.149"/>
</g>
<!-- Node4&#45;&gt;Node6 -->
<g id="edge9" class="edge"><title>Node4&#45;&gt;Node6</title>
<path fill="none" stroke="midnightblue" d="M279.336,-252.701C334.104,-254.575 419.195,-254.876 483.712,-253.605"/>
<polygon fill="midnightblue" stroke="midnightblue" points="483.959,-257.1 493.882,-253.387 483.809,-250.102 483.959,-257.1"/>
</g>
<!-- Node7 -->
<g id="node7" class="node"><title>Node7</title>
<g id="a_node7"><a xlink:href="classscram_1_1core_1_1Zbdd.xhtml#a42af18229ba2e80201bc0fdac07b7091" target="_top" xlink:title="Finds or adds a unique SetNode in the ZBDD. ">
<polygon fill="white" stroke="black" points="333,-383.625 333,-413.625 444,-413.625 444,-383.625 333,-383.625"/>
<text text-anchor="start" x="341" y="-401.625" font-family="Helvetica,sans-Serif" font-size="10.00">scram::core::Zbdd::</text>
<text text-anchor="middle" x="388.5" y="-390.625" font-family="Helvetica,sans-Serif" font-size="10.00">FindOrAddVertex</text>
</a>
</g>
</g>
<!-- Node4&#45;&gt;Node7 -->
<g id="edge6" class="edge"><title>Node4&#45;&gt;Node7</title>
<path fill="none" stroke="midnightblue" d="M231.931,-262.846C245.588,-289.296 277.153,-343.854 319,-374.625 321.043,-376.128 323.188,-377.542 325.407,-378.873"/>
<polygon fill="midnightblue" stroke="midnightblue" points="323.798,-381.982 334.268,-383.604 327.094,-375.807 323.798,-381.982"/>
</g>
<!-- Node8 -->
<g id="node8" class="node"><title>Node8</title>
<g id="a_node8"><a xlink:href="classscram_1_1core_1_1SetNode.xhtml#a88d05af2b9f4f08b7bc66a31c2b9e249" target="_top" xlink:title="scram::core::SetNode\l::minimal">
<polygon fill="white" stroke="black" points="327.5,-179.625 327.5,-209.625 449.5,-209.625 449.5,-179.625 327.5,-179.625"/>
<text text-anchor="start" x="335.5" y="-197.625" font-family="Helvetica,sans-Serif" font-size="10.00">scram::core::SetNode</text>
<text text-anchor="middle" x="388.5" y="-186.625" font-family="Helvetica,sans-Serif" font-size="10.00">::minimal</text>
</a>
</g>
</g>
<!-- Node4&#45;&gt;Node8 -->
<g id="edge10" class="edge"><title>Node4&#45;&gt;Node8</title>
<path fill="none" stroke="midnightblue" d="M270.773,-232.579C289.7,-226.425 311.766,-219.25 331.586,-212.806"/>
<polygon fill="midnightblue" stroke="midnightblue" points="332.683,-216.13 341.111,-209.709 330.519,-209.473 332.683,-216.13"/>
</g>
<!-- Node9 -->
<g id="node9" class="node"><title>Node9</title>
<g id="a_node9"><a xlink:href="classscram_1_1core_1_1Terminal.xhtml#a7a25b0b40498f4876571a5dac4e724c3" target="_top" xlink:title="scram::core::Terminal\l::value">
<polygon fill="white" stroke="black" points="329,-32.6253 329,-62.6253 448,-62.6253 448,-32.6253 329,-32.6253"/>
<text text-anchor="start" x="337" y="-50.6253" font-family="Helvetica,sans-Serif" font-size="10.00">scram::core::Terminal</text>
<text text-anchor="middle" x="388.5" y="-39.6253" font-family="Helvetica,sans-Serif" font-size="10.00">::value</text>
</a>
</g>
</g>
<!-- Node4&#45;&gt;Node9 -->
<g id="edge11" class="edge"><title>Node4&#45;&gt;Node9</title>
<path fill="none" stroke="midnightblue" d="M228.52,-232.516C238.259,-198.771 266.286,-116.708 319,-71.6253 320.508,-70.3354 322.09,-69.1133 323.731,-67.9557"/>
<polygon fill="midnightblue" stroke="midnightblue" points="325.647,-70.8866 332.358,-62.6881 322,-64.9122 325.647,-70.8866"/>
</g>
<!-- Node11 -->
<g id="node11" class="node"><title>Node11</title>
<g id="a_node11"><a xlink:href="classscram_1_1core_1_1Settings.xhtml#ae64f362fceb44402e101140dfc1725ba" target="_top" xlink:title="scram::core::Settings\l::prime_implicants">
<polygon fill="white" stroke="black" points="329,-130.625 329,-160.625 448,-160.625 448,-130.625 329,-130.625"/>
<text text-anchor="start" x="337" y="-148.625" font-family="Helvetica,sans-Serif" font-size="10.00">scram::core::Settings</text>
<text text-anchor="middle" x="388.5" y="-137.625" font-family="Helvetica,sans-Serif" font-size="10.00">::prime_implicants</text>
</a>
</g>
</g>
<!-- Node4&#45;&gt;Node11 -->
<g id="edge13" class="edge"><title>Node4&#45;&gt;Node11</title>
<path fill="none" stroke="midnightblue" d="M239.682,-232.509C257.421,-215.535 288.274,-188.089 319,-170.625 322.653,-168.549 326.51,-166.591 330.456,-164.756"/>
<polygon fill="midnightblue" stroke="midnightblue" points="332.004,-167.899 339.774,-160.697 329.209,-161.482 332.004,-167.899"/>
</g>
<!-- Node12 -->
<g id="node12" class="node"><title>Node12</title>
<g id="a_node12"><a xlink:href="classscram_1_1core_1_1NonTerminal.xhtml#aeeaafd82ae5890a7ec3462c68ffc8628" target="_top" xlink:title="scram::core::NonTerminal\l::index">
<polygon fill="white" stroke="black" points="319,-81.6253 319,-111.625 458,-111.625 458,-81.6253 319,-81.6253"/>
<text text-anchor="start" x="327" y="-99.6253" font-family="Helvetica,sans-Serif" font-size="10.00">scram::core::NonTerminal</text>
<text text-anchor="middle" x="388.5" y="-88.6253" font-family="Helvetica,sans-Serif" font-size="10.00">::index</text>
</a>
</g>
</g>
<!-- Node4&#45;&gt;Node12 -->
<g id="edge14" class="edge"><title>Node4&#45;&gt;Node12</title>
<path fill="none" stroke="midnightblue" d="M231.931,-232.405C245.588,-205.955 277.153,-151.396 319,-120.625 321.043,-119.123 323.188,-117.709 325.407,-116.377"/>
<polygon fill="midnightblue" stroke="midnightblue" points="327.094,-119.444 334.268,-111.647 323.798,-113.269 327.094,-119.444"/>
</g>
<!-- Node13 -->
<g id="node13" class="node"><title>Node13</title>
<g id="a_node13"><a xlink:href="classscram_1_1core_1_1NonTerminal.xhtml#a9230422e92d086c34f67bcb864bfc8a9" target="_top" xlink:title="scram::core::NonTerminal\l::module">
<polygon fill="white" stroke="black" points="319,-334.625 319,-364.625 458,-364.625 458,-334.625 319,-334.625"/>
<text text-anchor="start" x="327" y="-352.625" font-family="Helvetica,sans-Serif" font-size="10.00">scram::core::NonTerminal</text>
<text text-anchor="middle" x="388.5" y="-341.625" font-family="Helvetica,sans-Serif" font-size="10.00">::module</text>
</a>
</g>
</g>
<!-- Node4&#45;&gt;Node13 -->
<g id="edge15" class="edge"><title>Node4&#45;&gt;Node13</title>
<path fill="none" stroke="midnightblue" d="M239.287,-262.716C256.901,-279.963 287.871,-308.069 319,-325.625 322.056,-327.349 325.258,-328.982 328.537,-330.522"/>
<polygon fill="midnightblue" stroke="midnightblue" points="327.363,-333.829 337.929,-334.622 330.164,-327.414 327.363,-333.829"/>
</g>
<!-- Node14 -->
<g id="node14" class="node"><title>Node14</title>
<g id="a_node14"><a xlink:href="classscram_1_1core_1_1NonTerminal.xhtml#adcdd0c5114aa6a1d32a03928adc07c49" target="_top" xlink:title="scram::core::NonTerminal\l::coherent">
<polygon fill="white" stroke="black" points="319,-285.625 319,-315.625 458,-315.625 458,-285.625 319,-285.625"/>
<text text-anchor="start" x="327" y="-303.625" font-family="Helvetica,sans-Serif" font-size="10.00">scram::core::NonTerminal</text>
<text text-anchor="middle" x="388.5" y="-292.625" font-family="Helvetica,sans-Serif" font-size="10.00">::coherent</text>
</a>
</g>
</g>
<!-- Node4&#45;&gt;Node14 -->
<g id="edge16" class="edge"><title>Node4&#45;&gt;Node14</title>
<path fill="none" stroke="midnightblue" d="M270.773,-262.671C289.7,-268.825 311.766,-276 331.586,-282.445"/>
<polygon fill="midnightblue" stroke="midnightblue" points="330.519,-285.778 341.111,-285.542 332.683,-279.121 330.519,-285.778"/>
</g>
<!-- Node7&#45;&gt;Node3 -->
<g id="edge7" class="edge"><title>Node7&#45;&gt;Node3</title>
<path fill="none" stroke="midnightblue" d="M444.059,-412.302C462.586,-416.947 483.549,-422.202 503.105,-427.104"/>
<polygon fill="midnightblue" stroke="midnightblue" points="502.328,-430.517 512.879,-429.554 504.03,-423.727 502.328,-430.517"/>
</g>
<!-- Node7&#45;&gt;Node6 -->
<g id="edge8" class="edge"><title>Node7&#45;&gt;Node6</title>
<path fill="none" stroke="midnightblue" d="M441.341,-383.624C447.171,-381.027 452.856,-378.04 458,-374.625 500.265,-346.572 537.255,-299.534 557.24,-271.255"/>
<polygon fill="midnightblue" stroke="midnightblue" points="560.294,-272.993 563.117,-262.781 554.542,-269.004 560.294,-272.993"/>
</g>
<!-- Node10 -->
<g id="node10" class="node"><title>Node10</title>
<g id="a_node10"><a xlink:href="classscram_1_1core_1_1Vertex.xhtml#a8a4a6e9871c7b80b9951fea57617d438" target="_top" xlink:title="scram::core::Vertex::id">
<polygon fill="white" stroke="black" points="511.5,-38.1253 511.5,-57.1253 636.5,-57.1253 636.5,-38.1253 511.5,-38.1253"/>
<text text-anchor="middle" x="574" y="-45.1253" font-family="Helvetica,sans-Serif" font-size="10.00">scram::core::Vertex::id</text>
</a>
</g>
</g>
<!-- Node9&#45;&gt;Node10 -->
<g id="edge12" class="edge"><title>Node9&#45;&gt;Node10</title>
<path fill="none" stroke="midnightblue" d="M448.065,-47.6253C464.9,-47.6253 483.457,-47.6253 501.002,-47.6253"/>
<polygon fill="midnightblue" stroke="midnightblue" points="501.195,-51.1254 511.195,-47.6253 501.195,-44.1254 501.195,-51.1254"/>
</g>
</g>
</svg>
        <g id="navigator" transform="translate(0 0)" fill="#404254">
                <rect fill="#f2f5e9" fill-opacity="0.5" stroke="#606060" stroke-width=".5" x="0" y="0" width="60" height="60"/>
                <use id="zoomplus" xlink:href="#zoomPlus" x="17" y="9" onmousedown="handleZoom(evt,'in')"/>
                <use id="zoomminus" xlink:href="#zoomMin" x="42" y="9" onmousedown="handleZoom(evt,'out')"/>
                <use id="reset" xlink:href="#resetDef" x="30" y="36" onmousedown="handleReset()"/>
                <g id="arrowUp" xlink:href="#dirArrow" transform="translate(30 24)" onmousedown="handlePan(0,-1)">
                  <use xlink:href="#rim" fill="#404040">
                        <set attributeName="fill" to="#808080" begin="arrowUp.mouseover" end="arrowUp.mouseout"/>
                  </use>
                  <path fill="none" stroke="white" stroke-width="1.5" d="M0,-3.0v7 M-2.5,-0.5L0,-3.0L2.5,-0.5"/>
                </g>
                <g id="arrowRight" xlink:href="#dirArrow" transform="rotate(90) translate(36 -43)" onmousedown="handlePan(1,0)">
                  <use xlink:href="#rim" fill="#404040">
                        <set attributeName="fill" to="#808080" begin="arrowRight.mouseover" end="arrowRight.mouseout"/>
                  </use>
                  <path fill="none" stroke="white" stroke-width="1.5" d="M0,-3.0v7 M-2.5,-0.5L0,-3.0L2.5,-0.5"/>
                </g>
                <g id="arrowDown" xlink:href="#dirArrow" transform="rotate(180) translate(-30 -48)" onmousedown="handlePan(0,1)">
                  <use xlink:href="#rim" fill="#404040">
                        <set attributeName="fill" to="#808080" begin="arrowDown.mouseover" end="arrowDown.mouseout"/>
                  </use>
                  <path fill="none" stroke="white" stroke-width="1.5" d="M0,-3.0v7 M-2.5,-0.5L0,-3.0L2.5,-0.5"/>
                </g>
                <g id="arrowLeft" xlink:href="#dirArrow" transform="rotate(270) translate(-36 17)" onmousedown="handlePan(-1,0)">
                  <use xlink:href="#rim" fill="#404040">
                        <set attributeName="fill" to="#808080" begin="arrowLeft.mouseover" end="arrowLeft.mouseout"/>
                  </use>
                  <path fill="none" stroke="white" stroke-width="1.5" d="M0,-3.0v7 M-2.5,-0.5L0,-3.0L2.5,-0.5"/>
                </g>
        </g>
        <svg viewBox="0 0 15 15" width="100%" height="30px" preserveAspectRatio="xMaxYMin meet">
         <g id="arrow_out" transform="scale(0.3 0.3)">
          <a xlink:href="classscram_1_1core_1_1Zbdd_ac3ac27090b550d973b20bd971c3de9f9_cgraph_org.svg" target="_base">
           <rect id="button" ry="5" rx="5" y="6" x="6" height="38" width="38"
                fill="#f2f5e9" fill-opacity="0.5" stroke="#606060" stroke-width="1.0"/>
           <path id="arrow"
             d="M 11.500037,31.436501 C 11.940474,20.09759 22.043105,11.32322 32.158766,21.979434 L 37.068811,17.246167 C 37.068811,17.246167 37.088388,32 37.088388,32 L 22.160133,31.978069 C 22.160133,31.978069 26.997745,27.140456 26.997745,27.140456 C 18.528582,18.264221 13.291696,25.230495 11.500037,31.436501 z"
             style="fill:#404040;"/>
          </a>
         </g>
        </svg>
</svg>
