<?xml version="1.0" encoding="UTF-8" standalone="no"?>
<!DOCTYPE svg PUBLIC "-//W3C//DTD SVG 1.1//EN"
 "http://www.w3.org/Graphics/SVG/1.1/DTD/svg11.dtd">
<!-- Generated by graphviz version 2.38.0 (20140413.2041)
 -->
<!-- Title: scram::mef::PeriodicTest::PeriodicTest Pages: 1 -->
<svg width="704pt" height="389pt"
 viewBox="0.00 0.00 704.00 389.00" xmlns="http://www.w3.org/2000/svg" xmlns:xlink="http://www.w3.org/1999/xlink">
<g id="graph0" class="graph" transform="scale(1 1) rotate(0) translate(4 385)">
<title>scram::mef::PeriodicTest::PeriodicTest</title>
<polygon fill="white" stroke="none" points="-4,4 -4,-385 700,-385 700,4 -4,4"/>
<!-- Node1 -->
<g id="node1" class="node"><title>Node1</title>
<polygon fill="#bfbfbf" stroke="black" points="0,-115 0,-145 134,-145 134,-115 0,-115"/>
<text text-anchor="start" x="8" y="-133" font-family="Helvetica,sans-Serif" font-size="10.00">scram::mef::PeriodicTest</text>
<text text-anchor="middle" x="67" y="-122" font-family="Helvetica,sans-Serif" font-size="10.00">::PeriodicTest</text>
</g>
<!-- Node2 -->
<g id="node2" class="node"><title>Node2</title>
<g id="a_node2"><a xlink:href="expression_8cc.xhtml#a262d38f7d6438e25ea34765b8d6a03eb" target="_top" xlink:title="Ensures that expression yields non&#45;negative (&gt;= 0) values. ">
<polygon fill="white" stroke="black" points="170,-176.5 170,-195.5 343,-195.5 343,-176.5 170,-176.5"/>
<text text-anchor="middle" x="256.5" y="-183.5" font-family="Helvetica,sans-Serif" font-size="10.00">scram::mef::EnsureNonNegative</text>
</a>
</g>
</g>
<!-- Node1&#45;&gt;Node2 -->
<g id="edge1" class="edge"><title>Node1&#45;&gt;Node2</title>
<path fill="none" stroke="midnightblue" d="M105.878,-145.064C124.924,-152.298 148.477,-160.733 170,-167 178.792,-169.56 188.178,-171.967 197.393,-174.151"/>
<polygon fill="midnightblue" stroke="midnightblue" points="196.759,-177.596 207.289,-176.43 198.33,-170.775 196.759,-177.596"/>
</g>
<!-- Node9 -->
<g id="node9" class="node"><title>Node9</title>
<g id="a_node9"><a xlink:href="expression_8cc.xhtml#ab3b34a51ff3513ee93b109cd33ccdda6" target="_top" xlink:title="Ensures that expression yields positive (&gt; 0) values. ">
<polygon fill="white" stroke="black" points="183,-120.5 183,-139.5 330,-139.5 330,-120.5 183,-120.5"/>
<text text-anchor="middle" x="256.5" y="-127.5" font-family="Helvetica,sans-Serif" font-size="10.00">scram::mef::EnsurePositive</text>
</a>
</g>
</g>
<!-- Node1&#45;&gt;Node9 -->
<g id="edge12" class="edge"><title>Node1&#45;&gt;Node9</title>
<path fill="none" stroke="midnightblue" d="M134.105,-130C146.585,-130 159.781,-130 172.697,-130"/>
<polygon fill="midnightblue" stroke="midnightblue" points="172.976,-133.5 182.976,-130 172.976,-126.5 172.976,-133.5"/>
</g>
<!-- Node12 -->
<g id="node12" class="node"><title>Node12</title>
<g id="a_node12"><a xlink:href="expression_8cc.xhtml#a287db91ea8f1c33cca483d75195bc2bc" target="_top" xlink:title="Ensures that expression can be used for probability ([0, 1]). ">
<polygon fill="white" stroke="black" points="176.5,-60.5 176.5,-79.5 336.5,-79.5 336.5,-60.5 176.5,-60.5"/>
<text text-anchor="middle" x="256.5" y="-67.5" font-family="Helvetica,sans-Serif" font-size="10.00">scram::mef::EnsureProbability</text>
</a>
</g>
</g>
<!-- Node1&#45;&gt;Node12 -->
<g id="edge21" class="edge"><title>Node1&#45;&gt;Node12</title>
<path fill="none" stroke="midnightblue" d="M115.314,-114.859C146.369,-104.922 186.517,-92.0745 215.885,-82.6769"/>
<polygon fill="midnightblue" stroke="midnightblue" points="217.333,-85.8885 225.79,-79.5072 215.199,-79.2215 217.333,-85.8885"/>
</g>
<!-- Node2&#45;&gt;Node2 -->
<g id="edge2" class="edge"><title>Node2&#45;&gt;Node2</title>
<path fill="none" stroke="midnightblue" d="M227.524,-195.757C213.427,-204.565 223.086,-214 256.5,-214 279.472,-214 291.216,-209.541 291.732,-203.891"/>
<polygon fill="midnightblue" stroke="midnightblue" points="294.347,-201.55 285.476,-195.757 288.798,-205.818 294.347,-201.55"/>
</g>
<!-- Node3 -->
<g id="node3" class="node"><title>Node3</title>
<g id="a_node3"><a xlink:href="classscram_1_1mef_1_1Expression.xhtml#a179b21e75df522673e6d51b784d10e86" target="_top" xlink:title="scram::mef::Expression\l::interval">
<polygon fill="white" stroke="black" points="381.5,-171 381.5,-201 510.5,-201 510.5,-171 381.5,-171"/>
<text text-anchor="start" x="389.5" y="-189" font-family="Helvetica,sans-Serif" font-size="10.00">scram::mef::Expression</text>
<text text-anchor="middle" x="446" y="-178" font-family="Helvetica,sans-Serif" font-size="10.00">::interval</text>
</a>
</g>
</g>
<!-- Node2&#45;&gt;Node3 -->
<g id="edge3" class="edge"><title>Node2&#45;&gt;Node3</title>
<path fill="none" stroke="midnightblue" d="M343.02,-186C352.524,-186 362.142,-186 371.48,-186"/>
<polygon fill="midnightblue" stroke="midnightblue" points="371.482,-189.5 381.482,-186 371.482,-182.5 371.482,-189.5"/>
</g>
<!-- Node7 -->
<g id="node7" class="node"><title>Node7</title>
<g id="a_node7"><a xlink:href="classscram_1_1mef_1_1Expression.xhtml#af4c1a5cb29e8f45623a99742b7ba8bc5" target="_top" xlink:title="scram::mef::Expression\l::value">
<polygon fill="white" stroke="black" points="558,-73 558,-103 687,-103 687,-73 558,-73"/>
<text text-anchor="start" x="566" y="-91" font-family="Helvetica,sans-Serif" font-size="10.00">scram::mef::Expression</text>
<text text-anchor="middle" x="622.5" y="-80" font-family="Helvetica,sans-Serif" font-size="10.00">::value</text>
</a>
</g>
</g>
<!-- Node2&#45;&gt;Node7 -->
<g id="edge11" class="edge"><title>Node2&#45;&gt;Node7</title>
<path fill="none" stroke="midnightblue" d="M301.943,-176.43C315.176,-173.498 329.694,-170.199 343,-167 418.883,-148.754 438.052,-144.767 513,-123 523.467,-119.96 545.009,-113.058 566.159,-106.18"/>
<polygon fill="midnightblue" stroke="midnightblue" points="567.385,-109.461 575.808,-103.035 565.216,-102.806 567.385,-109.461"/>
</g>
<!-- Node8 -->
<g id="node8" class="node"><title>Node8</title>
<g id="a_node8"><a xlink:href="expression_8h.xhtml#a5682dd6fbc6d7dd33ebf8b5665006b99" target="_top" xlink:title="Checks if all values in a given interval are non&#45;negative. ">
<polygon fill="white" stroke="black" points="549,-343.5 549,-362.5 696,-362.5 696,-343.5 549,-343.5"/>
<text text-anchor="middle" x="622.5" y="-350.5" font-family="Helvetica,sans-Serif" font-size="10.00">scram::mef::IsNonNegative</text>
</a>
</g>
</g>
<!-- Node2&#45;&gt;Node8 -->
<g id="edge9" class="edge"><title>Node2&#45;&gt;Node8</title>
<path fill="none" stroke="midnightblue" d="M262.053,-195.885C275.398,-223.556 317.398,-301.866 379,-334 427.763,-359.436 489.673,-363.909 538.733,-362.165"/>
<polygon fill="midnightblue" stroke="midnightblue" points="539.164,-365.65 548.997,-361.704 538.85,-358.657 539.164,-365.65"/>
</g>
<!-- Node4 -->
<g id="node4" class="node"><title>Node4</title>
<g id="a_node4"><a xlink:href="classscram_1_1mef_1_1Expression.xhtml#a058aef65da884a47ea3345bc31488b7a" target="_top" xlink:title="Determines if the value of the expression contains deviate expressions. ">
<polygon fill="white" stroke="black" points="558,-220 558,-250 687,-250 687,-220 558,-220"/>
<text text-anchor="start" x="566" y="-238" font-family="Helvetica,sans-Serif" font-size="10.00">scram::mef::Expression</text>
<text text-anchor="middle" x="622.5" y="-227" font-family="Helvetica,sans-Serif" font-size="10.00">::IsDeviate</text>
</a>
</g>
</g>
<!-- Node3&#45;&gt;Node4 -->
<g id="edge4" class="edge"><title>Node3&#45;&gt;Node4</title>
<path fill="none" stroke="midnightblue" d="M500.78,-201.101C518.943,-206.202 539.388,-211.943 558.219,-217.23"/>
<polygon fill="midnightblue" stroke="midnightblue" points="557.324,-220.615 567.898,-219.948 559.217,-213.875 557.324,-220.615"/>
</g>
<!-- Node5 -->
<g id="node5" class="node"><title>Node5</title>
<g id="a_node5"><a xlink:href="classscram_1_1mef_1_1Expression.xhtml#ab6d31c4ddb5d4a827727829cbd4e4449" target="_top" xlink:title="This routine resets the sampling to get new values. ">
<polygon fill="white" stroke="black" points="558,-171 558,-201 687,-201 687,-171 558,-171"/>
<text text-anchor="start" x="566" y="-189" font-family="Helvetica,sans-Serif" font-size="10.00">scram::mef::Expression</text>
<text text-anchor="middle" x="622.5" y="-178" font-family="Helvetica,sans-Serif" font-size="10.00">::Reset</text>
</a>
</g>
</g>
<!-- Node3&#45;&gt;Node5 -->
<g id="edge6" class="edge"><title>Node3&#45;&gt;Node5</title>
<path fill="none" stroke="midnightblue" d="M510.986,-186C522.917,-186 535.474,-186 547.672,-186"/>
<polygon fill="midnightblue" stroke="midnightblue" points="547.813,-189.5 557.813,-186 547.813,-182.5 547.813,-189.5"/>
</g>
<!-- Node6 -->
<g id="node6" class="node"><title>Node6</title>
<g id="a_node6"><a xlink:href="classscram_1_1mef_1_1Expression.xhtml#a5cf00d8b2ff843ad029a501a89ee572a" target="_top" xlink:title="scram::mef::Expression\l::Sample">
<polygon fill="white" stroke="black" points="558,-122 558,-152 687,-152 687,-122 558,-122"/>
<text text-anchor="start" x="566" y="-140" font-family="Helvetica,sans-Serif" font-size="10.00">scram::mef::Expression</text>
<text text-anchor="middle" x="622.5" y="-129" font-family="Helvetica,sans-Serif" font-size="10.00">::Sample</text>
</a>
</g>
</g>
<!-- Node3&#45;&gt;Node6 -->
<g id="edge7" class="edge"><title>Node3&#45;&gt;Node6</title>
<path fill="none" stroke="midnightblue" d="M500.78,-170.899C518.943,-165.798 539.388,-160.057 558.219,-154.77"/>
<polygon fill="midnightblue" stroke="midnightblue" points="559.217,-158.125 567.898,-152.052 557.324,-151.385 559.217,-158.125"/>
</g>
<!-- Node3&#45;&gt;Node7 -->
<g id="edge8" class="edge"><title>Node3&#45;&gt;Node7</title>
<path fill="none" stroke="midnightblue" d="M488.105,-170.849C496.756,-166.715 505.519,-161.757 513,-156 533.025,-140.591 528.18,-126.316 549,-112 551.151,-110.521 553.4,-109.128 555.719,-107.815"/>
<polygon fill="midnightblue" stroke="midnightblue" points="557.608,-110.782 564.952,-103.146 554.449,-104.535 557.608,-110.782"/>
</g>
<!-- Node4&#45;&gt;Node4 -->
<g id="edge5" class="edge"><title>Node4&#45;&gt;Node4</title>
<path fill="none" stroke="midnightblue" d="M591.828,-250.159C584.432,-259.557 594.656,-268.5 622.5,-268.5 639.467,-268.5 649.892,-265.179 653.773,-260.458"/>
<polygon fill="midnightblue" stroke="midnightblue" points="657.249,-259.938 653.172,-250.159 650.261,-260.346 657.249,-259.938"/>
</g>
<!-- Node8&#45;&gt;Node8 -->
<g id="edge10" class="edge"><title>Node8&#45;&gt;Node8</title>
<path fill="none" stroke="midnightblue" d="M595.373,-362.757C582.177,-371.565 591.219,-381 622.5,-381 644.006,-381 655,-376.541 655.483,-370.891"/>
<polygon fill="midnightblue" stroke="midnightblue" points="658.31,-368.827 649.627,-362.757 652.629,-372.917 658.31,-368.827"/>
</g>
<!-- Node9&#45;&gt;Node3 -->
<g id="edge14" class="edge"><title>Node9&#45;&gt;Node3</title>
<path fill="none" stroke="midnightblue" d="M289.732,-139.627C315.827,-147.42 353.306,-158.614 384.904,-168.051"/>
<polygon fill="midnightblue" stroke="midnightblue" points="383.919,-171.41 394.502,-170.918 385.922,-164.702 383.919,-171.41"/>
</g>
<!-- Node9&#45;&gt;Node7 -->
<g id="edge20" class="edge"><title>Node9&#45;&gt;Node7</title>
<path fill="none" stroke="midnightblue" d="M330.286,-121.602C393.372,-114.322 484.238,-103.838 547.638,-96.5226"/>
<polygon fill="midnightblue" stroke="midnightblue" points="548.428,-99.9547 557.961,-95.3314 547.626,-93.0008 548.428,-99.9547"/>
</g>
<!-- Node9&#45;&gt;Node9 -->
<g id="edge13" class="edge"><title>Node9&#45;&gt;Node9</title>
<path fill="none" stroke="midnightblue" d="M227.524,-139.757C213.427,-148.565 223.086,-158 256.5,-158 279.472,-158 291.216,-153.541 291.732,-147.891"/>
<polygon fill="midnightblue" stroke="midnightblue" points="294.347,-145.55 285.476,-139.757 288.798,-149.818 294.347,-145.55"/>
</g>
<!-- Node10 -->
<g id="node10" class="node"><title>Node10</title>
<g id="a_node10"><a xlink:href="expression_8h.xhtml#a4962ab79380de2b807438620d16a098e" target="_top" xlink:title="Checks if all values in a given interval are positive. ">
<polygon fill="white" stroke="black" points="385,-287.5 385,-306.5 507,-306.5 507,-287.5 385,-287.5"/>
<text text-anchor="middle" x="446" y="-294.5" font-family="Helvetica,sans-Serif" font-size="10.00">scram::mef::IsPositive</text>
</a>
</g>
</g>
<!-- Node9&#45;&gt;Node10 -->
<g id="edge15" class="edge"><title>Node9&#45;&gt;Node10</title>
<path fill="none" stroke="midnightblue" d="M289.586,-139.598C306.563,-145.688 327.119,-154.752 343,-167 348.526,-171.262 404.595,-244.17 431.169,-278.893"/>
<polygon fill="midnightblue" stroke="midnightblue" points="428.675,-281.393 437.53,-287.211 434.236,-277.141 428.675,-281.393"/>
</g>
<!-- Node10&#45;&gt;Node8 -->
<g id="edge17" class="edge"><title>Node10&#45;&gt;Node8</title>
<path fill="none" stroke="midnightblue" d="M471.518,-306.611C492.046,-314.484 522.204,-325.648 549,-334 556.599,-336.369 564.706,-338.69 572.644,-340.852"/>
<polygon fill="midnightblue" stroke="midnightblue" points="571.994,-344.301 582.559,-343.496 573.798,-337.537 571.994,-344.301"/>
</g>
<!-- Node10&#45;&gt;Node10 -->
<g id="edge16" class="edge"><title>Node10&#45;&gt;Node10</title>
<path fill="none" stroke="midnightblue" d="M418.873,-306.757C405.677,-315.565 414.719,-325 446,-325 467.506,-325 478.5,-320.541 478.983,-314.891"/>
<polygon fill="midnightblue" stroke="midnightblue" points="481.81,-312.827 473.127,-306.757 476.129,-316.917 481.81,-312.827"/>
</g>
<!-- Node11 -->
<g id="node11" class="node"><title>Node11</title>
<g id="a_node11"><a xlink:href="expression_8h.xhtml#a3876b976ae2dd7f37465f916315829a1" target="_top" xlink:title="Returns true if a given interval contains a given value. ">
<polygon fill="white" stroke="black" points="563,-287.5 563,-306.5 682,-306.5 682,-287.5 563,-287.5"/>
<text text-anchor="middle" x="622.5" y="-294.5" font-family="Helvetica,sans-Serif" font-size="10.00">scram::mef::Contains</text>
</a>
</g>
</g>
<!-- Node10&#45;&gt;Node11 -->
<g id="edge18" class="edge"><title>Node10&#45;&gt;Node11</title>
<path fill="none" stroke="midnightblue" d="M507.053,-297C521.712,-297 537.508,-297 552.546,-297"/>
<polygon fill="midnightblue" stroke="midnightblue" points="552.812,-300.5 562.812,-297 552.812,-293.5 552.812,-300.5"/>
</g>
<!-- Node11&#45;&gt;Node11 -->
<g id="edge19" class="edge"><title>Node11&#45;&gt;Node11</title>
<path fill="none" stroke="midnightblue" d="M595.373,-306.757C582.177,-315.565 591.219,-325 622.5,-325 644.006,-325 655,-320.541 655.483,-314.891"/>
<polygon fill="midnightblue" stroke="midnightblue" points="658.31,-312.827 649.627,-306.757 652.629,-316.917 658.31,-312.827"/>
</g>
<!-- Node12&#45;&gt;Node3 -->
<g id="edge23" class="edge"><title>Node12&#45;&gt;Node3</title>
<path fill="none" stroke="midnightblue" d="M280.24,-79.5115C297.822,-87.1937 322.533,-98.7156 343,-111 369.879,-127.133 398.468,-148.569 418.518,-164.392"/>
<polygon fill="midnightblue" stroke="midnightblue" points="416.557,-167.304 426.559,-170.798 420.918,-161.829 416.557,-167.304"/>
</g>
<!-- Node12&#45;&gt;Node7 -->
<g id="edge26" class="edge"><title>Node12&#45;&gt;Node7</title>
<path fill="none" stroke="midnightblue" d="M336.932,-73.9279C399.617,-77.0278 486.405,-81.3195 547.609,-84.3461"/>
<polygon fill="midnightblue" stroke="midnightblue" points="547.804,-87.8599 557.965,-84.8582 548.15,-80.8684 547.804,-87.8599"/>
</g>
<!-- Node12&#45;&gt;Node12 -->
<g id="edge22" class="edge"><title>Node12&#45;&gt;Node12</title>
<path fill="none" stroke="midnightblue" d="M227.524,-79.7571C213.427,-88.5653 223.086,-98 256.5,-98 279.472,-98 291.216,-93.5406 291.732,-87.8913"/>
<polygon fill="midnightblue" stroke="midnightblue" points="294.347,-85.5501 285.476,-79.7571 288.798,-89.8176 294.347,-85.5501"/>
</g>
<!-- Node13 -->
<g id="node13" class="node"><title>Node13</title>
<g id="a_node13"><a xlink:href="expression_8h.xhtml#a7b3a2de3be05128d51eaa76c01de99f6" target="_top" xlink:title="Checks if a given interval is within the probability domain. ">
<polygon fill="white" stroke="black" points="379,-0.5 379,-19.5 513,-19.5 513,-0.5 379,-0.5"/>
<text text-anchor="middle" x="446" y="-7.5" font-family="Helvetica,sans-Serif" font-size="10.00">scram::mef::IsProbability</text>
</a>
</g>
</g>
<!-- Node12&#45;&gt;Node13 -->
<g id="edge24" class="edge"><title>Node12&#45;&gt;Node13</title>
<path fill="none" stroke="midnightblue" d="M287.21,-60.4928C319.071,-50.2974 369.833,-34.0533 405.146,-22.7531"/>
<polygon fill="midnightblue" stroke="midnightblue" points="406.662,-25.9432 415.119,-19.5618 404.528,-19.2762 406.662,-25.9432"/>
</g>
<!-- Node13&#45;&gt;Node13 -->
<g id="edge25" class="edge"><title>Node13&#45;&gt;Node13</title>
<path fill="none" stroke="midnightblue" d="M418.873,-19.7571C405.677,-28.5653 414.719,-38 446,-38 467.506,-38 478.5,-33.5406 478.983,-27.8913"/>
<polygon fill="midnightblue" stroke="midnightblue" points="481.81,-25.8273 473.127,-19.7571 476.129,-29.9175 481.81,-25.8273"/>
</g>
</g>
</svg>
