<?xml version="1.0" encoding="UTF-8" standalone="no"?>
<!DOCTYPE svg PUBLIC "-//W3C//DTD SVG 1.1//EN"
 "http://www.w3.org/Graphics/SVG/1.1/DTD/svg11.dtd">
<!-- Generated by graphviz version 2.38.0 (20140413.2041)
 -->
<!-- Title: scram::mef::Weibull::Validate Pages: 1 -->
<svg width="675pt" height="321pt"
 viewBox="0.00 0.00 675.00 320.50" xmlns="http://www.w3.org/2000/svg" xmlns:xlink="http://www.w3.org/1999/xlink">
<g id="graph0" class="graph" transform="scale(1 1) rotate(0) translate(4 316.5)">
<title>scram::mef::Weibull::Validate</title>
<polygon fill="white" stroke="none" points="-4,4 -4,-316.5 671,-316.5 671,4 -4,4"/>
<!-- Node1 -->
<g id="node1" class="node"><title>Node1</title>
<polygon fill="#bfbfbf" stroke="black" points="0,-108 0,-138 110,-138 110,-108 0,-108"/>
<text text-anchor="start" x="8" y="-126" font-family="Helvetica,sans-Serif" font-size="10.00">scram::mef::Weibull</text>
<text text-anchor="middle" x="55" y="-115" font-family="Helvetica,sans-Serif" font-size="10.00">::Validate</text>
</g>
<!-- Node2 -->
<g id="node2" class="node"><title>Node2</title>
<g id="a_node2"><a xlink:href="expression_8cc.xhtml#a262d38f7d6438e25ea34765b8d6a03eb" target="_top" xlink:title="Ensures that expression yields non&#45;negative (&gt;= 0) values. ">
<polygon fill="white" stroke="black" points="146,-141.5 146,-160.5 319,-160.5 319,-141.5 146,-141.5"/>
<text text-anchor="middle" x="232.5" y="-148.5" font-family="Helvetica,sans-Serif" font-size="10.00">scram::mef::EnsureNonNegative</text>
</a>
</g>
</g>
<!-- Node1&#45;&gt;Node2 -->
<g id="edge1" class="edge"><title>Node1&#45;&gt;Node2</title>
<path fill="none" stroke="midnightblue" d="M110.088,-131.629C126.421,-134.235 144.588,-137.134 161.789,-139.878"/>
<polygon fill="midnightblue" stroke="midnightblue" points="161.357,-143.353 171.783,-141.473 162.46,-136.441 161.357,-143.353"/>
</g>
<!-- Node9 -->
<g id="node9" class="node"><title>Node9</title>
<g id="a_node9"><a xlink:href="expression_8cc.xhtml#ab3b34a51ff3513ee93b109cd33ccdda6" target="_top" xlink:title="Ensures that expression yields positive (&gt; 0) values. ">
<polygon fill="white" stroke="black" points="159,-85.5 159,-104.5 306,-104.5 306,-85.5 159,-85.5"/>
<text text-anchor="middle" x="232.5" y="-92.5" font-family="Helvetica,sans-Serif" font-size="10.00">scram::mef::EnsurePositive</text>
</a>
</g>
</g>
<!-- Node1&#45;&gt;Node9 -->
<g id="edge12" class="edge"><title>Node1&#45;&gt;Node9</title>
<path fill="none" stroke="midnightblue" d="M110.088,-114.371C126.421,-111.765 144.588,-108.866 161.789,-106.122"/>
<polygon fill="midnightblue" stroke="midnightblue" points="162.46,-109.559 171.783,-104.527 161.357,-102.647 162.46,-109.559"/>
</g>
<!-- Node2&#45;&gt;Node2 -->
<g id="edge2" class="edge"><title>Node2&#45;&gt;Node2</title>
<path fill="none" stroke="midnightblue" d="M205.373,-160.757C192.177,-169.565 201.219,-179 232.5,-179 254.006,-179 265,-174.541 265.483,-168.891"/>
<polygon fill="midnightblue" stroke="midnightblue" points="268.31,-166.827 259.627,-160.757 262.629,-170.917 268.31,-166.827"/>
</g>
<!-- Node3 -->
<g id="node3" class="node"><title>Node3</title>
<g id="a_node3"><a xlink:href="classscram_1_1mef_1_1Expression.xhtml#a179b21e75df522673e6d51b784d10e86" target="_top" xlink:title="scram::mef::Expression\l::interval">
<polygon fill="white" stroke="black" points="355,-171 355,-201 484,-201 484,-171 355,-171"/>
<text text-anchor="start" x="363" y="-189" font-family="Helvetica,sans-Serif" font-size="10.00">scram::mef::Expression</text>
<text text-anchor="middle" x="419.5" y="-178" font-family="Helvetica,sans-Serif" font-size="10.00">::interval</text>
</a>
</g>
</g>
<!-- Node2&#45;&gt;Node3 -->
<g id="edge3" class="edge"><title>Node2&#45;&gt;Node3</title>
<path fill="none" stroke="midnightblue" d="M284.052,-160.564C302.807,-164.112 324.482,-168.213 344.878,-172.071"/>
<polygon fill="midnightblue" stroke="midnightblue" points="344.292,-175.523 354.769,-173.943 345.594,-168.645 344.292,-175.523"/>
</g>
<!-- Node7 -->
<g id="node7" class="node"><title>Node7</title>
<g id="a_node7"><a xlink:href="classscram_1_1mef_1_1Expression.xhtml#af4c1a5cb29e8f45623a99742b7ba8bc5" target="_top" xlink:title="scram::mef::Expression\l::value">
<polygon fill="white" stroke="black" points="529,-117 529,-147 658,-147 658,-117 529,-117"/>
<text text-anchor="start" x="537" y="-135" font-family="Helvetica,sans-Serif" font-size="10.00">scram::mef::Expression</text>
<text text-anchor="middle" x="593.5" y="-124" font-family="Helvetica,sans-Serif" font-size="10.00">::value</text>
</a>
</g>
</g>
<!-- Node2&#45;&gt;Node7 -->
<g id="edge11" class="edge"><title>Node2&#45;&gt;Node7</title>
<path fill="none" stroke="midnightblue" d="M319.033,-146.473C379.879,-143.253 460.786,-138.971 518.785,-135.901"/>
<polygon fill="midnightblue" stroke="midnightblue" points="519.173,-139.386 528.974,-135.362 518.803,-132.396 519.173,-139.386"/>
</g>
<!-- Node8 -->
<g id="node8" class="node"><title>Node8</title>
<g id="a_node8"><a xlink:href="expression_8h.xhtml#a5682dd6fbc6d7dd33ebf8b5665006b99" target="_top" xlink:title="Checks if all values in a given interval are non&#45;negative. ">
<polygon fill="white" stroke="black" points="520,-56.5 520,-75.5 667,-75.5 667,-56.5 520,-56.5"/>
<text text-anchor="middle" x="593.5" y="-63.5" font-family="Helvetica,sans-Serif" font-size="10.00">scram::mef::IsNonNegative</text>
</a>
</g>
</g>
<!-- Node2&#45;&gt;Node8 -->
<g id="edge9" class="edge"><title>Node2&#45;&gt;Node8</title>
<path fill="none" stroke="midnightblue" d="M277.031,-141.486C290.497,-138.5 305.372,-135.158 319,-132 398.066,-113.677 489.713,-91.335 544.302,-77.9104"/>
<polygon fill="midnightblue" stroke="midnightblue" points="545.179,-81.2992 554.052,-75.5105 543.506,-74.5021 545.179,-81.2992"/>
</g>
<!-- Node4 -->
<g id="node4" class="node"><title>Node4</title>
<g id="a_node4"><a xlink:href="classscram_1_1mef_1_1Expression.xhtml#a058aef65da884a47ea3345bc31488b7a" target="_top" xlink:title="Determines if the value of the expression contains deviate expressions. ">
<polygon fill="white" stroke="black" points="529,-264 529,-294 658,-294 658,-264 529,-264"/>
<text text-anchor="start" x="537" y="-282" font-family="Helvetica,sans-Serif" font-size="10.00">scram::mef::Expression</text>
<text text-anchor="middle" x="593.5" y="-271" font-family="Helvetica,sans-Serif" font-size="10.00">::IsDeviate</text>
</a>
</g>
</g>
<!-- Node3&#45;&gt;Node4 -->
<g id="edge4" class="edge"><title>Node3&#45;&gt;Node4</title>
<path fill="none" stroke="midnightblue" d="M438.927,-201.209C458.171,-216.49 489.719,-239.884 520,-255 523.568,-256.781 527.298,-258.475 531.104,-260.078"/>
<polygon fill="midnightblue" stroke="midnightblue" points="530.082,-263.437 540.668,-263.871 532.663,-256.931 530.082,-263.437"/>
</g>
<!-- Node5 -->
<g id="node5" class="node"><title>Node5</title>
<g id="a_node5"><a xlink:href="classscram_1_1mef_1_1Expression.xhtml#ab6d31c4ddb5d4a827727829cbd4e4449" target="_top" xlink:title="This routine resets the sampling to get new values. ">
<polygon fill="white" stroke="black" points="529,-215 529,-245 658,-245 658,-215 529,-215"/>
<text text-anchor="start" x="537" y="-233" font-family="Helvetica,sans-Serif" font-size="10.00">scram::mef::Expression</text>
<text text-anchor="middle" x="593.5" y="-222" font-family="Helvetica,sans-Serif" font-size="10.00">::Reset</text>
</a>
</g>
</g>
<!-- Node3&#45;&gt;Node5 -->
<g id="edge6" class="edge"><title>Node3&#45;&gt;Node5</title>
<path fill="none" stroke="midnightblue" d="M479.212,-201.019C493.523,-204.68 508.96,-208.629 523.695,-212.399"/>
<polygon fill="midnightblue" stroke="midnightblue" points="523.206,-215.886 533.761,-214.974 524.941,-209.105 523.206,-215.886"/>
</g>
<!-- Node6 -->
<g id="node6" class="node"><title>Node6</title>
<g id="a_node6"><a xlink:href="classscram_1_1mef_1_1Expression.xhtml#a5cf00d8b2ff843ad029a501a89ee572a" target="_top" xlink:title="scram::mef::Expression\l::Sample">
<polygon fill="white" stroke="black" points="529,-166 529,-196 658,-196 658,-166 529,-166"/>
<text text-anchor="start" x="537" y="-184" font-family="Helvetica,sans-Serif" font-size="10.00">scram::mef::Expression</text>
<text text-anchor="middle" x="593.5" y="-173" font-family="Helvetica,sans-Serif" font-size="10.00">::Sample</text>
</a>
</g>
</g>
<!-- Node3&#45;&gt;Node6 -->
<g id="edge7" class="edge"><title>Node3&#45;&gt;Node6</title>
<path fill="none" stroke="midnightblue" d="M484.058,-184.152C495.382,-183.823 507.265,-183.478 518.842,-183.141"/>
<polygon fill="midnightblue" stroke="midnightblue" points="519.022,-186.638 528.916,-182.848 518.819,-179.641 519.022,-186.638"/>
</g>
<!-- Node3&#45;&gt;Node7 -->
<g id="edge8" class="edge"><title>Node3&#45;&gt;Node7</title>
<path fill="none" stroke="midnightblue" d="M468.412,-170.958C489.013,-164.49 513.269,-156.875 534.845,-150.101"/>
<polygon fill="midnightblue" stroke="midnightblue" points="536.055,-153.39 544.547,-147.055 533.958,-146.711 536.055,-153.39"/>
</g>
<!-- Node4&#45;&gt;Node4 -->
<g id="edge5" class="edge"><title>Node4&#45;&gt;Node4</title>
<path fill="none" stroke="midnightblue" d="M563.177,-294.159C555.865,-303.557 565.973,-312.5 593.5,-312.5 610.274,-312.5 620.58,-309.179 624.418,-304.458"/>
<polygon fill="midnightblue" stroke="midnightblue" points="627.894,-303.941 623.823,-294.159 620.905,-304.344 627.894,-303.941"/>
</g>
<!-- Node8&#45;&gt;Node8 -->
<g id="edge10" class="edge"><title>Node8&#45;&gt;Node8</title>
<path fill="none" stroke="midnightblue" d="M566.682,-75.7571C553.635,-84.5653 562.574,-94 593.5,-94 614.278,-94 625.132,-89.741 626.06,-84.2746"/>
<polygon fill="midnightblue" stroke="midnightblue" points="628.81,-82.0928 620.318,-75.7571 623.006,-86.0054 628.81,-82.0928"/>
</g>
<!-- Node9&#45;&gt;Node3 -->
<g id="edge14" class="edge"><title>Node9&#45;&gt;Node3</title>
<path fill="none" stroke="midnightblue" d="M257.345,-104.651C274.638,-111.812 298.493,-122.022 319,-132 340.719,-142.567 364.515,-155.433 383.388,-165.955"/>
<polygon fill="midnightblue" stroke="midnightblue" points="381.794,-169.073 392.228,-170.912 385.217,-162.968 381.794,-169.073"/>
</g>
<!-- Node9&#45;&gt;Node7 -->
<g id="edge20" class="edge"><title>Node9&#45;&gt;Node7</title>
<path fill="none" stroke="midnightblue" d="M306.149,-102.488C368.061,-108.868 456.636,-117.997 518.837,-124.408"/>
<polygon fill="midnightblue" stroke="midnightblue" points="518.664,-127.909 528.97,-125.452 519.382,-120.946 518.664,-127.909"/>
</g>
<!-- Node9&#45;&gt;Node9 -->
<g id="edge13" class="edge"><title>Node9&#45;&gt;Node9</title>
<path fill="none" stroke="midnightblue" d="M205.373,-104.757C192.177,-113.565 201.219,-123 232.5,-123 254.006,-123 265,-118.541 265.483,-112.891"/>
<polygon fill="midnightblue" stroke="midnightblue" points="268.31,-110.827 259.627,-104.757 262.629,-114.917 268.31,-110.827"/>
</g>
<!-- Node10 -->
<g id="node10" class="node"><title>Node10</title>
<g id="a_node10"><a xlink:href="expression_8h.xhtml#a4962ab79380de2b807438620d16a098e" target="_top" xlink:title="Checks if all values in a given interval are positive. ">
<polygon fill="white" stroke="black" points="358.5,-0.5 358.5,-19.5 480.5,-19.5 480.5,-0.5 358.5,-0.5"/>
<text text-anchor="middle" x="419.5" y="-7.5" font-family="Helvetica,sans-Serif" font-size="10.00">scram::mef::IsPositive</text>
</a>
</g>
</g>
<!-- Node9&#45;&gt;Node10 -->
<g id="edge15" class="edge"><title>Node9&#45;&gt;Node10</title>
<path fill="none" stroke="midnightblue" d="M254.362,-85.4146C287.065,-70.389 350.549,-41.2207 388.262,-23.8933"/>
<polygon fill="midnightblue" stroke="midnightblue" points="390.088,-26.9058 397.714,-19.5503 387.166,-20.545 390.088,-26.9058"/>
</g>
<!-- Node10&#45;&gt;Node8 -->
<g id="edge17" class="edge"><title>Node10&#45;&gt;Node8</title>
<path fill="none" stroke="midnightblue" d="M444.394,-19.6504C464.405,-27.5471 493.816,-38.7234 520,-47 527.502,-49.3714 535.505,-51.6827 543.354,-53.8298"/>
<polygon fill="midnightblue" stroke="midnightblue" points="542.599,-57.2509 553.164,-56.4539 544.408,-50.4886 542.599,-57.2509"/>
</g>
<!-- Node10&#45;&gt;Node10 -->
<g id="edge16" class="edge"><title>Node10&#45;&gt;Node10</title>
<path fill="none" stroke="midnightblue" d="M392.682,-19.7571C379.635,-28.5653 388.574,-38 419.5,-38 440.278,-38 451.132,-33.741 452.06,-28.2746"/>
<polygon fill="midnightblue" stroke="midnightblue" points="454.81,-26.0928 446.318,-19.7571 449.006,-30.0054 454.81,-26.0928"/>
</g>
<!-- Node11 -->
<g id="node11" class="node"><title>Node11</title>
<g id="a_node11"><a xlink:href="expression_8h.xhtml#a3876b976ae2dd7f37465f916315829a1" target="_top" xlink:title="Returns true if a given interval contains a given value. ">
<polygon fill="white" stroke="black" points="534,-0.5 534,-19.5 653,-19.5 653,-0.5 534,-0.5"/>
<text text-anchor="middle" x="593.5" y="-7.5" font-family="Helvetica,sans-Serif" font-size="10.00">scram::mef::Contains</text>
</a>
</g>
</g>
<!-- Node10&#45;&gt;Node11 -->
<g id="edge18" class="edge"><title>Node10&#45;&gt;Node11</title>
<path fill="none" stroke="midnightblue" d="M480.657,-10C494.533,-10 509.398,-10 523.613,-10"/>
<polygon fill="midnightblue" stroke="midnightblue" points="523.826,-13.5001 533.826,-10 523.826,-6.5001 523.826,-13.5001"/>
</g>
<!-- Node11&#45;&gt;Node11 -->
<g id="edge19" class="edge"><title>Node11&#45;&gt;Node11</title>
<path fill="none" stroke="midnightblue" d="M566.682,-19.7571C553.635,-28.5653 562.574,-38 593.5,-38 614.278,-38 625.132,-33.741 626.06,-28.2746"/>
<polygon fill="midnightblue" stroke="midnightblue" points="628.81,-26.0928 620.318,-19.7571 623.006,-30.0054 628.81,-26.0928"/>
</g>
</g>
</svg>
