<?xml version="1.0" encoding="UTF-8" standalone="no"?>
<!DOCTYPE svg PUBLIC "-//W3C//DTD SVG 1.1//EN"
 "http://www.w3.org/Graphics/SVG/1.1/DTD/svg11.dtd">
<!-- Generated by graphviz version 2.38.0 (20140413.2041)
 -->
<!-- Title: scram::core::Zbdd::EliminateConstantModules Pages: 1 -->
<svg width="334pt" height="88pt"
 viewBox="0.00 0.00 334.00 88.00" xmlns="http://www.w3.org/2000/svg" xmlns:xlink="http://www.w3.org/1999/xlink">
<g id="graph0" class="graph" transform="scale(1 1) rotate(0) translate(4 84)">
<title>scram::core::Zbdd::EliminateConstantModules</title>
<polygon fill="white" stroke="none" points="-4,4 -4,-84 330,-84 330,4 -4,4"/>
<!-- Node1 -->
<g id="node1" class="node"><title>Node1</title>
<polygon fill="#bfbfbf" stroke="black" points="0,-19 0,-49 144,-49 144,-19 0,-19"/>
<text text-anchor="start" x="8" y="-37" font-family="Helvetica,sans-Serif" font-size="10.00">scram::core::Zbdd::</text>
<text text-anchor="middle" x="72" y="-26" font-family="Helvetica,sans-Serif" font-size="10.00">EliminateConstantModules</text>
</g>
<!-- Node2 -->
<g id="node2" class="node"><title>Node2</title>
<g id="a_node2"><a xlink:href="classscram_1_1core_1_1zbdd_1_1CutSetContainer.xhtml#a1022ad7a4699257a6f0c0809d8f1903d" target="_top" xlink:title="Removes constant modules from cut sets. ">
<polygon fill="white" stroke="black" points="180,-38.5 180,-79.5 326,-79.5 326,-38.5 180,-38.5"/>
<text text-anchor="start" x="188" y="-67.5" font-family="Helvetica,sans-Serif" font-size="10.00">scram::core::zbdd::</text>
<text text-anchor="start" x="188" y="-56.5" font-family="Helvetica,sans-Serif" font-size="10.00">CutSetContainer::Eliminate</text>
<text text-anchor="middle" x="253" y="-45.5" font-family="Helvetica,sans-Serif" font-size="10.00">ConstantModules</text>
</a>
</g>
</g>
<!-- Node1&#45;&gt;Node2 -->
<g id="edge1" class="edge"><title>Node1&#45;&gt;Node2</title>
<path fill="none" stroke="midnightblue" d="M154.055,-45.3205C162.676,-46.5246 171.403,-47.7434 179.911,-48.9317"/>
<polygon fill="midnightblue" stroke="midnightblue" points="154.391,-41.8335 144.003,-43.9166 153.422,-48.7662 154.391,-41.8335"/>
</g>
<!-- Node3 -->
<g id="node3" class="node"><title>Node3</title>
<g id="a_node3"><a xlink:href="classscram_1_1core_1_1Zbdd.xhtml#af92e04ed908364e0177ce444d7b72712" target="_top" xlink:title="The common constructor to initialize member variables. ">
<polygon fill="white" stroke="black" points="184.5,-0.5 184.5,-19.5 321.5,-19.5 321.5,-0.5 184.5,-0.5"/>
<text text-anchor="middle" x="253" y="-7.5" font-family="Helvetica,sans-Serif" font-size="10.00">scram::core::Zbdd::Zbdd</text>
</a>
</g>
</g>
<!-- Node1&#45;&gt;Node3 -->
<g id="edge2" class="edge"><title>Node1&#45;&gt;Node3</title>
<path fill="none" stroke="midnightblue" d="M154.046,-23.1335C164.157,-21.7779 174.413,-20.4027 184.292,-19.0782"/>
<polygon fill="midnightblue" stroke="midnightblue" points="153.449,-19.6822 144.003,-24.4801 154.379,-26.6201 153.449,-19.6822"/>
</g>
</g>
</svg>
