<?xml version="1.0" encoding="UTF-8" standalone="no"?>
<!DOCTYPE svg PUBLIC "-//W3C//DTD SVG 1.1//EN"
 "http://www.w3.org/Graphics/SVG/1.1/DTD/svg11.dtd">
<!-- Generated by graphviz version 2.38.0 (20140413.2041)
 -->
<!-- Title: scram::core::NonTerminal::high Pages: 1 -->
<svg width="766pt" height="257pt"
 viewBox="0.00 0.00 766.00 257.00" xmlns="http://www.w3.org/2000/svg" xmlns:xlink="http://www.w3.org/1999/xlink">
<g id="graph0" class="graph" transform="scale(1 1) rotate(0) translate(4 253)">
<title>scram::core::NonTerminal::high</title>
<polygon fill="white" stroke="none" points="-4,4 -4,-253 762,-253 762,4 -4,4"/>
<!-- Node1 -->
<g id="node1" class="node"><title>Node1</title>
<polygon fill="#bfbfbf" stroke="black" points="0,-130.5 0,-160.5 139,-160.5 139,-130.5 0,-130.5"/>
<text text-anchor="start" x="8" y="-148.5" font-family="Helvetica,sans-Serif" font-size="10.00">scram::core::NonTerminal</text>
<text text-anchor="middle" x="69.5" y="-137.5" font-family="Helvetica,sans-Serif" font-size="10.00">::high</text>
</g>
<!-- Node2 -->
<g id="node2" class="node"><title>Node2</title>
<g id="a_node2"><a xlink:href="classscram_1_1core_1_1ImportanceAnalysis.xhtml#acf487235f07ddcc1c920943ebfe2ce60" target="_top" xlink:title="Performs quantitative analysis of importance factors of basic events in products. ...">
<polygon fill="white" stroke="black" points="175,-218.5 175,-248.5 348,-248.5 348,-218.5 175,-218.5"/>
<text text-anchor="start" x="183" y="-236.5" font-family="Helvetica,sans-Serif" font-size="10.00">scram::core::ImportanceAnalysis</text>
<text text-anchor="middle" x="261.5" y="-225.5" font-family="Helvetica,sans-Serif" font-size="10.00">::Analyze</text>
</a>
</g>
</g>
<!-- Node1&#45;&gt;Node2 -->
<g id="edge1" class="edge"><title>Node1&#45;&gt;Node2</title>
<path fill="none" stroke="midnightblue" d="M100.516,-166.452C120.819,-179.894 148.639,-196.933 175,-208.5 183.356,-212.166 192.401,-215.471 201.375,-218.385"/>
<polygon fill="midnightblue" stroke="midnightblue" points="102.279,-163.42 92.026,-160.75 98.3763,-169.231 102.279,-163.42"/>
</g>
<!-- Node3 -->
<g id="node3" class="node"><title>Node3</title>
<g id="a_node3"><a xlink:href="classscram_1_1core_1_1Bdd.xhtml#a1e7f5f7608e5839e27d6be41712b4800" target="_top" xlink:title="Runs the Qualitative analysis with the representation of a PDAG as ROBDD. ">
<polygon fill="white" stroke="black" points="190.5,-180 190.5,-199 332.5,-199 332.5,-180 190.5,-180"/>
<text text-anchor="middle" x="261.5" y="-187" font-family="Helvetica,sans-Serif" font-size="10.00">scram::core::Bdd::Analyze</text>
</a>
</g>
</g>
<!-- Node1&#45;&gt;Node3 -->
<g id="edge2" class="edge"><title>Node1&#45;&gt;Node3</title>
<path fill="none" stroke="midnightblue" d="M142.529,-162.893C153.403,-165.472 164.493,-168.076 175,-170.5 188.631,-173.645 203.507,-176.983 216.973,-179.97"/>
<polygon fill="midnightblue" stroke="midnightblue" points="143.165,-159.446 132.626,-160.537 141.545,-166.256 143.165,-159.446"/>
</g>
<!-- Node4 -->
<g id="node4" class="node"><title>Node4</title>
<g id="a_node4"><a xlink:href="classscram_1_1core_1_1Zbdd.xhtml#a8cfceb8301f35bce33c34f1283f33725" target="_top" xlink:title="Applies non&#45;declarative substitutions at the end of analysis. ">
<polygon fill="white" stroke="black" points="206,-130.5 206,-160.5 317,-160.5 317,-130.5 206,-130.5"/>
<text text-anchor="start" x="214" y="-148.5" font-family="Helvetica,sans-Serif" font-size="10.00">scram::core::Zbdd::</text>
<text text-anchor="middle" x="261.5" y="-137.5" font-family="Helvetica,sans-Serif" font-size="10.00">ApplySubstitutions</text>
</a>
</g>
</g>
<!-- Node1&#45;&gt;Node4 -->
<g id="edge3" class="edge"><title>Node1&#45;&gt;Node4</title>
<path fill="none" stroke="midnightblue" d="M149.225,-145.5C168.209,-145.5 188.087,-145.5 205.703,-145.5"/>
<polygon fill="midnightblue" stroke="midnightblue" points="149.094,-142 139.094,-145.5 149.094,-149 149.094,-142"/>
</g>
<!-- Node7 -->
<g id="node7" class="node"><title>Node7</title>
<g id="a_node7"><a xlink:href="classscram_1_1core_1_1ProbabilityAnalyzer_3_01Bdd_01_4.xhtml#a45b66605634ae60f1c00e3ac469a7c7a" target="_top" xlink:title="Calculates the total probability with a different set of probability values than the one given upon c...">
<polygon fill="white" stroke="black" points="176,-71 176,-112 347,-112 347,-71 176,-71"/>
<text text-anchor="start" x="184" y="-100" font-family="Helvetica,sans-Serif" font-size="10.00">scram::core::Probability</text>
<text text-anchor="start" x="184" y="-89" font-family="Helvetica,sans-Serif" font-size="10.00">Analyzer&lt; Bdd &gt;::CalculateTotal</text>
<text text-anchor="middle" x="261.5" y="-78" font-family="Helvetica,sans-Serif" font-size="10.00">Probability</text>
</a>
</g>
</g>
<!-- Node1&#45;&gt;Node7 -->
<g id="edge6" class="edge"><title>Node1&#45;&gt;Node7</title>
<path fill="none" stroke="midnightblue" d="M133.057,-127.721C150.742,-122.694 170.131,-117.184 188.333,-112.011"/>
<polygon fill="midnightblue" stroke="midnightblue" points="132.088,-124.357 123.426,-130.458 134.002,-131.091 132.088,-124.357"/>
</g>
<!-- Node8 -->
<g id="node8" class="node"><title>Node8</title>
<g id="a_node8"><a xlink:href="classscram_1_1core_1_1Zbdd.xhtml#a516f0d2f35ad213399f83fb9ab102561" target="_top" xlink:title="Traverses ZBDD to find modules and adjusted cut&#45;offs. ">
<polygon fill="white" stroke="black" points="206,-22.5 206,-52.5 317,-52.5 317,-22.5 206,-22.5"/>
<text text-anchor="start" x="214" y="-40.5" font-family="Helvetica,sans-Serif" font-size="10.00">scram::core::Zbdd::</text>
<text text-anchor="middle" x="261.5" y="-29.5" font-family="Helvetica,sans-Serif" font-size="10.00">GatherModules</text>
</a>
</g>
</g>
<!-- Node1&#45;&gt;Node8 -->
<g id="edge7" class="edge"><title>Node1&#45;&gt;Node8</title>
<path fill="none" stroke="midnightblue" d="M92.713,-123.133C112.663,-104.215 143.574,-77.6759 175,-61.5 184.596,-56.5608 195.336,-52.5283 205.878,-49.2759"/>
<polygon fill="midnightblue" stroke="midnightblue" points="90.1343,-120.757 85.3719,-130.222 94.9968,-125.793 90.1343,-120.757"/>
</g>
<!-- Node5 -->
<g id="node5" class="node"><title>Node5</title>
<g id="a_node5"><a xlink:href="classscram_1_1core_1_1Zbdd.xhtml#aac27b9279de1ee1a63822896daeca0c7" target="_top" xlink:title="Runs the analysis with the representation of a PDAG as ZBDD. ">
<polygon fill="white" stroke="black" points="416,-130.5 416,-160.5 527,-160.5 527,-130.5 416,-130.5"/>
<text text-anchor="start" x="424" y="-148.5" font-family="Helvetica,sans-Serif" font-size="10.00">scram::core::Zbdd::</text>
<text text-anchor="middle" x="471.5" y="-137.5" font-family="Helvetica,sans-Serif" font-size="10.00">Analyze</text>
</a>
</g>
</g>
<!-- Node4&#45;&gt;Node5 -->
<g id="edge4" class="edge"><title>Node4&#45;&gt;Node5</title>
<path fill="none" stroke="midnightblue" d="M327.386,-145.5C355.783,-145.5 388.734,-145.5 415.855,-145.5"/>
<polygon fill="midnightblue" stroke="midnightblue" points="327.15,-142 317.15,-145.5 327.15,-149 327.15,-142"/>
</g>
<!-- Node6 -->
<g id="node6" class="node"><title>Node6</title>
<g id="a_node6"><a xlink:href="classscram_1_1core_1_1FaultTreeAnalyzer.xhtml#aedae0c884539dab245018194771f5021" target="_top" xlink:title="scram::core::FaultTreeAnalyzer\l::algorithm">
<polygon fill="white" stroke="black" points="595,-130.5 595,-160.5 758,-160.5 758,-130.5 595,-130.5"/>
<text text-anchor="start" x="603" y="-148.5" font-family="Helvetica,sans-Serif" font-size="10.00">scram::core::FaultTreeAnalyzer</text>
<text text-anchor="middle" x="676.5" y="-137.5" font-family="Helvetica,sans-Serif" font-size="10.00">::algorithm</text>
</a>
</g>
</g>
<!-- Node5&#45;&gt;Node6 -->
<g id="edge5" class="edge"><title>Node5&#45;&gt;Node6</title>
<path fill="none" stroke="midnightblue" d="M537.393,-145.5C555.649,-145.5 575.729,-145.5 594.788,-145.5"/>
<polygon fill="midnightblue" stroke="midnightblue" points="537.167,-142 527.167,-145.5 537.167,-149 537.167,-142"/>
</g>
<!-- Node9 -->
<g id="node9" class="node"><title>Node9</title>
<g id="a_node9"><a xlink:href="classscram_1_1core_1_1Zbdd.xhtml#af92e04ed908364e0177ce444d7b72712" target="_top" xlink:title="The common constructor to initialize member variables. ">
<polygon fill="white" stroke="black" points="403,-50 403,-69 540,-69 540,-50 403,-50"/>
<text text-anchor="middle" x="471.5" y="-57" font-family="Helvetica,sans-Serif" font-size="10.00">scram::core::Zbdd::Zbdd</text>
</a>
</g>
</g>
<!-- Node8&#45;&gt;Node9 -->
<g id="edge8" class="edge"><title>Node8&#45;&gt;Node9</title>
<path fill="none" stroke="midnightblue" d="M327.227,-44.3461C351.251,-46.8872 378.553,-49.7749 402.834,-52.343"/>
<polygon fill="midnightblue" stroke="midnightblue" points="327.462,-40.8516 317.15,-43.2802 326.726,-47.8127 327.462,-40.8516"/>
</g>
<!-- Node10 -->
<g id="node10" class="node"><title>Node10</title>
<g id="a_node10"><a xlink:href="classscram_1_1core_1_1zbdd_1_1CutSetContainer.xhtml#a478c89f64731781882b50ec55898900b" target="_top" xlink:title="Gathers all module indices in the cut sets. ">
<polygon fill="white" stroke="black" points="384,-0.5 384,-30.5 559,-30.5 559,-0.5 384,-0.5"/>
<text text-anchor="start" x="392" y="-18.5" font-family="Helvetica,sans-Serif" font-size="10.00">scram::core::zbdd::</text>
<text text-anchor="middle" x="471.5" y="-7.5" font-family="Helvetica,sans-Serif" font-size="10.00">CutSetContainer::GatherModules</text>
</a>
</g>
</g>
<!-- Node8&#45;&gt;Node10 -->
<g id="edge9" class="edge"><title>Node8&#45;&gt;Node10</title>
<path fill="none" stroke="midnightblue" d="M327.407,-30.6348C345.212,-28.7516 364.806,-26.6791 383.631,-24.6881"/>
<polygon fill="midnightblue" stroke="midnightblue" points="326.726,-27.1873 317.15,-31.7198 327.462,-34.1484 326.726,-27.1873"/>
</g>
</g>
</svg>
