<?xml version="1.0" encoding="UTF-8" standalone="no"?>
<!DOCTYPE svg PUBLIC "-//W3C//DTD SVG 1.1//EN"
 "http://www.w3.org/Graphics/SVG/1.1/DTD/svg11.dtd">
<!-- Generated by graphviz version 2.38.0 (20140413.2041)
 -->
<!-- Title: scram::mef::Element::RemoveAttribute Pages: 1 -->
<svg width="278pt" height="154pt"
 viewBox="0.00 0.00 278.00 153.50" xmlns="http://www.w3.org/2000/svg" xmlns:xlink="http://www.w3.org/1999/xlink">
<g id="graph0" class="graph" transform="scale(1 1) rotate(0) translate(4 149.5)">
<title>scram::mef::Element::RemoveAttribute</title>
<polygon fill="white" stroke="none" points="-4,4 -4,-149.5 274,-149.5 274,4 -4,4"/>
<!-- Node1 -->
<g id="node1" class="node"><title>Node1</title>
<polygon fill="#bfbfbf" stroke="black" points="0,-63.5 0,-93.5 117,-93.5 117,-63.5 0,-63.5"/>
<text text-anchor="start" x="8" y="-81.5" font-family="Helvetica,sans-Serif" font-size="10.00">scram::mef::Element</text>
<text text-anchor="middle" x="58.5" y="-70.5" font-family="Helvetica,sans-Serif" font-size="10.00">::RemoveAttribute</text>
</g>
<!-- Node2 -->
<g id="node2" class="node"><title>Node2</title>
<g id="a_node2"><a xlink:href="classext_1_1linear__set.xhtml#a155eaa9a4cd913286959ad03f01e2306" target="_top" xlink:title="ext::linear_set::end">
<polygon fill="white" stroke="black" points="157.5,-126 157.5,-145 265.5,-145 265.5,-126 157.5,-126"/>
<text text-anchor="middle" x="211.5" y="-133" font-family="Helvetica,sans-Serif" font-size="10.00">ext::linear_set::end</text>
</a>
</g>
</g>
<!-- Node1&#45;&gt;Node2 -->
<g id="edge1" class="edge"><title>Node1&#45;&gt;Node2</title>
<path fill="none" stroke="midnightblue" d="M95.2451,-93.6819C112.577,-100.875 133.76,-109.421 153,-116.5 158.626,-118.57 164.598,-120.66 170.482,-122.659"/>
<polygon fill="midnightblue" stroke="midnightblue" points="169.634,-126.066 180.228,-125.918 171.854,-119.427 169.634,-126.066"/>
</g>
<!-- Node3 -->
<g id="node3" class="node"><title>Node3</title>
<g id="a_node3"><a xlink:href="classext_1_1linear__set.xhtml#a83e0ac9e967737c9c15ead98e5f460fa" target="_top" xlink:title="Erases the entry pointed by an iterator. ">
<polygon fill="white" stroke="black" points="153,-88 153,-107 270,-107 270,-88 153,-88"/>
<text text-anchor="middle" x="211.5" y="-95" font-family="Helvetica,sans-Serif" font-size="10.00">ext::linear_set::erase</text>
</a>
</g>
</g>
<!-- Node1&#45;&gt;Node3 -->
<g id="edge2" class="edge"><title>Node1&#45;&gt;Node3</title>
<path fill="none" stroke="midnightblue" d="M117.017,-85.7373C125.464,-86.8001 134.229,-87.903 142.856,-88.9885"/>
<polygon fill="midnightblue" stroke="midnightblue" points="142.534,-92.4755 152.893,-90.2514 143.408,-85.5302 142.534,-92.4755"/>
</g>
<!-- Node4 -->
<g id="node4" class="node"><title>Node4</title>
<g id="a_node4"><a xlink:href="classext_1_1linear__set.xhtml#a69ed39f3d7df4fd4dd53a05f6a600f63" target="_top" xlink:title="Finds an entry in the set by key. ">
<polygon fill="white" stroke="black" points="158,-50 158,-69 265,-69 265,-50 158,-50"/>
<text text-anchor="middle" x="211.5" y="-57" font-family="Helvetica,sans-Serif" font-size="10.00">ext::linear_set::find</text>
</a>
</g>
</g>
<!-- Node1&#45;&gt;Node4 -->
<g id="edge3" class="edge"><title>Node1&#45;&gt;Node4</title>
<path fill="none" stroke="midnightblue" d="M117.017,-71.2627C127.019,-70.0043 137.467,-68.6896 147.604,-67.4141"/>
<polygon fill="midnightblue" stroke="midnightblue" points="148.123,-70.8764 157.608,-66.1553 147.249,-63.9312 148.123,-70.8764"/>
</g>
<!-- Node5 -->
<g id="node5" class="node"><title>Node5</title>
<g id="a_node5"><a xlink:href="classscram_1_1mef_1_1Element.xhtml#adb401e2ca84aa98cb60797bec2500a81" target="_top" xlink:title="scram::mef::Element\l::name">
<polygon fill="white" stroke="black" points="153,-0.5 153,-30.5 270,-30.5 270,-0.5 153,-0.5"/>
<text text-anchor="start" x="161" y="-18.5" font-family="Helvetica,sans-Serif" font-size="10.00">scram::mef::Element</text>
<text text-anchor="middle" x="211.5" y="-7.5" font-family="Helvetica,sans-Serif" font-size="10.00">::name</text>
</a>
</g>
</g>
<!-- Node1&#45;&gt;Node5 -->
<g id="edge4" class="edge"><title>Node1&#45;&gt;Node5</title>
<path fill="none" stroke="midnightblue" d="M95.6683,-63.4099C116.51,-54.7143 142.9,-43.704 165.124,-34.4316"/>
<polygon fill="midnightblue" stroke="midnightblue" points="166.484,-37.6567 174.365,-30.576 163.789,-31.1964 166.484,-37.6567"/>
</g>
</g>
</svg>
