<?xml version="1.0" encoding="UTF-8" standalone="no"?>
<!DOCTYPE svg PUBLIC "-//W3C//DTD SVG 1.1//EN"
 "http://www.w3.org/Graphics/SVG/1.1/DTD/svg11.dtd">
<!-- Generated by graphviz version 2.38.0 (20140413.2041)
 -->
<!-- Title: scram::core::RiskAnalysis::event_tree_results Pages: 1 -->
<svg width="477pt" height="39pt"
 viewBox="0.00 0.00 477.00 39.00" xmlns="http://www.w3.org/2000/svg" xmlns:xlink="http://www.w3.org/1999/xlink">
<g id="graph0" class="graph" transform="scale(1 1) rotate(0) translate(4 35)">
<title>scram::core::RiskAnalysis::event_tree_results</title>
<polygon fill="white" stroke="none" points="-4,4 -4,-35 473,-35 473,4 -4,4"/>
<!-- Node1 -->
<g id="node1" class="node"><title>Node1</title>
<polygon fill="#bfbfbf" stroke="black" points="0,-0.5 0,-30.5 137,-30.5 137,-0.5 0,-0.5"/>
<text text-anchor="start" x="8" y="-18.5" font-family="Helvetica,sans-Serif" font-size="10.00">scram::core::RiskAnalysis</text>
<text text-anchor="middle" x="68.5" y="-7.5" font-family="Helvetica,sans-Serif" font-size="10.00">::event_tree_results</text>
</g>
<!-- Node2 -->
<g id="node2" class="node"><title>Node2</title>
<g id="a_node2"><a xlink:href="classscram_1_1Reporter.xhtml#a87eeccfed9678b035c745b6ed1610dbf" target="_top" xlink:title="Reports the results of risk analysis on a model. ">
<polygon fill="white" stroke="black" points="173,-6 173,-25 303,-25 303,-6 173,-6"/>
<text text-anchor="middle" x="238" y="-13" font-family="Helvetica,sans-Serif" font-size="10.00">scram::Reporter::Report</text>
</a>
</g>
</g>
<!-- Node1&#45;&gt;Node2 -->
<g id="edge1" class="edge"><title>Node1&#45;&gt;Node2</title>
<path fill="none" stroke="midnightblue" d="M147.188,-15.5C155.795,-15.5 164.488,-15.5 172.901,-15.5"/>
<polygon fill="midnightblue" stroke="midnightblue" points="147.146,-12.0001 137.146,-15.5 147.146,-19.0001 147.146,-12.0001"/>
</g>
<!-- Node3 -->
<g id="node3" class="node"><title>Node3</title>
<g id="a_node3"><a xlink:href="classscram_1_1Reporter.xhtml#a7f4903f4c19a9630f828395eded780bf" target="_top" xlink:title="A convenience function to generate the report into a file. ">
<polygon fill="white" stroke="black" points="339,-6 339,-25 469,-25 469,-6 339,-6"/>
<text text-anchor="middle" x="404" y="-13" font-family="Helvetica,sans-Serif" font-size="10.00">scram::Reporter::Report</text>
</a>
</g>
</g>
<!-- Node2&#45;&gt;Node3 -->
<g id="edge2" class="edge"><title>Node2&#45;&gt;Node3</title>
<path fill="none" stroke="midnightblue" d="M313.564,-15.5C322.004,-15.5 330.549,-15.5 338.839,-15.5"/>
<polygon fill="midnightblue" stroke="midnightblue" points="313.346,-12.0001 303.346,-15.5 313.346,-19.0001 313.346,-12.0001"/>
</g>
</g>
</svg>
