<?xml version="1.0" encoding="UTF-8" standalone="no"?>
<!DOCTYPE svg PUBLIC "-//W3C//DTD SVG 1.1//EN"
 "http://www.w3.org/Graphics/SVG/1.1/DTD/svg11.dtd">
<!-- Generated by graphviz version 2.38.0 (20140413.2041)
 -->
<!-- Title: scram::mef::Formula::args Pages: 1 -->
<svg width="470pt" height="212pt"
 viewBox="0.00 0.00 470.00 211.50" xmlns="http://www.w3.org/2000/svg" xmlns:xlink="http://www.w3.org/1999/xlink">
<g id="graph0" class="graph" transform="scale(1 1) rotate(0) translate(4 207.5)">
<title>scram::mef::Formula::args</title>
<polygon fill="white" stroke="none" points="-4,4 -4,-207.5 466,-207.5 466,4 -4,4"/>
<!-- Node1 -->
<g id="node1" class="node"><title>Node1</title>
<polygon fill="#bfbfbf" stroke="black" points="0,-90 0,-120 116,-120 116,-90 0,-90"/>
<text text-anchor="start" x="8" y="-108" font-family="Helvetica,sans-Serif" font-size="10.00">scram::mef::Formula</text>
<text text-anchor="middle" x="58" y="-97" font-family="Helvetica,sans-Serif" font-size="10.00">::args</text>
</g>
<!-- Node2 -->
<g id="node2" class="node"><title>Node2</title>
<g id="a_node2"><a xlink:href="classscram_1_1mef_1_1FaultTree.xhtml#a9535bd49edb4598ead887faf8dadd9f2" target="_top" xlink:title="Collects top event gates in this fault tree with components. ">
<polygon fill="white" stroke="black" points="175,-173 175,-203 294,-203 294,-173 175,-173"/>
<text text-anchor="start" x="183" y="-191" font-family="Helvetica,sans-Serif" font-size="10.00">scram::mef::FaultTree</text>
<text text-anchor="middle" x="234.5" y="-180" font-family="Helvetica,sans-Serif" font-size="10.00">::CollectTopEvents</text>
</a>
</g>
</g>
<!-- Node1&#45;&gt;Node2 -->
<g id="edge1" class="edge"><title>Node1&#45;&gt;Node2</title>
<path fill="none" stroke="midnightblue" d="M87.3523,-125.925C105.195,-138.333 129.105,-153.614 152,-164 159.254,-167.29 167.073,-170.261 174.898,-172.899"/>
<polygon fill="midnightblue" stroke="midnightblue" points="89.2976,-123.014 79.1117,-120.098 85.2563,-128.729 89.2976,-123.014"/>
</g>
<!-- Node3 -->
<g id="node3" class="node"><title>Node3</title>
<g id="a_node3"><a xlink:href="classscram_1_1core_1_1EventTreeAnalysis.xhtml#a3e3404417cbdcf92474e5653ec24f936" target="_top" xlink:title="scram::core::EventTreeAnalysis\l::EventTreeAnalysis">
<polygon fill="white" stroke="black" points="152,-124 152,-154 317,-154 317,-124 152,-124"/>
<text text-anchor="start" x="160" y="-142" font-family="Helvetica,sans-Serif" font-size="10.00">scram::core::EventTreeAnalysis</text>
<text text-anchor="middle" x="234.5" y="-131" font-family="Helvetica,sans-Serif" font-size="10.00">::EventTreeAnalysis</text>
</a>
</g>
</g>
<!-- Node1&#45;&gt;Node3 -->
<g id="edge2" class="edge"><title>Node1&#45;&gt;Node3</title>
<path fill="none" stroke="midnightblue" d="M126.23,-118.099C136.06,-120.015 146.249,-122 156.259,-123.95"/>
<polygon fill="midnightblue" stroke="midnightblue" points="126.623,-114.61 116.138,-116.133 125.284,-121.481 126.623,-114.61"/>
</g>
<!-- Node4 -->
<g id="node4" class="node"><title>Node4</title>
<g id="a_node4"><a xlink:href="cycle_8h.xhtml#ab063b76c05f086177494eefc8dc57da9" target="_top" xlink:title="Retrieves nodes from a connector. ">
<polygon fill="white" stroke="black" points="181,-57 181,-87 288,-87 288,-57 181,-57"/>
<text text-anchor="start" x="189" y="-75" font-family="Helvetica,sans-Serif" font-size="10.00">scram::mef::cycle::</text>
<text text-anchor="middle" x="234.5" y="-64" font-family="Helvetica,sans-Serif" font-size="10.00">GetNodes</text>
</a>
</g>
</g>
<!-- Node1&#45;&gt;Node4 -->
<g id="edge3" class="edge"><title>Node1&#45;&gt;Node4</title>
<path fill="none" stroke="midnightblue" d="M126.093,-92.312C144.279,-88.8727 163.702,-85.1997 180.959,-81.936"/>
<polygon fill="midnightblue" stroke="midnightblue" points="125.313,-88.8973 116.138,-94.1946 126.614,-95.7753 125.313,-88.8973"/>
</g>
<!-- Node6 -->
<g id="node6" class="node"><title>Node6</title>
<g id="a_node6"><a xlink:href="serialization_8cc.xhtml#a83f7058a5caad9ec3ffb5fd6c7d7b8f6" target="_top" xlink:title="Convenience function for serialization into a file. ">
<polygon fill="white" stroke="black" points="175.5,-0.5 175.5,-19.5 293.5,-19.5 293.5,-0.5 175.5,-0.5"/>
<text text-anchor="middle" x="234.5" y="-7.5" font-family="Helvetica,sans-Serif" font-size="10.00">scram::mef::Serialize</text>
</a>
</g>
</g>
<!-- Node1&#45;&gt;Node6 -->
<g id="edge6" class="edge"><title>Node1&#45;&gt;Node6</title>
<path fill="none" stroke="midnightblue" d="M90.6775,-84.3486C108.421,-73.0968 131.118,-59.2206 152,-48 171.528,-37.5068 194.468,-26.9627 211.026,-19.6527"/>
<polygon fill="midnightblue" stroke="midnightblue" points="88.4286,-81.632 81.886,-89.9654 92.1973,-87.5309 88.4286,-81.632"/>
</g>
<!-- Node4&#45;&gt;Node4 -->
<g id="edge5" class="edge"><title>Node4&#45;&gt;Node4</title>
<path fill="none" stroke="midnightblue" d="M203.938,-97.4579C207.731,-102.179 217.918,-105.5 234.5,-105.5 261.711,-105.5 271.702,-96.5566 264.475,-87.159"/>
<polygon fill="midnightblue" stroke="midnightblue" points="207.45,-97.3422 204.525,-87.159 200.461,-96.9433 207.45,-97.3422"/>
</g>
<!-- Node5 -->
<g id="node5" class="node"><title>Node5</title>
<g id="a_node5"><a xlink:href="cycle_8h.xhtml#a21de1e2b8ca8017c9c0c5ef3254b433e" target="_top" xlink:title="Helper function to check for cyclic references through connectors. ">
<polygon fill="white" stroke="black" points="353,-57 353,-87 462,-87 462,-57 353,-57"/>
<text text-anchor="start" x="361" y="-75" font-family="Helvetica,sans-Serif" font-size="10.00">scram::mef::cycle::</text>
<text text-anchor="middle" x="407.5" y="-64" font-family="Helvetica,sans-Serif" font-size="10.00">ContinueConnector</text>
</a>
</g>
</g>
<!-- Node4&#45;&gt;Node5 -->
<g id="edge4" class="edge"><title>Node4&#45;&gt;Node5</title>
<path fill="none" stroke="midnightblue" d="M298.26,-72C316.157,-72 335.488,-72 352.793,-72"/>
<polygon fill="midnightblue" stroke="midnightblue" points="298.201,-68.5001 288.201,-72 298.201,-75.5001 298.201,-68.5001"/>
</g>
<!-- Node6&#45;&gt;Node6 -->
<g id="edge7" class="edge"><title>Node6&#45;&gt;Node6</title>
<path fill="none" stroke="midnightblue" d="M202.314,-28.2746C203.232,-33.741 213.961,-38 234.5,-38 265.07,-38 273.907,-28.5653 261.01,-19.7571"/>
<polygon fill="midnightblue" stroke="midnightblue" points="205.357,-30.0197 207.99,-19.7571 199.532,-26.1381 205.357,-30.0197"/>
</g>
</g>
</svg>
