<?xml version="1.0" encoding="UTF-8" standalone="no"?>
<!DOCTYPE svg PUBLIC "-//W3C//DTD SVG 1.1//EN"
 "http://www.w3.org/Graphics/SVG/1.1/DTD/svg11.dtd">
<!-- Generated by graphviz version 2.38.0 (20140413.2041)
 -->
<!-- Title: scram::mef::Expression::Validate Pages: 1 -->
<svg width="302pt" height="39pt"
 viewBox="0.00 0.00 302.00 39.00" xmlns="http://www.w3.org/2000/svg" xmlns:xlink="http://www.w3.org/1999/xlink">
<g id="graph0" class="graph" transform="scale(1 1) rotate(0) translate(4 35)">
<title>scram::mef::Expression::Validate</title>
<polygon fill="white" stroke="none" points="-4,4 -4,-35 298,-35 298,4 -4,4"/>
<!-- Node1 -->
<g id="node1" class="node"><title>Node1</title>
<polygon fill="#bfbfbf" stroke="black" points="0,-0.5 0,-30.5 129,-30.5 129,-0.5 0,-0.5"/>
<text text-anchor="start" x="8" y="-18.5" font-family="Helvetica,sans-Serif" font-size="10.00">scram::mef::Expression</text>
<text text-anchor="middle" x="64.5" y="-7.5" font-family="Helvetica,sans-Serif" font-size="10.00">::Validate</text>
</g>
<!-- Node2 -->
<g id="node2" class="node"><title>Node2</title>
<g id="a_node2"><a xlink:href="classscram_1_1mef_1_1Expression.xhtml#af4c1a5cb29e8f45623a99742b7ba8bc5" target="_top" xlink:title="scram::mef::Expression\l::value">
<polygon fill="white" stroke="black" points="165,-0.5 165,-30.5 294,-30.5 294,-0.5 165,-0.5"/>
<text text-anchor="start" x="173" y="-18.5" font-family="Helvetica,sans-Serif" font-size="10.00">scram::mef::Expression</text>
<text text-anchor="middle" x="229.5" y="-7.5" font-family="Helvetica,sans-Serif" font-size="10.00">::value</text>
</a>
</g>
</g>
<!-- Node1&#45;&gt;Node2 -->
<g id="edge1" class="edge"><title>Node1&#45;&gt;Node2</title>
<path fill="none" stroke="midnightblue" d="M129.454,-15.5C137.761,-15.5 146.322,-15.5 154.772,-15.5"/>
<polygon fill="midnightblue" stroke="midnightblue" points="154.998,-19.0001 164.998,-15.5 154.998,-12.0001 154.998,-19.0001"/>
</g>
</g>
</svg>
