<?xml version="1.0" encoding="UTF-8" standalone="no"?>
<!DOCTYPE svg PUBLIC "-//W3C//DTD SVG 1.1//EN"
 "http://www.w3.org/Graphics/SVG/1.1/DTD/svg11.dtd">
<!-- Generated by graphviz version 2.38.0 (20140413.2041)
 -->
<!-- Title: scram::core::Gate::MakeConstant Pages: 1 -->
<svg width="264pt" height="137pt"
 viewBox="0.00 0.00 264.00 137.00" xmlns="http://www.w3.org/2000/svg" xmlns:xlink="http://www.w3.org/1999/xlink">
<g id="graph0" class="graph" transform="scale(1 1) rotate(0) translate(4 133)">
<title>scram::core::Gate::MakeConstant</title>
<polygon fill="white" stroke="none" points="-4,4 -4,-133 260,-133 260,4 -4,4"/>
<!-- Node1 -->
<g id="node1" class="node"><title>Node1</title>
<polygon fill="#bfbfbf" stroke="black" points="0,-49.5 0,-79.5 109,-79.5 109,-49.5 0,-49.5"/>
<text text-anchor="start" x="8" y="-67.5" font-family="Helvetica,sans-Serif" font-size="10.00">scram::core::Gate::</text>
<text text-anchor="middle" x="54.5" y="-56.5" font-family="Helvetica,sans-Serif" font-size="10.00">MakeConstant</text>
</g>
<!-- Node2 -->
<g id="node2" class="node"><title>Node2</title>
<g id="a_node2"><a xlink:href="classscram_1_1core_1_1Pdag.xhtml#a82135e4d5967e95a18ceee1af63792c0" target="_top" xlink:title="scram::core::Pdag::\lconstant">
<polygon fill="white" stroke="black" points="145.5,-98.5 145.5,-128.5 255.5,-128.5 255.5,-98.5 145.5,-98.5"/>
<text text-anchor="start" x="153.5" y="-116.5" font-family="Helvetica,sans-Serif" font-size="10.00">scram::core::Pdag::</text>
<text text-anchor="middle" x="200.5" y="-105.5" font-family="Helvetica,sans-Serif" font-size="10.00">constant</text>
</a>
</g>
</g>
<!-- Node1&#45;&gt;Node2 -->
<g id="edge1" class="edge"><title>Node1&#45;&gt;Node2</title>
<path fill="none" stroke="midnightblue" d="M99.8797,-79.6014C114.251,-84.4917 130.353,-89.9707 145.351,-95.0744"/>
<polygon fill="midnightblue" stroke="midnightblue" points="144.424,-98.4561 155.019,-98.3641 146.679,-91.8292 144.424,-98.4561"/>
</g>
<!-- Node3 -->
<g id="node3" class="node"><title>Node3</title>
<g id="a_node3"><a xlink:href="classscram_1_1core_1_1Node.xhtml#a7bd26d6ebcafaa85928ba9e042a821ec" target="_top" xlink:title="scram::core::Node::\lgraph">
<polygon fill="white" stroke="black" points="145,-49.5 145,-79.5 256,-79.5 256,-49.5 145,-49.5"/>
<text text-anchor="start" x="153" y="-67.5" font-family="Helvetica,sans-Serif" font-size="10.00">scram::core::Node::</text>
<text text-anchor="middle" x="200.5" y="-56.5" font-family="Helvetica,sans-Serif" font-size="10.00">graph</text>
</a>
</g>
</g>
<!-- Node1&#45;&gt;Node3 -->
<g id="edge2" class="edge"><title>Node1&#45;&gt;Node3</title>
<path fill="none" stroke="midnightblue" d="M109.12,-64.5C117.511,-64.5 126.26,-64.5 134.866,-64.5"/>
<polygon fill="midnightblue" stroke="midnightblue" points="134.874,-68.0001 144.874,-64.5 134.874,-61.0001 134.874,-68.0001"/>
</g>
<!-- Node4 -->
<g id="node4" class="node"><title>Node4</title>
<g id="a_node4"><a xlink:href="classscram_1_1core_1_1Node.xhtml#a62121e217b0da73112af7e07275f2c15" target="_top" xlink:title="scram::core::Node::\lindex">
<polygon fill="white" stroke="black" points="145,-0.5 145,-30.5 256,-30.5 256,-0.5 145,-0.5"/>
<text text-anchor="start" x="153" y="-18.5" font-family="Helvetica,sans-Serif" font-size="10.00">scram::core::Node::</text>
<text text-anchor="middle" x="200.5" y="-7.5" font-family="Helvetica,sans-Serif" font-size="10.00">index</text>
</a>
</g>
</g>
<!-- Node1&#45;&gt;Node4 -->
<g id="edge3" class="edge"><title>Node1&#45;&gt;Node4</title>
<path fill="none" stroke="midnightblue" d="M99.8797,-49.3986C114.251,-44.5083 130.353,-39.0293 145.351,-33.9256"/>
<polygon fill="midnightblue" stroke="midnightblue" points="146.679,-37.1708 155.019,-30.6359 144.424,-30.5439 146.679,-37.1708"/>
</g>
</g>
</svg>
