<?xml version="1.0" encoding="UTF-8" standalone="no"?>
<!DOCTYPE svg PUBLIC "-//W3C//DTD SVG 1.1//EN"
 "http://www.w3.org/Graphics/SVG/1.1/DTD/svg11.dtd">
<!-- Generated by graphviz version 2.38.0 (20140413.2041)
 -->
<!-- Title: scram::core::Settings::limit_order Pages: 1 -->
<svg width="736pt" height="597pt"
 viewBox="0.00 0.00 736.00 596.50" xmlns="http://www.w3.org/2000/svg" xmlns:xlink="http://www.w3.org/1999/xlink">
<g id="graph0" class="graph" transform="scale(1 1) rotate(0) translate(4 592.5)">
<title>scram::core::Settings::limit_order</title>
<polygon fill="white" stroke="none" points="-4,4 -4,-592.5 732,-592.5 732,4 -4,4"/>
<!-- Node1 -->
<g id="node1" class="node"><title>Node1</title>
<polygon fill="#bfbfbf" stroke="black" points="0,-279 0,-309 119,-309 119,-279 0,-279"/>
<text text-anchor="start" x="8" y="-297" font-family="Helvetica,sans-Serif" font-size="10.00">scram::core::Settings</text>
<text text-anchor="middle" x="59.5" y="-286" font-family="Helvetica,sans-Serif" font-size="10.00">::limit_order</text>
</g>
<!-- Node2 -->
<g id="node2" class="node"><title>Node2</title>
<g id="a_node2"><a xlink:href="classscram_1_1core_1_1Mocus.xhtml#a951c8e2f7667d884d4dbda3206dc15e0" target="_top" xlink:title="Finds minimal cut sets from the PDAG. ">
<polygon fill="white" stroke="black" points="181.5,-558 181.5,-588 291.5,-588 291.5,-558 181.5,-558"/>
<text text-anchor="start" x="189.5" y="-576" font-family="Helvetica,sans-Serif" font-size="10.00">scram::core::Mocus</text>
<text text-anchor="middle" x="236.5" y="-565" font-family="Helvetica,sans-Serif" font-size="10.00">::Analyze</text>
</a>
</g>
</g>
<!-- Node1&#45;&gt;Node2 -->
<g id="edge1" class="edge"><title>Node1&#45;&gt;Node2</title>
<path fill="none" stroke="midnightblue" d="M62.5409,-319.308C68.0219,-370.287 87.5921,-485.847 155,-549 162.343,-555.88 171.576,-560.795 181.147,-564.304"/>
<polygon fill="midnightblue" stroke="midnightblue" points="66.0067,-318.786 61.5486,-309.175 59.04,-319.469 66.0067,-318.786"/>
</g>
<!-- Node3 -->
<g id="node3" class="node"><title>Node3</title>
<g id="a_node3"><a xlink:href="classscram_1_1core_1_1FaultTreeAnalysis.xhtml#a327afc0524cff5289c3887357487266b" target="_top" xlink:title="Analyzes the fault tree and performs computations. ">
<polygon fill="white" stroke="black" points="156,-509 156,-539 317,-539 317,-509 156,-509"/>
<text text-anchor="start" x="164" y="-527" font-family="Helvetica,sans-Serif" font-size="10.00">scram::core::FaultTreeAnalysis</text>
<text text-anchor="middle" x="236.5" y="-516" font-family="Helvetica,sans-Serif" font-size="10.00">::Analyze</text>
</a>
</g>
</g>
<!-- Node1&#45;&gt;Node3 -->
<g id="edge2" class="edge"><title>Node1&#45;&gt;Node3</title>
<path fill="none" stroke="midnightblue" d="M65.063,-319.252C74.2296,-362.639 98.9987,-451.354 155,-500 158.964,-503.443 163.404,-506.392 168.11,-508.918"/>
<polygon fill="midnightblue" stroke="midnightblue" points="68.4555,-318.367 63.0592,-309.25 61.5919,-319.742 68.4555,-318.367"/>
</g>
<!-- Node4 -->
<g id="node4" class="node"><title>Node4</title>
<g id="a_node4"><a xlink:href="classscram_1_1core_1_1Zbdd.xhtml#aac27b9279de1ee1a63822896daeca0c7" target="_top" xlink:title="Runs the analysis with the representation of a PDAG as ZBDD. ">
<polygon fill="white" stroke="black" points="386,-438 386,-468 497,-468 497,-438 386,-438"/>
<text text-anchor="start" x="394" y="-456" font-family="Helvetica,sans-Serif" font-size="10.00">scram::core::Zbdd::</text>
<text text-anchor="middle" x="441.5" y="-445" font-family="Helvetica,sans-Serif" font-size="10.00">Analyze</text>
</a>
</g>
</g>
<!-- Node1&#45;&gt;Node4 -->
<g id="edge3" class="edge"><title>Node1&#45;&gt;Node4</title>
<path fill="none" stroke="midnightblue" d="M72.7042,-318.405C87.9226,-346.053 116.676,-390.104 155,-412 193.315,-433.891 314.199,-445.073 385.797,-449.916"/>
<polygon fill="midnightblue" stroke="midnightblue" points="75.6831,-316.553 67.8922,-309.373 69.5052,-319.844 75.6831,-316.553"/>
</g>
<!-- Node6 -->
<g id="node6" class="node"><title>Node6</title>
<g id="a_node6"><a xlink:href="classscram_1_1core_1_1Zbdd.xhtml#a8cfceb8301f35bce33c34f1283f33725" target="_top" xlink:title="Applies non&#45;declarative substitutions at the end of analysis. ">
<polygon fill="white" stroke="black" points="181,-460 181,-490 292,-490 292,-460 181,-460"/>
<text text-anchor="start" x="189" y="-478" font-family="Helvetica,sans-Serif" font-size="10.00">scram::core::Zbdd::</text>
<text text-anchor="middle" x="236.5" y="-467" font-family="Helvetica,sans-Serif" font-size="10.00">ApplySubstitutions</text>
</a>
</g>
</g>
<!-- Node1&#45;&gt;Node6 -->
<g id="edge5" class="edge"><title>Node1&#45;&gt;Node6</title>
<path fill="none" stroke="midnightblue" d="M69.8906,-318.538C83.7361,-351.65 112.648,-410.459 155,-445 162.628,-451.221 171.674,-456.229 180.899,-460.235"/>
<polygon fill="midnightblue" stroke="midnightblue" points="73.0816,-317.093 66.0793,-309.142 66.5949,-319.725 73.0816,-317.093"/>
</g>
<!-- Node7 -->
<g id="node7" class="node"><title>Node7</title>
<g id="a_node7"><a xlink:href="classscram_1_1core_1_1zbdd_1_1CutSetContainer.xhtml#a15ccbd5b839be87c831a743f0100588e" target="_top" xlink:title="Converts a PDAG gate into intermediate cut sets. ">
<polygon fill="white" stroke="black" points="155,-372 155,-402 318,-402 318,-372 155,-372"/>
<text text-anchor="start" x="163" y="-390" font-family="Helvetica,sans-Serif" font-size="10.00">scram::core::zbdd::</text>
<text text-anchor="middle" x="236.5" y="-379" font-family="Helvetica,sans-Serif" font-size="10.00">CutSetContainer::ConvertGate</text>
</a>
</g>
</g>
<!-- Node1&#45;&gt;Node7 -->
<g id="edge7" class="edge"><title>Node1&#45;&gt;Node7</title>
<path fill="none" stroke="midnightblue" d="M85.2408,-315.726C103.467,-330.782 129.431,-350.325 155,-363 161.794,-366.368 169.15,-369.358 176.559,-371.985"/>
<polygon fill="midnightblue" stroke="midnightblue" points="87.3463,-312.924 77.4405,-309.165 82.8403,-318.281 87.3463,-312.924"/>
</g>
<!-- Node8 -->
<g id="node8" class="node"><title>Node8</title>
<g id="a_node8"><a xlink:href="classscram_1_1core_1_1Zbdd.xhtml#ac3ac27090b550d973b20bd971c3de9f9" target="_top" xlink:title="Removes complements of variables from products. ">
<polygon fill="white" stroke="black" points="172.5,-235 172.5,-265 300.5,-265 300.5,-235 172.5,-235"/>
<text text-anchor="start" x="180.5" y="-253" font-family="Helvetica,sans-Serif" font-size="10.00">scram::core::Zbdd::</text>
<text text-anchor="middle" x="236.5" y="-242" font-family="Helvetica,sans-Serif" font-size="10.00">EliminateComplements</text>
</a>
</g>
</g>
<!-- Node1&#45;&gt;Node8 -->
<g id="edge8" class="edge"><title>Node1&#45;&gt;Node8</title>
<path fill="none" stroke="midnightblue" d="M129.214,-276.723C144.571,-272.862 160.739,-268.797 175.702,-265.035"/>
<polygon fill="midnightblue" stroke="midnightblue" points="128.104,-273.393 119.259,-279.226 129.811,-280.182 128.104,-273.393"/>
</g>
<!-- Node9 -->
<g id="node9" class="node"><title>Node9</title>
<g id="a_node9"><a xlink:href="classscram_1_1core_1_1Zbdd.xhtml#af92e04ed908364e0177ce444d7b72712" target="_top" xlink:title="The common constructor to initialize member variables. ">
<polygon fill="white" stroke="black" points="373,-284.5 373,-303.5 510,-303.5 510,-284.5 373,-284.5"/>
<text text-anchor="middle" x="441.5" y="-291.5" font-family="Helvetica,sans-Serif" font-size="10.00">scram::core::Zbdd::Zbdd</text>
</a>
</g>
</g>
<!-- Node1&#45;&gt;Node9 -->
<g id="edge21" class="edge"><title>Node1&#45;&gt;Node9</title>
<path fill="none" stroke="midnightblue" d="M129.385,-294C198.493,-294 304.261,-294 372.907,-294"/>
<polygon fill="midnightblue" stroke="midnightblue" points="129.042,-290.5 119.042,-294 129.042,-297.5 129.042,-290.5"/>
</g>
<!-- Node11 -->
<g id="node11" class="node"><title>Node11</title>
<g id="a_node11"><a xlink:href="classscram_1_1core_1_1Zbdd.xhtml#aeb83fd37f2aee74ac41e6ccadba82d39" target="_top" xlink:title="Removes constant modules from products. ">
<polygon fill="white" stroke="black" points="164.5,-323 164.5,-353 308.5,-353 308.5,-323 164.5,-323"/>
<text text-anchor="start" x="172.5" y="-341" font-family="Helvetica,sans-Serif" font-size="10.00">scram::core::Zbdd::</text>
<text text-anchor="middle" x="236.5" y="-330" font-family="Helvetica,sans-Serif" font-size="10.00">EliminateConstantModules</text>
</a>
</g>
</g>
<!-- Node1&#45;&gt;Node11 -->
<g id="edge11" class="edge"><title>Node1&#45;&gt;Node11</title>
<path fill="none" stroke="midnightblue" d="M129.214,-311.277C144.571,-315.138 160.739,-319.203 175.702,-322.965"/>
<polygon fill="midnightblue" stroke="midnightblue" points="129.811,-307.818 119.259,-308.774 128.104,-314.607 129.811,-307.818"/>
</g>
<!-- Node13 -->
<g id="node13" class="node"><title>Node13</title>
<g id="a_node13"><a xlink:href="classscram_1_1core_1_1zbdd_1_1CutSetContainer.xhtml#a59985023f1eba639571610ad9a0b2a41" target="_top" xlink:title="Expands the intermediate ZBDD representation of a gate in intermediate cut sets containing the gate...">
<polygon fill="white" stroke="black" points="156,-137 156,-167 317,-167 317,-137 156,-137"/>
<text text-anchor="start" x="164" y="-155" font-family="Helvetica,sans-Serif" font-size="10.00">scram::core::zbdd::</text>
<text text-anchor="middle" x="236.5" y="-144" font-family="Helvetica,sans-Serif" font-size="10.00">CutSetContainer::ExpandGate</text>
</a>
</g>
</g>
<!-- Node1&#45;&gt;Node13 -->
<g id="edge14" class="edge"><title>Node1&#45;&gt;Node13</title>
<path fill="none" stroke="midnightblue" d="M73.9184,-269.993C89.9141,-243.502 119.053,-201.395 155,-177 160.691,-173.138 167.006,-169.851 173.524,-167.058"/>
<polygon fill="midnightblue" stroke="midnightblue" points="70.8749,-268.264 68.819,-278.658 76.9076,-271.815 70.8749,-268.264"/>
</g>
<!-- Node14 -->
<g id="node14" class="node"><title>Node14</title>
<g id="a_node14"><a xlink:href="classscram_1_1core_1_1Zbdd.xhtml#ac90d12f0c653c679d22109124fa6344c" target="_top" xlink:title="Find or adds a ZBDD SetNode vertex using information from gates. ">
<polygon fill="white" stroke="black" points="181,-88 181,-118 292,-118 292,-88 181,-88"/>
<text text-anchor="start" x="189" y="-106" font-family="Helvetica,sans-Serif" font-size="10.00">scram::core::Zbdd::</text>
<text text-anchor="middle" x="236.5" y="-95" font-family="Helvetica,sans-Serif" font-size="10.00">FindOrAddVertex</text>
</a>
</g>
</g>
<!-- Node1&#45;&gt;Node14 -->
<g id="edge15" class="edge"><title>Node1&#45;&gt;Node14</title>
<path fill="none" stroke="midnightblue" d="M68.1974,-268.813C80.5943,-232.433 108.426,-165.447 155,-128 162.527,-121.948 171.524,-117.355 180.732,-113.87"/>
<polygon fill="midnightblue" stroke="midnightblue" points="64.7671,-268.041 64.9742,-278.634 71.418,-270.224 64.7671,-268.041"/>
</g>
<!-- Node15 -->
<g id="node15" class="node"><title>Node15</title>
<g id="a_node15"><a xlink:href="classscram_1_1core_1_1Zbdd.xhtml#a516f0d2f35ad213399f83fb9ab102561" target="_top" xlink:title="Traverses ZBDD to find modules and adjusted cut&#45;offs. ">
<polygon fill="white" stroke="black" points="181,-186 181,-216 292,-216 292,-186 181,-186"/>
<text text-anchor="start" x="189" y="-204" font-family="Helvetica,sans-Serif" font-size="10.00">scram::core::Zbdd::</text>
<text text-anchor="middle" x="236.5" y="-193" font-family="Helvetica,sans-Serif" font-size="10.00">GatherModules</text>
</a>
</g>
</g>
<!-- Node1&#45;&gt;Node15 -->
<g id="edge16" class="edge"><title>Node1&#45;&gt;Node15</title>
<path fill="none" stroke="midnightblue" d="M85.6754,-272.422C103.928,-257.673 129.744,-238.59 155,-226 163.12,-221.952 172.029,-218.399 180.868,-215.338"/>
<polygon fill="midnightblue" stroke="midnightblue" points="83.3525,-269.801 77.8504,-278.855 87.7978,-275.208 83.3525,-269.801"/>
</g>
<!-- Node17 -->
<g id="node17" class="node"><title>Node17</title>
<g id="a_node17"><a xlink:href="classscram_1_1core_1_1zbdd_1_1CutSetContainer.xhtml#a87489caef0ebb8e4b62c600455da84a2" target="_top" xlink:title="Merges a set of cut sets into the main container. ">
<polygon fill="white" stroke="black" points="170.5,-39 170.5,-69 302.5,-69 302.5,-39 170.5,-39"/>
<text text-anchor="start" x="178.5" y="-57" font-family="Helvetica,sans-Serif" font-size="10.00">scram::core::zbdd::</text>
<text text-anchor="middle" x="236.5" y="-46" font-family="Helvetica,sans-Serif" font-size="10.00">CutSetContainer::Merge</text>
</a>
</g>
</g>
<!-- Node1&#45;&gt;Node17 -->
<g id="edge19" class="edge"><title>Node1&#45;&gt;Node17</title>
<path fill="none" stroke="midnightblue" d="M64.4468,-268.824C72.8281,-223.851 96.6461,-129.602 155,-78 159.588,-73.9425 164.838,-70.5704 170.408,-67.768"/>
<polygon fill="midnightblue" stroke="midnightblue" points="60.9613,-268.437 62.6778,-278.892 67.8557,-269.648 60.9613,-268.437"/>
</g>
<!-- Node18 -->
<g id="node18" class="node"><title>Node18</title>
<g id="a_node18"><a xlink:href="classscram_1_1Project.xhtml#aa72871e05c53f98f8c4f48ec61277754" target="_top" xlink:title="A constructor with project configurations for analysis. ">
<polygon fill="white" stroke="black" points="174,-0.5 174,-19.5 299,-19.5 299,-0.5 174,-0.5"/>
<text text-anchor="middle" x="236.5" y="-7.5" font-family="Helvetica,sans-Serif" font-size="10.00">scram::Project::Project</text>
</a>
</g>
</g>
<!-- Node1&#45;&gt;Node18 -->
<g id="edge20" class="edge"><title>Node1&#45;&gt;Node18</title>
<path fill="none" stroke="midnightblue" d="M61.8198,-268.477C65.9908,-215.491 83.3016,-93.1663 155,-29 160.457,-24.1161 166.935,-20.4241 173.81,-17.6429"/>
<polygon fill="midnightblue" stroke="midnightblue" points="58.3122,-268.468 61.1144,-278.685 65.2955,-268.95 58.3122,-268.468"/>
</g>
<!-- Node5 -->
<g id="node5" class="node"><title>Node5</title>
<g id="a_node5"><a xlink:href="classscram_1_1core_1_1FaultTreeAnalyzer.xhtml#aedae0c884539dab245018194771f5021" target="_top" xlink:title="scram::core::FaultTreeAnalyzer\l::algorithm">
<polygon fill="white" stroke="black" points="565,-438 565,-468 728,-468 728,-438 565,-438"/>
<text text-anchor="start" x="573" y="-456" font-family="Helvetica,sans-Serif" font-size="10.00">scram::core::FaultTreeAnalyzer</text>
<text text-anchor="middle" x="646.5" y="-445" font-family="Helvetica,sans-Serif" font-size="10.00">::algorithm</text>
</a>
</g>
</g>
<!-- Node4&#45;&gt;Node5 -->
<g id="edge4" class="edge"><title>Node4&#45;&gt;Node5</title>
<path fill="none" stroke="midnightblue" d="M507.393,-453C525.649,-453 545.729,-453 564.788,-453"/>
<polygon fill="midnightblue" stroke="midnightblue" points="507.167,-449.5 497.167,-453 507.167,-456.5 507.167,-449.5"/>
</g>
<!-- Node6&#45;&gt;Node4 -->
<g id="edge6" class="edge"><title>Node6&#45;&gt;Node4</title>
<path fill="none" stroke="midnightblue" d="M302.257,-467.982C329.142,-465.068 360.002,-461.724 385.735,-458.935"/>
<polygon fill="midnightblue" stroke="midnightblue" points="301.732,-464.518 292.167,-469.075 302.486,-471.478 301.732,-464.518"/>
</g>
<!-- Node8&#45;&gt;Node9 -->
<g id="edge9" class="edge"><title>Node8&#45;&gt;Node9</title>
<path fill="none" stroke="midnightblue" d="M310.621,-265.849C339.339,-272.074 371.353,-279.012 396.411,-284.444"/>
<polygon fill="midnightblue" stroke="midnightblue" points="311.132,-262.378 300.618,-263.681 309.649,-269.22 311.132,-262.378"/>
</g>
<!-- Node10 -->
<g id="node10" class="node"><title>Node10</title>
<g id="a_node10"><a xlink:href="classscram_1_1core_1_1zbdd_1_1CutSetContainer.xhtml#a49532388bd9b917f4351f94f728518aa" target="_top" xlink:title="Eliminates all complements from cut sets. ">
<polygon fill="white" stroke="black" points="368.5,-224.5 368.5,-265.5 514.5,-265.5 514.5,-224.5 368.5,-224.5"/>
<text text-anchor="start" x="376.5" y="-253.5" font-family="Helvetica,sans-Serif" font-size="10.00">scram::core::zbdd::</text>
<text text-anchor="start" x="376.5" y="-242.5" font-family="Helvetica,sans-Serif" font-size="10.00">CutSetContainer::Eliminate</text>
<text text-anchor="middle" x="441.5" y="-231.5" font-family="Helvetica,sans-Serif" font-size="10.00">Complements</text>
</a>
</g>
</g>
<!-- Node8&#45;&gt;Node10 -->
<g id="edge10" class="edge"><title>Node8&#45;&gt;Node10</title>
<path fill="none" stroke="midnightblue" d="M310.834,-248.194C329.512,-247.734 349.571,-247.24 368.197,-246.781"/>
<polygon fill="midnightblue" stroke="midnightblue" points="310.528,-244.7 300.618,-248.445 310.701,-251.698 310.528,-244.7"/>
</g>
<!-- Node11&#45;&gt;Node9 -->
<g id="edge12" class="edge"><title>Node11&#45;&gt;Node9</title>
<path fill="none" stroke="midnightblue" d="M316.687,-320.836C343.858,-314.947 373.274,-308.571 396.613,-303.512"/>
<polygon fill="midnightblue" stroke="midnightblue" points="315.825,-317.442 306.793,-322.981 317.308,-324.283 315.825,-317.442"/>
</g>
<!-- Node12 -->
<g id="node12" class="node"><title>Node12</title>
<g id="a_node12"><a xlink:href="classscram_1_1core_1_1zbdd_1_1CutSetContainer.xhtml#a1022ad7a4699257a6f0c0809d8f1903d" target="_top" xlink:title="Removes constant modules from cut sets. ">
<polygon fill="white" stroke="black" points="368.5,-322.5 368.5,-363.5 514.5,-363.5 514.5,-322.5 368.5,-322.5"/>
<text text-anchor="start" x="376.5" y="-351.5" font-family="Helvetica,sans-Serif" font-size="10.00">scram::core::zbdd::</text>
<text text-anchor="start" x="376.5" y="-340.5" font-family="Helvetica,sans-Serif" font-size="10.00">CutSetContainer::Eliminate</text>
<text text-anchor="middle" x="441.5" y="-329.5" font-family="Helvetica,sans-Serif" font-size="10.00">ConstantModules</text>
</a>
</g>
</g>
<!-- Node11&#45;&gt;Node12 -->
<g id="edge13" class="edge"><title>Node11&#45;&gt;Node12</title>
<path fill="none" stroke="midnightblue" d="M318.866,-340.004C335.234,-340.407 352.33,-340.828 368.358,-341.223"/>
<polygon fill="midnightblue" stroke="midnightblue" points="318.868,-336.503 308.785,-339.756 318.696,-343.501 318.868,-336.503"/>
</g>
<!-- Node15&#45;&gt;Node9 -->
<g id="edge17" class="edge"><title>Node15&#45;&gt;Node9</title>
<path fill="none" stroke="midnightblue" d="M301.448,-216.601C307.292,-219.268 312.916,-222.377 318,-226 340.007,-241.683 331.347,-260.265 354,-275 359.929,-278.856 366.52,-281.94 373.344,-284.405"/>
<polygon fill="midnightblue" stroke="midnightblue" points="302.709,-213.335 292.13,-212.765 300.044,-219.808 302.709,-213.335"/>
</g>
<!-- Node16 -->
<g id="node16" class="node"><title>Node16</title>
<g id="a_node16"><a xlink:href="classscram_1_1core_1_1zbdd_1_1CutSetContainer.xhtml#a478c89f64731781882b50ec55898900b" target="_top" xlink:title="Gathers all module indices in the cut sets. ">
<polygon fill="white" stroke="black" points="354,-176 354,-206 529,-206 529,-176 354,-176"/>
<text text-anchor="start" x="362" y="-194" font-family="Helvetica,sans-Serif" font-size="10.00">scram::core::zbdd::</text>
<text text-anchor="middle" x="441.5" y="-183" font-family="Helvetica,sans-Serif" font-size="10.00">CutSetContainer::GatherModules</text>
</a>
</g>
</g>
<!-- Node15&#45;&gt;Node16 -->
<g id="edge18" class="edge"><title>Node15&#45;&gt;Node16</title>
<path fill="none" stroke="midnightblue" d="M302.207,-197.812C318.672,-197.001 336.63,-196.117 353.99,-195.262"/>
<polygon fill="midnightblue" stroke="midnightblue" points="301.983,-194.319 292.167,-198.307 302.327,-201.311 301.983,-194.319"/>
</g>
</g>
</svg>
