<?xml version="1.0" encoding="UTF-8" standalone="no"?>
<!DOCTYPE svg PUBLIC "-//W3C//DTD SVG 1.1//EN"
 "http://www.w3.org/Graphics/SVG/1.1/DTD/svg11.dtd">
<!-- Generated by graphviz version 2.38.0 (20140413.2041)
 -->
<!-- Title: scram::mef::InitiatingEvent Pages: 1 -->
<svg width="344pt" height="419pt"
 viewBox="0.00 0.00 344.00 419.00" xmlns="http://www.w3.org/2000/svg" xmlns:xlink="http://www.w3.org/1999/xlink">
<g id="graph0" class="graph" transform="scale(1 1) rotate(0) translate(4 415)">
<title>scram::mef::InitiatingEvent</title>
<polygon fill="white" stroke="none" points="-4,4 -4,-415 340,-415 340,4 -4,4"/>
<!-- Node1 -->
<g id="node1" class="node"><title>Node1</title>
<polygon fill="#bfbfbf" stroke="black" points="143.5,-0.5 143.5,-101.5 288.5,-101.5 288.5,-0.5 143.5,-0.5"/>
<text text-anchor="middle" x="216" y="-89.5" font-family="Helvetica,sans-Serif" font-size="10.00">scram::mef::InitiatingEvent</text>
<polyline fill="none" stroke="black" points="143.5,-82.5 288.5,-82.5 "/>
<text text-anchor="start" x="151.5" y="-70.5" font-family="Helvetica,sans-Serif" font-size="10.00">+ kTypeString</text>
<polyline fill="none" stroke="black" points="143.5,-63.5 288.5,-63.5 "/>
<text text-anchor="start" x="151.5" y="-51.5" font-family="Helvetica,sans-Serif" font-size="10.00">+ event_tree()</text>
<text text-anchor="start" x="151.5" y="-40.5" font-family="Helvetica,sans-Serif" font-size="10.00">+ event_tree()</text>
<text text-anchor="start" x="151.5" y="-29.5" font-family="Helvetica,sans-Serif" font-size="10.00">+ event_tree()</text>
<text text-anchor="start" x="151.5" y="-18.5" font-family="Helvetica,sans-Serif" font-size="10.00">* event_tree()</text>
<text text-anchor="start" x="151.5" y="-7.5" font-family="Helvetica,sans-Serif" font-size="10.00">* event_tree()</text>
</g>
<!-- Node2 -->
<g id="node2" class="node"><title>Node2</title>
<g id="a_node2"><a xlink:href="classscram_1_1mef_1_1Element.xhtml" target="_top" xlink:title="The MEF Element with attributes and a label. ">
<polygon fill="white" stroke="black" points="92.5,-138.5 92.5,-316.5 209.5,-316.5 209.5,-138.5 92.5,-138.5"/>
<text text-anchor="middle" x="151" y="-304.5" font-family="Helvetica,sans-Serif" font-size="10.00">scram::mef::Element</text>
<polyline fill="none" stroke="black" points="92.5,-297.5 209.5,-297.5 "/>
<text text-anchor="middle" x="151" y="-285.5" font-family="Helvetica,sans-Serif" font-size="10.00"> </text>
<polyline fill="none" stroke="black" points="92.5,-278.5 209.5,-278.5 "/>
<text text-anchor="start" x="100.5" y="-266.5" font-family="Helvetica,sans-Serif" font-size="10.00">+ Element()</text>
<text text-anchor="start" x="100.5" y="-255.5" font-family="Helvetica,sans-Serif" font-size="10.00">+ name()</text>
<text text-anchor="start" x="100.5" y="-244.5" font-family="Helvetica,sans-Serif" font-size="10.00">+ name_view()</text>
<text text-anchor="start" x="100.5" y="-233.5" font-family="Helvetica,sans-Serif" font-size="10.00">+ label()</text>
<text text-anchor="start" x="100.5" y="-222.5" font-family="Helvetica,sans-Serif" font-size="10.00">+ label()</text>
<text text-anchor="start" x="100.5" y="-211.5" font-family="Helvetica,sans-Serif" font-size="10.00">+ attributes()</text>
<text text-anchor="start" x="100.5" y="-200.5" font-family="Helvetica,sans-Serif" font-size="10.00">+ AddAttribute()</text>
<text text-anchor="start" x="100.5" y="-189.5" font-family="Helvetica,sans-Serif" font-size="10.00">+ SetAttribute()</text>
<text text-anchor="start" x="100.5" y="-178.5" font-family="Helvetica,sans-Serif" font-size="10.00">+ GetAttribute()</text>
<text text-anchor="start" x="100.5" y="-167.5" font-family="Helvetica,sans-Serif" font-size="10.00">+ RemoveAttribute()</text>
<text text-anchor="start" x="100.5" y="-156.5" font-family="Helvetica,sans-Serif" font-size="10.00"># ~Element()</text>
<text text-anchor="start" x="100.5" y="-145.5" font-family="Helvetica,sans-Serif" font-size="10.00"># name()</text>
</a>
</g>
</g>
<!-- Node2&#45;&gt;Node1 -->
<g id="edge1" class="edge"><title>Node2&#45;&gt;Node1</title>
<path fill="none" stroke="midnightblue" d="M187.327,-128.975C190.855,-119.505 194.322,-110.198 197.558,-101.51"/>
<polygon fill="none" stroke="midnightblue" points="183.996,-127.89 183.786,-138.483 190.556,-130.334 183.996,-127.89"/>
</g>
<!-- Node3 -->
<g id="node3" class="node"><title>Node3</title>
<g id="a_node3"><a xlink:href="classscram_1_1mef_1_1ContainerElement.xhtml" target="_top" xlink:title="Elements in MEF containers. ">
<polygon fill="white" stroke="black" points="0,-353.5 0,-410.5 164,-410.5 164,-353.5 0,-353.5"/>
<text text-anchor="middle" x="82" y="-398.5" font-family="Helvetica,sans-Serif" font-size="10.00">scram::mef::ContainerElement</text>
<polyline fill="none" stroke="black" points="0,-391.5 164,-391.5 "/>
<text text-anchor="middle" x="82" y="-379.5" font-family="Helvetica,sans-Serif" font-size="10.00"> </text>
<polyline fill="none" stroke="black" points="0,-372.5 164,-372.5 "/>
<text text-anchor="start" x="8" y="-360.5" font-family="Helvetica,sans-Serif" font-size="10.00"># container()</text>
</a>
</g>
</g>
<!-- Node3&#45;&gt;Node2 -->
<g id="edge2" class="edge"><title>Node3&#45;&gt;Node2</title>
<path fill="none" stroke="midnightblue" d="M98.6504,-344.2C102.498,-335.696 106.755,-326.288 111.129,-316.62"/>
<polygon fill="none" stroke="midnightblue" points="95.4289,-342.83 94.4954,-353.383 101.806,-345.715 95.4289,-342.83"/>
</g>
<!-- Node4 -->
<g id="node4" class="node"><title>Node4</title>
<polygon fill="white" stroke="#bfbfbf" points="182.5,-353.5 182.5,-410.5 259.5,-410.5 259.5,-353.5 182.5,-353.5"/>
<text text-anchor="middle" x="221" y="-398.5" font-family="Helvetica,sans-Serif" font-size="10.00">noncopyable</text>
<polyline fill="none" stroke="#bfbfbf" points="182.5,-391.5 259.5,-391.5 "/>
<text text-anchor="middle" x="221" y="-379.5" font-family="Helvetica,sans-Serif" font-size="10.00"> </text>
<polyline fill="none" stroke="#bfbfbf" points="182.5,-372.5 259.5,-372.5 "/>
<text text-anchor="middle" x="221" y="-360.5" font-family="Helvetica,sans-Serif" font-size="10.00"> </text>
</g>
<!-- Node4&#45;&gt;Node2 -->
<g id="edge3" class="edge"><title>Node4&#45;&gt;Node2</title>
<path fill="none" stroke="#8b1a1a" d="M204.108,-344.2C200.205,-335.696 195.887,-326.288 191.448,-316.62"/>
<polygon fill="none" stroke="#8b1a1a" points="200.971,-345.755 208.324,-353.383 207.333,-342.835 200.971,-345.755"/>
</g>
<!-- Node5 -->
<g id="node5" class="node"><title>Node5</title>
<g id="a_node5"><a xlink:href="classscram_1_1mef_1_1Usage.xhtml" target="_top" xlink:title="Mixin class for providing usage marks for elements. ">
<polygon fill="white" stroke="black" points="228,-188 228,-267 336,-267 336,-188 228,-188"/>
<text text-anchor="middle" x="282" y="-255" font-family="Helvetica,sans-Serif" font-size="10.00">scram::mef::Usage</text>
<polyline fill="none" stroke="black" points="228,-248 336,-248 "/>
<text text-anchor="middle" x="282" y="-236" font-family="Helvetica,sans-Serif" font-size="10.00"> </text>
<polyline fill="none" stroke="black" points="228,-229 336,-229 "/>
<text text-anchor="start" x="236" y="-217" font-family="Helvetica,sans-Serif" font-size="10.00">+ usage()</text>
<text text-anchor="start" x="236" y="-206" font-family="Helvetica,sans-Serif" font-size="10.00">+ usage()</text>
<text text-anchor="start" x="236" y="-195" font-family="Helvetica,sans-Serif" font-size="10.00"># ~Usage()</text>
</a>
</g>
</g>
<!-- Node5&#45;&gt;Node1 -->
<g id="edge4" class="edge"><title>Node5&#45;&gt;Node1</title>
<path fill="none" stroke="midnightblue" d="M263.738,-178.215C254.714,-154.358 243.84,-125.609 234.752,-101.578"/>
<polygon fill="none" stroke="midnightblue" points="260.541,-179.658 267.352,-187.773 267.088,-177.181 260.541,-179.658"/>
</g>
</g>
</svg>
