<?xml version="1.0" encoding="UTF-8" standalone="no"?>
<!DOCTYPE svg PUBLIC "-//W3C//DTD SVG 1.1//EN"
 "http://www.w3.org/Graphics/SVG/1.1/DTD/svg11.dtd">
<!-- Generated by graphviz version 2.38.0 (20140413.2041)
 -->
<!-- Title: scram::core::RiskAnalysis::model Pages: 1 -->
<!--zoomable 627 -->
<svg id="main" version="1.1" xmlns="http://www.w3.org/2000/svg" xmlns:xlink="http://www.w3.org/1999/xlink" xml:space="preserve" onload="init(evt)">
<style type="text/css"><![CDATA[
.edge:hover path { stroke: red; }
.edge:hover polygon { stroke: red; fill: red; }
]]></style>
<script type="text/javascript"><![CDATA[
var edges = document.getElementsByTagName('g');
if (edges && edges.length) {
  for (var i=0;i<edges.length;i++) {
    if (edges[i].id.substr(0,4)=='edge') {
      edges[i].setAttribute('class','edge');
    }
  }
}
]]></script>
        <defs>
                <circle id="rim" cx="0" cy="0" r="7"/>
                <circle id="rim2" cx="0" cy="0" r="3.5"/>
                <g id="zoomPlus">
                        <use xlink:href="#rim" fill="#404040">
                                <set attributeName="fill" to="#808080" begin="zoomplus.mouseover" end="zoomplus.mouseout"/>
                        </use>
                        <path d="M-4,0h8M0,-4v8" fill="none" stroke="white" stroke-width="1.5" pointer-events="none"/>
                </g>
                <g id="zoomMin">
                        <use xlink:href="#rim" fill="#404040">
                                <set attributeName="fill" to="#808080" begin="zoomminus.mouseover" end="zoomminus.mouseout"/>
                        </use>
                        <path d="M-4,0h8" fill="none" stroke="white" stroke-width="1.5" pointer-events="none"/>
                </g>
                <g id="dirArrow">
                        <path fill="none" stroke="white" stroke-width="1.5" d="M0,-3.0v7 M-2.5,-0.5L0,-3.0L2.5,-0.5"/>
                </g>
               <g id="resetDef">
                       <use xlink:href="#rim2" fill="#404040">
                               <set attributeName="fill" to="#808080" begin="reset.mouseover" end="reset.mouseout"/>
                       </use>
               </g>
        </defs>

<script type="text/javascript">
var viewWidth = 508;
var viewHeight = 627;
var sectionId = 'dynsection-1';
</script>
<script xlink:href="svgpan.js"/>
<svg id="graph" class="graph">
<g id="viewport">
<title>scram::core::RiskAnalysis::model</title>
<polygon fill="white" stroke="none" points="-4,4 -4,-623 504,-623 504,4 -4,4"/>
<!-- Node1 -->
<g id="node1" class="node"><title>Node1</title>
<polygon fill="#bfbfbf" stroke="black" points="0,-294.5 0,-324.5 137,-324.5 137,-294.5 0,-294.5"/>
<text text-anchor="start" x="8" y="-312.5" font-family="Helvetica,sans-Serif" font-size="10.00">scram::core::RiskAnalysis</text>
<text text-anchor="middle" x="68.5" y="-301.5" font-family="Helvetica,sans-Serif" font-size="10.00">::model</text>
</g>
<!-- Node2 -->
<g id="node2" class="node"><title>Node2</title>
<g id="a_node2"><a xlink:href="classscram_1_1core_1_1RiskAnalysis.xhtml#a7aed757ac5a7a96878c2706a7a9710bb" target="_top" xlink:title="Analyzes the model and performs computations specified in the settings. ">
<polygon fill="white" stroke="black" points="173,-294.5 173,-324.5 310,-324.5 310,-294.5 173,-294.5"/>
<text text-anchor="start" x="181" y="-312.5" font-family="Helvetica,sans-Serif" font-size="10.00">scram::core::RiskAnalysis</text>
<text text-anchor="middle" x="241.5" y="-301.5" font-family="Helvetica,sans-Serif" font-size="10.00">::Analyze</text>
</a>
</g>
</g>
<!-- Node1&#45;&gt;Node2 -->
<g id="edge1" class="edge"><title>Node1&#45;&gt;Node2</title>
<path fill="none" stroke="midnightblue" d="M137.084,-309.5C145.538,-309.5 154.237,-309.5 162.83,-309.5"/>
<polygon fill="midnightblue" stroke="midnightblue" points="162.847,-313 172.847,-309.5 162.847,-306 162.847,-313"/>
</g>
<!-- Node3 -->
<g id="node3" class="node"><title>Node3</title>
<g id="a_node3"><a xlink:href="classscram_1_1core_1_1Analysis.xhtml#ab04a96c555ba726368fa3868a8701610" target="_top" xlink:title="scram::core::Analysis\l::settings">
<polygon fill="white" stroke="black" points="363.5,-588.5 363.5,-618.5 482.5,-618.5 482.5,-588.5 363.5,-588.5"/>
<text text-anchor="start" x="371.5" y="-606.5" font-family="Helvetica,sans-Serif" font-size="10.00">scram::core::Analysis</text>
<text text-anchor="middle" x="423" y="-595.5" font-family="Helvetica,sans-Serif" font-size="10.00">::settings</text>
</a>
</g>
</g>
<!-- Node2&#45;&gt;Node3 -->
<g id="edge2" class="edge"><title>Node2&#45;&gt;Node3</title>
<path fill="none" stroke="midnightblue" d="M243.788,-324.541C248.481,-369.905 268.698,-506.715 346,-579.5 348.597,-581.945 351.442,-584.142 354.458,-586.114"/>
<polygon fill="midnightblue" stroke="midnightblue" points="352.916,-589.262 363.35,-591.102 356.34,-583.157 352.916,-589.262"/>
</g>
<!-- Node4 -->
<g id="node4" class="node"><title>Node4</title>
<g id="a_node4"><a xlink:href="classscram_1_1core_1_1Settings.xhtml#a9937a41d3fd1369f2eea59e1f33a1ac5" target="_top" xlink:title="scram::core::Settings\l::seed">
<polygon fill="white" stroke="black" points="363.5,-539.5 363.5,-569.5 482.5,-569.5 482.5,-539.5 363.5,-539.5"/>
<text text-anchor="start" x="371.5" y="-557.5" font-family="Helvetica,sans-Serif" font-size="10.00">scram::core::Settings</text>
<text text-anchor="middle" x="423" y="-546.5" font-family="Helvetica,sans-Serif" font-size="10.00">::seed</text>
</a>
</g>
</g>
<!-- Node2&#45;&gt;Node4 -->
<g id="edge3" class="edge"><title>Node2&#45;&gt;Node4</title>
<path fill="none" stroke="midnightblue" d="M245.231,-324.627C253.205,-364.41 280.188,-472.855 346,-530.5 348.63,-532.803 351.481,-534.886 354.484,-536.769"/>
<polygon fill="midnightblue" stroke="midnightblue" points="352.835,-539.856 363.291,-541.564 356.182,-533.708 352.835,-539.856"/>
</g>
<!-- Node5 -->
<g id="node5" class="node"><title>Node5</title>
<g id="a_node5"><a xlink:href="classscram_1_1mef_1_1RandomDeviate.xhtml#a078bf1c19e467ec90c578e0f388155d9" target="_top" xlink:title="Sets the seed of the underlying random number generator. ">
<polygon fill="white" stroke="black" points="346,-490.5 346,-520.5 500,-520.5 500,-490.5 346,-490.5"/>
<text text-anchor="start" x="354" y="-508.5" font-family="Helvetica,sans-Serif" font-size="10.00">scram::mef::RandomDeviate</text>
<text text-anchor="middle" x="423" y="-497.5" font-family="Helvetica,sans-Serif" font-size="10.00">::seed</text>
</a>
</g>
</g>
<!-- Node2&#45;&gt;Node5 -->
<g id="edge4" class="edge"><title>Node2&#45;&gt;Node5</title>
<path fill="none" stroke="midnightblue" d="M247.42,-324.647C259.041,-358.046 291.395,-438.462 346,-481.5 347.766,-482.892 349.614,-484.204 351.526,-485.44"/>
<polygon fill="midnightblue" stroke="midnightblue" points="349.844,-488.51 360.27,-490.392 353.293,-482.418 349.844,-488.51"/>
</g>
<!-- Node6 -->
<g id="node6" class="node"><title>Node6</title>
<g id="a_node6"><a xlink:href="classscram_1_1mef_1_1Model.xhtml#abfbaf94f055094f5ed8418d30105a2b1" target="_top" xlink:title="scram::mef::Model::\lalignments">
<polygon fill="white" stroke="black" points="367,-441.5 367,-471.5 479,-471.5 479,-441.5 367,-441.5"/>
<text text-anchor="start" x="375" y="-459.5" font-family="Helvetica,sans-Serif" font-size="10.00">scram::mef::Model::</text>
<text text-anchor="middle" x="423" y="-448.5" font-family="Helvetica,sans-Serif" font-size="10.00">alignments</text>
</a>
</g>
</g>
<!-- Node2&#45;&gt;Node6 -->
<g id="edge5" class="edge"><title>Node2&#45;&gt;Node6</title>
<path fill="none" stroke="midnightblue" d="M251.291,-324.759C266.999,-350.69 302.361,-403.371 346,-432.5 349.56,-434.877 353.37,-437.029 357.317,-438.977"/>
<polygon fill="midnightblue" stroke="midnightblue" points="356.163,-442.295 366.723,-443.161 359.008,-435.899 356.163,-442.295"/>
</g>
<!-- Node7 -->
<g id="node7" class="node"><title>Node7</title>
<g id="a_node7"><a xlink:href="classscram_1_1mef_1_1Model.xhtml#a8a215a2dd25789bfa65d41cc28b0ac4f" target="_top" xlink:title="scram::mef::Model::\lmission_time">
<polygon fill="white" stroke="black" points="367,-392.5 367,-422.5 479,-422.5 479,-392.5 367,-392.5"/>
<text text-anchor="start" x="375" y="-410.5" font-family="Helvetica,sans-Serif" font-size="10.00">scram::mef::Model::</text>
<text text-anchor="middle" x="423" y="-399.5" font-family="Helvetica,sans-Serif" font-size="10.00">mission_time</text>
</a>
</g>
</g>
<!-- Node2&#45;&gt;Node7 -->
<g id="edge6" class="edge"><title>Node2&#45;&gt;Node7</title>
<path fill="none" stroke="midnightblue" d="M260.077,-324.73C279.824,-341.179 313.395,-367.212 346,-383.5 349.76,-385.378 353.697,-387.149 357.718,-388.81"/>
<polygon fill="midnightblue" stroke="midnightblue" points="356.614,-392.136 367.203,-392.49 359.146,-385.61 356.614,-392.136"/>
</g>
<!-- Node8 -->
<g id="node8" class="node"><title>Node8</title>
<g id="a_node8"><a xlink:href="classscram_1_1mef_1_1MissionTime.xhtml#abedd4c16a7c428fc8192ec32d51beb3e" target="_top" xlink:title="Changes the mission time value. ">
<polygon fill="white" stroke="black" points="355,-343.5 355,-373.5 491,-373.5 491,-343.5 355,-343.5"/>
<text text-anchor="start" x="363" y="-361.5" font-family="Helvetica,sans-Serif" font-size="10.00">scram::mef::MissionTime</text>
<text text-anchor="middle" x="423" y="-350.5" font-family="Helvetica,sans-Serif" font-size="10.00">::value</text>
</a>
</g>
</g>
<!-- Node2&#45;&gt;Node8 -->
<g id="edge7" class="edge"><title>Node2&#45;&gt;Node8</title>
<path fill="none" stroke="midnightblue" d="M297.821,-324.601C316.591,-329.725 337.729,-335.496 357.172,-340.803"/>
<polygon fill="midnightblue" stroke="midnightblue" points="356.293,-344.191 366.862,-343.448 358.137,-337.438 356.293,-344.191"/>
</g>
<!-- Node9 -->
<g id="node9" class="node"><title>Node9</title>
<g id="a_node9"><a xlink:href="classscram_1_1core_1_1Settings.xhtml#a0c130c599ff39bd4a5b269907f06b66d" target="_top" xlink:title="scram::core::Settings\l::mission_time">
<polygon fill="white" stroke="black" points="363.5,-294.5 363.5,-324.5 482.5,-324.5 482.5,-294.5 363.5,-294.5"/>
<text text-anchor="start" x="371.5" y="-312.5" font-family="Helvetica,sans-Serif" font-size="10.00">scram::core::Settings</text>
<text text-anchor="middle" x="423" y="-301.5" font-family="Helvetica,sans-Serif" font-size="10.00">::mission_time</text>
</a>
</g>
</g>
<!-- Node2&#45;&gt;Node9 -->
<g id="edge8" class="edge"><title>Node2&#45;&gt;Node9</title>
<path fill="none" stroke="midnightblue" d="M310.105,-309.5C324.18,-309.5 339.03,-309.5 353.149,-309.5"/>
<polygon fill="midnightblue" stroke="midnightblue" points="353.279,-313 363.279,-309.5 353.279,-306 353.279,-313"/>
</g>
<!-- Node10 -->
<g id="node10" class="node"><title>Node10</title>
<g id="a_node10"><a xlink:href="classscram_1_1mef_1_1Composite.xhtml#a9c283de486f5e1035ae3116ae0a3f79c" target="_top" xlink:title="scram::mef::Composite\l::table">
<polygon fill="white" stroke="black" points="358.5,-245.5 358.5,-275.5 487.5,-275.5 487.5,-245.5 358.5,-245.5"/>
<text text-anchor="start" x="366.5" y="-263.5" font-family="Helvetica,sans-Serif" font-size="10.00">scram::mef::Composite</text>
<text text-anchor="middle" x="423" y="-252.5" font-family="Helvetica,sans-Serif" font-size="10.00">::table</text>
</a>
</g>
</g>
<!-- Node2&#45;&gt;Node10 -->
<g id="edge9" class="edge"><title>Node2&#45;&gt;Node10</title>
<path fill="none" stroke="midnightblue" d="M297.821,-294.399C316.591,-289.275 337.729,-283.504 357.172,-278.197"/>
<polygon fill="midnightblue" stroke="midnightblue" points="358.137,-281.562 366.862,-275.552 356.293,-274.809 358.137,-281.562"/>
</g>
<!-- Node11 -->
<g id="node11" class="node"><title>Node11</title>
<g id="a_node11"><a xlink:href="classscram_1_1mef_1_1HouseEvent.xhtml#a15ab4daf36b62127703cf610bdc80183" target="_top" xlink:title="Sets the state for House event. ">
<polygon fill="white" stroke="black" points="355.5,-196.5 355.5,-226.5 490.5,-226.5 490.5,-196.5 355.5,-196.5"/>
<text text-anchor="start" x="363.5" y="-214.5" font-family="Helvetica,sans-Serif" font-size="10.00">scram::mef::HouseEvent</text>
<text text-anchor="middle" x="423" y="-203.5" font-family="Helvetica,sans-Serif" font-size="10.00">::state</text>
</a>
</g>
</g>
<!-- Node2&#45;&gt;Node11 -->
<g id="edge10" class="edge"><title>Node2&#45;&gt;Node11</title>
<path fill="none" stroke="midnightblue" d="M260.512,-294.271C280.369,-278.106 313.785,-252.704 346,-236.5 350.347,-234.314 354.927,-232.257 359.596,-230.337"/>
<polygon fill="midnightblue" stroke="midnightblue" points="361.201,-233.468 369.256,-226.586 358.667,-226.943 361.201,-233.468"/>
</g>
<!-- Node12 -->
<g id="node12" class="node"><title>Node12</title>
<g id="a_node12"><a xlink:href="classscram_1_1mef_1_1Model.xhtml#af94cbabe75f57f3a1b1ae5d99a09e82b" target="_top" xlink:title="scram::mef::Model::\linitiating_events">
<polygon fill="white" stroke="black" points="367,-147.5 367,-177.5 479,-177.5 479,-147.5 367,-147.5"/>
<text text-anchor="start" x="375" y="-165.5" font-family="Helvetica,sans-Serif" font-size="10.00">scram::mef::Model::</text>
<text text-anchor="middle" x="423" y="-154.5" font-family="Helvetica,sans-Serif" font-size="10.00">initiating_events</text>
</a>
</g>
</g>
<!-- Node2&#45;&gt;Node12 -->
<g id="edge11" class="edge"><title>Node2&#45;&gt;Node12</title>
<path fill="none" stroke="midnightblue" d="M251.359,-294.422C267.17,-268.788 302.683,-216.662 346,-187.5 349.565,-185.1 353.378,-182.915 357.327,-180.928"/>
<polygon fill="midnightblue" stroke="midnightblue" points="359.086,-183.973 366.737,-176.644 356.185,-177.603 359.086,-183.973"/>
</g>
<!-- Node13 -->
<g id="node13" class="node"><title>Node13</title>
<g id="a_node13"><a xlink:href="classscram_1_1mef_1_1Model.xhtml#a13bd4eb71c3f15f4eece041f19488744" target="_top" xlink:title="scram::mef::Model::\lcontext">
<polygon fill="white" stroke="black" points="367,-98.5 367,-128.5 479,-128.5 479,-98.5 367,-98.5"/>
<text text-anchor="start" x="375" y="-116.5" font-family="Helvetica,sans-Serif" font-size="10.00">scram::mef::Model::</text>
<text text-anchor="middle" x="423" y="-105.5" font-family="Helvetica,sans-Serif" font-size="10.00">context</text>
</a>
</g>
</g>
<!-- Node2&#45;&gt;Node13 -->
<g id="edge12" class="edge"><title>Node2&#45;&gt;Node13</title>
<path fill="none" stroke="midnightblue" d="M247.483,-294.488C259.232,-261.377 291.829,-181.608 346,-138.5 349.582,-135.65 353.5,-133.119 357.61,-130.873"/>
<polygon fill="midnightblue" stroke="midnightblue" points="359.38,-133.905 366.856,-126.397 356.33,-127.604 359.38,-133.905"/>
</g>
<!-- Node14 -->
<g id="node14" class="node"><title>Node14</title>
<g id="a_node14"><a xlink:href="classscram_1_1mef_1_1Element.xhtml#adb401e2ca84aa98cb60797bec2500a81" target="_top" xlink:title="scram::mef::Element\l::name">
<polygon fill="white" stroke="black" points="364.5,-49.5 364.5,-79.5 481.5,-79.5 481.5,-49.5 364.5,-49.5"/>
<text text-anchor="start" x="372.5" y="-67.5" font-family="Helvetica,sans-Serif" font-size="10.00">scram::mef::Element</text>
<text text-anchor="middle" x="423" y="-56.5" font-family="Helvetica,sans-Serif" font-size="10.00">::name</text>
</a>
</g>
</g>
<!-- Node2&#45;&gt;Node14 -->
<g id="edge13" class="edge"><title>Node2&#45;&gt;Node14</title>
<path fill="none" stroke="midnightblue" d="M245.291,-294.484C253.413,-254.986 280.725,-147.264 346,-89.5 348.958,-86.8823 352.197,-84.5377 355.617,-82.4378"/>
<polygon fill="midnightblue" stroke="midnightblue" points="357.28,-85.5176 364.438,-77.7059 353.971,-79.3492 357.28,-85.5176"/>
</g>
<!-- Node15 -->
<g id="node15" class="node"><title>Node15</title>
<g id="a_node15"><a xlink:href="classscram_1_1mef_1_1Model.xhtml#a8d1303f0c13449fc489057aca065f18a" target="_top" xlink:title="scram::mef::Model::\lfault_trees">
<polygon fill="white" stroke="black" points="367,-0.5 367,-30.5 479,-30.5 479,-0.5 367,-0.5"/>
<text text-anchor="start" x="375" y="-18.5" font-family="Helvetica,sans-Serif" font-size="10.00">scram::mef::Model::</text>
<text text-anchor="middle" x="423" y="-7.5" font-family="Helvetica,sans-Serif" font-size="10.00">fault_trees</text>
</a>
</g>
</g>
<!-- Node2&#45;&gt;Node15 -->
<g id="edge14" class="edge"><title>Node2&#45;&gt;Node15</title>
<path fill="none" stroke="midnightblue" d="M243.88,-294.234C248.8,-248.831 269.517,-113.287 346,-40.5 349.525,-37.1455 353.508,-34.241 357.758,-31.7261"/>
<polygon fill="midnightblue" stroke="midnightblue" points="359.495,-34.769 366.796,-27.0916 356.301,-28.5402 359.495,-34.769"/>
</g>
</g>
</svg>
        <g id="navigator" transform="translate(0 0)" fill="#404254">
                <rect fill="#f2f5e9" fill-opacity="0.5" stroke="#606060" stroke-width=".5" x="0" y="0" width="60" height="60"/>
                <use id="zoomplus" xlink:href="#zoomPlus" x="17" y="9" onmousedown="handleZoom(evt,'in')"/>
                <use id="zoomminus" xlink:href="#zoomMin" x="42" y="9" onmousedown="handleZoom(evt,'out')"/>
                <use id="reset" xlink:href="#resetDef" x="30" y="36" onmousedown="handleReset()"/>
                <g id="arrowUp" xlink:href="#dirArrow" transform="translate(30 24)" onmousedown="handlePan(0,-1)">
                  <use xlink:href="#rim" fill="#404040">
                        <set attributeName="fill" to="#808080" begin="arrowUp.mouseover" end="arrowUp.mouseout"/>
                  </use>
                  <path fill="none" stroke="white" stroke-width="1.5" d="M0,-3.0v7 M-2.5,-0.5L0,-3.0L2.5,-0.5"/>
                </g>
                <g id="arrowRight" xlink:href="#dirArrow" transform="rotate(90) translate(36 -43)" onmousedown="handlePan(1,0)">
                  <use xlink:href="#rim" fill="#404040">
                        <set attributeName="fill" to="#808080" begin="arrowRight.mouseover" end="arrowRight.mouseout"/>
                  </use>
                  <path fill="none" stroke="white" stroke-width="1.5" d="M0,-3.0v7 M-2.5,-0.5L0,-3.0L2.5,-0.5"/>
                </g>
                <g id="arrowDown" xlink:href="#dirArrow" transform="rotate(180) translate(-30 -48)" onmousedown="handlePan(0,1)">
                  <use xlink:href="#rim" fill="#404040">
                        <set attributeName="fill" to="#808080" begin="arrowDown.mouseover" end="arrowDown.mouseout"/>
                  </use>
                  <path fill="none" stroke="white" stroke-width="1.5" d="M0,-3.0v7 M-2.5,-0.5L0,-3.0L2.5,-0.5"/>
                </g>
                <g id="arrowLeft" xlink:href="#dirArrow" transform="rotate(270) translate(-36 17)" onmousedown="handlePan(-1,0)">
                  <use xlink:href="#rim" fill="#404040">
                        <set attributeName="fill" to="#808080" begin="arrowLeft.mouseover" end="arrowLeft.mouseout"/>
                  </use>
                  <path fill="none" stroke="white" stroke-width="1.5" d="M0,-3.0v7 M-2.5,-0.5L0,-3.0L2.5,-0.5"/>
                </g>
        </g>
        <svg viewBox="0 0 15 15" width="100%" height="30px" preserveAspectRatio="xMaxYMin meet">
         <g id="arrow_out" transform="scale(0.3 0.3)">
          <a xlink:href="classscram_1_1core_1_1RiskAnalysis_a337f7e9fe02b1581e872590d6f7baa01_cgraph_org.svg" target="_base">
           <rect id="button" ry="5" rx="5" y="6" x="6" height="38" width="38"
                fill="#f2f5e9" fill-opacity="0.5" stroke="#606060" stroke-width="1.0"/>
           <path id="arrow"
             d="M 11.500037,31.436501 C 11.940474,20.09759 22.043105,11.32322 32.158766,21.979434 L 37.068811,17.246167 C 37.068811,17.246167 37.088388,32 37.088388,32 L 22.160133,31.978069 C 22.160133,31.978069 26.997745,27.140456 26.997745,27.140456 C 18.528582,18.264221 13.291696,25.230495 11.500037,31.436501 z"
             style="fill:#404040;"/>
          </a>
         </g>
        </svg>
</svg>
