<?xml version="1.0" encoding="UTF-8" standalone="no"?>
<!DOCTYPE svg PUBLIC "-//W3C//DTD SVG 1.1//EN"
 "http://www.w3.org/Graphics/SVG/1.1/DTD/svg11.dtd">
<!-- Generated by graphviz version 2.38.0 (20140413.2041)
 -->
<!-- Title: scram::mef::CcfGroup::Validate Pages: 1 -->
<!--zoomable 204 -->
<svg id="main" version="1.1" xmlns="http://www.w3.org/2000/svg" xmlns:xlink="http://www.w3.org/1999/xlink" xml:space="preserve" onload="init(evt)">
<style type="text/css"><![CDATA[
.edge:hover path { stroke: red; }
.edge:hover polygon { stroke: red; fill: red; }
]]></style>
<script type="text/javascript"><![CDATA[
var edges = document.getElementsByTagName('g');
if (edges && edges.length) {
  for (var i=0;i<edges.length;i++) {
    if (edges[i].id.substr(0,4)=='edge') {
      edges[i].setAttribute('class','edge');
    }
  }
}
]]></script>
        <defs>
                <circle id="rim" cx="0" cy="0" r="7"/>
                <circle id="rim2" cx="0" cy="0" r="3.5"/>
                <g id="zoomPlus">
                        <use xlink:href="#rim" fill="#404040">
                                <set attributeName="fill" to="#808080" begin="zoomplus.mouseover" end="zoomplus.mouseout"/>
                        </use>
                        <path d="M-4,0h8M0,-4v8" fill="none" stroke="white" stroke-width="1.5" pointer-events="none"/>
                </g>
                <g id="zoomMin">
                        <use xlink:href="#rim" fill="#404040">
                                <set attributeName="fill" to="#808080" begin="zoomminus.mouseover" end="zoomminus.mouseout"/>
                        </use>
                        <path d="M-4,0h8" fill="none" stroke="white" stroke-width="1.5" pointer-events="none"/>
                </g>
                <g id="dirArrow">
                        <path fill="none" stroke="white" stroke-width="1.5" d="M0,-3.0v7 M-2.5,-0.5L0,-3.0L2.5,-0.5"/>
                </g>
               <g id="resetDef">
                       <use xlink:href="#rim2" fill="#404040">
                               <set attributeName="fill" to="#808080" begin="reset.mouseover" end="reset.mouseout"/>
                       </use>
               </g>
        </defs>

<script type="text/javascript">
var viewWidth = 661;
var viewHeight = 204;
var sectionId = 'dynsection-9';
</script>
<script xlink:href="svgpan.js"/>
<svg id="graph" class="graph">
<g id="viewport">
<title>scram::mef::CcfGroup::Validate</title>
<polygon fill="white" stroke="none" points="-4,4 -4,-200 657,-200 657,4 -4,4"/>
<!-- Node1 -->
<g id="node1" class="node"><title>Node1</title>
<polygon fill="#bfbfbf" stroke="black" points="0,-76.5 0,-106.5 122,-106.5 122,-76.5 0,-76.5"/>
<text text-anchor="start" x="8" y="-94.5" font-family="Helvetica,sans-Serif" font-size="10.00">scram::mef::CcfGroup</text>
<text text-anchor="middle" x="61" y="-83.5" font-family="Helvetica,sans-Serif" font-size="10.00">::Validate</text>
</g>
<!-- Node2 -->
<g id="node2" class="node"><title>Node2</title>
<g id="a_node2"><a xlink:href="expression_8cc.xhtml#a287db91ea8f1c33cca483d75195bc2bc" target="_top" xlink:title="Ensures that expression can be used for probability ([0, 1]). ">
<polygon fill="white" stroke="black" points="158,-104 158,-123 318,-123 318,-104 158,-104"/>
<text text-anchor="middle" x="238" y="-111" font-family="Helvetica,sans-Serif" font-size="10.00">scram::mef::EnsureProbability</text>
</a>
</g>
</g>
<!-- Node1&#45;&gt;Node2 -->
<g id="edge1" class="edge"><title>Node1&#45;&gt;Node2</title>
<path fill="none" stroke="midnightblue" d="M122.225,-99.0712C131.544,-100.243 141.322,-101.472 151.074,-102.698"/>
<polygon fill="midnightblue" stroke="midnightblue" points="150.848,-106.197 161.207,-103.972 151.721,-99.2516 150.848,-106.197"/>
</g>
<!-- Node9 -->
<g id="node9" class="node"><title>Node9</title>
<g id="a_node9"><a xlink:href="classscram_1_1mef_1_1Element.xhtml#adb401e2ca84aa98cb60797bec2500a81" target="_top" xlink:title="scram::mef::Element\l::name">
<polygon fill="white" stroke="black" points="179.5,-54.5 179.5,-84.5 296.5,-84.5 296.5,-54.5 179.5,-54.5"/>
<text text-anchor="start" x="187.5" y="-72.5" font-family="Helvetica,sans-Serif" font-size="10.00">scram::mef::Element</text>
<text text-anchor="middle" x="238" y="-61.5" font-family="Helvetica,sans-Serif" font-size="10.00">::name</text>
</a>
</g>
</g>
<!-- Node1&#45;&gt;Node9 -->
<g id="edge12" class="edge"><title>Node1&#45;&gt;Node9</title>
<path fill="none" stroke="midnightblue" d="M122.225,-83.9288C137.392,-82.0222 153.773,-79.9629 169.279,-78.0135"/>
<polygon fill="midnightblue" stroke="midnightblue" points="169.836,-81.4711 179.322,-76.751 168.963,-74.5258 169.836,-81.4711"/>
</g>
<!-- Node2&#45;&gt;Node2 -->
<g id="edge2" class="edge"><title>Node2&#45;&gt;Node2</title>
<path fill="none" stroke="midnightblue" d="M210.873,-123.257C197.677,-132.065 206.719,-141.5 238,-141.5 259.506,-141.5 270.5,-137.041 270.983,-131.391"/>
<polygon fill="midnightblue" stroke="midnightblue" points="273.81,-129.327 265.127,-123.257 268.129,-133.417 273.81,-129.327"/>
</g>
<!-- Node3 -->
<g id="node3" class="node"><title>Node3</title>
<g id="a_node3"><a xlink:href="classscram_1_1mef_1_1Expression.xhtml#a179b21e75df522673e6d51b784d10e86" target="_top" xlink:title="scram::mef::Expression\l::interval">
<polygon fill="white" stroke="black" points="356.5,-98.5 356.5,-128.5 485.5,-128.5 485.5,-98.5 356.5,-98.5"/>
<text text-anchor="start" x="364.5" y="-116.5" font-family="Helvetica,sans-Serif" font-size="10.00">scram::mef::Expression</text>
<text text-anchor="middle" x="421" y="-105.5" font-family="Helvetica,sans-Serif" font-size="10.00">::interval</text>
</a>
</g>
</g>
<!-- Node2&#45;&gt;Node3 -->
<g id="edge3" class="edge"><title>Node2&#45;&gt;Node3</title>
<path fill="none" stroke="midnightblue" d="M318.126,-113.5C327.387,-113.5 336.81,-113.5 345.998,-113.5"/>
<polygon fill="midnightblue" stroke="midnightblue" points="346.251,-117 356.251,-113.5 346.251,-110 346.251,-117"/>
</g>
<!-- Node4 -->
<g id="node4" class="node"><title>Node4</title>
<g id="a_node4"><a xlink:href="classscram_1_1mef_1_1Expression.xhtml#af4c1a5cb29e8f45623a99742b7ba8bc5" target="_top" xlink:title="scram::mef::Expression\l::value">
<polygon fill="white" stroke="black" points="524,-165.5 524,-195.5 653,-195.5 653,-165.5 524,-165.5"/>
<text text-anchor="start" x="532" y="-183.5" font-family="Helvetica,sans-Serif" font-size="10.00">scram::mef::Expression</text>
<text text-anchor="middle" x="588.5" y="-172.5" font-family="Helvetica,sans-Serif" font-size="10.00">::value</text>
</a>
</g>
</g>
<!-- Node2&#45;&gt;Node4 -->
<g id="edge11" class="edge"><title>Node2&#45;&gt;Node4</title>
<path fill="none" stroke="midnightblue" d="M283.458,-123.034C304.774,-127.539 330.685,-132.921 354,-137.5 407.509,-148.009 468.07,-159.14 514.106,-167.443"/>
<polygon fill="midnightblue" stroke="midnightblue" points="513.535,-170.896 523.997,-169.224 514.775,-164.007 513.535,-170.896"/>
</g>
<!-- Node8 -->
<g id="node8" class="node"><title>Node8</title>
<g id="a_node8"><a xlink:href="expression_8h.xhtml#a7b3a2de3be05128d51eaa76c01de99f6" target="_top" xlink:title="Checks if a given interval is within the probability domain. ">
<polygon fill="white" stroke="black" points="354,-42 354,-61 488,-61 488,-42 354,-42"/>
<text text-anchor="middle" x="421" y="-49" font-family="Helvetica,sans-Serif" font-size="10.00">scram::mef::IsProbability</text>
</a>
</g>
</g>
<!-- Node2&#45;&gt;Node8 -->
<g id="edge9" class="edge"><title>Node2&#45;&gt;Node8</title>
<path fill="none" stroke="midnightblue" d="M281.55,-103.911C293.446,-100.911 306.313,-97.3635 318,-93.5 342.689,-85.338 369.883,-74.0188 389.979,-65.1876"/>
<polygon fill="midnightblue" stroke="midnightblue" points="391.514,-68.3355 399.232,-61.0769 388.672,-61.9383 391.514,-68.3355"/>
</g>
<!-- Node3&#45;&gt;Node4 -->
<g id="edge4" class="edge"><title>Node3&#45;&gt;Node4</title>
<path fill="none" stroke="midnightblue" d="M458.294,-128.605C477.749,-136.661 502.15,-146.701 524,-155.5 529.014,-157.519 534.258,-159.613 539.491,-161.69"/>
<polygon fill="midnightblue" stroke="midnightblue" points="538.258,-164.967 548.845,-165.392 540.834,-158.458 538.258,-164.967"/>
</g>
<!-- Node5 -->
<g id="node5" class="node"><title>Node5</title>
<g id="a_node5"><a xlink:href="classscram_1_1mef_1_1Expression.xhtml#a058aef65da884a47ea3345bc31488b7a" target="_top" xlink:title="Determines if the value of the expression contains deviate expressions. ">
<polygon fill="white" stroke="black" points="524,-98.5 524,-128.5 653,-128.5 653,-98.5 524,-98.5"/>
<text text-anchor="start" x="532" y="-116.5" font-family="Helvetica,sans-Serif" font-size="10.00">scram::mef::Expression</text>
<text text-anchor="middle" x="588.5" y="-105.5" font-family="Helvetica,sans-Serif" font-size="10.00">::IsDeviate</text>
</a>
</g>
</g>
<!-- Node3&#45;&gt;Node5 -->
<g id="edge5" class="edge"><title>Node3&#45;&gt;Node5</title>
<path fill="none" stroke="midnightblue" d="M485.513,-113.5C494.751,-113.5 504.328,-113.5 513.747,-113.5"/>
<polygon fill="midnightblue" stroke="midnightblue" points="513.883,-117 523.883,-113.5 513.883,-110 513.883,-117"/>
</g>
<!-- Node6 -->
<g id="node6" class="node"><title>Node6</title>
<g id="a_node6"><a xlink:href="classscram_1_1mef_1_1Expression.xhtml#a5cf00d8b2ff843ad029a501a89ee572a" target="_top" xlink:title="scram::mef::Expression\l::Sample">
<polygon fill="white" stroke="black" points="524,-49.5 524,-79.5 653,-79.5 653,-49.5 524,-49.5"/>
<text text-anchor="start" x="532" y="-67.5" font-family="Helvetica,sans-Serif" font-size="10.00">scram::mef::Expression</text>
<text text-anchor="middle" x="588.5" y="-56.5" font-family="Helvetica,sans-Serif" font-size="10.00">::Sample</text>
</a>
</g>
</g>
<!-- Node3&#45;&gt;Node6 -->
<g id="edge7" class="edge"><title>Node3&#45;&gt;Node6</title>
<path fill="none" stroke="midnightblue" d="M473.006,-98.3986C490.075,-93.3449 509.268,-87.6624 526.991,-82.4152"/>
<polygon fill="midnightblue" stroke="midnightblue" points="528.068,-85.7466 536.663,-79.5516 526.08,-79.0346 528.068,-85.7466"/>
</g>
<!-- Node7 -->
<g id="node7" class="node"><title>Node7</title>
<g id="a_node7"><a xlink:href="classscram_1_1mef_1_1Expression.xhtml#ab6d31c4ddb5d4a827727829cbd4e4449" target="_top" xlink:title="This routine resets the sampling to get new values. ">
<polygon fill="white" stroke="black" points="524,-0.5 524,-30.5 653,-30.5 653,-0.5 524,-0.5"/>
<text text-anchor="start" x="532" y="-18.5" font-family="Helvetica,sans-Serif" font-size="10.00">scram::mef::Expression</text>
<text text-anchor="middle" x="588.5" y="-7.5" font-family="Helvetica,sans-Serif" font-size="10.00">::Reset</text>
</a>
</g>
</g>
<!-- Node3&#45;&gt;Node7 -->
<g id="edge8" class="edge"><title>Node3&#45;&gt;Node7</title>
<path fill="none" stroke="midnightblue" d="M471.613,-98.3529C477.411,-95.546 483.024,-92.2799 488,-88.5 509.519,-72.1538 502.475,-55.8384 524,-39.5 525.831,-38.1105 527.751,-36.7935 529.736,-35.5459"/>
<polygon fill="midnightblue" stroke="midnightblue" points="531.747,-38.4322 538.784,-30.5115 528.344,-32.3153 531.747,-38.4322"/>
</g>
<!-- Node5&#45;&gt;Node5 -->
<g id="edge6" class="edge"><title>Node5&#45;&gt;Node5</title>
<path fill="none" stroke="midnightblue" d="M559.571,-128.659C552.595,-138.057 562.238,-147 588.5,-147 604.503,-147 614.335,-143.679 617.996,-138.958"/>
<polygon fill="midnightblue" stroke="midnightblue" points="621.474,-138.451 617.429,-128.659 614.484,-138.836 621.474,-138.451"/>
</g>
<!-- Node8&#45;&gt;Node8 -->
<g id="edge10" class="edge"><title>Node8&#45;&gt;Node8</title>
<path fill="none" stroke="midnightblue" d="M395.415,-61.2571C382.968,-70.0653 391.496,-79.5 421,-79.5 440.823,-79.5 451.177,-75.241 452.063,-69.7746"/>
<polygon fill="midnightblue" stroke="midnightblue" points="454.938,-67.7749 446.585,-61.2571 449.051,-71.5611 454.938,-67.7749"/>
</g>
</g>
</svg>
        <g id="navigator" transform="translate(0 0)" fill="#404254">
                <rect fill="#f2f5e9" fill-opacity="0.5" stroke="#606060" stroke-width=".5" x="0" y="0" width="60" height="60"/>
                <use id="zoomplus" xlink:href="#zoomPlus" x="17" y="9" onmousedown="handleZoom(evt,'in')"/>
                <use id="zoomminus" xlink:href="#zoomMin" x="42" y="9" onmousedown="handleZoom(evt,'out')"/>
                <use id="reset" xlink:href="#resetDef" x="30" y="36" onmousedown="handleReset()"/>
                <g id="arrowUp" xlink:href="#dirArrow" transform="translate(30 24)" onmousedown="handlePan(0,-1)">
                  <use xlink:href="#rim" fill="#404040">
                        <set attributeName="fill" to="#808080" begin="arrowUp.mouseover" end="arrowUp.mouseout"/>
                  </use>
                  <path fill="none" stroke="white" stroke-width="1.5" d="M0,-3.0v7 M-2.5,-0.5L0,-3.0L2.5,-0.5"/>
                </g>
                <g id="arrowRight" xlink:href="#dirArrow" transform="rotate(90) translate(36 -43)" onmousedown="handlePan(1,0)">
                  <use xlink:href="#rim" fill="#404040">
                        <set attributeName="fill" to="#808080" begin="arrowRight.mouseover" end="arrowRight.mouseout"/>
                  </use>
                  <path fill="none" stroke="white" stroke-width="1.5" d="M0,-3.0v7 M-2.5,-0.5L0,-3.0L2.5,-0.5"/>
                </g>
                <g id="arrowDown" xlink:href="#dirArrow" transform="rotate(180) translate(-30 -48)" onmousedown="handlePan(0,1)">
                  <use xlink:href="#rim" fill="#404040">
                        <set attributeName="fill" to="#808080" begin="arrowDown.mouseover" end="arrowDown.mouseout"/>
                  </use>
                  <path fill="none" stroke="white" stroke-width="1.5" d="M0,-3.0v7 M-2.5,-0.5L0,-3.0L2.5,-0.5"/>
                </g>
                <g id="arrowLeft" xlink:href="#dirArrow" transform="rotate(270) translate(-36 17)" onmousedown="handlePan(-1,0)">
                  <use xlink:href="#rim" fill="#404040">
                        <set attributeName="fill" to="#808080" begin="arrowLeft.mouseover" end="arrowLeft.mouseout"/>
                  </use>
                  <path fill="none" stroke="white" stroke-width="1.5" d="M0,-3.0v7 M-2.5,-0.5L0,-3.0L2.5,-0.5"/>
                </g>
        </g>
        <svg viewBox="0 0 15 15" width="100%" height="30px" preserveAspectRatio="xMaxYMin meet">
         <g id="arrow_out" transform="scale(0.3 0.3)">
          <a xlink:href="classscram_1_1mef_1_1CcfGroup_a31cbe59ce89f295de7bb810d8b75990e_cgraph_org.svg" target="_base">
           <rect id="button" ry="5" rx="5" y="6" x="6" height="38" width="38"
                fill="#f2f5e9" fill-opacity="0.5" stroke="#606060" stroke-width="1.0"/>
           <path id="arrow"
             d="M 11.500037,31.436501 C 11.940474,20.09759 22.043105,11.32322 32.158766,21.979434 L 37.068811,17.246167 C 37.068811,17.246167 37.088388,32 37.088388,32 L 22.160133,31.978069 C 22.160133,31.978069 26.997745,27.140456 26.997745,27.140456 C 18.528582,18.264221 13.291696,25.230495 11.500037,31.436501 z"
             style="fill:#404040;"/>
          </a>
         </g>
        </svg>
</svg>
