<?xml version="1.0" encoding="UTF-8" standalone="no"?>
<!DOCTYPE svg PUBLIC "-//W3C//DTD SVG 1.1//EN"
 "http://www.w3.org/Graphics/SVG/1.1/DTD/svg11.dtd">
<!-- Generated by graphviz version 2.38.0 (20140413.2041)
 -->
<!-- Title: scram::mef::FaultTree::CollectTopEvents Pages: 1 -->
<svg width="476pt" height="263pt"
 viewBox="0.00 0.00 476.00 263.00" xmlns="http://www.w3.org/2000/svg" xmlns:xlink="http://www.w3.org/1999/xlink">
<g id="graph0" class="graph" transform="scale(1 1) rotate(0) translate(4 259)">
<title>scram::mef::FaultTree::CollectTopEvents</title>
<polygon fill="white" stroke="none" points="-4,4 -4,-259 472,-259 472,4 -4,4"/>
<!-- Node1 -->
<g id="node1" class="node"><title>Node1</title>
<polygon fill="#bfbfbf" stroke="black" points="0,-142.5 0,-172.5 119,-172.5 119,-142.5 0,-142.5"/>
<text text-anchor="start" x="8" y="-160.5" font-family="Helvetica,sans-Serif" font-size="10.00">scram::mef::FaultTree</text>
<text text-anchor="middle" x="59.5" y="-149.5" font-family="Helvetica,sans-Serif" font-size="10.00">::CollectTopEvents</text>
</g>
<!-- Node2 -->
<g id="node2" class="node"><title>Node2</title>
<g id="a_node2"><a xlink:href="classscram_1_1mef_1_1Formula.xhtml#ac850fff7d56305c9cf3a29c5381b502a" target="_top" xlink:title="scram::mef::Formula\l::args">
<polygon fill="white" stroke="black" points="168.5,-224.5 168.5,-254.5 284.5,-254.5 284.5,-224.5 168.5,-224.5"/>
<text text-anchor="start" x="176.5" y="-242.5" font-family="Helvetica,sans-Serif" font-size="10.00">scram::mef::Formula</text>
<text text-anchor="middle" x="226.5" y="-231.5" font-family="Helvetica,sans-Serif" font-size="10.00">::args</text>
</a>
</g>
</g>
<!-- Node1&#45;&gt;Node2 -->
<g id="edge1" class="edge"><title>Node1&#45;&gt;Node2</title>
<path fill="none" stroke="midnightblue" d="M82.701,-172.653C101.414,-184.988 129.193,-202.295 155,-214.5 159.578,-216.665 164.398,-218.751 169.279,-220.731"/>
<polygon fill="midnightblue" stroke="midnightblue" points="168.106,-224.031 178.694,-224.403 170.649,-217.509 168.106,-224.031"/>
</g>
<!-- Node3 -->
<g id="node3" class="node"><title>Node3</title>
<g id="a_node3"><a xlink:href="classscram_1_1mef_1_1Gate.xhtml#abde84a63a060e2424ab92431634f21d9" target="_top" xlink:title="scram::mef::Gate::formula">
<polygon fill="white" stroke="black" points="155,-186 155,-205 298,-205 298,-186 155,-186"/>
<text text-anchor="middle" x="226.5" y="-193" font-family="Helvetica,sans-Serif" font-size="10.00">scram::mef::Gate::formula</text>
</a>
</g>
</g>
<!-- Node1&#45;&gt;Node3 -->
<g id="edge2" class="edge"><title>Node1&#45;&gt;Node3</title>
<path fill="none" stroke="midnightblue" d="M119.137,-171.004C137.102,-175.142 156.717,-179.659 174.156,-183.675"/>
<polygon fill="midnightblue" stroke="midnightblue" points="173.613,-187.142 184.143,-185.975 175.184,-180.32 173.613,-187.142"/>
</g>
<!-- Node4 -->
<g id="node4" class="node"><title>Node4</title>
<g id="a_node4"><a xlink:href="classscram_1_1mef_1_1Component.xhtml#a35a4bac8e19804608ed9ce8ae6d37db6" target="_top" xlink:title="scram::mef::Component\l::gates">
<polygon fill="white" stroke="black" points="334,-147.5 334,-177.5 468,-177.5 468,-147.5 334,-147.5"/>
<text text-anchor="start" x="342" y="-165.5" font-family="Helvetica,sans-Serif" font-size="10.00">scram::mef::Component</text>
<text text-anchor="middle" x="401" y="-154.5" font-family="Helvetica,sans-Serif" font-size="10.00">::gates</text>
</a>
</g>
</g>
<!-- Node1&#45;&gt;Node4 -->
<g id="edge3" class="edge"><title>Node1&#45;&gt;Node4</title>
<path fill="none" stroke="midnightblue" d="M119.249,-158.365C175.878,-159.199 261.857,-160.465 323.742,-161.377"/>
<polygon fill="midnightblue" stroke="midnightblue" points="323.794,-164.878 333.845,-161.526 323.897,-157.879 323.794,-164.878"/>
</g>
<!-- Node5 -->
<g id="node5" class="node"><title>Node5</title>
<g id="a_node5"><a xlink:href="classscram_1_1mef_1_1Component.xhtml#a63441da08667fe6826f3ae0c0a5a94fe" target="_top" xlink:title="Recursively traverses components to gather gates relevant to the whole component. ...">
<polygon fill="white" stroke="black" points="159.5,-98.5 159.5,-128.5 293.5,-128.5 293.5,-98.5 159.5,-98.5"/>
<text text-anchor="start" x="167.5" y="-116.5" font-family="Helvetica,sans-Serif" font-size="10.00">scram::mef::Component</text>
<text text-anchor="middle" x="226.5" y="-105.5" font-family="Helvetica,sans-Serif" font-size="10.00">::GatherGates</text>
</a>
</g>
</g>
<!-- Node1&#45;&gt;Node5 -->
<g id="edge4" class="edge"><title>Node1&#45;&gt;Node5</title>
<path fill="none" stroke="midnightblue" d="M116.822,-142.481C130.42,-138.855 145.075,-134.947 159.087,-131.21"/>
<polygon fill="midnightblue" stroke="midnightblue" points="160.391,-134.485 169.152,-128.526 158.588,-127.721 160.391,-134.485"/>
</g>
<!-- Node9 -->
<g id="node9" class="node"><title>Node9</title>
<g id="a_node9"><a xlink:href="classscram_1_1mef_1_1NodeMark.xhtml#ae433446a44a3ae40ec411b08916ec4ca" target="_top" xlink:title="scram::mef::NodeMark\l::mark">
<polygon fill="white" stroke="black" points="163.5,-49.5 163.5,-79.5 289.5,-79.5 289.5,-49.5 163.5,-49.5"/>
<text text-anchor="start" x="171.5" y="-67.5" font-family="Helvetica,sans-Serif" font-size="10.00">scram::mef::NodeMark</text>
<text text-anchor="middle" x="226.5" y="-56.5" font-family="Helvetica,sans-Serif" font-size="10.00">::mark</text>
</a>
</g>
</g>
<!-- Node1&#45;&gt;Node9 -->
<g id="edge9" class="edge"><title>Node1&#45;&gt;Node9</title>
<path fill="none" stroke="midnightblue" d="M78.3131,-142.312C96.5975,-127.311 126.349,-104.499 155,-89.5 159.167,-87.3186 163.566,-85.254 168.048,-83.3169"/>
<polygon fill="midnightblue" stroke="midnightblue" points="169.388,-86.5504 177.317,-79.5231 166.737,-80.072 169.388,-86.5504"/>
</g>
<!-- Node5&#45;&gt;Node4 -->
<g id="edge6" class="edge"><title>Node5&#45;&gt;Node4</title>
<path fill="none" stroke="midnightblue" d="M280.663,-128.601C298.537,-133.679 318.644,-139.39 337.188,-144.658"/>
<polygon fill="midnightblue" stroke="midnightblue" points="336.436,-148.083 347.012,-147.448 338.349,-141.349 336.436,-148.083"/>
</g>
<!-- Node6 -->
<g id="node6" class="node"><title>Node6</title>
<g id="a_node6"><a xlink:href="classscram_1_1mef_1_1Component.xhtml#a04e1c221d74d7a4415520a27b55eea0d" target="_top" xlink:title="scram::mef::Component\l::basic_events">
<polygon fill="white" stroke="black" points="334,-98.5 334,-128.5 468,-128.5 468,-98.5 334,-98.5"/>
<text text-anchor="start" x="342" y="-116.5" font-family="Helvetica,sans-Serif" font-size="10.00">scram::mef::Component</text>
<text text-anchor="middle" x="401" y="-105.5" font-family="Helvetica,sans-Serif" font-size="10.00">::basic_events</text>
</a>
</g>
</g>
<!-- Node5&#45;&gt;Node6 -->
<g id="edge5" class="edge"><title>Node5&#45;&gt;Node6</title>
<path fill="none" stroke="midnightblue" d="M293.7,-113.5C303.605,-113.5 313.883,-113.5 323.972,-113.5"/>
<polygon fill="midnightblue" stroke="midnightblue" points="323.978,-117 333.977,-113.5 323.977,-110 323.978,-117"/>
</g>
<!-- Node7 -->
<g id="node7" class="node"><title>Node7</title>
<g id="a_node7"><a xlink:href="classscram_1_1mef_1_1Component.xhtml#aef26693155672c7bbca3eba983367d58" target="_top" xlink:title="scram::mef::Component\l::house_events">
<polygon fill="white" stroke="black" points="334,-49.5 334,-79.5 468,-79.5 468,-49.5 334,-49.5"/>
<text text-anchor="start" x="342" y="-67.5" font-family="Helvetica,sans-Serif" font-size="10.00">scram::mef::Component</text>
<text text-anchor="middle" x="401" y="-56.5" font-family="Helvetica,sans-Serif" font-size="10.00">::house_events</text>
</a>
</g>
</g>
<!-- Node5&#45;&gt;Node7 -->
<g id="edge7" class="edge"><title>Node5&#45;&gt;Node7</title>
<path fill="none" stroke="midnightblue" d="M280.663,-98.3986C298.537,-93.3215 318.644,-87.6098 337.188,-82.3423"/>
<polygon fill="midnightblue" stroke="midnightblue" points="338.349,-85.6509 347.012,-79.5516 336.436,-78.9173 338.349,-85.6509"/>
</g>
<!-- Node8 -->
<g id="node8" class="node"><title>Node8</title>
<g id="a_node8"><a xlink:href="classscram_1_1mef_1_1Element.xhtml#adb401e2ca84aa98cb60797bec2500a81" target="_top" xlink:title="scram::mef::Element\l::name">
<polygon fill="white" stroke="black" points="342.5,-0.5 342.5,-30.5 459.5,-30.5 459.5,-0.5 342.5,-0.5"/>
<text text-anchor="start" x="350.5" y="-18.5" font-family="Helvetica,sans-Serif" font-size="10.00">scram::mef::Element</text>
<text text-anchor="middle" x="401" y="-7.5" font-family="Helvetica,sans-Serif" font-size="10.00">::name</text>
</a>
</g>
</g>
<!-- Node5&#45;&gt;Node8 -->
<g id="edge8" class="edge"><title>Node5&#45;&gt;Node8</title>
<path fill="none" stroke="midnightblue" d="M283.062,-98.349C288.345,-95.8166 293.428,-92.8857 298,-89.5 320.005,-73.2031 312.164,-56.0232 334,-39.5 335.817,-38.1252 337.72,-36.8231 339.688,-35.5907"/>
<polygon fill="midnightblue" stroke="midnightblue" points="341.605,-38.5298 348.656,-30.6219 338.212,-32.4068 341.605,-38.5298"/>
</g>
</g>
</svg>
