<?xml version="1.0" encoding="UTF-8" standalone="no"?>
<!DOCTYPE svg PUBLIC "-//W3C//DTD SVG 1.1//EN"
 "http://www.w3.org/Graphics/SVG/1.1/DTD/svg11.dtd">
<!-- Generated by graphviz version 2.38.0 (20140413.2041)
 -->
<!-- Title: scram::mef::Exponential::Validate Pages: 1 -->
<svg width="698pt" height="204pt"
 viewBox="0.00 0.00 698.00 204.00" xmlns="http://www.w3.org/2000/svg" xmlns:xlink="http://www.w3.org/1999/xlink">
<g id="graph0" class="graph" transform="scale(1 1) rotate(0) translate(4 200)">
<title>scram::mef::Exponential::Validate</title>
<polygon fill="white" stroke="none" points="-4,4 -4,-200 694,-200 694,4 -4,4"/>
<!-- Node1 -->
<g id="node1" class="node"><title>Node1</title>
<polygon fill="#bfbfbf" stroke="black" points="0,-98.5 0,-128.5 133,-128.5 133,-98.5 0,-98.5"/>
<text text-anchor="start" x="8" y="-116.5" font-family="Helvetica,sans-Serif" font-size="10.00">scram::mef::Exponential</text>
<text text-anchor="middle" x="66.5" y="-105.5" font-family="Helvetica,sans-Serif" font-size="10.00">::Validate</text>
</g>
<!-- Node2 -->
<g id="node2" class="node"><title>Node2</title>
<g id="a_node2"><a xlink:href="expression_8cc.xhtml#a262d38f7d6438e25ea34765b8d6a03eb" target="_top" xlink:title="Ensures that expression yields non&#45;negative (&gt;= 0) values. ">
<polygon fill="white" stroke="black" points="169,-104 169,-123 342,-123 342,-104 169,-104"/>
<text text-anchor="middle" x="255.5" y="-111" font-family="Helvetica,sans-Serif" font-size="10.00">scram::mef::EnsureNonNegative</text>
</a>
</g>
</g>
<!-- Node1&#45;&gt;Node2 -->
<g id="edge1" class="edge"><title>Node1&#45;&gt;Node2</title>
<path fill="none" stroke="midnightblue" d="M133.166,-113.5C141.487,-113.5 150.131,-113.5 158.8,-113.5"/>
<polygon fill="midnightblue" stroke="midnightblue" points="158.971,-117 168.971,-113.5 158.971,-110 158.971,-117"/>
</g>
<!-- Node2&#45;&gt;Node2 -->
<g id="edge2" class="edge"><title>Node2&#45;&gt;Node2</title>
<path fill="none" stroke="midnightblue" d="M226.524,-123.257C212.427,-132.065 222.086,-141.5 255.5,-141.5 278.472,-141.5 290.216,-137.041 290.732,-131.391"/>
<polygon fill="midnightblue" stroke="midnightblue" points="293.347,-129.05 284.476,-123.257 287.798,-133.318 293.347,-129.05"/>
</g>
<!-- Node3 -->
<g id="node3" class="node"><title>Node3</title>
<g id="a_node3"><a xlink:href="classscram_1_1mef_1_1Expression.xhtml#a179b21e75df522673e6d51b784d10e86" target="_top" xlink:title="scram::mef::Expression\l::interval">
<polygon fill="white" stroke="black" points="387,-98.5 387,-128.5 516,-128.5 516,-98.5 387,-98.5"/>
<text text-anchor="start" x="395" y="-116.5" font-family="Helvetica,sans-Serif" font-size="10.00">scram::mef::Expression</text>
<text text-anchor="middle" x="451.5" y="-105.5" font-family="Helvetica,sans-Serif" font-size="10.00">::interval</text>
</a>
</g>
</g>
<!-- Node2&#45;&gt;Node3 -->
<g id="edge3" class="edge"><title>Node2&#45;&gt;Node3</title>
<path fill="none" stroke="midnightblue" d="M342.156,-113.5C353.658,-113.5 365.375,-113.5 376.649,-113.5"/>
<polygon fill="midnightblue" stroke="midnightblue" points="376.86,-117 386.86,-113.5 376.86,-110 376.86,-117"/>
</g>
<!-- Node4 -->
<g id="node4" class="node"><title>Node4</title>
<g id="a_node4"><a xlink:href="classscram_1_1mef_1_1Expression.xhtml#af4c1a5cb29e8f45623a99742b7ba8bc5" target="_top" xlink:title="scram::mef::Expression\l::value">
<polygon fill="white" stroke="black" points="561,-165.5 561,-195.5 690,-195.5 690,-165.5 561,-165.5"/>
<text text-anchor="start" x="569" y="-183.5" font-family="Helvetica,sans-Serif" font-size="10.00">scram::mef::Expression</text>
<text text-anchor="middle" x="625.5" y="-172.5" font-family="Helvetica,sans-Serif" font-size="10.00">::value</text>
</a>
</g>
</g>
<!-- Node2&#45;&gt;Node4 -->
<g id="edge11" class="edge"><title>Node2&#45;&gt;Node4</title>
<path fill="none" stroke="midnightblue" d="M303.477,-123.033C325.998,-127.539 353.373,-132.92 378,-137.5 436.037,-148.293 501.915,-159.743 550.957,-168.113"/>
<polygon fill="midnightblue" stroke="midnightblue" points="550.399,-171.568 560.845,-169.797 551.575,-164.667 550.399,-171.568"/>
</g>
<!-- Node8 -->
<g id="node8" class="node"><title>Node8</title>
<g id="a_node8"><a xlink:href="expression_8h.xhtml#a5682dd6fbc6d7dd33ebf8b5665006b99" target="_top" xlink:title="Checks if all values in a given interval are non&#45;negative. ">
<polygon fill="white" stroke="black" points="378,-42 378,-61 525,-61 525,-42 378,-42"/>
<text text-anchor="middle" x="451.5" y="-49" font-family="Helvetica,sans-Serif" font-size="10.00">scram::mef::IsNonNegative</text>
</a>
</g>
</g>
<!-- Node2&#45;&gt;Node8 -->
<g id="edge9" class="edge"><title>Node2&#45;&gt;Node8</title>
<path fill="none" stroke="midnightblue" d="M286.387,-103.948C319.711,-93.2987 373.761,-76.0249 410.658,-64.233"/>
<polygon fill="midnightblue" stroke="midnightblue" points="412.119,-67.4406 420.579,-61.0625 409.988,-60.7729 412.119,-67.4406"/>
</g>
<!-- Node3&#45;&gt;Node4 -->
<g id="edge4" class="edge"><title>Node3&#45;&gt;Node4</title>
<path fill="none" stroke="midnightblue" d="M491.1,-128.536C516.241,-138.329 549.24,-151.184 576.128,-161.657"/>
<polygon fill="midnightblue" stroke="midnightblue" points="575.143,-165.03 585.731,-165.398 577.684,-158.507 575.143,-165.03"/>
</g>
<!-- Node5 -->
<g id="node5" class="node"><title>Node5</title>
<g id="a_node5"><a xlink:href="classscram_1_1mef_1_1Expression.xhtml#a058aef65da884a47ea3345bc31488b7a" target="_top" xlink:title="Determines if the value of the expression contains deviate expressions. ">
<polygon fill="white" stroke="black" points="561,-98.5 561,-128.5 690,-128.5 690,-98.5 561,-98.5"/>
<text text-anchor="start" x="569" y="-116.5" font-family="Helvetica,sans-Serif" font-size="10.00">scram::mef::Expression</text>
<text text-anchor="middle" x="625.5" y="-105.5" font-family="Helvetica,sans-Serif" font-size="10.00">::IsDeviate</text>
</a>
</g>
</g>
<!-- Node3&#45;&gt;Node5 -->
<g id="edge5" class="edge"><title>Node3&#45;&gt;Node5</title>
<path fill="none" stroke="midnightblue" d="M516.058,-113.5C527.382,-113.5 539.265,-113.5 550.842,-113.5"/>
<polygon fill="midnightblue" stroke="midnightblue" points="550.917,-117 560.916,-113.5 550.916,-110 550.917,-117"/>
</g>
<!-- Node6 -->
<g id="node6" class="node"><title>Node6</title>
<g id="a_node6"><a xlink:href="classscram_1_1mef_1_1Expression.xhtml#a5cf00d8b2ff843ad029a501a89ee572a" target="_top" xlink:title="scram::mef::Expression\l::Sample">
<polygon fill="white" stroke="black" points="561,-49.5 561,-79.5 690,-79.5 690,-49.5 561,-49.5"/>
<text text-anchor="start" x="569" y="-67.5" font-family="Helvetica,sans-Serif" font-size="10.00">scram::mef::Expression</text>
<text text-anchor="middle" x="625.5" y="-56.5" font-family="Helvetica,sans-Serif" font-size="10.00">::Sample</text>
</a>
</g>
</g>
<!-- Node3&#45;&gt;Node6 -->
<g id="edge7" class="edge"><title>Node3&#45;&gt;Node6</title>
<path fill="none" stroke="midnightblue" d="M505.509,-98.3986C523.331,-93.3215 543.38,-87.6098 561.87,-82.3423"/>
<polygon fill="midnightblue" stroke="midnightblue" points="563.008,-85.6575 571.666,-79.5516 561.09,-78.9254 563.008,-85.6575"/>
</g>
<!-- Node7 -->
<g id="node7" class="node"><title>Node7</title>
<g id="a_node7"><a xlink:href="classscram_1_1mef_1_1Expression.xhtml#ab6d31c4ddb5d4a827727829cbd4e4449" target="_top" xlink:title="This routine resets the sampling to get new values. ">
<polygon fill="white" stroke="black" points="561,-0.5 561,-30.5 690,-30.5 690,-0.5 561,-0.5"/>
<text text-anchor="start" x="569" y="-18.5" font-family="Helvetica,sans-Serif" font-size="10.00">scram::mef::Expression</text>
<text text-anchor="middle" x="625.5" y="-7.5" font-family="Helvetica,sans-Serif" font-size="10.00">::Reset</text>
</a>
</g>
</g>
<!-- Node3&#45;&gt;Node7 -->
<g id="edge8" class="edge"><title>Node3&#45;&gt;Node7</title>
<path fill="none" stroke="midnightblue" d="M507.743,-98.4837C513.848,-95.6709 519.746,-92.3678 525,-88.5 546.762,-72.4787 539.475,-55.8384 561,-39.5 562.831,-38.1105 564.751,-36.7935 566.736,-35.5459"/>
<polygon fill="midnightblue" stroke="midnightblue" points="568.747,-38.4322 575.784,-30.5115 565.344,-32.3153 568.747,-38.4322"/>
</g>
<!-- Node5&#45;&gt;Node5 -->
<g id="edge6" class="edge"><title>Node5&#45;&gt;Node5</title>
<path fill="none" stroke="midnightblue" d="M595.177,-128.659C587.865,-138.057 597.973,-147 625.5,-147 642.274,-147 652.58,-143.679 656.418,-138.958"/>
<polygon fill="midnightblue" stroke="midnightblue" points="659.894,-138.441 655.823,-128.659 652.905,-138.844 659.894,-138.441"/>
</g>
<!-- Node8&#45;&gt;Node8 -->
<g id="edge10" class="edge"><title>Node8&#45;&gt;Node8</title>
<path fill="none" stroke="midnightblue" d="M424.682,-61.2571C411.635,-70.0653 420.574,-79.5 451.5,-79.5 472.278,-79.5 483.132,-75.241 484.06,-69.7746"/>
<polygon fill="midnightblue" stroke="midnightblue" points="486.81,-67.5928 478.318,-61.2571 481.006,-71.5054 486.81,-67.5928"/>
</g>
</g>
</svg>
