<?xml version="1.0" encoding="UTF-8" standalone="no"?>
<!DOCTYPE svg PUBLIC "-//W3C//DTD SVG 1.1//EN"
 "http://www.w3.org/Graphics/SVG/1.1/DTD/svg11.dtd">
<!-- Generated by graphviz version 2.38.0 (20140413.2041)
 -->
<!-- Title: scram::mef::Rule::instructions Pages: 1 -->
<svg width="360pt" height="137pt"
 viewBox="0.00 0.00 360.00 137.00" xmlns="http://www.w3.org/2000/svg" xmlns:xlink="http://www.w3.org/1999/xlink">
<g id="graph0" class="graph" transform="scale(1 1) rotate(0) translate(4 133)">
<title>scram::mef::Rule::instructions</title>
<polygon fill="white" stroke="none" points="-4,4 -4,-133 356,-133 356,4 -4,4"/>
<!-- Node1 -->
<g id="node1" class="node"><title>Node1</title>
<polygon fill="#bfbfbf" stroke="black" points="0,-55 0,-74 158,-74 158,-55 0,-55"/>
<text text-anchor="middle" x="79" y="-62" font-family="Helvetica,sans-Serif" font-size="10.00">scram::mef::Rule::instructions</text>
</g>
<!-- Node2 -->
<g id="node2" class="node"><title>Node2</title>
<g id="a_node2"><a xlink:href="cycle_8cc.xhtml#a8d1dbf23cd6f7bf9ca4457c426a1cfe1" target="_top" xlink:title="Cycle detection specialization for visitor&#45;based traversal of instructions. ">
<polygon fill="white" stroke="black" points="218.5,-98.5 218.5,-128.5 327.5,-128.5 327.5,-98.5 218.5,-98.5"/>
<text text-anchor="start" x="226.5" y="-116.5" font-family="Helvetica,sans-Serif" font-size="10.00">scram::mef::cycle::</text>
<text text-anchor="middle" x="273" y="-105.5" font-family="Helvetica,sans-Serif" font-size="10.00">ContinueConnector</text>
</a>
</g>
</g>
<!-- Node1&#45;&gt;Node2 -->
<g id="edge1" class="edge"><title>Node1&#45;&gt;Node2</title>
<path fill="none" stroke="midnightblue" d="M127.273,-76.5645C154.83,-83.5973 189.676,-92.4904 218.271,-99.7879"/>
<polygon fill="midnightblue" stroke="midnightblue" points="128.03,-73.1456 117.475,-74.064 126.299,-79.9282 128.03,-73.1456"/>
</g>
<!-- Node3 -->
<g id="node3" class="node"><title>Node3</title>
<g id="a_node3"><a xlink:href="classscram_1_1mef_1_1Initializer.xhtml#a1e908da1a0280edd2218d692756994ab" target="_top" xlink:title="Specializations for elements defined after registration. ">
<polygon fill="white" stroke="black" points="213.5,-49.5 213.5,-79.5 332.5,-79.5 332.5,-49.5 213.5,-49.5"/>
<text text-anchor="start" x="221.5" y="-67.5" font-family="Helvetica,sans-Serif" font-size="10.00">scram::mef::Initializer</text>
<text text-anchor="middle" x="273" y="-56.5" font-family="Helvetica,sans-Serif" font-size="10.00">::Define</text>
</a>
</g>
</g>
<!-- Node1&#45;&gt;Node3 -->
<g id="edge2" class="edge"><title>Node1&#45;&gt;Node3</title>
<path fill="none" stroke="midnightblue" d="M168.128,-64.5C183.482,-64.5 199.106,-64.5 213.416,-64.5"/>
<polygon fill="midnightblue" stroke="midnightblue" points="168.094,-61.0001 158.094,-64.5 168.094,-68.0001 168.094,-61.0001"/>
</g>
<!-- Node4 -->
<g id="node4" class="node"><title>Node4</title>
<g id="a_node4"><a xlink:href="classscram_1_1mef_1_1InstructionVisitor.xhtml#a17b5f067a805f191ed84427c7e4a4537" target="_top" xlink:title="A set of required visitation functions for concrete visitors to implement. ">
<polygon fill="white" stroke="black" points="194,-0.5 194,-30.5 352,-30.5 352,-0.5 194,-0.5"/>
<text text-anchor="start" x="202" y="-18.5" font-family="Helvetica,sans-Serif" font-size="10.00">scram::mef::InstructionVisitor</text>
<text text-anchor="middle" x="273" y="-7.5" font-family="Helvetica,sans-Serif" font-size="10.00">::Visit</text>
</a>
</g>
</g>
<!-- Node1&#45;&gt;Node4 -->
<g id="edge3" class="edge"><title>Node1&#45;&gt;Node4</title>
<path fill="none" stroke="midnightblue" d="M127.419,-52.3982C153.305,-45.792 185.589,-37.5529 213.08,-30.537"/>
<polygon fill="midnightblue" stroke="midnightblue" points="126.299,-49.0718 117.475,-54.936 128.03,-55.8544 126.299,-49.0718"/>
</g>
</g>
</svg>
