<?xml version="1.0" encoding="UTF-8" standalone="no"?>
<!DOCTYPE svg PUBLIC "-//W3C//DTD SVG 1.1//EN"
 "http://www.w3.org/Graphics/SVG/1.1/DTD/svg11.dtd">
<!-- Generated by graphviz version 2.38.0 (20140413.2041)
 -->
<!-- Title: scram::xml::StreamElement::AddText Pages: 1 -->
<svg width="370pt" height="243pt"
 viewBox="0.00 0.00 370.00 242.50" xmlns="http://www.w3.org/2000/svg" xmlns:xlink="http://www.w3.org/1999/xlink">
<g id="graph0" class="graph" transform="scale(1 1) rotate(0) translate(4 238.5)">
<title>scram::xml::StreamElement::AddText</title>
<polygon fill="white" stroke="none" points="-4,4 -4,-238.5 366,-238.5 366,4 -4,4"/>
<!-- Node1 -->
<g id="node1" class="node"><title>Node1</title>
<polygon fill="#bfbfbf" stroke="black" points="0,-106 0,-136 152,-136 152,-106 0,-106"/>
<text text-anchor="start" x="8" y="-124" font-family="Helvetica,sans-Serif" font-size="10.00">scram::xml::StreamElement</text>
<text text-anchor="middle" x="76" y="-113" font-family="Helvetica,sans-Serif" font-size="10.00">::AddText</text>
</g>
<!-- Node2 -->
<g id="node2" class="node"><title>Node2</title>
<g id="a_node2"><a xlink:href="reporter_8cc.xhtml#a110c567fb36e60228edd2738df46f18c" target="_top" xlink:title="Describes the fault tree analysis and techniques. ">
<polygon fill="white" stroke="black" points="188,-204 188,-234 362,-234 362,-204 188,-204"/>
<text text-anchor="start" x="196" y="-222" font-family="Helvetica,sans-Serif" font-size="10.00">scram::ReportCalculatedQuantity</text>
<text text-anchor="middle" x="275" y="-211" font-family="Helvetica,sans-Serif" font-size="10.00">&lt; core::FaultTreeAnalysis &gt;</text>
</a>
</g>
</g>
<!-- Node1&#45;&gt;Node2 -->
<g id="edge1" class="edge"><title>Node1&#45;&gt;Node2</title>
<path fill="none" stroke="midnightblue" d="M103.603,-142.254C125.245,-158.649 157.15,-180.849 188,-195 195.327,-198.361 203.225,-201.346 211.161,-203.971"/>
<polygon fill="midnightblue" stroke="midnightblue" points="105.615,-139.385 95.5538,-136.064 101.347,-144.934 105.615,-139.385"/>
</g>
<!-- Node3 -->
<g id="node3" class="node"><title>Node3</title>
<g id="a_node3"><a xlink:href="reporter_8cc.xhtml#a38a83e177703049445b1234cb3b4a314" target="_top" xlink:title="Describes the probability analysis and techniques. ">
<polygon fill="white" stroke="black" points="188,-155 188,-185 362,-185 362,-155 188,-155"/>
<text text-anchor="start" x="196" y="-173" font-family="Helvetica,sans-Serif" font-size="10.00">scram::ReportCalculatedQuantity</text>
<text text-anchor="middle" x="275" y="-162" font-family="Helvetica,sans-Serif" font-size="10.00">&lt; core::ProbabilityAnalysis &gt;</text>
</a>
</g>
</g>
<!-- Node1&#45;&gt;Node3 -->
<g id="edge2" class="edge"><title>Node1&#45;&gt;Node3</title>
<path fill="none" stroke="midnightblue" d="M147.264,-138.477C168.977,-143.877 192.689,-149.776 213.669,-154.994"/>
<polygon fill="midnightblue" stroke="midnightblue" points="147.994,-135.052 137.445,-136.035 146.305,-141.845 147.994,-135.052"/>
</g>
<!-- Node4 -->
<g id="node4" class="node"><title>Node4</title>
<g id="a_node4"><a xlink:href="reporter_8cc.xhtml#a73f9569f4c2e2b6a3eac8d2c01b81943" target="_top" xlink:title="Describes all performed analyses deduced from settings. ">
<polygon fill="white" stroke="black" points="188,-106 188,-136 362,-136 362,-106 188,-106"/>
<text text-anchor="start" x="196" y="-124" font-family="Helvetica,sans-Serif" font-size="10.00">scram::ReportCalculatedQuantity</text>
<text text-anchor="middle" x="275" y="-113" font-family="Helvetica,sans-Serif" font-size="10.00">&lt; core::RiskAnalysis &gt;</text>
</a>
</g>
</g>
<!-- Node1&#45;&gt;Node4 -->
<g id="edge3" class="edge"><title>Node1&#45;&gt;Node4</title>
<path fill="none" stroke="midnightblue" d="M162.044,-121C170.634,-121 179.364,-121 187.965,-121"/>
<polygon fill="midnightblue" stroke="midnightblue" points="162.039,-117.5 152.039,-121 162.039,-124.5 162.039,-117.5"/>
</g>
<!-- Node5 -->
<g id="node5" class="node"><title>Node5</title>
<g id="a_node5"><a xlink:href="reporter_8cc.xhtml#a7d0d1b563f07dc4800ac38d384716e3a" target="_top" xlink:title="Describes the uncertainty analysis and techniques. ">
<polygon fill="white" stroke="black" points="188,-57 188,-87 362,-87 362,-57 188,-57"/>
<text text-anchor="start" x="196" y="-75" font-family="Helvetica,sans-Serif" font-size="10.00">scram::ReportCalculatedQuantity</text>
<text text-anchor="middle" x="275" y="-64" font-family="Helvetica,sans-Serif" font-size="10.00">&lt; core::UncertaintyAnalysis &gt;</text>
</a>
</g>
</g>
<!-- Node1&#45;&gt;Node5 -->
<g id="edge4" class="edge"><title>Node1&#45;&gt;Node5</title>
<path fill="none" stroke="midnightblue" d="M147.264,-103.523C168.977,-98.1225 192.689,-92.2245 213.669,-87.0062"/>
<polygon fill="midnightblue" stroke="midnightblue" points="146.305,-100.155 137.445,-105.965 147.994,-106.948 146.305,-100.155"/>
</g>
<!-- Node6 -->
<g id="node6" class="node"><title>Node6</title>
<g id="a_node6"><a xlink:href="serialization_8cc.xhtml#a83f7058a5caad9ec3ffb5fd6c7d7b8f6" target="_top" xlink:title="Convenience function for serialization into a file. ">
<polygon fill="white" stroke="black" points="216,-0.5 216,-19.5 334,-19.5 334,-0.5 216,-0.5"/>
<text text-anchor="middle" x="275" y="-7.5" font-family="Helvetica,sans-Serif" font-size="10.00">scram::mef::Serialize</text>
</a>
</g>
</g>
<!-- Node1&#45;&gt;Node6 -->
<g id="edge5" class="edge"><title>Node1&#45;&gt;Node6</title>
<path fill="none" stroke="midnightblue" d="M105.853,-100.116C127.79,-84.7142 159.034,-63.7827 188,-48 208.067,-37.066 231.906,-26.7263 249.39,-19.601"/>
<polygon fill="midnightblue" stroke="midnightblue" points="103.776,-97.2979 97.6356,-105.932 107.82,-103.011 103.776,-97.2979"/>
</g>
<!-- Node6&#45;&gt;Node6 -->
<g id="edge6" class="edge"><title>Node6&#45;&gt;Node6</title>
<path fill="none" stroke="midnightblue" d="M237.875,-27.5043C237.881,-33.3356 250.256,-38 275,-38 310.191,-38 320.364,-28.5653 305.518,-19.7571"/>
<polygon fill="midnightblue" stroke="midnightblue" points="240.656,-29.6369 244.482,-19.7571 235.33,-25.0944 240.656,-29.6369"/>
</g>
</g>
</svg>
