<?xml version="1.0" encoding="UTF-8" standalone="no"?>
<!DOCTYPE svg PUBLIC "-//W3C//DTD SVG 1.1//EN"
 "http://www.w3.org/Graphics/SVG/1.1/DTD/svg11.dtd">
<!-- Generated by graphviz version 2.38.0 (20140413.2041)
 -->
<!-- Title: scram::mef::Link Pages: 1 -->
<svg width="270pt" height="500pt"
 viewBox="0.00 0.00 270.00 500.00" xmlns="http://www.w3.org/2000/svg" xmlns:xlink="http://www.w3.org/1999/xlink">
<g id="graph0" class="graph" transform="scale(1 1) rotate(0) translate(4 496)">
<title>scram::mef::Link</title>
<polygon fill="white" stroke="none" points="-4,4 -4,-496 266,-496 266,4 -4,4"/>
<!-- Node1 -->
<g id="node1" class="node"><title>Node1</title>
<polygon fill="#bfbfbf" stroke="black" points="116,-0.5 116,-68.5 212,-68.5 212,-0.5 116,-0.5"/>
<text text-anchor="middle" x="164" y="-56.5" font-family="Helvetica,sans-Serif" font-size="10.00">scram::mef::Link</text>
<polyline fill="none" stroke="black" points="116,-49.5 212,-49.5 "/>
<text text-anchor="middle" x="164" y="-37.5" font-family="Helvetica,sans-Serif" font-size="10.00"> </text>
<polyline fill="none" stroke="black" points="116,-30.5 212,-30.5 "/>
<text text-anchor="start" x="124" y="-18.5" font-family="Helvetica,sans-Serif" font-size="10.00">+ Link()</text>
<text text-anchor="start" x="124" y="-7.5" font-family="Helvetica,sans-Serif" font-size="10.00">+ event_tree()</text>
</g>
<!-- Node2 -->
<g id="node2" class="node"><title>Node2</title>
<g id="a_node2"><a xlink:href="classscram_1_1mef_1_1Visitable.xhtml" target="_top" xlink:title="{scram::mef::Visitable\l\&lt; Link \&gt;\n||+ Accept()\l}">
<polygon fill="white" stroke="black" points="0,-112 0,-180 118,-180 118,-112 0,-112"/>
<text text-anchor="start" x="8" y="-168" font-family="Helvetica,sans-Serif" font-size="10.00">scram::mef::Visitable</text>
<text text-anchor="middle" x="59" y="-157" font-family="Helvetica,sans-Serif" font-size="10.00">&lt; Link &gt;</text>
<polyline fill="none" stroke="black" points="0,-150 118,-150 "/>
<text text-anchor="middle" x="59" y="-138" font-family="Helvetica,sans-Serif" font-size="10.00"> </text>
<polyline fill="none" stroke="black" points="0,-131 118,-131 "/>
<text text-anchor="start" x="8" y="-119" font-family="Helvetica,sans-Serif" font-size="10.00">+ Accept()</text>
</a>
</g>
</g>
<!-- Node2&#45;&gt;Node1 -->
<g id="edge1" class="edge"><title>Node2&#45;&gt;Node1</title>
<path fill="none" stroke="midnightblue" d="M97.7354,-104.605C109.119,-92.7328 121.432,-79.8921 132.32,-68.5381"/>
<polygon fill="none" stroke="midnightblue" points="95.1834,-102.209 90.7884,-111.849 100.236,-107.054 95.1834,-102.209"/>
</g>
<!-- Node3 -->
<g id="node3" class="node"><title>Node3</title>
<g id="a_node3"><a xlink:href="classscram_1_1mef_1_1Instruction.xhtml" target="_top" xlink:title="Instructions and rules for event tree paths. ">
<polygon fill="white" stroke="black" points="10,-328.5 10,-396.5 138,-396.5 138,-328.5 10,-328.5"/>
<text text-anchor="middle" x="74" y="-384.5" font-family="Helvetica,sans-Serif" font-size="10.00">scram::mef::Instruction</text>
<polyline fill="none" stroke="black" points="10,-377.5 138,-377.5 "/>
<text text-anchor="middle" x="74" y="-365.5" font-family="Helvetica,sans-Serif" font-size="10.00"> </text>
<polyline fill="none" stroke="black" points="10,-358.5 138,-358.5 "/>
<text text-anchor="start" x="18" y="-346.5" font-family="Helvetica,sans-Serif" font-size="10.00">+ ~Instruction()</text>
<text text-anchor="start" x="18" y="-335.5" font-family="Helvetica,sans-Serif" font-size="10.00">+ Accept()</text>
</a>
</g>
</g>
<!-- Node3&#45;&gt;Node2 -->
<g id="edge2" class="edge"><title>Node3&#45;&gt;Node2</title>
<path fill="none" stroke="midnightblue" d="M65.6197,-318.359C64.1619,-309.351 62.8446,-299.89 62,-291 58.4055,-253.162 58.0218,-209.491 58.3034,-180.253"/>
<polygon fill="none" stroke="midnightblue" points="62.1802,-319.011 67.3074,-328.282 69.0811,-317.837 62.1802,-319.011"/>
</g>
<!-- Node5 -->
<g id="node5" class="node"><title>Node5</title>
<g id="a_node5"><a xlink:href="classscram_1_1mef_1_1Visitable.xhtml" target="_top" xlink:title="Default visit for instruction type of T. ">
<polygon fill="white" stroke="black" points="71,-233.5 71,-290.5 217,-290.5 217,-233.5 71,-233.5"/>
<text text-anchor="middle" x="144" y="-278.5" font-family="Helvetica,sans-Serif" font-size="10.00">scram::mef::Visitable&lt; T &gt;</text>
<polyline fill="none" stroke="black" points="71,-271.5 217,-271.5 "/>
<text text-anchor="middle" x="144" y="-259.5" font-family="Helvetica,sans-Serif" font-size="10.00"> </text>
<polyline fill="none" stroke="black" points="71,-252.5 217,-252.5 "/>
<text text-anchor="start" x="79" y="-240.5" font-family="Helvetica,sans-Serif" font-size="10.00">+ Accept()</text>
</a>
</g>
</g>
<!-- Node3&#45;&gt;Node5 -->
<g id="edge5" class="edge"><title>Node3&#45;&gt;Node5</title>
<path fill="none" stroke="midnightblue" d="M103.366,-320.178C110.465,-310.188 117.882,-299.752 124.407,-290.571"/>
<polygon fill="none" stroke="midnightblue" points="100.444,-318.248 97.5037,-328.427 106.15,-322.303 100.444,-318.248"/>
</g>
<!-- Node4 -->
<g id="node4" class="node"><title>Node4</title>
<polygon fill="white" stroke="#bfbfbf" points="35.5,-434.5 35.5,-491.5 112.5,-491.5 112.5,-434.5 35.5,-434.5"/>
<text text-anchor="middle" x="74" y="-479.5" font-family="Helvetica,sans-Serif" font-size="10.00">noncopyable</text>
<polyline fill="none" stroke="#bfbfbf" points="35.5,-472.5 112.5,-472.5 "/>
<text text-anchor="middle" x="74" y="-460.5" font-family="Helvetica,sans-Serif" font-size="10.00"> </text>
<polyline fill="none" stroke="#bfbfbf" points="35.5,-453.5 112.5,-453.5 "/>
<text text-anchor="middle" x="74" y="-441.5" font-family="Helvetica,sans-Serif" font-size="10.00"> </text>
</g>
<!-- Node4&#45;&gt;Node3 -->
<g id="edge3" class="edge"><title>Node4&#45;&gt;Node3</title>
<path fill="none" stroke="#8b1a1a" d="M74,-424.007C74,-414.962 74,-405.383 74,-396.578"/>
<polygon fill="none" stroke="#8b1a1a" points="70.5001,-424.3 74,-434.3 77.5001,-424.3 70.5001,-424.3"/>
</g>
<!-- Node5&#45;&gt;Node2 -->
<g id="edge4" class="edge"><title>Node5&#45;&gt;Node2</title>
<path fill="none" stroke="orange" d="M117.29,-225.177C106.519,-210.732 94.1715,-194.171 83.6212,-180.021"/>
<polygon fill="orange" stroke="orange" points="114.64,-227.479 123.424,-233.404 120.252,-223.295 114.64,-227.479"/>
<text text-anchor="middle" x="132.5" y="-207" font-family="Helvetica,sans-Serif" font-size="10.00"> &lt; Link &gt;</text>
</g>
<!-- Node6 -->
<g id="node6" class="node"><title>Node6</title>
<g id="a_node6"><a xlink:href="classscram_1_1mef_1_1NodeMark.xhtml" target="_top" xlink:title="Mixin class for providing marks for graph nodes. ">
<polygon fill="white" stroke="black" points="136,-106.5 136,-185.5 262,-185.5 262,-106.5 136,-106.5"/>
<text text-anchor="middle" x="199" y="-173.5" font-family="Helvetica,sans-Serif" font-size="10.00">scram::mef::NodeMark</text>
<polyline fill="none" stroke="black" points="136,-166.5 262,-166.5 "/>
<text text-anchor="middle" x="199" y="-154.5" font-family="Helvetica,sans-Serif" font-size="10.00"> </text>
<polyline fill="none" stroke="black" points="136,-147.5 262,-147.5 "/>
<text text-anchor="start" x="144" y="-135.5" font-family="Helvetica,sans-Serif" font-size="10.00">+ mark()</text>
<text text-anchor="start" x="144" y="-124.5" font-family="Helvetica,sans-Serif" font-size="10.00">+ mark()</text>
<text text-anchor="start" x="144" y="-113.5" font-family="Helvetica,sans-Serif" font-size="10.00"># ~NodeMark()</text>
</a>
</g>
</g>
<!-- Node6&#45;&gt;Node1 -->
<g id="edge6" class="edge"><title>Node6&#45;&gt;Node1</title>
<path fill="none" stroke="midnightblue" d="M183.555,-96.6793C180.532,-87.2203 177.425,-77.5017 174.604,-68.674"/>
<polygon fill="none" stroke="midnightblue" points="180.282,-97.9348 186.66,-106.394 186.949,-95.8035 180.282,-97.9348"/>
</g>
</g>
</svg>
