<?xml version="1.0" encoding="UTF-8" standalone="no"?>
<!DOCTYPE svg PUBLIC "-//W3C//DTD SVG 1.1//EN"
 "http://www.w3.org/Graphics/SVG/1.1/DTD/svg11.dtd">
<!-- Generated by graphviz version 2.38.0 (20140413.2041)
 -->
<!-- Title: scram::core::RiskAnalysis::Analyze Pages: 1 -->
<svg width="335pt" height="627pt"
 viewBox="0.00 0.00 335.00 627.00" xmlns="http://www.w3.org/2000/svg" xmlns:xlink="http://www.w3.org/1999/xlink">
<g id="graph0" class="graph" transform="scale(1 1) rotate(0) translate(4 623)">
<title>scram::core::RiskAnalysis::Analyze</title>
<polygon fill="white" stroke="none" points="-4,4 -4,-623 331,-623 331,4 -4,4"/>
<!-- Node1 -->
<g id="node1" class="node"><title>Node1</title>
<polygon fill="#bfbfbf" stroke="black" points="0,-294.5 0,-324.5 137,-324.5 137,-294.5 0,-294.5"/>
<text text-anchor="start" x="8" y="-312.5" font-family="Helvetica,sans-Serif" font-size="10.00">scram::core::RiskAnalysis</text>
<text text-anchor="middle" x="68.5" y="-301.5" font-family="Helvetica,sans-Serif" font-size="10.00">::Analyze</text>
</g>
<!-- Node2 -->
<g id="node2" class="node"><title>Node2</title>
<g id="a_node2"><a xlink:href="classscram_1_1mef_1_1Model.xhtml#abfbaf94f055094f5ed8418d30105a2b1" target="_top" xlink:title="scram::mef::Model::\lalignments">
<polygon fill="white" stroke="black" points="194,-588.5 194,-618.5 306,-618.5 306,-588.5 194,-588.5"/>
<text text-anchor="start" x="202" y="-606.5" font-family="Helvetica,sans-Serif" font-size="10.00">scram::mef::Model::</text>
<text text-anchor="middle" x="250" y="-595.5" font-family="Helvetica,sans-Serif" font-size="10.00">alignments</text>
</a>
</g>
</g>
<!-- Node1&#45;&gt;Node2 -->
<g id="edge1" class="edge"><title>Node1&#45;&gt;Node2</title>
<path fill="none" stroke="midnightblue" d="M70.7876,-324.541C75.4806,-369.905 95.6982,-506.715 173,-579.5 176.529,-582.823 180.515,-585.686 184.768,-588.152"/>
<polygon fill="midnightblue" stroke="midnightblue" points="183.3,-591.331 193.809,-592.679 186.434,-585.072 183.3,-591.331"/>
</g>
<!-- Node3 -->
<g id="node3" class="node"><title>Node3</title>
<g id="a_node3"><a xlink:href="classscram_1_1mef_1_1Model.xhtml#a13bd4eb71c3f15f4eece041f19488744" target="_top" xlink:title="scram::mef::Model::\lcontext">
<polygon fill="white" stroke="black" points="194,-539.5 194,-569.5 306,-569.5 306,-539.5 194,-539.5"/>
<text text-anchor="start" x="202" y="-557.5" font-family="Helvetica,sans-Serif" font-size="10.00">scram::mef::Model::</text>
<text text-anchor="middle" x="250" y="-546.5" font-family="Helvetica,sans-Serif" font-size="10.00">context</text>
</a>
</g>
</g>
<!-- Node1&#45;&gt;Node3 -->
<g id="edge2" class="edge"><title>Node1&#45;&gt;Node3</title>
<path fill="none" stroke="midnightblue" d="M72.2307,-324.627C80.205,-364.41 107.188,-472.855 173,-530.5 176.49,-533.557 180.37,-536.225 184.477,-538.553"/>
<polygon fill="midnightblue" stroke="midnightblue" points="183.252,-541.851 193.77,-543.127 186.343,-535.571 183.252,-541.851"/>
</g>
<!-- Node4 -->
<g id="node4" class="node"><title>Node4</title>
<g id="a_node4"><a xlink:href="classscram_1_1mef_1_1Model.xhtml#a8d1303f0c13449fc489057aca065f18a" target="_top" xlink:title="scram::mef::Model::\lfault_trees">
<polygon fill="white" stroke="black" points="194,-490.5 194,-520.5 306,-520.5 306,-490.5 194,-490.5"/>
<text text-anchor="start" x="202" y="-508.5" font-family="Helvetica,sans-Serif" font-size="10.00">scram::mef::Model::</text>
<text text-anchor="middle" x="250" y="-497.5" font-family="Helvetica,sans-Serif" font-size="10.00">fault_trees</text>
</a>
</g>
</g>
<!-- Node1&#45;&gt;Node4 -->
<g id="edge3" class="edge"><title>Node1&#45;&gt;Node4</title>
<path fill="none" stroke="midnightblue" d="M74.4197,-324.647C86.0411,-358.046 118.395,-438.462 173,-481.5 176.581,-484.322 180.499,-486.816 184.609,-489.018"/>
<polygon fill="midnightblue" stroke="midnightblue" points="183.318,-492.279 193.854,-493.39 186.31,-485.951 183.318,-492.279"/>
</g>
<!-- Node5 -->
<g id="node5" class="node"><title>Node5</title>
<g id="a_node5"><a xlink:href="classscram_1_1mef_1_1Model.xhtml#af94cbabe75f57f3a1b1ae5d99a09e82b" target="_top" xlink:title="scram::mef::Model::\linitiating_events">
<polygon fill="white" stroke="black" points="194,-441.5 194,-471.5 306,-471.5 306,-441.5 194,-441.5"/>
<text text-anchor="start" x="202" y="-459.5" font-family="Helvetica,sans-Serif" font-size="10.00">scram::mef::Model::</text>
<text text-anchor="middle" x="250" y="-448.5" font-family="Helvetica,sans-Serif" font-size="10.00">initiating_events</text>
</a>
</g>
</g>
<!-- Node1&#45;&gt;Node5 -->
<g id="edge4" class="edge"><title>Node1&#45;&gt;Node5</title>
<path fill="none" stroke="midnightblue" d="M78.2913,-324.759C93.9985,-350.69 129.361,-403.371 173,-432.5 176.56,-434.877 180.37,-437.029 184.317,-438.977"/>
<polygon fill="midnightblue" stroke="midnightblue" points="183.163,-442.295 193.723,-443.161 186.008,-435.899 183.163,-442.295"/>
</g>
<!-- Node6 -->
<g id="node6" class="node"><title>Node6</title>
<g id="a_node6"><a xlink:href="classscram_1_1mef_1_1Model.xhtml#a8a215a2dd25789bfa65d41cc28b0ac4f" target="_top" xlink:title="scram::mef::Model::\lmission_time">
<polygon fill="white" stroke="black" points="194,-392.5 194,-422.5 306,-422.5 306,-392.5 194,-392.5"/>
<text text-anchor="start" x="202" y="-410.5" font-family="Helvetica,sans-Serif" font-size="10.00">scram::mef::Model::</text>
<text text-anchor="middle" x="250" y="-399.5" font-family="Helvetica,sans-Serif" font-size="10.00">mission_time</text>
</a>
</g>
</g>
<!-- Node1&#45;&gt;Node6 -->
<g id="edge5" class="edge"><title>Node1&#45;&gt;Node6</title>
<path fill="none" stroke="midnightblue" d="M87.0768,-324.73C106.824,-341.179 140.395,-367.212 173,-383.5 176.76,-385.378 180.697,-387.149 184.718,-388.81"/>
<polygon fill="midnightblue" stroke="midnightblue" points="183.614,-392.136 194.203,-392.49 186.146,-385.61 183.614,-392.136"/>
</g>
<!-- Node7 -->
<g id="node7" class="node"><title>Node7</title>
<g id="a_node7"><a xlink:href="classscram_1_1core_1_1Settings.xhtml#a0c130c599ff39bd4a5b269907f06b66d" target="_top" xlink:title="scram::core::Settings\l::mission_time">
<polygon fill="white" stroke="black" points="190.5,-343.5 190.5,-373.5 309.5,-373.5 309.5,-343.5 190.5,-343.5"/>
<text text-anchor="start" x="198.5" y="-361.5" font-family="Helvetica,sans-Serif" font-size="10.00">scram::core::Settings</text>
<text text-anchor="middle" x="250" y="-350.5" font-family="Helvetica,sans-Serif" font-size="10.00">::mission_time</text>
</a>
</g>
</g>
<!-- Node1&#45;&gt;Node7 -->
<g id="edge6" class="edge"><title>Node1&#45;&gt;Node7</title>
<path fill="none" stroke="midnightblue" d="M124.821,-324.601C143.591,-329.725 164.729,-335.496 184.172,-340.803"/>
<polygon fill="midnightblue" stroke="midnightblue" points="183.293,-344.191 193.862,-343.448 185.137,-337.438 183.293,-344.191"/>
</g>
<!-- Node8 -->
<g id="node8" class="node"><title>Node8</title>
<g id="a_node8"><a xlink:href="classscram_1_1mef_1_1Element.xhtml#adb401e2ca84aa98cb60797bec2500a81" target="_top" xlink:title="scram::mef::Element\l::name">
<polygon fill="white" stroke="black" points="191.5,-294.5 191.5,-324.5 308.5,-324.5 308.5,-294.5 191.5,-294.5"/>
<text text-anchor="start" x="199.5" y="-312.5" font-family="Helvetica,sans-Serif" font-size="10.00">scram::mef::Element</text>
<text text-anchor="middle" x="250" y="-301.5" font-family="Helvetica,sans-Serif" font-size="10.00">::name</text>
</a>
</g>
</g>
<!-- Node1&#45;&gt;Node8 -->
<g id="edge7" class="edge"><title>Node1&#45;&gt;Node8</title>
<path fill="none" stroke="midnightblue" d="M137.105,-309.5C151.5,-309.5 166.705,-309.5 181.111,-309.5"/>
<polygon fill="midnightblue" stroke="midnightblue" points="181.435,-313 191.435,-309.5 181.435,-306 181.435,-313"/>
</g>
<!-- Node9 -->
<g id="node9" class="node"><title>Node9</title>
<g id="a_node9"><a xlink:href="classscram_1_1mef_1_1RandomDeviate.xhtml#a078bf1c19e467ec90c578e0f388155d9" target="_top" xlink:title="Sets the seed of the underlying random number generator. ">
<polygon fill="white" stroke="black" points="173,-245.5 173,-275.5 327,-275.5 327,-245.5 173,-245.5"/>
<text text-anchor="start" x="181" y="-263.5" font-family="Helvetica,sans-Serif" font-size="10.00">scram::mef::RandomDeviate</text>
<text text-anchor="middle" x="250" y="-252.5" font-family="Helvetica,sans-Serif" font-size="10.00">::seed</text>
</a>
</g>
</g>
<!-- Node1&#45;&gt;Node9 -->
<g id="edge8" class="edge"><title>Node1&#45;&gt;Node9</title>
<path fill="none" stroke="midnightblue" d="M124.821,-294.399C143.591,-289.275 164.729,-283.504 184.172,-278.197"/>
<polygon fill="midnightblue" stroke="midnightblue" points="185.137,-281.562 193.862,-275.552 183.293,-274.809 185.137,-281.562"/>
</g>
<!-- Node10 -->
<g id="node10" class="node"><title>Node10</title>
<g id="a_node10"><a xlink:href="classscram_1_1core_1_1Settings.xhtml#a9937a41d3fd1369f2eea59e1f33a1ac5" target="_top" xlink:title="scram::core::Settings\l::seed">
<polygon fill="white" stroke="black" points="190.5,-196.5 190.5,-226.5 309.5,-226.5 309.5,-196.5 190.5,-196.5"/>
<text text-anchor="start" x="198.5" y="-214.5" font-family="Helvetica,sans-Serif" font-size="10.00">scram::core::Settings</text>
<text text-anchor="middle" x="250" y="-203.5" font-family="Helvetica,sans-Serif" font-size="10.00">::seed</text>
</a>
</g>
</g>
<!-- Node1&#45;&gt;Node10 -->
<g id="edge9" class="edge"><title>Node1&#45;&gt;Node10</title>
<path fill="none" stroke="midnightblue" d="M87.5117,-294.271C107.369,-278.106 140.785,-252.704 173,-236.5 177.347,-234.314 181.927,-232.257 186.596,-230.337"/>
<polygon fill="midnightblue" stroke="midnightblue" points="188.201,-233.468 196.256,-226.586 185.667,-226.943 188.201,-233.468"/>
</g>
<!-- Node11 -->
<g id="node11" class="node"><title>Node11</title>
<g id="a_node11"><a xlink:href="classscram_1_1core_1_1Analysis.xhtml#ab04a96c555ba726368fa3868a8701610" target="_top" xlink:title="scram::core::Analysis\l::settings">
<polygon fill="white" stroke="black" points="190.5,-147.5 190.5,-177.5 309.5,-177.5 309.5,-147.5 190.5,-147.5"/>
<text text-anchor="start" x="198.5" y="-165.5" font-family="Helvetica,sans-Serif" font-size="10.00">scram::core::Analysis</text>
<text text-anchor="middle" x="250" y="-154.5" font-family="Helvetica,sans-Serif" font-size="10.00">::settings</text>
</a>
</g>
</g>
<!-- Node1&#45;&gt;Node11 -->
<g id="edge10" class="edge"><title>Node1&#45;&gt;Node11</title>
<path fill="none" stroke="midnightblue" d="M78.3594,-294.422C94.1697,-268.788 129.683,-216.662 173,-187.5 175.911,-185.54 178.988,-183.724 182.169,-182.041"/>
<polygon fill="midnightblue" stroke="midnightblue" points="183.849,-185.118 191.361,-177.648 180.83,-178.802 183.849,-185.118"/>
</g>
<!-- Node12 -->
<g id="node12" class="node"><title>Node12</title>
<g id="a_node12"><a xlink:href="classscram_1_1mef_1_1HouseEvent.xhtml#a15ab4daf36b62127703cf610bdc80183" target="_top" xlink:title="Sets the state for House event. ">
<polygon fill="white" stroke="black" points="182.5,-98.5 182.5,-128.5 317.5,-128.5 317.5,-98.5 182.5,-98.5"/>
<text text-anchor="start" x="190.5" y="-116.5" font-family="Helvetica,sans-Serif" font-size="10.00">scram::mef::HouseEvent</text>
<text text-anchor="middle" x="250" y="-105.5" font-family="Helvetica,sans-Serif" font-size="10.00">::state</text>
</a>
</g>
</g>
<!-- Node1&#45;&gt;Node12 -->
<g id="edge11" class="edge"><title>Node1&#45;&gt;Node12</title>
<path fill="none" stroke="midnightblue" d="M74.483,-294.488C86.2325,-261.377 118.829,-181.608 173,-138.5 175.293,-136.676 177.723,-134.982 180.254,-133.41"/>
<polygon fill="midnightblue" stroke="midnightblue" points="182.095,-136.393 189.187,-128.522 178.734,-130.252 182.095,-136.393"/>
</g>
<!-- Node13 -->
<g id="node13" class="node"><title>Node13</title>
<g id="a_node13"><a xlink:href="classscram_1_1mef_1_1Composite.xhtml#a9c283de486f5e1035ae3116ae0a3f79c" target="_top" xlink:title="scram::mef::Composite\l::table">
<polygon fill="white" stroke="black" points="185.5,-49.5 185.5,-79.5 314.5,-79.5 314.5,-49.5 185.5,-49.5"/>
<text text-anchor="start" x="193.5" y="-67.5" font-family="Helvetica,sans-Serif" font-size="10.00">scram::mef::Composite</text>
<text text-anchor="middle" x="250" y="-56.5" font-family="Helvetica,sans-Serif" font-size="10.00">::table</text>
</a>
</g>
</g>
<!-- Node1&#45;&gt;Node13 -->
<g id="edge12" class="edge"><title>Node1&#45;&gt;Node13</title>
<path fill="none" stroke="midnightblue" d="M72.291,-294.484C80.4127,-254.986 107.725,-147.264 173,-89.5 174.911,-87.8086 176.94,-86.2312 179.059,-84.7601"/>
<polygon fill="midnightblue" stroke="midnightblue" points="180.867,-87.7572 187.624,-79.5973 177.253,-81.762 180.867,-87.7572"/>
</g>
<!-- Node14 -->
<g id="node14" class="node"><title>Node14</title>
<g id="a_node14"><a xlink:href="classscram_1_1mef_1_1MissionTime.xhtml#abedd4c16a7c428fc8192ec32d51beb3e" target="_top" xlink:title="Changes the mission time value. ">
<polygon fill="white" stroke="black" points="182,-0.5 182,-30.5 318,-30.5 318,-0.5 182,-0.5"/>
<text text-anchor="start" x="190" y="-18.5" font-family="Helvetica,sans-Serif" font-size="10.00">scram::mef::MissionTime</text>
<text text-anchor="middle" x="250" y="-7.5" font-family="Helvetica,sans-Serif" font-size="10.00">::value</text>
</a>
</g>
</g>
<!-- Node1&#45;&gt;Node14 -->
<g id="edge13" class="edge"><title>Node1&#45;&gt;Node14</title>
<path fill="none" stroke="midnightblue" d="M70.8801,-294.234C75.8003,-248.831 96.5174,-113.287 173,-40.5 174.635,-38.944 176.369,-37.4847 178.182,-36.1163"/>
<polygon fill="midnightblue" stroke="midnightblue" points="180.089,-39.0511 186.582,-30.6793 176.286,-33.1746 180.089,-39.0511"/>
</g>
</g>
</svg>
