<?xml version="1.0" encoding="UTF-8" standalone="no"?>
<!DOCTYPE svg PUBLIC "-//W3C//DTD SVG 1.1//EN"
 "http://www.w3.org/Graphics/SVG/1.1/DTD/svg11.dtd">
<!-- Generated by graphviz version 2.38.0 (20140413.2041)
 -->
<!-- Title: scram::core::zbdd::CutSetContainer::GetNextGate Pages: 1 -->
<svg width="348pt" height="225pt"
 viewBox="0.00 0.00 348.00 225.00" xmlns="http://www.w3.org/2000/svg" xmlns:xlink="http://www.w3.org/1999/xlink">
<g id="graph0" class="graph" transform="scale(1 1) rotate(0) translate(4 221)">
<title>scram::core::zbdd::CutSetContainer::GetNextGate</title>
<polygon fill="white" stroke="none" points="-4,4 -4,-221 344,-221 344,4 -4,4"/>
<!-- Node1 -->
<g id="node1" class="node"><title>Node1</title>
<polygon fill="#bfbfbf" stroke="black" points="0,-112.5 0,-142.5 165,-142.5 165,-112.5 0,-112.5"/>
<text text-anchor="start" x="8" y="-130.5" font-family="Helvetica,sans-Serif" font-size="10.00">scram::core::zbdd::</text>
<text text-anchor="middle" x="82.5" y="-119.5" font-family="Helvetica,sans-Serif" font-size="10.00">CutSetContainer::GetNextGate</text>
</g>
<!-- Node2 -->
<g id="node2" class="node"><title>Node2</title>
<g id="a_node2"><a xlink:href="classscram_1_1core_1_1NonTerminal.xhtml#aeeaafd82ae5890a7ec3462c68ffc8628" target="_top" xlink:title="scram::core::NonTerminal\l::index">
<polygon fill="white" stroke="black" points="201,-186.5 201,-216.5 340,-216.5 340,-186.5 201,-186.5"/>
<text text-anchor="start" x="209" y="-204.5" font-family="Helvetica,sans-Serif" font-size="10.00">scram::core::NonTerminal</text>
<text text-anchor="middle" x="270.5" y="-193.5" font-family="Helvetica,sans-Serif" font-size="10.00">::index</text>
</a>
</g>
</g>
<!-- Node1&#45;&gt;Node2 -->
<g id="edge1" class="edge"><title>Node1&#45;&gt;Node2</title>
<path fill="none" stroke="midnightblue" d="M136.72,-142.594C156.753,-150.639 179.811,-160.29 201,-168.5 213.025,-173.159 226.384,-177.929 238.087,-182.551"/>
<polygon fill="midnightblue" stroke="midnightblue" points="236.883,-185.84 247.463,-186.394 239.537,-179.363 236.883,-185.84"/>
</g>
<!-- Node1&#45;&gt;Node2 -->
<g id="edge2" class="edge"><title>Node1&#45;&gt;Node2</title>
<path fill="none" stroke="midnightblue" d="M102.883,-142.62C123.884,-154.305 158.736,-169.743 191.096,-182.611"/>
<polygon fill="midnightblue" stroke="midnightblue" points="190.003,-185.942 200.59,-186.341 192.563,-179.427 190.003,-185.942"/>
</g>
<!-- Node3 -->
<g id="node3" class="node"><title>Node3</title>
<g id="a_node3"><a xlink:href="classscram_1_1core_1_1NonTerminal.xhtml#a9230422e92d086c34f67bcb864bfc8a9" target="_top" xlink:title="scram::core::NonTerminal\l::module">
<polygon fill="white" stroke="black" points="201,-137.5 201,-167.5 340,-167.5 340,-137.5 201,-137.5"/>
<text text-anchor="start" x="209" y="-155.5" font-family="Helvetica,sans-Serif" font-size="10.00">scram::core::NonTerminal</text>
<text text-anchor="middle" x="270.5" y="-144.5" font-family="Helvetica,sans-Serif" font-size="10.00">::module</text>
</a>
</g>
</g>
<!-- Node1&#45;&gt;Node3 -->
<g id="edge3" class="edge"><title>Node1&#45;&gt;Node3</title>
<path fill="none" stroke="midnightblue" d="M165.082,-138.465C173.641,-139.616 182.332,-140.784 190.857,-141.93"/>
<polygon fill="midnightblue" stroke="midnightblue" points="190.394,-145.399 200.771,-143.262 191.326,-138.461 190.394,-145.399"/>
</g>
<!-- Node4 -->
<g id="node4" class="node"><title>Node4</title>
<g id="a_node4"><a xlink:href="structscram_1_1core_1_1IntrusivePtrCast.xhtml#af153c12dc6133b7d9f9b7a57bba29f1d" target="_top" xlink:title="scram::core::IntrusivePtr\lCast\&lt; SetNode \&gt;::Ref">
<polygon fill="white" stroke="black" points="203.5,-88.5 203.5,-118.5 337.5,-118.5 337.5,-88.5 203.5,-88.5"/>
<text text-anchor="start" x="211.5" y="-106.5" font-family="Helvetica,sans-Serif" font-size="10.00">scram::core::IntrusivePtr</text>
<text text-anchor="middle" x="270.5" y="-95.5" font-family="Helvetica,sans-Serif" font-size="10.00">Cast&lt; SetNode &gt;::Ref</text>
</a>
</g>
</g>
<!-- Node1&#45;&gt;Node4 -->
<g id="edge4" class="edge"><title>Node1&#45;&gt;Node4</title>
<path fill="none" stroke="midnightblue" d="M165.082,-116.973C174.473,-115.762 184.021,-114.53 193.335,-113.328"/>
<polygon fill="midnightblue" stroke="midnightblue" points="193.863,-116.789 203.333,-112.038 192.967,-109.846 193.863,-116.789"/>
</g>
<!-- Node5 -->
<g id="node5" class="node"><title>Node5</title>
<g id="a_node5"><a xlink:href="classscram_1_1core_1_1Zbdd.xhtml#aa599878612e128fa09e17d0520280dbe" target="_top" xlink:title="scram::core::Zbdd::root">
<polygon fill="white" stroke="black" points="205,-50 205,-69 336,-69 336,-50 205,-50"/>
<text text-anchor="middle" x="270.5" y="-57" font-family="Helvetica,sans-Serif" font-size="10.00">scram::core::Zbdd::root</text>
</a>
</g>
</g>
<!-- Node1&#45;&gt;Node5 -->
<g id="edge5" class="edge"><title>Node1&#45;&gt;Node5</title>
<path fill="none" stroke="midnightblue" d="M117.588,-112.479C140.852,-102.499 172.499,-89.4522 201,-79.5 208.484,-76.8868 216.506,-74.3304 224.329,-71.9658"/>
<polygon fill="midnightblue" stroke="midnightblue" points="225.481,-75.2753 234.078,-69.0833 223.496,-68.5626 225.481,-75.2753"/>
</g>
<!-- Node6 -->
<g id="node6" class="node"><title>Node6</title>
<g id="a_node6"><a xlink:href="classscram_1_1core_1_1Vertex.xhtml#acfa7d6caa5bc11bc95cb35012169ab15" target="_top" xlink:title="scram::core::Vertex\l\&lt; SetNode \&gt;::terminal">
<polygon fill="white" stroke="black" points="207,-0.5 207,-30.5 334,-30.5 334,-0.5 207,-0.5"/>
<text text-anchor="start" x="215" y="-18.5" font-family="Helvetica,sans-Serif" font-size="10.00">scram::core::Vertex</text>
<text text-anchor="middle" x="270.5" y="-7.5" font-family="Helvetica,sans-Serif" font-size="10.00">&lt; SetNode &gt;::terminal</text>
</a>
</g>
</g>
<!-- Node1&#45;&gt;Node6 -->
<g id="edge6" class="edge"><title>Node1&#45;&gt;Node6</title>
<path fill="none" stroke="midnightblue" d="M100.732,-112.228C122.729,-93.3488 162.554,-61.1867 201,-40.5 204.931,-38.3846 209.08,-36.3775 213.31,-34.4892"/>
<polygon fill="midnightblue" stroke="midnightblue" points="214.798,-37.6603 222.652,-30.5488 212.077,-31.2107 214.798,-37.6603"/>
</g>
</g>
</svg>
