<?xml version="1.0" encoding="UTF-8" standalone="no"?>
<!DOCTYPE svg PUBLIC "-//W3C//DTD SVG 1.1//EN"
 "http://www.w3.org/Graphics/SVG/1.1/DTD/svg11.dtd">
<!-- Generated by graphviz version 2.38.0 (20140413.2041)
 -->
<!-- Title: scram::core::Zbdd::Zbdd Pages: 1 -->
<svg width="827pt" height="917pt"
 viewBox="0.00 0.00 827.00 916.50" xmlns="http://www.w3.org/2000/svg" xmlns:xlink="http://www.w3.org/1999/xlink">
<g id="graph0" class="graph" transform="scale(1 1) rotate(0) translate(4 912.5)">
<title>scram::core::Zbdd::Zbdd</title>
<polygon fill="white" stroke="none" points="-4,4 -4,-912.5 823,-912.5 823,4 -4,4"/>
<!-- Node1 -->
<g id="node1" class="node"><title>Node1</title>
<polygon fill="#bfbfbf" stroke="black" points="0,-372.5 0,-391.5 137,-391.5 137,-372.5 0,-372.5"/>
<text text-anchor="middle" x="68.5" y="-379.5" font-family="Helvetica,sans-Serif" font-size="10.00">scram::core::Zbdd::Zbdd</text>
</g>
<!-- Node2 -->
<g id="node2" class="node"><title>Node2</title>
<g id="a_node2"><a xlink:href="classscram_1_1core_1_1Gate.xhtml#a0d070ec20569129162398c73165f65bc" target="_top" xlink:title="scram::core::Gate::\lcoherent">
<polygon fill="white" stroke="black" points="191.5,-878 191.5,-908 300.5,-908 300.5,-878 191.5,-878"/>
<text text-anchor="start" x="199.5" y="-896" font-family="Helvetica,sans-Serif" font-size="10.00">scram::core::Gate::</text>
<text text-anchor="middle" x="246" y="-885" font-family="Helvetica,sans-Serif" font-size="10.00">coherent</text>
</a>
</g>
</g>
<!-- Node1&#45;&gt;Node2 -->
<g id="edge1" class="edge"><title>Node1&#45;&gt;Node2</title>
<path fill="none" stroke="midnightblue" d="M70.2638,-391.664C75.338,-453.55 106.049,-794.071 173,-869 175.737,-872.063 178.874,-874.735 182.275,-877.068"/>
<polygon fill="midnightblue" stroke="midnightblue" points="180.776,-880.243 191.19,-882.192 184.265,-874.174 180.776,-880.243"/>
</g>
<!-- Node3 -->
<g id="node3" class="node"><title>Node3</title>
<g id="a_node3"><a xlink:href="classscram_1_1core_1_1Gate.xhtml#ab2a4e8ac78b36541a32cc719863910a5" target="_top" xlink:title="scram::core::Gate::\lconstant">
<polygon fill="white" stroke="black" points="191.5,-829 191.5,-859 300.5,-859 300.5,-829 191.5,-829"/>
<text text-anchor="start" x="199.5" y="-847" font-family="Helvetica,sans-Serif" font-size="10.00">scram::core::Gate::</text>
<text text-anchor="middle" x="246" y="-836" font-family="Helvetica,sans-Serif" font-size="10.00">constant</text>
</a>
</g>
</g>
<!-- Node1&#45;&gt;Node3 -->
<g id="edge2" class="edge"><title>Node1&#45;&gt;Node3</title>
<path fill="none" stroke="midnightblue" d="M70.6157,-391.615C77.4458,-449.011 115.236,-746.192 173,-814 175.995,-817.516 179.471,-820.628 183.245,-823.381"/>
<polygon fill="midnightblue" stroke="midnightblue" points="181.59,-826.475 191.915,-828.851 185.325,-820.555 181.59,-826.475"/>
</g>
<!-- Node4 -->
<g id="node4" class="node"><title>Node4</title>
<g id="a_node4"><a xlink:href="classscram_1_1core_1_1Zbdd.xhtml#ac3ac27090b550d973b20bd971c3de9f9" target="_top" xlink:title="Removes complements of variables from products. ">
<polygon fill="white" stroke="black" points="182,-564 182,-594 310,-594 310,-564 182,-564"/>
<text text-anchor="start" x="190" y="-582" font-family="Helvetica,sans-Serif" font-size="10.00">scram::core::Zbdd::</text>
<text text-anchor="middle" x="246" y="-571" font-family="Helvetica,sans-Serif" font-size="10.00">EliminateComplements</text>
</a>
</g>
</g>
<!-- Node1&#45;&gt;Node4 -->
<g id="edge3" class="edge"><title>Node1&#45;&gt;Node4</title>
<path fill="none" stroke="midnightblue" d="M74.5425,-391.539C88.0279,-416.44 127.039,-484.62 173,-530 183.736,-540.6 197.041,-550.381 209.281,-558.371"/>
<polygon fill="midnightblue" stroke="midnightblue" points="207.632,-561.47 217.954,-563.859 211.375,-555.554 207.632,-561.47"/>
</g>
<!-- Node6 -->
<g id="node6" class="node"><title>Node6</title>
<g id="a_node6"><a xlink:href="structscram_1_1core_1_1IntrusivePtrCast.xhtml#af153c12dc6133b7d9f9b7a57bba29f1d" target="_top" xlink:title="scram::core::IntrusivePtr\lCast\&lt; SetNode \&gt;::Ref">
<polygon fill="white" stroke="black" points="685,-524 685,-554 819,-554 819,-524 685,-524"/>
<text text-anchor="start" x="693" y="-542" font-family="Helvetica,sans-Serif" font-size="10.00">scram::core::IntrusivePtr</text>
<text text-anchor="middle" x="752" y="-531" font-family="Helvetica,sans-Serif" font-size="10.00">Cast&lt; SetNode &gt;::Ref</text>
</a>
</g>
</g>
<!-- Node1&#45;&gt;Node6 -->
<g id="edge54" class="edge"><title>Node1&#45;&gt;Node6</title>
<path fill="none" stroke="midnightblue" d="M70.6929,-391.678C77.552,-445.681 113.749,-709.154 173,-760 253.294,-828.904 562.085,-831.338 649,-771 719.228,-722.247 741.61,-613.85 748.319,-564.434"/>
<polygon fill="midnightblue" stroke="midnightblue" points="751.821,-564.642 749.587,-554.286 744.874,-563.775 751.821,-564.642"/>
</g>
<!-- Node8 -->
<g id="node8" class="node"><title>Node8</title>
<g id="a_node8"><a xlink:href="classscram_1_1core_1_1Settings.xhtml#a0e43ec0f017d23a4fa4e376c4060d380" target="_top" xlink:title="scram::core::Settings\l::limit_order">
<polygon fill="white" stroke="black" points="355,-413 355,-443 474,-443 474,-413 355,-413"/>
<text text-anchor="start" x="363" y="-431" font-family="Helvetica,sans-Serif" font-size="10.00">scram::core::Settings</text>
<text text-anchor="middle" x="414.5" y="-420" font-family="Helvetica,sans-Serif" font-size="10.00">::limit_order</text>
</a>
</g>
</g>
<!-- Node1&#45;&gt;Node8 -->
<g id="edge47" class="edge"><title>Node1&#45;&gt;Node8</title>
<path fill="none" stroke="midnightblue" d="M137.053,-391.033C197.075,-399.059 284.407,-410.738 344.78,-418.811"/>
<polygon fill="midnightblue" stroke="midnightblue" points="344.601,-422.318 354.977,-420.174 345.529,-415.38 344.601,-422.318"/>
</g>
<!-- Node9 -->
<g id="node9" class="node"><title>Node9</title>
<g id="a_node9"><a xlink:href="classscram_1_1core_1_1Zbdd.xhtml#a3dbb8ef5da2882daf6c39e9724eae459" target="_top" xlink:title="Removes subsets in ZBDD. ">
<polygon fill="white" stroke="black" points="359,-501 359,-531 470,-531 470,-501 359,-501"/>
<text text-anchor="start" x="367" y="-519" font-family="Helvetica,sans-Serif" font-size="10.00">scram::core::Zbdd::</text>
<text text-anchor="middle" x="414.5" y="-508" font-family="Helvetica,sans-Serif" font-size="10.00">Minimize</text>
</a>
</g>
</g>
<!-- Node1&#45;&gt;Node9 -->
<g id="edge50" class="edge"><title>Node1&#45;&gt;Node9</title>
<path fill="none" stroke="midnightblue" d="M74.6843,-391.644C87.6727,-414.697 124.103,-472.871 173,-497 227.816,-524.05 298.297,-526.433 348.765,-523.483"/>
<polygon fill="midnightblue" stroke="midnightblue" points="349.156,-526.964 358.899,-522.803 348.688,-519.98 349.156,-526.964"/>
</g>
<!-- Node11 -->
<g id="node11" class="node"><title>Node11</title>
<g id="a_node11"><a xlink:href="classscram_1_1core_1_1SetNode.xhtml#a88d05af2b9f4f08b7bc66a31c2b9e249" target="_top" xlink:title="scram::core::SetNode\l::minimal">
<polygon fill="white" stroke="black" points="518.5,-703 518.5,-733 640.5,-733 640.5,-703 518.5,-703"/>
<text text-anchor="start" x="526.5" y="-721" font-family="Helvetica,sans-Serif" font-size="10.00">scram::core::SetNode</text>
<text text-anchor="middle" x="579.5" y="-710" font-family="Helvetica,sans-Serif" font-size="10.00">::minimal</text>
</a>
</g>
</g>
<!-- Node1&#45;&gt;Node11 -->
<g id="edge49" class="edge"><title>Node1&#45;&gt;Node11</title>
<path fill="none" stroke="midnightblue" d="M71.4272,-391.918C78.5648,-426.124 106.593,-540.54 173,-604 264.888,-691.81 418.912,-712.935 508.349,-717.447"/>
<polygon fill="midnightblue" stroke="midnightblue" points="508.248,-720.946 518.395,-717.898 508.562,-713.953 508.248,-720.946"/>
</g>
<!-- Node14 -->
<g id="node14" class="node"><title>Node14</title>
<g id="a_node14"><a xlink:href="classscram_1_1core_1_1Settings.xhtml#ae64f362fceb44402e101140dfc1725ba" target="_top" xlink:title="scram::core::Settings\l::prime_implicants">
<polygon fill="white" stroke="black" points="520,-75 520,-105 639,-105 639,-75 520,-75"/>
<text text-anchor="start" x="528" y="-93" font-family="Helvetica,sans-Serif" font-size="10.00">scram::core::Settings</text>
<text text-anchor="middle" x="579.5" y="-82" font-family="Helvetica,sans-Serif" font-size="10.00">::prime_implicants</text>
</a>
</g>
</g>
<!-- Node1&#45;&gt;Node14 -->
<g id="edge53" class="edge"><title>Node1&#45;&gt;Node14</title>
<path fill="none" stroke="midnightblue" d="M86.6405,-372.474C106.819,-361.556 141.571,-343.67 173,-332 235.964,-308.621 272.767,-341.719 319,-293 372.163,-236.979 298.721,-175.889 355,-123 395.693,-84.758 460.252,-78.8454 509.544,-81.1306"/>
<polygon fill="midnightblue" stroke="midnightblue" points="509.629,-84.6415 519.817,-81.734 510.039,-77.6536 509.629,-84.6415"/>
</g>
<!-- Node18 -->
<g id="node18" class="node"><title>Node18</title>
<g id="a_node18"><a xlink:href="classscram_1_1core_1_1Zbdd.xhtml#aeb83fd37f2aee74ac41e6ccadba82d39" target="_top" xlink:title="Removes constant modules from products. ">
<polygon fill="white" stroke="black" points="174,-457 174,-487 318,-487 318,-457 174,-457"/>
<text text-anchor="start" x="182" y="-475" font-family="Helvetica,sans-Serif" font-size="10.00">scram::core::Zbdd::</text>
<text text-anchor="middle" x="246" y="-464" font-family="Helvetica,sans-Serif" font-size="10.00">EliminateConstantModules</text>
</a>
</g>
</g>
<!-- Node1&#45;&gt;Node18 -->
<g id="edge22" class="edge"><title>Node1&#45;&gt;Node18</title>
<path fill="none" stroke="midnightblue" d="M88.2816,-391.632C116.405,-406.054 170.062,-433.57 206.678,-452.348"/>
<polygon fill="midnightblue" stroke="midnightblue" points="205.099,-455.471 215.594,-456.92 208.293,-449.243 205.099,-455.471"/>
</g>
<!-- Node19 -->
<g id="node19" class="node"><title>Node19</title>
<g id="a_node19"><a xlink:href="classscram_1_1core_1_1Zbdd.xhtml#a516f0d2f35ad213399f83fb9ab102561" target="_top" xlink:title="Traverses ZBDD to find modules and adjusted cut&#45;offs. ">
<polygon fill="white" stroke="black" points="190.5,-341 190.5,-371 301.5,-371 301.5,-341 190.5,-341"/>
<text text-anchor="start" x="198.5" y="-359" font-family="Helvetica,sans-Serif" font-size="10.00">scram::core::Zbdd::</text>
<text text-anchor="middle" x="246" y="-348" font-family="Helvetica,sans-Serif" font-size="10.00">GatherModules</text>
</a>
</g>
</g>
<!-- Node1&#45;&gt;Node19 -->
<g id="edge27" class="edge"><title>Node1&#45;&gt;Node19</title>
<path fill="none" stroke="midnightblue" d="M133.853,-372.466C148.955,-370.229 165.055,-367.844 180.177,-365.603"/>
<polygon fill="midnightblue" stroke="midnightblue" points="181.087,-369.007 190.466,-364.079 180.061,-362.082 181.087,-369.007"/>
</g>
<!-- Node24 -->
<g id="node24" class="node"><title>Node24</title>
<g id="a_node24"><a xlink:href="classscram_1_1core_1_1Node.xhtml#a62121e217b0da73112af7e07275f2c15" target="_top" xlink:title="scram::core::Node::\lindex">
<polygon fill="white" stroke="black" points="190.5,-253 190.5,-283 301.5,-283 301.5,-253 190.5,-253"/>
<text text-anchor="start" x="198.5" y="-271" font-family="Helvetica,sans-Serif" font-size="10.00">scram::core::Node::</text>
<text text-anchor="middle" x="246" y="-260" font-family="Helvetica,sans-Serif" font-size="10.00">index</text>
</a>
</g>
</g>
<!-- Node1&#45;&gt;Node24 -->
<g id="edge43" class="edge"><title>Node1&#45;&gt;Node24</title>
<path fill="none" stroke="midnightblue" d="M79.3405,-372.358C96.9296,-355.522 135.447,-320.423 173,-298 179.475,-294.134 186.539,-290.53 193.631,-287.258"/>
<polygon fill="midnightblue" stroke="midnightblue" points="195.529,-290.246 203.266,-283.007 192.704,-283.842 195.529,-290.246"/>
</g>
<!-- Node25 -->
<g id="node25" class="node"><title>Node25</title>
<g id="a_node25"><a xlink:href="classscram_1_1core_1_1Zbdd.xhtml#a4ecbf60e6ac51e5260e8d8139c1b8599" target="_top" xlink:title="Joins a ZBDD representing a module gate. ">
<polygon fill="white" stroke="black" points="359,-741 359,-771 470,-771 470,-741 359,-741"/>
<text text-anchor="start" x="367" y="-759" font-family="Helvetica,sans-Serif" font-size="10.00">scram::core::Zbdd::</text>
<text text-anchor="middle" x="414.5" y="-748" font-family="Helvetica,sans-Serif" font-size="10.00">JoinModule</text>
</a>
</g>
</g>
<!-- Node1&#45;&gt;Node25 -->
<g id="edge44" class="edge"><title>Node1&#45;&gt;Node25</title>
<path fill="none" stroke="midnightblue" d="M68.9819,-391.621C67.0907,-437.464 65.5544,-635.257 173,-726 221.245,-766.745 295.578,-770.028 348.831,-765.769"/>
<polygon fill="midnightblue" stroke="midnightblue" points="349.209,-769.249 358.852,-764.859 348.576,-762.277 349.209,-769.249"/>
</g>
<!-- Node26 -->
<g id="node26" class="node"><title>Node26</title>
<g id="a_node26"><a xlink:href="classscram_1_1core_1_1Zbdd.xhtml#ae819f5439416479971018ac134233091" target="_top" xlink:title="Logs properties of the Zbdd. ">
<polygon fill="white" stroke="black" points="182,-214.5 182,-233.5 310,-233.5 310,-214.5 182,-214.5"/>
<text text-anchor="middle" x="246" y="-221.5" font-family="Helvetica,sans-Serif" font-size="10.00">scram::core::Zbdd::Log</text>
</a>
</g>
</g>
<!-- Node1&#45;&gt;Node26 -->
<g id="edge48" class="edge"><title>Node1&#45;&gt;Node26</title>
<path fill="none" stroke="midnightblue" d="M73.9719,-372.245C86.08,-346.948 122.052,-278.79 173,-244 176.556,-241.572 180.399,-239.437 184.397,-237.561"/>
<polygon fill="midnightblue" stroke="midnightblue" points="186.024,-240.676 193.94,-233.635 183.36,-234.203 186.024,-240.676"/>
</g>
<!-- Node27 -->
<g id="node27" class="node"><title>Node27</title>
<g id="a_node27"><a xlink:href="classscram_1_1core_1_1Gate.xhtml#a93fa477d60140843c4abae7de52fffa1" target="_top" xlink:title="scram::core::Gate::\lmodule">
<polygon fill="white" stroke="black" points="191.5,-165 191.5,-195 300.5,-195 300.5,-165 191.5,-165"/>
<text text-anchor="start" x="199.5" y="-183" font-family="Helvetica,sans-Serif" font-size="10.00">scram::core::Gate::</text>
<text text-anchor="middle" x="246" y="-172" font-family="Helvetica,sans-Serif" font-size="10.00">module</text>
</a>
</g>
</g>
<!-- Node1&#45;&gt;Node27 -->
<g id="edge51" class="edge"><title>Node1&#45;&gt;Node27</title>
<path fill="none" stroke="midnightblue" d="M72.4546,-372.358C81.9793,-342.856 114.698,-252.917 173,-205 175.878,-202.634 178.994,-200.487 182.261,-198.538"/>
<polygon fill="midnightblue" stroke="midnightblue" points="183.984,-201.586 191.201,-193.829 180.722,-195.393 183.984,-201.586"/>
</g>
<!-- Node28 -->
<g id="node28" class="node"><title>Node28</title>
<g id="a_node28"><a xlink:href="classscram_1_1core_1_1Bdd.xhtml#a084e72279927831ec728a1542861dfec" target="_top" xlink:title="scram::core::Bdd::modules">
<polygon fill="white" stroke="black" points="173,-126.5 173,-145.5 319,-145.5 319,-126.5 173,-126.5"/>
<text text-anchor="middle" x="246" y="-133.5" font-family="Helvetica,sans-Serif" font-size="10.00">scram::core::Bdd::modules</text>
</a>
</g>
</g>
<!-- Node1&#45;&gt;Node28 -->
<g id="edge52" class="edge"><title>Node1&#45;&gt;Node28</title>
<path fill="none" stroke="midnightblue" d="M71.0134,-372.094C76.9233,-336.901 101.747,-216.767 173,-156 175.566,-153.811 178.354,-151.861 181.292,-150.123"/>
<polygon fill="midnightblue" stroke="midnightblue" points="183.109,-153.127 190.484,-145.52 179.975,-146.868 183.109,-153.127"/>
</g>
<!-- Node29 -->
<g id="node29" class="node"><title>Node29</title>
<g id="a_node29"><a xlink:href="classscram_1_1core_1_1Zbdd.xhtml#ab71281cd644eb442dd2d3ee1c5df56c4" target="_top" xlink:title="scram::core::Zbdd::\lsettings">
<polygon fill="white" stroke="black" points="190.5,-77 190.5,-107 301.5,-107 301.5,-77 190.5,-77"/>
<text text-anchor="start" x="198.5" y="-95" font-family="Helvetica,sans-Serif" font-size="10.00">scram::core::Zbdd::</text>
<text text-anchor="middle" x="246" y="-84" font-family="Helvetica,sans-Serif" font-size="10.00">settings</text>
</a>
</g>
</g>
<!-- Node1&#45;&gt;Node29 -->
<g id="edge55" class="edge"><title>Node1&#45;&gt;Node29</title>
<path fill="none" stroke="midnightblue" d="M70.3923,-372.483C74.4531,-334.547 94.5355,-192.527 173,-117 175.556,-114.54 178.367,-112.32 181.35,-110.319"/>
<polygon fill="midnightblue" stroke="midnightblue" points="183.242,-113.268 190.149,-105.234 179.739,-107.207 183.242,-113.268"/>
</g>
<!-- Node30 -->
<g id="node30" class="node"><title>Node30</title>
<g id="a_node30"><a xlink:href="classscram_1_1core_1_1Gate.xhtml#ad88384625a5cdf44af140edefd250869" target="_top" xlink:title="scram::core::Gate::type">
<polygon fill="white" stroke="black" points="181,-38.5 181,-57.5 311,-57.5 311,-38.5 181,-38.5"/>
<text text-anchor="middle" x="246" y="-45.5" font-family="Helvetica,sans-Serif" font-size="10.00">scram::core::Gate::type</text>
</a>
</g>
</g>
<!-- Node1&#45;&gt;Node30 -->
<g id="edge56" class="edge"><title>Node1&#45;&gt;Node30</title>
<path fill="none" stroke="midnightblue" d="M69.5534,-372.324C70.3362,-329.498 79.3634,-155.229 173,-67 174.517,-65.5704 176.129,-64.2455 177.817,-63.0178"/>
<polygon fill="midnightblue" stroke="midnightblue" points="180.017,-65.7814 186.814,-57.6545 176.433,-59.7686 180.017,-65.7814"/>
</g>
<!-- Node31 -->
<g id="node31" class="node"><title>Node31</title>
<g id="a_node31"><a xlink:href="classscram_1_1core_1_1Zbdd.xhtml#a7dd59951e7bc8fd08c75feb44bc496e2" target="_top" xlink:title="Converts Reduced Ordered BDD into Zero&#45;Suppressed BDD. ">
<polygon fill="white" stroke="black" points="177.5,-0.5 177.5,-19.5 314.5,-19.5 314.5,-0.5 177.5,-0.5"/>
<text text-anchor="middle" x="246" y="-7.5" font-family="Helvetica,sans-Serif" font-size="10.00">scram::core::Zbdd::Zbdd</text>
</a>
</g>
</g>
<!-- Node1&#45;&gt;Node31 -->
<g id="edge57" class="edge"><title>Node1&#45;&gt;Node31</title>
<path fill="none" stroke="midnightblue" d="M69.1623,-372.439C68.1001,-326.83 69.7907,-129.439 173,-29 174.494,-27.5461 176.085,-26.2 177.756,-24.9539"/>
<polygon fill="midnightblue" stroke="midnightblue" points="179.962,-27.7084 186.686,-19.5201 176.323,-21.7286 179.962,-27.7084"/>
</g>
<!-- Node5 -->
<g id="node5" class="node"><title>Node5</title>
<g id="a_node5"><a xlink:href="structscram_1_1core_1_1IntrusivePtrCast.xhtml#adc53e5b89cace18e05bac95316da7d91" target="_top" xlink:title="scram::core::IntrusivePtr\lCast\&lt; SetNode \&gt;::Ptr">
<polygon fill="white" stroke="black" points="512.5,-577 512.5,-607 646.5,-607 646.5,-577 512.5,-577"/>
<text text-anchor="start" x="520.5" y="-595" font-family="Helvetica,sans-Serif" font-size="10.00">scram::core::IntrusivePtr</text>
<text text-anchor="middle" x="579.5" y="-584" font-family="Helvetica,sans-Serif" font-size="10.00">Cast&lt; SetNode &gt;::Ptr</text>
</a>
</g>
</g>
<!-- Node4&#45;&gt;Node5 -->
<g id="edge4" class="edge"><title>Node4&#45;&gt;Node5</title>
<path fill="none" stroke="midnightblue" d="M310.133,-581.476C364.804,-583.62 444.03,-586.727 502.234,-589.009"/>
<polygon fill="midnightblue" stroke="midnightblue" points="502.351,-592.516 512.48,-589.411 502.625,-585.522 502.351,-592.516"/>
</g>
<!-- Node4&#45;&gt;Node6 -->
<g id="edge5" class="edge"><title>Node4&#45;&gt;Node6</title>
<path fill="none" stroke="midnightblue" d="M263.354,-594.26C283.24,-611.668 318.67,-639.128 355,-650 480.181,-687.462 529.362,-702.542 649,-650 689.298,-632.302 720.669,-589.955 737.45,-562.981"/>
<polygon fill="midnightblue" stroke="midnightblue" points="740.61,-564.519 742.769,-554.147 734.612,-560.909 740.61,-564.519"/>
</g>
<!-- Node7 -->
<g id="node7" class="node"><title>Node7</title>
<g id="a_node7"><a xlink:href="classscram_1_1core_1_1SetNode.xhtml#a2d7f99792b82961df2e5ecfcd735bb5f" target="_top" xlink:title="scram::core::SetNode\l::max_set_order">
<polygon fill="white" stroke="black" points="691,-473 691,-503 813,-503 813,-473 691,-473"/>
<text text-anchor="start" x="699" y="-491" font-family="Helvetica,sans-Serif" font-size="10.00">scram::core::SetNode</text>
<text text-anchor="middle" x="752" y="-480" font-family="Helvetica,sans-Serif" font-size="10.00">::max_set_order</text>
</a>
</g>
</g>
<!-- Node4&#45;&gt;Node7 -->
<g id="edge6" class="edge"><title>Node4&#45;&gt;Node7</title>
<path fill="none" stroke="midnightblue" d="M307.208,-594.044C405.655,-617.131 595.492,-654.858 649,-617 688.245,-589.234 651.85,-549.816 685,-515 687.262,-512.624 689.763,-510.451 692.43,-508.463"/>
<polygon fill="midnightblue" stroke="midnightblue" points="694.336,-511.399 700.85,-503.043 690.547,-505.513 694.336,-511.399"/>
</g>
<!-- Node4&#45;&gt;Node8 -->
<g id="edge7" class="edge"><title>Node4&#45;&gt;Node8</title>
<path fill="none" stroke="midnightblue" d="M263.573,-563.969C292.967,-537.312 354.365,-481.63 388.773,-450.425"/>
<polygon fill="midnightblue" stroke="midnightblue" points="391.442,-452.73 396.498,-443.419 386.739,-447.545 391.442,-452.73"/>
</g>
<!-- Node4&#45;&gt;Node9 -->
<g id="edge8" class="edge"><title>Node4&#45;&gt;Node9</title>
<path fill="none" stroke="midnightblue" d="M286.881,-563.91C310.067,-555.137 339.481,-544.007 364.122,-534.684"/>
<polygon fill="midnightblue" stroke="midnightblue" points="365.542,-537.888 373.656,-531.076 363.065,-531.341 365.542,-537.888"/>
</g>
<!-- Node9&#45;&gt;Node5 -->
<g id="edge9" class="edge"><title>Node9&#45;&gt;Node5</title>
<path fill="none" stroke="midnightblue" d="M445.569,-531.019C464.065,-540.162 488.302,-551.972 510,-562 517.708,-565.562 525.949,-569.263 533.947,-572.798"/>
<polygon fill="midnightblue" stroke="midnightblue" points="532.615,-576.036 543.179,-576.854 535.431,-569.627 532.615,-576.036"/>
</g>
<!-- Node9&#45;&gt;Node6 -->
<g id="edge10" class="edge"><title>Node9&#45;&gt;Node6</title>
<path fill="none" stroke="midnightblue" d="M470.151,-514.606C525.731,-516.504 612.318,-522.232 674.658,-528.001"/>
<polygon fill="midnightblue" stroke="midnightblue" points="674.55,-531.506 684.835,-528.964 675.209,-524.537 674.55,-531.506"/>
</g>
<!-- Node9&#45;&gt;Node6 -->
<g id="edge14" class="edge"><title>Node9&#45;&gt;Node6</title>
<path fill="none" stroke="midnightblue" d="M470.151,-524.887C525.731,-530.609 612.318,-536.754 674.658,-539.532"/>
<polygon fill="midnightblue" stroke="midnightblue" points="674.695,-543.037 684.835,-539.964 674.992,-536.043 674.695,-543.037"/>
</g>
<!-- Node10 -->
<g id="node10" class="node"><title>Node10</title>
<g id="a_node10"><a xlink:href="classscram_1_1core_1_1Zbdd.xhtml#a42af18229ba2e80201bc0fdac07b7091" target="_top" xlink:title="Finds or adds a unique SetNode in the ZBDD. ">
<polygon fill="white" stroke="black" points="524,-471 524,-501 635,-501 635,-471 524,-471"/>
<text text-anchor="start" x="532" y="-489" font-family="Helvetica,sans-Serif" font-size="10.00">scram::core::Zbdd::</text>
<text text-anchor="middle" x="579.5" y="-478" font-family="Helvetica,sans-Serif" font-size="10.00">FindOrAddVertex</text>
</a>
</g>
</g>
<!-- Node9&#45;&gt;Node10 -->
<g id="edge11" class="edge"><title>Node9&#45;&gt;Node10</title>
<path fill="none" stroke="midnightblue" d="M470.23,-505.927C484.282,-503.341 499.529,-500.535 514.024,-497.867"/>
<polygon fill="midnightblue" stroke="midnightblue" points="514.713,-501.299 523.914,-496.046 513.446,-494.414 514.713,-501.299"/>
</g>
<!-- Node9&#45;&gt;Node11 -->
<g id="edge15" class="edge"><title>Node9&#45;&gt;Node11</title>
<path fill="none" stroke="midnightblue" d="M427.751,-531.183C456.081,-566.291 526.263,-653.265 559.918,-694.973"/>
<polygon fill="midnightblue" stroke="midnightblue" points="557.325,-697.332 566.329,-702.917 562.773,-692.936 557.325,-697.332"/>
</g>
<!-- Node12 -->
<g id="node12" class="node"><title>Node12</title>
<g id="a_node12"><a xlink:href="classscram_1_1core_1_1Terminal.xhtml#a7a25b0b40498f4876571a5dac4e724c3" target="_top" xlink:title="scram::core::Terminal\l::value">
<polygon fill="white" stroke="black" points="520,-422 520,-452 639,-452 639,-422 520,-422"/>
<text text-anchor="start" x="528" y="-440" font-family="Helvetica,sans-Serif" font-size="10.00">scram::core::Terminal</text>
<text text-anchor="middle" x="579.5" y="-429" font-family="Helvetica,sans-Serif" font-size="10.00">::value</text>
</a>
</g>
</g>
<!-- Node9&#45;&gt;Node12 -->
<g id="edge16" class="edge"><title>Node9&#45;&gt;Node12</title>
<path fill="none" stroke="midnightblue" d="M446.521,-500.923C455.5,-496.337 465.24,-491.143 474,-486 490.582,-476.263 492.847,-470.691 510,-462 514.224,-459.86 518.676,-457.811 523.2,-455.873"/>
<polygon fill="midnightblue" stroke="midnightblue" points="524.603,-459.081 532.535,-452.057 521.954,-452.601 524.603,-459.081"/>
</g>
<!-- Node9&#45;&gt;Node14 -->
<g id="edge18" class="edge"><title>Node9&#45;&gt;Node14</title>
<path fill="none" stroke="midnightblue" d="M435.032,-500.879C448.421,-489.321 465.283,-472.155 474,-453 505.38,-384.048 462.968,-173.389 510,-114 510.704,-113.111 511.443,-112.255 512.214,-111.43"/>
<polygon fill="midnightblue" stroke="midnightblue" points="514.603,-113.993 519.923,-104.83 510.05,-108.675 514.603,-113.993"/>
</g>
<!-- Node15 -->
<g id="node15" class="node"><title>Node15</title>
<g id="a_node15"><a xlink:href="classscram_1_1core_1_1NonTerminal.xhtml#aeeaafd82ae5890a7ec3462c68ffc8628" target="_top" xlink:title="scram::core::NonTerminal\l::index">
<polygon fill="white" stroke="black" points="510,-222 510,-252 649,-252 649,-222 510,-222"/>
<text text-anchor="start" x="518" y="-240" font-family="Helvetica,sans-Serif" font-size="10.00">scram::core::NonTerminal</text>
<text text-anchor="middle" x="579.5" y="-229" font-family="Helvetica,sans-Serif" font-size="10.00">::index</text>
</a>
</g>
</g>
<!-- Node9&#45;&gt;Node15 -->
<g id="edge19" class="edge"><title>Node9&#45;&gt;Node15</title>
<path fill="none" stroke="midnightblue" d="M434.29,-500.904C447.497,-489.236 464.452,-471.922 474,-453 512.917,-375.879 454.114,-327.87 510,-262 511.024,-260.793 512.111,-259.645 513.253,-258.552"/>
<polygon fill="midnightblue" stroke="midnightblue" points="515.768,-261.029 521.491,-252.113 511.457,-255.513 515.768,-261.029"/>
</g>
<!-- Node16 -->
<g id="node16" class="node"><title>Node16</title>
<g id="a_node16"><a xlink:href="classscram_1_1core_1_1NonTerminal.xhtml#a9230422e92d086c34f67bcb864bfc8a9" target="_top" xlink:title="scram::core::NonTerminal\l::module">
<polygon fill="white" stroke="black" points="510,-271 510,-301 649,-301 649,-271 510,-271"/>
<text text-anchor="start" x="518" y="-289" font-family="Helvetica,sans-Serif" font-size="10.00">scram::core::NonTerminal</text>
<text text-anchor="middle" x="579.5" y="-278" font-family="Helvetica,sans-Serif" font-size="10.00">::module</text>
</a>
</g>
</g>
<!-- Node9&#45;&gt;Node16 -->
<g id="edge20" class="edge"><title>Node9&#45;&gt;Node16</title>
<path fill="none" stroke="midnightblue" d="M433.669,-500.97C446.74,-489.209 463.798,-471.748 474,-453 505.119,-395.811 466.36,-359.318 510,-311 511.196,-309.676 512.468,-308.422 513.804,-307.234"/>
<polygon fill="midnightblue" stroke="midnightblue" points="516.104,-309.886 522.07,-301.131 511.946,-304.255 516.104,-309.886"/>
</g>
<!-- Node17 -->
<g id="node17" class="node"><title>Node17</title>
<g id="a_node17"><a xlink:href="classscram_1_1core_1_1NonTerminal.xhtml#adcdd0c5114aa6a1d32a03928adc07c49" target="_top" xlink:title="scram::core::NonTerminal\l::coherent">
<polygon fill="white" stroke="black" points="510,-320 510,-350 649,-350 649,-320 510,-320"/>
<text text-anchor="start" x="518" y="-338" font-family="Helvetica,sans-Serif" font-size="10.00">scram::core::NonTerminal</text>
<text text-anchor="middle" x="579.5" y="-327" font-family="Helvetica,sans-Serif" font-size="10.00">::coherent</text>
</a>
</g>
</g>
<!-- Node9&#45;&gt;Node17 -->
<g id="edge21" class="edge"><title>Node9&#45;&gt;Node17</title>
<path fill="none" stroke="midnightblue" d="M429.787,-500.816C441.694,-488.113 459.06,-469.474 474,-453 503.763,-420.18 537.679,-381.674 558.589,-357.802"/>
<polygon fill="midnightblue" stroke="midnightblue" points="561.463,-359.833 565.415,-350.002 556.196,-355.223 561.463,-359.833"/>
</g>
<!-- Node10&#45;&gt;Node6 -->
<g id="edge12" class="edge"><title>Node10&#45;&gt;Node6</title>
<path fill="none" stroke="midnightblue" d="M628.902,-501.046C648.79,-507.228 671.991,-514.44 692.795,-520.907"/>
<polygon fill="midnightblue" stroke="midnightblue" points="691.888,-524.29 702.477,-523.916 693.966,-517.606 691.888,-524.29"/>
</g>
<!-- Node10&#45;&gt;Node7 -->
<g id="edge13" class="edge"><title>Node10&#45;&gt;Node7</title>
<path fill="none" stroke="midnightblue" d="M635.386,-486.644C649.781,-486.813 665.505,-486.997 680.59,-487.174"/>
<polygon fill="midnightblue" stroke="midnightblue" points="680.866,-490.677 690.907,-487.295 680.949,-483.678 680.866,-490.677"/>
</g>
<!-- Node13 -->
<g id="node13" class="node"><title>Node13</title>
<g id="a_node13"><a xlink:href="classscram_1_1core_1_1Vertex.xhtml#a8a4a6e9871c7b80b9951fea57617d438" target="_top" xlink:title="scram::core::Vertex::id">
<polygon fill="white" stroke="black" points="689.5,-427.5 689.5,-446.5 814.5,-446.5 814.5,-427.5 689.5,-427.5"/>
<text text-anchor="middle" x="752" y="-434.5" font-family="Helvetica,sans-Serif" font-size="10.00">scram::core::Vertex::id</text>
</a>
</g>
</g>
<!-- Node12&#45;&gt;Node13 -->
<g id="edge17" class="edge"><title>Node12&#45;&gt;Node13</title>
<path fill="none" stroke="midnightblue" d="M639.176,-437C652.072,-437 665.869,-437 679.215,-437"/>
<polygon fill="midnightblue" stroke="midnightblue" points="679.31,-440.5 689.31,-437 679.31,-433.5 679.31,-440.5"/>
</g>
<!-- Node18&#45;&gt;Node5 -->
<g id="edge23" class="edge"><title>Node18&#45;&gt;Node5</title>
<path fill="none" stroke="midnightblue" d="M266.158,-487.158C286.909,-502.852 321.545,-526.996 355,-541 402.002,-560.675 457.891,-573.426 502.023,-581.258"/>
<polygon fill="midnightblue" stroke="midnightblue" points="501.662,-584.748 512.112,-583 502.853,-577.85 501.662,-584.748"/>
</g>
<!-- Node18&#45;&gt;Node8 -->
<g id="edge25" class="edge"><title>Node18&#45;&gt;Node8</title>
<path fill="none" stroke="midnightblue" d="M303.834,-456.981C317.688,-453.32 332.632,-449.371 346.895,-445.601"/>
<polygon fill="midnightblue" stroke="midnightblue" points="347.866,-448.965 356.639,-443.026 346.077,-442.197 347.866,-448.965"/>
</g>
<!-- Node18&#45;&gt;Node9 -->
<g id="edge26" class="edge"><title>Node18&#45;&gt;Node9</title>
<path fill="none" stroke="midnightblue" d="M303.834,-487.019C318.44,-490.879 334.256,-495.059 349.21,-499.01"/>
<polygon fill="midnightblue" stroke="midnightblue" points="348.328,-502.398 358.891,-501.569 350.117,-495.63 348.328,-502.398"/>
</g>
<!-- Node18&#45;&gt;Node12 -->
<g id="edge24" class="edge"><title>Node18&#45;&gt;Node12</title>
<path fill="none" stroke="midnightblue" d="M318.185,-467.298C362.981,-464.028 421.962,-459.154 474,-453 485.605,-451.627 497.902,-449.948 509.829,-448.199"/>
<polygon fill="midnightblue" stroke="midnightblue" points="510.363,-451.658 519.736,-446.719 509.329,-444.735 510.363,-451.658"/>
</g>
<!-- Node19&#45;&gt;Node6 -->
<g id="edge29" class="edge"><title>Node19&#45;&gt;Node6</title>
<path fill="none" stroke="midnightblue" d="M301.866,-356.498C399.698,-358.533 598.733,-368.224 649,-413 684.272,-444.419 652.099,-479.106 685,-513 686.839,-514.894 688.833,-516.654 690.942,-518.288"/>
<polygon fill="midnightblue" stroke="midnightblue" points="689.299,-521.397 699.573,-523.986 693.156,-515.555 689.299,-521.397"/>
</g>
<!-- Node19&#45;&gt;Node8 -->
<g id="edge39" class="edge"><title>Node19&#45;&gt;Node8</title>
<path fill="none" stroke="midnightblue" d="M281.904,-371.094C307.323,-382.086 341.946,-397.058 369.298,-408.885"/>
<polygon fill="midnightblue" stroke="midnightblue" points="368.074,-412.17 378.642,-412.926 370.853,-405.745 368.074,-412.17"/>
</g>
<!-- Node19&#45;&gt;Node12 -->
<g id="edge28" class="edge"><title>Node19&#45;&gt;Node12</title>
<path fill="none" stroke="midnightblue" d="M301.933,-366.059C348.127,-374.888 415.76,-388.686 474,-404 490.533,-408.347 508.333,-413.708 524.475,-418.836"/>
<polygon fill="midnightblue" stroke="midnightblue" points="523.694,-422.261 534.285,-421.987 525.835,-415.596 523.694,-422.261"/>
</g>
<!-- Node19&#45;&gt;Node15 -->
<g id="edge40" class="edge"><title>Node19&#45;&gt;Node15</title>
<path fill="none" stroke="midnightblue" d="M289.163,-340.919C299.229,-336.649 309.735,-331.614 319,-326 336.813,-315.207 336.492,-305.551 355,-296 400.339,-272.602 455.768,-257.893 500.083,-249.013"/>
<polygon fill="midnightblue" stroke="midnightblue" points="500.789,-252.441 509.937,-247.097 499.453,-245.569 500.789,-252.441"/>
</g>
<!-- Node19&#45;&gt;Node16 -->
<g id="edge38" class="edge"><title>Node19&#45;&gt;Node16</title>
<path fill="none" stroke="midnightblue" d="M291.565,-340.93C310.902,-334.77 333.908,-327.945 355,-323 402.503,-311.862 456.451,-302.831 499.442,-296.479"/>
<polygon fill="midnightblue" stroke="midnightblue" points="500.171,-299.91 509.562,-295.003 499.161,-292.983 500.171,-299.91"/>
</g>
<!-- Node19&#45;&gt;Node17 -->
<g id="edge41" class="edge"><title>Node19&#45;&gt;Node17</title>
<path fill="none" stroke="midnightblue" d="M301.554,-341.445C318.546,-337.57 337.435,-333.928 355,-332 402.853,-326.747 456.811,-327.29 499.721,-329.244"/>
<polygon fill="midnightblue" stroke="midnightblue" points="499.66,-332.746 509.819,-329.739 500.003,-325.754 499.66,-332.746"/>
</g>
<!-- Node20 -->
<g id="node20" class="node"><title>Node20</title>
<g id="a_node20"><a xlink:href="classscram_1_1core_1_1NonTerminal.xhtml#a7b184b2ba68a289aae9f3737f1d13b97" target="_top" xlink:title="scram::core::NonTerminal\l::high">
<polygon fill="white" stroke="black" points="510,-124 510,-154 649,-154 649,-124 510,-124"/>
<text text-anchor="start" x="518" y="-142" font-family="Helvetica,sans-Serif" font-size="10.00">scram::core::NonTerminal</text>
<text text-anchor="middle" x="579.5" y="-131" font-family="Helvetica,sans-Serif" font-size="10.00">::high</text>
</a>
</g>
</g>
<!-- Node19&#45;&gt;Node20 -->
<g id="edge30" class="edge"><title>Node19&#45;&gt;Node20</title>
<path fill="none" stroke="midnightblue" d="M300.175,-340.926C307.279,-337.019 313.869,-332.124 319,-326 366.365,-269.462 300.125,-213.283 355,-164 393.497,-129.426 452.032,-123.949 499.542,-126.708"/>
<polygon fill="midnightblue" stroke="midnightblue" points="499.586,-130.22 509.809,-127.44 500.084,-123.238 499.586,-130.22"/>
</g>
<!-- Node21 -->
<g id="node21" class="node"><title>Node21</title>
<g id="a_node21"><a xlink:href="classscram_1_1core_1_1Zbdd.xhtml#aed1eaa96df30e6eaa32e9e51427c9743" target="_top" xlink:title="scram::core::Zbdd::\lmodules">
<polygon fill="white" stroke="black" points="359,-173 359,-203 470,-203 470,-173 359,-173"/>
<text text-anchor="start" x="367" y="-191" font-family="Helvetica,sans-Serif" font-size="10.00">scram::core::Zbdd::</text>
<text text-anchor="middle" x="414.5" y="-180" font-family="Helvetica,sans-Serif" font-size="10.00">modules</text>
</a>
</g>
</g>
<!-- Node19&#45;&gt;Node21 -->
<g id="edge31" class="edge"><title>Node19&#45;&gt;Node21</title>
<path fill="none" stroke="midnightblue" d="M298.895,-340.83C306.344,-336.921 313.376,-332.05 319,-326 353.447,-288.94 322.045,-256.392 355,-218 357.966,-214.545 361.427,-211.439 365.159,-208.656"/>
<polygon fill="midnightblue" stroke="midnightblue" points="367.229,-211.483 373.67,-203.071 363.389,-205.631 367.229,-211.483"/>
</g>
<!-- Node22 -->
<g id="node22" class="node"><title>Node22</title>
<g id="a_node22"><a xlink:href="classscram_1_1core_1_1NonTerminal.xhtml#adeb100923176ebd5f820c75b79280796" target="_top" xlink:title="scram::core::NonTerminal\l\&lt; SetNode \&gt;::low">
<polygon fill="white" stroke="black" points="510,-26 510,-56 649,-56 649,-26 510,-26"/>
<text text-anchor="start" x="518" y="-44" font-family="Helvetica,sans-Serif" font-size="10.00">scram::core::NonTerminal</text>
<text text-anchor="middle" x="579.5" y="-33" font-family="Helvetica,sans-Serif" font-size="10.00">&lt; SetNode &gt;::low</text>
</a>
</g>
</g>
<!-- Node19&#45;&gt;Node22 -->
<g id="edge42" class="edge"><title>Node19&#45;&gt;Node22</title>
<path fill="none" stroke="midnightblue" d="M271.4,-340.787C287.39,-329.535 307.406,-312.773 319,-293 358.064,-226.377 304.617,-181.533 355,-123 391.325,-80.7994 451.313,-60.306 499.999,-50.3599"/>
<polygon fill="midnightblue" stroke="midnightblue" points="500.734,-53.7827 509.889,-48.4507 499.407,-46.9096 500.734,-53.7827"/>
</g>
<!-- Node21&#45;&gt;Node15 -->
<g id="edge32" class="edge"><title>Node21&#45;&gt;Node15</title>
<path fill="none" stroke="midnightblue" d="M465.735,-203.101C482.391,-208.108 501.1,-213.732 518.419,-218.939"/>
<polygon fill="midnightblue" stroke="midnightblue" points="517.846,-222.421 528.43,-221.948 519.861,-215.718 517.846,-222.421"/>
</g>
<!-- Node21&#45;&gt;Node16 -->
<g id="edge36" class="edge"><title>Node21&#45;&gt;Node16</title>
<path fill="none" stroke="midnightblue" d="M431.4,-203.148C449.299,-219.526 479.838,-245.496 510,-262 513.23,-263.767 516.615,-265.444 520.078,-267.027"/>
<polygon fill="midnightblue" stroke="midnightblue" points="518.8,-270.288 529.371,-271 521.552,-263.851 518.8,-270.288"/>
</g>
<!-- Node21&#45;&gt;Node17 -->
<g id="edge37" class="edge"><title>Node21&#45;&gt;Node17</title>
<path fill="none" stroke="midnightblue" d="M423.279,-203.143C437.246,-228.9 468.984,-281.323 510,-311 512.055,-312.487 514.209,-313.888 516.436,-315.208"/>
<polygon fill="midnightblue" stroke="midnightblue" points="514.844,-318.325 525.321,-319.906 518.117,-312.137 514.844,-318.325"/>
</g>
<!-- Node21&#45;&gt;Node20 -->
<g id="edge33" class="edge"><title>Node21&#45;&gt;Node20</title>
<path fill="none" stroke="midnightblue" d="M465.735,-172.899C482.391,-167.892 501.1,-162.268 518.419,-157.061"/>
<polygon fill="midnightblue" stroke="midnightblue" points="519.861,-160.282 528.43,-154.052 517.846,-153.579 519.861,-160.282"/>
</g>
<!-- Node21&#45;&gt;Node22 -->
<g id="edge34" class="edge"><title>Node21&#45;&gt;Node22</title>
<path fill="none" stroke="midnightblue" d="M423.279,-172.857C437.246,-147.1 468.984,-94.6765 510,-65 512.055,-63.5134 514.209,-62.1123 516.436,-60.7923"/>
<polygon fill="midnightblue" stroke="midnightblue" points="518.117,-63.863 525.321,-56.0944 514.844,-57.6748 518.117,-63.863"/>
</g>
<!-- Node23 -->
<g id="node23" class="node"><title>Node23</title>
<g id="a_node23"><a xlink:href="classscram_1_1core_1_1NonTerminal.xhtml#af5853746ad388f479a7aa45c5d843466" target="_top" xlink:title="scram::core::NonTerminal\l\&lt; SetNode \&gt;::order">
<polygon fill="white" stroke="black" points="510,-173 510,-203 649,-203 649,-173 510,-173"/>
<text text-anchor="start" x="518" y="-191" font-family="Helvetica,sans-Serif" font-size="10.00">scram::core::NonTerminal</text>
<text text-anchor="middle" x="579.5" y="-180" font-family="Helvetica,sans-Serif" font-size="10.00">&lt; SetNode &gt;::order</text>
</a>
</g>
</g>
<!-- Node21&#45;&gt;Node23 -->
<g id="edge35" class="edge"><title>Node21&#45;&gt;Node23</title>
<path fill="none" stroke="midnightblue" d="M470.23,-188C479.634,-188 489.573,-188 499.464,-188"/>
<polygon fill="midnightblue" stroke="midnightblue" points="499.729,-191.5 509.729,-188 499.729,-184.5 499.729,-191.5"/>
</g>
<!-- Node25&#45;&gt;Node6 -->
<g id="edge45" class="edge"><title>Node25&#45;&gt;Node6</title>
<path fill="none" stroke="midnightblue" d="M470.322,-767.522C520.94,-775.002 596.069,-777.784 649,-743 711.976,-701.616 737.689,-609.024 746.738,-564.229"/>
<polygon fill="midnightblue" stroke="midnightblue" points="750.219,-564.657 748.648,-554.18 743.342,-563.35 750.219,-564.657"/>
</g>
<!-- Node25&#45;&gt;Node11 -->
<g id="edge46" class="edge"><title>Node25&#45;&gt;Node11</title>
<path fill="none" stroke="midnightblue" d="M470.23,-743.241C482.417,-740.4 495.503,-737.349 508.218,-734.385"/>
<polygon fill="midnightblue" stroke="midnightblue" points="509.366,-737.711 518.31,-732.032 507.777,-730.894 509.366,-737.711"/>
</g>
</g>
</svg>
