<?xml version="1.0" encoding="UTF-8" standalone="no"?>
<!DOCTYPE svg PUBLIC "-//W3C//DTD SVG 1.1//EN"
 "http://www.w3.org/Graphics/SVG/1.1/DTD/svg11.dtd">
<!-- Generated by graphviz version 2.38.0 (20140413.2041)
 -->
<!-- Title: scram::core::ProductContainer::empty Pages: 1 -->
<!--zoomable 159 -->
<svg id="main" version="1.1" xmlns="http://www.w3.org/2000/svg" xmlns:xlink="http://www.w3.org/1999/xlink" xml:space="preserve" onload="init(evt)">
<style type="text/css"><![CDATA[
.edge:hover path { stroke: red; }
.edge:hover polygon { stroke: red; fill: red; }
]]></style>
<script type="text/javascript"><![CDATA[
var edges = document.getElementsByTagName('g');
if (edges && edges.length) {
  for (var i=0;i<edges.length;i++) {
    if (edges[i].id.substr(0,4)=='edge') {
      edges[i].setAttribute('class','edge');
    }
  }
}
]]></script>
        <defs>
                <circle id="rim" cx="0" cy="0" r="7"/>
                <circle id="rim2" cx="0" cy="0" r="3.5"/>
                <g id="zoomPlus">
                        <use xlink:href="#rim" fill="#404040">
                                <set attributeName="fill" to="#808080" begin="zoomplus.mouseover" end="zoomplus.mouseout"/>
                        </use>
                        <path d="M-4,0h8M0,-4v8" fill="none" stroke="white" stroke-width="1.5" pointer-events="none"/>
                </g>
                <g id="zoomMin">
                        <use xlink:href="#rim" fill="#404040">
                                <set attributeName="fill" to="#808080" begin="zoomminus.mouseover" end="zoomminus.mouseout"/>
                        </use>
                        <path d="M-4,0h8" fill="none" stroke="white" stroke-width="1.5" pointer-events="none"/>
                </g>
                <g id="dirArrow">
                        <path fill="none" stroke="white" stroke-width="1.5" d="M0,-3.0v7 M-2.5,-0.5L0,-3.0L2.5,-0.5"/>
                </g>
               <g id="resetDef">
                       <use xlink:href="#rim2" fill="#404040">
                               <set attributeName="fill" to="#808080" begin="reset.mouseover" end="reset.mouseout"/>
                       </use>
               </g>
        </defs>

<script type="text/javascript">
var viewWidth = 717;
var viewHeight = 159;
var sectionId = 'dynsection-1';
</script>
<script xlink:href="svgpan.js"/>
<svg id="graph" class="graph">
<g id="viewport">
<title>scram::core::ProductContainer::empty</title>
<polygon fill="white" stroke="none" points="-4,4 -4,-155 713,-155 713,4 -4,4"/>
<!-- Node1 -->
<g id="node1" class="node"><title>Node1</title>
<polygon fill="#bfbfbf" stroke="black" points="0,-0.5 0,-30.5 163,-30.5 163,-0.5 0,-0.5"/>
<text text-anchor="start" x="8" y="-18.5" font-family="Helvetica,sans-Serif" font-size="10.00">scram::core::ProductContainer</text>
<text text-anchor="middle" x="81.5" y="-7.5" font-family="Helvetica,sans-Serif" font-size="10.00">::empty</text>
</g>
<!-- Node2 -->
<g id="node2" class="node"><title>Node2</title>
<g id="a_node2"><a xlink:href="fault__tree__analysis_8cc.xhtml#af405213a7ee34a3dd833ce5298983b04" target="_top" xlink:title="Prints a collection of products to the standard error. ">
<polygon fill="white" stroke="black" points="199,-28 199,-47 300,-47 300,-28 199,-28"/>
<text text-anchor="middle" x="249.5" y="-35" font-family="Helvetica,sans-Serif" font-size="10.00">scram::core::Print</text>
</a>
</g>
</g>
<!-- Node1&#45;&gt;Node2 -->
<g id="edge1" class="edge"><title>Node1&#45;&gt;Node2</title>
<path fill="none" stroke="midnightblue" d="M173.092,-27.5061C181.945,-28.6794 190.682,-29.8373 198.895,-30.9258"/>
<polygon fill="midnightblue" stroke="midnightblue" points="173.442,-24.022 163.069,-26.1778 172.522,-30.9613 173.442,-24.022"/>
</g>
<!-- Node7 -->
<g id="node7" class="node"><title>Node7</title>
<g id="a_node7"><a xlink:href="reporter_8cc.xhtml#a73f9569f4c2e2b6a3eac8d2c01b81943" target="_top" xlink:title="Describes all performed analyses deduced from settings. ">
<polygon fill="white" stroke="black" points="535,-0.5 535,-30.5 709,-30.5 709,-0.5 535,-0.5"/>
<text text-anchor="start" x="543" y="-18.5" font-family="Helvetica,sans-Serif" font-size="10.00">scram::ReportCalculatedQuantity</text>
<text text-anchor="middle" x="622" y="-7.5" font-family="Helvetica,sans-Serif" font-size="10.00">&lt; core::RiskAnalysis &gt;</text>
</a>
</g>
</g>
<!-- Node1&#45;&gt;Node7 -->
<g id="edge9" class="edge"><title>Node1&#45;&gt;Node7</title>
<path fill="none" stroke="midnightblue" d="M173.189,-13.8291C257.563,-12.5161 386.788,-11.1206 499,-12.5 510.546,-12.6419 522.705,-12.8594 534.693,-13.1138"/>
<polygon fill="midnightblue" stroke="midnightblue" points="173.069,-10.3304 163.126,-13.9886 173.18,-17.3296 173.069,-10.3304"/>
</g>
<!-- Node2&#45;&gt;Node2 -->
<g id="edge8" class="edge"><title>Node2&#45;&gt;Node2</title>
<path fill="none" stroke="midnightblue" d="M218.063,-55.7746C218.959,-61.241 229.438,-65.5 249.5,-65.5 279.359,-65.5 287.991,-56.0653 275.394,-47.2571"/>
<polygon fill="midnightblue" stroke="midnightblue" points="221.085,-57.5475 223.606,-47.2571 215.218,-53.7291 221.085,-57.5475"/>
</g>
<!-- Node3 -->
<g id="node3" class="node"><title>Node3</title>
<g id="a_node3"><a xlink:href="classscram_1_1core_1_1FaultTreeAnalysis.xhtml#a327afc0524cff5289c3887357487266b" target="_top" xlink:title="Analyzes the fault tree and performs computations. ">
<polygon fill="white" stroke="black" points="337,-120.5 337,-150.5 498,-150.5 498,-120.5 337,-120.5"/>
<text text-anchor="start" x="345" y="-138.5" font-family="Helvetica,sans-Serif" font-size="10.00">scram::core::FaultTreeAnalysis</text>
<text text-anchor="middle" x="417.5" y="-127.5" font-family="Helvetica,sans-Serif" font-size="10.00">::Analyze</text>
</a>
</g>
</g>
<!-- Node2&#45;&gt;Node3 -->
<g id="edge2" class="edge"><title>Node2&#45;&gt;Node3</title>
<path fill="none" stroke="midnightblue" d="M265.981,-54.5917C281.998,-71.316 308.486,-96.4123 336,-111.5 342.138,-114.866 348.804,-117.813 355.585,-120.381"/>
<polygon fill="midnightblue" stroke="midnightblue" points="268.39,-52.0435 259.001,-47.1347 263.279,-56.8272 268.39,-52.0435"/>
</g>
<!-- Node4 -->
<g id="node4" class="node"><title>Node4</title>
<g id="a_node4"><a xlink:href="classscram_1_1core_1_1Pdag.xhtml#a9463ecda2e2b78590a01d2f589b067c6" target="_top" xlink:title="scram::core::Pdag::\lbasic_events">
<polygon fill="white" stroke="black" points="362.5,-71.5 362.5,-101.5 472.5,-101.5 472.5,-71.5 362.5,-71.5"/>
<text text-anchor="start" x="370.5" y="-89.5" font-family="Helvetica,sans-Serif" font-size="10.00">scram::core::Pdag::</text>
<text text-anchor="middle" x="417.5" y="-78.5" font-family="Helvetica,sans-Serif" font-size="10.00">basic_events</text>
</a>
</g>
</g>
<!-- Node2&#45;&gt;Node4 -->
<g id="edge3" class="edge"><title>Node2&#45;&gt;Node4</title>
<path fill="none" stroke="midnightblue" d="M292.691,-49.9541C314.865,-56.4992 342.211,-64.5713 365.558,-71.463"/>
<polygon fill="midnightblue" stroke="midnightblue" points="293.482,-46.5383 282.901,-47.064 291.501,-53.2519 293.482,-46.5383"/>
</g>
<!-- Node6 -->
<g id="node6" class="node"><title>Node6</title>
<g id="a_node6"><a xlink:href="classscram_1_1core_1_1ProductContainer.xhtml#a5cce4f5fef10a9a96a09ce6f82c590ad" target="_top" xlink:title="scram::core::ProductContainer\l::distribution">
<polygon fill="white" stroke="black" points="336,-22.5 336,-52.5 499,-52.5 499,-22.5 336,-22.5"/>
<text text-anchor="start" x="344" y="-40.5" font-family="Helvetica,sans-Serif" font-size="10.00">scram::core::ProductContainer</text>
<text text-anchor="middle" x="417.5" y="-29.5" font-family="Helvetica,sans-Serif" font-size="10.00">::distribution</text>
</a>
</g>
</g>
<!-- Node2&#45;&gt;Node6 -->
<g id="edge5" class="edge"><title>Node2&#45;&gt;Node6</title>
<path fill="none" stroke="midnightblue" d="M310.573,-30.9843C318.84,-30.8113 327.435,-30.7341 335.996,-30.7527"/>
<polygon fill="midnightblue" stroke="midnightblue" points="310.21,-27.4926 300.305,-31.2547 310.394,-34.4901 310.21,-27.4926"/>
</g>
<!-- Node5 -->
<g id="node5" class="node"><title>Node5</title>
<g id="a_node5"><a xlink:href="classscram_1_1core_1_1Mocus.xhtml#a951c8e2f7667d884d4dbda3206dc15e0" target="_top" xlink:title="Finds minimal cut sets from the PDAG. ">
<polygon fill="white" stroke="black" points="567,-71.5 567,-101.5 677,-101.5 677,-71.5 567,-71.5"/>
<text text-anchor="start" x="575" y="-89.5" font-family="Helvetica,sans-Serif" font-size="10.00">scram::core::Mocus</text>
<text text-anchor="middle" x="622" y="-78.5" font-family="Helvetica,sans-Serif" font-size="10.00">::Analyze</text>
</a>
</g>
</g>
<!-- Node4&#45;&gt;Node5 -->
<g id="edge4" class="edge"><title>Node4&#45;&gt;Node5</title>
<path fill="none" stroke="midnightblue" d="M482.655,-86.5C509.726,-86.5 540.902,-86.5 566.799,-86.5"/>
<polygon fill="midnightblue" stroke="midnightblue" points="482.5,-83.0001 472.5,-86.5 482.5,-90.0001 482.5,-83.0001"/>
</g>
<!-- Node6&#45;&gt;Node2 -->
<g id="edge6" class="edge"><title>Node6&#45;&gt;Node2</title>
<path fill="none" stroke="midnightblue" d="M325.73,-44.2236C317.01,-44.1643 308.405,-44.0049 300.305,-43.7453"/>
<polygon fill="midnightblue" stroke="midnightblue" points="325.988,-47.7241 335.996,-44.2473 326.004,-40.7242 325.988,-47.7241"/>
</g>
<!-- Node6&#45;&gt;Node7 -->
<g id="edge7" class="edge"><title>Node6&#45;&gt;Node7</title>
<path fill="none" stroke="midnightblue" d="M509.334,-27.6316C517.764,-26.7158 526.291,-25.7893 534.679,-24.8781"/>
<polygon fill="midnightblue" stroke="midnightblue" points="508.679,-24.1821 499.115,-28.7418 509.435,-31.1412 508.679,-24.1821"/>
</g>
</g>
</svg>
        <g id="navigator" transform="translate(0 0)" fill="#404254">
                <rect fill="#f2f5e9" fill-opacity="0.5" stroke="#606060" stroke-width=".5" x="0" y="0" width="60" height="60"/>
                <use id="zoomplus" xlink:href="#zoomPlus" x="17" y="9" onmousedown="handleZoom(evt,'in')"/>
                <use id="zoomminus" xlink:href="#zoomMin" x="42" y="9" onmousedown="handleZoom(evt,'out')"/>
                <use id="reset" xlink:href="#resetDef" x="30" y="36" onmousedown="handleReset()"/>
                <g id="arrowUp" xlink:href="#dirArrow" transform="translate(30 24)" onmousedown="handlePan(0,-1)">
                  <use xlink:href="#rim" fill="#404040">
                        <set attributeName="fill" to="#808080" begin="arrowUp.mouseover" end="arrowUp.mouseout"/>
                  </use>
                  <path fill="none" stroke="white" stroke-width="1.5" d="M0,-3.0v7 M-2.5,-0.5L0,-3.0L2.5,-0.5"/>
                </g>
                <g id="arrowRight" xlink:href="#dirArrow" transform="rotate(90) translate(36 -43)" onmousedown="handlePan(1,0)">
                  <use xlink:href="#rim" fill="#404040">
                        <set attributeName="fill" to="#808080" begin="arrowRight.mouseover" end="arrowRight.mouseout"/>
                  </use>
                  <path fill="none" stroke="white" stroke-width="1.5" d="M0,-3.0v7 M-2.5,-0.5L0,-3.0L2.5,-0.5"/>
                </g>
                <g id="arrowDown" xlink:href="#dirArrow" transform="rotate(180) translate(-30 -48)" onmousedown="handlePan(0,1)">
                  <use xlink:href="#rim" fill="#404040">
                        <set attributeName="fill" to="#808080" begin="arrowDown.mouseover" end="arrowDown.mouseout"/>
                  </use>
                  <path fill="none" stroke="white" stroke-width="1.5" d="M0,-3.0v7 M-2.5,-0.5L0,-3.0L2.5,-0.5"/>
                </g>
                <g id="arrowLeft" xlink:href="#dirArrow" transform="rotate(270) translate(-36 17)" onmousedown="handlePan(-1,0)">
                  <use xlink:href="#rim" fill="#404040">
                        <set attributeName="fill" to="#808080" begin="arrowLeft.mouseover" end="arrowLeft.mouseout"/>
                  </use>
                  <path fill="none" stroke="white" stroke-width="1.5" d="M0,-3.0v7 M-2.5,-0.5L0,-3.0L2.5,-0.5"/>
                </g>
        </g>
        <svg viewBox="0 0 15 15" width="100%" height="30px" preserveAspectRatio="xMaxYMin meet">
         <g id="arrow_out" transform="scale(0.3 0.3)">
          <a xlink:href="classscram_1_1core_1_1ProductContainer_ac48d179d37d1109d36bf2d36e02aebe7_icgraph_org.svg" target="_base">
           <rect id="button" ry="5" rx="5" y="6" x="6" height="38" width="38"
                fill="#f2f5e9" fill-opacity="0.5" stroke="#606060" stroke-width="1.0"/>
           <path id="arrow"
             d="M 11.500037,31.436501 C 11.940474,20.09759 22.043105,11.32322 32.158766,21.979434 L 37.068811,17.246167 C 37.068811,17.246167 37.088388,32 37.088388,32 L 22.160133,31.978069 C 22.160133,31.978069 26.997745,27.140456 26.997745,27.140456 C 18.528582,18.264221 13.291696,25.230495 11.500037,31.436501 z"
             style="fill:#404040;"/>
          </a>
         </g>
        </svg>
</svg>
