<?xml version="1.0" encoding="UTF-8" standalone="no"?>
<!DOCTYPE svg PUBLIC "-//W3C//DTD SVG 1.1//EN"
 "http://www.w3.org/Graphics/SVG/1.1/DTD/svg11.dtd">
<!-- Generated by graphviz version 2.38.0 (20140413.2041)
 -->
<!-- Title: scram::core::ProbabilityAnalyzerBase Pages: 1 -->
<!--zoomable 706 -->
<svg id="main" version="1.1" xmlns="http://www.w3.org/2000/svg" xmlns:xlink="http://www.w3.org/1999/xlink" xml:space="preserve" onload="init(evt)">
<style type="text/css"><![CDATA[
.edge:hover path { stroke: red; }
.edge:hover polygon { stroke: red; fill: red; }
]]></style>
<script type="text/javascript"><![CDATA[
var edges = document.getElementsByTagName('g');
if (edges && edges.length) {
  for (var i=0;i<edges.length;i++) {
    if (edges[i].id.substr(0,4)=='edge') {
      edges[i].setAttribute('class','edge');
    }
  }
}
]]></script>
        <defs>
                <circle id="rim" cx="0" cy="0" r="7"/>
                <circle id="rim2" cx="0" cy="0" r="3.5"/>
                <g id="zoomPlus">
                        <use xlink:href="#rim" fill="#404040">
                                <set attributeName="fill" to="#808080" begin="zoomplus.mouseover" end="zoomplus.mouseout"/>
                        </use>
                        <path d="M-4,0h8M0,-4v8" fill="none" stroke="white" stroke-width="1.5" pointer-events="none"/>
                </g>
                <g id="zoomMin">
                        <use xlink:href="#rim" fill="#404040">
                                <set attributeName="fill" to="#808080" begin="zoomminus.mouseover" end="zoomminus.mouseout"/>
                        </use>
                        <path d="M-4,0h8" fill="none" stroke="white" stroke-width="1.5" pointer-events="none"/>
                </g>
                <g id="dirArrow">
                        <path fill="none" stroke="white" stroke-width="1.5" d="M0,-3.0v7 M-2.5,-0.5L0,-3.0L2.5,-0.5"/>
                </g>
               <g id="resetDef">
                       <use xlink:href="#rim2" fill="#404040">
                               <set attributeName="fill" to="#808080" begin="reset.mouseover" end="reset.mouseout"/>
                       </use>
               </g>
        </defs>

<script type="text/javascript">
var viewWidth = 328;
var viewHeight = 706;
var sectionId = 'dynsection-0';
</script>
<script xlink:href="svgpan.js"/>
<svg id="graph" class="graph">
<g id="viewport">
<title>scram::core::ProbabilityAnalyzerBase</title>
<polygon fill="white" stroke="none" points="-4,4 -4,-702 324,-702 324,4 -4,4"/>
<!-- Node1 -->
<g id="node1" class="node"><title>Node1</title>
<polygon fill="#bfbfbf" stroke="black" points="80.5,-149.5 80.5,-261.5 238.5,-261.5 238.5,-149.5 80.5,-149.5"/>
<text text-anchor="start" x="88.5" y="-249.5" font-family="Helvetica,sans-Serif" font-size="10.00">scram::core::Probability</text>
<text text-anchor="middle" x="159.5" y="-238.5" font-family="Helvetica,sans-Serif" font-size="10.00">AnalyzerBase</text>
<polyline fill="none" stroke="black" points="80.5,-231.5 238.5,-231.5 "/>
<text text-anchor="middle" x="159.5" y="-219.5" font-family="Helvetica,sans-Serif" font-size="10.00"> </text>
<polyline fill="none" stroke="black" points="80.5,-212.5 238.5,-212.5 "/>
<text text-anchor="start" x="88.5" y="-200.5" font-family="Helvetica,sans-Serif" font-size="10.00">+ ProbabilityAnalyzerBase()</text>
<text text-anchor="start" x="88.5" y="-189.5" font-family="Helvetica,sans-Serif" font-size="10.00">+ graph()</text>
<text text-anchor="start" x="88.5" y="-178.5" font-family="Helvetica,sans-Serif" font-size="10.00">+ products()</text>
<text text-anchor="start" x="88.5" y="-167.5" font-family="Helvetica,sans-Serif" font-size="10.00">+ p_vars()</text>
<text text-anchor="start" x="88.5" y="-156.5" font-family="Helvetica,sans-Serif" font-size="10.00"># ~ProbabilityAnalyzerBase()</text>
</g>
<!-- Node5 -->
<g id="node5" class="node"><title>Node5</title>
<g id="a_node5"><a xlink:href="classscram_1_1core_1_1ProbabilityAnalyzer.xhtml" target="_top" xlink:title="Fault&#45;tree&#45;analysis&#45;aware probability analyzer. ">
<polygon fill="white" stroke="black" points="0,-22.5 0,-90.5 151,-90.5 151,-22.5 0,-22.5"/>
<text text-anchor="start" x="8" y="-78.5" font-family="Helvetica,sans-Serif" font-size="10.00">scram::core::Probability</text>
<text text-anchor="middle" x="75.5" y="-67.5" font-family="Helvetica,sans-Serif" font-size="10.00">Analyzer&lt; Calculator &gt;</text>
<polyline fill="none" stroke="black" points="0,-60.5 151,-60.5 "/>
<text text-anchor="middle" x="75.5" y="-48.5" font-family="Helvetica,sans-Serif" font-size="10.00"> </text>
<polyline fill="none" stroke="black" points="0,-41.5 151,-41.5 "/>
<text text-anchor="start" x="8" y="-29.5" font-family="Helvetica,sans-Serif" font-size="10.00">+ CalculateTotalProbability()</text>
</a>
</g>
</g>
<!-- Node1&#45;&gt;Node5 -->
<g id="edge4" class="edge"><title>Node1&#45;&gt;Node5</title>
<path fill="none" stroke="midnightblue" d="M122.906,-140.461C113.107,-123.312 102.909,-105.465 94.4928,-90.7375"/>
<polygon fill="none" stroke="midnightblue" points="119.982,-142.398 127.983,-149.344 126.06,-138.925 119.982,-142.398"/>
</g>
<!-- Node6 -->
<g id="node6" class="node"><title>Node6</title>
<g id="a_node6"><a xlink:href="classscram_1_1core_1_1ProbabilityAnalyzer_3_01Bdd_01_4.xhtml" target="_top" xlink:title="Specialization of probability analyzer with Binary Decision Diagrams. ">
<polygon fill="white" stroke="black" points="169,-0.5 169,-112.5 320,-112.5 320,-0.5 169,-0.5"/>
<text text-anchor="start" x="177" y="-100.5" font-family="Helvetica,sans-Serif" font-size="10.00">scram::core::Probability</text>
<text text-anchor="middle" x="244.5" y="-89.5" font-family="Helvetica,sans-Serif" font-size="10.00">Analyzer&lt; Bdd &gt;</text>
<polyline fill="none" stroke="black" points="169,-82.5 320,-82.5 "/>
<text text-anchor="middle" x="244.5" y="-70.5" font-family="Helvetica,sans-Serif" font-size="10.00"> </text>
<polyline fill="none" stroke="black" points="169,-63.5 320,-63.5 "/>
<text text-anchor="start" x="177" y="-51.5" font-family="Helvetica,sans-Serif" font-size="10.00">+ ProbabilityAnalyzer()</text>
<text text-anchor="start" x="177" y="-40.5" font-family="Helvetica,sans-Serif" font-size="10.00">+ ProbabilityAnalyzer()</text>
<text text-anchor="start" x="177" y="-29.5" font-family="Helvetica,sans-Serif" font-size="10.00">+ ~ProbabilityAnalyzer()</text>
<text text-anchor="start" x="177" y="-18.5" font-family="Helvetica,sans-Serif" font-size="10.00">+ bdd_graph()</text>
<text text-anchor="start" x="177" y="-7.5" font-family="Helvetica,sans-Serif" font-size="10.00">+ CalculateTotalProbability()</text>
</a>
</g>
</g>
<!-- Node1&#45;&gt;Node6 -->
<g id="edge5" class="edge"><title>Node1&#45;&gt;Node6</title>
<path fill="none" stroke="midnightblue" d="M196.448,-140.601C201.771,-131.396 207.211,-121.987 212.429,-112.965"/>
<polygon fill="none" stroke="midnightblue" points="193.369,-138.935 191.393,-149.344 199.428,-142.439 193.369,-138.935"/>
</g>
<!-- Node2 -->
<g id="node2" class="node"><title>Node2</title>
<g id="a_node2"><a xlink:href="classscram_1_1core_1_1ProbabilityAnalysis.xhtml" target="_top" xlink:title="Main quantitative analysis class. ">
<polygon fill="white" stroke="black" points="93.5,-298.5 93.5,-432.5 225.5,-432.5 225.5,-298.5 93.5,-298.5"/>
<text text-anchor="start" x="101.5" y="-420.5" font-family="Helvetica,sans-Serif" font-size="10.00">scram::core::Probability</text>
<text text-anchor="middle" x="159.5" y="-409.5" font-family="Helvetica,sans-Serif" font-size="10.00">Analysis</text>
<polyline fill="none" stroke="black" points="93.5,-402.5 225.5,-402.5 "/>
<text text-anchor="middle" x="159.5" y="-390.5" font-family="Helvetica,sans-Serif" font-size="10.00"> </text>
<polyline fill="none" stroke="black" points="93.5,-383.5 225.5,-383.5 "/>
<text text-anchor="start" x="101.5" y="-371.5" font-family="Helvetica,sans-Serif" font-size="10.00">+ ProbabilityAnalysis()</text>
<text text-anchor="start" x="101.5" y="-360.5" font-family="Helvetica,sans-Serif" font-size="10.00">+ ~ProbabilityAnalysis()</text>
<text text-anchor="start" x="101.5" y="-349.5" font-family="Helvetica,sans-Serif" font-size="10.00">+ Analyze()</text>
<text text-anchor="start" x="101.5" y="-338.5" font-family="Helvetica,sans-Serif" font-size="10.00">+ p_total()</text>
<text text-anchor="start" x="101.5" y="-327.5" font-family="Helvetica,sans-Serif" font-size="10.00">+ p_time()</text>
<text text-anchor="start" x="101.5" y="-316.5" font-family="Helvetica,sans-Serif" font-size="10.00">+ sil()</text>
<text text-anchor="start" x="101.5" y="-305.5" font-family="Helvetica,sans-Serif" font-size="10.00"># mission_time()</text>
</a>
</g>
</g>
<!-- Node2&#45;&gt;Node1 -->
<g id="edge1" class="edge"><title>Node2&#45;&gt;Node1</title>
<path fill="none" stroke="midnightblue" d="M159.5,-288.35C159.5,-279.401 159.5,-270.403 159.5,-261.816"/>
<polygon fill="none" stroke="midnightblue" points="156,-288.409 159.5,-298.409 163,-288.409 156,-288.409"/>
</g>
<!-- Node3 -->
<g id="node3" class="node"><title>Node3</title>
<g id="a_node3"><a xlink:href="classscram_1_1core_1_1Analysis.xhtml" target="_top" xlink:title="Base abstract class for all analysis with settings. ">
<polygon fill="white" stroke="black" points="100,-469.5 100,-603.5 219,-603.5 219,-469.5 100,-469.5"/>
<text text-anchor="middle" x="159.5" y="-591.5" font-family="Helvetica,sans-Serif" font-size="10.00">scram::core::Analysis</text>
<polyline fill="none" stroke="black" points="100,-584.5 219,-584.5 "/>
<text text-anchor="middle" x="159.5" y="-572.5" font-family="Helvetica,sans-Serif" font-size="10.00"> </text>
<polyline fill="none" stroke="black" points="100,-565.5 219,-565.5 "/>
<text text-anchor="start" x="108" y="-553.5" font-family="Helvetica,sans-Serif" font-size="10.00">+ Analysis()</text>
<text text-anchor="start" x="108" y="-542.5" font-family="Helvetica,sans-Serif" font-size="10.00">+ ~Analysis()</text>
<text text-anchor="start" x="108" y="-531.5" font-family="Helvetica,sans-Serif" font-size="10.00">+ settings()</text>
<text text-anchor="start" x="108" y="-520.5" font-family="Helvetica,sans-Serif" font-size="10.00">+ warnings()</text>
<text text-anchor="start" x="108" y="-509.5" font-family="Helvetica,sans-Serif" font-size="10.00">+ analysis_time()</text>
<text text-anchor="start" x="108" y="-498.5" font-family="Helvetica,sans-Serif" font-size="10.00"># settings()</text>
<text text-anchor="start" x="108" y="-487.5" font-family="Helvetica,sans-Serif" font-size="10.00"># AddWarning()</text>
<text text-anchor="start" x="108" y="-476.5" font-family="Helvetica,sans-Serif" font-size="10.00"># AddAnalysisTime()</text>
</a>
</g>
</g>
<!-- Node3&#45;&gt;Node2 -->
<g id="edge2" class="edge"><title>Node3&#45;&gt;Node2</title>
<path fill="none" stroke="midnightblue" d="M159.5,-458.949C159.5,-450.159 159.5,-441.254 159.5,-432.617"/>
<polygon fill="none" stroke="midnightblue" points="156,-459.192 159.5,-469.192 163,-459.192 156,-459.192"/>
</g>
<!-- Node4 -->
<g id="node4" class="node"><title>Node4</title>
<polygon fill="white" stroke="#bfbfbf" points="121,-640.5 121,-697.5 198,-697.5 198,-640.5 121,-640.5"/>
<text text-anchor="middle" x="159.5" y="-685.5" font-family="Helvetica,sans-Serif" font-size="10.00">noncopyable</text>
<polyline fill="none" stroke="#bfbfbf" points="121,-678.5 198,-678.5 "/>
<text text-anchor="middle" x="159.5" y="-666.5" font-family="Helvetica,sans-Serif" font-size="10.00"> </text>
<polyline fill="none" stroke="#bfbfbf" points="121,-659.5 198,-659.5 "/>
<text text-anchor="middle" x="159.5" y="-647.5" font-family="Helvetica,sans-Serif" font-size="10.00"> </text>
</g>
<!-- Node4&#45;&gt;Node3 -->
<g id="edge3" class="edge"><title>Node4&#45;&gt;Node3</title>
<path fill="none" stroke="#8b1a1a" d="M159.5,-630.16C159.5,-621.782 159.5,-612.668 159.5,-603.533"/>
<polygon fill="none" stroke="#8b1a1a" points="156,-630.324 159.5,-640.324 163,-630.324 156,-630.324"/>
</g>
</g>
</svg>
        <g id="navigator" transform="translate(0 0)" fill="#404254">
                <rect fill="#f2f5e9" fill-opacity="0.5" stroke="#606060" stroke-width=".5" x="0" y="0" width="60" height="60"/>
                <use id="zoomplus" xlink:href="#zoomPlus" x="17" y="9" onmousedown="handleZoom(evt,'in')"/>
                <use id="zoomminus" xlink:href="#zoomMin" x="42" y="9" onmousedown="handleZoom(evt,'out')"/>
                <use id="reset" xlink:href="#resetDef" x="30" y="36" onmousedown="handleReset()"/>
                <g id="arrowUp" xlink:href="#dirArrow" transform="translate(30 24)" onmousedown="handlePan(0,-1)">
                  <use xlink:href="#rim" fill="#404040">
                        <set attributeName="fill" to="#808080" begin="arrowUp.mouseover" end="arrowUp.mouseout"/>
                  </use>
                  <path fill="none" stroke="white" stroke-width="1.5" d="M0,-3.0v7 M-2.5,-0.5L0,-3.0L2.5,-0.5"/>
                </g>
                <g id="arrowRight" xlink:href="#dirArrow" transform="rotate(90) translate(36 -43)" onmousedown="handlePan(1,0)">
                  <use xlink:href="#rim" fill="#404040">
                        <set attributeName="fill" to="#808080" begin="arrowRight.mouseover" end="arrowRight.mouseout"/>
                  </use>
                  <path fill="none" stroke="white" stroke-width="1.5" d="M0,-3.0v7 M-2.5,-0.5L0,-3.0L2.5,-0.5"/>
                </g>
                <g id="arrowDown" xlink:href="#dirArrow" transform="rotate(180) translate(-30 -48)" onmousedown="handlePan(0,1)">
                  <use xlink:href="#rim" fill="#404040">
                        <set attributeName="fill" to="#808080" begin="arrowDown.mouseover" end="arrowDown.mouseout"/>
                  </use>
                  <path fill="none" stroke="white" stroke-width="1.5" d="M0,-3.0v7 M-2.5,-0.5L0,-3.0L2.5,-0.5"/>
                </g>
                <g id="arrowLeft" xlink:href="#dirArrow" transform="rotate(270) translate(-36 17)" onmousedown="handlePan(-1,0)">
                  <use xlink:href="#rim" fill="#404040">
                        <set attributeName="fill" to="#808080" begin="arrowLeft.mouseover" end="arrowLeft.mouseout"/>
                  </use>
                  <path fill="none" stroke="white" stroke-width="1.5" d="M0,-3.0v7 M-2.5,-0.5L0,-3.0L2.5,-0.5"/>
                </g>
        </g>
        <svg viewBox="0 0 15 15" width="100%" height="30px" preserveAspectRatio="xMaxYMin meet">
         <g id="arrow_out" transform="scale(0.3 0.3)">
          <a xlink:href="classscram_1_1core_1_1ProbabilityAnalyzerBase__inherit__graph_org.svg" target="_base">
           <rect id="button" ry="5" rx="5" y="6" x="6" height="38" width="38"
                fill="#f2f5e9" fill-opacity="0.5" stroke="#606060" stroke-width="1.0"/>
           <path id="arrow"
             d="M 11.500037,31.436501 C 11.940474,20.09759 22.043105,11.32322 32.158766,21.979434 L 37.068811,17.246167 C 37.068811,17.246167 37.088388,32 37.088388,32 L 22.160133,31.978069 C 22.160133,31.978069 26.997745,27.140456 26.997745,27.140456 C 18.528582,18.264221 13.291696,25.230495 11.500037,31.436501 z"
             style="fill:#404040;"/>
          </a>
         </g>
        </svg>
</svg>
