<?xml version="1.0" encoding="UTF-8" standalone="no"?>
<!DOCTYPE svg PUBLIC "-//W3C//DTD SVG 1.1//EN"
 "http://www.w3.org/Graphics/SVG/1.1/DTD/svg11.dtd">
<!-- Generated by graphviz version 2.38.0 (20140413.2041)
 -->
<!-- Title: scram::core::Settings::time_step Pages: 1 -->
<svg width="316pt" height="78pt"
 viewBox="0.00 0.00 316.00 77.50" xmlns="http://www.w3.org/2000/svg" xmlns:xlink="http://www.w3.org/1999/xlink">
<g id="graph0" class="graph" transform="scale(1 1) rotate(0) translate(4 73.5)">
<title>scram::core::Settings::time_step</title>
<polygon fill="white" stroke="none" points="-4,4 -4,-73.5 312,-73.5 312,4 -4,4"/>
<!-- Node1 -->
<g id="node1" class="node"><title>Node1</title>
<polygon fill="#bfbfbf" stroke="black" points="0,-17 0,-47 119,-47 119,-17 0,-17"/>
<text text-anchor="start" x="8" y="-35" font-family="Helvetica,sans-Serif" font-size="10.00">scram::core::Settings</text>
<text text-anchor="middle" x="59.5" y="-24" font-family="Helvetica,sans-Serif" font-size="10.00">::time_step</text>
</g>
<!-- Node2 -->
<g id="node2" class="node"><title>Node2</title>
<g id="a_node2"><a xlink:href="classscram_1_1core_1_1McubCalculator.xhtml#af47379d2ba9190b34aef1acfa402e15c" target="_top" xlink:title="Calculates probabilities using the minimal cut set upper bound (MCUB) approximation. ">
<polygon fill="white" stroke="black" points="155,-39 155,-69 308,-69 308,-39 155,-39"/>
<text text-anchor="start" x="163" y="-57" font-family="Helvetica,sans-Serif" font-size="10.00">scram::core::McubCalculator</text>
<text text-anchor="middle" x="231.5" y="-46" font-family="Helvetica,sans-Serif" font-size="10.00">::Calculate</text>
</a>
</g>
</g>
<!-- Node1&#45;&gt;Node2 -->
<g id="edge1" class="edge"><title>Node1&#45;&gt;Node2</title>
<path fill="none" stroke="midnightblue" d="M129.157,-40.885C137.589,-41.9763 146.245,-43.0965 154.775,-44.2003"/>
<polygon fill="midnightblue" stroke="midnightblue" points="129.371,-37.3836 119.004,-39.5712 128.472,-44.3257 129.371,-37.3836"/>
</g>
<!-- Node3 -->
<g id="node3" class="node"><title>Node3</title>
<g id="a_node3"><a xlink:href="classscram_1_1Project.xhtml#aa72871e05c53f98f8c4f48ec61277754" target="_top" xlink:title="A constructor with project configurations for analysis. ">
<polygon fill="white" stroke="black" points="169,-0.5 169,-19.5 294,-19.5 294,-0.5 169,-0.5"/>
<text text-anchor="middle" x="231.5" y="-7.5" font-family="Helvetica,sans-Serif" font-size="10.00">scram::Project::Project</text>
</a>
</g>
</g>
<!-- Node1&#45;&gt;Node3 -->
<g id="edge2" class="edge"><title>Node1&#45;&gt;Node3</title>
<path fill="none" stroke="midnightblue" d="M128.99,-23.1366C142.218,-21.4247 156.002,-19.641 168.991,-17.96"/>
<polygon fill="midnightblue" stroke="midnightblue" points="128.472,-19.6743 119.004,-24.4288 129.371,-26.6164 128.472,-19.6743"/>
</g>
</g>
</svg>
