<?xml version="1.0" encoding="UTF-8" standalone="no"?>
<!DOCTYPE svg PUBLIC "-//W3C//DTD SVG 1.1//EN"
 "http://www.w3.org/Graphics/SVG/1.1/DTD/svg11.dtd">
<!-- Generated by graphviz version 2.38.0 (20140413.2041)
 -->
<!-- Title: scram::core::Mocus Pages: 1 -->
<svg width="118pt" height="182pt"
 viewBox="0.00 0.00 118.00 182.00" xmlns="http://www.w3.org/2000/svg" xmlns:xlink="http://www.w3.org/1999/xlink">
<g id="graph0" class="graph" transform="scale(1 1) rotate(0) translate(4 178)">
<title>scram::core::Mocus</title>
<polygon fill="white" stroke="none" points="-4,4 -4,-178 114,-178 114,4 -4,4"/>
<!-- Node1 -->
<g id="node1" class="node"><title>Node1</title>
<polygon fill="#bfbfbf" stroke="black" points="0,-0.5 0,-79.5 110,-79.5 110,-0.5 0,-0.5"/>
<text text-anchor="middle" x="55" y="-67.5" font-family="Helvetica,sans-Serif" font-size="10.00">scram::core::Mocus</text>
<polyline fill="none" stroke="black" points="0,-60.5 110,-60.5 "/>
<text text-anchor="middle" x="55" y="-48.5" font-family="Helvetica,sans-Serif" font-size="10.00"> </text>
<polyline fill="none" stroke="black" points="0,-41.5 110,-41.5 "/>
<text text-anchor="start" x="8" y="-29.5" font-family="Helvetica,sans-Serif" font-size="10.00">+ Mocus()</text>
<text text-anchor="start" x="8" y="-18.5" font-family="Helvetica,sans-Serif" font-size="10.00">+ Analyze()</text>
<text text-anchor="start" x="8" y="-7.5" font-family="Helvetica,sans-Serif" font-size="10.00">+ products()</text>
</g>
<!-- Node2 -->
<g id="node2" class="node"><title>Node2</title>
<polygon fill="white" stroke="#bfbfbf" points="16.5,-116.5 16.5,-173.5 93.5,-173.5 93.5,-116.5 16.5,-116.5"/>
<text text-anchor="middle" x="55" y="-161.5" font-family="Helvetica,sans-Serif" font-size="10.00">noncopyable</text>
<polyline fill="none" stroke="#bfbfbf" points="16.5,-154.5 93.5,-154.5 "/>
<text text-anchor="middle" x="55" y="-142.5" font-family="Helvetica,sans-Serif" font-size="10.00"> </text>
<polyline fill="none" stroke="#bfbfbf" points="16.5,-135.5 93.5,-135.5 "/>
<text text-anchor="middle" x="55" y="-123.5" font-family="Helvetica,sans-Serif" font-size="10.00"> </text>
</g>
<!-- Node2&#45;&gt;Node1 -->
<g id="edge1" class="edge"><title>Node2&#45;&gt;Node1</title>
<path fill="none" stroke="#8b1a1a" d="M55,-106.156C55,-97.4733 55,-88.2318 55,-79.5205"/>
<polygon fill="none" stroke="#8b1a1a" points="51.5001,-106.398 55,-116.398 58.5001,-106.398 51.5001,-106.398"/>
</g>
</g>
</svg>
