<?xml version="1.0" encoding="UTF-8" standalone="no"?>
<!DOCTYPE svg PUBLIC "-//W3C//DTD SVG 1.1//EN"
 "http://www.w3.org/Graphics/SVG/1.1/DTD/svg11.dtd">
<!-- Generated by graphviz version 2.38.0 (20140413.2041)
 -->
<!-- Title: scram::mef::Expression::AddArg Pages: 1 -->
<svg width="456pt" height="137pt"
 viewBox="0.00 0.00 456.00 137.00" xmlns="http://www.w3.org/2000/svg" xmlns:xlink="http://www.w3.org/1999/xlink">
<g id="graph0" class="graph" transform="scale(1 1) rotate(0) translate(4 133)">
<title>scram::mef::Expression::AddArg</title>
<polygon fill="white" stroke="none" points="-4,4 -4,-133 452,-133 452,4 -4,4"/>
<!-- Node1 -->
<g id="node1" class="node"><title>Node1</title>
<polygon fill="#bfbfbf" stroke="black" points="0,-49.5 0,-79.5 129,-79.5 129,-49.5 0,-49.5"/>
<text text-anchor="start" x="8" y="-67.5" font-family="Helvetica,sans-Serif" font-size="10.00">scram::mef::Expression</text>
<text text-anchor="middle" x="64.5" y="-56.5" font-family="Helvetica,sans-Serif" font-size="10.00">::AddArg</text>
</g>
<!-- Node2 -->
<g id="node2" class="node"><title>Node2</title>
<g id="a_node2"><a xlink:href="classscram_1_1mef_1_1Parameter.xhtml#adfe24f71af66ae29a889c6424baf6d84" target="_top" xlink:title="Sets the expression of this parameter. ">
<polygon fill="white" stroke="black" points="165,-98.5 165,-128.5 293,-128.5 293,-98.5 165,-98.5"/>
<text text-anchor="start" x="173" y="-116.5" font-family="Helvetica,sans-Serif" font-size="10.00">scram::mef::Parameter</text>
<text text-anchor="middle" x="229" y="-105.5" font-family="Helvetica,sans-Serif" font-size="10.00">::expression</text>
</a>
</g>
</g>
<!-- Node1&#45;&gt;Node2 -->
<g id="edge1" class="edge"><title>Node1&#45;&gt;Node2</title>
<path fill="none" stroke="midnightblue" d="M125.568,-82.6129C142.844,-87.8222 161.493,-93.4457 178.084,-98.4484"/>
<polygon fill="midnightblue" stroke="midnightblue" points="126.166,-79.1375 115.581,-79.6014 124.145,-85.8395 126.166,-79.1375"/>
</g>
<!-- Node4 -->
<g id="node4" class="node"><title>Node4</title>
<g id="a_node4"><a xlink:href="classscram_1_1mef_1_1Histogram.xhtml#a58994566e7edb6346480990a539b669f" target="_top" xlink:title="Histogram distribution setup. ">
<polygon fill="white" stroke="black" points="165,-49.5 165,-79.5 293,-79.5 293,-49.5 165,-49.5"/>
<text text-anchor="start" x="173" y="-67.5" font-family="Helvetica,sans-Serif" font-size="10.00">scram::mef::Histogram</text>
<text text-anchor="middle" x="229" y="-56.5" font-family="Helvetica,sans-Serif" font-size="10.00">::Histogram</text>
</a>
</g>
</g>
<!-- Node1&#45;&gt;Node4 -->
<g id="edge3" class="edge"><title>Node1&#45;&gt;Node4</title>
<path fill="none" stroke="midnightblue" d="M139.259,-64.5C147.842,-64.5 156.538,-64.5 164.959,-64.5"/>
<polygon fill="midnightblue" stroke="midnightblue" points="139.258,-61.0001 129.258,-64.5 139.258,-68.0001 139.258,-61.0001"/>
</g>
<!-- Node5 -->
<g id="node5" class="node"><title>Node5</title>
<g id="a_node5"><a xlink:href="classscram_1_1mef_1_1Switch.xhtml#aff993cda3542b9b9cf509287dd9fceef" target="_top" xlink:title="scram::mef::Switch\l::Switch">
<polygon fill="white" stroke="black" points="175,-0.5 175,-30.5 283,-30.5 283,-0.5 175,-0.5"/>
<text text-anchor="start" x="183" y="-18.5" font-family="Helvetica,sans-Serif" font-size="10.00">scram::mef::Switch</text>
<text text-anchor="middle" x="229" y="-7.5" font-family="Helvetica,sans-Serif" font-size="10.00">::Switch</text>
</a>
</g>
</g>
<!-- Node1&#45;&gt;Node5 -->
<g id="edge4" class="edge"><title>Node1&#45;&gt;Node5</title>
<path fill="none" stroke="midnightblue" d="M125.568,-46.3871C142.844,-41.1778 161.493,-35.5543 178.084,-30.5516"/>
<polygon fill="midnightblue" stroke="midnightblue" points="124.145,-43.1605 115.581,-49.3986 126.166,-49.8625 124.145,-43.1605"/>
</g>
<!-- Node3 -->
<g id="node3" class="node"><title>Node3</title>
<g id="a_node3"><a xlink:href="classscram_1_1mef_1_1Initializer.xhtml#aa3208c0612161cd4de7d71cd61450828" target="_top" xlink:title="Specializations for elements defined after registration. ">
<polygon fill="white" stroke="black" points="329,-98.5 329,-128.5 448,-128.5 448,-98.5 329,-98.5"/>
<text text-anchor="start" x="337" y="-116.5" font-family="Helvetica,sans-Serif" font-size="10.00">scram::mef::Initializer</text>
<text text-anchor="middle" x="388.5" y="-105.5" font-family="Helvetica,sans-Serif" font-size="10.00">::Define</text>
</a>
</g>
</g>
<!-- Node2&#45;&gt;Node3 -->
<g id="edge2" class="edge"><title>Node2&#45;&gt;Node3</title>
<path fill="none" stroke="midnightblue" d="M303.209,-113.5C311.831,-113.5 320.542,-113.5 328.926,-113.5"/>
<polygon fill="midnightblue" stroke="midnightblue" points="303.154,-110 293.154,-113.5 303.154,-117 303.154,-110"/>
</g>
</g>
</svg>
