<?xml version="1.0" encoding="UTF-8" standalone="no"?>
<!DOCTYPE svg PUBLIC "-//W3C//DTD SVG 1.1//EN"
 "http://www.w3.org/Graphics/SVG/1.1/DTD/svg11.dtd">
<!-- Generated by graphviz version 2.38.0 (20140413.2041)
 -->
<!-- Title: scram::mef::Substitution::Validate Pages: 1 -->
<svg width="803pt" height="100pt"
 viewBox="0.00 0.00 803.00 99.83" xmlns="http://www.w3.org/2000/svg" xmlns:xlink="http://www.w3.org/1999/xlink">
<g id="graph0" class="graph" transform="scale(1 1) rotate(0) translate(4 95.8259)">
<title>scram::mef::Substitution::Validate</title>
<polygon fill="white" stroke="none" points="-4,4 -4,-95.8259 799,-95.8259 799,4 -4,4"/>
<!-- Node1 -->
<g id="node1" class="node"><title>Node1</title>
<polygon fill="#bfbfbf" stroke="black" points="0,-22.8259 0,-52.8259 135,-52.8259 135,-22.8259 0,-22.8259"/>
<text text-anchor="start" x="8" y="-40.8259" font-family="Helvetica,sans-Serif" font-size="10.00">scram::mef::Substitution</text>
<text text-anchor="middle" x="67.5" y="-29.8259" font-family="Helvetica,sans-Serif" font-size="10.00">::Validate</text>
</g>
<!-- Node2 -->
<g id="node2" class="node"><title>Node2</title>
<g id="a_node2"><a xlink:href="classscram_1_1mef_1_1Substitution.xhtml#ad29f35247718d44ff8d6f9bd9bd41d9f" target="_top" xlink:title="scram::mef::Substitution\l::declarative">
<polygon fill="white" stroke="black" points="171,-22.8259 171,-52.8259 306,-52.8259 306,-22.8259 171,-22.8259"/>
<text text-anchor="start" x="179" y="-40.8259" font-family="Helvetica,sans-Serif" font-size="10.00">scram::mef::Substitution</text>
<text text-anchor="middle" x="238.5" y="-29.8259" font-family="Helvetica,sans-Serif" font-size="10.00">::declarative</text>
</a>
</g>
</g>
<!-- Node1&#45;&gt;Node2 -->
<g id="edge1" class="edge"><title>Node1&#45;&gt;Node2</title>
<path fill="none" stroke="midnightblue" d="M135.293,-31.2094C143.624,-31.0821 152.194,-31.0459 160.661,-31.1007"/>
<polygon fill="midnightblue" stroke="midnightblue" points="160.878,-34.6031 170.915,-31.2126 160.954,-27.6036 160.878,-34.6031"/>
</g>
<!-- Node5 -->
<g id="node5" class="node"><title>Node5</title>
<g id="a_node5"><a xlink:href="classscram_1_1mef_1_1Element.xhtml#adb401e2ca84aa98cb60797bec2500a81" target="_top" xlink:title="scram::mef::Element\l::name">
<polygon fill="white" stroke="black" points="676,-0.82595 676,-30.8259 793,-30.8259 793,-0.82595 676,-0.82595"/>
<text text-anchor="start" x="684" y="-18.8259" font-family="Helvetica,sans-Serif" font-size="10.00">scram::mef::Element</text>
<text text-anchor="middle" x="734.5" y="-7.82595" font-family="Helvetica,sans-Serif" font-size="10.00">::name</text>
</a>
</g>
</g>
<!-- Node1&#45;&gt;Node5 -->
<g id="edge8" class="edge"><title>Node1&#45;&gt;Node5</title>
<path fill="none" stroke="midnightblue" d="M119.677,-22.7991C135.935,-18.7139 154.087,-14.8587 171,-12.8259 348.348,8.48948 559.423,-2.18585 665.494,-10.0193"/>
<polygon fill="midnightblue" stroke="midnightblue" points="665.502,-13.5296 675.736,-10.7911 666.028,-6.54944 665.502,-13.5296"/>
</g>
<!-- Node2&#45;&gt;Node1 -->
<g id="edge7" class="edge"><title>Node2&#45;&gt;Node1</title>
<path fill="none" stroke="midnightblue" d="M170.915,-44.4393C162.589,-44.5681 154.019,-44.6058 145.551,-44.5526"/>
<polygon fill="midnightblue" stroke="midnightblue" points="145.33,-41.0501 135.293,-44.4425 145.255,-48.0497 145.33,-41.0501"/>
</g>
<!-- Node3 -->
<g id="node3" class="node"><title>Node3</title>
<g id="a_node3"><a xlink:href="classscram_1_1mef_1_1Substitution.xhtml#a0a6da28d1514d7543d80e554e144df6f" target="_top" xlink:title="Adds a source event to the substitution container. ">
<polygon fill="white" stroke="black" points="342,-72.3259 342,-91.3259 502,-91.3259 502,-72.3259 342,-72.3259"/>
<text text-anchor="middle" x="422" y="-79.3259" font-family="Helvetica,sans-Serif" font-size="10.00">scram::mef::Substitution::Add</text>
</a>
</g>
</g>
<!-- Node2&#45;&gt;Node3 -->
<g id="edge2" class="edge"><title>Node2&#45;&gt;Node3</title>
<path fill="none" stroke="midnightblue" d="M301.011,-52.8625C314.513,-56.1538 328.737,-59.6137 342,-62.8259 351.463,-65.1179 361.566,-67.5552 371.276,-69.8928"/>
<polygon fill="midnightblue" stroke="midnightblue" points="370.669,-73.3464 381.21,-72.2825 372.306,-66.5406 370.669,-73.3464"/>
</g>
<!-- Node7 -->
<g id="node7" class="node"><title>Node7</title>
<g id="a_node7"><a xlink:href="classscram_1_1mef_1_1Substitution.xhtml#a01bb7b2682e333bb6cd4b730447162c2" target="_top" xlink:title="scram::mef::Substitution\l::type">
<polygon fill="white" stroke="black" points="354.5,-22.8259 354.5,-52.8259 489.5,-52.8259 489.5,-22.8259 354.5,-22.8259"/>
<text text-anchor="start" x="362.5" y="-40.8259" font-family="Helvetica,sans-Serif" font-size="10.00">scram::mef::Substitution</text>
<text text-anchor="middle" x="422" y="-29.8259" font-family="Helvetica,sans-Serif" font-size="10.00">::type</text>
</a>
</g>
</g>
<!-- Node2&#45;&gt;Node7 -->
<g id="edge6" class="edge"><title>Node2&#45;&gt;Node7</title>
<path fill="none" stroke="midnightblue" d="M306.053,-37.8259C318.507,-37.8259 331.616,-37.8259 344.347,-37.8259"/>
<polygon fill="midnightblue" stroke="midnightblue" points="344.455,-41.326 354.455,-37.8259 344.455,-34.326 344.455,-41.326"/>
</g>
<!-- Node4 -->
<g id="node4" class="node"><title>Node4</title>
<g id="a_node4"><a xlink:href="classscram_1_1mef_1_1Id.xhtml#a7e258c5f6332715d5ed6a3fdbf681a8b" target="_top" xlink:title="scram::mef::Id::id">
<polygon fill="white" stroke="black" points="538,-61.3259 538,-80.3259 638,-80.3259 638,-61.3259 538,-61.3259"/>
<text text-anchor="middle" x="588" y="-68.3259" font-family="Helvetica,sans-Serif" font-size="10.00">scram::mef::Id::id</text>
</a>
</g>
</g>
<!-- Node3&#45;&gt;Node4 -->
<g id="edge3" class="edge"><title>Node3&#45;&gt;Node4</title>
<path fill="none" stroke="midnightblue" d="M502.118,-76.5193C510.641,-75.9476 519.207,-75.3731 527.445,-74.8205"/>
<polygon fill="midnightblue" stroke="midnightblue" points="527.933,-78.2957 537.676,-74.1342 527.465,-71.3114 527.933,-78.2957"/>
</g>
<!-- Node4&#45;&gt;Node5 -->
<g id="edge4" class="edge"><title>Node4&#45;&gt;Node5</title>
<path fill="none" stroke="midnightblue" d="M614.17,-61.2457C633.501,-53.888 660.795,-43.4991 684.402,-34.5137"/>
<polygon fill="midnightblue" stroke="midnightblue" points="685.818,-37.7197 693.919,-30.8913 683.328,-31.1776 685.818,-37.7197"/>
</g>
<!-- Node6 -->
<g id="node6" class="node"><title>Node6</title>
<g id="a_node6"><a xlink:href="classscram_1_1mef_1_1Role.xhtml#aa1843c29411c29b27d79414d34525bbc" target="_top" xlink:title="scram::mef::Role::role">
<polygon fill="white" stroke="black" points="674,-61.3259 674,-80.3259 795,-80.3259 795,-61.3259 674,-61.3259"/>
<text text-anchor="middle" x="734.5" y="-68.3259" font-family="Helvetica,sans-Serif" font-size="10.00">scram::mef::Role::role</text>
</a>
</g>
</g>
<!-- Node4&#45;&gt;Node6 -->
<g id="edge5" class="edge"><title>Node4&#45;&gt;Node6</title>
<path fill="none" stroke="midnightblue" d="M638.325,-70.8259C646.552,-70.8259 655.221,-70.8259 663.841,-70.8259"/>
<polygon fill="midnightblue" stroke="midnightblue" points="663.908,-74.326 673.908,-70.8259 663.908,-67.326 663.908,-74.326"/>
</g>
</g>
</svg>
