<?xml version="1.0" encoding="UTF-8" standalone="no"?>
<!DOCTYPE svg PUBLIC "-//W3C//DTD SVG 1.1//EN"
 "http://www.w3.org/Graphics/SVG/1.1/DTD/svg11.dtd">
<!-- Generated by graphviz version 2.38.0 (20140413.2041)
 -->
<!-- Title: scram::core::Zbdd::Analyze Pages: 1 -->
<svg width="807pt" height="835pt"
 viewBox="0.00 0.00 807.00 835.00" xmlns="http://www.w3.org/2000/svg" xmlns:xlink="http://www.w3.org/1999/xlink">
<g id="graph0" class="graph" transform="scale(1 1) rotate(0) translate(4 831)">
<title>scram::core::Zbdd::Analyze</title>
<polygon fill="white" stroke="none" points="-4,4 -4,-831 803,-831 803,4 -4,4"/>
<!-- Node1 -->
<g id="node1" class="node"><title>Node1</title>
<polygon fill="#bfbfbf" stroke="black" points="0,-465.5 0,-495.5 111,-495.5 111,-465.5 0,-465.5"/>
<text text-anchor="start" x="8" y="-483.5" font-family="Helvetica,sans-Serif" font-size="10.00">scram::core::Zbdd::</text>
<text text-anchor="middle" x="55.5" y="-472.5" font-family="Helvetica,sans-Serif" font-size="10.00">Analyze</text>
</g>
<!-- Node2 -->
<g id="node2" class="node"><title>Node2</title>
<g id="a_node2"><a xlink:href="classscram_1_1core_1_1Zbdd.xhtml#a8cfceb8301f35bce33c34f1283f33725" target="_top" xlink:title="Applies non&#45;declarative substitutions at the end of analysis. ">
<polygon fill="white" stroke="black" points="147,-383.5 147,-413.5 258,-413.5 258,-383.5 147,-383.5"/>
<text text-anchor="start" x="155" y="-401.5" font-family="Helvetica,sans-Serif" font-size="10.00">scram::core::Zbdd::</text>
<text text-anchor="middle" x="202.5" y="-390.5" font-family="Helvetica,sans-Serif" font-size="10.00">ApplySubstitutions</text>
</a>
</g>
</g>
<!-- Node1&#45;&gt;Node2 -->
<g id="edge1" class="edge"><title>Node1&#45;&gt;Node2</title>
<path fill="none" stroke="midnightblue" d="M83.0952,-465.46C106.251,-452.365 140.019,-433.268 165.574,-418.817"/>
<polygon fill="midnightblue" stroke="midnightblue" points="167.601,-421.692 174.582,-413.722 164.155,-415.598 167.601,-421.692"/>
</g>
<!-- Node5 -->
<g id="node5" class="node"><title>Node5</title>
<g id="a_node5"><a xlink:href="structscram_1_1core_1_1IntrusivePtrCast.xhtml#af153c12dc6133b7d9f9b7a57bba29f1d" target="_top" xlink:title="scram::core::IntrusivePtr\lCast\&lt; SetNode \&gt;::Ref">
<polygon fill="white" stroke="black" points="665,-678.5 665,-708.5 799,-708.5 799,-678.5 665,-678.5"/>
<text text-anchor="start" x="673" y="-696.5" font-family="Helvetica,sans-Serif" font-size="10.00">scram::core::IntrusivePtr</text>
<text text-anchor="middle" x="732" y="-685.5" font-family="Helvetica,sans-Serif" font-size="10.00">Cast&lt; SetNode &gt;::Ref</text>
</a>
</g>
</g>
<!-- Node1&#45;&gt;Node5 -->
<g id="edge43" class="edge"><title>Node1&#45;&gt;Node5</title>
<path fill="none" stroke="midnightblue" d="M71.1446,-495.613C106.307,-531.068 199.609,-620.299 294,-669.5 427.61,-739.144 479.678,-741.623 629,-721.5 644.675,-719.388 661.349,-715.527 676.575,-711.334"/>
<polygon fill="midnightblue" stroke="midnightblue" points="677.691,-714.655 686.347,-708.545 675.77,-707.924 677.691,-714.655"/>
</g>
<!-- Node6 -->
<g id="node6" class="node"><title>Node6</title>
<g id="a_node6"><a xlink:href="classscram_1_1core_1_1SetNode.xhtml#a2d7f99792b82961df2e5ecfcd735bb5f" target="_top" xlink:title="scram::core::SetNode\l::max_set_order">
<polygon fill="white" stroke="black" points="671,-200.5 671,-230.5 793,-230.5 793,-200.5 671,-200.5"/>
<text text-anchor="start" x="679" y="-218.5" font-family="Helvetica,sans-Serif" font-size="10.00">scram::core::SetNode</text>
<text text-anchor="middle" x="732" y="-207.5" font-family="Helvetica,sans-Serif" font-size="10.00">::max_set_order</text>
</a>
</g>
</g>
<!-- Node1&#45;&gt;Node6 -->
<g id="edge40" class="edge"><title>Node1&#45;&gt;Node6</title>
<path fill="none" stroke="midnightblue" d="M59.781,-465.414C74.1683,-403.436 138.056,-167.495 294,-78.5 358.866,-41.4818 562.754,-71.0113 629,-105.5 667.436,-125.51 698.996,-165.975 716.383,-191.854"/>
<polygon fill="midnightblue" stroke="midnightblue" points="713.529,-193.885 721.929,-200.342 719.389,-190.056 713.529,-193.885"/>
</g>
<!-- Node7 -->
<g id="node7" class="node"><title>Node7</title>
<g id="a_node7"><a xlink:href="classscram_1_1core_1_1Settings.xhtml#a0e43ec0f017d23a4fa4e376c4060d380" target="_top" xlink:title="scram::core::Settings\l::limit_order">
<polygon fill="white" stroke="black" points="304,-0.5 304,-30.5 423,-30.5 423,-0.5 304,-0.5"/>
<text text-anchor="start" x="312" y="-18.5" font-family="Helvetica,sans-Serif" font-size="10.00">scram::core::Settings</text>
<text text-anchor="middle" x="363.5" y="-7.5" font-family="Helvetica,sans-Serif" font-size="10.00">::limit_order</text>
</a>
</g>
</g>
<!-- Node1&#45;&gt;Node7 -->
<g id="edge39" class="edge"><title>Node1&#45;&gt;Node7</title>
<path fill="none" stroke="midnightblue" d="M57.4011,-465.049C61.8391,-394.591 83.7632,-104.648 147,-45.5 185.552,-9.44073 246.231,-3.81011 293.391,-6.1324"/>
<polygon fill="midnightblue" stroke="midnightblue" points="293.342,-9.63601 303.54,-6.76317 293.776,-2.64949 293.342,-9.63601"/>
</g>
<!-- Node8 -->
<g id="node8" class="node"><title>Node8</title>
<g id="a_node8"><a xlink:href="classscram_1_1core_1_1Zbdd.xhtml#a3dbb8ef5da2882daf6c39e9724eae459" target="_top" xlink:title="Removes subsets in ZBDD. ">
<polygon fill="white" stroke="black" points="308,-465.5 308,-495.5 419,-495.5 419,-465.5 308,-465.5"/>
<text text-anchor="start" x="316" y="-483.5" font-family="Helvetica,sans-Serif" font-size="10.00">scram::core::Zbdd::</text>
<text text-anchor="middle" x="363.5" y="-472.5" font-family="Helvetica,sans-Serif" font-size="10.00">Minimize</text>
</a>
</g>
</g>
<!-- Node1&#45;&gt;Node8 -->
<g id="edge42" class="edge"><title>Node1&#45;&gt;Node8</title>
<path fill="none" stroke="midnightblue" d="M111.207,-480.5C163.479,-480.5 242.297,-480.5 297.693,-480.5"/>
<polygon fill="midnightblue" stroke="midnightblue" points="297.752,-484 307.752,-480.5 297.752,-477 297.752,-484"/>
</g>
<!-- Node10 -->
<g id="node10" class="node"><title>Node10</title>
<g id="a_node10"><a xlink:href="classscram_1_1core_1_1SetNode.xhtml#a88d05af2b9f4f08b7bc66a31c2b9e249" target="_top" xlink:title="scram::core::SetNode\l::minimal">
<polygon fill="white" stroke="black" points="488,-603.5 488,-633.5 610,-633.5 610,-603.5 488,-603.5"/>
<text text-anchor="start" x="496" y="-621.5" font-family="Helvetica,sans-Serif" font-size="10.00">scram::core::SetNode</text>
<text text-anchor="middle" x="549" y="-610.5" font-family="Helvetica,sans-Serif" font-size="10.00">::minimal</text>
</a>
</g>
</g>
<!-- Node1&#45;&gt;Node10 -->
<g id="edge41" class="edge"><title>Node1&#45;&gt;Node10</title>
<path fill="none" stroke="midnightblue" d="M103.171,-495.566C150.923,-510.811 227.356,-534.742 294,-553.5 355.924,-570.929 426.889,-588.925 478.039,-601.549"/>
<polygon fill="midnightblue" stroke="midnightblue" points="477.45,-605.009 487.996,-604.001 479.123,-598.212 477.45,-605.009"/>
</g>
<!-- Node23 -->
<g id="node23" class="node"><title>Node23</title>
<g id="a_node23"><a xlink:href="classscram_1_1core_1_1Zbdd.xhtml#a3e6359ba152137912cbafc500c2e6430" target="_top" xlink:title="Freezes the graph. ">
<polygon fill="white" stroke="black" points="147,-796.5 147,-826.5 258,-826.5 258,-796.5 147,-796.5"/>
<text text-anchor="start" x="155" y="-814.5" font-family="Helvetica,sans-Serif" font-size="10.00">scram::core::Zbdd::</text>
<text text-anchor="middle" x="202.5" y="-803.5" font-family="Helvetica,sans-Serif" font-size="10.00">Freeze</text>
</a>
</g>
</g>
<!-- Node1&#45;&gt;Node23 -->
<g id="edge37" class="edge"><title>Node1&#45;&gt;Node23</title>
<path fill="none" stroke="midnightblue" d="M57.1367,-495.808C59.869,-543.456 74.1023,-691.323 147,-781.5 149.712,-784.854 152.904,-787.892 156.36,-790.631"/>
<polygon fill="midnightblue" stroke="midnightblue" points="154.592,-793.664 164.804,-796.486 158.58,-787.911 154.592,-793.664"/>
</g>
<!-- Node3 -->
<g id="node3" class="node"><title>Node3</title>
<g id="a_node3"><a xlink:href="classscram_1_1core_1_1Zbdd.xhtml#a7c1129acd9810b5b9ff4952f587ce490" target="_top" xlink:title="Clears all memoization tables. ">
<polygon fill="white" stroke="black" points="308,-796.5 308,-826.5 419,-826.5 419,-796.5 308,-796.5"/>
<text text-anchor="start" x="316" y="-814.5" font-family="Helvetica,sans-Serif" font-size="10.00">scram::core::Zbdd::</text>
<text text-anchor="middle" x="363.5" y="-803.5" font-family="Helvetica,sans-Serif" font-size="10.00">ClearTables</text>
</a>
</g>
</g>
<!-- Node2&#45;&gt;Node3 -->
<g id="edge2" class="edge"><title>Node2&#45;&gt;Node3</title>
<path fill="none" stroke="midnightblue" d="M204.635,-413.687C208.961,-463.978 227.68,-628.419 294,-743.5 304.212,-761.22 320.256,-777.499 334.25,-789.684"/>
<polygon fill="midnightblue" stroke="midnightblue" points="332.287,-792.607 342.193,-796.366 336.793,-787.25 332.287,-792.607"/>
</g>
<!-- Node4 -->
<g id="node4" class="node"><title>Node4</title>
<g id="a_node4"><a xlink:href="classscram_1_1core_1_1Zbdd.xhtml#a42af18229ba2e80201bc0fdac07b7091" target="_top" xlink:title="Finds or adds a unique SetNode in the ZBDD. ">
<polygon fill="white" stroke="black" points="493.5,-652.5 493.5,-682.5 604.5,-682.5 604.5,-652.5 493.5,-652.5"/>
<text text-anchor="start" x="501.5" y="-670.5" font-family="Helvetica,sans-Serif" font-size="10.00">scram::core::Zbdd::</text>
<text text-anchor="middle" x="549" y="-659.5" font-family="Helvetica,sans-Serif" font-size="10.00">FindOrAddVertex</text>
</a>
</g>
</g>
<!-- Node2&#45;&gt;Node4 -->
<g id="edge3" class="edge"><title>Node2&#45;&gt;Node4</title>
<path fill="none" stroke="midnightblue" d="M208.939,-413.604C220.429,-443.693 249.806,-511.797 294,-553.5 347.725,-604.196 427.824,-634.991 483.662,-651.578"/>
<polygon fill="midnightblue" stroke="midnightblue" points="482.868,-654.992 493.447,-654.413 484.816,-648.268 482.868,-654.992"/>
</g>
<!-- Node2&#45;&gt;Node5 -->
<g id="edge19" class="edge"><title>Node2&#45;&gt;Node5</title>
<path fill="none" stroke="midnightblue" d="M207.296,-413.675C215.892,-450.279 240.413,-542.787 294,-598.5 387.446,-695.651 556.273,-700.368 654.482,-696.331"/>
<polygon fill="midnightblue" stroke="midnightblue" points="654.805,-699.821 664.637,-695.874 654.489,-692.828 654.805,-699.821"/>
</g>
<!-- Node2&#45;&gt;Node5 -->
<g id="edge35" class="edge"><title>Node2&#45;&gt;Node5</title>
<path fill="none" stroke="midnightblue" d="M205.498,-413.711C212.074,-452.891 236.027,-556.228 294,-616.5 387.446,-713.651 556.273,-718.368 654.482,-708.647"/>
<polygon fill="midnightblue" stroke="midnightblue" points="655.064,-712.105 664.637,-707.564 654.322,-705.145 655.064,-712.105"/>
</g>
<!-- Node2&#45;&gt;Node7 -->
<g id="edge6" class="edge"><title>Node2&#45;&gt;Node7</title>
<path fill="none" stroke="midnightblue" d="M204.849,-383.314C209.706,-335.217 229.575,-183.248 294,-78.5 303.814,-62.544 318.788,-48.119 332.236,-37.1108"/>
<polygon fill="midnightblue" stroke="midnightblue" points="334.664,-39.6536 340.352,-30.7151 330.331,-34.1556 334.664,-39.6536"/>
</g>
<!-- Node2&#45;&gt;Node8 -->
<g id="edge7" class="edge"><title>Node2&#45;&gt;Node8</title>
<path fill="none" stroke="midnightblue" d="M228.07,-413.587C246.05,-424.387 271.187,-438.993 294,-450.5 301.252,-454.158 309.051,-457.82 316.696,-461.265"/>
<polygon fill="midnightblue" stroke="midnightblue" points="315.337,-464.491 325.897,-465.345 318.174,-458.092 315.337,-464.491"/>
</g>
<!-- Node2&#45;&gt;Node10 -->
<g id="edge36" class="edge"><title>Node2&#45;&gt;Node10</title>
<path fill="none" stroke="midnightblue" d="M213.314,-413.586C228.421,-435.862 259.288,-477.792 294,-504.5 362.376,-557.11 389.713,-554.489 469,-588.5 477.906,-592.32 487.476,-596.167 496.774,-599.771"/>
<polygon fill="midnightblue" stroke="midnightblue" points="495.735,-603.121 506.325,-603.428 498.238,-596.584 495.735,-603.121"/>
</g>
<!-- Node11 -->
<g id="node11" class="node"><title>Node11</title>
<g id="a_node11"><a xlink:href="classscram_1_1core_1_1Terminal.xhtml#a7a25b0b40498f4876571a5dac4e724c3" target="_top" xlink:title="scram::core::Terminal\l::value">
<polygon fill="white" stroke="black" points="489.5,-399.5 489.5,-429.5 608.5,-429.5 608.5,-399.5 489.5,-399.5"/>
<text text-anchor="start" x="497.5" y="-417.5" font-family="Helvetica,sans-Serif" font-size="10.00">scram::core::Terminal</text>
<text text-anchor="middle" x="549" y="-406.5" font-family="Helvetica,sans-Serif" font-size="10.00">::value</text>
</a>
</g>
</g>
<!-- Node2&#45;&gt;Node11 -->
<g id="edge30" class="edge"><title>Node2&#45;&gt;Node11</title>
<path fill="none" stroke="midnightblue" d="M258.386,-408.3C270.102,-410.024 282.432,-411.565 294,-412.5 356.506,-417.554 427.944,-417.61 479.104,-416.662"/>
<polygon fill="midnightblue" stroke="midnightblue" points="479.453,-420.155 489.38,-416.453 479.311,-413.157 479.453,-420.155"/>
</g>
<!-- Node14 -->
<g id="node14" class="node"><title>Node14</title>
<g id="a_node14"><a xlink:href="classscram_1_1core_1_1NonTerminal.xhtml#aeeaafd82ae5890a7ec3462c68ffc8628" target="_top" xlink:title="scram::core::NonTerminal\l::index">
<polygon fill="white" stroke="black" points="479.5,-350.5 479.5,-380.5 618.5,-380.5 618.5,-350.5 479.5,-350.5"/>
<text text-anchor="start" x="487.5" y="-368.5" font-family="Helvetica,sans-Serif" font-size="10.00">scram::core::NonTerminal</text>
<text text-anchor="middle" x="549" y="-357.5" font-family="Helvetica,sans-Serif" font-size="10.00">::index</text>
</a>
</g>
</g>
<!-- Node2&#45;&gt;Node14 -->
<g id="edge33" class="edge"><title>Node2&#45;&gt;Node14</title>
<path fill="none" stroke="midnightblue" d="M258.087,-393.271C314.996,-387.82 404.728,-379.224 469.292,-373.04"/>
<polygon fill="midnightblue" stroke="midnightblue" points="469.809,-376.506 479.429,-372.068 469.141,-369.538 469.809,-376.506"/>
</g>
<!-- Node15 -->
<g id="node15" class="node"><title>Node15</title>
<g id="a_node15"><a xlink:href="classscram_1_1core_1_1NonTerminal.xhtml#a9230422e92d086c34f67bcb864bfc8a9" target="_top" xlink:title="scram::core::NonTerminal\l::module">
<polygon fill="white" stroke="black" points="479.5,-301.5 479.5,-331.5 618.5,-331.5 618.5,-301.5 479.5,-301.5"/>
<text text-anchor="start" x="487.5" y="-319.5" font-family="Helvetica,sans-Serif" font-size="10.00">scram::core::NonTerminal</text>
<text text-anchor="middle" x="549" y="-308.5" font-family="Helvetica,sans-Serif" font-size="10.00">::module</text>
</a>
</g>
</g>
<!-- Node2&#45;&gt;Node15 -->
<g id="edge32" class="edge"><title>Node2&#45;&gt;Node15</title>
<path fill="none" stroke="midnightblue" d="M258.459,-383.599C270.17,-380.515 282.479,-377.342 294,-374.5 352.669,-360.027 419.276,-344.864 469.559,-333.673"/>
<polygon fill="midnightblue" stroke="midnightblue" points="470.388,-337.075 479.391,-331.49 468.87,-330.241 470.388,-337.075"/>
</g>
<!-- Node17 -->
<g id="node17" class="node"><title>Node17</title>
<g id="a_node17"><a xlink:href="classscram_1_1core_1_1NonTerminal.xhtml#a7b70ab1b978f3197458c95e0891fd79c" target="_top" xlink:title="scram::core::NonTerminal\l::mark">
<polygon fill="white" stroke="black" points="294,-137.5 294,-167.5 433,-167.5 433,-137.5 294,-137.5"/>
<text text-anchor="start" x="302" y="-155.5" font-family="Helvetica,sans-Serif" font-size="10.00">scram::core::NonTerminal</text>
<text text-anchor="middle" x="363.5" y="-144.5" font-family="Helvetica,sans-Serif" font-size="10.00">::mark</text>
</a>
</g>
</g>
<!-- Node2&#45;&gt;Node17 -->
<g id="edge20" class="edge"><title>Node2&#45;&gt;Node17</title>
<path fill="none" stroke="midnightblue" d="M205.883,-383.271C212.673,-344.68 235.537,-241.908 294,-182.5 297.607,-178.835 301.738,-175.585 306.144,-172.711"/>
<polygon fill="midnightblue" stroke="midnightblue" points="307.998,-175.682 314.891,-167.635 304.485,-169.627 307.998,-175.682"/>
</g>
<!-- Node18 -->
<g id="node18" class="node"><title>Node18</title>
<g id="a_node18"><a xlink:href="classscram_1_1core_1_1NonTerminal.xhtml#a7b184b2ba68a289aae9f3737f1d13b97" target="_top" xlink:title="scram::core::NonTerminal\l::high">
<polygon fill="white" stroke="black" points="479.5,-203.5 479.5,-233.5 618.5,-233.5 618.5,-203.5 479.5,-203.5"/>
<text text-anchor="start" x="487.5" y="-221.5" font-family="Helvetica,sans-Serif" font-size="10.00">scram::core::NonTerminal</text>
<text text-anchor="middle" x="549" y="-210.5" font-family="Helvetica,sans-Serif" font-size="10.00">::high</text>
</a>
</g>
</g>
<!-- Node2&#45;&gt;Node18 -->
<g id="edge21" class="edge"><title>Node2&#45;&gt;Node18</title>
<path fill="none" stroke="midnightblue" d="M212.261,-383.261C226.436,-359.972 256.619,-315.688 294,-291.5 302.129,-286.24 409.983,-256.175 482.508,-236.305"/>
<polygon fill="midnightblue" stroke="midnightblue" points="483.771,-239.588 492.493,-233.573 481.923,-232.837 483.771,-239.588"/>
</g>
<!-- Node19 -->
<g id="node19" class="node"><title>Node19</title>
<g id="a_node19"><a xlink:href="classscram_1_1core_1_1NonTerminal.xhtml#adeb100923176ebd5f820c75b79280796" target="_top" xlink:title="scram::core::NonTerminal::low">
<polygon fill="white" stroke="black" points="469,-165 469,-184 629,-184 629,-165 469,-165"/>
<text text-anchor="middle" x="549" y="-172" font-family="Helvetica,sans-Serif" font-size="10.00">scram::core::NonTerminal::low</text>
</a>
</g>
</g>
<!-- Node2&#45;&gt;Node19 -->
<g id="edge22" class="edge"><title>Node2&#45;&gt;Node19</title>
<path fill="none" stroke="midnightblue" d="M208.408,-383.101C218.946,-352.579 246.693,-284.269 294,-248.5 345.086,-209.874 372.927,-232.702 433,-210.5 449.597,-204.366 452.31,-199.377 469,-193.5 476.124,-190.991 483.723,-188.701 491.287,-186.647"/>
<polygon fill="midnightblue" stroke="midnightblue" points="492.367,-189.983 501.169,-184.085 490.61,-183.207 492.367,-189.983"/>
</g>
<!-- Node20 -->
<g id="node20" class="node"><title>Node20</title>
<g id="a_node20"><a xlink:href="classscram_1_1core_1_1Zbdd.xhtml#aed1eaa96df30e6eaa32e9e51427c9743" target="_top" xlink:title="scram::core::Zbdd::\lmodules">
<polygon fill="white" stroke="black" points="308,-301.5 308,-331.5 419,-331.5 419,-301.5 308,-301.5"/>
<text text-anchor="start" x="316" y="-319.5" font-family="Helvetica,sans-Serif" font-size="10.00">scram::core::Zbdd::</text>
<text text-anchor="middle" x="363.5" y="-308.5" font-family="Helvetica,sans-Serif" font-size="10.00">modules</text>
</a>
</g>
</g>
<!-- Node2&#45;&gt;Node20 -->
<g id="edge23" class="edge"><title>Node2&#45;&gt;Node20</title>
<path fill="none" stroke="midnightblue" d="M228.07,-383.413C246.05,-372.613 271.187,-358.007 294,-346.5 301.252,-342.842 309.051,-339.18 316.696,-335.735"/>
<polygon fill="midnightblue" stroke="midnightblue" points="318.174,-338.908 325.897,-331.655 315.337,-332.509 318.174,-338.908"/>
</g>
<!-- Node21 -->
<g id="node21" class="node"><title>Node21</title>
<g id="a_node21"><a xlink:href="classscram_1_1core_1_1NonTerminal.xhtml#af5853746ad388f479a7aa45c5d843466" target="_top" xlink:title="scram::core::NonTerminal\l\&lt; SetNode \&gt;::order">
<polygon fill="white" stroke="black" points="479.5,-115.5 479.5,-145.5 618.5,-145.5 618.5,-115.5 479.5,-115.5"/>
<text text-anchor="start" x="487.5" y="-133.5" font-family="Helvetica,sans-Serif" font-size="10.00">scram::core::NonTerminal</text>
<text text-anchor="middle" x="549" y="-122.5" font-family="Helvetica,sans-Serif" font-size="10.00">&lt; SetNode &gt;::order</text>
</a>
</g>
</g>
<!-- Node2&#45;&gt;Node21 -->
<g id="edge34" class="edge"><title>Node2&#45;&gt;Node21</title>
<path fill="none" stroke="midnightblue" d="M206.239,-383.35C213.554,-347.435 237.01,-256.682 294,-210.5 343.412,-170.459 374.032,-200.325 433,-176.5 450.174,-169.561 452.066,-163.007 469,-155.5 474.096,-153.241 479.46,-151.093 484.893,-149.074"/>
<polygon fill="midnightblue" stroke="midnightblue" points="486.456,-152.233 494.704,-145.584 484.11,-145.638 486.456,-152.233"/>
</g>
<!-- Node22 -->
<g id="node22" class="node"><title>Node22</title>
<g id="a_node22"><a xlink:href="classscram_1_1core_1_1SetNode.xhtml#a687ac81766268cd0094acbfcd7c26af0" target="_top" xlink:title="scram::core::SetNode\l::count">
<polygon fill="white" stroke="black" points="302.5,-88.5 302.5,-118.5 424.5,-118.5 424.5,-88.5 302.5,-88.5"/>
<text text-anchor="start" x="310.5" y="-106.5" font-family="Helvetica,sans-Serif" font-size="10.00">scram::core::SetNode</text>
<text text-anchor="middle" x="363.5" y="-95.5" font-family="Helvetica,sans-Serif" font-size="10.00">::count</text>
</a>
</g>
</g>
<!-- Node2&#45;&gt;Node22 -->
<g id="edge31" class="edge"><title>Node2&#45;&gt;Node22</title>
<path fill="none" stroke="midnightblue" d="M204.096,-383.233C206.694,-337.809 220.539,-202.049 294,-127.5 294.945,-126.541 295.931,-125.62 296.952,-124.735"/>
<polygon fill="midnightblue" stroke="midnightblue" points="299.327,-127.338 305.392,-118.651 295.233,-121.66 299.327,-127.338"/>
</g>
<!-- Node4&#45;&gt;Node5 -->
<g id="edge4" class="edge"><title>Node4&#45;&gt;Node5</title>
<path fill="none" stroke="midnightblue" d="M604.797,-675.371C620.479,-677.624 637.865,-680.121 654.592,-682.524"/>
<polygon fill="midnightblue" stroke="midnightblue" points="654.504,-686.048 664.901,-684.005 655.5,-679.119 654.504,-686.048"/>
</g>
<!-- Node4&#45;&gt;Node6 -->
<g id="edge5" class="edge"><title>Node4&#45;&gt;Node6</title>
<path fill="none" stroke="midnightblue" d="M604.585,-659.076C613.869,-655.365 622.571,-650.063 629,-642.5 700.851,-557.974 637.759,-503.041 665,-395.5 679.506,-338.235 705.62,-273.856 720.276,-239.751"/>
<polygon fill="midnightblue" stroke="midnightblue" points="723.489,-241.139 724.258,-230.573 717.067,-238.353 723.489,-241.139"/>
</g>
<!-- Node8&#45;&gt;Node4 -->
<g id="edge10" class="edge"><title>Node8&#45;&gt;Node4</title>
<path fill="none" stroke="midnightblue" d="M370.243,-495.971C382.964,-528.122 416.599,-602.483 469,-642.5 473.614,-646.024 478.737,-649.058 484.094,-651.669"/>
<polygon fill="midnightblue" stroke="midnightblue" points="482.715,-654.886 493.28,-655.676 485.513,-648.47 482.715,-654.886"/>
</g>
<!-- Node8&#45;&gt;Node5 -->
<g id="edge9" class="edge"><title>Node8&#45;&gt;Node5</title>
<path fill="none" stroke="midnightblue" d="M404.49,-495.585C423.668,-505.423 447.17,-517.828 469,-527.5 538.017,-558.08 564.996,-544.474 629,-584.5 665.329,-607.219 699.083,-644.823 717.189,-669.638"/>
<polygon fill="midnightblue" stroke="midnightblue" points="714.535,-671.951 723.127,-678.15 720.276,-667.946 714.535,-671.951"/>
</g>
<!-- Node8&#45;&gt;Node5 -->
<g id="edge11" class="edge"><title>Node8&#45;&gt;Node5</title>
<path fill="none" stroke="midnightblue" d="M379.374,-495.514C399.327,-510.097 436.067,-530.908 469,-545.5 538.017,-576.08 564.996,-562.474 629,-602.5 659.204,-621.388 687.627,-650.566 706.758,-670.948"/>
<polygon fill="midnightblue" stroke="midnightblue" points="704.234,-673.373 713.62,-678.289 709.348,-668.593 704.234,-673.373"/>
</g>
<!-- Node9 -->
<g id="node9" class="node"><title>Node9</title>
<g id="a_node9"><a xlink:href="structscram_1_1core_1_1IntrusivePtrCast.xhtml#adc53e5b89cace18e05bac95316da7d91" target="_top" xlink:title="scram::core::IntrusivePtr\lCast\&lt; SetNode \&gt;::Ptr">
<polygon fill="white" stroke="black" points="482,-497.5 482,-527.5 616,-527.5 616,-497.5 482,-497.5"/>
<text text-anchor="start" x="490" y="-515.5" font-family="Helvetica,sans-Serif" font-size="10.00">scram::core::IntrusivePtr</text>
<text text-anchor="middle" x="549" y="-504.5" font-family="Helvetica,sans-Serif" font-size="10.00">Cast&lt; SetNode &gt;::Ptr</text>
</a>
</g>
</g>
<!-- Node8&#45;&gt;Node9 -->
<g id="edge8" class="edge"><title>Node8&#45;&gt;Node9</title>
<path fill="none" stroke="midnightblue" d="M419.059,-490.014C435.574,-492.894 454.024,-496.112 471.687,-499.192"/>
<polygon fill="midnightblue" stroke="midnightblue" points="471.523,-502.716 481.976,-500.986 472.726,-495.82 471.523,-502.716"/>
</g>
<!-- Node8&#45;&gt;Node10 -->
<g id="edge12" class="edge"><title>Node8&#45;&gt;Node10</title>
<path fill="none" stroke="midnightblue" d="M394.829,-495.671C407.67,-503.122 422.139,-512.983 433,-524.5 455.391,-548.243 444.265,-567.21 469,-588.5 473.488,-592.363 478.524,-595.753 483.824,-598.724"/>
<polygon fill="midnightblue" stroke="midnightblue" points="482.44,-601.946 492.943,-603.337 485.6,-595.7 482.44,-601.946"/>
</g>
<!-- Node8&#45;&gt;Node11 -->
<g id="edge13" class="edge"><title>Node8&#45;&gt;Node11</title>
<path fill="none" stroke="midnightblue" d="M399.997,-465.338C420.084,-456.984 445.762,-446.682 469,-438.5 474.543,-436.548 480.338,-434.606 486.16,-432.72"/>
<polygon fill="midnightblue" stroke="midnightblue" points="487.477,-435.974 495.946,-429.609 485.356,-429.303 487.477,-435.974"/>
</g>
<!-- Node13 -->
<g id="node13" class="node"><title>Node13</title>
<g id="a_node13"><a xlink:href="classscram_1_1core_1_1Settings.xhtml#ae64f362fceb44402e101140dfc1725ba" target="_top" xlink:title="scram::core::Settings\l::prime_implicants">
<polygon fill="white" stroke="black" points="489.5,-448.5 489.5,-478.5 608.5,-478.5 608.5,-448.5 489.5,-448.5"/>
<text text-anchor="start" x="497.5" y="-466.5" font-family="Helvetica,sans-Serif" font-size="10.00">scram::core::Settings</text>
<text text-anchor="middle" x="549" y="-455.5" font-family="Helvetica,sans-Serif" font-size="10.00">::prime_implicants</text>
</a>
</g>
</g>
<!-- Node8&#45;&gt;Node13 -->
<g id="edge15" class="edge"><title>Node8&#45;&gt;Node13</title>
<path fill="none" stroke="midnightblue" d="M419.059,-475.445C438.038,-473.687 459.573,-471.692 479.534,-469.843"/>
<polygon fill="midnightblue" stroke="midnightblue" points="479.862,-473.328 489.496,-468.92 479.216,-466.357 479.862,-473.328"/>
</g>
<!-- Node8&#45;&gt;Node14 -->
<g id="edge16" class="edge"><title>Node8&#45;&gt;Node14</title>
<path fill="none" stroke="midnightblue" d="M377.885,-465.403C396.457,-445.331 431.959,-410.01 469,-389.5 472.264,-387.692 475.682,-386.004 479.187,-384.43"/>
<polygon fill="midnightblue" stroke="midnightblue" points="480.725,-387.582 488.627,-380.525 478.049,-381.113 480.725,-387.582"/>
</g>
<!-- Node8&#45;&gt;Node15 -->
<g id="edge17" class="edge"><title>Node8&#45;&gt;Node15</title>
<path fill="none" stroke="midnightblue" d="M374.062,-465.348C394.857,-432.82 444.304,-357.844 469,-340.5 471.155,-338.986 473.409,-337.566 475.734,-336.234"/>
<polygon fill="midnightblue" stroke="midnightblue" points="477.68,-339.171 485.01,-331.52 474.509,-332.93 477.68,-339.171"/>
</g>
<!-- Node16 -->
<g id="node16" class="node"><title>Node16</title>
<g id="a_node16"><a xlink:href="classscram_1_1core_1_1NonTerminal.xhtml#adcdd0c5114aa6a1d32a03928adc07c49" target="_top" xlink:title="scram::core::NonTerminal\l::coherent">
<polygon fill="white" stroke="black" points="479.5,-252.5 479.5,-282.5 618.5,-282.5 618.5,-252.5 479.5,-252.5"/>
<text text-anchor="start" x="487.5" y="-270.5" font-family="Helvetica,sans-Serif" font-size="10.00">scram::core::NonTerminal</text>
<text text-anchor="middle" x="549" y="-259.5" font-family="Helvetica,sans-Serif" font-size="10.00">::coherent</text>
</a>
</g>
</g>
<!-- Node8&#45;&gt;Node16 -->
<g id="edge18" class="edge"><title>Node8&#45;&gt;Node16</title>
<path fill="none" stroke="midnightblue" d="M372.08,-465.281C393.469,-422.563 453.734,-303.853 469,-291.5 470.588,-290.215 472.244,-288.999 473.955,-287.848"/>
<polygon fill="midnightblue" stroke="midnightblue" points="476.045,-290.68 482.917,-282.616 472.516,-284.635 476.045,-290.68"/>
</g>
<!-- Node12 -->
<g id="node12" class="node"><title>Node12</title>
<g id="a_node12"><a xlink:href="classscram_1_1core_1_1Vertex.xhtml#a8a4a6e9871c7b80b9951fea57617d438" target="_top" xlink:title="scram::core::Vertex::id">
<polygon fill="white" stroke="black" points="669.5,-405 669.5,-424 794.5,-424 794.5,-405 669.5,-405"/>
<text text-anchor="middle" x="732" y="-412" font-family="Helvetica,sans-Serif" font-size="10.00">scram::core::Vertex::id</text>
</a>
</g>
</g>
<!-- Node11&#45;&gt;Node12 -->
<g id="edge14" class="edge"><title>Node11&#45;&gt;Node12</title>
<path fill="none" stroke="midnightblue" d="M608.766,-414.5C624.836,-414.5 642.436,-414.5 659.148,-414.5"/>
<polygon fill="midnightblue" stroke="midnightblue" points="659.418,-418 669.418,-414.5 659.418,-411 659.418,-418"/>
</g>
<!-- Node20&#45;&gt;Node14 -->
<g id="edge24" class="edge"><title>Node20&#45;&gt;Node14</title>
<path fill="none" stroke="midnightblue" d="M419.059,-331.069C438.761,-336.33 461.216,-342.326 481.805,-347.824"/>
<polygon fill="midnightblue" stroke="midnightblue" points="481.178,-351.279 491.743,-350.478 482.984,-344.516 481.178,-351.279"/>
</g>
<!-- Node20&#45;&gt;Node15 -->
<g id="edge28" class="edge"><title>Node20&#45;&gt;Node15</title>
<path fill="none" stroke="midnightblue" d="M419.059,-316.5C434.72,-316.5 452.12,-316.5 468.94,-316.5"/>
<polygon fill="midnightblue" stroke="midnightblue" points="469.318,-320 479.318,-316.5 469.318,-313 469.318,-320"/>
</g>
<!-- Node20&#45;&gt;Node16 -->
<g id="edge29" class="edge"><title>Node20&#45;&gt;Node16</title>
<path fill="none" stroke="midnightblue" d="M419.059,-301.931C438.761,-296.67 461.216,-290.674 481.805,-285.176"/>
<polygon fill="midnightblue" stroke="midnightblue" points="482.984,-288.484 491.743,-282.522 481.178,-281.721 482.984,-288.484"/>
</g>
<!-- Node20&#45;&gt;Node18 -->
<g id="edge25" class="edge"><title>Node20&#45;&gt;Node18</title>
<path fill="none" stroke="midnightblue" d="M407.532,-301.375C416.393,-297.262 425.346,-292.306 433,-286.5 453.131,-271.23 448.005,-256.558 469,-242.5 471.401,-240.893 473.913,-239.389 476.505,-237.984"/>
<polygon fill="midnightblue" stroke="midnightblue" points="478.112,-241.095 485.575,-233.574 475.051,-234.799 478.112,-241.095"/>
</g>
<!-- Node20&#45;&gt;Node19 -->
<g id="edge26" class="edge"><title>Node20&#45;&gt;Node19</title>
<path fill="none" stroke="midnightblue" d="M381.545,-301.46C396.047,-288.242 417.005,-268.106 433,-248.5 451.468,-225.862 445.115,-210.323 469,-193.5 471.854,-191.49 474.895,-189.69 478.06,-188.08"/>
<polygon fill="midnightblue" stroke="midnightblue" points="479.517,-191.263 487.254,-184.025 476.692,-184.858 479.517,-191.263"/>
</g>
<!-- Node20&#45;&gt;Node21 -->
<g id="edge27" class="edge"><title>Node20&#45;&gt;Node21</title>
<path fill="none" stroke="midnightblue" d="M374.239,-301.424C400.019,-261.523 468.14,-156.155 469,-155.5 471.439,-153.643 474.02,-151.921 476.702,-150.326"/>
<polygon fill="midnightblue" stroke="midnightblue" points="478.351,-153.413 485.56,-145.649 475.083,-147.223 478.351,-153.413"/>
</g>
<!-- Node23&#45;&gt;Node3 -->
<g id="edge38" class="edge"><title>Node23&#45;&gt;Node3</title>
<path fill="none" stroke="midnightblue" d="M258.219,-811.5C270.907,-811.5 284.53,-811.5 297.607,-811.5"/>
<polygon fill="midnightblue" stroke="midnightblue" points="297.95,-815 307.95,-811.5 297.95,-808 297.95,-815"/>
</g>
</g>
</svg>
