<?xml version="1.0" encoding="UTF-8" standalone="no"?>
<!DOCTYPE svg PUBLIC "-//W3C//DTD SVG 1.1//EN"
 "http://www.w3.org/Graphics/SVG/1.1/DTD/svg11.dtd">
<!-- Generated by graphviz version 2.38.0 (20140413.2041)
 -->
<!-- Title: scram::Error Pages: 1 -->
<svg width="1421pt" height="370pt"
 viewBox="0.00 0.00 1421.00 370.00" xmlns="http://www.w3.org/2000/svg" xmlns:xlink="http://www.w3.org/1999/xlink">
<g id="graph0" class="graph" transform="scale(1 1) rotate(0) translate(4 366)">
<title>scram::Error</title>
<polygon fill="white" stroke="none" points="-4,4 -4,-366 1417,-366 1417,4 -4,4"/>
<!-- Node1 -->
<g id="node1" class="node"><title>Node1</title>
<polygon fill="#bfbfbf" stroke="black" points="437.5,-199.5 437.5,-267.5 513.5,-267.5 513.5,-199.5 437.5,-199.5"/>
<text text-anchor="middle" x="475.5" y="-255.5" font-family="Helvetica,sans-Serif" font-size="10.00">scram::Error</text>
<polyline fill="none" stroke="black" points="437.5,-248.5 513.5,-248.5 "/>
<text text-anchor="middle" x="475.5" y="-236.5" font-family="Helvetica,sans-Serif" font-size="10.00"> </text>
<polyline fill="none" stroke="black" points="437.5,-229.5 513.5,-229.5 "/>
<text text-anchor="start" x="445.5" y="-217.5" font-family="Helvetica,sans-Serif" font-size="10.00">+ Error()</text>
<text text-anchor="start" x="445.5" y="-206.5" font-family="Helvetica,sans-Serif" font-size="10.00">+ what()</text>
</g>
<!-- Node4 -->
<g id="node4" class="node"><title>Node4</title>
<g id="a_node4"><a xlink:href="structscram_1_1DLError.xhtml" target="_top" xlink:title="Dynamic library errors. ">
<polygon fill="white" stroke="black" points="0,-105.5 0,-162.5 89,-162.5 89,-105.5 0,-105.5"/>
<text text-anchor="middle" x="44.5" y="-150.5" font-family="Helvetica,sans-Serif" font-size="10.00">scram::DLError</text>
<polyline fill="none" stroke="black" points="0,-143.5 89,-143.5 "/>
<text text-anchor="middle" x="44.5" y="-131.5" font-family="Helvetica,sans-Serif" font-size="10.00"> </text>
<polyline fill="none" stroke="black" points="0,-124.5 89,-124.5 "/>
<text text-anchor="middle" x="44.5" y="-112.5" font-family="Helvetica,sans-Serif" font-size="10.00"> </text>
</a>
</g>
</g>
<!-- Node1&#45;&gt;Node4 -->
<g id="edge3" class="edge"><title>Node1&#45;&gt;Node4</title>
<path fill="none" stroke="midnightblue" d="M426.961,-228.333C353.836,-221.004 211.81,-202.657 97.5,-163 94.7471,-162.045 91.9624,-160.964 89.1858,-159.796"/>
<polygon fill="none" stroke="midnightblue" points="426.946,-231.848 437.238,-229.335 427.625,-224.881 426.946,-231.848"/>
</g>
<!-- Node5 -->
<g id="node5" class="node"><title>Node5</title>
<g id="a_node5"><a xlink:href="structscram_1_1IllegalOperation.xhtml" target="_top" xlink:title="This error can be used to indicate that call for a function or operation is not legal. ">
<polygon fill="white" stroke="black" points="107,-105.5 107,-162.5 234,-162.5 234,-105.5 107,-105.5"/>
<text text-anchor="middle" x="170.5" y="-150.5" font-family="Helvetica,sans-Serif" font-size="10.00">scram::IllegalOperation</text>
<polyline fill="none" stroke="black" points="107,-143.5 234,-143.5 "/>
<text text-anchor="middle" x="170.5" y="-131.5" font-family="Helvetica,sans-Serif" font-size="10.00"> </text>
<polyline fill="none" stroke="black" points="107,-124.5 234,-124.5 "/>
<text text-anchor="middle" x="170.5" y="-112.5" font-family="Helvetica,sans-Serif" font-size="10.00"> </text>
</a>
</g>
</g>
<!-- Node1&#45;&gt;Node5 -->
<g id="edge4" class="edge"><title>Node1&#45;&gt;Node5</title>
<path fill="none" stroke="midnightblue" d="M427.813,-219.349C380.677,-206.084 306.66,-184.539 243.5,-163 240.417,-161.948 237.27,-160.848 234.098,-159.717"/>
<polygon fill="none" stroke="midnightblue" points="426.876,-222.721 437.449,-222.051 428.766,-215.981 426.876,-222.721"/>
</g>
<!-- Node6 -->
<g id="node6" class="node"><title>Node6</title>
<g id="a_node6"><a xlink:href="structscram_1_1IOError.xhtml" target="_top" xlink:title="For input/output related errors. ">
<polygon fill="white" stroke="black" points="252.5,-105.5 252.5,-162.5 338.5,-162.5 338.5,-105.5 252.5,-105.5"/>
<text text-anchor="middle" x="295.5" y="-150.5" font-family="Helvetica,sans-Serif" font-size="10.00">scram::IOError</text>
<polyline fill="none" stroke="black" points="252.5,-143.5 338.5,-143.5 "/>
<text text-anchor="middle" x="295.5" y="-131.5" font-family="Helvetica,sans-Serif" font-size="10.00"> </text>
<polyline fill="none" stroke="black" points="252.5,-124.5 338.5,-124.5 "/>
<text text-anchor="middle" x="295.5" y="-112.5" font-family="Helvetica,sans-Serif" font-size="10.00"> </text>
</a>
</g>
</g>
<!-- Node1&#45;&gt;Node6 -->
<g id="edge5" class="edge"><title>Node1&#45;&gt;Node6</title>
<path fill="none" stroke="midnightblue" d="M428.209,-206.884C400.465,-191.856 365.672,-173.01 338.672,-158.385"/>
<polygon fill="none" stroke="midnightblue" points="426.867,-210.137 437.327,-211.823 430.201,-203.982 426.867,-210.137"/>
</g>
<!-- Node7 -->
<g id="node7" class="node"><title>Node7</title>
<g id="a_node7"><a xlink:href="structscram_1_1LogicError.xhtml" target="_top" xlink:title="Signals internal logic errors, for example, pre&#45;condition failure or use of functionality in ways not...">
<polygon fill="white" stroke="black" points="357,-105.5 357,-162.5 458,-162.5 458,-105.5 357,-105.5"/>
<text text-anchor="middle" x="407.5" y="-150.5" font-family="Helvetica,sans-Serif" font-size="10.00">scram::LogicError</text>
<polyline fill="none" stroke="black" points="357,-143.5 458,-143.5 "/>
<text text-anchor="middle" x="407.5" y="-131.5" font-family="Helvetica,sans-Serif" font-size="10.00"> </text>
<polyline fill="none" stroke="black" points="357,-124.5 458,-124.5 "/>
<text text-anchor="middle" x="407.5" y="-112.5" font-family="Helvetica,sans-Serif" font-size="10.00"> </text>
</a>
</g>
</g>
<!-- Node1&#45;&gt;Node7 -->
<g id="edge6" class="edge"><title>Node1&#45;&gt;Node7</title>
<path fill="none" stroke="midnightblue" d="M446.697,-191.202C440.007,-181.61 433.043,-171.624 426.872,-162.777"/>
<polygon fill="none" stroke="midnightblue" points="443.887,-193.291 452.478,-199.491 449.629,-189.287 443.887,-193.291"/>
</g>
<!-- Node8 -->
<g id="node8" class="node"><title>Node8</title>
<g id="a_node8"><a xlink:href="structscram_1_1mef_1_1ValidityError.xhtml" target="_top" xlink:title="Model validity errors. ">
<polygon fill="white" stroke="black" points="476.5,-105.5 476.5,-162.5 610.5,-162.5 610.5,-105.5 476.5,-105.5"/>
<text text-anchor="middle" x="543.5" y="-150.5" font-family="Helvetica,sans-Serif" font-size="10.00">scram::mef::ValidityError</text>
<polyline fill="none" stroke="black" points="476.5,-143.5 610.5,-143.5 "/>
<text text-anchor="middle" x="543.5" y="-131.5" font-family="Helvetica,sans-Serif" font-size="10.00"> </text>
<polyline fill="none" stroke="black" points="476.5,-124.5 610.5,-124.5 "/>
<text text-anchor="middle" x="543.5" y="-112.5" font-family="Helvetica,sans-Serif" font-size="10.00"> </text>
</a>
</g>
</g>
<!-- Node1&#45;&gt;Node8 -->
<g id="edge7" class="edge"><title>Node1&#45;&gt;Node8</title>
<path fill="none" stroke="midnightblue" d="M504.303,-191.202C510.993,-181.61 517.957,-171.624 524.128,-162.777"/>
<polygon fill="none" stroke="midnightblue" points="501.371,-189.287 498.522,-199.491 507.113,-193.291 501.371,-189.287"/>
</g>
<!-- Node13 -->
<g id="node13" class="node"><title>Node13</title>
<g id="a_node13"><a xlink:href="structscram_1_1SettingsError.xhtml" target="_top" xlink:title="The error in analysis settings. ">
<polygon fill="white" stroke="black" points="628.5,-105.5 628.5,-162.5 744.5,-162.5 744.5,-105.5 628.5,-105.5"/>
<text text-anchor="middle" x="686.5" y="-150.5" font-family="Helvetica,sans-Serif" font-size="10.00">scram::SettingsError</text>
<polyline fill="none" stroke="black" points="628.5,-143.5 744.5,-143.5 "/>
<text text-anchor="middle" x="686.5" y="-131.5" font-family="Helvetica,sans-Serif" font-size="10.00"> </text>
<polyline fill="none" stroke="black" points="628.5,-124.5 744.5,-124.5 "/>
<text text-anchor="middle" x="686.5" y="-112.5" font-family="Helvetica,sans-Serif" font-size="10.00"> </text>
</a>
</g>
</g>
<!-- Node1&#45;&gt;Node13 -->
<g id="edge12" class="edge"><title>Node1&#45;&gt;Node13</title>
<path fill="none" stroke="midnightblue" d="M523.048,-210.529C554.212,-196.129 595.156,-177.209 628.268,-161.908"/>
<polygon fill="none" stroke="midnightblue" points="521.32,-207.472 513.711,-214.843 524.256,-213.826 521.32,-207.472"/>
</g>
<!-- Node14 -->
<g id="node14" class="node"><title>Node14</title>
<g id="a_node14"><a xlink:href="structscram_1_1VersionError.xhtml" target="_top" xlink:title="The minimum required version is not satisfied. ">
<polygon fill="white" stroke="black" points="763,-105.5 763,-162.5 874,-162.5 874,-105.5 763,-105.5"/>
<text text-anchor="middle" x="818.5" y="-150.5" font-family="Helvetica,sans-Serif" font-size="10.00">scram::VersionError</text>
<polyline fill="none" stroke="black" points="763,-143.5 874,-143.5 "/>
<text text-anchor="middle" x="818.5" y="-131.5" font-family="Helvetica,sans-Serif" font-size="10.00"> </text>
<polyline fill="none" stroke="black" points="763,-124.5 874,-124.5 "/>
<text text-anchor="middle" x="818.5" y="-112.5" font-family="Helvetica,sans-Serif" font-size="10.00"> </text>
</a>
</g>
</g>
<!-- Node1&#45;&gt;Node14 -->
<g id="edge13" class="edge"><title>Node1&#45;&gt;Node14</title>
<path fill="none" stroke="midnightblue" d="M523.826,-222.904C579.825,-211.215 674.522,-189.687 753.5,-163 756.527,-161.977 759.609,-160.874 762.704,-159.716"/>
<polygon fill="none" stroke="midnightblue" points="522.916,-219.518 513.833,-224.971 524.334,-226.373 522.916,-219.518"/>
</g>
<!-- Node15 -->
<g id="node15" class="node"><title>Node15</title>
<g id="a_node15"><a xlink:href="structscram_1_1xml_1_1Error.xhtml" target="_top" xlink:title="The base for all XML related errors. ">
<polygon fill="white" stroke="black" points="988,-105.5 988,-162.5 1087,-162.5 1087,-105.5 988,-105.5"/>
<text text-anchor="middle" x="1037.5" y="-150.5" font-family="Helvetica,sans-Serif" font-size="10.00">scram::xml::Error</text>
<polyline fill="none" stroke="black" points="988,-143.5 1087,-143.5 "/>
<text text-anchor="middle" x="1037.5" y="-131.5" font-family="Helvetica,sans-Serif" font-size="10.00"> </text>
<polyline fill="none" stroke="black" points="988,-124.5 1087,-124.5 "/>
<text text-anchor="middle" x="1037.5" y="-112.5" font-family="Helvetica,sans-Serif" font-size="10.00"> </text>
</a>
</g>
</g>
<!-- Node1&#45;&gt;Node15 -->
<g id="edge14" class="edge"><title>Node1&#45;&gt;Node15</title>
<path fill="none" stroke="midnightblue" d="M523.924,-224.385C600.213,-211.566 753.035,-185.747 882.5,-163 917.782,-156.801 957.543,-149.614 987.96,-144.074"/>
<polygon fill="none" stroke="midnightblue" points="522.96,-220.998 513.677,-226.106 524.119,-227.902 522.96,-220.998"/>
</g>
<!-- Node2 -->
<g id="node2" class="node"><title>Node2</title>
<polygon fill="white" stroke="#bfbfbf" points="379.5,-304.5 379.5,-361.5 463.5,-361.5 463.5,-304.5 379.5,-304.5"/>
<text text-anchor="middle" x="421.5" y="-349.5" font-family="Helvetica,sans-Serif" font-size="10.00">std::exception</text>
<polyline fill="none" stroke="#bfbfbf" points="379.5,-342.5 463.5,-342.5 "/>
<text text-anchor="middle" x="421.5" y="-330.5" font-family="Helvetica,sans-Serif" font-size="10.00"> </text>
<polyline fill="none" stroke="#bfbfbf" points="379.5,-323.5 463.5,-323.5 "/>
<text text-anchor="middle" x="421.5" y="-311.5" font-family="Helvetica,sans-Serif" font-size="10.00"> </text>
</g>
<!-- Node2&#45;&gt;Node1 -->
<g id="edge1" class="edge"><title>Node2&#45;&gt;Node1</title>
<path fill="none" stroke="midnightblue" d="M441.722,-295.488C446.755,-286.401 452.123,-276.708 457.065,-267.786"/>
<polygon fill="none" stroke="midnightblue" points="438.613,-293.878 436.83,-304.321 444.737,-297.269 438.613,-293.878"/>
</g>
<!-- Node3 -->
<g id="node3" class="node"><title>Node3</title>
<polygon fill="white" stroke="#bfbfbf" points="481.5,-304.5 481.5,-361.5 577.5,-361.5 577.5,-304.5 481.5,-304.5"/>
<text text-anchor="middle" x="529.5" y="-349.5" font-family="Helvetica,sans-Serif" font-size="10.00">boost::exception</text>
<polyline fill="none" stroke="#bfbfbf" points="481.5,-342.5 577.5,-342.5 "/>
<text text-anchor="middle" x="529.5" y="-330.5" font-family="Helvetica,sans-Serif" font-size="10.00"> </text>
<polyline fill="none" stroke="#bfbfbf" points="481.5,-323.5 577.5,-323.5 "/>
<text text-anchor="middle" x="529.5" y="-311.5" font-family="Helvetica,sans-Serif" font-size="10.00"> </text>
</g>
<!-- Node3&#45;&gt;Node1 -->
<g id="edge2" class="edge"><title>Node3&#45;&gt;Node1</title>
<path fill="none" stroke="midnightblue" d="M509.278,-295.488C504.245,-286.401 498.877,-276.708 493.935,-267.786"/>
<polygon fill="none" stroke="midnightblue" points="506.263,-297.269 514.17,-304.321 512.387,-293.878 506.263,-297.269"/>
</g>
<!-- Node9 -->
<g id="node9" class="node"><title>Node9</title>
<g id="a_node9"><a xlink:href="structscram_1_1mef_1_1CycleError.xhtml" target="_top" xlink:title="Unacceptable cycles in model structures. ">
<polygon fill="white" stroke="black" points="162.5,-6 162.5,-63 288.5,-63 288.5,-6 162.5,-6"/>
<text text-anchor="middle" x="225.5" y="-51" font-family="Helvetica,sans-Serif" font-size="10.00">scram::mef::CycleError</text>
<polyline fill="none" stroke="black" points="162.5,-44 288.5,-44 "/>
<text text-anchor="middle" x="225.5" y="-32" font-family="Helvetica,sans-Serif" font-size="10.00"> </text>
<polyline fill="none" stroke="black" points="162.5,-25 288.5,-25 "/>
<text text-anchor="start" x="170.5" y="-13" font-family="Helvetica,sans-Serif" font-size="10.00">+ CycleError()</text>
</a>
</g>
</g>
<!-- Node8&#45;&gt;Node9 -->
<g id="edge8" class="edge"><title>Node8&#45;&gt;Node9</title>
<path fill="none" stroke="midnightblue" d="M466.808,-105.088C466.705,-105.059 466.603,-105.029 466.5,-105 392.68,-83.8267 370.333,-93.3531 297.5,-69 292.27,-67.2512 286.916,-65.2311 281.606,-63.067"/>
<polygon fill="none" stroke="midnightblue" points="465.904,-108.472 476.489,-108.011 467.927,-101.77 465.904,-108.472"/>
</g>
<!-- Node10 -->
<g id="node10" class="node"><title>Node10</title>
<g id="a_node10"><a xlink:href="structscram_1_1mef_1_1DomainError.xhtml" target="_top" xlink:title="Invalid domain for values or arguments. ">
<polygon fill="white" stroke="black" points="306.5,-6 306.5,-63 444.5,-63 444.5,-6 306.5,-6"/>
<text text-anchor="middle" x="375.5" y="-51" font-family="Helvetica,sans-Serif" font-size="10.00">scram::mef::DomainError</text>
<polyline fill="none" stroke="black" points="306.5,-44 444.5,-44 "/>
<text text-anchor="middle" x="375.5" y="-32" font-family="Helvetica,sans-Serif" font-size="10.00"> </text>
<polyline fill="none" stroke="black" points="306.5,-25 444.5,-25 "/>
<text text-anchor="middle" x="375.5" y="-13" font-family="Helvetica,sans-Serif" font-size="10.00"> </text>
</a>
</g>
</g>
<!-- Node8&#45;&gt;Node10 -->
<g id="edge9" class="edge"><title>Node8&#45;&gt;Node10</title>
<path fill="none" stroke="midnightblue" d="M487.069,-100.25C466.276,-88.1826 442.949,-74.6444 423.021,-63.0791"/>
<polygon fill="none" stroke="midnightblue" points="485.401,-103.329 495.807,-105.321 488.915,-97.2745 485.401,-103.329"/>
</g>
<!-- Node11 -->
<g id="node11" class="node"><title>Node11</title>
<g id="a_node11"><a xlink:href="structscram_1_1mef_1_1DuplicateElementError.xhtml" target="_top" xlink:title="This error indicates that elements must be unique. ">
<polygon fill="white" stroke="black" points="462.5,-0.5 462.5,-68.5 624.5,-68.5 624.5,-0.5 462.5,-0.5"/>
<text text-anchor="start" x="470.5" y="-56.5" font-family="Helvetica,sans-Serif" font-size="10.00">scram::mef::DuplicateElement</text>
<text text-anchor="middle" x="543.5" y="-45.5" font-family="Helvetica,sans-Serif" font-size="10.00">Error</text>
<polyline fill="none" stroke="black" points="462.5,-38.5 624.5,-38.5 "/>
<text text-anchor="middle" x="543.5" y="-26.5" font-family="Helvetica,sans-Serif" font-size="10.00"> </text>
<polyline fill="none" stroke="black" points="462.5,-19.5 624.5,-19.5 "/>
<text text-anchor="start" x="470.5" y="-7.5" font-family="Helvetica,sans-Serif" font-size="10.00">+ DuplicateElementError()</text>
</a>
</g>
</g>
<!-- Node8&#45;&gt;Node11 -->
<g id="edge10" class="edge"><title>Node8&#45;&gt;Node11</title>
<path fill="none" stroke="midnightblue" d="M543.5,-95.0631C543.5,-86.3933 543.5,-77.2431 543.5,-68.7855"/>
<polygon fill="none" stroke="midnightblue" points="540,-95.3212 543.5,-105.321 547,-95.3212 540,-95.3212"/>
</g>
<!-- Node12 -->
<g id="node12" class="node"><title>Node12</title>
<g id="a_node12"><a xlink:href="structscram_1_1mef_1_1UndefinedElement.xhtml" target="_top" xlink:title="The error for undefined elements in a model. ">
<polygon fill="white" stroke="black" points="642.5,-6 642.5,-63 808.5,-63 808.5,-6 642.5,-6"/>
<text text-anchor="middle" x="725.5" y="-51" font-family="Helvetica,sans-Serif" font-size="10.00">scram::mef::UndefinedElement</text>
<polyline fill="none" stroke="black" points="642.5,-44 808.5,-44 "/>
<text text-anchor="middle" x="725.5" y="-32" font-family="Helvetica,sans-Serif" font-size="10.00"> </text>
<polyline fill="none" stroke="black" points="642.5,-25 808.5,-25 "/>
<text text-anchor="start" x="650.5" y="-13" font-family="Helvetica,sans-Serif" font-size="10.00">+ UndefinedElement()</text>
</a>
</g>
</g>
<!-- Node8&#45;&gt;Node12 -->
<g id="edge11" class="edge"><title>Node8&#45;&gt;Node12</title>
<path fill="none" stroke="midnightblue" d="M604.031,-100.573C626.708,-88.4245 652.238,-74.7476 674.019,-63.0791"/>
<polygon fill="none" stroke="midnightblue" points="602.329,-97.5138 595.167,-105.321 605.635,-103.684 602.329,-97.5138"/>
</g>
<!-- Node16 -->
<g id="node16" class="node"><title>Node16</title>
<g id="a_node16"><a xlink:href="structscram_1_1xml_1_1ParseError.xhtml" target="_top" xlink:title="XML parsing errors. ">
<polygon fill="white" stroke="black" points="827,-6 827,-63 952,-63 952,-6 827,-6"/>
<text text-anchor="middle" x="889.5" y="-51" font-family="Helvetica,sans-Serif" font-size="10.00">scram::xml::ParseError</text>
<polyline fill="none" stroke="black" points="827,-44 952,-44 "/>
<text text-anchor="middle" x="889.5" y="-32" font-family="Helvetica,sans-Serif" font-size="10.00"> </text>
<polyline fill="none" stroke="black" points="827,-25 952,-25 "/>
<text text-anchor="middle" x="889.5" y="-13" font-family="Helvetica,sans-Serif" font-size="10.00"> </text>
</a>
</g>
</g>
<!-- Node15&#45;&gt;Node16 -->
<g id="edge15" class="edge"><title>Node15&#45;&gt;Node16</title>
<path fill="none" stroke="midnightblue" d="M986.803,-99.6018C968.736,-87.6997 948.606,-74.4379 931.364,-63.0791"/>
<polygon fill="none" stroke="midnightblue" points="985.209,-102.743 995.485,-105.321 989.06,-96.8971 985.209,-102.743"/>
</g>
<!-- Node17 -->
<g id="node17" class="node"><title>Node17</title>
<g id="a_node17"><a xlink:href="structscram_1_1xml_1_1StreamError.xhtml" target="_top" xlink:title="Errors in using XML streaming facilities. ">
<polygon fill="white" stroke="black" points="970,-6 970,-63 1105,-63 1105,-6 970,-6"/>
<text text-anchor="middle" x="1037.5" y="-51" font-family="Helvetica,sans-Serif" font-size="10.00">scram::xml::StreamError</text>
<polyline fill="none" stroke="black" points="970,-44 1105,-44 "/>
<text text-anchor="middle" x="1037.5" y="-32" font-family="Helvetica,sans-Serif" font-size="10.00"> </text>
<polyline fill="none" stroke="black" points="970,-25 1105,-25 "/>
<text text-anchor="middle" x="1037.5" y="-13" font-family="Helvetica,sans-Serif" font-size="10.00"> </text>
</a>
</g>
</g>
<!-- Node15&#45;&gt;Node17 -->
<g id="edge16" class="edge"><title>Node15&#45;&gt;Node17</title>
<path fill="none" stroke="midnightblue" d="M1037.5,-95.0433C1037.5,-84.4474 1037.5,-73.1352 1037.5,-63.248"/>
<polygon fill="none" stroke="midnightblue" points="1034,-95.3212 1037.5,-105.321 1041,-95.3212 1034,-95.3212"/>
</g>
<!-- Node18 -->
<g id="node18" class="node"><title>Node18</title>
<g id="a_node18"><a xlink:href="structscram_1_1xml_1_1ValidityError.xhtml" target="_top" xlink:title="XML document validity errors. ">
<polygon fill="white" stroke="black" points="1123,-6 1123,-63 1256,-63 1256,-6 1123,-6"/>
<text text-anchor="middle" x="1189.5" y="-51" font-family="Helvetica,sans-Serif" font-size="10.00">scram::xml::ValidityError</text>
<polyline fill="none" stroke="black" points="1123,-44 1256,-44 "/>
<text text-anchor="middle" x="1189.5" y="-32" font-family="Helvetica,sans-Serif" font-size="10.00"> </text>
<polyline fill="none" stroke="black" points="1123,-25 1256,-25 "/>
<text text-anchor="middle" x="1189.5" y="-13" font-family="Helvetica,sans-Serif" font-size="10.00"> </text>
</a>
</g>
</g>
<!-- Node15&#45;&gt;Node18 -->
<g id="edge17" class="edge"><title>Node15&#45;&gt;Node18</title>
<path fill="none" stroke="midnightblue" d="M1089.31,-99.7641C1107.93,-87.8203 1128.72,-74.4895 1146.5,-63.0791"/>
<polygon fill="none" stroke="midnightblue" points="1087.18,-96.976 1080.65,-105.321 1090.96,-102.868 1087.18,-96.976"/>
</g>
<!-- Node19 -->
<g id="node19" class="node"><title>Node19</title>
<g id="a_node19"><a xlink:href="structscram_1_1xml_1_1XIncludeError.xhtml" target="_top" xlink:title="XInclude resolution issues. ">
<polygon fill="white" stroke="black" points="1274,-6 1274,-63 1413,-63 1413,-6 1274,-6"/>
<text text-anchor="middle" x="1343.5" y="-51" font-family="Helvetica,sans-Serif" font-size="10.00">scram::xml::XIncludeError</text>
<polyline fill="none" stroke="black" points="1274,-44 1413,-44 "/>
<text text-anchor="middle" x="1343.5" y="-32" font-family="Helvetica,sans-Serif" font-size="10.00"> </text>
<polyline fill="none" stroke="black" points="1274,-25 1413,-25 "/>
<text text-anchor="middle" x="1343.5" y="-13" font-family="Helvetica,sans-Serif" font-size="10.00"> </text>
</a>
</g>
</g>
<!-- Node15&#45;&gt;Node19 -->
<g id="edge18" class="edge"><title>Node15&#45;&gt;Node19</title>
<path fill="none" stroke="midnightblue" d="M1097.05,-118.408C1143.22,-106.57 1208.54,-88.6665 1264.5,-69 1269.7,-67.1725 1275.05,-65.1735 1280.39,-63.0907"/>
<polygon fill="none" stroke="midnightblue" points="1096.04,-115.054 1087.21,-120.914 1097.77,-121.838 1096.04,-115.054"/>
</g>
</g>
</svg>
