<?xml version="1.0" encoding="UTF-8" standalone="no"?>
<!DOCTYPE svg PUBLIC "-//W3C//DTD SVG 1.1//EN"
 "http://www.w3.org/Graphics/SVG/1.1/DTD/svg11.dtd">
<!-- Generated by graphviz version 2.38.0 (20140413.2041)
 -->
<!-- Title: scram::mef::Fork::functional_event Pages: 1 -->
<svg width="359pt" height="39pt"
 viewBox="0.00 0.00 359.00 39.00" xmlns="http://www.w3.org/2000/svg" xmlns:xlink="http://www.w3.org/1999/xlink">
<g id="graph0" class="graph" transform="scale(1 1) rotate(0) translate(4 35)">
<title>scram::mef::Fork::functional_event</title>
<polygon fill="white" stroke="none" points="-4,4 -4,-35 355,-35 355,4 -4,4"/>
<!-- Node1 -->
<g id="node1" class="node"><title>Node1</title>
<polygon fill="#bfbfbf" stroke="black" points="0,-0.5 0,-30.5 150,-30.5 150,-0.5 0,-0.5"/>
<text text-anchor="start" x="8" y="-18.5" font-family="Helvetica,sans-Serif" font-size="10.00">scram::mef::Fork::functional</text>
<text text-anchor="middle" x="75" y="-7.5" font-family="Helvetica,sans-Serif" font-size="10.00">_event</text>
</g>
<!-- Node2 -->
<g id="node2" class="node"><title>Node2</title>
<g id="a_node2"><a xlink:href="classscram_1_1core_1_1EventTreeAnalysis.xhtml#a070c68c0d67edb30c9bf57e226aaf88e" target="_top" xlink:title="Analyzes an event tree given the initiating event. ">
<polygon fill="white" stroke="black" points="186,-0.5 186,-30.5 351,-30.5 351,-0.5 186,-0.5"/>
<text text-anchor="start" x="194" y="-18.5" font-family="Helvetica,sans-Serif" font-size="10.00">scram::core::EventTreeAnalysis</text>
<text text-anchor="middle" x="268.5" y="-7.5" font-family="Helvetica,sans-Serif" font-size="10.00">::Analyze</text>
</a>
</g>
</g>
<!-- Node1&#45;&gt;Node2 -->
<g id="edge1" class="edge"><title>Node1&#45;&gt;Node2</title>
<path fill="none" stroke="midnightblue" d="M160.266,-15.5C168.715,-15.5 177.284,-15.5 185.706,-15.5"/>
<polygon fill="midnightblue" stroke="midnightblue" points="160.039,-12.0001 150.039,-15.5 160.039,-19.0001 160.039,-12.0001"/>
</g>
</g>
</svg>
