<?xml version="1.0" encoding="UTF-8" standalone="no"?>
<!DOCTYPE svg PUBLIC "-//W3C//DTD SVG 1.1//EN"
 "http://www.w3.org/Graphics/SVG/1.1/DTD/svg11.dtd">
<!-- Generated by graphviz version 2.38.0 (20140413.2041)
 -->
<!-- Title: scram::xml::Element::name Pages: 1 -->
<svg width="321pt" height="274pt"
 viewBox="0.00 0.00 321.00 274.00" xmlns="http://www.w3.org/2000/svg" xmlns:xlink="http://www.w3.org/1999/xlink">
<g id="graph0" class="graph" transform="scale(1 1) rotate(0) translate(4 270)">
<title>scram::xml::Element::name</title>
<polygon fill="white" stroke="none" points="-4,4 -4,-270 317,-270 317,4 -4,4"/>
<!-- Node1 -->
<g id="node1" class="node"><title>Node1</title>
<polygon fill="#bfbfbf" stroke="black" points="0,-112.5 0,-142.5 116,-142.5 116,-112.5 0,-112.5"/>
<text text-anchor="start" x="8" y="-130.5" font-family="Helvetica,sans-Serif" font-size="10.00">scram::xml::Element</text>
<text text-anchor="middle" x="58" y="-119.5" font-family="Helvetica,sans-Serif" font-size="10.00">::name</text>
</g>
<!-- Node2 -->
<g id="node2" class="node"><title>Node2</title>
<g id="a_node2"><a xlink:href="classscram_1_1xml_1_1Element.xhtml#aedf9baaf529830c6e7ed07b65b933ab5" target="_top" xlink:title="Generic attribute value extraction following XML data types. ">
<polygon fill="white" stroke="black" points="174.5,-235.5 174.5,-265.5 290.5,-265.5 290.5,-235.5 174.5,-235.5"/>
<text text-anchor="start" x="182.5" y="-253.5" font-family="Helvetica,sans-Serif" font-size="10.00">scram::xml::Element</text>
<text text-anchor="middle" x="232.5" y="-242.5" font-family="Helvetica,sans-Serif" font-size="10.00">::attribute</text>
</a>
</g>
</g>
<!-- Node1&#45;&gt;Node2 -->
<g id="edge1" class="edge"><title>Node1&#45;&gt;Node2</title>
<path fill="none" stroke="midnightblue" d="M75.2412,-150.9C92.0073,-173.379 120.15,-206.757 152,-226.5 158.862,-230.754 166.526,-234.295 174.313,-237.232"/>
<polygon fill="midnightblue" stroke="midnightblue" points="77.8999,-148.606 69.1838,-142.582 72.2412,-152.726 77.8999,-148.606"/>
</g>
<!-- Node3 -->
<g id="node3" class="node"><title>Node3</title>
<g id="a_node3"><a xlink:href="classscram_1_1xml_1_1Element.xhtml#accf1b8ff3d357b2ce4e885b7b28561ad" target="_top" xlink:title="scram::xml::Element\l::children">
<polygon fill="white" stroke="black" points="174.5,-186.5 174.5,-216.5 290.5,-216.5 290.5,-186.5 174.5,-186.5"/>
<text text-anchor="start" x="182.5" y="-204.5" font-family="Helvetica,sans-Serif" font-size="10.00">scram::xml::Element</text>
<text text-anchor="middle" x="232.5" y="-193.5" font-family="Helvetica,sans-Serif" font-size="10.00">::children</text>
</a>
</g>
</g>
<!-- Node1&#45;&gt;Node3 -->
<g id="edge2" class="edge"><title>Node1&#45;&gt;Node3</title>
<path fill="none" stroke="midnightblue" d="M93.098,-147.958C110.35,-157.755 131.856,-169.143 152,-177.5 159.724,-180.704 168.028,-183.688 176.254,-186.388"/>
<polygon fill="midnightblue" stroke="midnightblue" points="94.399,-144.668 83.987,-142.709 90.9042,-150.734 94.399,-144.668"/>
</g>
<!-- Node4 -->
<g id="node4" class="node"><title>Node4</title>
<g id="a_node4"><a xlink:href="classscram_1_1mef_1_1Initializer.xhtml#a969f088f20697a8a317cb7c998f034ad" target="_top" xlink:title="Specializations for elements defined after registration. ">
<polygon fill="white" stroke="black" points="173,-137.5 173,-167.5 292,-167.5 292,-137.5 173,-137.5"/>
<text text-anchor="start" x="181" y="-155.5" font-family="Helvetica,sans-Serif" font-size="10.00">scram::mef::Initializer</text>
<text text-anchor="middle" x="232.5" y="-144.5" font-family="Helvetica,sans-Serif" font-size="10.00">::Define</text>
</a>
</g>
</g>
<!-- Node1&#45;&gt;Node4 -->
<g id="edge3" class="edge"><title>Node1&#45;&gt;Node4</title>
<path fill="none" stroke="midnightblue" d="M126.378,-137.265C141.718,-139.488 157.895,-141.833 172.838,-143.998"/>
<polygon fill="midnightblue" stroke="midnightblue" points="126.839,-133.795 116.44,-135.825 125.835,-140.723 126.839,-133.795"/>
</g>
<!-- Node5 -->
<g id="node5" class="node"><title>Node5</title>
<g id="a_node5"><a xlink:href="structscram_1_1mef_1_1Initializer_1_1Extractor_3_01T_00-1_01_4.xhtml#aed4438ca816e65ced748e4bc1f67a631" target="_top" xlink:title="Constructs an expression with a variable number of arguments. ">
<polygon fill="white" stroke="black" points="152,-88.5 152,-118.5 313,-118.5 313,-88.5 152,-88.5"/>
<text text-anchor="start" x="160" y="-106.5" font-family="Helvetica,sans-Serif" font-size="10.00">scram::mef::Initializer</text>
<text text-anchor="middle" x="232.5" y="-95.5" font-family="Helvetica,sans-Serif" font-size="10.00">::Extractor&lt; T,&#45;1 &gt;::operator()</text>
</a>
</g>
</g>
<!-- Node1&#45;&gt;Node5 -->
<g id="edge4" class="edge"><title>Node1&#45;&gt;Node5</title>
<path fill="none" stroke="midnightblue" d="M126.466,-118.113C134.804,-116.953 143.388,-115.759 151.885,-114.577"/>
<polygon fill="midnightblue" stroke="midnightblue" points="125.862,-114.664 116.44,-119.508 126.827,-121.597 125.862,-114.664"/>
</g>
<!-- Node6 -->
<g id="node6" class="node"><title>Node6</title>
<g id="a_node6"><a xlink:href="classscram_1_1Project.xhtml#aa72871e05c53f98f8c4f48ec61277754" target="_top" xlink:title="A constructor with project configurations for analysis. ">
<polygon fill="white" stroke="black" points="170,-50 170,-69 295,-69 295,-50 170,-50"/>
<text text-anchor="middle" x="232.5" y="-57" font-family="Helvetica,sans-Serif" font-size="10.00">scram::Project::Project</text>
</a>
</g>
</g>
<!-- Node1&#45;&gt;Node6 -->
<g id="edge5" class="edge"><title>Node1&#45;&gt;Node6</title>
<path fill="none" stroke="midnightblue" d="M93.4007,-107.333C110.574,-97.8956 131.924,-87.0902 152,-79.5 162.783,-75.4232 174.701,-71.924 185.957,-69.045"/>
<polygon fill="midnightblue" stroke="midnightblue" points="91.3455,-104.472 84.324,-112.406 94.7607,-110.582 91.3455,-104.472"/>
</g>
<!-- Node7 -->
<g id="node7" class="node"><title>Node7</title>
<g id="a_node7"><a xlink:href="classscram_1_1mef_1_1Initializer.xhtml#a86055e4406a999be79a4d14e8a7ec4e3" target="_top" xlink:title="Specializations for element registrations. ">
<polygon fill="white" stroke="black" points="173,-0.5 173,-30.5 292,-30.5 292,-0.5 173,-0.5"/>
<text text-anchor="start" x="181" y="-18.5" font-family="Helvetica,sans-Serif" font-size="10.00">scram::mef::Initializer</text>
<text text-anchor="middle" x="232.5" y="-7.5" font-family="Helvetica,sans-Serif" font-size="10.00">::Register</text>
</a>
</g>
</g>
<!-- Node1&#45;&gt;Node7 -->
<g id="edge6" class="edge"><title>Node1&#45;&gt;Node7</title>
<path fill="none" stroke="midnightblue" d="M77.8866,-104.837C95.298,-85.273 122.799,-57.5456 152,-40.5 158.498,-36.7071 165.636,-33.4236 172.886,-30.599"/>
<polygon fill="midnightblue" stroke="midnightblue" points="75.2186,-102.571 71.2864,-112.409 80.4955,-107.171 75.2186,-102.571"/>
</g>
</g>
</svg>
