<?xml version="1.0" encoding="UTF-8" standalone="no"?>
<!DOCTYPE svg PUBLIC "-//W3C//DTD SVG 1.1//EN"
 "http://www.w3.org/Graphics/SVG/1.1/DTD/svg11.dtd">
<!-- Generated by graphviz version 2.38.0 (20140413.2041)
 -->
<!-- Title: scram::core::McubCalculator Pages: 1 -->
<svg width="170pt" height="171pt"
 viewBox="0.00 0.00 170.00 171.00" xmlns="http://www.w3.org/2000/svg" xmlns:xlink="http://www.w3.org/1999/xlink">
<g id="graph0" class="graph" transform="scale(1 1) rotate(0) translate(4 167)">
<title>scram::core::McubCalculator</title>
<polygon fill="white" stroke="none" points="-4,4 -4,-167 166,-167 166,4 -4,4"/>
<!-- Node1 -->
<g id="node1" class="node"><title>Node1</title>
<polygon fill="#bfbfbf" stroke="black" points="4.5,-0.5 4.5,-57.5 157.5,-57.5 157.5,-0.5 4.5,-0.5"/>
<text text-anchor="middle" x="81" y="-45.5" font-family="Helvetica,sans-Serif" font-size="10.00">scram::core::McubCalculator</text>
<polyline fill="none" stroke="black" points="4.5,-38.5 157.5,-38.5 "/>
<text text-anchor="middle" x="81" y="-26.5" font-family="Helvetica,sans-Serif" font-size="10.00"> </text>
<polyline fill="none" stroke="black" points="4.5,-19.5 157.5,-19.5 "/>
<text text-anchor="start" x="12.5" y="-7.5" font-family="Helvetica,sans-Serif" font-size="10.00">+ Calculate()</text>
</g>
<!-- Node2 -->
<g id="node2" class="node"><title>Node2</title>
<g id="a_node2"><a xlink:href="classscram_1_1core_1_1CutSetProbabilityCalculator.xhtml" target="_top" xlink:title="Quantitative calculator of a probability value of a single cut set. ">
<polygon fill="white" stroke="black" points="0,-94.5 0,-162.5 162,-162.5 162,-94.5 0,-94.5"/>
<text text-anchor="start" x="8" y="-150.5" font-family="Helvetica,sans-Serif" font-size="10.00">scram::core::CutSetProbability</text>
<text text-anchor="middle" x="81" y="-139.5" font-family="Helvetica,sans-Serif" font-size="10.00">Calculator</text>
<polyline fill="none" stroke="black" points="0,-132.5 162,-132.5 "/>
<text text-anchor="middle" x="81" y="-120.5" font-family="Helvetica,sans-Serif" font-size="10.00"> </text>
<polyline fill="none" stroke="black" points="0,-113.5 162,-113.5 "/>
<text text-anchor="start" x="8" y="-101.5" font-family="Helvetica,sans-Serif" font-size="10.00">+ Calculate()</text>
</a>
</g>
</g>
<!-- Node2&#45;&gt;Node1 -->
<g id="edge1" class="edge"><title>Node2&#45;&gt;Node1</title>
<path fill="none" stroke="#8b1a1a" d="M81,-84.4538C81,-75.4036 81,-66.0876 81,-57.7765"/>
<polygon fill="none" stroke="#8b1a1a" points="77.5001,-84.4909 81,-94.4909 84.5001,-84.491 77.5001,-84.4909"/>
</g>
</g>
</svg>
