<?xml version="1.0" encoding="UTF-8" standalone="no"?>
<!DOCTYPE svg PUBLIC "-//W3C//DTD SVG 1.1//EN"
 "http://www.w3.org/Graphics/SVG/1.1/DTD/svg11.dtd">
<!-- Generated by graphviz version 2.38.0 (20140413.2041)
 -->
<!-- Title: scram::core::Zbdd::Zbdd Pages: 1 -->
<svg width="481pt" height="274pt"
 viewBox="0.00 0.00 481.00 273.50" xmlns="http://www.w3.org/2000/svg" xmlns:xlink="http://www.w3.org/1999/xlink">
<g id="graph0" class="graph" transform="scale(1 1) rotate(0) translate(4 269.5)">
<title>scram::core::Zbdd::Zbdd</title>
<polygon fill="white" stroke="none" points="-4,4 -4,-269.5 477,-269.5 477,4 -4,4"/>
<!-- Node1 -->
<g id="node1" class="node"><title>Node1</title>
<polygon fill="#bfbfbf" stroke="black" points="0,-128 0,-147 137,-147 137,-128 0,-128"/>
<text text-anchor="middle" x="68.5" y="-135" font-family="Helvetica,sans-Serif" font-size="10.00">scram::core::Zbdd::Zbdd</text>
</g>
<!-- Node2 -->
<g id="node2" class="node"><title>Node2</title>
<g id="a_node2"><a xlink:href="classscram_1_1core_1_1Gate.xhtml#aa793eeaa12244c5b39a0d80e5b1518ae" target="_top" xlink:title="scram::core::Gate::args">
<polygon fill="white" stroke="black" points="173,-246 173,-265 303,-265 303,-246 173,-246"/>
<text text-anchor="middle" x="238" y="-253" font-family="Helvetica,sans-Serif" font-size="10.00">scram::core::Gate::args</text>
</a>
</g>
</g>
<!-- Node1&#45;&gt;Node2 -->
<g id="edge1" class="edge"><title>Node1&#45;&gt;Node2</title>
<path fill="none" stroke="midnightblue" d="M76.945,-147.234C92.572,-167 130.849,-212.036 173,-236.5 176.722,-238.66 180.71,-240.593 184.809,-242.32"/>
<polygon fill="midnightblue" stroke="midnightblue" points="183.91,-245.722 194.502,-245.983 186.385,-239.174 183.91,-245.722"/>
</g>
<!-- Node3 -->
<g id="node3" class="node"><title>Node3</title>
<g id="a_node3"><a xlink:href="classscram_1_1core_1_1Zbdd.xhtml#aa9fe9b536749648e0ba973d455c19c93" target="_top" xlink:title="scram::core::Zbdd::\lbegin">
<polygon fill="white" stroke="black" points="182.5,-196.5 182.5,-226.5 293.5,-226.5 293.5,-196.5 182.5,-196.5"/>
<text text-anchor="start" x="190.5" y="-214.5" font-family="Helvetica,sans-Serif" font-size="10.00">scram::core::Zbdd::</text>
<text text-anchor="middle" x="238" y="-203.5" font-family="Helvetica,sans-Serif" font-size="10.00">begin</text>
</a>
</g>
</g>
<!-- Node1&#45;&gt;Node3 -->
<g id="edge2" class="edge"><title>Node1&#45;&gt;Node3</title>
<path fill="none" stroke="midnightblue" d="M87.9616,-147.051C108.483,-157.518 142.729,-174.544 173,-187.5 177.1,-189.255 181.375,-191.011 185.685,-192.731"/>
<polygon fill="midnightblue" stroke="midnightblue" points="184.537,-196.04 195.125,-196.424 187.087,-189.521 184.537,-196.04"/>
</g>
<!-- Node4 -->
<g id="node4" class="node"><title>Node4</title>
<g id="a_node4"><a xlink:href="classscram_1_1core_1_1Gate.xhtml#ab2a4e8ac78b36541a32cc719863910a5" target="_top" xlink:title="scram::core::Gate::\lconstant">
<polygon fill="white" stroke="black" points="183.5,-147.5 183.5,-177.5 292.5,-177.5 292.5,-147.5 183.5,-147.5"/>
<text text-anchor="start" x="191.5" y="-165.5" font-family="Helvetica,sans-Serif" font-size="10.00">scram::core::Gate::</text>
<text text-anchor="middle" x="238" y="-154.5" font-family="Helvetica,sans-Serif" font-size="10.00">constant</text>
</a>
</g>
</g>
<!-- Node1&#45;&gt;Node4 -->
<g id="edge3" class="edge"><title>Node1&#45;&gt;Node4</title>
<path fill="none" stroke="midnightblue" d="M133.302,-147.023C146.49,-148.991 160.378,-151.064 173.553,-153.03"/>
<polygon fill="midnightblue" stroke="midnightblue" points="173.058,-156.495 183.465,-154.51 174.091,-149.572 173.058,-156.495"/>
</g>
<!-- Node5 -->
<g id="node5" class="node"><title>Node5</title>
<g id="a_node5"><a xlink:href="classscram_1_1core_1_1Zbdd.xhtml#a42af18229ba2e80201bc0fdac07b7091" target="_top" xlink:title="Finds or adds a unique SetNode in the ZBDD. ">
<polygon fill="white" stroke="black" points="182.5,-98.5 182.5,-128.5 293.5,-128.5 293.5,-98.5 182.5,-98.5"/>
<text text-anchor="start" x="190.5" y="-116.5" font-family="Helvetica,sans-Serif" font-size="10.00">scram::core::Zbdd::</text>
<text text-anchor="middle" x="238" y="-105.5" font-family="Helvetica,sans-Serif" font-size="10.00">FindOrAddVertex</text>
</a>
</g>
</g>
<!-- Node1&#45;&gt;Node5 -->
<g id="edge4" class="edge"><title>Node1&#45;&gt;Node5</title>
<path fill="none" stroke="midnightblue" d="M136.182,-127.946C148.036,-126.247 160.367,-124.48 172.169,-122.789"/>
<polygon fill="midnightblue" stroke="midnightblue" points="172.976,-126.209 182.379,-121.326 171.983,-119.28 172.976,-126.209"/>
</g>
<!-- Node8 -->
<g id="node8" class="node"><title>Node8</title>
<g id="a_node8"><a xlink:href="classscram_1_1core_1_1Node.xhtml#a62121e217b0da73112af7e07275f2c15" target="_top" xlink:title="scram::core::Node::\lindex">
<polygon fill="white" stroke="black" points="182.5,-49.5 182.5,-79.5 293.5,-79.5 293.5,-49.5 182.5,-49.5"/>
<text text-anchor="start" x="190.5" y="-67.5" font-family="Helvetica,sans-Serif" font-size="10.00">scram::core::Node::</text>
<text text-anchor="middle" x="238" y="-56.5" font-family="Helvetica,sans-Serif" font-size="10.00">index</text>
</a>
</g>
</g>
<!-- Node1&#45;&gt;Node8 -->
<g id="edge7" class="edge"><title>Node1&#45;&gt;Node8</title>
<path fill="none" stroke="midnightblue" d="M89.1784,-127.931C109.88,-117.97 143.487,-102.094 173,-89.5 177.747,-87.4744 182.717,-85.4194 187.7,-83.4028"/>
<polygon fill="midnightblue" stroke="midnightblue" points="189.255,-86.5508 197.242,-79.5899 186.657,-80.0505 189.255,-86.5508"/>
</g>
<!-- Node9 -->
<g id="node9" class="node"><title>Node9</title>
<g id="a_node9"><a xlink:href="classscram_1_1core_1_1Node.xhtml#a8b76f2081293edc1cf85ddf8cb2ac2ed" target="_top" xlink:title="scram::core::Node::\lorder">
<polygon fill="white" stroke="black" points="182.5,-0.5 182.5,-30.5 293.5,-30.5 293.5,-0.5 182.5,-0.5"/>
<text text-anchor="start" x="190.5" y="-18.5" font-family="Helvetica,sans-Serif" font-size="10.00">scram::core::Node::</text>
<text text-anchor="middle" x="238" y="-7.5" font-family="Helvetica,sans-Serif" font-size="10.00">order</text>
</a>
</g>
</g>
<!-- Node1&#45;&gt;Node9 -->
<g id="edge8" class="edge"><title>Node1&#45;&gt;Node9</title>
<path fill="none" stroke="midnightblue" d="M77.4104,-127.966C93.5907,-108.99 132.382,-66.1181 173,-40.5 176.109,-38.5392 179.396,-36.6883 182.775,-34.9491"/>
<polygon fill="midnightblue" stroke="midnightblue" points="184.352,-38.0746 191.869,-30.608 181.337,-31.7574 184.352,-38.0746"/>
</g>
<!-- Node6 -->
<g id="node6" class="node"><title>Node6</title>
<g id="a_node6"><a xlink:href="structscram_1_1core_1_1IntrusivePtrCast.xhtml#af153c12dc6133b7d9f9b7a57bba29f1d" target="_top" xlink:title="scram::core::IntrusivePtr\lCast\&lt; SetNode \&gt;::Ref">
<polygon fill="white" stroke="black" points="339,-122.5 339,-152.5 473,-152.5 473,-122.5 339,-122.5"/>
<text text-anchor="start" x="347" y="-140.5" font-family="Helvetica,sans-Serif" font-size="10.00">scram::core::IntrusivePtr</text>
<text text-anchor="middle" x="406" y="-129.5" font-family="Helvetica,sans-Serif" font-size="10.00">Cast&lt; SetNode &gt;::Ref</text>
</a>
</g>
</g>
<!-- Node5&#45;&gt;Node6 -->
<g id="edge5" class="edge"><title>Node5&#45;&gt;Node6</title>
<path fill="none" stroke="midnightblue" d="M293.815,-121.425C305.103,-123.057 317.18,-124.803 329.063,-126.521"/>
<polygon fill="midnightblue" stroke="midnightblue" points="328.58,-129.988 338.978,-127.955 329.582,-123.06 328.58,-129.988"/>
</g>
<!-- Node7 -->
<g id="node7" class="node"><title>Node7</title>
<g id="a_node7"><a xlink:href="classscram_1_1core_1_1SetNode.xhtml#a2d7f99792b82961df2e5ecfcd735bb5f" target="_top" xlink:title="scram::core::SetNode\l::max_set_order">
<polygon fill="white" stroke="black" points="345,-73.5 345,-103.5 467,-103.5 467,-73.5 345,-73.5"/>
<text text-anchor="start" x="353" y="-91.5" font-family="Helvetica,sans-Serif" font-size="10.00">scram::core::SetNode</text>
<text text-anchor="middle" x="406" y="-80.5" font-family="Helvetica,sans-Serif" font-size="10.00">::max_set_order</text>
</a>
</g>
</g>
<!-- Node5&#45;&gt;Node7 -->
<g id="edge6" class="edge"><title>Node5&#45;&gt;Node7</title>
<path fill="none" stroke="midnightblue" d="M293.815,-105.245C306.961,-103.265 321.179,-101.124 334.913,-99.0553"/>
<polygon fill="midnightblue" stroke="midnightblue" points="335.438,-102.516 344.805,-97.5655 334.395,-95.5938 335.438,-102.516"/>
</g>
</g>
</svg>
