<?xml version="1.0" encoding="UTF-8" standalone="no"?>
<!DOCTYPE svg PUBLIC "-//W3C//DTD SVG 1.1//EN"
 "http://www.w3.org/Graphics/SVG/1.1/DTD/svg11.dtd">
<!-- Generated by graphviz version 2.38.0 (20140413.2041)
 -->
<!-- Title: scram::core::NonTerminal::index Pages: 1 -->
<svg width="948pt" height="483pt"
 viewBox="0.00 0.00 948.00 483.00" xmlns="http://www.w3.org/2000/svg" xmlns:xlink="http://www.w3.org/1999/xlink">
<g id="graph0" class="graph" transform="scale(1 1) rotate(0) translate(4 479)">
<title>scram::core::NonTerminal::index</title>
<polygon fill="white" stroke="none" points="-4,4 -4,-479 944,-479 944,4 -4,4"/>
<!-- Node1 -->
<g id="node1" class="node"><title>Node1</title>
<polygon fill="#bfbfbf" stroke="black" points="0,-264.5 0,-294.5 139,-294.5 139,-264.5 0,-264.5"/>
<text text-anchor="start" x="8" y="-282.5" font-family="Helvetica,sans-Serif" font-size="10.00">scram::core::NonTerminal</text>
<text text-anchor="middle" x="69.5" y="-271.5" font-family="Helvetica,sans-Serif" font-size="10.00">::index</text>
</g>
<!-- Node2 -->
<g id="node2" class="node"><title>Node2</title>
<g id="a_node2"><a xlink:href="classscram_1_1core_1_1ImportanceAnalysis.xhtml#acf487235f07ddcc1c920943ebfe2ce60" target="_top" xlink:title="Performs quantitative analysis of importance factors of basic events in products. ...">
<polygon fill="white" stroke="black" points="175,-444.5 175,-474.5 348,-474.5 348,-444.5 175,-444.5"/>
<text text-anchor="start" x="183" y="-462.5" font-family="Helvetica,sans-Serif" font-size="10.00">scram::core::ImportanceAnalysis</text>
<text text-anchor="middle" x="261.5" y="-451.5" font-family="Helvetica,sans-Serif" font-size="10.00">::Analyze</text>
</a>
</g>
</g>
<!-- Node1&#45;&gt;Node2 -->
<g id="edge1" class="edge"><title>Node1&#45;&gt;Node2</title>
<path fill="none" stroke="midnightblue" d="M80.6008,-304.181C95.9135,-338.524 128.254,-400.343 175,-434.5 180.245,-438.332 186.07,-441.58 192.143,-444.332"/>
<polygon fill="midnightblue" stroke="midnightblue" points="83.7528,-302.653 76.5664,-294.868 77.3295,-305.435 83.7528,-302.653"/>
</g>
<!-- Node3 -->
<g id="node3" class="node"><title>Node3</title>
<g id="a_node3"><a xlink:href="classscram_1_1core_1_1Bdd.xhtml#a1e7f5f7608e5839e27d6be41712b4800" target="_top" xlink:title="Runs the Qualitative analysis with the representation of a PDAG as ROBDD. ">
<polygon fill="white" stroke="black" points="190.5,-406 190.5,-425 332.5,-425 332.5,-406 190.5,-406"/>
<text text-anchor="middle" x="261.5" y="-413" font-family="Helvetica,sans-Serif" font-size="10.00">scram::core::Bdd::Analyze</text>
</a>
</g>
</g>
<!-- Node1&#45;&gt;Node3 -->
<g id="edge2" class="edge"><title>Node1&#45;&gt;Node3</title>
<path fill="none" stroke="midnightblue" d="M86.3545,-303.02C104.749,-328.515 137.408,-368.615 175,-391.5 185.272,-397.753 197.222,-402.424 208.873,-405.896"/>
<polygon fill="midnightblue" stroke="midnightblue" points="89.0832,-300.816 80.4583,-294.663 83.3636,-304.852 89.0832,-300.816"/>
</g>
<!-- Node4 -->
<g id="node4" class="node"><title>Node4</title>
<g id="a_node4"><a xlink:href="classscram_1_1core_1_1Zbdd.xhtml#a499a8bc4bc3854e7b2928c08515243cf" target="_top" xlink:title="Specialization of Apply for AND connective for non&#45;terminal ZBDD vertices. ">
<polygon fill="white" stroke="black" points="416,-274.5 416,-304.5 527,-304.5 527,-274.5 416,-274.5"/>
<text text-anchor="start" x="424" y="-292.5" font-family="Helvetica,sans-Serif" font-size="10.00">scram::core::Zbdd::</text>
<text text-anchor="middle" x="471.5" y="-281.5" font-family="Helvetica,sans-Serif" font-size="10.00">Apply</text>
</a>
</g>
</g>
<!-- Node1&#45;&gt;Node4 -->
<g id="edge3" class="edge"><title>Node1&#45;&gt;Node4</title>
<path fill="none" stroke="midnightblue" d="M122.639,-261.436C139.173,-256.549 157.664,-251.939 175,-249.5 251.139,-238.787 272.067,-237.417 348,-249.5 356.064,-250.783 394.774,-263.613 426.552,-274.402"/>
<polygon fill="midnightblue" stroke="midnightblue" points="121.164,-258.227 112.625,-264.498 123.211,-264.921 121.164,-258.227"/>
</g>
<!-- Node5 -->
<g id="node5" class="node"><title>Node5</title>
<g id="a_node5"><a xlink:href="classscram_1_1core_1_1Zbdd.xhtml#a8cfceb8301f35bce33c34f1283f33725" target="_top" xlink:title="Applies non&#45;declarative substitutions at the end of analysis. ">
<polygon fill="white" stroke="black" points="416,-0.5 416,-30.5 527,-30.5 527,-0.5 416,-0.5"/>
<text text-anchor="start" x="424" y="-18.5" font-family="Helvetica,sans-Serif" font-size="10.00">scram::core::Zbdd::</text>
<text text-anchor="middle" x="471.5" y="-7.5" font-family="Helvetica,sans-Serif" font-size="10.00">ApplySubstitutions</text>
</a>
</g>
</g>
<!-- Node1&#45;&gt;Node5 -->
<g id="edge4" class="edge"><title>Node1&#45;&gt;Node5</title>
<path fill="none" stroke="midnightblue" d="M79.6791,-254.808C94.3743,-218.544 126.548,-151.022 175,-112.5 246.323,-55.7953 352.016,-31.6996 415.777,-21.8616"/>
<polygon fill="midnightblue" stroke="midnightblue" points="76.405,-253.57 75.9988,-264.157 82.9185,-256.134 76.405,-253.57"/>
</g>
<!-- Node8 -->
<g id="node8" class="node"><title>Node8</title>
<g id="a_node8"><a xlink:href="classscram_1_1core_1_1ProbabilityAnalyzer_3_01Bdd_01_4.xhtml#a45b66605634ae60f1c00e3ac469a7c7a" target="_top" xlink:title="Calculates the total probability with a different set of probability values than the one given upon c...">
<polygon fill="white" stroke="black" points="176,-259 176,-300 347,-300 347,-259 176,-259"/>
<text text-anchor="start" x="184" y="-288" font-family="Helvetica,sans-Serif" font-size="10.00">scram::core::Probability</text>
<text text-anchor="start" x="184" y="-277" font-family="Helvetica,sans-Serif" font-size="10.00">Analyzer&lt; Bdd &gt;::CalculateTotal</text>
<text text-anchor="middle" x="261.5" y="-266" font-family="Helvetica,sans-Serif" font-size="10.00">Probability</text>
</a>
</g>
</g>
<!-- Node1&#45;&gt;Node8 -->
<g id="edge7" class="edge"><title>Node1&#45;&gt;Node8</title>
<path fill="none" stroke="midnightblue" d="M149.263,-279.5C158.016,-279.5 166.958,-279.5 175.78,-279.5"/>
<polygon fill="midnightblue" stroke="midnightblue" points="149.094,-276 139.094,-279.5 149.094,-283 149.094,-276"/>
</g>
<!-- Node9 -->
<g id="node9" class="node"><title>Node9</title>
<g id="a_node9"><a xlink:href="classscram_1_1core_1_1Zbdd.xhtml#a516f0d2f35ad213399f83fb9ab102561" target="_top" xlink:title="Traverses ZBDD to find modules and adjusted cut&#45;offs. ">
<polygon fill="white" stroke="black" points="206,-318.5 206,-348.5 317,-348.5 317,-318.5 206,-318.5"/>
<text text-anchor="start" x="214" y="-336.5" font-family="Helvetica,sans-Serif" font-size="10.00">scram::core::Zbdd::</text>
<text text-anchor="middle" x="261.5" y="-325.5" font-family="Helvetica,sans-Serif" font-size="10.00">GatherModules</text>
</a>
</g>
</g>
<!-- Node1&#45;&gt;Node9 -->
<g id="edge8" class="edge"><title>Node1&#45;&gt;Node9</title>
<path fill="none" stroke="midnightblue" d="M132.57,-297.384C146.524,-301.387 161.265,-305.601 175,-309.5 185.234,-312.405 196.162,-315.488 206.667,-318.441"/>
<polygon fill="midnightblue" stroke="midnightblue" points="133.151,-293.91 122.574,-294.515 131.22,-300.638 133.151,-293.91"/>
</g>
<!-- Node11 -->
<g id="node11" class="node"><title>Node11</title>
<g id="a_node11"><a xlink:href="classscram_1_1core_1_1zbdd_1_1CutSetContainer.xhtml#a478c89f64731781882b50ec55898900b" target="_top" xlink:title="Gathers all module indices in the cut sets. ">
<polygon fill="white" stroke="black" points="384,-362.5 384,-392.5 559,-392.5 559,-362.5 384,-362.5"/>
<text text-anchor="start" x="392" y="-380.5" font-family="Helvetica,sans-Serif" font-size="10.00">scram::core::zbdd::</text>
<text text-anchor="middle" x="471.5" y="-369.5" font-family="Helvetica,sans-Serif" font-size="10.00">CutSetContainer::GatherModules</text>
</a>
</g>
</g>
<!-- Node1&#45;&gt;Node11 -->
<g id="edge11" class="edge"><title>Node1&#45;&gt;Node11</title>
<path fill="none" stroke="midnightblue" d="M91.9017,-301.79C111.537,-320.621 142.44,-346.402 175,-358.5 241.983,-383.389 323.344,-386.852 383.722,-384.818"/>
<polygon fill="midnightblue" stroke="midnightblue" points="94.2841,-299.224 84.7006,-294.706 89.3752,-304.214 94.2841,-299.224"/>
</g>
<!-- Node12 -->
<g id="node12" class="node"><title>Node12</title>
<g id="a_node12"><a xlink:href="classscram_1_1core_1_1zbdd_1_1CutSetContainer.xhtml#a9f6c0cef12a80aefbfb357022d558053" target="_top" xlink:title="Finds a gate in intermediate cut sets. ">
<polygon fill="white" stroke="black" points="179,-122.5 179,-152.5 344,-152.5 344,-122.5 179,-122.5"/>
<text text-anchor="start" x="187" y="-140.5" font-family="Helvetica,sans-Serif" font-size="10.00">scram::core::zbdd::</text>
<text text-anchor="middle" x="261.5" y="-129.5" font-family="Helvetica,sans-Serif" font-size="10.00">CutSetContainer::GetNextGate</text>
</a>
</g>
</g>
<!-- Node1&#45;&gt;Node12 -->
<g id="edge12" class="edge"><title>Node1&#45;&gt;Node12</title>
<path fill="none" stroke="midnightblue" d="M85.2434,-255.914C103.211,-229.107 136.043,-185.915 175,-161.5 180.487,-158.061 186.475,-155.105 192.651,-152.565"/>
<polygon fill="midnightblue" stroke="midnightblue" points="82.2847,-254.044 79.7325,-264.326 88.1401,-257.879 82.2847,-254.044"/>
</g>
<!-- Node13 -->
<g id="node13" class="node"><title>Node13</title>
<g id="a_node13"><a xlink:href="classscram_1_1core_1_1Zbdd.xhtml#a3dbb8ef5da2882daf6c39e9724eae459" target="_top" xlink:title="Removes subsets in ZBDD. ">
<polygon fill="white" stroke="black" points="206,-171.5 206,-201.5 317,-201.5 317,-171.5 206,-171.5"/>
<text text-anchor="start" x="214" y="-189.5" font-family="Helvetica,sans-Serif" font-size="10.00">scram::core::Zbdd::</text>
<text text-anchor="middle" x="261.5" y="-178.5" font-family="Helvetica,sans-Serif" font-size="10.00">Minimize</text>
</a>
</g>
</g>
<!-- Node1&#45;&gt;Node13 -->
<g id="edge13" class="edge"><title>Node1&#45;&gt;Node13</title>
<path fill="none" stroke="midnightblue" d="M101.118,-258.751C121.472,-245.54 149.121,-228.683 175,-216.5 186.671,-211.006 199.637,-205.953 211.872,-201.623"/>
<polygon fill="midnightblue" stroke="midnightblue" points="99.0286,-255.936 92.5903,-264.35 102.871,-261.787 99.0286,-255.936"/>
</g>
<!-- Node6 -->
<g id="node6" class="node"><title>Node6</title>
<g id="a_node6"><a xlink:href="classscram_1_1core_1_1Zbdd.xhtml#aac27b9279de1ee1a63822896daeca0c7" target="_top" xlink:title="Runs the analysis with the representation of a PDAG as ZBDD. ">
<polygon fill="white" stroke="black" points="612.5,-14.5 612.5,-44.5 723.5,-44.5 723.5,-14.5 612.5,-14.5"/>
<text text-anchor="start" x="620.5" y="-32.5" font-family="Helvetica,sans-Serif" font-size="10.00">scram::core::Zbdd::</text>
<text text-anchor="middle" x="668" y="-21.5" font-family="Helvetica,sans-Serif" font-size="10.00">Analyze</text>
</a>
</g>
</g>
<!-- Node5&#45;&gt;Node6 -->
<g id="edge5" class="edge"><title>Node5&#45;&gt;Node6</title>
<path fill="none" stroke="midnightblue" d="M537.41,-20.1722C561.726,-21.9224 589.085,-23.8917 612.377,-25.5683"/>
<polygon fill="midnightblue" stroke="midnightblue" points="537.422,-16.6641 527.197,-19.437 536.92,-23.646 537.422,-16.6641"/>
</g>
<!-- Node7 -->
<g id="node7" class="node"><title>Node7</title>
<g id="a_node7"><a xlink:href="classscram_1_1core_1_1FaultTreeAnalyzer.xhtml#aedae0c884539dab245018194771f5021" target="_top" xlink:title="scram::core::FaultTreeAnalyzer\l::algorithm">
<polygon fill="white" stroke="black" points="777,-14.5 777,-44.5 940,-44.5 940,-14.5 777,-14.5"/>
<text text-anchor="start" x="785" y="-32.5" font-family="Helvetica,sans-Serif" font-size="10.00">scram::core::FaultTreeAnalyzer</text>
<text text-anchor="middle" x="858.5" y="-21.5" font-family="Helvetica,sans-Serif" font-size="10.00">::algorithm</text>
</a>
</g>
</g>
<!-- Node6&#45;&gt;Node7 -->
<g id="edge6" class="edge"><title>Node6&#45;&gt;Node7</title>
<path fill="none" stroke="midnightblue" d="M733.887,-29.5C747.71,-29.5 762.469,-29.5 776.801,-29.5"/>
<polygon fill="midnightblue" stroke="midnightblue" points="733.522,-26.0001 723.522,-29.5 733.522,-33.0001 733.522,-26.0001"/>
</g>
<!-- Node10 -->
<g id="node10" class="node"><title>Node10</title>
<g id="a_node10"><a xlink:href="classscram_1_1core_1_1Zbdd.xhtml#af92e04ed908364e0177ce444d7b72712" target="_top" xlink:title="The common constructor to initialize member variables. ">
<polygon fill="white" stroke="black" points="599.5,-216 599.5,-235 736.5,-235 736.5,-216 599.5,-216"/>
<text text-anchor="middle" x="668" y="-223" font-family="Helvetica,sans-Serif" font-size="10.00">scram::core::Zbdd::Zbdd</text>
</a>
</g>
</g>
<!-- Node9&#45;&gt;Node10 -->
<g id="edge9" class="edge"><title>Node9&#45;&gt;Node10</title>
<path fill="none" stroke="midnightblue" d="M327.131,-340.151C388.903,-344.002 483.526,-343.255 559,-313.5 602.876,-296.202 642.573,-254.198 659,-235.162"/>
<polygon fill="midnightblue" stroke="midnightblue" points="327.344,-336.657 317.129,-339.469 326.868,-343.641 327.344,-336.657"/>
</g>
<!-- Node9&#45;&gt;Node11 -->
<g id="edge10" class="edge"><title>Node9&#45;&gt;Node11</title>
<path fill="none" stroke="midnightblue" d="M327.11,-347.168C350.03,-352.016 375.945,-357.498 399.377,-362.455"/>
<polygon fill="midnightblue" stroke="midnightblue" points="327.657,-343.706 317.15,-345.06 326.209,-350.554 327.657,-343.706"/>
</g>
<!-- Node13&#45;&gt;Node4 -->
<g id="edge16" class="edge"><title>Node13&#45;&gt;Node4</title>
<path fill="none" stroke="midnightblue" d="M326.4,-204.579C333.989,-207.966 341.38,-211.916 348,-216.5 368.492,-230.689 363.483,-245.348 384,-259.5 393.552,-266.088 404.689,-271.358 415.732,-275.527"/>
<polygon fill="midnightblue" stroke="midnightblue" points="327.661,-201.314 317.083,-200.723 324.984,-207.781 327.661,-201.314"/>
</g>
<!-- Node13&#45;&gt;Node5 -->
<g id="edge23" class="edge"><title>Node13&#45;&gt;Node5</title>
<path fill="none" stroke="midnightblue" d="M326.803,-175.426C334.632,-171.959 341.977,-167.424 348,-161.5 386.483,-123.645 346.463,-84.2936 384,-45.5 392.621,-36.5902 404.019,-30.3247 415.701,-25.9194"/>
<polygon fill="midnightblue" stroke="midnightblue" points="325.518,-172.171 317.44,-179.027 328.03,-178.704 325.518,-172.171"/>
</g>
<!-- Node13&#45;&gt;Node6 -->
<g id="edge14" class="edge"><title>Node13&#45;&gt;Node6</title>
<path fill="none" stroke="midnightblue" d="M326.791,-174.562C334.5,-171.224 341.817,-166.956 348,-161.5 378.15,-134.896 352.396,-103.359 384,-78.5 401.685,-64.5893 535.121,-45.9352 612.289,-36.1422"/>
<polygon fill="midnightblue" stroke="midnightblue" points="325.347,-171.366 317.241,-178.189 327.833,-177.91 325.347,-171.366"/>
</g>
<!-- Node13&#45;&gt;Node10 -->
<g id="edge15" class="edge"><title>Node13&#45;&gt;Node10</title>
<path fill="none" stroke="midnightblue" d="M308.57,-205.018C330.942,-213.04 358.452,-221.5 384,-225.5 456.932,-236.918 541.739,-234.933 599.359,-231.345"/>
<polygon fill="midnightblue" stroke="midnightblue" points="309.592,-201.665 298.999,-201.501 307.178,-208.235 309.592,-201.665"/>
</g>
<!-- Node14 -->
<g id="node14" class="node"><title>Node14</title>
<g id="a_node14"><a xlink:href="classscram_1_1core_1_1Zbdd.xhtml#ac3ac27090b550d973b20bd971c3de9f9" target="_top" xlink:title="Removes complements of variables from products. ">
<polygon fill="white" stroke="black" points="407.5,-88.5 407.5,-118.5 535.5,-118.5 535.5,-88.5 407.5,-88.5"/>
<text text-anchor="start" x="415.5" y="-106.5" font-family="Helvetica,sans-Serif" font-size="10.00">scram::core::Zbdd::</text>
<text text-anchor="middle" x="471.5" y="-95.5" font-family="Helvetica,sans-Serif" font-size="10.00">EliminateComplements</text>
</a>
</g>
</g>
<!-- Node13&#45;&gt;Node14 -->
<g id="edge17" class="edge"><title>Node13&#45;&gt;Node14</title>
<path fill="none" stroke="midnightblue" d="M327.3,-171.142C334.493,-168.396 341.544,-165.202 348,-161.5 367.092,-150.552 364.833,-138.316 384,-127.5 391.194,-123.441 399.116,-120.034 407.158,-117.183"/>
<polygon fill="midnightblue" stroke="midnightblue" points="325.714,-167.99 317.445,-174.614 328.04,-174.592 325.714,-167.99"/>
</g>
<!-- Node16 -->
<g id="node16" class="node"><title>Node16</title>
<g id="a_node16"><a xlink:href="classscram_1_1core_1_1Zbdd.xhtml#aeb83fd37f2aee74ac41e6ccadba82d39" target="_top" xlink:title="Removes constant modules from products. ">
<polygon fill="white" stroke="black" points="399.5,-137.5 399.5,-167.5 543.5,-167.5 543.5,-137.5 399.5,-137.5"/>
<text text-anchor="start" x="407.5" y="-155.5" font-family="Helvetica,sans-Serif" font-size="10.00">scram::core::Zbdd::</text>
<text text-anchor="middle" x="471.5" y="-144.5" font-family="Helvetica,sans-Serif" font-size="10.00">EliminateConstantModules</text>
</a>
</g>
</g>
<!-- Node13&#45;&gt;Node16 -->
<g id="edge20" class="edge"><title>Node13&#45;&gt;Node16</title>
<path fill="none" stroke="midnightblue" d="M327.11,-175.939C350.03,-172.192 375.945,-167.956 399.377,-164.126"/>
<polygon fill="midnightblue" stroke="midnightblue" points="326.454,-172.499 317.15,-177.567 327.583,-179.408 326.454,-172.499"/>
</g>
<!-- Node18 -->
<g id="node18" class="node"><title>Node18</title>
<g id="a_node18"><a xlink:href="classscram_1_1core_1_1zbdd_1_1CutSetContainer.xhtml#a1648d3f24a95302fac2a40e95f743dda" target="_top" xlink:title="Minimizes cut sets in the container. ">
<polygon fill="white" stroke="black" points="399.5,-186.5 399.5,-216.5 543.5,-216.5 543.5,-186.5 399.5,-186.5"/>
<text text-anchor="start" x="407.5" y="-204.5" font-family="Helvetica,sans-Serif" font-size="10.00">scram::core::zbdd::</text>
<text text-anchor="middle" x="471.5" y="-193.5" font-family="Helvetica,sans-Serif" font-size="10.00">CutSetContainer::Minimize</text>
</a>
</g>
</g>
<!-- Node13&#45;&gt;Node18 -->
<g id="edge24" class="edge"><title>Node13&#45;&gt;Node18</title>
<path fill="none" stroke="midnightblue" d="M327.419,-191.182C350.262,-192.829 376.05,-194.689 399.377,-196.371"/>
<polygon fill="midnightblue" stroke="midnightblue" points="327.375,-187.67 317.15,-190.441 326.872,-194.651 327.375,-187.67"/>
</g>
<!-- Node14&#45;&gt;Node10 -->
<g id="edge18" class="edge"><title>Node14&#45;&gt;Node10</title>
<path fill="none" stroke="midnightblue" d="M544.887,-118.891C549.889,-121.348 554.659,-124.197 559,-127.5 583.747,-146.333 572.416,-166.121 595,-187.5 608.241,-200.035 626.42,-209.586 641.198,-215.977"/>
<polygon fill="midnightblue" stroke="midnightblue" points="546.242,-115.664 535.677,-114.879 543.447,-122.082 546.242,-115.664"/>
</g>
<!-- Node15 -->
<g id="node15" class="node"><title>Node15</title>
<g id="a_node15"><a xlink:href="classscram_1_1core_1_1zbdd_1_1CutSetContainer.xhtml#a49532388bd9b917f4351f94f728518aa" target="_top" xlink:title="Eliminates all complements from cut sets. ">
<polygon fill="white" stroke="black" points="595,-77 595,-118 741,-118 741,-77 595,-77"/>
<text text-anchor="start" x="603" y="-106" font-family="Helvetica,sans-Serif" font-size="10.00">scram::core::zbdd::</text>
<text text-anchor="start" x="603" y="-95" font-family="Helvetica,sans-Serif" font-size="10.00">CutSetContainer::Eliminate</text>
<text text-anchor="middle" x="668" y="-84" font-family="Helvetica,sans-Serif" font-size="10.00">Complements</text>
</a>
</g>
</g>
<!-- Node14&#45;&gt;Node15 -->
<g id="edge19" class="edge"><title>Node14&#45;&gt;Node15</title>
<path fill="none" stroke="midnightblue" d="M545.984,-101.233C561.94,-100.741 578.806,-100.221 594.716,-99.7298"/>
<polygon fill="midnightblue" stroke="midnightblue" points="545.536,-97.7452 535.649,-101.552 545.752,-104.742 545.536,-97.7452"/>
</g>
<!-- Node16&#45;&gt;Node10 -->
<g id="edge21" class="edge"><title>Node16&#45;&gt;Node10</title>
<path fill="none" stroke="midnightblue" d="M541.1,-170.473C547.192,-172.388 553.232,-174.406 559,-176.5 591.127,-188.165 627,-205.305 648.253,-215.915"/>
<polygon fill="midnightblue" stroke="midnightblue" points="542.102,-167.119 531.516,-167.551 540.061,-173.815 542.102,-167.119"/>
</g>
<!-- Node17 -->
<g id="node17" class="node"><title>Node17</title>
<g id="a_node17"><a xlink:href="classscram_1_1core_1_1zbdd_1_1CutSetContainer.xhtml#a1022ad7a4699257a6f0c0809d8f1903d" target="_top" xlink:title="Removes constant modules from cut sets. ">
<polygon fill="white" stroke="black" points="595,-137 595,-178 741,-178 741,-137 595,-137"/>
<text text-anchor="start" x="603" y="-166" font-family="Helvetica,sans-Serif" font-size="10.00">scram::core::zbdd::</text>
<text text-anchor="start" x="603" y="-155" font-family="Helvetica,sans-Serif" font-size="10.00">CutSetContainer::Eliminate</text>
<text text-anchor="middle" x="668" y="-144" font-family="Helvetica,sans-Serif" font-size="10.00">ConstantModules</text>
</a>
</g>
</g>
<!-- Node16&#45;&gt;Node17 -->
<g id="edge22" class="edge"><title>Node16&#45;&gt;Node17</title>
<path fill="none" stroke="midnightblue" d="M553.848,-154.591C567.455,-154.941 581.488,-155.302 594.844,-155.645"/>
<polygon fill="midnightblue" stroke="midnightblue" points="553.631,-151.085 543.545,-154.326 553.451,-158.082 553.631,-151.085"/>
</g>
</g>
</svg>
