<?xml version="1.0" encoding="UTF-8" standalone="no"?>
<!DOCTYPE svg PUBLIC "-//W3C//DTD SVG 1.1//EN"
 "http://www.w3.org/Graphics/SVG/1.1/DTD/svg11.dtd">
<!-- Generated by graphviz version 2.38.0 (20140413.2041)
 -->
<!-- Title: scram::mef::Histogram::Histogram Pages: 1 -->
<svg width="301pt" height="88pt"
 viewBox="0.00 0.00 301.00 88.00" xmlns="http://www.w3.org/2000/svg" xmlns:xlink="http://www.w3.org/1999/xlink">
<g id="graph0" class="graph" transform="scale(1 1) rotate(0) translate(4 84)">
<title>scram::mef::Histogram::Histogram</title>
<polygon fill="white" stroke="none" points="-4,4 -4,-84 297,-84 297,4 -4,4"/>
<!-- Node1 -->
<g id="node1" class="node"><title>Node1</title>
<polygon fill="#bfbfbf" stroke="black" points="0,-24.5 0,-54.5 128,-54.5 128,-24.5 0,-24.5"/>
<text text-anchor="start" x="8" y="-42.5" font-family="Helvetica,sans-Serif" font-size="10.00">scram::mef::Histogram</text>
<text text-anchor="middle" x="64" y="-31.5" font-family="Helvetica,sans-Serif" font-size="10.00">::Histogram</text>
</g>
<!-- Node2 -->
<g id="node2" class="node"><title>Node2</title>
<g id="a_node2"><a xlink:href="classscram_1_1mef_1_1Expression.xhtml#ac636368fbb89921e75d120d5ac154ac1" target="_top" xlink:title="Registers an additional argument expression. ">
<polygon fill="white" stroke="black" points="164,-49.5 164,-79.5 293,-79.5 293,-49.5 164,-49.5"/>
<text text-anchor="start" x="172" y="-67.5" font-family="Helvetica,sans-Serif" font-size="10.00">scram::mef::Expression</text>
<text text-anchor="middle" x="228.5" y="-56.5" font-family="Helvetica,sans-Serif" font-size="10.00">::AddArg</text>
</a>
</g>
</g>
<!-- Node1&#45;&gt;Node2 -->
<g id="edge1" class="edge"><title>Node1&#45;&gt;Node2</title>
<path fill="none" stroke="midnightblue" d="M128.292,-49.2372C136.683,-50.5281 145.343,-51.8604 153.889,-53.1752"/>
<polygon fill="midnightblue" stroke="midnightblue" points="153.43,-56.6457 163.846,-54.7071 154.494,-49.7271 153.43,-56.6457"/>
</g>
<!-- Node3 -->
<g id="node3" class="node"><title>Node3</title>
<g id="a_node3"><a xlink:href="classscram_1_1mef_1_1Expression.xhtml#ac22fdb9ced7ef6942f666337b6a34110" target="_top" xlink:title="scram::mef::Expression\l::args">
<polygon fill="white" stroke="black" points="164,-0.5 164,-30.5 293,-30.5 293,-0.5 164,-0.5"/>
<text text-anchor="start" x="172" y="-18.5" font-family="Helvetica,sans-Serif" font-size="10.00">scram::mef::Expression</text>
<text text-anchor="middle" x="228.5" y="-7.5" font-family="Helvetica,sans-Serif" font-size="10.00">::args</text>
</a>
</g>
</g>
<!-- Node1&#45;&gt;Node3 -->
<g id="edge2" class="edge"><title>Node1&#45;&gt;Node3</title>
<path fill="none" stroke="midnightblue" d="M128.292,-30.1523C136.683,-28.913 145.343,-27.634 153.889,-26.3718"/>
<polygon fill="midnightblue" stroke="midnightblue" points="154.465,-29.8248 163.846,-24.9012 153.442,-22.8999 154.465,-29.8248"/>
</g>
</g>
</svg>
