<?xml version="1.0" encoding="UTF-8" standalone="no"?>
<!DOCTYPE svg PUBLIC "-//W3C//DTD SVG 1.1//EN"
 "http://www.w3.org/Graphics/SVG/1.1/DTD/svg11.dtd">
<!-- Generated by graphviz version 2.38.0 (20140413.2041)
 -->
<!-- Title: scram::core::zbdd::CutSetContainer::ConvertGate Pages: 1 -->
<svg width="496pt" height="235pt"
 viewBox="0.00 0.00 496.00 235.00" xmlns="http://www.w3.org/2000/svg" xmlns:xlink="http://www.w3.org/1999/xlink">
<g id="graph0" class="graph" transform="scale(1 1) rotate(0) translate(4 231)">
<title>scram::core::zbdd::CutSetContainer::ConvertGate</title>
<polygon fill="white" stroke="none" points="-4,4 -4,-231 492,-231 492,4 -4,4"/>
<!-- Node1 -->
<g id="node1" class="node"><title>Node1</title>
<polygon fill="#bfbfbf" stroke="black" points="0,-98.5 0,-128.5 163,-128.5 163,-98.5 0,-98.5"/>
<text text-anchor="start" x="8" y="-116.5" font-family="Helvetica,sans-Serif" font-size="10.00">scram::core::zbdd::</text>
<text text-anchor="middle" x="81.5" y="-105.5" font-family="Helvetica,sans-Serif" font-size="10.00">CutSetContainer::ConvertGate</text>
</g>
<!-- Node2 -->
<g id="node2" class="node"><title>Node2</title>
<g id="a_node2"><a xlink:href="classscram_1_1core_1_1Zbdd.xhtml#a711aca319bb4d1586bf1ed92eccfaa97" target="_top" xlink:title="Applies Boolean operation to two vertices representing sets. ">
<polygon fill="white" stroke="black" points="203,-196.5 203,-226.5 314,-226.5 314,-196.5 203,-196.5"/>
<text text-anchor="start" x="211" y="-214.5" font-family="Helvetica,sans-Serif" font-size="10.00">scram::core::Zbdd::</text>
<text text-anchor="middle" x="258.5" y="-203.5" font-family="Helvetica,sans-Serif" font-size="10.00">Apply</text>
</a>
</g>
</g>
<!-- Node1&#45;&gt;Node2 -->
<g id="edge1" class="edge"><title>Node1&#45;&gt;Node2</title>
<path fill="none" stroke="midnightblue" d="M103.721,-128.595C126.568,-144.456 164.314,-169.548 199,-187.5 202.117,-189.113 205.367,-190.698 208.67,-192.236"/>
<polygon fill="midnightblue" stroke="midnightblue" points="207.488,-195.541 218.046,-196.431 210.348,-189.152 207.488,-195.541"/>
</g>
<!-- Node3 -->
<g id="node3" class="node"><title>Node3</title>
<g id="a_node3"><a xlink:href="classscram_1_1core_1_1Zbdd.xhtml#a7c1129acd9810b5b9ff4952f587ce490" target="_top" xlink:title="Clears all memoization tables. ">
<polygon fill="white" stroke="black" points="203,-147.5 203,-177.5 314,-177.5 314,-147.5 203,-147.5"/>
<text text-anchor="start" x="211" y="-165.5" font-family="Helvetica,sans-Serif" font-size="10.00">scram::core::Zbdd::</text>
<text text-anchor="middle" x="258.5" y="-154.5" font-family="Helvetica,sans-Serif" font-size="10.00">ClearTables</text>
</a>
</g>
</g>
<!-- Node1&#45;&gt;Node3 -->
<g id="edge2" class="edge"><title>Node1&#45;&gt;Node3</title>
<path fill="none" stroke="midnightblue" d="M136.434,-128.601C154.65,-133.702 175.153,-139.443 194.037,-144.73"/>
<polygon fill="midnightblue" stroke="midnightblue" points="193.171,-148.122 203.744,-147.448 195.058,-141.382 193.171,-148.122"/>
</g>
<!-- Node4 -->
<g id="node4" class="node"><title>Node4</title>
<g id="a_node4"><a xlink:href="classscram_1_1core_1_1Zbdd.xhtml#a42af18229ba2e80201bc0fdac07b7091" target="_top" xlink:title="Finds or adds a unique SetNode in the ZBDD. ">
<polygon fill="white" stroke="black" points="203,-98.5 203,-128.5 314,-128.5 314,-98.5 203,-98.5"/>
<text text-anchor="start" x="211" y="-116.5" font-family="Helvetica,sans-Serif" font-size="10.00">scram::core::Zbdd::</text>
<text text-anchor="middle" x="258.5" y="-105.5" font-family="Helvetica,sans-Serif" font-size="10.00">FindOrAddVertex</text>
</a>
</g>
</g>
<!-- Node1&#45;&gt;Node4 -->
<g id="edge3" class="edge"><title>Node1&#45;&gt;Node4</title>
<path fill="none" stroke="midnightblue" d="M163.085,-113.5C172.967,-113.5 182.967,-113.5 192.577,-113.5"/>
<polygon fill="midnightblue" stroke="midnightblue" points="192.827,-117 202.827,-113.5 192.827,-110 192.827,-117"/>
</g>
<!-- Node7 -->
<g id="node7" class="node"><title>Node7</title>
<g id="a_node7"><a xlink:href="classscram_1_1core_1_1Settings.xhtml#a0e43ec0f017d23a4fa4e376c4060d380" target="_top" xlink:title="scram::core::Settings\l::limit_order">
<polygon fill="white" stroke="black" points="199,-49.5 199,-79.5 318,-79.5 318,-49.5 199,-49.5"/>
<text text-anchor="start" x="207" y="-67.5" font-family="Helvetica,sans-Serif" font-size="10.00">scram::core::Settings</text>
<text text-anchor="middle" x="258.5" y="-56.5" font-family="Helvetica,sans-Serif" font-size="10.00">::limit_order</text>
</a>
</g>
</g>
<!-- Node1&#45;&gt;Node7 -->
<g id="edge6" class="edge"><title>Node1&#45;&gt;Node7</title>
<path fill="none" stroke="midnightblue" d="M136.434,-98.3986C154.65,-93.2981 175.153,-87.5571 194.037,-82.2695"/>
<polygon fill="midnightblue" stroke="midnightblue" points="195.058,-85.6183 203.744,-79.5516 193.171,-78.8776 195.058,-85.6183"/>
</g>
<!-- Node8 -->
<g id="node8" class="node"><title>Node8</title>
<g id="a_node8"><a xlink:href="classscram_1_1core_1_1Zbdd.xhtml#ab71281cd644eb442dd2d3ee1c5df56c4" target="_top" xlink:title="scram::core::Zbdd::\lsettings">
<polygon fill="white" stroke="black" points="203,-0.5 203,-30.5 314,-30.5 314,-0.5 203,-0.5"/>
<text text-anchor="start" x="211" y="-18.5" font-family="Helvetica,sans-Serif" font-size="10.00">scram::core::Zbdd::</text>
<text text-anchor="middle" x="258.5" y="-7.5" font-family="Helvetica,sans-Serif" font-size="10.00">settings</text>
</a>
</g>
</g>
<!-- Node1&#45;&gt;Node8 -->
<g id="edge7" class="edge"><title>Node1&#45;&gt;Node8</title>
<path fill="none" stroke="midnightblue" d="M104.227,-98.4482C127.184,-82.8911 164.735,-58.4175 199,-40.5 202.744,-38.5424 206.675,-36.6116 210.653,-34.7434"/>
<polygon fill="midnightblue" stroke="midnightblue" points="212.302,-37.8386 219.958,-30.5146 209.406,-31.4659 212.302,-37.8386"/>
</g>
<!-- Node5 -->
<g id="node5" class="node"><title>Node5</title>
<g id="a_node5"><a xlink:href="classscram_1_1core_1_1SetNode.xhtml#a2d7f99792b82961df2e5ecfcd735bb5f" target="_top" xlink:title="scram::core::SetNode\l::max_set_order">
<polygon fill="white" stroke="black" points="360,-122.5 360,-152.5 482,-152.5 482,-122.5 360,-122.5"/>
<text text-anchor="start" x="368" y="-140.5" font-family="Helvetica,sans-Serif" font-size="10.00">scram::core::SetNode</text>
<text text-anchor="middle" x="421" y="-129.5" font-family="Helvetica,sans-Serif" font-size="10.00">::max_set_order</text>
</a>
</g>
</g>
<!-- Node4&#45;&gt;Node5 -->
<g id="edge4" class="edge"><title>Node4&#45;&gt;Node5</title>
<path fill="none" stroke="midnightblue" d="M314.286,-121.692C325.779,-123.411 338.05,-125.246 350.012,-127.034"/>
<polygon fill="midnightblue" stroke="midnightblue" points="349.555,-130.505 359.963,-128.522 350.59,-123.582 349.555,-130.505"/>
</g>
<!-- Node6 -->
<g id="node6" class="node"><title>Node6</title>
<g id="a_node6"><a xlink:href="structscram_1_1core_1_1IntrusivePtrCast.xhtml#af153c12dc6133b7d9f9b7a57bba29f1d" target="_top" xlink:title="scram::core::IntrusivePtr\lCast\&lt; SetNode \&gt;::Ref">
<polygon fill="white" stroke="black" points="354,-73.5 354,-103.5 488,-103.5 488,-73.5 354,-73.5"/>
<text text-anchor="start" x="362" y="-91.5" font-family="Helvetica,sans-Serif" font-size="10.00">scram::core::IntrusivePtr</text>
<text text-anchor="middle" x="421" y="-80.5" font-family="Helvetica,sans-Serif" font-size="10.00">Cast&lt; SetNode &gt;::Ref</text>
</a>
</g>
</g>
<!-- Node4&#45;&gt;Node6 -->
<g id="edge5" class="edge"><title>Node4&#45;&gt;Node6</title>
<path fill="none" stroke="midnightblue" d="M314.286,-104.966C323.821,-103.481 333.892,-101.913 343.877,-100.357"/>
<polygon fill="midnightblue" stroke="midnightblue" points="344.468,-103.807 353.81,-98.81 343.39,-96.8908 344.468,-103.807"/>
</g>
</g>
</svg>
