<?xml version="1.0" encoding="UTF-8" standalone="no"?>
<!DOCTYPE svg PUBLIC "-//W3C//DTD SVG 1.1//EN"
 "http://www.w3.org/Graphics/SVG/1.1/DTD/svg11.dtd">
<!-- Generated by graphviz version 2.38.0 (20140413.2041)
 -->
<!-- Title: scram::mef::Component::Add Pages: 1 -->
<!--zoomable 204 -->
<svg id="main" version="1.1" xmlns="http://www.w3.org/2000/svg" xmlns:xlink="http://www.w3.org/1999/xlink" xml:space="preserve" onload="init(evt)">
<style type="text/css"><![CDATA[
.edge:hover path { stroke: red; }
.edge:hover polygon { stroke: red; fill: red; }
]]></style>
<script type="text/javascript"><![CDATA[
var edges = document.getElementsByTagName('g');
if (edges && edges.length) {
  for (var i=0;i<edges.length;i++) {
    if (edges[i].id.substr(0,4)=='edge') {
      edges[i].setAttribute('class','edge');
    }
  }
}
]]></script>
        <defs>
                <circle id="rim" cx="0" cy="0" r="7"/>
                <circle id="rim2" cx="0" cy="0" r="3.5"/>
                <g id="zoomPlus">
                        <use xlink:href="#rim" fill="#404040">
                                <set attributeName="fill" to="#808080" begin="zoomplus.mouseover" end="zoomplus.mouseout"/>
                        </use>
                        <path d="M-4,0h8M0,-4v8" fill="none" stroke="white" stroke-width="1.5" pointer-events="none"/>
                </g>
                <g id="zoomMin">
                        <use xlink:href="#rim" fill="#404040">
                                <set attributeName="fill" to="#808080" begin="zoomminus.mouseover" end="zoomminus.mouseout"/>
                        </use>
                        <path d="M-4,0h8" fill="none" stroke="white" stroke-width="1.5" pointer-events="none"/>
                </g>
                <g id="dirArrow">
                        <path fill="none" stroke="white" stroke-width="1.5" d="M0,-3.0v7 M-2.5,-0.5L0,-3.0L2.5,-0.5"/>
                </g>
               <g id="resetDef">
                       <use xlink:href="#rim2" fill="#404040">
                               <set attributeName="fill" to="#808080" begin="reset.mouseover" end="reset.mouseout"/>
                       </use>
               </g>
        </defs>

<script type="text/javascript">
var viewWidth = 1033;
var viewHeight = 204;
var sectionId = 'dynsection-8';
</script>
<script xlink:href="svgpan.js"/>
<svg id="graph" class="graph">
<g id="viewport">
<title>scram::mef::Component::Add</title>
<polygon fill="white" stroke="none" points="-4,4 -4,-200 1029,-200 1029,4 -4,4"/>
<!-- Node1 -->
<g id="node1" class="node"><title>Node1</title>
<polygon fill="#bfbfbf" stroke="black" points="0,-104 0,-123 158,-123 158,-104 0,-104"/>
<text text-anchor="middle" x="79" y="-111" font-family="Helvetica,sans-Serif" font-size="10.00">scram::mef::Component::Add</text>
</g>
<!-- Node2 -->
<g id="node2" class="node"><title>Node2</title>
<g id="a_node2"><a xlink:href="classscram_1_1mef_1_1Component.xhtml#a0850b39d32c65b07887787383168de63" target="_top" xlink:title="scram::mef::Component\l::ccf_groups">
<polygon fill="white" stroke="black" points="194,-147.5 194,-177.5 328,-177.5 328,-147.5 194,-147.5"/>
<text text-anchor="start" x="202" y="-165.5" font-family="Helvetica,sans-Serif" font-size="10.00">scram::mef::Component</text>
<text text-anchor="middle" x="261" y="-154.5" font-family="Helvetica,sans-Serif" font-size="10.00">::ccf_groups</text>
</a>
</g>
</g>
<!-- Node1&#45;&gt;Node2 -->
<g id="edge1" class="edge"><title>Node1&#45;&gt;Node2</title>
<path fill="none" stroke="midnightblue" d="M115.133,-123.064C137.822,-129.24 168.034,-137.465 194.996,-144.804"/>
<polygon fill="midnightblue" stroke="midnightblue" points="194.194,-148.213 204.762,-147.463 196.033,-141.459 194.194,-148.213"/>
</g>
<!-- Node3 -->
<g id="node3" class="node"><title>Node3</title>
<g id="a_node3"><a xlink:href="classscram_1_1mef_1_1CcfGroup.xhtml#a06dd05cabcbeddf42090536f6a47a184" target="_top" xlink:title="scram::mef::CcfGroup\l::members">
<polygon fill="white" stroke="black" points="200,-98.5 200,-128.5 322,-128.5 322,-98.5 200,-98.5"/>
<text text-anchor="start" x="208" y="-116.5" font-family="Helvetica,sans-Serif" font-size="10.00">scram::mef::CcfGroup</text>
<text text-anchor="middle" x="261" y="-105.5" font-family="Helvetica,sans-Serif" font-size="10.00">::members</text>
</a>
</g>
</g>
<!-- Node1&#45;&gt;Node3 -->
<g id="edge2" class="edge"><title>Node1&#45;&gt;Node3</title>
<path fill="none" stroke="midnightblue" d="M158.165,-113.5C168.625,-113.5 179.303,-113.5 189.618,-113.5"/>
<polygon fill="midnightblue" stroke="midnightblue" points="189.792,-117 199.792,-113.5 189.792,-110 189.792,-117"/>
</g>
<!-- Node12 -->
<g id="node12" class="node"><title>Node12</title>
<g id="a_node12"><a xlink:href="classscram_1_1mef_1_1Element.xhtml#adb401e2ca84aa98cb60797bec2500a81" target="_top" xlink:title="scram::mef::Element\l::name">
<polygon fill="white" stroke="black" points="551.5,-54.5 551.5,-84.5 668.5,-84.5 668.5,-54.5 551.5,-54.5"/>
<text text-anchor="start" x="559.5" y="-72.5" font-family="Helvetica,sans-Serif" font-size="10.00">scram::mef::Element</text>
<text text-anchor="middle" x="610" y="-61.5" font-family="Helvetica,sans-Serif" font-size="10.00">::name</text>
</a>
</g>
</g>
<!-- Node1&#45;&gt;Node12 -->
<g id="edge16" class="edge"><title>Node1&#45;&gt;Node12</title>
<path fill="none" stroke="midnightblue" d="M115.919,-103.979C138.226,-98.477 167.583,-91.9756 194,-88.5 315.549,-72.5081 458.648,-69.3763 541.091,-69.0772"/>
<polygon fill="midnightblue" stroke="midnightblue" points="541.338,-72.5768 551.33,-69.0536 541.322,-65.5768 541.338,-72.5768"/>
</g>
<!-- Node4 -->
<g id="node4" class="node"><title>Node4</title>
<g id="a_node4"><a xlink:href="classscram_1_1mef_1_1BasicEvent.xhtml#acfc0e73e1add67aa2ace841350eb62cd" target="_top" xlink:title="Validates the probability expressions for the primary event. ">
<polygon fill="white" stroke="black" points="364,-98.5 364,-128.5 494,-128.5 494,-98.5 364,-98.5"/>
<text text-anchor="start" x="372" y="-116.5" font-family="Helvetica,sans-Serif" font-size="10.00">scram::mef::BasicEvent</text>
<text text-anchor="middle" x="429" y="-105.5" font-family="Helvetica,sans-Serif" font-size="10.00">::Validate</text>
</a>
</g>
</g>
<!-- Node3&#45;&gt;Node4 -->
<g id="edge3" class="edge"><title>Node3&#45;&gt;Node4</title>
<path fill="none" stroke="midnightblue" d="M322.399,-113.5C332.481,-113.5 343.044,-113.5 353.429,-113.5"/>
<polygon fill="midnightblue" stroke="midnightblue" points="353.73,-117 363.73,-113.5 353.73,-110 353.73,-117"/>
</g>
<!-- Node5 -->
<g id="node5" class="node"><title>Node5</title>
<g id="a_node5"><a xlink:href="expression_8cc.xhtml#a287db91ea8f1c33cca483d75195bc2bc" target="_top" xlink:title="Ensures that expression can be used for probability ([0, 1]). ">
<polygon fill="white" stroke="black" points="530,-104 530,-123 690,-123 690,-104 530,-104"/>
<text text-anchor="middle" x="610" y="-111" font-family="Helvetica,sans-Serif" font-size="10.00">scram::mef::EnsureProbability</text>
</a>
</g>
</g>
<!-- Node4&#45;&gt;Node5 -->
<g id="edge4" class="edge"><title>Node4&#45;&gt;Node5</title>
<path fill="none" stroke="midnightblue" d="M494.118,-113.5C502.409,-113.5 511.018,-113.5 519.625,-113.5"/>
<polygon fill="midnightblue" stroke="midnightblue" points="519.709,-117 529.709,-113.5 519.709,-110 519.709,-117"/>
</g>
<!-- Node4&#45;&gt;Node12 -->
<g id="edge15" class="edge"><title>Node4&#45;&gt;Node12</title>
<path fill="none" stroke="midnightblue" d="M491.101,-98.4808C507.288,-94.5018 524.858,-90.1829 541.37,-86.1241"/>
<polygon fill="midnightblue" stroke="midnightblue" points="542.617,-89.4218 551.493,-83.6359 540.946,-82.6242 542.617,-89.4218"/>
</g>
<!-- Node5&#45;&gt;Node5 -->
<g id="edge5" class="edge"><title>Node5&#45;&gt;Node5</title>
<path fill="none" stroke="midnightblue" d="M582.257,-123.257C568.76,-132.065 578.008,-141.5 610,-141.5 631.995,-141.5 643.239,-137.041 643.733,-131.391"/>
<polygon fill="midnightblue" stroke="midnightblue" points="646.491,-129.234 637.743,-123.257 640.854,-133.385 646.491,-129.234"/>
</g>
<!-- Node6 -->
<g id="node6" class="node"><title>Node6</title>
<g id="a_node6"><a xlink:href="classscram_1_1mef_1_1Expression.xhtml#a179b21e75df522673e6d51b784d10e86" target="_top" xlink:title="scram::mef::Expression\l::interval">
<polygon fill="white" stroke="black" points="728.5,-98.5 728.5,-128.5 857.5,-128.5 857.5,-98.5 728.5,-98.5"/>
<text text-anchor="start" x="736.5" y="-116.5" font-family="Helvetica,sans-Serif" font-size="10.00">scram::mef::Expression</text>
<text text-anchor="middle" x="793" y="-105.5" font-family="Helvetica,sans-Serif" font-size="10.00">::interval</text>
</a>
</g>
</g>
<!-- Node5&#45;&gt;Node6 -->
<g id="edge6" class="edge"><title>Node5&#45;&gt;Node6</title>
<path fill="none" stroke="midnightblue" d="M690.126,-113.5C699.387,-113.5 708.81,-113.5 717.998,-113.5"/>
<polygon fill="midnightblue" stroke="midnightblue" points="718.251,-117 728.251,-113.5 718.251,-110 718.251,-117"/>
</g>
<!-- Node7 -->
<g id="node7" class="node"><title>Node7</title>
<g id="a_node7"><a xlink:href="classscram_1_1mef_1_1Expression.xhtml#af4c1a5cb29e8f45623a99742b7ba8bc5" target="_top" xlink:title="scram::mef::Expression\l::value">
<polygon fill="white" stroke="black" points="896,-165.5 896,-195.5 1025,-195.5 1025,-165.5 896,-165.5"/>
<text text-anchor="start" x="904" y="-183.5" font-family="Helvetica,sans-Serif" font-size="10.00">scram::mef::Expression</text>
<text text-anchor="middle" x="960.5" y="-172.5" font-family="Helvetica,sans-Serif" font-size="10.00">::value</text>
</a>
</g>
</g>
<!-- Node5&#45;&gt;Node7 -->
<g id="edge14" class="edge"><title>Node5&#45;&gt;Node7</title>
<path fill="none" stroke="midnightblue" d="M655.458,-123.034C676.774,-127.539 702.685,-132.921 726,-137.5 779.509,-148.009 840.07,-159.14 886.106,-167.443"/>
<polygon fill="midnightblue" stroke="midnightblue" points="885.535,-170.896 895.997,-169.224 886.775,-164.007 885.535,-170.896"/>
</g>
<!-- Node11 -->
<g id="node11" class="node"><title>Node11</title>
<g id="a_node11"><a xlink:href="expression_8h.xhtml#a7b3a2de3be05128d51eaa76c01de99f6" target="_top" xlink:title="Checks if a given interval is within the probability domain. ">
<polygon fill="white" stroke="black" points="726,-42 726,-61 860,-61 860,-42 726,-42"/>
<text text-anchor="middle" x="793" y="-49" font-family="Helvetica,sans-Serif" font-size="10.00">scram::mef::IsProbability</text>
</a>
</g>
</g>
<!-- Node5&#45;&gt;Node11 -->
<g id="edge12" class="edge"><title>Node5&#45;&gt;Node11</title>
<path fill="none" stroke="midnightblue" d="M653.55,-103.911C665.446,-100.911 678.313,-97.3635 690,-93.5 714.689,-85.338 741.883,-74.0188 761.979,-65.1876"/>
<polygon fill="midnightblue" stroke="midnightblue" points="763.514,-68.3355 771.232,-61.0769 760.672,-61.9383 763.514,-68.3355"/>
</g>
<!-- Node6&#45;&gt;Node7 -->
<g id="edge7" class="edge"><title>Node6&#45;&gt;Node7</title>
<path fill="none" stroke="midnightblue" d="M830.294,-128.605C849.749,-136.661 874.15,-146.701 896,-155.5 901.014,-157.519 906.258,-159.613 911.491,-161.69"/>
<polygon fill="midnightblue" stroke="midnightblue" points="910.258,-164.967 920.845,-165.392 912.834,-158.458 910.258,-164.967"/>
</g>
<!-- Node8 -->
<g id="node8" class="node"><title>Node8</title>
<g id="a_node8"><a xlink:href="classscram_1_1mef_1_1Expression.xhtml#a058aef65da884a47ea3345bc31488b7a" target="_top" xlink:title="Determines if the value of the expression contains deviate expressions. ">
<polygon fill="white" stroke="black" points="896,-98.5 896,-128.5 1025,-128.5 1025,-98.5 896,-98.5"/>
<text text-anchor="start" x="904" y="-116.5" font-family="Helvetica,sans-Serif" font-size="10.00">scram::mef::Expression</text>
<text text-anchor="middle" x="960.5" y="-105.5" font-family="Helvetica,sans-Serif" font-size="10.00">::IsDeviate</text>
</a>
</g>
</g>
<!-- Node6&#45;&gt;Node8 -->
<g id="edge8" class="edge"><title>Node6&#45;&gt;Node8</title>
<path fill="none" stroke="midnightblue" d="M857.513,-113.5C866.751,-113.5 876.328,-113.5 885.747,-113.5"/>
<polygon fill="midnightblue" stroke="midnightblue" points="885.883,-117 895.883,-113.5 885.883,-110 885.883,-117"/>
</g>
<!-- Node9 -->
<g id="node9" class="node"><title>Node9</title>
<g id="a_node9"><a xlink:href="classscram_1_1mef_1_1Expression.xhtml#a5cf00d8b2ff843ad029a501a89ee572a" target="_top" xlink:title="scram::mef::Expression\l::Sample">
<polygon fill="white" stroke="black" points="896,-49.5 896,-79.5 1025,-79.5 1025,-49.5 896,-49.5"/>
<text text-anchor="start" x="904" y="-67.5" font-family="Helvetica,sans-Serif" font-size="10.00">scram::mef::Expression</text>
<text text-anchor="middle" x="960.5" y="-56.5" font-family="Helvetica,sans-Serif" font-size="10.00">::Sample</text>
</a>
</g>
</g>
<!-- Node6&#45;&gt;Node9 -->
<g id="edge10" class="edge"><title>Node6&#45;&gt;Node9</title>
<path fill="none" stroke="midnightblue" d="M845.006,-98.3986C862.075,-93.3449 881.268,-87.6624 898.991,-82.4152"/>
<polygon fill="midnightblue" stroke="midnightblue" points="900.068,-85.7466 908.663,-79.5516 898.08,-79.0346 900.068,-85.7466"/>
</g>
<!-- Node10 -->
<g id="node10" class="node"><title>Node10</title>
<g id="a_node10"><a xlink:href="classscram_1_1mef_1_1Expression.xhtml#ab6d31c4ddb5d4a827727829cbd4e4449" target="_top" xlink:title="This routine resets the sampling to get new values. ">
<polygon fill="white" stroke="black" points="896,-0.5 896,-30.5 1025,-30.5 1025,-0.5 896,-0.5"/>
<text text-anchor="start" x="904" y="-18.5" font-family="Helvetica,sans-Serif" font-size="10.00">scram::mef::Expression</text>
<text text-anchor="middle" x="960.5" y="-7.5" font-family="Helvetica,sans-Serif" font-size="10.00">::Reset</text>
</a>
</g>
</g>
<!-- Node6&#45;&gt;Node10 -->
<g id="edge11" class="edge"><title>Node6&#45;&gt;Node10</title>
<path fill="none" stroke="midnightblue" d="M843.613,-98.3529C849.411,-95.546 855.024,-92.2799 860,-88.5 881.519,-72.1538 874.475,-55.8384 896,-39.5 897.831,-38.1105 899.751,-36.7935 901.736,-35.5459"/>
<polygon fill="midnightblue" stroke="midnightblue" points="903.747,-38.4322 910.784,-30.5115 900.344,-32.3153 903.747,-38.4322"/>
</g>
<!-- Node8&#45;&gt;Node8 -->
<g id="edge9" class="edge"><title>Node8&#45;&gt;Node8</title>
<path fill="none" stroke="midnightblue" d="M931.571,-128.659C924.595,-138.057 934.238,-147 960.5,-147 976.503,-147 986.335,-143.679 989.996,-138.958"/>
<polygon fill="midnightblue" stroke="midnightblue" points="993.474,-138.451 989.429,-128.659 986.484,-138.836 993.474,-138.451"/>
</g>
<!-- Node11&#45;&gt;Node11 -->
<g id="edge13" class="edge"><title>Node11&#45;&gt;Node11</title>
<path fill="none" stroke="midnightblue" d="M767.415,-61.2571C754.968,-70.0653 763.496,-79.5 793,-79.5 812.823,-79.5 823.177,-75.241 824.063,-69.7746"/>
<polygon fill="midnightblue" stroke="midnightblue" points="826.938,-67.7749 818.585,-61.2571 821.051,-71.5611 826.938,-67.7749"/>
</g>
</g>
</svg>
        <g id="navigator" transform="translate(0 0)" fill="#404254">
                <rect fill="#f2f5e9" fill-opacity="0.5" stroke="#606060" stroke-width=".5" x="0" y="0" width="60" height="60"/>
                <use id="zoomplus" xlink:href="#zoomPlus" x="17" y="9" onmousedown="handleZoom(evt,'in')"/>
                <use id="zoomminus" xlink:href="#zoomMin" x="42" y="9" onmousedown="handleZoom(evt,'out')"/>
                <use id="reset" xlink:href="#resetDef" x="30" y="36" onmousedown="handleReset()"/>
                <g id="arrowUp" xlink:href="#dirArrow" transform="translate(30 24)" onmousedown="handlePan(0,-1)">
                  <use xlink:href="#rim" fill="#404040">
                        <set attributeName="fill" to="#808080" begin="arrowUp.mouseover" end="arrowUp.mouseout"/>
                  </use>
                  <path fill="none" stroke="white" stroke-width="1.5" d="M0,-3.0v7 M-2.5,-0.5L0,-3.0L2.5,-0.5"/>
                </g>
                <g id="arrowRight" xlink:href="#dirArrow" transform="rotate(90) translate(36 -43)" onmousedown="handlePan(1,0)">
                  <use xlink:href="#rim" fill="#404040">
                        <set attributeName="fill" to="#808080" begin="arrowRight.mouseover" end="arrowRight.mouseout"/>
                  </use>
                  <path fill="none" stroke="white" stroke-width="1.5" d="M0,-3.0v7 M-2.5,-0.5L0,-3.0L2.5,-0.5"/>
                </g>
                <g id="arrowDown" xlink:href="#dirArrow" transform="rotate(180) translate(-30 -48)" onmousedown="handlePan(0,1)">
                  <use xlink:href="#rim" fill="#404040">
                        <set attributeName="fill" to="#808080" begin="arrowDown.mouseover" end="arrowDown.mouseout"/>
                  </use>
                  <path fill="none" stroke="white" stroke-width="1.5" d="M0,-3.0v7 M-2.5,-0.5L0,-3.0L2.5,-0.5"/>
                </g>
                <g id="arrowLeft" xlink:href="#dirArrow" transform="rotate(270) translate(-36 17)" onmousedown="handlePan(-1,0)">
                  <use xlink:href="#rim" fill="#404040">
                        <set attributeName="fill" to="#808080" begin="arrowLeft.mouseover" end="arrowLeft.mouseout"/>
                  </use>
                  <path fill="none" stroke="white" stroke-width="1.5" d="M0,-3.0v7 M-2.5,-0.5L0,-3.0L2.5,-0.5"/>
                </g>
        </g>
        <svg viewBox="0 0 15 15" width="100%" height="30px" preserveAspectRatio="xMaxYMin meet">
         <g id="arrow_out" transform="scale(0.3 0.3)">
          <a xlink:href="classscram_1_1mef_1_1Component_a4fd4a9b195b92c8061149da20f5bd3f0_cgraph_org.svg" target="_base">
           <rect id="button" ry="5" rx="5" y="6" x="6" height="38" width="38"
                fill="#f2f5e9" fill-opacity="0.5" stroke="#606060" stroke-width="1.0"/>
           <path id="arrow"
             d="M 11.500037,31.436501 C 11.940474,20.09759 22.043105,11.32322 32.158766,21.979434 L 37.068811,17.246167 C 37.068811,17.246167 37.088388,32 37.088388,32 L 22.160133,31.978069 C 22.160133,31.978069 26.997745,27.140456 26.997745,27.140456 C 18.528582,18.264221 13.291696,25.230495 11.500037,31.436501 z"
             style="fill:#404040;"/>
          </a>
         </g>
        </svg>
</svg>
