<?xml version="1.0" encoding="UTF-8" standalone="no"?>
<!DOCTYPE svg PUBLIC "-//W3C//DTD SVG 1.1//EN"
 "http://www.w3.org/Graphics/SVG/1.1/DTD/svg11.dtd">
<!-- Generated by graphviz version 2.38.0 (20140413.2041)
 -->
<!-- Title: scram::mef::EventTree Pages: 1 -->
<svg width="742pt" height="713pt"
 viewBox="0.00 0.00 742.00 713.00" xmlns="http://www.w3.org/2000/svg" xmlns:xlink="http://www.w3.org/1999/xlink">
<g id="graph0" class="graph" transform="scale(1 1) rotate(0) translate(4 709)">
<title>scram::mef::EventTree</title>
<polygon fill="white" stroke="none" points="-4,4 -4,-709 738,-709 738,4 -4,4"/>
<!-- Node1 -->
<g id="node1" class="node"><title>Node1</title>
<polygon fill="#bfbfbf" stroke="black" points="220,-0.5 220,-145.5 344,-145.5 344,-0.5 220,-0.5"/>
<text text-anchor="middle" x="282" y="-133.5" font-family="Helvetica,sans-Serif" font-size="10.00">scram::mef::EventTree</text>
<polyline fill="none" stroke="black" points="220,-126.5 344,-126.5 "/>
<text text-anchor="start" x="228" y="-114.5" font-family="Helvetica,sans-Serif" font-size="10.00">+ kTypeString</text>
<polyline fill="none" stroke="black" points="220,-107.5 344,-107.5 "/>
<text text-anchor="start" x="228" y="-95.5" font-family="Helvetica,sans-Serif" font-size="10.00">+ initial_state()</text>
<text text-anchor="start" x="228" y="-84.5" font-family="Helvetica,sans-Serif" font-size="10.00">+ initial_state()</text>
<text text-anchor="start" x="228" y="-73.5" font-family="Helvetica,sans-Serif" font-size="10.00">+ Add()</text>
<text text-anchor="start" x="228" y="-62.5" font-family="Helvetica,sans-Serif" font-size="10.00">+ sequances()</text>
<text text-anchor="start" x="228" y="-51.5" font-family="Helvetica,sans-Serif" font-size="10.00">+ functional_events()</text>
<text text-anchor="start" x="228" y="-40.5" font-family="Helvetica,sans-Serif" font-size="10.00">+ branches()</text>
<text text-anchor="start" x="228" y="-29.5" font-family="Helvetica,sans-Serif" font-size="10.00">* sequances()</text>
<text text-anchor="start" x="228" y="-18.5" font-family="Helvetica,sans-Serif" font-size="10.00">* functional_events()</text>
<text text-anchor="start" x="228" y="-7.5" font-family="Helvetica,sans-Serif" font-size="10.00">* branches()</text>
</g>
<!-- Node2 -->
<g id="node2" class="node"><title>Node2</title>
<g id="a_node2"><a xlink:href="classscram_1_1mef_1_1Element.xhtml" target="_top" xlink:title="The MEF Element with attributes and a label. ">
<polygon fill="white" stroke="black" points="92.5,-189 92.5,-367 209.5,-367 209.5,-189 92.5,-189"/>
<text text-anchor="middle" x="151" y="-355" font-family="Helvetica,sans-Serif" font-size="10.00">scram::mef::Element</text>
<polyline fill="none" stroke="black" points="92.5,-348 209.5,-348 "/>
<text text-anchor="middle" x="151" y="-336" font-family="Helvetica,sans-Serif" font-size="10.00"> </text>
<polyline fill="none" stroke="black" points="92.5,-329 209.5,-329 "/>
<text text-anchor="start" x="100.5" y="-317" font-family="Helvetica,sans-Serif" font-size="10.00">+ Element()</text>
<text text-anchor="start" x="100.5" y="-306" font-family="Helvetica,sans-Serif" font-size="10.00">+ name()</text>
<text text-anchor="start" x="100.5" y="-295" font-family="Helvetica,sans-Serif" font-size="10.00">+ name_view()</text>
<text text-anchor="start" x="100.5" y="-284" font-family="Helvetica,sans-Serif" font-size="10.00">+ label()</text>
<text text-anchor="start" x="100.5" y="-273" font-family="Helvetica,sans-Serif" font-size="10.00">+ label()</text>
<text text-anchor="start" x="100.5" y="-262" font-family="Helvetica,sans-Serif" font-size="10.00">+ attributes()</text>
<text text-anchor="start" x="100.5" y="-251" font-family="Helvetica,sans-Serif" font-size="10.00">+ AddAttribute()</text>
<text text-anchor="start" x="100.5" y="-240" font-family="Helvetica,sans-Serif" font-size="10.00">+ SetAttribute()</text>
<text text-anchor="start" x="100.5" y="-229" font-family="Helvetica,sans-Serif" font-size="10.00">+ GetAttribute()</text>
<text text-anchor="start" x="100.5" y="-218" font-family="Helvetica,sans-Serif" font-size="10.00">+ RemoveAttribute()</text>
<text text-anchor="start" x="100.5" y="-207" font-family="Helvetica,sans-Serif" font-size="10.00"># ~Element()</text>
<text text-anchor="start" x="100.5" y="-196" font-family="Helvetica,sans-Serif" font-size="10.00"># name()</text>
</a>
</g>
</g>
<!-- Node2&#45;&gt;Node1 -->
<g id="edge1" class="edge"><title>Node2&#45;&gt;Node1</title>
<path fill="none" stroke="midnightblue" d="M213.37,-180.35C220.922,-168.648 228.529,-156.859 235.789,-145.609"/>
<polygon fill="none" stroke="midnightblue" points="210.368,-178.547 207.887,-188.847 216.25,-182.342 210.368,-178.547"/>
</g>
<!-- Node3 -->
<g id="node3" class="node"><title>Node3</title>
<g id="a_node3"><a xlink:href="classscram_1_1mef_1_1ContainerElement.xhtml" target="_top" xlink:title="Elements in MEF containers. ">
<polygon fill="white" stroke="black" points="0,-503 0,-560 164,-560 164,-503 0,-503"/>
<text text-anchor="middle" x="82" y="-548" font-family="Helvetica,sans-Serif" font-size="10.00">scram::mef::ContainerElement</text>
<polyline fill="none" stroke="black" points="0,-541 164,-541 "/>
<text text-anchor="middle" x="82" y="-529" font-family="Helvetica,sans-Serif" font-size="10.00"> </text>
<polyline fill="none" stroke="black" points="0,-522 164,-522 "/>
<text text-anchor="start" x="8" y="-510" font-family="Helvetica,sans-Serif" font-size="10.00"># container()</text>
</a>
</g>
</g>
<!-- Node3&#45;&gt;Node2 -->
<g id="edge2" class="edge"><title>Node3&#45;&gt;Node2</title>
<path fill="none" stroke="midnightblue" d="M92.318,-492.892C101.411,-459.749 115.012,-410.175 126.83,-367.096"/>
<polygon fill="none" stroke="midnightblue" points="88.9184,-492.054 89.6478,-502.624 95.669,-493.907 88.9184,-492.054"/>
</g>
<!-- Node4 -->
<g id="node4" class="node"><title>Node4</title>
<polygon fill="white" stroke="#bfbfbf" points="182.5,-503 182.5,-560 259.5,-560 259.5,-503 182.5,-503"/>
<text text-anchor="middle" x="221" y="-548" font-family="Helvetica,sans-Serif" font-size="10.00">noncopyable</text>
<polyline fill="none" stroke="#bfbfbf" points="182.5,-541 259.5,-541 "/>
<text text-anchor="middle" x="221" y="-529" font-family="Helvetica,sans-Serif" font-size="10.00"> </text>
<polyline fill="none" stroke="#bfbfbf" points="182.5,-522 259.5,-522 "/>
<text text-anchor="middle" x="221" y="-510" font-family="Helvetica,sans-Serif" font-size="10.00"> </text>
</g>
<!-- Node4&#45;&gt;Node2 -->
<g id="edge3" class="edge"><title>Node4&#45;&gt;Node2</title>
<path fill="none" stroke="#8b1a1a" d="M210.532,-492.892C201.308,-459.749 187.51,-410.175 175.52,-367.096"/>
<polygon fill="none" stroke="#8b1a1a" points="207.188,-493.929 213.241,-502.624 213.932,-492.052 207.188,-493.929"/>
</g>
<!-- Node5 -->
<g id="node5" class="node"><title>Node5</title>
<g id="a_node5"><a xlink:href="classscram_1_1mef_1_1Usage.xhtml" target="_top" xlink:title="Mixin class for providing usage marks for elements. ">
<polygon fill="white" stroke="black" points="228,-238.5 228,-317.5 336,-317.5 336,-238.5 228,-238.5"/>
<text text-anchor="middle" x="282" y="-305.5" font-family="Helvetica,sans-Serif" font-size="10.00">scram::mef::Usage</text>
<polyline fill="none" stroke="black" points="228,-298.5 336,-298.5 "/>
<text text-anchor="middle" x="282" y="-286.5" font-family="Helvetica,sans-Serif" font-size="10.00"> </text>
<polyline fill="none" stroke="black" points="228,-279.5 336,-279.5 "/>
<text text-anchor="start" x="236" y="-267.5" font-family="Helvetica,sans-Serif" font-size="10.00">+ usage()</text>
<text text-anchor="start" x="236" y="-256.5" font-family="Helvetica,sans-Serif" font-size="10.00">+ usage()</text>
<text text-anchor="start" x="236" y="-245.5" font-family="Helvetica,sans-Serif" font-size="10.00"># ~Usage()</text>
</a>
</g>
</g>
<!-- Node5&#45;&gt;Node1 -->
<g id="edge4" class="edge"><title>Node5&#45;&gt;Node1</title>
<path fill="none" stroke="midnightblue" d="M282,-228.144C282,-203.475 282,-173.069 282,-145.799"/>
<polygon fill="none" stroke="midnightblue" points="278.5,-228.339 282,-238.339 285.5,-228.339 278.5,-228.339"/>
</g>
<!-- Node6 -->
<g id="node6" class="node"><title>Node6</title>
<g id="a_node6"><a xlink:href="classscram_1_1mef_1_1Composite.xhtml" target="_top" xlink:title="{scram::mef::Composite\l\&lt; Container\&lt; EventTree,\l Sequence, false \&gt;, Container\l\&lt; EventTree, FunctionalEvent\l \&gt;, Container\&lt; EventTree, NamedBranch \&gt; \&gt;\n||+ table()\l+ table()\l+ Get()\l+ Get()\l# data()\l* table()\l* table()\l* Get()\l* Get()\l}">
<polygon fill="white" stroke="black" points="354,-183.5 354,-372.5 590,-372.5 590,-183.5 354,-183.5"/>
<text text-anchor="start" x="362" y="-360.5" font-family="Helvetica,sans-Serif" font-size="10.00">scram::mef::Composite</text>
<text text-anchor="start" x="362" y="-349.5" font-family="Helvetica,sans-Serif" font-size="10.00">&lt; Container&lt; EventTree,</text>
<text text-anchor="start" x="362" y="-338.5" font-family="Helvetica,sans-Serif" font-size="10.00"> Sequence, false &gt;, Container</text>
<text text-anchor="start" x="362" y="-327.5" font-family="Helvetica,sans-Serif" font-size="10.00">&lt; EventTree, FunctionalEvent</text>
<text text-anchor="middle" x="472" y="-316.5" font-family="Helvetica,sans-Serif" font-size="10.00"> &gt;, Container&lt; EventTree, NamedBranch &gt; &gt;</text>
<polyline fill="none" stroke="black" points="354,-309.5 590,-309.5 "/>
<text text-anchor="middle" x="472" y="-297.5" font-family="Helvetica,sans-Serif" font-size="10.00"> </text>
<polyline fill="none" stroke="black" points="354,-290.5 590,-290.5 "/>
<text text-anchor="start" x="362" y="-278.5" font-family="Helvetica,sans-Serif" font-size="10.00">+ table()</text>
<text text-anchor="start" x="362" y="-267.5" font-family="Helvetica,sans-Serif" font-size="10.00">+ table()</text>
<text text-anchor="start" x="362" y="-256.5" font-family="Helvetica,sans-Serif" font-size="10.00">+ Get()</text>
<text text-anchor="start" x="362" y="-245.5" font-family="Helvetica,sans-Serif" font-size="10.00">+ Get()</text>
<text text-anchor="start" x="362" y="-234.5" font-family="Helvetica,sans-Serif" font-size="10.00"># data()</text>
<text text-anchor="start" x="362" y="-223.5" font-family="Helvetica,sans-Serif" font-size="10.00">* table()</text>
<text text-anchor="start" x="362" y="-212.5" font-family="Helvetica,sans-Serif" font-size="10.00">* table()</text>
<text text-anchor="start" x="362" y="-201.5" font-family="Helvetica,sans-Serif" font-size="10.00">* Get()</text>
<text text-anchor="start" x="362" y="-190.5" font-family="Helvetica,sans-Serif" font-size="10.00">* Get()</text>
</a>
</g>
</g>
<!-- Node6&#45;&gt;Node1 -->
<g id="edge5" class="edge"><title>Node6&#45;&gt;Node1</title>
<path fill="none" stroke="midnightblue" d="M377.249,-175.766C366.028,-163.777 354.802,-151.783 344.198,-140.453"/>
<polygon fill="none" stroke="midnightblue" points="374.841,-178.316 384.23,-183.225 379.952,-173.532 374.841,-178.316"/>
</g>
<!-- Node7 -->
<g id="node7" class="node"><title>Node7</title>
<polygon fill="white" stroke="#bfbfbf" points="462.5,-647.5 462.5,-704.5 491.5,-704.5 491.5,-647.5 462.5,-647.5"/>
<text text-anchor="middle" x="477" y="-692.5" font-family="Helvetica,sans-Serif" font-size="10.00">Ts</text>
<polyline fill="none" stroke="#bfbfbf" points="462.5,-685.5 491.5,-685.5 "/>
<text text-anchor="middle" x="477" y="-673.5" font-family="Helvetica,sans-Serif" font-size="10.00"> </text>
<polyline fill="none" stroke="#bfbfbf" points="462.5,-666.5 491.5,-666.5 "/>
<text text-anchor="middle" x="477" y="-654.5" font-family="Helvetica,sans-Serif" font-size="10.00"> </text>
</g>
<!-- Node7&#45;&gt;Node6 -->
<g id="edge6" class="edge"><title>Node7&#45;&gt;Node6</title>
<path fill="none" stroke="midnightblue" d="M470.185,-637.176C468.861,-628.291 467.676,-618.837 467,-610 460.887,-530.06 462.921,-438.955 466.038,-372.591"/>
<polygon fill="none" stroke="midnightblue" points="466.763,-637.942 471.78,-647.273 473.677,-636.849 466.763,-637.942"/>
</g>
<!-- Node8 -->
<g id="node8" class="node"><title>Node8</title>
<g id="a_node8"><a xlink:href="classscram_1_1mef_1_1Composite.xhtml" target="_top" xlink:title="The composition of multiple mef::Containers. ">
<polygon fill="white" stroke="black" points="476.5,-453.5 476.5,-609.5 605.5,-609.5 605.5,-453.5 476.5,-453.5"/>
<text text-anchor="start" x="484.5" y="-597.5" font-family="Helvetica,sans-Serif" font-size="10.00">scram::mef::Composite</text>
<text text-anchor="middle" x="541" y="-586.5" font-family="Helvetica,sans-Serif" font-size="10.00">&lt; Ts &gt;</text>
<polyline fill="none" stroke="black" points="476.5,-579.5 605.5,-579.5 "/>
<text text-anchor="middle" x="541" y="-567.5" font-family="Helvetica,sans-Serif" font-size="10.00"> </text>
<polyline fill="none" stroke="black" points="476.5,-560.5 605.5,-560.5 "/>
<text text-anchor="start" x="484.5" y="-548.5" font-family="Helvetica,sans-Serif" font-size="10.00">+ table()</text>
<text text-anchor="start" x="484.5" y="-537.5" font-family="Helvetica,sans-Serif" font-size="10.00">+ table()</text>
<text text-anchor="start" x="484.5" y="-526.5" font-family="Helvetica,sans-Serif" font-size="10.00">+ Get()</text>
<text text-anchor="start" x="484.5" y="-515.5" font-family="Helvetica,sans-Serif" font-size="10.00">+ Get()</text>
<text text-anchor="start" x="484.5" y="-504.5" font-family="Helvetica,sans-Serif" font-size="10.00"># data()</text>
<text text-anchor="start" x="484.5" y="-493.5" font-family="Helvetica,sans-Serif" font-size="10.00">* table()</text>
<text text-anchor="start" x="484.5" y="-482.5" font-family="Helvetica,sans-Serif" font-size="10.00">* table()</text>
<text text-anchor="start" x="484.5" y="-471.5" font-family="Helvetica,sans-Serif" font-size="10.00">* Get()</text>
<text text-anchor="start" x="484.5" y="-460.5" font-family="Helvetica,sans-Serif" font-size="10.00">* Get()</text>
</a>
</g>
</g>
<!-- Node7&#45;&gt;Node8 -->
<g id="edge8" class="edge"><title>Node7&#45;&gt;Node8</title>
<path fill="none" stroke="midnightblue" d="M493.599,-638.042C497.547,-629.25 501.906,-619.544 506.334,-609.686"/>
<polygon fill="none" stroke="midnightblue" points="490.396,-636.63 489.492,-647.186 496.782,-639.498 490.396,-636.63"/>
</g>
<!-- Node8&#45;&gt;Node6 -->
<g id="edge7" class="edge"><title>Node8&#45;&gt;Node6</title>
<path fill="none" stroke="orange" d="M517.177,-443.666C510.908,-420.816 504.117,-396.063 497.751,-372.862"/>
<polygon fill="orange" stroke="orange" points="513.808,-444.615 519.829,-453.333 520.558,-442.763 513.808,-444.615"/>
<text text-anchor="start" x="514" y="-427" font-family="Helvetica,sans-Serif" font-size="10.00"> &lt; Container&lt; EventTree,</text>
<text text-anchor="start" x="514" y="-416" font-family="Helvetica,sans-Serif" font-size="10.00"> Sequence, false &gt;, Container</text>
<text text-anchor="start" x="514" y="-405" font-family="Helvetica,sans-Serif" font-size="10.00">&lt; EventTree, FunctionalEvent</text>
<text text-anchor="middle" x="624" y="-394" font-family="Helvetica,sans-Serif" font-size="10.00"> &gt;, Container&lt; EventTree, NamedBranch &gt; &gt;</text>
</g>
</g>
</svg>
