<?xml version="1.0" encoding="UTF-8" standalone="no"?>
<!DOCTYPE svg PUBLIC "-//W3C//DTD SVG 1.1//EN"
 "http://www.w3.org/Graphics/SVG/1.1/DTD/svg11.dtd">
<!-- Generated by graphviz version 2.38.0 (20140413.2041)
 -->
<!-- Title: scram::core::Pdag::IsTrivial Pages: 1 -->
<svg width="277pt" height="145pt"
 viewBox="0.00 0.00 277.00 145.00" xmlns="http://www.w3.org/2000/svg" xmlns:xlink="http://www.w3.org/1999/xlink">
<g id="graph0" class="graph" transform="scale(1 1) rotate(0) translate(4 141)">
<title>scram::core::Pdag::IsTrivial</title>
<polygon fill="white" stroke="none" points="-4,4 -4,-141 273,-141 273,4 -4,4"/>
<!-- Node1 -->
<g id="node1" class="node"><title>Node1</title>
<polygon fill="#bfbfbf" stroke="black" points="0,-62.5 0,-92.5 110,-92.5 110,-62.5 0,-62.5"/>
<text text-anchor="start" x="8" y="-80.5" font-family="Helvetica,sans-Serif" font-size="10.00">scram::core::Pdag::</text>
<text text-anchor="middle" x="55" y="-69.5" font-family="Helvetica,sans-Serif" font-size="10.00">IsTrivial</text>
</g>
<!-- Node2 -->
<g id="node2" class="node"><title>Node2</title>
<g id="a_node2"><a xlink:href="classscram_1_1core_1_1Mocus.xhtml#a951c8e2f7667d884d4dbda3206dc15e0" target="_top" xlink:title="Finds minimal cut sets from the PDAG. ">
<polygon fill="white" stroke="black" points="152.5,-106.5 152.5,-136.5 262.5,-136.5 262.5,-106.5 152.5,-106.5"/>
<text text-anchor="start" x="160.5" y="-124.5" font-family="Helvetica,sans-Serif" font-size="10.00">scram::core::Mocus</text>
<text text-anchor="middle" x="207.5" y="-113.5" font-family="Helvetica,sans-Serif" font-size="10.00">::Analyze</text>
</a>
</g>
</g>
<!-- Node1&#45;&gt;Node2 -->
<g id="edge1" class="edge"><title>Node1&#45;&gt;Node2</title>
<path fill="none" stroke="midnightblue" d="M117.297,-95.4207C129.85,-99.0908 142.941,-102.918 155.104,-106.474"/>
<polygon fill="midnightblue" stroke="midnightblue" points="117.953,-91.9661 107.373,-92.5192 115.989,-98.6848 117.953,-91.9661"/>
</g>
<!-- Node3 -->
<g id="node3" class="node"><title>Node3</title>
<g id="a_node3"><a xlink:href="classscram_1_1core_1_1Bdd.xhtml#ab7af95900c1ab921446e2e67177a315c" target="_top" xlink:title="Constructor with the analysis target. ">
<polygon fill="white" stroke="black" points="146,-68 146,-87 269,-87 269,-68 146,-68"/>
<text text-anchor="middle" x="207.5" y="-75" font-family="Helvetica,sans-Serif" font-size="10.00">scram::core::Bdd::Bdd</text>
</a>
</g>
</g>
<!-- Node1&#45;&gt;Node3 -->
<g id="edge2" class="edge"><title>Node1&#45;&gt;Node3</title>
<path fill="none" stroke="midnightblue" d="M120.486,-77.5C128.908,-77.5 137.513,-77.5 145.869,-77.5"/>
<polygon fill="midnightblue" stroke="midnightblue" points="120.334,-74.0001 110.334,-77.5 120.334,-81.0001 120.334,-74.0001"/>
</g>
<!-- Node4 -->
<g id="node4" class="node"><title>Node4</title>
<g id="a_node4"><a xlink:href="preprocessor_8h.xhtml#a8cdd19f131c45f2cd42b98827b71106b" target="_top" xlink:title="Applies graph transformations consecutively. ">
<polygon fill="white" stroke="black" points="152.5,-0.5 152.5,-30.5 262.5,-30.5 262.5,-0.5 152.5,-0.5"/>
<text text-anchor="start" x="160.5" y="-18.5" font-family="Helvetica,sans-Serif" font-size="10.00">scram::core::pdag::</text>
<text text-anchor="middle" x="207.5" y="-7.5" font-family="Helvetica,sans-Serif" font-size="10.00">Transform</text>
</a>
</g>
</g>
<!-- Node1&#45;&gt;Node4 -->
<g id="edge3" class="edge"><title>Node1&#45;&gt;Node4</title>
<path fill="none" stroke="midnightblue" d="M101.832,-58.6191C123.652,-49.6299 149.39,-39.0272 169.882,-30.5851"/>
<polygon fill="midnightblue" stroke="midnightblue" points="100.345,-55.4463 92.4319,-62.4915 103.011,-61.9186 100.345,-55.4463"/>
</g>
<!-- Node4&#45;&gt;Node4 -->
<g id="edge4" class="edge"><title>Node4&#45;&gt;Node4</title>
<path fill="none" stroke="midnightblue" d="M180.491,-40.9579C183.844,-45.679 192.846,-49 207.5,-49 231.547,-49 240.377,-40.0566 233.989,-30.659"/>
<polygon fill="midnightblue" stroke="midnightblue" points="184.003,-40.8226 181.011,-30.659 177.012,-40.47 184.003,-40.8226"/>
</g>
</g>
</svg>
