<?xml version="1.0" encoding="UTF-8" standalone="no"?>
<!DOCTYPE svg PUBLIC "-//W3C//DTD SVG 1.1//EN"
 "http://www.w3.org/Graphics/SVG/1.1/DTD/svg11.dtd">
<!-- Generated by graphviz version 2.38.0 (20140413.2041)
 -->
<!-- Title: scram::core::zbdd::CutSetContainer::EliminateComplements Pages: 1 -->
<svg width="821pt" height="565pt"
 viewBox="0.00 0.00 821.00 565.00" xmlns="http://www.w3.org/2000/svg" xmlns:xlink="http://www.w3.org/1999/xlink">
<g id="graph0" class="graph" transform="scale(1 1) rotate(0) translate(4 561)">
<title>scram::core::zbdd::CutSetContainer::EliminateComplements</title>
<polygon fill="white" stroke="none" points="-4,4 -4,-561 817,-561 817,4 -4,4"/>
<!-- Node1 -->
<g id="node1" class="node"><title>Node1</title>
<polygon fill="#bfbfbf" stroke="black" points="0,-417 0,-458 146,-458 146,-417 0,-417"/>
<text text-anchor="start" x="8" y="-446" font-family="Helvetica,sans-Serif" font-size="10.00">scram::core::zbdd::</text>
<text text-anchor="start" x="8" y="-435" font-family="Helvetica,sans-Serif" font-size="10.00">CutSetContainer::Eliminate</text>
<text text-anchor="middle" x="73" y="-424" font-family="Helvetica,sans-Serif" font-size="10.00">Complements</text>
</g>
<!-- Node2 -->
<g id="node2" class="node"><title>Node2</title>
<g id="a_node2"><a xlink:href="classscram_1_1core_1_1Zbdd.xhtml#ac3ac27090b550d973b20bd971c3de9f9" target="_top" xlink:title="Removes complements of variables from products. ">
<polygon fill="white" stroke="black" points="183.5,-444.5 183.5,-474.5 311.5,-474.5 311.5,-444.5 183.5,-444.5"/>
<text text-anchor="start" x="191.5" y="-462.5" font-family="Helvetica,sans-Serif" font-size="10.00">scram::core::Zbdd::</text>
<text text-anchor="middle" x="247.5" y="-451.5" font-family="Helvetica,sans-Serif" font-size="10.00">EliminateComplements</text>
</a>
</g>
</g>
<!-- Node1&#45;&gt;Node2 -->
<g id="edge1" class="edge"><title>Node1&#45;&gt;Node2</title>
<path fill="none" stroke="midnightblue" d="M146.156,-446.703C155.145,-447.849 164.343,-449.022 173.346,-450.17"/>
<polygon fill="midnightblue" stroke="midnightblue" points="173.045,-453.66 183.407,-451.453 173.93,-446.716 173.045,-453.66"/>
</g>
<!-- Node16 -->
<g id="node16" class="node"><title>Node16</title>
<g id="a_node16"><a xlink:href="classscram_1_1core_1_1Zbdd.xhtml#aa599878612e128fa09e17d0520280dbe" target="_top" xlink:title="scram::core::Zbdd::root">
<polygon fill="white" stroke="black" points="182,-406 182,-425 313,-425 313,-406 182,-406"/>
<text text-anchor="middle" x="247.5" y="-413" font-family="Helvetica,sans-Serif" font-size="10.00">scram::core::Zbdd::root</text>
</a>
</g>
</g>
<!-- Node1&#45;&gt;Node16 -->
<g id="edge20" class="edge"><title>Node1&#45;&gt;Node16</title>
<path fill="none" stroke="midnightblue" d="M146.156,-428.297C154.557,-427.226 163.142,-426.131 171.58,-425.055"/>
<polygon fill="midnightblue" stroke="midnightblue" points="172.3,-428.492 181.777,-423.755 171.414,-421.548 172.3,-428.492"/>
</g>
<!-- Node3 -->
<g id="node3" class="node"><title>Node3</title>
<g id="a_node3"><a xlink:href="classscram_1_1core_1_1Settings.xhtml#a0e43ec0f017d23a4fa4e376c4060d380" target="_top" xlink:title="scram::core::Settings\l::limit_order">
<polygon fill="white" stroke="black" points="349,-526.5 349,-556.5 468,-556.5 468,-526.5 349,-526.5"/>
<text text-anchor="start" x="357" y="-544.5" font-family="Helvetica,sans-Serif" font-size="10.00">scram::core::Settings</text>
<text text-anchor="middle" x="408.5" y="-533.5" font-family="Helvetica,sans-Serif" font-size="10.00">::limit_order</text>
</a>
</g>
</g>
<!-- Node2&#45;&gt;Node3 -->
<g id="edge2" class="edge"><title>Node2&#45;&gt;Node3</title>
<path fill="none" stroke="midnightblue" d="M277.512,-474.546C297.578,-484.945 324.899,-499.085 349,-511.5 355.488,-514.842 362.384,-518.386 369.08,-521.822"/>
<polygon fill="midnightblue" stroke="midnightblue" points="367.534,-524.963 378.029,-526.413 370.729,-518.735 367.534,-524.963"/>
</g>
<!-- Node4 -->
<g id="node4" class="node"><title>Node4</title>
<g id="a_node4"><a xlink:href="classscram_1_1core_1_1SetNode.xhtml#a2d7f99792b82961df2e5ecfcd735bb5f" target="_top" xlink:title="scram::core::SetNode\l::max_set_order">
<polygon fill="white" stroke="black" points="685,-441.5 685,-471.5 807,-471.5 807,-441.5 685,-441.5"/>
<text text-anchor="start" x="693" y="-459.5" font-family="Helvetica,sans-Serif" font-size="10.00">scram::core::SetNode</text>
<text text-anchor="middle" x="746" y="-448.5" font-family="Helvetica,sans-Serif" font-size="10.00">::max_set_order</text>
</a>
</g>
</g>
<!-- Node2&#45;&gt;Node4 -->
<g id="edge3" class="edge"><title>Node2&#45;&gt;Node4</title>
<path fill="none" stroke="midnightblue" d="M311.622,-469.652C323.983,-471.255 336.874,-472.659 349,-473.5 479.354,-482.536 512.779,-484.277 643,-473.5 653.304,-472.647 664.135,-471.318 674.733,-469.769"/>
<polygon fill="midnightblue" stroke="midnightblue" points="675.445,-473.201 684.799,-468.226 674.384,-466.282 675.445,-473.201"/>
</g>
<!-- Node5 -->
<g id="node5" class="node"><title>Node5</title>
<g id="a_node5"><a xlink:href="classscram_1_1core_1_1Zbdd.xhtml#a3dbb8ef5da2882daf6c39e9724eae459" target="_top" xlink:title="Removes subsets in ZBDD. ">
<polygon fill="white" stroke="black" points="353,-245.5 353,-275.5 464,-275.5 464,-245.5 353,-245.5"/>
<text text-anchor="start" x="361" y="-263.5" font-family="Helvetica,sans-Serif" font-size="10.00">scram::core::Zbdd::</text>
<text text-anchor="middle" x="408.5" y="-252.5" font-family="Helvetica,sans-Serif" font-size="10.00">Minimize</text>
</a>
</g>
</g>
<!-- Node2&#45;&gt;Node5 -->
<g id="edge4" class="edge"><title>Node2&#45;&gt;Node5</title>
<path fill="none" stroke="midnightblue" d="M298.476,-444.348C303.699,-441.566 308.672,-438.308 313,-434.5 360.065,-393.094 388.029,-322.388 400.223,-285.134"/>
<polygon fill="midnightblue" stroke="midnightblue" points="403.571,-286.156 403.247,-275.566 396.896,-284.046 403.571,-286.156"/>
</g>
<!-- Node8 -->
<g id="node8" class="node"><title>Node8</title>
<g id="a_node8"><a xlink:href="structscram_1_1core_1_1IntrusivePtrCast.xhtml#af153c12dc6133b7d9f9b7a57bba29f1d" target="_top" xlink:title="scram::core::IntrusivePtr\lCast\&lt; SetNode \&gt;::Ref">
<polygon fill="white" stroke="black" points="679,-345.5 679,-375.5 813,-375.5 813,-345.5 679,-345.5"/>
<text text-anchor="start" x="687" y="-363.5" font-family="Helvetica,sans-Serif" font-size="10.00">scram::core::IntrusivePtr</text>
<text text-anchor="middle" x="746" y="-352.5" font-family="Helvetica,sans-Serif" font-size="10.00">Cast&lt; SetNode &gt;::Ref</text>
</a>
</g>
</g>
<!-- Node2&#45;&gt;Node8 -->
<g id="edge19" class="edge"><title>Node2&#45;&gt;Node8</title>
<path fill="none" stroke="midnightblue" d="M311.706,-461.083C407.397,-462.701 584.126,-462.433 643,-440.5 675.395,-428.431 705.638,-402.043 724.648,-382.864"/>
<polygon fill="midnightblue" stroke="midnightblue" points="727.177,-385.284 731.604,-375.658 722.14,-380.422 727.177,-385.284"/>
</g>
<!-- Node13 -->
<g id="node13" class="node"><title>Node13</title>
<g id="a_node13"><a xlink:href="structscram_1_1core_1_1IntrusivePtrCast.xhtml#adc53e5b89cace18e05bac95316da7d91" target="_top" xlink:title="scram::core::IntrusivePtr\lCast\&lt; SetNode \&gt;::Ptr">
<polygon fill="white" stroke="black" points="506.5,-0.5 506.5,-30.5 640.5,-30.5 640.5,-0.5 506.5,-0.5"/>
<text text-anchor="start" x="514.5" y="-18.5" font-family="Helvetica,sans-Serif" font-size="10.00">scram::core::IntrusivePtr</text>
<text text-anchor="middle" x="573.5" y="-7.5" font-family="Helvetica,sans-Serif" font-size="10.00">Cast&lt; SetNode &gt;::Ptr</text>
</a>
</g>
</g>
<!-- Node2&#45;&gt;Node13 -->
<g id="edge18" class="edge"><title>Node2&#45;&gt;Node13</title>
<path fill="none" stroke="midnightblue" d="M301.627,-444.45C305.893,-441.674 309.788,-438.389 313,-434.5 369.964,-365.543 312.264,-318.05 349,-236.5 394.758,-134.923 413.365,-104.284 504,-39.5 506.063,-38.0253 508.225,-36.6342 510.458,-35.3225"/>
<polygon fill="midnightblue" stroke="midnightblue" points="512.133,-38.3963 519.36,-30.6492 508.879,-32.1984 512.133,-38.3963"/>
</g>
<!-- Node6 -->
<g id="node6" class="node"><title>Node6</title>
<g id="a_node6"><a xlink:href="classscram_1_1core_1_1NonTerminal.xhtml#adcdd0c5114aa6a1d32a03928adc07c49" target="_top" xlink:title="scram::core::NonTerminal\l::coherent">
<polygon fill="white" stroke="black" points="504,-196.5 504,-226.5 643,-226.5 643,-196.5 504,-196.5"/>
<text text-anchor="start" x="512" y="-214.5" font-family="Helvetica,sans-Serif" font-size="10.00">scram::core::NonTerminal</text>
<text text-anchor="middle" x="573.5" y="-203.5" font-family="Helvetica,sans-Serif" font-size="10.00">::coherent</text>
</a>
</g>
</g>
<!-- Node5&#45;&gt;Node6 -->
<g id="edge5" class="edge"><title>Node5&#45;&gt;Node6</title>
<path fill="none" stroke="midnightblue" d="M459.735,-245.399C476.391,-240.392 495.1,-234.768 512.419,-229.561"/>
<polygon fill="midnightblue" stroke="midnightblue" points="513.861,-232.782 522.43,-226.552 511.846,-226.079 513.861,-232.782"/>
</g>
<!-- Node7 -->
<g id="node7" class="node"><title>Node7</title>
<g id="a_node7"><a xlink:href="classscram_1_1core_1_1Zbdd.xhtml#a42af18229ba2e80201bc0fdac07b7091" target="_top" xlink:title="Finds or adds a unique SetNode in the ZBDD. ">
<polygon fill="white" stroke="black" points="518,-400.5 518,-430.5 629,-430.5 629,-400.5 518,-400.5"/>
<text text-anchor="start" x="526" y="-418.5" font-family="Helvetica,sans-Serif" font-size="10.00">scram::core::Zbdd::</text>
<text text-anchor="middle" x="573.5" y="-407.5" font-family="Helvetica,sans-Serif" font-size="10.00">FindOrAddVertex</text>
</a>
</g>
</g>
<!-- Node5&#45;&gt;Node7 -->
<g id="edge6" class="edge"><title>Node5&#45;&gt;Node7</title>
<path fill="none" stroke="midnightblue" d="M416.592,-275.775C429.933,-302.901 461.309,-359.619 504,-391.5 505.846,-392.878 507.777,-394.182 509.773,-395.415"/>
<polygon fill="midnightblue" stroke="midnightblue" points="508.411,-398.659 518.865,-400.379 511.765,-392.515 508.411,-398.659"/>
</g>
<!-- Node5&#45;&gt;Node8 -->
<g id="edge14" class="edge"><title>Node5&#45;&gt;Node8</title>
<path fill="none" stroke="midnightblue" d="M464.151,-271.649C529.581,-288.9 637.981,-321.32 699.209,-342.041"/>
<polygon fill="midnightblue" stroke="midnightblue" points="698.387,-345.459 708.981,-345.388 700.655,-338.836 698.387,-345.459"/>
</g>
<!-- Node5&#45;&gt;Node8 -->
<g id="edge15" class="edge"><title>Node5&#45;&gt;Node8</title>
<path fill="none" stroke="midnightblue" d="M445.404,-275.572C498.521,-294.018 599.282,-324.511 669.201,-343.66"/>
<polygon fill="midnightblue" stroke="midnightblue" points="668.286,-347.038 678.854,-346.284 670.122,-340.283 668.286,-347.038"/>
</g>
<!-- Node9 -->
<g id="node9" class="node"><title>Node9</title>
<g id="a_node9"><a xlink:href="classscram_1_1core_1_1NonTerminal.xhtml#aeeaafd82ae5890a7ec3462c68ffc8628" target="_top" xlink:title="scram::core::NonTerminal\l::index">
<polygon fill="white" stroke="black" points="504,-147.5 504,-177.5 643,-177.5 643,-147.5 504,-147.5"/>
<text text-anchor="start" x="512" y="-165.5" font-family="Helvetica,sans-Serif" font-size="10.00">scram::core::NonTerminal</text>
<text text-anchor="middle" x="573.5" y="-154.5" font-family="Helvetica,sans-Serif" font-size="10.00">::index</text>
</a>
</g>
</g>
<!-- Node5&#45;&gt;Node9 -->
<g id="edge9" class="edge"><title>Node5&#45;&gt;Node9</title>
<path fill="none" stroke="midnightblue" d="M425.806,-245.352C443.817,-229.257 474.226,-203.915 504,-187.5 507.742,-185.437 511.687,-183.484 515.718,-181.647"/>
<polygon fill="midnightblue" stroke="midnightblue" points="517.409,-184.73 525.222,-177.575 514.652,-178.296 517.409,-184.73"/>
</g>
<!-- Node10 -->
<g id="node10" class="node"><title>Node10</title>
<g id="a_node10"><a xlink:href="classscram_1_1core_1_1SetNode.xhtml#a88d05af2b9f4f08b7bc66a31c2b9e249" target="_top" xlink:title="scram::core::SetNode\l::minimal">
<polygon fill="white" stroke="black" points="512.5,-98.5 512.5,-128.5 634.5,-128.5 634.5,-98.5 512.5,-98.5"/>
<text text-anchor="start" x="520.5" y="-116.5" font-family="Helvetica,sans-Serif" font-size="10.00">scram::core::SetNode</text>
<text text-anchor="middle" x="573.5" y="-105.5" font-family="Helvetica,sans-Serif" font-size="10.00">::minimal</text>
</a>
</g>
</g>
<!-- Node5&#45;&gt;Node10 -->
<g id="edge10" class="edge"><title>Node5&#45;&gt;Node10</title>
<path fill="none" stroke="midnightblue" d="M417.577,-245.129C431.767,-219.527 463.543,-168.05 504,-138.5 506.525,-136.655 509.201,-134.934 511.975,-133.329"/>
<polygon fill="midnightblue" stroke="midnightblue" points="513.839,-136.305 521.103,-128.593 510.614,-130.092 513.839,-136.305"/>
</g>
<!-- Node11 -->
<g id="node11" class="node"><title>Node11</title>
<g id="a_node11"><a xlink:href="classscram_1_1core_1_1NonTerminal.xhtml#a9230422e92d086c34f67bcb864bfc8a9" target="_top" xlink:title="scram::core::NonTerminal\l::module">
<polygon fill="white" stroke="black" points="504,-49.5 504,-79.5 643,-79.5 643,-49.5 504,-49.5"/>
<text text-anchor="start" x="512" y="-67.5" font-family="Helvetica,sans-Serif" font-size="10.00">scram::core::NonTerminal</text>
<text text-anchor="middle" x="573.5" y="-56.5" font-family="Helvetica,sans-Serif" font-size="10.00">::module</text>
</a>
</g>
</g>
<!-- Node5&#45;&gt;Node11 -->
<g id="edge11" class="edge"><title>Node5&#45;&gt;Node11</title>
<path fill="none" stroke="midnightblue" d="M416.084,-245.428C432.784,-207.788 477.35,-111.07 504,-88.5 505.515,-87.2173 507.102,-86.0017 508.748,-84.8496"/>
<polygon fill="midnightblue" stroke="midnightblue" points="510.66,-87.7834 517.393,-79.6035 507.028,-81.799 510.66,-87.7834"/>
</g>
<!-- Node12 -->
<g id="node12" class="node"><title>Node12</title>
<g id="a_node12"><a xlink:href="classscram_1_1core_1_1Settings.xhtml#ae64f362fceb44402e101140dfc1725ba" target="_top" xlink:title="scram::core::Settings\l::prime_implicants">
<polygon fill="white" stroke="black" points="514,-351.5 514,-381.5 633,-381.5 633,-351.5 514,-351.5"/>
<text text-anchor="start" x="522" y="-369.5" font-family="Helvetica,sans-Serif" font-size="10.00">scram::core::Settings</text>
<text text-anchor="middle" x="573.5" y="-358.5" font-family="Helvetica,sans-Serif" font-size="10.00">::prime_implicants</text>
</a>
</g>
</g>
<!-- Node5&#45;&gt;Node12 -->
<g id="edge12" class="edge"><title>Node5&#45;&gt;Node12</title>
<path fill="none" stroke="midnightblue" d="M425.573,-275.655C443.624,-292.124 474.295,-318.489 504,-336.5 510.259,-340.295 517.083,-343.873 523.919,-347.146"/>
<polygon fill="midnightblue" stroke="midnightblue" points="522.651,-350.415 533.198,-351.412 525.575,-344.055 522.651,-350.415"/>
</g>
<!-- Node5&#45;&gt;Node13 -->
<g id="edge13" class="edge"><title>Node5&#45;&gt;Node13</title>
<path fill="none" stroke="midnightblue" d="M416.573,-245.389C427.809,-221.254 450.275,-172.448 468,-130.5 484.929,-90.4354 472.64,-69.6384 504,-39.5 505.107,-38.4358 506.264,-37.4186 507.464,-36.4462"/>
<polygon fill="midnightblue" stroke="midnightblue" points="509.646,-39.1939 515.923,-30.6582 505.693,-33.4168 509.646,-39.1939"/>
</g>
<!-- Node14 -->
<g id="node14" class="node"><title>Node14</title>
<g id="a_node14"><a xlink:href="classscram_1_1core_1_1Terminal.xhtml#a7a25b0b40498f4876571a5dac4e724c3" target="_top" xlink:title="scram::core::Terminal\l::value">
<polygon fill="white" stroke="black" points="514,-245.5 514,-275.5 633,-275.5 633,-245.5 514,-245.5"/>
<text text-anchor="start" x="522" y="-263.5" font-family="Helvetica,sans-Serif" font-size="10.00">scram::core::Terminal</text>
<text text-anchor="middle" x="573.5" y="-252.5" font-family="Helvetica,sans-Serif" font-size="10.00">::value</text>
</a>
</g>
</g>
<!-- Node5&#45;&gt;Node14 -->
<g id="edge16" class="edge"><title>Node5&#45;&gt;Node14</title>
<path fill="none" stroke="midnightblue" d="M464.23,-260.5C476.782,-260.5 490.287,-260.5 503.359,-260.5"/>
<polygon fill="midnightblue" stroke="midnightblue" points="503.722,-264 513.722,-260.5 503.722,-257 503.722,-264"/>
</g>
<!-- Node7&#45;&gt;Node4 -->
<g id="edge7" class="edge"><title>Node7&#45;&gt;Node4</title>
<path fill="none" stroke="midnightblue" d="M629.386,-428.698C643.92,-432.193 659.808,-436.014 675.025,-439.673"/>
<polygon fill="midnightblue" stroke="midnightblue" points="674.366,-443.114 684.907,-442.049 676.002,-436.308 674.366,-443.114"/>
</g>
<!-- Node7&#45;&gt;Node8 -->
<g id="edge8" class="edge"><title>Node7&#45;&gt;Node8</title>
<path fill="none" stroke="midnightblue" d="M621.09,-400.471C642.046,-393.711 666.957,-385.675 688.928,-378.588"/>
<polygon fill="midnightblue" stroke="midnightblue" points="690.024,-381.912 698.466,-375.511 687.875,-375.25 690.024,-381.912"/>
</g>
<!-- Node15 -->
<g id="node15" class="node"><title>Node15</title>
<g id="a_node15"><a xlink:href="classscram_1_1core_1_1Vertex.xhtml#a8a4a6e9871c7b80b9951fea57617d438" target="_top" xlink:title="scram::core::Vertex::id">
<polygon fill="white" stroke="black" points="683.5,-251 683.5,-270 808.5,-270 808.5,-251 683.5,-251"/>
<text text-anchor="middle" x="746" y="-258" font-family="Helvetica,sans-Serif" font-size="10.00">scram::core::Vertex::id</text>
</a>
</g>
</g>
<!-- Node14&#45;&gt;Node15 -->
<g id="edge17" class="edge"><title>Node14&#45;&gt;Node15</title>
<path fill="none" stroke="midnightblue" d="M633.176,-260.5C646.072,-260.5 659.869,-260.5 673.215,-260.5"/>
<polygon fill="midnightblue" stroke="midnightblue" points="673.31,-264 683.31,-260.5 673.31,-257 673.31,-264"/>
</g>
</g>
</svg>
