<?xml version="1.0" encoding="UTF-8" standalone="no"?>
<!DOCTYPE svg PUBLIC "-//W3C//DTD SVG 1.1//EN"
 "http://www.w3.org/Graphics/SVG/1.1/DTD/svg11.dtd">
<!-- Generated by graphviz version 2.38.0 (20140413.2041)
 -->
<!-- Title: scram::core::Constant::value Pages: 1 -->
<svg width="450pt" height="52pt"
 viewBox="0.00 0.00 450.00 51.50" xmlns="http://www.w3.org/2000/svg" xmlns:xlink="http://www.w3.org/1999/xlink">
<g id="graph0" class="graph" transform="scale(1 1) rotate(0) translate(4 47.5)">
<title>scram::core::Constant::value</title>
<polygon fill="white" stroke="none" points="-4,4 -4,-47.5 446,-47.5 446,4 -4,4"/>
<!-- Node1 -->
<g id="node1" class="node"><title>Node1</title>
<polygon fill="#bfbfbf" stroke="black" points="0,-0.5 0,-30.5 123,-30.5 123,-0.5 0,-0.5"/>
<text text-anchor="start" x="8" y="-18.5" font-family="Helvetica,sans-Serif" font-size="10.00">scram::core::Constant</text>
<text text-anchor="middle" x="61.5" y="-7.5" font-family="Helvetica,sans-Serif" font-size="10.00">::value</text>
</g>
<!-- Node2 -->
<g id="node2" class="node"><title>Node2</title>
<g id="a_node2"><a xlink:href="pdag_8cc.xhtml#a3655e18b0516364663797b84c544bd8b" target="_top" xlink:title="Prints PDAG nodes in the Aralia format. ">
<polygon fill="white" stroke="black" points="159,-6 159,-25 296,-25 296,-6 159,-6"/>
<text text-anchor="middle" x="227.5" y="-13" font-family="Helvetica,sans-Serif" font-size="10.00">scram::core::operator&lt;&lt;</text>
</a>
</g>
</g>
<!-- Node1&#45;&gt;Node2 -->
<g id="edge1" class="edge"><title>Node1&#45;&gt;Node2</title>
<path fill="none" stroke="midnightblue" d="M133.361,-15.5C141.858,-15.5 150.518,-15.5 158.967,-15.5"/>
<polygon fill="midnightblue" stroke="midnightblue" points="133.102,-12.0001 123.102,-15.5 133.102,-19.0001 133.102,-12.0001"/>
</g>
<!-- Node2&#45;&gt;Node2 -->
<g id="edge2" class="edge"><title>Node2&#45;&gt;Node2</title>
<path fill="none" stroke="midnightblue" d="M198.008,-34.1539C199.24,-39.4368 209.071,-43.5 227.5,-43.5 255.582,-43.5 263.699,-34.0653 251.852,-25.2571"/>
<polygon fill="midnightblue" stroke="midnightblue" points="201.176,-35.6668 203.148,-25.2571 195.114,-32.165 201.176,-35.6668"/>
</g>
<!-- Node3 -->
<g id="node3" class="node"><title>Node3</title>
<g id="a_node3"><a xlink:href="classscram_1_1core_1_1Pdag.xhtml#a6f08191830efe0648dbebb6059486162" target="_top" xlink:title="Determines the proper &quot;clear&quot; state for the graph node mark, and set the clear mark to nodes starting...">
<polygon fill="white" stroke="black" points="332,-0.5 332,-30.5 442,-30.5 442,-0.5 332,-0.5"/>
<text text-anchor="start" x="340" y="-18.5" font-family="Helvetica,sans-Serif" font-size="10.00">scram::core::Pdag::</text>
<text text-anchor="middle" x="387" y="-7.5" font-family="Helvetica,sans-Serif" font-size="10.00">Clear</text>
</a>
</g>
</g>
<!-- Node2&#45;&gt;Node3 -->
<g id="edge3" class="edge"><title>Node2&#45;&gt;Node3</title>
<path fill="none" stroke="midnightblue" d="M306.254,-15.5C314.838,-15.5 323.438,-15.5 331.646,-15.5"/>
<polygon fill="midnightblue" stroke="midnightblue" points="306.208,-12.0001 296.208,-15.5 306.208,-19.0001 306.208,-12.0001"/>
</g>
</g>
</svg>
