<?xml version="1.0" encoding="UTF-8" standalone="no"?>
<!DOCTYPE svg PUBLIC "-//W3C//DTD SVG 1.1//EN"
 "http://www.w3.org/Graphics/SVG/1.1/DTD/svg11.dtd">
<!-- Generated by graphviz version 2.38.0 (20140413.2041)
 -->
<!-- Title: scram::mef::IfThenElse Pages: 1 -->
<svg width="234pt" height="511pt"
 viewBox="0.00 0.00 234.00 511.00" xmlns="http://www.w3.org/2000/svg" xmlns:xlink="http://www.w3.org/1999/xlink">
<g id="graph0" class="graph" transform="scale(1 1) rotate(0) translate(4 507)">
<title>scram::mef::IfThenElse</title>
<polygon fill="white" stroke="none" points="-4,4 -4,-507 230,-507 230,4 -4,4"/>
<!-- Node1 -->
<g id="node1" class="node"><title>Node1</title>
<polygon fill="#bfbfbf" stroke="black" points="22.5,-0.5 22.5,-90.5 147.5,-90.5 147.5,-0.5 22.5,-0.5"/>
<text text-anchor="middle" x="85" y="-78.5" font-family="Helvetica,sans-Serif" font-size="10.00">scram::mef::IfThenElse</text>
<polyline fill="none" stroke="black" points="22.5,-71.5 147.5,-71.5 "/>
<text text-anchor="middle" x="85" y="-59.5" font-family="Helvetica,sans-Serif" font-size="10.00"> </text>
<polyline fill="none" stroke="black" points="22.5,-52.5 147.5,-52.5 "/>
<text text-anchor="start" x="30.5" y="-40.5" font-family="Helvetica,sans-Serif" font-size="10.00">+ IfThenElse()</text>
<text text-anchor="start" x="30.5" y="-29.5" font-family="Helvetica,sans-Serif" font-size="10.00">+ expression()</text>
<text text-anchor="start" x="30.5" y="-18.5" font-family="Helvetica,sans-Serif" font-size="10.00">+ then_instruction()</text>
<text text-anchor="start" x="30.5" y="-7.5" font-family="Helvetica,sans-Serif" font-size="10.00">+ else_instruction()</text>
</g>
<!-- Node2 -->
<g id="node2" class="node"><title>Node2</title>
<g id="a_node2"><a xlink:href="classscram_1_1mef_1_1Visitable.xhtml" target="_top" xlink:title="{scram::mef::Visitable\l\&lt; IfThenElse \&gt;\n||+ Accept()\l}">
<polygon fill="white" stroke="black" points="26,-128.5 26,-196.5 144,-196.5 144,-128.5 26,-128.5"/>
<text text-anchor="start" x="34" y="-184.5" font-family="Helvetica,sans-Serif" font-size="10.00">scram::mef::Visitable</text>
<text text-anchor="middle" x="85" y="-173.5" font-family="Helvetica,sans-Serif" font-size="10.00">&lt; IfThenElse &gt;</text>
<polyline fill="none" stroke="black" points="26,-166.5 144,-166.5 "/>
<text text-anchor="middle" x="85" y="-154.5" font-family="Helvetica,sans-Serif" font-size="10.00"> </text>
<polyline fill="none" stroke="black" points="26,-147.5 144,-147.5 "/>
<text text-anchor="start" x="34" y="-135.5" font-family="Helvetica,sans-Serif" font-size="10.00">+ Accept()</text>
</a>
</g>
</g>
<!-- Node2&#45;&gt;Node1 -->
<g id="edge1" class="edge"><title>Node2&#45;&gt;Node1</title>
<path fill="none" stroke="midnightblue" d="M85,-118.055C85,-109.146 85,-99.7573 85,-90.8181"/>
<polygon fill="none" stroke="midnightblue" points="81.5001,-118.237 85,-128.237 88.5001,-118.237 81.5001,-118.237"/>
</g>
<!-- Node3 -->
<g id="node3" class="node"><title>Node3</title>
<g id="a_node3"><a xlink:href="classscram_1_1mef_1_1Instruction.xhtml" target="_top" xlink:title="Instructions and rules for event tree paths. ">
<polygon fill="white" stroke="black" points="0,-339.5 0,-407.5 128,-407.5 128,-339.5 0,-339.5"/>
<text text-anchor="middle" x="64" y="-395.5" font-family="Helvetica,sans-Serif" font-size="10.00">scram::mef::Instruction</text>
<polyline fill="none" stroke="black" points="0,-388.5 128,-388.5 "/>
<text text-anchor="middle" x="64" y="-376.5" font-family="Helvetica,sans-Serif" font-size="10.00"> </text>
<polyline fill="none" stroke="black" points="0,-369.5 128,-369.5 "/>
<text text-anchor="start" x="8" y="-357.5" font-family="Helvetica,sans-Serif" font-size="10.00">+ ~Instruction()</text>
<text text-anchor="start" x="8" y="-346.5" font-family="Helvetica,sans-Serif" font-size="10.00">+ Accept()</text>
</a>
</g>
</g>
<!-- Node3&#45;&gt;Node2 -->
<g id="edge2" class="edge"><title>Node3&#45;&gt;Node2</title>
<path fill="none" stroke="midnightblue" d="M65.0902,-329.157C66.0355,-304.195 67.784,-272.262 71,-244 72.7803,-228.355 75.6488,-211.143 78.3271,-196.664"/>
<polygon fill="none" stroke="midnightblue" points="61.5838,-329.281 64.7323,-339.398 68.5795,-329.526 61.5838,-329.281"/>
</g>
<!-- Node5 -->
<g id="node5" class="node"><title>Node5</title>
<g id="a_node5"><a xlink:href="classscram_1_1mef_1_1Visitable.xhtml" target="_top" xlink:title="Default visit for instruction type of T. ">
<polygon fill="white" stroke="black" points="80,-244.5 80,-301.5 226,-301.5 226,-244.5 80,-244.5"/>
<text text-anchor="middle" x="153" y="-289.5" font-family="Helvetica,sans-Serif" font-size="10.00">scram::mef::Visitable&lt; T &gt;</text>
<polyline fill="none" stroke="black" points="80,-282.5 226,-282.5 "/>
<text text-anchor="middle" x="153" y="-270.5" font-family="Helvetica,sans-Serif" font-size="10.00"> </text>
<polyline fill="none" stroke="black" points="80,-263.5 226,-263.5 "/>
<text text-anchor="start" x="88" y="-251.5" font-family="Helvetica,sans-Serif" font-size="10.00">+ Accept()</text>
</a>
</g>
</g>
<!-- Node3&#45;&gt;Node5 -->
<g id="edge5" class="edge"><title>Node3&#45;&gt;Node5</title>
<path fill="none" stroke="midnightblue" d="M100.796,-331.777C109.985,-321.606 119.627,-310.935 128.088,-301.571"/>
<polygon fill="none" stroke="midnightblue" points="97.9906,-329.661 93.8833,-339.427 103.184,-334.354 97.9906,-329.661"/>
</g>
<!-- Node4 -->
<g id="node4" class="node"><title>Node4</title>
<polygon fill="white" stroke="#bfbfbf" points="25.5,-445.5 25.5,-502.5 102.5,-502.5 102.5,-445.5 25.5,-445.5"/>
<text text-anchor="middle" x="64" y="-490.5" font-family="Helvetica,sans-Serif" font-size="10.00">noncopyable</text>
<polyline fill="none" stroke="#bfbfbf" points="25.5,-483.5 102.5,-483.5 "/>
<text text-anchor="middle" x="64" y="-471.5" font-family="Helvetica,sans-Serif" font-size="10.00"> </text>
<polyline fill="none" stroke="#bfbfbf" points="25.5,-464.5 102.5,-464.5 "/>
<text text-anchor="middle" x="64" y="-452.5" font-family="Helvetica,sans-Serif" font-size="10.00"> </text>
</g>
<!-- Node4&#45;&gt;Node3 -->
<g id="edge3" class="edge"><title>Node4&#45;&gt;Node3</title>
<path fill="none" stroke="#8b1a1a" d="M64,-435.007C64,-425.962 64,-416.383 64,-407.578"/>
<polygon fill="none" stroke="#8b1a1a" points="60.5001,-435.3 64,-445.3 67.5001,-435.3 60.5001,-435.3"/>
</g>
<!-- Node5&#45;&gt;Node2 -->
<g id="edge4" class="edge"><title>Node5&#45;&gt;Node2</title>
<path fill="none" stroke="orange" d="M130.33,-235.828C122.373,-223.132 113.48,-208.943 105.694,-196.519"/>
<polygon fill="orange" stroke="orange" points="127.389,-237.725 135.665,-244.34 133.32,-234.008 127.389,-237.725"/>
<text text-anchor="middle" x="160" y="-218" font-family="Helvetica,sans-Serif" font-size="10.00"> &lt; IfThenElse &gt;</text>
</g>
</g>
</svg>
