<?xml version="1.0" encoding="UTF-8" standalone="no"?>
<!DOCTYPE svg PUBLIC "-//W3C//DTD SVG 1.1//EN"
 "http://www.w3.org/Graphics/SVG/1.1/DTD/svg11.dtd">
<!-- Generated by graphviz version 2.38.0 (20140413.2041)
 -->
<!-- Title: scram::core::CustomPreprocessor&lt; Bdd &gt; Pages: 1 -->
<svg width="189pt" height="408pt"
 viewBox="0.00 0.00 189.00 408.00" xmlns="http://www.w3.org/2000/svg" xmlns:xlink="http://www.w3.org/1999/xlink">
<g id="graph0" class="graph" transform="scale(1 1) rotate(0) translate(4 404)">
<title>scram::core::CustomPreprocessor&lt; Bdd &gt;</title>
<polygon fill="white" stroke="none" points="-4,4 -4,-404 185,-404 185,4 -4,4"/>
<!-- Node1 -->
<g id="node1" class="node"><title>Node1</title>
<polygon fill="#bfbfbf" stroke="black" points="0.5,-0.5 0.5,-68.5 180.5,-68.5 180.5,-0.5 0.5,-0.5"/>
<text text-anchor="start" x="8.5" y="-56.5" font-family="Helvetica,sans-Serif" font-size="10.00">scram::core::CustomPreprocessor</text>
<text text-anchor="middle" x="90.5" y="-45.5" font-family="Helvetica,sans-Serif" font-size="10.00">&lt; Bdd &gt;</text>
<polyline fill="none" stroke="black" points="0.5,-38.5 180.5,-38.5 "/>
<text text-anchor="middle" x="90.5" y="-26.5" font-family="Helvetica,sans-Serif" font-size="10.00"> </text>
<polyline fill="none" stroke="black" points="0.5,-19.5 180.5,-19.5 "/>
<text text-anchor="middle" x="90.5" y="-7.5" font-family="Helvetica,sans-Serif" font-size="10.00"> </text>
</g>
<!-- Node2 -->
<g id="node2" class="node"><title>Node2</title>
<g id="a_node2"><a xlink:href="classscram_1_1core_1_1Preprocessor.xhtml" target="_top" xlink:title="The class provides main preprocessing operations over a PDAG to simplify the fault tree and to help a...">
<polygon fill="white" stroke="black" points="0,-105.5 0,-305.5 181,-305.5 181,-105.5 0,-105.5"/>
<text text-anchor="middle" x="90.5" y="-293.5" font-family="Helvetica,sans-Serif" font-size="10.00">scram::core::Preprocessor</text>
<polyline fill="none" stroke="black" points="0,-286.5 181,-286.5 "/>
<text text-anchor="start" x="8" y="-274.5" font-family="Helvetica,sans-Serif" font-size="10.00"># graph_</text>
<polyline fill="none" stroke="black" points="0,-267.5 181,-267.5 "/>
<text text-anchor="start" x="8" y="-255.5" font-family="Helvetica,sans-Serif" font-size="10.00">+ Preprocessor()</text>
<text text-anchor="start" x="8" y="-244.5" font-family="Helvetica,sans-Serif" font-size="10.00">+ ~Preprocessor()</text>
<text text-anchor="start" x="8" y="-233.5" font-family="Helvetica,sans-Serif" font-size="10.00">+ operator()()</text>
<text text-anchor="start" x="8" y="-222.5" font-family="Helvetica,sans-Serif" font-size="10.00"># Run()</text>
<text text-anchor="start" x="8" y="-211.5" font-family="Helvetica,sans-Serif" font-size="10.00"># RunPhaseOne()</text>
<text text-anchor="start" x="8" y="-200.5" font-family="Helvetica,sans-Serif" font-size="10.00"># RunPhaseTwo()</text>
<text text-anchor="start" x="8" y="-189.5" font-family="Helvetica,sans-Serif" font-size="10.00"># RunPhaseThree()</text>
<text text-anchor="start" x="8" y="-178.5" font-family="Helvetica,sans-Serif" font-size="10.00"># RunPhaseFour()</text>
<text text-anchor="start" x="8" y="-167.5" font-family="Helvetica,sans-Serif" font-size="10.00"># RunPhaseFive()</text>
<text text-anchor="start" x="8" y="-156.5" font-family="Helvetica,sans-Serif" font-size="10.00"># NormalizeGates()</text>
<text text-anchor="start" x="8" y="-145.5" font-family="Helvetica,sans-Serif" font-size="10.00"># NotifyParentsOfNegativeGates()</text>
<text text-anchor="start" x="8" y="-134.5" font-family="Helvetica,sans-Serif" font-size="10.00"># NormalizeGate()</text>
<text text-anchor="start" x="8" y="-123.5" font-family="Helvetica,sans-Serif" font-size="10.00"># NormalizeXorGate()</text>
<text text-anchor="start" x="8" y="-112.5" font-family="Helvetica,sans-Serif" font-size="10.00">and 48 more...</text>
</a>
</g>
</g>
<!-- Node2&#45;&gt;Node1 -->
<g id="edge1" class="edge"><title>Node2&#45;&gt;Node1</title>
<path fill="none" stroke="midnightblue" d="M90.5,-94.9218C90.5,-85.5767 90.5,-76.6815 90.5,-68.7534"/>
<polygon fill="none" stroke="midnightblue" points="87.0001,-95.2144 90.5,-105.214 94.0001,-95.2145 87.0001,-95.2144"/>
</g>
<!-- Node3 -->
<g id="node3" class="node"><title>Node3</title>
<polygon fill="white" stroke="#bfbfbf" points="52,-342.5 52,-399.5 129,-399.5 129,-342.5 52,-342.5"/>
<text text-anchor="middle" x="90.5" y="-387.5" font-family="Helvetica,sans-Serif" font-size="10.00">noncopyable</text>
<polyline fill="none" stroke="#bfbfbf" points="52,-380.5 129,-380.5 "/>
<text text-anchor="middle" x="90.5" y="-368.5" font-family="Helvetica,sans-Serif" font-size="10.00"> </text>
<polyline fill="none" stroke="#bfbfbf" points="52,-361.5 129,-361.5 "/>
<text text-anchor="middle" x="90.5" y="-349.5" font-family="Helvetica,sans-Serif" font-size="10.00"> </text>
</g>
<!-- Node3&#45;&gt;Node2 -->
<g id="edge2" class="edge"><title>Node3&#45;&gt;Node2</title>
<path fill="none" stroke="#8b1a1a" d="M90.5,-332.04C90.5,-323.867 90.5,-314.865 90.5,-305.549"/>
<polygon fill="none" stroke="#8b1a1a" points="87.0001,-332.264 90.5,-342.264 94.0001,-332.264 87.0001,-332.264"/>
</g>
</g>
</svg>
