<?xml version="1.0" encoding="UTF-8" standalone="no"?>
<!DOCTYPE svg PUBLIC "-//W3C//DTD SVG 1.1//EN"
 "http://www.w3.org/Graphics/SVG/1.1/DTD/svg11.dtd">
<!-- Generated by graphviz version 2.38.0 (20140413.2041)
 -->
<!-- Title: scram::core::FaultTreeAnalyzer&lt; Algorithm &gt; Pages: 1 -->
<svg width="171pt" height="524pt"
 viewBox="0.00 0.00 171.00 524.00" xmlns="http://www.w3.org/2000/svg" xmlns:xlink="http://www.w3.org/1999/xlink">
<g id="graph0" class="graph" transform="scale(1 1) rotate(0) translate(4 520)">
<title>scram::core::FaultTreeAnalyzer&lt; Algorithm &gt;</title>
<polygon fill="white" stroke="none" points="-4,4 -4,-520 167,-520 167,4 -4,4"/>
<!-- Node1 -->
<g id="node1" class="node"><title>Node1</title>
<polygon fill="#bfbfbf" stroke="black" points="0,-0.5 0,-101.5 163,-101.5 163,-0.5 0,-0.5"/>
<text text-anchor="start" x="8" y="-89.5" font-family="Helvetica,sans-Serif" font-size="10.00">scram::core::FaultTreeAnalyzer</text>
<text text-anchor="middle" x="81.5" y="-78.5" font-family="Helvetica,sans-Serif" font-size="10.00">&lt; Algorithm &gt;</text>
<polyline fill="none" stroke="black" points="0,-71.5 163,-71.5 "/>
<text text-anchor="middle" x="81.5" y="-59.5" font-family="Helvetica,sans-Serif" font-size="10.00"> </text>
<polyline fill="none" stroke="black" points="0,-52.5 163,-52.5 "/>
<text text-anchor="start" x="8" y="-40.5" font-family="Helvetica,sans-Serif" font-size="10.00">+ algorithm()</text>
<text text-anchor="start" x="8" y="-29.5" font-family="Helvetica,sans-Serif" font-size="10.00">+ algorithm()</text>
<text text-anchor="start" x="8" y="-18.5" font-family="Helvetica,sans-Serif" font-size="10.00">* algorithm()</text>
<text text-anchor="start" x="8" y="-7.5" font-family="Helvetica,sans-Serif" font-size="10.00">* algorithm()</text>
</g>
<!-- Node2 -->
<g id="node2" class="node"><title>Node2</title>
<g id="a_node2"><a xlink:href="classscram_1_1core_1_1FaultTreeAnalysis.xhtml" target="_top" xlink:title="Fault tree analysis functionality. ">
<polygon fill="white" stroke="black" points="1,-138.5 1,-250.5 162,-250.5 162,-138.5 1,-138.5"/>
<text text-anchor="middle" x="81.5" y="-238.5" font-family="Helvetica,sans-Serif" font-size="10.00">scram::core::FaultTreeAnalysis</text>
<polyline fill="none" stroke="black" points="1,-231.5 162,-231.5 "/>
<text text-anchor="middle" x="81.5" y="-219.5" font-family="Helvetica,sans-Serif" font-size="10.00"> </text>
<polyline fill="none" stroke="black" points="1,-212.5 162,-212.5 "/>
<text text-anchor="start" x="9" y="-200.5" font-family="Helvetica,sans-Serif" font-size="10.00">+ FaultTreeAnalysis()</text>
<text text-anchor="start" x="9" y="-189.5" font-family="Helvetica,sans-Serif" font-size="10.00">+ ~FaultTreeAnalysis()</text>
<text text-anchor="start" x="9" y="-178.5" font-family="Helvetica,sans-Serif" font-size="10.00">+ top_event()</text>
<text text-anchor="start" x="9" y="-167.5" font-family="Helvetica,sans-Serif" font-size="10.00">+ Analyze()</text>
<text text-anchor="start" x="9" y="-156.5" font-family="Helvetica,sans-Serif" font-size="10.00">+ products()</text>
<text text-anchor="start" x="9" y="-145.5" font-family="Helvetica,sans-Serif" font-size="10.00"># graph()</text>
</a>
</g>
</g>
<!-- Node2&#45;&gt;Node1 -->
<g id="edge1" class="edge"><title>Node2&#45;&gt;Node1</title>
<path fill="none" stroke="midnightblue" d="M81.5,-128.344C81.5,-119.375 81.5,-110.286 81.5,-101.658"/>
<polygon fill="none" stroke="midnightblue" points="78.0001,-128.387 81.5,-138.387 85.0001,-128.387 78.0001,-128.387"/>
</g>
<!-- Node3 -->
<g id="node3" class="node"><title>Node3</title>
<g id="a_node3"><a xlink:href="classscram_1_1core_1_1Analysis.xhtml" target="_top" xlink:title="Base abstract class for all analysis with settings. ">
<polygon fill="white" stroke="black" points="22,-287.5 22,-421.5 141,-421.5 141,-287.5 22,-287.5"/>
<text text-anchor="middle" x="81.5" y="-409.5" font-family="Helvetica,sans-Serif" font-size="10.00">scram::core::Analysis</text>
<polyline fill="none" stroke="black" points="22,-402.5 141,-402.5 "/>
<text text-anchor="middle" x="81.5" y="-390.5" font-family="Helvetica,sans-Serif" font-size="10.00"> </text>
<polyline fill="none" stroke="black" points="22,-383.5 141,-383.5 "/>
<text text-anchor="start" x="30" y="-371.5" font-family="Helvetica,sans-Serif" font-size="10.00">+ Analysis()</text>
<text text-anchor="start" x="30" y="-360.5" font-family="Helvetica,sans-Serif" font-size="10.00">+ ~Analysis()</text>
<text text-anchor="start" x="30" y="-349.5" font-family="Helvetica,sans-Serif" font-size="10.00">+ settings()</text>
<text text-anchor="start" x="30" y="-338.5" font-family="Helvetica,sans-Serif" font-size="10.00">+ warnings()</text>
<text text-anchor="start" x="30" y="-327.5" font-family="Helvetica,sans-Serif" font-size="10.00">+ analysis_time()</text>
<text text-anchor="start" x="30" y="-316.5" font-family="Helvetica,sans-Serif" font-size="10.00"># settings()</text>
<text text-anchor="start" x="30" y="-305.5" font-family="Helvetica,sans-Serif" font-size="10.00"># AddWarning()</text>
<text text-anchor="start" x="30" y="-294.5" font-family="Helvetica,sans-Serif" font-size="10.00"># AddAnalysisTime()</text>
</a>
</g>
</g>
<!-- Node3&#45;&gt;Node2 -->
<g id="edge2" class="edge"><title>Node3&#45;&gt;Node2</title>
<path fill="none" stroke="midnightblue" d="M81.5,-277.35C81.5,-268.401 81.5,-259.403 81.5,-250.816"/>
<polygon fill="none" stroke="midnightblue" points="78.0001,-277.409 81.5,-287.409 85.0001,-277.409 78.0001,-277.409"/>
</g>
<!-- Node4 -->
<g id="node4" class="node"><title>Node4</title>
<polygon fill="white" stroke="#bfbfbf" points="43,-458.5 43,-515.5 120,-515.5 120,-458.5 43,-458.5"/>
<text text-anchor="middle" x="81.5" y="-503.5" font-family="Helvetica,sans-Serif" font-size="10.00">noncopyable</text>
<polyline fill="none" stroke="#bfbfbf" points="43,-496.5 120,-496.5 "/>
<text text-anchor="middle" x="81.5" y="-484.5" font-family="Helvetica,sans-Serif" font-size="10.00"> </text>
<polyline fill="none" stroke="#bfbfbf" points="43,-477.5 120,-477.5 "/>
<text text-anchor="middle" x="81.5" y="-465.5" font-family="Helvetica,sans-Serif" font-size="10.00"> </text>
</g>
<!-- Node4&#45;&gt;Node3 -->
<g id="edge3" class="edge"><title>Node4&#45;&gt;Node3</title>
<path fill="none" stroke="#8b1a1a" d="M81.5,-448.16C81.5,-439.782 81.5,-430.668 81.5,-421.533"/>
<polygon fill="none" stroke="#8b1a1a" points="78.0001,-448.324 81.5,-458.324 85.0001,-448.324 78.0001,-448.324"/>
</g>
</g>
</svg>
