<?xml version="1.0" encoding="UTF-8" standalone="no"?>
<!DOCTYPE svg PUBLIC "-//W3C//DTD SVG 1.1//EN"
 "http://www.w3.org/Graphics/SVG/1.1/DTD/svg11.dtd">
<!-- Generated by graphviz version 2.38.0 (20140413.2041)
 -->
<!-- Title: scram::core::zbdd::CutSetContainer::ExtractIntermediateCutSets Pages: 1 -->
<svg width="375pt" height="176pt"
 viewBox="0.00 0.00 375.00 176.00" xmlns="http://www.w3.org/2000/svg" xmlns:xlink="http://www.w3.org/1999/xlink">
<g id="graph0" class="graph" transform="scale(1 1) rotate(0) translate(4 172)">
<title>scram::core::zbdd::CutSetContainer::ExtractIntermediateCutSets</title>
<polygon fill="white" stroke="none" points="-4,4 -4,-172 371,-172 371,4 -4,4"/>
<!-- Node1 -->
<g id="node1" class="node"><title>Node1</title>
<polygon fill="#bfbfbf" stroke="black" points="0,-61 0,-102 197,-102 197,-61 0,-61"/>
<text text-anchor="start" x="8" y="-90" font-family="Helvetica,sans-Serif" font-size="10.00">scram::core::zbdd::</text>
<text text-anchor="start" x="8" y="-79" font-family="Helvetica,sans-Serif" font-size="10.00">CutSetContainer::ExtractIntermediate</text>
<text text-anchor="middle" x="98.5" y="-68" font-family="Helvetica,sans-Serif" font-size="10.00">CutSets</text>
</g>
<!-- Node2 -->
<g id="node2" class="node"><title>Node2</title>
<g id="a_node2"><a xlink:href="structscram_1_1core_1_1IntrusivePtrCast.xhtml#adc53e5b89cace18e05bac95316da7d91" target="_top" xlink:title="scram::core::IntrusivePtr\lCast\&lt; SetNode \&gt;::Ptr">
<polygon fill="white" stroke="black" points="233,-137.5 233,-167.5 367,-167.5 367,-137.5 233,-137.5"/>
<text text-anchor="start" x="241" y="-155.5" font-family="Helvetica,sans-Serif" font-size="10.00">scram::core::IntrusivePtr</text>
<text text-anchor="middle" x="300" y="-144.5" font-family="Helvetica,sans-Serif" font-size="10.00">Cast&lt; SetNode &gt;::Ptr</text>
</a>
</g>
</g>
<!-- Node1&#45;&gt;Node2 -->
<g id="edge1" class="edge"><title>Node1&#45;&gt;Node2</title>
<path fill="none" stroke="midnightblue" d="M157.204,-102.036C185.615,-112.148 219.597,-124.241 247.171,-134.055"/>
<polygon fill="midnightblue" stroke="midnightblue" points="246.043,-137.368 256.638,-137.424 248.39,-130.773 246.043,-137.368"/>
</g>
<!-- Node3 -->
<g id="node3" class="node"><title>Node3</title>
<g id="a_node3"><a xlink:href="structscram_1_1core_1_1IntrusivePtrCast.xhtml#af153c12dc6133b7d9f9b7a57bba29f1d" target="_top" xlink:title="scram::core::IntrusivePtr\lCast\&lt; SetNode \&gt;::Ref">
<polygon fill="white" stroke="black" points="233,-88.5 233,-118.5 367,-118.5 367,-88.5 233,-88.5"/>
<text text-anchor="start" x="241" y="-106.5" font-family="Helvetica,sans-Serif" font-size="10.00">scram::core::IntrusivePtr</text>
<text text-anchor="middle" x="300" y="-95.5" font-family="Helvetica,sans-Serif" font-size="10.00">Cast&lt; SetNode &gt;::Ref</text>
</a>
</g>
</g>
<!-- Node1&#45;&gt;Node3 -->
<g id="edge2" class="edge"><title>Node1&#45;&gt;Node3</title>
<path fill="none" stroke="midnightblue" d="M197.204,-92.2744C205.767,-93.2187 214.35,-94.1652 222.701,-95.0861"/>
<polygon fill="midnightblue" stroke="midnightblue" points="222.431,-98.5774 232.755,-96.1947 223.198,-91.6196 222.431,-98.5774"/>
</g>
<!-- Node4 -->
<g id="node4" class="node"><title>Node4</title>
<g id="a_node4"><a xlink:href="classscram_1_1core_1_1Zbdd.xhtml#aa599878612e128fa09e17d0520280dbe" target="_top" xlink:title="scram::core::Zbdd::root">
<polygon fill="white" stroke="black" points="234.5,-50 234.5,-69 365.5,-69 365.5,-50 234.5,-50"/>
<text text-anchor="middle" x="300" y="-57" font-family="Helvetica,sans-Serif" font-size="10.00">scram::core::Zbdd::root</text>
</a>
</g>
</g>
<!-- Node1&#45;&gt;Node4 -->
<g id="edge3" class="edge"><title>Node1&#45;&gt;Node4</title>
<path fill="none" stroke="midnightblue" d="M197.204,-70.7256C206.287,-69.724 215.393,-68.7199 224.219,-67.7465"/>
<polygon fill="midnightblue" stroke="midnightblue" points="224.879,-71.1951 234.435,-66.62 224.111,-64.2373 224.879,-71.1951"/>
</g>
<!-- Node5 -->
<g id="node5" class="node"><title>Node5</title>
<g id="a_node5"><a xlink:href="classscram_1_1core_1_1Zbdd.xhtml#ab71281cd644eb442dd2d3ee1c5df56c4" target="_top" xlink:title="scram::core::Zbdd::\lsettings">
<polygon fill="white" stroke="black" points="244.5,-0.5 244.5,-30.5 355.5,-30.5 355.5,-0.5 244.5,-0.5"/>
<text text-anchor="start" x="252.5" y="-18.5" font-family="Helvetica,sans-Serif" font-size="10.00">scram::core::Zbdd::</text>
<text text-anchor="middle" x="300" y="-7.5" font-family="Helvetica,sans-Serif" font-size="10.00">settings</text>
</a>
</g>
</g>
<!-- Node1&#45;&gt;Node5 -->
<g id="edge4" class="edge"><title>Node1&#45;&gt;Node5</title>
<path fill="none" stroke="midnightblue" d="M161.529,-60.979C187.9,-52.2549 218.395,-42.1663 243.954,-33.7108"/>
<polygon fill="midnightblue" stroke="midnightblue" points="245.094,-37.0202 253.489,-30.5564 242.895,-30.3745 245.094,-37.0202"/>
</g>
</g>
</svg>
