<?xml version="1.0" encoding="UTF-8" standalone="no"?>
<!DOCTYPE svg PUBLIC "-//W3C//DTD SVG 1.1//EN"
 "http://www.w3.org/Graphics/SVG/1.1/DTD/svg11.dtd">
<!-- Generated by graphviz version 2.38.0 (20140413.2041)
 -->
<!-- Title: scram::mef::Alignment Pages: 1 -->
<!--zoomable 530 -->
<svg id="main" version="1.1" xmlns="http://www.w3.org/2000/svg" xmlns:xlink="http://www.w3.org/1999/xlink" xml:space="preserve" onload="init(evt)">
<style type="text/css"><![CDATA[
.edge:hover path { stroke: red; }
.edge:hover polygon { stroke: red; fill: red; }
]]></style>
<script type="text/javascript"><![CDATA[
var edges = document.getElementsByTagName('g');
if (edges && edges.length) {
  for (var i=0;i<edges.length;i++) {
    if (edges[i].id.substr(0,4)=='edge') {
      edges[i].setAttribute('class','edge');
    }
  }
}
]]></script>
        <defs>
                <circle id="rim" cx="0" cy="0" r="7"/>
                <circle id="rim2" cx="0" cy="0" r="3.5"/>
                <g id="zoomPlus">
                        <use xlink:href="#rim" fill="#404040">
                                <set attributeName="fill" to="#808080" begin="zoomplus.mouseover" end="zoomplus.mouseout"/>
                        </use>
                        <path d="M-4,0h8M0,-4v8" fill="none" stroke="white" stroke-width="1.5" pointer-events="none"/>
                </g>
                <g id="zoomMin">
                        <use xlink:href="#rim" fill="#404040">
                                <set attributeName="fill" to="#808080" begin="zoomminus.mouseover" end="zoomminus.mouseout"/>
                        </use>
                        <path d="M-4,0h8" fill="none" stroke="white" stroke-width="1.5" pointer-events="none"/>
                </g>
                <g id="dirArrow">
                        <path fill="none" stroke="white" stroke-width="1.5" d="M0,-3.0v7 M-2.5,-0.5L0,-3.0L2.5,-0.5"/>
                </g>
               <g id="resetDef">
                       <use xlink:href="#rim2" fill="#404040">
                               <set attributeName="fill" to="#808080" begin="reset.mouseover" end="reset.mouseout"/>
                       </use>
               </g>
        </defs>

<script type="text/javascript">
var viewWidth = 468;
var viewHeight = 530;
var sectionId = 'dynsection-0';
</script>
<script xlink:href="svgpan.js"/>
<svg id="graph" class="graph">
<g id="viewport">
<title>scram::mef::Alignment</title>
<polygon fill="white" stroke="none" points="-4,4 -4,-526 464,-526 464,4 -4,4"/>
<!-- Node1 -->
<g id="node1" class="node"><title>Node1</title>
<polygon fill="#bfbfbf" stroke="black" points="231,-0.5 231,-68.5 357,-68.5 357,-0.5 231,-0.5"/>
<text text-anchor="middle" x="294" y="-56.5" font-family="Helvetica,sans-Serif" font-size="10.00">scram::mef::Alignment</text>
<polyline fill="none" stroke="black" points="231,-49.5 357,-49.5 "/>
<text text-anchor="start" x="239" y="-37.5" font-family="Helvetica,sans-Serif" font-size="10.00">+ kTypeString</text>
<polyline fill="none" stroke="black" points="231,-30.5 357,-30.5 "/>
<text text-anchor="start" x="239" y="-18.5" font-family="Helvetica,sans-Serif" font-size="10.00">+ phases()</text>
<text text-anchor="start" x="239" y="-7.5" font-family="Helvetica,sans-Serif" font-size="10.00">+ Validate()</text>
</g>
<!-- Node2 -->
<g id="node2" class="node"><title>Node2</title>
<g id="a_node2"><a xlink:href="classscram_1_1mef_1_1Element.xhtml" target="_top" xlink:title="The MEF Element with attributes and a label. ">
<polygon fill="white" stroke="black" points="152.5,-106.5 152.5,-284.5 269.5,-284.5 269.5,-106.5 152.5,-106.5"/>
<text text-anchor="middle" x="211" y="-272.5" font-family="Helvetica,sans-Serif" font-size="10.00">scram::mef::Element</text>
<polyline fill="none" stroke="black" points="152.5,-265.5 269.5,-265.5 "/>
<text text-anchor="middle" x="211" y="-253.5" font-family="Helvetica,sans-Serif" font-size="10.00"> </text>
<polyline fill="none" stroke="black" points="152.5,-246.5 269.5,-246.5 "/>
<text text-anchor="start" x="160.5" y="-234.5" font-family="Helvetica,sans-Serif" font-size="10.00">+ Element()</text>
<text text-anchor="start" x="160.5" y="-223.5" font-family="Helvetica,sans-Serif" font-size="10.00">+ name()</text>
<text text-anchor="start" x="160.5" y="-212.5" font-family="Helvetica,sans-Serif" font-size="10.00">+ name_view()</text>
<text text-anchor="start" x="160.5" y="-201.5" font-family="Helvetica,sans-Serif" font-size="10.00">+ label()</text>
<text text-anchor="start" x="160.5" y="-190.5" font-family="Helvetica,sans-Serif" font-size="10.00">+ label()</text>
<text text-anchor="start" x="160.5" y="-179.5" font-family="Helvetica,sans-Serif" font-size="10.00">+ attributes()</text>
<text text-anchor="start" x="160.5" y="-168.5" font-family="Helvetica,sans-Serif" font-size="10.00">+ AddAttribute()</text>
<text text-anchor="start" x="160.5" y="-157.5" font-family="Helvetica,sans-Serif" font-size="10.00">+ SetAttribute()</text>
<text text-anchor="start" x="160.5" y="-146.5" font-family="Helvetica,sans-Serif" font-size="10.00">+ GetAttribute()</text>
<text text-anchor="start" x="160.5" y="-135.5" font-family="Helvetica,sans-Serif" font-size="10.00">+ RemoveAttribute()</text>
<text text-anchor="start" x="160.5" y="-124.5" font-family="Helvetica,sans-Serif" font-size="10.00"># ~Element()</text>
<text text-anchor="start" x="160.5" y="-113.5" font-family="Helvetica,sans-Serif" font-size="10.00"># name()</text>
</a>
</g>
</g>
<!-- Node2&#45;&gt;Node1 -->
<g id="edge1" class="edge"><title>Node2&#45;&gt;Node1</title>
<path fill="none" stroke="midnightblue" d="M261.793,-97.1982C267.068,-87.0923 272.132,-77.3909 276.62,-68.7938"/>
<polygon fill="none" stroke="midnightblue" points="258.637,-95.6811 257.112,-106.166 264.842,-98.9205 258.637,-95.6811"/>
</g>
<!-- Node3 -->
<g id="node3" class="node"><title>Node3</title>
<g id="a_node3"><a xlink:href="classscram_1_1mef_1_1ContainerElement.xhtml" target="_top" xlink:title="Elements in MEF containers. ">
<polygon fill="white" stroke="black" points="0,-398.5 0,-455.5 164,-455.5 164,-398.5 0,-398.5"/>
<text text-anchor="middle" x="82" y="-443.5" font-family="Helvetica,sans-Serif" font-size="10.00">scram::mef::ContainerElement</text>
<polyline fill="none" stroke="black" points="0,-436.5 164,-436.5 "/>
<text text-anchor="middle" x="82" y="-424.5" font-family="Helvetica,sans-Serif" font-size="10.00"> </text>
<polyline fill="none" stroke="black" points="0,-417.5 164,-417.5 "/>
<text text-anchor="start" x="8" y="-405.5" font-family="Helvetica,sans-Serif" font-size="10.00"># container()</text>
</a>
</g>
</g>
<!-- Node3&#45;&gt;Node2 -->
<g id="edge2" class="edge"><title>Node3&#45;&gt;Node2</title>
<path fill="none" stroke="midnightblue" d="M102.661,-389.243C118.495,-361.073 141.02,-320.999 161.434,-284.682"/>
<polygon fill="none" stroke="midnightblue" points="99.4093,-387.885 97.5604,-398.317 105.511,-391.315 99.4093,-387.885"/>
</g>
<!-- Node4 -->
<g id="node4" class="node"><title>Node4</title>
<polygon fill="white" stroke="#bfbfbf" points="182.5,-398.5 182.5,-455.5 259.5,-455.5 259.5,-398.5 182.5,-398.5"/>
<text text-anchor="middle" x="221" y="-443.5" font-family="Helvetica,sans-Serif" font-size="10.00">noncopyable</text>
<polyline fill="none" stroke="#bfbfbf" points="182.5,-436.5 259.5,-436.5 "/>
<text text-anchor="middle" x="221" y="-424.5" font-family="Helvetica,sans-Serif" font-size="10.00"> </text>
<polyline fill="none" stroke="#bfbfbf" points="182.5,-417.5 259.5,-417.5 "/>
<text text-anchor="middle" x="221" y="-405.5" font-family="Helvetica,sans-Serif" font-size="10.00"> </text>
</g>
<!-- Node4&#45;&gt;Node2 -->
<g id="edge3" class="edge"><title>Node4&#45;&gt;Node2</title>
<path fill="none" stroke="#8b1a1a" d="M219.35,-388.134C218.125,-360.028 216.404,-320.525 214.842,-284.682"/>
<polygon fill="none" stroke="#8b1a1a" points="215.862,-388.479 219.794,-398.317 222.855,-388.174 215.862,-388.479"/>
</g>
<!-- Node5 -->
<g id="node5" class="node"><title>Node5</title>
<g id="a_node5"><a xlink:href="classscram_1_1mef_1_1Container.xhtml" target="_top" xlink:title="{scram::mef::Container\l\&lt; Alignment, Phase \&gt;\n||+ Add()\l+ Remove()\l+ table()\l+ table()\l+ Get()\l+ Get()\l# data()\l* table()\l* table()\l* Get()\l* Get()\l}">
<polygon fill="white" stroke="black" points="288,-106.5 288,-284.5 412,-284.5 412,-106.5 288,-106.5"/>
<text text-anchor="start" x="296" y="-272.5" font-family="Helvetica,sans-Serif" font-size="10.00">scram::mef::Container</text>
<text text-anchor="middle" x="350" y="-261.5" font-family="Helvetica,sans-Serif" font-size="10.00">&lt; Alignment, Phase &gt;</text>
<polyline fill="none" stroke="black" points="288,-254.5 412,-254.5 "/>
<text text-anchor="middle" x="350" y="-242.5" font-family="Helvetica,sans-Serif" font-size="10.00"> </text>
<polyline fill="none" stroke="black" points="288,-235.5 412,-235.5 "/>
<text text-anchor="start" x="296" y="-223.5" font-family="Helvetica,sans-Serif" font-size="10.00">+ Add()</text>
<text text-anchor="start" x="296" y="-212.5" font-family="Helvetica,sans-Serif" font-size="10.00">+ Remove()</text>
<text text-anchor="start" x="296" y="-201.5" font-family="Helvetica,sans-Serif" font-size="10.00">+ table()</text>
<text text-anchor="start" x="296" y="-190.5" font-family="Helvetica,sans-Serif" font-size="10.00">+ table()</text>
<text text-anchor="start" x="296" y="-179.5" font-family="Helvetica,sans-Serif" font-size="10.00">+ Get()</text>
<text text-anchor="start" x="296" y="-168.5" font-family="Helvetica,sans-Serif" font-size="10.00">+ Get()</text>
<text text-anchor="start" x="296" y="-157.5" font-family="Helvetica,sans-Serif" font-size="10.00"># data()</text>
<text text-anchor="start" x="296" y="-146.5" font-family="Helvetica,sans-Serif" font-size="10.00">* table()</text>
<text text-anchor="start" x="296" y="-135.5" font-family="Helvetica,sans-Serif" font-size="10.00">* table()</text>
<text text-anchor="start" x="296" y="-124.5" font-family="Helvetica,sans-Serif" font-size="10.00">* Get()</text>
<text text-anchor="start" x="296" y="-113.5" font-family="Helvetica,sans-Serif" font-size="10.00">* Get()</text>
</a>
</g>
</g>
<!-- Node5&#45;&gt;Node1 -->
<g id="edge4" class="edge"><title>Node5&#45;&gt;Node1</title>
<path fill="none" stroke="midnightblue" d="M315.515,-96.5862C312.033,-86.7007 308.693,-77.2172 305.726,-68.7938"/>
<polygon fill="none" stroke="midnightblue" points="312.265,-97.8963 318.889,-106.166 318.868,-95.5708 312.265,-97.8963"/>
</g>
<!-- Node6 -->
<g id="node6" class="node"><title>Node6</title>
<g id="a_node6"><a xlink:href="classscram_1_1mef_1_1Container.xhtml" target="_top" xlink:title="The MEF Container of unique elements. ">
<polygon fill="white" stroke="black" points="288,-332.5 288,-521.5 412,-521.5 412,-332.5 288,-332.5"/>
<text text-anchor="start" x="296" y="-509.5" font-family="Helvetica,sans-Serif" font-size="10.00">scram::mef::Container</text>
<text text-anchor="start" x="296" y="-498.5" font-family="Helvetica,sans-Serif" font-size="10.00">&lt; Self, T, Ownership,</text>
<text text-anchor="middle" x="350" y="-487.5" font-family="Helvetica,sans-Serif" font-size="10.00"> ById &gt;</text>
<polyline fill="none" stroke="black" points="288,-480.5 412,-480.5 "/>
<text text-anchor="middle" x="350" y="-468.5" font-family="Helvetica,sans-Serif" font-size="10.00"> </text>
<polyline fill="none" stroke="black" points="288,-461.5 412,-461.5 "/>
<text text-anchor="start" x="296" y="-449.5" font-family="Helvetica,sans-Serif" font-size="10.00">+ Add()</text>
<text text-anchor="start" x="296" y="-438.5" font-family="Helvetica,sans-Serif" font-size="10.00">+ Remove()</text>
<text text-anchor="start" x="296" y="-427.5" font-family="Helvetica,sans-Serif" font-size="10.00">+ table()</text>
<text text-anchor="start" x="296" y="-416.5" font-family="Helvetica,sans-Serif" font-size="10.00">+ table()</text>
<text text-anchor="start" x="296" y="-405.5" font-family="Helvetica,sans-Serif" font-size="10.00">+ Get()</text>
<text text-anchor="start" x="296" y="-394.5" font-family="Helvetica,sans-Serif" font-size="10.00">+ Get()</text>
<text text-anchor="start" x="296" y="-383.5" font-family="Helvetica,sans-Serif" font-size="10.00"># data()</text>
<text text-anchor="start" x="296" y="-372.5" font-family="Helvetica,sans-Serif" font-size="10.00">* table()</text>
<text text-anchor="start" x="296" y="-361.5" font-family="Helvetica,sans-Serif" font-size="10.00">* table()</text>
<text text-anchor="start" x="296" y="-350.5" font-family="Helvetica,sans-Serif" font-size="10.00">* Get()</text>
<text text-anchor="start" x="296" y="-339.5" font-family="Helvetica,sans-Serif" font-size="10.00">* Get()</text>
</a>
</g>
</g>
<!-- Node6&#45;&gt;Node5 -->
<g id="edge5" class="edge"><title>Node6&#45;&gt;Node5</title>
<path fill="none" stroke="orange" d="M350,-322.3C350,-309.741 350,-297.003 350,-284.697"/>
<polygon fill="orange" stroke="orange" points="346.5,-322.323 350,-332.323 353.5,-322.323 346.5,-322.323"/>
<text text-anchor="middle" x="405" y="-306" font-family="Helvetica,sans-Serif" font-size="10.00"> &lt; Alignment, Phase &gt;</text>
</g>
</g>
</svg>
        <g id="navigator" transform="translate(0 0)" fill="#404254">
                <rect fill="#f2f5e9" fill-opacity="0.5" stroke="#606060" stroke-width=".5" x="0" y="0" width="60" height="60"/>
                <use id="zoomplus" xlink:href="#zoomPlus" x="17" y="9" onmousedown="handleZoom(evt,'in')"/>
                <use id="zoomminus" xlink:href="#zoomMin" x="42" y="9" onmousedown="handleZoom(evt,'out')"/>
                <use id="reset" xlink:href="#resetDef" x="30" y="36" onmousedown="handleReset()"/>
                <g id="arrowUp" xlink:href="#dirArrow" transform="translate(30 24)" onmousedown="handlePan(0,-1)">
                  <use xlink:href="#rim" fill="#404040">
                        <set attributeName="fill" to="#808080" begin="arrowUp.mouseover" end="arrowUp.mouseout"/>
                  </use>
                  <path fill="none" stroke="white" stroke-width="1.5" d="M0,-3.0v7 M-2.5,-0.5L0,-3.0L2.5,-0.5"/>
                </g>
                <g id="arrowRight" xlink:href="#dirArrow" transform="rotate(90) translate(36 -43)" onmousedown="handlePan(1,0)">
                  <use xlink:href="#rim" fill="#404040">
                        <set attributeName="fill" to="#808080" begin="arrowRight.mouseover" end="arrowRight.mouseout"/>
                  </use>
                  <path fill="none" stroke="white" stroke-width="1.5" d="M0,-3.0v7 M-2.5,-0.5L0,-3.0L2.5,-0.5"/>
                </g>
                <g id="arrowDown" xlink:href="#dirArrow" transform="rotate(180) translate(-30 -48)" onmousedown="handlePan(0,1)">
                  <use xlink:href="#rim" fill="#404040">
                        <set attributeName="fill" to="#808080" begin="arrowDown.mouseover" end="arrowDown.mouseout"/>
                  </use>
                  <path fill="none" stroke="white" stroke-width="1.5" d="M0,-3.0v7 M-2.5,-0.5L0,-3.0L2.5,-0.5"/>
                </g>
                <g id="arrowLeft" xlink:href="#dirArrow" transform="rotate(270) translate(-36 17)" onmousedown="handlePan(-1,0)">
                  <use xlink:href="#rim" fill="#404040">
                        <set attributeName="fill" to="#808080" begin="arrowLeft.mouseover" end="arrowLeft.mouseout"/>
                  </use>
                  <path fill="none" stroke="white" stroke-width="1.5" d="M0,-3.0v7 M-2.5,-0.5L0,-3.0L2.5,-0.5"/>
                </g>
        </g>
        <svg viewBox="0 0 15 15" width="100%" height="30px" preserveAspectRatio="xMaxYMin meet">
         <g id="arrow_out" transform="scale(0.3 0.3)">
          <a xlink:href="classscram_1_1mef_1_1Alignment__inherit__graph_org.svg" target="_base">
           <rect id="button" ry="5" rx="5" y="6" x="6" height="38" width="38"
                fill="#f2f5e9" fill-opacity="0.5" stroke="#606060" stroke-width="1.0"/>
           <path id="arrow"
             d="M 11.500037,31.436501 C 11.940474,20.09759 22.043105,11.32322 32.158766,21.979434 L 37.068811,17.246167 C 37.068811,17.246167 37.088388,32 37.088388,32 L 22.160133,31.978069 C 22.160133,31.978069 26.997745,27.140456 26.997745,27.140456 C 18.528582,18.264221 13.291696,25.230495 11.500037,31.436501 z"
             style="fill:#404040;"/>
          </a>
         </g>
        </svg>
</svg>
