<?xml version="1.0" encoding="UTF-8" standalone="no"?>
<!DOCTYPE svg PUBLIC "-//W3C//DTD SVG 1.1//EN"
 "http://www.w3.org/Graphics/SVG/1.1/DTD/svg11.dtd">
<!-- Generated by graphviz version 2.38.0 (20140413.2041)
 -->
<!-- Title: ext::linear_set::end Pages: 1 -->
<svg width="269pt" height="106pt"
 viewBox="0.00 0.00 269.00 106.00" xmlns="http://www.w3.org/2000/svg" xmlns:xlink="http://www.w3.org/1999/xlink">
<g id="graph0" class="graph" transform="scale(1 1) rotate(0) translate(4 102)">
<title>ext::linear_set::end</title>
<polygon fill="white" stroke="none" points="-4,4 -4,-102 265,-102 265,4 -4,4"/>
<!-- Node1 -->
<g id="node1" class="node"><title>Node1</title>
<polygon fill="#bfbfbf" stroke="black" points="0,-30 0,-49 108,-49 108,-30 0,-30"/>
<text text-anchor="middle" x="54" y="-37" font-family="Helvetica,sans-Serif" font-size="10.00">ext::linear_set::end</text>
</g>
<!-- Node2 -->
<g id="node2" class="node"><title>Node2</title>
<g id="a_node2"><a xlink:href="classscram_1_1mef_1_1Element.xhtml#adc6d9dba718f5c89524803d035f94e05" target="_top" xlink:title="scram::mef::Element\l::GetAttribute">
<polygon fill="white" stroke="black" points="144,-49.5 144,-79.5 261,-79.5 261,-49.5 144,-49.5"/>
<text text-anchor="start" x="152" y="-67.5" font-family="Helvetica,sans-Serif" font-size="10.00">scram::mef::Element</text>
<text text-anchor="middle" x="202.5" y="-56.5" font-family="Helvetica,sans-Serif" font-size="10.00">::GetAttribute</text>
</a>
</g>
</g>
<!-- Node1&#45;&gt;Node2 -->
<g id="edge1" class="edge"><title>Node1&#45;&gt;Node2</title>
<path fill="none" stroke="midnightblue" d="M118.383,-50.3163C126.742,-51.7427 135.275,-53.1988 143.537,-54.6087"/>
<polygon fill="midnightblue" stroke="midnightblue" points="118.751,-46.8284 108.304,-48.5963 117.573,-53.7287 118.751,-46.8284"/>
</g>
<!-- Node3 -->
<g id="node3" class="node"><title>Node3</title>
<g id="a_node3"><a xlink:href="classscram_1_1mef_1_1Element.xhtml#adbe5cb2da18b56b56a6c6542a0492373" target="_top" xlink:title="Removes an attribute of this element. ">
<polygon fill="white" stroke="black" points="144,-0.5 144,-30.5 261,-30.5 261,-0.5 144,-0.5"/>
<text text-anchor="start" x="152" y="-18.5" font-family="Helvetica,sans-Serif" font-size="10.00">scram::mef::Element</text>
<text text-anchor="middle" x="202.5" y="-7.5" font-family="Helvetica,sans-Serif" font-size="10.00">::RemoveAttribute</text>
</a>
</g>
</g>
<!-- Node1&#45;&gt;Node3 -->
<g id="edge3" class="edge"><title>Node1&#45;&gt;Node3</title>
<path fill="none" stroke="midnightblue" d="M118.383,-29.1164C126.742,-27.747 135.275,-26.3491 143.537,-24.9957"/>
<polygon fill="midnightblue" stroke="midnightblue" points="117.607,-25.6968 108.304,-30.7676 118.739,-32.6048 117.607,-25.6968"/>
</g>
<!-- Node2&#45;&gt;Node2 -->
<g id="edge2" class="edge"><title>Node2&#45;&gt;Node2</title>
<path fill="none" stroke="midnightblue" d="M176.202,-89.9579C179.466,-94.679 188.232,-98 202.5,-98 225.914,-98 234.511,-89.0566 228.292,-79.659"/>
<polygon fill="midnightblue" stroke="midnightblue" points="179.713,-89.8187 176.708,-79.659 172.722,-89.4753 179.713,-89.8187"/>
</g>
</g>
</svg>
