<?xml version="1.0" encoding="UTF-8" standalone="no"?>
<!DOCTYPE svg PUBLIC "-//W3C//DTD SVG 1.1//EN"
 "http://www.w3.org/Graphics/SVG/1.1/DTD/svg11.dtd">
<!-- Generated by graphviz version 2.38.0 (20140413.2041)
 -->
<!-- Title: scram::core::FaultTreeAnalyzer::algorithm Pages: 1 -->
<!--zoomable 804 -->
<svg id="main" version="1.1" xmlns="http://www.w3.org/2000/svg" xmlns:xlink="http://www.w3.org/1999/xlink" xml:space="preserve" onload="init(evt)">
<style type="text/css"><![CDATA[
.edge:hover path { stroke: red; }
.edge:hover polygon { stroke: red; fill: red; }
]]></style>
<script type="text/javascript"><![CDATA[
var edges = document.getElementsByTagName('g');
if (edges && edges.length) {
  for (var i=0;i<edges.length;i++) {
    if (edges[i].id.substr(0,4)=='edge') {
      edges[i].setAttribute('class','edge');
    }
  }
}
]]></script>
        <defs>
                <circle id="rim" cx="0" cy="0" r="7"/>
                <circle id="rim2" cx="0" cy="0" r="3.5"/>
                <g id="zoomPlus">
                        <use xlink:href="#rim" fill="#404040">
                                <set attributeName="fill" to="#808080" begin="zoomplus.mouseover" end="zoomplus.mouseout"/>
                        </use>
                        <path d="M-4,0h8M0,-4v8" fill="none" stroke="white" stroke-width="1.5" pointer-events="none"/>
                </g>
                <g id="zoomMin">
                        <use xlink:href="#rim" fill="#404040">
                                <set attributeName="fill" to="#808080" begin="zoomminus.mouseover" end="zoomminus.mouseout"/>
                        </use>
                        <path d="M-4,0h8" fill="none" stroke="white" stroke-width="1.5" pointer-events="none"/>
                </g>
                <g id="dirArrow">
                        <path fill="none" stroke="white" stroke-width="1.5" d="M0,-3.0v7 M-2.5,-0.5L0,-3.0L2.5,-0.5"/>
                </g>
               <g id="resetDef">
                       <use xlink:href="#rim2" fill="#404040">
                               <set attributeName="fill" to="#808080" begin="reset.mouseover" end="reset.mouseout"/>
                       </use>
               </g>
        </defs>

<script type="text/javascript">
var viewWidth = 1006;
var viewHeight = 804;
var sectionId = 'dynsection-2';
</script>
<script xlink:href="svgpan.js"/>
<svg id="graph" class="graph">
<g id="viewport">
<title>scram::core::FaultTreeAnalyzer::algorithm</title>
<polygon fill="white" stroke="none" points="-4,4 -4,-799.59 1002,-799.59 1002,4 -4,4"/>
<!-- Node1 -->
<g id="node1" class="node"><title>Node1</title>
<polygon fill="#bfbfbf" stroke="black" points="0,-526.074 0,-556.074 163,-556.074 163,-526.074 0,-526.074"/>
<text text-anchor="start" x="8" y="-544.074" font-family="Helvetica,sans-Serif" font-size="10.00">scram::core::FaultTreeAnalyzer</text>
<text text-anchor="middle" x="81.5" y="-533.074" font-family="Helvetica,sans-Serif" font-size="10.00">::algorithm</text>
</g>
<!-- Node2 -->
<g id="node2" class="node"><title>Node2</title>
<g id="a_node2"><a xlink:href="classscram_1_1core_1_1Zbdd.xhtml#aac27b9279de1ee1a63822896daeca0c7" target="_top" xlink:title="Runs the analysis with the representation of a PDAG as ZBDD. ">
<polygon fill="white" stroke="black" points="199,-526.074 199,-556.074 310,-556.074 310,-526.074 199,-526.074"/>
<text text-anchor="start" x="207" y="-544.074" font-family="Helvetica,sans-Serif" font-size="10.00">scram::core::Zbdd::</text>
<text text-anchor="middle" x="254.5" y="-533.074" font-family="Helvetica,sans-Serif" font-size="10.00">Analyze</text>
</a>
</g>
</g>
<!-- Node1&#45;&gt;Node2 -->
<g id="edge1" class="edge"><title>Node1&#45;&gt;Node2</title>
<path fill="none" stroke="midnightblue" d="M163.243,-541.074C171.85,-541.074 180.521,-541.074 188.907,-541.074"/>
<polygon fill="midnightblue" stroke="midnightblue" points="188.97,-544.574 198.97,-541.074 188.97,-537.574 188.97,-544.574"/>
</g>
<!-- Node3 -->
<g id="node3" class="node"><title>Node3</title>
<g id="a_node3"><a xlink:href="structscram_1_1core_1_1IntrusivePtrCast.xhtml#af153c12dc6133b7d9f9b7a57bba29f1d" target="_top" xlink:title="scram::core::IntrusivePtr\lCast\&lt; SetNode \&gt;::Ref">
<polygon fill="white" stroke="black" points="864,-266.074 864,-296.074 998,-296.074 998,-266.074 864,-266.074"/>
<text text-anchor="start" x="872" y="-284.074" font-family="Helvetica,sans-Serif" font-size="10.00">scram::core::IntrusivePtr</text>
<text text-anchor="middle" x="931" y="-273.074" font-family="Helvetica,sans-Serif" font-size="10.00">Cast&lt; SetNode &gt;::Ref</text>
</a>
</g>
</g>
<!-- Node2&#45;&gt;Node3 -->
<g id="edge2" class="edge"><title>Node2&#45;&gt;Node3</title>
<path fill="none" stroke="midnightblue" d="M256.009,-525.949C258.419,-472.747 271.94,-290.73 346,-166.074 391.002,-90.3279 410.784,-64.7466 493,-33.0737 633.475,21.0431 710.233,10.6958 828,-83.0737 884.889,-128.371 913.241,-213.969 924.282,-256.212"/>
<polygon fill="midnightblue" stroke="midnightblue" points="920.9,-257.115 926.723,-265.966 927.69,-255.416 920.9,-257.115"/>
</g>
<!-- Node4 -->
<g id="node4" class="node"><title>Node4</title>
<g id="a_node4"><a xlink:href="classscram_1_1core_1_1SetNode.xhtml#a2d7f99792b82961df2e5ecfcd735bb5f" target="_top" xlink:title="scram::core::SetNode\l::max_set_order">
<polygon fill="white" stroke="black" points="870,-517.074 870,-547.074 992,-547.074 992,-517.074 870,-517.074"/>
<text text-anchor="start" x="878" y="-535.074" font-family="Helvetica,sans-Serif" font-size="10.00">scram::core::SetNode</text>
<text text-anchor="middle" x="931" y="-524.074" font-family="Helvetica,sans-Serif" font-size="10.00">::max_set_order</text>
</a>
</g>
</g>
<!-- Node2&#45;&gt;Node4 -->
<g id="edge3" class="edge"><title>Node2&#45;&gt;Node4</title>
<path fill="none" stroke="midnightblue" d="M262.804,-556.114C275.961,-581.692 306.034,-633.734 346,-663.074 520.297,-791.027 649.411,-850.966 828,-729.074 864.266,-704.321 844.229,-676.279 864,-637.074 878.695,-607.934 899.125,-576.492 913.348,-555.689"/>
<polygon fill="midnightblue" stroke="midnightblue" points="916.412,-557.412 919.216,-547.195 910.652,-553.434 916.412,-557.412"/>
</g>
<!-- Node5 -->
<g id="node5" class="node"><title>Node5</title>
<g id="a_node5"><a xlink:href="classscram_1_1core_1_1Settings.xhtml#a0e43ec0f017d23a4fa4e376c4060d380" target="_top" xlink:title="scram::core::Settings\l::limit_order">
<polygon fill="white" stroke="black" points="503,-652.074 503,-682.074 622,-682.074 622,-652.074 503,-652.074"/>
<text text-anchor="start" x="511" y="-670.074" font-family="Helvetica,sans-Serif" font-size="10.00">scram::core::Settings</text>
<text text-anchor="middle" x="562.5" y="-659.074" font-family="Helvetica,sans-Serif" font-size="10.00">::limit_order</text>
</a>
</g>
</g>
<!-- Node2&#45;&gt;Node5 -->
<g id="edge4" class="edge"><title>Node2&#45;&gt;Node5</title>
<path fill="none" stroke="midnightblue" d="M292.107,-556.147C347.972,-579.151 454.434,-622.988 515.461,-648.117"/>
<polygon fill="midnightblue" stroke="midnightblue" points="514.272,-651.412 524.851,-651.983 516.937,-644.939 514.272,-651.412"/>
</g>
<!-- Node6 -->
<g id="node6" class="node"><title>Node6</title>
<g id="a_node6"><a xlink:href="classscram_1_1core_1_1Zbdd.xhtml#a3dbb8ef5da2882daf6c39e9724eae459" target="_top" xlink:title="Removes subsets in ZBDD. ">
<polygon fill="white" stroke="black" points="507,-526.074 507,-556.074 618,-556.074 618,-526.074 507,-526.074"/>
<text text-anchor="start" x="515" y="-544.074" font-family="Helvetica,sans-Serif" font-size="10.00">scram::core::Zbdd::</text>
<text text-anchor="middle" x="562.5" y="-533.074" font-family="Helvetica,sans-Serif" font-size="10.00">Minimize</text>
</a>
</g>
</g>
<!-- Node2&#45;&gt;Node6 -->
<g id="edge5" class="edge"><title>Node2&#45;&gt;Node6</title>
<path fill="none" stroke="midnightblue" d="M310.207,-541.074C362.479,-541.074 441.297,-541.074 496.693,-541.074"/>
<polygon fill="midnightblue" stroke="midnightblue" points="496.752,-544.574 506.752,-541.074 496.752,-537.574 496.752,-544.574"/>
</g>
<!-- Node9 -->
<g id="node9" class="node"><title>Node9</title>
<g id="a_node9"><a xlink:href="classscram_1_1core_1_1SetNode.xhtml#a88d05af2b9f4f08b7bc66a31c2b9e249" target="_top" xlink:title="scram::core::SetNode\l::minimal">
<polygon fill="white" stroke="black" points="687,-690.074 687,-720.074 809,-720.074 809,-690.074 687,-690.074"/>
<text text-anchor="start" x="695" y="-708.074" font-family="Helvetica,sans-Serif" font-size="10.00">scram::core::SetNode</text>
<text text-anchor="middle" x="748" y="-697.074" font-family="Helvetica,sans-Serif" font-size="10.00">::minimal</text>
</a>
</g>
</g>
<!-- Node2&#45;&gt;Node9 -->
<g id="edge19" class="edge"><title>Node2&#45;&gt;Node9</title>
<path fill="none" stroke="midnightblue" d="M271.276,-556.294C288.662,-572.58 317.9,-598.565 346,-617.074 407.084,-657.308 422.327,-672.219 493,-691.074 553.607,-707.243 625.148,-709.78 676.835,-708.834"/>
<polygon fill="midnightblue" stroke="midnightblue" points="676.982,-712.332 686.898,-708.601 676.82,-705.333 676.982,-712.332"/>
</g>
<!-- Node16 -->
<g id="node16" class="node"><title>Node16</title>
<g id="a_node16"><a xlink:href="classscram_1_1core_1_1Zbdd.xhtml#a8cfceb8301f35bce33c34f1283f33725" target="_top" xlink:title="Applies non&#45;declarative substitutions at the end of analysis. ">
<polygon fill="white" stroke="black" points="346,-357.074 346,-387.074 457,-387.074 457,-357.074 346,-357.074"/>
<text text-anchor="start" x="354" y="-375.074" font-family="Helvetica,sans-Serif" font-size="10.00">scram::core::Zbdd::</text>
<text text-anchor="middle" x="401.5" y="-364.074" font-family="Helvetica,sans-Serif" font-size="10.00">ApplySubstitutions</text>
</a>
</g>
</g>
<!-- Node2&#45;&gt;Node16 -->
<g id="edge20" class="edge"><title>Node2&#45;&gt;Node16</title>
<path fill="none" stroke="midnightblue" d="M268.624,-525.778C294.181,-495.99 350.752,-430.056 380.82,-395.011"/>
<polygon fill="midnightblue" stroke="midnightblue" points="383.655,-397.082 387.511,-387.213 378.343,-392.523 383.655,-397.082"/>
</g>
<!-- Node24 -->
<g id="node24" class="node"><title>Node24</title>
<g id="a_node24"><a xlink:href="classscram_1_1core_1_1Zbdd.xhtml#a3e6359ba152137912cbafc500c2e6430" target="_top" xlink:title="Freezes the graph. ">
<polygon fill="white" stroke="black" points="346,-176.074 346,-206.074 457,-206.074 457,-176.074 346,-176.074"/>
<text text-anchor="start" x="354" y="-194.074" font-family="Helvetica,sans-Serif" font-size="10.00">scram::core::Zbdd::</text>
<text text-anchor="middle" x="401.5" y="-183.074" font-family="Helvetica,sans-Serif" font-size="10.00">Freeze</text>
</a>
</g>
</g>
<!-- Node2&#45;&gt;Node24 -->
<g id="edge43" class="edge"><title>Node2&#45;&gt;Node24</title>
<path fill="none" stroke="midnightblue" d="M261.73,-526.035C284.314,-471.523 362.025,-283.944 390.197,-215.944"/>
<polygon fill="midnightblue" stroke="midnightblue" points="393.535,-217.029 394.129,-206.451 387.068,-214.35 393.535,-217.029"/>
</g>
<!-- Node6&#45;&gt;Node3 -->
<g id="edge7" class="edge"><title>Node6&#45;&gt;Node3</title>
<path fill="none" stroke="midnightblue" d="M618.146,-526.86C685.702,-513.243 795.718,-492.383 828,-467.074 881.821,-424.878 910.246,-346.35 922.475,-306.008"/>
<polygon fill="midnightblue" stroke="midnightblue" points="925.908,-306.742 925.373,-296.16 919.192,-304.766 925.908,-306.742"/>
</g>
<!-- Node6&#45;&gt;Node3 -->
<g id="edge11" class="edge"><title>Node6&#45;&gt;Node3</title>
<path fill="none" stroke="midnightblue" d="M618.146,-539.257C685.702,-531.243 795.718,-510.383 828,-485.074 886.748,-439.015 915.237,-349.669 925.434,-305.943"/>
<polygon fill="midnightblue" stroke="midnightblue" points="928.867,-306.625 927.59,-296.107 922.03,-305.126 928.867,-306.625"/>
</g>
<!-- Node7 -->
<g id="node7" class="node"><title>Node7</title>
<g id="a_node7"><a xlink:href="structscram_1_1core_1_1IntrusivePtrCast.xhtml#adc53e5b89cace18e05bac95316da7d91" target="_top" xlink:title="scram::core::IntrusivePtr\lCast\&lt; SetNode \&gt;::Ptr">
<polygon fill="white" stroke="black" points="681,-543.074 681,-573.074 815,-573.074 815,-543.074 681,-543.074"/>
<text text-anchor="start" x="689" y="-561.074" font-family="Helvetica,sans-Serif" font-size="10.00">scram::core::IntrusivePtr</text>
<text text-anchor="middle" x="748" y="-550.074" font-family="Helvetica,sans-Serif" font-size="10.00">Cast&lt; SetNode &gt;::Ptr</text>
</a>
</g>
</g>
<!-- Node6&#45;&gt;Node7 -->
<g id="edge6" class="edge"><title>Node6&#45;&gt;Node7</title>
<path fill="none" stroke="midnightblue" d="M618.059,-546.128C634.574,-547.658 653.024,-549.367 670.687,-551.004"/>
<polygon fill="midnightblue" stroke="midnightblue" points="670.696,-554.52 680.976,-551.957 671.342,-547.549 670.696,-554.52"/>
</g>
<!-- Node8 -->
<g id="node8" class="node"><title>Node8</title>
<g id="a_node8"><a xlink:href="classscram_1_1core_1_1Zbdd.xhtml#a42af18229ba2e80201bc0fdac07b7091" target="_top" xlink:title="Finds or adds a unique SetNode in the ZBDD. ">
<polygon fill="white" stroke="black" points="692.5,-437.074 692.5,-467.074 803.5,-467.074 803.5,-437.074 692.5,-437.074"/>
<text text-anchor="start" x="700.5" y="-455.074" font-family="Helvetica,sans-Serif" font-size="10.00">scram::core::Zbdd::</text>
<text text-anchor="middle" x="748" y="-444.074" font-family="Helvetica,sans-Serif" font-size="10.00">FindOrAddVertex</text>
</a>
</g>
</g>
<!-- Node6&#45;&gt;Node8 -->
<g id="edge8" class="edge"><title>Node6&#45;&gt;Node8</title>
<path fill="none" stroke="midnightblue" d="M612.557,-525.962C619.298,-523.092 625.969,-519.8 632,-516.074 650.723,-504.507 649.352,-493.762 668,-482.074 674.555,-477.965 681.762,-474.276 689.074,-471.008"/>
<polygon fill="midnightblue" stroke="midnightblue" points="690.498,-474.206 698.351,-467.094 687.777,-467.757 690.498,-474.206"/>
</g>
<!-- Node6&#45;&gt;Node9 -->
<g id="edge12" class="edge"><title>Node6&#45;&gt;Node9</title>
<path fill="none" stroke="midnightblue" d="M581.696,-556.202C596.513,-569.163 617.307,-588.887 632,-609.074 652.82,-637.679 641.031,-657.173 668,-680.074 671.058,-682.671 674.388,-684.999 677.894,-687.085"/>
<polygon fill="midnightblue" stroke="midnightblue" points="676.43,-690.269 686.915,-691.791 679.667,-684.063 676.43,-690.269"/>
</g>
<!-- Node10 -->
<g id="node10" class="node"><title>Node10</title>
<g id="a_node10"><a xlink:href="classscram_1_1core_1_1Terminal.xhtml#a7a25b0b40498f4876571a5dac4e724c3" target="_top" xlink:title="scram::core::Terminal\l::value">
<polygon fill="white" stroke="black" points="688.5,-641.074 688.5,-671.074 807.5,-671.074 807.5,-641.074 688.5,-641.074"/>
<text text-anchor="start" x="696.5" y="-659.074" font-family="Helvetica,sans-Serif" font-size="10.00">scram::core::Terminal</text>
<text text-anchor="middle" x="748" y="-648.074" font-family="Helvetica,sans-Serif" font-size="10.00">::value</text>
</a>
</g>
</g>
<!-- Node6&#45;&gt;Node10 -->
<g id="edge13" class="edge"><title>Node6&#45;&gt;Node10</title>
<path fill="none" stroke="midnightblue" d="M608.988,-556.238C617.198,-560.249 625.275,-565.156 632,-571.074 655.347,-591.617 643.594,-611.8 668,-631.074 671.525,-633.857 675.364,-636.333 679.39,-638.536"/>
<polygon fill="midnightblue" stroke="midnightblue" points="677.925,-641.715 688.45,-642.934 680.982,-635.418 677.925,-641.715"/>
</g>
<!-- Node12 -->
<g id="node12" class="node"><title>Node12</title>
<g id="a_node12"><a xlink:href="classscram_1_1core_1_1Settings.xhtml#ae64f362fceb44402e101140dfc1725ba" target="_top" xlink:title="scram::core::Settings\l::prime_implicants">
<polygon fill="white" stroke="black" points="688.5,-592.074 688.5,-622.074 807.5,-622.074 807.5,-592.074 688.5,-592.074"/>
<text text-anchor="start" x="696.5" y="-610.074" font-family="Helvetica,sans-Serif" font-size="10.00">scram::core::Settings</text>
<text text-anchor="middle" x="748" y="-599.074" font-family="Helvetica,sans-Serif" font-size="10.00">::prime_implicants</text>
</a>
</g>
</g>
<!-- Node6&#45;&gt;Node12 -->
<g id="edge15" class="edge"><title>Node6&#45;&gt;Node12</title>
<path fill="none" stroke="midnightblue" d="M600.028,-556.103C619.989,-564.139 645.219,-574.01 668,-582.074 674.378,-584.331 681.079,-586.603 687.769,-588.808"/>
<polygon fill="midnightblue" stroke="midnightblue" points="686.931,-592.216 697.523,-591.98 689.096,-585.559 686.931,-592.216"/>
</g>
<!-- Node13 -->
<g id="node13" class="node"><title>Node13</title>
<g id="a_node13"><a xlink:href="classscram_1_1core_1_1NonTerminal.xhtml#aeeaafd82ae5890a7ec3462c68ffc8628" target="_top" xlink:title="scram::core::NonTerminal\l::index">
<polygon fill="white" stroke="black" points="678.5,-290.074 678.5,-320.074 817.5,-320.074 817.5,-290.074 678.5,-290.074"/>
<text text-anchor="start" x="686.5" y="-308.074" font-family="Helvetica,sans-Serif" font-size="10.00">scram::core::NonTerminal</text>
<text text-anchor="middle" x="748" y="-297.074" font-family="Helvetica,sans-Serif" font-size="10.00">::index</text>
</a>
</g>
</g>
<!-- Node6&#45;&gt;Node13 -->
<g id="edge16" class="edge"><title>Node6&#45;&gt;Node13</title>
<path fill="none" stroke="midnightblue" d="M618.206,-527.349C623.391,-524.312 628.142,-520.603 632,-516.074 686.881,-451.642 611.368,-391.972 668,-329.074 668.767,-328.221 669.564,-327.399 670.387,-326.606"/>
<polygon fill="midnightblue" stroke="midnightblue" points="672.786,-329.17 678.444,-320.213 668.435,-323.686 672.786,-329.17"/>
</g>
<!-- Node14 -->
<g id="node14" class="node"><title>Node14</title>
<g id="a_node14"><a xlink:href="classscram_1_1core_1_1NonTerminal.xhtml#a9230422e92d086c34f67bcb864bfc8a9" target="_top" xlink:title="scram::core::NonTerminal\l::module">
<polygon fill="white" stroke="black" points="678.5,-388.074 678.5,-418.074 817.5,-418.074 817.5,-388.074 678.5,-388.074"/>
<text text-anchor="start" x="686.5" y="-406.074" font-family="Helvetica,sans-Serif" font-size="10.00">scram::core::NonTerminal</text>
<text text-anchor="middle" x="748" y="-395.074" font-family="Helvetica,sans-Serif" font-size="10.00">::module</text>
</a>
</g>
</g>
<!-- Node6&#45;&gt;Node14 -->
<g id="edge17" class="edge"><title>Node6&#45;&gt;Node14</title>
<path fill="none" stroke="midnightblue" d="M618.045,-526.187C623.13,-523.371 627.903,-520.032 632,-516.074 662.686,-486.426 636.51,-455.866 668,-427.074 669.157,-426.016 670.359,-425.004 671.601,-424.038"/>
<polygon fill="midnightblue" stroke="midnightblue" points="673.894,-426.717 680.304,-418.282 670.033,-420.879 673.894,-426.717"/>
</g>
<!-- Node15 -->
<g id="node15" class="node"><title>Node15</title>
<g id="a_node15"><a xlink:href="classscram_1_1core_1_1NonTerminal.xhtml#adcdd0c5114aa6a1d32a03928adc07c49" target="_top" xlink:title="scram::core::NonTerminal\l::coherent">
<polygon fill="white" stroke="black" points="678.5,-339.074 678.5,-369.074 817.5,-369.074 817.5,-339.074 678.5,-339.074"/>
<text text-anchor="start" x="686.5" y="-357.074" font-family="Helvetica,sans-Serif" font-size="10.00">scram::core::NonTerminal</text>
<text text-anchor="middle" x="748" y="-346.074" font-family="Helvetica,sans-Serif" font-size="10.00">::coherent</text>
</a>
</g>
</g>
<!-- Node6&#45;&gt;Node15 -->
<g id="edge18" class="edge"><title>Node6&#45;&gt;Node15</title>
<path fill="none" stroke="midnightblue" d="M618.25,-526.902C623.36,-523.949 628.082,-520.382 632,-516.074 674.648,-469.181 624.079,-423.776 668,-378.074 668.922,-377.114 669.881,-376.193 670.873,-375.308"/>
<polygon fill="midnightblue" stroke="midnightblue" points="673.127,-377.993 679.061,-369.216 668.949,-372.377 673.127,-377.993"/>
</g>
<!-- Node8&#45;&gt;Node3 -->
<g id="edge9" class="edge"><title>Node8&#45;&gt;Node3</title>
<path fill="none" stroke="midnightblue" d="M803.549,-440.022C812.204,-436.68 820.697,-432.44 828,-427.074 871.806,-394.883 903.551,-338.046 919.14,-305.599"/>
<polygon fill="midnightblue" stroke="midnightblue" points="922.392,-306.907 923.455,-296.366 916.05,-303.944 922.392,-306.907"/>
</g>
<!-- Node8&#45;&gt;Node4 -->
<g id="edge10" class="edge"><title>Node8&#45;&gt;Node4</title>
<path fill="none" stroke="midnightblue" d="M783.045,-467.121C812.278,-480.042 854.597,-498.746 886.321,-512.768"/>
<polygon fill="midnightblue" stroke="midnightblue" points="885.239,-516.117 895.801,-516.958 888.069,-509.714 885.239,-516.117"/>
</g>
<!-- Node11 -->
<g id="node11" class="node"><title>Node11</title>
<g id="a_node11"><a xlink:href="classscram_1_1core_1_1Vertex.xhtml#a8a4a6e9871c7b80b9951fea57617d438" target="_top" xlink:title="scram::core::Vertex::id">
<polygon fill="white" stroke="black" points="868.5,-646.574 868.5,-665.574 993.5,-665.574 993.5,-646.574 868.5,-646.574"/>
<text text-anchor="middle" x="931" y="-653.574" font-family="Helvetica,sans-Serif" font-size="10.00">scram::core::Vertex::id</text>
</a>
</g>
</g>
<!-- Node10&#45;&gt;Node11 -->
<g id="edge14" class="edge"><title>Node10&#45;&gt;Node11</title>
<path fill="none" stroke="midnightblue" d="M807.766,-656.074C823.836,-656.074 841.436,-656.074 858.148,-656.074"/>
<polygon fill="midnightblue" stroke="midnightblue" points="858.418,-659.574 868.418,-656.074 858.418,-652.574 858.418,-659.574"/>
</g>
<!-- Node16&#45;&gt;Node3 -->
<g id="edge25" class="edge"><title>Node16&#45;&gt;Node3</title>
<path fill="none" stroke="midnightblue" d="M406.444,-356.799C421.324,-306.575 474.161,-151.358 493,-138.074 614.706,-52.2523 695.38,-63.3283 828,-131.074 878.446,-156.843 909.712,-220.498 922.834,-256.257"/>
<polygon fill="midnightblue" stroke="midnightblue" points="919.615,-257.66 926.19,-265.968 926.231,-255.373 919.615,-257.66"/>
</g>
<!-- Node16&#45;&gt;Node3 -->
<g id="edge41" class="edge"><title>Node16&#45;&gt;Node3</title>
<path fill="none" stroke="midnightblue" d="M408.965,-356.813C426.546,-309.34 475.107,-168.691 493,-156.074 614.706,-70.2523 695.38,-81.3283 828,-149.074 872.915,-172.017 902.625,-224.994 917.861,-256.584"/>
<polygon fill="midnightblue" stroke="midnightblue" points="914.878,-258.464 922.301,-266.023 921.212,-255.485 914.878,-258.464"/>
</g>
<!-- Node16&#45;&gt;Node5 -->
<g id="edge23" class="edge"><title>Node16&#45;&gt;Node5</title>
<path fill="none" stroke="midnightblue" d="M403.522,-387.388C407.266,-431.746 423.893,-561.926 493,-637.074 496.287,-640.648 500.076,-643.819 504.151,-646.627"/>
<polygon fill="midnightblue" stroke="midnightblue" points="502.478,-649.706 512.844,-651.896 506.106,-643.72 502.478,-649.706"/>
</g>
<!-- Node16&#45;&gt;Node6 -->
<g id="edge24" class="edge"><title>Node16&#45;&gt;Node6</title>
<path fill="none" stroke="midnightblue" d="M408.193,-387.435C419.749,-416.595 448.682,-480.248 493,-516.074 495.067,-517.745 497.257,-519.31 499.534,-520.776"/>
<polygon fill="midnightblue" stroke="midnightblue" points="498.253,-524.072 508.681,-525.946 501.698,-517.978 498.253,-524.072"/>
</g>
<!-- Node16&#45;&gt;Node8 -->
<g id="edge22" class="edge"><title>Node16&#45;&gt;Node8</title>
<path fill="none" stroke="midnightblue" d="M438.119,-387.153C454.592,-393.685 474.556,-400.984 493,-406.074 556.382,-423.565 630.544,-436.117 682.31,-443.645"/>
<polygon fill="midnightblue" stroke="midnightblue" points="681.959,-447.131 692.355,-445.084 682.952,-440.201 681.959,-447.131"/>
</g>
<!-- Node16&#45;&gt;Node9 -->
<g id="edge42" class="edge"><title>Node16&#45;&gt;Node9</title>
<path fill="none" stroke="midnightblue" d="M403.965,-387.173C408.737,-427.945 427.533,-541.22 493,-601.074 540.537,-644.534 577.077,-608.428 632,-642.074 651.838,-654.226 648.282,-667.727 668,-680.074 671.334,-682.161 674.857,-684.088 678.491,-685.865"/>
<polygon fill="midnightblue" stroke="midnightblue" points="677.148,-689.098 687.706,-689.978 680.001,-682.706 677.148,-689.098"/>
</g>
<!-- Node16&#45;&gt;Node10 -->
<g id="edge36" class="edge"><title>Node16&#45;&gt;Node10</title>
<path fill="none" stroke="midnightblue" d="M405.265,-387.1C412.696,-423.217 436.493,-515.568 493,-565.074 541.74,-607.774 573.034,-582.205 632,-609.074 649.063,-616.849 650.937,-623.299 668,-631.074 672.991,-633.348 678.247,-635.499 683.58,-637.513"/>
<polygon fill="midnightblue" stroke="midnightblue" points="682.624,-640.889 693.219,-640.989 684.999,-634.304 682.624,-640.889"/>
</g>
<!-- Node16&#45;&gt;Node13 -->
<g id="edge39" class="edge"><title>Node16&#45;&gt;Node13</title>
<path fill="none" stroke="midnightblue" d="M457.327,-374.546C504.789,-375.001 574.633,-371.578 632,-352.074 649.976,-345.962 650.755,-337.019 668,-329.074 672.14,-327.166 676.47,-325.363 680.879,-323.666"/>
<polygon fill="midnightblue" stroke="midnightblue" points="682.414,-326.833 690.615,-320.125 680.021,-320.254 682.414,-326.833"/>
</g>
<!-- Node16&#45;&gt;Node14 -->
<g id="edge38" class="edge"><title>Node16&#45;&gt;Node14</title>
<path fill="none" stroke="midnightblue" d="M457.436,-381.352C469.149,-383.111 481.464,-384.798 493,-386.074 551.563,-392.551 618.014,-396.892 668.256,-399.566"/>
<polygon fill="midnightblue" stroke="midnightblue" points="668.233,-403.069 678.402,-400.095 668.597,-396.079 668.233,-403.069"/>
</g>
<!-- Node17 -->
<g id="node17" class="node"><title>Node17</title>
<g id="a_node17"><a xlink:href="classscram_1_1core_1_1Zbdd.xhtml#a7c1129acd9810b5b9ff4952f587ce490" target="_top" xlink:title="Clears all memoization tables. ">
<polygon fill="white" stroke="black" points="507,-43.0737 507,-73.0737 618,-73.0737 618,-43.0737 507,-43.0737"/>
<text text-anchor="start" x="515" y="-61.0737" font-family="Helvetica,sans-Serif" font-size="10.00">scram::core::Zbdd::</text>
<text text-anchor="middle" x="562.5" y="-50.0737" font-family="Helvetica,sans-Serif" font-size="10.00">ClearTables</text>
</a>
</g>
</g>
<!-- Node16&#45;&gt;Node17 -->
<g id="edge21" class="edge"><title>Node16&#45;&gt;Node17</title>
<path fill="none" stroke="midnightblue" d="M408.054,-357.015C418.254,-329.16 440.442,-267.636 457,-215.074 474.627,-159.116 454.443,-132.292 493,-88.0737 496.058,-84.5663 499.603,-81.4529 503.438,-78.692"/>
<polygon fill="midnightblue" stroke="midnightblue" points="505.602,-81.467 512.221,-73.1948 501.888,-75.5334 505.602,-81.467"/>
</g>
<!-- Node18 -->
<g id="node18" class="node"><title>Node18</title>
<g id="a_node18"><a xlink:href="classscram_1_1core_1_1NonTerminal.xhtml#a7b70ab1b978f3197458c95e0891fd79c" target="_top" xlink:title="scram::core::NonTerminal\l::mark">
<polygon fill="white" stroke="black" points="493,-225.074 493,-255.074 632,-255.074 632,-225.074 493,-225.074"/>
<text text-anchor="start" x="501" y="-243.074" font-family="Helvetica,sans-Serif" font-size="10.00">scram::core::NonTerminal</text>
<text text-anchor="middle" x="562.5" y="-232.074" font-family="Helvetica,sans-Serif" font-size="10.00">::mark</text>
</a>
</g>
</g>
<!-- Node16&#45;&gt;Node18 -->
<g id="edge26" class="edge"><title>Node16&#45;&gt;Node18</title>
<path fill="none" stroke="midnightblue" d="M412.582,-357.07C427.798,-335.385 458.541,-295.142 493,-270.074 498.236,-266.264 504.032,-262.801 509.971,-259.693"/>
<polygon fill="midnightblue" stroke="midnightblue" points="511.914,-262.639 519.361,-255.102 508.84,-256.35 511.914,-262.639"/>
</g>
<!-- Node19 -->
<g id="node19" class="node"><title>Node19</title>
<g id="a_node19"><a xlink:href="classscram_1_1core_1_1NonTerminal.xhtml#a7b184b2ba68a289aae9f3737f1d13b97" target="_top" xlink:title="scram::core::NonTerminal\l::high">
<polygon fill="white" stroke="black" points="678.5,-241.074 678.5,-271.074 817.5,-271.074 817.5,-241.074 678.5,-241.074"/>
<text text-anchor="start" x="686.5" y="-259.074" font-family="Helvetica,sans-Serif" font-size="10.00">scram::core::NonTerminal</text>
<text text-anchor="middle" x="748" y="-248.074" font-family="Helvetica,sans-Serif" font-size="10.00">::high</text>
</a>
</g>
</g>
<!-- Node16&#45;&gt;Node19 -->
<g id="edge27" class="edge"><title>Node16&#45;&gt;Node19</title>
<path fill="none" stroke="midnightblue" d="M417.686,-356.832C434.567,-340.828 463.377,-316.203 493,-303.074 548.638,-278.415 616.662,-266.692 668.307,-261.12"/>
<polygon fill="midnightblue" stroke="midnightblue" points="668.818,-264.586 678.41,-260.085 668.105,-257.622 668.818,-264.586"/>
</g>
<!-- Node20 -->
<g id="node20" class="node"><title>Node20</title>
<g id="a_node20"><a xlink:href="classscram_1_1core_1_1NonTerminal.xhtml#adeb100923176ebd5f820c75b79280796" target="_top" xlink:title="scram::core::NonTerminal::low">
<polygon fill="white" stroke="black" points="668,-201.574 668,-220.574 828,-220.574 828,-201.574 668,-201.574"/>
<text text-anchor="middle" x="748" y="-208.574" font-family="Helvetica,sans-Serif" font-size="10.00">scram::core::NonTerminal::low</text>
</a>
</g>
</g>
<!-- Node16&#45;&gt;Node20 -->
<g id="edge28" class="edge"><title>Node16&#45;&gt;Node20</title>
<path fill="none" stroke="midnightblue" d="M405.936,-356.911C414.285,-324.081 439.039,-246.822 493,-215.074 557.635,-177.045 648.469,-187.771 702.181,-199.261"/>
<polygon fill="midnightblue" stroke="midnightblue" points="701.564,-202.709 712.087,-201.479 703.093,-195.878 701.564,-202.709"/>
</g>
<!-- Node21 -->
<g id="node21" class="node"><title>Node21</title>
<g id="a_node21"><a xlink:href="classscram_1_1core_1_1Zbdd.xhtml#aed1eaa96df30e6eaa32e9e51427c9743" target="_top" xlink:title="scram::core::Zbdd::\lmodules">
<polygon fill="white" stroke="black" points="507,-313.074 507,-343.074 618,-343.074 618,-313.074 507,-313.074"/>
<text text-anchor="start" x="515" y="-331.074" font-family="Helvetica,sans-Serif" font-size="10.00">scram::core::Zbdd::</text>
<text text-anchor="middle" x="562.5" y="-320.074" font-family="Helvetica,sans-Serif" font-size="10.00">modules</text>
</a>
</g>
</g>
<!-- Node16&#45;&gt;Node21 -->
<g id="edge29" class="edge"><title>Node16&#45;&gt;Node21</title>
<path fill="none" stroke="midnightblue" d="M456.774,-357.054C469.877,-353.428 484,-349.52 497.502,-345.784"/>
<polygon fill="midnightblue" stroke="midnightblue" points="498.496,-349.14 507.201,-343.1 496.629,-342.394 498.496,-349.14"/>
</g>
<!-- Node22 -->
<g id="node22" class="node"><title>Node22</title>
<g id="a_node22"><a xlink:href="classscram_1_1core_1_1NonTerminal.xhtml#af5853746ad388f479a7aa45c5d843466" target="_top" xlink:title="scram::core::NonTerminal\l\&lt; SetNode \&gt;::order">
<polygon fill="white" stroke="black" points="678.5,-150.074 678.5,-180.074 817.5,-180.074 817.5,-150.074 678.5,-150.074"/>
<text text-anchor="start" x="686.5" y="-168.074" font-family="Helvetica,sans-Serif" font-size="10.00">scram::core::NonTerminal</text>
<text text-anchor="middle" x="748" y="-157.074" font-family="Helvetica,sans-Serif" font-size="10.00">&lt; SetNode &gt;::order</text>
</a>
</g>
</g>
<!-- Node16&#45;&gt;Node22 -->
<g id="edge40" class="edge"><title>Node16&#45;&gt;Node22</title>
<path fill="none" stroke="midnightblue" d="M404.711,-356.929C410.955,-320.22 432.395,-226.476 493,-185.074 543.783,-150.381 614.329,-147.474 668.19,-152.058"/>
<polygon fill="midnightblue" stroke="midnightblue" points="668.099,-155.566 678.386,-153.032 668.764,-148.597 668.099,-155.566"/>
</g>
<!-- Node23 -->
<g id="node23" class="node"><title>Node23</title>
<g id="a_node23"><a xlink:href="classscram_1_1core_1_1SetNode.xhtml#a687ac81766268cd0094acbfcd7c26af0" target="_top" xlink:title="scram::core::SetNode\l::count">
<polygon fill="white" stroke="black" points="501.5,-477.074 501.5,-507.074 623.5,-507.074 623.5,-477.074 501.5,-477.074"/>
<text text-anchor="start" x="509.5" y="-495.074" font-family="Helvetica,sans-Serif" font-size="10.00">scram::core::SetNode</text>
<text text-anchor="middle" x="562.5" y="-484.074" font-family="Helvetica,sans-Serif" font-size="10.00">::count</text>
</a>
</g>
</g>
<!-- Node16&#45;&gt;Node23 -->
<g id="edge37" class="edge"><title>Node16&#45;&gt;Node23</title>
<path fill="none" stroke="midnightblue" d="M414.598,-387.182C430.774,-406.596 461.129,-440.376 493,-462.074 498.624,-465.903 504.816,-469.421 511.108,-472.596"/>
<polygon fill="midnightblue" stroke="midnightblue" points="509.81,-475.854 520.343,-476.997 512.822,-469.535 509.81,-475.854"/>
</g>
<!-- Node21&#45;&gt;Node13 -->
<g id="edge30" class="edge"><title>Node21&#45;&gt;Node13</title>
<path fill="none" stroke="midnightblue" d="M618.059,-321.235C633.72,-319.272 651.12,-317.091 667.94,-314.983"/>
<polygon fill="midnightblue" stroke="midnightblue" points="668.831,-318.399 678.318,-313.682 667.96,-311.453 668.831,-318.399"/>
</g>
<!-- Node21&#45;&gt;Node14 -->
<g id="edge34" class="edge"><title>Node21&#45;&gt;Node14</title>
<path fill="none" stroke="midnightblue" d="M592.294,-343.194C613.016,-353.741 641.814,-367.724 668,-378.074 673.795,-380.364 679.89,-382.595 686.018,-384.721"/>
<polygon fill="midnightblue" stroke="midnightblue" points="685.043,-388.085 695.637,-387.969 687.282,-381.453 685.043,-388.085"/>
</g>
<!-- Node21&#45;&gt;Node15 -->
<g id="edge35" class="edge"><title>Node21&#45;&gt;Node15</title>
<path fill="none" stroke="midnightblue" d="M618.059,-335.804C633.867,-338.044 651.449,-340.535 668.416,-342.939"/>
<polygon fill="midnightblue" stroke="midnightblue" points="667.925,-346.405 678.318,-344.342 668.908,-339.474 667.925,-346.405"/>
</g>
<!-- Node21&#45;&gt;Node19 -->
<g id="edge31" class="edge"><title>Node21&#45;&gt;Node19</title>
<path fill="none" stroke="midnightblue" d="M598.854,-312.999C609.554,-308.327 621.302,-303.087 632,-298.074 648.198,-290.483 651.383,-286.697 668,-280.074 672.993,-278.083 678.219,-276.161 683.502,-274.33"/>
<polygon fill="midnightblue" stroke="midnightblue" points="684.664,-277.632 693.034,-271.137 682.44,-270.994 684.664,-277.632"/>
</g>
<!-- Node21&#45;&gt;Node20 -->
<g id="edge32" class="edge"><title>Node21&#45;&gt;Node20</title>
<path fill="none" stroke="midnightblue" d="M579.583,-313.05C608.566,-285.991 666.695,-231.783 668,-231.074 673.096,-228.302 678.586,-225.906 684.213,-223.835"/>
<polygon fill="midnightblue" stroke="midnightblue" points="685.388,-227.133 693.767,-220.649 683.173,-220.492 685.388,-227.133"/>
</g>
<!-- Node21&#45;&gt;Node22 -->
<g id="edge33" class="edge"><title>Node21&#45;&gt;Node22</title>
<path fill="none" stroke="midnightblue" d="M583.309,-312.825C598.055,-300.754 617.976,-282.851 632,-264.074 653.409,-235.409 641.061,-215.617 668,-192.074 670.984,-189.466 674.232,-187.107 677.654,-184.973"/>
<polygon fill="midnightblue" stroke="midnightblue" points="679.392,-188.012 686.464,-180.122 676.016,-181.88 679.392,-188.012"/>
</g>
<!-- Node24&#45;&gt;Node17 -->
<g id="edge44" class="edge"><title>Node24&#45;&gt;Node17</title>
<path fill="none" stroke="midnightblue" d="M412.548,-175.917C427.722,-154.011 458.413,-113.363 493,-88.0737 498.227,-84.2518 504.017,-80.7804 509.953,-77.668"/>
<polygon fill="midnightblue" stroke="midnightblue" points="511.897,-80.6134 519.34,-73.0738 508.82,-74.326 511.897,-80.6134"/>
</g>
</g>
</svg>
        <g id="navigator" transform="translate(0 0)" fill="#404254">
                <rect fill="#f2f5e9" fill-opacity="0.5" stroke="#606060" stroke-width=".5" x="0" y="0" width="60" height="60"/>
                <use id="zoomplus" xlink:href="#zoomPlus" x="17" y="9" onmousedown="handleZoom(evt,'in')"/>
                <use id="zoomminus" xlink:href="#zoomMin" x="42" y="9" onmousedown="handleZoom(evt,'out')"/>
                <use id="reset" xlink:href="#resetDef" x="30" y="36" onmousedown="handleReset()"/>
                <g id="arrowUp" xlink:href="#dirArrow" transform="translate(30 24)" onmousedown="handlePan(0,-1)">
                  <use xlink:href="#rim" fill="#404040">
                        <set attributeName="fill" to="#808080" begin="arrowUp.mouseover" end="arrowUp.mouseout"/>
                  </use>
                  <path fill="none" stroke="white" stroke-width="1.5" d="M0,-3.0v7 M-2.5,-0.5L0,-3.0L2.5,-0.5"/>
                </g>
                <g id="arrowRight" xlink:href="#dirArrow" transform="rotate(90) translate(36 -43)" onmousedown="handlePan(1,0)">
                  <use xlink:href="#rim" fill="#404040">
                        <set attributeName="fill" to="#808080" begin="arrowRight.mouseover" end="arrowRight.mouseout"/>
                  </use>
                  <path fill="none" stroke="white" stroke-width="1.5" d="M0,-3.0v7 M-2.5,-0.5L0,-3.0L2.5,-0.5"/>
                </g>
                <g id="arrowDown" xlink:href="#dirArrow" transform="rotate(180) translate(-30 -48)" onmousedown="handlePan(0,1)">
                  <use xlink:href="#rim" fill="#404040">
                        <set attributeName="fill" to="#808080" begin="arrowDown.mouseover" end="arrowDown.mouseout"/>
                  </use>
                  <path fill="none" stroke="white" stroke-width="1.5" d="M0,-3.0v7 M-2.5,-0.5L0,-3.0L2.5,-0.5"/>
                </g>
                <g id="arrowLeft" xlink:href="#dirArrow" transform="rotate(270) translate(-36 17)" onmousedown="handlePan(-1,0)">
                  <use xlink:href="#rim" fill="#404040">
                        <set attributeName="fill" to="#808080" begin="arrowLeft.mouseover" end="arrowLeft.mouseout"/>
                  </use>
                  <path fill="none" stroke="white" stroke-width="1.5" d="M0,-3.0v7 M-2.5,-0.5L0,-3.0L2.5,-0.5"/>
                </g>
        </g>
        <svg viewBox="0 0 15 15" width="100%" height="30px" preserveAspectRatio="xMaxYMin meet">
         <g id="arrow_out" transform="scale(0.3 0.3)">
          <a xlink:href="classscram_1_1core_1_1FaultTreeAnalyzer_aedae0c884539dab245018194771f5021_cgraph_org.svg" target="_base">
           <rect id="button" ry="5" rx="5" y="6" x="6" height="38" width="38"
                fill="#f2f5e9" fill-opacity="0.5" stroke="#606060" stroke-width="1.0"/>
           <path id="arrow"
             d="M 11.500037,31.436501 C 11.940474,20.09759 22.043105,11.32322 32.158766,21.979434 L 37.068811,17.246167 C 37.068811,17.246167 37.088388,32 37.088388,32 L 22.160133,31.978069 C 22.160133,31.978069 26.997745,27.140456 26.997745,27.140456 C 18.528582,18.264221 13.291696,25.230495 11.500037,31.436501 z"
             style="fill:#404040;"/>
          </a>
         </g>
        </svg>
</svg>
