<?xml version="1.0" encoding="UTF-8" standalone="no"?>
<!DOCTYPE svg PUBLIC "-//W3C//DTD SVG 1.1//EN"
 "http://www.w3.org/Graphics/SVG/1.1/DTD/svg11.dtd">
<!-- Generated by graphviz version 2.38.0 (20140413.2041)
 -->
<!-- Title: scram::mef::TableRange&lt; T &gt;::iterator Pages: 1 -->
<svg width="175pt" height="226pt"
 viewBox="0.00 0.00 175.00 226.00" xmlns="http://www.w3.org/2000/svg" xmlns:xlink="http://www.w3.org/1999/xlink">
<g id="graph0" class="graph" transform="scale(1 1) rotate(0) translate(4 222)">
<title>scram::mef::TableRange&lt; T &gt;::iterator</title>
<polygon fill="white" stroke="none" points="-4,4 -4,-222 171,-222 171,4 -4,4"/>
<!-- Node1 -->
<g id="node1" class="node"><title>Node1</title>
<polygon fill="#bfbfbf" stroke="black" points="18,-0.5 18,-101.5 149,-101.5 149,-0.5 18,-0.5"/>
<text text-anchor="start" x="26" y="-89.5" font-family="Helvetica,sans-Serif" font-size="10.00">scram::mef::TableRange</text>
<text text-anchor="middle" x="83.5" y="-78.5" font-family="Helvetica,sans-Serif" font-size="10.00">&lt; T &gt;::iterator</text>
<polyline fill="none" stroke="black" points="18,-71.5 149,-71.5 "/>
<text text-anchor="middle" x="83.5" y="-59.5" font-family="Helvetica,sans-Serif" font-size="10.00"> </text>
<polyline fill="none" stroke="black" points="18,-52.5 149,-52.5 "/>
<text text-anchor="start" x="26" y="-40.5" font-family="Helvetica,sans-Serif" font-size="10.00">+ iterator()</text>
<text text-anchor="start" x="26" y="-29.5" font-family="Helvetica,sans-Serif" font-size="10.00">* increment()</text>
<text text-anchor="start" x="26" y="-18.5" font-family="Helvetica,sans-Serif" font-size="10.00">* equal()</text>
<text text-anchor="start" x="26" y="-7.5" font-family="Helvetica,sans-Serif" font-size="10.00">* dereference()</text>
</g>
<!-- Node2 -->
<g id="node2" class="node"><title>Node2</title>
<polygon fill="white" stroke="#bfbfbf" points="-1.42109e-14,-138.5 -1.42109e-14,-217.5 167,-217.5 167,-138.5 -1.42109e-14,-138.5"/>
<text text-anchor="start" x="8" y="-205.5" font-family="Helvetica,sans-Serif" font-size="10.00">boost::iterator_facade</text>
<text text-anchor="start" x="8" y="-194.5" font-family="Helvetica,sans-Serif" font-size="10.00">&lt; iterator, value_type,</text>
<text text-anchor="middle" x="83.5" y="-183.5" font-family="Helvetica,sans-Serif" font-size="10.00"> boost::forward_traversal_tag &gt;</text>
<polyline fill="none" stroke="#bfbfbf" points="-1.42109e-14,-176.5 167,-176.5 "/>
<text text-anchor="middle" x="83.5" y="-164.5" font-family="Helvetica,sans-Serif" font-size="10.00"> </text>
<polyline fill="none" stroke="#bfbfbf" points="-1.42109e-14,-157.5 167,-157.5 "/>
<text text-anchor="middle" x="83.5" y="-145.5" font-family="Helvetica,sans-Serif" font-size="10.00"> </text>
</g>
<!-- Node2&#45;&gt;Node1 -->
<g id="edge1" class="edge"><title>Node2&#45;&gt;Node1</title>
<path fill="none" stroke="midnightblue" d="M83.5,-128.406C83.5,-119.639 83.5,-110.488 83.5,-101.691"/>
<polygon fill="none" stroke="midnightblue" points="80.0001,-128.476 83.5,-138.476 87.0001,-128.476 80.0001,-128.476"/>
</g>
</g>
</svg>
