<?xml version="1.0" encoding="UTF-8" standalone="no"?>
<!DOCTYPE svg PUBLIC "-//W3C//DTD SVG 1.1//EN"
 "http://www.w3.org/Graphics/SVG/1.1/DTD/svg11.dtd">
<!-- Generated by graphviz version 2.38.0 (20140413.2041)
 -->
<!-- Title: scram::mef::Fork::paths Pages: 1 -->
<svg width="483pt" height="106pt"
 viewBox="0.00 0.00 483.00 106.00" xmlns="http://www.w3.org/2000/svg" xmlns:xlink="http://www.w3.org/1999/xlink">
<g id="graph0" class="graph" transform="scale(1 1) rotate(0) translate(4 102)">
<title>scram::mef::Fork::paths</title>
<polygon fill="white" stroke="none" points="-4,4 -4,-102 479,-102 479,4 -4,4"/>
<!-- Node1 -->
<g id="node1" class="node"><title>Node1</title>
<polygon fill="#bfbfbf" stroke="black" points="0,-39 0,-58 131,-58 131,-39 0,-39"/>
<text text-anchor="middle" x="65.5" y="-46" font-family="Helvetica,sans-Serif" font-size="10.00">scram::mef::Fork::paths</text>
</g>
<!-- Node2 -->
<g id="node2" class="node"><title>Node2</title>
<g id="a_node2"><a xlink:href="classscram_1_1core_1_1EventTreeAnalysis.xhtml#a070c68c0d67edb30c9bf57e226aaf88e" target="_top" xlink:title="Analyzes an event tree given the initiating event. ">
<polygon fill="white" stroke="black" points="167,-67.5 167,-97.5 332,-97.5 332,-67.5 167,-67.5"/>
<text text-anchor="start" x="175" y="-85.5" font-family="Helvetica,sans-Serif" font-size="10.00">scram::core::EventTreeAnalysis</text>
<text text-anchor="middle" x="249.5" y="-74.5" font-family="Helvetica,sans-Serif" font-size="10.00">::Analyze</text>
</a>
</g>
</g>
<!-- Node1&#45;&gt;Node2 -->
<g id="edge1" class="edge"><title>Node1&#45;&gt;Node2</title>
<path fill="none" stroke="midnightblue" d="M127.834,-59.9579C140.761,-62.3729 154.585,-64.9555 168.094,-67.479"/>
<polygon fill="midnightblue" stroke="midnightblue" points="128.154,-56.4573 117.681,-58.0614 126.869,-63.3383 128.154,-56.4573"/>
</g>
<!-- Node3 -->
<g id="node3" class="node"><title>Node3</title>
<g id="a_node3"><a xlink:href="cycle_8cc.xhtml#aadcc06d587ab75cf72d05c8ef7dc8fee" target="_top" xlink:title="Cycle detection specialization for event tree named branches. ">
<polygon fill="white" stroke="black" points="195,-0.5 195,-30.5 304,-30.5 304,-0.5 195,-0.5"/>
<text text-anchor="start" x="203" y="-18.5" font-family="Helvetica,sans-Serif" font-size="10.00">scram::mef::cycle::</text>
<text text-anchor="middle" x="249.5" y="-7.5" font-family="Helvetica,sans-Serif" font-size="10.00">ContinueConnector</text>
</a>
</g>
</g>
<!-- Node1&#45;&gt;Node3 -->
<g id="edge2" class="edge"><title>Node1&#45;&gt;Node3</title>
<path fill="none" stroke="midnightblue" d="M129.091,-37.1511C150.443,-33.2795 174.115,-28.9874 194.713,-25.2525"/>
<polygon fill="midnightblue" stroke="midnightblue" points="128.357,-33.727 119.142,-38.955 129.606,-40.6147 128.357,-33.727"/>
</g>
<!-- Node3&#45;&gt;Node3 -->
<g id="edge3" class="edge"><title>Node3&#45;&gt;Node3</title>
<path fill="none" stroke="midnightblue" d="M218.938,-40.9579C222.731,-45.679 232.918,-49 249.5,-49 276.711,-49 286.702,-40.0566 279.475,-30.659"/>
<polygon fill="midnightblue" stroke="midnightblue" points="222.45,-40.8422 219.525,-30.659 215.461,-40.4433 222.45,-40.8422"/>
</g>
<!-- Node4 -->
<g id="node4" class="node"><title>Node4</title>
<g id="a_node4"><a xlink:href="cycle_8h.xhtml#aeed4b968387a7629985a8d3d9528c4e0" target="_top" xlink:title="Retrieves connectors from a connector. ">
<polygon fill="white" stroke="black" points="368,-0.5 368,-30.5 475,-30.5 475,-0.5 368,-0.5"/>
<text text-anchor="start" x="376" y="-18.5" font-family="Helvetica,sans-Serif" font-size="10.00">scram::mef::cycle::</text>
<text text-anchor="middle" x="421.5" y="-7.5" font-family="Helvetica,sans-Serif" font-size="10.00">GetConnectors</text>
</a>
</g>
</g>
<!-- Node3&#45;&gt;Node4 -->
<g id="edge4" class="edge"><title>Node3&#45;&gt;Node4</title>
<path fill="none" stroke="midnightblue" d="M314.494,-15.5C332.121,-15.5 351.033,-15.5 367.933,-15.5"/>
<polygon fill="midnightblue" stroke="midnightblue" points="314.289,-12.0001 304.289,-15.5 314.289,-19.0001 314.289,-12.0001"/>
</g>
</g>
</svg>
