<?xml version="1.0" encoding="UTF-8" standalone="no"?>
<!DOCTYPE svg PUBLIC "-//W3C//DTD SVG 1.1//EN"
 "http://www.w3.org/Graphics/SVG/1.1/DTD/svg11.dtd">
<!-- Generated by graphviz version 2.38.0 (20140413.2041)
 -->
<!-- Title: scram::mef::Usage::usage Pages: 1 -->
<svg width="520pt" height="235pt"
 viewBox="0.00 0.00 520.00 235.00" xmlns="http://www.w3.org/2000/svg" xmlns:xlink="http://www.w3.org/1999/xlink">
<g id="graph0" class="graph" transform="scale(1 1) rotate(0) translate(4 231)">
<title>scram::mef::Usage::usage</title>
<polygon fill="white" stroke="none" points="-4,4 -4,-231 516,-231 516,4 -4,4"/>
<!-- Node1 -->
<g id="node1" class="node"><title>Node1</title>
<polygon fill="#bfbfbf" stroke="black" points="0,-73.5 0,-103.5 114,-103.5 114,-73.5 0,-73.5"/>
<text text-anchor="start" x="8" y="-91.5" font-family="Helvetica,sans-Serif" font-size="10.00">scram::mef::Usage::</text>
<text text-anchor="middle" x="57" y="-80.5" font-family="Helvetica,sans-Serif" font-size="10.00">usage</text>
</g>
<!-- Node2 -->
<g id="node2" class="node"><title>Node2</title>
<g id="a_node2"><a xlink:href="classscram_1_1mef_1_1Formula_1_1ArgSet.xhtml#adef52f323d9a5b26ceaa951d5b304bb7" target="_top" xlink:title="Adds an event into the arguments set. ">
<polygon fill="white" stroke="black" points="172.5,-147.5 172.5,-177.5 288.5,-177.5 288.5,-147.5 172.5,-147.5"/>
<text text-anchor="start" x="180.5" y="-165.5" font-family="Helvetica,sans-Serif" font-size="10.00">scram::mef::Formula</text>
<text text-anchor="middle" x="230.5" y="-154.5" font-family="Helvetica,sans-Serif" font-size="10.00">::ArgSet::Add</text>
</a>
</g>
</g>
<!-- Node1&#45;&gt;Node2 -->
<g id="edge1" class="edge"><title>Node1&#45;&gt;Node2</title>
<path fill="none" stroke="midnightblue" d="M91.7056,-108.979C108.766,-118.781 130.043,-130.168 150,-138.5 157.717,-141.722 166.017,-144.715 174.241,-147.419"/>
<polygon fill="midnightblue" stroke="midnightblue" points="93.0985,-105.74 82.6968,-103.726 89.5723,-111.787 93.0985,-105.74"/>
</g>
<!-- Node6 -->
<g id="node6" class="node"><title>Node6</title>
<g id="a_node6"><a xlink:href="classscram_1_1mef_1_1Initializer.xhtml#ac5a9fe2fb3d4cc5a37ead0726ca74462" target="_top" xlink:title="Specializations for elements defined after registration. ">
<polygon fill="white" stroke="black" points="171,-98.5 171,-128.5 290,-128.5 290,-98.5 171,-98.5"/>
<text text-anchor="start" x="179" y="-116.5" font-family="Helvetica,sans-Serif" font-size="10.00">scram::mef::Initializer</text>
<text text-anchor="middle" x="230.5" y="-105.5" font-family="Helvetica,sans-Serif" font-size="10.00">::Define</text>
</a>
</g>
</g>
<!-- Node1&#45;&gt;Node6 -->
<g id="edge5" class="edge"><title>Node1&#45;&gt;Node6</title>
<path fill="none" stroke="midnightblue" d="M124.124,-98.139C139.522,-100.384 155.813,-102.758 170.862,-104.952"/>
<polygon fill="midnightblue" stroke="midnightblue" points="124.556,-94.6651 114.156,-96.6859 123.546,-101.592 124.556,-94.6651"/>
</g>
<!-- Node7 -->
<g id="node7" class="node"><title>Node7</title>
<g id="a_node7"><a xlink:href="structscram_1_1mef_1_1Initializer_1_1Extractor_3_01T_00-1_01_4.xhtml#aed4438ca816e65ced748e4bc1f67a631" target="_top" xlink:title="Constructs an expression with a variable number of arguments. ">
<polygon fill="white" stroke="black" points="150,-49.5 150,-79.5 311,-79.5 311,-49.5 150,-49.5"/>
<text text-anchor="start" x="158" y="-67.5" font-family="Helvetica,sans-Serif" font-size="10.00">scram::mef::Initializer</text>
<text text-anchor="middle" x="230.5" y="-56.5" font-family="Helvetica,sans-Serif" font-size="10.00">::Extractor&lt; T,&#45;1 &gt;::operator()</text>
</a>
</g>
</g>
<!-- Node1&#45;&gt;Node7 -->
<g id="edge6" class="edge"><title>Node1&#45;&gt;Node7</title>
<path fill="none" stroke="midnightblue" d="M124.244,-79.2297C132.641,-78.0545 141.302,-76.8426 149.881,-75.6421"/>
<polygon fill="midnightblue" stroke="midnightblue" points="123.574,-75.7893 114.156,-80.6415 124.544,-82.7217 123.574,-75.7893"/>
</g>
<!-- Node8 -->
<g id="node8" class="node"><title>Node8</title>
<g id="a_node8"><a xlink:href="classscram_1_1mef_1_1Formula.xhtml#a6a6ea9595613f23e0f19af5f96754683" target="_top" xlink:title="Swaps an argument event with another one. ">
<polygon fill="white" stroke="black" points="172.5,-0.5 172.5,-30.5 288.5,-30.5 288.5,-0.5 172.5,-0.5"/>
<text text-anchor="start" x="180.5" y="-18.5" font-family="Helvetica,sans-Serif" font-size="10.00">scram::mef::Formula</text>
<text text-anchor="middle" x="230.5" y="-7.5" font-family="Helvetica,sans-Serif" font-size="10.00">::Swap</text>
</a>
</g>
</g>
<!-- Node1&#45;&gt;Node8 -->
<g id="edge7" class="edge"><title>Node1&#45;&gt;Node8</title>
<path fill="none" stroke="midnightblue" d="M92.1172,-68.2647C109.127,-58.7143 130.239,-47.6525 150,-39.5 157.73,-36.3109 166.038,-33.3349 174.266,-30.6392"/>
<polygon fill="midnightblue" stroke="midnightblue" points="90.0813,-65.3963 83.1242,-73.3869 93.5458,-71.4788 90.0813,-65.3963"/>
</g>
<!-- Node3 -->
<g id="node3" class="node"><title>Node3</title>
<g id="a_node3"><a xlink:href="classscram_1_1core_1_1EventTreeAnalysis.xhtml#a070c68c0d67edb30c9bf57e226aaf88e" target="_top" xlink:title="Analyzes an event tree given the initiating event. ">
<polygon fill="white" stroke="black" points="347,-196.5 347,-226.5 512,-226.5 512,-196.5 347,-196.5"/>
<text text-anchor="start" x="355" y="-214.5" font-family="Helvetica,sans-Serif" font-size="10.00">scram::core::EventTreeAnalysis</text>
<text text-anchor="middle" x="429.5" y="-203.5" font-family="Helvetica,sans-Serif" font-size="10.00">::Analyze</text>
</a>
</g>
</g>
<!-- Node2&#45;&gt;Node3 -->
<g id="edge2" class="edge"><title>Node2&#45;&gt;Node3</title>
<path fill="none" stroke="midnightblue" d="M298.562,-179.181C321.078,-184.781 346.042,-190.99 368.022,-196.457"/>
<polygon fill="midnightblue" stroke="midnightblue" points="299.294,-175.756 288.745,-176.739 297.605,-182.549 299.294,-175.756"/>
</g>
<!-- Node4 -->
<g id="node4" class="node"><title>Node4</title>
<g id="a_node4"><a xlink:href="classscram_1_1mef_1_1Initializer.xhtml#a969f088f20697a8a317cb7c998f034ad" target="_top" xlink:title="Specializations for elements defined after registration. ">
<polygon fill="white" stroke="black" points="370,-147.5 370,-177.5 489,-177.5 489,-147.5 370,-147.5"/>
<text text-anchor="start" x="378" y="-165.5" font-family="Helvetica,sans-Serif" font-size="10.00">scram::mef::Initializer</text>
<text text-anchor="middle" x="429.5" y="-154.5" font-family="Helvetica,sans-Serif" font-size="10.00">::Define</text>
</a>
</g>
</g>
<!-- Node2&#45;&gt;Node4 -->
<g id="edge3" class="edge"><title>Node2&#45;&gt;Node4</title>
<path fill="none" stroke="midnightblue" d="M298.791,-162.5C321.837,-162.5 347.426,-162.5 369.744,-162.5"/>
<polygon fill="midnightblue" stroke="midnightblue" points="298.745,-159 288.745,-162.5 298.745,-166 298.745,-159"/>
</g>
<!-- Node5 -->
<g id="node5" class="node"><title>Node5</title>
<g id="a_node5"><a xlink:href="classscram_1_1core_1_1EventTreeAnalysis.xhtml#a3e3404417cbdcf92474e5653ec24f936" target="_top" xlink:title="scram::core::EventTreeAnalysis\l::EventTreeAnalysis">
<polygon fill="white" stroke="black" points="347,-98.5 347,-128.5 512,-128.5 512,-98.5 347,-98.5"/>
<text text-anchor="start" x="355" y="-116.5" font-family="Helvetica,sans-Serif" font-size="10.00">scram::core::EventTreeAnalysis</text>
<text text-anchor="middle" x="429.5" y="-105.5" font-family="Helvetica,sans-Serif" font-size="10.00">::EventTreeAnalysis</text>
</a>
</g>
</g>
<!-- Node2&#45;&gt;Node5 -->
<g id="edge4" class="edge"><title>Node2&#45;&gt;Node5</title>
<path fill="none" stroke="midnightblue" d="M298.562,-145.819C321.078,-140.219 346.042,-134.01 368.022,-128.543"/>
<polygon fill="midnightblue" stroke="midnightblue" points="297.605,-142.451 288.745,-148.261 299.294,-149.244 297.605,-142.451"/>
</g>
</g>
</svg>
