<?xml version="1.0" encoding="UTF-8" standalone="no"?>
<!DOCTYPE svg PUBLIC "-//W3C//DTD SVG 1.1//EN"
 "http://www.w3.org/Graphics/SVG/1.1/DTD/svg11.dtd">
<!-- Generated by graphviz version 2.38.0 (20140413.2041)
 -->
<!-- Title: scram::xml::Document::Document Pages: 1 -->
<svg width="472pt" height="39pt"
 viewBox="0.00 0.00 472.00 39.00" xmlns="http://www.w3.org/2000/svg" xmlns:xlink="http://www.w3.org/1999/xlink">
<g id="graph0" class="graph" transform="scale(1 1) rotate(0) translate(4 35)">
<title>scram::xml::Document::Document</title>
<polygon fill="white" stroke="none" points="-4,4 -4,-35 468,-35 468,4 -4,4"/>
<!-- Node1 -->
<g id="node1" class="node"><title>Node1</title>
<polygon fill="#bfbfbf" stroke="black" points="0,-0.5 0,-30.5 126,-30.5 126,-0.5 0,-0.5"/>
<text text-anchor="start" x="8" y="-18.5" font-family="Helvetica,sans-Serif" font-size="10.00">scram::xml::Document</text>
<text text-anchor="middle" x="63" y="-7.5" font-family="Helvetica,sans-Serif" font-size="10.00">::Document</text>
</g>
<!-- Node2 -->
<g id="node2" class="node"><title>Node2</title>
<g id="a_node2"><a xlink:href="classscram_1_1xml_1_1Validator.xhtml#ad1626f649d58bab2db7a077f4b6b061e" target="_top" xlink:title="Validates XML DOM documents against the schema. ">
<polygon fill="white" stroke="black" points="162,-0.5 162,-30.5 280,-30.5 280,-0.5 162,-0.5"/>
<text text-anchor="start" x="170" y="-18.5" font-family="Helvetica,sans-Serif" font-size="10.00">scram::xml::Validator</text>
<text text-anchor="middle" x="221" y="-7.5" font-family="Helvetica,sans-Serif" font-size="10.00">::validate</text>
</a>
</g>
</g>
<!-- Node1&#45;&gt;Node2 -->
<g id="edge1" class="edge"><title>Node1&#45;&gt;Node2</title>
<path fill="none" stroke="midnightblue" d="M126.104,-15.5C134.5,-15.5 143.153,-15.5 151.651,-15.5"/>
<polygon fill="midnightblue" stroke="midnightblue" points="151.912,-19.0001 161.912,-15.5 151.912,-12.0001 151.912,-19.0001"/>
</g>
<!-- Node3 -->
<g id="node3" class="node"><title>Node3</title>
<g id="a_node3"><a xlink:href="classscram_1_1xml_1_1Document.xhtml#afcabff07e31e1f4947f5c393364a1ea7" target="_top" xlink:title="scram::xml::Document::get">
<polygon fill="white" stroke="black" points="316,-6 316,-25 464,-25 464,-6 316,-6"/>
<text text-anchor="middle" x="390" y="-13" font-family="Helvetica,sans-Serif" font-size="10.00">scram::xml::Document::get</text>
</a>
</g>
</g>
<!-- Node2&#45;&gt;Node3 -->
<g id="edge2" class="edge"><title>Node2&#45;&gt;Node3</title>
<path fill="none" stroke="midnightblue" d="M280.408,-15.5C288.656,-15.5 297.264,-15.5 305.867,-15.5"/>
<polygon fill="midnightblue" stroke="midnightblue" points="305.941,-19.0001 315.941,-15.5 305.941,-12.0001 305.941,-19.0001"/>
</g>
</g>
</svg>
