<?xml version="1.0" encoding="UTF-8" standalone="no"?>
<!DOCTYPE svg PUBLIC "-//W3C//DTD SVG 1.1//EN"
 "http://www.w3.org/Graphics/SVG/1.1/DTD/svg11.dtd">
<!-- Generated by graphviz version 2.38.0 (20140413.2041)
 -->
<!-- Title: scram::core::Settings::mission_time Pages: 1 -->
<svg width="683pt" height="127pt"
 viewBox="0.00 0.00 683.00 127.00" xmlns="http://www.w3.org/2000/svg" xmlns:xlink="http://www.w3.org/1999/xlink">
<g id="graph0" class="graph" transform="scale(1 1) rotate(0) translate(4 123)">
<title>scram::core::Settings::mission_time</title>
<polygon fill="white" stroke="none" points="-4,4 -4,-123 679,-123 679,4 -4,4"/>
<!-- Node1 -->
<g id="node1" class="node"><title>Node1</title>
<polygon fill="#bfbfbf" stroke="black" points="0,-44.5 0,-74.5 119,-74.5 119,-44.5 0,-44.5"/>
<text text-anchor="start" x="8" y="-62.5" font-family="Helvetica,sans-Serif" font-size="10.00">scram::core::Settings</text>
<text text-anchor="middle" x="59.5" y="-51.5" font-family="Helvetica,sans-Serif" font-size="10.00">::mission_time</text>
</g>
<!-- Node2 -->
<g id="node2" class="node"><title>Node2</title>
<g id="a_node2"><a xlink:href="classscram_1_1core_1_1RiskAnalysis.xhtml#a7aed757ac5a7a96878c2706a7a9710bb" target="_top" xlink:title="Analyzes the model and performs computations specified in the settings. ">
<polygon fill="white" stroke="black" points="155,-88.5 155,-118.5 292,-118.5 292,-88.5 155,-88.5"/>
<text text-anchor="start" x="163" y="-106.5" font-family="Helvetica,sans-Serif" font-size="10.00">scram::core::RiskAnalysis</text>
<text text-anchor="middle" x="223.5" y="-95.5" font-family="Helvetica,sans-Serif" font-size="10.00">::Analyze</text>
</a>
</g>
</g>
<!-- Node1&#45;&gt;Node2 -->
<g id="edge1" class="edge"><title>Node1&#45;&gt;Node2</title>
<path fill="none" stroke="midnightblue" d="M125.679,-77.2029C139.435,-80.9392 153.825,-84.8475 167.176,-88.4738"/>
<polygon fill="midnightblue" stroke="midnightblue" points="126.366,-73.7628 115.798,-74.5192 124.531,-80.518 126.366,-73.7628"/>
</g>
<!-- Node5 -->
<g id="node5" class="node"><title>Node5</title>
<g id="a_node5"><a xlink:href="classscram_1_1Project.xhtml#aa72871e05c53f98f8c4f48ec61277754" target="_top" xlink:title="A constructor with project configurations for analysis. ">
<polygon fill="white" stroke="black" points="161,-50 161,-69 286,-69 286,-50 161,-50"/>
<text text-anchor="middle" x="223.5" y="-57" font-family="Helvetica,sans-Serif" font-size="10.00">scram::Project::Project</text>
</a>
</g>
</g>
<!-- Node1&#45;&gt;Node5 -->
<g id="edge4" class="edge"><title>Node1&#45;&gt;Node5</title>
<path fill="none" stroke="midnightblue" d="M129.693,-59.5C140.056,-59.5 150.683,-59.5 160.875,-59.5"/>
<polygon fill="midnightblue" stroke="midnightblue" points="129.444,-56.0001 119.444,-59.5 129.444,-63.0001 129.444,-56.0001"/>
</g>
<!-- Node6 -->
<g id="node6" class="node"><title>Node6</title>
<g id="a_node6"><a xlink:href="classscram_1_1mef_1_1Initializer.xhtml#a86055e4406a999be79a4d14e8a7ec4e3" target="_top" xlink:title="Specializations for element registrations. ">
<polygon fill="white" stroke="black" points="164,-0.5 164,-30.5 283,-30.5 283,-0.5 164,-0.5"/>
<text text-anchor="start" x="172" y="-18.5" font-family="Helvetica,sans-Serif" font-size="10.00">scram::mef::Initializer</text>
<text text-anchor="middle" x="223.5" y="-7.5" font-family="Helvetica,sans-Serif" font-size="10.00">::Register</text>
</a>
</g>
</g>
<!-- Node1&#45;&gt;Node6 -->
<g id="edge5" class="edge"><title>Node1&#45;&gt;Node6</title>
<path fill="none" stroke="midnightblue" d="M125.679,-41.7971C139.435,-38.0608 153.825,-34.1525 167.176,-30.5262"/>
<polygon fill="midnightblue" stroke="midnightblue" points="124.531,-38.482 115.798,-44.4808 126.366,-45.2372 124.531,-38.482"/>
</g>
<!-- Node3 -->
<g id="node3" class="node"><title>Node3</title>
<g id="a_node3"><a xlink:href="classscram_1_1core_1_1RiskAnalysis.xhtml#a337f7e9fe02b1581e872590d6f7baa01" target="_top" xlink:title="scram::core::RiskAnalysis\l::model">
<polygon fill="white" stroke="black" points="328,-88.5 328,-118.5 465,-118.5 465,-88.5 328,-88.5"/>
<text text-anchor="start" x="336" y="-106.5" font-family="Helvetica,sans-Serif" font-size="10.00">scram::core::RiskAnalysis</text>
<text text-anchor="middle" x="396.5" y="-95.5" font-family="Helvetica,sans-Serif" font-size="10.00">::model</text>
</a>
</g>
</g>
<!-- Node2&#45;&gt;Node3 -->
<g id="edge2" class="edge"><title>Node2&#45;&gt;Node3</title>
<path fill="none" stroke="midnightblue" d="M302.1,-103.5C310.692,-103.5 319.391,-103.5 327.847,-103.5"/>
<polygon fill="midnightblue" stroke="midnightblue" points="302.084,-100 292.084,-103.5 302.084,-107 302.084,-100"/>
</g>
<!-- Node4 -->
<g id="node4" class="node"><title>Node4</title>
<g id="a_node4"><a xlink:href="reporter_8cc.xhtml#a73f9569f4c2e2b6a3eac8d2c01b81943" target="_top" xlink:title="Describes all performed analyses deduced from settings. ">
<polygon fill="white" stroke="black" points="501,-88.5 501,-118.5 675,-118.5 675,-88.5 501,-88.5"/>
<text text-anchor="start" x="509" y="-106.5" font-family="Helvetica,sans-Serif" font-size="10.00">scram::ReportCalculatedQuantity</text>
<text text-anchor="middle" x="588" y="-95.5" font-family="Helvetica,sans-Serif" font-size="10.00">&lt; core::RiskAnalysis &gt;</text>
</a>
</g>
</g>
<!-- Node3&#45;&gt;Node4 -->
<g id="edge3" class="edge"><title>Node3&#45;&gt;Node4</title>
<path fill="none" stroke="midnightblue" d="M475.288,-103.5C483.722,-103.5 492.341,-103.5 500.866,-103.5"/>
<polygon fill="midnightblue" stroke="midnightblue" points="475.111,-100 465.111,-103.5 475.111,-107 475.111,-100"/>
</g>
</g>
</svg>
