<?xml version="1.0" encoding="UTF-8" standalone="no"?>
<!DOCTYPE svg PUBLIC "-//W3C//DTD SVG 1.1//EN"
 "http://www.w3.org/Graphics/SVG/1.1/DTD/svg11.dtd">
<!-- Generated by graphviz version 2.38.0 (20140413.2041)
 -->
<!-- Title: scram::mef::RandomDeviate Pages: 1 -->
<svg width="984pt" height="513pt"
 viewBox="0.00 0.00 983.50 513.00" xmlns="http://www.w3.org/2000/svg" xmlns:xlink="http://www.w3.org/1999/xlink">
<g id="graph0" class="graph" transform="scale(1 1) rotate(0) translate(4 509)">
<title>scram::mef::RandomDeviate</title>
<polygon fill="white" stroke="none" points="-4,4 -4,-509 979.5,-509 979.5,4 -4,4"/>
<!-- Node1 -->
<g id="node1" class="node"><title>Node1</title>
<polygon fill="#bfbfbf" stroke="black" points="395.5,-138.5 395.5,-217.5 549.5,-217.5 549.5,-138.5 395.5,-138.5"/>
<text text-anchor="middle" x="472.5" y="-205.5" font-family="Helvetica,sans-Serif" font-size="10.00">scram::mef::RandomDeviate</text>
<polyline fill="none" stroke="black" points="395.5,-198.5 549.5,-198.5 "/>
<text text-anchor="middle" x="472.5" y="-186.5" font-family="Helvetica,sans-Serif" font-size="10.00"> </text>
<polyline fill="none" stroke="black" points="395.5,-179.5 549.5,-179.5 "/>
<text text-anchor="start" x="403.5" y="-167.5" font-family="Helvetica,sans-Serif" font-size="10.00">+ IsDeviate()</text>
<text text-anchor="start" x="403.5" y="-156.5" font-family="Helvetica,sans-Serif" font-size="10.00">+ seed()</text>
<text text-anchor="start" x="403.5" y="-145.5" font-family="Helvetica,sans-Serif" font-size="10.00"># rng()</text>
</g>
<!-- Node4 -->
<g id="node4" class="node"><title>Node4</title>
<g id="a_node4"><a xlink:href="classscram_1_1mef_1_1BetaDeviate.xhtml" target="_top" xlink:title="Beta distribution. ">
<polygon fill="white" stroke="black" points="0,-6 0,-96 137,-96 137,-6 0,-6"/>
<text text-anchor="middle" x="68.5" y="-84" font-family="Helvetica,sans-Serif" font-size="10.00">scram::mef::BetaDeviate</text>
<polyline fill="none" stroke="black" points="0,-77 137,-77 "/>
<text text-anchor="middle" x="68.5" y="-65" font-family="Helvetica,sans-Serif" font-size="10.00"> </text>
<polyline fill="none" stroke="black" points="0,-58 137,-58 "/>
<text text-anchor="start" x="8" y="-46" font-family="Helvetica,sans-Serif" font-size="10.00">+ BetaDeviate()</text>
<text text-anchor="start" x="8" y="-35" font-family="Helvetica,sans-Serif" font-size="10.00">+ Validate()</text>
<text text-anchor="start" x="8" y="-24" font-family="Helvetica,sans-Serif" font-size="10.00">+ value()</text>
<text text-anchor="start" x="8" y="-13" font-family="Helvetica,sans-Serif" font-size="10.00">+ interval()</text>
</a>
</g>
</g>
<!-- Node1&#45;&gt;Node4 -->
<g id="edge3" class="edge"><title>Node1&#45;&gt;Node4</title>
<path fill="none" stroke="midnightblue" d="M385.316,-165.518C317.914,-154.643 223.294,-134.954 145.5,-102 141.391,-100.259 137.259,-98.3011 133.159,-96.194"/>
<polygon fill="none" stroke="midnightblue" points="385.051,-169.02 395.475,-167.124 386.144,-162.106 385.051,-169.02"/>
</g>
<!-- Node5 -->
<g id="node5" class="node"><title>Node5</title>
<g id="a_node5"><a xlink:href="classscram_1_1mef_1_1GammaDeviate.xhtml" target="_top" xlink:title="Gamma distribution. ">
<polygon fill="white" stroke="black" points="155,-6 155,-96 308,-96 308,-6 155,-6"/>
<text text-anchor="middle" x="231.5" y="-84" font-family="Helvetica,sans-Serif" font-size="10.00">scram::mef::GammaDeviate</text>
<polyline fill="none" stroke="black" points="155,-77 308,-77 "/>
<text text-anchor="middle" x="231.5" y="-65" font-family="Helvetica,sans-Serif" font-size="10.00"> </text>
<polyline fill="none" stroke="black" points="155,-58 308,-58 "/>
<text text-anchor="start" x="163" y="-46" font-family="Helvetica,sans-Serif" font-size="10.00">+ GammaDeviate()</text>
<text text-anchor="start" x="163" y="-35" font-family="Helvetica,sans-Serif" font-size="10.00">+ Validate()</text>
<text text-anchor="start" x="163" y="-24" font-family="Helvetica,sans-Serif" font-size="10.00">+ value()</text>
<text text-anchor="start" x="163" y="-13" font-family="Helvetica,sans-Serif" font-size="10.00">+ interval()</text>
</a>
</g>
</g>
<!-- Node1&#45;&gt;Node5 -->
<g id="edge4" class="edge"><title>Node1&#45;&gt;Node5</title>
<path fill="none" stroke="midnightblue" d="M386.232,-136.692C363.691,-125.77 339.54,-113.717 317.5,-102 313.993,-100.135 310.421,-98.2021 306.826,-96.2277"/>
<polygon fill="none" stroke="midnightblue" points="384.92,-139.945 395.448,-141.138 387.962,-133.64 384.92,-139.945"/>
</g>
<!-- Node6 -->
<g id="node6" class="node"><title>Node6</title>
<g id="a_node6"><a xlink:href="classscram_1_1mef_1_1Histogram.xhtml" target="_top" xlink:title="Histogram distribution. ">
<polygon fill="white" stroke="black" points="326.5,-6 326.5,-96 454.5,-96 454.5,-6 326.5,-6"/>
<text text-anchor="middle" x="390.5" y="-84" font-family="Helvetica,sans-Serif" font-size="10.00">scram::mef::Histogram</text>
<polyline fill="none" stroke="black" points="326.5,-77 454.5,-77 "/>
<text text-anchor="middle" x="390.5" y="-65" font-family="Helvetica,sans-Serif" font-size="10.00"> </text>
<polyline fill="none" stroke="black" points="326.5,-58 454.5,-58 "/>
<text text-anchor="start" x="334.5" y="-46" font-family="Helvetica,sans-Serif" font-size="10.00">+ Histogram()</text>
<text text-anchor="start" x="334.5" y="-35" font-family="Helvetica,sans-Serif" font-size="10.00">+ Validate()</text>
<text text-anchor="start" x="334.5" y="-24" font-family="Helvetica,sans-Serif" font-size="10.00">+ value()</text>
<text text-anchor="start" x="334.5" y="-13" font-family="Helvetica,sans-Serif" font-size="10.00">+ interval()</text>
</a>
</g>
</g>
<!-- Node1&#45;&gt;Node6 -->
<g id="edge5" class="edge"><title>Node1&#45;&gt;Node6</title>
<path fill="none" stroke="midnightblue" d="M441.557,-129.831C434.345,-118.837 426.69,-107.168 419.563,-96.3026"/>
<polygon fill="none" stroke="midnightblue" points="438.817,-132.034 447.228,-138.476 444.67,-128.195 438.817,-132.034"/>
</g>
<!-- Node7 -->
<g id="node7" class="node"><title>Node7</title>
<g id="a_node7"><a xlink:href="classscram_1_1mef_1_1LognormalDeviate.xhtml" target="_top" xlink:title="Log&#45;normal distribution. ">
<polygon fill="white" stroke="black" points="473,-0.5 473,-101.5 638,-101.5 638,-0.5 473,-0.5"/>
<text text-anchor="middle" x="555.5" y="-89.5" font-family="Helvetica,sans-Serif" font-size="10.00">scram::mef::LognormalDeviate</text>
<polyline fill="none" stroke="black" points="473,-82.5 638,-82.5 "/>
<text text-anchor="middle" x="555.5" y="-70.5" font-family="Helvetica,sans-Serif" font-size="10.00"> </text>
<polyline fill="none" stroke="black" points="473,-63.5 638,-63.5 "/>
<text text-anchor="start" x="481" y="-51.5" font-family="Helvetica,sans-Serif" font-size="10.00">+ LognormalDeviate()</text>
<text text-anchor="start" x="481" y="-40.5" font-family="Helvetica,sans-Serif" font-size="10.00">+ LognormalDeviate()</text>
<text text-anchor="start" x="481" y="-29.5" font-family="Helvetica,sans-Serif" font-size="10.00">+ Validate()</text>
<text text-anchor="start" x="481" y="-18.5" font-family="Helvetica,sans-Serif" font-size="10.00">+ value()</text>
<text text-anchor="start" x="481" y="-7.5" font-family="Helvetica,sans-Serif" font-size="10.00">+ interval()</text>
</a>
</g>
</g>
<!-- Node1&#45;&gt;Node7 -->
<g id="edge6" class="edge"><title>Node1&#45;&gt;Node7</title>
<path fill="none" stroke="midnightblue" d="M503.631,-130.116C509.794,-120.834 516.283,-111.062 522.505,-101.691"/>
<polygon fill="none" stroke="midnightblue" points="500.696,-128.209 498.08,-138.476 506.527,-132.081 500.696,-128.209"/>
</g>
<!-- Node8 -->
<g id="node8" class="node"><title>Node8</title>
<g id="a_node8"><a xlink:href="classscram_1_1mef_1_1NormalDeviate.xhtml" target="_top" xlink:title="Normal distribution. ">
<polygon fill="white" stroke="black" points="656,-6 656,-96 805,-96 805,-6 656,-6"/>
<text text-anchor="middle" x="730.5" y="-84" font-family="Helvetica,sans-Serif" font-size="10.00">scram::mef::NormalDeviate</text>
<polyline fill="none" stroke="black" points="656,-77 805,-77 "/>
<text text-anchor="middle" x="730.5" y="-65" font-family="Helvetica,sans-Serif" font-size="10.00"> </text>
<polyline fill="none" stroke="black" points="656,-58 805,-58 "/>
<text text-anchor="start" x="664" y="-46" font-family="Helvetica,sans-Serif" font-size="10.00">+ NormalDeviate()</text>
<text text-anchor="start" x="664" y="-35" font-family="Helvetica,sans-Serif" font-size="10.00">+ Validate()</text>
<text text-anchor="start" x="664" y="-24" font-family="Helvetica,sans-Serif" font-size="10.00">+ value()</text>
<text text-anchor="start" x="664" y="-13" font-family="Helvetica,sans-Serif" font-size="10.00">+ interval()</text>
</a>
</g>
</g>
<!-- Node1&#45;&gt;Node8 -->
<g id="edge7" class="edge"><title>Node1&#45;&gt;Node8</title>
<path fill="none" stroke="midnightblue" d="M559.317,-142.57C587.799,-130.543 619.353,-116.424 647.5,-102 651.093,-100.159 654.742,-98.2234 658.405,-96.2276"/>
<polygon fill="none" stroke="midnightblue" points="557.654,-139.472 549.785,-146.566 560.361,-145.927 557.654,-139.472"/>
</g>
<!-- Node9 -->
<g id="node9" class="node"><title>Node9</title>
<g id="a_node9"><a xlink:href="classscram_1_1mef_1_1UniformDeviate.xhtml" target="_top" xlink:title="Uniform distribution. ">
<polygon fill="white" stroke="black" points="823.5,-6 823.5,-96 975.5,-96 975.5,-6 823.5,-6"/>
<text text-anchor="middle" x="899.5" y="-84" font-family="Helvetica,sans-Serif" font-size="10.00">scram::mef::UniformDeviate</text>
<polyline fill="none" stroke="black" points="823.5,-77 975.5,-77 "/>
<text text-anchor="middle" x="899.5" y="-65" font-family="Helvetica,sans-Serif" font-size="10.00"> </text>
<polyline fill="none" stroke="black" points="823.5,-58 975.5,-58 "/>
<text text-anchor="start" x="831.5" y="-46" font-family="Helvetica,sans-Serif" font-size="10.00">+ UniformDeviate()</text>
<text text-anchor="start" x="831.5" y="-35" font-family="Helvetica,sans-Serif" font-size="10.00">+ Validate()</text>
<text text-anchor="start" x="831.5" y="-24" font-family="Helvetica,sans-Serif" font-size="10.00">+ value()</text>
<text text-anchor="start" x="831.5" y="-13" font-family="Helvetica,sans-Serif" font-size="10.00">+ interval()</text>
</a>
</g>
</g>
<!-- Node1&#45;&gt;Node9 -->
<g id="edge8" class="edge"><title>Node1&#45;&gt;Node9</title>
<path fill="none" stroke="midnightblue" d="M559.752,-165.645C630.218,-154.649 731.034,-134.739 814.5,-102 818.963,-100.25 823.466,-98.2838 827.948,-96.1709"/>
<polygon fill="none" stroke="midnightblue" points="558.935,-162.229 549.581,-167.204 559.996,-169.149 558.935,-162.229"/>
</g>
<!-- Node2 -->
<g id="node2" class="node"><title>Node2</title>
<g id="a_node2"><a xlink:href="classscram_1_1mef_1_1Expression.xhtml" target="_top" xlink:title="Abstract base class for all sorts of expressions to describe events. ">
<polygon fill="white" stroke="black" points="408,-254.5 408,-410.5 537,-410.5 537,-254.5 408,-254.5"/>
<text text-anchor="middle" x="472.5" y="-398.5" font-family="Helvetica,sans-Serif" font-size="10.00">scram::mef::Expression</text>
<polyline fill="none" stroke="black" points="408,-391.5 537,-391.5 "/>
<text text-anchor="middle" x="472.5" y="-379.5" font-family="Helvetica,sans-Serif" font-size="10.00"> </text>
<polyline fill="none" stroke="black" points="408,-372.5 537,-372.5 "/>
<text text-anchor="start" x="416" y="-360.5" font-family="Helvetica,sans-Serif" font-size="10.00">+ Expression()</text>
<text text-anchor="start" x="416" y="-349.5" font-family="Helvetica,sans-Serif" font-size="10.00">+ ~Expression()</text>
<text text-anchor="start" x="416" y="-338.5" font-family="Helvetica,sans-Serif" font-size="10.00">+ args()</text>
<text text-anchor="start" x="416" y="-327.5" font-family="Helvetica,sans-Serif" font-size="10.00">+ Validate()</text>
<text text-anchor="start" x="416" y="-316.5" font-family="Helvetica,sans-Serif" font-size="10.00">+ value()</text>
<text text-anchor="start" x="416" y="-305.5" font-family="Helvetica,sans-Serif" font-size="10.00">+ interval()</text>
<text text-anchor="start" x="416" y="-294.5" font-family="Helvetica,sans-Serif" font-size="10.00">+ IsDeviate()</text>
<text text-anchor="start" x="416" y="-283.5" font-family="Helvetica,sans-Serif" font-size="10.00">+ Sample()</text>
<text text-anchor="start" x="416" y="-272.5" font-family="Helvetica,sans-Serif" font-size="10.00">+ Reset()</text>
<text text-anchor="start" x="416" y="-261.5" font-family="Helvetica,sans-Serif" font-size="10.00"># AddArg()</text>
</a>
</g>
</g>
<!-- Node2&#45;&gt;Node1 -->
<g id="edge1" class="edge"><title>Node2&#45;&gt;Node1</title>
<path fill="none" stroke="midnightblue" d="M472.5,-244.264C472.5,-235.019 472.5,-225.993 472.5,-217.747"/>
<polygon fill="none" stroke="midnightblue" points="469,-244.356 472.5,-254.356 476,-244.356 469,-244.356"/>
</g>
<!-- Node3 -->
<g id="node3" class="node"><title>Node3</title>
<polygon fill="white" stroke="#bfbfbf" points="434,-447.5 434,-504.5 511,-504.5 511,-447.5 434,-447.5"/>
<text text-anchor="middle" x="472.5" y="-492.5" font-family="Helvetica,sans-Serif" font-size="10.00">noncopyable</text>
<polyline fill="none" stroke="#bfbfbf" points="434,-485.5 511,-485.5 "/>
<text text-anchor="middle" x="472.5" y="-473.5" font-family="Helvetica,sans-Serif" font-size="10.00"> </text>
<polyline fill="none" stroke="#bfbfbf" points="434,-466.5 511,-466.5 "/>
<text text-anchor="middle" x="472.5" y="-454.5" font-family="Helvetica,sans-Serif" font-size="10.00"> </text>
</g>
<!-- Node3&#45;&gt;Node2 -->
<g id="edge2" class="edge"><title>Node3&#45;&gt;Node2</title>
<path fill="none" stroke="#8b1a1a" d="M472.5,-437.34C472.5,-429.044 472.5,-419.964 472.5,-410.736"/>
<polygon fill="none" stroke="#8b1a1a" points="469,-437.381 472.5,-447.381 476,-437.382 469,-437.381"/>
</g>
</g>
</svg>
