<?xml version="1.0" encoding="UTF-8" standalone="no"?>
<!DOCTYPE svg PUBLIC "-//W3C//DTD SVG 1.1//EN"
 "http://www.w3.org/Graphics/SVG/1.1/DTD/svg11.dtd">
<!-- Generated by graphviz version 2.38.0 (20140413.2041)
 -->
<!-- Title: scram::mef::Role Pages: 1 -->
<svg width="1075pt" height="959pt"
 viewBox="0.00 0.00 1074.50 959.00" xmlns="http://www.w3.org/2000/svg" xmlns:xlink="http://www.w3.org/1999/xlink">
<g id="graph0" class="graph" transform="scale(1 1) rotate(0) translate(4 955)">
<title>scram::mef::Role</title>
<polygon fill="white" stroke="none" points="-4,4 -4,-955 1070.5,-955 1070.5,4 -4,4"/>
<!-- Node1 -->
<g id="node1" class="node"><title>Node1</title>
<polygon fill="#bfbfbf" stroke="black" points="532.5,-860.5 532.5,-950.5 629.5,-950.5 629.5,-860.5 532.5,-860.5"/>
<text text-anchor="middle" x="581" y="-938.5" font-family="Helvetica,sans-Serif" font-size="10.00">scram::mef::Role</text>
<polyline fill="none" stroke="black" points="532.5,-931.5 629.5,-931.5 "/>
<text text-anchor="middle" x="581" y="-919.5" font-family="Helvetica,sans-Serif" font-size="10.00"> </text>
<polyline fill="none" stroke="black" points="532.5,-912.5 629.5,-912.5 "/>
<text text-anchor="start" x="540.5" y="-900.5" font-family="Helvetica,sans-Serif" font-size="10.00">+ Role()</text>
<text text-anchor="start" x="540.5" y="-889.5" font-family="Helvetica,sans-Serif" font-size="10.00">+ role()</text>
<text text-anchor="start" x="540.5" y="-878.5" font-family="Helvetica,sans-Serif" font-size="10.00">+ base_path()</text>
<text text-anchor="start" x="540.5" y="-867.5" font-family="Helvetica,sans-Serif" font-size="10.00"># ~Role()</text>
</g>
<!-- Node2 -->
<g id="node2" class="node"><title>Node2</title>
<g id="a_node2"><a xlink:href="classscram_1_1mef_1_1Component.xhtml" target="_top" xlink:title="Component is for logical grouping of events, gates, and other components. ">
<polygon fill="white" stroke="black" points="446,-524.5 446,-823.5 580,-823.5 580,-524.5 446,-524.5"/>
<text text-anchor="middle" x="513" y="-811.5" font-family="Helvetica,sans-Serif" font-size="10.00">scram::mef::Component</text>
<polyline fill="none" stroke="black" points="446,-804.5 580,-804.5 "/>
<text text-anchor="start" x="454" y="-792.5" font-family="Helvetica,sans-Serif" font-size="10.00">+ kTypeString</text>
<polyline fill="none" stroke="black" points="446,-785.5 580,-785.5 "/>
<text text-anchor="start" x="454" y="-773.5" font-family="Helvetica,sans-Serif" font-size="10.00">+ Component()</text>
<text text-anchor="start" x="454" y="-762.5" font-family="Helvetica,sans-Serif" font-size="10.00">+ ~Component()</text>
<text text-anchor="start" x="454" y="-751.5" font-family="Helvetica,sans-Serif" font-size="10.00">+ gates()</text>
<text text-anchor="start" x="454" y="-740.5" font-family="Helvetica,sans-Serif" font-size="10.00">+ basic_events()</text>
<text text-anchor="start" x="454" y="-729.5" font-family="Helvetica,sans-Serif" font-size="10.00">+ house_events()</text>
<text text-anchor="start" x="454" y="-718.5" font-family="Helvetica,sans-Serif" font-size="10.00">+ parameters()</text>
<text text-anchor="start" x="454" y="-707.5" font-family="Helvetica,sans-Serif" font-size="10.00">+ ccf_groups()</text>
<text text-anchor="start" x="454" y="-696.5" font-family="Helvetica,sans-Serif" font-size="10.00">+ components()</text>
<text text-anchor="start" x="454" y="-685.5" font-family="Helvetica,sans-Serif" font-size="10.00">+ Add()</text>
<text text-anchor="start" x="454" y="-674.5" font-family="Helvetica,sans-Serif" font-size="10.00">+ Add()</text>
<text text-anchor="start" x="454" y="-663.5" font-family="Helvetica,sans-Serif" font-size="10.00">+ Add()</text>
<text text-anchor="start" x="454" y="-652.5" font-family="Helvetica,sans-Serif" font-size="10.00">+ Add()</text>
<text text-anchor="start" x="454" y="-641.5" font-family="Helvetica,sans-Serif" font-size="10.00"># GatherGates()</text>
<text text-anchor="start" x="454" y="-630.5" font-family="Helvetica,sans-Serif" font-size="10.00">* gates()</text>
<text text-anchor="start" x="454" y="-619.5" font-family="Helvetica,sans-Serif" font-size="10.00">* basic_events()</text>
<text text-anchor="start" x="454" y="-608.5" font-family="Helvetica,sans-Serif" font-size="10.00">* house_events()</text>
<text text-anchor="start" x="454" y="-597.5" font-family="Helvetica,sans-Serif" font-size="10.00">* parameters()</text>
<text text-anchor="start" x="454" y="-586.5" font-family="Helvetica,sans-Serif" font-size="10.00">* ccf_groups()</text>
<text text-anchor="start" x="454" y="-575.5" font-family="Helvetica,sans-Serif" font-size="10.00">* components()</text>
<text text-anchor="start" x="454" y="-564.5" font-family="Helvetica,sans-Serif" font-size="10.00">* Add()</text>
<text text-anchor="start" x="454" y="-553.5" font-family="Helvetica,sans-Serif" font-size="10.00">* Add()</text>
<text text-anchor="start" x="454" y="-542.5" font-family="Helvetica,sans-Serif" font-size="10.00">* Add()</text>
<text text-anchor="start" x="454" y="-531.5" font-family="Helvetica,sans-Serif" font-size="10.00">* Add()</text>
</a>
</g>
</g>
<!-- Node1&#45;&gt;Node2 -->
<g id="edge1" class="edge"><title>Node1&#45;&gt;Node2</title>
<path fill="none" stroke="midnightblue" d="M565.026,-850.587C562.51,-842.095 559.808,-832.979 557.008,-823.526"/>
<polygon fill="none" stroke="midnightblue" points="561.692,-851.656 567.889,-860.25 568.404,-849.668 561.692,-851.656"/>
</g>
<!-- Node4 -->
<g id="node4" class="node"><title>Node4</title>
<g id="a_node4"><a xlink:href="classscram_1_1mef_1_1Id.xhtml" target="_top" xlink:title="Mixin class for assigning unique identifiers to elements. ">
<polygon fill="white" stroke="black" points="599.5,-596 599.5,-752 700.5,-752 700.5,-596 599.5,-596"/>
<text text-anchor="middle" x="650" y="-740" font-family="Helvetica,sans-Serif" font-size="10.00">scram::mef::Id</text>
<polyline fill="none" stroke="black" points="599.5,-733 700.5,-733 "/>
<text text-anchor="middle" x="650" y="-721" font-family="Helvetica,sans-Serif" font-size="10.00"> </text>
<polyline fill="none" stroke="black" points="599.5,-714 700.5,-714 "/>
<text text-anchor="start" x="607.5" y="-702" font-family="Helvetica,sans-Serif" font-size="10.00">+ Id()</text>
<text text-anchor="start" x="607.5" y="-691" font-family="Helvetica,sans-Serif" font-size="10.00">+ id()</text>
<text text-anchor="start" x="607.5" y="-680" font-family="Helvetica,sans-Serif" font-size="10.00">+ id_view()</text>
<text text-anchor="start" x="607.5" y="-669" font-family="Helvetica,sans-Serif" font-size="10.00">+ full_path()</text>
<text text-anchor="start" x="607.5" y="-658" font-family="Helvetica,sans-Serif" font-size="10.00">+ id()</text>
<text text-anchor="start" x="607.5" y="-647" font-family="Helvetica,sans-Serif" font-size="10.00">+ unique_name()</text>
<text text-anchor="start" x="607.5" y="-636" font-family="Helvetica,sans-Serif" font-size="10.00">+ unique_name()</text>
<text text-anchor="start" x="607.5" y="-625" font-family="Helvetica,sans-Serif" font-size="10.00"># ~Id()</text>
<text text-anchor="start" x="607.5" y="-614" font-family="Helvetica,sans-Serif" font-size="10.00">* unique_name()</text>
<text text-anchor="start" x="607.5" y="-603" font-family="Helvetica,sans-Serif" font-size="10.00">* unique_name()</text>
</a>
</g>
</g>
<!-- Node1&#45;&gt;Node4 -->
<g id="edge3" class="edge"><title>Node1&#45;&gt;Node4</title>
<path fill="none" stroke="midnightblue" d="M597.204,-850.603C606.026,-821.26 617.094,-784.449 626.814,-752.119"/>
<polygon fill="none" stroke="midnightblue" points="593.831,-849.666 594.304,-860.25 600.535,-851.681 593.831,-849.666"/>
</g>
<!-- Node3 -->
<g id="node3" class="node"><title>Node3</title>
<g id="a_node3"><a xlink:href="classscram_1_1mef_1_1FaultTree.xhtml" target="_top" xlink:title="Fault tree representation as a container of gates, basic and house events, and other information...">
<polygon fill="white" stroke="black" points="295.5,-353.5 295.5,-432.5 414.5,-432.5 414.5,-353.5 295.5,-353.5"/>
<text text-anchor="middle" x="355" y="-420.5" font-family="Helvetica,sans-Serif" font-size="10.00">scram::mef::FaultTree</text>
<polyline fill="none" stroke="black" points="295.5,-413.5 414.5,-413.5 "/>
<text text-anchor="start" x="303.5" y="-401.5" font-family="Helvetica,sans-Serif" font-size="10.00">+ kTypeString</text>
<polyline fill="none" stroke="black" points="295.5,-394.5 414.5,-394.5 "/>
<text text-anchor="start" x="303.5" y="-382.5" font-family="Helvetica,sans-Serif" font-size="10.00">+ FaultTree()</text>
<text text-anchor="start" x="303.5" y="-371.5" font-family="Helvetica,sans-Serif" font-size="10.00">+ top_events()</text>
<text text-anchor="start" x="303.5" y="-360.5" font-family="Helvetica,sans-Serif" font-size="10.00">+ CollectTopEvents()</text>
</a>
</g>
</g>
<!-- Node2&#45;&gt;Node3 -->
<g id="edge2" class="edge"><title>Node2&#45;&gt;Node3</title>
<path fill="none" stroke="midnightblue" d="M441.032,-545.918C417.71,-504.734 393.563,-462.095 376.81,-432.512"/>
<polygon fill="none" stroke="midnightblue" points="438.02,-547.702 445.994,-554.679 444.112,-544.253 438.02,-547.702"/>
</g>
<!-- Node5 -->
<g id="node5" class="node"><title>Node5</title>
<g id="a_node5"><a xlink:href="classscram_1_1mef_1_1CcfGroup.xhtml" target="_top" xlink:title="Abstract base class for all common cause failure models. ">
<polygon fill="white" stroke="black" points="433,-298.5 433,-487.5 555,-487.5 555,-298.5 433,-298.5"/>
<text text-anchor="middle" x="494" y="-475.5" font-family="Helvetica,sans-Serif" font-size="10.00">scram::mef::CcfGroup</text>
<polyline fill="none" stroke="black" points="433,-468.5 555,-468.5 "/>
<text text-anchor="start" x="441" y="-456.5" font-family="Helvetica,sans-Serif" font-size="10.00">+ kTypeString</text>
<polyline fill="none" stroke="black" points="433,-449.5 555,-449.5 "/>
<text text-anchor="start" x="441" y="-437.5" font-family="Helvetica,sans-Serif" font-size="10.00">+ ~CcfGroup()</text>
<text text-anchor="start" x="441" y="-426.5" font-family="Helvetica,sans-Serif" font-size="10.00">+ members()</text>
<text text-anchor="start" x="441" y="-415.5" font-family="Helvetica,sans-Serif" font-size="10.00">+ AddMember()</text>
<text text-anchor="start" x="441" y="-404.5" font-family="Helvetica,sans-Serif" font-size="10.00">+ AddDistribution()</text>
<text text-anchor="start" x="441" y="-393.5" font-family="Helvetica,sans-Serif" font-size="10.00">+ AddFactor()</text>
<text text-anchor="start" x="441" y="-382.5" font-family="Helvetica,sans-Serif" font-size="10.00">+ Validate()</text>
<text text-anchor="start" x="441" y="-371.5" font-family="Helvetica,sans-Serif" font-size="10.00">+ ApplyModel()</text>
<text text-anchor="start" x="441" y="-360.5" font-family="Helvetica,sans-Serif" font-size="10.00"># distribution()</text>
<text text-anchor="start" x="441" y="-349.5" font-family="Helvetica,sans-Serif" font-size="10.00"># factors()</text>
<text text-anchor="start" x="441" y="-338.5" font-family="Helvetica,sans-Serif" font-size="10.00"># Register()</text>
<text text-anchor="start" x="441" y="-327.5" font-family="Helvetica,sans-Serif" font-size="10.00"># Register()</text>
<text text-anchor="start" x="441" y="-316.5" font-family="Helvetica,sans-Serif" font-size="10.00">* Register()</text>
<text text-anchor="start" x="441" y="-305.5" font-family="Helvetica,sans-Serif" font-size="10.00">* Register()</text>
</a>
</g>
</g>
<!-- Node4&#45;&gt;Node5 -->
<g id="edge4" class="edge"><title>Node4&#45;&gt;Node5</title>
<path fill="none" stroke="midnightblue" d="M618.692,-586.402C610.016,-565.505 599.942,-543.57 589,-524 579.109,-506.311 567.202,-488.215 555.212,-471.36"/>
<polygon fill="none" stroke="midnightblue" points="615.557,-587.983 622.578,-595.917 622.038,-585.336 615.557,-587.983"/>
</g>
<!-- Node10 -->
<g id="node10" class="node"><title>Node10</title>
<g id="a_node10"><a xlink:href="classscram_1_1mef_1_1Event.xhtml" target="_top" xlink:title="Abstract base class for general fault tree events. ">
<polygon fill="white" stroke="black" points="677,-364.5 677,-421.5 781,-421.5 781,-364.5 677,-364.5"/>
<text text-anchor="middle" x="729" y="-409.5" font-family="Helvetica,sans-Serif" font-size="10.00">scram::mef::Event</text>
<polyline fill="none" stroke="black" points="677,-402.5 781,-402.5 "/>
<text text-anchor="start" x="685" y="-390.5" font-family="Helvetica,sans-Serif" font-size="10.00">+ kTypeString</text>
<polyline fill="none" stroke="black" points="677,-383.5 781,-383.5 "/>
<text text-anchor="start" x="685" y="-371.5" font-family="Helvetica,sans-Serif" font-size="10.00">+ ~Event()</text>
</a>
</g>
</g>
<!-- Node4&#45;&gt;Node10 -->
<g id="edge9" class="edge"><title>Node4&#45;&gt;Node10</title>
<path fill="none" stroke="midnightblue" d="M674.634,-586.003C690.613,-529.57 710.393,-459.715 721.142,-421.75"/>
<polygon fill="none" stroke="midnightblue" points="671.258,-585.078 671.901,-595.653 677.993,-586.985 671.258,-585.078"/>
</g>
<!-- Node15 -->
<g id="node15" class="node"><title>Node15</title>
<g id="a_node15"><a xlink:href="classscram_1_1mef_1_1Parameter.xhtml" target="_top" xlink:title="This class provides a representation of a variable in basic event description. ">
<polygon fill="white" stroke="black" points="799,-342.5 799,-443.5 927,-443.5 927,-342.5 799,-342.5"/>
<text text-anchor="middle" x="863" y="-431.5" font-family="Helvetica,sans-Serif" font-size="10.00">scram::mef::Parameter</text>
<polyline fill="none" stroke="black" points="799,-424.5 927,-424.5 "/>
<text text-anchor="start" x="807" y="-412.5" font-family="Helvetica,sans-Serif" font-size="10.00">+ kTypeString</text>
<polyline fill="none" stroke="black" points="799,-405.5 927,-405.5 "/>
<text text-anchor="start" x="807" y="-393.5" font-family="Helvetica,sans-Serif" font-size="10.00">+ expression()</text>
<text text-anchor="start" x="807" y="-382.5" font-family="Helvetica,sans-Serif" font-size="10.00">+ unit()</text>
<text text-anchor="start" x="807" y="-371.5" font-family="Helvetica,sans-Serif" font-size="10.00">+ unit()</text>
<text text-anchor="start" x="807" y="-360.5" font-family="Helvetica,sans-Serif" font-size="10.00">+ value()</text>
<text text-anchor="start" x="807" y="-349.5" font-family="Helvetica,sans-Serif" font-size="10.00">+ interval()</text>
</a>
</g>
</g>
<!-- Node4&#45;&gt;Node15 -->
<g id="edge14" class="edge"><title>Node4&#45;&gt;Node15</title>
<path fill="none" stroke="midnightblue" d="M706.889,-598.483C744.271,-549.518 792.154,-486.798 824.975,-443.808"/>
<polygon fill="none" stroke="midnightblue" points="704.034,-596.455 700.748,-606.527 709.598,-600.702 704.034,-596.455"/>
</g>
<!-- Node6 -->
<g id="node6" class="node"><title>Node6</title>
<g id="a_node6"><a xlink:href="classscram_1_1mef_1_1AlphaFactorModel.xhtml" target="_top" xlink:title="Alpha factor model characterizes failure of exactly k members of the group due to common cause...">
<polygon fill="white" stroke="black" points="0,-160.5 0,-217.5 162,-217.5 162,-160.5 0,-160.5"/>
<text text-anchor="middle" x="81" y="-205.5" font-family="Helvetica,sans-Serif" font-size="10.00">scram::mef::AlphaFactorModel</text>
<polyline fill="none" stroke="black" points="0,-198.5 162,-198.5 "/>
<text text-anchor="middle" x="81" y="-186.5" font-family="Helvetica,sans-Serif" font-size="10.00"> </text>
<polyline fill="none" stroke="black" points="0,-179.5 162,-179.5 "/>
<text text-anchor="middle" x="81" y="-167.5" font-family="Helvetica,sans-Serif" font-size="10.00"> </text>
</a>
</g>
</g>
<!-- Node5&#45;&gt;Node6 -->
<g id="edge5" class="edge"><title>Node5&#45;&gt;Node6</title>
<path fill="none" stroke="midnightblue" d="M424.279,-298.166C424.186,-298.111 424.093,-298.055 424,-298 326.353,-239.994 275.252,-307.069 171,-262 147.123,-251.678 124.287,-233.272 107.593,-217.655"/>
<polygon fill="none" stroke="midnightblue" points="422.411,-301.128 432.661,-303.808 426.319,-295.321 422.411,-301.128"/>
</g>
<!-- Node7 -->
<g id="node7" class="node"><title>Node7</title>
<g id="a_node7"><a xlink:href="classscram_1_1mef_1_1BetaFactorModel.xhtml" target="_top" xlink:title="Common cause failure model that assumes, if common cause failure occurs, then all components or membe...">
<polygon fill="white" stroke="black" points="180,-160.5 180,-217.5 338,-217.5 338,-160.5 180,-160.5"/>
<text text-anchor="middle" x="259" y="-205.5" font-family="Helvetica,sans-Serif" font-size="10.00">scram::mef::BetaFactorModel</text>
<polyline fill="none" stroke="black" points="180,-198.5 338,-198.5 "/>
<text text-anchor="middle" x="259" y="-186.5" font-family="Helvetica,sans-Serif" font-size="10.00"> </text>
<polyline fill="none" stroke="black" points="180,-179.5 338,-179.5 "/>
<text text-anchor="middle" x="259" y="-167.5" font-family="Helvetica,sans-Serif" font-size="10.00"> </text>
</a>
</g>
</g>
<!-- Node5&#45;&gt;Node7 -->
<g id="edge6" class="edge"><title>Node5&#45;&gt;Node7</title>
<path fill="none" stroke="midnightblue" d="M425.121,-298.923C424.748,-298.613 424.375,-298.305 424,-298 394.721,-274.128 378.977,-282.116 347,-262 326.448,-249.071 305.331,-231.945 288.935,-217.639"/>
<polygon fill="none" stroke="midnightblue" points="423.006,-301.726 432.804,-305.758 427.658,-296.496 423.006,-301.726"/>
</g>
<!-- Node8 -->
<g id="node8" class="node"><title>Node8</title>
<g id="a_node8"><a xlink:href="classscram_1_1mef_1_1MglModel.xhtml" target="_top" xlink:title="Multiple Greek Letters model characterizes failure of sub&#45;groups of the group due to common cause...">
<polygon fill="white" stroke="black" points="356,-160.5 356,-217.5 478,-217.5 478,-160.5 356,-160.5"/>
<text text-anchor="middle" x="417" y="-205.5" font-family="Helvetica,sans-Serif" font-size="10.00">scram::mef::MglModel</text>
<polyline fill="none" stroke="black" points="356,-198.5 478,-198.5 "/>
<text text-anchor="middle" x="417" y="-186.5" font-family="Helvetica,sans-Serif" font-size="10.00"> </text>
<polyline fill="none" stroke="black" points="356,-179.5 478,-179.5 "/>
<text text-anchor="middle" x="417" y="-167.5" font-family="Helvetica,sans-Serif" font-size="10.00"> </text>
</a>
</g>
</g>
<!-- Node5&#45;&gt;Node8 -->
<g id="edge7" class="edge"><title>Node5&#45;&gt;Node8</title>
<path fill="none" stroke="midnightblue" d="M454.645,-288.757C444.673,-262.597 434.778,-236.637 427.636,-217.903"/>
<polygon fill="none" stroke="midnightblue" points="451.485,-290.294 458.318,-298.392 458.026,-287.801 451.485,-290.294"/>
</g>
<!-- Node9 -->
<g id="node9" class="node"><title>Node9</title>
<g id="a_node9"><a xlink:href="classscram_1_1mef_1_1PhiFactorModel.xhtml" target="_top" xlink:title="Phi factor model is a simplification, where fractions of k&#45;member group failure is given directly...">
<polygon fill="white" stroke="black" points="496.5,-160.5 496.5,-217.5 645.5,-217.5 645.5,-160.5 496.5,-160.5"/>
<text text-anchor="middle" x="571" y="-205.5" font-family="Helvetica,sans-Serif" font-size="10.00">scram::mef::PhiFactorModel</text>
<polyline fill="none" stroke="black" points="496.5,-198.5 645.5,-198.5 "/>
<text text-anchor="middle" x="571" y="-186.5" font-family="Helvetica,sans-Serif" font-size="10.00"> </text>
<polyline fill="none" stroke="black" points="496.5,-179.5 645.5,-179.5 "/>
<text text-anchor="middle" x="571" y="-167.5" font-family="Helvetica,sans-Serif" font-size="10.00"> </text>
</a>
</g>
</g>
<!-- Node5&#45;&gt;Node9 -->
<g id="edge8" class="edge"><title>Node5&#45;&gt;Node9</title>
<path fill="none" stroke="midnightblue" d="M533.355,-288.757C543.327,-262.597 553.222,-236.637 560.364,-217.903"/>
<polygon fill="none" stroke="midnightblue" points="529.974,-287.801 529.682,-298.392 536.515,-290.294 529.974,-287.801"/>
</g>
<!-- Node11 -->
<g id="node11" class="node"><title>Node11</title>
<g id="a_node11"><a xlink:href="classscram_1_1mef_1_1BasicEvent.xhtml" target="_top" xlink:title="Representation of a basic event in a fault tree. ">
<polygon fill="white" stroke="black" points="664,-116.5 664,-261.5 794,-261.5 794,-116.5 664,-116.5"/>
<text text-anchor="middle" x="729" y="-249.5" font-family="Helvetica,sans-Serif" font-size="10.00">scram::mef::BasicEvent</text>
<polyline fill="none" stroke="black" points="664,-242.5 794,-242.5 "/>
<text text-anchor="start" x="672" y="-230.5" font-family="Helvetica,sans-Serif" font-size="10.00">+ kTypeString</text>
<polyline fill="none" stroke="black" points="664,-223.5 794,-223.5 "/>
<text text-anchor="start" x="672" y="-211.5" font-family="Helvetica,sans-Serif" font-size="10.00">+ ~BasicEvent()</text>
<text text-anchor="start" x="672" y="-200.5" font-family="Helvetica,sans-Serif" font-size="10.00">+ HasExpression()</text>
<text text-anchor="start" x="672" y="-189.5" font-family="Helvetica,sans-Serif" font-size="10.00">+ expression()</text>
<text text-anchor="start" x="672" y="-178.5" font-family="Helvetica,sans-Serif" font-size="10.00">+ expression()</text>
<text text-anchor="start" x="672" y="-167.5" font-family="Helvetica,sans-Serif" font-size="10.00">+ p()</text>
<text text-anchor="start" x="672" y="-156.5" font-family="Helvetica,sans-Serif" font-size="10.00">+ Validate()</text>
<text text-anchor="start" x="672" y="-145.5" font-family="Helvetica,sans-Serif" font-size="10.00">+ HasCcf()</text>
<text text-anchor="start" x="672" y="-134.5" font-family="Helvetica,sans-Serif" font-size="10.00">+ ccf_gate()</text>
<text text-anchor="start" x="672" y="-123.5" font-family="Helvetica,sans-Serif" font-size="10.00">+ ccf_gate()</text>
</a>
</g>
</g>
<!-- Node10&#45;&gt;Node11 -->
<g id="edge10" class="edge"><title>Node10&#45;&gt;Node11</title>
<path fill="none" stroke="midnightblue" d="M729,-354.157C729,-328.161 729,-292.841 729,-261.622"/>
<polygon fill="none" stroke="midnightblue" points="725.5,-354.336 729,-364.336 732.5,-354.336 725.5,-354.336"/>
</g>
<!-- Node13 -->
<g id="node13" class="node"><title>Node13</title>
<g id="a_node13"><a xlink:href="classscram_1_1mef_1_1Gate.xhtml" target="_top" xlink:title="A representation of a gate in a fault tree. ">
<polygon fill="white" stroke="black" points="812.5,-133 812.5,-245 913.5,-245 913.5,-133 812.5,-133"/>
<text text-anchor="middle" x="863" y="-233" font-family="Helvetica,sans-Serif" font-size="10.00">scram::mef::Gate</text>
<polyline fill="none" stroke="black" points="812.5,-226 913.5,-226 "/>
<text text-anchor="start" x="820.5" y="-214" font-family="Helvetica,sans-Serif" font-size="10.00">+ kTypeString</text>
<polyline fill="none" stroke="black" points="812.5,-207 913.5,-207 "/>
<text text-anchor="start" x="820.5" y="-195" font-family="Helvetica,sans-Serif" font-size="10.00">+ HasFormula()</text>
<text text-anchor="start" x="820.5" y="-184" font-family="Helvetica,sans-Serif" font-size="10.00">+ formula()</text>
<text text-anchor="start" x="820.5" y="-173" font-family="Helvetica,sans-Serif" font-size="10.00">+ formula()</text>
<text text-anchor="start" x="820.5" y="-162" font-family="Helvetica,sans-Serif" font-size="10.00">+ formula()</text>
<text text-anchor="start" x="820.5" y="-151" font-family="Helvetica,sans-Serif" font-size="10.00">* formula()</text>
<text text-anchor="start" x="820.5" y="-140" font-family="Helvetica,sans-Serif" font-size="10.00">* formula()</text>
</a>
</g>
</g>
<!-- Node10&#45;&gt;Node13 -->
<g id="edge12" class="edge"><title>Node10&#45;&gt;Node13</title>
<path fill="none" stroke="midnightblue" d="M752.403,-355.589C763.689,-338.12 777.467,-316.922 790,-298 801.435,-280.736 814.021,-262.016 825.476,-245.086"/>
<polygon fill="none" stroke="midnightblue" points="749.229,-354.053 746.748,-364.353 755.111,-357.848 749.229,-354.053"/>
</g>
<!-- Node14 -->
<g id="node14" class="node"><title>Node14</title>
<g id="a_node14"><a xlink:href="classscram_1_1mef_1_1HouseEvent.xhtml" target="_top" xlink:title="Representation of a house event in a fault tree. ">
<polygon fill="white" stroke="black" points="931.5,-138.5 931.5,-239.5 1066.5,-239.5 1066.5,-138.5 931.5,-138.5"/>
<text text-anchor="middle" x="999" y="-227.5" font-family="Helvetica,sans-Serif" font-size="10.00">scram::mef::HouseEvent</text>
<polyline fill="none" stroke="black" points="931.5,-220.5 1066.5,-220.5 "/>
<text text-anchor="start" x="939.5" y="-208.5" font-family="Helvetica,sans-Serif" font-size="10.00">+ kTypeString</text>
<text text-anchor="start" x="939.5" y="-197.5" font-family="Helvetica,sans-Serif" font-size="10.00">+ kTrue</text>
<text text-anchor="start" x="939.5" y="-186.5" font-family="Helvetica,sans-Serif" font-size="10.00">+ kFalse</text>
<polyline fill="none" stroke="black" points="931.5,-179.5 1066.5,-179.5 "/>
<text text-anchor="start" x="939.5" y="-167.5" font-family="Helvetica,sans-Serif" font-size="10.00">+ HouseEvent()</text>
<text text-anchor="start" x="939.5" y="-156.5" font-family="Helvetica,sans-Serif" font-size="10.00">+ state()</text>
<text text-anchor="start" x="939.5" y="-145.5" font-family="Helvetica,sans-Serif" font-size="10.00">+ state()</text>
</a>
</g>
</g>
<!-- Node10&#45;&gt;Node14 -->
<g id="edge13" class="edge"><title>Node10&#45;&gt;Node14</title>
<path fill="none" stroke="midnightblue" d="M744.88,-355.085C755.093,-335.448 770.183,-312.441 790,-298 839.491,-261.934 869.595,-291.968 923,-262 933.778,-255.952 944.193,-248.037 953.677,-239.673"/>
<polygon fill="none" stroke="midnightblue" points="741.709,-353.601 740.394,-364.114 747.978,-356.716 741.709,-353.601"/>
</g>
<!-- Node12 -->
<g id="node12" class="node"><title>Node12</title>
<g id="a_node12"><a xlink:href="classscram_1_1mef_1_1CcfEvent.xhtml" target="_top" xlink:title="A basic event that represents a multiple failure of a group of events due to a common cause...">
<polygon fill="white" stroke="black" points="669.5,-0.5 669.5,-79.5 788.5,-79.5 788.5,-0.5 669.5,-0.5"/>
<text text-anchor="middle" x="729" y="-67.5" font-family="Helvetica,sans-Serif" font-size="10.00">scram::mef::CcfEvent</text>
<polyline fill="none" stroke="black" points="669.5,-60.5 788.5,-60.5 "/>
<text text-anchor="middle" x="729" y="-48.5" font-family="Helvetica,sans-Serif" font-size="10.00"> </text>
<polyline fill="none" stroke="black" points="669.5,-41.5 788.5,-41.5 "/>
<text text-anchor="start" x="677.5" y="-29.5" font-family="Helvetica,sans-Serif" font-size="10.00">+ CcfEvent()</text>
<text text-anchor="start" x="677.5" y="-18.5" font-family="Helvetica,sans-Serif" font-size="10.00">+ ccf_group()</text>
<text text-anchor="start" x="677.5" y="-7.5" font-family="Helvetica,sans-Serif" font-size="10.00">+ members()</text>
</a>
</g>
</g>
<!-- Node11&#45;&gt;Node12 -->
<g id="edge11" class="edge"><title>Node11&#45;&gt;Node12</title>
<path fill="none" stroke="midnightblue" d="M729,-105.954C729,-96.8992 729,-88.0195 729,-79.875"/>
<polygon fill="none" stroke="midnightblue" points="725.5,-106.222 729,-116.223 732.5,-106.223 725.5,-106.222"/>
</g>
</g>
</svg>
