<?xml version="1.0" encoding="UTF-8" standalone="no"?>
<!DOCTYPE svg PUBLIC "-//W3C//DTD SVG 1.1//EN"
 "http://www.w3.org/Graphics/SVG/1.1/DTD/svg11.dtd">
<!-- Generated by graphviz version 2.38.0 (20140413.2041)
 -->
<!-- Title: scram::core::Preprocessor::GateSet::insert Pages: 1 -->
<svg width="321pt" height="253pt"
 viewBox="0.00 0.00 321.00 253.00" xmlns="http://www.w3.org/2000/svg" xmlns:xlink="http://www.w3.org/1999/xlink">
<g id="graph0" class="graph" transform="scale(1 1) rotate(0) translate(4 249)">
<title>scram::core::Preprocessor::GateSet::insert</title>
<polygon fill="white" stroke="none" points="-4,4 -4,-249 317,-249 317,4 -4,4"/>
<!-- Node1 -->
<g id="node1" class="node"><title>Node1</title>
<polygon fill="#bfbfbf" stroke="black" points="0,-105 0,-135 143,-135 143,-105 0,-105"/>
<text text-anchor="start" x="8" y="-123" font-family="Helvetica,sans-Serif" font-size="10.00">scram::core::Preprocessor</text>
<text text-anchor="middle" x="71.5" y="-112" font-family="Helvetica,sans-Serif" font-size="10.00">::GateSet::insert</text>
</g>
<!-- Node2 -->
<g id="node2" class="node"><title>Node2</title>
<g id="a_node2"><a xlink:href="classscram_1_1core_1_1Gate.xhtml#aa793eeaa12244c5b39a0d80e5b1518ae" target="_top" xlink:title="scram::core::Gate::args">
<polygon fill="white" stroke="black" points="181,-225.5 181,-244.5 311,-244.5 311,-225.5 181,-225.5"/>
<text text-anchor="middle" x="246" y="-232.5" font-family="Helvetica,sans-Serif" font-size="10.00">scram::core::Gate::args</text>
</a>
</g>
</g>
<!-- Node1&#45;&gt;Node2 -->
<g id="edge1" class="edge"><title>Node1&#45;&gt;Node2</title>
<path fill="none" stroke="midnightblue" d="M85.3476,-135.314C103.907,-156.479 140.264,-194.488 179,-216 182.977,-218.209 187.235,-220.181 191.602,-221.939"/>
<polygon fill="midnightblue" stroke="midnightblue" points="190.674,-225.325 201.268,-225.451 193.064,-218.746 190.674,-225.325"/>
</g>
<!-- Node3 -->
<g id="node3" class="node"><title>Node3</title>
<g id="a_node3"><a xlink:href="classscram_1_1core_1_1Gate.xhtml#ab2a4e8ac78b36541a32cc719863910a5" target="_top" xlink:title="scram::core::Gate::\lconstant">
<polygon fill="white" stroke="black" points="191.5,-176 191.5,-206 300.5,-206 300.5,-176 191.5,-176"/>
<text text-anchor="start" x="199.5" y="-194" font-family="Helvetica,sans-Serif" font-size="10.00">scram::core::Gate::</text>
<text text-anchor="middle" x="246" y="-183" font-family="Helvetica,sans-Serif" font-size="10.00">constant</text>
</a>
</g>
</g>
<!-- Node1&#45;&gt;Node3 -->
<g id="edge2" class="edge"><title>Node1&#45;&gt;Node3</title>
<path fill="none" stroke="midnightblue" d="M105.359,-135.181C126.288,-144.681 154.06,-156.975 179,-167 183.433,-168.782 188.056,-170.581 192.706,-172.349"/>
<polygon fill="midnightblue" stroke="midnightblue" points="191.645,-175.689 202.237,-175.923 194.102,-169.135 191.645,-175.689"/>
</g>
<!-- Node4 -->
<g id="node4" class="node"><title>Node4</title>
<g id="a_node4"><a xlink:href="classscram_1_1core_1_1Node.xhtml#a62121e217b0da73112af7e07275f2c15" target="_top" xlink:title="scram::core::Node::\lindex">
<polygon fill="white" stroke="black" points="190.5,-127 190.5,-157 301.5,-157 301.5,-127 190.5,-127"/>
<text text-anchor="start" x="198.5" y="-145" font-family="Helvetica,sans-Serif" font-size="10.00">scram::core::Node::</text>
<text text-anchor="middle" x="246" y="-134" font-family="Helvetica,sans-Serif" font-size="10.00">index</text>
</a>
</g>
</g>
<!-- Node1&#45;&gt;Node4 -->
<g id="edge3" class="edge"><title>Node1&#45;&gt;Node4</title>
<path fill="none" stroke="midnightblue" d="M143.16,-129.012C155.445,-130.578 168.166,-132.201 180.281,-133.746"/>
<polygon fill="midnightblue" stroke="midnightblue" points="179.931,-137.23 190.293,-135.023 180.816,-130.286 179.931,-137.23"/>
</g>
<!-- Node5 -->
<g id="node5" class="node"><title>Node5</title>
<g id="a_node5"><a xlink:href="classscram_1_1core_1_1Gate.xhtml#ab0e18a9481c5e712cbb0b0ff27ba72a5" target="_top" xlink:title="Marks are used for linear traversal of graphs. ">
<polygon fill="white" stroke="black" points="179,-88.5 179,-107.5 313,-107.5 313,-88.5 179,-88.5"/>
<text text-anchor="middle" x="246" y="-95.5" font-family="Helvetica,sans-Serif" font-size="10.00">scram::core::Gate::mark</text>
</a>
</g>
</g>
<!-- Node1&#45;&gt;Node5 -->
<g id="edge4" class="edge"><title>Node1&#45;&gt;Node5</title>
<path fill="none" stroke="midnightblue" d="M143.16,-110.988C151.653,-109.905 160.355,-108.795 168.921,-107.703"/>
<polygon fill="midnightblue" stroke="midnightblue" points="169.417,-111.168 178.894,-106.431 168.531,-104.224 169.417,-111.168"/>
</g>
<!-- Node6 -->
<g id="node6" class="node"><title>Node6</title>
<g id="a_node6"><a xlink:href="classscram_1_1core_1_1Gate.xhtml#acb1bf9fedf9a26b2185952e2c38d2f50" target="_top" xlink:title="scram::core::Gate::\lmin_number">
<polygon fill="white" stroke="black" points="191.5,-39 191.5,-69 300.5,-69 300.5,-39 191.5,-39"/>
<text text-anchor="start" x="199.5" y="-57" font-family="Helvetica,sans-Serif" font-size="10.00">scram::core::Gate::</text>
<text text-anchor="middle" x="246" y="-46" font-family="Helvetica,sans-Serif" font-size="10.00">min_number</text>
</a>
</g>
</g>
<!-- Node1&#45;&gt;Node6 -->
<g id="edge5" class="edge"><title>Node1&#45;&gt;Node6</title>
<path fill="none" stroke="midnightblue" d="M111.43,-104.955C131.587,-97.1797 156.604,-87.5524 179,-79 184.426,-76.9278 190.106,-74.7657 195.76,-72.6182"/>
<polygon fill="midnightblue" stroke="midnightblue" points="197.092,-75.8562 205.2,-69.0361 194.609,-69.3116 197.092,-75.8562"/>
</g>
<!-- Node7 -->
<g id="node7" class="node"><title>Node7</title>
<g id="a_node7"><a xlink:href="classscram_1_1core_1_1Gate.xhtml#ad88384625a5cdf44af140edefd250869" target="_top" xlink:title="scram::core::Gate::type">
<polygon fill="white" stroke="black" points="181,-0.5 181,-19.5 311,-19.5 311,-0.5 181,-0.5"/>
<text text-anchor="middle" x="246" y="-7.5" font-family="Helvetica,sans-Serif" font-size="10.00">scram::core::Gate::type</text>
</a>
</g>
</g>
<!-- Node1&#45;&gt;Node7 -->
<g id="edge6" class="edge"><title>Node1&#45;&gt;Node7</title>
<path fill="none" stroke="midnightblue" d="M86.5607,-104.748C105.68,-84.8607 141.781,-50.233 179,-30 183.865,-27.3553 189.126,-25.0134 194.482,-22.9512"/>
<polygon fill="midnightblue" stroke="midnightblue" points="195.894,-26.1647 204.159,-19.5364 193.564,-19.5636 195.894,-26.1647"/>
</g>
</g>
</svg>
