<?xml version="1.0" encoding="UTF-8" standalone="no"?>
<!DOCTYPE svg PUBLIC "-//W3C//DTD SVG 1.1//EN"
 "http://www.w3.org/Graphics/SVG/1.1/DTD/svg11.dtd">
<!-- Generated by graphviz version 2.38.0 (20140413.2041)
 -->
<!-- Title: scram::mef::Rule Pages: 1 -->
<!--zoomable 610 -->
<svg id="main" version="1.1" xmlns="http://www.w3.org/2000/svg" xmlns:xlink="http://www.w3.org/1999/xlink" xml:space="preserve" onload="init(evt)">
<style type="text/css"><![CDATA[
.edge:hover path { stroke: red; }
.edge:hover polygon { stroke: red; fill: red; }
]]></style>
<script type="text/javascript"><![CDATA[
var edges = document.getElementsByTagName('g');
if (edges && edges.length) {
  for (var i=0;i<edges.length;i++) {
    if (edges[i].id.substr(0,4)=='edge') {
      edges[i].setAttribute('class','edge');
    }
  }
}
]]></script>
        <defs>
                <circle id="rim" cx="0" cy="0" r="7"/>
                <circle id="rim2" cx="0" cy="0" r="3.5"/>
                <g id="zoomPlus">
                        <use xlink:href="#rim" fill="#404040">
                                <set attributeName="fill" to="#808080" begin="zoomplus.mouseover" end="zoomplus.mouseout"/>
                        </use>
                        <path d="M-4,0h8M0,-4v8" fill="none" stroke="white" stroke-width="1.5" pointer-events="none"/>
                </g>
                <g id="zoomMin">
                        <use xlink:href="#rim" fill="#404040">
                                <set attributeName="fill" to="#808080" begin="zoomminus.mouseover" end="zoomminus.mouseout"/>
                        </use>
                        <path d="M-4,0h8" fill="none" stroke="white" stroke-width="1.5" pointer-events="none"/>
                </g>
                <g id="dirArrow">
                        <path fill="none" stroke="white" stroke-width="1.5" d="M0,-3.0v7 M-2.5,-0.5L0,-3.0L2.5,-0.5"/>
                </g>
               <g id="resetDef">
                       <use xlink:href="#rim2" fill="#404040">
                               <set attributeName="fill" to="#808080" begin="reset.mouseover" end="reset.mouseout"/>
                       </use>
               </g>
        </defs>

<script type="text/javascript">
var viewWidth = 506;
var viewHeight = 610;
var sectionId = 'dynsection-0';
</script>
<script xlink:href="svgpan.js"/>
<svg id="graph" class="graph">
<g id="viewport">
<title>scram::mef::Rule</title>
<polygon fill="white" stroke="none" points="-4,4 -4,-606 502,-606 502,4 -4,4"/>
<!-- Node1 -->
<g id="node1" class="node"><title>Node1</title>
<polygon fill="#bfbfbf" stroke="black" points="225.5,-0.5 225.5,-68.5 322.5,-68.5 322.5,-0.5 225.5,-0.5"/>
<text text-anchor="middle" x="274" y="-56.5" font-family="Helvetica,sans-Serif" font-size="10.00">scram::mef::Rule</text>
<polyline fill="none" stroke="black" points="225.5,-49.5 322.5,-49.5 "/>
<text text-anchor="start" x="233.5" y="-37.5" font-family="Helvetica,sans-Serif" font-size="10.00">+ kTypeString</text>
<polyline fill="none" stroke="black" points="225.5,-30.5 322.5,-30.5 "/>
<text text-anchor="start" x="233.5" y="-18.5" font-family="Helvetica,sans-Serif" font-size="10.00">+ instructions()</text>
<text text-anchor="start" x="233.5" y="-7.5" font-family="Helvetica,sans-Serif" font-size="10.00">+ instructions()</text>
</g>
<!-- Node2 -->
<g id="node2" class="node"><title>Node2</title>
<g id="a_node2"><a xlink:href="classscram_1_1mef_1_1Element.xhtml" target="_top" xlink:title="The MEF Element with attributes and a label. ">
<polygon fill="white" stroke="black" points="23.5,-328.5 23.5,-506.5 140.5,-506.5 140.5,-328.5 23.5,-328.5"/>
<text text-anchor="middle" x="82" y="-494.5" font-family="Helvetica,sans-Serif" font-size="10.00">scram::mef::Element</text>
<polyline fill="none" stroke="black" points="23.5,-487.5 140.5,-487.5 "/>
<text text-anchor="middle" x="82" y="-475.5" font-family="Helvetica,sans-Serif" font-size="10.00"> </text>
<polyline fill="none" stroke="black" points="23.5,-468.5 140.5,-468.5 "/>
<text text-anchor="start" x="31.5" y="-456.5" font-family="Helvetica,sans-Serif" font-size="10.00">+ Element()</text>
<text text-anchor="start" x="31.5" y="-445.5" font-family="Helvetica,sans-Serif" font-size="10.00">+ name()</text>
<text text-anchor="start" x="31.5" y="-434.5" font-family="Helvetica,sans-Serif" font-size="10.00">+ name_view()</text>
<text text-anchor="start" x="31.5" y="-423.5" font-family="Helvetica,sans-Serif" font-size="10.00">+ label()</text>
<text text-anchor="start" x="31.5" y="-412.5" font-family="Helvetica,sans-Serif" font-size="10.00">+ label()</text>
<text text-anchor="start" x="31.5" y="-401.5" font-family="Helvetica,sans-Serif" font-size="10.00">+ attributes()</text>
<text text-anchor="start" x="31.5" y="-390.5" font-family="Helvetica,sans-Serif" font-size="10.00">+ AddAttribute()</text>
<text text-anchor="start" x="31.5" y="-379.5" font-family="Helvetica,sans-Serif" font-size="10.00">+ SetAttribute()</text>
<text text-anchor="start" x="31.5" y="-368.5" font-family="Helvetica,sans-Serif" font-size="10.00">+ GetAttribute()</text>
<text text-anchor="start" x="31.5" y="-357.5" font-family="Helvetica,sans-Serif" font-size="10.00">+ RemoveAttribute()</text>
<text text-anchor="start" x="31.5" y="-346.5" font-family="Helvetica,sans-Serif" font-size="10.00"># ~Element()</text>
<text text-anchor="start" x="31.5" y="-335.5" font-family="Helvetica,sans-Serif" font-size="10.00"># name()</text>
</a>
</g>
</g>
<!-- Node2&#45;&gt;Node1 -->
<g id="edge1" class="edge"><title>Node2&#45;&gt;Node1</title>
<path fill="none" stroke="midnightblue" d="M62.7167,-318.227C55.4146,-252.244 57.4961,-166.62 101,-106 129.648,-66.0801 184.977,-48.7184 225.375,-41.196"/>
<polygon fill="none" stroke="midnightblue" points="59.2497,-318.713 63.911,-328.227 66.2003,-317.883 59.2497,-318.713"/>
</g>
<!-- Node3 -->
<g id="node3" class="node"><title>Node3</title>
<g id="a_node3"><a xlink:href="classscram_1_1mef_1_1ContainerElement.xhtml" target="_top" xlink:title="Elements in MEF containers. ">
<polygon fill="white" stroke="black" points="0,-544.5 0,-601.5 164,-601.5 164,-544.5 0,-544.5"/>
<text text-anchor="middle" x="82" y="-589.5" font-family="Helvetica,sans-Serif" font-size="10.00">scram::mef::ContainerElement</text>
<polyline fill="none" stroke="black" points="0,-582.5 164,-582.5 "/>
<text text-anchor="middle" x="82" y="-570.5" font-family="Helvetica,sans-Serif" font-size="10.00"> </text>
<polyline fill="none" stroke="black" points="0,-563.5 164,-563.5 "/>
<text text-anchor="start" x="8" y="-551.5" font-family="Helvetica,sans-Serif" font-size="10.00"># container()</text>
</a>
</g>
</g>
<!-- Node3&#45;&gt;Node2 -->
<g id="edge2" class="edge"><title>Node3&#45;&gt;Node2</title>
<path fill="none" stroke="midnightblue" d="M82,-533.957C82,-525.471 82,-516.13 82,-506.549"/>
<polygon fill="none" stroke="midnightblue" points="78.5001,-534.202 82,-544.202 85.5001,-534.202 78.5001,-534.202"/>
</g>
<!-- Node4 -->
<g id="node4" class="node"><title>Node4</title>
<polygon fill="white" stroke="#bfbfbf" points="182.5,-544.5 182.5,-601.5 259.5,-601.5 259.5,-544.5 182.5,-544.5"/>
<text text-anchor="middle" x="221" y="-589.5" font-family="Helvetica,sans-Serif" font-size="10.00">noncopyable</text>
<polyline fill="none" stroke="#bfbfbf" points="182.5,-582.5 259.5,-582.5 "/>
<text text-anchor="middle" x="221" y="-570.5" font-family="Helvetica,sans-Serif" font-size="10.00"> </text>
<polyline fill="none" stroke="#bfbfbf" points="182.5,-563.5 259.5,-563.5 "/>
<text text-anchor="middle" x="221" y="-551.5" font-family="Helvetica,sans-Serif" font-size="10.00"> </text>
</g>
<!-- Node4&#45;&gt;Node2 -->
<g id="edge3" class="edge"><title>Node4&#45;&gt;Node2</title>
<path fill="none" stroke="#8b1a1a" d="M180.95,-537.578C170.524,-528.023 159.545,-517.405 150,-507 146.856,-503.573 143.705,-500.011 140.574,-496.369"/>
<polygon fill="none" stroke="#8b1a1a" points="178.651,-540.219 188.416,-544.331 183.347,-535.027 178.651,-540.219"/>
</g>
<!-- Node6 -->
<g id="node6" class="node"><title>Node6</title>
<g id="a_node6"><a xlink:href="classscram_1_1mef_1_1Instruction.xhtml" target="_top" xlink:title="Instructions and rules for event tree paths. ">
<polygon fill="white" stroke="black" points="159,-383.5 159,-451.5 287,-451.5 287,-383.5 159,-383.5"/>
<text text-anchor="middle" x="223" y="-439.5" font-family="Helvetica,sans-Serif" font-size="10.00">scram::mef::Instruction</text>
<polyline fill="none" stroke="black" points="159,-432.5 287,-432.5 "/>
<text text-anchor="middle" x="223" y="-420.5" font-family="Helvetica,sans-Serif" font-size="10.00"> </text>
<polyline fill="none" stroke="black" points="159,-413.5 287,-413.5 "/>
<text text-anchor="start" x="167" y="-401.5" font-family="Helvetica,sans-Serif" font-size="10.00">+ ~Instruction()</text>
<text text-anchor="start" x="167" y="-390.5" font-family="Helvetica,sans-Serif" font-size="10.00">+ Accept()</text>
</a>
</g>
</g>
<!-- Node4&#45;&gt;Node6 -->
<g id="edge6" class="edge"><title>Node4&#45;&gt;Node6</title>
<path fill="none" stroke="#8b1a1a" d="M221.496,-533.894C221.825,-508.655 222.252,-475.871 222.567,-451.7"/>
<polygon fill="none" stroke="#8b1a1a" points="217.993,-534.158 221.362,-544.202 224.992,-534.249 217.993,-534.158"/>
</g>
<!-- Node5 -->
<g id="node5" class="node"><title>Node5</title>
<g id="a_node5"><a xlink:href="classscram_1_1mef_1_1Visitable.xhtml" target="_top" xlink:title="{scram::mef::Visitable\l\&lt; Rule \&gt;\n||+ Accept()\l}">
<polygon fill="white" stroke="black" points="110,-112 110,-180 228,-180 228,-112 110,-112"/>
<text text-anchor="start" x="118" y="-168" font-family="Helvetica,sans-Serif" font-size="10.00">scram::mef::Visitable</text>
<text text-anchor="middle" x="169" y="-157" font-family="Helvetica,sans-Serif" font-size="10.00">&lt; Rule &gt;</text>
<polyline fill="none" stroke="black" points="110,-150 228,-150 "/>
<text text-anchor="middle" x="169" y="-138" font-family="Helvetica,sans-Serif" font-size="10.00"> </text>
<polyline fill="none" stroke="black" points="110,-131 228,-131 "/>
<text text-anchor="start" x="118" y="-119" font-family="Helvetica,sans-Serif" font-size="10.00">+ Accept()</text>
</a>
</g>
</g>
<!-- Node5&#45;&gt;Node1 -->
<g id="edge4" class="edge"><title>Node5&#45;&gt;Node1</title>
<path fill="none" stroke="midnightblue" d="M207.735,-104.605C219.119,-92.7328 231.432,-79.8921 242.32,-68.5381"/>
<polygon fill="none" stroke="midnightblue" points="205.183,-102.209 200.788,-111.849 210.236,-107.054 205.183,-102.209"/>
</g>
<!-- Node6&#45;&gt;Node5 -->
<g id="edge5" class="edge"><title>Node6&#45;&gt;Node5</title>
<path fill="none" stroke="midnightblue" d="M197.884,-374.266C185.306,-350.655 171.417,-320.18 165,-291 156.782,-253.628 159.816,-209.492 163.587,-180.025"/>
<polygon fill="none" stroke="midnightblue" points="194.943,-376.183 202.803,-383.287 201.088,-372.832 194.943,-376.183"/>
</g>
<!-- Node7 -->
<g id="node7" class="node"><title>Node7</title>
<g id="a_node7"><a xlink:href="classscram_1_1mef_1_1Visitable.xhtml" target="_top" xlink:title="Default visit for instruction type of T. ">
<polygon fill="white" stroke="black" points="174,-233.5 174,-290.5 320,-290.5 320,-233.5 174,-233.5"/>
<text text-anchor="middle" x="247" y="-278.5" font-family="Helvetica,sans-Serif" font-size="10.00">scram::mef::Visitable&lt; T &gt;</text>
<polyline fill="none" stroke="black" points="174,-271.5 320,-271.5 "/>
<text text-anchor="middle" x="247" y="-259.5" font-family="Helvetica,sans-Serif" font-size="10.00"> </text>
<polyline fill="none" stroke="black" points="174,-252.5 320,-252.5 "/>
<text text-anchor="start" x="182" y="-240.5" font-family="Helvetica,sans-Serif" font-size="10.00">+ Accept()</text>
</a>
</g>
</g>
<!-- Node6&#45;&gt;Node7 -->
<g id="edge8" class="edge"><title>Node6&#45;&gt;Node7</title>
<path fill="none" stroke="midnightblue" d="M229.796,-373.035C233.935,-346.559 239.1,-313.529 242.685,-290.601"/>
<polygon fill="none" stroke="midnightblue" points="226.294,-372.772 228.208,-383.193 233.21,-373.854 226.294,-372.772"/>
</g>
<!-- Node7&#45;&gt;Node5 -->
<g id="edge7" class="edge"><title>Node7&#45;&gt;Node5</title>
<path fill="none" stroke="orange" d="M222.212,-224.772C212.394,-210.423 201.185,-194.039 191.594,-180.021"/>
<polygon fill="orange" stroke="orange" points="219.583,-227.127 228.118,-233.404 225.36,-223.174 219.583,-227.127"/>
<text text-anchor="middle" x="238" y="-207" font-family="Helvetica,sans-Serif" font-size="10.00"> &lt; Rule &gt;</text>
</g>
<!-- Node8 -->
<g id="node8" class="node"><title>Node8</title>
<g id="a_node8"><a xlink:href="classscram_1_1mef_1_1NodeMark.xhtml" target="_top" xlink:title="Mixin class for providing marks for graph nodes. ">
<polygon fill="white" stroke="black" points="246,-106.5 246,-185.5 372,-185.5 372,-106.5 246,-106.5"/>
<text text-anchor="middle" x="309" y="-173.5" font-family="Helvetica,sans-Serif" font-size="10.00">scram::mef::NodeMark</text>
<polyline fill="none" stroke="black" points="246,-166.5 372,-166.5 "/>
<text text-anchor="middle" x="309" y="-154.5" font-family="Helvetica,sans-Serif" font-size="10.00"> </text>
<polyline fill="none" stroke="black" points="246,-147.5 372,-147.5 "/>
<text text-anchor="start" x="254" y="-135.5" font-family="Helvetica,sans-Serif" font-size="10.00">+ mark()</text>
<text text-anchor="start" x="254" y="-124.5" font-family="Helvetica,sans-Serif" font-size="10.00">+ mark()</text>
<text text-anchor="start" x="254" y="-113.5" font-family="Helvetica,sans-Serif" font-size="10.00"># ~NodeMark()</text>
</a>
</g>
</g>
<!-- Node8&#45;&gt;Node1 -->
<g id="edge9" class="edge"><title>Node8&#45;&gt;Node1</title>
<path fill="none" stroke="midnightblue" d="M293.555,-96.6793C290.532,-87.2203 287.425,-77.5017 284.604,-68.674"/>
<polygon fill="none" stroke="midnightblue" points="290.282,-97.9348 296.66,-106.394 296.949,-95.8035 290.282,-97.9348"/>
</g>
<!-- Node9 -->
<g id="node9" class="node"><title>Node9</title>
<g id="a_node9"><a xlink:href="classscram_1_1mef_1_1Usage.xhtml" target="_top" xlink:title="Mixin class for providing usage marks for elements. ">
<polygon fill="white" stroke="black" points="390,-106.5 390,-185.5 498,-185.5 498,-106.5 390,-106.5"/>
<text text-anchor="middle" x="444" y="-173.5" font-family="Helvetica,sans-Serif" font-size="10.00">scram::mef::Usage</text>
<polyline fill="none" stroke="black" points="390,-166.5 498,-166.5 "/>
<text text-anchor="middle" x="444" y="-154.5" font-family="Helvetica,sans-Serif" font-size="10.00"> </text>
<polyline fill="none" stroke="black" points="390,-147.5 498,-147.5 "/>
<text text-anchor="start" x="398" y="-135.5" font-family="Helvetica,sans-Serif" font-size="10.00">+ usage()</text>
<text text-anchor="start" x="398" y="-124.5" font-family="Helvetica,sans-Serif" font-size="10.00">+ usage()</text>
<text text-anchor="start" x="398" y="-113.5" font-family="Helvetica,sans-Serif" font-size="10.00"># ~Usage()</text>
</a>
</g>
</g>
<!-- Node9&#45;&gt;Node1 -->
<g id="edge10" class="edge"><title>Node9&#45;&gt;Node1</title>
<path fill="none" stroke="midnightblue" d="M381.263,-104.59C361.883,-92.1073 340.842,-78.5544 322.571,-66.7856"/>
<polygon fill="none" stroke="midnightblue" points="379.441,-107.58 389.744,-110.052 383.232,-101.695 379.441,-107.58"/>
</g>
</g>
</svg>
        <g id="navigator" transform="translate(0 0)" fill="#404254">
                <rect fill="#f2f5e9" fill-opacity="0.5" stroke="#606060" stroke-width=".5" x="0" y="0" width="60" height="60"/>
                <use id="zoomplus" xlink:href="#zoomPlus" x="17" y="9" onmousedown="handleZoom(evt,'in')"/>
                <use id="zoomminus" xlink:href="#zoomMin" x="42" y="9" onmousedown="handleZoom(evt,'out')"/>
                <use id="reset" xlink:href="#resetDef" x="30" y="36" onmousedown="handleReset()"/>
                <g id="arrowUp" xlink:href="#dirArrow" transform="translate(30 24)" onmousedown="handlePan(0,-1)">
                  <use xlink:href="#rim" fill="#404040">
                        <set attributeName="fill" to="#808080" begin="arrowUp.mouseover" end="arrowUp.mouseout"/>
                  </use>
                  <path fill="none" stroke="white" stroke-width="1.5" d="M0,-3.0v7 M-2.5,-0.5L0,-3.0L2.5,-0.5"/>
                </g>
                <g id="arrowRight" xlink:href="#dirArrow" transform="rotate(90) translate(36 -43)" onmousedown="handlePan(1,0)">
                  <use xlink:href="#rim" fill="#404040">
                        <set attributeName="fill" to="#808080" begin="arrowRight.mouseover" end="arrowRight.mouseout"/>
                  </use>
                  <path fill="none" stroke="white" stroke-width="1.5" d="M0,-3.0v7 M-2.5,-0.5L0,-3.0L2.5,-0.5"/>
                </g>
                <g id="arrowDown" xlink:href="#dirArrow" transform="rotate(180) translate(-30 -48)" onmousedown="handlePan(0,1)">
                  <use xlink:href="#rim" fill="#404040">
                        <set attributeName="fill" to="#808080" begin="arrowDown.mouseover" end="arrowDown.mouseout"/>
                  </use>
                  <path fill="none" stroke="white" stroke-width="1.5" d="M0,-3.0v7 M-2.5,-0.5L0,-3.0L2.5,-0.5"/>
                </g>
                <g id="arrowLeft" xlink:href="#dirArrow" transform="rotate(270) translate(-36 17)" onmousedown="handlePan(-1,0)">
                  <use xlink:href="#rim" fill="#404040">
                        <set attributeName="fill" to="#808080" begin="arrowLeft.mouseover" end="arrowLeft.mouseout"/>
                  </use>
                  <path fill="none" stroke="white" stroke-width="1.5" d="M0,-3.0v7 M-2.5,-0.5L0,-3.0L2.5,-0.5"/>
                </g>
        </g>
        <svg viewBox="0 0 15 15" width="100%" height="30px" preserveAspectRatio="xMaxYMin meet">
         <g id="arrow_out" transform="scale(0.3 0.3)">
          <a xlink:href="classscram_1_1mef_1_1Rule__inherit__graph_org.svg" target="_base">
           <rect id="button" ry="5" rx="5" y="6" x="6" height="38" width="38"
                fill="#f2f5e9" fill-opacity="0.5" stroke="#606060" stroke-width="1.0"/>
           <path id="arrow"
             d="M 11.500037,31.436501 C 11.940474,20.09759 22.043105,11.32322 32.158766,21.979434 L 37.068811,17.246167 C 37.068811,17.246167 37.088388,32 37.088388,32 L 22.160133,31.978069 C 22.160133,31.978069 26.997745,27.140456 26.997745,27.140456 C 18.528582,18.264221 13.291696,25.230495 11.500037,31.436501 z"
             style="fill:#404040;"/>
          </a>
         </g>
        </svg>
</svg>
