<?xml version="1.0" encoding="UTF-8" standalone="no"?>
<!DOCTYPE svg PUBLIC "-//W3C//DTD SVG 1.1//EN"
 "http://www.w3.org/Graphics/SVG/1.1/DTD/svg11.dtd">
<!-- Generated by graphviz version 2.38.0 (20140413.2041)
 -->
<!-- Title: ext::linear_set::empty Pages: 1 -->
<svg width="283pt" height="46pt"
 viewBox="0.00 0.00 283.00 46.00" xmlns="http://www.w3.org/2000/svg" xmlns:xlink="http://www.w3.org/1999/xlink">
<g id="graph0" class="graph" transform="scale(1 1) rotate(0) translate(4 42)">
<title>ext::linear_set::empty</title>
<polygon fill="white" stroke="none" points="-4,4 -4,-42 279,-42 279,4 -4,4"/>
<!-- Node1 -->
<g id="node1" class="node"><title>Node1</title>
<polygon fill="#bfbfbf" stroke="black" points="0,-0.5 0,-19.5 121,-19.5 121,-0.5 0,-0.5"/>
<text text-anchor="middle" x="60.5" y="-7.5" font-family="Helvetica,sans-Serif" font-size="10.00">ext::linear_set::empty</text>
</g>
<!-- Node2 -->
<g id="node2" class="node"><title>Node2</title>
<g id="a_node2"><a xlink:href="serialization_8cc.xhtml#a83f7058a5caad9ec3ffb5fd6c7d7b8f6" target="_top" xlink:title="Convenience function for serialization into a file. ">
<polygon fill="white" stroke="black" points="157,-0.5 157,-19.5 275,-19.5 275,-0.5 157,-0.5"/>
<text text-anchor="middle" x="216" y="-7.5" font-family="Helvetica,sans-Serif" font-size="10.00">scram::mef::Serialize</text>
</a>
</g>
</g>
<!-- Node1&#45;&gt;Node2 -->
<g id="edge1" class="edge"><title>Node1&#45;&gt;Node2</title>
<path fill="none" stroke="midnightblue" d="M131.544,-10C140.022,-10 148.609,-10 156.888,-10"/>
<polygon fill="midnightblue" stroke="midnightblue" points="131.287,-6.5001 121.287,-10 131.287,-13.5001 131.287,-6.5001"/>
</g>
<!-- Node2&#45;&gt;Node2 -->
<g id="edge2" class="edge"><title>Node2&#45;&gt;Node2</title>
<path fill="none" stroke="midnightblue" d="M187.254,-28.6539C188.456,-33.9368 198.038,-38 216,-38 243.371,-38 251.283,-28.5653 239.736,-19.7571"/>
<polygon fill="midnightblue" stroke="midnightblue" points="190.407,-30.1879 192.264,-19.7571 184.308,-26.7532 190.407,-30.1879"/>
</g>
</g>
</svg>
