<?xml version="1.0" encoding="UTF-8" standalone="no"?>
<!DOCTYPE svg PUBLIC "-//W3C//DTD SVG 1.1//EN"
 "http://www.w3.org/Graphics/SVG/1.1/DTD/svg11.dtd">
<!-- Generated by graphviz version 2.38.0 (20140413.2041)
 -->
<!-- Title: scram::mef::BasicEvent::expression Pages: 1 -->
<svg width="293pt" height="96pt"
 viewBox="0.00 0.00 293.00 95.50" xmlns="http://www.w3.org/2000/svg" xmlns:xlink="http://www.w3.org/1999/xlink">
<g id="graph0" class="graph" transform="scale(1 1) rotate(0) translate(4 91.5)">
<title>scram::mef::BasicEvent::expression</title>
<polygon fill="white" stroke="none" points="-4,4 -4,-91.5 289,-91.5 289,4 -4,4"/>
<!-- Node1 -->
<g id="node1" class="node"><title>Node1</title>
<polygon fill="#bfbfbf" stroke="black" points="0,-26 0,-56 130,-56 130,-26 0,-26"/>
<text text-anchor="start" x="8" y="-44" font-family="Helvetica,sans-Serif" font-size="10.00">scram::mef::BasicEvent</text>
<text text-anchor="middle" x="65" y="-33" font-family="Helvetica,sans-Serif" font-size="10.00">::expression</text>
</g>
<!-- Node1&#45;&gt;Node1 -->
<g id="edge2" class="edge"><title>Node1&#45;&gt;Node1</title>
<path fill="none" stroke="midnightblue" d="M36.5699,-66.4579C40.0985,-71.179 49.5752,-74.5 65,-74.5 90.3125,-74.5 99.6069,-65.5566 92.8833,-56.159"/>
<polygon fill="midnightblue" stroke="midnightblue" points="40.0815,-66.3305 37.1167,-56.159 33.0914,-65.9594 40.0815,-66.3305"/>
</g>
<!-- Node2 -->
<g id="node2" class="node"><title>Node2</title>
<g id="a_node2"><a xlink:href="classscram_1_1mef_1_1Initializer.xhtml#aa6329e9c18a0ef61415f8c7cb6076265" target="_top" xlink:title="Specializations for elements defined after registration. ">
<polygon fill="white" stroke="black" points="166,-57 166,-87 285,-87 285,-57 166,-57"/>
<text text-anchor="start" x="174" y="-75" font-family="Helvetica,sans-Serif" font-size="10.00">scram::mef::Initializer</text>
<text text-anchor="middle" x="225.5" y="-64" font-family="Helvetica,sans-Serif" font-size="10.00">::Define</text>
</a>
</g>
</g>
<!-- Node1&#45;&gt;Node2 -->
<g id="edge1" class="edge"><title>Node1&#45;&gt;Node2</title>
<path fill="none" stroke="midnightblue" d="M140.103,-55.4932C148.752,-57.185 157.484,-58.8928 165.883,-60.5355"/>
<polygon fill="midnightblue" stroke="midnightblue" points="140.497,-52.0042 130.011,-53.5195 139.153,-58.874 140.497,-52.0042"/>
</g>
<!-- Node3 -->
<g id="node3" class="node"><title>Node3</title>
<g id="a_node3"><a xlink:href="serialization_8cc.xhtml#a83f7058a5caad9ec3ffb5fd6c7d7b8f6" target="_top" xlink:title="Convenience function for serialization into a file. ">
<polygon fill="white" stroke="black" points="166.5,-0.5 166.5,-19.5 284.5,-19.5 284.5,-0.5 166.5,-0.5"/>
<text text-anchor="middle" x="225.5" y="-7.5" font-family="Helvetica,sans-Serif" font-size="10.00">scram::mef::Serialize</text>
</a>
</g>
</g>
<!-- Node1&#45;&gt;Node3 -->
<g id="edge3" class="edge"><title>Node1&#45;&gt;Node3</title>
<path fill="none" stroke="midnightblue" d="M140.135,-26.5004C152.262,-24.1285 164.55,-21.7252 175.856,-19.514"/>
<polygon fill="midnightblue" stroke="midnightblue" points="139.153,-23.126 130.011,-28.4805 140.497,-29.9958 139.153,-23.126"/>
</g>
<!-- Node3&#45;&gt;Node3 -->
<g id="edge4" class="edge"><title>Node3&#45;&gt;Node3</title>
<path fill="none" stroke="midnightblue" d="M195.56,-28.2746C196.414,-33.741 206.394,-38 225.5,-38 253.938,-38 262.158,-28.5653 250.161,-19.7571"/>
<polygon fill="midnightblue" stroke="midnightblue" points="198.546,-30.1007 200.839,-19.7571 192.596,-26.4128 198.546,-30.1007"/>
</g>
</g>
</svg>
