<?xml version="1.0" encoding="UTF-8" standalone="no"?>
<!DOCTYPE svg PUBLIC "-//W3C//DTD SVG 1.1//EN"
 "http://www.w3.org/Graphics/SVG/1.1/DTD/svg11.dtd">
<!-- Generated by graphviz version 2.38.0 (20140413.2041)
 -->
<!-- Title: scram::mef::Substitution::Validate Pages: 1 -->
<svg width="314pt" height="88pt"
 viewBox="0.00 0.00 314.00 88.00" xmlns="http://www.w3.org/2000/svg" xmlns:xlink="http://www.w3.org/1999/xlink">
<g id="graph0" class="graph" transform="scale(1 1) rotate(0) translate(4 84)">
<title>scram::mef::Substitution::Validate</title>
<polygon fill="white" stroke="none" points="-4,4 -4,-84 310,-84 310,4 -4,4"/>
<!-- Node1 -->
<g id="node1" class="node"><title>Node1</title>
<polygon fill="#bfbfbf" stroke="black" points="0,-49.5 0,-79.5 135,-79.5 135,-49.5 0,-49.5"/>
<text text-anchor="start" x="8" y="-67.5" font-family="Helvetica,sans-Serif" font-size="10.00">scram::mef::Substitution</text>
<text text-anchor="middle" x="67.5" y="-56.5" font-family="Helvetica,sans-Serif" font-size="10.00">::Validate</text>
</g>
<!-- Node2 -->
<g id="node2" class="node"><title>Node2</title>
<g id="a_node2"><a xlink:href="classscram_1_1mef_1_1Substitution.xhtml#ad29f35247718d44ff8d6f9bd9bd41d9f" target="_top" xlink:title="scram::mef::Substitution\l::declarative">
<polygon fill="white" stroke="black" points="171,-49.5 171,-79.5 306,-79.5 306,-49.5 171,-49.5"/>
<text text-anchor="start" x="179" y="-67.5" font-family="Helvetica,sans-Serif" font-size="10.00">scram::mef::Substitution</text>
<text text-anchor="middle" x="238.5" y="-56.5" font-family="Helvetica,sans-Serif" font-size="10.00">::declarative</text>
</a>
</g>
</g>
<!-- Node1&#45;&gt;Node2 -->
<g id="edge1" class="edge"><title>Node1&#45;&gt;Node2</title>
<path fill="none" stroke="midnightblue" d="M145.551,-57.7734C154.019,-57.7201 162.589,-57.7579 170.915,-57.8867"/>
<polygon fill="midnightblue" stroke="midnightblue" points="145.255,-54.2762 135.293,-57.8835 145.33,-61.2758 145.255,-54.2762"/>
</g>
<!-- Node3 -->
<g id="node3" class="node"><title>Node3</title>
<g id="a_node3"><a xlink:href="classscram_1_1mef_1_1Initializer.xhtml#a969f088f20697a8a317cb7c998f034ad" target="_top" xlink:title="Specializations for elements defined after registration. ">
<polygon fill="white" stroke="black" points="179,-0.5 179,-30.5 298,-30.5 298,-0.5 179,-0.5"/>
<text text-anchor="start" x="187" y="-18.5" font-family="Helvetica,sans-Serif" font-size="10.00">scram::mef::Initializer</text>
<text text-anchor="middle" x="238.5" y="-7.5" font-family="Helvetica,sans-Serif" font-size="10.00">::Define</text>
</a>
</g>
</g>
<!-- Node1&#45;&gt;Node3 -->
<g id="edge3" class="edge"><title>Node1&#45;&gt;Node3</title>
<path fill="none" stroke="midnightblue" d="M130.216,-46.6059C148.394,-41.3356 168.091,-35.6245 185.587,-30.5516"/>
<polygon fill="midnightblue" stroke="midnightblue" points="129.214,-43.2522 120.585,-49.3986 131.164,-49.9753 129.214,-43.2522"/>
</g>
<!-- Node2&#45;&gt;Node1 -->
<g id="edge2" class="edge"><title>Node2&#45;&gt;Node1</title>
<path fill="none" stroke="midnightblue" d="M160.661,-71.2253C152.194,-71.2801 143.624,-71.2438 135.293,-71.1165"/>
<polygon fill="midnightblue" stroke="midnightblue" points="160.954,-74.7224 170.915,-71.1133 160.878,-67.7228 160.954,-74.7224"/>
</g>
</g>
</svg>
