<?xml version="1.0" encoding="UTF-8" standalone="no"?>
<!DOCTYPE svg PUBLIC "-//W3C//DTD SVG 1.1//EN"
 "http://www.w3.org/Graphics/SVG/1.1/DTD/svg11.dtd">
<!-- Generated by graphviz version 2.38.0 (20140413.2041)
 -->
<!-- Title: scram::mef::InitiatingEvent::event_tree Pages: 1 -->
<svg width="354pt" height="88pt"
 viewBox="0.00 0.00 354.00 88.00" xmlns="http://www.w3.org/2000/svg" xmlns:xlink="http://www.w3.org/1999/xlink">
<g id="graph0" class="graph" transform="scale(1 1) rotate(0) translate(4 84)">
<title>scram::mef::InitiatingEvent::event_tree</title>
<polygon fill="white" stroke="none" points="-4,4 -4,-84 350,-84 350,4 -4,4"/>
<!-- Node1 -->
<g id="node1" class="node"><title>Node1</title>
<polygon fill="#bfbfbf" stroke="black" points="0,-24.5 0,-54.5 145,-54.5 145,-24.5 0,-24.5"/>
<text text-anchor="start" x="8" y="-42.5" font-family="Helvetica,sans-Serif" font-size="10.00">scram::mef::InitiatingEvent</text>
<text text-anchor="middle" x="72.5" y="-31.5" font-family="Helvetica,sans-Serif" font-size="10.00">::event_tree</text>
</g>
<!-- Node2 -->
<g id="node2" class="node"><title>Node2</title>
<g id="a_node2"><a xlink:href="classscram_1_1core_1_1EventTreeAnalysis.xhtml#a070c68c0d67edb30c9bf57e226aaf88e" target="_top" xlink:title="Analyzes an event tree given the initiating event. ">
<polygon fill="white" stroke="black" points="181,-49.5 181,-79.5 346,-79.5 346,-49.5 181,-49.5"/>
<text text-anchor="start" x="189" y="-67.5" font-family="Helvetica,sans-Serif" font-size="10.00">scram::core::EventTreeAnalysis</text>
<text text-anchor="middle" x="263.5" y="-56.5" font-family="Helvetica,sans-Serif" font-size="10.00">::Analyze</text>
</a>
</g>
</g>
<!-- Node1&#45;&gt;Node2 -->
<g id="edge1" class="edge"><title>Node1&#45;&gt;Node2</title>
<path fill="none" stroke="midnightblue" d="M155.378,-50.3304C163.774,-51.4409 172.305,-52.5694 180.699,-53.6798"/>
<polygon fill="midnightblue" stroke="midnightblue" points="155.595,-46.8287 145.222,-48.9871 154.677,-53.7683 155.595,-46.8287"/>
</g>
<!-- Node3 -->
<g id="node3" class="node"><title>Node3</title>
<g id="a_node3"><a xlink:href="classscram_1_1mef_1_1Initializer.xhtml#ac5a9fe2fb3d4cc5a37ead0726ca74462" target="_top" xlink:title="Specializations for elements defined after registration. ">
<polygon fill="white" stroke="black" points="204,-0.5 204,-30.5 323,-30.5 323,-0.5 204,-0.5"/>
<text text-anchor="start" x="212" y="-18.5" font-family="Helvetica,sans-Serif" font-size="10.00">scram::mef::Initializer</text>
<text text-anchor="middle" x="263.5" y="-7.5" font-family="Helvetica,sans-Serif" font-size="10.00">::Define</text>
</a>
</g>
</g>
<!-- Node1&#45;&gt;Node3 -->
<g id="edge2" class="edge"><title>Node1&#45;&gt;Node3</title>
<path fill="none" stroke="midnightblue" d="M155.286,-29.1145C171.583,-27.045 188.394,-24.9102 203.733,-22.9625"/>
<polygon fill="midnightblue" stroke="midnightblue" points="154.702,-25.6605 145.222,-30.3924 155.584,-32.6047 154.702,-25.6605"/>
</g>
</g>
</svg>
