<?xml version="1.0" encoding="UTF-8" standalone="no"?>
<!DOCTYPE svg PUBLIC "-//W3C//DTD SVG 1.1//EN"
 "http://www.w3.org/Graphics/SVG/1.1/DTD/svg11.dtd">
<!-- Generated by graphviz version 2.38.0 (20140413.2041)
 -->
<!-- Title: scram::mef::Initializer::Initializer Pages: 1 -->
<svg width="465pt" height="88pt"
 viewBox="0.00 0.00 465.00 88.00" xmlns="http://www.w3.org/2000/svg" xmlns:xlink="http://www.w3.org/1999/xlink">
<g id="graph0" class="graph" transform="scale(1 1) rotate(0) translate(4 84)">
<title>scram::mef::Initializer::Initializer</title>
<polygon fill="white" stroke="none" points="-4,4 -4,-84 461,-84 461,4 -4,4"/>
<!-- Node1 -->
<g id="node1" class="node"><title>Node1</title>
<polygon fill="#bfbfbf" stroke="black" points="0,-24.5 0,-54.5 119,-54.5 119,-24.5 0,-24.5"/>
<text text-anchor="start" x="8" y="-42.5" font-family="Helvetica,sans-Serif" font-size="10.00">scram::mef::Initializer</text>
<text text-anchor="middle" x="59.5" y="-31.5" font-family="Helvetica,sans-Serif" font-size="10.00">::Initializer</text>
</g>
<!-- Node2 -->
<g id="node2" class="node"><title>Node2</title>
<g id="a_node2"><a xlink:href="classscram_1_1xml_1_1Element.xhtml#a4a447a4146a0131bc1461762d55f6482" target="_top" xlink:title="scram::xml::Element\l::line">
<polygon fill="white" stroke="black" points="156,-49.5 156,-79.5 272,-79.5 272,-49.5 156,-49.5"/>
<text text-anchor="start" x="164" y="-67.5" font-family="Helvetica,sans-Serif" font-size="10.00">scram::xml::Element</text>
<text text-anchor="middle" x="214" y="-56.5" font-family="Helvetica,sans-Serif" font-size="10.00">::line</text>
</a>
</g>
</g>
<!-- Node1&#45;&gt;Node2 -->
<g id="edge1" class="edge"><title>Node1&#45;&gt;Node2</title>
<path fill="none" stroke="midnightblue" d="M119.024,-49.0942C127.812,-50.5348 136.933,-52.03 145.883,-53.4973"/>
<polygon fill="midnightblue" stroke="midnightblue" points="145.455,-56.9737 155.889,-55.1376 146.587,-50.0659 145.455,-56.9737"/>
</g>
<!-- Node3 -->
<g id="node3" class="node"><title>Node3</title>
<g id="a_node3"><a xlink:href="classscram_1_1xml_1_1Validator.xhtml#ad1626f649d58bab2db7a077f4b6b061e" target="_top" xlink:title="Validates XML DOM documents against the schema. ">
<polygon fill="white" stroke="black" points="155,-0.5 155,-30.5 273,-30.5 273,-0.5 155,-0.5"/>
<text text-anchor="start" x="163" y="-18.5" font-family="Helvetica,sans-Serif" font-size="10.00">scram::xml::Validator</text>
<text text-anchor="middle" x="214" y="-7.5" font-family="Helvetica,sans-Serif" font-size="10.00">::validate</text>
</a>
</g>
</g>
<!-- Node1&#45;&gt;Node3 -->
<g id="edge2" class="edge"><title>Node1&#45;&gt;Node3</title>
<path fill="none" stroke="midnightblue" d="M119.024,-30.2896C127.476,-28.9595 136.236,-27.5809 144.856,-26.2243"/>
<polygon fill="midnightblue" stroke="midnightblue" points="145.55,-29.6583 154.884,-24.6461 144.461,-22.7434 145.55,-29.6583"/>
</g>
<!-- Node4 -->
<g id="node4" class="node"><title>Node4</title>
<g id="a_node4"><a xlink:href="classscram_1_1xml_1_1Document.xhtml#afcabff07e31e1f4947f5c393364a1ea7" target="_top" xlink:title="scram::xml::Document::get">
<polygon fill="white" stroke="black" points="309,-6 309,-25 457,-25 457,-6 309,-6"/>
<text text-anchor="middle" x="383" y="-13" font-family="Helvetica,sans-Serif" font-size="10.00">scram::xml::Document::get</text>
</a>
</g>
</g>
<!-- Node3&#45;&gt;Node4 -->
<g id="edge3" class="edge"><title>Node3&#45;&gt;Node4</title>
<path fill="none" stroke="midnightblue" d="M273.408,-15.5C281.656,-15.5 290.264,-15.5 298.867,-15.5"/>
<polygon fill="midnightblue" stroke="midnightblue" points="298.941,-19.0001 308.941,-15.5 298.941,-12.0001 298.941,-19.0001"/>
</g>
</g>
</svg>
