<?xml version="1.0" encoding="UTF-8" standalone="no"?>
<!DOCTYPE svg PUBLIC "-//W3C//DTD SVG 1.1//EN"
 "http://www.w3.org/Graphics/SVG/1.1/DTD/svg11.dtd">
<!-- Generated by graphviz version 2.38.0 (20140413.2041)
 -->
<!-- Title: scram::core::zbdd::CutSetContainer::GatherModules Pages: 1 -->
<!--zoomable 454 -->
<svg id="main" version="1.1" xmlns="http://www.w3.org/2000/svg" xmlns:xlink="http://www.w3.org/1999/xlink" xml:space="preserve" onload="init(evt)">
<style type="text/css"><![CDATA[
.edge:hover path { stroke: red; }
.edge:hover polygon { stroke: red; fill: red; }
]]></style>
<script type="text/javascript"><![CDATA[
var edges = document.getElementsByTagName('g');
if (edges && edges.length) {
  for (var i=0;i<edges.length;i++) {
    if (edges[i].id.substr(0,4)=='edge') {
      edges[i].setAttribute('class','edge');
    }
  }
}
]]></script>
        <defs>
                <circle id="rim" cx="0" cy="0" r="7"/>
                <circle id="rim2" cx="0" cy="0" r="3.5"/>
                <g id="zoomPlus">
                        <use xlink:href="#rim" fill="#404040">
                                <set attributeName="fill" to="#808080" begin="zoomplus.mouseover" end="zoomplus.mouseout"/>
                        </use>
                        <path d="M-4,0h8M0,-4v8" fill="none" stroke="white" stroke-width="1.5" pointer-events="none"/>
                </g>
                <g id="zoomMin">
                        <use xlink:href="#rim" fill="#404040">
                                <set attributeName="fill" to="#808080" begin="zoomminus.mouseover" end="zoomminus.mouseout"/>
                        </use>
                        <path d="M-4,0h8" fill="none" stroke="white" stroke-width="1.5" pointer-events="none"/>
                </g>
                <g id="dirArrow">
                        <path fill="none" stroke="white" stroke-width="1.5" d="M0,-3.0v7 M-2.5,-0.5L0,-3.0L2.5,-0.5"/>
                </g>
               <g id="resetDef">
                       <use xlink:href="#rim2" fill="#404040">
                               <set attributeName="fill" to="#808080" begin="reset.mouseover" end="reset.mouseout"/>
                       </use>
               </g>
        </defs>

<script type="text/javascript">
var viewWidth = 716;
var viewHeight = 454;
var sectionId = 'dynsection-9';
</script>
<script xlink:href="svgpan.js"/>
<svg id="graph" class="graph">
<g id="viewport">
<title>scram::core::zbdd::CutSetContainer::GatherModules</title>
<polygon fill="white" stroke="none" points="-4,4 -4,-450 712,-450 712,4 -4,4"/>
<!-- Node1 -->
<g id="node1" class="node"><title>Node1</title>
<polygon fill="#bfbfbf" stroke="black" points="0,-204.5 0,-234.5 175,-234.5 175,-204.5 0,-204.5"/>
<text text-anchor="start" x="8" y="-222.5" font-family="Helvetica,sans-Serif" font-size="10.00">scram::core::zbdd::</text>
<text text-anchor="middle" x="87.5" y="-211.5" font-family="Helvetica,sans-Serif" font-size="10.00">CutSetContainer::GatherModules</text>
</g>
<!-- Node2 -->
<g id="node2" class="node"><title>Node2</title>
<g id="a_node2"><a xlink:href="classscram_1_1core_1_1Zbdd.xhtml#a516f0d2f35ad213399f83fb9ab102561" target="_top" xlink:title="Traverses ZBDD to find modules and adjusted cut&#45;offs. ">
<polygon fill="white" stroke="black" points="221,-229.5 221,-259.5 332,-259.5 332,-229.5 221,-229.5"/>
<text text-anchor="start" x="229" y="-247.5" font-family="Helvetica,sans-Serif" font-size="10.00">scram::core::Zbdd::</text>
<text text-anchor="middle" x="276.5" y="-236.5" font-family="Helvetica,sans-Serif" font-size="10.00">GatherModules</text>
</a>
</g>
</g>
<!-- Node1&#45;&gt;Node2 -->
<g id="edge1" class="edge"><title>Node1&#45;&gt;Node2</title>
<path fill="none" stroke="midnightblue" d="M175.157,-231.085C187.202,-232.695 199.399,-234.326 210.943,-235.869"/>
<polygon fill="midnightblue" stroke="midnightblue" points="210.523,-239.344 220.899,-237.2 211.451,-232.406 210.523,-239.344"/>
</g>
<!-- Node5 -->
<g id="node5" class="node"><title>Node5</title>
<g id="a_node5"><a xlink:href="classscram_1_1core_1_1NonTerminal.xhtml#aeeaafd82ae5890a7ec3462c68ffc8628" target="_top" xlink:title="scram::core::NonTerminal\l::index">
<polygon fill="white" stroke="black" points="558.5,-415.5 558.5,-445.5 697.5,-445.5 697.5,-415.5 558.5,-415.5"/>
<text text-anchor="start" x="566.5" y="-433.5" font-family="Helvetica,sans-Serif" font-size="10.00">scram::core::NonTerminal</text>
<text text-anchor="middle" x="628" y="-422.5" font-family="Helvetica,sans-Serif" font-size="10.00">::index</text>
</a>
</g>
</g>
<!-- Node1&#45;&gt;Node5 -->
<g id="edge18" class="edge"><title>Node1&#45;&gt;Node5</title>
<path fill="none" stroke="midnightblue" d="M103.744,-234.508C144.212,-273.233 259.395,-376.294 378,-416.5 432.762,-435.064 498.153,-438.069 548.179,-436.697"/>
<polygon fill="midnightblue" stroke="midnightblue" points="548.415,-440.191 558.291,-436.355 548.179,-433.195 548.415,-440.191"/>
</g>
<!-- Node9 -->
<g id="node9" class="node"><title>Node9</title>
<g id="a_node9"><a xlink:href="classscram_1_1core_1_1Zbdd.xhtml#aed1eaa96df30e6eaa32e9e51427c9743" target="_top" xlink:title="scram::core::Zbdd::\lmodules">
<polygon fill="white" stroke="black" points="389.5,-311.5 389.5,-341.5 500.5,-341.5 500.5,-311.5 389.5,-311.5"/>
<text text-anchor="start" x="397.5" y="-329.5" font-family="Helvetica,sans-Serif" font-size="10.00">scram::core::Zbdd::</text>
<text text-anchor="middle" x="445" y="-318.5" font-family="Helvetica,sans-Serif" font-size="10.00">modules</text>
</a>
</g>
</g>
<!-- Node1&#45;&gt;Node9 -->
<g id="edge23" class="edge"><title>Node1&#45;&gt;Node9</title>
<path fill="none" stroke="midnightblue" d="M122.625,-234.609C146.948,-245.016 180.592,-258.684 211,-268.5 267.109,-286.612 332.342,-302.415 379.49,-312.932"/>
<polygon fill="midnightblue" stroke="midnightblue" points="378.746,-316.352 389.266,-315.095 380.258,-309.517 378.746,-316.352"/>
</g>
<!-- Node14 -->
<g id="node14" class="node"><title>Node14</title>
<g id="a_node14"><a xlink:href="classscram_1_1core_1_1Zbdd.xhtml#a4ecbf60e6ac51e5260e8d8139c1b8599" target="_top" xlink:title="Joins a ZBDD representing a module gate. ">
<polygon fill="white" stroke="black" points="221,-180.5 221,-210.5 332,-210.5 332,-180.5 221,-180.5"/>
<text text-anchor="start" x="229" y="-198.5" font-family="Helvetica,sans-Serif" font-size="10.00">scram::core::Zbdd::</text>
<text text-anchor="middle" x="276.5" y="-187.5" font-family="Helvetica,sans-Serif" font-size="10.00">JoinModule</text>
</a>
</g>
</g>
<!-- Node1&#45;&gt;Node14 -->
<g id="edge19" class="edge"><title>Node1&#45;&gt;Node14</title>
<path fill="none" stroke="midnightblue" d="M175.157,-208.378C187.202,-206.832 199.399,-205.267 210.943,-203.785"/>
<polygon fill="midnightblue" stroke="midnightblue" points="211.426,-207.252 220.899,-202.508 210.535,-200.309 211.426,-207.252"/>
</g>
<!-- Node16 -->
<g id="node16" class="node"><title>Node16</title>
<g id="a_node16"><a xlink:href="classscram_1_1core_1_1Zbdd.xhtml#ae819f5439416479971018ac134233091" target="_top" xlink:title="Logs properties of the Zbdd. ">
<polygon fill="white" stroke="black" points="212.5,-142 212.5,-161 340.5,-161 340.5,-142 212.5,-142"/>
<text text-anchor="middle" x="276.5" y="-149" font-family="Helvetica,sans-Serif" font-size="10.00">scram::core::Zbdd::Log</text>
</a>
</g>
</g>
<!-- Node1&#45;&gt;Node16 -->
<g id="edge22" class="edge"><title>Node1&#45;&gt;Node16</title>
<path fill="none" stroke="midnightblue" d="M123.549,-204.46C147.868,-194.278 181.132,-180.847 211,-170.5 217.448,-168.266 224.314,-166.062 231.071,-163.99"/>
<polygon fill="midnightblue" stroke="midnightblue" points="232.259,-167.288 240.832,-161.062 230.247,-160.583 232.259,-167.288"/>
</g>
<!-- Node17 -->
<g id="node17" class="node"><title>Node17</title>
<g id="a_node17"><a xlink:href="classscram_1_1core_1_1Zbdd.xhtml#aa599878612e128fa09e17d0520280dbe" target="_top" xlink:title="scram::core::Zbdd::root">
<polygon fill="white" stroke="black" points="211,-104 211,-123 342,-123 342,-104 211,-104"/>
<text text-anchor="middle" x="276.5" y="-111" font-family="Helvetica,sans-Serif" font-size="10.00">scram::core::Zbdd::root</text>
</a>
</g>
</g>
<!-- Node1&#45;&gt;Node17 -->
<g id="edge24" class="edge"><title>Node1&#45;&gt;Node17</title>
<path fill="none" stroke="midnightblue" d="M105.979,-204.21C128.733,-185.012 170.405,-152.21 211,-132.5 215.671,-130.232 220.667,-128.178 225.733,-126.333"/>
<polygon fill="midnightblue" stroke="midnightblue" points="227.138,-129.553 235.495,-123.04 224.901,-122.92 227.138,-129.553"/>
</g>
<!-- Node3 -->
<g id="node3" class="node"><title>Node3</title>
<g id="a_node3"><a xlink:href="classscram_1_1core_1_1NonTerminal.xhtml#adcdd0c5114aa6a1d32a03928adc07c49" target="_top" xlink:title="scram::core::NonTerminal\l::coherent">
<polygon fill="white" stroke="black" points="558.5,-180.5 558.5,-210.5 697.5,-210.5 697.5,-180.5 558.5,-180.5"/>
<text text-anchor="start" x="566.5" y="-198.5" font-family="Helvetica,sans-Serif" font-size="10.00">scram::core::NonTerminal</text>
<text text-anchor="middle" x="628" y="-187.5" font-family="Helvetica,sans-Serif" font-size="10.00">::coherent</text>
</a>
</g>
</g>
<!-- Node2&#45;&gt;Node3 -->
<g id="edge2" class="edge"><title>Node2&#45;&gt;Node3</title>
<path fill="none" stroke="midnightblue" d="M332.109,-236.844C390.18,-228.702 482.557,-215.751 548.439,-206.514"/>
<polygon fill="midnightblue" stroke="midnightblue" points="548.95,-209.977 558.367,-205.122 547.978,-203.045 548.95,-209.977"/>
</g>
<!-- Node4 -->
<g id="node4" class="node"><title>Node4</title>
<g id="a_node4"><a xlink:href="classscram_1_1core_1_1NonTerminal.xhtml#a7b184b2ba68a289aae9f3737f1d13b97" target="_top" xlink:title="scram::core::NonTerminal\l::high">
<polygon fill="white" stroke="black" points="558.5,-366.5 558.5,-396.5 697.5,-396.5 697.5,-366.5 558.5,-366.5"/>
<text text-anchor="start" x="566.5" y="-384.5" font-family="Helvetica,sans-Serif" font-size="10.00">scram::core::NonTerminal</text>
<text text-anchor="middle" x="628" y="-373.5" font-family="Helvetica,sans-Serif" font-size="10.00">::high</text>
</a>
</g>
</g>
<!-- Node2&#45;&gt;Node4 -->
<g id="edge3" class="edge"><title>Node2&#45;&gt;Node4</title>
<path fill="none" stroke="midnightblue" d="M286.741,-259.555C302.29,-283.406 336.129,-329.339 378,-350.5 430.67,-377.118 497.323,-384.246 548.411,-385.057"/>
<polygon fill="midnightblue" stroke="midnightblue" points="548.385,-388.557 558.413,-385.139 548.442,-381.557 548.385,-388.557"/>
</g>
<!-- Node2&#45;&gt;Node5 -->
<g id="edge4" class="edge"><title>Node2&#45;&gt;Node5</title>
<path fill="none" stroke="midnightblue" d="M284.034,-259.76C297.229,-288.604 329.95,-350.965 378,-381.5 428.81,-413.789 496.318,-425.569 548.224,-429.534"/>
<polygon fill="midnightblue" stroke="midnightblue" points="548.172,-433.039 558.387,-430.227 548.648,-426.055 548.172,-433.039"/>
</g>
<!-- Node6 -->
<g id="node6" class="node"><title>Node6</title>
<g id="a_node6"><a xlink:href="classscram_1_1core_1_1Settings.xhtml#a0e43ec0f017d23a4fa4e376c4060d380" target="_top" xlink:title="scram::core::Settings\l::limit_order">
<polygon fill="white" stroke="black" points="385.5,-98.5 385.5,-128.5 504.5,-128.5 504.5,-98.5 385.5,-98.5"/>
<text text-anchor="start" x="393.5" y="-116.5" font-family="Helvetica,sans-Serif" font-size="10.00">scram::core::Settings</text>
<text text-anchor="middle" x="445" y="-105.5" font-family="Helvetica,sans-Serif" font-size="10.00">::limit_order</text>
</a>
</g>
</g>
<!-- Node2&#45;&gt;Node6 -->
<g id="edge5" class="edge"><title>Node2&#45;&gt;Node6</title>
<path fill="none" stroke="midnightblue" d="M328.444,-229.342C333.369,-226.574 338.009,-223.32 342,-219.5 370.755,-191.981 348.957,-164.716 378,-137.5 379.14,-136.432 380.331,-135.41 381.565,-134.434"/>
<polygon fill="midnightblue" stroke="midnightblue" points="383.891,-137.089 390.255,-128.617 379.998,-131.271 383.891,-137.089"/>
</g>
<!-- Node7 -->
<g id="node7" class="node"><title>Node7</title>
<g id="a_node7"><a xlink:href="classscram_1_1core_1_1NonTerminal.xhtml#adeb100923176ebd5f820c75b79280796" target="_top" xlink:title="scram::core::NonTerminal::low">
<polygon fill="white" stroke="black" points="548,-279 548,-298 708,-298 708,-279 548,-279"/>
<text text-anchor="middle" x="628" y="-286" font-family="Helvetica,sans-Serif" font-size="10.00">scram::core::NonTerminal::low</text>
</a>
</g>
</g>
<!-- Node2&#45;&gt;Node7 -->
<g id="edge6" class="edge"><title>Node2&#45;&gt;Node7</title>
<path fill="none" stroke="midnightblue" d="M332.242,-252.313C347.083,-254.38 363.151,-256.571 378,-258.5 431.01,-265.385 490.442,-272.566 537.945,-278.175"/>
<polygon fill="midnightblue" stroke="midnightblue" points="537.553,-281.653 547.894,-279.348 538.372,-274.701 537.553,-281.653"/>
</g>
<!-- Node8 -->
<g id="node8" class="node"><title>Node8</title>
<g id="a_node8"><a xlink:href="classscram_1_1core_1_1NonTerminal.xhtml#a9230422e92d086c34f67bcb864bfc8a9" target="_top" xlink:title="scram::core::NonTerminal\l::module">
<polygon fill="white" stroke="black" points="558.5,-229.5 558.5,-259.5 697.5,-259.5 697.5,-229.5 558.5,-229.5"/>
<text text-anchor="start" x="566.5" y="-247.5" font-family="Helvetica,sans-Serif" font-size="10.00">scram::core::NonTerminal</text>
<text text-anchor="middle" x="628" y="-236.5" font-family="Helvetica,sans-Serif" font-size="10.00">::module</text>
</a>
</g>
</g>
<!-- Node2&#45;&gt;Node8 -->
<g id="edge7" class="edge"><title>Node2&#45;&gt;Node8</title>
<path fill="none" stroke="midnightblue" d="M332.109,-244.5C390.061,-244.5 482.177,-244.5 548.032,-244.5"/>
<polygon fill="midnightblue" stroke="midnightblue" points="548.367,-248 558.367,-244.5 548.367,-241 548.367,-248"/>
</g>
<!-- Node2&#45;&gt;Node9 -->
<g id="edge8" class="edge"><title>Node2&#45;&gt;Node9</title>
<path fill="none" stroke="midnightblue" d="M305.896,-259.682C325.918,-270.267 353.436,-284.572 378,-296.5 385.325,-300.057 393.163,-303.732 400.786,-307.238"/>
<polygon fill="midnightblue" stroke="midnightblue" points="399.38,-310.444 409.93,-311.412 402.287,-304.076 399.38,-310.444"/>
</g>
<!-- Node11 -->
<g id="node11" class="node"><title>Node11</title>
<g id="a_node11"><a xlink:href="structscram_1_1core_1_1IntrusivePtrCast.xhtml#af153c12dc6133b7d9f9b7a57bba29f1d" target="_top" xlink:title="scram::core::IntrusivePtr\lCast\&lt; SetNode \&gt;::Ref">
<polygon fill="white" stroke="black" points="378,-49.5 378,-79.5 512,-79.5 512,-49.5 378,-49.5"/>
<text text-anchor="start" x="386" y="-67.5" font-family="Helvetica,sans-Serif" font-size="10.00">scram::core::IntrusivePtr</text>
<text text-anchor="middle" x="445" y="-56.5" font-family="Helvetica,sans-Serif" font-size="10.00">Cast&lt; SetNode &gt;::Ref</text>
</a>
</g>
</g>
<!-- Node2&#45;&gt;Node11 -->
<g id="edge15" class="edge"><title>Node2&#45;&gt;Node11</title>
<path fill="none" stroke="midnightblue" d="M329.963,-229.338C334.42,-226.582 338.538,-223.332 342,-219.5 382.473,-174.692 337.059,-132.881 378,-88.5 378.884,-87.5422 379.808,-86.6226 380.769,-85.7396"/>
<polygon fill="midnightblue" stroke="midnightblue" points="382.922,-88.4999 388.765,-79.6622 378.686,-82.927 382.922,-88.4999"/>
</g>
<!-- Node12 -->
<g id="node12" class="node"><title>Node12</title>
<g id="a_node12"><a xlink:href="classscram_1_1core_1_1Terminal.xhtml#a7a25b0b40498f4876571a5dac4e724c3" target="_top" xlink:title="scram::core::Terminal\l::value">
<polygon fill="white" stroke="black" points="385.5,-147.5 385.5,-177.5 504.5,-177.5 504.5,-147.5 385.5,-147.5"/>
<text text-anchor="start" x="393.5" y="-165.5" font-family="Helvetica,sans-Serif" font-size="10.00">scram::core::Terminal</text>
<text text-anchor="middle" x="445" y="-154.5" font-family="Helvetica,sans-Serif" font-size="10.00">::value</text>
</a>
</g>
</g>
<!-- Node2&#45;&gt;Node12 -->
<g id="edge16" class="edge"><title>Node2&#45;&gt;Node12</title>
<path fill="none" stroke="midnightblue" d="M321.266,-229.414C328.349,-226.442 335.489,-223.113 342,-219.5 359.488,-209.795 360.795,-202.698 378,-192.5 384.253,-188.794 391.043,-185.233 397.81,-181.941"/>
<polygon fill="midnightblue" stroke="midnightblue" points="399.414,-185.054 406.971,-177.629 396.433,-178.721 399.414,-185.054"/>
</g>
<!-- Node9&#45;&gt;Node3 -->
<g id="edge9" class="edge"><title>Node9&#45;&gt;Node3</title>
<path fill="none" stroke="midnightblue" d="M456.397,-311.369C473.073,-288.226 508.013,-244.134 548,-219.5 550.66,-217.861 553.44,-216.328 556.3,-214.893"/>
<polygon fill="midnightblue" stroke="midnightblue" points="558.001,-217.964 565.658,-210.641 555.105,-211.591 558.001,-217.964"/>
</g>
<!-- Node9&#45;&gt;Node4 -->
<g id="edge10" class="edge"><title>Node9&#45;&gt;Node4</title>
<path fill="none" stroke="midnightblue" d="M495.459,-341.529C517.806,-348.319 544.389,-356.397 567.789,-363.508"/>
<polygon fill="midnightblue" stroke="midnightblue" points="567.015,-366.931 577.601,-366.489 569.05,-360.233 567.015,-366.931"/>
</g>
<!-- Node9&#45;&gt;Node5 -->
<g id="edge11" class="edge"><title>Node9&#45;&gt;Node5</title>
<path fill="none" stroke="midnightblue" d="M461.31,-341.537C480.22,-359.351 514.065,-388.832 548,-406.5 551.546,-408.346 555.257,-410.075 559.055,-411.69"/>
<polygon fill="midnightblue" stroke="midnightblue" points="558.044,-415.054 568.631,-415.473 560.616,-408.543 558.044,-415.054"/>
</g>
<!-- Node9&#45;&gt;Node7 -->
<g id="edge12" class="edge"><title>Node9&#45;&gt;Node7</title>
<path fill="none" stroke="midnightblue" d="M500.797,-314.996C523.174,-310.298 549.019,-304.872 571.471,-300.158"/>
<polygon fill="midnightblue" stroke="midnightblue" points="572.456,-303.528 581.523,-298.048 571.017,-296.677 572.456,-303.528"/>
</g>
<!-- Node9&#45;&gt;Node8 -->
<g id="edge13" class="edge"><title>Node9&#45;&gt;Node8</title>
<path fill="none" stroke="midnightblue" d="M469.615,-311.486C489.851,-299.068 520.07,-281.574 548,-269.5 553.329,-267.196 558.942,-264.997 564.616,-262.928"/>
<polygon fill="midnightblue" stroke="midnightblue" points="565.906,-266.184 574.183,-259.571 563.588,-259.579 565.906,-266.184"/>
</g>
<!-- Node10 -->
<g id="node10" class="node"><title>Node10</title>
<g id="a_node10"><a xlink:href="classscram_1_1core_1_1NonTerminal.xhtml#af5853746ad388f479a7aa45c5d843466" target="_top" xlink:title="scram::core::NonTerminal\l\&lt; SetNode \&gt;::order">
<polygon fill="white" stroke="black" points="558.5,-317.5 558.5,-347.5 697.5,-347.5 697.5,-317.5 558.5,-317.5"/>
<text text-anchor="start" x="566.5" y="-335.5" font-family="Helvetica,sans-Serif" font-size="10.00">scram::core::NonTerminal</text>
<text text-anchor="middle" x="628" y="-324.5" font-family="Helvetica,sans-Serif" font-size="10.00">&lt; SetNode &gt;::order</text>
</a>
</g>
</g>
<!-- Node9&#45;&gt;Node10 -->
<g id="edge14" class="edge"><title>Node9&#45;&gt;Node10</title>
<path fill="none" stroke="midnightblue" d="M500.797,-328.316C515.648,-328.809 532.028,-329.352 547.928,-329.879"/>
<polygon fill="midnightblue" stroke="midnightblue" points="548.177,-333.389 558.287,-330.222 548.409,-326.393 548.177,-333.389"/>
</g>
<!-- Node13 -->
<g id="node13" class="node"><title>Node13</title>
<g id="a_node13"><a xlink:href="classscram_1_1core_1_1Vertex.xhtml#a8a4a6e9871c7b80b9951fea57617d438" target="_top" xlink:title="scram::core::Vertex::id">
<polygon fill="white" stroke="black" points="565.5,-142 565.5,-161 690.5,-161 690.5,-142 565.5,-142"/>
<text text-anchor="middle" x="628" y="-149" font-family="Helvetica,sans-Serif" font-size="10.00">scram::core::Vertex::id</text>
</a>
</g>
</g>
<!-- Node12&#45;&gt;Node13 -->
<g id="edge17" class="edge"><title>Node12&#45;&gt;Node13</title>
<path fill="none" stroke="midnightblue" d="M504.766,-158.929C520.836,-157.952 538.436,-156.882 555.148,-155.867"/>
<polygon fill="midnightblue" stroke="midnightblue" points="555.649,-159.343 565.418,-155.243 555.224,-152.356 555.649,-159.343"/>
</g>
<!-- Node14&#45;&gt;Node11 -->
<g id="edge21" class="edge"><title>Node14&#45;&gt;Node11</title>
<path fill="none" stroke="midnightblue" d="M328.444,-180.342C333.369,-177.574 338.009,-174.32 342,-170.5 370.755,-142.981 348.957,-115.716 378,-88.5 379.14,-87.4318 380.331,-86.4105 381.565,-85.4339"/>
<polygon fill="midnightblue" stroke="midnightblue" points="383.891,-88.0886 390.255,-79.6175 379.998,-82.2714 383.891,-88.0886"/>
</g>
<!-- Node15 -->
<g id="node15" class="node"><title>Node15</title>
<g id="a_node15"><a xlink:href="classscram_1_1core_1_1SetNode.xhtml#a88d05af2b9f4f08b7bc66a31c2b9e249" target="_top" xlink:title="scram::core::SetNode\l::minimal">
<polygon fill="white" stroke="black" points="384,-0.5 384,-30.5 506,-30.5 506,-0.5 384,-0.5"/>
<text text-anchor="start" x="392" y="-18.5" font-family="Helvetica,sans-Serif" font-size="10.00">scram::core::SetNode</text>
<text text-anchor="middle" x="445" y="-7.5" font-family="Helvetica,sans-Serif" font-size="10.00">::minimal</text>
</a>
</g>
</g>
<!-- Node14&#45;&gt;Node15 -->
<g id="edge20" class="edge"><title>Node14&#45;&gt;Node15</title>
<path fill="none" stroke="midnightblue" d="M329.963,-180.338C334.42,-177.582 338.538,-174.332 342,-170.5 382.473,-125.692 337.059,-83.8807 378,-39.5 378.884,-38.5422 379.808,-37.6226 380.769,-36.7396"/>
<polygon fill="midnightblue" stroke="midnightblue" points="382.922,-39.4999 388.765,-30.6622 378.686,-33.927 382.922,-39.4999"/>
</g>
</g>
</svg>
        <g id="navigator" transform="translate(0 0)" fill="#404254">
                <rect fill="#f2f5e9" fill-opacity="0.5" stroke="#606060" stroke-width=".5" x="0" y="0" width="60" height="60"/>
                <use id="zoomplus" xlink:href="#zoomPlus" x="17" y="9" onmousedown="handleZoom(evt,'in')"/>
                <use id="zoomminus" xlink:href="#zoomMin" x="42" y="9" onmousedown="handleZoom(evt,'out')"/>
                <use id="reset" xlink:href="#resetDef" x="30" y="36" onmousedown="handleReset()"/>
                <g id="arrowUp" xlink:href="#dirArrow" transform="translate(30 24)" onmousedown="handlePan(0,-1)">
                  <use xlink:href="#rim" fill="#404040">
                        <set attributeName="fill" to="#808080" begin="arrowUp.mouseover" end="arrowUp.mouseout"/>
                  </use>
                  <path fill="none" stroke="white" stroke-width="1.5" d="M0,-3.0v7 M-2.5,-0.5L0,-3.0L2.5,-0.5"/>
                </g>
                <g id="arrowRight" xlink:href="#dirArrow" transform="rotate(90) translate(36 -43)" onmousedown="handlePan(1,0)">
                  <use xlink:href="#rim" fill="#404040">
                        <set attributeName="fill" to="#808080" begin="arrowRight.mouseover" end="arrowRight.mouseout"/>
                  </use>
                  <path fill="none" stroke="white" stroke-width="1.5" d="M0,-3.0v7 M-2.5,-0.5L0,-3.0L2.5,-0.5"/>
                </g>
                <g id="arrowDown" xlink:href="#dirArrow" transform="rotate(180) translate(-30 -48)" onmousedown="handlePan(0,1)">
                  <use xlink:href="#rim" fill="#404040">
                        <set attributeName="fill" to="#808080" begin="arrowDown.mouseover" end="arrowDown.mouseout"/>
                  </use>
                  <path fill="none" stroke="white" stroke-width="1.5" d="M0,-3.0v7 M-2.5,-0.5L0,-3.0L2.5,-0.5"/>
                </g>
                <g id="arrowLeft" xlink:href="#dirArrow" transform="rotate(270) translate(-36 17)" onmousedown="handlePan(-1,0)">
                  <use xlink:href="#rim" fill="#404040">
                        <set attributeName="fill" to="#808080" begin="arrowLeft.mouseover" end="arrowLeft.mouseout"/>
                  </use>
                  <path fill="none" stroke="white" stroke-width="1.5" d="M0,-3.0v7 M-2.5,-0.5L0,-3.0L2.5,-0.5"/>
                </g>
        </g>
        <svg viewBox="0 0 15 15" width="100%" height="30px" preserveAspectRatio="xMaxYMin meet">
         <g id="arrow_out" transform="scale(0.3 0.3)">
          <a xlink:href="classscram_1_1core_1_1zbdd_1_1CutSetContainer_a478c89f64731781882b50ec55898900b_cgraph_org.svg" target="_base">
           <rect id="button" ry="5" rx="5" y="6" x="6" height="38" width="38"
                fill="#f2f5e9" fill-opacity="0.5" stroke="#606060" stroke-width="1.0"/>
           <path id="arrow"
             d="M 11.500037,31.436501 C 11.940474,20.09759 22.043105,11.32322 32.158766,21.979434 L 37.068811,17.246167 C 37.068811,17.246167 37.088388,32 37.088388,32 L 22.160133,31.978069 C 22.160133,31.978069 26.997745,27.140456 26.997745,27.140456 C 18.528582,18.264221 13.291696,25.230495 11.500037,31.436501 z"
             style="fill:#404040;"/>
          </a>
         </g>
        </svg>
</svg>
