<?xml version="1.0" encoding="UTF-8" standalone="no"?>
<!DOCTYPE svg PUBLIC "-//W3C//DTD SVG 1.1//EN"
 "http://www.w3.org/Graphics/SVG/1.1/DTD/svg11.dtd">
<!-- Generated by graphviz version 2.38.0 (20140413.2041)
 -->
<!-- Title: scram::core::CutSetProbabilityCalculator Pages: 1 -->
<svg width="356pt" height="171pt"
 viewBox="0.00 0.00 355.50 171.00" xmlns="http://www.w3.org/2000/svg" xmlns:xlink="http://www.w3.org/1999/xlink">
<g id="graph0" class="graph" transform="scale(1 1) rotate(0) translate(4 167)">
<title>scram::core::CutSetProbabilityCalculator</title>
<polygon fill="white" stroke="none" points="-4,4 -4,-167 351.5,-167 351.5,4 -4,4"/>
<!-- Node1 -->
<g id="node1" class="node"><title>Node1</title>
<polygon fill="#bfbfbf" stroke="black" points="86.5,-94.5 86.5,-162.5 248.5,-162.5 248.5,-94.5 86.5,-94.5"/>
<text text-anchor="start" x="94.5" y="-150.5" font-family="Helvetica,sans-Serif" font-size="10.00">scram::core::CutSetProbability</text>
<text text-anchor="middle" x="167.5" y="-139.5" font-family="Helvetica,sans-Serif" font-size="10.00">Calculator</text>
<polyline fill="none" stroke="black" points="86.5,-132.5 248.5,-132.5 "/>
<text text-anchor="middle" x="167.5" y="-120.5" font-family="Helvetica,sans-Serif" font-size="10.00"> </text>
<polyline fill="none" stroke="black" points="86.5,-113.5 248.5,-113.5 "/>
<text text-anchor="start" x="94.5" y="-101.5" font-family="Helvetica,sans-Serif" font-size="10.00">+ Calculate()</text>
</g>
<!-- Node2 -->
<g id="node2" class="node"><title>Node2</title>
<g id="a_node2"><a xlink:href="classscram_1_1core_1_1McubCalculator.xhtml" target="_top" xlink:title="Quantitative calculator of probability values with the Min&#45;Cut&#45;Upper Bound approximation. ">
<polygon fill="white" stroke="black" points="0,-0.5 0,-57.5 153,-57.5 153,-0.5 0,-0.5"/>
<text text-anchor="middle" x="76.5" y="-45.5" font-family="Helvetica,sans-Serif" font-size="10.00">scram::core::McubCalculator</text>
<polyline fill="none" stroke="black" points="0,-38.5 153,-38.5 "/>
<text text-anchor="middle" x="76.5" y="-26.5" font-family="Helvetica,sans-Serif" font-size="10.00"> </text>
<polyline fill="none" stroke="black" points="0,-19.5 153,-19.5 "/>
<text text-anchor="start" x="8" y="-7.5" font-family="Helvetica,sans-Serif" font-size="10.00">+ Calculate()</text>
</a>
</g>
</g>
<!-- Node1&#45;&gt;Node2 -->
<g id="edge1" class="edge"><title>Node1&#45;&gt;Node2</title>
<path fill="none" stroke="#8b1a1a" d="M129.768,-87.0726C120.568,-77.2161 110.932,-66.8919 102.425,-57.7765"/>
<polygon fill="none" stroke="#8b1a1a" points="127.31,-89.5685 136.692,-94.4909 132.427,-84.7922 127.31,-89.5685"/>
</g>
<!-- Node3 -->
<g id="node3" class="node"><title>Node3</title>
<g id="a_node3"><a xlink:href="classscram_1_1core_1_1RareEventCalculator.xhtml" target="_top" xlink:title="Quantitative calculator of probability values with the Rare&#45;Event approximation. ">
<polygon fill="white" stroke="black" points="171.5,-0.5 171.5,-57.5 347.5,-57.5 347.5,-0.5 171.5,-0.5"/>
<text text-anchor="middle" x="259.5" y="-45.5" font-family="Helvetica,sans-Serif" font-size="10.00">scram::core::RareEventCalculator</text>
<polyline fill="none" stroke="black" points="171.5,-38.5 347.5,-38.5 "/>
<text text-anchor="middle" x="259.5" y="-26.5" font-family="Helvetica,sans-Serif" font-size="10.00"> </text>
<polyline fill="none" stroke="black" points="171.5,-19.5 347.5,-19.5 "/>
<text text-anchor="start" x="179.5" y="-7.5" font-family="Helvetica,sans-Serif" font-size="10.00">+ Calculate()</text>
</a>
</g>
</g>
<!-- Node1&#45;&gt;Node3 -->
<g id="edge2" class="edge"><title>Node1&#45;&gt;Node3</title>
<path fill="none" stroke="#8b1a1a" d="M205.647,-87.0726C214.947,-77.2161 224.689,-66.8919 233.29,-57.7765"/>
<polygon fill="none" stroke="#8b1a1a" points="202.964,-84.8156 198.647,-94.4909 208.056,-89.6197 202.964,-84.8156"/>
</g>
</g>
</svg>
