<?xml version="1.0" encoding="UTF-8" standalone="no"?>
<!DOCTYPE svg PUBLIC "-//W3C//DTD SVG 1.1//EN"
 "http://www.w3.org/Graphics/SVG/1.1/DTD/svg11.dtd">
<!-- Generated by graphviz version 2.38.0 (20140413.2041)
 -->
<!-- Title: scram::mef::Block::instructions Pages: 1 -->
<svg width="311pt" height="88pt"
 viewBox="0.00 0.00 311.00 88.00" xmlns="http://www.w3.org/2000/svg" xmlns:xlink="http://www.w3.org/1999/xlink">
<g id="graph0" class="graph" transform="scale(1 1) rotate(0) translate(4 84)">
<title>scram::mef::Block::instructions</title>
<polygon fill="white" stroke="none" points="-4,4 -4,-84 307,-84 307,4 -4,4"/>
<!-- Node1 -->
<g id="node1" class="node"><title>Node1</title>
<polygon fill="#bfbfbf" stroke="black" points="0,-24.5 0,-54.5 109,-54.5 109,-24.5 0,-24.5"/>
<text text-anchor="start" x="8" y="-42.5" font-family="Helvetica,sans-Serif" font-size="10.00">scram::mef::Block::</text>
<text text-anchor="middle" x="54.5" y="-31.5" font-family="Helvetica,sans-Serif" font-size="10.00">instructions</text>
</g>
<!-- Node2 -->
<g id="node2" class="node"><title>Node2</title>
<g id="a_node2"><a xlink:href="cycle_8cc.xhtml#a8d1dbf23cd6f7bf9ca4457c426a1cfe1" target="_top" xlink:title="Cycle detection specialization for visitor&#45;based traversal of instructions. ">
<polygon fill="white" stroke="black" points="169.5,-49.5 169.5,-79.5 278.5,-79.5 278.5,-49.5 169.5,-49.5"/>
<text text-anchor="start" x="177.5" y="-67.5" font-family="Helvetica,sans-Serif" font-size="10.00">scram::mef::cycle::</text>
<text text-anchor="middle" x="224" y="-56.5" font-family="Helvetica,sans-Serif" font-size="10.00">ContinueConnector</text>
</a>
</g>
</g>
<!-- Node1&#45;&gt;Node2 -->
<g id="edge1" class="edge"><title>Node1&#45;&gt;Node2</title>
<path fill="none" stroke="midnightblue" d="M119.521,-49.0554C136.008,-51.5161 153.576,-54.1382 169.468,-56.5101"/>
<polygon fill="midnightblue" stroke="midnightblue" points="119.827,-45.5624 109.42,-47.5478 118.794,-52.4857 119.827,-45.5624"/>
</g>
<!-- Node3 -->
<g id="node3" class="node"><title>Node3</title>
<g id="a_node3"><a xlink:href="classscram_1_1mef_1_1InstructionVisitor.xhtml#a9925b9935fcab071c97e90b377559d6a" target="_top" xlink:title="A set of required visitation functions for concrete visitors to implement. ">
<polygon fill="white" stroke="black" points="145,-0.5 145,-30.5 303,-30.5 303,-0.5 145,-0.5"/>
<text text-anchor="start" x="153" y="-18.5" font-family="Helvetica,sans-Serif" font-size="10.00">scram::mef::InstructionVisitor</text>
<text text-anchor="middle" x="224" y="-7.5" font-family="Helvetica,sans-Serif" font-size="10.00">::Visit</text>
</a>
</g>
</g>
<!-- Node1&#45;&gt;Node3 -->
<g id="edge2" class="edge"><title>Node1&#45;&gt;Node3</title>
<path fill="none" stroke="midnightblue" d="M119.391,-30.3455C127.697,-29.1553 136.28,-27.9256 144.786,-26.7068"/>
<polygon fill="midnightblue" stroke="midnightblue" points="118.823,-26.8911 109.42,-31.7741 119.815,-33.8203 118.823,-26.8911"/>
</g>
</g>
</svg>
