<?xml version="1.0" encoding="UTF-8" standalone="no"?>
<!DOCTYPE svg PUBLIC "-//W3C//DTD SVG 1.1//EN"
 "http://www.w3.org/Graphics/SVG/1.1/DTD/svg11.dtd">
<!-- Generated by graphviz version 2.38.0 (20140413.2041)
 -->
<!-- Title: scram::mef::Expression::Reset Pages: 1 -->
<!--zoomable 516 -->
<svg id="main" version="1.1" xmlns="http://www.w3.org/2000/svg" xmlns:xlink="http://www.w3.org/1999/xlink" xml:space="preserve" onload="init(evt)">
<style type="text/css"><![CDATA[
.edge:hover path { stroke: red; }
.edge:hover polygon { stroke: red; fill: red; }
]]></style>
<script type="text/javascript"><![CDATA[
var edges = document.getElementsByTagName('g');
if (edges && edges.length) {
  for (var i=0;i<edges.length;i++) {
    if (edges[i].id.substr(0,4)=='edge') {
      edges[i].setAttribute('class','edge');
    }
  }
}
]]></script>
        <defs>
                <circle id="rim" cx="0" cy="0" r="7"/>
                <circle id="rim2" cx="0" cy="0" r="3.5"/>
                <g id="zoomPlus">
                        <use xlink:href="#rim" fill="#404040">
                                <set attributeName="fill" to="#808080" begin="zoomplus.mouseover" end="zoomplus.mouseout"/>
                        </use>
                        <path d="M-4,0h8M0,-4v8" fill="none" stroke="white" stroke-width="1.5" pointer-events="none"/>
                </g>
                <g id="zoomMin">
                        <use xlink:href="#rim" fill="#404040">
                                <set attributeName="fill" to="#808080" begin="zoomminus.mouseover" end="zoomminus.mouseout"/>
                        </use>
                        <path d="M-4,0h8" fill="none" stroke="white" stroke-width="1.5" pointer-events="none"/>
                </g>
                <g id="dirArrow">
                        <path fill="none" stroke="white" stroke-width="1.5" d="M0,-3.0v7 M-2.5,-0.5L0,-3.0L2.5,-0.5"/>
                </g>
               <g id="resetDef">
                       <use xlink:href="#rim2" fill="#404040">
                               <set attributeName="fill" to="#808080" begin="reset.mouseover" end="reset.mouseout"/>
                       </use>
               </g>
        </defs>

<script type="text/javascript">
var viewWidth = 1081;
var viewHeight = 516;
var sectionId = 'dynsection-10';
</script>
<script xlink:href="svgpan.js"/>
<svg id="graph" class="graph">
<g id="viewport">
<title>scram::mef::Expression::Reset</title>
<polygon fill="white" stroke="none" points="-4,4 -4,-511.5 1077,-511.5 1077,4 -4,4"/>
<!-- Node1 -->
<g id="node1" class="node"><title>Node1</title>
<polygon fill="#bfbfbf" stroke="black" points="0,-227.5 0,-257.5 129,-257.5 129,-227.5 0,-227.5"/>
<text text-anchor="start" x="8" y="-245.5" font-family="Helvetica,sans-Serif" font-size="10.00">scram::mef::Expression</text>
<text text-anchor="middle" x="64.5" y="-234.5" font-family="Helvetica,sans-Serif" font-size="10.00">::Reset</text>
</g>
<!-- Node2 -->
<g id="node2" class="node"><title>Node2</title>
<g id="a_node2"><a xlink:href="classscram_1_1mef_1_1Expression.xhtml#a179b21e75df522673e6d51b784d10e86" target="_top" xlink:title="scram::mef::Expression\l::interval">
<polygon fill="white" stroke="black" points="165,-227.5 165,-257.5 294,-257.5 294,-227.5 165,-227.5"/>
<text text-anchor="start" x="173" y="-245.5" font-family="Helvetica,sans-Serif" font-size="10.00">scram::mef::Expression</text>
<text text-anchor="middle" x="229.5" y="-234.5" font-family="Helvetica,sans-Serif" font-size="10.00">::interval</text>
</a>
</g>
</g>
<!-- Node1&#45;&gt;Node2 -->
<g id="edge1" class="edge"><title>Node1&#45;&gt;Node2</title>
<path fill="none" stroke="midnightblue" d="M139.688,-242.5C148.141,-242.5 156.701,-242.5 164.998,-242.5"/>
<polygon fill="midnightblue" stroke="midnightblue" points="139.454,-239 129.454,-242.5 139.454,-246 139.454,-239"/>
</g>
<!-- Node3 -->
<g id="node3" class="node"><title>Node3</title>
<g id="a_node3"><a xlink:href="classscram_1_1mef_1_1NaryExpression_3_01T_00-1_01_4.xhtml#aad5811e7fc2298aaf486697e050774fa" target="_top" xlink:title="Computes the expression value with a given argument value extractor. ">
<polygon fill="white" stroke="black" points="540,-419.5 540,-449.5 692,-449.5 692,-419.5 540,-419.5"/>
<text text-anchor="start" x="548" y="-437.5" font-family="Helvetica,sans-Serif" font-size="10.00">scram::mef::NaryExpression</text>
<text text-anchor="middle" x="616" y="-426.5" font-family="Helvetica,sans-Serif" font-size="10.00">&lt; T,&#45;1 &gt;::Compute</text>
</a>
</g>
</g>
<!-- Node2&#45;&gt;Node3 -->
<g id="edge2" class="edge"><title>Node2&#45;&gt;Node3</title>
<path fill="none" stroke="midnightblue" d="M236.022,-267.45C246.485,-308.077 273.412,-387.497 330,-422.5 394.65,-462.489 484.237,-458.837 545.612,-449.502"/>
<polygon fill="midnightblue" stroke="midnightblue" points="239.376,-266.431 233.602,-257.548 232.576,-268.093 239.376,-266.431"/>
</g>
<!-- Node4 -->
<g id="node4" class="node"><title>Node4</title>
<g id="a_node4"><a xlink:href="expression_8cc.xhtml#aac4a2edaf2210ace71f0d39e50a3738b" target="_top" xlink:title="Ensures the number of args for multivariate expressions. ">
<polygon fill="white" stroke="black" points="350,-196.5 350,-226.5 483,-226.5 483,-196.5 350,-196.5"/>
<text text-anchor="start" x="358" y="-214.5" font-family="Helvetica,sans-Serif" font-size="10.00">scram::mef::detail</text>
<text text-anchor="middle" x="416.5" y="-203.5" font-family="Helvetica,sans-Serif" font-size="10.00">::EnsureMultivariateArgs</text>
</a>
</g>
</g>
<!-- Node2&#45;&gt;Node4 -->
<g id="edge3" class="edge"><title>Node2&#45;&gt;Node4</title>
<path fill="none" stroke="midnightblue" d="M304.429,-230.112C319.438,-227.597 335.128,-224.968 349.828,-222.504"/>
<polygon fill="midnightblue" stroke="midnightblue" points="303.451,-226.727 294.167,-231.832 304.607,-233.631 303.451,-226.727"/>
</g>
<!-- Node5 -->
<g id="node5" class="node"><title>Node5</title>
<g id="a_node5"><a xlink:href="expression_8cc.xhtml#a262d38f7d6438e25ea34765b8d6a03eb" target="_top" xlink:title="Ensures that expression yields non&#45;negative (&gt;= 0) values. ">
<polygon fill="white" stroke="black" points="330,-320 330,-339 503,-339 503,-320 330,-320"/>
<text text-anchor="middle" x="416.5" y="-327" font-family="Helvetica,sans-Serif" font-size="10.00">scram::mef::EnsureNonNegative</text>
</a>
</g>
</g>
<!-- Node2&#45;&gt;Node5 -->
<g id="edge5" class="edge"><title>Node2&#45;&gt;Node5</title>
<path fill="none" stroke="midnightblue" d="M255.909,-263.917C275.113,-279.056 302.743,-298.683 330,-310.5 338.789,-314.311 348.431,-317.396 357.972,-319.883"/>
<polygon fill="midnightblue" stroke="midnightblue" points="257.952,-261.069 247.965,-257.531 253.566,-266.525 257.952,-261.069"/>
</g>
<!-- Node12 -->
<g id="node12" class="node"><title>Node12</title>
<g id="a_node12"><a xlink:href="expression_8cc.xhtml#ab3b34a51ff3513ee93b109cd33ccdda6" target="_top" xlink:title="Ensures that expression yields positive (&gt; 0) values. ">
<polygon fill="white" stroke="black" points="343,-376 343,-395 490,-395 490,-376 343,-376"/>
<text text-anchor="middle" x="416.5" y="-383" font-family="Helvetica,sans-Serif" font-size="10.00">scram::mef::EnsurePositive</text>
</a>
</g>
</g>
<!-- Node2&#45;&gt;Node12 -->
<g id="edge14" class="edge"><title>Node2&#45;&gt;Node12</title>
<path fill="none" stroke="midnightblue" d="M243.21,-266.785C259.426,-295.269 290.206,-341.738 330,-366.5 336.197,-370.356 343.076,-373.434 350.163,-375.89"/>
<polygon fill="midnightblue" stroke="midnightblue" points="246.182,-264.926 238.277,-257.871 240.057,-268.316 246.182,-264.926"/>
</g>
<!-- Node13 -->
<g id="node13" class="node"><title>Node13</title>
<g id="a_node13"><a xlink:href="expression_8cc.xhtml#a287db91ea8f1c33cca483d75195bc2bc" target="_top" xlink:title="Ensures that expression can be used for probability ([0, 1]). ">
<polygon fill="white" stroke="black" points="336.5,-264 336.5,-283 496.5,-283 496.5,-264 336.5,-264"/>
<text text-anchor="middle" x="416.5" y="-271" font-family="Helvetica,sans-Serif" font-size="10.00">scram::mef::EnsureProbability</text>
</a>
</g>
</g>
<!-- Node2&#45;&gt;Node13 -->
<g id="edge21" class="edge"><title>Node2&#45;&gt;Node13</title>
<path fill="none" stroke="midnightblue" d="M304.106,-254.834C322.219,-257.869 341.341,-261.073 358.532,-263.954"/>
<polygon fill="midnightblue" stroke="midnightblue" points="304.607,-251.369 294.167,-253.168 303.451,-258.273 304.607,-251.369"/>
</g>
<!-- Node20 -->
<g id="node20" class="node"><title>Node20</title>
<g id="a_node20"><a xlink:href="expression_8cc.xhtml#aa5f8250f3fc162fc8c018bd57c877a0e" target="_top" xlink:title="Ensures that expression values are within the interval. ">
<polygon fill="white" stroke="black" points="347,-470 347,-489 486,-489 486,-470 347,-470"/>
<text text-anchor="middle" x="416.5" y="-477" font-family="Helvetica,sans-Serif" font-size="10.00">scram::mef::EnsureWithin</text>
</a>
</g>
</g>
<!-- Node2&#45;&gt;Node20 -->
<g id="edge32" class="edge"><title>Node2&#45;&gt;Node20</title>
<path fill="none" stroke="midnightblue" d="M235.164,-267.775C244.747,-312.447 270.922,-405.362 330,-455.5 337.406,-461.785 346.344,-466.43 355.613,-469.862"/>
<polygon fill="midnightblue" stroke="midnightblue" points="238.549,-266.86 233.123,-257.76 231.69,-268.258 238.549,-266.86"/>
</g>
<!-- Node21 -->
<g id="node21" class="node"><title>Node21</title>
<g id="a_node21"><a xlink:href="classscram_1_1mef_1_1Switch.xhtml#aece696754288dcbdbcda71355da80a19" target="_top" xlink:title="scram::mef::Switch\l::interval">
<polygon fill="white" stroke="black" points="362.5,-147.5 362.5,-177.5 470.5,-177.5 470.5,-147.5 362.5,-147.5"/>
<text text-anchor="start" x="370.5" y="-165.5" font-family="Helvetica,sans-Serif" font-size="10.00">scram::mef::Switch</text>
<text text-anchor="middle" x="416.5" y="-154.5" font-family="Helvetica,sans-Serif" font-size="10.00">::interval</text>
</a>
</g>
</g>
<!-- Node2&#45;&gt;Node21 -->
<g id="edge36" class="edge"><title>Node2&#45;&gt;Node21</title>
<path fill="none" stroke="midnightblue" d="M262.392,-221.96C281.444,-210.358 306.448,-196.268 330,-186.5 340.254,-182.247 351.503,-178.489 362.376,-175.282"/>
<polygon fill="midnightblue" stroke="midnightblue" points="260.485,-219.025 253.818,-227.259 264.165,-224.979 260.485,-219.025"/>
</g>
<!-- Node22 -->
<g id="node22" class="node"><title>Node22</title>
<g id="a_node22"><a xlink:href="classscram_1_1mef_1_1LognormalDeviate.xhtml#a18f3499d5d98d1af462db56d07069997" target="_top" xlink:title="scram::mef::LognormalDeviate\l::value">
<polygon fill="white" stroke="black" points="334,-98.5 334,-128.5 499,-128.5 499,-98.5 334,-98.5"/>
<text text-anchor="start" x="342" y="-116.5" font-family="Helvetica,sans-Serif" font-size="10.00">scram::mef::LognormalDeviate</text>
<text text-anchor="middle" x="416.5" y="-105.5" font-family="Helvetica,sans-Serif" font-size="10.00">::value</text>
</a>
</g>
</g>
<!-- Node2&#45;&gt;Node22 -->
<g id="edge37" class="edge"><title>Node2&#45;&gt;Node22</title>
<path fill="none" stroke="midnightblue" d="M246.774,-218.97C264.539,-195.027 295.147,-158.533 330,-137.5 335.676,-134.075 341.858,-131.123 348.215,-128.582"/>
<polygon fill="midnightblue" stroke="midnightblue" points="243.863,-217.022 240.826,-227.172 249.53,-221.131 243.863,-217.022"/>
</g>
<!-- Node23 -->
<g id="node23" class="node"><title>Node23</title>
<g id="a_node23"><a xlink:href="classscram_1_1mef_1_1GammaDeviate.xhtml#aac9dd9e446203c28033a32385a68570c" target="_top" xlink:title="scram::mef::GammaDeviate\l::value">
<polygon fill="white" stroke="black" points="340,-49.5 340,-79.5 493,-79.5 493,-49.5 340,-49.5"/>
<text text-anchor="start" x="348" y="-67.5" font-family="Helvetica,sans-Serif" font-size="10.00">scram::mef::GammaDeviate</text>
<text text-anchor="middle" x="416.5" y="-56.5" font-family="Helvetica,sans-Serif" font-size="10.00">::value</text>
</a>
</g>
</g>
<!-- Node2&#45;&gt;Node23 -->
<g id="edge38" class="edge"><title>Node2&#45;&gt;Node23</title>
<path fill="none" stroke="midnightblue" d="M239.972,-217.471C254.235,-183.187 284.495,-122.057 330,-88.5 334.715,-85.0228 339.914,-82.0492 345.35,-79.5061"/>
<polygon fill="midnightblue" stroke="midnightblue" points="236.548,-216.605 236.06,-227.189 243.042,-219.22 236.548,-216.605"/>
</g>
<!-- Node24 -->
<g id="node24" class="node"><title>Node24</title>
<g id="a_node24"><a xlink:href="classscram_1_1mef_1_1BetaDeviate.xhtml#a23cf22ef291bb47601ddefd7640fe93a" target="_top" xlink:title="scram::mef::BetaDeviate\l::value">
<polygon fill="white" stroke="black" points="348,-0.5 348,-30.5 485,-30.5 485,-0.5 348,-0.5"/>
<text text-anchor="start" x="356" y="-18.5" font-family="Helvetica,sans-Serif" font-size="10.00">scram::mef::BetaDeviate</text>
<text text-anchor="middle" x="416.5" y="-7.5" font-family="Helvetica,sans-Serif" font-size="10.00">::value</text>
</a>
</g>
</g>
<!-- Node2&#45;&gt;Node24 -->
<g id="edge39" class="edge"><title>Node2&#45;&gt;Node24</title>
<path fill="none" stroke="midnightblue" d="M235.743,-217.493C246.065,-174.55 273.139,-86.8479 330,-39.5 335.331,-35.0605 341.43,-31.4402 347.862,-28.4882"/>
<polygon fill="midnightblue" stroke="midnightblue" points="232.296,-216.865 233.472,-227.395 239.119,-218.43 232.296,-216.865"/>
</g>
<!-- Node4&#45;&gt;Node4 -->
<g id="edge4" class="edge"><title>Node4&#45;&gt;Node4</title>
<path fill="none" stroke="midnightblue" d="M383.45,-236.958C387.552,-241.679 398.569,-245 416.5,-245 445.926,-245 456.731,-236.057 448.914,-226.659"/>
<polygon fill="midnightblue" stroke="midnightblue" points="386.963,-236.856 384.086,-226.659 379.976,-236.424 386.963,-236.856"/>
</g>
<!-- Node5&#45;&gt;Node3 -->
<g id="edge7" class="edge"><title>Node5&#45;&gt;Node3</title>
<path fill="none" stroke="midnightblue" d="M458.569,-342.673C473.415,-348.582 489.765,-356.506 503,-366.5 523.164,-381.726 518.082,-396.328 539,-410.5 544.04,-413.915 549.593,-416.865 555.333,-419.409"/>
<polygon fill="midnightblue" stroke="midnightblue" points="459.669,-339.348 449.078,-339.08 457.191,-345.894 459.669,-339.348"/>
</g>
<!-- Node5&#45;&gt;Node5 -->
<g id="edge8" class="edge"><title>Node5&#45;&gt;Node5</title>
<path fill="none" stroke="midnightblue" d="M381.643,-347.391C382.153,-353.041 393.772,-357.5 416.5,-357.5 449.559,-357.5 459.115,-348.065 445.168,-339.257"/>
<polygon fill="midnightblue" stroke="midnightblue" points="384.562,-349.335 387.832,-339.257 378.991,-345.096 384.562,-349.335"/>
</g>
<!-- Node6 -->
<g id="node6" class="node"><title>Node6</title>
<g id="a_node6"><a xlink:href="classscram_1_1mef_1_1Mean.xhtml#ab75b082938d5f6ed2b7bd2d45c3c850b" target="_top" xlink:title="Computes the expression value with a given argument value extractor. ">
<polygon fill="white" stroke="black" points="539,-469 539,-488 693,-488 693,-469 539,-469"/>
<text text-anchor="middle" x="616" y="-476" font-family="Helvetica,sans-Serif" font-size="10.00">scram::mef::Mean::Compute</text>
</a>
</g>
</g>
<!-- Node5&#45;&gt;Node6 -->
<g id="edge6" class="edge"><title>Node5&#45;&gt;Node6</title>
<path fill="none" stroke="midnightblue" d="M465.945,-342.738C479.309,-348.298 492.896,-355.993 503,-366.5 533.722,-398.447 505.773,-430.168 539,-459.5 543.384,-463.37 548.44,-466.477 553.818,-468.966"/>
<polygon fill="midnightblue" stroke="midnightblue" points="466.896,-339.355 456.305,-339.057 464.398,-345.894 466.896,-339.355"/>
</g>
<!-- Node7 -->
<g id="node7" class="node"><title>Node7</title>
<g id="a_node7"><a xlink:href="classscram_1_1mef_1_1PeriodicTest.xhtml#a546bf1c23ba3926f124de31d7b08b4c3" target="_top" xlink:title="Fully parametrized periodic&#45;test description. ">
<polygon fill="white" stroke="black" points="549,-321.5 549,-351.5 683,-351.5 683,-321.5 549,-321.5"/>
<text text-anchor="start" x="557" y="-339.5" font-family="Helvetica,sans-Serif" font-size="10.00">scram::mef::PeriodicTest</text>
<text text-anchor="middle" x="616" y="-328.5" font-family="Helvetica,sans-Serif" font-size="10.00">::PeriodicTest</text>
</a>
</g>
</g>
<!-- Node5&#45;&gt;Node7 -->
<g id="edge9" class="edge"><title>Node5&#45;&gt;Node7</title>
<path fill="none" stroke="midnightblue" d="M513.352,-332.897C525.396,-333.324 537.497,-333.753 548.939,-334.159"/>
<polygon fill="midnightblue" stroke="midnightblue" points="513.382,-329.396 503.265,-332.54 513.134,-336.392 513.382,-329.396"/>
</g>
<!-- Node8 -->
<g id="node8" class="node"><title>Node8</title>
<g id="a_node8"><a xlink:href="classscram_1_1mef_1_1Exponential.xhtml#a93569be7f366dce3dd25dcbb083ca774" target="_top" xlink:title="scram::mef::Exponential\l::Validate">
<polygon fill="white" stroke="black" points="549.5,-233.5 549.5,-263.5 682.5,-263.5 682.5,-233.5 549.5,-233.5"/>
<text text-anchor="start" x="557.5" y="-251.5" font-family="Helvetica,sans-Serif" font-size="10.00">scram::mef::Exponential</text>
<text text-anchor="middle" x="616" y="-240.5" font-family="Helvetica,sans-Serif" font-size="10.00">::Validate</text>
</a>
</g>
</g>
<!-- Node5&#45;&gt;Node8 -->
<g id="edge10" class="edge"><title>Node5&#45;&gt;Node8</title>
<path fill="none" stroke="midnightblue" d="M490.411,-316.429C494.774,-314.693 499.008,-312.727 503,-310.5 523.037,-299.322 519.542,-285.657 539,-273.5 545.125,-269.673 551.898,-266.369 558.803,-263.534"/>
<polygon fill="midnightblue" stroke="midnightblue" points="488.952,-313.233 480.696,-319.872 491.29,-319.831 488.952,-313.233"/>
</g>
<!-- Node10 -->
<g id="node10" class="node"><title>Node10</title>
<g id="a_node10"><a xlink:href="classscram_1_1mef_1_1Glm.xhtml#a48b4b735418eee27d2c4b81b9e59be85" target="_top" xlink:title="Validates the expression. ">
<polygon fill="white" stroke="black" points="545.5,-283 545.5,-302 686.5,-302 686.5,-283 545.5,-283"/>
<text text-anchor="middle" x="616" y="-290" font-family="Helvetica,sans-Serif" font-size="10.00">scram::mef::Glm::Validate</text>
</a>
</g>
</g>
<!-- Node5&#45;&gt;Node10 -->
<g id="edge12" class="edge"><title>Node5&#45;&gt;Node10</title>
<path fill="none" stroke="midnightblue" d="M478.247,-318.119C505.702,-312.976 537.782,-306.966 563.968,-302.06"/>
<polygon fill="midnightblue" stroke="midnightblue" points="477.546,-314.69 468.361,-319.972 478.835,-321.57 477.546,-314.69"/>
</g>
<!-- Node11 -->
<g id="node11" class="node"><title>Node11</title>
<g id="a_node11"><a xlink:href="classscram_1_1mef_1_1Weibull.xhtml#ad36688cf28ab24dd909832cd05aad328" target="_top" xlink:title="Validates the expression. ">
<polygon fill="white" stroke="black" points="561,-370.5 561,-400.5 671,-400.5 671,-370.5 561,-370.5"/>
<text text-anchor="start" x="569" y="-388.5" font-family="Helvetica,sans-Serif" font-size="10.00">scram::mef::Weibull</text>
<text text-anchor="middle" x="616" y="-377.5" font-family="Helvetica,sans-Serif" font-size="10.00">::Validate</text>
</a>
</g>
</g>
<!-- Node5&#45;&gt;Node11 -->
<g id="edge13" class="edge"><title>Node5&#45;&gt;Node11</title>
<path fill="none" stroke="midnightblue" d="M461.119,-341.868C490.806,-350.286 530.276,-361.477 561.809,-370.418"/>
<polygon fill="midnightblue" stroke="midnightblue" points="462.027,-338.487 451.451,-339.127 460.117,-345.222 462.027,-338.487"/>
</g>
<!-- Node9 -->
<g id="node9" class="node"><title>Node9</title>
<g id="a_node9"><a xlink:href="classscram_1_1mef_1_1PeriodicTest.xhtml#a0aa8dc4d62e8fc24194f0183bc533638" target="_top" xlink:title="scram::mef::PeriodicTest\l::interval">
<polygon fill="white" stroke="black" points="729,-233.5 729,-263.5 863,-263.5 863,-233.5 729,-233.5"/>
<text text-anchor="start" x="737" y="-251.5" font-family="Helvetica,sans-Serif" font-size="10.00">scram::mef::PeriodicTest</text>
<text text-anchor="middle" x="796" y="-240.5" font-family="Helvetica,sans-Serif" font-size="10.00">::interval</text>
</a>
</g>
</g>
<!-- Node8&#45;&gt;Node9 -->
<g id="edge11" class="edge"><title>Node8&#45;&gt;Node9</title>
<path fill="none" stroke="midnightblue" d="M692.529,-248.5C704.56,-248.5 716.927,-248.5 728.723,-248.5"/>
<polygon fill="midnightblue" stroke="midnightblue" points="692.522,-245 682.522,-248.5 692.522,-252 692.522,-245"/>
</g>
<!-- Node12&#45;&gt;Node3 -->
<g id="edge16" class="edge"><title>Node12&#45;&gt;Node3</title>
<path fill="none" stroke="midnightblue" d="M465.925,-397.514C492.611,-404.135 525.988,-412.416 554.392,-419.463"/>
<polygon fill="midnightblue" stroke="midnightblue" points="466.597,-394.075 456.049,-395.064 464.912,-400.869 466.597,-394.075"/>
</g>
<!-- Node12&#45;&gt;Node6 -->
<g id="edge15" class="edge"><title>Node12&#45;&gt;Node6</title>
<path fill="none" stroke="midnightblue" d="M438.42,-400.966C461.83,-417.605 501.418,-443.787 539,-459.5 547.909,-463.225 557.722,-466.345 567.253,-468.91"/>
<polygon fill="midnightblue" stroke="midnightblue" points="440.437,-398.106 430.278,-395.098 436.344,-403.784 440.437,-398.106"/>
</g>
<!-- Node12&#45;&gt;Node7 -->
<g id="edge18" class="edge"><title>Node12&#45;&gt;Node7</title>
<path fill="none" stroke="midnightblue" d="M472.43,-373.66C482.611,-371.362 493.141,-368.915 503,-366.5 521.868,-361.879 542.425,-356.479 560.718,-351.544"/>
<polygon fill="midnightblue" stroke="midnightblue" points="471.397,-370.305 462.402,-375.903 472.925,-377.136 471.397,-370.305"/>
</g>
<!-- Node12&#45;&gt;Node10 -->
<g id="edge19" class="edge"><title>Node12&#45;&gt;Node10</title>
<path fill="none" stroke="midnightblue" d="M493.8,-371.888C497.004,-370.283 500.089,-368.494 503,-366.5 526.794,-350.196 515.525,-329.261 539,-312.5 545.107,-308.14 552.098,-304.73 559.311,-302.063"/>
<polygon fill="midnightblue" stroke="midnightblue" points="492.27,-368.736 484.499,-375.937 495.065,-375.154 492.27,-368.736"/>
</g>
<!-- Node12&#45;&gt;Node11 -->
<g id="edge20" class="edge"><title>Node12&#45;&gt;Node11</title>
<path fill="none" stroke="midnightblue" d="M500.473,-385.5C520.931,-385.5 542.317,-385.5 560.995,-385.5"/>
<polygon fill="midnightblue" stroke="midnightblue" points="500.2,-382 490.2,-385.5 500.2,-389 500.2,-382"/>
</g>
<!-- Node12&#45;&gt;Node12 -->
<g id="edge17" class="edge"><title>Node12&#45;&gt;Node12</title>
<path fill="none" stroke="midnightblue" d="M381.643,-403.391C382.153,-409.041 393.772,-413.5 416.5,-413.5 449.559,-413.5 459.115,-404.065 445.168,-395.257"/>
<polygon fill="midnightblue" stroke="midnightblue" points="384.562,-405.335 387.832,-395.257 378.991,-401.096 384.562,-405.335"/>
</g>
<!-- Node13&#45;&gt;Node3 -->
<g id="edge22" class="edge"><title>Node13&#45;&gt;Node3</title>
<path fill="none" stroke="midnightblue" d="M466.461,-286.737C479.714,-292.282 493.111,-299.969 503,-310.5 535.335,-344.935 504.943,-377.768 539,-410.5 542.591,-413.952 546.676,-416.907 551.043,-419.438"/>
<polygon fill="midnightblue" stroke="midnightblue" points="467.479,-283.379 456.888,-283.068 464.973,-289.915 467.479,-283.379"/>
</g>
<!-- Node13&#45;&gt;Node7 -->
<g id="edge24" class="edge"><title>Node13&#45;&gt;Node7</title>
<path fill="none" stroke="midnightblue" d="M457.368,-286.218C489.267,-296.393 534.078,-310.687 567.772,-321.435"/>
<polygon fill="midnightblue" stroke="midnightblue" points="458.087,-282.773 447.496,-283.068 455.959,-289.442 458.087,-282.773"/>
</g>
<!-- Node13&#45;&gt;Node10 -->
<g id="edge25" class="edge"><title>Node13&#45;&gt;Node10</title>
<path fill="none" stroke="midnightblue" d="M506.959,-282.106C519.838,-283.345 532.93,-284.605 545.347,-285.799"/>
<polygon fill="midnightblue" stroke="midnightblue" points="506.982,-278.592 496.693,-281.119 506.312,-285.56 506.982,-278.592"/>
</g>
<!-- Node13&#45;&gt;Node13 -->
<g id="edge23" class="edge"><title>Node13&#45;&gt;Node13</title>
<path fill="none" stroke="midnightblue" d="M381.643,-291.391C382.153,-297.041 393.772,-301.5 416.5,-301.5 449.559,-301.5 459.115,-292.065 445.168,-283.257"/>
<polygon fill="midnightblue" stroke="midnightblue" points="384.562,-293.335 387.832,-283.257 378.991,-289.096 384.562,-293.335"/>
</g>
<!-- Node14 -->
<g id="node14" class="node"><title>Node14</title>
<g id="a_node14"><a xlink:href="classscram_1_1mef_1_1BasicEvent.xhtml#acfc0e73e1add67aa2ace841350eb62cd" target="_top" xlink:title="Validates the probability expressions for the primary event. ">
<polygon fill="white" stroke="black" points="551,-135.5 551,-165.5 681,-165.5 681,-135.5 551,-135.5"/>
<text text-anchor="start" x="559" y="-153.5" font-family="Helvetica,sans-Serif" font-size="10.00">scram::mef::BasicEvent</text>
<text text-anchor="middle" x="616" y="-142.5" font-family="Helvetica,sans-Serif" font-size="10.00">::Validate</text>
</a>
</g>
</g>
<!-- Node13&#45;&gt;Node14 -->
<g id="edge26" class="edge"><title>Node13&#45;&gt;Node14</title>
<path fill="none" stroke="midnightblue" d="M496.483,-259.129C498.755,-257.719 500.936,-256.18 503,-254.5 533.236,-229.883 509.866,-200.411 539,-174.5 542.826,-171.098 547.133,-168.178 551.703,-165.671"/>
<polygon fill="midnightblue" stroke="midnightblue" points="494.539,-256.197 487.316,-263.948 497.796,-262.392 494.539,-256.197"/>
</g>
<!-- Node19 -->
<g id="node19" class="node"><title>Node19</title>
<g id="a_node19"><a xlink:href="classscram_1_1mef_1_1CcfGroup.xhtml#a31cbe59ce89f295de7bb810d8b75990e" target="_top" xlink:title="Validates the setup for the CCF model and group. ">
<polygon fill="white" stroke="black" points="555,-184.5 555,-214.5 677,-214.5 677,-184.5 555,-184.5"/>
<text text-anchor="start" x="563" y="-202.5" font-family="Helvetica,sans-Serif" font-size="10.00">scram::mef::CcfGroup</text>
<text text-anchor="middle" x="616" y="-191.5" font-family="Helvetica,sans-Serif" font-size="10.00">::Validate</text>
</a>
</g>
</g>
<!-- Node13&#45;&gt;Node19 -->
<g id="edge31" class="edge"><title>Node13&#45;&gt;Node19</title>
<path fill="none" stroke="midnightblue" d="M487.406,-260.908C492.792,-259.054 498.053,-256.931 503,-254.5 521.693,-245.315 520.785,-234.6 539,-224.5 545.803,-220.728 553.266,-217.41 560.775,-214.528"/>
<polygon fill="midnightblue" stroke="midnightblue" points="486.12,-257.643 477.617,-263.964 488.206,-264.325 486.12,-257.643"/>
</g>
<!-- Node15 -->
<g id="node15" class="node"><title>Node15</title>
<g id="a_node15"><a xlink:href="classscram_1_1mef_1_1CcfGroup.xhtml#a06dd05cabcbeddf42090536f6a47a184" target="_top" xlink:title="scram::mef::CcfGroup\l::members">
<polygon fill="white" stroke="black" points="735,-135.5 735,-165.5 857,-165.5 857,-135.5 735,-135.5"/>
<text text-anchor="start" x="743" y="-153.5" font-family="Helvetica,sans-Serif" font-size="10.00">scram::mef::CcfGroup</text>
<text text-anchor="middle" x="796" y="-142.5" font-family="Helvetica,sans-Serif" font-size="10.00">::members</text>
</a>
</g>
</g>
<!-- Node14&#45;&gt;Node15 -->
<g id="edge27" class="edge"><title>Node14&#45;&gt;Node15</title>
<path fill="none" stroke="midnightblue" d="M691.428,-150.5C705.893,-150.5 720.886,-150.5 734.823,-150.5"/>
<polygon fill="midnightblue" stroke="midnightblue" points="691.011,-147 681.011,-150.5 691.011,-154 691.011,-147"/>
</g>
<!-- Node16 -->
<g id="node16" class="node"><title>Node16</title>
<g id="a_node16"><a xlink:href="classscram_1_1mef_1_1Component.xhtml#a4fd4a9b195b92c8061149da20f5bd3f0" target="_top" xlink:title="Adds MEF constructs into this component container. ">
<polygon fill="white" stroke="black" points="907,-185 907,-204 1065,-204 1065,-185 907,-185"/>
<text text-anchor="middle" x="986" y="-192" font-family="Helvetica,sans-Serif" font-size="10.00">scram::mef::Component::Add</text>
</a>
</g>
</g>
<!-- Node15&#45;&gt;Node16 -->
<g id="edge28" class="edge"><title>Node15&#45;&gt;Node16</title>
<path fill="none" stroke="midnightblue" d="M866.914,-166.976C877.658,-169.5 888.625,-172.073 899,-174.5 913.628,-177.922 929.659,-181.655 943.875,-184.959"/>
<polygon fill="midnightblue" stroke="midnightblue" points="867.667,-163.557 857.132,-164.676 866.065,-170.372 867.667,-163.557"/>
</g>
<!-- Node17 -->
<g id="node17" class="node"><title>Node17</title>
<g id="a_node17"><a xlink:href="classscram_1_1mef_1_1CcfGroup.xhtml#ab399c5ed0c1d7d0a316ac3b7244b7eb9" target="_top" xlink:title="Processes the given factors and members to create common cause failure probabilities and new events t...">
<polygon fill="white" stroke="black" points="925,-135.5 925,-165.5 1047,-165.5 1047,-135.5 925,-135.5"/>
<text text-anchor="start" x="933" y="-153.5" font-family="Helvetica,sans-Serif" font-size="10.00">scram::mef::CcfGroup</text>
<text text-anchor="middle" x="986" y="-142.5" font-family="Helvetica,sans-Serif" font-size="10.00">::ApplyModel</text>
</a>
</g>
</g>
<!-- Node15&#45;&gt;Node17 -->
<g id="edge29" class="edge"><title>Node15&#45;&gt;Node17</title>
<path fill="none" stroke="midnightblue" d="M867.097,-150.5C886.109,-150.5 906.519,-150.5 924.924,-150.5"/>
<polygon fill="midnightblue" stroke="midnightblue" points="867.001,-147 857.001,-150.5 867.001,-154 867.001,-147"/>
</g>
<!-- Node18 -->
<g id="node18" class="node"><title>Node18</title>
<g id="a_node18"><a xlink:href="reporter_8cc.xhtml#a73f9569f4c2e2b6a3eac8d2c01b81943" target="_top" xlink:title="Describes all performed analyses deduced from settings. ">
<polygon fill="white" stroke="black" points="899,-86.5 899,-116.5 1073,-116.5 1073,-86.5 899,-86.5"/>
<text text-anchor="start" x="907" y="-104.5" font-family="Helvetica,sans-Serif" font-size="10.00">scram::ReportCalculatedQuantity</text>
<text text-anchor="middle" x="986" y="-93.5" font-family="Helvetica,sans-Serif" font-size="10.00">&lt; core::RiskAnalysis &gt;</text>
</a>
</g>
</g>
<!-- Node15&#45;&gt;Node18 -->
<g id="edge30" class="edge"><title>Node15&#45;&gt;Node18</title>
<path fill="none" stroke="midnightblue" d="M864.614,-132.877C885.182,-127.516 907.584,-121.677 927.425,-116.506"/>
<polygon fill="midnightblue" stroke="midnightblue" points="863.478,-129.556 854.684,-135.465 865.243,-136.33 863.478,-129.556"/>
</g>
<!-- Node20&#45;&gt;Node3 -->
<g id="edge34" class="edge"><title>Node20&#45;&gt;Node3</title>
<path fill="none" stroke="midnightblue" d="M469.176,-467.726C493.609,-462.159 523.061,-455.448 549.081,-449.52"/>
<polygon fill="midnightblue" stroke="midnightblue" points="468.357,-464.322 459.385,-469.957 469.912,-471.148 468.357,-464.322"/>
</g>
<!-- Node20&#45;&gt;Node6 -->
<g id="edge33" class="edge"><title>Node20&#45;&gt;Node6</title>
<path fill="none" stroke="midnightblue" d="M496.144,-479.102C510.208,-479.031 524.84,-478.957 538.832,-478.886"/>
<polygon fill="midnightblue" stroke="midnightblue" points="496.004,-475.602 486.022,-479.153 496.039,-482.602 496.004,-475.602"/>
</g>
<!-- Node20&#45;&gt;Node20 -->
<g id="edge35" class="edge"><title>Node20&#45;&gt;Node20</title>
<path fill="none" stroke="midnightblue" d="M381.643,-497.391C382.153,-503.041 393.772,-507.5 416.5,-507.5 449.559,-507.5 459.115,-498.065 445.168,-489.257"/>
<polygon fill="midnightblue" stroke="midnightblue" points="384.562,-499.335 387.832,-489.257 378.991,-495.096 384.562,-499.335"/>
</g>
</g>
</svg>
        <g id="navigator" transform="translate(0 0)" fill="#404254">
                <rect fill="#f2f5e9" fill-opacity="0.5" stroke="#606060" stroke-width=".5" x="0" y="0" width="60" height="60"/>
                <use id="zoomplus" xlink:href="#zoomPlus" x="17" y="9" onmousedown="handleZoom(evt,'in')"/>
                <use id="zoomminus" xlink:href="#zoomMin" x="42" y="9" onmousedown="handleZoom(evt,'out')"/>
                <use id="reset" xlink:href="#resetDef" x="30" y="36" onmousedown="handleReset()"/>
                <g id="arrowUp" xlink:href="#dirArrow" transform="translate(30 24)" onmousedown="handlePan(0,-1)">
                  <use xlink:href="#rim" fill="#404040">
                        <set attributeName="fill" to="#808080" begin="arrowUp.mouseover" end="arrowUp.mouseout"/>
                  </use>
                  <path fill="none" stroke="white" stroke-width="1.5" d="M0,-3.0v7 M-2.5,-0.5L0,-3.0L2.5,-0.5"/>
                </g>
                <g id="arrowRight" xlink:href="#dirArrow" transform="rotate(90) translate(36 -43)" onmousedown="handlePan(1,0)">
                  <use xlink:href="#rim" fill="#404040">
                        <set attributeName="fill" to="#808080" begin="arrowRight.mouseover" end="arrowRight.mouseout"/>
                  </use>
                  <path fill="none" stroke="white" stroke-width="1.5" d="M0,-3.0v7 M-2.5,-0.5L0,-3.0L2.5,-0.5"/>
                </g>
                <g id="arrowDown" xlink:href="#dirArrow" transform="rotate(180) translate(-30 -48)" onmousedown="handlePan(0,1)">
                  <use xlink:href="#rim" fill="#404040">
                        <set attributeName="fill" to="#808080" begin="arrowDown.mouseover" end="arrowDown.mouseout"/>
                  </use>
                  <path fill="none" stroke="white" stroke-width="1.5" d="M0,-3.0v7 M-2.5,-0.5L0,-3.0L2.5,-0.5"/>
                </g>
                <g id="arrowLeft" xlink:href="#dirArrow" transform="rotate(270) translate(-36 17)" onmousedown="handlePan(-1,0)">
                  <use xlink:href="#rim" fill="#404040">
                        <set attributeName="fill" to="#808080" begin="arrowLeft.mouseover" end="arrowLeft.mouseout"/>
                  </use>
                  <path fill="none" stroke="white" stroke-width="1.5" d="M0,-3.0v7 M-2.5,-0.5L0,-3.0L2.5,-0.5"/>
                </g>
        </g>
        <svg viewBox="0 0 15 15" width="100%" height="30px" preserveAspectRatio="xMaxYMin meet">
         <g id="arrow_out" transform="scale(0.3 0.3)">
          <a xlink:href="classscram_1_1mef_1_1Expression_ab6d31c4ddb5d4a827727829cbd4e4449_icgraph_org.svg" target="_base">
           <rect id="button" ry="5" rx="5" y="6" x="6" height="38" width="38"
                fill="#f2f5e9" fill-opacity="0.5" stroke="#606060" stroke-width="1.0"/>
           <path id="arrow"
             d="M 11.500037,31.436501 C 11.940474,20.09759 22.043105,11.32322 32.158766,21.979434 L 37.068811,17.246167 C 37.068811,17.246167 37.088388,32 37.088388,32 L 22.160133,31.978069 C 22.160133,31.978069 26.997745,27.140456 26.997745,27.140456 C 18.528582,18.264221 13.291696,25.230495 11.500037,31.436501 z"
             style="fill:#404040;"/>
          </a>
         </g>
        </svg>
</svg>
