<?xml version="1.0" encoding="UTF-8" standalone="no"?>
<!DOCTYPE svg PUBLIC "-//W3C//DTD SVG 1.1//EN"
 "http://www.w3.org/Graphics/SVG/1.1/DTD/svg11.dtd">
<!-- Generated by graphviz version 2.38.0 (20140413.2041)
 -->
<!-- Title: scram::mef::Expression::value Pages: 1 -->
<!--zoomable 1044 -->
<svg id="main" version="1.1" xmlns="http://www.w3.org/2000/svg" xmlns:xlink="http://www.w3.org/1999/xlink" xml:space="preserve" onload="init(evt)">
<style type="text/css"><![CDATA[
.edge:hover path { stroke: red; }
.edge:hover polygon { stroke: red; fill: red; }
]]></style>
<script type="text/javascript"><![CDATA[
var edges = document.getElementsByTagName('g');
if (edges && edges.length) {
  for (var i=0;i<edges.length;i++) {
    if (edges[i].id.substr(0,4)=='edge') {
      edges[i].setAttribute('class','edge');
    }
  }
}
]]></script>
        <defs>
                <circle id="rim" cx="0" cy="0" r="7"/>
                <circle id="rim2" cx="0" cy="0" r="3.5"/>
                <g id="zoomPlus">
                        <use xlink:href="#rim" fill="#404040">
                                <set attributeName="fill" to="#808080" begin="zoomplus.mouseover" end="zoomplus.mouseout"/>
                        </use>
                        <path d="M-4,0h8M0,-4v8" fill="none" stroke="white" stroke-width="1.5" pointer-events="none"/>
                </g>
                <g id="zoomMin">
                        <use xlink:href="#rim" fill="#404040">
                                <set attributeName="fill" to="#808080" begin="zoomminus.mouseover" end="zoomminus.mouseout"/>
                        </use>
                        <path d="M-4,0h8" fill="none" stroke="white" stroke-width="1.5" pointer-events="none"/>
                </g>
                <g id="dirArrow">
                        <path fill="none" stroke="white" stroke-width="1.5" d="M0,-3.0v7 M-2.5,-0.5L0,-3.0L2.5,-0.5"/>
                </g>
               <g id="resetDef">
                       <use xlink:href="#rim2" fill="#404040">
                               <set attributeName="fill" to="#808080" begin="reset.mouseover" end="reset.mouseout"/>
                       </use>
               </g>
        </defs>

<script type="text/javascript">
var viewWidth = 1120;
var viewHeight = 1044;
var sectionId = 'dynsection-4';
</script>
<script xlink:href="svgpan.js"/>
<svg id="graph" class="graph">
<g id="viewport">
<title>scram::mef::Expression::value</title>
<polygon fill="white" stroke="none" points="-4,4 -4,-1039.5 1116,-1039.5 1116,4 -4,4"/>
<!-- Node1 -->
<g id="node1" class="node"><title>Node1</title>
<polygon fill="#bfbfbf" stroke="black" points="0,-451.5 0,-481.5 129,-481.5 129,-451.5 0,-451.5"/>
<text text-anchor="start" x="8" y="-469.5" font-family="Helvetica,sans-Serif" font-size="10.00">scram::mef::Expression</text>
<text text-anchor="middle" x="64.5" y="-458.5" font-family="Helvetica,sans-Serif" font-size="10.00">::value</text>
</g>
<!-- Node2 -->
<g id="node2" class="node"><title>Node2</title>
<g id="a_node2"><a xlink:href="classscram_1_1mef_1_1CcfGroup.xhtml#ab399c5ed0c1d7d0a316ac3b7244b7eb9" target="_top" xlink:title="Processes the given factors and members to create common cause failure probabilities and new events t...">
<polygon fill="white" stroke="black" points="964,-998.5 964,-1028.5 1086,-1028.5 1086,-998.5 964,-998.5"/>
<text text-anchor="start" x="972" y="-1016.5" font-family="Helvetica,sans-Serif" font-size="10.00">scram::mef::CcfGroup</text>
<text text-anchor="middle" x="1025" y="-1005.5" font-family="Helvetica,sans-Serif" font-size="10.00">::ApplyModel</text>
</a>
</g>
</g>
<!-- Node1&#45;&gt;Node2 -->
<g id="edge1" class="edge"><title>Node1&#45;&gt;Node2</title>
<path fill="none" stroke="midnightblue" d="M64.9861,-491.976C64.8863,-560.949 73.3167,-754.204 165,-874.5 254.243,-991.594 307.275,-1035.5 454.5,-1035.5 454.5,-1035.5 454.5,-1035.5 656,-1035.5 764.645,-1035.5 891.011,-1025.83 963.828,-1019.31"/>
<polygon fill="midnightblue" stroke="midnightblue" points="68.4885,-491.674 65.0692,-481.646 61.4888,-491.618 68.4885,-491.674"/>
</g>
<!-- Node3 -->
<g id="node3" class="node"><title>Node3</title>
<g id="a_node3"><a xlink:href="expression_8cc.xhtml#a262d38f7d6438e25ea34765b8d6a03eb" target="_top" xlink:title="Ensures that expression yields non&#45;negative (&gt;= 0) values. ">
<polygon fill="white" stroke="black" points="369,-793 369,-812 542,-812 542,-793 369,-793"/>
<text text-anchor="middle" x="455.5" y="-800" font-family="Helvetica,sans-Serif" font-size="10.00">scram::mef::EnsureNonNegative</text>
</a>
</g>
</g>
<!-- Node1&#45;&gt;Node3 -->
<g id="edge2" class="edge"><title>Node1&#45;&gt;Node3</title>
<path fill="none" stroke="midnightblue" d="M68.4328,-491.552C75.6016,-541.501 98.5788,-654.04 165,-716.5 220.193,-768.402 305.315,-789.111 368.994,-797.306"/>
<polygon fill="midnightblue" stroke="midnightblue" points="71.898,-491.058 67.0992,-481.613 64.9601,-491.989 71.898,-491.058"/>
</g>
<!-- Node11 -->
<g id="node11" class="node"><title>Node11</title>
<g id="a_node11"><a xlink:href="expression_8cc.xhtml#ab3b34a51ff3513ee93b109cd33ccdda6" target="_top" xlink:title="Ensures that expression yields positive (&gt; 0) values. ">
<polygon fill="white" stroke="black" points="382,-849 382,-868 529,-868 529,-849 382,-849"/>
<text text-anchor="middle" x="455.5" y="-856" font-family="Helvetica,sans-Serif" font-size="10.00">scram::mef::EnsurePositive</text>
</a>
</g>
</g>
<!-- Node1&#45;&gt;Node11 -->
<g id="edge11" class="edge"><title>Node1&#45;&gt;Node11</title>
<path fill="none" stroke="midnightblue" d="M66.6303,-491.989C70.5327,-549.174 87.8879,-688.827 165,-767.5 222.254,-825.913 316.537,-846.945 381.879,-854.452"/>
<polygon fill="midnightblue" stroke="midnightblue" points="70.1055,-491.468 66.0155,-481.695 63.118,-491.886 70.1055,-491.468"/>
</g>
<!-- Node12 -->
<g id="node12" class="node"><title>Node12</title>
<g id="a_node12"><a xlink:href="expression_8cc.xhtml#a287db91ea8f1c33cca483d75195bc2bc" target="_top" xlink:title="Ensures that expression can be used for probability ([0, 1]). ">
<polygon fill="white" stroke="black" points="375.5,-905 375.5,-924 535.5,-924 535.5,-905 375.5,-905"/>
<text text-anchor="middle" x="455.5" y="-912" font-family="Helvetica,sans-Serif" font-size="10.00">scram::mef::EnsureProbability</text>
</a>
</g>
</g>
<!-- Node1&#45;&gt;Node12 -->
<g id="edge18" class="edge"><title>Node1&#45;&gt;Node12</title>
<path fill="none" stroke="midnightblue" d="M65.1976,-491.881C65.8251,-555.691 76.279,-724.545 165,-820.5 219.081,-878.991 309.857,-901.191 375.358,-909.559"/>
<polygon fill="midnightblue" stroke="midnightblue" points="68.697,-491.555 65.176,-481.562 61.697,-491.57 68.697,-491.555"/>
</g>
<!-- Node18 -->
<g id="node18" class="node"><title>Node18</title>
<g id="a_node18"><a xlink:href="expression_8cc.xhtml#aa5f8250f3fc162fc8c018bd57c877a0e" target="_top" xlink:title="Ensures that expression values are within the interval. ">
<polygon fill="white" stroke="black" points="386,-483 386,-502 525,-502 525,-483 386,-483"/>
<text text-anchor="middle" x="455.5" y="-490" font-family="Helvetica,sans-Serif" font-size="10.00">scram::mef::EnsureWithin</text>
</a>
</g>
</g>
<!-- Node1&#45;&gt;Node18 -->
<g id="edge29" class="edge"><title>Node1&#45;&gt;Node18</title>
<path fill="none" stroke="midnightblue" d="M72.3349,-491.429C84.1491,-529.045 112.339,-599.043 165,-628.5 230.165,-664.951 271.773,-671.236 333,-628.5 371.049,-601.942 337.293,-564.378 369,-530.5 381.654,-516.98 399.993,-507.966 416.444,-502.125"/>
<polygon fill="midnightblue" stroke="midnightblue" points="75.6541,-490.312 69.4302,-481.738 68.9489,-492.322 75.6541,-490.312"/>
</g>
<!-- Node19 -->
<g id="node19" class="node"><title>Node19</title>
<g id="a_node19"><a xlink:href="classscram_1_1mef_1_1Expression.xhtml#a179b21e75df522673e6d51b784d10e86" target="_top" xlink:title="scram::mef::Expression\l::interval">
<polygon fill="white" stroke="black" points="184.5,-676.5 184.5,-706.5 313.5,-706.5 313.5,-676.5 184.5,-676.5"/>
<text text-anchor="start" x="192.5" y="-694.5" font-family="Helvetica,sans-Serif" font-size="10.00">scram::mef::Expression</text>
<text text-anchor="middle" x="249" y="-683.5" font-family="Helvetica,sans-Serif" font-size="10.00">::interval</text>
</a>
</g>
</g>
<!-- Node1&#45;&gt;Node19 -->
<g id="edge33" class="edge"><title>Node1&#45;&gt;Node19</title>
<path fill="none" stroke="midnightblue" d="M71.7205,-491.283C83.2564,-532.33 111.777,-614.545 165,-661.5 171.894,-667.582 180.116,-672.461 188.664,-676.367"/>
<polygon fill="midnightblue" stroke="midnightblue" points="75.0777,-490.29 69.0889,-481.55 68.3203,-492.117 75.0777,-490.29"/>
</g>
<!-- Node22 -->
<g id="node22" class="node"><title>Node22</title>
<g id="a_node22"><a xlink:href="classscram_1_1mef_1_1LognormalDeviate.xhtml#a18f3499d5d98d1af462db56d07069997" target="_top" xlink:title="scram::mef::LognormalDeviate\l::value">
<polygon fill="white" stroke="black" points="373,-433.5 373,-463.5 538,-463.5 538,-433.5 373,-433.5"/>
<text text-anchor="start" x="381" y="-451.5" font-family="Helvetica,sans-Serif" font-size="10.00">scram::mef::LognormalDeviate</text>
<text text-anchor="middle" x="455.5" y="-440.5" font-family="Helvetica,sans-Serif" font-size="10.00">::value</text>
</a>
</g>
</g>
<!-- Node1&#45;&gt;Node22 -->
<g id="edge55" class="edge"><title>Node1&#45;&gt;Node22</title>
<path fill="none" stroke="midnightblue" d="M86.923,-488.968C105.597,-506.807 134.421,-530.376 165,-540.5 235.882,-563.969 268.915,-578.817 333,-540.5 362.014,-523.153 342.738,-494.785 369,-473.5 373.806,-469.605 379.197,-466.317 384.874,-463.541"/>
<polygon fill="midnightblue" stroke="midnightblue" points="89.1487,-486.248 79.5655,-481.73 84.2394,-491.238 89.1487,-486.248"/>
</g>
<!-- Node25 -->
<g id="node25" class="node"><title>Node25</title>
<g id="a_node25"><a xlink:href="classscram_1_1mef_1_1NormalDeviate.xhtml#a502421d76dd262810fd70aed68f742e0" target="_top" xlink:title="scram::mef::NormalDeviate\l::interval">
<polygon fill="white" stroke="black" points="174.5,-500.5 174.5,-530.5 323.5,-530.5 323.5,-500.5 174.5,-500.5"/>
<text text-anchor="start" x="182.5" y="-518.5" font-family="Helvetica,sans-Serif" font-size="10.00">scram::mef::NormalDeviate</text>
<text text-anchor="middle" x="249" y="-507.5" font-family="Helvetica,sans-Serif" font-size="10.00">::interval</text>
</a>
</g>
</g>
<!-- Node1&#45;&gt;Node25 -->
<g id="edge45" class="edge"><title>Node1&#45;&gt;Node25</title>
<path fill="none" stroke="midnightblue" d="M131.604,-484.248C151.383,-489.559 172.872,-495.329 191.941,-500.448"/>
<polygon fill="midnightblue" stroke="midnightblue" points="132.311,-480.814 121.745,-481.601 130.495,-487.575 132.311,-480.814"/>
</g>
<!-- Node26 -->
<g id="node26" class="node"><title>Node26</title>
<g id="a_node26"><a xlink:href="classscram_1_1mef_1_1GammaDeviate.xhtml#a76d78aab0bcd2e472abb3e001e455f1f" target="_top" xlink:title="The high is 99 percentile. ">
<polygon fill="white" stroke="black" points="172.5,-451.5 172.5,-481.5 325.5,-481.5 325.5,-451.5 172.5,-451.5"/>
<text text-anchor="start" x="180.5" y="-469.5" font-family="Helvetica,sans-Serif" font-size="10.00">scram::mef::GammaDeviate</text>
<text text-anchor="middle" x="249" y="-458.5" font-family="Helvetica,sans-Serif" font-size="10.00">::interval</text>
</a>
</g>
</g>
<!-- Node1&#45;&gt;Node26 -->
<g id="edge46" class="edge"><title>Node1&#45;&gt;Node26</title>
<path fill="none" stroke="midnightblue" d="M139.386,-466.5C150.273,-466.5 161.503,-466.5 172.424,-466.5"/>
<polygon fill="midnightblue" stroke="midnightblue" points="139.073,-463 129.073,-466.5 139.073,-470 139.073,-463"/>
</g>
<!-- Node27 -->
<g id="node27" class="node"><title>Node27</title>
<g id="a_node27"><a xlink:href="classscram_1_1mef_1_1BetaDeviate.xhtml#ad019a413a7e7a2e6602db98e74792450" target="_top" xlink:title="scram::mef::BetaDeviate\l::interval">
<polygon fill="white" stroke="black" points="180.5,-402.5 180.5,-432.5 317.5,-432.5 317.5,-402.5 180.5,-402.5"/>
<text text-anchor="start" x="188.5" y="-420.5" font-family="Helvetica,sans-Serif" font-size="10.00">scram::mef::BetaDeviate</text>
<text text-anchor="middle" x="249" y="-409.5" font-family="Helvetica,sans-Serif" font-size="10.00">::interval</text>
</a>
</g>
</g>
<!-- Node1&#45;&gt;Node27 -->
<g id="edge47" class="edge"><title>Node1&#45;&gt;Node27</title>
<path fill="none" stroke="midnightblue" d="M131.604,-448.752C151.383,-443.441 172.872,-437.671 191.941,-432.552"/>
<polygon fill="midnightblue" stroke="midnightblue" points="130.495,-445.425 121.745,-451.399 132.311,-452.186 130.495,-445.425"/>
</g>
<!-- Node28 -->
<g id="node28" class="node"><title>Node28</title>
<g id="a_node28"><a xlink:href="classscram_1_1mef_1_1Histogram.xhtml#a4aab126e9ab267847d9dbd78cedf0682" target="_top" xlink:title="scram::mef::Histogram\l::interval">
<polygon fill="white" stroke="black" points="185,-353.5 185,-383.5 313,-383.5 313,-353.5 185,-353.5"/>
<text text-anchor="start" x="193" y="-371.5" font-family="Helvetica,sans-Serif" font-size="10.00">scram::mef::Histogram</text>
<text text-anchor="middle" x="249" y="-360.5" font-family="Helvetica,sans-Serif" font-size="10.00">::interval</text>
</a>
</g>
</g>
<!-- Node1&#45;&gt;Node28 -->
<g id="edge48" class="edge"><title>Node1&#45;&gt;Node28</title>
<path fill="none" stroke="midnightblue" d="M89.968,-444.842C109.216,-428.76 137.321,-407.309 165,-393.5 172.541,-389.738 180.755,-386.425 188.986,-383.546"/>
<polygon fill="midnightblue" stroke="midnightblue" points="87.6425,-442.225 82.2884,-451.368 92.1752,-447.56 87.6425,-442.225"/>
</g>
<!-- Node29 -->
<g id="node29" class="node"><title>Node29</title>
<g id="a_node29"><a xlink:href="classscram_1_1mef_1_1UniformDeviate.xhtml#a558a657077fa6d4c1000d21863d56fda" target="_top" xlink:title="scram::mef::UniformDeviate\l::Validate">
<polygon fill="white" stroke="black" points="173,-304.5 173,-334.5 325,-334.5 325,-304.5 173,-304.5"/>
<text text-anchor="start" x="181" y="-322.5" font-family="Helvetica,sans-Serif" font-size="10.00">scram::mef::UniformDeviate</text>
<text text-anchor="middle" x="249" y="-311.5" font-family="Helvetica,sans-Serif" font-size="10.00">::Validate</text>
</a>
</g>
</g>
<!-- Node1&#45;&gt;Node29 -->
<g id="edge49" class="edge"><title>Node1&#45;&gt;Node29</title>
<path fill="none" stroke="midnightblue" d="M78.8899,-442.659C95.5773,-415.075 126.629,-370.169 165,-344.5 170.754,-340.651 177.12,-337.378 183.692,-334.598"/>
<polygon fill="midnightblue" stroke="midnightblue" points="75.8605,-440.906 73.7916,-451.297 81.8888,-444.464 75.8605,-440.906"/>
</g>
<!-- Node30 -->
<g id="node30" class="node"><title>Node30</title>
<g id="a_node30"><a xlink:href="classscram_1_1mef_1_1Expression.xhtml#af3e09d926b52f6077aa85c26454c4e18" target="_top" xlink:title="Validates the expression. ">
<polygon fill="white" stroke="black" points="184.5,-588.5 184.5,-618.5 313.5,-618.5 313.5,-588.5 184.5,-588.5"/>
<text text-anchor="start" x="192.5" y="-606.5" font-family="Helvetica,sans-Serif" font-size="10.00">scram::mef::Expression</text>
<text text-anchor="middle" x="249" y="-595.5" font-family="Helvetica,sans-Serif" font-size="10.00">::Validate</text>
</a>
</g>
</g>
<!-- Node1&#45;&gt;Node30 -->
<g id="edge50" class="edge"><title>Node1&#45;&gt;Node30</title>
<path fill="none" stroke="midnightblue" d="M81.9982,-489.975C99.9469,-513.963 130.703,-550.82 165,-573.5 173.946,-579.416 184.206,-584.34 194.392,-588.372"/>
<polygon fill="midnightblue" stroke="midnightblue" points="84.7177,-487.765 75.9821,-481.77 79.0724,-491.904 84.7177,-487.765"/>
</g>
<!-- Node31 -->
<g id="node31" class="node"><title>Node31</title>
<g id="a_node31"><a xlink:href="classscram_1_1mef_1_1NormalDeviate.xhtml#a00e2955e101aa9725b2dd503c5f4c61a" target="_top" xlink:title="scram::mef::NormalDeviate\l::Validate">
<polygon fill="white" stroke="black" points="174.5,-255.5 174.5,-285.5 323.5,-285.5 323.5,-255.5 174.5,-255.5"/>
<text text-anchor="start" x="182.5" y="-273.5" font-family="Helvetica,sans-Serif" font-size="10.00">scram::mef::NormalDeviate</text>
<text text-anchor="middle" x="249" y="-262.5" font-family="Helvetica,sans-Serif" font-size="10.00">::Validate</text>
</a>
</g>
</g>
<!-- Node1&#45;&gt;Node31 -->
<g id="edge52" class="edge"><title>Node1&#45;&gt;Node31</title>
<path fill="none" stroke="midnightblue" d="M73.2591,-441.822C86.2261,-404.594 115.835,-334.306 165,-295.5 169.843,-291.677 175.264,-288.438 180.953,-285.693"/>
<polygon fill="midnightblue" stroke="midnightblue" points="69.9109,-440.798 70.0407,-451.392 76.5458,-443.03 69.9109,-440.798"/>
</g>
<!-- Node32 -->
<g id="node32" class="node"><title>Node32</title>
<g id="a_node32"><a xlink:href="classscram_1_1mef_1_1GammaDeviate.xhtml#a4e6270b70787e8ab6f58c605ddebf674" target="_top" xlink:title="scram::mef::GammaDeviate\l::Validate">
<polygon fill="white" stroke="black" points="172.5,-206.5 172.5,-236.5 325.5,-236.5 325.5,-206.5 172.5,-206.5"/>
<text text-anchor="start" x="180.5" y="-224.5" font-family="Helvetica,sans-Serif" font-size="10.00">scram::mef::GammaDeviate</text>
<text text-anchor="middle" x="249" y="-213.5" font-family="Helvetica,sans-Serif" font-size="10.00">::Validate</text>
</a>
</g>
</g>
<!-- Node1&#45;&gt;Node32 -->
<g id="edge53" class="edge"><title>Node1&#45;&gt;Node32</title>
<path fill="none" stroke="midnightblue" d="M69.8125,-441.48C78.9802,-395.928 104.715,-299.3 165,-246.5 169.415,-242.633 174.411,-239.364 179.709,-236.601"/>
<polygon fill="midnightblue" stroke="midnightblue" points="66.3557,-440.923 67.9178,-451.402 73.2315,-442.236 66.3557,-440.923"/>
</g>
<!-- Node33 -->
<g id="node33" class="node"><title>Node33</title>
<g id="a_node33"><a xlink:href="classscram_1_1mef_1_1BetaDeviate.xhtml#aa65f2fd1412e180085e80bbcbace562b" target="_top" xlink:title="scram::mef::BetaDeviate\l::Validate">
<polygon fill="white" stroke="black" points="180.5,-157.5 180.5,-187.5 317.5,-187.5 317.5,-157.5 180.5,-157.5"/>
<text text-anchor="start" x="188.5" y="-175.5" font-family="Helvetica,sans-Serif" font-size="10.00">scram::mef::BetaDeviate</text>
<text text-anchor="middle" x="249" y="-164.5" font-family="Helvetica,sans-Serif" font-size="10.00">::Validate</text>
</a>
</g>
</g>
<!-- Node1&#45;&gt;Node33 -->
<g id="edge54" class="edge"><title>Node1&#45;&gt;Node33</title>
<path fill="none" stroke="midnightblue" d="M67.4029,-441.141C72.7817,-387.868 92.7979,-263.709 165,-196.5 169.502,-192.31 174.69,-188.846 180.23,-185.984"/>
<polygon fill="midnightblue" stroke="midnightblue" points="63.8912,-441.109 66.4637,-451.387 70.862,-441.748 63.8912,-441.109"/>
</g>
<!-- Node34 -->
<g id="node34" class="node"><title>Node34</title>
<g id="a_node34"><a xlink:href="classscram_1_1mef_1_1ExpressionFormula.xhtml#a1f7c71744d679ab1a4e5ca3ca98277a6" target="_top" xlink:title="Computes the expression with argument expression default values. ">
<polygon fill="white" stroke="black" points="165,-98 165,-139 333,-139 333,-98 165,-98"/>
<text text-anchor="start" x="173" y="-127" font-family="Helvetica,sans-Serif" font-size="10.00">scram::mef::ExpressionFormula</text>
<text text-anchor="start" x="173" y="-116" font-family="Helvetica,sans-Serif" font-size="10.00">&lt; NaryExpression&lt; T, 1 &gt;</text>
<text text-anchor="middle" x="249" y="-105" font-family="Helvetica,sans-Serif" font-size="10.00"> &gt;::value</text>
</a>
</g>
</g>
<!-- Node1&#45;&gt;Node34 -->
<g id="edge56" class="edge"><title>Node1&#45;&gt;Node34</title>
<path fill="none" stroke="midnightblue" d="M66.0421,-441.137C68.6893,-381.633 83.5549,-231.745 165,-147.5 167.971,-144.427 171.284,-141.68 174.831,-139.223"/>
<polygon fill="midnightblue" stroke="midnightblue" points="62.532,-441.354 65.6679,-451.474 69.5274,-441.607 62.532,-441.354"/>
</g>
<!-- Node35 -->
<g id="node35" class="node"><title>Node35</title>
<g id="a_node35"><a xlink:href="classscram_1_1mef_1_1Histogram.xhtml#a2ea1258aa096f32013766848a318eb7f" target="_top" xlink:title="scram::mef::Histogram\l::value">
<polygon fill="white" stroke="black" points="185,-49.5 185,-79.5 313,-79.5 313,-49.5 185,-49.5"/>
<text text-anchor="start" x="193" y="-67.5" font-family="Helvetica,sans-Serif" font-size="10.00">scram::mef::Histogram</text>
<text text-anchor="middle" x="249" y="-56.5" font-family="Helvetica,sans-Serif" font-size="10.00">::value</text>
</a>
</g>
</g>
<!-- Node1&#45;&gt;Node35 -->
<g id="edge57" class="edge"><title>Node1&#45;&gt;Node35</title>
<path fill="none" stroke="midnightblue" d="M68.9159,-440.962C79.6265,-364.559 114.849,-139.874 165,-88.5 170.553,-82.8112 177.365,-78.4492 184.675,-75.1085"/>
<polygon fill="midnightblue" stroke="midnightblue" points="65.4141,-440.736 67.5147,-451.121 72.3484,-441.693 65.4141,-440.736"/>
</g>
<!-- Node36 -->
<g id="node36" class="node"><title>Node36</title>
<g id="a_node36"><a xlink:href="classscram_1_1mef_1_1InstructionVisitor.xhtml#a100bdabeea8503c87dd349eda22e3b14" target="_top" xlink:title="A set of required visitation functions for concrete visitors to implement. ">
<polygon fill="white" stroke="black" points="170,-0.5 170,-30.5 328,-30.5 328,-0.5 170,-0.5"/>
<text text-anchor="start" x="178" y="-18.5" font-family="Helvetica,sans-Serif" font-size="10.00">scram::mef::InstructionVisitor</text>
<text text-anchor="middle" x="249" y="-7.5" font-family="Helvetica,sans-Serif" font-size="10.00">::Visit</text>
</a>
</g>
</g>
<!-- Node1&#45;&gt;Node36 -->
<g id="edge58" class="edge"><title>Node1&#45;&gt;Node36</title>
<path fill="none" stroke="midnightblue" d="M68.0823,-440.998C76.9645,-358.178 108.843,-98.6877 165,-39.5 168.201,-36.1267 171.843,-33.2185 175.774,-30.7121"/>
<polygon fill="midnightblue" stroke="midnightblue" points="64.5902,-440.74 67.0249,-451.051 71.5518,-441.472 64.5902,-440.74"/>
</g>
<!-- Node3&#45;&gt;Node3 -->
<g id="edge5" class="edge"><title>Node3&#45;&gt;Node3</title>
<path fill="none" stroke="midnightblue" d="M418.375,-820.004C418.381,-825.836 430.756,-830.5 455.5,-830.5 490.691,-830.5 500.864,-821.065 486.018,-812.257"/>
<polygon fill="midnightblue" stroke="midnightblue" points="421.156,-822.137 424.982,-812.257 415.83,-817.594 421.156,-822.137"/>
</g>
<!-- Node4 -->
<g id="node4" class="node"><title>Node4</title>
<g id="a_node4"><a xlink:href="classscram_1_1mef_1_1Mean.xhtml#ab75b082938d5f6ed2b7bd2d45c3c850b" target="_top" xlink:title="Computes the expression value with a given argument value extractor. ">
<polygon fill="white" stroke="black" points="578,-654 578,-673 732,-673 732,-654 578,-654"/>
<text text-anchor="middle" x="655" y="-661" font-family="Helvetica,sans-Serif" font-size="10.00">scram::mef::Mean::Compute</text>
</a>
</g>
</g>
<!-- Node3&#45;&gt;Node4 -->
<g id="edge3" class="edge"><title>Node3&#45;&gt;Node4</title>
<path fill="none" stroke="midnightblue" d="M536.438,-787.808C538.378,-786.485 540.238,-785.051 542,-783.5 577.452,-752.283 543.158,-715.396 578,-683.5 582.73,-679.17 588.285,-675.756 594.202,-673.067"/>
<polygon fill="midnightblue" stroke="midnightblue" points="534.414,-784.934 527.473,-792.939 537.891,-791.009 534.414,-784.934"/>
</g>
<!-- Node5 -->
<g id="node5" class="node"><title>Node5</title>
<g id="a_node5"><a xlink:href="classscram_1_1mef_1_1NaryExpression_3_01T_00-1_01_4.xhtml#aad5811e7fc2298aaf486697e050774fa" target="_top" xlink:title="Computes the expression value with a given argument value extractor. ">
<polygon fill="white" stroke="black" points="579,-692.5 579,-722.5 731,-722.5 731,-692.5 579,-692.5"/>
<text text-anchor="start" x="587" y="-710.5" font-family="Helvetica,sans-Serif" font-size="10.00">scram::mef::NaryExpression</text>
<text text-anchor="middle" x="655" y="-699.5" font-family="Helvetica,sans-Serif" font-size="10.00">&lt; T,&#45;1 &gt;::Compute</text>
</a>
</g>
</g>
<!-- Node3&#45;&gt;Node5 -->
<g id="edge4" class="edge"><title>Node3&#45;&gt;Node5</title>
<path fill="none" stroke="midnightblue" d="M532.219,-789.041C535.625,-787.399 538.907,-785.559 542,-783.5 565.094,-768.124 555.696,-749.002 578,-732.5 583.248,-728.617 589.131,-725.318 595.238,-722.518"/>
<polygon fill="midnightblue" stroke="midnightblue" points="530.812,-785.836 522.957,-792.945 533.531,-792.286 530.812,-785.836"/>
</g>
<!-- Node6 -->
<g id="node6" class="node"><title>Node6</title>
<g id="a_node6"><a xlink:href="classscram_1_1mef_1_1PeriodicTest.xhtml#a546bf1c23ba3926f124de31d7b08b4c3" target="_top" xlink:title="Fully parametrized periodic&#45;test description. ">
<polygon fill="white" stroke="black" points="588,-839.5 588,-869.5 722,-869.5 722,-839.5 588,-839.5"/>
<text text-anchor="start" x="596" y="-857.5" font-family="Helvetica,sans-Serif" font-size="10.00">scram::mef::PeriodicTest</text>
<text text-anchor="middle" x="655" y="-846.5" font-family="Helvetica,sans-Serif" font-size="10.00">::PeriodicTest</text>
</a>
</g>
</g>
<!-- Node3&#45;&gt;Node6 -->
<g id="edge6" class="edge"><title>Node3&#45;&gt;Node6</title>
<path fill="none" stroke="midnightblue" d="M502.676,-814.658C530.74,-822.047 566.801,-831.541 596.68,-839.408"/>
<polygon fill="midnightblue" stroke="midnightblue" points="503.286,-811.199 492.725,-812.038 501.504,-817.968 503.286,-811.199"/>
</g>
<!-- Node7 -->
<g id="node7" class="node"><title>Node7</title>
<g id="a_node7"><a xlink:href="classscram_1_1mef_1_1Exponential.xhtml#a93569be7f366dce3dd25dcbb083ca774" target="_top" xlink:title="scram::mef::Exponential\l::Validate">
<polygon fill="white" stroke="black" points="588.5,-741.5 588.5,-771.5 721.5,-771.5 721.5,-741.5 588.5,-741.5"/>
<text text-anchor="start" x="596.5" y="-759.5" font-family="Helvetica,sans-Serif" font-size="10.00">scram::mef::Exponential</text>
<text text-anchor="middle" x="655" y="-748.5" font-family="Helvetica,sans-Serif" font-size="10.00">::Validate</text>
</a>
</g>
</g>
<!-- Node3&#45;&gt;Node7 -->
<g id="edge7" class="edge"><title>Node3&#45;&gt;Node7</title>
<path fill="none" stroke="midnightblue" d="M510.024,-790.76C520.628,-788.391 531.672,-785.892 542,-783.5 558.368,-779.709 576.053,-775.499 592.429,-771.552"/>
<polygon fill="midnightblue" stroke="midnightblue" points="509.031,-787.395 500.03,-792.984 510.552,-794.228 509.031,-787.395"/>
</g>
<!-- Node9 -->
<g id="node9" class="node"><title>Node9</title>
<g id="a_node9"><a xlink:href="classscram_1_1mef_1_1Glm.xhtml#a48b4b735418eee27d2c4b81b9e59be85" target="_top" xlink:title="Validates the expression. ">
<polygon fill="white" stroke="black" points="584.5,-889 584.5,-908 725.5,-908 725.5,-889 584.5,-889"/>
<text text-anchor="middle" x="655" y="-896" font-family="Helvetica,sans-Serif" font-size="10.00">scram::mef::Glm::Validate</text>
</a>
</g>
</g>
<!-- Node3&#45;&gt;Node9 -->
<g id="edge9" class="edge"><title>Node3&#45;&gt;Node9</title>
<path fill="none" stroke="midnightblue" d="M496.609,-815.728C511.612,-821.708 528.317,-829.666 542,-839.5 561.421,-853.459 557.504,-867.173 578,-879.5 584.41,-883.355 591.574,-886.431 598.872,-888.884"/>
<polygon fill="midnightblue" stroke="midnightblue" points="497.636,-812.374 487.045,-812.084 495.144,-818.915 497.636,-812.374"/>
</g>
<!-- Node10 -->
<g id="node10" class="node"><title>Node10</title>
<g id="a_node10"><a xlink:href="classscram_1_1mef_1_1Weibull.xhtml#ad36688cf28ab24dd909832cd05aad328" target="_top" xlink:title="Validates the expression. ">
<polygon fill="white" stroke="black" points="600,-790.5 600,-820.5 710,-820.5 710,-790.5 600,-790.5"/>
<text text-anchor="start" x="608" y="-808.5" font-family="Helvetica,sans-Serif" font-size="10.00">scram::mef::Weibull</text>
<text text-anchor="middle" x="655" y="-797.5" font-family="Helvetica,sans-Serif" font-size="10.00">::Validate</text>
</a>
</g>
</g>
<!-- Node3&#45;&gt;Node10 -->
<g id="edge10" class="edge"><title>Node3&#45;&gt;Node10</title>
<path fill="none" stroke="midnightblue" d="M552.401,-803.957C568.729,-804.205 585.16,-804.454 599.908,-804.678"/>
<polygon fill="midnightblue" stroke="midnightblue" points="552.317,-800.455 542.265,-803.803 552.21,-807.454 552.317,-800.455"/>
</g>
<!-- Node8 -->
<g id="node8" class="node"><title>Node8</title>
<g id="a_node8"><a xlink:href="classscram_1_1mef_1_1PeriodicTest.xhtml#a0aa8dc4d62e8fc24194f0183bc533638" target="_top" xlink:title="scram::mef::PeriodicTest\l::interval">
<polygon fill="white" stroke="black" points="768,-741.5 768,-771.5 902,-771.5 902,-741.5 768,-741.5"/>
<text text-anchor="start" x="776" y="-759.5" font-family="Helvetica,sans-Serif" font-size="10.00">scram::mef::PeriodicTest</text>
<text text-anchor="middle" x="835" y="-748.5" font-family="Helvetica,sans-Serif" font-size="10.00">::interval</text>
</a>
</g>
</g>
<!-- Node7&#45;&gt;Node8 -->
<g id="edge8" class="edge"><title>Node7&#45;&gt;Node8</title>
<path fill="none" stroke="midnightblue" d="M731.529,-756.5C743.56,-756.5 755.927,-756.5 767.723,-756.5"/>
<polygon fill="midnightblue" stroke="midnightblue" points="731.522,-753 721.522,-756.5 731.522,-760 731.522,-753"/>
</g>
<!-- Node11&#45;&gt;Node4 -->
<g id="edge12" class="edge"><title>Node11&#45;&gt;Node4</title>
<path fill="none" stroke="midnightblue" d="M537.912,-843.132C539.336,-841.998 540.701,-840.788 542,-839.5 592.519,-789.39 528.459,-734.577 578,-683.5 582.18,-679.191 587.168,-675.772 592.563,-673.065"/>
<polygon fill="midnightblue" stroke="midnightblue" points="535.638,-840.438 529.195,-848.848 539.477,-846.292 535.638,-840.438"/>
</g>
<!-- Node11&#45;&gt;Node5 -->
<g id="edge13" class="edge"><title>Node11&#45;&gt;Node5</title>
<path fill="none" stroke="midnightblue" d="M536.633,-843.751C538.506,-842.443 540.301,-841.028 542,-839.5 579.307,-805.948 542.401,-767.859 578,-732.5 581.843,-728.682 586.28,-725.448 591.039,-722.707"/>
<polygon fill="midnightblue" stroke="midnightblue" points="534.825,-840.754 527.974,-848.836 538.37,-846.791 534.825,-840.754"/>
</g>
<!-- Node11&#45;&gt;Node6 -->
<g id="edge15" class="edge"><title>Node11&#45;&gt;Node6</title>
<path fill="none" stroke="midnightblue" d="M539.235,-856.824C555.5,-856.495 572.362,-856.153 587.989,-855.837"/>
<polygon fill="midnightblue" stroke="midnightblue" points="539.127,-853.326 529.2,-857.028 539.269,-860.324 539.127,-853.326"/>
</g>
<!-- Node11&#45;&gt;Node9 -->
<g id="edge16" class="edge"><title>Node11&#45;&gt;Node9</title>
<path fill="none" stroke="midnightblue" d="M513.358,-870.016C543.023,-876.024 578.88,-883.286 606.963,-888.974"/>
<polygon fill="midnightblue" stroke="midnightblue" points="514.051,-866.585 503.555,-868.03 512.661,-873.446 514.051,-866.585"/>
</g>
<!-- Node11&#45;&gt;Node10 -->
<g id="edge17" class="edge"><title>Node11&#45;&gt;Node10</title>
<path fill="none" stroke="midnightblue" d="M512.184,-846.77C522.144,-844.488 532.403,-842.019 542,-839.5 563.62,-833.825 587.339,-826.749 607.362,-820.525"/>
<polygon fill="midnightblue" stroke="midnightblue" points="511.345,-843.371 502.358,-848.983 512.883,-850.2 511.345,-843.371"/>
</g>
<!-- Node11&#45;&gt;Node11 -->
<g id="edge14" class="edge"><title>Node11&#45;&gt;Node11</title>
<path fill="none" stroke="midnightblue" d="M418.375,-876.004C418.381,-881.836 430.756,-886.5 455.5,-886.5 490.691,-886.5 500.864,-877.065 486.018,-868.257"/>
<polygon fill="midnightblue" stroke="midnightblue" points="421.156,-878.137 424.982,-868.257 415.83,-873.594 421.156,-878.137"/>
</g>
<!-- Node12&#45;&gt;Node5 -->
<g id="edge19" class="edge"><title>Node12&#45;&gt;Node5</title>
<path fill="none" stroke="midnightblue" d="M537.929,-899.149C539.347,-898.009 540.707,-896.794 542,-895.5 594.426,-843.005 528.239,-787.527 578,-732.5 581.447,-728.688 585.485,-725.456 589.872,-722.715"/>
<polygon fill="midnightblue" stroke="midnightblue" points="535.652,-896.458 529.234,-904.888 539.508,-902.3 535.652,-896.458"/>
</g>
<!-- Node12&#45;&gt;Node6 -->
<g id="edge21" class="edge"><title>Node12&#45;&gt;Node6</title>
<path fill="none" stroke="midnightblue" d="M517.009,-902.636C525.475,-900.518 534.008,-898.135 542,-895.5 558.629,-890.018 561.663,-885.799 578,-879.5 586.942,-876.052 596.585,-872.647 605.902,-869.511"/>
<polygon fill="midnightblue" stroke="midnightblue" points="516.048,-899.267 507.138,-904.999 517.678,-906.075 516.048,-899.267"/>
</g>
<!-- Node12&#45;&gt;Node9 -->
<g id="edge22" class="edge"><title>Node12&#45;&gt;Node9</title>
<path fill="none" stroke="midnightblue" d="M545.959,-907.253C558.838,-906.209 571.93,-905.149 584.347,-904.143"/>
<polygon fill="midnightblue" stroke="midnightblue" points="545.378,-903.788 535.693,-908.084 545.943,-910.765 545.378,-903.788"/>
</g>
<!-- Node12&#45;&gt;Node12 -->
<g id="edge20" class="edge"><title>Node12&#45;&gt;Node12</title>
<path fill="none" stroke="midnightblue" d="M418.375,-932.004C418.381,-937.836 430.756,-942.5 455.5,-942.5 490.691,-942.5 500.864,-933.065 486.018,-924.257"/>
<polygon fill="midnightblue" stroke="midnightblue" points="421.156,-934.137 424.982,-924.257 415.83,-929.594 421.156,-934.137"/>
</g>
<!-- Node13 -->
<g id="node13" class="node"><title>Node13</title>
<g id="a_node13"><a xlink:href="classscram_1_1mef_1_1BasicEvent.xhtml#acfc0e73e1add67aa2ace841350eb62cd" target="_top" xlink:title="Validates the probability expressions for the primary event. ">
<polygon fill="white" stroke="black" points="590,-927.5 590,-957.5 720,-957.5 720,-927.5 590,-927.5"/>
<text text-anchor="start" x="598" y="-945.5" font-family="Helvetica,sans-Serif" font-size="10.00">scram::mef::BasicEvent</text>
<text text-anchor="middle" x="655" y="-934.5" font-family="Helvetica,sans-Serif" font-size="10.00">::Validate</text>
</a>
</g>
</g>
<!-- Node12&#45;&gt;Node13 -->
<g id="edge23" class="edge"><title>Node12&#45;&gt;Node13</title>
<path fill="none" stroke="midnightblue" d="M533.796,-925.458C552.304,-928.082 571.869,-930.856 589.716,-933.386"/>
<polygon fill="midnightblue" stroke="midnightblue" points="534.032,-921.957 523.64,-924.019 533.05,-928.888 534.032,-921.957"/>
</g>
<!-- Node17 -->
<g id="node17" class="node"><title>Node17</title>
<g id="a_node17"><a xlink:href="classscram_1_1mef_1_1CcfGroup.xhtml#a31cbe59ce89f295de7bb810d8b75990e" target="_top" xlink:title="Validates the setup for the CCF model and group. ">
<polygon fill="white" stroke="black" points="594,-976.5 594,-1006.5 716,-1006.5 716,-976.5 594,-976.5"/>
<text text-anchor="start" x="602" y="-994.5" font-family="Helvetica,sans-Serif" font-size="10.00">scram::mef::CcfGroup</text>
<text text-anchor="middle" x="655" y="-983.5" font-family="Helvetica,sans-Serif" font-size="10.00">::Validate</text>
</a>
</g>
</g>
<!-- Node12&#45;&gt;Node17 -->
<g id="edge28" class="edge"><title>Node12&#45;&gt;Node17</title>
<path fill="none" stroke="midnightblue" d="M485.944,-928.386C510.331,-939.633 546.04,-955.521 578,-967.5 586.292,-970.608 595.188,-973.662 603.868,-976.495"/>
<polygon fill="midnightblue" stroke="midnightblue" points="487.411,-925.208 476.867,-924.172 484.464,-931.557 487.411,-925.208"/>
</g>
<!-- Node14 -->
<g id="node14" class="node"><title>Node14</title>
<g id="a_node14"><a xlink:href="classscram_1_1mef_1_1CcfGroup.xhtml#a06dd05cabcbeddf42090536f6a47a184" target="_top" xlink:title="scram::mef::CcfGroup\l::members">
<polygon fill="white" stroke="black" points="774,-932.5 774,-962.5 896,-962.5 896,-932.5 774,-932.5"/>
<text text-anchor="start" x="782" y="-950.5" font-family="Helvetica,sans-Serif" font-size="10.00">scram::mef::CcfGroup</text>
<text text-anchor="middle" x="835" y="-939.5" font-family="Helvetica,sans-Serif" font-size="10.00">::members</text>
</a>
</g>
</g>
<!-- Node13&#45;&gt;Node14 -->
<g id="edge24" class="edge"><title>Node13&#45;&gt;Node14</title>
<path fill="none" stroke="midnightblue" d="M730.428,-944.591C744.893,-944.997 759.886,-945.418 773.823,-945.81"/>
<polygon fill="midnightblue" stroke="midnightblue" points="730.105,-941.08 720.011,-944.298 729.908,-948.078 730.105,-941.08"/>
</g>
<!-- Node14&#45;&gt;Node2 -->
<g id="edge26" class="edge"><title>Node14&#45;&gt;Node2</title>
<path fill="none" stroke="midnightblue" d="M888.742,-966.016C917.891,-976.249 953.644,-988.801 981.07,-998.429"/>
<polygon fill="midnightblue" stroke="midnightblue" points="889.726,-962.652 879.131,-962.642 887.407,-969.257 889.726,-962.652"/>
</g>
<!-- Node15 -->
<g id="node15" class="node"><title>Node15</title>
<g id="a_node15"><a xlink:href="classscram_1_1mef_1_1Component.xhtml#a4fd4a9b195b92c8061149da20f5bd3f0" target="_top" xlink:title="Adds MEF constructs into this component container. ">
<polygon fill="white" stroke="black" points="946,-900 946,-919 1104,-919 1104,-900 946,-900"/>
<text text-anchor="middle" x="1025" y="-907" font-family="Helvetica,sans-Serif" font-size="10.00">scram::mef::Component::Add</text>
</a>
</g>
</g>
<!-- Node14&#45;&gt;Node15 -->
<g id="edge25" class="edge"><title>Node14&#45;&gt;Node15</title>
<path fill="none" stroke="midnightblue" d="M905.964,-933.358C929.565,-928.588 955.333,-923.38 976.754,-919.05"/>
<polygon fill="midnightblue" stroke="midnightblue" points="905.11,-929.96 896.001,-935.372 906.496,-936.821 905.11,-929.96"/>
</g>
<!-- Node16 -->
<g id="node16" class="node"><title>Node16</title>
<g id="a_node16"><a xlink:href="reporter_8cc.xhtml#a73f9569f4c2e2b6a3eac8d2c01b81943" target="_top" xlink:title="Describes all performed analyses deduced from settings. ">
<polygon fill="white" stroke="black" points="938,-938.5 938,-968.5 1112,-968.5 1112,-938.5 938,-938.5"/>
<text text-anchor="start" x="946" y="-956.5" font-family="Helvetica,sans-Serif" font-size="10.00">scram::ReportCalculatedQuantity</text>
<text text-anchor="middle" x="1025" y="-945.5" font-family="Helvetica,sans-Serif" font-size="10.00">&lt; core::RiskAnalysis &gt;</text>
</a>
</g>
</g>
<!-- Node14&#45;&gt;Node16 -->
<g id="edge27" class="edge"><title>Node14&#45;&gt;Node16</title>
<path fill="none" stroke="midnightblue" d="M906.172,-949.74C916.501,-950.069 927.24,-950.412 937.845,-950.75"/>
<polygon fill="midnightblue" stroke="midnightblue" points="906.108,-946.236 896.001,-949.415 905.885,-953.232 906.108,-946.236"/>
</g>
<!-- Node18&#45;&gt;Node4 -->
<g id="edge30" class="edge"><title>Node18&#45;&gt;Node4</title>
<path fill="none" stroke="midnightblue" d="M496.418,-505.87C511.533,-512.018 528.366,-520.252 542,-530.5 591.226,-567.501 633.119,-629.988 648.107,-653.847"/>
<polygon fill="midnightblue" stroke="midnightblue" points="497.374,-502.486 486.785,-502.13 494.841,-509.012 497.374,-502.486"/>
</g>
<!-- Node18&#45;&gt;Node5 -->
<g id="edge31" class="edge"><title>Node18&#45;&gt;Node5</title>
<path fill="none" stroke="midnightblue" d="M506.615,-505.803C519.766,-511.478 532.819,-519.434 542,-530.5 586.328,-583.93 531.046,-631.362 578,-682.5 581.57,-686.388 585.754,-689.672 590.293,-692.447"/>
<polygon fill="midnightblue" stroke="midnightblue" points="507.663,-502.455 497.076,-502.063 505.108,-508.972 507.663,-502.455"/>
</g>
<!-- Node18&#45;&gt;Node18 -->
<g id="edge32" class="edge"><title>Node18&#45;&gt;Node18</title>
<path fill="none" stroke="midnightblue" d="M418.375,-510.004C418.381,-515.836 430.756,-520.5 455.5,-520.5 490.691,-520.5 500.864,-511.065 486.018,-502.257"/>
<polygon fill="midnightblue" stroke="midnightblue" points="421.156,-512.137 424.982,-502.257 415.83,-507.594 421.156,-512.137"/>
</g>
<!-- Node19&#45;&gt;Node3 -->
<g id="edge39" class="edge"><title>Node19&#45;&gt;Node3</title>
<path fill="none" stroke="midnightblue" d="M278.69,-712.956C294.748,-725.046 315.085,-740.49 333,-754.5 349.184,-767.157 350.485,-774.593 369,-783.5 377.085,-787.389 385.984,-790.495 394.893,-792.972"/>
<polygon fill="midnightblue" stroke="midnightblue" points="280.348,-709.824 270.251,-706.615 276.143,-715.42 280.348,-709.824"/>
</g>
<!-- Node19&#45;&gt;Node5 -->
<g id="edge41" class="edge"><title>Node19&#45;&gt;Node5</title>
<path fill="none" stroke="midnightblue" d="M322.147,-674.502C381.639,-663.123 467.975,-652.695 542,-667.5 558.997,-670.899 561.755,-676.454 578,-682.5 587.112,-685.891 596.924,-689.297 606.371,-692.456"/>
<polygon fill="midnightblue" stroke="midnightblue" points="321.233,-671.114 312.099,-676.482 322.587,-677.982 321.233,-671.114"/>
</g>
<!-- Node19&#45;&gt;Node11 -->
<g id="edge38" class="edge"><title>Node19&#45;&gt;Node11</title>
<path fill="none" stroke="midnightblue" d="M262.692,-716.01C281.318,-749.416 319.302,-808.61 369,-839.5 375.199,-843.353 382.079,-846.429 389.167,-848.884"/>
<polygon fill="midnightblue" stroke="midnightblue" points="265.602,-714.036 257.749,-706.924 259.453,-717.381 265.602,-714.036"/>
</g>
<!-- Node19&#45;&gt;Node12 -->
<g id="edge37" class="edge"><title>Node19&#45;&gt;Node12</title>
<path fill="none" stroke="midnightblue" d="M257.24,-716.449C271.236,-760.023 306.287,-849.708 369,-895.5 374.281,-899.356 380.2,-902.452 386.393,-904.936"/>
<polygon fill="midnightblue" stroke="midnightblue" points="260.51,-715.176 254.204,-706.662 253.824,-717.25 260.51,-715.176"/>
</g>
<!-- Node19&#45;&gt;Node18 -->
<g id="edge40" class="edge"><title>Node19&#45;&gt;Node18</title>
<path fill="none" stroke="midnightblue" d="M321.766,-671.076C325.864,-668.282 329.665,-665.108 333,-661.5 373.984,-617.159 329.624,-576.275 369,-530.5 380.758,-516.831 398.394,-507.871 414.6,-502.107"/>
<polygon fill="midnightblue" stroke="midnightblue" points="319.798,-668.173 312.989,-676.291 323.374,-674.191 319.798,-668.173"/>
</g>
<!-- Node20 -->
<g id="node20" class="node"><title>Node20</title>
<g id="a_node20"><a xlink:href="classscram_1_1mef_1_1Switch.xhtml#aece696754288dcbdbcda71355da80a19" target="_top" xlink:title="scram::mef::Switch\l::interval">
<polygon fill="white" stroke="black" points="401.5,-539.5 401.5,-569.5 509.5,-569.5 509.5,-539.5 401.5,-539.5"/>
<text text-anchor="start" x="409.5" y="-557.5" font-family="Helvetica,sans-Serif" font-size="10.00">scram::mef::Switch</text>
<text text-anchor="middle" x="455.5" y="-546.5" font-family="Helvetica,sans-Serif" font-size="10.00">::interval</text>
</a>
</g>
</g>
<!-- Node19&#45;&gt;Node20 -->
<g id="edge34" class="edge"><title>Node19&#45;&gt;Node20</title>
<path fill="none" stroke="midnightblue" d="M319.511,-671.521C324.372,-668.615 328.943,-665.294 333,-661.5 362.069,-634.312 339.097,-605.768 369,-579.5 378.063,-571.539 389.54,-566.108 401.12,-562.405"/>
<polygon fill="midnightblue" stroke="midnightblue" points="317.685,-668.528 310.501,-676.316 320.973,-674.708 317.685,-668.528"/>
</g>
<!-- Node21 -->
<g id="node21" class="node"><title>Node21</title>
<g id="a_node21"><a xlink:href="expression_8cc.xhtml#aac4a2edaf2210ace71f0d39e50a3738b" target="_top" xlink:title="Ensures the number of args for multivariate expressions. ">
<polygon fill="white" stroke="black" points="389,-725.5 389,-755.5 522,-755.5 522,-725.5 389,-725.5"/>
<text text-anchor="start" x="397" y="-743.5" font-family="Helvetica,sans-Serif" font-size="10.00">scram::mef::detail</text>
<text text-anchor="middle" x="455.5" y="-732.5" font-family="Helvetica,sans-Serif" font-size="10.00">::EnsureMultivariateArgs</text>
</a>
</g>
</g>
<!-- Node19&#45;&gt;Node21 -->
<g id="edge35" class="edge"><title>Node19&#45;&gt;Node21</title>
<path fill="none" stroke="midnightblue" d="M322.634,-708.904C345.257,-714.324 369.996,-720.252 391.872,-725.494"/>
<polygon fill="midnightblue" stroke="midnightblue" points="323.287,-705.461 312.747,-706.535 321.656,-712.268 323.287,-705.461"/>
</g>
<!-- Node19&#45;&gt;Node22 -->
<g id="edge42" class="edge"><title>Node19&#45;&gt;Node22</title>
<path fill="none" stroke="midnightblue" d="M287.971,-670.803C304.13,-660.171 321.796,-645.794 333,-628.5 371.454,-569.145 320.418,-524.895 369,-473.5 372.612,-469.679 376.773,-466.432 381.273,-463.673"/>
<polygon fill="midnightblue" stroke="midnightblue" points="285.801,-668.032 279.199,-676.319 289.528,-673.958 285.801,-668.032"/>
</g>
<!-- Node23 -->
<g id="node23" class="node"><title>Node23</title>
<g id="a_node23"><a xlink:href="classscram_1_1mef_1_1GammaDeviate.xhtml#aac9dd9e446203c28033a32385a68570c" target="_top" xlink:title="scram::mef::GammaDeviate\l::value">
<polygon fill="white" stroke="black" points="379,-676.5 379,-706.5 532,-706.5 532,-676.5 379,-676.5"/>
<text text-anchor="start" x="387" y="-694.5" font-family="Helvetica,sans-Serif" font-size="10.00">scram::mef::GammaDeviate</text>
<text text-anchor="middle" x="455.5" y="-683.5" font-family="Helvetica,sans-Serif" font-size="10.00">::value</text>
</a>
</g>
</g>
<!-- Node19&#45;&gt;Node23 -->
<g id="edge43" class="edge"><title>Node19&#45;&gt;Node23</title>
<path fill="none" stroke="midnightblue" d="M323.672,-691.5C341.576,-691.5 360.752,-691.5 378.751,-691.5"/>
<polygon fill="midnightblue" stroke="midnightblue" points="323.584,-688 313.584,-691.5 323.584,-695 323.584,-688"/>
</g>
<!-- Node24 -->
<g id="node24" class="node"><title>Node24</title>
<g id="a_node24"><a xlink:href="classscram_1_1mef_1_1BetaDeviate.xhtml#a23cf22ef291bb47601ddefd7640fe93a" target="_top" xlink:title="scram::mef::BetaDeviate\l::value">
<polygon fill="white" stroke="black" points="387,-588.5 387,-618.5 524,-618.5 524,-588.5 387,-588.5"/>
<text text-anchor="start" x="395" y="-606.5" font-family="Helvetica,sans-Serif" font-size="10.00">scram::mef::BetaDeviate</text>
<text text-anchor="middle" x="455.5" y="-595.5" font-family="Helvetica,sans-Serif" font-size="10.00">::value</text>
</a>
</g>
</g>
<!-- Node19&#45;&gt;Node24 -->
<g id="edge44" class="edge"><title>Node19&#45;&gt;Node24</title>
<path fill="none" stroke="midnightblue" d="M309.354,-672.647C317.48,-669.321 325.574,-665.595 333,-661.5 350.75,-651.712 351.204,-643.205 369,-633.5 379.496,-627.776 391.296,-622.807 402.7,-618.648"/>
<polygon fill="midnightblue" stroke="midnightblue" points="307.877,-669.466 299.837,-676.365 310.425,-675.986 307.877,-669.466"/>
</g>
<!-- Node21&#45;&gt;Node21 -->
<g id="edge36" class="edge"><title>Node21&#45;&gt;Node21</title>
<path fill="none" stroke="midnightblue" d="M420.318,-765.958C424.684,-770.679 436.412,-774 455.5,-774 486.824,-774 498.326,-765.057 490.006,-755.659"/>
<polygon fill="midnightblue" stroke="midnightblue" points="423.831,-765.867 420.994,-755.659 416.846,-765.408 423.831,-765.867"/>
</g>
<!-- Node30&#45;&gt;Node22 -->
<g id="edge51" class="edge"><title>Node30&#45;&gt;Node22</title>
<path fill="none" stroke="midnightblue" d="M320.642,-583.294C325.12,-580.446 329.305,-577.2 333,-573.5 366.38,-540.077 334.594,-505.866 369,-473.5 373.055,-469.685 377.661,-466.449 382.581,-463.704"/>
<polygon fill="midnightblue" stroke="midnightblue" points="318.732,-580.353 311.72,-588.295 322.155,-586.459 318.732,-580.353"/>
</g>
</g>
</svg>
        <g id="navigator" transform="translate(0 0)" fill="#404254">
                <rect fill="#f2f5e9" fill-opacity="0.5" stroke="#606060" stroke-width=".5" x="0" y="0" width="60" height="60"/>
                <use id="zoomplus" xlink:href="#zoomPlus" x="17" y="9" onmousedown="handleZoom(evt,'in')"/>
                <use id="zoomminus" xlink:href="#zoomMin" x="42" y="9" onmousedown="handleZoom(evt,'out')"/>
                <use id="reset" xlink:href="#resetDef" x="30" y="36" onmousedown="handleReset()"/>
                <g id="arrowUp" xlink:href="#dirArrow" transform="translate(30 24)" onmousedown="handlePan(0,-1)">
                  <use xlink:href="#rim" fill="#404040">
                        <set attributeName="fill" to="#808080" begin="arrowUp.mouseover" end="arrowUp.mouseout"/>
                  </use>
                  <path fill="none" stroke="white" stroke-width="1.5" d="M0,-3.0v7 M-2.5,-0.5L0,-3.0L2.5,-0.5"/>
                </g>
                <g id="arrowRight" xlink:href="#dirArrow" transform="rotate(90) translate(36 -43)" onmousedown="handlePan(1,0)">
                  <use xlink:href="#rim" fill="#404040">
                        <set attributeName="fill" to="#808080" begin="arrowRight.mouseover" end="arrowRight.mouseout"/>
                  </use>
                  <path fill="none" stroke="white" stroke-width="1.5" d="M0,-3.0v7 M-2.5,-0.5L0,-3.0L2.5,-0.5"/>
                </g>
                <g id="arrowDown" xlink:href="#dirArrow" transform="rotate(180) translate(-30 -48)" onmousedown="handlePan(0,1)">
                  <use xlink:href="#rim" fill="#404040">
                        <set attributeName="fill" to="#808080" begin="arrowDown.mouseover" end="arrowDown.mouseout"/>
                  </use>
                  <path fill="none" stroke="white" stroke-width="1.5" d="M0,-3.0v7 M-2.5,-0.5L0,-3.0L2.5,-0.5"/>
                </g>
                <g id="arrowLeft" xlink:href="#dirArrow" transform="rotate(270) translate(-36 17)" onmousedown="handlePan(-1,0)">
                  <use xlink:href="#rim" fill="#404040">
                        <set attributeName="fill" to="#808080" begin="arrowLeft.mouseover" end="arrowLeft.mouseout"/>
                  </use>
                  <path fill="none" stroke="white" stroke-width="1.5" d="M0,-3.0v7 M-2.5,-0.5L0,-3.0L2.5,-0.5"/>
                </g>
        </g>
        <svg viewBox="0 0 15 15" width="100%" height="30px" preserveAspectRatio="xMaxYMin meet">
         <g id="arrow_out" transform="scale(0.3 0.3)">
          <a xlink:href="classscram_1_1mef_1_1Expression_af4c1a5cb29e8f45623a99742b7ba8bc5_icgraph_org.svg" target="_base">
           <rect id="button" ry="5" rx="5" y="6" x="6" height="38" width="38"
                fill="#f2f5e9" fill-opacity="0.5" stroke="#606060" stroke-width="1.0"/>
           <path id="arrow"
             d="M 11.500037,31.436501 C 11.940474,20.09759 22.043105,11.32322 32.158766,21.979434 L 37.068811,17.246167 C 37.068811,17.246167 37.088388,32 37.088388,32 L 22.160133,31.978069 C 22.160133,31.978069 26.997745,27.140456 26.997745,27.140456 C 18.528582,18.264221 13.291696,25.230495 11.500037,31.436501 z"
             style="fill:#404040;"/>
          </a>
         </g>
        </svg>
</svg>
