<?xml version="1.0" encoding="UTF-8" standalone="no"?>
<!DOCTYPE svg PUBLIC "-//W3C//DTD SVG 1.1//EN"
 "http://www.w3.org/Graphics/SVG/1.1/DTD/svg11.dtd">
<!-- Generated by graphviz version 2.38.0 (20140413.2041)
 -->
<!-- Title: scram::mef::Id::id Pages: 1 -->
<svg width="275pt" height="96pt"
 viewBox="0.00 0.00 275.00 95.50" xmlns="http://www.w3.org/2000/svg" xmlns:xlink="http://www.w3.org/1999/xlink">
<g id="graph0" class="graph" transform="scale(1 1) rotate(0) translate(4 91.5)">
<title>scram::mef::Id::id</title>
<polygon fill="white" stroke="none" points="-4,4 -4,-91.5 271,-91.5 271,4 -4,4"/>
<!-- Node1 -->
<g id="node1" class="node"><title>Node1</title>
<polygon fill="#bfbfbf" stroke="black" points="0,-28 0,-47 100,-47 100,-28 0,-28"/>
<text text-anchor="middle" x="50" y="-35" font-family="Helvetica,sans-Serif" font-size="10.00">scram::mef::Id::id</text>
</g>
<!-- Node2 -->
<g id="node2" class="node"><title>Node2</title>
<g id="a_node2"><a xlink:href="element_8h.xhtml#aa0a41336bfd1eb2482e64470eddf3a2c" target="_top" xlink:title="Computes the full path of an element. ">
<polygon fill="white" stroke="black" points="136,-50 136,-69 267,-69 267,-50 136,-50"/>
<text text-anchor="middle" x="201.5" y="-57" font-family="Helvetica,sans-Serif" font-size="10.00">scram::mef::GetFullPath</text>
</a>
</g>
</g>
<!-- Node1&#45;&gt;Node2 -->
<g id="edge1" class="edge"><title>Node1&#45;&gt;Node2</title>
<path fill="none" stroke="midnightblue" d="M100.366,-44.7646C108.558,-45.97 117.211,-47.2434 125.862,-48.5164"/>
<polygon fill="midnightblue" stroke="midnightblue" points="125.585,-52.0134 135.988,-50.0066 126.605,-45.088 125.585,-52.0134"/>
</g>
<!-- Node3 -->
<g id="node3" class="node"><title>Node3</title>
<g id="a_node3"><a xlink:href="classscram_1_1mef_1_1Element.xhtml#adb401e2ca84aa98cb60797bec2500a81" target="_top" xlink:title="scram::mef::Element\l::name">
<polygon fill="white" stroke="black" points="143,-0.5 143,-30.5 260,-30.5 260,-0.5 143,-0.5"/>
<text text-anchor="start" x="151" y="-18.5" font-family="Helvetica,sans-Serif" font-size="10.00">scram::mef::Element</text>
<text text-anchor="middle" x="201.5" y="-7.5" font-family="Helvetica,sans-Serif" font-size="10.00">::name</text>
</a>
</g>
</g>
<!-- Node1&#45;&gt;Node3 -->
<g id="edge3" class="edge"><title>Node1&#45;&gt;Node3</title>
<path fill="none" stroke="midnightblue" d="M100.366,-30.2354C110.785,-28.7022 121.95,-27.0592 132.908,-25.4466"/>
<polygon fill="midnightblue" stroke="midnightblue" points="133.503,-28.8969 142.887,-23.9782 132.483,-21.9715 133.503,-28.8969"/>
</g>
<!-- Node2&#45;&gt;Node2 -->
<g id="edge2" class="edge"><title>Node2&#45;&gt;Node2</title>
<path fill="none" stroke="midnightblue" d="M178.381,-69.2571C167.133,-78.0653 174.84,-87.5 201.5,-87.5 218.996,-87.5 228.329,-83.4368 229.499,-78.1539"/>
<polygon fill="midnightblue" stroke="midnightblue" points="232.497,-76.3417 224.619,-69.2571 226.36,-79.708 232.497,-76.3417"/>
</g>
</g>
</svg>
