<?xml version="1.0" encoding="UTF-8" standalone="no"?>
<!DOCTYPE svg PUBLIC "-//W3C//DTD SVG 1.1//EN"
 "http://www.w3.org/Graphics/SVG/1.1/DTD/svg11.dtd">
<!-- Generated by graphviz version 2.38.0 (20140413.2041)
 -->
<!-- Title: scram::core::NonTerminal::low Pages: 1 -->
<svg width="787pt" height="306pt"
 viewBox="0.00 0.00 787.00 306.00" xmlns="http://www.w3.org/2000/svg" xmlns:xlink="http://www.w3.org/1999/xlink">
<g id="graph0" class="graph" transform="scale(1 1) rotate(0) translate(4 302)">
<title>scram::core::NonTerminal::low</title>
<polygon fill="white" stroke="none" points="-4,4 -4,-302 783,-302 783,4 -4,4"/>
<!-- Node1 -->
<g id="node1" class="node"><title>Node1</title>
<polygon fill="#bfbfbf" stroke="black" points="0,-160 0,-179 160,-179 160,-160 0,-160"/>
<text text-anchor="middle" x="80" y="-167" font-family="Helvetica,sans-Serif" font-size="10.00">scram::core::NonTerminal::low</text>
</g>
<!-- Node2 -->
<g id="node2" class="node"><title>Node2</title>
<g id="a_node2"><a xlink:href="classscram_1_1core_1_1ImportanceAnalysis.xhtml#acf487235f07ddcc1c920943ebfe2ce60" target="_top" xlink:title="Performs quantitative analysis of importance factors of basic events in products. ...">
<polygon fill="white" stroke="black" points="196,-267.5 196,-297.5 369,-297.5 369,-267.5 196,-267.5"/>
<text text-anchor="start" x="204" y="-285.5" font-family="Helvetica,sans-Serif" font-size="10.00">scram::core::ImportanceAnalysis</text>
<text text-anchor="middle" x="282.5" y="-274.5" font-family="Helvetica,sans-Serif" font-size="10.00">::Analyze</text>
</a>
</g>
</g>
<!-- Node1&#45;&gt;Node2 -->
<g id="edge1" class="edge"><title>Node1&#45;&gt;Node2</title>
<path fill="none" stroke="midnightblue" d="M98.2125,-185.997C119.559,-205.624 157.817,-238.161 196,-257.5 203.45,-261.273 211.562,-264.567 219.724,-267.416"/>
<polygon fill="midnightblue" stroke="midnightblue" points="100.592,-183.43 90.8948,-179.161 95.8131,-188.545 100.592,-183.43"/>
</g>
<!-- Node3 -->
<g id="node3" class="node"><title>Node3</title>
<g id="a_node3"><a xlink:href="classscram_1_1core_1_1Bdd.xhtml#a1e7f5f7608e5839e27d6be41712b4800" target="_top" xlink:title="Runs the Qualitative analysis with the representation of a PDAG as ROBDD. ">
<polygon fill="white" stroke="black" points="211.5,-229 211.5,-248 353.5,-248 353.5,-229 211.5,-229"/>
<text text-anchor="middle" x="282.5" y="-236" font-family="Helvetica,sans-Serif" font-size="10.00">scram::core::Bdd::Analyze</text>
</a>
</g>
</g>
<!-- Node1&#45;&gt;Node3 -->
<g id="edge2" class="edge"><title>Node1&#45;&gt;Node3</title>
<path fill="none" stroke="midnightblue" d="M109.239,-183.592C132.165,-194.586 165.566,-209.603 196,-219.5 207.135,-223.121 219.306,-226.282 230.884,-228.933"/>
<polygon fill="midnightblue" stroke="midnightblue" points="110.619,-180.371 100.094,-179.153 107.562,-186.669 110.619,-180.371"/>
</g>
<!-- Node4 -->
<g id="node4" class="node"><title>Node4</title>
<g id="a_node4"><a xlink:href="classscram_1_1core_1_1Zbdd.xhtml#a499a8bc4bc3854e7b2928c08515243cf" target="_top" xlink:title="Specialization of Apply for AND connective for non&#45;terminal ZBDD vertices. ">
<polygon fill="white" stroke="black" points="227,-179.5 227,-209.5 338,-209.5 338,-179.5 227,-179.5"/>
<text text-anchor="start" x="235" y="-197.5" font-family="Helvetica,sans-Serif" font-size="10.00">scram::core::Zbdd::</text>
<text text-anchor="middle" x="282.5" y="-186.5" font-family="Helvetica,sans-Serif" font-size="10.00">Apply</text>
</a>
</g>
</g>
<!-- Node1&#45;&gt;Node4 -->
<g id="edge3" class="edge"><title>Node1&#45;&gt;Node4</title>
<path fill="none" stroke="midnightblue" d="M167.498,-180.285C187.634,-182.796 208.525,-185.401 226.838,-187.684"/>
<polygon fill="midnightblue" stroke="midnightblue" points="167.729,-176.787 157.372,-179.023 166.862,-183.733 167.729,-176.787"/>
</g>
<!-- Node5 -->
<g id="node5" class="node"><title>Node5</title>
<g id="a_node5"><a xlink:href="classscram_1_1core_1_1Zbdd.xhtml#a8cfceb8301f35bce33c34f1283f33725" target="_top" xlink:title="Applies non&#45;declarative substitutions at the end of analysis. ">
<polygon fill="white" stroke="black" points="227,-130.5 227,-160.5 338,-160.5 338,-130.5 227,-130.5"/>
<text text-anchor="start" x="235" y="-148.5" font-family="Helvetica,sans-Serif" font-size="10.00">scram::core::Zbdd::</text>
<text text-anchor="middle" x="282.5" y="-137.5" font-family="Helvetica,sans-Serif" font-size="10.00">ApplySubstitutions</text>
</a>
</g>
</g>
<!-- Node1&#45;&gt;Node5 -->
<g id="edge4" class="edge"><title>Node1&#45;&gt;Node5</title>
<path fill="none" stroke="midnightblue" d="M170.267,-158.815C189.562,-156.505 209.407,-154.13 226.895,-152.036"/>
<polygon fill="midnightblue" stroke="midnightblue" points="169.756,-155.351 160.243,-160.015 170.588,-162.301 169.756,-155.351"/>
</g>
<!-- Node8 -->
<g id="node8" class="node"><title>Node8</title>
<g id="a_node8"><a xlink:href="classscram_1_1core_1_1ProbabilityAnalyzer_3_01Bdd_01_4.xhtml#a45b66605634ae60f1c00e3ac469a7c7a" target="_top" xlink:title="Calculates the total probability with a different set of probability values than the one given upon c...">
<polygon fill="white" stroke="black" points="197,-71 197,-112 368,-112 368,-71 197,-71"/>
<text text-anchor="start" x="205" y="-100" font-family="Helvetica,sans-Serif" font-size="10.00">scram::core::Probability</text>
<text text-anchor="start" x="205" y="-89" font-family="Helvetica,sans-Serif" font-size="10.00">Analyzer&lt; Bdd &gt;::CalculateTotal</text>
<text text-anchor="middle" x="282.5" y="-78" font-family="Helvetica,sans-Serif" font-size="10.00">Probability</text>
</a>
</g>
</g>
<!-- Node1&#45;&gt;Node8 -->
<g id="edge7" class="edge"><title>Node1&#45;&gt;Node8</title>
<path fill="none" stroke="midnightblue" d="M112.163,-155.918C135.186,-146.024 167.369,-132.488 196,-121.5 204.225,-118.344 212.942,-115.133 221.544,-112.042"/>
<polygon fill="midnightblue" stroke="midnightblue" points="110.689,-152.742 102.894,-159.917 113.462,-159.169 110.689,-152.742"/>
</g>
<!-- Node9 -->
<g id="node9" class="node"><title>Node9</title>
<g id="a_node9"><a xlink:href="classscram_1_1core_1_1Zbdd.xhtml#a516f0d2f35ad213399f83fb9ab102561" target="_top" xlink:title="Traverses ZBDD to find modules and adjusted cut&#45;offs. ">
<polygon fill="white" stroke="black" points="227,-22.5 227,-52.5 338,-52.5 338,-22.5 227,-22.5"/>
<text text-anchor="start" x="235" y="-40.5" font-family="Helvetica,sans-Serif" font-size="10.00">scram::core::Zbdd::</text>
<text text-anchor="middle" x="282.5" y="-29.5" font-family="Helvetica,sans-Serif" font-size="10.00">GatherModules</text>
</a>
</g>
</g>
<!-- Node1&#45;&gt;Node9 -->
<g id="edge8" class="edge"><title>Node1&#45;&gt;Node9</title>
<path fill="none" stroke="midnightblue" d="M94.9547,-151.896C114.865,-127.948 153.725,-85.3602 196,-61.5 205.399,-56.1954 216.05,-51.9973 226.566,-48.6972"/>
<polygon fill="midnightblue" stroke="midnightblue" points="92.1117,-149.844 88.5053,-159.806 97.5371,-154.267 92.1117,-149.844"/>
</g>
<!-- Node6 -->
<g id="node6" class="node"><title>Node6</title>
<g id="a_node6"><a xlink:href="classscram_1_1core_1_1Zbdd.xhtml#aac27b9279de1ee1a63822896daeca0c7" target="_top" xlink:title="Runs the analysis with the representation of a PDAG as ZBDD. ">
<polygon fill="white" stroke="black" points="437,-130.5 437,-160.5 548,-160.5 548,-130.5 437,-130.5"/>
<text text-anchor="start" x="445" y="-148.5" font-family="Helvetica,sans-Serif" font-size="10.00">scram::core::Zbdd::</text>
<text text-anchor="middle" x="492.5" y="-137.5" font-family="Helvetica,sans-Serif" font-size="10.00">Analyze</text>
</a>
</g>
</g>
<!-- Node5&#45;&gt;Node6 -->
<g id="edge5" class="edge"><title>Node5&#45;&gt;Node6</title>
<path fill="none" stroke="midnightblue" d="M348.386,-145.5C376.783,-145.5 409.734,-145.5 436.855,-145.5"/>
<polygon fill="midnightblue" stroke="midnightblue" points="348.15,-142 338.15,-145.5 348.15,-149 348.15,-142"/>
</g>
<!-- Node7 -->
<g id="node7" class="node"><title>Node7</title>
<g id="a_node7"><a xlink:href="classscram_1_1core_1_1FaultTreeAnalyzer.xhtml#aedae0c884539dab245018194771f5021" target="_top" xlink:title="scram::core::FaultTreeAnalyzer\l::algorithm">
<polygon fill="white" stroke="black" points="616,-130.5 616,-160.5 779,-160.5 779,-130.5 616,-130.5"/>
<text text-anchor="start" x="624" y="-148.5" font-family="Helvetica,sans-Serif" font-size="10.00">scram::core::FaultTreeAnalyzer</text>
<text text-anchor="middle" x="697.5" y="-137.5" font-family="Helvetica,sans-Serif" font-size="10.00">::algorithm</text>
</a>
</g>
</g>
<!-- Node6&#45;&gt;Node7 -->
<g id="edge6" class="edge"><title>Node6&#45;&gt;Node7</title>
<path fill="none" stroke="midnightblue" d="M558.393,-145.5C576.649,-145.5 596.729,-145.5 615.788,-145.5"/>
<polygon fill="midnightblue" stroke="midnightblue" points="558.167,-142 548.167,-145.5 558.167,-149 558.167,-142"/>
</g>
<!-- Node10 -->
<g id="node10" class="node"><title>Node10</title>
<g id="a_node10"><a xlink:href="classscram_1_1core_1_1Zbdd.xhtml#af92e04ed908364e0177ce444d7b72712" target="_top" xlink:title="The common constructor to initialize member variables. ">
<polygon fill="white" stroke="black" points="424,-50 424,-69 561,-69 561,-50 424,-50"/>
<text text-anchor="middle" x="492.5" y="-57" font-family="Helvetica,sans-Serif" font-size="10.00">scram::core::Zbdd::Zbdd</text>
</a>
</g>
</g>
<!-- Node9&#45;&gt;Node10 -->
<g id="edge9" class="edge"><title>Node9&#45;&gt;Node10</title>
<path fill="none" stroke="midnightblue" d="M348.227,-44.3461C372.251,-46.8872 399.553,-49.7749 423.834,-52.343"/>
<polygon fill="midnightblue" stroke="midnightblue" points="348.462,-40.8516 338.15,-43.2802 347.726,-47.8127 348.462,-40.8516"/>
</g>
<!-- Node11 -->
<g id="node11" class="node"><title>Node11</title>
<g id="a_node11"><a xlink:href="classscram_1_1core_1_1zbdd_1_1CutSetContainer.xhtml#a478c89f64731781882b50ec55898900b" target="_top" xlink:title="Gathers all module indices in the cut sets. ">
<polygon fill="white" stroke="black" points="405,-0.5 405,-30.5 580,-30.5 580,-0.5 405,-0.5"/>
<text text-anchor="start" x="413" y="-18.5" font-family="Helvetica,sans-Serif" font-size="10.00">scram::core::zbdd::</text>
<text text-anchor="middle" x="492.5" y="-7.5" font-family="Helvetica,sans-Serif" font-size="10.00">CutSetContainer::GatherModules</text>
</a>
</g>
</g>
<!-- Node9&#45;&gt;Node11 -->
<g id="edge10" class="edge"><title>Node9&#45;&gt;Node11</title>
<path fill="none" stroke="midnightblue" d="M348.407,-30.6348C366.212,-28.7516 385.806,-26.6791 404.631,-24.6881"/>
<polygon fill="midnightblue" stroke="midnightblue" points="347.726,-27.1873 338.15,-31.7198 348.462,-34.1484 347.726,-27.1873"/>
</g>
</g>
</svg>
