<?xml version="1.0" encoding="UTF-8" standalone="no"?>
<!DOCTYPE svg PUBLIC "-//W3C//DTD SVG 1.1//EN"
 "http://www.w3.org/Graphics/SVG/1.1/DTD/svg11.dtd">
<!-- Generated by graphviz version 2.38.0 (20140413.2041)
 -->
<!-- Title: scram::mef::FunctionalEvent Pages: 1 -->
<svg width="344pt" height="386pt"
 viewBox="0.00 0.00 344.00 386.00" xmlns="http://www.w3.org/2000/svg" xmlns:xlink="http://www.w3.org/1999/xlink">
<g id="graph0" class="graph" transform="scale(1 1) rotate(0) translate(4 382)">
<title>scram::mef::FunctionalEvent</title>
<polygon fill="white" stroke="none" points="-4,4 -4,-382 340,-382 340,4 -4,4"/>
<!-- Node1 -->
<g id="node1" class="node"><title>Node1</title>
<polygon fill="#bfbfbf" stroke="black" points="140,-0.5 140,-68.5 292,-68.5 292,-0.5 140,-0.5"/>
<text text-anchor="middle" x="216" y="-56.5" font-family="Helvetica,sans-Serif" font-size="10.00">scram::mef::FunctionalEvent</text>
<polyline fill="none" stroke="black" points="140,-49.5 292,-49.5 "/>
<text text-anchor="start" x="148" y="-37.5" font-family="Helvetica,sans-Serif" font-size="10.00">+ kTypeString</text>
<polyline fill="none" stroke="black" points="140,-30.5 292,-30.5 "/>
<text text-anchor="start" x="148" y="-18.5" font-family="Helvetica,sans-Serif" font-size="10.00">+ order()</text>
<text text-anchor="start" x="148" y="-7.5" font-family="Helvetica,sans-Serif" font-size="10.00">+ order()</text>
</g>
<!-- Node2 -->
<g id="node2" class="node"><title>Node2</title>
<g id="a_node2"><a xlink:href="classscram_1_1mef_1_1Element.xhtml" target="_top" xlink:title="The MEF Element with attributes and a label. ">
<polygon fill="white" stroke="black" points="92.5,-105.5 92.5,-283.5 209.5,-283.5 209.5,-105.5 92.5,-105.5"/>
<text text-anchor="middle" x="151" y="-271.5" font-family="Helvetica,sans-Serif" font-size="10.00">scram::mef::Element</text>
<polyline fill="none" stroke="black" points="92.5,-264.5 209.5,-264.5 "/>
<text text-anchor="middle" x="151" y="-252.5" font-family="Helvetica,sans-Serif" font-size="10.00"> </text>
<polyline fill="none" stroke="black" points="92.5,-245.5 209.5,-245.5 "/>
<text text-anchor="start" x="100.5" y="-233.5" font-family="Helvetica,sans-Serif" font-size="10.00">+ Element()</text>
<text text-anchor="start" x="100.5" y="-222.5" font-family="Helvetica,sans-Serif" font-size="10.00">+ name()</text>
<text text-anchor="start" x="100.5" y="-211.5" font-family="Helvetica,sans-Serif" font-size="10.00">+ name_view()</text>
<text text-anchor="start" x="100.5" y="-200.5" font-family="Helvetica,sans-Serif" font-size="10.00">+ label()</text>
<text text-anchor="start" x="100.5" y="-189.5" font-family="Helvetica,sans-Serif" font-size="10.00">+ label()</text>
<text text-anchor="start" x="100.5" y="-178.5" font-family="Helvetica,sans-Serif" font-size="10.00">+ attributes()</text>
<text text-anchor="start" x="100.5" y="-167.5" font-family="Helvetica,sans-Serif" font-size="10.00">+ AddAttribute()</text>
<text text-anchor="start" x="100.5" y="-156.5" font-family="Helvetica,sans-Serif" font-size="10.00">+ SetAttribute()</text>
<text text-anchor="start" x="100.5" y="-145.5" font-family="Helvetica,sans-Serif" font-size="10.00">+ GetAttribute()</text>
<text text-anchor="start" x="100.5" y="-134.5" font-family="Helvetica,sans-Serif" font-size="10.00">+ RemoveAttribute()</text>
<text text-anchor="start" x="100.5" y="-123.5" font-family="Helvetica,sans-Serif" font-size="10.00"># ~Element()</text>
<text text-anchor="start" x="100.5" y="-112.5" font-family="Helvetica,sans-Serif" font-size="10.00"># name()</text>
</a>
</g>
</g>
<!-- Node2&#45;&gt;Node1 -->
<g id="edge1" class="edge"><title>Node2&#45;&gt;Node1</title>
<path fill="none" stroke="midnightblue" d="M191.156,-95.891C195.133,-86.2228 198.948,-76.9488 202.344,-68.6942"/>
<polygon fill="none" stroke="midnightblue" points="187.869,-94.6814 187.301,-105.261 194.342,-97.3446 187.869,-94.6814"/>
</g>
<!-- Node3 -->
<g id="node3" class="node"><title>Node3</title>
<g id="a_node3"><a xlink:href="classscram_1_1mef_1_1ContainerElement.xhtml" target="_top" xlink:title="Elements in MEF containers. ">
<polygon fill="white" stroke="black" points="0,-320.5 0,-377.5 164,-377.5 164,-320.5 0,-320.5"/>
<text text-anchor="middle" x="82" y="-365.5" font-family="Helvetica,sans-Serif" font-size="10.00">scram::mef::ContainerElement</text>
<polyline fill="none" stroke="black" points="0,-358.5 164,-358.5 "/>
<text text-anchor="middle" x="82" y="-346.5" font-family="Helvetica,sans-Serif" font-size="10.00"> </text>
<polyline fill="none" stroke="black" points="0,-339.5 164,-339.5 "/>
<text text-anchor="start" x="8" y="-327.5" font-family="Helvetica,sans-Serif" font-size="10.00"># container()</text>
</a>
</g>
</g>
<!-- Node3&#45;&gt;Node2 -->
<g id="edge2" class="edge"><title>Node3&#45;&gt;Node2</title>
<path fill="none" stroke="midnightblue" d="M98.6504,-311.2C102.498,-302.696 106.755,-293.288 111.129,-283.62"/>
<polygon fill="none" stroke="midnightblue" points="95.4289,-309.83 94.4954,-320.383 101.806,-312.715 95.4289,-309.83"/>
</g>
<!-- Node4 -->
<g id="node4" class="node"><title>Node4</title>
<polygon fill="white" stroke="#bfbfbf" points="182.5,-320.5 182.5,-377.5 259.5,-377.5 259.5,-320.5 182.5,-320.5"/>
<text text-anchor="middle" x="221" y="-365.5" font-family="Helvetica,sans-Serif" font-size="10.00">noncopyable</text>
<polyline fill="none" stroke="#bfbfbf" points="182.5,-358.5 259.5,-358.5 "/>
<text text-anchor="middle" x="221" y="-346.5" font-family="Helvetica,sans-Serif" font-size="10.00"> </text>
<polyline fill="none" stroke="#bfbfbf" points="182.5,-339.5 259.5,-339.5 "/>
<text text-anchor="middle" x="221" y="-327.5" font-family="Helvetica,sans-Serif" font-size="10.00"> </text>
</g>
<!-- Node4&#45;&gt;Node2 -->
<g id="edge3" class="edge"><title>Node4&#45;&gt;Node2</title>
<path fill="none" stroke="#8b1a1a" d="M204.108,-311.2C200.205,-302.696 195.887,-293.288 191.448,-283.62"/>
<polygon fill="none" stroke="#8b1a1a" points="200.971,-312.755 208.324,-320.383 207.333,-309.835 200.971,-312.755"/>
</g>
<!-- Node5 -->
<g id="node5" class="node"><title>Node5</title>
<g id="a_node5"><a xlink:href="classscram_1_1mef_1_1Usage.xhtml" target="_top" xlink:title="Mixin class for providing usage marks for elements. ">
<polygon fill="white" stroke="black" points="228,-155 228,-234 336,-234 336,-155 228,-155"/>
<text text-anchor="middle" x="282" y="-222" font-family="Helvetica,sans-Serif" font-size="10.00">scram::mef::Usage</text>
<polyline fill="none" stroke="black" points="228,-215 336,-215 "/>
<text text-anchor="middle" x="282" y="-203" font-family="Helvetica,sans-Serif" font-size="10.00"> </text>
<polyline fill="none" stroke="black" points="228,-196 336,-196 "/>
<text text-anchor="start" x="236" y="-184" font-family="Helvetica,sans-Serif" font-size="10.00">+ usage()</text>
<text text-anchor="start" x="236" y="-173" font-family="Helvetica,sans-Serif" font-size="10.00">+ usage()</text>
<text text-anchor="start" x="236" y="-162" font-family="Helvetica,sans-Serif" font-size="10.00"># ~Usage()</text>
</a>
</g>
</g>
<!-- Node5&#45;&gt;Node1 -->
<g id="edge4" class="edge"><title>Node5&#45;&gt;Node1</title>
<path fill="none" stroke="midnightblue" d="M261.985,-145.585C251.6,-120.724 239.173,-90.9752 229.857,-68.6739"/>
<polygon fill="none" stroke="midnightblue" points="258.771,-146.971 265.855,-154.849 265.23,-144.272 258.771,-146.971"/>
</g>
</g>
</svg>
