<?xml version="1.0" encoding="UTF-8" standalone="no"?>
<!DOCTYPE svg PUBLIC "-//W3C//DTD SVG 1.1//EN"
 "http://www.w3.org/Graphics/SVG/1.1/DTD/svg11.dtd">
<!-- Generated by graphviz version 2.38.0 (20140413.2041)
 -->
<!-- Title: scram::mef::ExternFunction&lt; R, Args &gt; Pages: 1 -->
<svg width="344pt" height="654pt"
 viewBox="0.00 0.00 344.00 654.00" xmlns="http://www.w3.org/2000/svg" xmlns:xlink="http://www.w3.org/1999/xlink">
<g id="graph0" class="graph" transform="scale(1 1) rotate(0) translate(4 650)">
<title>scram::mef::ExternFunction&lt; R, Args &gt;</title>
<polygon fill="white" stroke="none" points="-4,4 -4,-650 340,-650 340,4 -4,4"/>
<!-- Node1 -->
<g id="node1" class="node"><title>Node1</title>
<polygon fill="#bfbfbf" stroke="black" points="175,-138.5 175,-228.5 323,-228.5 323,-138.5 175,-138.5"/>
<text text-anchor="start" x="183" y="-216.5" font-family="Helvetica,sans-Serif" font-size="10.00">scram::mef::ExternFunction</text>
<text text-anchor="middle" x="249" y="-205.5" font-family="Helvetica,sans-Serif" font-size="10.00">&lt; R, Args &gt;</text>
<polyline fill="none" stroke="black" points="175,-198.5 323,-198.5 "/>
<text text-anchor="middle" x="249" y="-186.5" font-family="Helvetica,sans-Serif" font-size="10.00"> </text>
<polyline fill="none" stroke="black" points="175,-179.5 323,-179.5 "/>
<text text-anchor="start" x="183" y="-167.5" font-family="Helvetica,sans-Serif" font-size="10.00">+ ExternFunction()</text>
<text text-anchor="start" x="183" y="-156.5" font-family="Helvetica,sans-Serif" font-size="10.00">+ operator()()</text>
<text text-anchor="start" x="183" y="-145.5" font-family="Helvetica,sans-Serif" font-size="10.00">+ apply()</text>
</g>
<!-- Node7 -->
<g id="node7" class="node"><title>Node7</title>
<g id="a_node7"><a xlink:href="classscram_1_1mef_1_1ExternFunction.xhtml" target="_top" xlink:title="{scram::mef::ExternFunction\l\&lt; R, Args... \&gt;\n||+ ExternFunction()\l+ operator()()\l+ apply()\l}">
<polygon fill="white" stroke="black" points="175,-0.5 175,-90.5 323,-90.5 323,-0.5 175,-0.5"/>
<text text-anchor="start" x="183" y="-78.5" font-family="Helvetica,sans-Serif" font-size="10.00">scram::mef::ExternFunction</text>
<text text-anchor="middle" x="249" y="-67.5" font-family="Helvetica,sans-Serif" font-size="10.00">&lt; R, Args... &gt;</text>
<polyline fill="none" stroke="black" points="175,-60.5 323,-60.5 "/>
<text text-anchor="middle" x="249" y="-48.5" font-family="Helvetica,sans-Serif" font-size="10.00"> </text>
<polyline fill="none" stroke="black" points="175,-41.5 323,-41.5 "/>
<text text-anchor="start" x="183" y="-29.5" font-family="Helvetica,sans-Serif" font-size="10.00">+ ExternFunction()</text>
<text text-anchor="start" x="183" y="-18.5" font-family="Helvetica,sans-Serif" font-size="10.00">+ operator()()</text>
<text text-anchor="start" x="183" y="-7.5" font-family="Helvetica,sans-Serif" font-size="10.00">+ apply()</text>
</a>
</g>
</g>
<!-- Node1&#45;&gt;Node7 -->
<g id="edge6" class="edge"><title>Node1&#45;&gt;Node7</title>
<path fill="none" stroke="orange" d="M249,-128.145C249,-115.782 249,-102.791 249,-90.8992"/>
<polygon fill="orange" stroke="orange" points="245.5,-128.345 249,-138.345 252.5,-128.345 245.5,-128.345"/>
<text text-anchor="middle" x="283.5" y="-112" font-family="Helvetica,sans-Serif" font-size="10.00"> &lt; R, Args... &gt;</text>
</g>
<!-- Node2 -->
<g id="node2" class="node"><title>Node2</title>
<g id="a_node2"><a xlink:href="classscram_1_1mef_1_1ExternFunction_3_01void_01_4.xhtml" target="_top" xlink:title="Abstract base class for ExternFunction concrete types. ">
<polygon fill="white" stroke="black" points="192,-266.5 192,-334.5 306,-334.5 306,-266.5 192,-266.5"/>
<text text-anchor="middle" x="249" y="-322.5" font-family="Helvetica,sans-Serif" font-size="10.00">ExternFunctionBase</text>
<polyline fill="none" stroke="black" points="192,-315.5 306,-315.5 "/>
<text text-anchor="start" x="200" y="-303.5" font-family="Helvetica,sans-Serif" font-size="10.00">+ kTypeString</text>
<polyline fill="none" stroke="black" points="192,-296.5 306,-296.5 "/>
<text text-anchor="start" x="200" y="-284.5" font-family="Helvetica,sans-Serif" font-size="10.00">+ ~ExternFunction()</text>
<text text-anchor="start" x="200" y="-273.5" font-family="Helvetica,sans-Serif" font-size="10.00">+ apply()</text>
</a>
</g>
</g>
<!-- Node2&#45;&gt;Node1 -->
<g id="edge1" class="edge"><title>Node2&#45;&gt;Node1</title>
<path fill="none" stroke="midnightblue" d="M249,-256.055C249,-247.146 249,-237.757 249,-228.818"/>
<polygon fill="none" stroke="midnightblue" points="245.5,-256.237 249,-266.237 252.5,-256.237 245.5,-256.237"/>
</g>
<!-- Node3 -->
<g id="node3" class="node"><title>Node3</title>
<g id="a_node3"><a xlink:href="classscram_1_1mef_1_1Element.xhtml" target="_top" xlink:title="The MEF Element with attributes and a label. ">
<polygon fill="white" stroke="black" points="92.5,-372.5 92.5,-550.5 209.5,-550.5 209.5,-372.5 92.5,-372.5"/>
<text text-anchor="middle" x="151" y="-538.5" font-family="Helvetica,sans-Serif" font-size="10.00">scram::mef::Element</text>
<polyline fill="none" stroke="black" points="92.5,-531.5 209.5,-531.5 "/>
<text text-anchor="middle" x="151" y="-519.5" font-family="Helvetica,sans-Serif" font-size="10.00"> </text>
<polyline fill="none" stroke="black" points="92.5,-512.5 209.5,-512.5 "/>
<text text-anchor="start" x="100.5" y="-500.5" font-family="Helvetica,sans-Serif" font-size="10.00">+ Element()</text>
<text text-anchor="start" x="100.5" y="-489.5" font-family="Helvetica,sans-Serif" font-size="10.00">+ name()</text>
<text text-anchor="start" x="100.5" y="-478.5" font-family="Helvetica,sans-Serif" font-size="10.00">+ name_view()</text>
<text text-anchor="start" x="100.5" y="-467.5" font-family="Helvetica,sans-Serif" font-size="10.00">+ label()</text>
<text text-anchor="start" x="100.5" y="-456.5" font-family="Helvetica,sans-Serif" font-size="10.00">+ label()</text>
<text text-anchor="start" x="100.5" y="-445.5" font-family="Helvetica,sans-Serif" font-size="10.00">+ attributes()</text>
<text text-anchor="start" x="100.5" y="-434.5" font-family="Helvetica,sans-Serif" font-size="10.00">+ AddAttribute()</text>
<text text-anchor="start" x="100.5" y="-423.5" font-family="Helvetica,sans-Serif" font-size="10.00">+ SetAttribute()</text>
<text text-anchor="start" x="100.5" y="-412.5" font-family="Helvetica,sans-Serif" font-size="10.00">+ GetAttribute()</text>
<text text-anchor="start" x="100.5" y="-401.5" font-family="Helvetica,sans-Serif" font-size="10.00">+ RemoveAttribute()</text>
<text text-anchor="start" x="100.5" y="-390.5" font-family="Helvetica,sans-Serif" font-size="10.00"># ~Element()</text>
<text text-anchor="start" x="100.5" y="-379.5" font-family="Helvetica,sans-Serif" font-size="10.00"># name()</text>
</a>
</g>
</g>
<!-- Node3&#45;&gt;Node2 -->
<g id="edge2" class="edge"><title>Node3&#45;&gt;Node2</title>
<path fill="none" stroke="midnightblue" d="M210.783,-363.505C217.08,-353.288 223.127,-343.478 228.479,-334.794"/>
<polygon fill="none" stroke="midnightblue" points="207.713,-361.816 205.445,-372.166 213.672,-365.489 207.713,-361.816"/>
</g>
<!-- Node4 -->
<g id="node4" class="node"><title>Node4</title>
<g id="a_node4"><a xlink:href="classscram_1_1mef_1_1ContainerElement.xhtml" target="_top" xlink:title="Elements in MEF containers. ">
<polygon fill="white" stroke="black" points="0,-588.5 0,-645.5 164,-645.5 164,-588.5 0,-588.5"/>
<text text-anchor="middle" x="82" y="-633.5" font-family="Helvetica,sans-Serif" font-size="10.00">scram::mef::ContainerElement</text>
<polyline fill="none" stroke="black" points="0,-626.5 164,-626.5 "/>
<text text-anchor="middle" x="82" y="-614.5" font-family="Helvetica,sans-Serif" font-size="10.00"> </text>
<polyline fill="none" stroke="black" points="0,-607.5 164,-607.5 "/>
<text text-anchor="start" x="8" y="-595.5" font-family="Helvetica,sans-Serif" font-size="10.00"># container()</text>
</a>
</g>
</g>
<!-- Node4&#45;&gt;Node3 -->
<g id="edge3" class="edge"><title>Node4&#45;&gt;Node3</title>
<path fill="none" stroke="midnightblue" d="M98.7205,-578.803C102.635,-570.094 106.97,-560.45 111.421,-550.549"/>
<polygon fill="none" stroke="midnightblue" points="95.4031,-577.646 94.4954,-588.202 101.788,-580.516 95.4031,-577.646"/>
</g>
<!-- Node5 -->
<g id="node5" class="node"><title>Node5</title>
<polygon fill="white" stroke="#bfbfbf" points="182.5,-588.5 182.5,-645.5 259.5,-645.5 259.5,-588.5 182.5,-588.5"/>
<text text-anchor="middle" x="221" y="-633.5" font-family="Helvetica,sans-Serif" font-size="10.00">noncopyable</text>
<polyline fill="none" stroke="#bfbfbf" points="182.5,-626.5 259.5,-626.5 "/>
<text text-anchor="middle" x="221" y="-614.5" font-family="Helvetica,sans-Serif" font-size="10.00"> </text>
<polyline fill="none" stroke="#bfbfbf" points="182.5,-607.5 259.5,-607.5 "/>
<text text-anchor="middle" x="221" y="-595.5" font-family="Helvetica,sans-Serif" font-size="10.00"> </text>
</g>
<!-- Node5&#45;&gt;Node3 -->
<g id="edge4" class="edge"><title>Node5&#45;&gt;Node3</title>
<path fill="none" stroke="#8b1a1a" d="M204.165,-579.084C200.16,-570.301 195.716,-560.556 191.153,-550.549"/>
<polygon fill="none" stroke="#8b1a1a" points="200.99,-580.556 208.324,-588.202 207.359,-577.651 200.99,-580.556"/>
</g>
<!-- Node6 -->
<g id="node6" class="node"><title>Node6</title>
<g id="a_node6"><a xlink:href="classscram_1_1mef_1_1Usage.xhtml" target="_top" xlink:title="Mixin class for providing usage marks for elements. ">
<polygon fill="white" stroke="black" points="228,-422 228,-501 336,-501 336,-422 228,-422"/>
<text text-anchor="middle" x="282" y="-489" font-family="Helvetica,sans-Serif" font-size="10.00">scram::mef::Usage</text>
<polyline fill="none" stroke="black" points="228,-482 336,-482 "/>
<text text-anchor="middle" x="282" y="-470" font-family="Helvetica,sans-Serif" font-size="10.00"> </text>
<polyline fill="none" stroke="black" points="228,-463 336,-463 "/>
<text text-anchor="start" x="236" y="-451" font-family="Helvetica,sans-Serif" font-size="10.00">+ usage()</text>
<text text-anchor="start" x="236" y="-440" font-family="Helvetica,sans-Serif" font-size="10.00">+ usage()</text>
<text text-anchor="start" x="236" y="-429" font-family="Helvetica,sans-Serif" font-size="10.00"># ~Usage()</text>
</a>
</g>
</g>
<!-- Node6&#45;&gt;Node2 -->
<g id="edge5" class="edge"><title>Node6&#45;&gt;Node2</title>
<path fill="none" stroke="midnightblue" d="M271.848,-411.584C266.664,-386.61 260.495,-356.885 255.874,-334.621"/>
<polygon fill="none" stroke="midnightblue" points="268.468,-412.524 273.927,-421.604 275.322,-411.102 268.468,-412.524"/>
</g>
</g>
</svg>
