<?xml version="1.0" encoding="UTF-8" standalone="no"?>
<!DOCTYPE svg PUBLIC "-//W3C//DTD SVG 1.1//EN"
 "http://www.w3.org/Graphics/SVG/1.1/DTD/svg11.dtd">
<!-- Generated by graphviz version 2.38.0 (20140413.2041)
 -->
<!-- Title: scram::core::CutSetProbabilityCalculator::Calculate Pages: 1 -->
<svg width="382pt" height="88pt"
 viewBox="0.00 0.00 382.00 88.00" xmlns="http://www.w3.org/2000/svg" xmlns:xlink="http://www.w3.org/1999/xlink">
<g id="graph0" class="graph" transform="scale(1 1) rotate(0) translate(4 84)">
<title>scram::core::CutSetProbabilityCalculator::Calculate</title>
<polygon fill="white" stroke="none" points="-4,4 -4,-84 378,-84 378,4 -4,4"/>
<!-- Node1 -->
<g id="node1" class="node"><title>Node1</title>
<polygon fill="#bfbfbf" stroke="black" points="0,-24.5 0,-54.5 162,-54.5 162,-24.5 0,-24.5"/>
<text text-anchor="start" x="8" y="-42.5" font-family="Helvetica,sans-Serif" font-size="10.00">scram::core::CutSetProbability</text>
<text text-anchor="middle" x="81" y="-31.5" font-family="Helvetica,sans-Serif" font-size="10.00">Calculator::Calculate</text>
</g>
<!-- Node2 -->
<g id="node2" class="node"><title>Node2</title>
<g id="a_node2"><a xlink:href="classscram_1_1core_1_1RareEventCalculator.xhtml#a338c4038209d0a6e311d913df8b684f9" target="_top" xlink:title="Calculates probabilities using the Rare&#45;Event approximation. ">
<polygon fill="white" stroke="black" points="198,-49.5 198,-79.5 374,-79.5 374,-49.5 198,-49.5"/>
<text text-anchor="start" x="206" y="-67.5" font-family="Helvetica,sans-Serif" font-size="10.00">scram::core::RareEventCalculator</text>
<text text-anchor="middle" x="286" y="-56.5" font-family="Helvetica,sans-Serif" font-size="10.00">::Calculate</text>
</a>
</g>
</g>
<!-- Node1&#45;&gt;Node2 -->
<g id="edge1" class="edge"><title>Node1&#45;&gt;Node2</title>
<path fill="none" stroke="midnightblue" d="M172.222,-50.6111C180.789,-51.6661 189.464,-52.7344 197.999,-53.7856"/>
<polygon fill="midnightblue" stroke="midnightblue" points="172.584,-47.1293 162.231,-49.3807 171.728,-54.0768 172.584,-47.1293"/>
</g>
<!-- Node3 -->
<g id="node3" class="node"><title>Node3</title>
<g id="a_node3"><a xlink:href="classscram_1_1core_1_1McubCalculator.xhtml#af47379d2ba9190b34aef1acfa402e15c" target="_top" xlink:title="Calculates probabilities using the minimal cut set upper bound (MCUB) approximation. ">
<polygon fill="white" stroke="black" points="209.5,-0.5 209.5,-30.5 362.5,-30.5 362.5,-0.5 209.5,-0.5"/>
<text text-anchor="start" x="217.5" y="-18.5" font-family="Helvetica,sans-Serif" font-size="10.00">scram::core::McubCalculator</text>
<text text-anchor="middle" x="286" y="-7.5" font-family="Helvetica,sans-Serif" font-size="10.00">::Calculate</text>
</a>
</g>
</g>
<!-- Node1&#45;&gt;Node3 -->
<g id="edge2" class="edge"><title>Node1&#45;&gt;Node3</title>
<path fill="none" stroke="midnightblue" d="M172.496,-28.8009C184.798,-27.3466 197.317,-25.8665 209.32,-24.4474"/>
<polygon fill="midnightblue" stroke="midnightblue" points="171.751,-25.3646 162.231,-30.0146 172.573,-32.3162 171.751,-25.3646"/>
</g>
</g>
</svg>
