<?xml version="1.0" encoding="UTF-8" standalone="no"?>
<!DOCTYPE svg PUBLIC "-//W3C//DTD SVG 1.1//EN"
 "http://www.w3.org/Graphics/SVG/1.1/DTD/svg11.dtd">
<!-- Generated by graphviz version 2.38.0 (20140413.2041)
 -->
<!-- Title: scram::mef::Histogram::value Pages: 1 -->
<svg width="348pt" height="78pt"
 viewBox="0.00 0.00 348.00 77.50" xmlns="http://www.w3.org/2000/svg" xmlns:xlink="http://www.w3.org/1999/xlink">
<g id="graph0" class="graph" transform="scale(1 1) rotate(0) translate(4 73.5)">
<title>scram::mef::Histogram::value</title>
<polygon fill="white" stroke="none" points="-4,4 -4,-73.5 344,-73.5 344,4 -4,4"/>
<!-- Node1 -->
<g id="node1" class="node"><title>Node1</title>
<polygon fill="#bfbfbf" stroke="black" points="0,-22.5 0,-52.5 128,-52.5 128,-22.5 0,-22.5"/>
<text text-anchor="start" x="8" y="-40.5" font-family="Helvetica,sans-Serif" font-size="10.00">scram::mef::Histogram</text>
<text text-anchor="middle" x="64" y="-29.5" font-family="Helvetica,sans-Serif" font-size="10.00">::value</text>
</g>
<!-- Node2 -->
<g id="node2" class="node"><title>Node2</title>
<g id="a_node2"><a xlink:href="classscram_1_1mef_1_1RandomDeviate.xhtml#ab074fb1bde194f1bf36b1c6fc026a821" target="_top" xlink:title="scram::mef::RandomDeviate::rng">
<polygon fill="white" stroke="black" points="164,-50 164,-69 340,-69 340,-50 164,-50"/>
<text text-anchor="middle" x="252" y="-57" font-family="Helvetica,sans-Serif" font-size="10.00">scram::mef::RandomDeviate::rng</text>
</a>
</g>
</g>
<!-- Node1&#45;&gt;Node2 -->
<g id="edge1" class="edge"><title>Node1&#45;&gt;Node2</title>
<path fill="none" stroke="midnightblue" d="M128.231,-44.9789C138.632,-46.2092 149.589,-47.5052 160.5,-48.7957"/>
<polygon fill="midnightblue" stroke="midnightblue" points="160.149,-52.2784 170.491,-49.9774 160.971,-45.3269 160.149,-52.2784"/>
</g>
<!-- Node3 -->
<g id="node3" class="node"><title>Node3</title>
<g id="a_node3"><a xlink:href="classscram_1_1mef_1_1Expression.xhtml#af4c1a5cb29e8f45623a99742b7ba8bc5" target="_top" xlink:title="scram::mef::Expression\l::value">
<polygon fill="white" stroke="black" points="187.5,-0.5 187.5,-30.5 316.5,-30.5 316.5,-0.5 187.5,-0.5"/>
<text text-anchor="start" x="195.5" y="-18.5" font-family="Helvetica,sans-Serif" font-size="10.00">scram::mef::Expression</text>
<text text-anchor="middle" x="252" y="-7.5" font-family="Helvetica,sans-Serif" font-size="10.00">::value</text>
</a>
</g>
</g>
<!-- Node1&#45;&gt;Node3 -->
<g id="edge2" class="edge"><title>Node1&#45;&gt;Node3</title>
<path fill="none" stroke="midnightblue" d="M128.231,-30.0211C144.017,-28.154 161.082,-26.1355 177.324,-24.2144"/>
<polygon fill="midnightblue" stroke="midnightblue" points="177.792,-27.6834 187.312,-23.033 176.97,-20.7319 177.792,-27.6834"/>
</g>
</g>
</svg>
