<?xml version="1.0" encoding="UTF-8" standalone="no"?>
<!DOCTYPE svg PUBLIC "-//W3C//DTD SVG 1.1//EN"
 "http://www.w3.org/Graphics/SVG/1.1/DTD/svg11.dtd">
<!-- Generated by graphviz version 2.38.0 (20140413.2041)
 -->
<!-- Title: scram::core::Pdag::complement Pages: 1 -->
<svg width="277pt" height="78pt"
 viewBox="0.00 0.00 277.00 77.50" xmlns="http://www.w3.org/2000/svg" xmlns:xlink="http://www.w3.org/1999/xlink">
<g id="graph0" class="graph" transform="scale(1 1) rotate(0) translate(4 73.5)">
<title>scram::core::Pdag::complement</title>
<polygon fill="white" stroke="none" points="-4,4 -4,-73.5 273,-73.5 273,4 -4,4"/>
<!-- Node1 -->
<g id="node1" class="node"><title>Node1</title>
<polygon fill="#bfbfbf" stroke="black" points="0,-22.5 0,-52.5 110,-52.5 110,-22.5 0,-22.5"/>
<text text-anchor="start" x="8" y="-40.5" font-family="Helvetica,sans-Serif" font-size="10.00">scram::core::Pdag::</text>
<text text-anchor="middle" x="55" y="-29.5" font-family="Helvetica,sans-Serif" font-size="10.00">complement</text>
</g>
<!-- Node2 -->
<g id="node2" class="node"><title>Node2</title>
<g id="a_node2"><a xlink:href="classscram_1_1core_1_1Bdd.xhtml#ab7af95900c1ab921446e2e67177a315c" target="_top" xlink:title="Constructor with the analysis target. ">
<polygon fill="white" stroke="black" points="146,-50 146,-69 269,-69 269,-50 146,-50"/>
<text text-anchor="middle" x="207.5" y="-57" font-family="Helvetica,sans-Serif" font-size="10.00">scram::core::Bdd::Bdd</text>
</a>
</g>
</g>
<!-- Node1&#45;&gt;Node2 -->
<g id="edge1" class="edge"><title>Node1&#45;&gt;Node2</title>
<path fill="none" stroke="midnightblue" d="M120.486,-46.9266C128.908,-48.1577 137.513,-49.4156 145.869,-50.637"/>
<polygon fill="midnightblue" stroke="midnightblue" points="120.735,-43.4258 110.334,-45.4425 119.723,-50.3522 120.735,-43.4258"/>
</g>
<!-- Node3 -->
<g id="node3" class="node"><title>Node3</title>
<g id="a_node3"><a xlink:href="classscram_1_1core_1_1Mocus.xhtml#aebc1de3cd35c82f14cbcf0500a0cbfce" target="_top" xlink:title="Prepares a PDAG for analysis with the MOCUS algorithm. ">
<polygon fill="white" stroke="black" points="152.5,-0.5 152.5,-30.5 262.5,-30.5 262.5,-0.5 152.5,-0.5"/>
<text text-anchor="start" x="160.5" y="-18.5" font-family="Helvetica,sans-Serif" font-size="10.00">scram::core::Mocus</text>
<text text-anchor="middle" x="207.5" y="-7.5" font-family="Helvetica,sans-Serif" font-size="10.00">::Mocus</text>
</a>
</g>
</g>
<!-- Node1&#45;&gt;Node3 -->
<g id="edge2" class="edge"><title>Node1&#45;&gt;Node3</title>
<path fill="none" stroke="midnightblue" d="M120.454,-28.0782C131.134,-26.517 142.11,-24.9124 152.498,-23.394"/>
<polygon fill="midnightblue" stroke="midnightblue" points="119.723,-24.6478 110.334,-29.5575 120.735,-31.5742 119.723,-24.6478"/>
</g>
</g>
</svg>
