<?xml version="1.0" encoding="UTF-8" standalone="no"?>
<!DOCTYPE svg PUBLIC "-//W3C//DTD SVG 1.1//EN"
 "http://www.w3.org/Graphics/SVG/1.1/DTD/svg11.dtd">
<!-- Generated by graphviz version 2.38.0 (20140413.2041)
 -->
<!-- Title: scram::mef::Formula::connective Pages: 1 -->
<svg width="325pt" height="96pt"
 viewBox="0.00 0.00 325.00 95.50" xmlns="http://www.w3.org/2000/svg" xmlns:xlink="http://www.w3.org/1999/xlink">
<g id="graph0" class="graph" transform="scale(1 1) rotate(0) translate(4 91.5)">
<title>scram::mef::Formula::connective</title>
<polygon fill="white" stroke="none" points="-4,4 -4,-91.5 321,-91.5 321,4 -4,4"/>
<!-- Node1 -->
<g id="node1" class="node"><title>Node1</title>
<polygon fill="#bfbfbf" stroke="black" points="0,-26 0,-56 116,-56 116,-26 0,-26"/>
<text text-anchor="start" x="8" y="-44" font-family="Helvetica,sans-Serif" font-size="10.00">scram::mef::Formula</text>
<text text-anchor="middle" x="58" y="-33" font-family="Helvetica,sans-Serif" font-size="10.00">::connective</text>
</g>
<!-- Node2 -->
<g id="node2" class="node"><title>Node2</title>
<g id="a_node2"><a xlink:href="classscram_1_1core_1_1EventTreeAnalysis.xhtml#a3e3404417cbdcf92474e5653ec24f936" target="_top" xlink:title="scram::core::EventTreeAnalysis\l::EventTreeAnalysis">
<polygon fill="white" stroke="black" points="152,-57 152,-87 317,-87 317,-57 152,-57"/>
<text text-anchor="start" x="160" y="-75" font-family="Helvetica,sans-Serif" font-size="10.00">scram::core::EventTreeAnalysis</text>
<text text-anchor="middle" x="234.5" y="-64" font-family="Helvetica,sans-Serif" font-size="10.00">::EventTreeAnalysis</text>
</a>
</g>
</g>
<!-- Node1&#45;&gt;Node2 -->
<g id="edge1" class="edge"><title>Node1&#45;&gt;Node2</title>
<path fill="none" stroke="midnightblue" d="M126.225,-52.9425C134.619,-54.4338 143.275,-55.9715 151.858,-57.4963"/>
<polygon fill="midnightblue" stroke="midnightblue" points="126.596,-49.4537 116.138,-51.1506 125.371,-56.3458 126.596,-49.4537"/>
</g>
<!-- Node3 -->
<g id="node3" class="node"><title>Node3</title>
<g id="a_node3"><a xlink:href="serialization_8cc.xhtml#a83f7058a5caad9ec3ffb5fd6c7d7b8f6" target="_top" xlink:title="Convenience function for serialization into a file. ">
<polygon fill="white" stroke="black" points="175.5,-0.5 175.5,-19.5 293.5,-19.5 293.5,-0.5 175.5,-0.5"/>
<text text-anchor="middle" x="234.5" y="-7.5" font-family="Helvetica,sans-Serif" font-size="10.00">scram::mef::Serialize</text>
</a>
</g>
</g>
<!-- Node1&#45;&gt;Node3 -->
<g id="edge2" class="edge"><title>Node1&#45;&gt;Node3</title>
<path fill="none" stroke="midnightblue" d="M126.396,-29.0271C144.084,-25.8848 162.922,-22.5383 179.787,-19.5421"/>
<polygon fill="midnightblue" stroke="midnightblue" points="125.371,-25.6542 116.138,-30.8494 126.596,-32.5463 125.371,-25.6542"/>
</g>
<!-- Node3&#45;&gt;Node3 -->
<g id="edge3" class="edge"><title>Node3&#45;&gt;Node3</title>
<path fill="none" stroke="midnightblue" d="M201.517,-27.8913C202,-33.5406 212.994,-38 234.5,-38 265.781,-38 274.823,-28.5653 261.627,-19.7571"/>
<polygon fill="midnightblue" stroke="midnightblue" points="204.371,-29.9175 207.373,-19.7571 198.69,-25.8273 204.371,-29.9175"/>
</g>
</g>
</svg>
