<?xml version="1.0" encoding="UTF-8" standalone="no"?>
<!DOCTYPE svg PUBLIC "-//W3C//DTD SVG 1.1//EN"
 "http://www.w3.org/Graphics/SVG/1.1/DTD/svg11.dtd">
<!-- Generated by graphviz version 2.38.0 (20140413.2041)
 -->
<!-- Title: ext::linear_map::find Pages: 1 -->
<svg width="349pt" height="279pt"
 viewBox="0.00 0.00 349.00 278.50" xmlns="http://www.w3.org/2000/svg" xmlns:xlink="http://www.w3.org/1999/xlink">
<g id="graph0" class="graph" transform="scale(1 1) rotate(0) translate(4 274.5)">
<title>ext::linear_map::find</title>
<polygon fill="white" stroke="none" points="-4,4 -4,-274.5 345,-274.5 345,4 -4,4"/>
<!-- Node1 -->
<g id="node1" class="node"><title>Node1</title>
<polygon fill="#bfbfbf" stroke="black" points="0,-131.5 0,-150.5 114,-150.5 114,-131.5 0,-131.5"/>
<text text-anchor="middle" x="57" y="-138.5" font-family="Helvetica,sans-Serif" font-size="10.00">ext::linear_map::find</text>
</g>
<!-- Node2 -->
<g id="node2" class="node"><title>Node2</title>
<g id="a_node2"><a xlink:href="classext_1_1linear__map.xhtml#abec7fa7fbdc9f24e5028ba4db54c1eb4" target="_top" xlink:title="Accesses the value of the entry. ">
<polygon fill="white" stroke="black" points="150,-240 150,-270 341,-270 341,-240 150,-240"/>
<text text-anchor="start" x="158" y="-258" font-family="Helvetica,sans-Serif" font-size="10.00">ext::linear_map&lt; int,</text>
<text text-anchor="middle" x="245.5" y="-247" font-family="Helvetica,sans-Serif" font-size="10.00"> GateWeakPtr, ext::MoveEraser &gt;::at</text>
</a>
</g>
</g>
<!-- Node1&#45;&gt;Node2 -->
<g id="edge1" class="edge"><title>Node1&#45;&gt;Node2</title>
<path fill="none" stroke="midnightblue" d="M71.2479,-158.716C87.5284,-179.216 117.074,-212.515 150,-231 156.052,-234.397 162.589,-237.322 169.301,-239.839"/>
<polygon fill="midnightblue" stroke="midnightblue" points="73.8125,-156.311 64.9238,-150.546 68.277,-160.596 73.8125,-156.311"/>
</g>
<!-- Node3 -->
<g id="node3" class="node"><title>Node3</title>
<g id="a_node3"><a xlink:href="classext_1_1linear__map.xhtml#a06ea6f3a7b047a36ebf53e4af2211161" target="_top" xlink:title="Determines if an entry with the given key in the map. ">
<polygon fill="white" stroke="black" points="163.5,-180.5 163.5,-221.5 327.5,-221.5 327.5,-180.5 163.5,-180.5"/>
<text text-anchor="start" x="171.5" y="-209.5" font-family="Helvetica,sans-Serif" font-size="10.00">ext::linear_map&lt; int,</text>
<text text-anchor="start" x="171.5" y="-198.5" font-family="Helvetica,sans-Serif" font-size="10.00"> GateWeakPtr, ext::MoveEraser</text>
<text text-anchor="middle" x="245.5" y="-187.5" font-family="Helvetica,sans-Serif" font-size="10.00"> &gt;::count</text>
</a>
</g>
</g>
<!-- Node1&#45;&gt;Node3 -->
<g id="edge2" class="edge"><title>Node1&#45;&gt;Node3</title>
<path fill="none" stroke="midnightblue" d="M96.783,-153.721C113.192,-159.084 132.518,-165.375 150,-171 159.586,-174.084 169.725,-177.326 179.665,-180.491"/>
<polygon fill="midnightblue" stroke="midnightblue" points="97.5786,-150.299 86.986,-150.516 95.4022,-156.952 97.5786,-150.299"/>
</g>
<!-- Node4 -->
<g id="node4" class="node"><title>Node4</title>
<g id="a_node4"><a xlink:href="classext_1_1linear__map.xhtml#a320f5c3dca95395b7a81c6a0713c8e30" target="_top" xlink:title="Erases the entry with a key. ">
<polygon fill="white" stroke="black" points="163.5,-120.5 163.5,-161.5 327.5,-161.5 327.5,-120.5 163.5,-120.5"/>
<text text-anchor="start" x="171.5" y="-149.5" font-family="Helvetica,sans-Serif" font-size="10.00">ext::linear_map&lt; int,</text>
<text text-anchor="start" x="171.5" y="-138.5" font-family="Helvetica,sans-Serif" font-size="10.00"> GateWeakPtr, ext::MoveEraser</text>
<text text-anchor="middle" x="245.5" y="-127.5" font-family="Helvetica,sans-Serif" font-size="10.00"> &gt;::erase</text>
</a>
</g>
</g>
<!-- Node1&#45;&gt;Node4 -->
<g id="edge3" class="edge"><title>Node1&#45;&gt;Node4</title>
<path fill="none" stroke="midnightblue" d="M124.555,-141C137.094,-141 150.337,-141 163.266,-141"/>
<polygon fill="midnightblue" stroke="midnightblue" points="124.209,-137.5 114.209,-141 124.209,-144.5 124.209,-137.5"/>
</g>
<!-- Node5 -->
<g id="node5" class="node"><title>Node5</title>
<g id="a_node5"><a xlink:href="classext_1_1linear__map.xhtml#a5ac43a9a0f3b364e3fa12af1b3a2ecd9" target="_top" xlink:title="Inserts a key&#45;value pair into the map if the pair is not in the map. ">
<polygon fill="white" stroke="black" points="163.5,-60.5 163.5,-101.5 327.5,-101.5 327.5,-60.5 163.5,-60.5"/>
<text text-anchor="start" x="171.5" y="-89.5" font-family="Helvetica,sans-Serif" font-size="10.00">ext::linear_map&lt; int,</text>
<text text-anchor="start" x="171.5" y="-78.5" font-family="Helvetica,sans-Serif" font-size="10.00"> GateWeakPtr, ext::MoveEraser</text>
<text text-anchor="middle" x="245.5" y="-67.5" font-family="Helvetica,sans-Serif" font-size="10.00"> &gt;::insert</text>
</a>
</g>
</g>
<!-- Node1&#45;&gt;Node5 -->
<g id="edge4" class="edge"><title>Node1&#45;&gt;Node5</title>
<path fill="none" stroke="midnightblue" d="M96.783,-128.279C113.192,-122.916 132.518,-116.625 150,-111 159.586,-107.916 169.725,-104.674 179.665,-101.509"/>
<polygon fill="midnightblue" stroke="midnightblue" points="95.4022,-125.048 86.986,-131.484 97.5786,-131.701 95.4022,-125.048"/>
</g>
<!-- Node6 -->
<g id="node6" class="node"><title>Node6</title>
<g id="a_node6"><a xlink:href="classext_1_1linear__map.xhtml#a5a9ff2b51ccd613fe71b0ba392c0a333" target="_top" xlink:title="Accesses an existing or default constructed entry. ">
<polygon fill="white" stroke="black" points="163.5,-0.5 163.5,-41.5 327.5,-41.5 327.5,-0.5 163.5,-0.5"/>
<text text-anchor="start" x="171.5" y="-29.5" font-family="Helvetica,sans-Serif" font-size="10.00">ext::linear_map&lt; int,</text>
<text text-anchor="start" x="171.5" y="-18.5" font-family="Helvetica,sans-Serif" font-size="10.00"> GateWeakPtr, ext::MoveEraser</text>
<text text-anchor="middle" x="245.5" y="-7.5" font-family="Helvetica,sans-Serif" font-size="10.00"> &gt;::operator[]</text>
</a>
</g>
</g>
<!-- Node1&#45;&gt;Node6 -->
<g id="edge5" class="edge"><title>Node1&#45;&gt;Node6</title>
<path fill="none" stroke="midnightblue" d="M71.6965,-123.303C88.2132,-103.095 117.798,-70.3426 150,-51 155.755,-47.5433 161.949,-44.4436 168.316,-41.6723"/>
<polygon fill="midnightblue" stroke="midnightblue" points="68.7627,-121.367 65.2563,-131.365 74.2321,-125.736 68.7627,-121.367"/>
</g>
</g>
</svg>
