<?xml version="1.0" encoding="UTF-8" standalone="no"?>
<!DOCTYPE svg PUBLIC "-//W3C//DTD SVG 1.1//EN"
 "http://www.w3.org/Graphics/SVG/1.1/DTD/svg11.dtd">
<!-- Generated by graphviz version 2.38.0 (20140413.2041)
 -->
<!-- Title: scram::mef::Component Pages: 1 -->
<!--zoomable 1116 -->
<svg id="main" version="1.1" xmlns="http://www.w3.org/2000/svg" xmlns:xlink="http://www.w3.org/1999/xlink" xml:space="preserve" onload="init(evt)">
<style type="text/css"><![CDATA[
.edge:hover path { stroke: red; }
.edge:hover polygon { stroke: red; fill: red; }
]]></style>
<script type="text/javascript"><![CDATA[
var edges = document.getElementsByTagName('g');
if (edges && edges.length) {
  for (var i=0;i<edges.length;i++) {
    if (edges[i].id.substr(0,4)=='edge') {
      edges[i].setAttribute('class','edge');
    }
  }
}
]]></script>
        <defs>
                <circle id="rim" cx="0" cy="0" r="7"/>
                <circle id="rim2" cx="0" cy="0" r="3.5"/>
                <g id="zoomPlus">
                        <use xlink:href="#rim" fill="#404040">
                                <set attributeName="fill" to="#808080" begin="zoomplus.mouseover" end="zoomplus.mouseout"/>
                        </use>
                        <path d="M-4,0h8M0,-4v8" fill="none" stroke="white" stroke-width="1.5" pointer-events="none"/>
                </g>
                <g id="zoomMin">
                        <use xlink:href="#rim" fill="#404040">
                                <set attributeName="fill" to="#808080" begin="zoomminus.mouseover" end="zoomminus.mouseout"/>
                        </use>
                        <path d="M-4,0h8" fill="none" stroke="white" stroke-width="1.5" pointer-events="none"/>
                </g>
                <g id="dirArrow">
                        <path fill="none" stroke="white" stroke-width="1.5" d="M0,-3.0v7 M-2.5,-0.5L0,-3.0L2.5,-0.5"/>
                </g>
               <g id="resetDef">
                       <use xlink:href="#rim2" fill="#404040">
                               <set attributeName="fill" to="#808080" begin="reset.mouseover" end="reset.mouseout"/>
                       </use>
               </g>
        </defs>

<script type="text/javascript">
var viewWidth = 607;
var viewHeight = 1116;
var sectionId = 'dynsection-0';
</script>
<script xlink:href="svgpan.js"/>
<svg id="graph" class="graph">
<g id="viewport">
<title>scram::mef::Component</title>
<polygon fill="white" stroke="none" points="-4,4 -4,-1112 603,-1112 603,4 -4,4"/>
<!-- Node1 -->
<g id="node1" class="node"><title>Node1</title>
<polygon fill="#bfbfbf" stroke="black" points="140,-117.5 140,-416.5 274,-416.5 274,-117.5 140,-117.5"/>
<text text-anchor="middle" x="207" y="-404.5" font-family="Helvetica,sans-Serif" font-size="10.00">scram::mef::Component</text>
<polyline fill="none" stroke="black" points="140,-397.5 274,-397.5 "/>
<text text-anchor="start" x="148" y="-385.5" font-family="Helvetica,sans-Serif" font-size="10.00">+ kTypeString</text>
<polyline fill="none" stroke="black" points="140,-378.5 274,-378.5 "/>
<text text-anchor="start" x="148" y="-366.5" font-family="Helvetica,sans-Serif" font-size="10.00">+ Component()</text>
<text text-anchor="start" x="148" y="-355.5" font-family="Helvetica,sans-Serif" font-size="10.00">+ ~Component()</text>
<text text-anchor="start" x="148" y="-344.5" font-family="Helvetica,sans-Serif" font-size="10.00">+ gates()</text>
<text text-anchor="start" x="148" y="-333.5" font-family="Helvetica,sans-Serif" font-size="10.00">+ basic_events()</text>
<text text-anchor="start" x="148" y="-322.5" font-family="Helvetica,sans-Serif" font-size="10.00">+ house_events()</text>
<text text-anchor="start" x="148" y="-311.5" font-family="Helvetica,sans-Serif" font-size="10.00">+ parameters()</text>
<text text-anchor="start" x="148" y="-300.5" font-family="Helvetica,sans-Serif" font-size="10.00">+ ccf_groups()</text>
<text text-anchor="start" x="148" y="-289.5" font-family="Helvetica,sans-Serif" font-size="10.00">+ components()</text>
<text text-anchor="start" x="148" y="-278.5" font-family="Helvetica,sans-Serif" font-size="10.00">+ Add()</text>
<text text-anchor="start" x="148" y="-267.5" font-family="Helvetica,sans-Serif" font-size="10.00">+ Add()</text>
<text text-anchor="start" x="148" y="-256.5" font-family="Helvetica,sans-Serif" font-size="10.00">+ Add()</text>
<text text-anchor="start" x="148" y="-245.5" font-family="Helvetica,sans-Serif" font-size="10.00">+ Add()</text>
<text text-anchor="start" x="148" y="-234.5" font-family="Helvetica,sans-Serif" font-size="10.00"># GatherGates()</text>
<text text-anchor="start" x="148" y="-223.5" font-family="Helvetica,sans-Serif" font-size="10.00">* gates()</text>
<text text-anchor="start" x="148" y="-212.5" font-family="Helvetica,sans-Serif" font-size="10.00">* basic_events()</text>
<text text-anchor="start" x="148" y="-201.5" font-family="Helvetica,sans-Serif" font-size="10.00">* house_events()</text>
<text text-anchor="start" x="148" y="-190.5" font-family="Helvetica,sans-Serif" font-size="10.00">* parameters()</text>
<text text-anchor="start" x="148" y="-179.5" font-family="Helvetica,sans-Serif" font-size="10.00">* ccf_groups()</text>
<text text-anchor="start" x="148" y="-168.5" font-family="Helvetica,sans-Serif" font-size="10.00">* components()</text>
<text text-anchor="start" x="148" y="-157.5" font-family="Helvetica,sans-Serif" font-size="10.00">* Add()</text>
<text text-anchor="start" x="148" y="-146.5" font-family="Helvetica,sans-Serif" font-size="10.00">* Add()</text>
<text text-anchor="start" x="148" y="-135.5" font-family="Helvetica,sans-Serif" font-size="10.00">* Add()</text>
<text text-anchor="start" x="148" y="-124.5" font-family="Helvetica,sans-Serif" font-size="10.00">* Add()</text>
</g>
<!-- Node9 -->
<g id="node9" class="node"><title>Node9</title>
<g id="a_node9"><a xlink:href="classscram_1_1mef_1_1FaultTree.xhtml" target="_top" xlink:title="Fault tree representation as a container of gates, basic and house events, and other information...">
<polygon fill="white" stroke="black" points="147.5,-0.5 147.5,-79.5 266.5,-79.5 266.5,-0.5 147.5,-0.5"/>
<text text-anchor="middle" x="207" y="-67.5" font-family="Helvetica,sans-Serif" font-size="10.00">scram::mef::FaultTree</text>
<polyline fill="none" stroke="black" points="147.5,-60.5 266.5,-60.5 "/>
<text text-anchor="start" x="155.5" y="-48.5" font-family="Helvetica,sans-Serif" font-size="10.00">+ kTypeString</text>
<polyline fill="none" stroke="black" points="147.5,-41.5 266.5,-41.5 "/>
<text text-anchor="start" x="155.5" y="-29.5" font-family="Helvetica,sans-Serif" font-size="10.00">+ FaultTree()</text>
<text text-anchor="start" x="155.5" y="-18.5" font-family="Helvetica,sans-Serif" font-size="10.00">+ top_events()</text>
<text text-anchor="start" x="155.5" y="-7.5" font-family="Helvetica,sans-Serif" font-size="10.00">+ CollectTopEvents()</text>
</a>
</g>
</g>
<!-- Node1&#45;&gt;Node9 -->
<g id="edge9" class="edge"><title>Node1&#45;&gt;Node9</title>
<path fill="none" stroke="midnightblue" d="M207,-107.322C207,-97.3371 207,-87.939 207,-79.531"/>
<polygon fill="none" stroke="midnightblue" points="203.5,-107.489 207,-117.489 210.5,-107.489 203.5,-107.489"/>
</g>
<!-- Node2 -->
<g id="node2" class="node"><title>Node2</title>
<g id="a_node2"><a xlink:href="classscram_1_1mef_1_1Element.xhtml" target="_top" xlink:title="The MEF Element with attributes and a label. ">
<polygon fill="white" stroke="black" points="23.5,-493 23.5,-671 140.5,-671 140.5,-493 23.5,-493"/>
<text text-anchor="middle" x="82" y="-659" font-family="Helvetica,sans-Serif" font-size="10.00">scram::mef::Element</text>
<polyline fill="none" stroke="black" points="23.5,-652 140.5,-652 "/>
<text text-anchor="middle" x="82" y="-640" font-family="Helvetica,sans-Serif" font-size="10.00"> </text>
<polyline fill="none" stroke="black" points="23.5,-633 140.5,-633 "/>
<text text-anchor="start" x="31.5" y="-621" font-family="Helvetica,sans-Serif" font-size="10.00">+ Element()</text>
<text text-anchor="start" x="31.5" y="-610" font-family="Helvetica,sans-Serif" font-size="10.00">+ name()</text>
<text text-anchor="start" x="31.5" y="-599" font-family="Helvetica,sans-Serif" font-size="10.00">+ name_view()</text>
<text text-anchor="start" x="31.5" y="-588" font-family="Helvetica,sans-Serif" font-size="10.00">+ label()</text>
<text text-anchor="start" x="31.5" y="-577" font-family="Helvetica,sans-Serif" font-size="10.00">+ label()</text>
<text text-anchor="start" x="31.5" y="-566" font-family="Helvetica,sans-Serif" font-size="10.00">+ attributes()</text>
<text text-anchor="start" x="31.5" y="-555" font-family="Helvetica,sans-Serif" font-size="10.00">+ AddAttribute()</text>
<text text-anchor="start" x="31.5" y="-544" font-family="Helvetica,sans-Serif" font-size="10.00">+ SetAttribute()</text>
<text text-anchor="start" x="31.5" y="-533" font-family="Helvetica,sans-Serif" font-size="10.00">+ GetAttribute()</text>
<text text-anchor="start" x="31.5" y="-522" font-family="Helvetica,sans-Serif" font-size="10.00">+ RemoveAttribute()</text>
<text text-anchor="start" x="31.5" y="-511" font-family="Helvetica,sans-Serif" font-size="10.00"># ~Element()</text>
<text text-anchor="start" x="31.5" y="-500" font-family="Helvetica,sans-Serif" font-size="10.00"># name()</text>
</a>
</g>
</g>
<!-- Node2&#45;&gt;Node1 -->
<g id="edge1" class="edge"><title>Node2&#45;&gt;Node1</title>
<path fill="none" stroke="midnightblue" d="M120.874,-483.659C129.364,-462.399 138.537,-439.431 147.621,-416.684"/>
<polygon fill="none" stroke="midnightblue" points="117.611,-482.394 117.152,-492.979 124.111,-484.99 117.611,-482.394"/>
</g>
<!-- Node3 -->
<g id="node3" class="node"><title>Node3</title>
<g id="a_node3"><a xlink:href="classscram_1_1mef_1_1ContainerElement.xhtml" target="_top" xlink:title="Elements in MEF containers. ">
<polygon fill="white" stroke="black" points="0,-906 0,-963 164,-963 164,-906 0,-906"/>
<text text-anchor="middle" x="82" y="-951" font-family="Helvetica,sans-Serif" font-size="10.00">scram::mef::ContainerElement</text>
<polyline fill="none" stroke="black" points="0,-944 164,-944 "/>
<text text-anchor="middle" x="82" y="-932" font-family="Helvetica,sans-Serif" font-size="10.00"> </text>
<polyline fill="none" stroke="black" points="0,-925 164,-925 "/>
<text text-anchor="start" x="8" y="-913" font-family="Helvetica,sans-Serif" font-size="10.00"># container()</text>
</a>
</g>
</g>
<!-- Node3&#45;&gt;Node2 -->
<g id="edge2" class="edge"><title>Node3&#45;&gt;Node2</title>
<path fill="none" stroke="midnightblue" d="M82,-895.978C82,-842.719 82,-743.63 82,-671.17"/>
<polygon fill="none" stroke="midnightblue" points="78.5001,-895.997 82,-905.997 85.5001,-895.997 78.5001,-895.997"/>
</g>
<!-- Node4 -->
<g id="node4" class="node"><title>Node4</title>
<polygon fill="white" stroke="#bfbfbf" points="182.5,-906 182.5,-963 259.5,-963 259.5,-906 182.5,-906"/>
<text text-anchor="middle" x="221" y="-951" font-family="Helvetica,sans-Serif" font-size="10.00">noncopyable</text>
<polyline fill="none" stroke="#bfbfbf" points="182.5,-944 259.5,-944 "/>
<text text-anchor="middle" x="221" y="-932" font-family="Helvetica,sans-Serif" font-size="10.00"> </text>
<polyline fill="none" stroke="#bfbfbf" points="182.5,-925 259.5,-925 "/>
<text text-anchor="middle" x="221" y="-913" font-family="Helvetica,sans-Serif" font-size="10.00"> </text>
</g>
<!-- Node4&#45;&gt;Node2 -->
<g id="edge3" class="edge"><title>Node4&#45;&gt;Node2</title>
<path fill="none" stroke="#8b1a1a" d="M206.383,-896.641C185.326,-843.545 145.822,-743.932 116.966,-671.17"/>
<polygon fill="none" stroke="#8b1a1a" points="203.153,-897.991 210.093,-905.997 209.66,-895.411 203.153,-897.991"/>
</g>
<!-- Node5 -->
<g id="node5" class="node"><title>Node5</title>
<g id="a_node5"><a xlink:href="classscram_1_1mef_1_1Role.xhtml" target="_top" xlink:title="Mixin class that manages private or public roles for elements as needed. ">
<polygon fill="white" stroke="black" points="158.5,-537 158.5,-627 255.5,-627 255.5,-537 158.5,-537"/>
<text text-anchor="middle" x="207" y="-615" font-family="Helvetica,sans-Serif" font-size="10.00">scram::mef::Role</text>
<polyline fill="none" stroke="black" points="158.5,-608 255.5,-608 "/>
<text text-anchor="middle" x="207" y="-596" font-family="Helvetica,sans-Serif" font-size="10.00"> </text>
<polyline fill="none" stroke="black" points="158.5,-589 255.5,-589 "/>
<text text-anchor="start" x="166.5" y="-577" font-family="Helvetica,sans-Serif" font-size="10.00">+ Role()</text>
<text text-anchor="start" x="166.5" y="-566" font-family="Helvetica,sans-Serif" font-size="10.00">+ role()</text>
<text text-anchor="start" x="166.5" y="-555" font-family="Helvetica,sans-Serif" font-size="10.00">+ base_path()</text>
<text text-anchor="start" x="166.5" y="-544" font-family="Helvetica,sans-Serif" font-size="10.00"># ~Role()</text>
</a>
</g>
</g>
<!-- Node5&#45;&gt;Node1 -->
<g id="edge4" class="edge"><title>Node5&#45;&gt;Node1</title>
<path fill="none" stroke="midnightblue" d="M207,-526.779C207,-496.075 207,-456.027 207,-416.644"/>
<polygon fill="none" stroke="midnightblue" points="203.5,-526.819 207,-536.819 210.5,-526.819 203.5,-526.819"/>
</g>
<!-- Node6 -->
<g id="node6" class="node"><title>Node6</title>
<g id="a_node6"><a xlink:href="classscram_1_1mef_1_1Composite.xhtml" target="_top" xlink:title="{scram::mef::Composite\l\&lt; Container\&lt; Component,\l Component, true, false\l \&gt;, Container\&lt; Component,\l BasicEvent, false, false\l \&gt;, Container\&lt; Component,\l HouseEvent, false, false \&gt;\l, Container\&lt; Component, Gate,\l false, false \&gt;, Container\&lt; Component,\l Parameter, false, false \&gt;, Container\l\&lt; Component, CcfGroup, false, false \&gt; \&gt;\n||+ table()\l+ table()\l+ Get()\l+ Get()\l# data()\l* table()\l* table()\l* Get()\l* Get()\l}">
<polygon fill="white" stroke="black" points="273,-454.5 273,-709.5 487,-709.5 487,-454.5 273,-454.5"/>
<text text-anchor="start" x="281" y="-697.5" font-family="Helvetica,sans-Serif" font-size="10.00">scram::mef::Composite</text>
<text text-anchor="start" x="281" y="-686.5" font-family="Helvetica,sans-Serif" font-size="10.00">&lt; Container&lt; Component,</text>
<text text-anchor="start" x="281" y="-675.5" font-family="Helvetica,sans-Serif" font-size="10.00"> Component, true, false</text>
<text text-anchor="start" x="281" y="-664.5" font-family="Helvetica,sans-Serif" font-size="10.00"> &gt;, Container&lt; Component,</text>
<text text-anchor="start" x="281" y="-653.5" font-family="Helvetica,sans-Serif" font-size="10.00"> BasicEvent, false, false</text>
<text text-anchor="start" x="281" y="-642.5" font-family="Helvetica,sans-Serif" font-size="10.00"> &gt;, Container&lt; Component,</text>
<text text-anchor="start" x="281" y="-631.5" font-family="Helvetica,sans-Serif" font-size="10.00"> HouseEvent, false, false &gt;</text>
<text text-anchor="start" x="281" y="-620.5" font-family="Helvetica,sans-Serif" font-size="10.00">, Container&lt; Component, Gate,</text>
<text text-anchor="start" x="281" y="-609.5" font-family="Helvetica,sans-Serif" font-size="10.00"> false, false &gt;, Container&lt; Component,</text>
<text text-anchor="start" x="281" y="-598.5" font-family="Helvetica,sans-Serif" font-size="10.00"> Parameter, false, false &gt;, Container</text>
<text text-anchor="middle" x="380" y="-587.5" font-family="Helvetica,sans-Serif" font-size="10.00">&lt; Component, CcfGroup, false, false &gt; &gt;</text>
<polyline fill="none" stroke="black" points="273,-580.5 487,-580.5 "/>
<text text-anchor="middle" x="380" y="-568.5" font-family="Helvetica,sans-Serif" font-size="10.00"> </text>
<polyline fill="none" stroke="black" points="273,-561.5 487,-561.5 "/>
<text text-anchor="start" x="281" y="-549.5" font-family="Helvetica,sans-Serif" font-size="10.00">+ table()</text>
<text text-anchor="start" x="281" y="-538.5" font-family="Helvetica,sans-Serif" font-size="10.00">+ table()</text>
<text text-anchor="start" x="281" y="-527.5" font-family="Helvetica,sans-Serif" font-size="10.00">+ Get()</text>
<text text-anchor="start" x="281" y="-516.5" font-family="Helvetica,sans-Serif" font-size="10.00">+ Get()</text>
<text text-anchor="start" x="281" y="-505.5" font-family="Helvetica,sans-Serif" font-size="10.00"># data()</text>
<text text-anchor="start" x="281" y="-494.5" font-family="Helvetica,sans-Serif" font-size="10.00">* table()</text>
<text text-anchor="start" x="281" y="-483.5" font-family="Helvetica,sans-Serif" font-size="10.00">* table()</text>
<text text-anchor="start" x="281" y="-472.5" font-family="Helvetica,sans-Serif" font-size="10.00">* Get()</text>
<text text-anchor="start" x="281" y="-461.5" font-family="Helvetica,sans-Serif" font-size="10.00">* Get()</text>
</a>
</g>
</g>
<!-- Node6&#45;&gt;Node1 -->
<g id="edge5" class="edge"><title>Node6&#45;&gt;Node1</title>
<path fill="none" stroke="midnightblue" d="M305.022,-445.346C294.749,-426.76 284.256,-407.775 274.135,-389.464"/>
<polygon fill="none" stroke="midnightblue" points="301.983,-447.083 309.884,-454.142 308.109,-443.697 301.983,-447.083"/>
</g>
<!-- Node7 -->
<g id="node7" class="node"><title>Node7</title>
<polygon fill="white" stroke="#bfbfbf" points="331.5,-1050.5 331.5,-1107.5 360.5,-1107.5 360.5,-1050.5 331.5,-1050.5"/>
<text text-anchor="middle" x="346" y="-1095.5" font-family="Helvetica,sans-Serif" font-size="10.00">Ts</text>
<polyline fill="none" stroke="#bfbfbf" points="331.5,-1088.5 360.5,-1088.5 "/>
<text text-anchor="middle" x="346" y="-1076.5" font-family="Helvetica,sans-Serif" font-size="10.00"> </text>
<polyline fill="none" stroke="#bfbfbf" points="331.5,-1069.5 360.5,-1069.5 "/>
<text text-anchor="middle" x="346" y="-1057.5" font-family="Helvetica,sans-Serif" font-size="10.00"> </text>
</g>
<!-- Node7&#45;&gt;Node6 -->
<g id="edge6" class="edge"><title>Node7&#45;&gt;Node6</title>
<path fill="none" stroke="midnightblue" d="M339.185,-1040.18C337.861,-1031.29 336.676,-1021.84 336,-1013 330.679,-943.425 330.431,-925.555 336,-856 339.851,-807.906 347.459,-755.5 355.282,-709.578"/>
<polygon fill="none" stroke="midnightblue" points="335.763,-1040.94 340.78,-1050.27 342.677,-1039.85 335.763,-1040.94"/>
</g>
<!-- Node8 -->
<g id="node8" class="node"><title>Node8</title>
<g id="a_node8"><a xlink:href="classscram_1_1mef_1_1Composite.xhtml" target="_top" xlink:title="The composition of multiple mef::Containers. ">
<polygon fill="white" stroke="black" points="345.5,-856.5 345.5,-1012.5 474.5,-1012.5 474.5,-856.5 345.5,-856.5"/>
<text text-anchor="start" x="353.5" y="-1000.5" font-family="Helvetica,sans-Serif" font-size="10.00">scram::mef::Composite</text>
<text text-anchor="middle" x="410" y="-989.5" font-family="Helvetica,sans-Serif" font-size="10.00">&lt; Ts &gt;</text>
<polyline fill="none" stroke="black" points="345.5,-982.5 474.5,-982.5 "/>
<text text-anchor="middle" x="410" y="-970.5" font-family="Helvetica,sans-Serif" font-size="10.00"> </text>
<polyline fill="none" stroke="black" points="345.5,-963.5 474.5,-963.5 "/>
<text text-anchor="start" x="353.5" y="-951.5" font-family="Helvetica,sans-Serif" font-size="10.00">+ table()</text>
<text text-anchor="start" x="353.5" y="-940.5" font-family="Helvetica,sans-Serif" font-size="10.00">+ table()</text>
<text text-anchor="start" x="353.5" y="-929.5" font-family="Helvetica,sans-Serif" font-size="10.00">+ Get()</text>
<text text-anchor="start" x="353.5" y="-918.5" font-family="Helvetica,sans-Serif" font-size="10.00">+ Get()</text>
<text text-anchor="start" x="353.5" y="-907.5" font-family="Helvetica,sans-Serif" font-size="10.00"># data()</text>
<text text-anchor="start" x="353.5" y="-896.5" font-family="Helvetica,sans-Serif" font-size="10.00">* table()</text>
<text text-anchor="start" x="353.5" y="-885.5" font-family="Helvetica,sans-Serif" font-size="10.00">* table()</text>
<text text-anchor="start" x="353.5" y="-874.5" font-family="Helvetica,sans-Serif" font-size="10.00">* Get()</text>
<text text-anchor="start" x="353.5" y="-863.5" font-family="Helvetica,sans-Serif" font-size="10.00">* Get()</text>
</a>
</g>
</g>
<!-- Node7&#45;&gt;Node8 -->
<g id="edge8" class="edge"><title>Node7&#45;&gt;Node8</title>
<path fill="none" stroke="midnightblue" d="M362.599,-1041.04C366.547,-1032.25 370.906,-1022.54 375.334,-1012.69"/>
<polygon fill="none" stroke="midnightblue" points="359.396,-1039.63 358.492,-1050.19 365.782,-1042.5 359.396,-1039.63"/>
</g>
<!-- Node8&#45;&gt;Node6 -->
<g id="edge7" class="edge"><title>Node8&#45;&gt;Node6</title>
<path fill="none" stroke="orange" d="M402.523,-846.141C398.996,-804.938 394.721,-754.989 390.847,-709.727"/>
<polygon fill="orange" stroke="orange" points="399.039,-846.482 403.379,-856.147 406.014,-845.885 399.039,-846.482"/>
<text text-anchor="start" x="401" y="-830" font-family="Helvetica,sans-Serif" font-size="10.00"> &lt; Container&lt; Component,</text>
<text text-anchor="start" x="401" y="-819" font-family="Helvetica,sans-Serif" font-size="10.00"> Component, true, false</text>
<text text-anchor="start" x="401" y="-808" font-family="Helvetica,sans-Serif" font-size="10.00"> &gt;, Container&lt; Component,</text>
<text text-anchor="start" x="401" y="-797" font-family="Helvetica,sans-Serif" font-size="10.00"> BasicEvent, false, false</text>
<text text-anchor="start" x="401" y="-786" font-family="Helvetica,sans-Serif" font-size="10.00"> &gt;, Container&lt; Component,</text>
<text text-anchor="start" x="401" y="-775" font-family="Helvetica,sans-Serif" font-size="10.00"> HouseEvent, false, false &gt;</text>
<text text-anchor="start" x="401" y="-764" font-family="Helvetica,sans-Serif" font-size="10.00">, Container&lt; Component, Gate,</text>
<text text-anchor="start" x="401" y="-753" font-family="Helvetica,sans-Serif" font-size="10.00"> false, false &gt;, Container&lt; Component,</text>
<text text-anchor="start" x="401" y="-742" font-family="Helvetica,sans-Serif" font-size="10.00"> Parameter, false, false &gt;, Container</text>
<text text-anchor="middle" x="500" y="-731" font-family="Helvetica,sans-Serif" font-size="10.00">&lt; Component, CcfGroup, false, false &gt; &gt;</text>
</g>
</g>
</svg>
        <g id="navigator" transform="translate(0 0)" fill="#404254">
                <rect fill="#f2f5e9" fill-opacity="0.5" stroke="#606060" stroke-width=".5" x="0" y="0" width="60" height="60"/>
                <use id="zoomplus" xlink:href="#zoomPlus" x="17" y="9" onmousedown="handleZoom(evt,'in')"/>
                <use id="zoomminus" xlink:href="#zoomMin" x="42" y="9" onmousedown="handleZoom(evt,'out')"/>
                <use id="reset" xlink:href="#resetDef" x="30" y="36" onmousedown="handleReset()"/>
                <g id="arrowUp" xlink:href="#dirArrow" transform="translate(30 24)" onmousedown="handlePan(0,-1)">
                  <use xlink:href="#rim" fill="#404040">
                        <set attributeName="fill" to="#808080" begin="arrowUp.mouseover" end="arrowUp.mouseout"/>
                  </use>
                  <path fill="none" stroke="white" stroke-width="1.5" d="M0,-3.0v7 M-2.5,-0.5L0,-3.0L2.5,-0.5"/>
                </g>
                <g id="arrowRight" xlink:href="#dirArrow" transform="rotate(90) translate(36 -43)" onmousedown="handlePan(1,0)">
                  <use xlink:href="#rim" fill="#404040">
                        <set attributeName="fill" to="#808080" begin="arrowRight.mouseover" end="arrowRight.mouseout"/>
                  </use>
                  <path fill="none" stroke="white" stroke-width="1.5" d="M0,-3.0v7 M-2.5,-0.5L0,-3.0L2.5,-0.5"/>
                </g>
                <g id="arrowDown" xlink:href="#dirArrow" transform="rotate(180) translate(-30 -48)" onmousedown="handlePan(0,1)">
                  <use xlink:href="#rim" fill="#404040">
                        <set attributeName="fill" to="#808080" begin="arrowDown.mouseover" end="arrowDown.mouseout"/>
                  </use>
                  <path fill="none" stroke="white" stroke-width="1.5" d="M0,-3.0v7 M-2.5,-0.5L0,-3.0L2.5,-0.5"/>
                </g>
                <g id="arrowLeft" xlink:href="#dirArrow" transform="rotate(270) translate(-36 17)" onmousedown="handlePan(-1,0)">
                  <use xlink:href="#rim" fill="#404040">
                        <set attributeName="fill" to="#808080" begin="arrowLeft.mouseover" end="arrowLeft.mouseout"/>
                  </use>
                  <path fill="none" stroke="white" stroke-width="1.5" d="M0,-3.0v7 M-2.5,-0.5L0,-3.0L2.5,-0.5"/>
                </g>
        </g>
        <svg viewBox="0 0 15 15" width="100%" height="30px" preserveAspectRatio="xMaxYMin meet">
         <g id="arrow_out" transform="scale(0.3 0.3)">
          <a xlink:href="classscram_1_1mef_1_1Component__inherit__graph_org.svg" target="_base">
           <rect id="button" ry="5" rx="5" y="6" x="6" height="38" width="38"
                fill="#f2f5e9" fill-opacity="0.5" stroke="#606060" stroke-width="1.0"/>
           <path id="arrow"
             d="M 11.500037,31.436501 C 11.940474,20.09759 22.043105,11.32322 32.158766,21.979434 L 37.068811,17.246167 C 37.068811,17.246167 37.088388,32 37.088388,32 L 22.160133,31.978069 C 22.160133,31.978069 26.997745,27.140456 26.997745,27.140456 C 18.528582,18.264221 13.291696,25.230495 11.500037,31.436501 z"
             style="fill:#404040;"/>
          </a>
         </g>
        </svg>
</svg>
