<?xml version="1.0" encoding="UTF-8" standalone="no"?>
<!DOCTYPE svg PUBLIC "-//W3C//DTD SVG 1.1//EN"
 "http://www.w3.org/Graphics/SVG/1.1/DTD/svg11.dtd">
<!-- Generated by graphviz version 2.38.0 (20140413.2041)
 -->
<!-- Title: scram::mef::Glm::Validate Pages: 1 -->
<svg width="711pt" height="389pt"
 viewBox="0.00 0.00 711.00 389.00" xmlns="http://www.w3.org/2000/svg" xmlns:xlink="http://www.w3.org/1999/xlink">
<g id="graph0" class="graph" transform="scale(1 1) rotate(0) translate(4 385)">
<title>scram::mef::Glm::Validate</title>
<polygon fill="white" stroke="none" points="-4,4 -4,-385 707,-385 707,4 -4,4"/>
<!-- Node1 -->
<g id="node1" class="node"><title>Node1</title>
<polygon fill="#bfbfbf" stroke="black" points="0,-120.5 0,-139.5 141,-139.5 141,-120.5 0,-120.5"/>
<text text-anchor="middle" x="70.5" y="-127.5" font-family="Helvetica,sans-Serif" font-size="10.00">scram::mef::Glm::Validate</text>
</g>
<!-- Node2 -->
<g id="node2" class="node"><title>Node2</title>
<g id="a_node2"><a xlink:href="expression_8cc.xhtml#a262d38f7d6438e25ea34765b8d6a03eb" target="_top" xlink:title="Ensures that expression yields non&#45;negative (&gt;= 0) values. ">
<polygon fill="white" stroke="black" points="177,-176.5 177,-195.5 350,-195.5 350,-176.5 177,-176.5"/>
<text text-anchor="middle" x="263.5" y="-183.5" font-family="Helvetica,sans-Serif" font-size="10.00">scram::mef::EnsureNonNegative</text>
</a>
</g>
</g>
<!-- Node1&#45;&gt;Node2 -->
<g id="edge1" class="edge"><title>Node1&#45;&gt;Node2</title>
<path fill="none" stroke="midnightblue" d="M95.9615,-139.508C117.176,-147.529 148.816,-158.957 177,-167 185.913,-169.543 195.428,-171.953 204.754,-174.148"/>
<polygon fill="midnightblue" stroke="midnightblue" points="204.233,-177.619 214.762,-176.442 205.797,-170.796 204.233,-177.619"/>
</g>
<!-- Node9 -->
<g id="node9" class="node"><title>Node9</title>
<g id="a_node9"><a xlink:href="expression_8cc.xhtml#ab3b34a51ff3513ee93b109cd33ccdda6" target="_top" xlink:title="Ensures that expression yields positive (&gt; 0) values. ">
<polygon fill="white" stroke="black" points="190,-120.5 190,-139.5 337,-139.5 337,-120.5 190,-120.5"/>
<text text-anchor="middle" x="263.5" y="-127.5" font-family="Helvetica,sans-Serif" font-size="10.00">scram::mef::EnsurePositive</text>
</a>
</g>
</g>
<!-- Node1&#45;&gt;Node9 -->
<g id="edge12" class="edge"><title>Node1&#45;&gt;Node9</title>
<path fill="none" stroke="midnightblue" d="M141.266,-130C153.711,-130 166.786,-130 179.556,-130"/>
<polygon fill="midnightblue" stroke="midnightblue" points="179.714,-133.5 189.714,-130 179.714,-126.5 179.714,-133.5"/>
</g>
<!-- Node12 -->
<g id="node12" class="node"><title>Node12</title>
<g id="a_node12"><a xlink:href="expression_8cc.xhtml#a287db91ea8f1c33cca483d75195bc2bc" target="_top" xlink:title="Ensures that expression can be used for probability ([0, 1]). ">
<polygon fill="white" stroke="black" points="183.5,-60.5 183.5,-79.5 343.5,-79.5 343.5,-60.5 183.5,-60.5"/>
<text text-anchor="middle" x="263.5" y="-67.5" font-family="Helvetica,sans-Serif" font-size="10.00">scram::mef::EnsureProbability</text>
</a>
</g>
</g>
<!-- Node1&#45;&gt;Node12 -->
<g id="edge21" class="edge"><title>Node1&#45;&gt;Node12</title>
<path fill="none" stroke="midnightblue" d="M101.765,-120.493C134.359,-110.254 186.375,-93.9137 222.365,-82.6079"/>
<polygon fill="midnightblue" stroke="midnightblue" points="223.57,-85.898 232.061,-79.5618 221.472,-79.2198 223.57,-85.898"/>
</g>
<!-- Node2&#45;&gt;Node2 -->
<g id="edge2" class="edge"><title>Node2&#45;&gt;Node2</title>
<path fill="none" stroke="midnightblue" d="M234.524,-195.757C220.427,-204.565 230.086,-214 263.5,-214 286.472,-214 298.216,-209.541 298.732,-203.891"/>
<polygon fill="midnightblue" stroke="midnightblue" points="301.347,-201.55 292.476,-195.757 295.798,-205.818 301.347,-201.55"/>
</g>
<!-- Node3 -->
<g id="node3" class="node"><title>Node3</title>
<g id="a_node3"><a xlink:href="classscram_1_1mef_1_1Expression.xhtml#a179b21e75df522673e6d51b784d10e86" target="_top" xlink:title="scram::mef::Expression\l::interval">
<polygon fill="white" stroke="black" points="388.5,-171 388.5,-201 517.5,-201 517.5,-171 388.5,-171"/>
<text text-anchor="start" x="396.5" y="-189" font-family="Helvetica,sans-Serif" font-size="10.00">scram::mef::Expression</text>
<text text-anchor="middle" x="453" y="-178" font-family="Helvetica,sans-Serif" font-size="10.00">::interval</text>
</a>
</g>
</g>
<!-- Node2&#45;&gt;Node3 -->
<g id="edge3" class="edge"><title>Node2&#45;&gt;Node3</title>
<path fill="none" stroke="midnightblue" d="M350.02,-186C359.524,-186 369.142,-186 378.48,-186"/>
<polygon fill="midnightblue" stroke="midnightblue" points="378.482,-189.5 388.482,-186 378.482,-182.5 378.482,-189.5"/>
</g>
<!-- Node7 -->
<g id="node7" class="node"><title>Node7</title>
<g id="a_node7"><a xlink:href="classscram_1_1mef_1_1Expression.xhtml#af4c1a5cb29e8f45623a99742b7ba8bc5" target="_top" xlink:title="scram::mef::Expression\l::value">
<polygon fill="white" stroke="black" points="565,-73 565,-103 694,-103 694,-73 565,-73"/>
<text text-anchor="start" x="573" y="-91" font-family="Helvetica,sans-Serif" font-size="10.00">scram::mef::Expression</text>
<text text-anchor="middle" x="629.5" y="-80" font-family="Helvetica,sans-Serif" font-size="10.00">::value</text>
</a>
</g>
</g>
<!-- Node2&#45;&gt;Node7 -->
<g id="edge11" class="edge"><title>Node2&#45;&gt;Node7</title>
<path fill="none" stroke="midnightblue" d="M308.943,-176.43C322.176,-173.498 336.694,-170.199 350,-167 425.883,-148.754 445.052,-144.767 520,-123 530.467,-119.96 552.009,-113.058 573.159,-106.18"/>
<polygon fill="midnightblue" stroke="midnightblue" points="574.385,-109.461 582.808,-103.035 572.216,-102.806 574.385,-109.461"/>
</g>
<!-- Node8 -->
<g id="node8" class="node"><title>Node8</title>
<g id="a_node8"><a xlink:href="expression_8h.xhtml#a5682dd6fbc6d7dd33ebf8b5665006b99" target="_top" xlink:title="Checks if all values in a given interval are non&#45;negative. ">
<polygon fill="white" stroke="black" points="556,-343.5 556,-362.5 703,-362.5 703,-343.5 556,-343.5"/>
<text text-anchor="middle" x="629.5" y="-350.5" font-family="Helvetica,sans-Serif" font-size="10.00">scram::mef::IsNonNegative</text>
</a>
</g>
</g>
<!-- Node2&#45;&gt;Node8 -->
<g id="edge9" class="edge"><title>Node2&#45;&gt;Node8</title>
<path fill="none" stroke="midnightblue" d="M269.053,-195.885C282.398,-223.556 324.398,-301.866 386,-334 434.763,-359.436 496.673,-363.909 545.733,-362.165"/>
<polygon fill="midnightblue" stroke="midnightblue" points="546.164,-365.65 555.997,-361.704 545.85,-358.657 546.164,-365.65"/>
</g>
<!-- Node4 -->
<g id="node4" class="node"><title>Node4</title>
<g id="a_node4"><a xlink:href="classscram_1_1mef_1_1Expression.xhtml#a058aef65da884a47ea3345bc31488b7a" target="_top" xlink:title="Determines if the value of the expression contains deviate expressions. ">
<polygon fill="white" stroke="black" points="565,-220 565,-250 694,-250 694,-220 565,-220"/>
<text text-anchor="start" x="573" y="-238" font-family="Helvetica,sans-Serif" font-size="10.00">scram::mef::Expression</text>
<text text-anchor="middle" x="629.5" y="-227" font-family="Helvetica,sans-Serif" font-size="10.00">::IsDeviate</text>
</a>
</g>
</g>
<!-- Node3&#45;&gt;Node4 -->
<g id="edge4" class="edge"><title>Node3&#45;&gt;Node4</title>
<path fill="none" stroke="midnightblue" d="M507.78,-201.101C525.943,-206.202 546.388,-211.943 565.219,-217.23"/>
<polygon fill="midnightblue" stroke="midnightblue" points="564.324,-220.615 574.898,-219.948 566.217,-213.875 564.324,-220.615"/>
</g>
<!-- Node5 -->
<g id="node5" class="node"><title>Node5</title>
<g id="a_node5"><a xlink:href="classscram_1_1mef_1_1Expression.xhtml#ab6d31c4ddb5d4a827727829cbd4e4449" target="_top" xlink:title="This routine resets the sampling to get new values. ">
<polygon fill="white" stroke="black" points="565,-171 565,-201 694,-201 694,-171 565,-171"/>
<text text-anchor="start" x="573" y="-189" font-family="Helvetica,sans-Serif" font-size="10.00">scram::mef::Expression</text>
<text text-anchor="middle" x="629.5" y="-178" font-family="Helvetica,sans-Serif" font-size="10.00">::Reset</text>
</a>
</g>
</g>
<!-- Node3&#45;&gt;Node5 -->
<g id="edge6" class="edge"><title>Node3&#45;&gt;Node5</title>
<path fill="none" stroke="midnightblue" d="M517.986,-186C529.917,-186 542.474,-186 554.672,-186"/>
<polygon fill="midnightblue" stroke="midnightblue" points="554.813,-189.5 564.813,-186 554.813,-182.5 554.813,-189.5"/>
</g>
<!-- Node6 -->
<g id="node6" class="node"><title>Node6</title>
<g id="a_node6"><a xlink:href="classscram_1_1mef_1_1Expression.xhtml#a5cf00d8b2ff843ad029a501a89ee572a" target="_top" xlink:title="scram::mef::Expression\l::Sample">
<polygon fill="white" stroke="black" points="565,-122 565,-152 694,-152 694,-122 565,-122"/>
<text text-anchor="start" x="573" y="-140" font-family="Helvetica,sans-Serif" font-size="10.00">scram::mef::Expression</text>
<text text-anchor="middle" x="629.5" y="-129" font-family="Helvetica,sans-Serif" font-size="10.00">::Sample</text>
</a>
</g>
</g>
<!-- Node3&#45;&gt;Node6 -->
<g id="edge7" class="edge"><title>Node3&#45;&gt;Node6</title>
<path fill="none" stroke="midnightblue" d="M507.78,-170.899C525.943,-165.798 546.388,-160.057 565.219,-154.77"/>
<polygon fill="midnightblue" stroke="midnightblue" points="566.217,-158.125 574.898,-152.052 564.324,-151.385 566.217,-158.125"/>
</g>
<!-- Node3&#45;&gt;Node7 -->
<g id="edge8" class="edge"><title>Node3&#45;&gt;Node7</title>
<path fill="none" stroke="midnightblue" d="M495.105,-170.849C503.756,-166.715 512.519,-161.757 520,-156 540.025,-140.591 535.18,-126.316 556,-112 558.151,-110.521 560.4,-109.128 562.719,-107.815"/>
<polygon fill="midnightblue" stroke="midnightblue" points="564.608,-110.782 571.952,-103.146 561.449,-104.535 564.608,-110.782"/>
</g>
<!-- Node4&#45;&gt;Node4 -->
<g id="edge5" class="edge"><title>Node4&#45;&gt;Node4</title>
<path fill="none" stroke="midnightblue" d="M598.828,-250.159C591.432,-259.557 601.656,-268.5 629.5,-268.5 646.467,-268.5 656.892,-265.179 660.773,-260.458"/>
<polygon fill="midnightblue" stroke="midnightblue" points="664.249,-259.938 660.172,-250.159 657.261,-260.346 664.249,-259.938"/>
</g>
<!-- Node8&#45;&gt;Node8 -->
<g id="edge10" class="edge"><title>Node8&#45;&gt;Node8</title>
<path fill="none" stroke="midnightblue" d="M602.373,-362.757C589.177,-371.565 598.219,-381 629.5,-381 651.006,-381 662,-376.541 662.483,-370.891"/>
<polygon fill="midnightblue" stroke="midnightblue" points="665.31,-368.827 656.627,-362.757 659.629,-372.917 665.31,-368.827"/>
</g>
<!-- Node9&#45;&gt;Node3 -->
<g id="edge14" class="edge"><title>Node9&#45;&gt;Node3</title>
<path fill="none" stroke="midnightblue" d="M296.732,-139.627C322.827,-147.42 360.306,-158.614 391.904,-168.051"/>
<polygon fill="midnightblue" stroke="midnightblue" points="390.919,-171.41 401.502,-170.918 392.922,-164.702 390.919,-171.41"/>
</g>
<!-- Node9&#45;&gt;Node7 -->
<g id="edge20" class="edge"><title>Node9&#45;&gt;Node7</title>
<path fill="none" stroke="midnightblue" d="M337.286,-121.602C400.372,-114.322 491.238,-103.838 554.638,-96.5226"/>
<polygon fill="midnightblue" stroke="midnightblue" points="555.428,-99.9547 564.961,-95.3314 554.626,-93.0008 555.428,-99.9547"/>
</g>
<!-- Node9&#45;&gt;Node9 -->
<g id="edge13" class="edge"><title>Node9&#45;&gt;Node9</title>
<path fill="none" stroke="midnightblue" d="M234.524,-139.757C220.427,-148.565 230.086,-158 263.5,-158 286.472,-158 298.216,-153.541 298.732,-147.891"/>
<polygon fill="midnightblue" stroke="midnightblue" points="301.347,-145.55 292.476,-139.757 295.798,-149.818 301.347,-145.55"/>
</g>
<!-- Node10 -->
<g id="node10" class="node"><title>Node10</title>
<g id="a_node10"><a xlink:href="expression_8h.xhtml#a4962ab79380de2b807438620d16a098e" target="_top" xlink:title="Checks if all values in a given interval are positive. ">
<polygon fill="white" stroke="black" points="392,-287.5 392,-306.5 514,-306.5 514,-287.5 392,-287.5"/>
<text text-anchor="middle" x="453" y="-294.5" font-family="Helvetica,sans-Serif" font-size="10.00">scram::mef::IsPositive</text>
</a>
</g>
</g>
<!-- Node9&#45;&gt;Node10 -->
<g id="edge15" class="edge"><title>Node9&#45;&gt;Node10</title>
<path fill="none" stroke="midnightblue" d="M296.586,-139.598C313.563,-145.688 334.119,-154.752 350,-167 355.526,-171.262 411.595,-244.17 438.169,-278.893"/>
<polygon fill="midnightblue" stroke="midnightblue" points="435.675,-281.393 444.53,-287.211 441.236,-277.141 435.675,-281.393"/>
</g>
<!-- Node10&#45;&gt;Node8 -->
<g id="edge17" class="edge"><title>Node10&#45;&gt;Node8</title>
<path fill="none" stroke="midnightblue" d="M478.518,-306.611C499.046,-314.484 529.204,-325.648 556,-334 563.599,-336.369 571.706,-338.69 579.644,-340.852"/>
<polygon fill="midnightblue" stroke="midnightblue" points="578.994,-344.301 589.559,-343.496 580.798,-337.537 578.994,-344.301"/>
</g>
<!-- Node10&#45;&gt;Node10 -->
<g id="edge16" class="edge"><title>Node10&#45;&gt;Node10</title>
<path fill="none" stroke="midnightblue" d="M425.873,-306.757C412.677,-315.565 421.719,-325 453,-325 474.506,-325 485.5,-320.541 485.983,-314.891"/>
<polygon fill="midnightblue" stroke="midnightblue" points="488.81,-312.827 480.127,-306.757 483.129,-316.917 488.81,-312.827"/>
</g>
<!-- Node11 -->
<g id="node11" class="node"><title>Node11</title>
<g id="a_node11"><a xlink:href="expression_8h.xhtml#a3876b976ae2dd7f37465f916315829a1" target="_top" xlink:title="Returns true if a given interval contains a given value. ">
<polygon fill="white" stroke="black" points="570,-287.5 570,-306.5 689,-306.5 689,-287.5 570,-287.5"/>
<text text-anchor="middle" x="629.5" y="-294.5" font-family="Helvetica,sans-Serif" font-size="10.00">scram::mef::Contains</text>
</a>
</g>
</g>
<!-- Node10&#45;&gt;Node11 -->
<g id="edge18" class="edge"><title>Node10&#45;&gt;Node11</title>
<path fill="none" stroke="midnightblue" d="M514.053,-297C528.712,-297 544.508,-297 559.546,-297"/>
<polygon fill="midnightblue" stroke="midnightblue" points="559.812,-300.5 569.812,-297 559.812,-293.5 559.812,-300.5"/>
</g>
<!-- Node11&#45;&gt;Node11 -->
<g id="edge19" class="edge"><title>Node11&#45;&gt;Node11</title>
<path fill="none" stroke="midnightblue" d="M602.373,-306.757C589.177,-315.565 598.219,-325 629.5,-325 651.006,-325 662,-320.541 662.483,-314.891"/>
<polygon fill="midnightblue" stroke="midnightblue" points="665.31,-312.827 656.627,-306.757 659.629,-316.917 665.31,-312.827"/>
</g>
<!-- Node12&#45;&gt;Node3 -->
<g id="edge23" class="edge"><title>Node12&#45;&gt;Node3</title>
<path fill="none" stroke="midnightblue" d="M287.24,-79.5115C304.822,-87.1937 329.533,-98.7156 350,-111 376.879,-127.133 405.468,-148.569 425.518,-164.392"/>
<polygon fill="midnightblue" stroke="midnightblue" points="423.557,-167.304 433.559,-170.798 427.918,-161.829 423.557,-167.304"/>
</g>
<!-- Node12&#45;&gt;Node7 -->
<g id="edge26" class="edge"><title>Node12&#45;&gt;Node7</title>
<path fill="none" stroke="midnightblue" d="M343.932,-73.9279C406.617,-77.0278 493.405,-81.3195 554.609,-84.3461"/>
<polygon fill="midnightblue" stroke="midnightblue" points="554.804,-87.8599 564.965,-84.8582 555.15,-80.8684 554.804,-87.8599"/>
</g>
<!-- Node12&#45;&gt;Node12 -->
<g id="edge22" class="edge"><title>Node12&#45;&gt;Node12</title>
<path fill="none" stroke="midnightblue" d="M234.524,-79.7571C220.427,-88.5653 230.086,-98 263.5,-98 286.472,-98 298.216,-93.5406 298.732,-87.8913"/>
<polygon fill="midnightblue" stroke="midnightblue" points="301.347,-85.5501 292.476,-79.7571 295.798,-89.8176 301.347,-85.5501"/>
</g>
<!-- Node13 -->
<g id="node13" class="node"><title>Node13</title>
<g id="a_node13"><a xlink:href="expression_8h.xhtml#a7b3a2de3be05128d51eaa76c01de99f6" target="_top" xlink:title="Checks if a given interval is within the probability domain. ">
<polygon fill="white" stroke="black" points="386,-0.5 386,-19.5 520,-19.5 520,-0.5 386,-0.5"/>
<text text-anchor="middle" x="453" y="-7.5" font-family="Helvetica,sans-Serif" font-size="10.00">scram::mef::IsProbability</text>
</a>
</g>
</g>
<!-- Node12&#45;&gt;Node13 -->
<g id="edge24" class="edge"><title>Node12&#45;&gt;Node13</title>
<path fill="none" stroke="midnightblue" d="M294.21,-60.4928C326.071,-50.2974 376.833,-34.0533 412.146,-22.7531"/>
<polygon fill="midnightblue" stroke="midnightblue" points="413.662,-25.9432 422.119,-19.5618 411.528,-19.2762 413.662,-25.9432"/>
</g>
<!-- Node13&#45;&gt;Node13 -->
<g id="edge25" class="edge"><title>Node13&#45;&gt;Node13</title>
<path fill="none" stroke="midnightblue" d="M425.873,-19.7571C412.677,-28.5653 421.719,-38 453,-38 474.506,-38 485.5,-33.5406 485.983,-27.8913"/>
<polygon fill="midnightblue" stroke="midnightblue" points="488.81,-25.8273 480.127,-19.7571 483.129,-29.9175 488.81,-25.8273"/>
</g>
</g>
</svg>
