<?xml version="1.0" encoding="UTF-8" standalone="no"?>
<!DOCTYPE svg PUBLIC "-//W3C//DTD SVG 1.1//EN"
 "http://www.w3.org/Graphics/SVG/1.1/DTD/svg11.dtd">
<!-- Generated by graphviz version 2.38.0 (20140413.2041)
 -->
<!-- Title: scram::mef::Expression::Sample Pages: 1 -->
<svg width="1120pt" height="619pt"
 viewBox="0.00 0.00 1120.00 618.79" xmlns="http://www.w3.org/2000/svg" xmlns:xlink="http://www.w3.org/1999/xlink">
<g id="graph0" class="graph" transform="scale(1 1) rotate(0) translate(4 614.787)">
<title>scram::mef::Expression::Sample</title>
<polygon fill="white" stroke="none" points="-4,4 -4,-614.787 1116,-614.787 1116,4 -4,4"/>
<!-- Node1 -->
<g id="node1" class="node"><title>Node1</title>
<polygon fill="#bfbfbf" stroke="black" points="0,-333.5 0,-363.5 129,-363.5 129,-333.5 0,-333.5"/>
<text text-anchor="start" x="8" y="-351.5" font-family="Helvetica,sans-Serif" font-size="10.00">scram::mef::Expression</text>
<text text-anchor="middle" x="64.5" y="-340.5" font-family="Helvetica,sans-Serif" font-size="10.00">::Sample</text>
</g>
<!-- Node2 -->
<g id="node2" class="node"><title>Node2</title>
<g id="a_node2"><a xlink:href="classscram_1_1mef_1_1Expression.xhtml#a179b21e75df522673e6d51b784d10e86" target="_top" xlink:title="scram::mef::Expression\l::interval">
<polygon fill="white" stroke="black" points="184.5,-333.5 184.5,-363.5 313.5,-363.5 313.5,-333.5 184.5,-333.5"/>
<text text-anchor="start" x="192.5" y="-351.5" font-family="Helvetica,sans-Serif" font-size="10.00">scram::mef::Expression</text>
<text text-anchor="middle" x="249" y="-340.5" font-family="Helvetica,sans-Serif" font-size="10.00">::interval</text>
</a>
</g>
</g>
<!-- Node1&#45;&gt;Node2 -->
<g id="edge1" class="edge"><title>Node1&#45;&gt;Node2</title>
<path fill="none" stroke="midnightblue" d="M139.287,-348.5C154.219,-348.5 169.798,-348.5 184.346,-348.5"/>
<polygon fill="midnightblue" stroke="midnightblue" points="139.073,-345 129.073,-348.5 139.073,-352 139.073,-345"/>
</g>
<!-- Node9 -->
<g id="node9" class="node"><title>Node9</title>
<g id="a_node9"><a xlink:href="classscram_1_1mef_1_1PeriodicTest.xhtml#a0aa8dc4d62e8fc24194f0183bc533638" target="_top" xlink:title="scram::mef::PeriodicTest\l::interval">
<polygon fill="white" stroke="black" points="768,-416.5 768,-446.5 902,-446.5 902,-416.5 768,-416.5"/>
<text text-anchor="start" x="776" y="-434.5" font-family="Helvetica,sans-Serif" font-size="10.00">scram::mef::PeriodicTest</text>
<text text-anchor="middle" x="835" y="-423.5" font-family="Helvetica,sans-Serif" font-size="10.00">::interval</text>
</a>
</g>
</g>
<!-- Node1&#45;&gt;Node9 -->
<g id="edge40" class="edge"><title>Node1&#45;&gt;Node9</title>
<path fill="none" stroke="midnightblue" d="M83.7837,-371.702C126.75,-424.102 240.291,-550.601 369,-596.5 543.681,-658.793 755.48,-497.713 816.681,-446.522"/>
<polygon fill="midnightblue" stroke="midnightblue" points="86.288,-369.233 77.2735,-363.666 80.849,-373.639 86.288,-369.233"/>
</g>
<!-- Node25 -->
<g id="node25" class="node"><title>Node25</title>
<g id="a_node25"><a xlink:href="classscram_1_1mef_1_1ExpressionFormula.xhtml#a1f7c71744d679ab1a4e5ca3ca98277a6" target="_top" xlink:title="Computes the expression with argument expression default values. ">
<polygon fill="white" stroke="black" points="165,-274 165,-315 333,-315 333,-274 165,-274"/>
<text text-anchor="start" x="173" y="-303" font-family="Helvetica,sans-Serif" font-size="10.00">scram::mef::ExpressionFormula</text>
<text text-anchor="start" x="173" y="-292" font-family="Helvetica,sans-Serif" font-size="10.00">&lt; NaryExpression&lt; T, 1 &gt;</text>
<text text-anchor="middle" x="249" y="-281" font-family="Helvetica,sans-Serif" font-size="10.00"> &gt;::value</text>
</a>
</g>
</g>
<!-- Node1&#45;&gt;Node25 -->
<g id="edge41" class="edge"><title>Node1&#45;&gt;Node25</title>
<path fill="none" stroke="midnightblue" d="M126.06,-330.581C142.919,-325.592 161.361,-320.136 178.681,-315.011"/>
<polygon fill="midnightblue" stroke="midnightblue" points="124.932,-327.264 116.336,-333.458 126.919,-333.977 124.932,-327.264"/>
</g>
<!-- Node3 -->
<g id="node3" class="node"><title>Node3</title>
<g id="a_node3"><a xlink:href="classscram_1_1mef_1_1NaryExpression_3_01T_00-1_01_4.xhtml#aad5811e7fc2298aaf486697e050774fa" target="_top" xlink:title="Computes the expression value with a given argument value extractor. ">
<polygon fill="white" stroke="black" points="579,-378.5 579,-408.5 731,-408.5 731,-378.5 579,-378.5"/>
<text text-anchor="start" x="587" y="-396.5" font-family="Helvetica,sans-Serif" font-size="10.00">scram::mef::NaryExpression</text>
<text text-anchor="middle" x="655" y="-385.5" font-family="Helvetica,sans-Serif" font-size="10.00">&lt; T,&#45;1 &gt;::Compute</text>
</a>
</g>
</g>
<!-- Node2&#45;&gt;Node3 -->
<g id="edge2" class="edge"><title>Node2&#45;&gt;Node3</title>
<path fill="none" stroke="midnightblue" d="M298.483,-366.873C319.791,-374.082 345.31,-381.561 369,-385.5 439.435,-397.211 520.982,-398.264 578.755,-396.952"/>
<polygon fill="midnightblue" stroke="midnightblue" points="299.606,-363.558 289.011,-363.593 297.316,-370.173 299.606,-363.558"/>
</g>
<!-- Node4 -->
<g id="node4" class="node"><title>Node4</title>
<g id="a_node4"><a xlink:href="expression_8cc.xhtml#aac4a2edaf2210ace71f0d39e50a3738b" target="_top" xlink:title="Ensures the number of args for multivariate expressions. ">
<polygon fill="white" stroke="black" points="389,-433.5 389,-463.5 522,-463.5 522,-433.5 389,-433.5"/>
<text text-anchor="start" x="397" y="-451.5" font-family="Helvetica,sans-Serif" font-size="10.00">scram::mef::detail</text>
<text text-anchor="middle" x="455.5" y="-440.5" font-family="Helvetica,sans-Serif" font-size="10.00">::EnsureMultivariateArgs</text>
</a>
</g>
</g>
<!-- Node2&#45;&gt;Node4 -->
<g id="edge3" class="edge"><title>Node2&#45;&gt;Node4</title>
<path fill="none" stroke="midnightblue" d="M281.034,-369.015C304.534,-383.985 337.962,-404.093 369,-418.5 380.843,-423.997 393.994,-429.084 406.36,-433.447"/>
<polygon fill="midnightblue" stroke="midnightblue" points="282.843,-366.018 272.539,-363.552 279.057,-371.905 282.843,-366.018"/>
</g>
<!-- Node5 -->
<g id="node5" class="node"><title>Node5</title>
<g id="a_node5"><a xlink:href="expression_8cc.xhtml#a262d38f7d6438e25ea34765b8d6a03eb" target="_top" xlink:title="Ensures that expression yields non&#45;negative (&gt;= 0) values. ">
<polygon fill="white" stroke="black" points="369,-283 369,-302 542,-302 542,-283 369,-283"/>
<text text-anchor="middle" x="455.5" y="-290" font-family="Helvetica,sans-Serif" font-size="10.00">scram::mef::EnsureNonNegative</text>
</a>
</g>
</g>
<!-- Node2&#45;&gt;Node5 -->
<g id="edge5" class="edge"><title>Node2&#45;&gt;Node5</title>
<path fill="none" stroke="midnightblue" d="M314.889,-330.731C349.673,-321.206 391.145,-309.849 419.804,-302.001"/>
<polygon fill="midnightblue" stroke="midnightblue" points="313.523,-327.476 304.802,-333.493 315.372,-334.228 313.523,-327.476"/>
</g>
<!-- Node12 -->
<g id="node12" class="node"><title>Node12</title>
<g id="a_node12"><a xlink:href="expression_8cc.xhtml#ab3b34a51ff3513ee93b109cd33ccdda6" target="_top" xlink:title="Ensures that expression yields positive (&gt; 0) values. ">
<polygon fill="white" stroke="black" points="382,-339 382,-358 529,-358 529,-339 382,-339"/>
<text text-anchor="middle" x="455.5" y="-346" font-family="Helvetica,sans-Serif" font-size="10.00">scram::mef::EnsurePositive</text>
</a>
</g>
</g>
<!-- Node2&#45;&gt;Node12 -->
<g id="edge14" class="edge"><title>Node2&#45;&gt;Node12</title>
<path fill="none" stroke="midnightblue" d="M323.615,-348.5C342.505,-348.5 362.813,-348.5 381.663,-348.5"/>
<polygon fill="midnightblue" stroke="midnightblue" points="323.584,-345 313.584,-348.5 323.584,-352 323.584,-345"/>
</g>
<!-- Node13 -->
<g id="node13" class="node"><title>Node13</title>
<g id="a_node13"><a xlink:href="expression_8cc.xhtml#a287db91ea8f1c33cca483d75195bc2bc" target="_top" xlink:title="Ensures that expression can be used for probability ([0, 1]). ">
<polygon fill="white" stroke="black" points="375.5,-79 375.5,-98 535.5,-98 535.5,-79 375.5,-79"/>
<text text-anchor="middle" x="455.5" y="-86" font-family="Helvetica,sans-Serif" font-size="10.00">scram::mef::EnsureProbability</text>
</a>
</g>
</g>
<!-- Node2&#45;&gt;Node13 -->
<g id="edge21" class="edge"><title>Node2&#45;&gt;Node13</title>
<path fill="none" stroke="midnightblue" d="M322.559,-333.382C326.39,-330.851 329.921,-327.912 333,-324.5 393.215,-257.773 313.138,-195.912 369,-125.5 379.555,-112.196 395.835,-103.581 411.368,-98.0463"/>
<polygon fill="midnightblue" stroke="midnightblue" points="320.781,-330.366 313.753,-338.294 324.191,-336.479 320.781,-330.366"/>
</g>
<!-- Node20 -->
<g id="node20" class="node"><title>Node20</title>
<g id="a_node20"><a xlink:href="expression_8cc.xhtml#aa5f8250f3fc162fc8c018bd57c877a0e" target="_top" xlink:title="Ensures that expression values are within the interval. ">
<polygon fill="white" stroke="black" points="386,-501 386,-520 525,-520 525,-501 386,-501"/>
<text text-anchor="middle" x="455.5" y="-508" font-family="Helvetica,sans-Serif" font-size="10.00">scram::mef::EnsureWithin</text>
</a>
</g>
</g>
<!-- Node2&#45;&gt;Node20 -->
<g id="edge32" class="edge"><title>Node2&#45;&gt;Node20</title>
<path fill="none" stroke="midnightblue" d="M263.289,-372.433C282.372,-404.48 320.628,-460.74 369,-490.5 376.141,-494.893 384.16,-498.322 392.351,-500.998"/>
<polygon fill="midnightblue" stroke="midnightblue" points="266.261,-370.582 258.207,-363.699 260.211,-374.103 266.261,-370.582"/>
</g>
<!-- Node21 -->
<g id="node21" class="node"><title>Node21</title>
<g id="a_node21"><a xlink:href="classscram_1_1mef_1_1Switch.xhtml#aece696754288dcbdbcda71355da80a19" target="_top" xlink:title="scram::mef::Switch\l::interval">
<polygon fill="white" stroke="black" points="401.5,-233.5 401.5,-263.5 509.5,-263.5 509.5,-233.5 401.5,-233.5"/>
<text text-anchor="start" x="409.5" y="-251.5" font-family="Helvetica,sans-Serif" font-size="10.00">scram::mef::Switch</text>
<text text-anchor="middle" x="455.5" y="-240.5" font-family="Helvetica,sans-Serif" font-size="10.00">::interval</text>
</a>
</g>
</g>
<!-- Node2&#45;&gt;Node21 -->
<g id="edge36" class="edge"><title>Node2&#45;&gt;Node21</title>
<path fill="none" stroke="midnightblue" d="M322.811,-330.724C326.37,-328.852 329.793,-326.784 333,-324.5 355.6,-308.406 346.424,-289.628 369,-273.5 378.564,-266.668 389.985,-261.689 401.317,-258.065"/>
<polygon fill="midnightblue" stroke="midnightblue" points="321.292,-327.571 313.725,-334.986 324.265,-333.908 321.292,-327.571"/>
</g>
<!-- Node22 -->
<g id="node22" class="node"><title>Node22</title>
<g id="a_node22"><a xlink:href="classscram_1_1mef_1_1LognormalDeviate.xhtml#a18f3499d5d98d1af462db56d07069997" target="_top" xlink:title="scram::mef::LognormalDeviate\l::value">
<polygon fill="white" stroke="black" points="373,-184.5 373,-214.5 538,-214.5 538,-184.5 373,-184.5"/>
<text text-anchor="start" x="381" y="-202.5" font-family="Helvetica,sans-Serif" font-size="10.00">scram::mef::LognormalDeviate</text>
<text text-anchor="middle" x="455.5" y="-191.5" font-family="Helvetica,sans-Serif" font-size="10.00">::value</text>
</a>
</g>
</g>
<!-- Node2&#45;&gt;Node22 -->
<g id="edge37" class="edge"><title>Node2&#45;&gt;Node22</title>
<path fill="none" stroke="midnightblue" d="M322.694,-332.311C326.392,-330.038 329.866,-327.449 333,-324.5 367.708,-291.845 334.165,-256.019 369,-223.5 372.719,-220.028 376.9,-217.053 381.362,-214.503"/>
<polygon fill="midnightblue" stroke="midnightblue" points="320.915,-329.293 313.712,-337.063 324.188,-335.48 320.915,-329.293"/>
</g>
<!-- Node23 -->
<g id="node23" class="node"><title>Node23</title>
<g id="a_node23"><a xlink:href="classscram_1_1mef_1_1GammaDeviate.xhtml#aac9dd9e446203c28033a32385a68570c" target="_top" xlink:title="scram::mef::GammaDeviate\l::value">
<polygon fill="white" stroke="black" points="379,-135.5 379,-165.5 532,-165.5 532,-135.5 379,-135.5"/>
<text text-anchor="start" x="387" y="-153.5" font-family="Helvetica,sans-Serif" font-size="10.00">scram::mef::GammaDeviate</text>
<text text-anchor="middle" x="455.5" y="-142.5" font-family="Helvetica,sans-Serif" font-size="10.00">::value</text>
</a>
</g>
</g>
<!-- Node2&#45;&gt;Node23 -->
<g id="edge38" class="edge"><title>Node2&#45;&gt;Node23</title>
<path fill="none" stroke="midnightblue" d="M322.865,-332.836C326.548,-330.434 329.97,-327.673 333,-324.5 380.353,-274.92 321.454,-223.894 369,-174.5 372.315,-171.057 376.08,-168.095 380.139,-165.55"/>
<polygon fill="midnightblue" stroke="midnightblue" points="320.915,-329.915 313.855,-337.814 324.3,-336.042 320.915,-329.915"/>
</g>
<!-- Node24 -->
<g id="node24" class="node"><title>Node24</title>
<g id="a_node24"><a xlink:href="classscram_1_1mef_1_1BetaDeviate.xhtml#a23cf22ef291bb47601ddefd7640fe93a" target="_top" xlink:title="scram::mef::BetaDeviate\l::value">
<polygon fill="white" stroke="black" points="387,-557.5 387,-587.5 524,-587.5 524,-557.5 387,-557.5"/>
<text text-anchor="start" x="395" y="-575.5" font-family="Helvetica,sans-Serif" font-size="10.00">scram::mef::BetaDeviate</text>
<text text-anchor="middle" x="455.5" y="-564.5" font-family="Helvetica,sans-Serif" font-size="10.00">::value</text>
</a>
</g>
</g>
<!-- Node2&#45;&gt;Node24 -->
<g id="edge39" class="edge"><title>Node2&#45;&gt;Node24</title>
<path fill="none" stroke="midnightblue" d="M257.946,-373.055C272.839,-415.166 308.983,-501.097 369,-547.5 374.383,-551.662 380.442,-555.132 386.785,-558.025"/>
<polygon fill="midnightblue" stroke="midnightblue" points="261.25,-371.901 254.694,-363.579 254.629,-374.174 261.25,-371.901"/>
</g>
<!-- Node4&#45;&gt;Node4 -->
<g id="edge4" class="edge"><title>Node4&#45;&gt;Node4</title>
<path fill="none" stroke="midnightblue" d="M420.318,-473.958C424.684,-478.679 436.412,-482 455.5,-482 486.824,-482 498.326,-473.057 490.006,-463.659"/>
<polygon fill="midnightblue" stroke="midnightblue" points="423.831,-473.867 420.994,-463.659 416.846,-473.408 423.831,-473.867"/>
</g>
<!-- Node5&#45;&gt;Node3 -->
<g id="edge7" class="edge"><title>Node5&#45;&gt;Node3</title>
<path fill="none" stroke="midnightblue" d="M496.19,-305.678C511.275,-311.686 528.148,-319.675 542,-329.5 561.241,-343.146 558.161,-355.739 578,-368.5 583.958,-372.332 590.558,-375.63 597.309,-378.453"/>
<polygon fill="midnightblue" stroke="midnightblue" points="497.176,-302.308 486.585,-302.017 494.683,-308.849 497.176,-302.308"/>
</g>
<!-- Node5&#45;&gt;Node5 -->
<g id="edge8" class="edge"><title>Node5&#45;&gt;Node5</title>
<path fill="none" stroke="midnightblue" d="M418.375,-310.004C418.381,-315.836 430.756,-320.5 455.5,-320.5 490.691,-320.5 500.864,-311.065 486.018,-302.257"/>
<polygon fill="midnightblue" stroke="midnightblue" points="421.156,-312.137 424.982,-302.257 415.83,-307.594 421.156,-312.137"/>
</g>
<!-- Node6 -->
<g id="node6" class="node"><title>Node6</title>
<g id="a_node6"><a xlink:href="classscram_1_1mef_1_1Mean.xhtml#ab75b082938d5f6ed2b7bd2d45c3c850b" target="_top" xlink:title="Computes the expression value with a given argument value extractor. ">
<polygon fill="white" stroke="black" points="578,-428 578,-447 732,-447 732,-428 578,-428"/>
<text text-anchor="middle" x="655" y="-435" font-family="Helvetica,sans-Serif" font-size="10.00">scram::mef::Mean::Compute</text>
</a>
</g>
</g>
<!-- Node5&#45;&gt;Node6 -->
<g id="edge6" class="edge"><title>Node5&#45;&gt;Node6</title>
<path fill="none" stroke="midnightblue" d="M504.462,-305.711C517.937,-311.287 531.706,-318.997 542,-329.5 571.579,-359.679 546.228,-389.639 578,-417.5 582.924,-421.818 588.673,-425.22 594.765,-427.897"/>
<polygon fill="midnightblue" stroke="midnightblue" points="505.346,-302.303 494.755,-302.019 502.857,-308.845 505.346,-302.303"/>
</g>
<!-- Node7 -->
<g id="node7" class="node"><title>Node7</title>
<g id="a_node7"><a xlink:href="classscram_1_1mef_1_1PeriodicTest.xhtml#a546bf1c23ba3926f124de31d7b08b4c3" target="_top" xlink:title="Fully parametrized periodic&#45;test description. ">
<polygon fill="white" stroke="black" points="588,-280.5 588,-310.5 722,-310.5 722,-280.5 588,-280.5"/>
<text text-anchor="start" x="596" y="-298.5" font-family="Helvetica,sans-Serif" font-size="10.00">scram::mef::PeriodicTest</text>
<text text-anchor="middle" x="655" y="-287.5" font-family="Helvetica,sans-Serif" font-size="10.00">::PeriodicTest</text>
</a>
</g>
</g>
<!-- Node5&#45;&gt;Node7 -->
<g id="edge9" class="edge"><title>Node5&#45;&gt;Node7</title>
<path fill="none" stroke="midnightblue" d="M552.352,-293.956C564.396,-294.139 576.497,-294.323 587.939,-294.497"/>
<polygon fill="midnightblue" stroke="midnightblue" points="552.317,-290.455 542.265,-293.803 552.21,-297.454 552.317,-290.455"/>
</g>
<!-- Node8 -->
<g id="node8" class="node"><title>Node8</title>
<g id="a_node8"><a xlink:href="classscram_1_1mef_1_1Exponential.xhtml#a93569be7f366dce3dd25dcbb083ca774" target="_top" xlink:title="scram::mef::Exponential\l::Validate">
<polygon fill="white" stroke="black" points="588.5,-231.5 588.5,-261.5 721.5,-261.5 721.5,-231.5 588.5,-231.5"/>
<text text-anchor="start" x="596.5" y="-249.5" font-family="Helvetica,sans-Serif" font-size="10.00">scram::mef::Exponential</text>
<text text-anchor="middle" x="655" y="-238.5" font-family="Helvetica,sans-Serif" font-size="10.00">::Validate</text>
</a>
</g>
</g>
<!-- Node5&#45;&gt;Node8 -->
<g id="edge10" class="edge"><title>Node5&#45;&gt;Node8</title>
<path fill="none" stroke="midnightblue" d="M507.423,-280.64C532.418,-274.818 562.804,-267.741 589.414,-261.543"/>
<polygon fill="midnightblue" stroke="midnightblue" points="506.367,-277.292 497.422,-282.969 507.955,-284.109 506.367,-277.292"/>
</g>
<!-- Node10 -->
<g id="node10" class="node"><title>Node10</title>
<g id="a_node10"><a xlink:href="classscram_1_1mef_1_1Glm.xhtml#a48b4b735418eee27d2c4b81b9e59be85" target="_top" xlink:title="Validates the expression. ">
<polygon fill="white" stroke="black" points="584.5,-193 584.5,-212 725.5,-212 725.5,-193 584.5,-193"/>
<text text-anchor="middle" x="655" y="-200" font-family="Helvetica,sans-Serif" font-size="10.00">scram::mef::Glm::Validate</text>
</a>
</g>
</g>
<!-- Node5&#45;&gt;Node10 -->
<g id="edge12" class="edge"><title>Node5&#45;&gt;Node10</title>
<path fill="none" stroke="midnightblue" d="M530.104,-279.134C534.27,-277.21 538.273,-275.012 542,-272.5 565.009,-256.996 555.11,-237.179 578,-221.5 583.61,-217.657 589.928,-214.591 596.464,-212.144"/>
<polygon fill="midnightblue" stroke="midnightblue" points="528.718,-275.919 520.769,-282.923 531.351,-282.405 528.718,-275.919"/>
</g>
<!-- Node11 -->
<g id="node11" class="node"><title>Node11</title>
<g id="a_node11"><a xlink:href="classscram_1_1mef_1_1Weibull.xhtml#ad36688cf28ab24dd909832cd05aad328" target="_top" xlink:title="Validates the expression. ">
<polygon fill="white" stroke="black" points="600,-329.5 600,-359.5 710,-359.5 710,-329.5 600,-329.5"/>
<text text-anchor="start" x="608" y="-347.5" font-family="Helvetica,sans-Serif" font-size="10.00">scram::mef::Weibull</text>
<text text-anchor="middle" x="655" y="-336.5" font-family="Helvetica,sans-Serif" font-size="10.00">::Validate</text>
</a>
</g>
</g>
<!-- Node5&#45;&gt;Node11 -->
<g id="edge13" class="edge"><title>Node5&#45;&gt;Node11</title>
<path fill="none" stroke="midnightblue" d="M502.612,-304.641C531.651,-312.287 569.27,-322.191 599.742,-330.214"/>
<polygon fill="midnightblue" stroke="midnightblue" points="503.286,-301.199 492.725,-302.038 501.504,-307.968 503.286,-301.199"/>
</g>
<!-- Node8&#45;&gt;Node9 -->
<g id="edge11" class="edge"><title>Node8&#45;&gt;Node9</title>
<path fill="none" stroke="midnightblue" d="M726.287,-266.522C728.263,-267.77 730.174,-269.094 732,-270.5 783.656,-310.259 816.212,-384.167 828.475,-416.122"/>
<polygon fill="midnightblue" stroke="midnightblue" points="727.708,-263.308 717.263,-261.529 724.318,-269.433 727.708,-263.308"/>
</g>
<!-- Node12&#45;&gt;Node3 -->
<g id="edge16" class="edge"><title>Node12&#45;&gt;Node3</title>
<path fill="none" stroke="midnightblue" d="M508.176,-360.274C532.609,-365.841 562.061,-372.552 588.081,-378.48"/>
<polygon fill="midnightblue" stroke="midnightblue" points="508.912,-356.852 498.385,-358.043 507.357,-363.678 508.912,-356.852"/>
</g>
<!-- Node12&#45;&gt;Node6 -->
<g id="edge15" class="edge"><title>Node12&#45;&gt;Node6</title>
<path fill="none" stroke="midnightblue" d="M479.09,-363.707C502.833,-379.11 541.707,-402.713 578,-417.5 588.108,-421.618 599.321,-425.116 609.96,-427.979"/>
<polygon fill="midnightblue" stroke="midnightblue" points="480.755,-360.613 470.476,-358.046 476.911,-366.463 480.755,-360.613"/>
</g>
<!-- Node12&#45;&gt;Node7 -->
<g id="edge18" class="edge"><title>Node12&#45;&gt;Node7</title>
<path fill="none" stroke="midnightblue" d="M512.184,-336.77C522.144,-334.488 532.403,-332.019 542,-329.5 563.62,-323.825 587.339,-316.749 607.362,-310.525"/>
<polygon fill="midnightblue" stroke="midnightblue" points="511.345,-333.371 502.358,-338.983 512.883,-340.2 511.345,-333.371"/>
</g>
<!-- Node12&#45;&gt;Node10 -->
<g id="edge19" class="edge"><title>Node12&#45;&gt;Node10</title>
<path fill="none" stroke="midnightblue" d="M536.639,-333.758C538.51,-332.447 540.303,-331.031 542,-329.5 579.573,-295.614 540.876,-255.878 578,-221.5 582.091,-217.711 586.822,-214.649 591.881,-212.177"/>
<polygon fill="midnightblue" stroke="midnightblue" points="534.83,-330.761 527.986,-338.849 538.379,-336.794 534.83,-330.761"/>
</g>
<!-- Node12&#45;&gt;Node11 -->
<g id="edge20" class="edge"><title>Node12&#45;&gt;Node11</title>
<path fill="none" stroke="midnightblue" d="M539.473,-346.82C559.931,-346.405 581.317,-345.972 599.995,-345.594"/>
<polygon fill="midnightblue" stroke="midnightblue" points="539.127,-343.326 529.2,-347.028 539.269,-350.324 539.127,-343.326"/>
</g>
<!-- Node12&#45;&gt;Node12 -->
<g id="edge17" class="edge"><title>Node12&#45;&gt;Node12</title>
<path fill="none" stroke="midnightblue" d="M418.375,-366.004C418.381,-371.836 430.756,-376.5 455.5,-376.5 490.691,-376.5 500.864,-367.065 486.018,-358.257"/>
<polygon fill="midnightblue" stroke="midnightblue" points="421.156,-368.137 424.982,-358.257 415.83,-363.594 421.156,-368.137"/>
</g>
<!-- Node13&#45;&gt;Node3 -->
<g id="edge22" class="edge"><title>Node13&#45;&gt;Node3</title>
<path fill="none" stroke="midnightblue" d="M509.721,-101.79C521.999,-107.242 533.838,-114.868 542,-125.5 608.484,-212.102 507.662,-284.998 578,-368.5 581.221,-372.324 585.04,-375.568 589.224,-378.317"/>
<polygon fill="midnightblue" stroke="midnightblue" points="510.884,-98.4857 500.299,-98.0308 508.29,-104.987 510.884,-98.4857"/>
</g>
<!-- Node13&#45;&gt;Node7 -->
<g id="edge24" class="edge"><title>Node13&#45;&gt;Node7</title>
<path fill="none" stroke="midnightblue" d="M507.968,-101.88C520.624,-107.36 533.085,-114.978 542,-125.5 584.922,-176.163 532.827,-221.833 578,-270.5 581.591,-274.369 585.79,-277.639 590.338,-280.405"/>
<polygon fill="midnightblue" stroke="midnightblue" points="508.895,-98.4836 498.307,-98.0924 506.34,-105.001 508.895,-98.4836"/>
</g>
<!-- Node13&#45;&gt;Node10 -->
<g id="edge25" class="edge"><title>Node13&#45;&gt;Node10</title>
<path fill="none" stroke="midnightblue" d="M491.571,-101.877C507.326,-108.34 525.944,-116.617 542,-125.5 580.197,-146.633 621.677,-177.434 641.748,-192.894"/>
<polygon fill="midnightblue" stroke="midnightblue" points="492.764,-98.5842 482.18,-98.0982 490.151,-105.078 492.764,-98.5842"/>
</g>
<!-- Node13&#45;&gt;Node13 -->
<g id="edge23" class="edge"><title>Node13&#45;&gt;Node13</title>
<path fill="none" stroke="midnightblue" d="M418.375,-106.004C418.381,-111.836 430.756,-116.5 455.5,-116.5 490.691,-116.5 500.864,-107.065 486.018,-98.2571"/>
<polygon fill="midnightblue" stroke="midnightblue" points="421.156,-108.137 424.982,-98.2571 415.83,-103.594 421.156,-108.137"/>
</g>
<!-- Node14 -->
<g id="node14" class="node"><title>Node14</title>
<g id="a_node14"><a xlink:href="classscram_1_1mef_1_1BasicEvent.xhtml#acfc0e73e1add67aa2ace841350eb62cd" target="_top" xlink:title="Validates the probability expressions for the primary event. ">
<polygon fill="white" stroke="black" points="590,-49.5 590,-79.5 720,-79.5 720,-49.5 590,-49.5"/>
<text text-anchor="start" x="598" y="-67.5" font-family="Helvetica,sans-Serif" font-size="10.00">scram::mef::BasicEvent</text>
<text text-anchor="middle" x="655" y="-56.5" font-family="Helvetica,sans-Serif" font-size="10.00">::Validate</text>
</a>
</g>
</g>
<!-- Node13&#45;&gt;Node14 -->
<g id="edge26" class="edge"><title>Node13&#45;&gt;Node14</title>
<path fill="none" stroke="midnightblue" d="M545.164,-77.7257C560.171,-75.9019 575.493,-74.04 589.723,-72.3108"/>
<polygon fill="midnightblue" stroke="midnightblue" points="544.346,-74.2993 534.841,-78.9801 545.19,-81.2481 544.346,-74.2993"/>
</g>
<!-- Node19 -->
<g id="node19" class="node"><title>Node19</title>
<g id="a_node19"><a xlink:href="classscram_1_1mef_1_1CcfGroup.xhtml#a31cbe59ce89f295de7bb810d8b75990e" target="_top" xlink:title="Validates the setup for the CCF model and group. ">
<polygon fill="white" stroke="black" points="594,-98.5 594,-128.5 716,-128.5 716,-98.5 594,-98.5"/>
<text text-anchor="start" x="602" y="-116.5" font-family="Helvetica,sans-Serif" font-size="10.00">scram::mef::CcfGroup</text>
<text text-anchor="middle" x="655" y="-105.5" font-family="Helvetica,sans-Serif" font-size="10.00">::Validate</text>
</a>
</g>
</g>
<!-- Node13&#45;&gt;Node19 -->
<g id="edge31" class="edge"><title>Node13&#45;&gt;Node19</title>
<path fill="none" stroke="midnightblue" d="M541.916,-99.3121C559.355,-101.52 577.36,-103.799 593.7,-105.867"/>
<polygon fill="midnightblue" stroke="midnightblue" points="542.09,-95.8063 531.73,-98.0227 541.211,-102.751 542.09,-95.8063"/>
</g>
<!-- Node15 -->
<g id="node15" class="node"><title>Node15</title>
<g id="a_node15"><a xlink:href="classscram_1_1mef_1_1CcfGroup.xhtml#a06dd05cabcbeddf42090536f6a47a184" target="_top" xlink:title="scram::mef::CcfGroup\l::members">
<polygon fill="white" stroke="black" points="774,-49.5 774,-79.5 896,-79.5 896,-49.5 774,-49.5"/>
<text text-anchor="start" x="782" y="-67.5" font-family="Helvetica,sans-Serif" font-size="10.00">scram::mef::CcfGroup</text>
<text text-anchor="middle" x="835" y="-56.5" font-family="Helvetica,sans-Serif" font-size="10.00">::members</text>
</a>
</g>
</g>
<!-- Node14&#45;&gt;Node15 -->
<g id="edge27" class="edge"><title>Node14&#45;&gt;Node15</title>
<path fill="none" stroke="midnightblue" d="M730.428,-64.5C744.893,-64.5 759.886,-64.5 773.823,-64.5"/>
<polygon fill="midnightblue" stroke="midnightblue" points="730.011,-61.0001 720.011,-64.5 730.011,-68.0001 730.011,-61.0001"/>
</g>
<!-- Node16 -->
<g id="node16" class="node"><title>Node16</title>
<g id="a_node16"><a xlink:href="classscram_1_1mef_1_1Component.xhtml#a4fd4a9b195b92c8061149da20f5bd3f0" target="_top" xlink:title="Adds MEF constructs into this component container. ">
<polygon fill="white" stroke="black" points="946,-99 946,-118 1104,-118 1104,-99 946,-99"/>
<text text-anchor="middle" x="1025" y="-106" font-family="Helvetica,sans-Serif" font-size="10.00">scram::mef::Component::Add</text>
</a>
</g>
</g>
<!-- Node15&#45;&gt;Node16 -->
<g id="edge28" class="edge"><title>Node15&#45;&gt;Node16</title>
<path fill="none" stroke="midnightblue" d="M905.914,-80.9756C916.658,-83.5003 927.625,-86.073 938,-88.5 952.628,-91.9218 968.659,-95.6546 982.875,-98.959"/>
<polygon fill="midnightblue" stroke="midnightblue" points="906.667,-77.5574 896.132,-78.676 905.065,-84.3717 906.667,-77.5574"/>
</g>
<!-- Node17 -->
<g id="node17" class="node"><title>Node17</title>
<g id="a_node17"><a xlink:href="classscram_1_1mef_1_1CcfGroup.xhtml#ab399c5ed0c1d7d0a316ac3b7244b7eb9" target="_top" xlink:title="Processes the given factors and members to create common cause failure probabilities and new events t...">
<polygon fill="white" stroke="black" points="964,-49.5 964,-79.5 1086,-79.5 1086,-49.5 964,-49.5"/>
<text text-anchor="start" x="972" y="-67.5" font-family="Helvetica,sans-Serif" font-size="10.00">scram::mef::CcfGroup</text>
<text text-anchor="middle" x="1025" y="-56.5" font-family="Helvetica,sans-Serif" font-size="10.00">::ApplyModel</text>
</a>
</g>
</g>
<!-- Node15&#45;&gt;Node17 -->
<g id="edge29" class="edge"><title>Node15&#45;&gt;Node17</title>
<path fill="none" stroke="midnightblue" d="M906.097,-64.5C925.109,-64.5 945.519,-64.5 963.924,-64.5"/>
<polygon fill="midnightblue" stroke="midnightblue" points="906.001,-61.0001 896.001,-64.5 906.001,-68.0001 906.001,-61.0001"/>
</g>
<!-- Node18 -->
<g id="node18" class="node"><title>Node18</title>
<g id="a_node18"><a xlink:href="reporter_8cc.xhtml#a73f9569f4c2e2b6a3eac8d2c01b81943" target="_top" xlink:title="Describes all performed analyses deduced from settings. ">
<polygon fill="white" stroke="black" points="938,-0.5 938,-30.5 1112,-30.5 1112,-0.5 938,-0.5"/>
<text text-anchor="start" x="946" y="-18.5" font-family="Helvetica,sans-Serif" font-size="10.00">scram::ReportCalculatedQuantity</text>
<text text-anchor="middle" x="1025" y="-7.5" font-family="Helvetica,sans-Serif" font-size="10.00">&lt; core::RiskAnalysis &gt;</text>
</a>
</g>
</g>
<!-- Node15&#45;&gt;Node18 -->
<g id="edge30" class="edge"><title>Node15&#45;&gt;Node18</title>
<path fill="none" stroke="midnightblue" d="M903.614,-46.8771C924.182,-41.5163 946.584,-35.6775 966.425,-30.5062"/>
<polygon fill="midnightblue" stroke="midnightblue" points="902.478,-43.5563 893.684,-49.4654 904.243,-50.33 902.478,-43.5563"/>
</g>
<!-- Node20&#45;&gt;Node3 -->
<g id="edge34" class="edge"><title>Node20&#45;&gt;Node3</title>
<path fill="none" stroke="midnightblue" d="M532.635,-496.679C535.932,-494.859 539.076,-492.809 542,-490.5 570.077,-468.326 550.926,-441.888 578,-418.5 582.52,-414.596 587.665,-411.298 593.099,-408.512"/>
<polygon fill="midnightblue" stroke="midnightblue" points="531.126,-493.521 523.601,-500.979 534.135,-499.842 531.126,-493.521"/>
</g>
<!-- Node20&#45;&gt;Node6 -->
<g id="edge33" class="edge"><title>Node20&#45;&gt;Node6</title>
<path fill="none" stroke="midnightblue" d="M515.162,-498.521C524.24,-496.169 533.439,-493.489 542,-490.5 576.729,-478.375 615.035,-458.801 636.643,-447.139"/>
<polygon fill="midnightblue" stroke="midnightblue" points="514.257,-495.14 505.394,-500.945 515.943,-501.934 514.257,-495.14"/>
</g>
<!-- Node20&#45;&gt;Node20 -->
<g id="edge35" class="edge"><title>Node20&#45;&gt;Node20</title>
<path fill="none" stroke="midnightblue" d="M418.375,-528.004C418.381,-533.836 430.756,-538.5 455.5,-538.5 490.691,-538.5 500.864,-529.065 486.018,-520.257"/>
<polygon fill="midnightblue" stroke="midnightblue" points="421.156,-530.137 424.982,-520.257 415.83,-525.594 421.156,-530.137"/>
</g>
</g>
</svg>
