<?xml version="1.0" encoding="UTF-8" standalone="no"?>
<!DOCTYPE svg PUBLIC "-//W3C//DTD SVG 1.1//EN"
 "http://www.w3.org/Graphics/SVG/1.1/DTD/svg11.dtd">
<!-- Generated by graphviz version 2.38.0 (20140413.2041)
 -->
<!-- Title: scram::core::Zbdd::modules Pages: 1 -->
<svg width="676pt" height="132pt"
 viewBox="0.00 0.00 676.00 132.00" xmlns="http://www.w3.org/2000/svg" xmlns:xlink="http://www.w3.org/1999/xlink">
<g id="graph0" class="graph" transform="scale(1 1) rotate(0) translate(4 128)">
<title>scram::core::Zbdd::modules</title>
<polygon fill="white" stroke="none" points="-4,4 -4,-128 672,-128 672,4 -4,4"/>
<!-- Node1 -->
<g id="node1" class="node"><title>Node1</title>
<polygon fill="#bfbfbf" stroke="black" points="0,-44.5 0,-74.5 111,-74.5 111,-44.5 0,-44.5"/>
<text text-anchor="start" x="8" y="-62.5" font-family="Helvetica,sans-Serif" font-size="10.00">scram::core::Zbdd::</text>
<text text-anchor="middle" x="55.5" y="-51.5" font-family="Helvetica,sans-Serif" font-size="10.00">modules</text>
</g>
<!-- Node2 -->
<g id="node2" class="node"><title>Node2</title>
<g id="a_node2"><a xlink:href="classscram_1_1core_1_1Zbdd.xhtml#a8cfceb8301f35bce33c34f1283f33725" target="_top" xlink:title="Applies non&#45;declarative substitutions at the end of analysis. ">
<polygon fill="white" stroke="black" points="147,-93.5 147,-123.5 258,-123.5 258,-93.5 147,-93.5"/>
<text text-anchor="start" x="155" y="-111.5" font-family="Helvetica,sans-Serif" font-size="10.00">scram::core::Zbdd::</text>
<text text-anchor="middle" x="202.5" y="-100.5" font-family="Helvetica,sans-Serif" font-size="10.00">ApplySubstitutions</text>
</a>
</g>
</g>
<!-- Node1&#45;&gt;Node2 -->
<g id="edge1" class="edge"><title>Node1&#45;&gt;Node2</title>
<path fill="none" stroke="midnightblue" d="M110.918,-77.8896C126.016,-82.9916 142.231,-88.4711 156.71,-93.3641"/>
<polygon fill="midnightblue" stroke="midnightblue" points="111.782,-74.4872 101.188,-74.6014 109.541,-81.1187 111.782,-74.4872"/>
</g>
<!-- Node5 -->
<g id="node5" class="node"><title>Node5</title>
<g id="a_node5"><a xlink:href="classscram_1_1core_1_1Zbdd.xhtml#a516f0d2f35ad213399f83fb9ab102561" target="_top" xlink:title="Traverses ZBDD to find modules and adjusted cut&#45;offs. ">
<polygon fill="white" stroke="black" points="147,-44.5 147,-74.5 258,-74.5 258,-44.5 147,-44.5"/>
<text text-anchor="start" x="155" y="-62.5" font-family="Helvetica,sans-Serif" font-size="10.00">scram::core::Zbdd::</text>
<text text-anchor="middle" x="202.5" y="-51.5" font-family="Helvetica,sans-Serif" font-size="10.00">GatherModules</text>
</a>
</g>
</g>
<!-- Node1&#45;&gt;Node5 -->
<g id="edge4" class="edge"><title>Node1&#45;&gt;Node5</title>
<path fill="none" stroke="midnightblue" d="M121.462,-59.5C129.859,-59.5 138.392,-59.5 146.604,-59.5"/>
<polygon fill="midnightblue" stroke="midnightblue" points="121.318,-56.0001 111.318,-59.5 121.318,-63.0001 121.318,-56.0001"/>
</g>
<!-- Node7 -->
<g id="node7" class="node"><title>Node7</title>
<g id="a_node7"><a xlink:href="classscram_1_1core_1_1zbdd_1_1CutSetContainer.xhtml#a478c89f64731781882b50ec55898900b" target="_top" xlink:title="Gathers all module indices in the cut sets. ">
<polygon fill="white" stroke="black" points="294,-0.5 294,-30.5 469,-30.5 469,-0.5 294,-0.5"/>
<text text-anchor="start" x="302" y="-18.5" font-family="Helvetica,sans-Serif" font-size="10.00">scram::core::zbdd::</text>
<text text-anchor="middle" x="381.5" y="-7.5" font-family="Helvetica,sans-Serif" font-size="10.00">CutSetContainer::GatherModules</text>
</a>
</g>
</g>
<!-- Node1&#45;&gt;Node7 -->
<g id="edge7" class="edge"><title>Node1&#45;&gt;Node7</title>
<path fill="none" stroke="midnightblue" d="M114.254,-41.8069C125.055,-38.9952 136.309,-36.3942 147,-34.5 195.158,-25.9675 249.594,-21.2587 293.785,-18.664"/>
<polygon fill="midnightblue" stroke="midnightblue" points="113.238,-38.4556 104.491,-44.4342 115.057,-45.2151 113.238,-38.4556"/>
</g>
<!-- Node3 -->
<g id="node3" class="node"><title>Node3</title>
<g id="a_node3"><a xlink:href="classscram_1_1core_1_1Zbdd.xhtml#aac27b9279de1ee1a63822896daeca0c7" target="_top" xlink:title="Runs the analysis with the representation of a PDAG as ZBDD. ">
<polygon fill="white" stroke="black" points="326,-93.5 326,-123.5 437,-123.5 437,-93.5 326,-93.5"/>
<text text-anchor="start" x="334" y="-111.5" font-family="Helvetica,sans-Serif" font-size="10.00">scram::core::Zbdd::</text>
<text text-anchor="middle" x="381.5" y="-100.5" font-family="Helvetica,sans-Serif" font-size="10.00">Analyze</text>
</a>
</g>
</g>
<!-- Node2&#45;&gt;Node3 -->
<g id="edge2" class="edge"><title>Node2&#45;&gt;Node3</title>
<path fill="none" stroke="midnightblue" d="M268.09,-108.5C287.035,-108.5 307.562,-108.5 325.825,-108.5"/>
<polygon fill="midnightblue" stroke="midnightblue" points="268.05,-105 258.05,-108.5 268.05,-112 268.05,-105"/>
</g>
<!-- Node4 -->
<g id="node4" class="node"><title>Node4</title>
<g id="a_node4"><a xlink:href="classscram_1_1core_1_1FaultTreeAnalyzer.xhtml#aedae0c884539dab245018194771f5021" target="_top" xlink:title="scram::core::FaultTreeAnalyzer\l::algorithm">
<polygon fill="white" stroke="black" points="505,-93.5 505,-123.5 668,-123.5 668,-93.5 505,-93.5"/>
<text text-anchor="start" x="513" y="-111.5" font-family="Helvetica,sans-Serif" font-size="10.00">scram::core::FaultTreeAnalyzer</text>
<text text-anchor="middle" x="586.5" y="-100.5" font-family="Helvetica,sans-Serif" font-size="10.00">::algorithm</text>
</a>
</g>
</g>
<!-- Node3&#45;&gt;Node4 -->
<g id="edge3" class="edge"><title>Node3&#45;&gt;Node4</title>
<path fill="none" stroke="midnightblue" d="M447.393,-108.5C465.649,-108.5 485.729,-108.5 504.788,-108.5"/>
<polygon fill="midnightblue" stroke="midnightblue" points="447.167,-105 437.167,-108.5 447.167,-112 447.167,-105"/>
</g>
<!-- Node6 -->
<g id="node6" class="node"><title>Node6</title>
<g id="a_node6"><a xlink:href="classscram_1_1core_1_1Zbdd.xhtml#af92e04ed908364e0177ce444d7b72712" target="_top" xlink:title="The common constructor to initialize member variables. ">
<polygon fill="white" stroke="black" points="313,-50 313,-69 450,-69 450,-50 313,-50"/>
<text text-anchor="middle" x="381.5" y="-57" font-family="Helvetica,sans-Serif" font-size="10.00">scram::core::Zbdd::Zbdd</text>
</a>
</g>
</g>
<!-- Node5&#45;&gt;Node6 -->
<g id="edge5" class="edge"><title>Node5&#45;&gt;Node6</title>
<path fill="none" stroke="midnightblue" d="M268.376,-59.5C282.811,-59.5 298.15,-59.5 312.698,-59.5"/>
<polygon fill="midnightblue" stroke="midnightblue" points="268.05,-56.0001 258.05,-59.5 268.05,-63.0001 268.05,-56.0001"/>
</g>
<!-- Node5&#45;&gt;Node7 -->
<g id="edge6" class="edge"><title>Node5&#45;&gt;Node7</title>
<path fill="none" stroke="midnightblue" d="M267.89,-43.4936C284.889,-39.2678 303.173,-34.7226 319.961,-30.5493"/>
<polygon fill="midnightblue" stroke="midnightblue" points="266.91,-40.1304 258.05,-45.9395 268.599,-46.9236 266.91,-40.1304"/>
</g>
</g>
</svg>
