<?xml version="1.0" encoding="UTF-8" standalone="no"?>
<!DOCTYPE svg PUBLIC "-//W3C//DTD SVG 1.1//EN"
 "http://www.w3.org/Graphics/SVG/1.1/DTD/svg11.dtd">
<!-- Generated by graphviz version 2.38.0 (20140413.2041)
 -->
<!-- Title: scram::core::ImportanceAnalysis Pages: 1 -->
<svg width="378pt" height="585pt"
 viewBox="0.00 0.00 378.00 585.00" xmlns="http://www.w3.org/2000/svg" xmlns:xlink="http://www.w3.org/1999/xlink">
<g id="graph0" class="graph" transform="scale(1 1) rotate(0) translate(4 581)">
<title>scram::core::ImportanceAnalysis</title>
<polygon fill="white" stroke="none" points="-4,4 -4,-581 374,-581 374,4 -4,4"/>
<!-- Node1 -->
<g id="node1" class="node"><title>Node1</title>
<polygon fill="#bfbfbf" stroke="black" points="98.5,-221.5 98.5,-311.5 271.5,-311.5 271.5,-221.5 98.5,-221.5"/>
<text text-anchor="middle" x="185" y="-299.5" font-family="Helvetica,sans-Serif" font-size="10.00">scram::core::ImportanceAnalysis</text>
<polyline fill="none" stroke="black" points="98.5,-292.5 271.5,-292.5 "/>
<text text-anchor="middle" x="185" y="-280.5" font-family="Helvetica,sans-Serif" font-size="10.00"> </text>
<polyline fill="none" stroke="black" points="98.5,-273.5 271.5,-273.5 "/>
<text text-anchor="start" x="106.5" y="-261.5" font-family="Helvetica,sans-Serif" font-size="10.00">+ ImportanceAnalysis()</text>
<text text-anchor="start" x="106.5" y="-250.5" font-family="Helvetica,sans-Serif" font-size="10.00">+ ~ImportanceAnalysis()</text>
<text text-anchor="start" x="106.5" y="-239.5" font-family="Helvetica,sans-Serif" font-size="10.00">+ Analyze()</text>
<text text-anchor="start" x="106.5" y="-228.5" font-family="Helvetica,sans-Serif" font-size="10.00">+ importance()</text>
</g>
<!-- Node4 -->
<g id="node4" class="node"><title>Node4</title>
<g id="a_node4"><a xlink:href="classscram_1_1core_1_1ImportanceAnalyzerBase.xhtml" target="_top" xlink:title="Base class for analyzers of importance factors with the help from probability analyzers. ">
<polygon fill="white" stroke="black" points="85,-105.5 85,-184.5 285,-184.5 285,-105.5 85,-105.5"/>
<text text-anchor="middle" x="185" y="-172.5" font-family="Helvetica,sans-Serif" font-size="10.00">scram::core::ImportanceAnalyzerBase</text>
<polyline fill="none" stroke="black" points="85,-165.5 285,-165.5 "/>
<text text-anchor="middle" x="185" y="-153.5" font-family="Helvetica,sans-Serif" font-size="10.00"> </text>
<polyline fill="none" stroke="black" points="85,-146.5 285,-146.5 "/>
<text text-anchor="start" x="93" y="-134.5" font-family="Helvetica,sans-Serif" font-size="10.00">+ ImportanceAnalyzerBase()</text>
<text text-anchor="start" x="93" y="-123.5" font-family="Helvetica,sans-Serif" font-size="10.00"># ~ImportanceAnalyzerBase()</text>
<text text-anchor="start" x="93" y="-112.5" font-family="Helvetica,sans-Serif" font-size="10.00"># prob_analyzer()</text>
</a>
</g>
</g>
<!-- Node1&#45;&gt;Node4 -->
<g id="edge3" class="edge"><title>Node1&#45;&gt;Node4</title>
<path fill="none" stroke="midnightblue" d="M185,-211.079C185,-202.234 185,-193.233 185,-184.858"/>
<polygon fill="none" stroke="midnightblue" points="181.5,-211.342 185,-221.342 188.5,-211.342 181.5,-211.342"/>
</g>
<!-- Node2 -->
<g id="node2" class="node"><title>Node2</title>
<g id="a_node2"><a xlink:href="classscram_1_1core_1_1Analysis.xhtml" target="_top" xlink:title="Base abstract class for all analysis with settings. ">
<polygon fill="white" stroke="black" points="125.5,-348.5 125.5,-482.5 244.5,-482.5 244.5,-348.5 125.5,-348.5"/>
<text text-anchor="middle" x="185" y="-470.5" font-family="Helvetica,sans-Serif" font-size="10.00">scram::core::Analysis</text>
<polyline fill="none" stroke="black" points="125.5,-463.5 244.5,-463.5 "/>
<text text-anchor="middle" x="185" y="-451.5" font-family="Helvetica,sans-Serif" font-size="10.00"> </text>
<polyline fill="none" stroke="black" points="125.5,-444.5 244.5,-444.5 "/>
<text text-anchor="start" x="133.5" y="-432.5" font-family="Helvetica,sans-Serif" font-size="10.00">+ Analysis()</text>
<text text-anchor="start" x="133.5" y="-421.5" font-family="Helvetica,sans-Serif" font-size="10.00">+ ~Analysis()</text>
<text text-anchor="start" x="133.5" y="-410.5" font-family="Helvetica,sans-Serif" font-size="10.00">+ settings()</text>
<text text-anchor="start" x="133.5" y="-399.5" font-family="Helvetica,sans-Serif" font-size="10.00">+ warnings()</text>
<text text-anchor="start" x="133.5" y="-388.5" font-family="Helvetica,sans-Serif" font-size="10.00">+ analysis_time()</text>
<text text-anchor="start" x="133.5" y="-377.5" font-family="Helvetica,sans-Serif" font-size="10.00"># settings()</text>
<text text-anchor="start" x="133.5" y="-366.5" font-family="Helvetica,sans-Serif" font-size="10.00"># AddWarning()</text>
<text text-anchor="start" x="133.5" y="-355.5" font-family="Helvetica,sans-Serif" font-size="10.00"># AddAnalysisTime()</text>
</a>
</g>
</g>
<!-- Node2&#45;&gt;Node1 -->
<g id="edge1" class="edge"><title>Node2&#45;&gt;Node1</title>
<path fill="none" stroke="midnightblue" d="M185,-338.15C185,-329.147 185,-320.2 185,-311.853"/>
<polygon fill="none" stroke="midnightblue" points="181.5,-338.31 185,-348.311 188.5,-338.311 181.5,-338.31"/>
</g>
<!-- Node3 -->
<g id="node3" class="node"><title>Node3</title>
<polygon fill="white" stroke="#bfbfbf" points="146.5,-519.5 146.5,-576.5 223.5,-576.5 223.5,-519.5 146.5,-519.5"/>
<text text-anchor="middle" x="185" y="-564.5" font-family="Helvetica,sans-Serif" font-size="10.00">noncopyable</text>
<polyline fill="none" stroke="#bfbfbf" points="146.5,-557.5 223.5,-557.5 "/>
<text text-anchor="middle" x="185" y="-545.5" font-family="Helvetica,sans-Serif" font-size="10.00"> </text>
<polyline fill="none" stroke="#bfbfbf" points="146.5,-538.5 223.5,-538.5 "/>
<text text-anchor="middle" x="185" y="-526.5" font-family="Helvetica,sans-Serif" font-size="10.00"> </text>
</g>
<!-- Node3&#45;&gt;Node2 -->
<g id="edge2" class="edge"><title>Node3&#45;&gt;Node2</title>
<path fill="none" stroke="#8b1a1a" d="M185,-509.16C185,-500.782 185,-491.668 185,-482.533"/>
<polygon fill="none" stroke="#8b1a1a" points="181.5,-509.324 185,-519.324 188.5,-509.324 181.5,-509.324"/>
</g>
<!-- Node5 -->
<g id="node5" class="node"><title>Node5</title>
<g id="a_node5"><a xlink:href="classscram_1_1core_1_1ImportanceAnalyzer.xhtml" target="_top" xlink:title="Analyzer of importance factors with the help from probability analyzers. ">
<polygon fill="white" stroke="black" points="0,-0.5 0,-68.5 176,-68.5 176,-0.5 0,-0.5"/>
<text text-anchor="start" x="8" y="-56.5" font-family="Helvetica,sans-Serif" font-size="10.00">scram::core::ImportanceAnalyzer</text>
<text text-anchor="middle" x="88" y="-45.5" font-family="Helvetica,sans-Serif" font-size="10.00">&lt; Calculator &gt;</text>
<polyline fill="none" stroke="black" points="0,-38.5 176,-38.5 "/>
<text text-anchor="middle" x="88" y="-26.5" font-family="Helvetica,sans-Serif" font-size="10.00"> </text>
<polyline fill="none" stroke="black" points="0,-19.5 176,-19.5 "/>
<text text-anchor="start" x="8" y="-7.5" font-family="Helvetica,sans-Serif" font-size="10.00">+ ImportanceAnalyzer()</text>
</a>
</g>
</g>
<!-- Node4&#45;&gt;Node5 -->
<g id="edge4" class="edge"><title>Node4&#45;&gt;Node5</title>
<path fill="none" stroke="midnightblue" d="M143.853,-97.9746C135.012,-88.0857 125.838,-77.8236 117.542,-68.5439"/>
<polygon fill="none" stroke="midnightblue" points="141.254,-100.319 150.528,-105.441 146.473,-95.6536 141.254,-100.319"/>
</g>
<!-- Node6 -->
<g id="node6" class="node"><title>Node6</title>
<g id="a_node6"><a xlink:href="classscram_1_1core_1_1ImportanceAnalyzer_3_01Bdd_01_4.xhtml" target="_top" xlink:title="Specialization of importance analyzer with Binary Decision Diagrams. ">
<polygon fill="white" stroke="black" points="194,-0.5 194,-68.5 370,-68.5 370,-0.5 194,-0.5"/>
<text text-anchor="start" x="202" y="-56.5" font-family="Helvetica,sans-Serif" font-size="10.00">scram::core::ImportanceAnalyzer</text>
<text text-anchor="middle" x="282" y="-45.5" font-family="Helvetica,sans-Serif" font-size="10.00">&lt; Bdd &gt;</text>
<polyline fill="none" stroke="black" points="194,-38.5 370,-38.5 "/>
<text text-anchor="middle" x="282" y="-26.5" font-family="Helvetica,sans-Serif" font-size="10.00"> </text>
<polyline fill="none" stroke="black" points="194,-19.5 370,-19.5 "/>
<text text-anchor="start" x="202" y="-7.5" font-family="Helvetica,sans-Serif" font-size="10.00">+ ImportanceAnalyzer()</text>
</a>
</g>
</g>
<!-- Node4&#45;&gt;Node6 -->
<g id="edge5" class="edge"><title>Node4&#45;&gt;Node6</title>
<path fill="none" stroke="midnightblue" d="M226.147,-97.9746C234.988,-88.0857 244.162,-77.8236 252.458,-68.5439"/>
<polygon fill="none" stroke="midnightblue" points="223.527,-95.6536 219.472,-105.441 228.746,-100.319 223.527,-95.6536"/>
</g>
</g>
</svg>
