<?xml version="1.0" encoding="UTF-8" standalone="no"?>
<!DOCTYPE svg PUBLIC "-//W3C//DTD SVG 1.1//EN"
 "http://www.w3.org/Graphics/SVG/1.1/DTD/svg11.dtd">
<!-- Generated by graphviz version 2.38.0 (20140413.2041)
 -->
<!-- Title: scram::core::zbdd::CutSetContainer Pages: 1 -->
<svg width="177pt" height="683pt"
 viewBox="0.00 0.00 177.00 683.00" xmlns="http://www.w3.org/2000/svg" xmlns:xlink="http://www.w3.org/1999/xlink">
<g id="graph0" class="graph" transform="scale(1 1) rotate(0) translate(4 679)">
<title>scram::core::zbdd::CutSetContainer</title>
<polygon fill="white" stroke="none" points="-4,4 -4,-679 173,-679 173,4 -4,4"/>
<!-- Node1 -->
<g id="node1" class="node"><title>Node1</title>
<polygon fill="#bfbfbf" stroke="black" points="-1.42109e-14,-0.5 -1.42109e-14,-167.5 169,-167.5 169,-0.5 -1.42109e-14,-0.5"/>
<text text-anchor="start" x="8" y="-155.5" font-family="Helvetica,sans-Serif" font-size="10.00">scram::core::zbdd::</text>
<text text-anchor="middle" x="84.5" y="-144.5" font-family="Helvetica,sans-Serif" font-size="10.00">CutSetContainer</text>
<polyline fill="none" stroke="black" points="-1.42109e-14,-137.5 169,-137.5 "/>
<text text-anchor="middle" x="84.5" y="-125.5" font-family="Helvetica,sans-Serif" font-size="10.00"> </text>
<polyline fill="none" stroke="black" points="-1.42109e-14,-118.5 169,-118.5 "/>
<text text-anchor="start" x="8" y="-106.5" font-family="Helvetica,sans-Serif" font-size="10.00">+ CutSetContainer()</text>
<text text-anchor="start" x="8" y="-95.5" font-family="Helvetica,sans-Serif" font-size="10.00">+ ConvertGate()</text>
<text text-anchor="start" x="8" y="-84.5" font-family="Helvetica,sans-Serif" font-size="10.00">+ GetNextGate()</text>
<text text-anchor="start" x="8" y="-73.5" font-family="Helvetica,sans-Serif" font-size="10.00">+ ExtractIntermediateCutSets()</text>
<text text-anchor="start" x="8" y="-62.5" font-family="Helvetica,sans-Serif" font-size="10.00">+ ExpandGate()</text>
<text text-anchor="start" x="8" y="-51.5" font-family="Helvetica,sans-Serif" font-size="10.00">+ Merge()</text>
<text text-anchor="start" x="8" y="-40.5" font-family="Helvetica,sans-Serif" font-size="10.00">+ EliminateComplements()</text>
<text text-anchor="start" x="8" y="-29.5" font-family="Helvetica,sans-Serif" font-size="10.00">+ EliminateConstantModules()</text>
<text text-anchor="start" x="8" y="-18.5" font-family="Helvetica,sans-Serif" font-size="10.00">+ Minimize()</text>
<text text-anchor="start" x="8" y="-7.5" font-family="Helvetica,sans-Serif" font-size="10.00">+ GatherModules()</text>
</g>
<!-- Node2 -->
<g id="node2" class="node"><title>Node2</title>
<g id="a_node2"><a xlink:href="classscram_1_1core_1_1Zbdd.xhtml" target="_top" xlink:title="Zero&#45;Suppressed Binary Decision Diagrams for set manipulations. ">
<polygon fill="white" stroke="black" points="27,-204.5 27,-580.5 142,-580.5 142,-204.5 27,-204.5"/>
<text text-anchor="middle" x="84.5" y="-568.5" font-family="Helvetica,sans-Serif" font-size="10.00">scram::core::Zbdd</text>
<polyline fill="none" stroke="black" points="27,-561.5 142,-561.5 "/>
<text text-anchor="start" x="35" y="-549.5" font-family="Helvetica,sans-Serif" font-size="10.00"># kBase_</text>
<text text-anchor="start" x="35" y="-538.5" font-family="Helvetica,sans-Serif" font-size="10.00"># kEmpty_</text>
<polyline fill="none" stroke="black" points="27,-531.5 142,-531.5 "/>
<text text-anchor="start" x="35" y="-519.5" font-family="Helvetica,sans-Serif" font-size="10.00">+ Zbdd()</text>
<text text-anchor="start" x="35" y="-508.5" font-family="Helvetica,sans-Serif" font-size="10.00">+ Zbdd()</text>
<text text-anchor="start" x="35" y="-497.5" font-family="Helvetica,sans-Serif" font-size="10.00">+ ~Zbdd()</text>
<text text-anchor="start" x="35" y="-486.5" font-family="Helvetica,sans-Serif" font-size="10.00">+ Analyze()</text>
<text text-anchor="start" x="35" y="-475.5" font-family="Helvetica,sans-Serif" font-size="10.00">+ products()</text>
<text text-anchor="start" x="35" y="-464.5" font-family="Helvetica,sans-Serif" font-size="10.00">+ size()</text>
<text text-anchor="start" x="35" y="-453.5" font-family="Helvetica,sans-Serif" font-size="10.00">+ empty()</text>
<text text-anchor="start" x="35" y="-442.5" font-family="Helvetica,sans-Serif" font-size="10.00">+ base()</text>
<text text-anchor="start" x="35" y="-431.5" font-family="Helvetica,sans-Serif" font-size="10.00">+ begin()</text>
<text text-anchor="start" x="35" y="-420.5" font-family="Helvetica,sans-Serif" font-size="10.00">+ end()</text>
<text text-anchor="start" x="35" y="-409.5" font-family="Helvetica,sans-Serif" font-size="10.00"># Zbdd()</text>
<text text-anchor="start" x="35" y="-398.5" font-family="Helvetica,sans-Serif" font-size="10.00"># root()</text>
<text text-anchor="start" x="35" y="-387.5" font-family="Helvetica,sans-Serif" font-size="10.00"># root()</text>
<text text-anchor="start" x="35" y="-376.5" font-family="Helvetica,sans-Serif" font-size="10.00"># settings()</text>
<text text-anchor="start" x="35" y="-365.5" font-family="Helvetica,sans-Serif" font-size="10.00"># modules()</text>
<text text-anchor="start" x="35" y="-354.5" font-family="Helvetica,sans-Serif" font-size="10.00"># Log()</text>
<text text-anchor="start" x="35" y="-343.5" font-family="Helvetica,sans-Serif" font-size="10.00"># FindOrAddVertex()</text>
<text text-anchor="start" x="35" y="-332.5" font-family="Helvetica,sans-Serif" font-size="10.00"># FindOrAddVertex()</text>
<text text-anchor="start" x="35" y="-321.5" font-family="Helvetica,sans-Serif" font-size="10.00"># Apply()</text>
<text text-anchor="start" x="35" y="-310.5" font-family="Helvetica,sans-Serif" font-size="10.00"># Apply()</text>
<text text-anchor="start" x="35" y="-299.5" font-family="Helvetica,sans-Serif" font-size="10.00">and 13 more...</text>
<text text-anchor="start" x="35" y="-288.5" font-family="Helvetica,sans-Serif" font-size="10.00"># Apply()</text>
<text text-anchor="start" x="35" y="-277.5" font-family="Helvetica,sans-Serif" font-size="10.00"># Apply()</text>
<text text-anchor="start" x="35" y="-266.5" font-family="Helvetica,sans-Serif" font-size="10.00">* Apply()</text>
<text text-anchor="start" x="35" y="-255.5" font-family="Helvetica,sans-Serif" font-size="10.00">* Apply()</text>
<text text-anchor="start" x="35" y="-244.5" font-family="Helvetica,sans-Serif" font-size="10.00">* begin()</text>
<text text-anchor="start" x="35" y="-233.5" font-family="Helvetica,sans-Serif" font-size="10.00">* end()</text>
<text text-anchor="start" x="35" y="-222.5" font-family="Helvetica,sans-Serif" font-size="10.00">* and_table_</text>
<text text-anchor="start" x="35" y="-211.5" font-family="Helvetica,sans-Serif" font-size="10.00">* or_table_</text>
</a>
</g>
</g>
<!-- Node2&#45;&gt;Node1 -->
<g id="edge1" class="edge"><title>Node2&#45;&gt;Node1</title>
<path fill="none" stroke="midnightblue" d="M84.5,-194.324C84.5,-185.135 84.5,-176.177 84.5,-167.596"/>
<polygon fill="none" stroke="midnightblue" points="81.0001,-194.379 84.5,-204.379 88.0001,-194.379 81.0001,-194.379"/>
</g>
<!-- Node3 -->
<g id="node3" class="node"><title>Node3</title>
<polygon fill="white" stroke="#bfbfbf" points="46,-617.5 46,-674.5 123,-674.5 123,-617.5 46,-617.5"/>
<text text-anchor="middle" x="84.5" y="-662.5" font-family="Helvetica,sans-Serif" font-size="10.00">noncopyable</text>
<polyline fill="none" stroke="#bfbfbf" points="46,-655.5 123,-655.5 "/>
<text text-anchor="middle" x="84.5" y="-643.5" font-family="Helvetica,sans-Serif" font-size="10.00"> </text>
<polyline fill="none" stroke="#bfbfbf" points="46,-636.5 123,-636.5 "/>
<text text-anchor="middle" x="84.5" y="-624.5" font-family="Helvetica,sans-Serif" font-size="10.00"> </text>
</g>
<!-- Node3&#45;&gt;Node2 -->
<g id="edge2" class="edge"><title>Node3&#45;&gt;Node2</title>
<path fill="none" stroke="#8b1a1a" d="M84.5,-606.899C84.5,-598.957 84.5,-590.087 84.5,-580.6"/>
<polygon fill="none" stroke="#8b1a1a" points="81.0001,-607.124 84.5,-617.124 88.0001,-607.124 81.0001,-607.124"/>
</g>
</g>
</svg>
