<?xml version="1.0" encoding="UTF-8" standalone="no"?>
<!DOCTYPE svg PUBLIC "-//W3C//DTD SVG 1.1//EN"
 "http://www.w3.org/Graphics/SVG/1.1/DTD/svg11.dtd">
<!-- Generated by graphviz version 2.38.0 (20140413.2041)
 -->
<!-- Title: scram::mef::MissionTime::value Pages: 1 -->
<svg width="316pt" height="88pt"
 viewBox="0.00 0.00 316.00 88.00" xmlns="http://www.w3.org/2000/svg" xmlns:xlink="http://www.w3.org/1999/xlink">
<g id="graph0" class="graph" transform="scale(1 1) rotate(0) translate(4 84)">
<title>scram::mef::MissionTime::value</title>
<polygon fill="white" stroke="none" points="-4,4 -4,-84 312,-84 312,4 -4,4"/>
<!-- Node1 -->
<g id="node1" class="node"><title>Node1</title>
<polygon fill="#bfbfbf" stroke="black" points="0,-24.5 0,-54.5 136,-54.5 136,-24.5 0,-24.5"/>
<text text-anchor="start" x="8" y="-42.5" font-family="Helvetica,sans-Serif" font-size="10.00">scram::mef::MissionTime</text>
<text text-anchor="middle" x="68" y="-31.5" font-family="Helvetica,sans-Serif" font-size="10.00">::value</text>
</g>
<!-- Node2 -->
<g id="node2" class="node"><title>Node2</title>
<g id="a_node2"><a xlink:href="classscram_1_1mef_1_1MissionTime.xhtml#a2822df6248414074cc83189d6527265f" target="_top" xlink:title="scram::mef::MissionTime\l::MissionTime">
<polygon fill="white" stroke="black" points="172,-49.5 172,-79.5 308,-79.5 308,-49.5 172,-49.5"/>
<text text-anchor="start" x="180" y="-67.5" font-family="Helvetica,sans-Serif" font-size="10.00">scram::mef::MissionTime</text>
<text text-anchor="middle" x="240" y="-56.5" font-family="Helvetica,sans-Serif" font-size="10.00">::MissionTime</text>
</a>
</g>
</g>
<!-- Node1&#45;&gt;Node2 -->
<g id="edge1" class="edge"><title>Node1&#45;&gt;Node2</title>
<path fill="none" stroke="midnightblue" d="M146.146,-50.845C154.688,-52.1012 163.337,-53.373 171.743,-54.6092"/>
<polygon fill="midnightblue" stroke="midnightblue" points="146.591,-47.3729 136.189,-49.3807 145.573,-54.2984 146.591,-47.3729"/>
</g>
<!-- Node3 -->
<g id="node3" class="node"><title>Node3</title>
<g id="a_node3"><a xlink:href="classscram_1_1mef_1_1MissionTime.xhtml#a23aa8c2adf6c79eaa5b875a9183f1acb" target="_top" xlink:title="scram::mef::MissionTime\l::unit">
<polygon fill="white" stroke="black" points="172,-0.5 172,-30.5 308,-30.5 308,-0.5 172,-0.5"/>
<text text-anchor="start" x="180" y="-18.5" font-family="Helvetica,sans-Serif" font-size="10.00">scram::mef::MissionTime</text>
<text text-anchor="middle" x="240" y="-7.5" font-family="Helvetica,sans-Serif" font-size="10.00">::unit</text>
</a>
</g>
</g>
<!-- Node1&#45;&gt;Node3 -->
<g id="edge2" class="edge"><title>Node1&#45;&gt;Node3</title>
<path fill="none" stroke="midnightblue" d="M146.146,-28.6088C154.688,-27.4029 163.337,-26.1819 171.743,-24.9951"/>
<polygon fill="midnightblue" stroke="midnightblue" points="145.601,-25.1509 136.189,-30.0146 146.58,-32.0822 145.601,-25.1509"/>
</g>
</g>
</svg>
