<?xml version="1.0" encoding="UTF-8" standalone="no"?>
<!DOCTYPE svg PUBLIC "-//W3C//DTD SVG 1.1//EN"
 "http://www.w3.org/Graphics/SVG/1.1/DTD/svg11.dtd">
<!-- Generated by graphviz version 2.38.0 (20140413.2041)
 -->
<!-- Title: conditional.h Pages: 1 -->
<svg width="180pt" height="84pt"
 viewBox="0.00 0.00 179.50 84.00" xmlns="http://www.w3.org/2000/svg" xmlns:xlink="http://www.w3.org/1999/xlink">
<g id="graph0" class="graph" transform="scale(1 1) rotate(0) translate(4 80)">
<title>conditional.h</title>
<polygon fill="white" stroke="none" points="-4,4 -4,-80 175.5,-80 175.5,4 -4,4"/>
<!-- Node1 -->
<g id="node1" class="node"><title>Node1</title>
<polygon fill="#bfbfbf" stroke="black" points="49.5,-56.5 49.5,-75.5 126.5,-75.5 126.5,-56.5 49.5,-56.5"/>
<text text-anchor="middle" x="88" y="-63.5" font-family="Helvetica,sans-Serif" font-size="10.00">conditional.h</text>
</g>
<!-- Node2 -->
<g id="node2" class="node"><title>Node2</title>
<g id="a_node2"><a xlink:href="conditional_8cc.xhtml" target="_top" xlink:title="Implementation of conditional expressions. ">
<polygon fill="white" stroke="black" points="0,-0.5 0,-19.5 82,-19.5 82,-0.5 0,-0.5"/>
<text text-anchor="middle" x="41" y="-7.5" font-family="Helvetica,sans-Serif" font-size="10.00">conditional.cc</text>
</a>
</g>
</g>
<!-- Node1&#45;&gt;Node2 -->
<g id="edge1" class="edge"><title>Node1&#45;&gt;Node2</title>
<path fill="none" stroke="midnightblue" d="M73.5792,-48.4314C65.3419,-38.9673 55.3461,-27.4827 48.6167,-19.7511"/>
<polygon fill="midnightblue" stroke="midnightblue" points="71.0336,-50.8378 80.2389,-56.083 76.3137,-46.2421 71.0336,-50.8378"/>
</g>
<!-- Node3 -->
<g id="node3" class="node"><title>Node3</title>
<g id="a_node3"><a xlink:href="initializer_8cc.xhtml" target="_top" xlink:title="Implementation of input file processing into analysis constructs. ">
<polygon fill="white" stroke="black" points="100.5,-0.5 100.5,-19.5 171.5,-19.5 171.5,-0.5 100.5,-0.5"/>
<text text-anchor="middle" x="136" y="-7.5" font-family="Helvetica,sans-Serif" font-size="10.00">initializer.cc</text>
</a>
</g>
</g>
<!-- Node1&#45;&gt;Node3 -->
<g id="edge2" class="edge"><title>Node1&#45;&gt;Node3</title>
<path fill="none" stroke="midnightblue" d="M102.728,-48.4314C111.14,-38.9673 121.349,-27.4827 128.221,-19.7511"/>
<polygon fill="midnightblue" stroke="midnightblue" points="99.954,-46.2836 95.9262,-56.083 105.186,-50.9342 99.954,-46.2836"/>
</g>
</g>
</svg>
