<?xml version="1.0" encoding="UTF-8" standalone="no"?>
<!DOCTYPE svg PUBLIC "-//W3C//DTD SVG 1.1//EN"
 "http://www.w3.org/Graphics/SVG/1.1/DTD/svg11.dtd">
<!-- Generated by graphviz version 2.38.0 (20140413.2041)
 -->
<!-- Title: constant.h Pages: 1 -->
<svg width="472pt" height="151pt"
 viewBox="0.00 0.00 472.00 151.00" xmlns="http://www.w3.org/2000/svg" xmlns:xlink="http://www.w3.org/1999/xlink">
<g id="graph0" class="graph" transform="scale(1 1) rotate(0) translate(4 147)">
<title>constant.h</title>
<polygon fill="white" stroke="none" points="-4,4 -4,-147 468,-147 468,4 -4,4"/>
<!-- Node1 -->
<g id="node1" class="node"><title>Node1</title>
<polygon fill="#bfbfbf" stroke="black" points="130,-123.5 130,-142.5 198,-142.5 198,-123.5 130,-123.5"/>
<text text-anchor="middle" x="164" y="-130.5" font-family="Helvetica,sans-Serif" font-size="10.00">constant.h</text>
</g>
<!-- Node2 -->
<g id="node2" class="node"><title>Node2</title>
<g id="a_node2"><a xlink:href="expression_8h.xhtml" target="_top" xlink:title="Provides the base class for all expressions and units for expression values. ">
<polygon fill="white" stroke="black" points="116.5,-67.5 116.5,-86.5 211.5,-86.5 211.5,-67.5 116.5,-67.5"/>
<text text-anchor="middle" x="164" y="-74.5" font-family="Helvetica,sans-Serif" font-size="10.00">src/expression.h</text>
</a>
</g>
</g>
<!-- Node1&#45;&gt;Node2 -->
<g id="edge1" class="edge"><title>Node1&#45;&gt;Node2</title>
<path fill="none" stroke="midnightblue" d="M164,-123.083C164,-116.006 164,-105.861 164,-96.9865"/>
<polygon fill="midnightblue" stroke="midnightblue" points="167.5,-96.751 164,-86.7511 160.5,-96.7511 167.5,-96.751"/>
</g>
<!-- Node3 -->
<g id="node3" class="node"><title>Node3</title>
<polygon fill="white" stroke="#bfbfbf" points="0,-6 0,-25 62,-25 62,-6 0,-6"/>
<text text-anchor="middle" x="31" y="-13" font-family="Helvetica,sans-Serif" font-size="10.00">algorithm</text>
</g>
<!-- Node2&#45;&gt;Node3 -->
<g id="edge2" class="edge"><title>Node2&#45;&gt;Node3</title>
<path fill="none" stroke="midnightblue" d="M144.944,-67.4751C122.525,-57.4455 85.0946,-40.7002 59.2868,-29.1546"/>
<polygon fill="midnightblue" stroke="midnightblue" points="60.5778,-25.8979 50.0203,-25.0091 57.7192,-32.2877 60.5778,-25.8979"/>
</g>
<!-- Node4 -->
<g id="node4" class="node"><title>Node4</title>
<polygon fill="white" stroke="#bfbfbf" points="80,-6 80,-25 122,-25 122,-6 80,-6"/>
<text text-anchor="middle" x="101" y="-13" font-family="Helvetica,sans-Serif" font-size="10.00">utility</text>
</g>
<!-- Node2&#45;&gt;Node4 -->
<g id="edge3" class="edge"><title>Node2&#45;&gt;Node4</title>
<path fill="none" stroke="midnightblue" d="M154.974,-67.4751C145.243,-58.285 129.542,-43.4563 117.577,-32.156"/>
<polygon fill="midnightblue" stroke="midnightblue" points="119.683,-29.3308 110.01,-25.0091 114.877,-34.4199 119.683,-29.3308"/>
</g>
<!-- Node5 -->
<g id="node5" class="node"><title>Node5</title>
<polygon fill="white" stroke="#bfbfbf" points="140.5,-6 140.5,-25 187.5,-25 187.5,-6 140.5,-6"/>
<text text-anchor="middle" x="164" y="-13" font-family="Helvetica,sans-Serif" font-size="10.00">vector</text>
</g>
<!-- Node2&#45;&gt;Node5 -->
<g id="edge4" class="edge"><title>Node2&#45;&gt;Node5</title>
<path fill="none" stroke="midnightblue" d="M164,-67.4751C164,-59.0803 164,-45.9806 164,-35.1631"/>
<polygon fill="midnightblue" stroke="midnightblue" points="167.5,-35.0091 164,-25.0091 160.5,-35.0091 167.5,-35.0091"/>
</g>
<!-- Node6 -->
<g id="node6" class="node"><title>Node6</title>
<polygon fill="white" stroke="#bfbfbf" points="206,-0.5 206,-30.5 318,-30.5 318,-0.5 206,-0.5"/>
<text text-anchor="start" x="214" y="-18.5" font-family="Helvetica,sans-Serif" font-size="10.00">boost/icl/continuous</text>
<text text-anchor="middle" x="262" y="-7.5" font-family="Helvetica,sans-Serif" font-size="10.00">_interval.hpp</text>
</g>
<!-- Node2&#45;&gt;Node6 -->
<g id="edge5" class="edge"><title>Node2&#45;&gt;Node6</title>
<path fill="none" stroke="midnightblue" d="M178.041,-67.4751C191.562,-59.266 212.493,-46.5581 230.073,-35.8845"/>
<polygon fill="midnightblue" stroke="midnightblue" points="232.172,-38.7046 238.903,-30.523 228.539,-32.721 232.172,-38.7046"/>
</g>
<!-- Node7 -->
<g id="node7" class="node"><title>Node7</title>
<polygon fill="white" stroke="#bfbfbf" points="336,-6 336,-25 464,-25 464,-6 336,-6"/>
<text text-anchor="middle" x="400" y="-13" font-family="Helvetica,sans-Serif" font-size="10.00">boost/noncopyable.hpp</text>
</g>
<!-- Node2&#45;&gt;Node7 -->
<g id="edge6" class="edge"><title>Node2&#45;&gt;Node7</title>
<path fill="none" stroke="midnightblue" d="M197.813,-67.4751C239.522,-56.9595 310.512,-39.0615 356.314,-27.5142"/>
<polygon fill="midnightblue" stroke="midnightblue" points="357.409,-30.8476 366.25,-25.0091 355.697,-24.06 357.409,-30.8476"/>
</g>
</g>
</svg>
