<?xml version="1.0" encoding="UTF-8" standalone="no"?>
<!DOCTYPE svg PUBLIC "-//W3C//DTD SVG 1.1//EN"
 "http://www.w3.org/Graphics/SVG/1.1/DTD/svg11.dtd">
<!-- Generated by graphviz version 2.38.0 (20140413.2041)
 -->
<!-- Title: scram::mef::cycle::GetConnector Pages: 1 -->
<!--zoomable 124 -->
<svg id="main" version="1.1" xmlns="http://www.w3.org/2000/svg" xmlns:xlink="http://www.w3.org/1999/xlink" xml:space="preserve" onload="init(evt)">
<style type="text/css"><![CDATA[
.edge:hover path { stroke: red; }
.edge:hover polygon { stroke: red; fill: red; }
]]></style>
<script type="text/javascript"><![CDATA[
var edges = document.getElementsByTagName('g');
if (edges && edges.length) {
  for (var i=0;i<edges.length;i++) {
    if (edges[i].id.substr(0,4)=='edge') {
      edges[i].setAttribute('class','edge');
    }
  }
}
]]></script>
        <defs>
                <circle id="rim" cx="0" cy="0" r="7"/>
                <circle id="rim2" cx="0" cy="0" r="3.5"/>
                <g id="zoomPlus">
                        <use xlink:href="#rim" fill="#404040">
                                <set attributeName="fill" to="#808080" begin="zoomplus.mouseover" end="zoomplus.mouseout"/>
                        </use>
                        <path d="M-4,0h8M0,-4v8" fill="none" stroke="white" stroke-width="1.5" pointer-events="none"/>
                </g>
                <g id="zoomMin">
                        <use xlink:href="#rim" fill="#404040">
                                <set attributeName="fill" to="#808080" begin="zoomminus.mouseover" end="zoomminus.mouseout"/>
                        </use>
                        <path d="M-4,0h8" fill="none" stroke="white" stroke-width="1.5" pointer-events="none"/>
                </g>
                <g id="dirArrow">
                        <path fill="none" stroke="white" stroke-width="1.5" d="M0,-3.0v7 M-2.5,-0.5L0,-3.0L2.5,-0.5"/>
                </g>
               <g id="resetDef">
                       <use xlink:href="#rim2" fill="#404040">
                               <set attributeName="fill" to="#808080" begin="reset.mouseover" end="reset.mouseout"/>
                       </use>
               </g>
        </defs>

<script type="text/javascript">
var viewWidth = 546;
var viewHeight = 124;
var sectionId = 'dynsection-3';
</script>
<script xlink:href="svgpan.js"/>
<svg id="graph" class="graph">
<g id="viewport">
<title>scram::mef::cycle::GetConnector</title>
<polygon fill="white" stroke="none" points="-4,4 -4,-120 542,-120 542,4 -4,4"/>
<!-- Node1 -->
<g id="node1" class="node"><title>Node1</title>
<polygon fill="#bfbfbf" stroke="black" points="0,-33.5 0,-63.5 107,-63.5 107,-33.5 0,-33.5"/>
<text text-anchor="start" x="8" y="-51.5" font-family="Helvetica,sans-Serif" font-size="10.00">scram::mef::cycle::</text>
<text text-anchor="middle" x="53.5" y="-40.5" font-family="Helvetica,sans-Serif" font-size="10.00">GetConnector</text>
</g>
<!-- Node1&#45;&gt;Node1 -->
<g id="edge8" class="edge"><title>Node1&#45;&gt;Node1</title>
<path fill="none" stroke="midnightblue" d="M28.2683,-73.9579C31.3999,-78.679 39.8105,-82 53.5,-82 75.9648,-82 84.2137,-73.0566 78.2464,-63.659"/>
<polygon fill="midnightblue" stroke="midnightblue" points="31.7789,-73.8127 28.7536,-63.659 24.7867,-73.4832 31.7789,-73.8127"/>
</g>
<!-- Node2 -->
<g id="node2" class="node"><title>Node2</title>
<g id="a_node2"><a xlink:href="cycle_8h.xhtml#ac003a658a591ba3581a74b4322df67cb" target="_top" xlink:title="Traverses nodes with connectors to find a cycle. ">
<polygon fill="white" stroke="black" points="143,-33.5 143,-63.5 250,-63.5 250,-33.5 143,-33.5"/>
<text text-anchor="start" x="151" y="-51.5" font-family="Helvetica,sans-Serif" font-size="10.00">scram::mef::cycle::</text>
<text text-anchor="middle" x="196.5" y="-40.5" font-family="Helvetica,sans-Serif" font-size="10.00">DetectCycle</text>
</a>
</g>
</g>
<!-- Node1&#45;&gt;Node2 -->
<g id="edge1" class="edge"><title>Node1&#45;&gt;Node2</title>
<path fill="none" stroke="midnightblue" d="M117.05,-48.5C125.7,-48.5 134.51,-48.5 142.953,-48.5"/>
<polygon fill="midnightblue" stroke="midnightblue" points="117.003,-45.0001 107.003,-48.5 117.003,-52.0001 117.003,-45.0001"/>
</g>
<!-- Node2&#45;&gt;Node2 -->
<g id="edge5" class="edge"><title>Node2&#45;&gt;Node2</title>
<path fill="none" stroke="midnightblue" d="M171.268,-73.9579C174.4,-78.679 182.81,-82 196.5,-82 218.965,-82 227.214,-73.0566 221.246,-63.659"/>
<polygon fill="midnightblue" stroke="midnightblue" points="174.779,-73.8127 171.754,-63.659 167.787,-73.4832 174.779,-73.8127"/>
</g>
<!-- Node3 -->
<g id="node3" class="node"><title>Node3</title>
<g id="a_node3"><a xlink:href="cycle_8cc.xhtml#aadcc06d587ab75cf72d05c8ef7dc8fee" target="_top" xlink:title="Cycle detection specialization for event tree named branches. ">
<polygon fill="white" stroke="black" points="286,-67.5 286,-97.5 395,-97.5 395,-67.5 286,-67.5"/>
<text text-anchor="start" x="294" y="-85.5" font-family="Helvetica,sans-Serif" font-size="10.00">scram::mef::cycle::</text>
<text text-anchor="middle" x="340.5" y="-74.5" font-family="Helvetica,sans-Serif" font-size="10.00">ContinueConnector</text>
</a>
</g>
</g>
<!-- Node2&#45;&gt;Node3 -->
<g id="edge2" class="edge"><title>Node2&#45;&gt;Node3</title>
<path fill="none" stroke="midnightblue" d="M260.221,-63.5178C268.696,-65.547 277.33,-67.6143 285.632,-69.6021"/>
<polygon fill="midnightblue" stroke="midnightblue" points="260.916,-60.0852 250.376,-61.1603 259.286,-66.8928 260.916,-60.0852"/>
</g>
<!-- Node5 -->
<g id="node5" class="node"><title>Node5</title>
<g id="a_node5"><a xlink:href="cycle_8h.xhtml#a8ff9fbf65ad4582369783058a9dec0fc" target="_top" xlink:title="Checks for cycles in a model constructs. ">
<polygon fill="white" stroke="black" points="287,-0.5 287,-30.5 394,-30.5 394,-0.5 287,-0.5"/>
<text text-anchor="start" x="295" y="-18.5" font-family="Helvetica,sans-Serif" font-size="10.00">scram::mef::cycle::</text>
<text text-anchor="middle" x="340.5" y="-7.5" font-family="Helvetica,sans-Serif" font-size="10.00">CheckCycle</text>
</a>
</g>
</g>
<!-- Node2&#45;&gt;Node5 -->
<g id="edge6" class="edge"><title>Node2&#45;&gt;Node5</title>
<path fill="none" stroke="midnightblue" d="M260.21,-33.9265C269.012,-31.8811 277.985,-29.7957 286.58,-27.7982"/>
<polygon fill="midnightblue" stroke="midnightblue" points="259.324,-30.5392 250.376,-36.212 260.908,-37.3575 259.324,-30.5392"/>
</g>
<!-- Node3&#45;&gt;Node3 -->
<g id="edge3" class="edge"><title>Node3&#45;&gt;Node3</title>
<path fill="none" stroke="midnightblue" d="M314.913,-107.958C318.089,-112.679 326.618,-116 340.5,-116 363.281,-116 371.646,-107.057 365.595,-97.659"/>
<polygon fill="midnightblue" stroke="midnightblue" points="318.424,-107.815 315.405,-97.659 311.432,-107.481 318.424,-107.815"/>
</g>
<!-- Node4 -->
<g id="node4" class="node"><title>Node4</title>
<g id="a_node4"><a xlink:href="cycle_8h.xhtml#aeed4b968387a7629985a8d3d9528c4e0" target="_top" xlink:title="Retrieves connectors from a connector. ">
<polygon fill="white" stroke="black" points="431,-67.5 431,-97.5 538,-97.5 538,-67.5 431,-67.5"/>
<text text-anchor="start" x="439" y="-85.5" font-family="Helvetica,sans-Serif" font-size="10.00">scram::mef::cycle::</text>
<text text-anchor="middle" x="484.5" y="-74.5" font-family="Helvetica,sans-Serif" font-size="10.00">GetConnectors</text>
</a>
</g>
</g>
<!-- Node3&#45;&gt;Node4 -->
<g id="edge4" class="edge"><title>Node3&#45;&gt;Node4</title>
<path fill="none" stroke="midnightblue" d="M405.397,-82.5C413.851,-82.5 422.441,-82.5 430.681,-82.5"/>
<polygon fill="midnightblue" stroke="midnightblue" points="405.184,-79.0001 395.184,-82.5 405.184,-86.0001 405.184,-79.0001"/>
</g>
<!-- Node5&#45;&gt;Node5 -->
<g id="edge7" class="edge"><title>Node5&#45;&gt;Node5</title>
<path fill="none" stroke="midnightblue" d="M314.913,-40.9579C318.089,-45.679 326.618,-49 340.5,-49 363.281,-49 371.646,-40.0566 365.595,-30.659"/>
<polygon fill="midnightblue" stroke="midnightblue" points="318.424,-40.8147 315.405,-30.659 311.432,-40.4805 318.424,-40.8147"/>
</g>
</g>
</svg>
        <g id="navigator" transform="translate(0 0)" fill="#404254">
                <rect fill="#f2f5e9" fill-opacity="0.5" stroke="#606060" stroke-width=".5" x="0" y="0" width="60" height="60"/>
                <use id="zoomplus" xlink:href="#zoomPlus" x="17" y="9" onmousedown="handleZoom(evt,'in')"/>
                <use id="zoomminus" xlink:href="#zoomMin" x="42" y="9" onmousedown="handleZoom(evt,'out')"/>
                <use id="reset" xlink:href="#resetDef" x="30" y="36" onmousedown="handleReset()"/>
                <g id="arrowUp" xlink:href="#dirArrow" transform="translate(30 24)" onmousedown="handlePan(0,-1)">
                  <use xlink:href="#rim" fill="#404040">
                        <set attributeName="fill" to="#808080" begin="arrowUp.mouseover" end="arrowUp.mouseout"/>
                  </use>
                  <path fill="none" stroke="white" stroke-width="1.5" d="M0,-3.0v7 M-2.5,-0.5L0,-3.0L2.5,-0.5"/>
                </g>
                <g id="arrowRight" xlink:href="#dirArrow" transform="rotate(90) translate(36 -43)" onmousedown="handlePan(1,0)">
                  <use xlink:href="#rim" fill="#404040">
                        <set attributeName="fill" to="#808080" begin="arrowRight.mouseover" end="arrowRight.mouseout"/>
                  </use>
                  <path fill="none" stroke="white" stroke-width="1.5" d="M0,-3.0v7 M-2.5,-0.5L0,-3.0L2.5,-0.5"/>
                </g>
                <g id="arrowDown" xlink:href="#dirArrow" transform="rotate(180) translate(-30 -48)" onmousedown="handlePan(0,1)">
                  <use xlink:href="#rim" fill="#404040">
                        <set attributeName="fill" to="#808080" begin="arrowDown.mouseover" end="arrowDown.mouseout"/>
                  </use>
                  <path fill="none" stroke="white" stroke-width="1.5" d="M0,-3.0v7 M-2.5,-0.5L0,-3.0L2.5,-0.5"/>
                </g>
                <g id="arrowLeft" xlink:href="#dirArrow" transform="rotate(270) translate(-36 17)" onmousedown="handlePan(-1,0)">
                  <use xlink:href="#rim" fill="#404040">
                        <set attributeName="fill" to="#808080" begin="arrowLeft.mouseover" end="arrowLeft.mouseout"/>
                  </use>
                  <path fill="none" stroke="white" stroke-width="1.5" d="M0,-3.0v7 M-2.5,-0.5L0,-3.0L2.5,-0.5"/>
                </g>
        </g>
        <svg viewBox="0 0 15 15" width="100%" height="30px" preserveAspectRatio="xMaxYMin meet">
         <g id="arrow_out" transform="scale(0.3 0.3)">
          <a xlink:href="cycle_8h_a5e9e5b23ea9b3c45f67cb2c004ece82c_icgraph_org.svg" target="_base">
           <rect id="button" ry="5" rx="5" y="6" x="6" height="38" width="38"
                fill="#f2f5e9" fill-opacity="0.5" stroke="#606060" stroke-width="1.0"/>
           <path id="arrow"
             d="M 11.500037,31.436501 C 11.940474,20.09759 22.043105,11.32322 32.158766,21.979434 L 37.068811,17.246167 C 37.068811,17.246167 37.088388,32 37.088388,32 L 22.160133,31.978069 C 22.160133,31.978069 26.997745,27.140456 26.997745,27.140456 C 18.528582,18.264221 13.291696,25.230495 11.500037,31.436501 z"
             style="fill:#404040;"/>
          </a>
         </g>
        </svg>
</svg>
