<?xml version="1.0" encoding="UTF-8" standalone="no"?>
<!DOCTYPE svg PUBLIC "-//W3C//DTD SVG 1.1//EN"
 "http://www.w3.org/Graphics/SVG/1.1/DTD/svg11.dtd">
<!-- Generated by graphviz version 2.38.0 (20140413.2041)
 -->
<!-- Title: scram::mef::cycle::GetNodes Pages: 1 -->
<svg width="267pt" height="57pt"
 viewBox="0.00 0.00 267.00 57.00" xmlns="http://www.w3.org/2000/svg" xmlns:xlink="http://www.w3.org/1999/xlink">
<g id="graph0" class="graph" transform="scale(1 1) rotate(0) translate(4 53)">
<title>scram::mef::cycle::GetNodes</title>
<polygon fill="white" stroke="none" points="-4,4 -4,-53 263,-53 263,4 -4,4"/>
<!-- Node1 -->
<g id="node1" class="node"><title>Node1</title>
<polygon fill="#bfbfbf" stroke="black" points="0,-0.5 0,-30.5 107,-30.5 107,-0.5 0,-0.5"/>
<text text-anchor="start" x="8" y="-18.5" font-family="Helvetica,sans-Serif" font-size="10.00">scram::mef::cycle::</text>
<text text-anchor="middle" x="53.5" y="-7.5" font-family="Helvetica,sans-Serif" font-size="10.00">GetNodes</text>
</g>
<!-- Node1&#45;&gt;Node1 -->
<g id="edge2" class="edge"><title>Node1&#45;&gt;Node1</title>
<path fill="none" stroke="midnightblue" d="M28.0565,-30.659C21.9212,-40.0566 30.4023,-49 53.5,-49 67.5751,-49 76.2226,-45.679 79.4424,-40.9579"/>
<polygon fill="midnightblue" stroke="midnightblue" points="82.9234,-40.4779 78.9435,-30.659 75.9316,-40.8167 82.9234,-40.4779"/>
</g>
<!-- Node2 -->
<g id="node2" class="node"><title>Node2</title>
<g id="a_node2"><a xlink:href="classscram_1_1mef_1_1Formula.xhtml#ac850fff7d56305c9cf3a29c5381b502a" target="_top" xlink:title="scram::mef::Formula\l::args">
<polygon fill="white" stroke="black" points="143,-0.5 143,-30.5 259,-30.5 259,-0.5 143,-0.5"/>
<text text-anchor="start" x="151" y="-18.5" font-family="Helvetica,sans-Serif" font-size="10.00">scram::mef::Formula</text>
<text text-anchor="middle" x="201" y="-7.5" font-family="Helvetica,sans-Serif" font-size="10.00">::args</text>
</a>
</g>
</g>
<!-- Node1&#45;&gt;Node2 -->
<g id="edge1" class="edge"><title>Node1&#45;&gt;Node2</title>
<path fill="none" stroke="midnightblue" d="M107.029,-15.5C115.337,-15.5 124.027,-15.5 132.616,-15.5"/>
<polygon fill="midnightblue" stroke="midnightblue" points="132.625,-19.0001 142.625,-15.5 132.625,-12.0001 132.625,-19.0001"/>
</g>
</g>
</svg>
