<?xml version="1.0" encoding="UTF-8" standalone="no"?>
<!DOCTYPE svg PUBLIC "-//W3C//DTD SVG 1.1//EN"
 "http://www.w3.org/Graphics/SVG/1.1/DTD/svg11.dtd">
<!-- Generated by graphviz version 2.38.0 (20140413.2041)
 -->
<!-- Title: scram::mef::cycle::GetConnector Pages: 1 -->
<svg width="484pt" height="96pt"
 viewBox="0.00 0.00 484.00 95.50" xmlns="http://www.w3.org/2000/svg" xmlns:xlink="http://www.w3.org/1999/xlink">
<g id="graph0" class="graph" transform="scale(1 1) rotate(0) translate(4 91.5)">
<title>scram::mef::cycle::GetConnector</title>
<polygon fill="white" stroke="none" points="-4,4 -4,-91.5 480,-91.5 480,4 -4,4"/>
<!-- Node1 -->
<g id="node1" class="node"><title>Node1</title>
<polygon fill="#bfbfbf" stroke="black" points="0,-31.5 0,-61.5 107,-61.5 107,-31.5 0,-31.5"/>
<text text-anchor="start" x="8" y="-49.5" font-family="Helvetica,sans-Serif" font-size="10.00">scram::mef::cycle::</text>
<text text-anchor="middle" x="53.5" y="-38.5" font-family="Helvetica,sans-Serif" font-size="10.00">GetConnector</text>
</g>
<!-- Node2 -->
<g id="node2" class="node"><title>Node2</title>
<g id="a_node2"><a xlink:href="classscram_1_1mef_1_1Link.xhtml#a3886fbcbb5f9bc2ce3b45bc64a25559a" target="_top" xlink:title="scram::mef::Link::event_tree">
<polygon fill="white" stroke="black" points="143,-68 143,-87 297,-87 297,-68 143,-68"/>
<text text-anchor="middle" x="220" y="-75" font-family="Helvetica,sans-Serif" font-size="10.00">scram::mef::Link::event_tree</text>
</a>
</g>
</g>
<!-- Node1&#45;&gt;Node2 -->
<g id="edge1" class="edge"><title>Node1&#45;&gt;Node2</title>
<path fill="none" stroke="midnightblue" d="M107.001,-56.3938C123.275,-59.4607 141.345,-62.8659 158.137,-66.0304"/>
<polygon fill="midnightblue" stroke="midnightblue" points="157.924,-69.5518 168.4,-67.9644 159.221,-62.6729 157.924,-69.5518"/>
</g>
<!-- Node3 -->
<g id="node3" class="node"><title>Node3</title>
<g id="a_node3"><a xlink:href="cycle_8h.xhtml#a5e9e5b23ea9b3c45f67cb2c004ece82c" target="_top" xlink:title="Determines the connectors between nodes. ">
<polygon fill="white" stroke="black" points="166.5,-0.5 166.5,-30.5 273.5,-30.5 273.5,-0.5 166.5,-0.5"/>
<text text-anchor="start" x="174.5" y="-18.5" font-family="Helvetica,sans-Serif" font-size="10.00">scram::mef::cycle::</text>
<text text-anchor="middle" x="220" y="-7.5" font-family="Helvetica,sans-Serif" font-size="10.00">GetConnector</text>
</a>
</g>
</g>
<!-- Node1&#45;&gt;Node3 -->
<g id="edge2" class="edge"><title>Node1&#45;&gt;Node3</title>
<path fill="none" stroke="midnightblue" d="M107.001,-36.6062C122.73,-33.642 140.137,-30.3618 156.446,-27.2884"/>
<polygon fill="midnightblue" stroke="midnightblue" points="157.255,-30.6976 166.433,-25.4062 155.958,-23.8187 157.255,-30.6976"/>
</g>
<!-- Node3&#45;&gt;Node3 -->
<g id="edge4" class="edge"><title>Node3&#45;&gt;Node3</title>
<path fill="none" stroke="midnightblue" d="M191.071,-30.659C184.095,-40.0566 193.738,-49 220,-49 236.003,-49 245.835,-45.679 249.496,-40.9579"/>
<polygon fill="midnightblue" stroke="midnightblue" points="252.974,-40.4513 248.929,-30.659 245.984,-40.8364 252.974,-40.4513"/>
</g>
<!-- Node4 -->
<g id="node4" class="node"><title>Node4</title>
<g id="a_node4"><a xlink:href="classscram_1_1mef_1_1Gate.xhtml#abde84a63a060e2424ab92431634f21d9" target="_top" xlink:title="scram::mef::Gate::formula">
<polygon fill="white" stroke="black" points="333,-6 333,-25 476,-25 476,-6 333,-6"/>
<text text-anchor="middle" x="404.5" y="-13" font-family="Helvetica,sans-Serif" font-size="10.00">scram::mef::Gate::formula</text>
</a>
</g>
</g>
<!-- Node3&#45;&gt;Node4 -->
<g id="edge3" class="edge"><title>Node3&#45;&gt;Node4</title>
<path fill="none" stroke="midnightblue" d="M273.787,-15.5C289.043,-15.5 306.055,-15.5 322.606,-15.5"/>
<polygon fill="midnightblue" stroke="midnightblue" points="322.833,-19.0001 332.833,-15.5 322.833,-12.0001 322.833,-19.0001"/>
</g>
</g>
</svg>
