<?xml version="1.0" encoding="UTF-8" standalone="no"?>
<!DOCTYPE svg PUBLIC "-//W3C//DTD SVG 1.1//EN"
 "http://www.w3.org/Graphics/SVG/1.1/DTD/svg11.dtd">
<!-- Generated by graphviz version 2.38.0 (20140413.2041)
 -->
<!-- Title: scram::mef::cycle::DetectCycle Pages: 1 -->
<svg width="403pt" height="124pt"
 viewBox="0.00 0.00 403.00 124.00" xmlns="http://www.w3.org/2000/svg" xmlns:xlink="http://www.w3.org/1999/xlink">
<g id="graph0" class="graph" transform="scale(1 1) rotate(0) translate(4 120)">
<title>scram::mef::cycle::DetectCycle</title>
<polygon fill="white" stroke="none" points="-4,4 -4,-120 399,-120 399,4 -4,4"/>
<!-- Node1 -->
<g id="node1" class="node"><title>Node1</title>
<polygon fill="#bfbfbf" stroke="black" points="0,-33.5 0,-63.5 107,-63.5 107,-33.5 0,-33.5"/>
<text text-anchor="start" x="8" y="-51.5" font-family="Helvetica,sans-Serif" font-size="10.00">scram::mef::cycle::</text>
<text text-anchor="middle" x="53.5" y="-40.5" font-family="Helvetica,sans-Serif" font-size="10.00">DetectCycle</text>
</g>
<!-- Node1&#45;&gt;Node1 -->
<g id="edge6" class="edge"><title>Node1&#45;&gt;Node1</title>
<path fill="none" stroke="midnightblue" d="M27.9129,-73.9579C31.0887,-78.679 39.6177,-82 53.5,-82 76.2812,-82 84.6462,-73.0566 78.595,-63.659"/>
<polygon fill="midnightblue" stroke="midnightblue" points="31.4237,-73.8147 28.405,-63.659 24.4317,-73.4805 31.4237,-73.8147"/>
</g>
<!-- Node2 -->
<g id="node2" class="node"><title>Node2</title>
<g id="a_node2"><a xlink:href="cycle_8h.xhtml#a8ff9fbf65ad4582369783058a9dec0fc" target="_top" xlink:title="Checks for cycles in a model constructs. ">
<polygon fill="white" stroke="black" points="144,-67.5 144,-97.5 251,-97.5 251,-67.5 144,-67.5"/>
<text text-anchor="start" x="152" y="-85.5" font-family="Helvetica,sans-Serif" font-size="10.00">scram::mef::cycle::</text>
<text text-anchor="middle" x="197.5" y="-74.5" font-family="Helvetica,sans-Serif" font-size="10.00">CheckCycle</text>
</a>
</g>
</g>
<!-- Node1&#45;&gt;Node2 -->
<g id="edge1" class="edge"><title>Node1&#45;&gt;Node2</title>
<path fill="none" stroke="midnightblue" d="M117.21,-63.5151C126.012,-65.6225 134.985,-67.7711 143.58,-69.8291"/>
<polygon fill="midnightblue" stroke="midnightblue" points="117.916,-60.0852 107.376,-61.1603 116.286,-66.8928 117.916,-60.0852"/>
</g>
<!-- Node3 -->
<g id="node3" class="node"><title>Node3</title>
<g id="a_node3"><a xlink:href="cycle_8cc.xhtml#aadcc06d587ab75cf72d05c8ef7dc8fee" target="_top" xlink:title="Cycle detection specialization for event tree named branches. ">
<polygon fill="white" stroke="black" points="143,-0.5 143,-30.5 252,-30.5 252,-0.5 143,-0.5"/>
<text text-anchor="start" x="151" y="-18.5" font-family="Helvetica,sans-Serif" font-size="10.00">scram::mef::cycle::</text>
<text text-anchor="middle" x="197.5" y="-7.5" font-family="Helvetica,sans-Serif" font-size="10.00">ContinueConnector</text>
</a>
</g>
</g>
<!-- Node1&#45;&gt;Node3 -->
<g id="edge3" class="edge"><title>Node1&#45;&gt;Node3</title>
<path fill="none" stroke="midnightblue" d="M117.221,-33.9239C125.696,-31.9544 134.33,-29.9478 142.632,-28.0185"/>
<polygon fill="midnightblue" stroke="midnightblue" points="116.324,-30.5392 107.376,-36.212 117.908,-37.3575 116.324,-30.5392"/>
</g>
<!-- Node2&#45;&gt;Node2 -->
<g id="edge2" class="edge"><title>Node2&#45;&gt;Node2</title>
<path fill="none" stroke="midnightblue" d="M171.913,-107.958C175.089,-112.679 183.618,-116 197.5,-116 220.281,-116 228.646,-107.057 222.595,-97.659"/>
<polygon fill="midnightblue" stroke="midnightblue" points="175.424,-107.815 172.405,-97.659 168.432,-107.481 175.424,-107.815"/>
</g>
<!-- Node3&#45;&gt;Node3 -->
<g id="edge4" class="edge"><title>Node3&#45;&gt;Node3</title>
<path fill="none" stroke="midnightblue" d="M171.913,-40.9579C175.089,-45.679 183.618,-49 197.5,-49 220.281,-49 228.646,-40.0566 222.595,-30.659"/>
<polygon fill="midnightblue" stroke="midnightblue" points="175.424,-40.8147 172.405,-30.659 168.432,-40.4805 175.424,-40.8147"/>
</g>
<!-- Node4 -->
<g id="node4" class="node"><title>Node4</title>
<g id="a_node4"><a xlink:href="cycle_8h.xhtml#aeed4b968387a7629985a8d3d9528c4e0" target="_top" xlink:title="Retrieves connectors from a connector. ">
<polygon fill="white" stroke="black" points="288,-0.5 288,-30.5 395,-30.5 395,-0.5 288,-0.5"/>
<text text-anchor="start" x="296" y="-18.5" font-family="Helvetica,sans-Serif" font-size="10.00">scram::mef::cycle::</text>
<text text-anchor="middle" x="341.5" y="-7.5" font-family="Helvetica,sans-Serif" font-size="10.00">GetConnectors</text>
</a>
</g>
</g>
<!-- Node3&#45;&gt;Node4 -->
<g id="edge5" class="edge"><title>Node3&#45;&gt;Node4</title>
<path fill="none" stroke="midnightblue" d="M262.397,-15.5C270.851,-15.5 279.441,-15.5 287.681,-15.5"/>
<polygon fill="midnightblue" stroke="midnightblue" points="262.184,-12.0001 252.184,-15.5 262.184,-19.0001 262.184,-12.0001"/>
</g>
</g>
</svg>
