<?xml version="1.0" encoding="UTF-8" standalone="no"?>
<!DOCTYPE svg PUBLIC "-//W3C//DTD SVG 1.1//EN"
 "http://www.w3.org/Graphics/SVG/1.1/DTD/svg11.dtd">
<!-- Generated by graphviz version 2.38.0 (20140413.2041)
 -->
<!-- Title: scram::mef::cycle::GetConnectors Pages: 1 -->
<svg width="769pt" height="173pt"
 viewBox="0.00 0.00 769.00 173.00" xmlns="http://www.w3.org/2000/svg" xmlns:xlink="http://www.w3.org/1999/xlink">
<g id="graph0" class="graph" transform="scale(1 1) rotate(0) translate(4 169)">
<title>scram::mef::cycle::GetConnectors</title>
<polygon fill="white" stroke="none" points="-4,4 -4,-169 765,-169 765,4 -4,4"/>
<!-- Node1 -->
<g id="node1" class="node"><title>Node1</title>
<polygon fill="#bfbfbf" stroke="black" points="0,-67.5 0,-97.5 107,-97.5 107,-67.5 0,-67.5"/>
<text text-anchor="start" x="8" y="-85.5" font-family="Helvetica,sans-Serif" font-size="10.00">scram::mef::cycle::</text>
<text text-anchor="middle" x="53.5" y="-74.5" font-family="Helvetica,sans-Serif" font-size="10.00">GetConnectors</text>
</g>
<!-- Node2 -->
<g id="node2" class="node"><title>Node2</title>
<g id="a_node2"><a xlink:href="classscram_1_1mef_1_1Expression.xhtml#ac22fdb9ced7ef6942f666337b6a34110" target="_top" xlink:title="scram::mef::Expression\l::args">
<polygon fill="white" stroke="black" points="143,-134.5 143,-164.5 272,-164.5 272,-134.5 143,-134.5"/>
<text text-anchor="start" x="151" y="-152.5" font-family="Helvetica,sans-Serif" font-size="10.00">scram::mef::Expression</text>
<text text-anchor="middle" x="207.5" y="-141.5" font-family="Helvetica,sans-Serif" font-size="10.00">::args</text>
</a>
</g>
</g>
<!-- Node1&#45;&gt;Node2 -->
<g id="edge1" class="edge"><title>Node1&#45;&gt;Node2</title>
<path fill="none" stroke="midnightblue" d="M83.6895,-97.5111C100.794,-106.098 122.919,-116.848 143,-125.5 147.067,-127.252 151.309,-129.007 155.586,-130.727"/>
<polygon fill="midnightblue" stroke="midnightblue" points="154.364,-134.007 164.951,-134.418 156.931,-127.495 154.364,-134.007"/>
</g>
<!-- Node3 -->
<g id="node3" class="node"><title>Node3</title>
<g id="a_node3"><a xlink:href="cycle_8cc.xhtml#aadcc06d587ab75cf72d05c8ef7dc8fee" target="_top" xlink:title="Cycle detection specialization for event tree named branches. ">
<polygon fill="white" stroke="black" points="153,-67.5 153,-97.5 262,-97.5 262,-67.5 153,-67.5"/>
<text text-anchor="start" x="161" y="-85.5" font-family="Helvetica,sans-Serif" font-size="10.00">scram::mef::cycle::</text>
<text text-anchor="middle" x="207.5" y="-74.5" font-family="Helvetica,sans-Serif" font-size="10.00">ContinueConnector</text>
</a>
</g>
</g>
<!-- Node1&#45;&gt;Node3 -->
<g id="edge2" class="edge"><title>Node1&#45;&gt;Node3</title>
<path fill="none" stroke="midnightblue" d="M107.236,-82.5C118.642,-82.5 130.823,-82.5 142.605,-82.5"/>
<polygon fill="midnightblue" stroke="midnightblue" points="142.827,-86.0001 152.827,-82.5 142.827,-79.0001 142.827,-86.0001"/>
</g>
<!-- Node9 -->
<g id="node9" class="node"><title>Node9</title>
<g id="a_node9"><a xlink:href="cycle_8h.xhtml#aef7ec67f39719b384e5a3ca7f879bdba" target="_top" xlink:title="Retrieves connectors from a connector. ">
<polygon fill="white" stroke="black" points="154,-0.5 154,-30.5 261,-30.5 261,-0.5 154,-0.5"/>
<text text-anchor="start" x="162" y="-18.5" font-family="Helvetica,sans-Serif" font-size="10.00">scram::mef::cycle::</text>
<text text-anchor="middle" x="207.5" y="-7.5" font-family="Helvetica,sans-Serif" font-size="10.00">GetConnectors</text>
</a>
</g>
</g>
<!-- Node1&#45;&gt;Node9 -->
<g id="edge11" class="edge"><title>Node1&#45;&gt;Node9</title>
<path fill="none" stroke="midnightblue" d="M88.6118,-67.4639C110.537,-57.7996 139.225,-45.154 162.812,-34.7572"/>
<polygon fill="midnightblue" stroke="midnightblue" points="164.501,-37.8379 172.239,-30.6017 161.677,-31.4325 164.501,-37.8379"/>
</g>
<!-- Node3&#45;&gt;Node3 -->
<g id="edge3" class="edge"><title>Node3&#45;&gt;Node3</title>
<path fill="none" stroke="midnightblue" d="M180.662,-97.659C174.191,-107.057 183.137,-116 207.5,-116 222.346,-116 231.468,-112.679 234.864,-107.958"/>
<polygon fill="midnightblue" stroke="midnightblue" points="238.344,-107.467 234.338,-97.659 231.353,-107.825 238.344,-107.467"/>
</g>
<!-- Node4 -->
<g id="node4" class="node"><title>Node4</title>
<g id="a_node4"><a xlink:href="cycle_8h.xhtml#ac003a658a591ba3581a74b4322df67cb" target="_top" xlink:title="Traverses nodes with connectors to find a cycle. ">
<polygon fill="white" stroke="black" points="320,-111.5 320,-141.5 427,-141.5 427,-111.5 320,-111.5"/>
<text text-anchor="start" x="328" y="-129.5" font-family="Helvetica,sans-Serif" font-size="10.00">scram::mef::cycle::</text>
<text text-anchor="middle" x="373.5" y="-118.5" font-family="Helvetica,sans-Serif" font-size="10.00">DetectCycle</text>
</a>
</g>
</g>
<!-- Node3&#45;&gt;Node4 -->
<g id="edge4" class="edge"><title>Node3&#45;&gt;Node4</title>
<path fill="none" stroke="midnightblue" d="M262.2,-96.9072C277.517,-101.017 294.336,-105.529 310.124,-109.765"/>
<polygon fill="midnightblue" stroke="midnightblue" points="309.233,-113.15 319.798,-112.361 311.047,-106.389 309.233,-113.15"/>
</g>
<!-- Node7 -->
<g id="node7" class="node"><title>Node7</title>
<g id="a_node7"><a xlink:href="classscram_1_1mef_1_1Fork.xhtml#ac82c25bb78d12a3bac21ea26cc5cdc99" target="_top" xlink:title="scram::mef::Fork::paths">
<polygon fill="white" stroke="black" points="308,-73 308,-92 439,-92 439,-73 308,-73"/>
<text text-anchor="middle" x="373.5" y="-80" font-family="Helvetica,sans-Serif" font-size="10.00">scram::mef::Fork::paths</text>
</a>
</g>
</g>
<!-- Node3&#45;&gt;Node7 -->
<g id="edge9" class="edge"><title>Node3&#45;&gt;Node7</title>
<path fill="none" stroke="midnightblue" d="M262.2,-82.5C273.585,-82.5 285.8,-82.5 297.804,-82.5"/>
<polygon fill="midnightblue" stroke="midnightblue" points="297.815,-86.0001 307.815,-82.5 297.815,-79.0001 297.815,-86.0001"/>
</g>
<!-- Node8 -->
<g id="node8" class="node"><title>Node8</title>
<g id="a_node8"><a xlink:href="classscram_1_1mef_1_1Branch.xhtml#a2d5ae6a8ba8ca8f81818d4c12172a5b5" target="_top" xlink:title="Sets the target for the branch. ">
<polygon fill="white" stroke="black" points="318,-23.5 318,-53.5 429,-53.5 429,-23.5 318,-23.5"/>
<text text-anchor="start" x="326" y="-41.5" font-family="Helvetica,sans-Serif" font-size="10.00">scram::mef::Branch</text>
<text text-anchor="middle" x="373.5" y="-30.5" font-family="Helvetica,sans-Serif" font-size="10.00">::target</text>
</a>
</g>
</g>
<!-- Node3&#45;&gt;Node8 -->
<g id="edge10" class="edge"><title>Node3&#45;&gt;Node8</title>
<path fill="none" stroke="midnightblue" d="M262.2,-68.0928C276.836,-64.1659 292.844,-59.8712 308.013,-55.8015"/>
<polygon fill="midnightblue" stroke="midnightblue" points="309.085,-59.1375 317.837,-53.1657 307.272,-52.3766 309.085,-59.1375"/>
</g>
<!-- Node4&#45;&gt;Node4 -->
<g id="edge5" class="edge"><title>Node4&#45;&gt;Node4</title>
<path fill="none" stroke="midnightblue" d="M346.662,-141.659C340.191,-151.057 349.137,-160 373.5,-160 388.346,-160 397.468,-156.679 400.864,-151.958"/>
<polygon fill="midnightblue" stroke="midnightblue" points="404.344,-151.467 400.338,-141.659 397.353,-151.825 404.344,-151.467"/>
</g>
<!-- Node5 -->
<g id="node5" class="node"><title>Node5</title>
<g id="a_node5"><a xlink:href="cycle_8h.xhtml#a5e9e5b23ea9b3c45f67cb2c004ece82c" target="_top" xlink:title="Determines the connectors between nodes. ">
<polygon fill="white" stroke="black" points="475,-111.5 475,-141.5 582,-141.5 582,-111.5 475,-111.5"/>
<text text-anchor="start" x="483" y="-129.5" font-family="Helvetica,sans-Serif" font-size="10.00">scram::mef::cycle::</text>
<text text-anchor="middle" x="528.5" y="-118.5" font-family="Helvetica,sans-Serif" font-size="10.00">GetConnector</text>
</a>
</g>
</g>
<!-- Node4&#45;&gt;Node5 -->
<g id="edge6" class="edge"><title>Node4&#45;&gt;Node5</title>
<path fill="none" stroke="midnightblue" d="M427.154,-126.5C439.175,-126.5 452.068,-126.5 464.473,-126.5"/>
<polygon fill="midnightblue" stroke="midnightblue" points="464.749,-130 474.749,-126.5 464.749,-123 464.749,-130"/>
</g>
<!-- Node5&#45;&gt;Node5 -->
<g id="edge8" class="edge"><title>Node5&#45;&gt;Node5</title>
<path fill="none" stroke="midnightblue" d="M501.662,-141.659C495.191,-151.057 504.137,-160 528.5,-160 543.346,-160 552.468,-156.679 555.864,-151.958"/>
<polygon fill="midnightblue" stroke="midnightblue" points="559.344,-151.467 555.338,-141.659 552.353,-151.825 559.344,-151.467"/>
</g>
<!-- Node6 -->
<g id="node6" class="node"><title>Node6</title>
<g id="a_node6"><a xlink:href="classscram_1_1mef_1_1Gate.xhtml#abde84a63a060e2424ab92431634f21d9" target="_top" xlink:title="scram::mef::Gate::formula">
<polygon fill="white" stroke="black" points="618,-117 618,-136 761,-136 761,-117 618,-117"/>
<text text-anchor="middle" x="689.5" y="-124" font-family="Helvetica,sans-Serif" font-size="10.00">scram::mef::Gate::formula</text>
</a>
</g>
</g>
<!-- Node5&#45;&gt;Node6 -->
<g id="edge7" class="edge"><title>Node5&#45;&gt;Node6</title>
<path fill="none" stroke="midnightblue" d="M582.003,-126.5C590.26,-126.5 598.958,-126.5 607.677,-126.5"/>
<polygon fill="midnightblue" stroke="midnightblue" points="607.897,-130 617.897,-126.5 607.897,-123 607.897,-130"/>
</g>
<!-- Node9&#45;&gt;Node9 -->
<g id="edge12" class="edge"><title>Node9&#45;&gt;Node9</title>
<path fill="none" stroke="midnightblue" d="M180.662,-30.659C174.191,-40.0566 183.137,-49 207.5,-49 222.346,-49 231.468,-45.679 234.864,-40.9579"/>
<polygon fill="midnightblue" stroke="midnightblue" points="238.344,-40.4673 234.338,-30.659 231.353,-40.8246 238.344,-40.4673"/>
</g>
</g>
</svg>
