<?xml version="1.0" encoding="UTF-8" standalone="no"?>
<!DOCTYPE svg PUBLIC "-//W3C//DTD SVG 1.1//EN"
 "http://www.w3.org/Graphics/SVG/1.1/DTD/svg11.dtd">
<!-- Generated by graphviz version 2.38.0 (20140413.2041)
 -->
<!-- Title: scram::mef::cycle::PrintCycle Pages: 1 -->
<svg width="258pt" height="57pt"
 viewBox="0.00 0.00 258.00 57.00" xmlns="http://www.w3.org/2000/svg" xmlns:xlink="http://www.w3.org/1999/xlink">
<g id="graph0" class="graph" transform="scale(1 1) rotate(0) translate(4 53)">
<title>scram::mef::cycle::PrintCycle</title>
<polygon fill="white" stroke="none" points="-4,4 -4,-53 254,-53 254,4 -4,4"/>
<!-- Node1 -->
<g id="node1" class="node"><title>Node1</title>
<polygon fill="#bfbfbf" stroke="black" points="0,-0.5 0,-30.5 107,-30.5 107,-0.5 0,-0.5"/>
<text text-anchor="start" x="8" y="-18.5" font-family="Helvetica,sans-Serif" font-size="10.00">scram::mef::cycle::</text>
<text text-anchor="middle" x="53.5" y="-7.5" font-family="Helvetica,sans-Serif" font-size="10.00">PrintCycle</text>
</g>
<!-- Node1&#45;&gt;Node1 -->
<g id="edge3" class="edge"><title>Node1&#45;&gt;Node1</title>
<path fill="none" stroke="midnightblue" d="M28.2683,-40.9579C31.3999,-45.679 39.8105,-49 53.5,-49 75.9648,-49 84.2137,-40.0566 78.2464,-30.659"/>
<polygon fill="midnightblue" stroke="midnightblue" points="31.7789,-40.8127 28.7536,-30.659 24.7867,-40.4832 31.7789,-40.8127"/>
</g>
<!-- Node2 -->
<g id="node2" class="node"><title>Node2</title>
<g id="a_node2"><a xlink:href="cycle_8h.xhtml#a8ff9fbf65ad4582369783058a9dec0fc" target="_top" xlink:title="Checks for cycles in a model constructs. ">
<polygon fill="white" stroke="black" points="143,-0.5 143,-30.5 250,-30.5 250,-0.5 143,-0.5"/>
<text text-anchor="start" x="151" y="-18.5" font-family="Helvetica,sans-Serif" font-size="10.00">scram::mef::cycle::</text>
<text text-anchor="middle" x="196.5" y="-7.5" font-family="Helvetica,sans-Serif" font-size="10.00">CheckCycle</text>
</a>
</g>
</g>
<!-- Node1&#45;&gt;Node2 -->
<g id="edge1" class="edge"><title>Node1&#45;&gt;Node2</title>
<path fill="none" stroke="midnightblue" d="M117.05,-15.5C125.7,-15.5 134.51,-15.5 142.953,-15.5"/>
<polygon fill="midnightblue" stroke="midnightblue" points="117.003,-12.0001 107.003,-15.5 117.003,-19.0001 117.003,-12.0001"/>
</g>
<!-- Node2&#45;&gt;Node2 -->
<g id="edge2" class="edge"><title>Node2&#45;&gt;Node2</title>
<path fill="none" stroke="midnightblue" d="M171.268,-40.9579C174.4,-45.679 182.81,-49 196.5,-49 218.965,-49 227.214,-40.0566 221.246,-30.659"/>
<polygon fill="midnightblue" stroke="midnightblue" points="174.779,-40.8127 171.754,-30.659 167.787,-40.4832 174.779,-40.8127"/>
</g>
</g>
</svg>
