<?xml version="1.0" encoding="UTF-8" standalone="no"?>
<!DOCTYPE svg PUBLIC "-//W3C//DTD SVG 1.1//EN"
 "http://www.w3.org/Graphics/SVG/1.1/DTD/svg11.dtd">
<!-- Generated by graphviz version 2.38.0 (20140413.2041)
 -->
<!-- Title: scram::env::install_dir Pages: 1 -->
<svg width="307pt" height="181pt"
 viewBox="0.00 0.00 307.00 180.50" xmlns="http://www.w3.org/2000/svg" xmlns:xlink="http://www.w3.org/1999/xlink">
<g id="graph0" class="graph" transform="scale(1 1) rotate(0) translate(4 176.5)">
<title>scram::env::install_dir</title>
<polygon fill="white" stroke="none" points="-4,4 -4,-176.5 303,-176.5 303,4 -4,4"/>
<!-- Node1 -->
<g id="node1" class="node"><title>Node1</title>
<polygon fill="#bfbfbf" stroke="black" points="0,-73 0,-92 120,-92 120,-73 0,-73"/>
<text text-anchor="middle" x="60" y="-80" font-family="Helvetica,sans-Serif" font-size="10.00">scram::env::install_dir</text>
</g>
<!-- Node1&#45;&gt;Node1 -->
<g id="edge3" class="edge"><title>Node1&#45;&gt;Node1</title>
<path fill="none" stroke="midnightblue" d="M28.9371,-100.775C29.8228,-106.241 40.1771,-110.5 60,-110.5 89.5039,-110.5 98.0324,-101.065 85.5854,-92.2571"/>
<polygon fill="midnightblue" stroke="midnightblue" points="31.9495,-102.561 34.4146,-92.2571 26.0618,-98.7749 31.9495,-102.561"/>
</g>
<!-- Node2 -->
<g id="node2" class="node"><title>Node2</title>
<g id="a_node2"><a xlink:href="env_8cc.xhtml#a469386a84ecc82bb3172c91abf6a3fbf" target="_top" xlink:title="scram::env::input_schema">
<polygon fill="white" stroke="black" points="156,-135 156,-154 299,-154 299,-135 156,-135"/>
<text text-anchor="middle" x="227.5" y="-142" font-family="Helvetica,sans-Serif" font-size="10.00">scram::env::input_schema</text>
</a>
</g>
</g>
<!-- Node1&#45;&gt;Node2 -->
<g id="edge1" class="edge"><title>Node1&#45;&gt;Node2</title>
<path fill="none" stroke="midnightblue" d="M89.0228,-96.6316C107.684,-105.679 132.925,-117.23 156,-125.5 165.785,-129.007 176.535,-132.217 186.627,-134.96"/>
<polygon fill="midnightblue" stroke="midnightblue" points="90.4296,-93.4233 79.9104,-92.1592 87.3453,-99.7072 90.4296,-93.4233"/>
</g>
<!-- Node3 -->
<g id="node3" class="node"><title>Node3</title>
<g id="a_node3"><a xlink:href="env_8cc.xhtml#a46ced25a36ee5d902c7cc6712c14eb8d" target="_top" xlink:title="scram::env::project\l_schema">
<polygon fill="white" stroke="black" points="173.5,-67.5 173.5,-97.5 281.5,-97.5 281.5,-67.5 173.5,-67.5"/>
<text text-anchor="start" x="181.5" y="-85.5" font-family="Helvetica,sans-Serif" font-size="10.00">scram::env::project</text>
<text text-anchor="middle" x="227.5" y="-74.5" font-family="Helvetica,sans-Serif" font-size="10.00">_schema</text>
</a>
</g>
</g>
<!-- Node1&#45;&gt;Node3 -->
<g id="edge4" class="edge"><title>Node1&#45;&gt;Node3</title>
<path fill="none" stroke="midnightblue" d="M130.591,-82.5C144.914,-82.5 159.778,-82.5 173.405,-82.5"/>
<polygon fill="midnightblue" stroke="midnightblue" points="130.282,-79.0001 120.282,-82.5 130.282,-86.0001 130.282,-79.0001"/>
</g>
<!-- Node4 -->
<g id="node4" class="node"><title>Node4</title>
<g id="a_node4"><a xlink:href="env_8cc.xhtml#a8a9148b4c720bbae356b327d9baf9c7e" target="_top" xlink:title="scram::env::report\l_schema">
<polygon fill="white" stroke="black" points="175.5,-0.5 175.5,-30.5 279.5,-30.5 279.5,-0.5 175.5,-0.5"/>
<text text-anchor="start" x="183.5" y="-18.5" font-family="Helvetica,sans-Serif" font-size="10.00">scram::env::report</text>
<text text-anchor="middle" x="227.5" y="-7.5" font-family="Helvetica,sans-Serif" font-size="10.00">_schema</text>
</a>
</g>
</g>
<!-- Node1&#45;&gt;Node4 -->
<g id="edge6" class="edge"><title>Node1&#45;&gt;Node4</title>
<path fill="none" stroke="midnightblue" d="M94.2898,-69.0231C121.814,-57.8806 160.869,-42.0696 189.394,-30.5218"/>
<polygon fill="midnightblue" stroke="midnightblue" points="92.668,-65.9037 84.7121,-72.9005 95.2948,-72.3922 92.668,-65.9037"/>
</g>
<!-- Node2&#45;&gt;Node2 -->
<g id="edge2" class="edge"><title>Node2&#45;&gt;Node2</title>
<path fill="none" stroke="midnightblue" d="M196.437,-162.775C197.323,-168.241 207.677,-172.5 227.5,-172.5 257.004,-172.5 265.532,-163.065 253.085,-154.257"/>
<polygon fill="midnightblue" stroke="midnightblue" points="199.449,-164.561 201.915,-154.257 193.562,-160.775 199.449,-164.561"/>
</g>
<!-- Node3&#45;&gt;Node3 -->
<g id="edge5" class="edge"><title>Node3&#45;&gt;Node3</title>
<path fill="none" stroke="midnightblue" d="M198.004,-107.958C201.665,-112.679 211.497,-116 227.5,-116 253.762,-116 263.405,-107.057 256.429,-97.659"/>
<polygon fill="midnightblue" stroke="midnightblue" points="201.516,-107.836 198.571,-97.659 194.526,-107.451 201.516,-107.836"/>
</g>
<!-- Node4&#45;&gt;Node4 -->
<g id="edge7" class="edge"><title>Node4&#45;&gt;Node4</title>
<path fill="none" stroke="midnightblue" d="M198.004,-40.9579C201.665,-45.679 211.497,-49 227.5,-49 253.762,-49 263.405,-40.0566 256.429,-30.659"/>
<polygon fill="midnightblue" stroke="midnightblue" points="201.516,-40.8364 198.571,-30.659 194.526,-40.4513 201.516,-40.8364"/>
</g>
</g>
</svg>
