<?xml version="1.0" encoding="UTF-8" standalone="no"?>
<!DOCTYPE svg PUBLIC "-//W3C//DTD SVG 1.1//EN"
 "http://www.w3.org/Graphics/SVG/1.1/DTD/svg11.dtd">
<!-- Generated by graphviz version 2.38.0 (20140413.2041)
 -->
<!-- Title: env.h Pages: 1 -->
<svg width="225pt" height="84pt"
 viewBox="0.00 0.00 225.00 84.00" xmlns="http://www.w3.org/2000/svg" xmlns:xlink="http://www.w3.org/1999/xlink">
<g id="graph0" class="graph" transform="scale(1 1) rotate(0) translate(4 80)">
<title>env.h</title>
<polygon fill="white" stroke="none" points="-4,4 -4,-80 221,-80 221,4 -4,4"/>
<!-- Node1 -->
<g id="node1" class="node"><title>Node1</title>
<polygon fill="#bfbfbf" stroke="black" points="79.5,-56.5 79.5,-75.5 121.5,-75.5 121.5,-56.5 79.5,-56.5"/>
<text text-anchor="middle" x="100.5" y="-63.5" font-family="Helvetica,sans-Serif" font-size="10.00">env.h</text>
</g>
<!-- Node2 -->
<g id="node2" class="node"><title>Node2</title>
<g id="a_node2"><a xlink:href="env_8cc.xhtml" target="_top" xlink:title="The environment variables discovered at run&#45;time. ">
<polygon fill="white" stroke="black" points="0,-0.5 0,-19.5 47,-19.5 47,-0.5 0,-0.5"/>
<text text-anchor="middle" x="23.5" y="-7.5" font-family="Helvetica,sans-Serif" font-size="10.00">env.cc</text>
</a>
</g>
</g>
<!-- Node1&#45;&gt;Node2 -->
<g id="edge1" class="edge"><title>Node1&#45;&gt;Node2</title>
<path fill="none" stroke="midnightblue" d="M79.599,-50.3422C65.5889,-40.5169 47.617,-27.9132 35.8407,-19.6545"/>
<polygon fill="midnightblue" stroke="midnightblue" points="77.9317,-53.4477 88.1286,-56.324 81.9509,-47.7166 77.9317,-53.4477"/>
</g>
<!-- Node3 -->
<g id="node3" class="node"><title>Node3</title>
<g id="a_node3"><a xlink:href="initializer_8cc.xhtml" target="_top" xlink:title="Implementation of input file processing into analysis constructs. ">
<polygon fill="white" stroke="black" points="65,-0.5 65,-19.5 136,-19.5 136,-0.5 65,-0.5"/>
<text text-anchor="middle" x="100.5" y="-7.5" font-family="Helvetica,sans-Serif" font-size="10.00">initializer.cc</text>
</a>
</g>
</g>
<!-- Node1&#45;&gt;Node3 -->
<g id="edge2" class="edge"><title>Node1&#45;&gt;Node3</title>
<path fill="none" stroke="midnightblue" d="M100.5,-45.8045C100.5,-36.9102 100.5,-26.7798 100.5,-19.7511"/>
<polygon fill="midnightblue" stroke="midnightblue" points="97.0001,-46.083 100.5,-56.083 104,-46.083 97.0001,-46.083"/>
</g>
<!-- Node4 -->
<g id="node4" class="node"><title>Node4</title>
<g id="a_node4"><a xlink:href="project_8cc.xhtml" target="_top" xlink:title="Implementation of project configuration facilities. ">
<polygon fill="white" stroke="black" points="154,-0.5 154,-19.5 217,-19.5 217,-0.5 154,-0.5"/>
<text text-anchor="middle" x="185.5" y="-7.5" font-family="Helvetica,sans-Serif" font-size="10.00">project.cc</text>
</a>
</g>
</g>
<!-- Node1&#45;&gt;Node4 -->
<g id="edge3" class="edge"><title>Node1&#45;&gt;Node4</title>
<path fill="none" stroke="midnightblue" d="M122.694,-50.9005C138.28,-40.9986 158.63,-28.0705 171.877,-19.6545"/>
<polygon fill="midnightblue" stroke="midnightblue" points="120.721,-48.0073 114.157,-56.324 124.474,-53.9158 120.721,-48.0073"/>
</g>
</g>
</svg>
