<?xml version="1.0" encoding="UTF-8" standalone="no"?>
<!DOCTYPE svg PUBLIC "-//W3C//DTD SVG 1.1//EN"
 "http://www.w3.org/Graphics/SVG/1.1/DTD/svg11.dtd">
<!-- Generated by graphviz version 2.38.0 (20140413.2041)
 -->
<!-- Title: env.cc Pages: 1 -->
<svg width="207pt" height="151pt"
 viewBox="0.00 0.00 206.50 151.00" xmlns="http://www.w3.org/2000/svg" xmlns:xlink="http://www.w3.org/1999/xlink">
<g id="graph0" class="graph" transform="scale(1 1) rotate(0) translate(4 147)">
<title>env.cc</title>
<polygon fill="white" stroke="none" points="-4,4 -4,-147 202.5,-147 202.5,4 -4,4"/>
<!-- Node1 -->
<g id="node1" class="node"><title>Node1</title>
<polygon fill="#bfbfbf" stroke="black" points="52.5,-123.5 52.5,-142.5 99.5,-142.5 99.5,-123.5 52.5,-123.5"/>
<text text-anchor="middle" x="76" y="-130.5" font-family="Helvetica,sans-Serif" font-size="10.00">env.cc</text>
</g>
<!-- Node2 -->
<g id="node2" class="node"><title>Node2</title>
<g id="a_node2"><a xlink:href="env_8h.xhtml" target="_top" xlink:title="SCRAM&#45;specific environment variables. ">
<polygon fill="white" stroke="black" points="1,-62 1,-81 43,-81 43,-62 1,-62"/>
<text text-anchor="middle" x="22" y="-69" font-family="Helvetica,sans-Serif" font-size="10.00">env.h</text>
</a>
</g>
</g>
<!-- Node1&#45;&gt;Node2 -->
<g id="edge1" class="edge"><title>Node1&#45;&gt;Node2</title>
<path fill="none" stroke="midnightblue" d="M68.2631,-123.475C60.0027,-114.373 46.7229,-99.741 36.5055,-88.483"/>
<polygon fill="midnightblue" stroke="midnightblue" points="39.0349,-86.0619 29.7225,-81.0091 33.8513,-90.7663 39.0349,-86.0619"/>
</g>
<!-- Node4 -->
<g id="node4" class="node"><title>Node4</title>
<polygon fill="white" stroke="#bfbfbf" points="61.5,-56.5 61.5,-86.5 198.5,-86.5 198.5,-56.5 61.5,-56.5"/>
<text text-anchor="start" x="69.5" y="-74.5" font-family="Helvetica,sans-Serif" font-size="10.00">boost/dll/runtime_symbol</text>
<text text-anchor="middle" x="130" y="-63.5" font-family="Helvetica,sans-Serif" font-size="10.00">_info.hpp</text>
</g>
<!-- Node1&#45;&gt;Node4 -->
<g id="edge3" class="edge"><title>Node1&#45;&gt;Node4</title>
<path fill="none" stroke="midnightblue" d="M83.7369,-123.475C90.7087,-115.793 101.256,-104.172 110.52,-93.9643"/>
<polygon fill="midnightblue" stroke="midnightblue" points="113.144,-96.2802 117.273,-86.523 107.961,-91.5758 113.144,-96.2802"/>
</g>
<!-- Node3 -->
<g id="node3" class="node"><title>Node3</title>
<polygon fill="white" stroke="#bfbfbf" points="-3.55271e-15,-0.5 -3.55271e-15,-19.5 44,-19.5 44,-0.5 -3.55271e-15,-0.5"/>
<text text-anchor="middle" x="22" y="-7.5" font-family="Helvetica,sans-Serif" font-size="10.00">string</text>
</g>
<!-- Node2&#45;&gt;Node3 -->
<g id="edge2" class="edge"><title>Node2&#45;&gt;Node3</title>
<path fill="none" stroke="midnightblue" d="M22,-61.9751C22,-53.5803 22,-40.4806 22,-29.6631"/>
<polygon fill="midnightblue" stroke="midnightblue" points="25.5001,-29.5091 22,-19.5091 18.5001,-29.5091 25.5001,-29.5091"/>
</g>
</g>
</svg>
