<?xml version="1.0" encoding="UTF-8" standalone="no"?>
<!DOCTYPE svg PUBLIC "-//W3C//DTD SVG 1.1//EN"
 "http://www.w3.org/Graphics/SVG/1.1/DTD/svg11.dtd">
<!-- Generated by graphviz version 2.38.0 (20140413.2041)
 -->
<!-- Title: scram::env::report_schema Pages: 1 -->
<svg width="268pt" height="57pt"
 viewBox="0.00 0.00 268.00 57.00" xmlns="http://www.w3.org/2000/svg" xmlns:xlink="http://www.w3.org/1999/xlink">
<g id="graph0" class="graph" transform="scale(1 1) rotate(0) translate(4 53)">
<title>scram::env::report_schema</title>
<polygon fill="white" stroke="none" points="-4,4 -4,-53 264,-53 264,4 -4,4"/>
<!-- Node1 -->
<g id="node1" class="node"><title>Node1</title>
<polygon fill="#bfbfbf" stroke="black" points="0,-0.5 0,-30.5 104,-30.5 104,-0.5 0,-0.5"/>
<text text-anchor="start" x="8" y="-18.5" font-family="Helvetica,sans-Serif" font-size="10.00">scram::env::report</text>
<text text-anchor="middle" x="52" y="-7.5" font-family="Helvetica,sans-Serif" font-size="10.00">_schema</text>
</g>
<!-- Node1&#45;&gt;Node1 -->
<g id="edge3" class="edge"><title>Node1&#45;&gt;Node1</title>
<path fill="none" stroke="midnightblue" d="M26.2079,-30.659C19.9886,-40.0566 28.5859,-49 52,-49 66.2679,-49 75.0339,-45.679 78.2978,-40.9579"/>
<polygon fill="midnightblue" stroke="midnightblue" points="81.7784,-40.4753 77.7921,-30.659 74.7868,-40.8187 81.7784,-40.4753"/>
</g>
<!-- Node2 -->
<g id="node2" class="node"><title>Node2</title>
<g id="a_node2"><a xlink:href="env_8cc.xhtml#a0c06cf8f7e281effe9ccf2b4adaa1894" target="_top" xlink:title="scram::env::install_dir">
<polygon fill="white" stroke="black" points="140,-6 140,-25 260,-25 260,-6 140,-6"/>
<text text-anchor="middle" x="200" y="-13" font-family="Helvetica,sans-Serif" font-size="10.00">scram::env::install_dir</text>
</a>
</g>
</g>
<!-- Node1&#45;&gt;Node2 -->
<g id="edge1" class="edge"><title>Node1&#45;&gt;Node2</title>
<path fill="none" stroke="midnightblue" d="M104.064,-15.5C112.397,-15.5 121.151,-15.5 129.833,-15.5"/>
<polygon fill="midnightblue" stroke="midnightblue" points="129.961,-19.0001 139.961,-15.5 129.961,-12.0001 129.961,-19.0001"/>
</g>
<!-- Node2&#45;&gt;Node2 -->
<g id="edge2" class="edge"><title>Node2&#45;&gt;Node2</title>
<path fill="none" stroke="midnightblue" d="M177.189,-25.2571C166.092,-34.0653 173.695,-43.5 200,-43.5 217.262,-43.5 226.471,-39.4368 227.626,-34.1539"/>
<polygon fill="midnightblue" stroke="midnightblue" points="230.649,-32.386 222.811,-25.2571 224.492,-35.7176 230.649,-32.386"/>
</g>
</g>
</svg>
