<?xml version="1.0" encoding="UTF-8" standalone="no"?>
<!DOCTYPE svg PUBLIC "-//W3C//DTD SVG 1.1//EN"
 "http://www.w3.org/Graphics/SVG/1.1/DTD/svg11.dtd">
<!-- Generated by graphviz version 2.38.0 (20140413.2041)
 -->
<!-- Title: event.h Pages: 1 -->
<svg width="1762pt" height="364pt"
 viewBox="0.00 0.00 1762.00 364.00" xmlns="http://www.w3.org/2000/svg" xmlns:xlink="http://www.w3.org/1999/xlink">
<g id="graph0" class="graph" transform="scale(1 1) rotate(0) translate(4 360)">
<title>event.h</title>
<polygon fill="white" stroke="none" points="-4,4 -4,-360 1758,-360 1758,4 -4,4"/>
<!-- Node1 -->
<g id="node1" class="node"><title>Node1</title>
<polygon fill="#bfbfbf" stroke="black" points="956.5,-336.5 956.5,-355.5 1009.5,-355.5 1009.5,-336.5 956.5,-336.5"/>
<text text-anchor="middle" x="983" y="-343.5" font-family="Helvetica,sans-Serif" font-size="10.00">event.h</text>
</g>
<!-- Node2 -->
<g id="node2" class="node"><title>Node2</title>
<g id="a_node2"><a xlink:href="instruction_8h.xhtml" target="_top" xlink:title="Model and event tree modifier instructions. ">
<polygon fill="white" stroke="black" points="256,-280.5 256,-299.5 332,-299.5 332,-280.5 256,-280.5"/>
<text text-anchor="middle" x="294" y="-287.5" font-family="Helvetica,sans-Serif" font-size="10.00">instruction.h</text>
</a>
</g>
</g>
<!-- Node1&#45;&gt;Node2 -->
<g id="edge1" class="edge"><title>Node1&#45;&gt;Node2</title>
<path fill="none" stroke="midnightblue" d="M946.362,-342.129C827.499,-332.813 453.306,-303.486 332.215,-293.995"/>
<polygon fill="midnightblue" stroke="midnightblue" points="946.17,-345.624 956.413,-342.916 946.717,-338.645 946.17,-345.624"/>
</g>
<!-- Node5 -->
<g id="node5" class="node"><title>Node5</title>
<g id="a_node5"><a xlink:href="initializer_8h.xhtml" target="_top" xlink:title="A facility that processes input files into analysis constructs. ">
<polygon fill="white" stroke="black" points="493.5,-112.5 493.5,-131.5 560.5,-131.5 560.5,-112.5 493.5,-112.5"/>
<text text-anchor="middle" x="527" y="-119.5" font-family="Helvetica,sans-Serif" font-size="10.00">initializer.h</text>
</a>
</g>
</g>
<!-- Node1&#45;&gt;Node5 -->
<g id="edge53" class="edge"><title>Node1&#45;&gt;Node5</title>
<path fill="none" stroke="midnightblue" d="M945.942,-344.12C805.685,-340.599 312.014,-326.429 247,-300 211.676,-285.64 203.573,-275.443 182,-244 162.24,-215.199 138.863,-194.165 162,-168 172.944,-155.624 404.835,-133.84 493.205,-125.955"/>
<polygon fill="midnightblue" stroke="midnightblue" points="946.087,-347.624 956.171,-344.373 946.261,-340.626 946.087,-347.624"/>
</g>
<!-- Node8 -->
<g id="node8" class="node"><title>Node8</title>
<g id="a_node8"><a xlink:href="model_8h.xhtml" target="_top" xlink:title="Representation for a model container for risk analysis. ">
<polygon fill="white" stroke="black" points="748,-168.5 748,-187.5 804,-187.5 804,-168.5 748,-168.5"/>
<text text-anchor="middle" x="776" y="-175.5" font-family="Helvetica,sans-Serif" font-size="10.00">model.h</text>
</a>
</g>
</g>
<!-- Node1&#45;&gt;Node8 -->
<g id="edge54" class="edge"><title>Node1&#45;&gt;Node8</title>
<path fill="none" stroke="midnightblue" d="M946.224,-338.007C899.903,-327.005 822.235,-300.756 788,-244 777.213,-226.116 775.698,-200.808 775.724,-187.671"/>
<polygon fill="midnightblue" stroke="midnightblue" points="945.638,-341.463 956.163,-340.248 947.178,-334.634 945.638,-341.463"/>
</g>
<!-- Node10 -->
<g id="node10" class="node"><title>Node10</title>
<g id="a_node10"><a xlink:href="pdag_8cc.xhtml" target="_top" xlink:title="Implementation of a Propositional Directed Acyclic Graph with indexed nodes, variables, and gates. ">
<polygon fill="white" stroke="black" points="930,-112.5 930,-131.5 984,-131.5 984,-112.5 930,-112.5"/>
<text text-anchor="middle" x="957" y="-119.5" font-family="Helvetica,sans-Serif" font-size="10.00">pdag.cc</text>
</a>
</g>
</g>
<!-- Node1&#45;&gt;Node10 -->
<g id="edge60" class="edge"><title>Node1&#45;&gt;Node10</title>
<path fill="none" stroke="midnightblue" d="M997.446,-328.672C1009.66,-315.16 1027.86,-295.707 1045,-280 1090.1,-238.668 1162.24,-216.529 1125,-168 1107.95,-145.782 1027.4,-132.135 984.327,-126.304"/>
<polygon fill="midnightblue" stroke="midnightblue" points="994.741,-326.446 990.677,-336.23 999.956,-331.116 994.741,-326.446"/>
</g>
<!-- Node11 -->
<g id="node11" class="node"><title>Node11</title>
<g id="a_node11"><a xlink:href="reporter_8h.xhtml" target="_top" xlink:title="Reporter of results. ">
<polygon fill="white" stroke="black" points="870,-56.5 870,-75.5 934,-75.5 934,-56.5 870,-56.5"/>
<text text-anchor="middle" x="902" y="-63.5" font-family="Helvetica,sans-Serif" font-size="10.00">reporter.h</text>
</a>
</g>
</g>
<!-- Node1&#45;&gt;Node11 -->
<g id="edge62" class="edge"><title>Node1&#45;&gt;Node11</title>
<path fill="none" stroke="midnightblue" d="M1003.05,-330.55C1015.22,-321.758 1031.04,-310.279 1045,-300 1103.84,-256.681 1182.99,-229.151 1143,-168 1096.32,-96.622 988.227,-75.6105 934.098,-69.4843"/>
<polygon fill="midnightblue" stroke="midnightblue" points="1000.98,-327.73 994.921,-336.421 1005.08,-333.405 1000.98,-327.73"/>
</g>
<!-- Node13 -->
<g id="node13" class="node"><title>Node13</title>
<g id="a_node13"><a xlink:href="risk__analysis_8h.xhtml" target="_top" xlink:title="Contains the main system for performing analysis. ">
<polygon fill="white" stroke="black" points="608,-112.5 608,-131.5 694,-131.5 694,-112.5 608,-112.5"/>
<text text-anchor="middle" x="651" y="-119.5" font-family="Helvetica,sans-Serif" font-size="10.00">risk_analysis.h</text>
</a>
</g>
</g>
<!-- Node1&#45;&gt;Node13 -->
<g id="edge63" class="edge"><title>Node1&#45;&gt;Node13</title>
<path fill="none" stroke="midnightblue" d="M946.149,-340.799C911.135,-335.508 858.035,-324.017 818,-300 740.109,-253.272 675.259,-160.188 656.485,-131.57"/>
<polygon fill="midnightblue" stroke="midnightblue" points="946.009,-344.314 956.4,-342.249 946.989,-337.383 946.009,-344.314"/>
</g>
<!-- Node16 -->
<g id="node16" class="node"><title>Node16</title>
<g id="a_node16"><a xlink:href="serialization_8cc.xhtml" target="_top" xlink:title="serialization.cc">
<polygon fill="white" stroke="black" points="1100.5,-56.5 1100.5,-75.5 1187.5,-75.5 1187.5,-56.5 1100.5,-56.5"/>
<text text-anchor="middle" x="1144" y="-63.5" font-family="Helvetica,sans-Serif" font-size="10.00">serialization.cc</text>
</a>
</g>
</g>
<!-- Node1&#45;&gt;Node16 -->
<g id="edge64" class="edge"><title>Node1&#45;&gt;Node16</title>
<path fill="none" stroke="midnightblue" d="M1019.97,-344.122C1123.27,-341.291 1409.17,-330.723 1437,-300 1530.26,-197.039 1263.52,-103.577 1172.93,-75.5311"/>
<polygon fill="midnightblue" stroke="midnightblue" points="1019.62,-340.63 1009.71,-344.394 1019.8,-347.628 1019.62,-340.63"/>
</g>
<!-- Node18 -->
<g id="node18" class="node"><title>Node18</title>
<g id="a_node18"><a xlink:href="cycle_8h.xhtml" target="_top" xlink:title="Validation facilities to detect and print cycles in graphs. ">
<polygon fill="white" stroke="black" points="2,-168.5 2,-187.5 52,-187.5 52,-168.5 2,-168.5"/>
<text text-anchor="middle" x="27" y="-175.5" font-family="Helvetica,sans-Serif" font-size="10.00">cycle.h</text>
</a>
</g>
</g>
<!-- Node1&#45;&gt;Node18 -->
<g id="edge47" class="edge"><title>Node1&#45;&gt;Node18</title>
<path fill="none" stroke="midnightblue" d="M946.088,-344.598C789.215,-342.689 182.3,-333.201 104,-300 70.4173,-285.76 62.6864,-275.327 44,-244 33.1248,-225.768 29.1204,-200.607 27.7141,-187.584"/>
<polygon fill="midnightblue" stroke="midnightblue" points="946.136,-348.099 956.177,-344.718 946.219,-341.099 946.136,-348.099"/>
</g>
<!-- Node21 -->
<g id="node21" class="node"><title>Node21</title>
<g id="a_node21"><a xlink:href="event__tree__analysis_8h.xhtml" target="_top" xlink:title="Event tree analysis facilities. ">
<polygon fill="white" stroke="black" points="322.5,-168.5 322.5,-187.5 443.5,-187.5 443.5,-168.5 322.5,-168.5"/>
<text text-anchor="middle" x="383" y="-175.5" font-family="Helvetica,sans-Serif" font-size="10.00">event_tree_analysis.h</text>
</a>
</g>
</g>
<!-- Node1&#45;&gt;Node21 -->
<g id="edge49" class="edge"><title>Node1&#45;&gt;Node21</title>
<path fill="none" stroke="midnightblue" d="M945.898,-342.167C885.103,-337.013 760.752,-324.318 658,-300 582.64,-282.165 563.377,-276.315 493,-244 456.11,-227.061 415.751,-201.124 395.733,-187.71"/>
<polygon fill="midnightblue" stroke="midnightblue" points="945.889,-345.678 956.143,-343.015 946.466,-338.702 945.889,-345.678"/>
</g>
<!-- Node23 -->
<g id="node23" class="node"><title>Node23</title>
<g id="a_node23"><a xlink:href="ccf__group_8h.xhtml" target="_top" xlink:title="Functional containers for basic events grouped by common cause failure. ">
<polygon fill="white" stroke="black" points="883,-280.5 883,-299.5 955,-299.5 955,-280.5 883,-280.5"/>
<text text-anchor="middle" x="919" y="-287.5" font-family="Helvetica,sans-Serif" font-size="10.00">ccf_group.h</text>
</a>
</g>
</g>
<!-- Node1&#45;&gt;Node23 -->
<g id="edge36" class="edge"><title>Node1&#45;&gt;Node23</title>
<path fill="none" stroke="midnightblue" d="M965.009,-329.82C953.542,-320.145 939.087,-307.948 929.47,-299.834"/>
<polygon fill="midnightblue" stroke="midnightblue" points="962.817,-332.55 972.717,-336.324 967.331,-327.2 962.817,-332.55"/>
</g>
<!-- Node25 -->
<g id="node25" class="node"><title>Node25</title>
<g id="a_node25"><a xlink:href="fault__tree_8h.xhtml" target="_top" xlink:title="Fault Tree and Component containers. ">
<polygon fill="white" stroke="black" points="1009.5,-224.5 1009.5,-243.5 1080.5,-243.5 1080.5,-224.5 1009.5,-224.5"/>
<text text-anchor="middle" x="1045" y="-231.5" font-family="Helvetica,sans-Serif" font-size="10.00">fault_tree.h</text>
</a>
</g>
</g>
<!-- Node1&#45;&gt;Node25 -->
<g id="edge50" class="edge"><title>Node1&#45;&gt;Node25</title>
<path fill="none" stroke="midnightblue" d="M988.042,-326.2C992.083,-312.789 998.485,-294.617 1007,-280 1015.13,-266.04 1027.7,-252.17 1036.13,-243.597"/>
<polygon fill="midnightblue" stroke="midnightblue" points="984.578,-325.586 985.208,-336.162 991.31,-327.501 984.578,-325.586"/>
</g>
<!-- Node27 -->
<g id="node27" class="node"><title>Node27</title>
<g id="a_node27"><a xlink:href="event_8cc.xhtml" target="_top" xlink:title="Implementation of Event Class and its derived classes. ">
<polygon fill="white" stroke="black" points="1087.5,-280.5 1087.5,-299.5 1144.5,-299.5 1144.5,-280.5 1087.5,-280.5"/>
<text text-anchor="middle" x="1116" y="-287.5" font-family="Helvetica,sans-Serif" font-size="10.00">event.cc</text>
</a>
</g>
</g>
<!-- Node1&#45;&gt;Node27 -->
<g id="edge48" class="edge"><title>Node1&#45;&gt;Node27</title>
<path fill="none" stroke="midnightblue" d="M1013.45,-332.638C1038.41,-322.504 1073.08,-308.427 1095.02,-299.516"/>
<polygon fill="midnightblue" stroke="midnightblue" points="1012.02,-329.439 1004.07,-336.444 1014.66,-335.924 1012.02,-329.439"/>
</g>
<!-- Node28 -->
<g id="node28" class="node"><title>Node28</title>
<g id="a_node28"><a xlink:href="fault__tree__analysis_8cc.xhtml" target="_top" xlink:title="Implementation of fault tree analysis. ">
<polygon fill="white" stroke="black" points="1162.5,-280.5 1162.5,-299.5 1281.5,-299.5 1281.5,-280.5 1162.5,-280.5"/>
<text text-anchor="middle" x="1222" y="-287.5" font-family="Helvetica,sans-Serif" font-size="10.00">fault_tree_analysis.cc</text>
</a>
</g>
</g>
<!-- Node1&#45;&gt;Node28 -->
<g id="edge51" class="edge"><title>Node1&#45;&gt;Node28</title>
<path fill="none" stroke="midnightblue" d="M1019.79,-336.687C1064.38,-326.613 1139.11,-309.727 1184.16,-299.549"/>
<polygon fill="midnightblue" stroke="midnightblue" points="1018.93,-333.293 1009.95,-338.91 1020.48,-340.12 1018.93,-333.293"/>
</g>
<!-- Node29 -->
<g id="node29" class="node"><title>Node29</title>
<g id="a_node29"><a xlink:href="importance__analysis_8cc.xhtml" target="_top" xlink:title="Implementations of functions to provide quantitative importance informations. ">
<polygon fill="white" stroke="black" points="1300,-280.5 1300,-299.5 1428,-299.5 1428,-280.5 1300,-280.5"/>
<text text-anchor="middle" x="1364" y="-287.5" font-family="Helvetica,sans-Serif" font-size="10.00">importance_analysis.cc</text>
</a>
</g>
</g>
<!-- Node1&#45;&gt;Node29 -->
<g id="edge52" class="edge"><title>Node1&#45;&gt;Node29</title>
<path fill="none" stroke="midnightblue" d="M1019.71,-339.797C1085.51,-330.47 1224.13,-310.824 1303.95,-299.511"/>
<polygon fill="midnightblue" stroke="midnightblue" points="1019.2,-336.334 1009.79,-341.203 1020.18,-343.265 1019.2,-336.334"/>
</g>
<!-- Node30 -->
<g id="node30" class="node"><title>Node30</title>
<g id="a_node30"><a xlink:href="substitution_8h.xhtml" target="_top" xlink:title="The MEF Substitution constructs. ">
<polygon fill="white" stroke="black" points="814,-224.5 814,-243.5 896,-243.5 896,-224.5 814,-224.5"/>
<text text-anchor="middle" x="855" y="-231.5" font-family="Helvetica,sans-Serif" font-size="10.00">substitution.h</text>
</a>
</g>
</g>
<!-- Node1&#45;&gt;Node30 -->
<g id="edge55" class="edge"><title>Node1&#45;&gt;Node30</title>
<path fill="none" stroke="midnightblue" d="M946.583,-338.446C922.805,-332.349 892.794,-320.923 874,-300 859.544,-283.906 856.053,-257.368 855.233,-243.714"/>
<polygon fill="midnightblue" stroke="midnightblue" points="945.805,-341.858 956.341,-340.744 947.41,-335.044 945.805,-341.858"/>
</g>
<!-- Node32 -->
<g id="node32" class="node"><title>Node32</title>
<g id="a_node32"><a xlink:href="probability__analysis_8cc.xhtml" target="_top" xlink:title="Implementations of functions to provide probability analysis. ">
<polygon fill="white" stroke="black" points="1484.5,-280.5 1484.5,-299.5 1607.5,-299.5 1607.5,-280.5 1484.5,-280.5"/>
<text text-anchor="middle" x="1546" y="-287.5" font-family="Helvetica,sans-Serif" font-size="10.00">probability_analysis.cc</text>
</a>
</g>
</g>
<!-- Node1&#45;&gt;Node32 -->
<g id="edge61" class="edge"><title>Node1&#45;&gt;Node32</title>
<path fill="none" stroke="midnightblue" d="M1019.9,-341.916C1101.25,-335.048 1302.11,-317.694 1470,-300 1474.62,-299.513 1479.41,-298.99 1484.21,-298.452"/>
<polygon fill="midnightblue" stroke="midnightblue" points="1019.35,-338.45 1009.68,-342.777 1019.94,-345.426 1019.35,-338.45"/>
</g>
<!-- Node33 -->
<g id="node33" class="node"><title>Node33</title>
<g id="a_node33"><a xlink:href="uncertainty__analysis_8cc.xhtml" target="_top" xlink:title="Implements the functionality to run Monte Carlo simulations. ">
<polygon fill="white" stroke="black" points="1626,-280.5 1626,-299.5 1754,-299.5 1754,-280.5 1626,-280.5"/>
<text text-anchor="middle" x="1690" y="-287.5" font-family="Helvetica,sans-Serif" font-size="10.00">uncertainty_analysis.cc</text>
</a>
</g>
</g>
<!-- Node1&#45;&gt;Node33 -->
<g id="edge65" class="edge"><title>Node1&#45;&gt;Node33</title>
<path fill="none" stroke="midnightblue" d="M1019.84,-343.055C1117.38,-337.758 1390.46,-321.99 1617,-300 1619.92,-299.716 1622.91,-299.411 1625.93,-299.09"/>
<polygon fill="midnightblue" stroke="midnightblue" points="1019.41,-339.572 1009.62,-343.606 1019.79,-346.562 1019.41,-339.572"/>
</g>
<!-- Node3 -->
<g id="node3" class="node"><title>Node3</title>
<g id="a_node3"><a xlink:href="alignment_8h.xhtml" target="_top" xlink:title="Mission and phase constructs. ">
<polygon fill="white" stroke="black" points="502,-224.5 502,-243.5 576,-243.5 576,-224.5 502,-224.5"/>
<text text-anchor="middle" x="539" y="-231.5" font-family="Helvetica,sans-Serif" font-size="10.00">alignment.h</text>
</a>
</g>
</g>
<!-- Node2&#45;&gt;Node3 -->
<g id="edge2" class="edge"><title>Node2&#45;&gt;Node3</title>
<path fill="none" stroke="midnightblue" d="M341.913,-278.44C388.702,-268.127 458.931,-252.648 501.702,-243.221"/>
<polygon fill="midnightblue" stroke="midnightblue" points="341.025,-275.051 332.012,-280.622 342.531,-281.887 341.025,-275.051"/>
</g>
<!-- Node2&#45;&gt;Node5 -->
<g id="edge34" class="edge"><title>Node2&#45;&gt;Node5</title>
<path fill="none" stroke="midnightblue" d="M264.238,-276.121C218.231,-254.493 138.74,-209.191 175,-168 185.495,-156.078 407.56,-134.157 493.475,-126.087"/>
<polygon fill="midnightblue" stroke="midnightblue" points="262.945,-279.379 273.494,-280.367 265.864,-273.016 262.945,-279.379"/>
</g>
<!-- Node2&#45;&gt;Node8 -->
<g id="edge35" class="edge"><title>Node2&#45;&gt;Node8</title>
<path fill="none" stroke="midnightblue" d="M342.082,-284.169C400.2,-277.735 500.697,-264.695 585,-244 648.102,-228.51 720.042,-201.339 754.879,-187.549"/>
<polygon fill="midnightblue" stroke="midnightblue" points="341.648,-280.696 332.085,-285.257 342.405,-287.655 341.648,-280.696"/>
</g>
<!-- Node17 -->
<g id="node17" class="node"><title>Node17</title>
<g id="a_node17"><a xlink:href="event__tree_8h.xhtml" target="_top" xlink:title="Event Tree facilities. ">
<polygon fill="white" stroke="black" points="255.5,-224.5 255.5,-243.5 332.5,-243.5 332.5,-224.5 255.5,-224.5"/>
<text text-anchor="middle" x="294" y="-231.5" font-family="Helvetica,sans-Serif" font-size="10.00">event_tree.h</text>
</a>
</g>
</g>
<!-- Node2&#45;&gt;Node17 -->
<g id="edge22" class="edge"><title>Node2&#45;&gt;Node17</title>
<path fill="none" stroke="midnightblue" d="M294,-269.805C294,-260.91 294,-250.78 294,-243.751"/>
<polygon fill="midnightblue" stroke="midnightblue" points="290.5,-270.083 294,-280.083 297.5,-270.083 290.5,-270.083"/>
</g>
<!-- Node2&#45;&gt;Node18 -->
<g id="edge32" class="edge"><title>Node2&#45;&gt;Node18</title>
<path fill="none" stroke="midnightblue" d="M245.8,-284.108C187.729,-277.433 94.4152,-263.971 66,-244 45.9736,-229.925 34.4602,-201.99 29.6612,-187.765"/>
<polygon fill="midnightblue" stroke="midnightblue" points="245.53,-287.6 255.858,-285.237 246.31,-280.643 245.53,-287.6"/>
</g>
<!-- Node22 -->
<g id="node22" class="node"><title>Node22</title>
<g id="a_node22"><a xlink:href="event__tree__analysis_8cc.xhtml" target="_top" xlink:title="Implementation of event tree analysis facilities. ">
<polygon fill="white" stroke="black" points="268.5,-112.5 268.5,-131.5 393.5,-131.5 393.5,-112.5 268.5,-112.5"/>
<text text-anchor="middle" x="331" y="-119.5" font-family="Helvetica,sans-Serif" font-size="10.00">event_tree_analysis.cc</text>
</a>
</g>
</g>
<!-- Node2&#45;&gt;Node22 -->
<g id="edge33" class="edge"><title>Node2&#45;&gt;Node22</title>
<path fill="none" stroke="midnightblue" d="M245.651,-288.918C210.721,-285.994 165.682,-275.709 142,-244 121.788,-216.937 121.064,-194.507 142,-168 157.628,-148.214 219.459,-136.191 268.2,-129.612"/>
<polygon fill="midnightblue" stroke="midnightblue" points="245.459,-292.412 255.669,-289.582 245.922,-285.428 245.459,-292.412"/>
</g>
<!-- Node4 -->
<g id="node4" class="node"><title>Node4</title>
<g id="a_node4"><a xlink:href="alignment_8cc.xhtml" target="_top" xlink:title="Implementation of alignment and phase classes. ">
<polygon fill="white" stroke="black" points="500,-168.5 500,-187.5 578,-187.5 578,-168.5 500,-168.5"/>
<text text-anchor="middle" x="539" y="-175.5" font-family="Helvetica,sans-Serif" font-size="10.00">alignment.cc</text>
</a>
</g>
</g>
<!-- Node3&#45;&gt;Node4 -->
<g id="edge3" class="edge"><title>Node3&#45;&gt;Node4</title>
<path fill="none" stroke="midnightblue" d="M539,-213.805C539,-204.91 539,-194.78 539,-187.751"/>
<polygon fill="midnightblue" stroke="midnightblue" points="535.5,-214.083 539,-224.083 542.5,-214.083 535.5,-214.083"/>
</g>
<!-- Node3&#45;&gt;Node5 -->
<g id="edge4" class="edge"><title>Node3&#45;&gt;Node5</title>
<path fill="none" stroke="midnightblue" d="M516.365,-218.257C506.62,-210.541 496.268,-200.16 491,-188 481.872,-166.93 502.842,-143.736 516.468,-131.558"/>
<polygon fill="midnightblue" stroke="midnightblue" points="514.499,-221.229 524.63,-224.33 518.644,-215.588 514.499,-221.229"/>
</g>
<!-- Node3&#45;&gt;Node8 -->
<g id="edge7" class="edge"><title>Node3&#45;&gt;Node8</title>
<path fill="none" stroke="midnightblue" d="M585.925,-222.308C634.19,-211.311 707.788,-194.542 747.765,-185.433"/>
<polygon fill="midnightblue" stroke="midnightblue" points="585.004,-218.928 576.031,-224.562 586.559,-225.753 585.004,-218.928"/>
</g>
<!-- Node3&#45;&gt;Node13 -->
<g id="edge21" class="edge"><title>Node3&#45;&gt;Node13</title>
<path fill="none" stroke="midnightblue" d="M555.75,-217.604C565.042,-208.987 576.756,-197.996 587,-188 607.402,-168.092 630.754,-144.044 642.822,-131.521"/>
<polygon fill="midnightblue" stroke="midnightblue" points="553.276,-215.125 548.305,-224.481 558.026,-220.266 553.276,-215.125"/>
</g>
<!-- Node6 -->
<g id="node6" class="node"><title>Node6</title>
<g id="a_node6"><a xlink:href="initializer_8cc.xhtml" target="_top" xlink:title="Implementation of input file processing into analysis constructs. ">
<polygon fill="white" stroke="black" points="295.5,-56.5 295.5,-75.5 366.5,-75.5 366.5,-56.5 295.5,-56.5"/>
<text text-anchor="middle" x="331" y="-63.5" font-family="Helvetica,sans-Serif" font-size="10.00">initializer.cc</text>
</a>
</g>
</g>
<!-- Node5&#45;&gt;Node6 -->
<g id="edge5" class="edge"><title>Node5&#45;&gt;Node6</title>
<path fill="none" stroke="midnightblue" d="M485.98,-109.699C448.989,-99.507 395.4,-84.7429 361.911,-75.5164"/>
<polygon fill="midnightblue" stroke="midnightblue" points="485.373,-113.162 495.943,-112.444 487.232,-106.413 485.373,-113.162"/>
</g>
<!-- Node7 -->
<g id="node7" class="node"><title>Node7</title>
<g id="a_node7"><a xlink:href="scram_8cc.xhtml" target="_top" xlink:title="Main entrance. ">
<polygon fill="white" stroke="black" points="664,-0.5 664,-19.5 724,-19.5 724,-0.5 664,-0.5"/>
<text text-anchor="middle" x="694" y="-7.5" font-family="Helvetica,sans-Serif" font-size="10.00">scram.cc</text>
</a>
</g>
</g>
<!-- Node5&#45;&gt;Node7 -->
<g id="edge6" class="edge"><title>Node5&#45;&gt;Node7</title>
<path fill="none" stroke="midnightblue" d="M548.689,-106.714C583.879,-83.5347 652.356,-38.4303 680.957,-19.5914"/>
<polygon fill="midnightblue" stroke="midnightblue" points="546.53,-103.945 540.104,-112.368 550.381,-109.791 546.53,-103.945"/>
</g>
<!-- Node8&#45;&gt;Node5 -->
<g id="edge8" class="edge"><title>Node8&#45;&gt;Node5</title>
<path fill="none" stroke="midnightblue" d="M738.146,-168.791C689.752,-158.296 606.715,-140.287 560.51,-130.267"/>
<polygon fill="midnightblue" stroke="midnightblue" points="737.406,-172.211 747.921,-170.91 738.89,-165.371 737.406,-172.211"/>
</g>
<!-- Node9 -->
<g id="node9" class="node"><title>Node9</title>
<g id="a_node9"><a xlink:href="model_8cc.xhtml" target="_top" xlink:title="Implementation of functions in Model class. ">
<polygon fill="white" stroke="black" points="814,-112.5 814,-131.5 874,-131.5 874,-112.5 814,-112.5"/>
<text text-anchor="middle" x="844" y="-119.5" font-family="Helvetica,sans-Serif" font-size="10.00">model.cc</text>
</a>
</g>
</g>
<!-- Node8&#45;&gt;Node9 -->
<g id="edge9" class="edge"><title>Node8&#45;&gt;Node9</title>
<path fill="none" stroke="midnightblue" d="M794.762,-162.101C807,-152.382 822.559,-140.027 832.876,-131.834"/>
<polygon fill="midnightblue" stroke="midnightblue" points="792.58,-159.364 786.925,-168.324 796.933,-164.846 792.58,-159.364"/>
</g>
<!-- Node8&#45;&gt;Node10 -->
<g id="edge10" class="edge"><title>Node8&#45;&gt;Node10</title>
<path fill="none" stroke="midnightblue" d="M814.053,-165.647C848.71,-155.308 899.036,-140.293 929.805,-131.114"/>
<polygon fill="midnightblue" stroke="midnightblue" points="812.863,-162.35 804.281,-168.562 814.865,-169.057 812.863,-162.35"/>
</g>
<!-- Node8&#45;&gt;Node11 -->
<g id="edge11" class="edge"><title>Node8&#45;&gt;Node11</title>
<path fill="none" stroke="midnightblue" d="M813.076,-165.222C839.956,-156.001 873.231,-142.948 883,-132 897.403,-115.859 900.917,-89.3414 901.754,-75.7023"/>
<polygon fill="midnightblue" stroke="midnightblue" points="811.881,-161.931 803.518,-168.435 814.112,-168.566 811.881,-161.931"/>
</g>
<!-- Node8&#45;&gt;Node13 -->
<g id="edge14" class="edge"><title>Node8&#45;&gt;Node13</title>
<path fill="none" stroke="midnightblue" d="M746.759,-164.368C723.35,-154.255 691.159,-140.349 670.714,-131.516"/>
<polygon fill="midnightblue" stroke="midnightblue" points="745.625,-167.691 756.193,-168.444 748.401,-161.265 745.625,-167.691"/>
</g>
<!-- Node15 -->
<g id="node15" class="node"><title>Node15</title>
<g id="a_node15"><a xlink:href="serialization_8h.xhtml" target="_top" xlink:title="The MEF Model serialization facilities. ">
<polygon fill="white" stroke="black" points="712.5,-112.5 712.5,-131.5 795.5,-131.5 795.5,-112.5 712.5,-112.5"/>
<text text-anchor="middle" x="754" y="-119.5" font-family="Helvetica,sans-Serif" font-size="10.00">serialization.h</text>
</a>
</g>
</g>
<!-- Node8&#45;&gt;Node15 -->
<g id="edge18" class="edge"><title>Node8&#45;&gt;Node15</title>
<path fill="none" stroke="midnightblue" d="M768.54,-158.69C764.833,-149.589 760.524,-139.014 757.565,-131.751"/>
<polygon fill="midnightblue" stroke="midnightblue" points="765.353,-160.143 772.367,-168.083 771.835,-157.502 765.353,-160.143"/>
</g>
<!-- Node11&#45;&gt;Node7 -->
<g id="edge13" class="edge"><title>Node11&#45;&gt;Node7</title>
<path fill="none" stroke="midnightblue" d="M860.157,-54.1369C819.842,-43.6706 759.845,-28.0943 724.053,-18.8023"/>
<polygon fill="midnightblue" stroke="midnightblue" points="859.397,-57.5556 869.956,-56.6808 861.156,-50.7802 859.397,-57.5556"/>
</g>
<!-- Node12 -->
<g id="node12" class="node"><title>Node12</title>
<g id="a_node12"><a xlink:href="reporter_8cc.xhtml" target="_top" xlink:title="Implements Reporter class. ">
<polygon fill="white" stroke="black" points="1065,-0.5 1065,-19.5 1133,-19.5 1133,-0.5 1065,-0.5"/>
<text text-anchor="middle" x="1099" y="-7.5" font-family="Helvetica,sans-Serif" font-size="10.00">reporter.cc</text>
</a>
</g>
</g>
<!-- Node11&#45;&gt;Node12 -->
<g id="edge12" class="edge"><title>Node11&#45;&gt;Node12</title>
<path fill="none" stroke="midnightblue" d="M943.229,-53.6986C980.409,-43.507 1034.27,-28.7429 1067.93,-19.5164"/>
<polygon fill="midnightblue" stroke="midnightblue" points="941.934,-50.4244 933.215,-56.4435 943.785,-57.1754 941.934,-50.4244"/>
</g>
<!-- Node13&#45;&gt;Node7 -->
<g id="edge17" class="edge"><title>Node13&#45;&gt;Node7</title>
<path fill="none" stroke="midnightblue" d="M658.037,-102.998C667.419,-78.9968 683.653,-37.4683 690.642,-19.5914"/>
<polygon fill="midnightblue" stroke="midnightblue" points="654.755,-101.78 654.374,-112.368 661.275,-104.329 654.755,-101.78"/>
</g>
<!-- Node13&#45;&gt;Node11 -->
<g id="edge15" class="edge"><title>Node13&#45;&gt;Node11</title>
<path fill="none" stroke="midnightblue" d="M700.775,-110.291C751.052,-99.475 827.225,-83.087 869.981,-73.8886"/>
<polygon fill="midnightblue" stroke="midnightblue" points="699.812,-106.918 690.772,-112.444 701.284,-113.762 699.812,-106.918"/>
</g>
<!-- Node14 -->
<g id="node14" class="node"><title>Node14</title>
<g id="a_node14"><a xlink:href="risk__analysis_8cc.xhtml" target="_top" xlink:title="Implementation of risk analysis handler. ">
<polygon fill="white" stroke="black" points="758,-56.5 758,-75.5 848,-75.5 848,-56.5 758,-56.5"/>
<text text-anchor="middle" x="803" y="-63.5" font-family="Helvetica,sans-Serif" font-size="10.00">risk_analysis.cc</text>
</a>
</g>
</g>
<!-- Node13&#45;&gt;Node14 -->
<g id="edge16" class="edge"><title>Node13&#45;&gt;Node14</title>
<path fill="none" stroke="midnightblue" d="M684.668,-109.039C713.268,-98.8786 753.612,-84.5457 779.028,-75.5164"/>
<polygon fill="midnightblue" stroke="midnightblue" points="683.336,-105.798 675.085,-112.444 685.68,-112.394 683.336,-105.798"/>
</g>
<!-- Node15&#45;&gt;Node7 -->
<g id="edge19" class="edge"><title>Node15&#45;&gt;Node7</title>
<path fill="none" stroke="midnightblue" d="M744.356,-103.32C731.293,-79.3697 708.481,-37.5484 698.686,-19.5914"/>
<polygon fill="midnightblue" stroke="midnightblue" points="741.431,-105.266 749.292,-112.368 747.576,-101.914 741.431,-105.266"/>
</g>
<!-- Node15&#45;&gt;Node16 -->
<g id="edge20" class="edge"><title>Node15&#45;&gt;Node16</title>
<path fill="none" stroke="midnightblue" d="M805.859,-111.926C918.026,-94.7469 1037.54,-79.7896 1100.3,-72.1954"/>
<polygon fill="midnightblue" stroke="midnightblue" points="805.075,-108.505 795.724,-113.487 806.141,-115.424 805.075,-108.505"/>
</g>
<!-- Node17&#45;&gt;Node5 -->
<g id="edge30" class="edge"><title>Node17&#45;&gt;Node5</title>
<path fill="none" stroke="midnightblue" d="M294.509,-213.998C295.949,-199.367 300.337,-179.722 313,-168 338.841,-144.079 439.595,-131.197 493.129,-125.916"/>
<polygon fill="midnightblue" stroke="midnightblue" points="290.99,-214.219 293.885,-224.41 297.977,-214.637 290.99,-214.219"/>
</g>
<!-- Node17&#45;&gt;Node8 -->
<g id="edge31" class="edge"><title>Node17&#45;&gt;Node8</title>
<path fill="none" stroke="midnightblue" d="M342.769,-227.536C442.842,-216.325 668.637,-191.028 747.874,-182.151"/>
<polygon fill="midnightblue" stroke="midnightblue" points="342.177,-224.081 332.629,-228.672 342.957,-231.037 342.177,-224.081"/>
</g>
<!-- Node17&#45;&gt;Node18 -->
<g id="edge23" class="edge"><title>Node17&#45;&gt;Node18</title>
<path fill="none" stroke="midnightblue" d="M245.62,-223.215C188.762,-211.716 96.5662,-193.07 52.2992,-184.117"/>
<polygon fill="midnightblue" stroke="midnightblue" points="244.966,-226.654 255.461,-225.206 246.353,-219.793 244.966,-226.654"/>
</g>
<!-- Node20 -->
<g id="node20" class="node"><title>Node20</title>
<g id="a_node20"><a xlink:href="event__tree_8cc.xhtml" target="_top" xlink:title="Implementation of event tree facilities. ">
<polygon fill="white" stroke="black" points="184,-168.5 184,-187.5 266,-187.5 266,-168.5 184,-168.5"/>
<text text-anchor="middle" x="225" y="-175.5" font-family="Helvetica,sans-Serif" font-size="10.00">event_tree.cc</text>
</a>
</g>
</g>
<!-- Node17&#45;&gt;Node20 -->
<g id="edge26" class="edge"><title>Node17&#45;&gt;Node20</title>
<path fill="none" stroke="midnightblue" d="M274.962,-218.101C262.544,-208.382 246.757,-196.027 236.288,-187.834"/>
<polygon fill="midnightblue" stroke="midnightblue" points="272.882,-220.917 282.914,-224.324 277.196,-215.405 272.882,-220.917"/>
</g>
<!-- Node17&#45;&gt;Node21 -->
<g id="edge27" class="edge"><title>Node17&#45;&gt;Node21</title>
<path fill="none" stroke="midnightblue" d="M317.238,-218.901C333.558,-208.999 354.865,-196.071 368.736,-187.655"/>
<polygon fill="midnightblue" stroke="midnightblue" points="315.033,-216.144 308.299,-224.324 318.664,-222.129 315.033,-216.144"/>
</g>
<!-- Node18&#45;&gt;Node6 -->
<g id="edge25" class="edge"><title>Node18&#45;&gt;Node6</title>
<path fill="none" stroke="midnightblue" d="M60.258,-164.966C122.096,-142.59 253.365,-95.0916 307.204,-75.6104"/>
<polygon fill="midnightblue" stroke="midnightblue" points="58.8138,-161.766 50.6014,-168.46 61.1957,-168.349 58.8138,-161.766"/>
</g>
<!-- Node19 -->
<g id="node19" class="node"><title>Node19</title>
<g id="a_node19"><a xlink:href="cycle_8cc.xhtml" target="_top" xlink:title="Implementation of cycle detection specializations. ">
<polygon fill="white" stroke="black" points="0,-112.5 0,-131.5 54,-131.5 54,-112.5 0,-112.5"/>
<text text-anchor="middle" x="27" y="-119.5" font-family="Helvetica,sans-Serif" font-size="10.00">cycle.cc</text>
</a>
</g>
</g>
<!-- Node18&#45;&gt;Node19 -->
<g id="edge24" class="edge"><title>Node18&#45;&gt;Node19</title>
<path fill="none" stroke="midnightblue" d="M27,-157.805C27,-148.91 27,-138.78 27,-131.751"/>
<polygon fill="midnightblue" stroke="midnightblue" points="23.5001,-158.083 27,-168.083 30.5001,-158.083 23.5001,-158.083"/>
</g>
<!-- Node21&#45;&gt;Node13 -->
<g id="edge29" class="edge"><title>Node21&#45;&gt;Node13</title>
<path fill="none" stroke="midnightblue" d="M435.56,-166.41C486.209,-156.204 561.867,-140.96 608.733,-131.516"/>
<polygon fill="midnightblue" stroke="midnightblue" points="434.577,-163.037 425.465,-168.444 435.96,-169.899 434.577,-163.037"/>
</g>
<!-- Node21&#45;&gt;Node22 -->
<g id="edge28" class="edge"><title>Node21&#45;&gt;Node22</title>
<path fill="none" stroke="midnightblue" d="M367.321,-160.718C358.155,-151.2 346.947,-139.561 339.427,-131.751"/>
<polygon fill="midnightblue" stroke="midnightblue" points="364.956,-163.308 374.413,-168.083 369.998,-158.452 364.956,-163.308"/>
</g>
<!-- Node23&#45;&gt;Node5 -->
<g id="edge44" class="edge"><title>Node23&#45;&gt;Node5</title>
<path fill="none" stroke="midnightblue" d="M882.584,-277.314C856.149,-268.631 819.624,-256.223 788,-244 729.32,-221.32 715.087,-214.435 658,-188 616.531,-168.797 568.613,-144.463 543.817,-131.707"/>
<polygon fill="midnightblue" stroke="midnightblue" points="881.598,-280.674 892.191,-280.451 883.771,-274.02 881.598,-280.674"/>
</g>
<!-- Node23&#45;&gt;Node8 -->
<g id="edge45" class="edge"><title>Node23&#45;&gt;Node8</title>
<path fill="none" stroke="midnightblue" d="M873.137,-279.594C850.31,-272.924 823.678,-261.879 805,-244 788.575,-228.278 780.78,-201.577 777.694,-187.802"/>
<polygon fill="midnightblue" stroke="midnightblue" points="872.414,-283.025 882.983,-282.276 874.254,-276.271 872.414,-283.025"/>
</g>
<!-- Node23&#45;&gt;Node12 -->
<g id="edge46" class="edge"><title>Node23&#45;&gt;Node12</title>
<path fill="none" stroke="midnightblue" d="M965.507,-283.831C1001.51,-278.219 1051.54,-266.797 1090,-244 1119.48,-226.525 1123.55,-216.214 1143,-188 1178.98,-135.813 1231.21,-109.359 1197,-56 1183.05,-34.2508 1155.67,-22.8735 1133.38,-17.0059"/>
<polygon fill="midnightblue" stroke="midnightblue" points="964.668,-280.416 955.281,-285.328 965.682,-287.343 964.668,-280.416"/>
</g>
<!-- Node24 -->
<g id="node24" class="node"><title>Node24</title>
<g id="a_node24"><a xlink:href="ccf__group_8cc.xhtml" target="_top" xlink:title="Implementation of various common cause failure models. ">
<polygon fill="white" stroke="black" points="914.5,-224.5 914.5,-243.5 991.5,-243.5 991.5,-224.5 914.5,-224.5"/>
<text text-anchor="middle" x="953" y="-231.5" font-family="Helvetica,sans-Serif" font-size="10.00">ccf_group.cc</text>
</a>
</g>
</g>
<!-- Node23&#45;&gt;Node24 -->
<g id="edge37" class="edge"><title>Node23&#45;&gt;Node24</title>
<path fill="none" stroke="midnightblue" d="M929.977,-271.566C935.827,-262.275 942.77,-251.248 947.49,-243.751"/>
<polygon fill="midnightblue" stroke="midnightblue" points="926.981,-269.756 924.614,-280.083 932.904,-273.486 926.981,-269.756"/>
</g>
<!-- Node23&#45;&gt;Node25 -->
<g id="edge38" class="edge"><title>Node23&#45;&gt;Node25</title>
<path fill="none" stroke="midnightblue" d="M948.16,-276.503C971.781,-266.38 1004.43,-252.388 1025.13,-243.516"/>
<polygon fill="midnightblue" stroke="midnightblue" points="946.778,-273.287 938.965,-280.444 949.535,-279.721 946.778,-273.287"/>
</g>
<!-- Node25&#45;&gt;Node5 -->
<g id="edge40" class="edge"><title>Node25&#45;&gt;Node5</title>
<path fill="none" stroke="midnightblue" d="M1023.28,-218.903C998.592,-203.633 956.586,-179.869 917,-168 780.756,-127.15 740.238,-148.821 599,-132 586.491,-130.51 572.768,-128.811 560.689,-127.293"/>
<polygon fill="midnightblue" stroke="midnightblue" points="1021.52,-221.932 1031.85,-224.297 1025.25,-216.008 1021.52,-221.932"/>
</g>
<!-- Node25&#45;&gt;Node8 -->
<g id="edge41" class="edge"><title>Node25&#45;&gt;Node8</title>
<path fill="none" stroke="midnightblue" d="M999.166,-223.855C915.285,-207.552 892.63,-205.339 813,-188 810.158,-187.381 807.2,-186.709 804.249,-186.021"/>
<polygon fill="midnightblue" stroke="midnightblue" points="998.658,-227.322 1009.14,-225.804 1000,-220.452 998.658,-227.322"/>
</g>
<!-- Node25&#45;&gt;Node14 -->
<g id="edge42" class="edge"><title>Node25&#45;&gt;Node14</title>
<path fill="none" stroke="midnightblue" d="M1039.28,-214.38C1029.58,-183.996 1009.37,-125.754 993,-112 981.904,-102.678 900.857,-85.7316 848.26,-75.5056"/>
<polygon fill="midnightblue" stroke="midnightblue" points="1036.02,-215.684 1042.35,-224.179 1042.7,-213.59 1036.02,-215.684"/>
</g>
<!-- Node25&#45;&gt;Node16 -->
<g id="edge43" class="edge"><title>Node25&#45;&gt;Node16</title>
<path fill="none" stroke="midnightblue" d="M1082.2,-220.493C1097.8,-213.375 1114.69,-202.849 1125,-188 1149.75,-152.372 1147.12,-96.6899 1145.03,-75.5391"/>
<polygon fill="midnightblue" stroke="midnightblue" points="1080.57,-217.381 1072.71,-224.492 1083.29,-223.83 1080.57,-217.381"/>
</g>
<!-- Node26 -->
<g id="node26" class="node"><title>Node26</title>
<g id="a_node26"><a xlink:href="fault__tree_8cc.xhtml" target="_top" xlink:title="Implementation of fault tree and component containers. ">
<polygon fill="white" stroke="black" points="1040,-168.5 1040,-187.5 1116,-187.5 1116,-168.5 1040,-168.5"/>
<text text-anchor="middle" x="1078" y="-175.5" font-family="Helvetica,sans-Serif" font-size="10.00">fault_tree.cc</text>
</a>
</g>
</g>
<!-- Node25&#45;&gt;Node26 -->
<g id="edge39" class="edge"><title>Node25&#45;&gt;Node26</title>
<path fill="none" stroke="midnightblue" d="M1055.83,-215.275C1061.47,-206.045 1068.12,-195.17 1072.65,-187.751"/>
<polygon fill="midnightblue" stroke="midnightblue" points="1052.68,-213.725 1050.45,-224.083 1058.65,-217.375 1052.68,-213.725"/>
</g>
<!-- Node30&#45;&gt;Node5 -->
<g id="edge57" class="edge"><title>Node30&#45;&gt;Node5</title>
<path fill="none" stroke="midnightblue" d="M819.938,-221.241C753.566,-198.983 611.004,-151.172 552.675,-131.61"/>
<polygon fill="midnightblue" stroke="midnightblue" points="818.941,-224.599 829.535,-224.46 821.167,-217.962 818.941,-224.599"/>
</g>
<!-- Node30&#45;&gt;Node8 -->
<g id="edge56" class="edge"><title>Node30&#45;&gt;Node8</title>
<path fill="none" stroke="midnightblue" d="M833.966,-218.622C819.534,-208.757 800.859,-195.992 788.661,-187.655"/>
<polygon fill="midnightblue" stroke="midnightblue" points="832.077,-221.57 842.307,-224.324 836.027,-215.791 832.077,-221.57"/>
</g>
<!-- Node30&#45;&gt;Node10 -->
<g id="edge58" class="edge"><title>Node30&#45;&gt;Node10</title>
<path fill="none" stroke="midnightblue" d="M878.535,-219.079C890.913,-211.02 905.798,-200.09 917,-188 933.391,-170.311 946.693,-144.92 953.014,-131.72"/>
<polygon fill="midnightblue" stroke="midnightblue" points="876.654,-216.128 870.055,-224.417 880.382,-222.053 876.654,-216.128"/>
</g>
<!-- Node31 -->
<g id="node31" class="node"><title>Node31</title>
<g id="a_node31"><a xlink:href="substitution_8cc.xhtml" target="_top" xlink:title="Implementation of Substitution members. ">
<polygon fill="white" stroke="black" points="822,-168.5 822,-187.5 908,-187.5 908,-168.5 822,-168.5"/>
<text text-anchor="middle" x="865" y="-175.5" font-family="Helvetica,sans-Serif" font-size="10.00">substitution.cc</text>
</a>
</g>
</g>
<!-- Node30&#45;&gt;Node31 -->
<g id="edge59" class="edge"><title>Node30&#45;&gt;Node31</title>
<path fill="none" stroke="midnightblue" d="M858.5,-214.101C860.16,-205.136 862.063,-194.858 863.379,-187.751"/>
<polygon fill="midnightblue" stroke="midnightblue" points="855.031,-213.613 856.651,-224.083 861.914,-214.888 855.031,-213.613"/>
</g>
</g>
</svg>
