<?xml version="1.0" encoding="UTF-8" standalone="no"?>
<!DOCTYPE svg PUBLIC "-//W3C//DTD SVG 1.1//EN"
 "http://www.w3.org/Graphics/SVG/1.1/DTD/svg11.dtd">
<!-- Generated by graphviz version 2.38.0 (20140413.2041)
 -->
<!-- Title: event.h Pages: 1 -->
<svg width="1804pt" height="218pt"
 viewBox="0.00 0.00 1803.60 218.00" xmlns="http://www.w3.org/2000/svg" xmlns:xlink="http://www.w3.org/1999/xlink">
<g id="graph0" class="graph" transform="scale(1 1) rotate(0) translate(4 214)">
<title>event.h</title>
<polygon fill="white" stroke="none" points="-4,4 -4,-214 1799.6,-214 1799.6,4 -4,4"/>
<!-- Node1 -->
<g id="node1" class="node"><title>Node1</title>
<polygon fill="#bfbfbf" stroke="black" points="936.099,-190.5 936.099,-209.5 989.099,-209.5 989.099,-190.5 936.099,-190.5"/>
<text text-anchor="middle" x="962.599" y="-197.5" font-family="Helvetica,sans-Serif" font-size="10.00">event.h</text>
</g>
<!-- Node2 -->
<g id="node2" class="node"><title>Node2</title>
<polygon fill="white" stroke="#bfbfbf" points="17.0993,-73 17.0993,-92 66.0993,-92 66.0993,-73 17.0993,-73"/>
<text text-anchor="middle" x="41.5993" y="-80" font-family="Helvetica,sans-Serif" font-size="10.00">cstdint</text>
</g>
<!-- Node1&#45;&gt;Node2 -->
<g id="edge1" class="edge"><title>Node1&#45;&gt;Node2</title>
<path fill="none" stroke="midnightblue" d="M936.032,-198.926C845.7,-198.31 542.32,-193.251 295.599,-154 195.531,-138.08 170.423,-130.938 74.5993,-98 72.7352,-97.3592 70.8301,-96.6566 68.9225,-95.917"/>
<polygon fill="midnightblue" stroke="midnightblue" points="70.1179,-92.6238 59.5399,-92.027 67.4369,-99.0901 70.1179,-92.6238"/>
</g>
<!-- Node3 -->
<g id="node3" class="node"><title>Node3</title>
<polygon fill="white" stroke="#bfbfbf" points="1237.1,-6 1237.1,-25 1314.1,-25 1314.1,-6 1237.1,-6"/>
<text text-anchor="middle" x="1275.6" y="-13" font-family="Helvetica,sans-Serif" font-size="10.00">initializer_list</text>
</g>
<!-- Node1&#45;&gt;Node3 -->
<g id="edge2" class="edge"><title>Node1&#45;&gt;Node3</title>
<path fill="none" stroke="midnightblue" d="M981.767,-190.451C1017.86,-174.1 1097.99,-136.574 1161.6,-98 1196.49,-76.8385 1234.6,-48.4193 1256.73,-31.3378"/>
<polygon fill="midnightblue" stroke="midnightblue" points="1258.91,-34.079 1264.66,-25.1783 1254.61,-28.5524 1258.91,-34.079"/>
</g>
<!-- Node4 -->
<g id="node4" class="node"><title>Node4</title>
<polygon fill="white" stroke="#bfbfbf" points="84.0993,-73 84.0993,-92 141.099,-92 141.099,-73 84.0993,-73"/>
<text text-anchor="middle" x="112.599" y="-80" font-family="Helvetica,sans-Serif" font-size="10.00">memory</text>
</g>
<!-- Node1&#45;&gt;Node4 -->
<g id="edge3" class="edge"><title>Node1&#45;&gt;Node4</title>
<path fill="none" stroke="midnightblue" d="M935.961,-197.795C858.052,-194.044 623.978,-181.167 431.599,-154 305.074,-136.133 272.234,-133.898 149.599,-98 147.166,-97.2877 144.669,-96.4811 142.176,-95.6219"/>
<polygon fill="midnightblue" stroke="midnightblue" points="143.324,-92.3148 132.73,-92.1362 140.9,-98.8819 143.324,-92.3148"/>
</g>
<!-- Node5 -->
<g id="node5" class="node"><title>Node5</title>
<polygon fill="white" stroke="#bfbfbf" points="159.099,-73 159.099,-92 214.099,-92 214.099,-73 159.099,-73"/>
<text text-anchor="middle" x="186.599" y="-80" font-family="Helvetica,sans-Serif" font-size="10.00">optional</text>
</g>
<!-- Node1&#45;&gt;Node5 -->
<g id="edge4" class="edge"><title>Node1&#45;&gt;Node5</title>
<path fill="none" stroke="midnightblue" d="M935.891,-196.211C820.379,-184.017 363.326,-134.373 223.599,-98 220.937,-97.3069 218.206,-96.478 215.493,-95.5723"/>
<polygon fill="midnightblue" stroke="midnightblue" points="216.492,-92.2107 205.898,-92.0617 214.086,-98.7846 216.492,-92.2107"/>
</g>
<!-- Node6 -->
<g id="node6" class="node"><title>Node6</title>
<polygon fill="white" stroke="#bfbfbf" points="156.599,-6 156.599,-25 200.599,-25 200.599,-6 156.599,-6"/>
<text text-anchor="middle" x="178.599" y="-13" font-family="Helvetica,sans-Serif" font-size="10.00">string</text>
</g>
<!-- Node1&#45;&gt;Node6 -->
<g id="edge5" class="edge"><title>Node1&#45;&gt;Node6</title>
<path fill="none" stroke="midnightblue" d="M935.863,-198.321C817.012,-195.17 335.948,-180.966 187.599,-154 105.168,-139.016 57.2693,-165.471 7.59932,-98 -30.1974,-46.6573 87.3108,-26.3384 146.584,-19.4994"/>
<polygon fill="midnightblue" stroke="midnightblue" points="147.023,-22.9724 156.585,-18.4095 146.264,-16.0136 147.023,-22.9724"/>
</g>
<!-- Node7 -->
<g id="node7" class="node"><title>Node7</title>
<polygon fill="white" stroke="#bfbfbf" points="1397.6,-6 1397.6,-25 1439.6,-25 1439.6,-6 1397.6,-6"/>
<text text-anchor="middle" x="1418.6" y="-13" font-family="Helvetica,sans-Serif" font-size="10.00">utility</text>
</g>
<!-- Node1&#45;&gt;Node7 -->
<g id="edge6" class="edge"><title>Node1&#45;&gt;Node7</title>
<path fill="none" stroke="midnightblue" d="M989.1,-198.782C1045.57,-197.582 1181.27,-190.756 1287.6,-154 1334.28,-137.862 1350.87,-134.999 1383.6,-98 1399.82,-79.6602 1409.39,-52.6627 1414.32,-34.8366"/>
<polygon fill="midnightblue" stroke="midnightblue" points="1417.73,-35.6365 1416.8,-25.082 1410.94,-33.9089 1417.73,-35.6365"/>
</g>
<!-- Node8 -->
<g id="node8" class="node"><title>Node8</title>
<polygon fill="white" stroke="#bfbfbf" points="1487.6,-134.5 1487.6,-153.5 1537.6,-153.5 1537.6,-134.5 1487.6,-134.5"/>
<text text-anchor="middle" x="1512.6" y="-141.5" font-family="Helvetica,sans-Serif" font-size="10.00">variant</text>
</g>
<!-- Node1&#45;&gt;Node8 -->
<g id="edge7" class="edge"><title>Node1&#45;&gt;Node8</title>
<path fill="none" stroke="midnightblue" d="M989.358,-197.955C1065.51,-194.701 1289.77,-183.161 1473.6,-154 1474.87,-153.798 1476.17,-153.578 1477.47,-153.343"/>
<polygon fill="midnightblue" stroke="midnightblue" points="1478.41,-156.725 1487.52,-151.326 1477.03,-149.862 1478.41,-156.725"/>
</g>
<!-- Node9 -->
<g id="node9" class="node"><title>Node9</title>
<polygon fill="white" stroke="#bfbfbf" points="1332.1,-6 1332.1,-25 1379.1,-25 1379.1,-6 1332.1,-6"/>
<text text-anchor="middle" x="1355.6" y="-13" font-family="Helvetica,sans-Serif" font-size="10.00">vector</text>
</g>
<!-- Node1&#45;&gt;Node9 -->
<g id="edge8" class="edge"><title>Node1&#45;&gt;Node9</title>
<path fill="none" stroke="midnightblue" d="M989.114,-196.494C1071.05,-188.152 1317.53,-158.363 1364.6,-98 1378.65,-79.9831 1371.54,-52.5225 1364.29,-34.5416"/>
<polygon fill="midnightblue" stroke="midnightblue" points="1367.4,-32.9252 1360.16,-25.1932 1361,-35.7546 1367.4,-32.9252"/>
</g>
<!-- Node10 -->
<g id="node10" class="node"><title>Node10</title>
<g id="a_node10"><a xlink:href="element_8h.xhtml" target="_top" xlink:title="Base/mixin classes, structs, and properties common to all MEF classes/constructs. ...">
<polygon fill="white" stroke="black" points="655.099,-134.5 655.099,-153.5 720.099,-153.5 720.099,-134.5 655.099,-134.5"/>
<text text-anchor="middle" x="687.599" y="-141.5" font-family="Helvetica,sans-Serif" font-size="10.00">element.h</text>
</a>
</g>
</g>
<!-- Node1&#45;&gt;Node10 -->
<g id="edge9" class="edge"><title>Node1&#45;&gt;Node10</title>
<path fill="none" stroke="midnightblue" d="M935.981,-193.773C888.169,-184.385 787.394,-164.596 729.987,-153.323"/>
<polygon fill="midnightblue" stroke="midnightblue" points="730.623,-149.882 720.136,-151.389 729.274,-156.75 730.623,-149.882"/>
</g>
<!-- Node29 -->
<g id="node29" class="node"><title>Node29</title>
<g id="a_node29"><a xlink:href="expression_8h.xhtml" target="_top" xlink:title="Provides the base class for all expressions and units for expression values. ">
<polygon fill="white" stroke="black" points="1450.1,-73 1450.1,-92 1527.1,-92 1527.1,-73 1450.1,-73"/>
<text text-anchor="middle" x="1488.6" y="-80" font-family="Helvetica,sans-Serif" font-size="10.00">expression.h</text>
</a>
</g>
</g>
<!-- Node1&#45;&gt;Node29 -->
<g id="edge38" class="edge"><title>Node1&#45;&gt;Node29</title>
<path fill="none" stroke="midnightblue" d="M989.157,-199.241C1077.19,-199.619 1358.23,-197.329 1435.6,-154 1456.62,-142.228 1471.82,-118.294 1480.42,-101.596"/>
<polygon fill="midnightblue" stroke="midnightblue" points="1483.71,-102.833 1484.91,-92.307 1477.41,-99.7865 1483.71,-102.833"/>
</g>
<!-- Node10&#45;&gt;Node2 -->
<g id="edge10" class="edge"><title>Node10&#45;&gt;Node2</title>
<path fill="none" stroke="midnightblue" d="M654.805,-142.06C544.291,-138.664 186.184,-125.737 74.5993,-98 72.2422,-97.4141 69.8413,-96.6725 67.4641,-95.836"/>
<polygon fill="midnightblue" stroke="midnightblue" points="68.5811,-92.5126 57.9978,-92.018 65.9627,-99.0045 68.5811,-92.5126"/>
</g>
<!-- Node10&#45;&gt;Node4 -->
<g id="edge12" class="edge"><title>Node10&#45;&gt;Node4</title>
<path fill="none" stroke="midnightblue" d="M655.036,-141.514C553.984,-136.71 246.713,-120.582 149.599,-98 146.764,-97.3408 143.859,-96.505 140.983,-95.5689"/>
<polygon fill="midnightblue" stroke="midnightblue" points="142.061,-92.2365 131.467,-92.1097 139.669,-98.8154 142.061,-92.2365"/>
</g>
<!-- Node10&#45;&gt;Node5 -->
<g id="edge13" class="edge"><title>Node10&#45;&gt;Node5</title>
<path fill="none" stroke="midnightblue" d="M654.91,-140.242C556.951,-131.915 270.01,-107.046 228.599,-98 225.102,-97.236 221.493,-96.2725 217.926,-95.207"/>
<polygon fill="midnightblue" stroke="midnightblue" points="218.713,-91.7822 208.12,-92.0146 216.546,-98.4384 218.713,-91.7822"/>
</g>
<!-- Node10&#45;&gt;Node6 -->
<g id="edge14" class="edge"><title>Node10&#45;&gt;Node6</title>
<path fill="none" stroke="midnightblue" d="M655.07,-140.154C558.552,-131.631 279.382,-106.388 261.599,-98 245.475,-90.3939 212.111,-54.5115 192.957,-32.9751"/>
<polygon fill="midnightblue" stroke="midnightblue" points="195.392,-30.4446 186.155,-25.2567 190.141,-35.073 195.392,-30.4446"/>
</g>
<!-- Node10&#45;&gt;Node9 -->
<g id="edge17" class="edge"><title>Node10&#45;&gt;Node9</title>
<path fill="none" stroke="midnightblue" d="M720.347,-143.233C798.129,-143.07 999.589,-138.42 1161.6,-98 1224.94,-82.1969 1294.38,-48.7442 1330.54,-29.9826"/>
<polygon fill="midnightblue" stroke="midnightblue" points="1332.6,-32.8553 1339.83,-25.1073 1329.35,-26.6578 1332.6,-32.8553"/>
</g>
<!-- Node11 -->
<g id="node11" class="node"><title>Node11</title>
<polygon fill="white" stroke="#bfbfbf" points="271.099,-73 271.099,-92 334.099,-92 334.099,-73 271.099,-73"/>
<text text-anchor="middle" x="302.599" y="-80" font-family="Helvetica,sans-Serif" font-size="10.00">functional</text>
</g>
<!-- Node10&#45;&gt;Node11 -->
<g id="edge11" class="edge"><title>Node10&#45;&gt;Node11</title>
<path fill="none" stroke="midnightblue" d="M654.836,-139.649C580.626,-131.909 401.583,-112.355 342.599,-98 339.54,-97.2555 336.391,-96.3569 333.266,-95.3761"/>
<polygon fill="midnightblue" stroke="midnightblue" points="334.104,-91.964 323.509,-92.0518 331.846,-98.59 334.104,-91.964"/>
</g>
<!-- Node12 -->
<g id="node12" class="node"><title>Node12</title>
<polygon fill="white" stroke="#bfbfbf" points="352.099,-73 352.099,-92 421.099,-92 421.099,-73 352.099,-73"/>
<text text-anchor="middle" x="386.599" y="-80" font-family="Helvetica,sans-Serif" font-size="10.00">string_view</text>
</g>
<!-- Node10&#45;&gt;Node12 -->
<g id="edge15" class="edge"><title>Node10&#45;&gt;Node12</title>
<path fill="none" stroke="midnightblue" d="M654.825,-138.814C605.667,-132.187 510.122,-117.953 430.599,-98 427.22,-97.1522 423.725,-96.1762 420.25,-95.1397"/>
<polygon fill="midnightblue" stroke="midnightblue" points="421.211,-91.773 410.622,-92.1143 419.113,-98.4511 421.211,-91.773"/>
</g>
<!-- Node13 -->
<g id="node13" class="node"><title>Node13</title>
<polygon fill="white" stroke="#bfbfbf" points="439.599,-73 439.599,-92 507.599,-92 507.599,-73 439.599,-73"/>
<text text-anchor="middle" x="473.599" y="-80" font-family="Helvetica,sans-Serif" font-size="10.00">type_traits</text>
</g>
<!-- Node10&#45;&gt;Node13 -->
<g id="edge16" class="edge"><title>Node10&#45;&gt;Node13</title>
<path fill="none" stroke="midnightblue" d="M654.952,-135.109C620.404,-126.596 564.383,-112.326 516.599,-98 513.675,-97.1233 510.651,-96.1798 507.624,-95.2097"/>
<polygon fill="midnightblue" stroke="midnightblue" points="508.659,-91.8656 498.066,-92.0705 506.474,-98.5161 508.659,-91.8656"/>
</g>
<!-- Node14 -->
<g id="node14" class="node"><title>Node14</title>
<polygon fill="white" stroke="#bfbfbf" points="525.599,-67.5 525.599,-97.5 645.599,-97.5 645.599,-67.5 525.599,-67.5"/>
<text text-anchor="start" x="533.599" y="-85.5" font-family="Helvetica,sans-Serif" font-size="10.00">boost/iterator/iterator</text>
<text text-anchor="middle" x="585.599" y="-74.5" font-family="Helvetica,sans-Serif" font-size="10.00">_facade.hpp</text>
</g>
<!-- Node10&#45;&gt;Node14 -->
<g id="edge18" class="edge"><title>Node10&#45;&gt;Node14</title>
<path fill="none" stroke="midnightblue" d="M672.985,-134.475C658.783,-126.191 636.727,-113.325 618.327,-102.591"/>
<polygon fill="midnightblue" stroke="midnightblue" points="620.04,-99.5385 609.639,-97.523 616.513,-105.585 620.04,-99.5385"/>
</g>
<!-- Node15 -->
<g id="node15" class="node"><title>Node15</title>
<polygon fill="white" stroke="#bfbfbf" points="845.599,-67.5 845.599,-97.5 985.599,-97.5 985.599,-67.5 845.599,-67.5"/>
<text text-anchor="start" x="853.599" y="-85.5" font-family="Helvetica,sans-Serif" font-size="10.00">boost/multi_index/hashed</text>
<text text-anchor="middle" x="915.599" y="-74.5" font-family="Helvetica,sans-Serif" font-size="10.00">_index.hpp</text>
</g>
<!-- Node10&#45;&gt;Node15 -->
<g id="edge19" class="edge"><title>Node10&#45;&gt;Node15</title>
<path fill="none" stroke="midnightblue" d="M720.266,-134.475C754.537,-125.532 809.268,-111.249 852.09,-100.074"/>
<polygon fill="midnightblue" stroke="midnightblue" points="853.072,-103.435 861.864,-97.523 851.304,-96.6615 853.072,-103.435"/>
</g>
<!-- Node16 -->
<g id="node16" class="node"><title>Node16</title>
<polygon fill="white" stroke="#bfbfbf" points="1003.6,-67.5 1003.6,-97.5 1133.6,-97.5 1133.6,-67.5 1003.6,-67.5"/>
<text text-anchor="start" x="1011.6" y="-85.5" font-family="Helvetica,sans-Serif" font-size="10.00">boost/multi_index/mem</text>
<text text-anchor="middle" x="1068.6" y="-74.5" font-family="Helvetica,sans-Serif" font-size="10.00">_fun.hpp</text>
</g>
<!-- Node10&#45;&gt;Node16 -->
<g id="edge20" class="edge"><title>Node10&#45;&gt;Node16</title>
<path fill="none" stroke="midnightblue" d="M720.394,-138.719C774.877,-131.492 887.704,-116.045 993.088,-98.2122"/>
<polygon fill="midnightblue" stroke="midnightblue" points="993.99,-101.609 1003.26,-96.4792 992.815,-94.7084 993.99,-101.609"/>
</g>
<!-- Node17 -->
<g id="node17" class="node"><title>Node17</title>
<polygon fill="white" stroke="#bfbfbf" points="1046.6,-6 1046.6,-25 1218.6,-25 1218.6,-6 1046.6,-6"/>
<text text-anchor="middle" x="1132.6" y="-13" font-family="Helvetica,sans-Serif" font-size="10.00">boost/multi_index_container.hpp</text>
</g>
<!-- Node10&#45;&gt;Node17 -->
<g id="edge21" class="edge"><title>Node10&#45;&gt;Node17</title>
<path fill="none" stroke="midnightblue" d="M720.446,-142.241C820.162,-139.603 1114.32,-129.215 1142.6,-98 1158.1,-80.8855 1149.98,-52.7947 1141.93,-34.4731"/>
<polygon fill="midnightblue" stroke="midnightblue" points="1145.08,-32.9466 1137.61,-25.4312 1138.76,-35.9633 1145.08,-32.9466"/>
</g>
<!-- Node18 -->
<g id="node18" class="node"><title>Node18</title>
<polygon fill="white" stroke="#bfbfbf" points="1667.6,-6 1667.6,-25 1795.6,-25 1795.6,-6 1667.6,-6"/>
<text text-anchor="middle" x="1731.6" y="-13" font-family="Helvetica,sans-Serif" font-size="10.00">boost/noncopyable.hpp</text>
</g>
<!-- Node10&#45;&gt;Node18 -->
<g id="edge22" class="edge"><title>Node10&#45;&gt;Node18</title>
<path fill="none" stroke="midnightblue" d="M720.515,-142.745C856.676,-141.461 1376.2,-134.237 1535.6,-98 1600.25,-83.3011 1670.84,-49.0062 1707.09,-29.9208"/>
<polygon fill="midnightblue" stroke="midnightblue" points="1708.78,-32.9871 1715.95,-25.1935 1705.48,-26.8104 1708.78,-32.9871"/>
</g>
<!-- Node19 -->
<g id="node19" class="node"><title>Node19</title>
<g id="a_node19"><a xlink:href="error_8h.xhtml" target="_top" xlink:title="Exceptions for SCRAM. ">
<polygon fill="white" stroke="black" points="663.599,-73 663.599,-92 711.599,-92 711.599,-73 663.599,-73"/>
<text text-anchor="middle" x="687.599" y="-80" font-family="Helvetica,sans-Serif" font-size="10.00">error.h</text>
</a>
</g>
</g>
<!-- Node10&#45;&gt;Node19 -->
<g id="edge23" class="edge"><title>Node10&#45;&gt;Node19</title>
<path fill="none" stroke="midnightblue" d="M687.599,-134.475C687.599,-126.08 687.599,-112.981 687.599,-102.163"/>
<polygon fill="midnightblue" stroke="midnightblue" points="691.099,-102.009 687.599,-92.0091 684.099,-102.009 691.099,-102.009"/>
</g>
<!-- Node26 -->
<g id="node26" class="node"><title>Node26</title>
<g id="a_node26"><a xlink:href="linear__set_8h.xhtml" target="_top" xlink:title="Implementation of a vector&#45;based set for a small number of entries. ">
<polygon fill="white" stroke="black" points="1265.6,-73 1265.6,-92 1355.6,-92 1355.6,-73 1265.6,-73"/>
<text text-anchor="middle" x="1310.6" y="-80" font-family="Helvetica,sans-Serif" font-size="10.00">ext/linear_set.h</text>
</a>
</g>
</g>
<!-- Node10&#45;&gt;Node26 -->
<g id="edge31" class="edge"><title>Node10&#45;&gt;Node26</title>
<path fill="none" stroke="midnightblue" d="M720.296,-140.923C803.048,-135.509 1027.45,-119.854 1213.6,-98 1227.08,-96.4179 1241.56,-94.4158 1255.12,-92.4084"/>
<polygon fill="midnightblue" stroke="midnightblue" points="1255.91,-95.829 1265.28,-90.8792 1254.87,-88.907 1255.91,-95.829"/>
</g>
<!-- Node28 -->
<g id="node28" class="node"><title>Node28</title>
<g id="a_node28"><a xlink:href="multi__index_8h.xhtml" target="_top" xlink:title="Helper functions to boost multi_index_container. ">
<polygon fill="white" stroke="black" points="729.599,-73 729.599,-92 827.599,-92 827.599,-73 729.599,-73"/>
<text text-anchor="middle" x="778.599" y="-80" font-family="Helvetica,sans-Serif" font-size="10.00">ext/multi_index.h</text>
</a>
</g>
</g>
<!-- Node10&#45;&gt;Node28 -->
<g id="edge36" class="edge"><title>Node10&#45;&gt;Node28</title>
<path fill="none" stroke="midnightblue" d="M700.637,-134.475C715.369,-124.843 739.573,-109.017 757.109,-97.5517"/>
<polygon fill="midnightblue" stroke="midnightblue" points="759.131,-100.411 765.585,-92.0091 755.3,-94.5522 759.131,-100.411"/>
</g>
<!-- Node19&#45;&gt;Node6 -->
<g id="edge25" class="edge"><title>Node19&#45;&gt;Node6</title>
<path fill="none" stroke="midnightblue" d="M670.856,-72.8558C665.76,-70.5805 660.06,-68.379 654.599,-67 462.215,-18.4167 401.399,-81.8415 209.599,-31 207.618,-30.4748 205.608,-29.8278 203.612,-29.1013"/>
<polygon fill="midnightblue" stroke="midnightblue" points="204.533,-25.6901 193.961,-25.0035 201.797,-32.1334 204.533,-25.6901"/>
</g>
<!-- Node20 -->
<g id="node20" class="node"><title>Node20</title>
<polygon fill="white" stroke="#bfbfbf" points="335.099,-6 335.099,-25 398.099,-25 398.099,-6 335.099,-6"/>
<text text-anchor="middle" x="366.599" y="-13" font-family="Helvetica,sans-Serif" font-size="10.00">exception</text>
</g>
<!-- Node19&#45;&gt;Node20 -->
<g id="edge24" class="edge"><title>Node19&#45;&gt;Node20</title>
<path fill="none" stroke="midnightblue" d="M670.456,-72.9241C665.446,-70.7064 659.893,-68.5185 654.599,-67 547.963,-36.4095 515.296,-57.6212 407.599,-31 404.546,-30.2453 401.401,-29.3523 398.275,-28.3859"/>
<polygon fill="midnightblue" stroke="midnightblue" points="399.082,-24.9658 388.488,-25.129 396.871,-31.6077 399.082,-24.9658"/>
</g>
<!-- Node21 -->
<g id="node21" class="node"><title>Node21</title>
<polygon fill="white" stroke="#bfbfbf" points="416.599,-6 416.599,-25 562.599,-25 562.599,-6 416.599,-6"/>
<text text-anchor="middle" x="489.599" y="-13" font-family="Helvetica,sans-Serif" font-size="10.00">boost/current_function.hpp</text>
</g>
<!-- Node19&#45;&gt;Node21 -->
<g id="edge26" class="edge"><title>Node19&#45;&gt;Node21</title>
<path fill="none" stroke="midnightblue" d="M669.255,-72.9854C664.524,-70.9156 659.41,-68.7861 654.599,-67 613.241,-51.6445 564.864,-37.2443 531.23,-27.7817"/>
<polygon fill="midnightblue" stroke="midnightblue" points="531.862,-24.3244 521.289,-25.0079 529.981,-31.0668 531.862,-24.3244"/>
</g>
<!-- Node22 -->
<g id="node22" class="node"><title>Node22</title>
<polygon fill="white" stroke="#bfbfbf" points="580.599,-6 580.599,-25 744.599,-25 744.599,-6 580.599,-6"/>
<text text-anchor="middle" x="662.599" y="-13" font-family="Helvetica,sans-Serif" font-size="10.00">boost/exception/exception.hpp</text>
</g>
<!-- Node19&#45;&gt;Node22 -->
<g id="edge27" class="edge"><title>Node19&#45;&gt;Node22</title>
<path fill="none" stroke="midnightblue" d="M684.228,-72.7338C680.479,-62.9877 674.323,-46.9805 669.535,-34.5318"/>
<polygon fill="midnightblue" stroke="midnightblue" points="672.774,-33.2043 665.918,-25.1273 666.241,-35.7172 672.774,-33.2043"/>
</g>
<!-- Node23 -->
<g id="node23" class="node"><title>Node23</title>
<polygon fill="white" stroke="#bfbfbf" points="762.599,-6 762.599,-25 896.599,-25 896.599,-6 762.599,-6"/>
<text text-anchor="middle" x="829.599" y="-13" font-family="Helvetica,sans-Serif" font-size="10.00">boost/exception/info.hpp</text>
</g>
<!-- Node19&#45;&gt;Node23 -->
<g id="edge28" class="edge"><title>Node19&#45;&gt;Node23</title>
<path fill="none" stroke="midnightblue" d="M706.456,-72.8685C730.751,-61.7476 773.2,-42.3167 801.355,-29.4286"/>
<polygon fill="midnightblue" stroke="midnightblue" points="803.029,-32.5118 810.665,-25.1672 800.115,-26.147 803.029,-32.5118"/>
</g>
<!-- Node24 -->
<g id="node24" class="node"><title>Node24</title>
<polygon fill="white" stroke="#bfbfbf" points="915.099,-0.5 915.099,-30.5 1028.1,-30.5 1028.1,-0.5 915.099,-0.5"/>
<text text-anchor="start" x="923.099" y="-18.5" font-family="Helvetica,sans-Serif" font-size="10.00">boost/exception/info</text>
<text text-anchor="middle" x="971.599" y="-7.5" font-family="Helvetica,sans-Serif" font-size="10.00">_tuple.hpp</text>
</g>
<!-- Node19&#45;&gt;Node24 -->
<g id="edge29" class="edge"><title>Node19&#45;&gt;Node24</title>
<path fill="none" stroke="midnightblue" d="M705.134,-72.9348C710.053,-70.7698 715.463,-68.6063 720.599,-67 797.579,-42.9261 821.788,-47.5864 905.181,-31.0207"/>
<polygon fill="midnightblue" stroke="midnightblue" points="905.989,-34.4281 915.093,-29.008 904.596,-27.5681 905.989,-34.4281"/>
</g>
<!-- Node25 -->
<g id="node25" class="node"><title>Node25</title>
<g id="a_node25"><a xlink:href="source__info_8h.xhtml" target="_top" xlink:title="Helper facilities to get source file information. ">
<polygon fill="white" stroke="black" points="218.599,-6 218.599,-25 316.599,-25 316.599,-6 218.599,-6"/>
<text text-anchor="middle" x="267.599" y="-13" font-family="Helvetica,sans-Serif" font-size="10.00">ext/source_info.h</text>
</a>
</g>
</g>
<!-- Node19&#45;&gt;Node25 -->
<g id="edge30" class="edge"><title>Node19&#45;&gt;Node25</title>
<path fill="none" stroke="midnightblue" d="M670.83,-72.953C665.734,-70.6804 660.04,-68.456 654.599,-67 512.505,-28.9724 470.397,-56.8977 325.599,-31 320.044,-30.0064 314.231,-28.7806 308.522,-27.4663"/>
<polygon fill="midnightblue" stroke="midnightblue" points="308.976,-23.9756 298.435,-25.0357 307.337,-30.7808 308.976,-23.9756"/>
</g>
<!-- Node26&#45;&gt;Node3 -->
<g id="edge33" class="edge"><title>Node26&#45;&gt;Node3</title>
<path fill="none" stroke="midnightblue" d="M1305.88,-72.7338C1300.58,-62.8903 1291.84,-46.6598 1285.11,-34.1594"/>
<polygon fill="midnightblue" stroke="midnightblue" points="1288.07,-32.2727 1280.24,-25.1273 1281.9,-35.5914 1288.07,-32.2727"/>
</g>
<!-- Node26&#45;&gt;Node7 -->
<g id="edge34" class="edge"><title>Node26&#45;&gt;Node7</title>
<path fill="none" stroke="midnightblue" d="M1325.16,-72.7338C1343.22,-61.8669 1374.21,-43.2161 1395.52,-30.3931"/>
<polygon fill="midnightblue" stroke="midnightblue" points="1397.5,-33.2827 1404.26,-25.1273 1393.89,-27.2852 1397.5,-33.2827"/>
</g>
<!-- Node26&#45;&gt;Node9 -->
<g id="edge35" class="edge"><title>Node26&#45;&gt;Node9</title>
<path fill="none" stroke="midnightblue" d="M1316.67,-72.7338C1323.62,-62.6953 1335.17,-46.0145 1343.88,-33.4213"/>
<polygon fill="midnightblue" stroke="midnightblue" points="1346.81,-35.3415 1349.63,-25.1273 1341.06,-31.357 1346.81,-35.3415"/>
</g>
<!-- Node27 -->
<g id="node27" class="node"><title>Node27</title>
<polygon fill="white" stroke="#bfbfbf" points="1457.6,-6 1457.6,-25 1519.6,-25 1519.6,-6 1457.6,-6"/>
<text text-anchor="middle" x="1488.6" y="-13" font-family="Helvetica,sans-Serif" font-size="10.00">algorithm</text>
</g>
<!-- Node26&#45;&gt;Node27 -->
<g id="edge32" class="edge"><title>Node26&#45;&gt;Node27</title>
<path fill="none" stroke="midnightblue" d="M1334.24,-72.8685C1365.31,-61.5219 1420.07,-41.5246 1455.32,-28.6522"/>
<polygon fill="midnightblue" stroke="midnightblue" points="1456.96,-31.7815 1465.15,-25.0637 1454.55,-25.2062 1456.96,-31.7815"/>
</g>
<!-- Node28&#45;&gt;Node17 -->
<g id="edge37" class="edge"><title>Node28&#45;&gt;Node17</title>
<path fill="none" stroke="midnightblue" d="M811.015,-72.9341C819.326,-70.8653 828.27,-68.7491 836.599,-67 880.027,-57.8807 996.598,-38.5572 1069.82,-26.6342"/>
<polygon fill="midnightblue" stroke="midnightblue" points="1070.55,-30.0625 1079.86,-25.0028 1069.42,-23.1533 1070.55,-30.0625"/>
</g>
<!-- Node29&#45;&gt;Node7 -->
<g id="edge40" class="edge"><title>Node29&#45;&gt;Node7</title>
<path fill="none" stroke="midnightblue" d="M1479.16,-72.7338C1467.93,-62.3055 1448.98,-44.7088 1435.26,-31.9732"/>
<polygon fill="midnightblue" stroke="midnightblue" points="1437.6,-29.3671 1427.89,-25.1273 1432.84,-34.4966 1437.6,-29.3671"/>
</g>
<!-- Node29&#45;&gt;Node9 -->
<g id="edge41" class="edge"><title>Node29&#45;&gt;Node9</title>
<path fill="none" stroke="midnightblue" d="M1470.94,-72.8685C1448.28,-61.7961 1408.77,-42.4862 1382.4,-29.5978"/>
<polygon fill="midnightblue" stroke="midnightblue" points="1383.86,-26.4136 1373.33,-25.1672 1380.78,-32.7027 1383.86,-26.4136"/>
</g>
<!-- Node29&#45;&gt;Node18 -->
<g id="edge43" class="edge"><title>Node29&#45;&gt;Node18</title>
<path fill="none" stroke="midnightblue" d="M1520.62,-72.9355C1564.05,-61.3171 1641.72,-40.5409 1689.74,-27.6975"/>
<polygon fill="midnightblue" stroke="midnightblue" points="1690.75,-31.0487 1699.51,-25.0834 1688.95,-24.2864 1690.75,-31.0487"/>
</g>
<!-- Node29&#45;&gt;Node27 -->
<g id="edge39" class="edge"><title>Node29&#45;&gt;Node27</title>
<path fill="none" stroke="midnightblue" d="M1488.6,-72.7338C1488.6,-63.1826 1488.6,-47.6183 1488.6,-35.2829"/>
<polygon fill="midnightblue" stroke="midnightblue" points="1492.1,-35.1273 1488.6,-25.1273 1485.1,-35.1273 1492.1,-35.1273"/>
</g>
<!-- Node30 -->
<g id="node30" class="node"><title>Node30</title>
<polygon fill="white" stroke="#bfbfbf" points="1537.6,-0.5 1537.6,-30.5 1649.6,-30.5 1649.6,-0.5 1537.6,-0.5"/>
<text text-anchor="start" x="1545.6" y="-18.5" font-family="Helvetica,sans-Serif" font-size="10.00">boost/icl/continuous</text>
<text text-anchor="middle" x="1593.6" y="-7.5" font-family="Helvetica,sans-Serif" font-size="10.00">_interval.hpp</text>
</g>
<!-- Node29&#45;&gt;Node30 -->
<g id="edge42" class="edge"><title>Node29&#45;&gt;Node30</title>
<path fill="none" stroke="midnightblue" d="M1502.76,-72.7338C1517.91,-63.3581 1542.41,-48.188 1562.15,-35.9658"/>
<polygon fill="midnightblue" stroke="midnightblue" points="1564.18,-38.8285 1570.84,-30.589 1560.5,-32.8767 1564.18,-38.8285"/>
</g>
</g>
</svg>
