<?xml version="1.0" encoding="UTF-8" standalone="no"?>
<!DOCTYPE svg PUBLIC "-//W3C//DTD SVG 1.1//EN"
 "http://www.w3.org/Graphics/SVG/1.1/DTD/svg11.dtd">
<!-- Generated by graphviz version 2.38.0 (20140413.2041)
 -->
<!-- Title: event_tree.cc Pages: 1 -->
<!--zoomable 386 -->
<svg id="main" version="1.1" xmlns="http://www.w3.org/2000/svg" xmlns:xlink="http://www.w3.org/1999/xlink" xml:space="preserve" onload="init(evt)">
<style type="text/css"><![CDATA[
.edge:hover path { stroke: red; }
.edge:hover polygon { stroke: red; fill: red; }
]]></style>
<script type="text/javascript"><![CDATA[
var edges = document.getElementsByTagName('g');
if (edges && edges.length) {
  for (var i=0;i<edges.length;i++) {
    if (edges[i].id.substr(0,4)=='edge') {
      edges[i].setAttribute('class','edge');
    }
  }
}
]]></script>
        <defs>
                <circle id="rim" cx="0" cy="0" r="7"/>
                <circle id="rim2" cx="0" cy="0" r="3.5"/>
                <g id="zoomPlus">
                        <use xlink:href="#rim" fill="#404040">
                                <set attributeName="fill" to="#808080" begin="zoomplus.mouseover" end="zoomplus.mouseout"/>
                        </use>
                        <path d="M-4,0h8M0,-4v8" fill="none" stroke="white" stroke-width="1.5" pointer-events="none"/>
                </g>
                <g id="zoomMin">
                        <use xlink:href="#rim" fill="#404040">
                                <set attributeName="fill" to="#808080" begin="zoomminus.mouseover" end="zoomminus.mouseout"/>
                        </use>
                        <path d="M-4,0h8" fill="none" stroke="white" stroke-width="1.5" pointer-events="none"/>
                </g>
                <g id="dirArrow">
                        <path fill="none" stroke="white" stroke-width="1.5" d="M0,-3.0v7 M-2.5,-0.5L0,-3.0L2.5,-0.5"/>
                </g>
               <g id="resetDef">
                       <use xlink:href="#rim2" fill="#404040">
                               <set attributeName="fill" to="#808080" begin="reset.mouseover" end="reset.mouseout"/>
                       </use>
               </g>
        </defs>

<script type="text/javascript">
var viewWidth = 2715;
var viewHeight = 386;
var sectionId = 'dynsection-0';
</script>
<script xlink:href="svgpan.js"/>
<svg id="graph" class="graph">
<g id="viewport">
<title>event_tree.cc</title>
<polygon fill="white" stroke="none" points="-4,4 -4,-382 2711.46,-382 2711.46,4 -4,4"/>
<!-- Node1 -->
<g id="node1" class="node"><title>Node1</title>
<polygon fill="#bfbfbf" stroke="black" points="562.5,-358.5 562.5,-377.5 644.5,-377.5 644.5,-358.5 562.5,-358.5"/>
<text text-anchor="middle" x="603.5" y="-365.5" font-family="Helvetica,sans-Serif" font-size="10.00">event_tree.cc</text>
</g>
<!-- Node2 -->
<g id="node2" class="node"><title>Node2</title>
<g id="a_node2"><a xlink:href="event__tree_8h.xhtml" target="_top" xlink:title="Event Tree facilities. ">
<polygon fill="white" stroke="black" points="2275,-302.5 2275,-321.5 2352,-321.5 2352,-302.5 2275,-302.5"/>
<text text-anchor="middle" x="2313.5" y="-309.5" font-family="Helvetica,sans-Serif" font-size="10.00">event_tree.h</text>
</a>
</g>
</g>
<!-- Node1&#45;&gt;Node2 -->
<g id="edge1" class="edge"><title>Node1&#45;&gt;Node2</title>
<path fill="none" stroke="midnightblue" d="M644.502,-365.705C875.583,-358.408 2013.85,-322.463 2264.58,-314.545"/>
<polygon fill="midnightblue" stroke="midnightblue" points="2264.95,-318.035 2274.83,-314.221 2264.73,-311.039 2264.95,-318.035"/>
</g>
<!-- Node18 -->
<g id="node18" class="node"><title>Node18</title>
<g id="a_node18"><a xlink:href="error_8h.xhtml" target="_top" xlink:title="Exceptions for SCRAM. ">
<polygon fill="white" stroke="black" points="541.5,-73 541.5,-92 589.5,-92 589.5,-73 541.5,-73"/>
<text text-anchor="middle" x="565.5" y="-80" font-family="Helvetica,sans-Serif" font-size="10.00">error.h</text>
</a>
</g>
</g>
<!-- Node1&#45;&gt;Node18 -->
<g id="edge61" class="edge"><title>Node1&#45;&gt;Node18</title>
<path fill="none" stroke="midnightblue" d="M598.216,-358.231C587.775,-340.043 565.5,-296.601 565.5,-257 565.5,-257 565.5,-257 565.5,-199 565.5,-164.864 565.5,-125.052 565.5,-102.209"/>
<polygon fill="midnightblue" stroke="midnightblue" points="569,-102.193 565.5,-92.1934 562,-102.193 569,-102.193"/>
</g>
<!-- Node26 -->
<g id="node26" class="node"><title>Node26</title>
<polygon fill="white" stroke="#bfbfbf" points="889.5,-6 889.5,-25 951.5,-25 951.5,-6 889.5,-6"/>
<text text-anchor="middle" x="920.5" y="-13" font-family="Helvetica,sans-Serif" font-size="10.00">algorithm</text>
</g>
<!-- Node1&#45;&gt;Node26 -->
<g id="edge60" class="edge"><title>Node1&#45;&gt;Node26</title>
<path fill="none" stroke="midnightblue" d="M603.5,-358.442C603.5,-339.936 603.5,-294.812 603.5,-257 603.5,-257 603.5,-257 603.5,-199 603.5,-55.0158 744.023,-76.8859 880.5,-31 882.889,-30.1967 885.352,-29.3499 887.827,-28.4855"/>
<polygon fill="midnightblue" stroke="midnightblue" points="889.048,-31.7661 897.298,-25.1189 886.703,-25.1704 889.048,-31.7661"/>
</g>
<!-- Node3 -->
<g id="node3" class="node"><title>Node3</title>
<polygon fill="white" stroke="#bfbfbf" points="2467,-73 2467,-92 2524,-92 2524,-73 2467,-73"/>
<text text-anchor="middle" x="2495.5" y="-80" font-family="Helvetica,sans-Serif" font-size="10.00">memory</text>
</g>
<!-- Node2&#45;&gt;Node3 -->
<g id="edge2" class="edge"><title>Node2&#45;&gt;Node3</title>
<path fill="none" stroke="midnightblue" d="M2324.6,-302.23C2352.02,-280.056 2423.86,-218.885 2466.5,-154 2477.16,-137.783 2485.12,-117.015 2489.98,-102.23"/>
<polygon fill="midnightblue" stroke="midnightblue" points="2493.45,-102.852 2493.08,-92.2637 2486.77,-100.771 2493.45,-102.852"/>
</g>
<!-- Node4 -->
<g id="node4" class="node"><title>Node4</title>
<polygon fill="white" stroke="#bfbfbf" points="827.5,-6 827.5,-25 871.5,-25 871.5,-6 827.5,-6"/>
<text text-anchor="middle" x="849.5" y="-13" font-family="Helvetica,sans-Serif" font-size="10.00">string</text>
</g>
<!-- Node2&#45;&gt;Node4 -->
<g id="edge3" class="edge"><title>Node2&#45;&gt;Node4</title>
<path fill="none" stroke="midnightblue" d="M2274.63,-310.537C2023.59,-307.3 641.5,-285.635 641.5,-201 641.5,-201 641.5,-201 641.5,-143 641.5,-122.024 766.576,-57.5122 822.747,-29.5977"/>
<polygon fill="midnightblue" stroke="midnightblue" points="824.355,-32.7072 831.766,-25.136 821.251,-26.4329 824.355,-32.7072"/>
</g>
<!-- Node5 -->
<g id="node5" class="node"><title>Node5</title>
<polygon fill="white" stroke="#bfbfbf" points="2632.5,-134.5 2632.5,-153.5 2682.5,-153.5 2682.5,-134.5 2632.5,-134.5"/>
<text text-anchor="middle" x="2657.5" y="-141.5" font-family="Helvetica,sans-Serif" font-size="10.00">variant</text>
</g>
<!-- Node2&#45;&gt;Node5 -->
<g id="edge4" class="edge"><title>Node2&#45;&gt;Node5</title>
<path fill="none" stroke="midnightblue" d="M2352.21,-311.65C2413.62,-311.355 2536.07,-305.302 2630.5,-266 2668.58,-250.151 2686.13,-246.93 2704.5,-210 2713.79,-191.312 2696.1,-172.227 2679.83,-159.615"/>
<polygon fill="midnightblue" stroke="midnightblue" points="2681.75,-156.685 2671.6,-153.646 2677.64,-162.352 2681.75,-156.685"/>
</g>
<!-- Node6 -->
<g id="node6" class="node"><title>Node6</title>
<polygon fill="white" stroke="#bfbfbf" points="2362,-6 2362,-25 2409,-25 2409,-6 2362,-6"/>
<text text-anchor="middle" x="2385.5" y="-13" font-family="Helvetica,sans-Serif" font-size="10.00">vector</text>
</g>
<!-- Node2&#45;&gt;Node6 -->
<g id="edge5" class="edge"><title>Node2&#45;&gt;Node6</title>
<path fill="none" stroke="midnightblue" d="M2352.02,-304.061C2428.13,-289.25 2590.5,-251.709 2590.5,-201 2590.5,-201 2590.5,-201 2590.5,-143 2590.5,-104.62 2579.16,-91.3527 2549.5,-67 2511.67,-35.9449 2454.86,-23.951 2419,-19.343"/>
<polygon fill="midnightblue" stroke="midnightblue" points="2419.37,-15.8626 2409.03,-18.1831 2418.56,-22.8157 2419.37,-15.8626"/>
</g>
<!-- Node7 -->
<g id="node7" class="node"><title>Node7</title>
<g id="a_node7"><a xlink:href="element_8h.xhtml" target="_top" xlink:title="Base/mixin classes, structs, and properties common to all MEF classes/constructs. ...">
<polygon fill="white" stroke="black" points="1906,-134.5 1906,-153.5 1971,-153.5 1971,-134.5 1906,-134.5"/>
<text text-anchor="middle" x="1938.5" y="-141.5" font-family="Helvetica,sans-Serif" font-size="10.00">element.h</text>
</a>
</g>
</g>
<!-- Node2&#45;&gt;Node7 -->
<g id="edge6" class="edge"><title>Node2&#45;&gt;Node7</title>
<path fill="none" stroke="midnightblue" d="M2294.13,-302.425C2232.53,-275.159 2040.94,-190.348 1967.53,-157.851"/>
<polygon fill="midnightblue" stroke="midnightblue" points="1968.54,-154.471 1957.98,-153.624 1965.71,-160.872 1968.54,-154.471"/>
</g>
<!-- Node30 -->
<g id="node30" class="node"><title>Node30</title>
<g id="a_node30"><a xlink:href="variant_8h.xhtml" target="_top" xlink:title="Extra helper functions for std::variant. ">
<polygon fill="white" stroke="black" points="2619,-190.5 2619,-209.5 2696,-209.5 2696,-190.5 2619,-190.5"/>
<text text-anchor="middle" x="2657.5" y="-197.5" font-family="Helvetica,sans-Serif" font-size="10.00">ext/variant.h</text>
</a>
</g>
</g>
<!-- Node2&#45;&gt;Node30 -->
<g id="edge35" class="edge"><title>Node2&#45;&gt;Node30</title>
<path fill="none" stroke="midnightblue" d="M2352.06,-308.462C2421,-303.37 2562.13,-290.262 2604.5,-266 2623.78,-254.96 2638.9,-233.99 2647.98,-218.849"/>
<polygon fill="midnightblue" stroke="midnightblue" points="2651.16,-220.328 2653.05,-209.903 2645.07,-216.876 2651.16,-220.328"/>
</g>
<!-- Node31 -->
<g id="node31" class="node"><title>Node31</title>
<g id="a_node31"><a xlink:href="instruction_8h.xhtml" target="_top" xlink:title="Model and event tree modifier instructions. ">
<polygon fill="white" stroke="black" points="1982.5,-246.5 1982.5,-265.5 2058.5,-265.5 2058.5,-246.5 1982.5,-246.5"/>
<text text-anchor="middle" x="2020.5" y="-253.5" font-family="Helvetica,sans-Serif" font-size="10.00">instruction.h</text>
</a>
</g>
</g>
<!-- Node2&#45;&gt;Node31 -->
<g id="edge37" class="edge"><title>Node2&#45;&gt;Node31</title>
<path fill="none" stroke="midnightblue" d="M2274.89,-303.885C2221.83,-294.105 2126.38,-276.513 2068.69,-265.882"/>
<polygon fill="midnightblue" stroke="midnightblue" points="2069.19,-262.416 2058.73,-264.045 2067.93,-269.3 2069.19,-262.416"/>
</g>
<!-- Node7&#45;&gt;Node3 -->
<g id="edge9" class="edge"><title>Node7&#45;&gt;Node3</title>
<path fill="none" stroke="midnightblue" d="M1971.24,-139.937C2044.58,-133.018 2227.61,-115.419 2380.5,-98 2405.87,-95.1092 2434.35,-91.5213 2456.62,-88.6378"/>
<polygon fill="midnightblue" stroke="midnightblue" points="2457.23,-92.0879 2466.69,-87.3264 2456.33,-85.1464 2457.23,-92.0879"/>
</g>
<!-- Node7&#45;&gt;Node4 -->
<g id="edge11" class="edge"><title>Node7&#45;&gt;Node4</title>
<path fill="none" stroke="midnightblue" d="M1905.89,-142.197C1786,-139.043 1369.96,-126.265 1240.5,-98 1202.84,-89.7781 1196.88,-76.4215 1159.5,-67 1038.26,-36.4408 1000.56,-65.9025 880.5,-31 878.574,-30.4402 876.618,-29.776 874.672,-29.0446"/>
<polygon fill="midnightblue" stroke="midnightblue" points="875.793,-25.7175 865.222,-25.0007 873.039,-32.1529 875.793,-25.7175"/>
</g>
<!-- Node7&#45;&gt;Node6 -->
<g id="edge14" class="edge"><title>Node7&#45;&gt;Node6</title>
<path fill="none" stroke="midnightblue" d="M1971.34,-142.71C2022.86,-141.115 2124.83,-133.3 2202.5,-98 2222.34,-88.9821 2221.47,-77.6349 2240.5,-67 2276.3,-46.9882 2321.44,-32.7896 2351.77,-24.6453"/>
<polygon fill="midnightblue" stroke="midnightblue" points="2353.05,-27.9294 2361.84,-22.0174 2351.28,-21.1563 2353.05,-27.9294"/>
</g>
<!-- Node8 -->
<g id="node8" class="node"><title>Node8</title>
<polygon fill="white" stroke="#bfbfbf" points="2323,-73 2323,-92 2372,-92 2372,-73 2323,-73"/>
<text text-anchor="middle" x="2347.5" y="-80" font-family="Helvetica,sans-Serif" font-size="10.00">cstdint</text>
</g>
<!-- Node7&#45;&gt;Node8 -->
<g id="edge7" class="edge"><title>Node7&#45;&gt;Node8</title>
<path fill="none" stroke="midnightblue" d="M1971.19,-142.178C2037.05,-139.85 2189.98,-131.029 2313.5,-98 2315.85,-97.3706 2318.26,-96.609 2320.64,-95.7681"/>
<polygon fill="midnightblue" stroke="midnightblue" points="2322.17,-98.9278 2330.19,-92.0018 2319.6,-92.4162 2322.17,-98.9278"/>
</g>
<!-- Node9 -->
<g id="node9" class="node"><title>Node9</title>
<polygon fill="white" stroke="#bfbfbf" points="2022,-73 2022,-92 2085,-92 2085,-73 2022,-73"/>
<text text-anchor="middle" x="2053.5" y="-80" font-family="Helvetica,sans-Serif" font-size="10.00">functional</text>
</g>
<!-- Node7&#45;&gt;Node9 -->
<g id="edge8" class="edge"><title>Node7&#45;&gt;Node9</title>
<path fill="none" stroke="midnightblue" d="M1954.98,-134.475C1974.11,-124.578 2005.87,-108.142 2028.15,-96.6151"/>
<polygon fill="midnightblue" stroke="midnightblue" points="2029.78,-99.713 2037.05,-92.0091 2026.56,-93.4958 2029.78,-99.713"/>
</g>
<!-- Node10 -->
<g id="node10" class="node"><title>Node10</title>
<polygon fill="white" stroke="#bfbfbf" points="2250,-73 2250,-92 2305,-92 2305,-73 2250,-73"/>
<text text-anchor="middle" x="2277.5" y="-80" font-family="Helvetica,sans-Serif" font-size="10.00">optional</text>
</g>
<!-- Node7&#45;&gt;Node10 -->
<g id="edge10" class="edge"><title>Node7&#45;&gt;Node10</title>
<path fill="none" stroke="midnightblue" d="M1971.4,-139.992C2026.59,-134.508 2141.06,-121.251 2235.5,-98 2238.72,-97.207 2242.04,-96.2714 2245.35,-95.2633"/>
<polygon fill="midnightblue" stroke="midnightblue" points="2246.64,-98.5235 2255.06,-92.0922 2244.46,-91.8693 2246.64,-98.5235"/>
</g>
<!-- Node11 -->
<g id="node11" class="node"><title>Node11</title>
<polygon fill="white" stroke="#bfbfbf" points="1250,-73 1250,-92 1319,-92 1319,-73 1250,-73"/>
<text text-anchor="middle" x="1284.5" y="-80" font-family="Helvetica,sans-Serif" font-size="10.00">string_view</text>
</g>
<!-- Node7&#45;&gt;Node11 -->
<g id="edge12" class="edge"><title>Node7&#45;&gt;Node11</title>
<path fill="none" stroke="midnightblue" d="M1905.72,-143.38C1813.72,-143.85 1545.67,-141.116 1328.5,-98 1324.62,-97.2291 1320.6,-96.2187 1316.65,-95.0893"/>
<polygon fill="midnightblue" stroke="midnightblue" points="1317.64,-91.7335 1307.05,-92.1055 1315.56,-98.4176 1317.64,-91.7335"/>
</g>
<!-- Node12 -->
<g id="node12" class="node"><title>Node12</title>
<polygon fill="white" stroke="#bfbfbf" points="1337.5,-73 1337.5,-92 1405.5,-92 1405.5,-73 1337.5,-73"/>
<text text-anchor="middle" x="1371.5" y="-80" font-family="Helvetica,sans-Serif" font-size="10.00">type_traits</text>
</g>
<!-- Node7&#45;&gt;Node12 -->
<g id="edge13" class="edge"><title>Node7&#45;&gt;Node12</title>
<path fill="none" stroke="midnightblue" d="M1905.91,-142.897C1822.98,-142.057 1597.52,-136.14 1414.5,-98 1410.81,-97.2315 1407,-96.2443 1403.24,-95.1469"/>
<polygon fill="midnightblue" stroke="midnightblue" points="1404.13,-91.7551 1393.54,-92.059 1402.01,-98.4258 1404.13,-91.7551"/>
</g>
<!-- Node13 -->
<g id="node13" class="node"><title>Node13</title>
<polygon fill="white" stroke="#bfbfbf" points="1423.5,-67.5 1423.5,-97.5 1543.5,-97.5 1543.5,-67.5 1423.5,-67.5"/>
<text text-anchor="start" x="1431.5" y="-85.5" font-family="Helvetica,sans-Serif" font-size="10.00">boost/iterator/iterator</text>
<text text-anchor="middle" x="1483.5" y="-74.5" font-family="Helvetica,sans-Serif" font-size="10.00">_facade.hpp</text>
</g>
<!-- Node7&#45;&gt;Node13 -->
<g id="edge15" class="edge"><title>Node7&#45;&gt;Node13</title>
<path fill="none" stroke="midnightblue" d="M1905.83,-140.204C1840.77,-134.419 1690.27,-119.951 1553.86,-98.1291"/>
<polygon fill="midnightblue" stroke="midnightblue" points="1554.08,-94.6189 1543.65,-96.477 1552.96,-101.529 1554.08,-94.6189"/>
</g>
<!-- Node14 -->
<g id="node14" class="node"><title>Node14</title>
<polygon fill="white" stroke="#bfbfbf" points="1561.5,-67.5 1561.5,-97.5 1701.5,-97.5 1701.5,-67.5 1561.5,-67.5"/>
<text text-anchor="start" x="1569.5" y="-85.5" font-family="Helvetica,sans-Serif" font-size="10.00">boost/multi_index/hashed</text>
<text text-anchor="middle" x="1631.5" y="-74.5" font-family="Helvetica,sans-Serif" font-size="10.00">_index.hpp</text>
</g>
<!-- Node7&#45;&gt;Node14 -->
<g id="edge16" class="edge"><title>Node7&#45;&gt;Node14</title>
<path fill="none" stroke="midnightblue" d="M1905.94,-136.689C1860.09,-127.803 1775.04,-111.319 1711.72,-99.0481"/>
<polygon fill="midnightblue" stroke="midnightblue" points="1712.24,-95.5833 1701.76,-97.1165 1710.91,-102.455 1712.24,-95.5833"/>
</g>
<!-- Node15 -->
<g id="node15" class="node"><title>Node15</title>
<polygon fill="white" stroke="#bfbfbf" points="1873.5,-67.5 1873.5,-97.5 2003.5,-97.5 2003.5,-67.5 1873.5,-67.5"/>
<text text-anchor="start" x="1881.5" y="-85.5" font-family="Helvetica,sans-Serif" font-size="10.00">boost/multi_index/mem</text>
<text text-anchor="middle" x="1938.5" y="-74.5" font-family="Helvetica,sans-Serif" font-size="10.00">_fun.hpp</text>
</g>
<!-- Node7&#45;&gt;Node15 -->
<g id="edge17" class="edge"><title>Node7&#45;&gt;Node15</title>
<path fill="none" stroke="midnightblue" d="M1938.5,-134.475C1938.5,-127.471 1938.5,-117.192 1938.5,-107.696"/>
<polygon fill="midnightblue" stroke="midnightblue" points="1942,-107.523 1938.5,-97.523 1935,-107.523 1942,-107.523"/>
</g>
<!-- Node16 -->
<g id="node16" class="node"><title>Node16</title>
<polygon fill="white" stroke="#bfbfbf" points="1720.5,-6 1720.5,-25 1892.5,-25 1892.5,-6 1720.5,-6"/>
<text text-anchor="middle" x="1806.5" y="-13" font-family="Helvetica,sans-Serif" font-size="10.00">boost/multi_index_container.hpp</text>
</g>
<!-- Node7&#45;&gt;Node16 -->
<g id="edge18" class="edge"><title>Node7&#45;&gt;Node16</title>
<path fill="none" stroke="midnightblue" d="M1920.07,-134.462C1904.18,-126.513 1881.23,-113.568 1864.5,-98 1844.2,-79.1131 1826.66,-52.0829 1816.33,-34.4139"/>
<polygon fill="midnightblue" stroke="midnightblue" points="1819.1,-32.196 1811.12,-25.2247 1813.01,-35.6497 1819.1,-32.196"/>
</g>
<!-- Node17 -->
<g id="node17" class="node"><title>Node17</title>
<polygon fill="white" stroke="#bfbfbf" points="989.5,-73 989.5,-92 1117.5,-92 1117.5,-73 989.5,-73"/>
<text text-anchor="middle" x="1053.5" y="-80" font-family="Helvetica,sans-Serif" font-size="10.00">boost/noncopyable.hpp</text>
</g>
<!-- Node7&#45;&gt;Node17 -->
<g id="edge19" class="edge"><title>Node7&#45;&gt;Node17</title>
<path fill="none" stroke="midnightblue" d="M1905.84,-141.86C1799.58,-137.985 1454.17,-124.092 1169.5,-98 1155.21,-96.6905 1139.97,-94.9987 1125.39,-93.2354"/>
<polygon fill="midnightblue" stroke="midnightblue" points="1125.78,-89.7565 1115.43,-92.0071 1124.92,-96.704 1125.78,-89.7565"/>
</g>
<!-- Node7&#45;&gt;Node18 -->
<g id="edge20" class="edge"><title>Node7&#45;&gt;Node18</title>
<path fill="none" stroke="midnightblue" d="M1905.62,-142.098C1767.7,-138.236 1222.3,-122.184 774.5,-98 712.857,-94.6709 641.084,-89.3826 599.709,-86.1962"/>
<polygon fill="midnightblue" stroke="midnightblue" points="599.862,-82.6977 589.622,-85.4146 599.322,-89.6768 599.862,-82.6977"/>
</g>
<!-- Node25 -->
<g id="node25" class="node"><title>Node25</title>
<g id="a_node25"><a xlink:href="linear__set_8h.xhtml" target="_top" xlink:title="Implementation of a vector&#45;based set for a small number of entries. ">
<polygon fill="white" stroke="black" points="2103.5,-73 2103.5,-92 2193.5,-92 2193.5,-73 2103.5,-73"/>
<text text-anchor="middle" x="2148.5" y="-80" font-family="Helvetica,sans-Serif" font-size="10.00">ext/linear_set.h</text>
</a>
</g>
</g>
<!-- Node7&#45;&gt;Node25 -->
<g id="edge28" class="edge"><title>Node7&#45;&gt;Node25</title>
<path fill="none" stroke="midnightblue" d="M1968.59,-134.475C2005.39,-124.048 2067.81,-106.362 2108.59,-94.8066"/>
<polygon fill="midnightblue" stroke="midnightblue" points="2109.8,-98.1026 2118.47,-92.0091 2107.89,-91.3677 2109.8,-98.1026"/>
</g>
<!-- Node29 -->
<g id="node29" class="node"><title>Node29</title>
<g id="a_node29"><a xlink:href="multi__index_8h.xhtml" target="_top" xlink:title="Helper functions to boost multi_index_container. ">
<polygon fill="white" stroke="black" points="1719.5,-73 1719.5,-92 1817.5,-92 1817.5,-73 1719.5,-73"/>
<text text-anchor="middle" x="1768.5" y="-80" font-family="Helvetica,sans-Serif" font-size="10.00">ext/multi_index.h</text>
</a>
</g>
</g>
<!-- Node7&#45;&gt;Node29 -->
<g id="edge33" class="edge"><title>Node7&#45;&gt;Node29</title>
<path fill="none" stroke="midnightblue" d="M1914.14,-134.475C1884.86,-124.225 1835.53,-106.959 1802.5,-95.3994"/>
<polygon fill="midnightblue" stroke="midnightblue" points="1803.41,-92.0091 1792.81,-92.0091 1801.09,-98.6162 1803.41,-92.0091"/>
</g>
<!-- Node18&#45;&gt;Node4 -->
<g id="edge22" class="edge"><title>Node18&#45;&gt;Node4</title>
<path fill="none" stroke="midnightblue" d="M589.59,-75.6095C601.047,-72.8737 614.953,-69.6482 627.5,-67 712.021,-49.1599 736.284,-57.5086 818.5,-31 820.172,-30.461 821.871,-29.8531 823.568,-29.1994"/>
<polygon fill="midnightblue" stroke="midnightblue" points="825.271,-32.2775 833.079,-25.1159 822.509,-25.8454 825.271,-32.2775"/>
</g>
<!-- Node19 -->
<g id="node19" class="node"><title>Node19</title>
<polygon fill="white" stroke="#bfbfbf" points="0,-6 0,-25 63,-25 63,-6 0,-6"/>
<text text-anchor="middle" x="31.5" y="-13" font-family="Helvetica,sans-Serif" font-size="10.00">exception</text>
</g>
<!-- Node18&#45;&gt;Node19 -->
<g id="edge21" class="edge"><title>Node18&#45;&gt;Node19</title>
<path fill="none" stroke="midnightblue" d="M541.319,-81.05C469.162,-79.2769 249.415,-70.7483 72.5,-31 69.0815,-30.232 65.5551,-29.2659 62.0723,-28.1988"/>
<polygon fill="midnightblue" stroke="midnightblue" points="63.0915,-24.8493 52.4978,-25.0047 60.8762,-31.4895 63.0915,-24.8493"/>
</g>
<!-- Node20 -->
<g id="node20" class="node"><title>Node20</title>
<polygon fill="white" stroke="#bfbfbf" points="81.5,-6 81.5,-25 227.5,-25 227.5,-6 81.5,-6"/>
<text text-anchor="middle" x="154.5" y="-13" font-family="Helvetica,sans-Serif" font-size="10.00">boost/current_function.hpp</text>
</g>
<!-- Node18&#45;&gt;Node20 -->
<g id="edge23" class="edge"><title>Node18&#45;&gt;Node20</title>
<path fill="none" stroke="midnightblue" d="M541.119,-77.9511C486.51,-69.9601 350.245,-49.7838 236.5,-31 228.489,-29.677 220.046,-28.2367 211.747,-26.794"/>
<polygon fill="midnightblue" stroke="midnightblue" points="212.186,-23.3179 201.733,-25.041 210.979,-30.213 212.186,-23.3179"/>
</g>
<!-- Node21 -->
<g id="node21" class="node"><title>Node21</title>
<polygon fill="white" stroke="#bfbfbf" points="245.5,-6 245.5,-25 409.5,-25 409.5,-6 245.5,-6"/>
<text text-anchor="middle" x="327.5" y="-13" font-family="Helvetica,sans-Serif" font-size="10.00">boost/exception/exception.hpp</text>
</g>
<!-- Node18&#45;&gt;Node21 -->
<g id="edge24" class="edge"><title>Node18&#45;&gt;Node21</title>
<path fill="none" stroke="midnightblue" d="M541.37,-74.9097C500.794,-63.8282 418.461,-41.3423 368.622,-27.7308"/>
<polygon fill="midnightblue" stroke="midnightblue" points="369.377,-24.3089 358.808,-25.0506 367.533,-31.0616 369.377,-24.3089"/>
</g>
<!-- Node22 -->
<g id="node22" class="node"><title>Node22</title>
<polygon fill="white" stroke="#bfbfbf" points="427.5,-6 427.5,-25 561.5,-25 561.5,-6 427.5,-6"/>
<text text-anchor="middle" x="494.5" y="-13" font-family="Helvetica,sans-Serif" font-size="10.00">boost/exception/info.hpp</text>
</g>
<!-- Node18&#45;&gt;Node22 -->
<g id="edge25" class="edge"><title>Node18&#45;&gt;Node22</title>
<path fill="none" stroke="midnightblue" d="M555.925,-72.7338C544.534,-62.3055 525.313,-44.7088 511.401,-31.9732"/>
<polygon fill="midnightblue" stroke="midnightblue" points="513.663,-29.2983 503.924,-25.1273 508.936,-34.4614 513.663,-29.2983"/>
</g>
<!-- Node23 -->
<g id="node23" class="node"><title>Node23</title>
<polygon fill="white" stroke="#bfbfbf" points="580,-0.5 580,-30.5 693,-30.5 693,-0.5 580,-0.5"/>
<text text-anchor="start" x="588" y="-18.5" font-family="Helvetica,sans-Serif" font-size="10.00">boost/exception/info</text>
<text text-anchor="middle" x="636.5" y="-7.5" font-family="Helvetica,sans-Serif" font-size="10.00">_tuple.hpp</text>
</g>
<!-- Node18&#45;&gt;Node23 -->
<g id="edge26" class="edge"><title>Node18&#45;&gt;Node23</title>
<path fill="none" stroke="midnightblue" d="M575.075,-72.7338C584.855,-63.7804 600.407,-49.543 613.415,-37.6346"/>
<polygon fill="midnightblue" stroke="midnightblue" points="616.098,-39.9231 621.11,-30.589 611.371,-34.76 616.098,-39.9231"/>
</g>
<!-- Node24 -->
<g id="node24" class="node"><title>Node24</title>
<g id="a_node24"><a xlink:href="source__info_8h.xhtml" target="_top" xlink:title="Helper facilities to get source file information. ">
<polygon fill="white" stroke="black" points="711.5,-6 711.5,-25 809.5,-25 809.5,-6 711.5,-6"/>
<text text-anchor="middle" x="760.5" y="-13" font-family="Helvetica,sans-Serif" font-size="10.00">ext/source_info.h</text>
</a>
</g>
</g>
<!-- Node18&#45;&gt;Node24 -->
<g id="edge27" class="edge"><title>Node18&#45;&gt;Node24</title>
<path fill="none" stroke="midnightblue" d="M589.803,-73.3991C623.896,-62.0348 686.128,-41.2907 725.292,-28.2361"/>
<polygon fill="midnightblue" stroke="midnightblue" points="726.581,-31.4957 734.961,-25.013 724.367,-24.855 726.581,-31.4957"/>
</g>
<!-- Node25&#45;&gt;Node6 -->
<g id="edge32" class="edge"><title>Node25&#45;&gt;Node6</title>
<path fill="none" stroke="midnightblue" d="M2179.97,-72.8685C2224.69,-60.6042 2306.26,-38.2333 2352.04,-25.6771"/>
<polygon fill="midnightblue" stroke="midnightblue" points="2353.06,-29.0256 2361.78,-23.0052 2351.21,-22.2749 2353.06,-29.0256"/>
</g>
<!-- Node25&#45;&gt;Node26 -->
<g id="edge29" class="edge"><title>Node25&#45;&gt;Node26</title>
<path fill="none" stroke="midnightblue" d="M2120.77,-72.9306C2112.11,-70.5987 2102.48,-68.3471 2093.5,-67 1696.73,-7.50815 1592.27,-49.7185 1191.5,-31 1110.09,-27.1978 1014.98,-21.9141 961.841,-18.8867"/>
<polygon fill="midnightblue" stroke="midnightblue" points="961.973,-15.3886 951.79,-18.3124 961.574,-22.3772 961.973,-15.3886"/>
</g>
<!-- Node27 -->
<g id="node27" class="node"><title>Node27</title>
<polygon fill="white" stroke="#bfbfbf" points="2162,-6 2162,-25 2239,-25 2239,-6 2162,-6"/>
<text text-anchor="middle" x="2200.5" y="-13" font-family="Helvetica,sans-Serif" font-size="10.00">initializer_list</text>
</g>
<!-- Node25&#45;&gt;Node27 -->
<g id="edge30" class="edge"><title>Node25&#45;&gt;Node27</title>
<path fill="none" stroke="midnightblue" d="M2155.51,-72.7338C2163.62,-62.5979 2177.15,-45.6899 2187.26,-33.0556"/>
<polygon fill="midnightblue" stroke="midnightblue" points="2190.08,-35.1225 2193.6,-25.1273 2184.62,-30.7496 2190.08,-35.1225"/>
</g>
<!-- Node28 -->
<g id="node28" class="node"><title>Node28</title>
<polygon fill="white" stroke="#bfbfbf" points="1200.5,-6 1200.5,-25 1242.5,-25 1242.5,-6 1200.5,-6"/>
<text text-anchor="middle" x="1221.5" y="-13" font-family="Helvetica,sans-Serif" font-size="10.00">utility</text>
</g>
<!-- Node25&#45;&gt;Node28 -->
<g id="edge31" class="edge"><title>Node25&#45;&gt;Node28</title>
<path fill="none" stroke="midnightblue" d="M2120.47,-72.954C2111.89,-70.6526 2102.37,-68.4122 2093.5,-67 1926.55,-40.4325 1388.96,-21.8361 1252.98,-17.4787"/>
<polygon fill="midnightblue" stroke="midnightblue" points="1252.94,-13.9757 1242.83,-17.1561 1252.71,-20.9722 1252.94,-13.9757"/>
</g>
<!-- Node29&#45;&gt;Node16 -->
<g id="edge34" class="edge"><title>Node29&#45;&gt;Node16</title>
<path fill="none" stroke="midnightblue" d="M1773.62,-72.7338C1779.44,-62.7928 1789.06,-46.3377 1796.39,-33.7892"/>
<polygon fill="midnightblue" stroke="midnightblue" points="1799.43,-35.5267 1801.46,-25.1273 1793.39,-31.9938 1799.43,-35.5267"/>
</g>
<!-- Node30&#45;&gt;Node5 -->
<g id="edge36" class="edge"><title>Node30&#45;&gt;Node5</title>
<path fill="none" stroke="midnightblue" d="M2657.5,-190.083C2657.5,-183.006 2657.5,-172.861 2657.5,-163.986"/>
<polygon fill="midnightblue" stroke="midnightblue" points="2661,-163.751 2657.5,-153.751 2654,-163.751 2661,-163.751"/>
</g>
<!-- Node31&#45;&gt;Node3 -->
<g id="edge38" class="edge"><title>Node31&#45;&gt;Node3</title>
<path fill="none" stroke="midnightblue" d="M2058.52,-255.998C2138.36,-256.125 2325.7,-245.861 2442.5,-154 2461.24,-139.262 2476.79,-116.376 2486.1,-100.702"/>
<polygon fill="midnightblue" stroke="midnightblue" points="2489.14,-102.433 2491.06,-92.0132 2483.06,-98.9614 2489.14,-102.433"/>
</g>
<!-- Node31&#45;&gt;Node4 -->
<g id="edge39" class="edge"><title>Node31&#45;&gt;Node4</title>
<path fill="none" stroke="midnightblue" d="M1982.48,-255.143C1823.11,-255.459 1208.49,-253.756 1020.5,-210 899.543,-181.846 832.475,-201.935 764.5,-98 756.959,-86.4693 757.686,-78.9747 764.5,-67 767.91,-61.0075 800.522,-42.6445 824.337,-29.7996"/>
<polygon fill="midnightblue" stroke="midnightblue" points="826.104,-32.824 833.267,-25.0179 822.799,-26.653 826.104,-32.824"/>
</g>
<!-- Node31&#45;&gt;Node6 -->
<g id="edge40" class="edge"><title>Node31&#45;&gt;Node6</title>
<path fill="none" stroke="midnightblue" d="M2058.61,-255.614C2125.44,-255.523 2267.27,-250.086 2378.5,-210 2458.12,-181.307 2496.94,-174.8 2532.5,-98 2538.29,-85.4972 2540.5,-78.2139 2532.5,-67 2506.93,-31.1725 2454.26,-20.4994 2419.41,-17.4707"/>
<polygon fill="midnightblue" stroke="midnightblue" points="2419.43,-13.9641 2409.21,-16.7569 2418.94,-20.947 2419.43,-13.9641"/>
</g>
<!-- Node31&#45;&gt;Node7 -->
<g id="edge42" class="edge"><title>Node31&#45;&gt;Node7</title>
<path fill="none" stroke="midnightblue" d="M2014.07,-246.368C2000.47,-228.135 1968.64,-185.426 1950.93,-161.675"/>
<polygon fill="midnightblue" stroke="midnightblue" points="1953.69,-159.517 1944.9,-153.591 1948.08,-163.701 1953.69,-159.517"/>
</g>
<!-- Node31&#45;&gt;Node17 -->
<g id="edge41" class="edge"><title>Node31&#45;&gt;Node17</title>
<path fill="none" stroke="midnightblue" d="M1982.45,-253.759C1833.09,-248.418 1287.41,-224.381 1131.5,-154 1104.58,-141.849 1080.53,-116.896 1066.48,-100.177"/>
<polygon fill="midnightblue" stroke="midnightblue" points="1069.1,-97.8521 1060.08,-92.2963 1063.66,-102.265 1069.1,-97.8521"/>
</g>
<!-- Node32 -->
<g id="node32" class="node"><title>Node32</title>
<g id="a_node32"><a xlink:href="event_8h.xhtml" target="_top" xlink:title="Contains event classes for fault trees. ">
<polygon fill="white" stroke="black" points="2251,-190.5 2251,-209.5 2304,-209.5 2304,-190.5 2251,-190.5"/>
<text text-anchor="middle" x="2277.5" y="-197.5" font-family="Helvetica,sans-Serif" font-size="10.00">event.h</text>
</a>
</g>
</g>
<!-- Node31&#45;&gt;Node32 -->
<g id="edge43" class="edge"><title>Node31&#45;&gt;Node32</title>
<path fill="none" stroke="midnightblue" d="M2058.7,-246.974C2107.81,-236.655 2192.51,-218.859 2240.85,-208.7"/>
<polygon fill="midnightblue" stroke="midnightblue" points="2241.81,-212.075 2250.88,-206.593 2240.38,-205.224 2241.81,-212.075"/>
</g>
<!-- Node33 -->
<g id="node33" class="node"><title>Node33</title>
<g id="a_node33"><a xlink:href="expression_8h.xhtml" target="_top" xlink:title="Provides the base class for all expressions and units for expression values. ">
<polygon fill="white" stroke="black" points="923,-134.5 923,-153.5 1000,-153.5 1000,-134.5 923,-134.5"/>
<text text-anchor="middle" x="961.5" y="-141.5" font-family="Helvetica,sans-Serif" font-size="10.00">expression.h</text>
</a>
</g>
</g>
<!-- Node31&#45;&gt;Node33 -->
<g id="edge59" class="edge"><title>Node31&#45;&gt;Node33</title>
<path fill="none" stroke="midnightblue" d="M1982.28,-254.33C1815.38,-251.252 1154.94,-237.427 1066.5,-210 1032.79,-199.545 999.009,-175.654 979.193,-159.933"/>
<polygon fill="midnightblue" stroke="midnightblue" points="981.325,-157.155 971.359,-153.56 976.908,-162.585 981.325,-157.155"/>
</g>
<!-- Node32&#45;&gt;Node3 -->
<g id="edge46" class="edge"><title>Node32&#45;&gt;Node3</title>
<path fill="none" stroke="midnightblue" d="M2304.03,-193.602C2332.62,-187.048 2378.8,-174.286 2414.5,-154 2440.45,-139.253 2465.62,-115.379 2480.84,-99.5613"/>
<polygon fill="midnightblue" stroke="midnightblue" points="2483.54,-101.797 2487.84,-92.1146 2478.44,-97.0021 2483.54,-101.797"/>
</g>
<!-- Node32&#45;&gt;Node4 -->
<g id="edge48" class="edge"><title>Node32&#45;&gt;Node4</title>
<path fill="none" stroke="midnightblue" d="M2250.96,-198.477C2119.94,-195.774 1541.17,-182.408 1363.5,-154 1270.66,-139.155 1241.51,-143.984 1159.5,-98 1141.95,-88.1582 1144.62,-75.748 1126.5,-67 1026.99,-18.9637 986.339,-62.7464 880.5,-31 878.622,-30.4367 876.713,-29.7776 874.812,-29.0569"/>
<polygon fill="midnightblue" stroke="midnightblue" points="876.129,-25.8136 865.559,-25.097 873.375,-32.2491 876.129,-25.8136"/>
</g>
<!-- Node32&#45;&gt;Node5 -->
<g id="edge50" class="edge"><title>Node32&#45;&gt;Node5</title>
<path fill="none" stroke="midnightblue" d="M2304.22,-195.203C2371.34,-185.665 2547.03,-160.699 2622.37,-149.993"/>
<polygon fill="midnightblue" stroke="midnightblue" points="2622.9,-153.452 2632.31,-148.58 2621.92,-146.521 2622.9,-153.452"/>
</g>
<!-- Node32&#45;&gt;Node6 -->
<g id="edge51" class="edge"><title>Node32&#45;&gt;Node6</title>
<path fill="none" stroke="midnightblue" d="M2304.15,-191.754C2324.97,-184.936 2353.47,-172.904 2372.5,-154 2401.23,-125.471 2404.96,-107.116 2399.5,-67 2398.02,-56.1271 2394.83,-44.2901 2391.86,-34.8109"/>
<polygon fill="midnightblue" stroke="midnightblue" points="2395.18,-33.6855 2388.72,-25.2874 2388.53,-35.8806 2395.18,-33.6855"/>
</g>
<!-- Node32&#45;&gt;Node7 -->
<g id="edge52" class="edge"><title>Node32&#45;&gt;Node7</title>
<path fill="none" stroke="midnightblue" d="M2250.9,-194.763C2192.36,-185.438 2051.95,-163.072 1981.03,-151.774"/>
<polygon fill="midnightblue" stroke="midnightblue" points="1981.51,-148.308 1971.09,-150.191 1980.41,-155.22 1981.51,-148.308"/>
</g>
<!-- Node32&#45;&gt;Node8 -->
<g id="edge44" class="edge"><title>Node32&#45;&gt;Node8</title>
<path fill="none" stroke="midnightblue" d="M2282.76,-190.319C2294.21,-171.422 2321.59,-126.248 2336.82,-101.121"/>
<polygon fill="midnightblue" stroke="midnightblue" points="2339.99,-102.648 2342.18,-92.282 2334,-99.0199 2339.99,-102.648"/>
</g>
<!-- Node32&#45;&gt;Node10 -->
<g id="edge47" class="edge"><title>Node32&#45;&gt;Node10</title>
<path fill="none" stroke="midnightblue" d="M2277.5,-190.319C2277.5,-171.757 2277.5,-127.839 2277.5,-102.473"/>
<polygon fill="midnightblue" stroke="midnightblue" points="2281,-102.282 2277.5,-92.282 2274,-102.282 2281,-102.282"/>
</g>
<!-- Node32&#45;&gt;Node27 -->
<g id="edge45" class="edge"><title>Node32&#45;&gt;Node27</title>
<path fill="none" stroke="midnightblue" d="M2293.5,-190.416C2330.49,-169.472 2416.15,-114.024 2380.5,-67 2364.65,-46.096 2297.06,-31.4568 2249.38,-23.5051"/>
<polygon fill="midnightblue" stroke="midnightblue" points="2249.66,-20.0058 2239.23,-21.8628 2248.55,-26.9159 2249.66,-20.0058"/>
</g>
<!-- Node32&#45;&gt;Node28 -->
<g id="edge49" class="edge"><title>Node32&#45;&gt;Node28</title>
<path fill="none" stroke="midnightblue" d="M2250.76,-198.23C2095.98,-193.535 1318.86,-166.649 1240.5,-98 1222.86,-82.5467 1219.91,-54.1796 1220.14,-35.3272"/>
<polygon fill="midnightblue" stroke="midnightblue" points="1223.64,-35.3984 1220.57,-25.2574 1216.65,-35.098 1223.64,-35.3984"/>
</g>
<!-- Node32&#45;&gt;Node33 -->
<g id="edge53" class="edge"><title>Node32&#45;&gt;Node33</title>
<path fill="none" stroke="midnightblue" d="M2250.84,-198.088C2125.14,-193.758 1579.03,-174.632 1131.5,-154 1090.7,-152.119 1044.4,-149.646 1010.44,-147.768"/>
<polygon fill="midnightblue" stroke="midnightblue" points="1010.49,-144.266 1000.32,-147.206 1010.11,-151.255 1010.49,-144.266"/>
</g>
<!-- Node33&#45;&gt;Node6 -->
<g id="edge56" class="edge"><title>Node33&#45;&gt;Node6</title>
<path fill="none" stroke="midnightblue" d="M960.653,-134.193C959.636,-117.93 960.148,-83.361 980.5,-67 1035.38,-22.8804 2177.24,-35.6826 2247.5,-31 2283.09,-28.6278 2323.68,-24.1483 2351.58,-20.7931"/>
<polygon fill="midnightblue" stroke="midnightblue" points="2352.11,-24.2544 2361.61,-19.569 2351.26,-17.3059 2352.11,-24.2544"/>
</g>
<!-- Node33&#45;&gt;Node17 -->
<g id="edge58" class="edge"><title>Node33&#45;&gt;Node17</title>
<path fill="none" stroke="midnightblue" d="M974.681,-134.475C989.574,-124.843 1014.04,-109.017 1031.77,-97.5517"/>
<polygon fill="midnightblue" stroke="midnightblue" points="1033.85,-100.379 1040.34,-92.0091 1030.05,-94.5008 1033.85,-100.379"/>
</g>
<!-- Node33&#45;&gt;Node26 -->
<g id="edge54" class="edge"><title>Node33&#45;&gt;Node26</title>
<path fill="none" stroke="midnightblue" d="M922.615,-139.228C873.328,-133.552 792.583,-120.95 774.5,-98 765.973,-87.1778 766.476,-78.1998 774.5,-67 803.478,-26.5555 833.554,-47.4789 880.5,-31 882.878,-30.1651 885.334,-29.2952 887.803,-28.4143"/>
<polygon fill="midnightblue" stroke="midnightblue" points="889.035,-31.6905 897.262,-25.0143 886.668,-25.1031 889.035,-31.6905"/>
</g>
<!-- Node33&#45;&gt;Node28 -->
<g id="edge55" class="edge"><title>Node33&#45;&gt;Node28</title>
<path fill="none" stroke="midnightblue" d="M955.936,-134.357C946.802,-118.965 931.19,-86.5906 947.5,-67 978.136,-30.2018 1125.26,-20.1168 1190.38,-17.4356"/>
<polygon fill="midnightblue" stroke="midnightblue" points="1190.59,-20.93 1200.45,-17.0534 1190.33,-13.935 1190.59,-20.93"/>
</g>
<!-- Node34 -->
<g id="node34" class="node"><title>Node34</title>
<polygon fill="white" stroke="#bfbfbf" points="783.5,-67.5 783.5,-97.5 895.5,-97.5 895.5,-67.5 783.5,-67.5"/>
<text text-anchor="start" x="791.5" y="-85.5" font-family="Helvetica,sans-Serif" font-size="10.00">boost/icl/continuous</text>
<text text-anchor="middle" x="839.5" y="-74.5" font-family="Helvetica,sans-Serif" font-size="10.00">_interval.hpp</text>
</g>
<!-- Node33&#45;&gt;Node34 -->
<g id="edge57" class="edge"><title>Node33&#45;&gt;Node34</title>
<path fill="none" stroke="midnightblue" d="M944.02,-134.475C926.725,-126.04 899.69,-112.855 877.449,-102.008"/>
<polygon fill="midnightblue" stroke="midnightblue" points="878.775,-98.7607 868.253,-97.523 875.707,-105.052 878.775,-98.7607"/>
</g>
</g>
</svg>
        <g id="navigator" transform="translate(0 0)" fill="#404254">
                <rect fill="#f2f5e9" fill-opacity="0.5" stroke="#606060" stroke-width=".5" x="0" y="0" width="60" height="60"/>
                <use id="zoomplus" xlink:href="#zoomPlus" x="17" y="9" onmousedown="handleZoom(evt,'in')"/>
                <use id="zoomminus" xlink:href="#zoomMin" x="42" y="9" onmousedown="handleZoom(evt,'out')"/>
                <use id="reset" xlink:href="#resetDef" x="30" y="36" onmousedown="handleReset()"/>
                <g id="arrowUp" xlink:href="#dirArrow" transform="translate(30 24)" onmousedown="handlePan(0,-1)">
                  <use xlink:href="#rim" fill="#404040">
                        <set attributeName="fill" to="#808080" begin="arrowUp.mouseover" end="arrowUp.mouseout"/>
                  </use>
                  <path fill="none" stroke="white" stroke-width="1.5" d="M0,-3.0v7 M-2.5,-0.5L0,-3.0L2.5,-0.5"/>
                </g>
                <g id="arrowRight" xlink:href="#dirArrow" transform="rotate(90) translate(36 -43)" onmousedown="handlePan(1,0)">
                  <use xlink:href="#rim" fill="#404040">
                        <set attributeName="fill" to="#808080" begin="arrowRight.mouseover" end="arrowRight.mouseout"/>
                  </use>
                  <path fill="none" stroke="white" stroke-width="1.5" d="M0,-3.0v7 M-2.5,-0.5L0,-3.0L2.5,-0.5"/>
                </g>
                <g id="arrowDown" xlink:href="#dirArrow" transform="rotate(180) translate(-30 -48)" onmousedown="handlePan(0,1)">
                  <use xlink:href="#rim" fill="#404040">
                        <set attributeName="fill" to="#808080" begin="arrowDown.mouseover" end="arrowDown.mouseout"/>
                  </use>
                  <path fill="none" stroke="white" stroke-width="1.5" d="M0,-3.0v7 M-2.5,-0.5L0,-3.0L2.5,-0.5"/>
                </g>
                <g id="arrowLeft" xlink:href="#dirArrow" transform="rotate(270) translate(-36 17)" onmousedown="handlePan(-1,0)">
                  <use xlink:href="#rim" fill="#404040">
                        <set attributeName="fill" to="#808080" begin="arrowLeft.mouseover" end="arrowLeft.mouseout"/>
                  </use>
                  <path fill="none" stroke="white" stroke-width="1.5" d="M0,-3.0v7 M-2.5,-0.5L0,-3.0L2.5,-0.5"/>
                </g>
        </g>
        <svg viewBox="0 0 15 15" width="100%" height="30px" preserveAspectRatio="xMaxYMin meet">
         <g id="arrow_out" transform="scale(0.3 0.3)">
          <a xlink:href="event__tree_8cc__incl_org.svg" target="_base">
           <rect id="button" ry="5" rx="5" y="6" x="6" height="38" width="38"
                fill="#f2f5e9" fill-opacity="0.5" stroke="#606060" stroke-width="1.0"/>
           <path id="arrow"
             d="M 11.500037,31.436501 C 11.940474,20.09759 22.043105,11.32322 32.158766,21.979434 L 37.068811,17.246167 C 37.068811,17.246167 37.088388,32 37.088388,32 L 22.160133,31.978069 C 22.160133,31.978069 26.997745,27.140456 26.997745,27.140456 C 18.528582,18.264221 13.291696,25.230495 11.500037,31.436501 z"
             style="fill:#404040;"/>
          </a>
         </g>
        </svg>
</svg>
