<?xml version="1.0" encoding="UTF-8" standalone="no"?>
<!DOCTYPE svg PUBLIC "-//W3C//DTD SVG 1.1//EN"
 "http://www.w3.org/Graphics/SVG/1.1/DTD/svg11.dtd">
<!-- Generated by graphviz version 2.38.0 (20140413.2041)
 -->
<!-- Title: exponential.cc Pages: 1 -->
<svg width="1109pt" height="218pt"
 viewBox="0.00 0.00 1109.00 218.00" xmlns="http://www.w3.org/2000/svg" xmlns:xlink="http://www.w3.org/1999/xlink">
<g id="graph0" class="graph" transform="scale(1 1) rotate(0) translate(4 214)">
<title>exponential.cc</title>
<polygon fill="white" stroke="none" points="-4,4 -4,-214 1105,-214 1105,4 -4,4"/>
<!-- Node1 -->
<g id="node1" class="node"><title>Node1</title>
<polygon fill="#bfbfbf" stroke="black" points="266,-190.5 266,-209.5 352,-209.5 352,-190.5 266,-190.5"/>
<text text-anchor="middle" x="309" y="-197.5" font-family="Helvetica,sans-Serif" font-size="10.00">exponential.cc</text>
</g>
<!-- Node2 -->
<g id="node2" class="node"><title>Node2</title>
<g id="a_node2"><a xlink:href="exponential_8h.xhtml" target="_top" xlink:title="Expressions and distributions that are described with exponential formulas. ">
<polygon fill="white" stroke="black" points="123.5,-134.5 123.5,-153.5 204.5,-153.5 204.5,-134.5 123.5,-134.5"/>
<text text-anchor="middle" x="164" y="-141.5" font-family="Helvetica,sans-Serif" font-size="10.00">exponential.h</text>
</a>
</g>
</g>
<!-- Node1&#45;&gt;Node2 -->
<g id="edge1" class="edge"><title>Node1&#45;&gt;Node2</title>
<path fill="none" stroke="midnightblue" d="M286.024,-190.444C261.843,-181.438 223.582,-167.189 196.354,-157.049"/>
<polygon fill="midnightblue" stroke="midnightblue" points="197.461,-153.727 186.868,-153.516 195.018,-160.286 197.461,-153.727"/>
</g>
<!-- Node10 -->
<g id="node10" class="node"><title>Node10</title>
<polygon fill="white" stroke="#bfbfbf" points="285.5,-134.5 285.5,-153.5 332.5,-153.5 332.5,-134.5 285.5,-134.5"/>
<text text-anchor="middle" x="309" y="-141.5" font-family="Helvetica,sans-Serif" font-size="10.00">cmath</text>
</g>
<!-- Node1&#45;&gt;Node10 -->
<g id="edge9" class="edge"><title>Node1&#45;&gt;Node10</title>
<path fill="none" stroke="midnightblue" d="M309,-190.083C309,-183.006 309,-172.861 309,-163.986"/>
<polygon fill="midnightblue" stroke="midnightblue" points="312.5,-163.751 309,-153.751 305.5,-163.751 312.5,-163.751"/>
</g>
<!-- Node11 -->
<g id="node11" class="node"><title>Node11</title>
<g id="a_node11"><a xlink:href="error_8h.xhtml" target="_top" xlink:title="Exceptions for SCRAM. ">
<polygon fill="white" stroke="black" points="499.5,-134.5 499.5,-153.5 564.5,-153.5 564.5,-134.5 499.5,-134.5"/>
<text text-anchor="middle" x="532" y="-141.5" font-family="Helvetica,sans-Serif" font-size="10.00">src/error.h</text>
</a>
</g>
</g>
<!-- Node1&#45;&gt;Node11 -->
<g id="edge10" class="edge"><title>Node1&#45;&gt;Node11</title>
<path fill="none" stroke="midnightblue" d="M344.335,-190.444C383.705,-180.91 447.342,-165.5 489.425,-155.31"/>
<polygon fill="midnightblue" stroke="midnightblue" points="490.474,-158.657 499.37,-152.902 488.827,-151.853 490.474,-158.657"/>
</g>
<!-- Node3 -->
<g id="node3" class="node"><title>Node3</title>
<polygon fill="white" stroke="#bfbfbf" points="41.5,-73 41.5,-92 98.5,-92 98.5,-73 41.5,-73"/>
<text text-anchor="middle" x="70" y="-80" font-family="Helvetica,sans-Serif" font-size="10.00">memory</text>
</g>
<!-- Node2&#45;&gt;Node3 -->
<g id="edge2" class="edge"><title>Node2&#45;&gt;Node3</title>
<path fill="none" stroke="midnightblue" d="M150.532,-134.475C135.315,-124.843 110.313,-109.017 92.1992,-97.5517"/>
<polygon fill="midnightblue" stroke="midnightblue" points="93.7644,-94.4002 83.4429,-92.0091 90.0205,-100.315 93.7644,-94.4002"/>
</g>
<!-- Node4 -->
<g id="node4" class="node"><title>Node4</title>
<g id="a_node4"><a xlink:href="expression_8h.xhtml" target="_top" xlink:title="Provides the base class for all expressions and units for expression values. ">
<polygon fill="white" stroke="black" points="116.5,-73 116.5,-92 211.5,-92 211.5,-73 116.5,-73"/>
<text text-anchor="middle" x="164" y="-80" font-family="Helvetica,sans-Serif" font-size="10.00">src/expression.h</text>
</a>
</g>
</g>
<!-- Node2&#45;&gt;Node4 -->
<g id="edge3" class="edge"><title>Node2&#45;&gt;Node4</title>
<path fill="none" stroke="midnightblue" d="M164,-134.475C164,-126.08 164,-112.981 164,-102.163"/>
<polygon fill="midnightblue" stroke="midnightblue" points="167.5,-102.009 164,-92.0091 160.5,-102.009 167.5,-102.009"/>
</g>
<!-- Node5 -->
<g id="node5" class="node"><title>Node5</title>
<polygon fill="white" stroke="#bfbfbf" points="0,-6 0,-25 62,-25 62,-6 0,-6"/>
<text text-anchor="middle" x="31" y="-13" font-family="Helvetica,sans-Serif" font-size="10.00">algorithm</text>
</g>
<!-- Node4&#45;&gt;Node5 -->
<g id="edge4" class="edge"><title>Node4&#45;&gt;Node5</title>
<path fill="none" stroke="midnightblue" d="M146.339,-72.8685C123.683,-61.7961 84.1718,-42.4862 57.8002,-29.5978"/>
<polygon fill="midnightblue" stroke="midnightblue" points="59.2557,-26.4136 48.7344,-25.1672 56.182,-32.7027 59.2557,-26.4136"/>
</g>
<!-- Node6 -->
<g id="node6" class="node"><title>Node6</title>
<polygon fill="white" stroke="#bfbfbf" points="80,-6 80,-25 122,-25 122,-6 80,-6"/>
<text text-anchor="middle" x="101" y="-13" font-family="Helvetica,sans-Serif" font-size="10.00">utility</text>
</g>
<!-- Node4&#45;&gt;Node6 -->
<g id="edge5" class="edge"><title>Node4&#45;&gt;Node6</title>
<path fill="none" stroke="midnightblue" d="M155.504,-72.7338C145.491,-62.403 128.659,-45.0371 116.344,-32.3315"/>
<polygon fill="midnightblue" stroke="midnightblue" points="118.835,-29.8721 109.362,-25.1273 113.808,-34.7439 118.835,-29.8721"/>
</g>
<!-- Node7 -->
<g id="node7" class="node"><title>Node7</title>
<polygon fill="white" stroke="#bfbfbf" points="140.5,-6 140.5,-25 187.5,-25 187.5,-6 140.5,-6"/>
<text text-anchor="middle" x="164" y="-13" font-family="Helvetica,sans-Serif" font-size="10.00">vector</text>
</g>
<!-- Node4&#45;&gt;Node7 -->
<g id="edge6" class="edge"><title>Node4&#45;&gt;Node7</title>
<path fill="none" stroke="midnightblue" d="M164,-72.7338C164,-63.1826 164,-47.6183 164,-35.2829"/>
<polygon fill="midnightblue" stroke="midnightblue" points="167.5,-35.1273 164,-25.1273 160.5,-35.1273 167.5,-35.1273"/>
</g>
<!-- Node8 -->
<g id="node8" class="node"><title>Node8</title>
<polygon fill="white" stroke="#bfbfbf" points="206,-0.5 206,-30.5 318,-30.5 318,-0.5 206,-0.5"/>
<text text-anchor="start" x="214" y="-18.5" font-family="Helvetica,sans-Serif" font-size="10.00">boost/icl/continuous</text>
<text text-anchor="middle" x="262" y="-7.5" font-family="Helvetica,sans-Serif" font-size="10.00">_interval.hpp</text>
</g>
<!-- Node4&#45;&gt;Node8 -->
<g id="edge7" class="edge"><title>Node4&#45;&gt;Node8</title>
<path fill="none" stroke="midnightblue" d="M177.217,-72.7338C191.225,-63.4425 213.813,-48.4609 232.152,-36.2968"/>
<polygon fill="midnightblue" stroke="midnightblue" points="234.359,-39.0332 240.758,-30.589 230.49,-33.1997 234.359,-39.0332"/>
</g>
<!-- Node9 -->
<g id="node9" class="node"><title>Node9</title>
<polygon fill="white" stroke="#bfbfbf" points="336,-6 336,-25 464,-25 464,-6 336,-6"/>
<text text-anchor="middle" x="400" y="-13" font-family="Helvetica,sans-Serif" font-size="10.00">boost/noncopyable.hpp</text>
</g>
<!-- Node4&#45;&gt;Node9 -->
<g id="edge8" class="edge"><title>Node4&#45;&gt;Node9</title>
<path fill="none" stroke="midnightblue" d="M195.339,-72.8685C237.508,-61.254 312.587,-40.5757 359.144,-27.7528"/>
<polygon fill="midnightblue" stroke="midnightblue" points="360.196,-31.0935 368.907,-25.0637 358.337,-24.3448 360.196,-31.0935"/>
</g>
<!-- Node12 -->
<g id="node12" class="node"><title>Node12</title>
<polygon fill="white" stroke="#bfbfbf" points="229.5,-73 229.5,-92 292.5,-92 292.5,-73 229.5,-73"/>
<text text-anchor="middle" x="261" y="-80" font-family="Helvetica,sans-Serif" font-size="10.00">exception</text>
</g>
<!-- Node11&#45;&gt;Node12 -->
<g id="edge11" class="edge"><title>Node11&#45;&gt;Node12</title>
<path fill="none" stroke="midnightblue" d="M499.277,-138.149C454.357,-131.14 371.277,-116.918 302,-98 299.037,-97.1908 295.979,-96.2725 292.933,-95.3003"/>
<polygon fill="midnightblue" stroke="midnightblue" points="293.963,-91.9539 283.369,-92.0785 291.728,-98.5877 293.963,-91.9539"/>
</g>
<!-- Node13 -->
<g id="node13" class="node"><title>Node13</title>
<polygon fill="white" stroke="#bfbfbf" points="311,-73 311,-92 355,-92 355,-73 311,-73"/>
<text text-anchor="middle" x="333" y="-80" font-family="Helvetica,sans-Serif" font-size="10.00">string</text>
</g>
<!-- Node11&#45;&gt;Node13 -->
<g id="edge12" class="edge"><title>Node11&#45;&gt;Node13</title>
<path fill="none" stroke="midnightblue" d="M499.27,-136.031C465.025,-128.325 409.957,-114.755 364,-98 362.388,-97.4123 360.746,-96.7728 359.1,-96.1005"/>
<polygon fill="midnightblue" stroke="midnightblue" points="360.39,-92.8448 349.827,-92.0259 357.574,-99.2533 360.39,-92.8448"/>
</g>
<!-- Node14 -->
<g id="node14" class="node"><title>Node14</title>
<polygon fill="white" stroke="#bfbfbf" points="373,-73 373,-92 519,-92 519,-73 373,-73"/>
<text text-anchor="middle" x="446" y="-80" font-family="Helvetica,sans-Serif" font-size="10.00">boost/current_function.hpp</text>
</g>
<!-- Node11&#45;&gt;Node14 -->
<g id="edge13" class="edge"><title>Node11&#45;&gt;Node14</title>
<path fill="none" stroke="midnightblue" d="M519.678,-134.475C505.884,-124.931 483.301,-109.307 466.768,-97.8683"/>
<polygon fill="midnightblue" stroke="midnightblue" points="468.514,-94.8205 458.299,-92.0091 464.531,-100.577 468.514,-94.8205"/>
</g>
<!-- Node15 -->
<g id="node15" class="node"><title>Node15</title>
<polygon fill="white" stroke="#bfbfbf" points="537,-73 537,-92 701,-92 701,-73 537,-73"/>
<text text-anchor="middle" x="619" y="-80" font-family="Helvetica,sans-Serif" font-size="10.00">boost/exception/exception.hpp</text>
</g>
<!-- Node11&#45;&gt;Node15 -->
<g id="edge14" class="edge"><title>Node11&#45;&gt;Node15</title>
<path fill="none" stroke="midnightblue" d="M544.465,-134.475C558.419,-124.931 581.265,-109.307 597.991,-97.8683"/>
<polygon fill="midnightblue" stroke="midnightblue" points="600.28,-100.543 606.558,-92.0091 596.328,-94.7653 600.28,-100.543"/>
</g>
<!-- Node16 -->
<g id="node16" class="node"><title>Node16</title>
<polygon fill="white" stroke="#bfbfbf" points="719,-73 719,-92 853,-92 853,-73 719,-73"/>
<text text-anchor="middle" x="786" y="-80" font-family="Helvetica,sans-Serif" font-size="10.00">boost/exception/info.hpp</text>
</g>
<!-- Node11&#45;&gt;Node16 -->
<g id="edge15" class="edge"><title>Node11&#45;&gt;Node16</title>
<path fill="none" stroke="midnightblue" d="M564.686,-135.343C609.06,-124.948 688.627,-106.31 739.292,-94.4414"/>
<polygon fill="midnightblue" stroke="midnightblue" points="740.393,-97.7784 749.331,-92.0898 738.796,-90.9629 740.393,-97.7784"/>
</g>
<!-- Node17 -->
<g id="node17" class="node"><title>Node17</title>
<polygon fill="white" stroke="#bfbfbf" points="871.5,-67.5 871.5,-97.5 984.5,-97.5 984.5,-67.5 871.5,-67.5"/>
<text text-anchor="start" x="879.5" y="-85.5" font-family="Helvetica,sans-Serif" font-size="10.00">boost/exception/info</text>
<text text-anchor="middle" x="928" y="-74.5" font-family="Helvetica,sans-Serif" font-size="10.00">_tuple.hpp</text>
</g>
<!-- Node11&#45;&gt;Node17 -->
<g id="edge16" class="edge"><title>Node11&#45;&gt;Node17</title>
<path fill="none" stroke="midnightblue" d="M564.924,-139.403C622.763,-132.89 746.561,-118.094 861.18,-98.0546"/>
<polygon fill="midnightblue" stroke="midnightblue" points="861.938,-101.475 871.176,-96.2892 860.72,-94.5817 861.938,-101.475"/>
</g>
<!-- Node18 -->
<g id="node18" class="node"><title>Node18</title>
<g id="a_node18"><a xlink:href="source__info_8h.xhtml" target="_top" xlink:title="Helper facilities to get source file information. ">
<polygon fill="white" stroke="black" points="1003,-73 1003,-92 1101,-92 1101,-73 1003,-73"/>
<text text-anchor="middle" x="1052" y="-80" font-family="Helvetica,sans-Serif" font-size="10.00">ext/source_info.h</text>
</a>
</g>
</g>
<!-- Node11&#45;&gt;Node18 -->
<g id="edge17" class="edge"><title>Node11&#45;&gt;Node18</title>
<path fill="none" stroke="midnightblue" d="M564.709,-141.479C640.605,-137.588 834.382,-125.57 994,-98 999.766,-97.0041 1005.81,-95.7436 1011.72,-94.3834"/>
<polygon fill="midnightblue" stroke="midnightblue" points="1012.58,-97.7766 1021.48,-92.0293 1010.94,-90.9717 1012.58,-97.7766"/>
</g>
</g>
</svg>
