<?xml version="1.0" encoding="UTF-8" standalone="no"?>
<!DOCTYPE svg PUBLIC "-//W3C//DTD SVG 1.1//EN"
 "http://www.w3.org/Graphics/SVG/1.1/DTD/svg11.dtd">
<!-- Generated by graphviz version 2.38.0 (20140413.2041)
 -->
<!-- Title: scram::mef::EnsureNonNegative Pages: 1 -->
<!--zoomable 264 -->
<svg id="main" version="1.1" xmlns="http://www.w3.org/2000/svg" xmlns:xlink="http://www.w3.org/1999/xlink" xml:space="preserve" onload="init(evt)">
<style type="text/css"><![CDATA[
.edge:hover path { stroke: red; }
.edge:hover polygon { stroke: red; fill: red; }
]]></style>
<script type="text/javascript"><![CDATA[
var edges = document.getElementsByTagName('g');
if (edges && edges.length) {
  for (var i=0;i<edges.length;i++) {
    if (edges[i].id.substr(0,4)=='edge') {
      edges[i].setAttribute('class','edge');
    }
  }
}
]]></script>
        <defs>
                <circle id="rim" cx="0" cy="0" r="7"/>
                <circle id="rim2" cx="0" cy="0" r="3.5"/>
                <g id="zoomPlus">
                        <use xlink:href="#rim" fill="#404040">
                                <set attributeName="fill" to="#808080" begin="zoomplus.mouseover" end="zoomplus.mouseout"/>
                        </use>
                        <path d="M-4,0h8M0,-4v8" fill="none" stroke="white" stroke-width="1.5" pointer-events="none"/>
                </g>
                <g id="zoomMin">
                        <use xlink:href="#rim" fill="#404040">
                                <set attributeName="fill" to="#808080" begin="zoomminus.mouseover" end="zoomminus.mouseout"/>
                        </use>
                        <path d="M-4,0h8" fill="none" stroke="white" stroke-width="1.5" pointer-events="none"/>
                </g>
                <g id="dirArrow">
                        <path fill="none" stroke="white" stroke-width="1.5" d="M0,-3.0v7 M-2.5,-0.5L0,-3.0L2.5,-0.5"/>
                </g>
               <g id="resetDef">
                       <use xlink:href="#rim2" fill="#404040">
                               <set attributeName="fill" to="#808080" begin="reset.mouseover" end="reset.mouseout"/>
                       </use>
               </g>
        </defs>

<script type="text/javascript">
var viewWidth = 541;
var viewHeight = 264;
var sectionId = 'dynsection-8';
</script>
<script xlink:href="svgpan.js"/>
<svg id="graph" class="graph">
<g id="viewport">
<title>scram::mef::EnsureNonNegative</title>
<polygon fill="white" stroke="none" points="-4,4 -4,-259.5 537,-259.5 537,4 -4,4"/>
<!-- Node1 -->
<g id="node1" class="node"><title>Node1</title>
<polygon fill="#bfbfbf" stroke="black" points="0,-118 0,-137 173,-137 173,-118 0,-118"/>
<text text-anchor="middle" x="86.5" y="-125" font-family="Helvetica,sans-Serif" font-size="10.00">scram::mef::EnsureNonNegative</text>
</g>
<!-- Node1&#45;&gt;Node1 -->
<g id="edge3" class="edge"><title>Node1&#45;&gt;Node1</title>
<path fill="none" stroke="midnightblue" d="M49.375,-145.004C49.381,-150.836 61.756,-155.5 86.5,-155.5 121.691,-155.5 131.864,-146.065 117.018,-137.257"/>
<polygon fill="midnightblue" stroke="midnightblue" points="52.1562,-147.137 55.9825,-137.257 46.8302,-142.594 52.1562,-147.137"/>
</g>
<!-- Node2 -->
<g id="node2" class="node"><title>Node2</title>
<g id="a_node2"><a xlink:href="classscram_1_1mef_1_1Mean.xhtml#ab75b082938d5f6ed2b7bd2d45c3c850b" target="_top" xlink:title="Computes the expression value with a given argument value extractor. ">
<polygon fill="white" stroke="black" points="209,-236 209,-255 363,-255 363,-236 209,-236"/>
<text text-anchor="middle" x="286" y="-243" font-family="Helvetica,sans-Serif" font-size="10.00">scram::mef::Mean::Compute</text>
</a>
</g>
</g>
<!-- Node1&#45;&gt;Node2 -->
<g id="edge1" class="edge"><title>Node1&#45;&gt;Node2</title>
<path fill="none" stroke="midnightblue" d="M103.338,-144.385C125.068,-166.544 166.315,-205.12 209,-226.5 216.661,-230.337 225.154,-233.436 233.606,-235.929"/>
<polygon fill="midnightblue" stroke="midnightblue" points="105.708,-141.8 96.249,-137.026 100.666,-146.656 105.708,-141.8"/>
</g>
<!-- Node3 -->
<g id="node3" class="node"><title>Node3</title>
<g id="a_node3"><a xlink:href="classscram_1_1mef_1_1NaryExpression_3_01T_00-1_01_4.xhtml#aad5811e7fc2298aaf486697e050774fa" target="_top" xlink:title="Computes the expression value with a given argument value extractor. ">
<polygon fill="white" stroke="black" points="210,-186.5 210,-216.5 362,-216.5 362,-186.5 210,-186.5"/>
<text text-anchor="start" x="218" y="-204.5" font-family="Helvetica,sans-Serif" font-size="10.00">scram::mef::NaryExpression</text>
<text text-anchor="middle" x="286" y="-193.5" font-family="Helvetica,sans-Serif" font-size="10.00">&lt; T,&#45;1 &gt;::Compute</text>
</a>
</g>
</g>
<!-- Node1&#45;&gt;Node3 -->
<g id="edge2" class="edge"><title>Node1&#45;&gt;Node3</title>
<path fill="none" stroke="midnightblue" d="M118.673,-141.181C143.05,-151.67 177.905,-166.215 209,-177.5 217.454,-180.568 226.515,-183.626 235.329,-186.48"/>
<polygon fill="midnightblue" stroke="midnightblue" points="119.799,-137.854 109.232,-137.095 117.019,-144.279 119.799,-137.854"/>
</g>
<!-- Node4 -->
<g id="node4" class="node"><title>Node4</title>
<g id="a_node4"><a xlink:href="classscram_1_1mef_1_1PeriodicTest.xhtml#a546bf1c23ba3926f124de31d7b08b4c3" target="_top" xlink:title="Fully parametrized periodic&#45;test description. ">
<polygon fill="white" stroke="black" points="219,-137.5 219,-167.5 353,-167.5 353,-137.5 219,-137.5"/>
<text text-anchor="start" x="227" y="-155.5" font-family="Helvetica,sans-Serif" font-size="10.00">scram::mef::PeriodicTest</text>
<text text-anchor="middle" x="286" y="-144.5" font-family="Helvetica,sans-Serif" font-size="10.00">::PeriodicTest</text>
</a>
</g>
</g>
<!-- Node1&#45;&gt;Node4 -->
<g id="edge4" class="edge"><title>Node1&#45;&gt;Node4</title>
<path fill="none" stroke="midnightblue" d="M172.757,-138.292C188.138,-140.239 203.964,-142.242 218.704,-144.108"/>
<polygon fill="midnightblue" stroke="midnightblue" points="173.09,-134.806 162.73,-137.023 172.211,-141.751 173.09,-134.806"/>
</g>
<!-- Node5 -->
<g id="node5" class="node"><title>Node5</title>
<g id="a_node5"><a xlink:href="classscram_1_1mef_1_1Exponential.xhtml#a93569be7f366dce3dd25dcbb083ca774" target="_top" xlink:title="scram::mef::Exponential\l::Validate">
<polygon fill="white" stroke="black" points="219.5,-88.5 219.5,-118.5 352.5,-118.5 352.5,-88.5 219.5,-88.5"/>
<text text-anchor="start" x="227.5" y="-106.5" font-family="Helvetica,sans-Serif" font-size="10.00">scram::mef::Exponential</text>
<text text-anchor="middle" x="286" y="-95.5" font-family="Helvetica,sans-Serif" font-size="10.00">::Validate</text>
</a>
</g>
</g>
<!-- Node1&#45;&gt;Node5 -->
<g id="edge5" class="edge"><title>Node1&#45;&gt;Node5</title>
<path fill="none" stroke="midnightblue" d="M175.918,-116.756C190.567,-114.975 205.523,-113.158 219.477,-111.462"/>
<polygon fill="midnightblue" stroke="midnightblue" points="175.346,-113.299 165.841,-117.98 176.19,-120.248 175.346,-113.299"/>
</g>
<!-- Node7 -->
<g id="node7" class="node"><title>Node7</title>
<g id="a_node7"><a xlink:href="classscram_1_1mef_1_1Glm.xhtml#a48b4b735418eee27d2c4b81b9e59be85" target="_top" xlink:title="Validates the expression. ">
<polygon fill="white" stroke="black" points="215.5,-50 215.5,-69 356.5,-69 356.5,-50 215.5,-50"/>
<text text-anchor="middle" x="286" y="-57" font-family="Helvetica,sans-Serif" font-size="10.00">scram::mef::Glm::Validate</text>
</a>
</g>
</g>
<!-- Node1&#45;&gt;Node7 -->
<g id="edge7" class="edge"><title>Node1&#45;&gt;Node7</title>
<path fill="none" stroke="midnightblue" d="M119.027,-113.848C143.334,-103.617 177.935,-89.6837 209,-79.5 220.539,-75.7174 233.24,-72.1475 244.901,-69.0998"/>
<polygon fill="midnightblue" stroke="midnightblue" points="117.441,-110.719 109.602,-117.847 120.175,-117.163 117.441,-110.719"/>
</g>
<!-- Node8 -->
<g id="node8" class="node"><title>Node8</title>
<g id="a_node8"><a xlink:href="classscram_1_1mef_1_1Weibull.xhtml#ad36688cf28ab24dd909832cd05aad328" target="_top" xlink:title="Validates the expression. ">
<polygon fill="white" stroke="black" points="231,-0.5 231,-30.5 341,-30.5 341,-0.5 231,-0.5"/>
<text text-anchor="start" x="239" y="-18.5" font-family="Helvetica,sans-Serif" font-size="10.00">scram::mef::Weibull</text>
<text text-anchor="middle" x="286" y="-7.5" font-family="Helvetica,sans-Serif" font-size="10.00">::Validate</text>
</a>
</g>
</g>
<!-- Node1&#45;&gt;Node8 -->
<g id="edge8" class="edge"><title>Node1&#45;&gt;Node8</title>
<path fill="none" stroke="midnightblue" d="M106.365,-111.184C129.301,-92.0369 169.817,-60.3841 209,-40.5 216.308,-36.7914 224.284,-33.4644 232.233,-30.54"/>
<polygon fill="midnightblue" stroke="midnightblue" points="103.849,-108.728 98.4748,-117.859 108.37,-114.072 103.849,-108.728"/>
</g>
<!-- Node6 -->
<g id="node6" class="node"><title>Node6</title>
<g id="a_node6"><a xlink:href="classscram_1_1mef_1_1PeriodicTest.xhtml#a0aa8dc4d62e8fc24194f0183bc533638" target="_top" xlink:title="scram::mef::PeriodicTest\l::interval">
<polygon fill="white" stroke="black" points="399,-88.5 399,-118.5 533,-118.5 533,-88.5 399,-88.5"/>
<text text-anchor="start" x="407" y="-106.5" font-family="Helvetica,sans-Serif" font-size="10.00">scram::mef::PeriodicTest</text>
<text text-anchor="middle" x="466" y="-95.5" font-family="Helvetica,sans-Serif" font-size="10.00">::interval</text>
</a>
</g>
</g>
<!-- Node5&#45;&gt;Node6 -->
<g id="edge6" class="edge"><title>Node5&#45;&gt;Node6</title>
<path fill="none" stroke="midnightblue" d="M362.529,-103.5C374.56,-103.5 386.927,-103.5 398.723,-103.5"/>
<polygon fill="midnightblue" stroke="midnightblue" points="362.522,-100 352.522,-103.5 362.522,-107 362.522,-100"/>
</g>
</g>
</svg>
        <g id="navigator" transform="translate(0 0)" fill="#404254">
                <rect fill="#f2f5e9" fill-opacity="0.5" stroke="#606060" stroke-width=".5" x="0" y="0" width="60" height="60"/>
                <use id="zoomplus" xlink:href="#zoomPlus" x="17" y="9" onmousedown="handleZoom(evt,'in')"/>
                <use id="zoomminus" xlink:href="#zoomMin" x="42" y="9" onmousedown="handleZoom(evt,'out')"/>
                <use id="reset" xlink:href="#resetDef" x="30" y="36" onmousedown="handleReset()"/>
                <g id="arrowUp" xlink:href="#dirArrow" transform="translate(30 24)" onmousedown="handlePan(0,-1)">
                  <use xlink:href="#rim" fill="#404040">
                        <set attributeName="fill" to="#808080" begin="arrowUp.mouseover" end="arrowUp.mouseout"/>
                  </use>
                  <path fill="none" stroke="white" stroke-width="1.5" d="M0,-3.0v7 M-2.5,-0.5L0,-3.0L2.5,-0.5"/>
                </g>
                <g id="arrowRight" xlink:href="#dirArrow" transform="rotate(90) translate(36 -43)" onmousedown="handlePan(1,0)">
                  <use xlink:href="#rim" fill="#404040">
                        <set attributeName="fill" to="#808080" begin="arrowRight.mouseover" end="arrowRight.mouseout"/>
                  </use>
                  <path fill="none" stroke="white" stroke-width="1.5" d="M0,-3.0v7 M-2.5,-0.5L0,-3.0L2.5,-0.5"/>
                </g>
                <g id="arrowDown" xlink:href="#dirArrow" transform="rotate(180) translate(-30 -48)" onmousedown="handlePan(0,1)">
                  <use xlink:href="#rim" fill="#404040">
                        <set attributeName="fill" to="#808080" begin="arrowDown.mouseover" end="arrowDown.mouseout"/>
                  </use>
                  <path fill="none" stroke="white" stroke-width="1.5" d="M0,-3.0v7 M-2.5,-0.5L0,-3.0L2.5,-0.5"/>
                </g>
                <g id="arrowLeft" xlink:href="#dirArrow" transform="rotate(270) translate(-36 17)" onmousedown="handlePan(-1,0)">
                  <use xlink:href="#rim" fill="#404040">
                        <set attributeName="fill" to="#808080" begin="arrowLeft.mouseover" end="arrowLeft.mouseout"/>
                  </use>
                  <path fill="none" stroke="white" stroke-width="1.5" d="M0,-3.0v7 M-2.5,-0.5L0,-3.0L2.5,-0.5"/>
                </g>
        </g>
        <svg viewBox="0 0 15 15" width="100%" height="30px" preserveAspectRatio="xMaxYMin meet">
         <g id="arrow_out" transform="scale(0.3 0.3)">
          <a xlink:href="expression_8cc_a262d38f7d6438e25ea34765b8d6a03eb_icgraph_org.svg" target="_base">
           <rect id="button" ry="5" rx="5" y="6" x="6" height="38" width="38"
                fill="#f2f5e9" fill-opacity="0.5" stroke="#606060" stroke-width="1.0"/>
           <path id="arrow"
             d="M 11.500037,31.436501 C 11.940474,20.09759 22.043105,11.32322 32.158766,21.979434 L 37.068811,17.246167 C 37.068811,17.246167 37.088388,32 37.088388,32 L 22.160133,31.978069 C 22.160133,31.978069 26.997745,27.140456 26.997745,27.140456 C 18.528582,18.264221 13.291696,25.230495 11.500037,31.436501 z"
             style="fill:#404040;"/>
          </a>
         </g>
        </svg>
</svg>
