<?xml version="1.0" encoding="UTF-8" standalone="no"?>
<!DOCTYPE svg PUBLIC "-//W3C//DTD SVG 1.1//EN"
 "http://www.w3.org/Graphics/SVG/1.1/DTD/svg11.dtd">
<!-- Generated by graphviz version 2.38.0 (20140413.2041)
 -->
<!-- Title: scram::mef::EnsurePositive Pages: 1 -->
<svg width="345pt" height="215pt"
 viewBox="0.00 0.00 345.00 214.50" xmlns="http://www.w3.org/2000/svg" xmlns:xlink="http://www.w3.org/1999/xlink">
<g id="graph0" class="graph" transform="scale(1 1) rotate(0) translate(4 210.5)">
<title>scram::mef::EnsurePositive</title>
<polygon fill="white" stroke="none" points="-4,4 -4,-210.5 341,-210.5 341,4 -4,4"/>
<!-- Node1 -->
<g id="node1" class="node"><title>Node1</title>
<polygon fill="#bfbfbf" stroke="black" points="0,-94 0,-113 147,-113 147,-94 0,-94"/>
<text text-anchor="middle" x="73.5" y="-101" font-family="Helvetica,sans-Serif" font-size="10.00">scram::mef::EnsurePositive</text>
</g>
<!-- Node1&#45;&gt;Node1 -->
<g id="edge3" class="edge"><title>Node1&#45;&gt;Node1</title>
<path fill="none" stroke="midnightblue" d="M38.6426,-121.391C39.1531,-127.041 50.7722,-131.5 73.5,-131.5 106.559,-131.5 116.115,-122.065 102.168,-113.257"/>
<polygon fill="midnightblue" stroke="midnightblue" points="41.5619,-123.335 44.832,-113.257 35.9912,-119.096 41.5619,-123.335"/>
</g>
<!-- Node2 -->
<g id="node2" class="node"><title>Node2</title>
<g id="a_node2"><a xlink:href="classscram_1_1mef_1_1Mean.xhtml#ab75b082938d5f6ed2b7bd2d45c3c850b" target="_top" xlink:title="Computes the expression value with a given argument value extractor. ">
<polygon fill="white" stroke="black" points="183,-187 183,-206 337,-206 337,-187 183,-187"/>
<text text-anchor="middle" x="260" y="-194" font-family="Helvetica,sans-Serif" font-size="10.00">scram::mef::Mean::Compute</text>
</a>
</g>
</g>
<!-- Node1&#45;&gt;Node2 -->
<g id="edge1" class="edge"><title>Node1&#45;&gt;Node2</title>
<path fill="none" stroke="midnightblue" d="M93.447,-119.532C114.173,-136.294 148.993,-162.241 183,-177.5 191.438,-181.286 200.755,-184.401 209.89,-186.935"/>
<polygon fill="midnightblue" stroke="midnightblue" points="95.6684,-116.827 85.7216,-113.178 91.222,-122.234 95.6684,-116.827"/>
</g>
<!-- Node3 -->
<g id="node3" class="node"><title>Node3</title>
<g id="a_node3"><a xlink:href="classscram_1_1mef_1_1NaryExpression_3_01T_00-1_01_4.xhtml#aad5811e7fc2298aaf486697e050774fa" target="_top" xlink:title="Computes the expression value with a given argument value extractor. ">
<polygon fill="white" stroke="black" points="184,-137.5 184,-167.5 336,-167.5 336,-137.5 184,-137.5"/>
<text text-anchor="start" x="192" y="-155.5" font-family="Helvetica,sans-Serif" font-size="10.00">scram::mef::NaryExpression</text>
<text text-anchor="middle" x="260" y="-144.5" font-family="Helvetica,sans-Serif" font-size="10.00">&lt; T,&#45;1 &gt;::Compute</text>
</a>
</g>
</g>
<!-- Node1&#45;&gt;Node3 -->
<g id="edge2" class="edge"><title>Node1&#45;&gt;Node3</title>
<path fill="none" stroke="midnightblue" d="M120.397,-115.69C145.216,-122.281 176.081,-130.478 202.381,-137.463"/>
<polygon fill="midnightblue" stroke="midnightblue" points="121.075,-112.248 110.511,-113.064 119.278,-119.014 121.075,-112.248"/>
</g>
<!-- Node4 -->
<g id="node4" class="node"><title>Node4</title>
<g id="a_node4"><a xlink:href="classscram_1_1mef_1_1PeriodicTest.xhtml#a546bf1c23ba3926f124de31d7b08b4c3" target="_top" xlink:title="Fully parametrized periodic&#45;test description. ">
<polygon fill="white" stroke="black" points="193,-88.5 193,-118.5 327,-118.5 327,-88.5 193,-88.5"/>
<text text-anchor="start" x="201" y="-106.5" font-family="Helvetica,sans-Serif" font-size="10.00">scram::mef::PeriodicTest</text>
<text text-anchor="middle" x="260" y="-95.5" font-family="Helvetica,sans-Serif" font-size="10.00">::PeriodicTest</text>
</a>
</g>
</g>
<!-- Node1&#45;&gt;Node4 -->
<g id="edge4" class="edge"><title>Node1&#45;&gt;Node4</title>
<path fill="none" stroke="midnightblue" d="M157.459,-103.5C169.268,-103.5 181.281,-103.5 192.716,-103.5"/>
<polygon fill="midnightblue" stroke="midnightblue" points="157.154,-100 147.154,-103.5 157.154,-107 157.154,-100"/>
</g>
<!-- Node5 -->
<g id="node5" class="node"><title>Node5</title>
<g id="a_node5"><a xlink:href="classscram_1_1mef_1_1Glm.xhtml#a48b4b735418eee27d2c4b81b9e59be85" target="_top" xlink:title="Validates the expression. ">
<polygon fill="white" stroke="black" points="189.5,-50 189.5,-69 330.5,-69 330.5,-50 189.5,-50"/>
<text text-anchor="middle" x="260" y="-57" font-family="Helvetica,sans-Serif" font-size="10.00">scram::mef::Glm::Validate</text>
</a>
</g>
</g>
<!-- Node1&#45;&gt;Node5 -->
<g id="edge5" class="edge"><title>Node1&#45;&gt;Node5</title>
<path fill="none" stroke="midnightblue" d="M124.3,-91.6236C154.02,-84.5358 191.258,-75.6552 219.044,-69.0287"/>
<polygon fill="midnightblue" stroke="midnightblue" points="123.449,-88.2283 114.534,-93.9527 125.073,-95.0373 123.449,-88.2283"/>
</g>
<!-- Node6 -->
<g id="node6" class="node"><title>Node6</title>
<g id="a_node6"><a xlink:href="classscram_1_1mef_1_1Weibull.xhtml#ad36688cf28ab24dd909832cd05aad328" target="_top" xlink:title="Validates the expression. ">
<polygon fill="white" stroke="black" points="205,-0.5 205,-30.5 315,-30.5 315,-0.5 205,-0.5"/>
<text text-anchor="start" x="213" y="-18.5" font-family="Helvetica,sans-Serif" font-size="10.00">scram::mef::Weibull</text>
<text text-anchor="middle" x="260" y="-7.5" font-family="Helvetica,sans-Serif" font-size="10.00">::Validate</text>
</a>
</g>
</g>
<!-- Node1&#45;&gt;Node6 -->
<g id="edge6" class="edge"><title>Node1&#45;&gt;Node6</title>
<path fill="none" stroke="midnightblue" d="M97.1458,-88.4748C118.599,-74.7006 152.05,-54.3933 183,-40.5 190.983,-36.9164 199.64,-33.5825 208.155,-30.5925"/>
<polygon fill="midnightblue" stroke="midnightblue" points="95.2095,-85.5589 88.7286,-93.9403 99.0217,-91.4299 95.2095,-85.5589"/>
</g>
</g>
</svg>
