<?xml version="1.0" encoding="UTF-8" standalone="no"?>
<!DOCTYPE svg PUBLIC "-//W3C//DTD SVG 1.1//EN"
 "http://www.w3.org/Graphics/SVG/1.1/DTD/svg11.dtd">
<!-- Generated by graphviz version 2.38.0 (20140413.2041)
 -->
<!-- Title: scram::mef::EnsureProbability Pages: 1 -->
<svg width="503pt" height="204pt"
 viewBox="0.00 0.00 503.00 204.00" xmlns="http://www.w3.org/2000/svg" xmlns:xlink="http://www.w3.org/1999/xlink">
<g id="graph0" class="graph" transform="scale(1 1) rotate(0) translate(4 200)">
<title>scram::mef::EnsureProbability</title>
<polygon fill="white" stroke="none" points="-4,4 -4,-200 499,-200 499,4 -4,4"/>
<!-- Node1 -->
<g id="node1" class="node"><title>Node1</title>
<polygon fill="#bfbfbf" stroke="black" points="0,-104 0,-123 160,-123 160,-104 0,-104"/>
<text text-anchor="middle" x="80" y="-111" font-family="Helvetica,sans-Serif" font-size="10.00">scram::mef::EnsureProbability</text>
</g>
<!-- Node1&#45;&gt;Node1 -->
<g id="edge1" class="edge"><title>Node1&#45;&gt;Node1</title>
<path fill="none" stroke="midnightblue" d="M51.9485,-123.257C38.3018,-132.065 47.6523,-141.5 80,-141.5 102.239,-141.5 113.608,-137.041 114.108,-131.391"/>
<polygon fill="midnightblue" stroke="midnightblue" points="116.831,-129.188 108.051,-123.257 111.216,-133.368 116.831,-129.188"/>
</g>
<!-- Node2 -->
<g id="node2" class="node"><title>Node2</title>
<g id="a_node2"><a xlink:href="classscram_1_1mef_1_1Expression.xhtml#a179b21e75df522673e6d51b784d10e86" target="_top" xlink:title="scram::mef::Expression\l::interval">
<polygon fill="white" stroke="black" points="198.5,-98.5 198.5,-128.5 327.5,-128.5 327.5,-98.5 198.5,-98.5"/>
<text text-anchor="start" x="206.5" y="-116.5" font-family="Helvetica,sans-Serif" font-size="10.00">scram::mef::Expression</text>
<text text-anchor="middle" x="263" y="-105.5" font-family="Helvetica,sans-Serif" font-size="10.00">::interval</text>
</a>
</g>
</g>
<!-- Node1&#45;&gt;Node2 -->
<g id="edge2" class="edge"><title>Node1&#45;&gt;Node2</title>
<path fill="none" stroke="midnightblue" d="M160.126,-113.5C169.387,-113.5 178.81,-113.5 187.998,-113.5"/>
<polygon fill="midnightblue" stroke="midnightblue" points="188.251,-117 198.251,-113.5 188.251,-110 188.251,-117"/>
</g>
<!-- Node3 -->
<g id="node3" class="node"><title>Node3</title>
<g id="a_node3"><a xlink:href="classscram_1_1mef_1_1Expression.xhtml#af4c1a5cb29e8f45623a99742b7ba8bc5" target="_top" xlink:title="scram::mef::Expression\l::value">
<polygon fill="white" stroke="black" points="366,-165.5 366,-195.5 495,-195.5 495,-165.5 366,-165.5"/>
<text text-anchor="start" x="374" y="-183.5" font-family="Helvetica,sans-Serif" font-size="10.00">scram::mef::Expression</text>
<text text-anchor="middle" x="430.5" y="-172.5" font-family="Helvetica,sans-Serif" font-size="10.00">::value</text>
</a>
</g>
</g>
<!-- Node1&#45;&gt;Node3 -->
<g id="edge10" class="edge"><title>Node1&#45;&gt;Node3</title>
<path fill="none" stroke="midnightblue" d="M125.458,-123.034C146.774,-127.539 172.685,-132.921 196,-137.5 249.509,-148.009 310.07,-159.14 356.106,-167.443"/>
<polygon fill="midnightblue" stroke="midnightblue" points="355.535,-170.896 365.997,-169.224 356.775,-164.007 355.535,-170.896"/>
</g>
<!-- Node7 -->
<g id="node7" class="node"><title>Node7</title>
<g id="a_node7"><a xlink:href="expression_8h.xhtml#a7b3a2de3be05128d51eaa76c01de99f6" target="_top" xlink:title="Checks if a given interval is within the probability domain. ">
<polygon fill="white" stroke="black" points="196,-42 196,-61 330,-61 330,-42 196,-42"/>
<text text-anchor="middle" x="263" y="-49" font-family="Helvetica,sans-Serif" font-size="10.00">scram::mef::IsProbability</text>
</a>
</g>
</g>
<!-- Node1&#45;&gt;Node7 -->
<g id="edge8" class="edge"><title>Node1&#45;&gt;Node7</title>
<path fill="none" stroke="midnightblue" d="M108.885,-103.948C139.842,-93.3442 189.972,-76.1725 224.386,-64.3845"/>
<polygon fill="midnightblue" stroke="midnightblue" points="225.758,-67.6142 234.084,-61.0625 223.489,-60.992 225.758,-67.6142"/>
</g>
<!-- Node2&#45;&gt;Node3 -->
<g id="edge3" class="edge"><title>Node2&#45;&gt;Node3</title>
<path fill="none" stroke="midnightblue" d="M300.294,-128.605C319.749,-136.661 344.15,-146.701 366,-155.5 371.014,-157.519 376.258,-159.613 381.491,-161.69"/>
<polygon fill="midnightblue" stroke="midnightblue" points="380.258,-164.967 390.845,-165.392 382.834,-158.458 380.258,-164.967"/>
</g>
<!-- Node4 -->
<g id="node4" class="node"><title>Node4</title>
<g id="a_node4"><a xlink:href="classscram_1_1mef_1_1Expression.xhtml#a058aef65da884a47ea3345bc31488b7a" target="_top" xlink:title="Determines if the value of the expression contains deviate expressions. ">
<polygon fill="white" stroke="black" points="366,-98.5 366,-128.5 495,-128.5 495,-98.5 366,-98.5"/>
<text text-anchor="start" x="374" y="-116.5" font-family="Helvetica,sans-Serif" font-size="10.00">scram::mef::Expression</text>
<text text-anchor="middle" x="430.5" y="-105.5" font-family="Helvetica,sans-Serif" font-size="10.00">::IsDeviate</text>
</a>
</g>
</g>
<!-- Node2&#45;&gt;Node4 -->
<g id="edge4" class="edge"><title>Node2&#45;&gt;Node4</title>
<path fill="none" stroke="midnightblue" d="M327.513,-113.5C336.751,-113.5 346.328,-113.5 355.747,-113.5"/>
<polygon fill="midnightblue" stroke="midnightblue" points="355.883,-117 365.883,-113.5 355.883,-110 355.883,-117"/>
</g>
<!-- Node5 -->
<g id="node5" class="node"><title>Node5</title>
<g id="a_node5"><a xlink:href="classscram_1_1mef_1_1Expression.xhtml#a5cf00d8b2ff843ad029a501a89ee572a" target="_top" xlink:title="scram::mef::Expression\l::Sample">
<polygon fill="white" stroke="black" points="366,-49.5 366,-79.5 495,-79.5 495,-49.5 366,-49.5"/>
<text text-anchor="start" x="374" y="-67.5" font-family="Helvetica,sans-Serif" font-size="10.00">scram::mef::Expression</text>
<text text-anchor="middle" x="430.5" y="-56.5" font-family="Helvetica,sans-Serif" font-size="10.00">::Sample</text>
</a>
</g>
</g>
<!-- Node2&#45;&gt;Node5 -->
<g id="edge6" class="edge"><title>Node2&#45;&gt;Node5</title>
<path fill="none" stroke="midnightblue" d="M315.006,-98.3986C332.075,-93.3449 351.268,-87.6624 368.991,-82.4152"/>
<polygon fill="midnightblue" stroke="midnightblue" points="370.068,-85.7466 378.663,-79.5516 368.08,-79.0346 370.068,-85.7466"/>
</g>
<!-- Node6 -->
<g id="node6" class="node"><title>Node6</title>
<g id="a_node6"><a xlink:href="classscram_1_1mef_1_1Expression.xhtml#ab6d31c4ddb5d4a827727829cbd4e4449" target="_top" xlink:title="This routine resets the sampling to get new values. ">
<polygon fill="white" stroke="black" points="366,-0.5 366,-30.5 495,-30.5 495,-0.5 366,-0.5"/>
<text text-anchor="start" x="374" y="-18.5" font-family="Helvetica,sans-Serif" font-size="10.00">scram::mef::Expression</text>
<text text-anchor="middle" x="430.5" y="-7.5" font-family="Helvetica,sans-Serif" font-size="10.00">::Reset</text>
</a>
</g>
</g>
<!-- Node2&#45;&gt;Node6 -->
<g id="edge7" class="edge"><title>Node2&#45;&gt;Node6</title>
<path fill="none" stroke="midnightblue" d="M313.613,-98.3529C319.411,-95.546 325.024,-92.2799 330,-88.5 351.519,-72.1538 344.475,-55.8384 366,-39.5 367.831,-38.1105 369.751,-36.7935 371.736,-35.5459"/>
<polygon fill="midnightblue" stroke="midnightblue" points="373.747,-38.4322 380.784,-30.5115 370.344,-32.3153 373.747,-38.4322"/>
</g>
<!-- Node4&#45;&gt;Node4 -->
<g id="edge5" class="edge"><title>Node4&#45;&gt;Node4</title>
<path fill="none" stroke="midnightblue" d="M401.571,-128.659C394.595,-138.057 404.238,-147 430.5,-147 446.503,-147 456.335,-143.679 459.996,-138.958"/>
<polygon fill="midnightblue" stroke="midnightblue" points="463.474,-138.451 459.429,-128.659 456.484,-138.836 463.474,-138.451"/>
</g>
<!-- Node7&#45;&gt;Node7 -->
<g id="edge9" class="edge"><title>Node7&#45;&gt;Node7</title>
<path fill="none" stroke="midnightblue" d="M237.415,-61.2571C224.968,-70.0653 233.496,-79.5 263,-79.5 282.823,-79.5 293.177,-75.241 294.063,-69.7746"/>
<polygon fill="midnightblue" stroke="midnightblue" points="296.938,-67.7749 288.585,-61.2571 291.051,-71.5611 296.938,-67.7749"/>
</g>
</g>
</svg>
