<?xml version="1.0" encoding="UTF-8" standalone="no"?>
<!DOCTYPE svg PUBLIC "-//W3C//DTD SVG 1.1//EN"
 "http://www.w3.org/Graphics/SVG/1.1/DTD/svg11.dtd">
<!-- Generated by graphviz version 2.38.0 (20140413.2041)
 -->
<!-- Title: scram::mef::EnsureProbability Pages: 1 -->
<svg width="724pt" height="225pt"
 viewBox="0.00 0.00 724.00 225.00" xmlns="http://www.w3.org/2000/svg" xmlns:xlink="http://www.w3.org/1999/xlink">
<g id="graph0" class="graph" transform="scale(1 1) rotate(0) translate(4 221)">
<title>scram::mef::EnsureProbability</title>
<polygon fill="white" stroke="none" points="-4,4 -4,-221 720,-221 720,4 -4,4"/>
<!-- Node1 -->
<g id="node1" class="node"><title>Node1</title>
<polygon fill="#bfbfbf" stroke="black" points="0,-99 0,-118 160,-118 160,-99 0,-99"/>
<text text-anchor="middle" x="80" y="-106" font-family="Helvetica,sans-Serif" font-size="10.00">scram::mef::EnsureProbability</text>
</g>
<!-- Node1&#45;&gt;Node1 -->
<g id="edge2" class="edge"><title>Node1&#45;&gt;Node1</title>
<path fill="none" stroke="midnightblue" d="M44,-126.004C44.0059,-131.836 56.0059,-136.5 80,-136.5 114.125,-136.5 123.989,-127.065 109.593,-118.257"/>
<polygon fill="midnightblue" stroke="midnightblue" points="46.7311,-128.194 50.4072,-118.257 41.3369,-123.732 46.7311,-128.194"/>
</g>
<!-- Node2 -->
<g id="node2" class="node"><title>Node2</title>
<g id="a_node2"><a xlink:href="classscram_1_1mef_1_1NaryExpression_3_01T_00-1_01_4.xhtml#aad5811e7fc2298aaf486697e050774fa" target="_top" xlink:title="Computes the expression value with a given argument value extractor. ">
<polygon fill="white" stroke="black" points="196,-186.5 196,-216.5 348,-216.5 348,-186.5 196,-186.5"/>
<text text-anchor="start" x="204" y="-204.5" font-family="Helvetica,sans-Serif" font-size="10.00">scram::mef::NaryExpression</text>
<text text-anchor="middle" x="272" y="-193.5" font-family="Helvetica,sans-Serif" font-size="10.00">&lt; T,&#45;1 &gt;::Compute</text>
</a>
</g>
</g>
<!-- Node1&#45;&gt;Node2 -->
<g id="edge1" class="edge"><title>Node1&#45;&gt;Node2</title>
<path fill="none" stroke="midnightblue" d="M103.086,-123.862C125.642,-139.036 162.07,-162.141 196,-177.5 203.099,-180.713 210.755,-183.686 218.368,-186.365"/>
<polygon fill="midnightblue" stroke="midnightblue" points="104.831,-120.816 94.5949,-118.083 100.892,-126.603 104.831,-120.816"/>
</g>
<!-- Node3 -->
<g id="node3" class="node"><title>Node3</title>
<g id="a_node3"><a xlink:href="classscram_1_1mef_1_1PeriodicTest.xhtml#a546bf1c23ba3926f124de31d7b08b4c3" target="_top" xlink:title="Fully parametrized periodic&#45;test description. ">
<polygon fill="white" stroke="black" points="205,-137.5 205,-167.5 339,-167.5 339,-137.5 205,-137.5"/>
<text text-anchor="start" x="213" y="-155.5" font-family="Helvetica,sans-Serif" font-size="10.00">scram::mef::PeriodicTest</text>
<text text-anchor="middle" x="272" y="-144.5" font-family="Helvetica,sans-Serif" font-size="10.00">::PeriodicTest</text>
</a>
</g>
</g>
<!-- Node1&#45;&gt;Node3 -->
<g id="edge3" class="edge"><title>Node1&#45;&gt;Node3</title>
<path fill="none" stroke="midnightblue" d="M132.011,-120.313C154.741,-125.577 181.783,-131.839 205.945,-137.435"/>
<polygon fill="midnightblue" stroke="midnightblue" points="132.759,-116.894 122.227,-118.047 131.18,-123.713 132.759,-116.894"/>
</g>
<!-- Node4 -->
<g id="node4" class="node"><title>Node4</title>
<g id="a_node4"><a xlink:href="classscram_1_1mef_1_1Glm.xhtml#a48b4b735418eee27d2c4b81b9e59be85" target="_top" xlink:title="Validates the expression. ">
<polygon fill="white" stroke="black" points="201.5,-99 201.5,-118 342.5,-118 342.5,-99 201.5,-99"/>
<text text-anchor="middle" x="272" y="-106" font-family="Helvetica,sans-Serif" font-size="10.00">scram::mef::Glm::Validate</text>
</a>
</g>
</g>
<!-- Node1&#45;&gt;Node4 -->
<g id="edge4" class="edge"><title>Node1&#45;&gt;Node4</title>
<path fill="none" stroke="midnightblue" d="M170.5,-108.5C180.846,-108.5 191.28,-108.5 201.308,-108.5"/>
<polygon fill="midnightblue" stroke="midnightblue" points="170.201,-105 160.201,-108.5 170.201,-112 170.201,-105"/>
</g>
<!-- Node5 -->
<g id="node5" class="node"><title>Node5</title>
<g id="a_node5"><a xlink:href="classscram_1_1mef_1_1BasicEvent.xhtml#acfc0e73e1add67aa2ace841350eb62cd" target="_top" xlink:title="Validates the probability expressions for the primary event. ">
<polygon fill="white" stroke="black" points="207,-49.5 207,-79.5 337,-79.5 337,-49.5 207,-49.5"/>
<text text-anchor="start" x="215" y="-67.5" font-family="Helvetica,sans-Serif" font-size="10.00">scram::mef::BasicEvent</text>
<text text-anchor="middle" x="272" y="-56.5" font-family="Helvetica,sans-Serif" font-size="10.00">::Validate</text>
</a>
</g>
</g>
<!-- Node1&#45;&gt;Node5 -->
<g id="edge5" class="edge"><title>Node1&#45;&gt;Node5</title>
<path fill="none" stroke="midnightblue" d="M132.102,-96.666C155.046,-91.3526 182.369,-85.025 206.687,-79.3935"/>
<polygon fill="midnightblue" stroke="midnightblue" points="131.18,-93.2867 122.227,-98.9527 132.759,-100.106 131.18,-93.2867"/>
</g>
<!-- Node10 -->
<g id="node10" class="node"><title>Node10</title>
<g id="a_node10"><a xlink:href="classscram_1_1mef_1_1CcfGroup.xhtml#a31cbe59ce89f295de7bb810d8b75990e" target="_top" xlink:title="Validates the setup for the CCF model and group. ">
<polygon fill="white" stroke="black" points="211,-0.5 211,-30.5 333,-30.5 333,-0.5 211,-0.5"/>
<text text-anchor="start" x="219" y="-18.5" font-family="Helvetica,sans-Serif" font-size="10.00">scram::mef::CcfGroup</text>
<text text-anchor="middle" x="272" y="-7.5" font-family="Helvetica,sans-Serif" font-size="10.00">::Validate</text>
</a>
</g>
</g>
<!-- Node1&#45;&gt;Node10 -->
<g id="edge10" class="edge"><title>Node1&#45;&gt;Node10</title>
<path fill="none" stroke="midnightblue" d="M103.532,-93.2241C126.172,-78.3513 162.428,-55.8105 196,-40.5 203.867,-36.9121 212.405,-33.576 220.806,-30.5852"/>
<polygon fill="midnightblue" stroke="midnightblue" points="101.386,-90.4478 94.9926,-98.8959 105.259,-96.2789 101.386,-90.4478"/>
</g>
<!-- Node6 -->
<g id="node6" class="node"><title>Node6</title>
<g id="a_node6"><a xlink:href="classscram_1_1mef_1_1CcfGroup.xhtml#a06dd05cabcbeddf42090536f6a47a184" target="_top" xlink:title="scram::mef::CcfGroup\l::members">
<polygon fill="white" stroke="black" points="384,-49.5 384,-79.5 506,-79.5 506,-49.5 384,-49.5"/>
<text text-anchor="start" x="392" y="-67.5" font-family="Helvetica,sans-Serif" font-size="10.00">scram::mef::CcfGroup</text>
<text text-anchor="middle" x="445" y="-56.5" font-family="Helvetica,sans-Serif" font-size="10.00">::members</text>
</a>
</g>
</g>
<!-- Node5&#45;&gt;Node6 -->
<g id="edge6" class="edge"><title>Node5&#45;&gt;Node6</title>
<path fill="none" stroke="midnightblue" d="M347.29,-64.5C359.463,-64.5 371.943,-64.5 383.722,-64.5"/>
<polygon fill="midnightblue" stroke="midnightblue" points="347.161,-61.0001 337.161,-64.5 347.161,-68.0001 347.161,-61.0001"/>
</g>
<!-- Node7 -->
<g id="node7" class="node"><title>Node7</title>
<g id="a_node7"><a xlink:href="classscram_1_1mef_1_1CcfGroup.xhtml#ab399c5ed0c1d7d0a316ac3b7244b7eb9" target="_top" xlink:title="Processes the given factors and members to create common cause failure probabilities and new events t...">
<polygon fill="white" stroke="black" points="568,-93.5 568,-123.5 690,-123.5 690,-93.5 568,-93.5"/>
<text text-anchor="start" x="576" y="-111.5" font-family="Helvetica,sans-Serif" font-size="10.00">scram::mef::CcfGroup</text>
<text text-anchor="middle" x="629" y="-100.5" font-family="Helvetica,sans-Serif" font-size="10.00">::ApplyModel</text>
</a>
</g>
</g>
<!-- Node6&#45;&gt;Node7 -->
<g id="edge7" class="edge"><title>Node6&#45;&gt;Node7</title>
<path fill="none" stroke="midnightblue" d="M516.043,-81.4335C533.173,-85.5748 551.351,-89.9694 567.965,-93.9861"/>
<polygon fill="midnightblue" stroke="midnightblue" points="516.64,-77.9772 506.098,-79.0292 514.996,-84.7811 516.64,-77.9772"/>
</g>
<!-- Node8 -->
<g id="node8" class="node"><title>Node8</title>
<g id="a_node8"><a xlink:href="classscram_1_1mef_1_1Component.xhtml#a4fd4a9b195b92c8061149da20f5bd3f0" target="_top" xlink:title="Adds MEF constructs into this component container. ">
<polygon fill="white" stroke="black" points="550,-55 550,-74 708,-74 708,-55 550,-55"/>
<text text-anchor="middle" x="629" y="-62" font-family="Helvetica,sans-Serif" font-size="10.00">scram::mef::Component::Add</text>
</a>
</g>
</g>
<!-- Node6&#45;&gt;Node8 -->
<g id="edge8" class="edge"><title>Node6&#45;&gt;Node8</title>
<path fill="none" stroke="midnightblue" d="M516.426,-64.5C527.355,-64.5 538.701,-64.5 549.789,-64.5"/>
<polygon fill="midnightblue" stroke="midnightblue" points="516.098,-61.0001 506.098,-64.5 516.098,-68.0001 516.098,-61.0001"/>
</g>
<!-- Node9 -->
<g id="node9" class="node"><title>Node9</title>
<g id="a_node9"><a xlink:href="reporter_8cc.xhtml#a73f9569f4c2e2b6a3eac8d2c01b81943" target="_top" xlink:title="Describes all performed analyses deduced from settings. ">
<polygon fill="white" stroke="black" points="542,-5.5 542,-35.5 716,-35.5 716,-5.5 542,-5.5"/>
<text text-anchor="start" x="550" y="-23.5" font-family="Helvetica,sans-Serif" font-size="10.00">scram::ReportCalculatedQuantity</text>
<text text-anchor="middle" x="629" y="-12.5" font-family="Helvetica,sans-Serif" font-size="10.00">&lt; core::RiskAnalysis &gt;</text>
</a>
</g>
</g>
<!-- Node6&#45;&gt;Node9 -->
<g id="edge9" class="edge"><title>Node6&#45;&gt;Node9</title>
<path fill="none" stroke="midnightblue" d="M516.138,-47.5435C532.493,-43.5896 549.798,-39.4059 565.783,-35.5416"/>
<polygon fill="midnightblue" stroke="midnightblue" points="514.996,-44.2189 506.098,-49.9708 516.64,-51.0228 514.996,-44.2189"/>
</g>
</g>
</svg>
