<?xml version="1.0" encoding="UTF-8" standalone="no"?>
<!DOCTYPE svg PUBLIC "-//W3C//DTD SVG 1.1//EN"
 "http://www.w3.org/Graphics/SVG/1.1/DTD/svg11.dtd">
<!-- Generated by graphviz version 2.38.0 (20140413.2041)
 -->
<!-- Title: extern.h Pages: 1 -->
<!--zoomable 229 -->
<svg id="main" version="1.1" xmlns="http://www.w3.org/2000/svg" xmlns:xlink="http://www.w3.org/1999/xlink" xml:space="preserve" onload="init(evt)">
<style type="text/css"><![CDATA[
.edge:hover path { stroke: red; }
.edge:hover polygon { stroke: red; fill: red; }
]]></style>
<script type="text/javascript"><![CDATA[
var edges = document.getElementsByTagName('g');
if (edges && edges.length) {
  for (var i=0;i<edges.length;i++) {
    if (edges[i].id.substr(0,4)=='edge') {
      edges[i].setAttribute('class','edge');
    }
  }
}
]]></script>
        <defs>
                <circle id="rim" cx="0" cy="0" r="7"/>
                <circle id="rim2" cx="0" cy="0" r="3.5"/>
                <g id="zoomPlus">
                        <use xlink:href="#rim" fill="#404040">
                                <set attributeName="fill" to="#808080" begin="zoomplus.mouseover" end="zoomplus.mouseout"/>
                        </use>
                        <path d="M-4,0h8M0,-4v8" fill="none" stroke="white" stroke-width="1.5" pointer-events="none"/>
                </g>
                <g id="zoomMin">
                        <use xlink:href="#rim" fill="#404040">
                                <set attributeName="fill" to="#808080" begin="zoomminus.mouseover" end="zoomminus.mouseout"/>
                        </use>
                        <path d="M-4,0h8" fill="none" stroke="white" stroke-width="1.5" pointer-events="none"/>
                </g>
                <g id="dirArrow">
                        <path fill="none" stroke="white" stroke-width="1.5" d="M0,-3.0v7 M-2.5,-0.5L0,-3.0L2.5,-0.5"/>
                </g>
               <g id="resetDef">
                       <use xlink:href="#rim2" fill="#404040">
                               <set attributeName="fill" to="#808080" begin="reset.mouseover" end="reset.mouseout"/>
                       </use>
               </g>
        </defs>

<script type="text/javascript">
var viewWidth = 2796;
var viewHeight = 229;
var sectionId = 'dynsection-0';
</script>
<script xlink:href="svgpan.js"/>
<svg id="graph" class="graph">
<g id="viewport">
<title>extern.h</title>
<polygon fill="white" stroke="none" points="-4,4 -4,-225 2791.5,-225 2791.5,4 -4,4"/>
<!-- Node1 -->
<g id="node1" class="node"><title>Node1</title>
<polygon fill="#bfbfbf" stroke="black" points="1951.5,-201.5 1951.5,-220.5 2007.5,-220.5 2007.5,-201.5 1951.5,-201.5"/>
<text text-anchor="middle" x="1979.5" y="-208.5" font-family="Helvetica,sans-Serif" font-size="10.00">extern.h</text>
</g>
<!-- Node2 -->
<g id="node2" class="node"><title>Node2</title>
<polygon fill="white" stroke="#bfbfbf" points="678,-73 678,-92 735,-92 735,-73 678,-73"/>
<text text-anchor="middle" x="706.5" y="-80" font-family="Helvetica,sans-Serif" font-size="10.00">memory</text>
</g>
<!-- Node1&#45;&gt;Node2 -->
<g id="edge1" class="edge"><title>Node1&#45;&gt;Node2</title>
<path fill="none" stroke="midnightblue" d="M1951.35,-210.013C1841.03,-209.76 1427.62,-205.966 1090.5,-165 935.009,-146.105 895.125,-140.971 744.5,-98 741.915,-97.2627 739.259,-96.4241 736.61,-95.5306"/>
<polygon fill="midnightblue" stroke="midnightblue" points="737.781,-92.2322 727.187,-92.1374 735.41,-98.8183 737.781,-92.2322"/>
</g>
<!-- Node3 -->
<g id="node3" class="node"><title>Node3</title>
<polygon fill="white" stroke="#bfbfbf" points="827.5,-6 827.5,-25 871.5,-25 871.5,-6 827.5,-6"/>
<text text-anchor="middle" x="849.5" y="-13" font-family="Helvetica,sans-Serif" font-size="10.00">string</text>
</g>
<!-- Node1&#45;&gt;Node3 -->
<g id="edge2" class="edge"><title>Node1&#45;&gt;Node3</title>
<path fill="none" stroke="midnightblue" d="M1951.21,-209.836C1801.2,-208.817 1097.65,-202.104 883.5,-165 784.882,-147.913 727.818,-178.616 668.5,-98 660.335,-86.9026 659.97,-77.8196 668.5,-67 710.947,-13.1604 753.786,-53.6392 818.5,-31 820.119,-30.4335 821.768,-29.8103 823.418,-29.1504"/>
<polygon fill="midnightblue" stroke="midnightblue" points="824.93,-32.3095 832.702,-25.1092 822.136,-25.8912 824.93,-32.3095"/>
</g>
<!-- Node4 -->
<g id="node4" class="node"><title>Node4</title>
<polygon fill="white" stroke="#bfbfbf" points="753.5,-73 753.5,-92 821.5,-92 821.5,-73 753.5,-73"/>
<text text-anchor="middle" x="787.5" y="-80" font-family="Helvetica,sans-Serif" font-size="10.00">type_traits</text>
</g>
<!-- Node1&#45;&gt;Node4 -->
<g id="edge3" class="edge"><title>Node1&#45;&gt;Node4</title>
<path fill="none" stroke="midnightblue" d="M1951.27,-208.861C1823.03,-203.342 1282.87,-176.37 847.5,-98 841.689,-96.954 835.601,-95.6867 829.623,-94.3417"/>
<polygon fill="midnightblue" stroke="midnightblue" points="830.27,-90.8988 819.736,-92.0303 828.677,-97.715 830.27,-90.8988"/>
</g>
<!-- Node5 -->
<g id="node5" class="node"><title>Node5</title>
<polygon fill="white" stroke="#bfbfbf" points="1683.5,-6 1683.5,-25 1725.5,-25 1725.5,-6 1683.5,-6"/>
<text text-anchor="middle" x="1704.5" y="-13" font-family="Helvetica,sans-Serif" font-size="10.00">utility</text>
</g>
<!-- Node1&#45;&gt;Node5 -->
<g id="edge4" class="edge"><title>Node1&#45;&gt;Node5</title>
<path fill="none" stroke="midnightblue" d="M1976.31,-201.284C1966.62,-176.123 1935.03,-102.886 1883.5,-67 1827.59,-28.0657 1798.64,-53.9538 1734.5,-31 1733.07,-30.4884 1731.62,-29.9292 1730.16,-29.3377"/>
<polygon fill="midnightblue" stroke="midnightblue" points="1731.29,-26.0082 1720.73,-25.1239 1728.44,-32.3992 1731.29,-26.0082"/>
</g>
<!-- Node6 -->
<g id="node6" class="node"><title>Node6</title>
<polygon fill="white" stroke="#bfbfbf" points="2100,-6 2100,-25 2147,-25 2147,-6 2100,-6"/>
<text text-anchor="middle" x="2123.5" y="-13" font-family="Helvetica,sans-Serif" font-size="10.00">vector</text>
</g>
<!-- Node1&#45;&gt;Node6 -->
<g id="edge5" class="edge"><title>Node1&#45;&gt;Node6</title>
<path fill="none" stroke="midnightblue" d="M1984.47,-201.056C1993.3,-185.766 2013.05,-154.289 2036.5,-134 2061.77,-112.136 2081.97,-124.359 2102.5,-98 2116.71,-79.7591 2121.38,-52.9266 2122.87,-35.0949"/>
<polygon fill="midnightblue" stroke="midnightblue" points="2126.36,-35.2714 2123.45,-25.0848 2119.38,-34.8643 2126.36,-35.2714"/>
</g>
<!-- Node7 -->
<g id="node7" class="node"><title>Node7</title>
<polygon fill="white" stroke="#bfbfbf" points="2046,-140 2046,-159 2193,-159 2193,-140 2046,-140"/>
<text text-anchor="middle" x="2119.5" y="-147" font-family="Helvetica,sans-Serif" font-size="10.00">boost/dll/shared_library.hpp</text>
</g>
<!-- Node1&#45;&gt;Node7 -->
<g id="edge6" class="edge"><title>Node1&#45;&gt;Node7</title>
<path fill="none" stroke="midnightblue" d="M1999.56,-201.475C2023.26,-191.401 2062.91,-174.553 2090.08,-163.002"/>
<polygon fill="midnightblue" stroke="midnightblue" points="2091.64,-166.142 2099.48,-159.009 2088.91,-159.699 2091.64,-166.142"/>
</g>
<!-- Node8 -->
<g id="node8" class="node"><title>Node8</title>
<polygon fill="white" stroke="#bfbfbf" points="2211.5,-134.5 2211.5,-164.5 2339.5,-164.5 2339.5,-134.5 2211.5,-134.5"/>
<text text-anchor="start" x="2219.5" y="-152.5" font-family="Helvetica,sans-Serif" font-size="10.00">boost/exception/errinfo</text>
<text text-anchor="middle" x="2275.5" y="-141.5" font-family="Helvetica,sans-Serif" font-size="10.00">_nested_exception.hpp</text>
</g>
<!-- Node1&#45;&gt;Node8 -->
<g id="edge7" class="edge"><title>Node1&#45;&gt;Node8</title>
<path fill="none" stroke="midnightblue" d="M2007.61,-204.349C2051.72,-195.482 2138.63,-178.012 2201.53,-165.369"/>
<polygon fill="midnightblue" stroke="midnightblue" points="2202.29,-168.786 2211.4,-163.384 2200.91,-161.923 2202.29,-168.786"/>
</g>
<!-- Node9 -->
<g id="node9" class="node"><title>Node9</title>
<polygon fill="white" stroke="#bfbfbf" points="2357.5,-140 2357.5,-159 2489.5,-159 2489.5,-140 2357.5,-140"/>
<text text-anchor="middle" x="2423.5" y="-147" font-family="Helvetica,sans-Serif" font-size="10.00">boost/exception_ptr.hpp</text>
</g>
<!-- Node1&#45;&gt;Node9 -->
<g id="edge8" class="edge"><title>Node1&#45;&gt;Node9</title>
<path fill="none" stroke="midnightblue" d="M2007.83,-207.225C2069.8,-201.006 2221.95,-184.924 2348.5,-165 2356.15,-163.796 2364.2,-162.388 2372.09,-160.931"/>
<polygon fill="midnightblue" stroke="midnightblue" points="2372.76,-164.365 2381.94,-159.07 2371.46,-157.487 2372.76,-164.365"/>
</g>
<!-- Node10 -->
<g id="node10" class="node"><title>Node10</title>
<polygon fill="white" stroke="#bfbfbf" points="2508,-140 2508,-159 2649,-159 2649,-140 2508,-140"/>
<text text-anchor="middle" x="2578.5" y="-147" font-family="Helvetica,sans-Serif" font-size="10.00">boost/filesystem/path.hpp</text>
</g>
<!-- Node1&#45;&gt;Node10 -->
<g id="edge9" class="edge"><title>Node1&#45;&gt;Node10</title>
<path fill="none" stroke="midnightblue" d="M2007.73,-208.476C2085.96,-204.055 2312.04,-189.927 2498.5,-165 2507.24,-163.831 2516.48,-162.369 2525.46,-160.827"/>
<polygon fill="midnightblue" stroke="midnightblue" points="2526.2,-164.25 2535.44,-159.062 2524.98,-157.357 2526.2,-164.25"/>
</g>
<!-- Node11 -->
<g id="node11" class="node"><title>Node11</title>
<polygon fill="white" stroke="#bfbfbf" points="2667.5,-134.5 2667.5,-164.5 2787.5,-164.5 2787.5,-134.5 2667.5,-134.5"/>
<text text-anchor="start" x="2675.5" y="-152.5" font-family="Helvetica,sans-Serif" font-size="10.00">boost/system/system</text>
<text text-anchor="middle" x="2727.5" y="-141.5" font-family="Helvetica,sans-Serif" font-size="10.00">_error.hpp</text>
</g>
<!-- Node1&#45;&gt;Node11 -->
<g id="edge10" class="edge"><title>Node1&#45;&gt;Node11</title>
<path fill="none" stroke="midnightblue" d="M2007.78,-209.551C2099.94,-207.789 2399.99,-199.691 2657.47,-165.007"/>
<polygon fill="midnightblue" stroke="midnightblue" points="2657.94,-168.474 2667.38,-163.655 2657,-161.539 2657.94,-168.474"/>
</g>
<!-- Node12 -->
<g id="node12" class="node"><title>Node12</title>
<g id="a_node12"><a xlink:href="element_8h.xhtml" target="_top" xlink:title="Base/mixin classes, structs, and properties common to all MEF classes/constructs. ...">
<polygon fill="white" stroke="black" points="1417,-140 1417,-159 1500,-159 1500,-140 1417,-140"/>
<text text-anchor="middle" x="1458.5" y="-147" font-family="Helvetica,sans-Serif" font-size="10.00">src/element.h</text>
</a>
</g>
</g>
<!-- Node1&#45;&gt;Node12 -->
<g id="edge11" class="edge"><title>Node1&#45;&gt;Node12</title>
<path fill="none" stroke="midnightblue" d="M1951.49,-206.801C1867.85,-197.249 1618.99,-168.828 1510.28,-156.413"/>
<polygon fill="midnightblue" stroke="midnightblue" points="1510.54,-152.92 1500.21,-155.263 1509.75,-159.875 1510.54,-152.92"/>
</g>
<!-- Node22 -->
<g id="node22" class="node"><title>Node22</title>
<g id="a_node22"><a xlink:href="error_8h.xhtml" target="_top" xlink:title="Exceptions for SCRAM. ">
<polygon fill="white" stroke="black" points="573.5,-73 573.5,-92 621.5,-92 621.5,-73 573.5,-73"/>
<text text-anchor="middle" x="597.5" y="-80" font-family="Helvetica,sans-Serif" font-size="10.00">error.h</text>
</a>
</g>
</g>
<!-- Node1&#45;&gt;Node22 -->
<g id="edge40" class="edge"><title>Node1&#45;&gt;Node22</title>
<path fill="none" stroke="midnightblue" d="M1951.5,-209.889C1763.63,-209.042 692.349,-202.571 635.5,-165 614.16,-150.897 604.571,-121.462 600.432,-102.098"/>
<polygon fill="midnightblue" stroke="midnightblue" points="603.834,-101.25 598.577,-92.052 596.951,-102.521 603.834,-101.25"/>
</g>
<!-- Node33 -->
<g id="node33" class="node"><title>Node33</title>
<g id="a_node33"><a xlink:href="expression_8h.xhtml" target="_top" xlink:title="Provides the base class for all expressions and units for expression values. ">
<polygon fill="white" stroke="black" points="1970,-73 1970,-92 2065,-92 2065,-73 1970,-73"/>
<text text-anchor="middle" x="2017.5" y="-80" font-family="Helvetica,sans-Serif" font-size="10.00">src/expression.h</text>
</a>
</g>
</g>
<!-- Node1&#45;&gt;Node33 -->
<g id="edge41" class="edge"><title>Node1&#45;&gt;Node33</title>
<path fill="none" stroke="midnightblue" d="M1982.11,-201.305C1988.24,-180.904 2003.65,-129.6 2011.97,-101.908"/>
<polygon fill="midnightblue" stroke="midnightblue" points="2015.34,-102.84 2014.87,-92.2557 2008.64,-100.826 2015.34,-102.84"/>
</g>
<!-- Node12&#45;&gt;Node2 -->
<g id="edge14" class="edge"><title>Node12&#45;&gt;Node2</title>
<path fill="none" stroke="midnightblue" d="M1416.71,-147.154C1284.12,-142.632 874.029,-126.635 744.5,-98 741.428,-97.3208 738.273,-96.4387 735.159,-95.4449"/>
<polygon fill="midnightblue" stroke="midnightblue" points="736.089,-92.0609 725.495,-92.0015 733.74,-98.6548 736.089,-92.0609"/>
</g>
<!-- Node12&#45;&gt;Node3 -->
<g id="edge16" class="edge"><title>Node12&#45;&gt;Node3</title>
<path fill="none" stroke="midnightblue" d="M1416.91,-145.595C1284.2,-136.242 878.896,-107 868.5,-98 850.679,-82.571 847.815,-53.963 848.108,-35.0783"/>
<polygon fill="midnightblue" stroke="midnightblue" points="851.607,-35.1696 848.574,-25.0183 844.615,-34.8456 851.607,-35.1696"/>
</g>
<!-- Node12&#45;&gt;Node4 -->
<g id="edge18" class="edge"><title>Node12&#45;&gt;Node4</title>
<path fill="none" stroke="midnightblue" d="M1416.94,-145.646C1286.79,-136.637 892.342,-108.762 835.5,-98 831.05,-97.1574 826.425,-96.0583 821.882,-94.8418"/>
<polygon fill="midnightblue" stroke="midnightblue" points="822.741,-91.447 812.163,-92.0451 820.805,-98.1741 822.741,-91.447"/>
</g>
<!-- Node12&#45;&gt;Node6 -->
<g id="edge19" class="edge"><title>Node12&#45;&gt;Node6</title>
<path fill="none" stroke="midnightblue" d="M1500.15,-147.248C1630.5,-143.032 2024.85,-127.912 2073.5,-98 2096.89,-83.6226 2110.92,-53.8099 2117.93,-34.504"/>
<polygon fill="midnightblue" stroke="midnightblue" points="2121.25,-35.6181 2121.12,-25.0241 2114.61,-33.3889 2121.25,-35.6181"/>
</g>
<!-- Node13 -->
<g id="node13" class="node"><title>Node13</title>
<polygon fill="white" stroke="#bfbfbf" points="1672,-73 1672,-92 1721,-92 1721,-73 1672,-73"/>
<text text-anchor="middle" x="1696.5" y="-80" font-family="Helvetica,sans-Serif" font-size="10.00">cstdint</text>
</g>
<!-- Node12&#45;&gt;Node13 -->
<g id="edge12" class="edge"><title>Node12&#45;&gt;Node13</title>
<path fill="none" stroke="midnightblue" d="M1500.08,-140.254C1541.7,-131.525 1607.31,-116.466 1662.5,-98 1664.42,-97.3586 1666.38,-96.6555 1668.34,-95.9156"/>
<polygon fill="midnightblue" stroke="midnightblue" points="1670.03,-99.0069 1678,-92.0247 1667.42,-92.5136 1670.03,-99.0069"/>
</g>
<!-- Node14 -->
<g id="node14" class="node"><title>Node14</title>
<polygon fill="white" stroke="#bfbfbf" points="1739,-73 1739,-92 1802,-92 1802,-73 1739,-73"/>
<text text-anchor="middle" x="1770.5" y="-80" font-family="Helvetica,sans-Serif" font-size="10.00">functional</text>
</g>
<!-- Node12&#45;&gt;Node14 -->
<g id="edge13" class="edge"><title>Node12&#45;&gt;Node14</title>
<path fill="none" stroke="midnightblue" d="M1500.27,-142.782C1553.89,-134.972 1649.53,-119.452 1729.5,-98 1732.47,-97.2041 1735.53,-96.2949 1738.57,-95.3285"/>
<polygon fill="midnightblue" stroke="midnightblue" points="1739.78,-98.6172 1748.14,-92.1158 1737.55,-91.9814 1739.78,-98.6172"/>
</g>
<!-- Node15 -->
<g id="node15" class="node"><title>Node15</title>
<polygon fill="white" stroke="#bfbfbf" points="1820,-73 1820,-92 1875,-92 1875,-73 1820,-73"/>
<text text-anchor="middle" x="1847.5" y="-80" font-family="Helvetica,sans-Serif" font-size="10.00">optional</text>
</g>
<!-- Node12&#45;&gt;Node15 -->
<g id="edge15" class="edge"><title>Node12&#45;&gt;Node15</title>
<path fill="none" stroke="midnightblue" d="M1500.03,-145.662C1566.51,-140.428 1700.51,-127.023 1810.5,-98 1813.16,-97.2981 1815.89,-96.463 1818.6,-95.5534"/>
<polygon fill="midnightblue" stroke="midnightblue" points="1820.01,-98.7645 1828.19,-92.0364 1817.6,-92.1922 1820.01,-98.7645"/>
</g>
<!-- Node16 -->
<g id="node16" class="node"><title>Node16</title>
<polygon fill="white" stroke="#bfbfbf" points="878,-73 878,-92 947,-92 947,-73 878,-73"/>
<text text-anchor="middle" x="912.5" y="-80" font-family="Helvetica,sans-Serif" font-size="10.00">string_view</text>
</g>
<!-- Node12&#45;&gt;Node16 -->
<g id="edge17" class="edge"><title>Node12&#45;&gt;Node16</title>
<path fill="none" stroke="midnightblue" d="M1416.74,-145.479C1312.74,-137.764 1044.22,-116.632 956.5,-98 952.822,-97.2187 949.02,-96.2393 945.262,-95.16"/>
<polygon fill="midnightblue" stroke="midnightblue" points="946.12,-91.7617 935.532,-92.1378 944.044,-98.4467 946.12,-91.7617"/>
</g>
<!-- Node17 -->
<g id="node17" class="node"><title>Node17</title>
<polygon fill="white" stroke="#bfbfbf" points="965.5,-67.5 965.5,-97.5 1085.5,-97.5 1085.5,-67.5 965.5,-67.5"/>
<text text-anchor="start" x="973.5" y="-85.5" font-family="Helvetica,sans-Serif" font-size="10.00">boost/iterator/iterator</text>
<text text-anchor="middle" x="1025.5" y="-74.5" font-family="Helvetica,sans-Serif" font-size="10.00">_facade.hpp</text>
</g>
<!-- Node12&#45;&gt;Node17 -->
<g id="edge20" class="edge"><title>Node12&#45;&gt;Node17</title>
<path fill="none" stroke="midnightblue" d="M1416.87,-143.676C1350.88,-135.823 1218.02,-119.167 1095.59,-98.1188"/>
<polygon fill="midnightblue" stroke="midnightblue" points="1096.11,-94.6582 1085.66,-96.3992 1094.92,-101.555 1096.11,-94.6582"/>
</g>
<!-- Node18 -->
<g id="node18" class="node"><title>Node18</title>
<polygon fill="white" stroke="#bfbfbf" points="1103.5,-67.5 1103.5,-97.5 1243.5,-97.5 1243.5,-67.5 1103.5,-67.5"/>
<text text-anchor="start" x="1111.5" y="-85.5" font-family="Helvetica,sans-Serif" font-size="10.00">boost/multi_index/hashed</text>
<text text-anchor="middle" x="1173.5" y="-74.5" font-family="Helvetica,sans-Serif" font-size="10.00">_index.hpp</text>
</g>
<!-- Node12&#45;&gt;Node18 -->
<g id="edge21" class="edge"><title>Node12&#45;&gt;Node18</title>
<path fill="none" stroke="midnightblue" d="M1420.95,-139.936C1376.32,-129.757 1300.87,-112.548 1244.99,-99.804"/>
<polygon fill="midnightblue" stroke="midnightblue" points="1245.67,-96.3705 1235.14,-97.5592 1244.12,-103.195 1245.67,-96.3705"/>
</g>
<!-- Node19 -->
<g id="node19" class="node"><title>Node19</title>
<polygon fill="white" stroke="#bfbfbf" points="1261.5,-67.5 1261.5,-97.5 1391.5,-97.5 1391.5,-67.5 1261.5,-67.5"/>
<text text-anchor="start" x="1269.5" y="-85.5" font-family="Helvetica,sans-Serif" font-size="10.00">boost/multi_index/mem</text>
<text text-anchor="middle" x="1326.5" y="-74.5" font-family="Helvetica,sans-Serif" font-size="10.00">_fun.hpp</text>
</g>
<!-- Node12&#45;&gt;Node19 -->
<g id="edge22" class="edge"><title>Node12&#45;&gt;Node19</title>
<path fill="none" stroke="midnightblue" d="M1440.97,-139.869C1421.57,-130.315 1389.71,-114.627 1364.53,-102.225"/>
<polygon fill="midnightblue" stroke="midnightblue" points="1365.76,-98.9294 1355.24,-97.6516 1362.66,-105.209 1365.76,-98.9294"/>
</g>
<!-- Node20 -->
<g id="node20" class="node"><title>Node20</title>
<polygon fill="white" stroke="#bfbfbf" points="1376.5,-6 1376.5,-25 1548.5,-25 1548.5,-6 1376.5,-6"/>
<text text-anchor="middle" x="1462.5" y="-13" font-family="Helvetica,sans-Serif" font-size="10.00">boost/multi_index_container.hpp</text>
</g>
<!-- Node12&#45;&gt;Node20 -->
<g id="edge23" class="edge"><title>Node12&#45;&gt;Node20</title>
<path fill="none" stroke="midnightblue" d="M1474.46,-139.916C1488.47,-131.375 1507.93,-116.835 1516.5,-98 1522.21,-85.4605 1521.98,-79.639 1516.5,-67 1510.04,-52.1242 1496.81,-39.6319 1485.06,-30.7935"/>
<polygon fill="midnightblue" stroke="midnightblue" points="1487.07,-27.9295 1476.88,-25.0217 1483.03,-33.6482 1487.07,-27.9295"/>
</g>
<!-- Node21 -->
<g id="node21" class="node"><title>Node21</title>
<polygon fill="white" stroke="#bfbfbf" points="1823.5,-6 1823.5,-25 1951.5,-25 1951.5,-6 1823.5,-6"/>
<text text-anchor="middle" x="1887.5" y="-13" font-family="Helvetica,sans-Serif" font-size="10.00">boost/noncopyable.hpp</text>
</g>
<!-- Node12&#45;&gt;Node21 -->
<g id="edge24" class="edge"><title>Node12&#45;&gt;Node21</title>
<path fill="none" stroke="midnightblue" d="M1500.03,-146.563C1601.87,-141.4 1857.58,-125.775 1883.5,-98 1899.02,-81.3673 1896.64,-53.5331 1892.72,-35.0947"/>
<polygon fill="midnightblue" stroke="midnightblue" points="1896.08,-34.1143 1890.28,-25.2461 1889.28,-35.7938 1896.08,-34.1143"/>
</g>
<!-- Node12&#45;&gt;Node22 -->
<g id="edge25" class="edge"><title>Node12&#45;&gt;Node22</title>
<path fill="none" stroke="midnightblue" d="M1416.76,-147.852C1298.76,-145.585 952.871,-135.943 668.5,-98 656.347,-96.3785 643.158,-93.8902 631.483,-91.4302"/>
<polygon fill="midnightblue" stroke="midnightblue" points="632.192,-88.0026 621.676,-89.298 630.704,-94.8428 632.192,-88.0026"/>
</g>
<!-- Node29 -->
<g id="node29" class="node"><title>Node29</title>
<g id="a_node29"><a xlink:href="linear__set_8h.xhtml" target="_top" xlink:title="Implementation of a vector&#45;based set for a small number of entries. ">
<polygon fill="white" stroke="black" points="1563.5,-73 1563.5,-92 1653.5,-92 1653.5,-73 1563.5,-73"/>
<text text-anchor="middle" x="1608.5" y="-80" font-family="Helvetica,sans-Serif" font-size="10.00">ext/linear_set.h</text>
</a>
</g>
</g>
<!-- Node12&#45;&gt;Node29 -->
<g id="edge33" class="edge"><title>Node12&#45;&gt;Node29</title>
<path fill="none" stroke="midnightblue" d="M1478.42,-139.869C1504.19,-128.699 1549.32,-109.147 1579.05,-96.2602"/>
<polygon fill="midnightblue" stroke="midnightblue" points="1580.71,-99.3548 1588.5,-92.1672 1577.93,-92.9319 1580.71,-99.3548"/>
</g>
<!-- Node32 -->
<g id="node32" class="node"><title>Node32</title>
<g id="a_node32"><a xlink:href="multi__index_8h.xhtml" target="_top" xlink:title="Helper functions to boost multi_index_container. ">
<polygon fill="white" stroke="black" points="1409.5,-73 1409.5,-92 1507.5,-92 1507.5,-73 1409.5,-73"/>
<text text-anchor="middle" x="1458.5" y="-80" font-family="Helvetica,sans-Serif" font-size="10.00">ext/multi_index.h</text>
</a>
</g>
</g>
<!-- Node12&#45;&gt;Node32 -->
<g id="edge38" class="edge"><title>Node12&#45;&gt;Node32</title>
<path fill="none" stroke="midnightblue" d="M1458.5,-139.734C1458.5,-130.183 1458.5,-114.618 1458.5,-102.283"/>
<polygon fill="midnightblue" stroke="midnightblue" points="1462,-102.127 1458.5,-92.1273 1455,-102.127 1462,-102.127"/>
</g>
<!-- Node22&#45;&gt;Node3 -->
<g id="edge27" class="edge"><title>Node22&#45;&gt;Node3</title>
<path fill="none" stroke="midnightblue" d="M618.19,-72.8741C623.747,-70.7591 629.799,-68.6357 635.5,-67 715.178,-44.1414 739.709,-56.7503 818.5,-31 820.17,-30.4544 821.867,-29.8414 823.563,-29.1839"/>
<polygon fill="midnightblue" stroke="midnightblue" points="825.27,-32.2599 833.07,-25.0903 822.501,-25.8305 825.27,-32.2599"/>
</g>
<!-- Node23 -->
<g id="node23" class="node"><title>Node23</title>
<polygon fill="white" stroke="#bfbfbf" points="0,-6 0,-25 63,-25 63,-6 0,-6"/>
<text text-anchor="middle" x="31.5" y="-13" font-family="Helvetica,sans-Serif" font-size="10.00">exception</text>
</g>
<!-- Node22&#45;&gt;Node23 -->
<g id="edge26" class="edge"><title>Node22&#45;&gt;Node23</title>
<path fill="none" stroke="midnightblue" d="M573.367,-81.2608C498.247,-80.0754 262.254,-73.017 72.5,-31 69.0791,-30.2425 65.5512,-29.2832 62.0675,-28.2201"/>
<polygon fill="midnightblue" stroke="midnightblue" points="63.0856,-24.8702 52.492,-25.0306 60.8735,-31.5115 63.0856,-24.8702"/>
</g>
<!-- Node24 -->
<g id="node24" class="node"><title>Node24</title>
<polygon fill="white" stroke="#bfbfbf" points="81.5,-6 81.5,-25 227.5,-25 227.5,-6 81.5,-6"/>
<text text-anchor="middle" x="154.5" y="-13" font-family="Helvetica,sans-Serif" font-size="10.00">boost/current_function.hpp</text>
</g>
<!-- Node22&#45;&gt;Node24 -->
<g id="edge28" class="edge"><title>Node22&#45;&gt;Node24</title>
<path fill="none" stroke="midnightblue" d="M573.375,-78.4305C515.284,-70.9732 363.074,-51.0374 236.5,-31 228.289,-29.7002 219.63,-28.2528 211.139,-26.7897"/>
<polygon fill="midnightblue" stroke="midnightblue" points="211.736,-23.3411 201.284,-25.0727 210.534,-30.2372 211.736,-23.3411"/>
</g>
<!-- Node25 -->
<g id="node25" class="node"><title>Node25</title>
<polygon fill="white" stroke="#bfbfbf" points="245.5,-6 245.5,-25 409.5,-25 409.5,-6 245.5,-6"/>
<text text-anchor="middle" x="327.5" y="-13" font-family="Helvetica,sans-Serif" font-size="10.00">boost/exception/exception.hpp</text>
</g>
<!-- Node22&#45;&gt;Node25 -->
<g id="edge29" class="edge"><title>Node22&#45;&gt;Node25</title>
<path fill="none" stroke="midnightblue" d="M573.063,-75.617C527.876,-64.7387 430.624,-41.3261 372.99,-27.4513"/>
<polygon fill="midnightblue" stroke="midnightblue" points="373.598,-23.9978 363.057,-25.06 371.96,-30.8034 373.598,-23.9978"/>
</g>
<!-- Node26 -->
<g id="node26" class="node"><title>Node26</title>
<polygon fill="white" stroke="#bfbfbf" points="427.5,-6 427.5,-25 561.5,-25 561.5,-6 427.5,-6"/>
<text text-anchor="middle" x="494.5" y="-13" font-family="Helvetica,sans-Serif" font-size="10.00">boost/exception/info.hpp</text>
</g>
<!-- Node22&#45;&gt;Node26 -->
<g id="edge30" class="edge"><title>Node22&#45;&gt;Node26</title>
<path fill="none" stroke="midnightblue" d="M583.609,-72.7338C566.466,-61.9156 537.1,-43.3832 516.789,-30.5659"/>
<polygon fill="midnightblue" stroke="midnightblue" points="518.496,-27.5043 508.171,-25.1273 514.76,-33.4241 518.496,-27.5043"/>
</g>
<!-- Node27 -->
<g id="node27" class="node"><title>Node27</title>
<polygon fill="white" stroke="#bfbfbf" points="580,-0.5 580,-30.5 693,-30.5 693,-0.5 580,-0.5"/>
<text text-anchor="start" x="588" y="-18.5" font-family="Helvetica,sans-Serif" font-size="10.00">boost/exception/info</text>
<text text-anchor="middle" x="636.5" y="-7.5" font-family="Helvetica,sans-Serif" font-size="10.00">_tuple.hpp</text>
</g>
<!-- Node22&#45;&gt;Node27 -->
<g id="edge31" class="edge"><title>Node22&#45;&gt;Node27</title>
<path fill="none" stroke="midnightblue" d="M602.76,-72.7338C607.878,-64.2027 615.875,-50.8744 622.799,-39.3345"/>
<polygon fill="midnightblue" stroke="midnightblue" points="625.903,-40.9647 628.047,-30.589 619.9,-37.3632 625.903,-40.9647"/>
</g>
<!-- Node28 -->
<g id="node28" class="node"><title>Node28</title>
<g id="a_node28"><a xlink:href="source__info_8h.xhtml" target="_top" xlink:title="Helper facilities to get source file information. ">
<polygon fill="white" stroke="black" points="711.5,-6 711.5,-25 809.5,-25 809.5,-6 711.5,-6"/>
<text text-anchor="middle" x="760.5" y="-13" font-family="Helvetica,sans-Serif" font-size="10.00">ext/source_info.h</text>
</a>
</g>
</g>
<!-- Node22&#45;&gt;Node28 -->
<g id="edge32" class="edge"><title>Node22&#45;&gt;Node28</title>
<path fill="none" stroke="midnightblue" d="M619.145,-72.8685C647.477,-61.5706 697.316,-41.6961 729.609,-28.8183"/>
<polygon fill="midnightblue" stroke="midnightblue" points="731.033,-32.0189 739.025,-25.0637 728.44,-25.5168 731.033,-32.0189"/>
</g>
<!-- Node29&#45;&gt;Node5 -->
<g id="edge36" class="edge"><title>Node29&#45;&gt;Node5</title>
<path fill="none" stroke="midnightblue" d="M1621.45,-72.7338C1637.35,-61.9644 1664.55,-43.55 1683.47,-30.7395"/>
<polygon fill="midnightblue" stroke="midnightblue" points="1685.44,-33.6321 1691.76,-25.1273 1681.52,-27.8357 1685.44,-33.6321"/>
</g>
<!-- Node29&#45;&gt;Node6 -->
<g id="edge37" class="edge"><title>Node29&#45;&gt;Node6</title>
<path fill="none" stroke="midnightblue" d="M1636.59,-72.939C1644.87,-70.6942 1653.99,-68.4882 1662.5,-67 1850.54,-34.1168 1905.49,-78.0349 2090.5,-31 2092.8,-30.4146 2095.15,-29.6838 2097.47,-28.8638"/>
<polygon fill="midnightblue" stroke="midnightblue" points="2098.78,-32.1106 2106.75,-25.1332 2096.17,-25.6157 2098.78,-32.1106"/>
</g>
<!-- Node30 -->
<g id="node30" class="node"><title>Node30</title>
<polygon fill="white" stroke="#bfbfbf" points="1743.5,-6 1743.5,-25 1805.5,-25 1805.5,-6 1743.5,-6"/>
<text text-anchor="middle" x="1774.5" y="-13" font-family="Helvetica,sans-Serif" font-size="10.00">algorithm</text>
</g>
<!-- Node29&#45;&gt;Node30 -->
<g id="edge34" class="edge"><title>Node29&#45;&gt;Node30</title>
<path fill="none" stroke="midnightblue" d="M1630.54,-72.8685C1659.4,-61.5706 1710.15,-41.6961 1743.04,-28.8183"/>
<polygon fill="midnightblue" stroke="midnightblue" points="1744.59,-31.9689 1752.63,-25.0637 1742.04,-25.4508 1744.59,-31.9689"/>
</g>
<!-- Node31 -->
<g id="node31" class="node"><title>Node31</title>
<polygon fill="white" stroke="#bfbfbf" points="1570,-6 1570,-25 1647,-25 1647,-6 1570,-6"/>
<text text-anchor="middle" x="1608.5" y="-13" font-family="Helvetica,sans-Serif" font-size="10.00">initializer_list</text>
</g>
<!-- Node29&#45;&gt;Node31 -->
<g id="edge35" class="edge"><title>Node29&#45;&gt;Node31</title>
<path fill="none" stroke="midnightblue" d="M1608.5,-72.7338C1608.5,-63.1826 1608.5,-47.6183 1608.5,-35.2829"/>
<polygon fill="midnightblue" stroke="midnightblue" points="1612,-35.1273 1608.5,-25.1273 1605,-35.1273 1612,-35.1273"/>
</g>
<!-- Node32&#45;&gt;Node20 -->
<g id="edge39" class="edge"><title>Node32&#45;&gt;Node20</title>
<path fill="none" stroke="midnightblue" d="M1459.04,-72.7338C1459.63,-63.1826 1460.59,-47.6183 1461.34,-35.2829"/>
<polygon fill="midnightblue" stroke="midnightblue" points="1464.85,-35.3234 1461.97,-25.1273 1457.86,-34.8934 1464.85,-35.3234"/>
</g>
<!-- Node33&#45;&gt;Node5 -->
<g id="edge43" class="edge"><title>Node33&#45;&gt;Node5</title>
<path fill="none" stroke="midnightblue" d="M1982.83,-72.9518C1973.95,-70.8827 1964.39,-68.7618 1955.5,-67 1857.88,-47.6574 1829.4,-60.9651 1734.5,-31 1732.83,-30.4731 1731.14,-29.8683 1729.45,-29.2113"/>
<polygon fill="midnightblue" stroke="midnightblue" points="1730.59,-25.8902 1720.03,-25.0574 1727.77,-32.295 1730.59,-25.8902"/>
</g>
<!-- Node33&#45;&gt;Node6 -->
<g id="edge44" class="edge"><title>Node33&#45;&gt;Node6</title>
<path fill="none" stroke="midnightblue" d="M2031.8,-72.7338C2049.52,-61.8669 2079.93,-43.2161 2100.84,-30.3931"/>
<polygon fill="midnightblue" stroke="midnightblue" points="2102.74,-33.3386 2109.43,-25.1273 2099.08,-27.3712 2102.74,-33.3386"/>
</g>
<!-- Node33&#45;&gt;Node21 -->
<g id="edge46" class="edge"><title>Node33&#45;&gt;Node21</title>
<path fill="none" stroke="midnightblue" d="M2000.24,-72.8685C1978.19,-61.8447 1939.81,-42.6554 1914.04,-29.7678"/>
<polygon fill="midnightblue" stroke="midnightblue" points="1915.34,-26.5089 1904.83,-25.1672 1912.21,-32.7699 1915.34,-26.5089"/>
</g>
<!-- Node33&#45;&gt;Node30 -->
<g id="edge42" class="edge"><title>Node33&#45;&gt;Node30</title>
<path fill="none" stroke="midnightblue" d="M1981.06,-72.9164C1931.48,-61.1562 1845.42,-40.4219 1814.5,-31 1811.87,-30.2 1809.17,-29.3267 1806.46,-28.4183"/>
<polygon fill="midnightblue" stroke="midnightblue" points="1807.38,-25.0328 1796.79,-25.0429 1805.08,-31.642 1807.38,-25.0328"/>
</g>
<!-- Node34 -->
<g id="node34" class="node"><title>Node34</title>
<polygon fill="white" stroke="#bfbfbf" points="1969.5,-0.5 1969.5,-30.5 2081.5,-30.5 2081.5,-0.5 1969.5,-0.5"/>
<text text-anchor="start" x="1977.5" y="-18.5" font-family="Helvetica,sans-Serif" font-size="10.00">boost/icl/continuous</text>
<text text-anchor="middle" x="2025.5" y="-7.5" font-family="Helvetica,sans-Serif" font-size="10.00">_interval.hpp</text>
</g>
<!-- Node33&#45;&gt;Node34 -->
<g id="edge45" class="edge"><title>Node33&#45;&gt;Node34</title>
<path fill="none" stroke="midnightblue" d="M2018.58,-72.7338C2019.59,-64.5406 2021.14,-51.9225 2022.52,-40.7136"/>
<polygon fill="midnightblue" stroke="midnightblue" points="2026.02,-40.9417 2023.77,-30.589 2019.07,-40.0866 2026.02,-40.9417"/>
</g>
</g>
</svg>
        <g id="navigator" transform="translate(0 0)" fill="#404254">
                <rect fill="#f2f5e9" fill-opacity="0.5" stroke="#606060" stroke-width=".5" x="0" y="0" width="60" height="60"/>
                <use id="zoomplus" xlink:href="#zoomPlus" x="17" y="9" onmousedown="handleZoom(evt,'in')"/>
                <use id="zoomminus" xlink:href="#zoomMin" x="42" y="9" onmousedown="handleZoom(evt,'out')"/>
                <use id="reset" xlink:href="#resetDef" x="30" y="36" onmousedown="handleReset()"/>
                <g id="arrowUp" xlink:href="#dirArrow" transform="translate(30 24)" onmousedown="handlePan(0,-1)">
                  <use xlink:href="#rim" fill="#404040">
                        <set attributeName="fill" to="#808080" begin="arrowUp.mouseover" end="arrowUp.mouseout"/>
                  </use>
                  <path fill="none" stroke="white" stroke-width="1.5" d="M0,-3.0v7 M-2.5,-0.5L0,-3.0L2.5,-0.5"/>
                </g>
                <g id="arrowRight" xlink:href="#dirArrow" transform="rotate(90) translate(36 -43)" onmousedown="handlePan(1,0)">
                  <use xlink:href="#rim" fill="#404040">
                        <set attributeName="fill" to="#808080" begin="arrowRight.mouseover" end="arrowRight.mouseout"/>
                  </use>
                  <path fill="none" stroke="white" stroke-width="1.5" d="M0,-3.0v7 M-2.5,-0.5L0,-3.0L2.5,-0.5"/>
                </g>
                <g id="arrowDown" xlink:href="#dirArrow" transform="rotate(180) translate(-30 -48)" onmousedown="handlePan(0,1)">
                  <use xlink:href="#rim" fill="#404040">
                        <set attributeName="fill" to="#808080" begin="arrowDown.mouseover" end="arrowDown.mouseout"/>
                  </use>
                  <path fill="none" stroke="white" stroke-width="1.5" d="M0,-3.0v7 M-2.5,-0.5L0,-3.0L2.5,-0.5"/>
                </g>
                <g id="arrowLeft" xlink:href="#dirArrow" transform="rotate(270) translate(-36 17)" onmousedown="handlePan(-1,0)">
                  <use xlink:href="#rim" fill="#404040">
                        <set attributeName="fill" to="#808080" begin="arrowLeft.mouseover" end="arrowLeft.mouseout"/>
                  </use>
                  <path fill="none" stroke="white" stroke-width="1.5" d="M0,-3.0v7 M-2.5,-0.5L0,-3.0L2.5,-0.5"/>
                </g>
        </g>
        <svg viewBox="0 0 15 15" width="100%" height="30px" preserveAspectRatio="xMaxYMin meet">
         <g id="arrow_out" transform="scale(0.3 0.3)">
          <a xlink:href="extern_8h__incl_org.svg" target="_base">
           <rect id="button" ry="5" rx="5" y="6" x="6" height="38" width="38"
                fill="#f2f5e9" fill-opacity="0.5" stroke="#606060" stroke-width="1.0"/>
           <path id="arrow"
             d="M 11.500037,31.436501 C 11.940474,20.09759 22.043105,11.32322 32.158766,21.979434 L 37.068811,17.246167 C 37.068811,17.246167 37.088388,32 37.088388,32 L 22.160133,31.978069 C 22.160133,31.978069 26.997745,27.140456 26.997745,27.140456 C 18.528582,18.264221 13.291696,25.230495 11.500037,31.436501 z"
             style="fill:#404040;"/>
          </a>
         </g>
        </svg>
</svg>
