<?xml version="1.0" encoding="UTF-8" standalone="no"?>
<!DOCTYPE svg PUBLIC "-//W3C//DTD SVG 1.1//EN"
 "http://www.w3.org/Graphics/SVG/1.1/DTD/svg11.dtd">
<!-- Generated by graphviz version 2.38.0 (20140413.2041)
 -->
<!-- Title: scram::core::Print Pages: 1 -->
<svg width="518pt" height="137pt"
 viewBox="0.00 0.00 518.00 137.00" xmlns="http://www.w3.org/2000/svg" xmlns:xlink="http://www.w3.org/1999/xlink">
<g id="graph0" class="graph" transform="scale(1 1) rotate(0) translate(4 133)">
<title>scram::core::Print</title>
<polygon fill="white" stroke="none" points="-4,4 -4,-133 514,-133 514,4 -4,4"/>
<!-- Node1 -->
<g id="node1" class="node"><title>Node1</title>
<polygon fill="#bfbfbf" stroke="black" points="0,-30 0,-49 101,-49 101,-30 0,-30"/>
<text text-anchor="middle" x="50.5" y="-37" font-family="Helvetica,sans-Serif" font-size="10.00">scram::core::Print</text>
</g>
<!-- Node1&#45;&gt;Node1 -->
<g id="edge7" class="edge"><title>Node1&#45;&gt;Node1</title>
<path fill="none" stroke="midnightblue" d="M19.0629,-57.7746C19.9592,-63.241 30.4382,-67.5 50.5,-67.5 80.3594,-67.5 88.9906,-58.0653 76.3937,-49.2571"/>
<polygon fill="midnightblue" stroke="midnightblue" points="22.085,-59.5475 24.6063,-49.2571 16.2181,-55.7291 22.085,-59.5475"/>
</g>
<!-- Node2 -->
<g id="node2" class="node"><title>Node2</title>
<g id="a_node2"><a xlink:href="classscram_1_1core_1_1FaultTreeAnalysis.xhtml#a327afc0524cff5289c3887357487266b" target="_top" xlink:title="Analyzes the fault tree and performs computations. ">
<polygon fill="white" stroke="black" points="138,-98.5 138,-128.5 299,-128.5 299,-98.5 138,-98.5"/>
<text text-anchor="start" x="146" y="-116.5" font-family="Helvetica,sans-Serif" font-size="10.00">scram::core::FaultTreeAnalysis</text>
<text text-anchor="middle" x="218.5" y="-105.5" font-family="Helvetica,sans-Serif" font-size="10.00">::Analyze</text>
</a>
</g>
</g>
<!-- Node1&#45;&gt;Node2 -->
<g id="edge1" class="edge"><title>Node1&#45;&gt;Node2</title>
<path fill="none" stroke="midnightblue" d="M74.0275,-54.6889C90.8281,-65.5088 114.64,-79.7962 137,-89.5 144.492,-92.7513 152.558,-95.7286 160.589,-98.3962"/>
<polygon fill="midnightblue" stroke="midnightblue" points="75.7526,-51.6349 65.469,-49.0858 71.9184,-57.4915 75.7526,-51.6349"/>
</g>
<!-- Node3 -->
<g id="node3" class="node"><title>Node3</title>
<g id="a_node3"><a xlink:href="classscram_1_1core_1_1Pdag.xhtml#a9463ecda2e2b78590a01d2f589b067c6" target="_top" xlink:title="scram::core::Pdag::\lbasic_events">
<polygon fill="white" stroke="black" points="163.5,-49.5 163.5,-79.5 273.5,-79.5 273.5,-49.5 163.5,-49.5"/>
<text text-anchor="start" x="171.5" y="-67.5" font-family="Helvetica,sans-Serif" font-size="10.00">scram::core::Pdag::</text>
<text text-anchor="middle" x="218.5" y="-56.5" font-family="Helvetica,sans-Serif" font-size="10.00">basic_events</text>
</a>
</g>
</g>
<!-- Node1&#45;&gt;Node3 -->
<g id="edge2" class="edge"><title>Node1&#45;&gt;Node3</title>
<path fill="none" stroke="midnightblue" d="M111.634,-48.5563C128.552,-51.1042 146.844,-53.8591 163.388,-56.3505"/>
<polygon fill="midnightblue" stroke="midnightblue" points="111.715,-45.0292 101.305,-47.0008 110.673,-51.9511 111.715,-45.0292"/>
</g>
<!-- Node5 -->
<g id="node5" class="node"><title>Node5</title>
<g id="a_node5"><a xlink:href="classscram_1_1core_1_1ProductContainer.xhtml#a5cce4f5fef10a9a96a09ce6f82c590ad" target="_top" xlink:title="scram::core::ProductContainer\l::distribution">
<polygon fill="white" stroke="black" points="137,-0.5 137,-30.5 300,-30.5 300,-0.5 137,-0.5"/>
<text text-anchor="start" x="145" y="-18.5" font-family="Helvetica,sans-Serif" font-size="10.00">scram::core::ProductContainer</text>
<text text-anchor="middle" x="218.5" y="-7.5" font-family="Helvetica,sans-Serif" font-size="10.00">::distribution</text>
</a>
</g>
</g>
<!-- Node1&#45;&gt;Node5 -->
<g id="edge4" class="edge"><title>Node1&#45;&gt;Node5</title>
<path fill="none" stroke="midnightblue" d="M90.8997,-27.961C104.74,-25.3242 120.84,-22.695 136.824,-20.4163"/>
<polygon fill="midnightblue" stroke="midnightblue" points="89.9192,-24.5874 80.7954,-29.9731 91.2864,-31.4526 89.9192,-24.5874"/>
</g>
<!-- Node4 -->
<g id="node4" class="node"><title>Node4</title>
<g id="a_node4"><a xlink:href="classscram_1_1core_1_1Mocus.xhtml#a951c8e2f7667d884d4dbda3206dc15e0" target="_top" xlink:title="Finds minimal cut sets from the PDAG. ">
<polygon fill="white" stroke="black" points="368,-49.5 368,-79.5 478,-79.5 478,-49.5 368,-49.5"/>
<text text-anchor="start" x="376" y="-67.5" font-family="Helvetica,sans-Serif" font-size="10.00">scram::core::Mocus</text>
<text text-anchor="middle" x="423" y="-56.5" font-family="Helvetica,sans-Serif" font-size="10.00">::Analyze</text>
</a>
</g>
</g>
<!-- Node3&#45;&gt;Node4 -->
<g id="edge3" class="edge"><title>Node3&#45;&gt;Node4</title>
<path fill="none" stroke="midnightblue" d="M283.655,-64.5C310.726,-64.5 341.902,-64.5 367.799,-64.5"/>
<polygon fill="midnightblue" stroke="midnightblue" points="283.5,-61.0001 273.5,-64.5 283.5,-68.0001 283.5,-61.0001"/>
</g>
<!-- Node5&#45;&gt;Node1 -->
<g id="edge5" class="edge"><title>Node5&#45;&gt;Node1</title>
<path fill="none" stroke="midnightblue" d="M148.156,-32.1938C132.431,-34.6574 116.033,-36.8871 101.305,-38.5445"/>
<polygon fill="midnightblue" stroke="midnightblue" points="149.054,-35.5942 158.368,-30.5447 147.938,-28.6837 149.054,-35.5942"/>
</g>
<!-- Node6 -->
<g id="node6" class="node"><title>Node6</title>
<g id="a_node6"><a xlink:href="reporter_8cc.xhtml#a73f9569f4c2e2b6a3eac8d2c01b81943" target="_top" xlink:title="Describes all performed analyses deduced from settings. ">
<polygon fill="white" stroke="black" points="336,-0.5 336,-30.5 510,-30.5 510,-0.5 336,-0.5"/>
<text text-anchor="start" x="344" y="-18.5" font-family="Helvetica,sans-Serif" font-size="10.00">scram::ReportCalculatedQuantity</text>
<text text-anchor="middle" x="423" y="-7.5" font-family="Helvetica,sans-Serif" font-size="10.00">&lt; core::RiskAnalysis &gt;</text>
</a>
</g>
</g>
<!-- Node5&#45;&gt;Node6 -->
<g id="edge6" class="edge"><title>Node5&#45;&gt;Node6</title>
<path fill="none" stroke="midnightblue" d="M310.334,-15.5C318.764,-15.5 327.291,-15.5 335.679,-15.5"/>
<polygon fill="midnightblue" stroke="midnightblue" points="310.115,-12.0001 300.115,-15.5 310.115,-19.0001 310.115,-12.0001"/>
</g>
</g>
</svg>
