<?xml version="1.0" encoding="UTF-8" standalone="no"?>
<!DOCTYPE svg PUBLIC "-//W3C//DTD SVG 1.1//EN"
 "http://www.w3.org/Graphics/SVG/1.1/DTD/svg11.dtd">
<!-- Generated by graphviz version 2.38.0 (20140413.2041)
 -->
<!-- Title: scram::core::Print Pages: 1 -->
<svg width="308pt" height="186pt"
 viewBox="0.00 0.00 308.00 186.00" xmlns="http://www.w3.org/2000/svg" xmlns:xlink="http://www.w3.org/1999/xlink">
<g id="graph0" class="graph" transform="scale(1 1) rotate(0) translate(4 182)">
<title>scram::core::Print</title>
<polygon fill="white" stroke="none" points="-4,4 -4,-182 304,-182 304,4 -4,4"/>
<!-- Node1 -->
<g id="node1" class="node"><title>Node1</title>
<polygon fill="#bfbfbf" stroke="black" points="0,-104 0,-123 101,-123 101,-104 0,-104"/>
<text text-anchor="middle" x="50.5" y="-111" font-family="Helvetica,sans-Serif" font-size="10.00">scram::core::Print</text>
</g>
<!-- Node1&#45;&gt;Node1 -->
<g id="edge5" class="edge"><title>Node1&#45;&gt;Node1</title>
<path fill="none" stroke="midnightblue" d="M24.6063,-123.257C12.0094,-132.065 20.6406,-141.5 50.5,-141.5 70.5618,-141.5 81.0408,-137.241 81.9371,-131.775"/>
<polygon fill="midnightblue" stroke="midnightblue" points="84.7819,-129.729 76.3937,-123.257 78.915,-133.548 84.7819,-129.729"/>
</g>
<!-- Node2 -->
<g id="node2" class="node"><title>Node2</title>
<g id="a_node2"><a xlink:href="classscram_1_1core_1_1ProductContainer.xhtml#ae3c4f3a13d162014a7e7bd35c12f4bcf" target="_top" xlink:title="Begin and end iterators over products in the container. ">
<polygon fill="white" stroke="black" points="137,-147.5 137,-177.5 300,-177.5 300,-147.5 137,-147.5"/>
<text text-anchor="start" x="145" y="-165.5" font-family="Helvetica,sans-Serif" font-size="10.00">scram::core::ProductContainer</text>
<text text-anchor="middle" x="218.5" y="-154.5" font-family="Helvetica,sans-Serif" font-size="10.00">::begin</text>
</a>
</g>
</g>
<!-- Node1&#45;&gt;Node2 -->
<g id="edge1" class="edge"><title>Node1&#45;&gt;Node2</title>
<path fill="none" stroke="midnightblue" d="M83.9005,-123.064C104.641,-129.186 132.199,-137.321 156.897,-144.611"/>
<polygon fill="midnightblue" stroke="midnightblue" points="155.977,-147.989 166.558,-147.463 157.958,-141.275 155.977,-147.989"/>
</g>
<!-- Node3 -->
<g id="node3" class="node"><title>Node3</title>
<g id="a_node3"><a xlink:href="classscram_1_1core_1_1ProductContainer.xhtml#a5cce4f5fef10a9a96a09ce6f82c590ad" target="_top" xlink:title="scram::core::ProductContainer\l::distribution">
<polygon fill="white" stroke="black" points="137,-98.5 137,-128.5 300,-128.5 300,-98.5 137,-98.5"/>
<text text-anchor="start" x="145" y="-116.5" font-family="Helvetica,sans-Serif" font-size="10.00">scram::core::ProductContainer</text>
<text text-anchor="middle" x="218.5" y="-105.5" font-family="Helvetica,sans-Serif" font-size="10.00">::distribution</text>
</a>
</g>
</g>
<!-- Node1&#45;&gt;Node3 -->
<g id="edge2" class="edge"><title>Node1&#45;&gt;Node3</title>
<path fill="none" stroke="midnightblue" d="M101.305,-107.255C109.405,-106.995 118.01,-106.836 126.73,-106.776"/>
<polygon fill="midnightblue" stroke="midnightblue" points="127.004,-110.276 136.996,-106.753 126.988,-103.276 127.004,-110.276"/>
</g>
<!-- Node4 -->
<g id="node4" class="node"><title>Node4</title>
<g id="a_node4"><a xlink:href="classscram_1_1core_1_1ProductContainer.xhtml#ac48d179d37d1109d36bf2d36e02aebe7" target="_top" xlink:title="scram::core::ProductContainer\l::empty">
<polygon fill="white" stroke="black" points="137,-49.5 137,-79.5 300,-79.5 300,-49.5 137,-49.5"/>
<text text-anchor="start" x="145" y="-67.5" font-family="Helvetica,sans-Serif" font-size="10.00">scram::core::ProductContainer</text>
<text text-anchor="middle" x="218.5" y="-56.5" font-family="Helvetica,sans-Serif" font-size="10.00">::empty</text>
</a>
</g>
</g>
<!-- Node1&#45;&gt;Node4 -->
<g id="edge4" class="edge"><title>Node1&#45;&gt;Node4</title>
<path fill="none" stroke="midnightblue" d="M83.9005,-103.936C104.641,-97.8137 132.199,-89.6792 156.897,-82.3889"/>
<polygon fill="midnightblue" stroke="midnightblue" points="157.958,-85.7249 166.558,-79.537 155.977,-79.0113 157.958,-85.7249"/>
</g>
<!-- Node5 -->
<g id="node5" class="node"><title>Node5</title>
<g id="a_node5"><a xlink:href="classscram_1_1core_1_1ProductContainer.xhtml#ac02fbe13144218abf07fdd6ba9c8b532" target="_top" xlink:title="scram::core::ProductContainer\l::size">
<polygon fill="white" stroke="black" points="137,-0.5 137,-30.5 300,-30.5 300,-0.5 137,-0.5"/>
<text text-anchor="start" x="145" y="-18.5" font-family="Helvetica,sans-Serif" font-size="10.00">scram::core::ProductContainer</text>
<text text-anchor="middle" x="218.5" y="-7.5" font-family="Helvetica,sans-Serif" font-size="10.00">::size</text>
</a>
</g>
</g>
<!-- Node1&#45;&gt;Node5 -->
<g id="edge6" class="edge"><title>Node1&#45;&gt;Node5</title>
<path fill="none" stroke="midnightblue" d="M60.5222,-103.54C75.1403,-87.9661 105.551,-57.8408 137,-40.5 141.001,-38.2941 145.223,-36.2543 149.553,-34.3731"/>
<polygon fill="midnightblue" stroke="midnightblue" points="151.191,-37.4866 159.16,-30.505 148.577,-30.9932 151.191,-37.4866"/>
</g>
<!-- Node3&#45;&gt;Node1 -->
<g id="edge3" class="edge"><title>Node3&#45;&gt;Node1</title>
<path fill="none" stroke="midnightblue" d="M136.996,-120.247C128.435,-120.266 119.84,-120.189 111.573,-120.016"/>
<polygon fill="midnightblue" stroke="midnightblue" points="111.394,-116.51 101.305,-119.745 111.21,-123.507 111.394,-116.51"/>
</g>
</g>
</svg>
