<?xml version="1.0" encoding="UTF-8" standalone="no"?>
<!DOCTYPE svg PUBLIC "-//W3C//DTD SVG 1.1//EN"
 "http://www.w3.org/Graphics/SVG/1.1/DTD/svg11.dtd">
<!-- Generated by graphviz version 2.38.0 (20140413.2041)
 -->
<!-- Title: ext::find Pages: 1 -->
<svg width="239pt" height="52pt"
 viewBox="0.00 0.00 239.00 51.50" xmlns="http://www.w3.org/2000/svg" xmlns:xlink="http://www.w3.org/1999/xlink">
<g id="graph0" class="graph" transform="scale(1 1) rotate(0) translate(4 47.5)">
<title>ext::find</title>
<polygon fill="white" stroke="none" points="-4,4 -4,-47.5 235,-47.5 235,4 -4,4"/>
<!-- Node1 -->
<g id="node1" class="node"><title>Node1</title>
<polygon fill="#bfbfbf" stroke="black" points="0,-6 0,-25 55,-25 55,-6 0,-6"/>
<text text-anchor="middle" x="27.5" y="-13" font-family="Helvetica,sans-Serif" font-size="10.00">ext::find</text>
</g>
<!-- Node1&#45;&gt;Node1 -->
<g id="edge1" class="edge"><title>Node1&#45;&gt;Node1</title>
<path fill="none" stroke="midnightblue" d="M2.94654,-34.5292C4.28585,-39.628 12.4703,-43.5 27.5,-43.5 50.9609,-43.5 57.7426,-34.0653 47.845,-25.2571"/>
<polygon fill="midnightblue" stroke="midnightblue" points="6.20899,-35.8096 7.15497,-25.2571 -0.165183,-32.9164 6.20899,-35.8096"/>
</g>
<!-- Node2 -->
<g id="node2" class="node"><title>Node2</title>
<g id="a_node2"><a xlink:href="classext_1_1linear__set.xhtml#ad5ff6a309c8291909fd38cb55c338e8e" target="_top" xlink:title="ext::linear_set\&lt; Attribute,\l AttributeKey \&gt;::rend">
<polygon fill="white" stroke="black" points="91,-0.5 91,-30.5 231,-30.5 231,-0.5 91,-0.5"/>
<text text-anchor="start" x="99" y="-18.5" font-family="Helvetica,sans-Serif" font-size="10.00">ext::linear_set&lt; Attribute,</text>
<text text-anchor="middle" x="161" y="-7.5" font-family="Helvetica,sans-Serif" font-size="10.00"> AttributeKey &gt;::rend</text>
</a>
</g>
</g>
<!-- Node1&#45;&gt;Node2 -->
<g id="edge2" class="edge"><title>Node1&#45;&gt;Node2</title>
<path fill="none" stroke="midnightblue" d="M65.244,-15.5C73.3131,-15.5 82.1111,-15.5 90.9886,-15.5"/>
<polygon fill="midnightblue" stroke="midnightblue" points="65.111,-12.0001 55.111,-15.5 65.111,-19.0001 65.111,-12.0001"/>
</g>
</g>
</svg>
