<?xml version="1.0" encoding="UTF-8" standalone="no"?>
<!DOCTYPE svg PUBLIC "-//W3C//DTD SVG 1.1//EN"
 "http://www.w3.org/Graphics/SVG/1.1/DTD/svg11.dtd">
<!-- Generated by graphviz version 2.38.0 (20140413.2041)
 -->
<!-- Title: find_iterator.h Pages: 1 -->
<svg width="1156pt" height="532pt"
 viewBox="0.00 0.00 1155.80 532.00" xmlns="http://www.w3.org/2000/svg" xmlns:xlink="http://www.w3.org/1999/xlink">
<g id="graph0" class="graph" transform="scale(1 1) rotate(0) translate(4 528)">
<title>find_iterator.h</title>
<polygon fill="white" stroke="none" points="-4,4 -4,-528 1151.8,-528 1151.8,4 -4,4"/>
<!-- Node1 -->
<g id="node1" class="node"><title>Node1</title>
<polygon fill="#bfbfbf" stroke="black" points="731.305,-504.5 731.305,-523.5 814.305,-523.5 814.305,-504.5 731.305,-504.5"/>
<text text-anchor="middle" x="772.805" y="-511.5" font-family="Helvetica,sans-Serif" font-size="10.00">find_iterator.h</text>
</g>
<!-- Node2 -->
<g id="node2" class="node"><title>Node2</title>
<g id="a_node2"><a xlink:href="pdag_8h.xhtml" target="_top" xlink:title="Classes and facilities to represent fault trees as PDAGs with event and gate indices instead of ID na...">
<polygon fill="white" stroke="black" points="450.805,-448.5 450.805,-467.5 500.805,-467.5 500.805,-448.5 450.805,-448.5"/>
<text text-anchor="middle" x="475.805" y="-455.5" font-family="Helvetica,sans-Serif" font-size="10.00">pdag.h</text>
</a>
</g>
</g>
<!-- Node1&#45;&gt;Node2 -->
<g id="edge1" class="edge"><title>Node1&#45;&gt;Node2</title>
<path fill="none" stroke="midnightblue" d="M721.26,-503.628C656.955,-491.936 549.558,-472.41 501.003,-463.581"/>
<polygon fill="midnightblue" stroke="midnightblue" points="720.731,-507.089 731.195,-505.435 721.983,-500.202 720.731,-507.089"/>
</g>
<!-- Node4 -->
<g id="node4" class="node"><title>Node4</title>
<g id="a_node4"><a xlink:href="bdd_8cc.xhtml" target="_top" xlink:title="Implementation of BDD fault tree analysis algorithms. ">
<polygon fill="white" stroke="black" points="529.805,-280.5 529.805,-299.5 577.805,-299.5 577.805,-280.5 529.805,-280.5"/>
<text text-anchor="middle" x="553.805" y="-287.5" font-family="Helvetica,sans-Serif" font-size="10.00">bdd.cc</text>
</a>
</g>
</g>
<!-- Node1&#45;&gt;Node4 -->
<g id="edge45" class="edge"><title>Node1&#45;&gt;Node4</title>
<path fill="none" stroke="midnightblue" d="M757.121,-497.101C714.195,-453.588 595.782,-333.552 562.568,-299.884"/>
<polygon fill="midnightblue" stroke="midnightblue" points="754.705,-499.636 764.22,-504.297 759.688,-494.72 754.705,-499.636"/>
</g>
<!-- Node21 -->
<g id="node21" class="node"><title>Node21</title>
<g id="a_node21"><a xlink:href="zbdd_8cc.xhtml" target="_top" xlink:title="Implementation of Zero&#45;Suppressed BDD algorithms. ">
<polygon fill="white" stroke="black" points="786.305,-280.5 786.305,-299.5 839.305,-299.5 839.305,-280.5 786.305,-280.5"/>
<text text-anchor="middle" x="812.805" y="-287.5" font-family="Helvetica,sans-Serif" font-size="10.00">zbdd.cc</text>
</a>
</g>
</g>
<!-- Node1&#45;&gt;Node21 -->
<g id="edge51" class="edge"><title>Node1&#45;&gt;Node21</title>
<path fill="none" stroke="midnightblue" d="M760.079,-495.901C754.874,-487.869 749.458,-477.897 746.805,-468 744.503,-459.414 745.048,-456.714 746.805,-448 758.844,-388.293 794.244,-323.016 807.613,-299.795"/>
<polygon fill="midnightblue" stroke="midnightblue" points="757.341,-498.094 765.914,-504.319 763.094,-494.106 757.341,-498.094"/>
</g>
<!-- Node23 -->
<g id="node23" class="node"><title>Node23</title>
<g id="a_node23"><a xlink:href="preprocessor_8cc.xhtml" target="_top" xlink:title="Implementation of preprocessing algorithms. ">
<polygon fill="white" stroke="black" points="159.805,-336.5 159.805,-355.5 251.805,-355.5 251.805,-336.5 159.805,-336.5"/>
<text text-anchor="middle" x="205.805" y="-343.5" font-family="Helvetica,sans-Serif" font-size="10.00">preprocessor.cc</text>
</a>
</g>
</g>
<!-- Node1&#45;&gt;Node23 -->
<g id="edge50" class="edge"><title>Node1&#45;&gt;Node23</title>
<path fill="none" stroke="midnightblue" d="M720.841,-510.574C598.107,-503.759 295.277,-480.264 224.805,-412 209.098,-396.785 206.185,-369.366 205.766,-355.509"/>
<polygon fill="midnightblue" stroke="midnightblue" points="720.929,-514.084 731.103,-511.128 721.306,-507.094 720.929,-514.084"/>
</g>
<!-- Node25 -->
<g id="node25" class="node"><title>Node25</title>
<g id="a_node25"><a xlink:href="event__tree__analysis_8cc.xhtml" target="_top" xlink:title="Implementation of event tree analysis facilities. ">
<polygon fill="white" stroke="black" points="756.305,-448.5 756.305,-467.5 881.305,-467.5 881.305,-448.5 756.305,-448.5"/>
<text text-anchor="middle" x="818.805" y="-455.5" font-family="Helvetica,sans-Serif" font-size="10.00">event_tree_analysis.cc</text>
</a>
</g>
</g>
<!-- Node1&#45;&gt;Node25 -->
<g id="edge46" class="edge"><title>Node1&#45;&gt;Node25</title>
<path fill="none" stroke="midnightblue" d="M786.919,-496.431C794.981,-486.967 804.764,-475.483 811.35,-467.751"/>
<polygon fill="midnightblue" stroke="midnightblue" points="784.221,-494.201 780.401,-504.083 789.55,-498.74 784.221,-494.201"/>
</g>
<!-- Node26 -->
<g id="node26" class="node"><title>Node26</title>
<g id="a_node26"><a xlink:href="test__event_8cc.xhtml" target="_top" xlink:title="Implementations of event occurrence tests. ">
<polygon fill="white" stroke="black" points="899.305,-448.5 899.305,-467.5 980.305,-467.5 980.305,-448.5 899.305,-448.5"/>
<text text-anchor="middle" x="939.805" y="-455.5" font-family="Helvetica,sans-Serif" font-size="10.00">test_event.cc</text>
</a>
</g>
</g>
<!-- Node1&#45;&gt;Node26 -->
<g id="edge47" class="edge"><title>Node1&#45;&gt;Node26</title>
<path fill="none" stroke="midnightblue" d="M808.974,-501.304C840.442,-491.129 885.299,-476.625 913.467,-467.516"/>
<polygon fill="midnightblue" stroke="midnightblue" points="807.704,-498.037 799.266,-504.444 809.858,-504.697 807.704,-498.037"/>
</g>
<!-- Node27 -->
<g id="node27" class="node"><title>Node27</title>
<g id="a_node27"><a xlink:href="initializer_8cc.xhtml" target="_top" xlink:title="Implementation of input file processing into analysis constructs. ">
<polygon fill="white" stroke="black" points="998.305,-448.5 998.305,-467.5 1069.3,-467.5 1069.3,-448.5 998.305,-448.5"/>
<text text-anchor="middle" x="1033.8" y="-455.5" font-family="Helvetica,sans-Serif" font-size="10.00">initializer.cc</text>
</a>
</g>
</g>
<!-- Node1&#45;&gt;Node27 -->
<g id="edge48" class="edge"><title>Node1&#45;&gt;Node27</title>
<path fill="none" stroke="midnightblue" d="M824.061,-502.395C875.404,-491.773 953.083,-475.701 998.094,-466.388"/>
<polygon fill="midnightblue" stroke="midnightblue" points="823.244,-498.99 814.161,-504.444 824.663,-505.845 823.244,-498.99"/>
</g>
<!-- Node28 -->
<g id="node28" class="node"><title>Node28</title>
<g id="a_node28"><a xlink:href="model_8cc.xhtml" target="_top" xlink:title="Implementation of functions in Model class. ">
<polygon fill="white" stroke="black" points="1087.8,-448.5 1087.8,-467.5 1147.8,-467.5 1147.8,-448.5 1087.8,-448.5"/>
<text text-anchor="middle" x="1117.8" y="-455.5" font-family="Helvetica,sans-Serif" font-size="10.00">model.cc</text>
</a>
</g>
</g>
<!-- Node1&#45;&gt;Node28 -->
<g id="edge49" class="edge"><title>Node1&#45;&gt;Node28</title>
<path fill="none" stroke="midnightblue" d="M824.706,-506.667C885.747,-498.919 990.017,-484.745 1078.8,-468 1081.67,-467.459 1084.65,-466.853 1087.62,-466.219"/>
<polygon fill="midnightblue" stroke="midnightblue" points="824.042,-503.223 814.558,-507.946 824.917,-510.168 824.042,-503.223"/>
</g>
<!-- Node3 -->
<g id="node3" class="node"><title>Node3</title>
<g id="a_node3"><a xlink:href="bdd_8h.xhtml" target="_top" xlink:title="Fault tree analysis with the Binary Decision Diagram algorithms. ">
<polygon fill="white" stroke="black" points="487.805,-392.5 487.805,-411.5 531.805,-411.5 531.805,-392.5 487.805,-392.5"/>
<text text-anchor="middle" x="509.805" y="-399.5" font-family="Helvetica,sans-Serif" font-size="10.00">bdd.h</text>
</a>
</g>
</g>
<!-- Node2&#45;&gt;Node3 -->
<g id="edge2" class="edge"><title>Node2&#45;&gt;Node3</title>
<path fill="none" stroke="midnightblue" d="M486.782,-439.566C492.632,-430.275 499.574,-419.248 504.295,-411.751"/>
<polygon fill="midnightblue" stroke="midnightblue" points="483.785,-437.756 481.419,-448.083 489.709,-441.486 483.785,-437.756"/>
</g>
<!-- Node5 -->
<g id="node5" class="node"><title>Node5</title>
<g id="a_node5"><a xlink:href="zbdd_8h.xhtml" target="_top" xlink:title="Zero&#45;Suppressed Binary Decision Diagram facilities. ">
<polygon fill="white" stroke="black" points="650.305,-336.5 650.305,-355.5 699.305,-355.5 699.305,-336.5 650.305,-336.5"/>
<text text-anchor="middle" x="674.805" y="-343.5" font-family="Helvetica,sans-Serif" font-size="10.00">zbdd.h</text>
</a>
</g>
</g>
<!-- Node2&#45;&gt;Node5 -->
<g id="edge37" class="edge"><title>Node2&#45;&gt;Node5</title>
<path fill="none" stroke="midnightblue" d="M509.676,-444.925C531.173,-436.739 559.272,-425.058 582.805,-412 614.098,-394.635 647.664,-368.882 664.262,-355.606"/>
<polygon fill="midnightblue" stroke="midnightblue" points="508.443,-441.649 500.304,-448.433 510.896,-448.205 508.443,-441.649"/>
</g>
<!-- Node6 -->
<g id="node6" class="node"><title>Node6</title>
<g id="a_node6"><a xlink:href="fault__tree__analysis_8h.xhtml" target="_top" xlink:title="Fault Tree Analysis. ">
<polygon fill="white" stroke="black" points="222.305,-280.5 222.305,-299.5 337.305,-299.5 337.305,-280.5 222.305,-280.5"/>
<text text-anchor="middle" x="279.805" y="-287.5" font-family="Helvetica,sans-Serif" font-size="10.00">fault_tree_analysis.h</text>
</a>
</g>
</g>
<!-- Node2&#45;&gt;Node6 -->
<g id="edge38" class="edge"><title>Node2&#45;&gt;Node6</title>
<path fill="none" stroke="midnightblue" d="M440.996,-446.489C420.118,-439.06 393.823,-427.63 373.805,-412 331.032,-378.604 296.737,-321.597 284.57,-299.815"/>
<polygon fill="midnightblue" stroke="midnightblue" points="439.867,-449.802 450.462,-449.718 442.127,-443.177 439.867,-449.802"/>
</g>
<!-- Node8 -->
<g id="node8" class="node"><title>Node8</title>
<g id="a_node8"><a xlink:href="probability__analysis_8h.xhtml" target="_top" xlink:title="Contains functionality to do numerical analysis of probabilities. ">
<polygon fill="white" stroke="black" points="295.305,-224.5 295.305,-243.5 414.305,-243.5 414.305,-224.5 295.305,-224.5"/>
<text text-anchor="middle" x="354.805" y="-231.5" font-family="Helvetica,sans-Serif" font-size="10.00">probability_analysis.h</text>
</a>
</g>
</g>
<!-- Node2&#45;&gt;Node8 -->
<g id="edge42" class="edge"><title>Node2&#45;&gt;Node8</title>
<path fill="none" stroke="midnightblue" d="M446.266,-443.794C432.484,-436.274 416.927,-425.615 406.805,-412 366.102,-357.254 357.133,-271.076 355.268,-243.67"/>
<polygon fill="midnightblue" stroke="midnightblue" points="444.939,-447.047 455.435,-448.496 448.134,-440.818 444.939,-447.047"/>
</g>
<!-- Node19 -->
<g id="node19" class="node"><title>Node19</title>
<g id="a_node19"><a xlink:href="mocus_8h.xhtml" target="_top" xlink:title="Fault tree analysis with the MOCUS algorithm. ">
<polygon fill="white" stroke="black" points="595.805,-280.5 595.805,-299.5 653.805,-299.5 653.805,-280.5 595.805,-280.5"/>
<text text-anchor="middle" x="624.805" y="-287.5" font-family="Helvetica,sans-Serif" font-size="10.00">mocus.h</text>
</a>
</g>
</g>
<!-- Node2&#45;&gt;Node19 -->
<g id="edge43" class="edge"><title>Node2&#45;&gt;Node19</title>
<path fill="none" stroke="midnightblue" d="M500.247,-443.023C513.156,-434.947 528.77,-424.019 540.805,-412 577.536,-375.316 608.833,-320.726 620.217,-299.694"/>
<polygon fill="midnightblue" stroke="midnightblue" points="498.154,-440.199 491.416,-448.375 501.782,-446.185 498.154,-440.199"/>
</g>
<!-- Node22 -->
<g id="node22" class="node"><title>Node22</title>
<g id="a_node22"><a xlink:href="preprocessor_8h.xhtml" target="_top" xlink:title="A collection of PDAG transformation/preprocessing algorithms that simplify fault trees for analysis...">
<polygon fill="white" stroke="black" points="233.805,-392.5 233.805,-411.5 321.805,-411.5 321.805,-392.5 233.805,-392.5"/>
<text text-anchor="middle" x="277.805" y="-399.5" font-family="Helvetica,sans-Serif" font-size="10.00">preprocessor.h</text>
</a>
</g>
</g>
<!-- Node2&#45;&gt;Node22 -->
<g id="edge39" class="edge"><title>Node2&#45;&gt;Node22</title>
<path fill="none" stroke="midnightblue" d="M440.81,-447.456C403.526,-437.288 345.04,-421.337 309.195,-411.561"/>
<polygon fill="midnightblue" stroke="midnightblue" points="440.159,-450.906 450.728,-450.161 442.001,-444.153 440.159,-450.906"/>
</g>
<!-- Node24 -->
<g id="node24" class="node"><title>Node24</title>
<g id="a_node24"><a xlink:href="pdag_8cc.xhtml" target="_top" xlink:title="Implementation of a Propositional Directed Acyclic Graph with indexed nodes, variables, and gates. ">
<polygon fill="white" stroke="black" points="415.805,-392.5 415.805,-411.5 469.805,-411.5 469.805,-392.5 415.805,-392.5"/>
<text text-anchor="middle" x="442.805" y="-399.5" font-family="Helvetica,sans-Serif" font-size="10.00">pdag.cc</text>
</a>
</g>
</g>
<!-- Node2&#45;&gt;Node24 -->
<g id="edge44" class="edge"><title>Node2&#45;&gt;Node24</title>
<path fill="none" stroke="midnightblue" d="M464.973,-439.275C459.332,-430.045 452.687,-419.17 448.153,-411.751"/>
<polygon fill="midnightblue" stroke="midnightblue" points="462.154,-441.375 470.355,-448.083 468.127,-437.725 462.154,-441.375"/>
</g>
<!-- Node3&#45;&gt;Node4 -->
<g id="edge3" class="edge"><title>Node3&#45;&gt;Node4</title>
<path fill="none" stroke="midnightblue" d="M517.005,-382.998C526.606,-358.997 543.217,-317.468 550.368,-299.591"/>
<polygon fill="midnightblue" stroke="midnightblue" points="513.722,-381.784 513.257,-392.368 520.221,-384.384 513.722,-381.784"/>
</g>
<!-- Node3&#45;&gt;Node5 -->
<g id="edge4" class="edge"><title>Node3&#45;&gt;Node5</title>
<path fill="none" stroke="midnightblue" d="M541.737,-390.55C573.442,-380.173 621.369,-364.488 650.222,-355.045"/>
<polygon fill="midnightblue" stroke="midnightblue" points="540.473,-387.28 532.057,-393.717 542.65,-393.933 540.473,-387.28"/>
</g>
<!-- Node3&#45;&gt;Node8 -->
<g id="edge35" class="edge"><title>Node3&#45;&gt;Node8</title>
<path fill="none" stroke="midnightblue" d="M486.993,-386.814C475.062,-378.709 460.712,-367.819 449.805,-356 422.71,-326.641 427.087,-310.933 401.805,-280 390.509,-266.18 375.253,-252.278 365.228,-243.659"/>
<polygon fill="midnightblue" stroke="midnightblue" points="485.269,-389.87 495.548,-392.439 489.115,-384.021 485.269,-389.87"/>
</g>
<!-- Node9 -->
<g id="node9" class="node"><title>Node9</title>
<g id="a_node9"><a xlink:href="importance__analysis_8h.xhtml" target="_top" xlink:title="Contains functionality to do numerical analysis of importance factors. ">
<polygon fill="white" stroke="black" points="349.805,-168.5 349.805,-187.5 473.805,-187.5 473.805,-168.5 349.805,-168.5"/>
<text text-anchor="middle" x="411.805" y="-175.5" font-family="Helvetica,sans-Serif" font-size="10.00">importance_analysis.h</text>
</a>
</g>
</g>
<!-- Node3&#45;&gt;Node9 -->
<g id="edge34" class="edge"><title>Node3&#45;&gt;Node9</title>
<path fill="none" stroke="midnightblue" d="M500.948,-383.393C496.853,-375.124 491.981,-365.103 487.805,-356 458.38,-291.865 425.83,-213.21 415.297,-187.54"/>
<polygon fill="midnightblue" stroke="midnightblue" points="497.863,-385.049 505.461,-392.433 504.126,-381.923 497.863,-385.049"/>
</g>
<!-- Node15 -->
<g id="node15" class="node"><title>Node15</title>
<g id="a_node15"><a xlink:href="risk__analysis_8cc.xhtml" target="_top" xlink:title="Implementation of risk analysis handler. ">
<polygon fill="white" stroke="black" points="546.805,-56.5 546.805,-75.5 636.805,-75.5 636.805,-56.5 546.805,-56.5"/>
<text text-anchor="middle" x="591.805" y="-63.5" font-family="Helvetica,sans-Serif" font-size="10.00">risk_analysis.cc</text>
</a>
</g>
</g>
<!-- Node3&#45;&gt;Node15 -->
<g id="edge36" class="edge"><title>Node3&#45;&gt;Node15</title>
<path fill="none" stroke="midnightblue" d="M507.612,-382.281C505.243,-360.416 501.805,-323.137 501.805,-291 501.805,-291 501.805,-291 501.805,-233 501.805,-178.694 489.09,-157.455 518.805,-112 530.21,-94.5537 550.973,-82.731 567.448,-75.5989"/>
<polygon fill="midnightblue" stroke="midnightblue" points="504.161,-382.913 508.759,-392.458 511.117,-382.128 504.161,-382.913"/>
</g>
<!-- Node5&#45;&gt;Node4 -->
<g id="edge5" class="edge"><title>Node5&#45;&gt;Node4</title>
<path fill="none" stroke="midnightblue" d="M646.499,-332.368C623.84,-322.255 592.678,-308.349 572.888,-299.516"/>
<polygon fill="midnightblue" stroke="midnightblue" points="645.074,-335.564 655.632,-336.444 647.926,-329.172 645.074,-335.564"/>
</g>
<!-- Node5&#45;&gt;Node6 -->
<g id="edge6" class="edge"><title>Node5&#45;&gt;Node6</title>
<path fill="none" stroke="midnightblue" d="M639.906,-340.229C571.833,-330.923 420.726,-310.265 337.524,-298.891"/>
<polygon fill="midnightblue" stroke="midnightblue" points="639.714,-343.735 650.096,-341.622 640.662,-336.8 639.714,-343.735"/>
</g>
<!-- Node10 -->
<g id="node10" class="node"><title>Node10</title>
<g id="a_node10"><a xlink:href="importance__analysis_8cc.xhtml" target="_top" xlink:title="Implementations of functions to provide quantitative importance informations. ">
<polygon fill="white" stroke="black" points="527.805,-112.5 527.805,-131.5 655.805,-131.5 655.805,-112.5 527.805,-112.5"/>
<text text-anchor="middle" x="591.805" y="-119.5" font-family="Helvetica,sans-Serif" font-size="10.00">importance_analysis.cc</text>
</a>
</g>
</g>
<!-- Node5&#45;&gt;Node10 -->
<g id="edge27" class="edge"><title>Node5&#45;&gt;Node10</title>
<path fill="none" stroke="midnightblue" d="M678.952,-326.258C685.479,-291.75 694.303,-217.2 661.805,-168 650.498,-150.882 630.197,-138.909 614.359,-131.64"/>
<polygon fill="midnightblue" stroke="midnightblue" points="675.466,-325.832 676.889,-336.331 682.324,-327.237 675.466,-325.832"/>
</g>
<!-- Node5&#45;&gt;Node15 -->
<g id="edge32" class="edge"><title>Node5&#45;&gt;Node15</title>
<path fill="none" stroke="midnightblue" d="M695.856,-330.451C720.446,-311.556 757.805,-276.089 757.805,-235 757.805,-235 757.805,-235 757.805,-177 757.805,-117.535 682.87,-88.3204 633.694,-75.5506"/>
<polygon fill="midnightblue" stroke="midnightblue" points="693.735,-327.667 687.773,-336.425 697.896,-333.296 693.735,-327.667"/>
</g>
<!-- Node16 -->
<g id="node16" class="node"><title>Node16</title>
<g id="a_node16"><a xlink:href="probability__analysis_8cc.xhtml" target="_top" xlink:title="Implementations of functions to provide probability analysis. ">
<polygon fill="white" stroke="black" points="530.305,-168.5 530.305,-187.5 653.305,-187.5 653.305,-168.5 530.305,-168.5"/>
<text text-anchor="middle" x="591.805" y="-175.5" font-family="Helvetica,sans-Serif" font-size="10.00">probability_analysis.cc</text>
</a>
</g>
</g>
<!-- Node5&#45;&gt;Node16 -->
<g id="edge31" class="edge"><title>Node5&#45;&gt;Node16</title>
<path fill="none" stroke="midnightblue" d="M673.378,-325.989C671.887,-312.708 668.869,-294.78 662.805,-280 647.183,-241.928 615.056,-204.151 599.969,-187.643"/>
<polygon fill="midnightblue" stroke="midnightblue" points="669.923,-326.635 674.333,-336.268 676.892,-325.987 669.923,-326.635"/>
</g>
<!-- Node5&#45;&gt;Node19 -->
<g id="edge28" class="edge"><title>Node5&#45;&gt;Node19</title>
<path fill="none" stroke="midnightblue" d="M659.728,-328.718C650.916,-319.2 640.139,-307.561 632.908,-299.751"/>
<polygon fill="midnightblue" stroke="midnightblue" points="657.186,-331.123 666.548,-336.083 662.322,-326.367 657.186,-331.123"/>
</g>
<!-- Node5&#45;&gt;Node21 -->
<g id="edge33" class="edge"><title>Node5&#45;&gt;Node21</title>
<path fill="none" stroke="midnightblue" d="M706.054,-332.772C731.976,-322.629 768.167,-308.467 791.041,-299.516"/>
<polygon fill="midnightblue" stroke="midnightblue" points="704.708,-329.54 696.671,-336.444 707.259,-336.059 704.708,-329.54"/>
</g>
<!-- Node7 -->
<g id="node7" class="node"><title>Node7</title>
<g id="a_node7"><a xlink:href="fault__tree__analysis_8cc.xhtml" target="_top" xlink:title="Implementation of fault tree analysis. ">
<polygon fill="white" stroke="black" points="98.3047,-224.5 98.3047,-243.5 217.305,-243.5 217.305,-224.5 98.3047,-224.5"/>
<text text-anchor="middle" x="157.805" y="-231.5" font-family="Helvetica,sans-Serif" font-size="10.00">fault_tree_analysis.cc</text>
</a>
</g>
</g>
<!-- Node6&#45;&gt;Node7 -->
<g id="edge7" class="edge"><title>Node6&#45;&gt;Node7</title>
<path fill="none" stroke="midnightblue" d="M251.265,-276.368C228.418,-266.255 197,-252.349 177.046,-243.516"/>
<polygon fill="midnightblue" stroke="midnightblue" points="249.913,-279.597 260.473,-280.444 252.746,-273.196 249.913,-279.597"/>
</g>
<!-- Node6&#45;&gt;Node8 -->
<g id="edge8" class="edge"><title>Node6&#45;&gt;Node8</title>
<path fill="none" stroke="midnightblue" d="M300.11,-274.38C313.665,-264.62 331.047,-252.106 342.535,-243.834"/>
<polygon fill="midnightblue" stroke="midnightblue" points="297.925,-271.641 291.855,-280.324 302.015,-277.321 297.925,-271.641"/>
</g>
<!-- Node11 -->
<g id="node11" class="node"><title>Node11</title>
<g id="a_node11"><a xlink:href="reporter_8h.xhtml" target="_top" xlink:title="Reporter of results. ">
<polygon fill="white" stroke="black" points="248.805,-56.5 248.805,-75.5 312.805,-75.5 312.805,-56.5 248.805,-56.5"/>
<text text-anchor="middle" x="280.805" y="-63.5" font-family="Helvetica,sans-Serif" font-size="10.00">reporter.h</text>
</a>
</g>
</g>
<!-- Node6&#45;&gt;Node11 -->
<g id="edge25" class="edge"><title>Node6&#45;&gt;Node11</title>
<path fill="none" stroke="midnightblue" d="M212.012,-285.326C173.046,-280.371 124.84,-269.141 88.8047,-244 33.6454,-205.517 -28.6057,-163.371 14.8047,-112 44.4306,-76.9413 184.616,-69.188 248.701,-67.4796"/>
<polygon fill="midnightblue" stroke="midnightblue" points="211.885,-288.835 222.222,-286.51 212.691,-281.882 211.885,-288.835"/>
</g>
<!-- Node14 -->
<g id="node14" class="node"><title>Node14</title>
<g id="a_node14"><a xlink:href="risk__analysis_8h.xhtml" target="_top" xlink:title="Contains the main system for performing analysis. ">
<polygon fill="white" stroke="black" points="207.805,-112.5 207.805,-131.5 293.805,-131.5 293.805,-112.5 207.805,-112.5"/>
<text text-anchor="middle" x="250.805" y="-119.5" font-family="Helvetica,sans-Serif" font-size="10.00">risk_analysis.h</text>
</a>
</g>
</g>
<!-- Node6&#45;&gt;Node14 -->
<g id="edge26" class="edge"><title>Node6&#45;&gt;Node14</title>
<path fill="none" stroke="midnightblue" d="M276.473,-269.93C270.182,-233.92 256.785,-157.231 252.302,-131.568"/>
<polygon fill="midnightblue" stroke="midnightblue" points="273.077,-270.827 278.246,-280.075 279.972,-269.622 273.077,-270.827"/>
</g>
<!-- Node8&#45;&gt;Node9 -->
<g id="edge9" class="edge"><title>Node8&#45;&gt;Node9</title>
<path fill="none" stroke="midnightblue" d="M371.426,-217.253C381.539,-207.673 394.081,-195.791 402.48,-187.834"/>
<polygon fill="midnightblue" stroke="midnightblue" points="368.815,-214.906 363.963,-224.324 373.629,-219.987 368.815,-214.906"/>
</g>
<!-- Node8&#45;&gt;Node11 -->
<g id="edge19" class="edge"><title>Node8&#45;&gt;Node11</title>
<path fill="none" stroke="midnightblue" d="M347.377,-214.963C337.522,-191.213 319.43,-148.221 302.805,-112 296.928,-99.1965 289.679,-84.5771 285.148,-75.5672"/>
<polygon fill="midnightblue" stroke="midnightblue" points="344.235,-216.524 351.29,-224.428 350.704,-213.85 344.235,-216.524"/>
</g>
<!-- Node8&#45;&gt;Node14 -->
<g id="edge20" class="edge"><title>Node8&#45;&gt;Node14</title>
<path fill="none" stroke="midnightblue" d="M337.874,-217.465C328.775,-208.95 317.471,-198.099 307.805,-188 289.124,-168.483 268.533,-144.277 257.954,-131.625"/>
<polygon fill="midnightblue" stroke="midnightblue" points="335.496,-220.033 345.206,-224.27 340.257,-214.902 335.496,-220.033"/>
</g>
<!-- Node8&#45;&gt;Node16 -->
<g id="edge18" class="edge"><title>Node8&#45;&gt;Node16</title>
<path fill="none" stroke="midnightblue" d="M402.129,-222.217C446.912,-212.013 513.241,-196.901 554.427,-187.516"/>
<polygon fill="midnightblue" stroke="midnightblue" points="401.331,-218.809 392.358,-224.444 402.886,-225.634 401.331,-218.809"/>
</g>
<!-- Node17 -->
<g id="node17" class="node"><title>Node17</title>
<g id="a_node17"><a xlink:href="uncertainty__analysis_8h.xhtml" target="_top" xlink:title="Provides functionality for uncertainty analysis with Monte Carlo method. ">
<polygon fill="white" stroke="black" points="94.3047,-168.5 94.3047,-187.5 217.305,-187.5 217.305,-168.5 94.3047,-168.5"/>
<text text-anchor="middle" x="155.805" y="-175.5" font-family="Helvetica,sans-Serif" font-size="10.00">uncertainty_analysis.h</text>
</a>
</g>
</g>
<!-- Node8&#45;&gt;Node17 -->
<g id="edge21" class="edge"><title>Node8&#45;&gt;Node17</title>
<path fill="none" stroke="midnightblue" d="M313.157,-221.699C275.599,-211.507 221.19,-196.743 187.189,-187.516"/>
<polygon fill="midnightblue" stroke="midnightblue" points="312.705,-225.202 323.273,-224.444 314.538,-218.447 312.705,-225.202"/>
</g>
<!-- Node9&#45;&gt;Node10 -->
<g id="edge10" class="edge"><title>Node9&#45;&gt;Node10</title>
<path fill="none" stroke="midnightblue" d="M449.912,-165.568C483.868,-155.381 532.793,-140.703 563.417,-131.516"/>
<polygon fill="midnightblue" stroke="midnightblue" points="448.899,-162.218 440.326,-168.444 450.91,-168.922 448.899,-162.218"/>
</g>
<!-- Node9&#45;&gt;Node11 -->
<g id="edge11" class="edge"><title>Node9&#45;&gt;Node11</title>
<path fill="none" stroke="midnightblue" d="M393.837,-161.441C378.496,-148.203 355.805,-128.731 335.805,-112 320.475,-99.1758 302.522,-84.5619 291.405,-75.5589"/>
<polygon fill="midnightblue" stroke="midnightblue" points="391.685,-164.207 401.539,-168.097 396.261,-158.91 391.685,-164.207"/>
</g>
<!-- Node9&#45;&gt;Node14 -->
<g id="edge14" class="edge"><title>Node9&#45;&gt;Node14</title>
<path fill="none" stroke="midnightblue" d="M376.54,-165.172C346.224,-155.004 303.235,-140.585 276.196,-131.516"/>
<polygon fill="midnightblue" stroke="midnightblue" points="375.7,-168.582 386.294,-168.444 377.926,-161.945 375.7,-168.582"/>
</g>
<!-- Node12 -->
<g id="node12" class="node"><title>Node12</title>
<g id="a_node12"><a xlink:href="reporter_8cc.xhtml" target="_top" xlink:title="Implements Reporter class. ">
<polygon fill="white" stroke="black" points="268.805,-0.5 268.805,-19.5 336.805,-19.5 336.805,-0.5 268.805,-0.5"/>
<text text-anchor="middle" x="302.805" y="-7.5" font-family="Helvetica,sans-Serif" font-size="10.00">reporter.cc</text>
</a>
</g>
</g>
<!-- Node11&#45;&gt;Node12 -->
<g id="edge12" class="edge"><title>Node11&#45;&gt;Node12</title>
<path fill="none" stroke="midnightblue" d="M288.264,-46.6897C291.972,-37.589 296.28,-27.0141 299.239,-19.7511"/>
<polygon fill="midnightblue" stroke="midnightblue" points="284.969,-45.5015 284.438,-56.083 291.452,-48.1426 284.969,-45.5015"/>
</g>
<!-- Node13 -->
<g id="node13" class="node"><title>Node13</title>
<g id="a_node13"><a xlink:href="scram_8cc.xhtml" target="_top" xlink:title="Main entrance. ">
<polygon fill="white" stroke="black" points="190.805,-0.5 190.805,-19.5 250.805,-19.5 250.805,-0.5 190.805,-0.5"/>
<text text-anchor="middle" x="220.805" y="-7.5" font-family="Helvetica,sans-Serif" font-size="10.00">scram.cc</text>
</a>
</g>
</g>
<!-- Node11&#45;&gt;Node13 -->
<g id="edge13" class="edge"><title>Node11&#45;&gt;Node13</title>
<path fill="none" stroke="midnightblue" d="M263.624,-49.5372C252.926,-39.9087 239.548,-27.8694 230.62,-19.8339"/>
<polygon fill="midnightblue" stroke="midnightblue" points="261.39,-52.2358 271.165,-56.324 266.073,-47.0327 261.39,-52.2358"/>
</g>
<!-- Node14&#45;&gt;Node11 -->
<g id="edge15" class="edge"><title>Node14&#45;&gt;Node11</title>
<path fill="none" stroke="midnightblue" d="M260.652,-103.275C265.779,-94.0454 271.821,-83.1703 275.943,-75.7511"/>
<polygon fill="midnightblue" stroke="midnightblue" points="257.556,-101.642 255.759,-112.083 263.675,-105.041 257.556,-101.642"/>
</g>
<!-- Node14&#45;&gt;Node13 -->
<g id="edge17" class="edge"><title>Node14&#45;&gt;Node13</title>
<path fill="none" stroke="midnightblue" d="M245.807,-102.674C239.248,-78.6248 228.001,-37.3881 223.148,-19.5914"/>
<polygon fill="midnightblue" stroke="midnightblue" points="242.443,-103.642 248.451,-112.368 249.196,-101.8 242.443,-103.642"/>
</g>
<!-- Node14&#45;&gt;Node15 -->
<g id="edge16" class="edge"><title>Node14&#45;&gt;Node15</title>
<path fill="none" stroke="midnightblue" d="M303.891,-112.593C370.65,-102.022 484.099,-84.056 546.803,-74.1264"/>
<polygon fill="midnightblue" stroke="midnightblue" points="303.322,-109.14 293.993,-114.161 304.417,-116.054 303.322,-109.14"/>
</g>
<!-- Node17&#45;&gt;Node11 -->
<g id="edge23" class="edge"><title>Node17&#45;&gt;Node11</title>
<path fill="none" stroke="midnightblue" d="M164.431,-159.315C171.992,-145.186 184.066,-125.569 198.805,-112 216.486,-95.7213 241.13,-83.2246 258.776,-75.5777"/>
<polygon fill="midnightblue" stroke="midnightblue" points="161.187,-157.972 159.749,-168.469 167.419,-161.16 161.187,-157.972"/>
</g>
<!-- Node17&#45;&gt;Node14 -->
<g id="edge22" class="edge"><title>Node17&#45;&gt;Node14</title>
<path fill="none" stroke="midnightblue" d="M180.122,-163.177C197.604,-153.241 220.635,-140.149 235.579,-131.655"/>
<polygon fill="midnightblue" stroke="midnightblue" points="178.032,-160.339 171.068,-168.324 181.491,-166.425 178.032,-160.339"/>
</g>
<!-- Node18 -->
<g id="node18" class="node"><title>Node18</title>
<g id="a_node18"><a xlink:href="uncertainty__analysis_8cc.xhtml" target="_top" xlink:title="Implements the functionality to run Monte Carlo simulations. ">
<polygon fill="white" stroke="black" points="23.8047,-112.5 23.8047,-131.5 151.805,-131.5 151.805,-112.5 23.8047,-112.5"/>
<text text-anchor="middle" x="87.8047" y="-119.5" font-family="Helvetica,sans-Serif" font-size="10.00">uncertainty_analysis.cc</text>
</a>
</g>
</g>
<!-- Node17&#45;&gt;Node18 -->
<g id="edge24" class="edge"><title>Node17&#45;&gt;Node18</title>
<path fill="none" stroke="midnightblue" d="M137.043,-162.101C124.805,-152.382 109.246,-140.027 98.9289,-131.834"/>
<polygon fill="midnightblue" stroke="midnightblue" points="134.872,-164.846 144.879,-168.324 139.225,-159.364 134.872,-164.846"/>
</g>
<!-- Node19&#45;&gt;Node15 -->
<g id="edge30" class="edge"><title>Node19&#45;&gt;Node15</title>
<path fill="none" stroke="midnightblue" d="M636.28,-271.739C656.676,-238.696 694.437,-165.077 664.805,-112 654.862,-94.1908 634.654,-82.5554 618.016,-75.5863"/>
<polygon fill="midnightblue" stroke="midnightblue" points="633.259,-269.967 630.829,-280.279 639.159,-273.733 633.259,-269.967"/>
</g>
<!-- Node20 -->
<g id="node20" class="node"><title>Node20</title>
<g id="a_node20"><a xlink:href="mocus_8cc.xhtml" target="_top" xlink:title="Implementation of the MOCUS algorithm. ">
<polygon fill="white" stroke="black" points="553.805,-224.5 553.805,-243.5 615.805,-243.5 615.805,-224.5 553.805,-224.5"/>
<text text-anchor="middle" x="584.805" y="-231.5" font-family="Helvetica,sans-Serif" font-size="10.00">mocus.cc</text>
</a>
</g>
</g>
<!-- Node19&#45;&gt;Node20 -->
<g id="edge29" class="edge"><title>Node19&#45;&gt;Node20</title>
<path fill="none" stroke="midnightblue" d="M612.105,-271.855C605.179,-262.505 596.898,-251.327 591.287,-243.751"/>
<polygon fill="midnightblue" stroke="midnightblue" points="609.435,-274.131 618.2,-280.083 615.06,-269.964 609.435,-274.131"/>
</g>
<!-- Node22&#45;&gt;Node6 -->
<g id="edge40" class="edge"><title>Node22&#45;&gt;Node6</title>
<path fill="none" stroke="midnightblue" d="M278.144,-382.348C278.582,-358.254 279.326,-317.308 279.649,-299.591"/>
<polygon fill="midnightblue" stroke="midnightblue" points="274.644,-382.306 277.962,-392.368 281.643,-382.434 274.644,-382.306"/>
</g>
<!-- Node22&#45;&gt;Node23 -->
<g id="edge41" class="edge"><title>Node22&#45;&gt;Node23</title>
<path fill="none" stroke="midnightblue" d="M257.939,-386.101C244.981,-376.382 228.507,-364.027 217.583,-355.834"/>
<polygon fill="midnightblue" stroke="midnightblue" points="256.137,-389.124 266.237,-392.324 260.337,-383.524 256.137,-389.124"/>
</g>
</g>
</svg>
