<?xml version="1.0" encoding="UTF-8" standalone="no"?>
<!DOCTYPE svg PUBLIC "-//W3C//DTD SVG 1.1//EN"
 "http://www.w3.org/Graphics/SVG/1.1/DTD/svg11.dtd">
<!-- Generated by graphviz version 2.38.0 (20140413.2041)
 -->
<!-- Title: Graphical Class Hierarchy Pages: 1 -->
<svg width="264pt" height="137pt"
 viewBox="0.00 0.00 264.00 137.00" xmlns="http://www.w3.org/2000/svg" xmlns:xlink="http://www.w3.org/1999/xlink">
<g id="graph0" class="graph" transform="scale(1 1) rotate(0) translate(4 133)">
<title>Graphical Class Hierarchy</title>
<polygon fill="white" stroke="none" points="-4,4 -4,-133 260,-133 260,4 -4,4"/>
<!-- Node1 -->
<g id="node1" class="node"><title>Node1</title>
<polygon fill="white" stroke="#bfbfbf" points="0,-55 0,-74 89,-74 89,-55 0,-55"/>
<text text-anchor="middle" x="44.5" y="-62" font-family="Helvetica,sans-Serif" font-size="10.00">iterator_facade</text>
</g>
<!-- Node2 -->
<g id="node2" class="node"><title>Node2</title>
<g id="a_node2"><a xlink:href="classscram_1_1core_1_1Zbdd_1_1const__iterator.xhtml" target="_top" xlink:title="Iterator over products in a ZBDD container. ">
<polygon fill="white" stroke="black" points="135,-98.5 135,-128.5 246,-128.5 246,-98.5 135,-98.5"/>
<text text-anchor="start" x="143" y="-116.5" font-family="Helvetica,sans-Serif" font-size="10.00">scram::core::Zbdd::</text>
<text text-anchor="middle" x="190.5" y="-105.5" font-family="Helvetica,sans-Serif" font-size="10.00">const_iterator</text>
</a>
</g>
</g>
<!-- Node1&#45;&gt;Node2 -->
<g id="edge1" class="edge"><title>Node1&#45;&gt;Node2</title>
<path fill="none" stroke="midnightblue" d="M83.1438,-77.3093C102.188,-83.7897 125.421,-91.6955 145.31,-98.463"/>
<polygon fill="midnightblue" stroke="midnightblue" points="84.2009,-73.972 73.6065,-74.064 81.9459,-80.5989 84.2009,-73.972"/>
</g>
<!-- Node3 -->
<g id="node3" class="node"><title>Node3</title>
<g id="a_node3"><a xlink:href="classscram_1_1mef_1_1TableRange_1_1iterator.xhtml" target="_top" xlink:title="The proxy forward iterator to extract values instead of pointers. ">
<polygon fill="white" stroke="black" points="125,-49.5 125,-79.5 256,-79.5 256,-49.5 125,-49.5"/>
<text text-anchor="start" x="133" y="-67.5" font-family="Helvetica,sans-Serif" font-size="10.00">scram::mef::TableRange</text>
<text text-anchor="middle" x="190.5" y="-56.5" font-family="Helvetica,sans-Serif" font-size="10.00">&lt; T &gt;::iterator</text>
</a>
</g>
</g>
<!-- Node1&#45;&gt;Node3 -->
<g id="edge2" class="edge"><title>Node1&#45;&gt;Node3</title>
<path fill="none" stroke="midnightblue" d="M99.1015,-64.5C107.477,-64.5 116.208,-64.5 124.799,-64.5"/>
<polygon fill="midnightblue" stroke="midnightblue" points="99.0956,-61.0001 89.0955,-64.5 99.0955,-68.0001 99.0956,-61.0001"/>
</g>
<!-- Node4 -->
<g id="node4" class="node"><title>Node4</title>
<g id="a_node4"><a xlink:href="classscram_1_1xml_1_1Element_1_1Range_1_1iterator.xhtml" target="_top" xlink:title="Iterator over range elements. ">
<polygon fill="white" stroke="black" points="132.5,-0.5 132.5,-30.5 248.5,-30.5 248.5,-0.5 132.5,-0.5"/>
<text text-anchor="start" x="140.5" y="-18.5" font-family="Helvetica,sans-Serif" font-size="10.00">scram::xml::Element</text>
<text text-anchor="middle" x="190.5" y="-7.5" font-family="Helvetica,sans-Serif" font-size="10.00">::Range::iterator</text>
</a>
</g>
</g>
<!-- Node1&#45;&gt;Node4 -->
<g id="edge3" class="edge"><title>Node1&#45;&gt;Node4</title>
<path fill="none" stroke="midnightblue" d="M83.1438,-51.6907C102.188,-45.2103 125.421,-37.3045 145.31,-30.537"/>
<polygon fill="midnightblue" stroke="midnightblue" points="81.9459,-48.4011 73.6065,-54.936 84.2009,-55.028 81.9459,-48.4011"/>
</g>
</g>
</svg>
