<?xml version="1.0" encoding="UTF-8" standalone="no"?>
<!DOCTYPE svg PUBLIC "-//W3C//DTD SVG 1.1//EN"
 "http://www.w3.org/Graphics/SVG/1.1/DTD/svg11.dtd">
<!-- Generated by graphviz version 2.38.0 (20140413.2041)
 -->
<!-- Title: Graphical Class Hierarchy Pages: 1 -->
<svg width="327pt" height="28pt"
 viewBox="0.00 0.00 327.00 28.00" xmlns="http://www.w3.org/2000/svg" xmlns:xlink="http://www.w3.org/1999/xlink">
<g id="graph0" class="graph" transform="scale(1 1) rotate(0) translate(4 24)">
<title>Graphical Class Hierarchy</title>
<polygon fill="white" stroke="none" points="-4,4 -4,-24 323,-24 323,4 -4,4"/>
<!-- Node1 -->
<g id="node1" class="node"><title>Node1</title>
<g id="a_node1"><a xlink:href="classscram_1_1mef_1_1InstructionVisitor.xhtml" target="_top" xlink:title="The base abstract class for instruction visitors. ">
<polygon fill="white" stroke="black" points="-2.84217e-14,-0.5 -2.84217e-14,-19.5 158,-19.5 158,-0.5 -2.84217e-14,-0.5"/>
<text text-anchor="middle" x="79" y="-7.5" font-family="Helvetica,sans-Serif" font-size="10.00">scram::mef::InstructionVisitor</text>
</a>
</g>
</g>
<!-- Node2 -->
<g id="node2" class="node"><title>Node2</title>
<g id="a_node2"><a xlink:href="classscram_1_1mef_1_1NullVisitor.xhtml" target="_top" xlink:title="Visits only instructions and ignores non&#45;instructions. ">
<polygon fill="white" stroke="black" points="194,-0.5 194,-19.5 319,-19.5 319,-0.5 194,-0.5"/>
<text text-anchor="middle" x="256.5" y="-7.5" font-family="Helvetica,sans-Serif" font-size="10.00">scram::mef::NullVisitor</text>
</a>
</g>
</g>
<!-- Node1&#45;&gt;Node2 -->
<g id="edge1" class="edge"><title>Node1&#45;&gt;Node2</title>
<path fill="none" stroke="midnightblue" d="M168.394,-10C177.046,-10 185.689,-10 193.987,-10"/>
<polygon fill="midnightblue" stroke="midnightblue" points="168.255,-6.5001 158.255,-10 168.255,-13.5001 168.255,-6.5001"/>
</g>
</g>
</svg>
