<?xml version="1.0" encoding="UTF-8" standalone="no"?>
<!DOCTYPE svg PUBLIC "-//W3C//DTD SVG 1.1//EN"
 "http://www.w3.org/Graphics/SVG/1.1/DTD/svg11.dtd">
<!-- Generated by graphviz version 2.38.0 (20140413.2041)
 -->
<!-- Title: instruction.h Pages: 1 -->
<svg width="801pt" height="308pt"
 viewBox="0.00 0.00 801.00 308.00" xmlns="http://www.w3.org/2000/svg" xmlns:xlink="http://www.w3.org/1999/xlink">
<g id="graph0" class="graph" transform="scale(1 1) rotate(0) translate(4 304)">
<title>instruction.h</title>
<polygon fill="white" stroke="none" points="-4,4 -4,-304 797,-304 797,4 -4,4"/>
<!-- Node1 -->
<g id="node1" class="node"><title>Node1</title>
<polygon fill="#bfbfbf" stroke="black" points="591,-280.5 591,-299.5 667,-299.5 667,-280.5 591,-280.5"/>
<text text-anchor="middle" x="629" y="-287.5" font-family="Helvetica,sans-Serif" font-size="10.00">instruction.h</text>
</g>
<!-- Node2 -->
<g id="node2" class="node"><title>Node2</title>
<g id="a_node2"><a xlink:href="alignment_8h.xhtml" target="_top" xlink:title="Mission and phase constructs. ">
<polygon fill="white" stroke="black" points="286,-224.5 286,-243.5 360,-243.5 360,-224.5 286,-224.5"/>
<text text-anchor="middle" x="323" y="-231.5" font-family="Helvetica,sans-Serif" font-size="10.00">alignment.h</text>
</a>
</g>
</g>
<!-- Node1&#45;&gt;Node2 -->
<g id="edge1" class="edge"><title>Node1&#45;&gt;Node2</title>
<path fill="none" stroke="midnightblue" d="M580.698,-280.476C519.545,-269.684 415.508,-251.325 360.179,-241.561"/>
<polygon fill="midnightblue" stroke="midnightblue" points="580.407,-283.979 590.864,-282.27 581.624,-277.085 580.407,-283.979"/>
</g>
<!-- Node4 -->
<g id="node4" class="node"><title>Node4</title>
<g id="a_node4"><a xlink:href="initializer_8h.xhtml" target="_top" xlink:title="A facility that processes input files into analysis constructs. ">
<polygon fill="white" stroke="black" points="406.5,-112.5 406.5,-131.5 473.5,-131.5 473.5,-112.5 406.5,-112.5"/>
<text text-anchor="middle" x="440" y="-119.5" font-family="Helvetica,sans-Serif" font-size="10.00">initializer.h</text>
</a>
</g>
</g>
<!-- Node1&#45;&gt;Node4 -->
<g id="edge33" class="edge"><title>Node1&#45;&gt;Node4</title>
<path fill="none" stroke="midnightblue" d="M641.398,-271.688C658.003,-246.191 682.68,-198.295 658,-168 646.406,-153.768 531.938,-135.874 473.686,-127.593"/>
<polygon fill="midnightblue" stroke="midnightblue" points="638.283,-270.044 635.549,-280.28 644.069,-273.983 638.283,-270.044"/>
</g>
<!-- Node7 -->
<g id="node7" class="node"><title>Node7</title>
<g id="a_node7"><a xlink:href="model_8h.xhtml" target="_top" xlink:title="Representation for a model container for risk analysis. ">
<polygon fill="white" stroke="black" points="143,-168.5 143,-187.5 199,-187.5 199,-168.5 143,-168.5"/>
<text text-anchor="middle" x="171" y="-175.5" font-family="Helvetica,sans-Serif" font-size="10.00">model.h</text>
</a>
</g>
</g>
<!-- Node1&#45;&gt;Node7 -->
<g id="edge34" class="edge"><title>Node1&#45;&gt;Node7</title>
<path fill="none" stroke="midnightblue" d="M580.644,-289.175C511.406,-288.023 380.913,-280.596 277,-244 238.924,-230.591 199.915,-202.088 181.652,-187.698"/>
<polygon fill="midnightblue" stroke="midnightblue" points="580.766,-292.676 590.811,-289.305 580.857,-285.677 580.766,-292.676"/>
</g>
<!-- Node16 -->
<g id="node16" class="node"><title>Node16</title>
<g id="a_node16"><a xlink:href="event__tree_8h.xhtml" target="_top" xlink:title="Event Tree facilities. ">
<polygon fill="white" stroke="black" points="496.5,-224.5 496.5,-243.5 573.5,-243.5 573.5,-224.5 496.5,-224.5"/>
<text text-anchor="middle" x="535" y="-231.5" font-family="Helvetica,sans-Serif" font-size="10.00">event_tree.h</text>
</a>
</g>
</g>
<!-- Node1&#45;&gt;Node16 -->
<g id="edge21" class="edge"><title>Node1&#45;&gt;Node16</title>
<path fill="none" stroke="midnightblue" d="M604.938,-275.177C587.641,-265.241 564.852,-252.149 550.065,-243.655"/>
<polygon fill="midnightblue" stroke="midnightblue" points="603.483,-278.378 613.897,-280.324 606.97,-272.308 603.483,-278.378"/>
</g>
<!-- Node17 -->
<g id="node17" class="node"><title>Node17</title>
<g id="a_node17"><a xlink:href="cycle_8h.xhtml" target="_top" xlink:title="Validation facilities to detect and print cycles in graphs. ">
<polygon fill="white" stroke="black" points="743,-168.5 743,-187.5 793,-187.5 793,-168.5 743,-168.5"/>
<text text-anchor="middle" x="768" y="-175.5" font-family="Helvetica,sans-Serif" font-size="10.00">cycle.h</text>
</a>
</g>
</g>
<!-- Node1&#45;&gt;Node17 -->
<g id="edge31" class="edge"><title>Node1&#45;&gt;Node17</title>
<path fill="none" stroke="midnightblue" d="M669.761,-277.046C689.303,-269.816 712.08,-259.039 729,-244 747.099,-227.913 759.328,-201.372 764.775,-187.715"/>
<polygon fill="midnightblue" stroke="midnightblue" points="668.453,-273.795 660.176,-280.41 670.771,-280.4 668.453,-273.795"/>
</g>
<!-- Node21 -->
<g id="node21" class="node"><title>Node21</title>
<g id="a_node21"><a xlink:href="event__tree__analysis_8cc.xhtml" target="_top" xlink:title="Implementation of event tree analysis facilities. ">
<polygon fill="white" stroke="black" points="522.5,-112.5 522.5,-131.5 647.5,-131.5 647.5,-112.5 522.5,-112.5"/>
<text text-anchor="middle" x="585" y="-119.5" font-family="Helvetica,sans-Serif" font-size="10.00">event_tree_analysis.cc</text>
</a>
</g>
</g>
<!-- Node1&#45;&gt;Node21 -->
<g id="edge32" class="edge"><title>Node1&#45;&gt;Node21</title>
<path fill="none" stroke="midnightblue" d="M658.1,-275.654C670.634,-268.25 684,-257.73 691,-244 706.342,-213.907 709.643,-196.167 691,-168 678.366,-148.911 655.828,-137.896 634.774,-131.55"/>
<polygon fill="midnightblue" stroke="midnightblue" points="656.326,-272.634 649.223,-280.495 659.678,-278.78 656.326,-272.634"/>
</g>
<!-- Node3 -->
<g id="node3" class="node"><title>Node3</title>
<g id="a_node3"><a xlink:href="alignment_8cc.xhtml" target="_top" xlink:title="Implementation of alignment and phase classes. ">
<polygon fill="white" stroke="black" points="217,-168.5 217,-187.5 295,-187.5 295,-168.5 217,-168.5"/>
<text text-anchor="middle" x="256" y="-175.5" font-family="Helvetica,sans-Serif" font-size="10.00">alignment.cc</text>
</a>
</g>
</g>
<!-- Node2&#45;&gt;Node3 -->
<g id="edge2" class="edge"><title>Node2&#45;&gt;Node3</title>
<path fill="none" stroke="midnightblue" d="M304.165,-217.82C292.162,-208.145 277.028,-195.948 266.961,-187.834"/>
<polygon fill="midnightblue" stroke="midnightblue" points="302.253,-220.774 312.235,-224.324 306.646,-215.324 302.253,-220.774"/>
</g>
<!-- Node2&#45;&gt;Node4 -->
<g id="edge3" class="edge"><title>Node2&#45;&gt;Node4</title>
<path fill="none" stroke="midnightblue" d="M339.474,-217.512C364.475,-194.007 411.165,-150.11 430.862,-131.591"/>
<polygon fill="midnightblue" stroke="midnightblue" points="337.069,-214.969 332.181,-224.368 341.864,-220.069 337.069,-214.969"/>
</g>
<!-- Node2&#45;&gt;Node7 -->
<g id="edge6" class="edge"><title>Node2&#45;&gt;Node7</title>
<path fill="none" stroke="midnightblue" d="M289.332,-221.039C260.732,-210.879 220.388,-196.546 194.972,-187.516"/>
<polygon fill="midnightblue" stroke="midnightblue" points="288.32,-224.394 298.915,-224.444 290.664,-217.798 288.32,-224.394"/>
</g>
<!-- Node12 -->
<g id="node12" class="node"><title>Node12</title>
<g id="a_node12"><a xlink:href="risk__analysis_8h.xhtml" target="_top" xlink:title="Contains the main system for performing analysis. ">
<polygon fill="white" stroke="black" points="292,-112.5 292,-131.5 378,-131.5 378,-112.5 292,-112.5"/>
<text text-anchor="middle" x="335" y="-119.5" font-family="Helvetica,sans-Serif" font-size="10.00">risk_analysis.h</text>
</a>
</g>
</g>
<!-- Node2&#45;&gt;Node12 -->
<g id="edge20" class="edge"><title>Node2&#45;&gt;Node12</title>
<path fill="none" stroke="midnightblue" d="M325.035,-214.348C327.663,-190.254 332.13,-149.308 334.063,-131.591"/>
<polygon fill="midnightblue" stroke="midnightblue" points="321.547,-214.048 323.942,-224.368 328.506,-214.807 321.547,-214.048"/>
</g>
<!-- Node5 -->
<g id="node5" class="node"><title>Node5</title>
<g id="a_node5"><a xlink:href="initializer_8cc.xhtml" target="_top" xlink:title="Implementation of input file processing into analysis constructs. ">
<polygon fill="white" stroke="black" points="598.5,-56.5 598.5,-75.5 669.5,-75.5 669.5,-56.5 598.5,-56.5"/>
<text text-anchor="middle" x="634" y="-63.5" font-family="Helvetica,sans-Serif" font-size="10.00">initializer.cc</text>
</a>
</g>
</g>
<!-- Node4&#45;&gt;Node5 -->
<g id="edge4" class="edge"><title>Node4&#45;&gt;Node5</title>
<path fill="none" stroke="midnightblue" d="M480.601,-109.699C517.215,-99.507 570.257,-84.7429 603.404,-75.5164"/>
<polygon fill="midnightblue" stroke="midnightblue" points="479.435,-106.39 470.74,-112.444 481.312,-113.134 479.435,-106.39"/>
</g>
<!-- Node6 -->
<g id="node6" class="node"><title>Node6</title>
<g id="a_node6"><a xlink:href="scram_8cc.xhtml" target="_top" xlink:title="Main entrance. ">
<polygon fill="white" stroke="black" points="265,-0.5 265,-19.5 325,-19.5 325,-0.5 265,-0.5"/>
<text text-anchor="middle" x="295" y="-7.5" font-family="Helvetica,sans-Serif" font-size="10.00">scram.cc</text>
</a>
</g>
</g>
<!-- Node4&#45;&gt;Node6 -->
<g id="edge5" class="edge"><title>Node4&#45;&gt;Node6</title>
<path fill="none" stroke="midnightblue" d="M434.57,-102.407C429.519,-88.0327 420.684,-68.5334 407,-56 383.975,-34.9113 349.811,-23.1269 325.275,-16.9601"/>
<polygon fill="midnightblue" stroke="midnightblue" points="431.324,-103.748 437.712,-112.2 437.989,-101.608 431.324,-103.748"/>
</g>
<!-- Node7&#45;&gt;Node4 -->
<g id="edge7" class="edge"><title>Node7&#45;&gt;Node4</title>
<path fill="none" stroke="midnightblue" d="M209.464,-167.758C285.403,-151.317 363.217,-136.833 406.474,-128.991"/>
<polygon fill="midnightblue" stroke="midnightblue" points="208.275,-164.434 199.25,-169.984 209.766,-171.274 208.275,-164.434"/>
</g>
<!-- Node8 -->
<g id="node8" class="node"><title>Node8</title>
<g id="a_node8"><a xlink:href="model_8cc.xhtml" target="_top" xlink:title="Implementation of functions in Model class. ">
<polygon fill="white" stroke="black" points="0,-112.5 0,-131.5 60,-131.5 60,-112.5 0,-112.5"/>
<text text-anchor="middle" x="30" y="-119.5" font-family="Helvetica,sans-Serif" font-size="10.00">model.cc</text>
</a>
</g>
</g>
<!-- Node7&#45;&gt;Node8 -->
<g id="edge8" class="edge"><title>Node7&#45;&gt;Node8</title>
<path fill="none" stroke="midnightblue" d="M139.071,-164.772C112.586,-154.629 75.6079,-140.467 52.2373,-131.516"/>
<polygon fill="midnightblue" stroke="midnightblue" points="138.068,-168.136 148.658,-168.444 140.571,-161.599 138.068,-168.136"/>
</g>
<!-- Node9 -->
<g id="node9" class="node"><title>Node9</title>
<g id="a_node9"><a xlink:href="pdag_8cc.xhtml" target="_top" xlink:title="Implementation of a Propositional Directed Acyclic Graph with indexed nodes, variables, and gates. ">
<polygon fill="white" stroke="black" points="78,-112.5 78,-131.5 132,-131.5 132,-112.5 78,-112.5"/>
<text text-anchor="middle" x="105" y="-119.5" font-family="Helvetica,sans-Serif" font-size="10.00">pdag.cc</text>
</a>
</g>
</g>
<!-- Node7&#45;&gt;Node9 -->
<g id="edge9" class="edge"><title>Node7&#45;&gt;Node9</title>
<path fill="none" stroke="midnightblue" d="M152.446,-161.82C140.622,-152.145 125.714,-139.948 115.797,-131.834"/>
<polygon fill="midnightblue" stroke="midnightblue" points="150.44,-164.7 160.396,-168.324 154.873,-159.283 150.44,-164.7"/>
</g>
<!-- Node10 -->
<g id="node10" class="node"><title>Node10</title>
<g id="a_node10"><a xlink:href="reporter_8h.xhtml" target="_top" xlink:title="Reporter of results. ">
<polygon fill="white" stroke="black" points="66,-56.5 66,-75.5 130,-75.5 130,-56.5 66,-56.5"/>
<text text-anchor="middle" x="98" y="-63.5" font-family="Helvetica,sans-Serif" font-size="10.00">reporter.h</text>
</a>
</g>
</g>
<!-- Node7&#45;&gt;Node10 -->
<g id="edge10" class="edge"><title>Node7&#45;&gt;Node10</title>
<path fill="none" stroke="midnightblue" d="M164.362,-158.5C159.077,-145.002 150.932,-126.594 141,-112 131.394,-97.8852 117.266,-84.052 107.857,-75.5293"/>
<polygon fill="midnightblue" stroke="midnightblue" points="161.176,-159.972 167.966,-168.105 167.73,-157.513 161.176,-159.972"/>
</g>
<!-- Node7&#45;&gt;Node12 -->
<g id="edge13" class="edge"><title>Node7&#45;&gt;Node12</title>
<path fill="none" stroke="midnightblue" d="M206.52,-165.304C237.422,-155.129 281.473,-140.625 309.135,-131.516"/>
<polygon fill="midnightblue" stroke="midnightblue" points="205.39,-161.992 196.986,-168.444 207.579,-168.64 205.39,-161.992"/>
</g>
<!-- Node14 -->
<g id="node14" class="node"><title>Node14</title>
<g id="a_node14"><a xlink:href="serialization_8h.xhtml" target="_top" xlink:title="The MEF Model serialization facilities. ">
<polygon fill="white" stroke="black" points="188.5,-112.5 188.5,-131.5 271.5,-131.5 271.5,-112.5 188.5,-112.5"/>
<text text-anchor="middle" x="230" y="-119.5" font-family="Helvetica,sans-Serif" font-size="10.00">serialization.h</text>
</a>
</g>
</g>
<!-- Node7&#45;&gt;Node14 -->
<g id="edge17" class="edge"><title>Node7&#45;&gt;Node14</title>
<path fill="none" stroke="midnightblue" d="M187.895,-161.537C198.415,-151.909 211.569,-139.869 220.348,-131.834"/>
<polygon fill="midnightblue" stroke="midnightblue" points="185.493,-158.99 180.479,-168.324 190.219,-164.154 185.493,-158.99"/>
</g>
<!-- Node10&#45;&gt;Node6 -->
<g id="edge12" class="edge"><title>Node10&#45;&gt;Node6</title>
<path fill="none" stroke="midnightblue" d="M139.322,-53.6733C176.858,-43.3841 231.34,-28.4498 264.9,-19.2508"/>
<polygon fill="midnightblue" stroke="midnightblue" points="137.934,-50.4244 129.215,-56.4435 139.785,-57.1754 137.934,-50.4244"/>
</g>
<!-- Node11 -->
<g id="node11" class="node"><title>Node11</title>
<g id="a_node11"><a xlink:href="reporter_8cc.xhtml" target="_top" xlink:title="Implements Reporter class. ">
<polygon fill="white" stroke="black" points="64,-0.5 64,-19.5 132,-19.5 132,-0.5 64,-0.5"/>
<text text-anchor="middle" x="98" y="-7.5" font-family="Helvetica,sans-Serif" font-size="10.00">reporter.cc</text>
</a>
</g>
</g>
<!-- Node10&#45;&gt;Node11 -->
<g id="edge11" class="edge"><title>Node10&#45;&gt;Node11</title>
<path fill="none" stroke="midnightblue" d="M98,-45.8045C98,-36.9102 98,-26.7798 98,-19.7511"/>
<polygon fill="midnightblue" stroke="midnightblue" points="94.5001,-46.083 98,-56.083 101.5,-46.083 94.5001,-46.083"/>
</g>
<!-- Node12&#45;&gt;Node6 -->
<g id="edge16" class="edge"><title>Node12&#45;&gt;Node6</title>
<path fill="none" stroke="midnightblue" d="M360.986,-107.148C380.945,-94.5986 403.196,-75.1857 391,-56 376.682,-33.4756 347.785,-22.0304 325.418,-16.3399"/>
<polygon fill="midnightblue" stroke="midnightblue" points="358.929,-104.298 352.108,-112.406 362.496,-110.321 358.929,-104.298"/>
</g>
<!-- Node12&#45;&gt;Node10 -->
<g id="edge14" class="edge"><title>Node12&#45;&gt;Node10</title>
<path fill="none" stroke="midnightblue" d="M287.551,-110.189C240.784,-99.5331 170.61,-83.544 130.057,-74.3042"/>
<polygon fill="midnightblue" stroke="midnightblue" points="286.919,-113.634 297.447,-112.444 288.474,-106.809 286.919,-113.634"/>
</g>
<!-- Node13 -->
<g id="node13" class="node"><title>Node13</title>
<g id="a_node13"><a xlink:href="risk__analysis_8cc.xhtml" target="_top" xlink:title="Implementation of risk analysis handler. ">
<polygon fill="white" stroke="black" points="292,-56.5 292,-75.5 382,-75.5 382,-56.5 292,-56.5"/>
<text text-anchor="middle" x="337" y="-63.5" font-family="Helvetica,sans-Serif" font-size="10.00">risk_analysis.cc</text>
</a>
</g>
</g>
<!-- Node12&#45;&gt;Node13 -->
<g id="edge15" class="edge"><title>Node12&#45;&gt;Node13</title>
<path fill="none" stroke="midnightblue" d="M335.711,-101.805C336.04,-92.9102 336.416,-82.7798 336.676,-75.7511"/>
<polygon fill="midnightblue" stroke="midnightblue" points="332.203,-101.96 335.33,-112.083 339.198,-102.219 332.203,-101.96"/>
</g>
<!-- Node14&#45;&gt;Node6 -->
<g id="edge18" class="edge"><title>Node14&#45;&gt;Node6</title>
<path fill="none" stroke="midnightblue" d="M205.213,-106.934C185.899,-94.1065 164.321,-74.4048 177,-56 196.59,-27.5625 236.74,-17.0833 264.736,-13.2293"/>
<polygon fill="midnightblue" stroke="midnightblue" points="203.465,-109.968 213.796,-112.314 207.182,-104.037 203.465,-109.968"/>
</g>
<!-- Node15 -->
<g id="node15" class="node"><title>Node15</title>
<g id="a_node15"><a xlink:href="serialization_8cc.xhtml" target="_top" xlink:title="serialization.cc">
<polygon fill="white" stroke="black" points="186.5,-56.5 186.5,-75.5 273.5,-75.5 273.5,-56.5 186.5,-56.5"/>
<text text-anchor="middle" x="230" y="-63.5" font-family="Helvetica,sans-Serif" font-size="10.00">serialization.cc</text>
</a>
</g>
</g>
<!-- Node14&#45;&gt;Node15 -->
<g id="edge19" class="edge"><title>Node14&#45;&gt;Node15</title>
<path fill="none" stroke="midnightblue" d="M230,-101.805C230,-92.9102 230,-82.7798 230,-75.7511"/>
<polygon fill="midnightblue" stroke="midnightblue" points="226.5,-102.083 230,-112.083 233.5,-102.083 226.5,-102.083"/>
</g>
<!-- Node16&#45;&gt;Node4 -->
<g id="edge29" class="edge"><title>Node16&#45;&gt;Node4</title>
<path fill="none" stroke="midnightblue" d="M486.426,-227.299C461.569,-221.644 433.377,-210.389 418,-188 405.725,-170.127 422.023,-144.814 432.471,-131.673"/>
<polygon fill="midnightblue" stroke="midnightblue" points="485.972,-230.778 496.468,-229.332 487.361,-223.917 485.972,-230.778"/>
</g>
<!-- Node16&#45;&gt;Node7 -->
<g id="edge30" class="edge"><title>Node16&#45;&gt;Node7</title>
<path fill="none" stroke="midnightblue" d="M486.061,-227.841C421.902,-220.717 305.995,-206.611 208,-188 205.142,-187.457 202.174,-186.835 199.217,-186.177"/>
<polygon fill="midnightblue" stroke="midnightblue" points="485.961,-231.351 496.283,-228.965 486.726,-224.393 485.961,-231.351"/>
</g>
<!-- Node16&#45;&gt;Node17 -->
<g id="edge22" class="edge"><title>Node16&#45;&gt;Node17</title>
<path fill="none" stroke="midnightblue" d="M581.859,-222.14C630.35,-210.902 704.271,-193.77 742.743,-184.854"/>
<polygon fill="midnightblue" stroke="midnightblue" points="580.871,-218.776 571.92,-224.444 582.452,-225.595 580.871,-218.776"/>
</g>
<!-- Node19 -->
<g id="node19" class="node"><title>Node19</title>
<g id="a_node19"><a xlink:href="event__tree_8cc.xhtml" target="_top" xlink:title="Implementation of event tree facilities. ">
<polygon fill="white" stroke="black" points="567,-168.5 567,-187.5 649,-187.5 649,-168.5 567,-168.5"/>
<text text-anchor="middle" x="608" y="-175.5" font-family="Helvetica,sans-Serif" font-size="10.00">event_tree.cc</text>
</a>
</g>
</g>
<!-- Node16&#45;&gt;Node19 -->
<g id="edge25" class="edge"><title>Node16&#45;&gt;Node19</title>
<path fill="none" stroke="midnightblue" d="M555.142,-218.101C568.279,-208.382 584.982,-196.027 596.058,-187.834"/>
<polygon fill="midnightblue" stroke="midnightblue" points="552.687,-215.563 546.729,-224.324 556.85,-221.191 552.687,-215.563"/>
</g>
<!-- Node20 -->
<g id="node20" class="node"><title>Node20</title>
<g id="a_node20"><a xlink:href="event__tree__analysis_8h.xhtml" target="_top" xlink:title="Event tree analysis facilities. ">
<polygon fill="white" stroke="black" points="427.5,-168.5 427.5,-187.5 548.5,-187.5 548.5,-168.5 427.5,-168.5"/>
<text text-anchor="middle" x="488" y="-175.5" font-family="Helvetica,sans-Serif" font-size="10.00">event_tree_analysis.h</text>
</a>
</g>
</g>
<!-- Node16&#45;&gt;Node20 -->
<g id="edge26" class="edge"><title>Node16&#45;&gt;Node20</title>
<path fill="none" stroke="midnightblue" d="M520.579,-216.431C512.342,-206.967 502.346,-195.483 495.617,-187.751"/>
<polygon fill="midnightblue" stroke="midnightblue" points="518.034,-218.838 527.239,-224.083 523.314,-214.242 518.034,-218.838"/>
</g>
<!-- Node17&#45;&gt;Node5 -->
<g id="edge24" class="edge"><title>Node17&#45;&gt;Node5</title>
<path fill="none" stroke="midnightblue" d="M766.879,-158.085C765.088,-143.809 760.524,-124.593 749,-112 728.375,-89.4616 695.079,-78.0715 669.609,-72.4021"/>
<polygon fill="midnightblue" stroke="midnightblue" points="763.413,-158.612 767.802,-168.255 770.384,-157.979 763.413,-158.612"/>
</g>
<!-- Node18 -->
<g id="node18" class="node"><title>Node18</title>
<g id="a_node18"><a xlink:href="cycle_8cc.xhtml" target="_top" xlink:title="Implementation of cycle detection specializations. ">
<polygon fill="white" stroke="black" points="686,-112.5 686,-131.5 740,-131.5 740,-112.5 686,-112.5"/>
<text text-anchor="middle" x="713" y="-119.5" font-family="Helvetica,sans-Serif" font-size="10.00">cycle.cc</text>
</a>
</g>
</g>
<!-- Node17&#45;&gt;Node18 -->
<g id="edge23" class="edge"><title>Node17&#45;&gt;Node18</title>
<path fill="none" stroke="midnightblue" d="M751.706,-161.002C741.959,-151.433 729.947,-139.639 721.913,-131.751"/>
<polygon fill="midnightblue" stroke="midnightblue" points="749.33,-163.575 758.918,-168.083 754.234,-158.58 749.33,-163.575"/>
</g>
<!-- Node20&#45;&gt;Node12 -->
<g id="edge28" class="edge"><title>Node20&#45;&gt;Node12</title>
<path fill="none" stroke="midnightblue" d="M454.111,-165.039C425.323,-154.879 384.713,-140.546 359.13,-131.516"/>
<polygon fill="midnightblue" stroke="midnightblue" points="453.162,-168.416 463.757,-168.444 455.492,-161.815 453.162,-168.416"/>
</g>
<!-- Node20&#45;&gt;Node21 -->
<g id="edge27" class="edge"><title>Node20&#45;&gt;Node21</title>
<path fill="none" stroke="midnightblue" d="M512.335,-163.453C530.243,-153.483 554.054,-140.228 569.454,-131.655"/>
<polygon fill="midnightblue" stroke="midnightblue" points="510.62,-160.402 503.585,-168.324 514.025,-166.518 510.62,-160.402"/>
</g>
</g>
</svg>
