<?xml version="1.0" encoding="UTF-8" standalone="no"?>
<!DOCTYPE svg PUBLIC "-//W3C//DTD SVG 1.1//EN"
 "http://www.w3.org/Graphics/SVG/1.1/DTD/svg11.dtd">
<!-- Generated by graphviz version 2.38.0 (20140413.2041)
 -->
<!-- Title: instruction.h Pages: 1 -->
<!--zoomable 274 -->
<svg id="main" version="1.1" xmlns="http://www.w3.org/2000/svg" xmlns:xlink="http://www.w3.org/1999/xlink" xml:space="preserve" onload="init(evt)">
<style type="text/css"><![CDATA[
.edge:hover path { stroke: red; }
.edge:hover polygon { stroke: red; fill: red; }
]]></style>
<script type="text/javascript"><![CDATA[
var edges = document.getElementsByTagName('g');
if (edges && edges.length) {
  for (var i=0;i<edges.length;i++) {
    if (edges[i].id.substr(0,4)=='edge') {
      edges[i].setAttribute('class','edge');
    }
  }
}
]]></script>
        <defs>
                <circle id="rim" cx="0" cy="0" r="7"/>
                <circle id="rim2" cx="0" cy="0" r="3.5"/>
                <g id="zoomPlus">
                        <use xlink:href="#rim" fill="#404040">
                                <set attributeName="fill" to="#808080" begin="zoomplus.mouseover" end="zoomplus.mouseout"/>
                        </use>
                        <path d="M-4,0h8M0,-4v8" fill="none" stroke="white" stroke-width="1.5" pointer-events="none"/>
                </g>
                <g id="zoomMin">
                        <use xlink:href="#rim" fill="#404040">
                                <set attributeName="fill" to="#808080" begin="zoomminus.mouseover" end="zoomminus.mouseout"/>
                        </use>
                        <path d="M-4,0h8" fill="none" stroke="white" stroke-width="1.5" pointer-events="none"/>
                </g>
                <g id="dirArrow">
                        <path fill="none" stroke="white" stroke-width="1.5" d="M0,-3.0v7 M-2.5,-0.5L0,-3.0L2.5,-0.5"/>
                </g>
               <g id="resetDef">
                       <use xlink:href="#rim2" fill="#404040">
                               <set attributeName="fill" to="#808080" begin="reset.mouseover" end="reset.mouseout"/>
                       </use>
               </g>
        </defs>

<script type="text/javascript">
var viewWidth = 2617;
var viewHeight = 274;
var sectionId = 'dynsection-0';
</script>
<script xlink:href="svgpan.js"/>
<svg id="graph" class="graph">
<g id="viewport">
<title>instruction.h</title>
<polygon fill="white" stroke="none" points="-4,4 -4,-270 2612.5,-270 2612.5,4 -4,4"/>
<!-- Node1 -->
<g id="node1" class="node"><title>Node1</title>
<polygon fill="#bfbfbf" stroke="black" points="1904.5,-246.5 1904.5,-265.5 1980.5,-265.5 1980.5,-246.5 1904.5,-246.5"/>
<text text-anchor="middle" x="1942.5" y="-253.5" font-family="Helvetica,sans-Serif" font-size="10.00">instruction.h</text>
</g>
<!-- Node2 -->
<g id="node2" class="node"><title>Node2</title>
<polygon fill="white" stroke="#bfbfbf" points="1788,-73 1788,-92 1845,-92 1845,-73 1788,-73"/>
<text text-anchor="middle" x="1816.5" y="-80" font-family="Helvetica,sans-Serif" font-size="10.00">memory</text>
</g>
<!-- Node1&#45;&gt;Node2 -->
<g id="edge1" class="edge"><title>Node1&#45;&gt;Node2</title>
<path fill="none" stroke="midnightblue" d="M1935.45,-246.487C1928.09,-237.521 1916.26,-222.937 1906.5,-210 1877.54,-171.637 1845.26,-125.337 1828.33,-100.774"/>
<polygon fill="midnightblue" stroke="midnightblue" points="1830.99,-98.4698 1822.45,-92.2105 1825.23,-102.434 1830.99,-98.4698"/>
</g>
<!-- Node3 -->
<g id="node3" class="node"><title>Node3</title>
<polygon fill="white" stroke="#bfbfbf" points="827.5,-6 827.5,-25 871.5,-25 871.5,-6 827.5,-6"/>
<text text-anchor="middle" x="849.5" y="-13" font-family="Helvetica,sans-Serif" font-size="10.00">string</text>
</g>
<!-- Node1&#45;&gt;Node3 -->
<g id="edge2" class="edge"><title>Node1&#45;&gt;Node3</title>
<path fill="none" stroke="midnightblue" d="M1904.32,-255.135C1772.61,-254.739 1325.96,-246.231 972.5,-154 911.628,-138.116 877.083,-150.552 842.5,-98 830.152,-79.2358 835.735,-52.5463 841.805,-34.8881"/>
<polygon fill="midnightblue" stroke="midnightblue" points="845.202,-35.803 845.491,-25.2121 838.66,-33.3107 845.202,-35.803"/>
</g>
<!-- Node4 -->
<g id="node4" class="node"><title>Node4</title>
<polygon fill="white" stroke="#bfbfbf" points="2174,-6 2174,-25 2221,-25 2221,-6 2174,-6"/>
<text text-anchor="middle" x="2197.5" y="-13" font-family="Helvetica,sans-Serif" font-size="10.00">vector</text>
</g>
<!-- Node1&#45;&gt;Node4 -->
<g id="edge3" class="edge"><title>Node1&#45;&gt;Node4</title>
<path fill="none" stroke="midnightblue" d="M1965.89,-246.376C2013.84,-227.436 2123.39,-177.457 2178.5,-98 2191.47,-79.2951 2195.68,-52.9578 2197,-35.3371"/>
<polygon fill="midnightblue" stroke="midnightblue" points="2200.5,-35.3469 2197.51,-25.1843 2193.51,-34.9968 2200.5,-35.3469"/>
</g>
<!-- Node5 -->
<g id="node5" class="node"><title>Node5</title>
<polygon fill="white" stroke="#bfbfbf" points="2041.5,-73 2041.5,-92 2169.5,-92 2169.5,-73 2041.5,-73"/>
<text text-anchor="middle" x="2105.5" y="-80" font-family="Helvetica,sans-Serif" font-size="10.00">boost/noncopyable.hpp</text>
</g>
<!-- Node1&#45;&gt;Node5 -->
<g id="edge4" class="edge"><title>Node1&#45;&gt;Node5</title>
<path fill="none" stroke="midnightblue" d="M1950.81,-246.26C1976.75,-218.96 2056.55,-135 2090.24,-99.5546"/>
<polygon fill="midnightblue" stroke="midnightblue" points="2093.05,-101.679 2097.4,-92.0194 2087.98,-96.8566 2093.05,-101.679"/>
</g>
<!-- Node6 -->
<g id="node6" class="node"><title>Node6</title>
<g id="a_node6"><a xlink:href="element_8h.xhtml" target="_top" xlink:title="Base/mixin classes, structs, and properties common to all MEF classes/constructs. ...">
<polygon fill="white" stroke="black" points="1612,-134.5 1612,-153.5 1677,-153.5 1677,-134.5 1612,-134.5"/>
<text text-anchor="middle" x="1644.5" y="-141.5" font-family="Helvetica,sans-Serif" font-size="10.00">element.h</text>
</a>
</g>
</g>
<!-- Node1&#45;&gt;Node6 -->
<g id="edge5" class="edge"><title>Node1&#45;&gt;Node6</title>
<path fill="none" stroke="midnightblue" d="M1908.11,-246.426C1876.6,-238.225 1828.86,-224.924 1788.5,-210 1746.39,-194.429 1699.25,-172.193 1670.74,-158.183"/>
<polygon fill="midnightblue" stroke="midnightblue" points="1671.98,-154.894 1661.46,-153.596 1668.88,-161.168 1671.98,-154.894"/>
</g>
<!-- Node28 -->
<g id="node28" class="node"><title>Node28</title>
<g id="a_node28"><a xlink:href="event_8h.xhtml" target="_top" xlink:title="Contains event classes for fault trees. ">
<polygon fill="white" stroke="black" points="1916,-190.5 1916,-209.5 1969,-209.5 1969,-190.5 1916,-190.5"/>
<text text-anchor="middle" x="1942.5" y="-197.5" font-family="Helvetica,sans-Serif" font-size="10.00">event.h</text>
</a>
</g>
</g>
<!-- Node1&#45;&gt;Node28 -->
<g id="edge34" class="edge"><title>Node1&#45;&gt;Node28</title>
<path fill="none" stroke="midnightblue" d="M1942.5,-246.083C1942.5,-239.006 1942.5,-228.861 1942.5,-219.986"/>
<polygon fill="midnightblue" stroke="midnightblue" points="1946,-219.751 1942.5,-209.751 1939,-219.751 1946,-219.751"/>
</g>
<!-- Node30 -->
<g id="node30" class="node"><title>Node30</title>
<g id="a_node30"><a xlink:href="expression_8h.xhtml" target="_top" xlink:title="Provides the base class for all expressions and units for expression values. ">
<polygon fill="white" stroke="black" points="2226,-134.5 2226,-153.5 2303,-153.5 2303,-134.5 2226,-134.5"/>
<text text-anchor="middle" x="2264.5" y="-141.5" font-family="Helvetica,sans-Serif" font-size="10.00">expression.h</text>
</a>
</g>
</g>
<!-- Node1&#45;&gt;Node30 -->
<g id="edge50" class="edge"><title>Node1&#45;&gt;Node30</title>
<path fill="none" stroke="midnightblue" d="M1980.69,-251.94C2045.3,-246.219 2172.91,-232.416 2211.5,-210 2230.71,-198.841 2245.85,-177.894 2254.94,-162.79"/>
<polygon fill="midnightblue" stroke="midnightblue" points="2258.12,-164.291 2260.03,-153.871 2252.04,-160.823 2258.12,-164.291"/>
</g>
<!-- Node6&#45;&gt;Node2 -->
<g id="edge8" class="edge"><title>Node6&#45;&gt;Node2</title>
<path fill="none" stroke="midnightblue" d="M1669.14,-134.475C1698.78,-124.225 1748.68,-106.959 1782.1,-95.3994"/>
<polygon fill="midnightblue" stroke="midnightblue" points="1783.6,-98.5861 1791.9,-92.0091 1781.31,-91.9707 1783.6,-98.5861"/>
</g>
<!-- Node6&#45;&gt;Node3 -->
<g id="edge10" class="edge"><title>Node6&#45;&gt;Node3</title>
<path fill="none" stroke="midnightblue" d="M1611.65,-143.004C1474.01,-142.759 948,-139.119 887.5,-98 866.453,-83.6951 856.802,-54.5633 852.568,-35.2866"/>
<polygon fill="midnightblue" stroke="midnightblue" points="855.968,-34.4292 850.656,-25.2621 849.092,-35.7409 855.968,-34.4292"/>
</g>
<!-- Node6&#45;&gt;Node4 -->
<g id="edge13" class="edge"><title>Node6&#45;&gt;Node4</title>
<path fill="none" stroke="midnightblue" d="M1666.65,-134.447C1686.64,-126.308 1716.5,-113.089 1740.5,-98 1758.95,-86.398 1758.44,-75.5303 1778.5,-67 1847.92,-37.4769 2076.74,-22.7753 2163.63,-18.1526"/>
<polygon fill="midnightblue" stroke="midnightblue" points="2163.93,-21.6416 2173.74,-17.6264 2163.57,-14.651 2163.93,-21.6416"/>
</g>
<!-- Node6&#45;&gt;Node5 -->
<g id="edge18" class="edge"><title>Node6&#45;&gt;Node5</title>
<path fill="none" stroke="midnightblue" d="M1677.22,-138.787C1739.02,-130.828 1877.17,-113.03 1993.5,-98 2005.7,-96.424 2018.64,-94.7497 2031.24,-93.1199"/>
<polygon fill="midnightblue" stroke="midnightblue" points="2031.77,-96.5799 2041.24,-91.8252 2030.87,-89.6378 2031.77,-96.5799"/>
</g>
<!-- Node7 -->
<g id="node7" class="node"><title>Node7</title>
<polygon fill="white" stroke="#bfbfbf" points="1863,-73 1863,-92 1912,-92 1912,-73 1863,-73"/>
<text text-anchor="middle" x="1887.5" y="-80" font-family="Helvetica,sans-Serif" font-size="10.00">cstdint</text>
</g>
<!-- Node6&#45;&gt;Node7 -->
<g id="edge6" class="edge"><title>Node6&#45;&gt;Node7</title>
<path fill="none" stroke="midnightblue" d="M1677.22,-137.948C1718.8,-131.078 1792.48,-117.385 1853.5,-98 1855.43,-97.388 1857.39,-96.707 1859.36,-95.9834"/>
<polygon fill="midnightblue" stroke="midnightblue" points="1861.04,-99.0822 1869.04,-92.1309 1858.45,-92.5789 1861.04,-99.0822"/>
</g>
<!-- Node8 -->
<g id="node8" class="node"><title>Node8</title>
<polygon fill="white" stroke="#bfbfbf" points="897,-73 897,-92 960,-92 960,-73 897,-73"/>
<text text-anchor="middle" x="928.5" y="-80" font-family="Helvetica,sans-Serif" font-size="10.00">functional</text>
</g>
<!-- Node6&#45;&gt;Node8 -->
<g id="edge7" class="edge"><title>Node6&#45;&gt;Node8</title>
<path fill="none" stroke="midnightblue" d="M1611.72,-142.038C1494.11,-138.394 1093.68,-124.304 968.5,-98 965.071,-97.2794 961.539,-96.328 958.06,-95.2561"/>
<polygon fill="midnightblue" stroke="midnightblue" points="959.121,-91.92 948.527,-92.0074 956.864,-98.5459 959.121,-91.92"/>
</g>
<!-- Node9 -->
<g id="node9" class="node"><title>Node9</title>
<polygon fill="white" stroke="#bfbfbf" points="1930,-73 1930,-92 1985,-92 1985,-73 1930,-73"/>
<text text-anchor="middle" x="1957.5" y="-80" font-family="Helvetica,sans-Serif" font-size="10.00">optional</text>
</g>
<!-- Node6&#45;&gt;Node9 -->
<g id="edge9" class="edge"><title>Node6&#45;&gt;Node9</title>
<path fill="none" stroke="midnightblue" d="M1677.27,-139.928C1729.46,-134.532 1834.35,-121.617 1920.5,-98 1923.09,-97.2892 1925.75,-96.4588 1928.4,-95.5617"/>
<polygon fill="midnightblue" stroke="midnightblue" points="1929.61,-98.8466 1937.79,-92.1151 1927.2,-92.2753 1929.61,-98.8466"/>
</g>
<!-- Node10 -->
<g id="node10" class="node"><title>Node10</title>
<polygon fill="white" stroke="#bfbfbf" points="978,-73 978,-92 1047,-92 1047,-73 978,-73"/>
<text text-anchor="middle" x="1012.5" y="-80" font-family="Helvetica,sans-Serif" font-size="10.00">string_view</text>
</g>
<!-- Node6&#45;&gt;Node10 -->
<g id="edge11" class="edge"><title>Node6&#45;&gt;Node10</title>
<path fill="none" stroke="midnightblue" d="M1611.94,-143.252C1522.36,-143.357 1265.07,-139.706 1056.5,-98 1052.62,-97.2238 1048.6,-96.2101 1044.65,-95.0788"/>
<polygon fill="midnightblue" stroke="midnightblue" points="1045.64,-91.7232 1035.06,-92.0933 1043.56,-98.4069 1045.64,-91.7232"/>
</g>
<!-- Node11 -->
<g id="node11" class="node"><title>Node11</title>
<polygon fill="white" stroke="#bfbfbf" points="1065.5,-73 1065.5,-92 1133.5,-92 1133.5,-73 1065.5,-73"/>
<text text-anchor="middle" x="1099.5" y="-80" font-family="Helvetica,sans-Serif" font-size="10.00">type_traits</text>
</g>
<!-- Node6&#45;&gt;Node11 -->
<g id="edge12" class="edge"><title>Node6&#45;&gt;Node11</title>
<path fill="none" stroke="midnightblue" d="M1611.81,-142.723C1531.19,-141.469 1316.75,-134.653 1142.5,-98 1138.81,-97.2247 1135,-96.2331 1131.25,-95.1332"/>
<polygon fill="midnightblue" stroke="midnightblue" points="1132.13,-91.7416 1121.54,-92.0427 1130.01,-98.4117 1132.13,-91.7416"/>
</g>
<!-- Node12 -->
<g id="node12" class="node"><title>Node12</title>
<polygon fill="white" stroke="#bfbfbf" points="1151.5,-67.5 1151.5,-97.5 1271.5,-97.5 1271.5,-67.5 1151.5,-67.5"/>
<text text-anchor="start" x="1159.5" y="-85.5" font-family="Helvetica,sans-Serif" font-size="10.00">boost/iterator/iterator</text>
<text text-anchor="middle" x="1211.5" y="-74.5" font-family="Helvetica,sans-Serif" font-size="10.00">_facade.hpp</text>
</g>
<!-- Node6&#45;&gt;Node12 -->
<g id="edge14" class="edge"><title>Node6&#45;&gt;Node12</title>
<path fill="none" stroke="midnightblue" d="M1611.74,-139.883C1549.43,-133.755 1409.39,-119.02 1281.61,-98.0997"/>
<polygon fill="midnightblue" stroke="midnightblue" points="1282.09,-94.6312 1271.65,-96.4522 1280.95,-101.537 1282.09,-94.6312"/>
</g>
<!-- Node13 -->
<g id="node13" class="node"><title>Node13</title>
<polygon fill="white" stroke="#bfbfbf" points="1289.5,-67.5 1289.5,-97.5 1429.5,-97.5 1429.5,-67.5 1289.5,-67.5"/>
<text text-anchor="start" x="1297.5" y="-85.5" font-family="Helvetica,sans-Serif" font-size="10.00">boost/multi_index/hashed</text>
<text text-anchor="middle" x="1359.5" y="-74.5" font-family="Helvetica,sans-Serif" font-size="10.00">_index.hpp</text>
</g>
<!-- Node6&#45;&gt;Node13 -->
<g id="edge15" class="edge"><title>Node6&#45;&gt;Node13</title>
<path fill="none" stroke="midnightblue" d="M1611.81,-136.175C1569.39,-127.32 1494.05,-111.59 1436.71,-99.6182"/>
<polygon fill="midnightblue" stroke="midnightblue" points="1437.09,-96.1223 1426.58,-97.5047 1435.66,-102.975 1437.09,-96.1223"/>
</g>
<!-- Node14 -->
<g id="node14" class="node"><title>Node14</title>
<polygon fill="white" stroke="#bfbfbf" points="1447.5,-67.5 1447.5,-97.5 1577.5,-97.5 1577.5,-67.5 1447.5,-67.5"/>
<text text-anchor="start" x="1455.5" y="-85.5" font-family="Helvetica,sans-Serif" font-size="10.00">boost/multi_index/mem</text>
<text text-anchor="middle" x="1512.5" y="-74.5" font-family="Helvetica,sans-Serif" font-size="10.00">_fun.hpp</text>
</g>
<!-- Node6&#45;&gt;Node14 -->
<g id="edge16" class="edge"><title>Node6&#45;&gt;Node14</title>
<path fill="none" stroke="midnightblue" d="M1625.59,-134.475C1606.71,-125.965 1577.1,-112.619 1552.92,-101.718"/>
<polygon fill="midnightblue" stroke="midnightblue" points="1554.16,-98.4416 1543.61,-97.523 1551.29,-104.823 1554.16,-98.4416"/>
</g>
<!-- Node15 -->
<g id="node15" class="node"><title>Node15</title>
<polygon fill="white" stroke="#bfbfbf" points="1558.5,-6 1558.5,-25 1730.5,-25 1730.5,-6 1558.5,-6"/>
<text text-anchor="middle" x="1644.5" y="-13" font-family="Helvetica,sans-Serif" font-size="10.00">boost/multi_index_container.hpp</text>
</g>
<!-- Node6&#45;&gt;Node15 -->
<g id="edge17" class="edge"><title>Node6&#45;&gt;Node15</title>
<path fill="none" stroke="midnightblue" d="M1639.37,-134.407C1634.44,-125.614 1627.34,-111.381 1624.5,-98 1621.64,-84.5224 1621.92,-80.5336 1624.5,-67 1626.65,-55.7081 1631.29,-43.719 1635.56,-34.2573"/>
<polygon fill="midnightblue" stroke="midnightblue" points="1638.76,-35.6676 1639.91,-25.1349 1632.45,-32.6545 1638.76,-35.6676"/>
</g>
<!-- Node16 -->
<g id="node16" class="node"><title>Node16</title>
<g id="a_node16"><a xlink:href="error_8h.xhtml" target="_top" xlink:title="Exceptions for SCRAM. ">
<polygon fill="white" stroke="black" points="464.5,-73 464.5,-92 512.5,-92 512.5,-73 464.5,-73"/>
<text text-anchor="middle" x="488.5" y="-80" font-family="Helvetica,sans-Serif" font-size="10.00">error.h</text>
</a>
</g>
</g>
<!-- Node6&#45;&gt;Node16 -->
<g id="edge19" class="edge"><title>Node6&#45;&gt;Node16</title>
<path fill="none" stroke="midnightblue" d="M1611.77,-141.315C1445.22,-132.743 693.176,-94.0348 522.864,-85.2687"/>
<polygon fill="midnightblue" stroke="midnightblue" points="522.887,-81.7654 512.721,-84.7466 522.527,-88.7561 522.887,-81.7654"/>
</g>
<!-- Node23 -->
<g id="node23" class="node"><title>Node23</title>
<g id="a_node23"><a xlink:href="linear__set_8h.xhtml" target="_top" xlink:title="Implementation of a vector&#45;based set for a small number of entries. ">
<polygon fill="white" stroke="black" points="2263.5,-73 2263.5,-92 2353.5,-92 2353.5,-73 2263.5,-73"/>
<text text-anchor="middle" x="2308.5" y="-80" font-family="Helvetica,sans-Serif" font-size="10.00">ext/linear_set.h</text>
</a>
</g>
</g>
<!-- Node6&#45;&gt;Node23 -->
<g id="edge27" class="edge"><title>Node6&#45;&gt;Node23</title>
<path fill="none" stroke="midnightblue" d="M1677.04,-140.566C1760.44,-134.259 1988.68,-116.581 2178.5,-98 2203.11,-95.591 2230.3,-92.6081 2253.43,-89.9752"/>
<polygon fill="midnightblue" stroke="midnightblue" points="2253.87,-93.4476 2263.41,-88.8324 2253.08,-86.4931 2253.87,-93.4476"/>
</g>
<!-- Node27 -->
<g id="node27" class="node"><title>Node27</title>
<g id="a_node27"><a xlink:href="multi__index_8h.xhtml" target="_top" xlink:title="Helper functions to boost multi_index_container. ">
<polygon fill="white" stroke="black" points="1633.5,-73 1633.5,-92 1731.5,-92 1731.5,-73 1633.5,-73"/>
<text text-anchor="middle" x="1682.5" y="-80" font-family="Helvetica,sans-Serif" font-size="10.00">ext/multi_index.h</text>
</a>
</g>
</g>
<!-- Node6&#45;&gt;Node27 -->
<g id="edge32" class="edge"><title>Node6&#45;&gt;Node27</title>
<path fill="none" stroke="midnightblue" d="M1649.94,-134.475C1655.59,-125.638 1664.56,-111.589 1671.66,-100.475"/>
<polygon fill="midnightblue" stroke="midnightblue" points="1674.63,-102.321 1677.07,-92.0091 1668.73,-98.5531 1674.63,-102.321"/>
</g>
<!-- Node16&#45;&gt;Node3 -->
<g id="edge21" class="edge"><title>Node16&#45;&gt;Node3</title>
<path fill="none" stroke="midnightblue" d="M512.627,-80.1674C567.861,-76.6111 707.302,-64.7505 818.5,-31 820.376,-30.4305 822.284,-29.7669 824.184,-29.043"/>
<polygon fill="midnightblue" stroke="midnightblue" points="825.624,-32.2337 833.435,-25.0758 822.865,-25.8002 825.624,-32.2337"/>
</g>
<!-- Node17 -->
<g id="node17" class="node"><title>Node17</title>
<polygon fill="white" stroke="#bfbfbf" points="248,-6 248,-25 311,-25 311,-6 248,-6"/>
<text text-anchor="middle" x="279.5" y="-13" font-family="Helvetica,sans-Serif" font-size="10.00">exception</text>
</g>
<!-- Node16&#45;&gt;Node17 -->
<g id="edge20" class="edge"><title>Node16&#45;&gt;Node17</title>
<path fill="none" stroke="midnightblue" d="M464.462,-74.6671C431.749,-65.2792 371.449,-47.6561 320.5,-31 318.051,-30.1994 315.527,-29.3546 312.99,-28.4916"/>
<polygon fill="midnightblue" stroke="midnightblue" points="313.877,-25.0948 303.282,-25.1279 311.585,-31.709 313.877,-25.0948"/>
</g>
<!-- Node18 -->
<g id="node18" class="node"><title>Node18</title>
<polygon fill="white" stroke="#bfbfbf" points="329.5,-6 329.5,-25 475.5,-25 475.5,-6 329.5,-6"/>
<text text-anchor="middle" x="402.5" y="-13" font-family="Helvetica,sans-Serif" font-size="10.00">boost/current_function.hpp</text>
</g>
<!-- Node16&#45;&gt;Node18 -->
<g id="edge22" class="edge"><title>Node16&#45;&gt;Node18</title>
<path fill="none" stroke="midnightblue" d="M476.902,-72.7338C462.846,-62.1106 438.949,-44.0485 422.034,-31.2642"/>
<polygon fill="midnightblue" stroke="midnightblue" points="424.003,-28.3648 413.915,-25.1273 419.782,-33.9492 424.003,-28.3648"/>
</g>
<!-- Node19 -->
<g id="node19" class="node"><title>Node19</title>
<polygon fill="white" stroke="#bfbfbf" points="493.5,-6 493.5,-25 657.5,-25 657.5,-6 493.5,-6"/>
<text text-anchor="middle" x="575.5" y="-13" font-family="Helvetica,sans-Serif" font-size="10.00">boost/exception/exception.hpp</text>
</g>
<!-- Node16&#45;&gt;Node19 -->
<g id="edge23" class="edge"><title>Node16&#45;&gt;Node19</title>
<path fill="none" stroke="midnightblue" d="M500.233,-72.7338C514.452,-62.1106 538.627,-44.0485 555.739,-31.2642"/>
<polygon fill="midnightblue" stroke="midnightblue" points="558.036,-33.9165 563.953,-25.1273 553.847,-28.3087 558.036,-33.9165"/>
</g>
<!-- Node20 -->
<g id="node20" class="node"><title>Node20</title>
<polygon fill="white" stroke="#bfbfbf" points="675.5,-6 675.5,-25 809.5,-25 809.5,-6 675.5,-6"/>
<text text-anchor="middle" x="742.5" y="-13" font-family="Helvetica,sans-Serif" font-size="10.00">boost/exception/info.hpp</text>
</g>
<!-- Node16&#45;&gt;Node20 -->
<g id="edge24" class="edge"><title>Node16&#45;&gt;Node20</title>
<path fill="none" stroke="midnightblue" d="M512.855,-75.2675C555.782,-64.2822 645.442,-41.3378 699.151,-27.5933"/>
<polygon fill="midnightblue" stroke="midnightblue" points="700.245,-30.9261 709.065,-25.0561 698.51,-24.1446 700.245,-30.9261"/>
</g>
<!-- Node21 -->
<g id="node21" class="node"><title>Node21</title>
<polygon fill="white" stroke="#bfbfbf" points="0,-0.5 0,-30.5 113,-30.5 113,-0.5 0,-0.5"/>
<text text-anchor="start" x="8" y="-18.5" font-family="Helvetica,sans-Serif" font-size="10.00">boost/exception/info</text>
<text text-anchor="middle" x="56.5" y="-7.5" font-family="Helvetica,sans-Serif" font-size="10.00">_tuple.hpp</text>
</g>
<!-- Node16&#45;&gt;Node21 -->
<g id="edge25" class="edge"><title>Node16&#45;&gt;Node21</title>
<path fill="none" stroke="midnightblue" d="M464.416,-78.8456C407.15,-72.3926 258.197,-54.7759 123.415,-31.0742"/>
<polygon fill="midnightblue" stroke="midnightblue" points="123.782,-27.5847 113.325,-29.2834 122.559,-34.477 123.782,-27.5847"/>
</g>
<!-- Node22 -->
<g id="node22" class="node"><title>Node22</title>
<g id="a_node22"><a xlink:href="source__info_8h.xhtml" target="_top" xlink:title="Helper facilities to get source file information. ">
<polygon fill="white" stroke="black" points="131.5,-6 131.5,-25 229.5,-25 229.5,-6 131.5,-6"/>
<text text-anchor="middle" x="180.5" y="-13" font-family="Helvetica,sans-Serif" font-size="10.00">ext/source_info.h</text>
</a>
</g>
</g>
<!-- Node16&#45;&gt;Node22 -->
<g id="edge26" class="edge"><title>Node16&#45;&gt;Node22</title>
<path fill="none" stroke="midnightblue" d="M464.288,-76.9902C419.556,-68.5736 320.995,-49.6338 238.5,-31 233.564,-29.8852 228.405,-28.6691 223.287,-27.4308"/>
<polygon fill="midnightblue" stroke="midnightblue" points="224.109,-24.0289 213.563,-25.0428 222.44,-30.8269 224.109,-24.0289"/>
</g>
<!-- Node23&#45;&gt;Node4 -->
<g id="edge31" class="edge"><title>Node23&#45;&gt;Node4</title>
<path fill="none" stroke="midnightblue" d="M2293.53,-72.7338C2274.89,-61.8182 2242.84,-43.0487 2220.93,-30.2209"/>
<polygon fill="midnightblue" stroke="midnightblue" points="2222.63,-27.1603 2212.23,-25.1273 2219.09,-33.2008 2222.63,-27.1603"/>
</g>
<!-- Node24 -->
<g id="node24" class="node"><title>Node24</title>
<polygon fill="white" stroke="#bfbfbf" points="2377.5,-6 2377.5,-25 2439.5,-25 2439.5,-6 2377.5,-6"/>
<text text-anchor="middle" x="2408.5" y="-13" font-family="Helvetica,sans-Serif" font-size="10.00">algorithm</text>
</g>
<!-- Node23&#45;&gt;Node24 -->
<g id="edge28" class="edge"><title>Node23&#45;&gt;Node24</title>
<path fill="none" stroke="midnightblue" d="M2321.99,-72.7338C2338.55,-61.9644 2366.88,-43.55 2386.59,-30.7395"/>
<polygon fill="midnightblue" stroke="midnightblue" points="2388.75,-33.5118 2395.23,-25.1273 2384.94,-27.6427 2388.75,-33.5118"/>
</g>
<!-- Node25 -->
<g id="node25" class="node"><title>Node25</title>
<polygon fill="white" stroke="#bfbfbf" points="2276,-6 2276,-25 2353,-25 2353,-6 2276,-6"/>
<text text-anchor="middle" x="2314.5" y="-13" font-family="Helvetica,sans-Serif" font-size="10.00">initializer_list</text>
</g>
<!-- Node23&#45;&gt;Node25 -->
<g id="edge29" class="edge"><title>Node23&#45;&gt;Node25</title>
<path fill="none" stroke="midnightblue" d="M2309.31,-72.7338C2310.19,-63.1826 2311.63,-47.6183 2312.77,-35.2829"/>
<polygon fill="midnightblue" stroke="midnightblue" points="2316.27,-35.4067 2313.7,-25.1273 2309.3,-34.7632 2316.27,-35.4067"/>
</g>
<!-- Node26 -->
<g id="node26" class="node"><title>Node26</title>
<polygon fill="white" stroke="#bfbfbf" points="2566.5,-6 2566.5,-25 2608.5,-25 2608.5,-6 2566.5,-6"/>
<text text-anchor="middle" x="2587.5" y="-13" font-family="Helvetica,sans-Serif" font-size="10.00">utility</text>
</g>
<!-- Node23&#45;&gt;Node26 -->
<g id="edge30" class="edge"><title>Node23&#45;&gt;Node26</title>
<path fill="none" stroke="midnightblue" d="M2345.26,-72.9355C2400.63,-60.035 2504.47,-35.844 2556.34,-23.7584"/>
<polygon fill="midnightblue" stroke="midnightblue" points="2557.35,-27.1184 2566.29,-21.4406 2555.76,-20.3009 2557.35,-27.1184"/>
</g>
<!-- Node27&#45;&gt;Node15 -->
<g id="edge33" class="edge"><title>Node27&#45;&gt;Node15</title>
<path fill="none" stroke="midnightblue" d="M1677.38,-72.7338C1671.56,-62.7928 1661.94,-46.3377 1654.61,-33.7892"/>
<polygon fill="midnightblue" stroke="midnightblue" points="1657.61,-31.9938 1649.54,-25.1273 1651.57,-35.5267 1657.61,-31.9938"/>
</g>
<!-- Node28&#45;&gt;Node2 -->
<g id="edge37" class="edge"><title>Node28&#45;&gt;Node2</title>
<path fill="none" stroke="midnightblue" d="M1933.03,-190.319C1911.87,-170.921 1860.5,-123.831 1833.59,-99.1625"/>
<polygon fill="midnightblue" stroke="midnightblue" points="1835.82,-96.4592 1826.08,-92.282 1831.09,-101.619 1835.82,-96.4592"/>
</g>
<!-- Node28&#45;&gt;Node3 -->
<g id="edge39" class="edge"><title>Node28&#45;&gt;Node3</title>
<path fill="none" stroke="midnightblue" d="M1915.81,-198.457C1756.84,-194.972 939.108,-173.443 860.5,-98 843.873,-82.0421 843.84,-53.8067 846.086,-35.1206"/>
<polygon fill="midnightblue" stroke="midnightblue" points="849.559,-35.5642 847.607,-25.1507 842.639,-34.5085 849.559,-35.5642"/>
</g>
<!-- Node28&#45;&gt;Node4 -->
<g id="edge42" class="edge"><title>Node28&#45;&gt;Node4</title>
<path fill="none" stroke="midnightblue" d="M1959.24,-190.457C1972.95,-182.673 1991.89,-169.968 2003.5,-154 2027.46,-121.03 2003.33,-95.4617 2032.5,-67 2068.02,-32.3473 2126.66,-21.3957 2163.62,-17.9817"/>
<polygon fill="midnightblue" stroke="midnightblue" points="2164.2,-21.4475 2173.89,-17.1755 2163.65,-14.4689 2164.2,-21.4475"/>
</g>
<!-- Node28&#45;&gt;Node6 -->
<g id="edge43" class="edge"><title>Node28&#45;&gt;Node6</title>
<path fill="none" stroke="midnightblue" d="M1915.79,-194.16C1863.96,-184.768 1749.37,-164.003 1686.98,-152.698"/>
<polygon fill="midnightblue" stroke="midnightblue" points="1687.53,-149.241 1677.07,-150.901 1686.28,-156.128 1687.53,-149.241"/>
</g>
<!-- Node28&#45;&gt;Node7 -->
<g id="edge35" class="edge"><title>Node28&#45;&gt;Node7</title>
<path fill="none" stroke="midnightblue" d="M1938.37,-190.319C1929.41,-171.506 1908.05,-126.648 1896.05,-101.455"/>
<polygon fill="midnightblue" stroke="midnightblue" points="1899.14,-99.8058 1891.68,-92.282 1892.82,-102.815 1899.14,-99.8058"/>
</g>
<!-- Node28&#45;&gt;Node9 -->
<g id="edge38" class="edge"><title>Node28&#45;&gt;Node9</title>
<path fill="none" stroke="midnightblue" d="M1939.8,-190.083C1936.37,-177.477 1931.38,-153.778 1935.5,-134 1937.88,-122.587 1942.98,-110.592 1947.67,-101.158"/>
<polygon fill="midnightblue" stroke="midnightblue" points="1950.89,-102.553 1952.46,-92.0737 1944.7,-99.2916 1950.89,-102.553"/>
</g>
<!-- Node28&#45;&gt;Node25 -->
<g id="edge36" class="edge"><title>Node28&#45;&gt;Node25</title>
<path fill="none" stroke="midnightblue" d="M1969.3,-192.671C2061.63,-170.851 2360.93,-99.9926 2362.5,-98 2379.47,-76.4621 2353.88,-48.3438 2334.03,-31.3948"/>
<polygon fill="midnightblue" stroke="midnightblue" points="2336.24,-28.6809 2326.28,-25.0717 2331.81,-34.105 2336.24,-28.6809"/>
</g>
<!-- Node28&#45;&gt;Node26 -->
<g id="edge40" class="edge"><title>Node28&#45;&gt;Node26</title>
<path fill="none" stroke="midnightblue" d="M1969.18,-199.306C2081.16,-199.963 2511.16,-195.995 2591.5,-98 2605.91,-80.4165 2600.68,-52.8459 2594.77,-34.7225"/>
<polygon fill="midnightblue" stroke="midnightblue" points="2598.05,-33.5019 2591.36,-25.2904 2591.47,-35.8847 2598.05,-33.5019"/>
</g>
<!-- Node29 -->
<g id="node29" class="node"><title>Node29</title>
<polygon fill="white" stroke="#bfbfbf" points="1944.5,-134.5 1944.5,-153.5 1994.5,-153.5 1994.5,-134.5 1944.5,-134.5"/>
<text text-anchor="middle" x="1969.5" y="-141.5" font-family="Helvetica,sans-Serif" font-size="10.00">variant</text>
</g>
<!-- Node28&#45;&gt;Node29 -->
<g id="edge41" class="edge"><title>Node28&#45;&gt;Node29</title>
<path fill="none" stroke="midnightblue" d="M1946.96,-190.083C1950.65,-182.691 1956.02,-171.953 1960.59,-162.811"/>
<polygon fill="midnightblue" stroke="midnightblue" points="1963.78,-164.261 1965.12,-153.751 1957.52,-161.13 1963.78,-164.261"/>
</g>
<!-- Node28&#45;&gt;Node30 -->
<g id="edge44" class="edge"><title>Node28&#45;&gt;Node30</title>
<path fill="none" stroke="midnightblue" d="M1969.12,-194.535C2023.23,-185.462 2146.72,-164.752 2215.66,-153.19"/>
<polygon fill="midnightblue" stroke="midnightblue" points="2216.55,-156.59 2225.83,-151.484 2215.39,-149.686 2216.55,-156.59"/>
</g>
<!-- Node30&#45;&gt;Node4 -->
<g id="edge47" class="edge"><title>Node30&#45;&gt;Node4</title>
<path fill="none" stroke="midnightblue" d="M2259.89,-134.305C2248.99,-113.723 2221.43,-61.6893 2206.86,-34.1782"/>
<polygon fill="midnightblue" stroke="midnightblue" points="2209.91,-32.4546 2202.14,-25.2557 2203.72,-35.7309 2209.91,-32.4546"/>
</g>
<!-- Node30&#45;&gt;Node5 -->
<g id="edge49" class="edge"><title>Node30&#45;&gt;Node5</title>
<path fill="none" stroke="midnightblue" d="M2241.72,-134.475C2214.45,-124.269 2168.59,-107.108 2137.7,-95.5492"/>
<polygon fill="midnightblue" stroke="midnightblue" points="2138.83,-92.2359 2128.24,-92.0091 2136.38,-98.7919 2138.83,-92.2359"/>
</g>
<!-- Node30&#45;&gt;Node24 -->
<g id="edge45" class="edge"><title>Node30&#45;&gt;Node24</title>
<path fill="none" stroke="midnightblue" d="M2303.15,-140.189C2332.94,-135.88 2372.75,-125.059 2395.5,-98 2410.09,-80.6438 2411.61,-53.6022 2410.64,-35.4818"/>
<polygon fill="midnightblue" stroke="midnightblue" points="2414.11,-34.9585 2409.79,-25.286 2407.14,-35.5436 2414.11,-34.9585"/>
</g>
<!-- Node30&#45;&gt;Node26 -->
<g id="edge46" class="edge"><title>Node30&#45;&gt;Node26</title>
<path fill="none" stroke="midnightblue" d="M2303.22,-142.516C2376.28,-140.786 2530.53,-132.972 2568.5,-98 2585.67,-82.1863 2588.77,-54.1231 2588.7,-35.4132"/>
<polygon fill="midnightblue" stroke="midnightblue" points="2592.19,-35.0377 2588.34,-25.1654 2585.19,-35.281 2592.19,-35.0377"/>
</g>
<!-- Node31 -->
<g id="node31" class="node"><title>Node31</title>
<polygon fill="white" stroke="#bfbfbf" points="2447.5,-67.5 2447.5,-97.5 2559.5,-97.5 2559.5,-67.5 2447.5,-67.5"/>
<text text-anchor="start" x="2455.5" y="-85.5" font-family="Helvetica,sans-Serif" font-size="10.00">boost/icl/continuous</text>
<text text-anchor="middle" x="2503.5" y="-74.5" font-family="Helvetica,sans-Serif" font-size="10.00">_interval.hpp</text>
</g>
<!-- Node30&#45;&gt;Node31 -->
<g id="edge48" class="edge"><title>Node30&#45;&gt;Node31</title>
<path fill="none" stroke="midnightblue" d="M2298.74,-134.475C2334.74,-125.513 2392.28,-111.188 2437.21,-100.003"/>
<polygon fill="midnightblue" stroke="midnightblue" points="2438.31,-103.335 2447.17,-97.523 2436.62,-96.5425 2438.31,-103.335"/>
</g>
</g>
</svg>
        <g id="navigator" transform="translate(0 0)" fill="#404254">
                <rect fill="#f2f5e9" fill-opacity="0.5" stroke="#606060" stroke-width=".5" x="0" y="0" width="60" height="60"/>
                <use id="zoomplus" xlink:href="#zoomPlus" x="17" y="9" onmousedown="handleZoom(evt,'in')"/>
                <use id="zoomminus" xlink:href="#zoomMin" x="42" y="9" onmousedown="handleZoom(evt,'out')"/>
                <use id="reset" xlink:href="#resetDef" x="30" y="36" onmousedown="handleReset()"/>
                <g id="arrowUp" xlink:href="#dirArrow" transform="translate(30 24)" onmousedown="handlePan(0,-1)">
                  <use xlink:href="#rim" fill="#404040">
                        <set attributeName="fill" to="#808080" begin="arrowUp.mouseover" end="arrowUp.mouseout"/>
                  </use>
                  <path fill="none" stroke="white" stroke-width="1.5" d="M0,-3.0v7 M-2.5,-0.5L0,-3.0L2.5,-0.5"/>
                </g>
                <g id="arrowRight" xlink:href="#dirArrow" transform="rotate(90) translate(36 -43)" onmousedown="handlePan(1,0)">
                  <use xlink:href="#rim" fill="#404040">
                        <set attributeName="fill" to="#808080" begin="arrowRight.mouseover" end="arrowRight.mouseout"/>
                  </use>
                  <path fill="none" stroke="white" stroke-width="1.5" d="M0,-3.0v7 M-2.5,-0.5L0,-3.0L2.5,-0.5"/>
                </g>
                <g id="arrowDown" xlink:href="#dirArrow" transform="rotate(180) translate(-30 -48)" onmousedown="handlePan(0,1)">
                  <use xlink:href="#rim" fill="#404040">
                        <set attributeName="fill" to="#808080" begin="arrowDown.mouseover" end="arrowDown.mouseout"/>
                  </use>
                  <path fill="none" stroke="white" stroke-width="1.5" d="M0,-3.0v7 M-2.5,-0.5L0,-3.0L2.5,-0.5"/>
                </g>
                <g id="arrowLeft" xlink:href="#dirArrow" transform="rotate(270) translate(-36 17)" onmousedown="handlePan(-1,0)">
                  <use xlink:href="#rim" fill="#404040">
                        <set attributeName="fill" to="#808080" begin="arrowLeft.mouseover" end="arrowLeft.mouseout"/>
                  </use>
                  <path fill="none" stroke="white" stroke-width="1.5" d="M0,-3.0v7 M-2.5,-0.5L0,-3.0L2.5,-0.5"/>
                </g>
        </g>
        <svg viewBox="0 0 15 15" width="100%" height="30px" preserveAspectRatio="xMaxYMin meet">
         <g id="arrow_out" transform="scale(0.3 0.3)">
          <a xlink:href="instruction_8h__incl_org.svg" target="_base">
           <rect id="button" ry="5" rx="5" y="6" x="6" height="38" width="38"
                fill="#f2f5e9" fill-opacity="0.5" stroke="#606060" stroke-width="1.0"/>
           <path id="arrow"
             d="M 11.500037,31.436501 C 11.940474,20.09759 22.043105,11.32322 32.158766,21.979434 L 37.068811,17.246167 C 37.068811,17.246167 37.088388,32 37.088388,32 L 22.160133,31.978069 C 22.160133,31.978069 26.997745,27.140456 26.997745,27.140456 C 18.528582,18.264221 13.291696,25.230495 11.500037,31.436501 z"
             style="fill:#404040;"/>
          </a>
         </g>
        </svg>
</svg>
