<?xml version="1.0" encoding="UTF-8" standalone="no"?>
<!DOCTYPE svg PUBLIC "-//W3C//DTD SVG 1.1//EN"
 "http://www.w3.org/Graphics/SVG/1.1/DTD/svg11.dtd">
<!-- Generated by graphviz version 2.38.0 (20140413.2041)
 -->
<!-- Title: linear_set.h Pages: 1 -->
<svg width="292pt" height="84pt"
 viewBox="0.00 0.00 291.50 84.00" xmlns="http://www.w3.org/2000/svg" xmlns:xlink="http://www.w3.org/1999/xlink">
<g id="graph0" class="graph" transform="scale(1 1) rotate(0) translate(4 80)">
<title>linear_set.h</title>
<polygon fill="white" stroke="none" points="-4,4 -4,-80 287.5,-80 287.5,4 -4,4"/>
<!-- Node1 -->
<g id="node1" class="node"><title>Node1</title>
<polygon fill="#bfbfbf" stroke="black" points="122,-56.5 122,-75.5 194,-75.5 194,-56.5 122,-56.5"/>
<text text-anchor="middle" x="158" y="-63.5" font-family="Helvetica,sans-Serif" font-size="10.00">linear_set.h</text>
</g>
<!-- Node2 -->
<g id="node2" class="node"><title>Node2</title>
<polygon fill="white" stroke="#bfbfbf" points="0,-0.5 0,-19.5 62,-19.5 62,-0.5 0,-0.5"/>
<text text-anchor="middle" x="31" y="-7.5" font-family="Helvetica,sans-Serif" font-size="10.00">algorithm</text>
</g>
<!-- Node1&#45;&gt;Node2 -->
<g id="edge1" class="edge"><title>Node1&#45;&gt;Node2</title>
<path fill="none" stroke="midnightblue" d="M137.876,-56.4435C116.976,-47.5566 84.0653,-33.5632 60.2839,-23.4514"/>
<polygon fill="midnightblue" stroke="midnightblue" points="61.6016,-20.2085 51.0294,-19.5164 58.8625,-26.6504 61.6016,-20.2085"/>
</g>
<!-- Node3 -->
<g id="node3" class="node"><title>Node3</title>
<polygon fill="white" stroke="#bfbfbf" points="80.5,-0.5 80.5,-19.5 157.5,-19.5 157.5,-0.5 80.5,-0.5"/>
<text text-anchor="middle" x="119" y="-7.5" font-family="Helvetica,sans-Serif" font-size="10.00">initializer_list</text>
</g>
<!-- Node1&#45;&gt;Node3 -->
<g id="edge2" class="edge"><title>Node1&#45;&gt;Node3</title>
<path fill="none" stroke="midnightblue" d="M151.56,-56.083C146.051,-48.4554 137.969,-37.2645 131.235,-27.9408"/>
<polygon fill="midnightblue" stroke="midnightblue" points="134.013,-25.8087 125.32,-19.7511 128.338,-29.9071 134.013,-25.8087"/>
</g>
<!-- Node4 -->
<g id="node4" class="node"><title>Node4</title>
<polygon fill="white" stroke="#bfbfbf" points="176,-0.5 176,-19.5 218,-19.5 218,-0.5 176,-0.5"/>
<text text-anchor="middle" x="197" y="-7.5" font-family="Helvetica,sans-Serif" font-size="10.00">utility</text>
</g>
<!-- Node1&#45;&gt;Node4 -->
<g id="edge3" class="edge"><title>Node1&#45;&gt;Node4</title>
<path fill="none" stroke="midnightblue" d="M164.44,-56.083C169.949,-48.4554 178.031,-37.2645 184.765,-27.9408"/>
<polygon fill="midnightblue" stroke="midnightblue" points="187.662,-29.9071 190.68,-19.7511 181.987,-25.8087 187.662,-29.9071"/>
</g>
<!-- Node5 -->
<g id="node5" class="node"><title>Node5</title>
<polygon fill="white" stroke="#bfbfbf" points="236.5,-0.5 236.5,-19.5 283.5,-19.5 283.5,-0.5 236.5,-0.5"/>
<text text-anchor="middle" x="260" y="-7.5" font-family="Helvetica,sans-Serif" font-size="10.00">vector</text>
</g>
<!-- Node1&#45;&gt;Node5 -->
<g id="edge4" class="edge"><title>Node1&#45;&gt;Node5</title>
<path fill="none" stroke="midnightblue" d="M174.388,-56.324C190.671,-47.7034 215.867,-34.3643 234.716,-24.3855"/>
<polygon fill="midnightblue" stroke="midnightblue" points="236.452,-27.4267 243.653,-19.6545 233.177,-21.2402 236.452,-27.4267"/>
</g>
</g>
</svg>
