<?xml version="1.0" encoding="UTF-8" standalone="no"?>
<!DOCTYPE svg PUBLIC "-//W3C//DTD SVG 1.1//EN"
 "http://www.w3.org/Graphics/SVG/1.1/DTD/svg11.dtd">
<!-- Generated by graphviz version 2.38.0 (20140413.2041)
 -->
<!-- Title: logger.h Pages: 1 -->
<svg width="1401pt" height="84pt"
 viewBox="0.00 0.00 1400.50 84.00" xmlns="http://www.w3.org/2000/svg" xmlns:xlink="http://www.w3.org/1999/xlink">
<g id="graph0" class="graph" transform="scale(1 1) rotate(0) translate(4 80)">
<title>logger.h</title>
<polygon fill="white" stroke="none" points="-4,4 -4,-80 1396.5,-80 1396.5,4 -4,4"/>
<!-- Node1 -->
<g id="node1" class="node"><title>Node1</title>
<polygon fill="#bfbfbf" stroke="black" points="641.5,-56.5 641.5,-75.5 696.5,-75.5 696.5,-56.5 641.5,-56.5"/>
<text text-anchor="middle" x="669" y="-63.5" font-family="Helvetica,sans-Serif" font-size="10.00">logger.h</text>
</g>
<!-- Node2 -->
<g id="node2" class="node"><title>Node2</title>
<g id="a_node2"><a xlink:href="bdd_8cc.xhtml" target="_top" xlink:title="Implementation of BDD fault tree analysis algorithms. ">
<polygon fill="white" stroke="black" points="0,-0.5 0,-19.5 48,-19.5 48,-0.5 0,-0.5"/>
<text text-anchor="middle" x="24" y="-7.5" font-family="Helvetica,sans-Serif" font-size="10.00">bdd.cc</text>
</a>
</g>
</g>
<!-- Node1&#45;&gt;Node2 -->
<g id="edge1" class="edge"><title>Node1&#45;&gt;Node2</title>
<path fill="none" stroke="midnightblue" d="M631.189,-64.7455C534.755,-63.5517 272.072,-56.8797 57,-20 54.0735,-19.4982 51.0313,-18.8491 48.0303,-18.1293"/>
<polygon fill="midnightblue" stroke="midnightblue" points="631.283,-68.2466 641.322,-64.8579 631.361,-61.2471 631.283,-68.2466"/>
</g>
<!-- Node3 -->
<g id="node3" class="node"><title>Node3</title>
<g id="a_node3"><a xlink:href="fault__tree__analysis_8cc.xhtml" target="_top" xlink:title="Implementation of fault tree analysis. ">
<polygon fill="white" stroke="black" points="66.5,-0.5 66.5,-19.5 185.5,-19.5 185.5,-0.5 66.5,-0.5"/>
<text text-anchor="middle" x="126" y="-7.5" font-family="Helvetica,sans-Serif" font-size="10.00">fault_tree_analysis.cc</text>
</a>
</g>
</g>
<!-- Node1&#45;&gt;Node3 -->
<g id="edge2" class="edge"><title>Node1&#45;&gt;Node3</title>
<path fill="none" stroke="midnightblue" d="M631.334,-61.8758C551.043,-55.1167 357.138,-38.265 195,-20 191.999,-19.6619 188.926,-19.304 185.824,-18.9334"/>
<polygon fill="midnightblue" stroke="midnightblue" points="631.191,-65.376 641.449,-62.7244 631.776,-58.4005 631.191,-65.376"/>
</g>
<!-- Node4 -->
<g id="node4" class="node"><title>Node4</title>
<g id="a_node4"><a xlink:href="importance__analysis_8cc.xhtml" target="_top" xlink:title="Implementations of functions to provide quantitative importance informations. ">
<polygon fill="white" stroke="black" points="204,-0.5 204,-19.5 332,-19.5 332,-0.5 204,-0.5"/>
<text text-anchor="middle" x="268" y="-7.5" font-family="Helvetica,sans-Serif" font-size="10.00">importance_analysis.cc</text>
</a>
</g>
</g>
<!-- Node1&#45;&gt;Node4 -->
<g id="edge3" class="edge"><title>Node1&#45;&gt;Node4</title>
<path fill="none" stroke="midnightblue" d="M631.49,-59.9488C562.767,-50.6943 415.976,-30.9269 331.465,-19.5464"/>
<polygon fill="midnightblue" stroke="midnightblue" points="631.06,-63.4224 641.438,-61.2884 631.994,-56.485 631.06,-63.4224"/>
</g>
<!-- Node5 -->
<g id="node5" class="node"><title>Node5</title>
<g id="a_node5"><a xlink:href="initializer_8cc.xhtml" target="_top" xlink:title="Implementation of input file processing into analysis constructs. ">
<polygon fill="white" stroke="black" points="350.5,-0.5 350.5,-19.5 421.5,-19.5 421.5,-0.5 350.5,-0.5"/>
<text text-anchor="middle" x="386" y="-7.5" font-family="Helvetica,sans-Serif" font-size="10.00">initializer.cc</text>
</a>
</g>
</g>
<!-- Node1&#45;&gt;Node5 -->
<g id="edge4" class="edge"><title>Node1&#45;&gt;Node5</title>
<path fill="none" stroke="midnightblue" d="M631.319,-58.0936C584.195,-49.4133 501.065,-33.9573 430,-20 427.246,-19.459 424.396,-18.8923 421.532,-18.3176"/>
<polygon fill="midnightblue" stroke="midnightblue" points="630.903,-61.5759 641.372,-59.9432 632.17,-54.6915 630.903,-61.5759"/>
</g>
<!-- Node6 -->
<g id="node6" class="node"><title>Node6</title>
<g id="a_node6"><a xlink:href="logger_8cc.xhtml" target="_top" xlink:title="Initializing static members and member functions of Logger class. ">
<polygon fill="white" stroke="black" points="439.5,-0.5 439.5,-19.5 498.5,-19.5 498.5,-0.5 439.5,-0.5"/>
<text text-anchor="middle" x="469" y="-7.5" font-family="Helvetica,sans-Serif" font-size="10.00">logger.cc</text>
</a>
</g>
</g>
<!-- Node1&#45;&gt;Node6 -->
<g id="edge5" class="edge"><title>Node1&#45;&gt;Node6</title>
<path fill="none" stroke="midnightblue" d="M631.39,-54.8453C592.876,-44.4466 533.801,-28.4963 498.524,-18.9715"/>
<polygon fill="midnightblue" stroke="midnightblue" points="630.624,-58.2638 641.191,-57.4915 632.449,-51.5058 630.624,-58.2638"/>
</g>
<!-- Node7 -->
<g id="node7" class="node"><title>Node7</title>
<g id="a_node7"><a xlink:href="mocus_8cc.xhtml" target="_top" xlink:title="Implementation of the MOCUS algorithm. ">
<polygon fill="white" stroke="black" points="517,-0.5 517,-19.5 579,-19.5 579,-0.5 517,-0.5"/>
<text text-anchor="middle" x="548" y="-7.5" font-family="Helvetica,sans-Serif" font-size="10.00">mocus.cc</text>
</a>
</g>
</g>
<!-- Node1&#45;&gt;Node7 -->
<g id="edge6" class="edge"><title>Node1&#45;&gt;Node7</title>
<path fill="none" stroke="midnightblue" d="M640.694,-52.3678C618.035,-42.2553 586.874,-28.3486 567.083,-19.5164"/>
<polygon fill="midnightblue" stroke="midnightblue" points="639.269,-55.5643 649.827,-56.4435 642.122,-49.1719 639.269,-55.5643"/>
</g>
<!-- Node8 -->
<g id="node8" class="node"><title>Node8</title>
<g id="a_node8"><a xlink:href="pdag_8cc.xhtml" target="_top" xlink:title="Implementation of a Propositional Directed Acyclic Graph with indexed nodes, variables, and gates. ">
<polygon fill="white" stroke="black" points="597,-0.5 597,-19.5 651,-19.5 651,-0.5 597,-0.5"/>
<text text-anchor="middle" x="624" y="-7.5" font-family="Helvetica,sans-Serif" font-size="10.00">pdag.cc</text>
</a>
</g>
</g>
<!-- Node1&#45;&gt;Node8 -->
<g id="edge7" class="edge"><title>Node1&#45;&gt;Node8</title>
<path fill="none" stroke="midnightblue" d="M654.953,-48.144C647.113,-38.7357 637.671,-27.4046 631.293,-19.7511"/>
<polygon fill="midnightblue" stroke="midnightblue" points="652.479,-50.6414 661.569,-56.083 657.856,-46.1601 652.479,-50.6414"/>
</g>
<!-- Node9 -->
<g id="node9" class="node"><title>Node9</title>
<g id="a_node9"><a xlink:href="preprocessor_8cc.xhtml" target="_top" xlink:title="Implementation of preprocessing algorithms. ">
<polygon fill="white" stroke="black" points="669,-0.5 669,-19.5 761,-19.5 761,-0.5 669,-0.5"/>
<text text-anchor="middle" x="715" y="-7.5" font-family="Helvetica,sans-Serif" font-size="10.00">preprocessor.cc</text>
</a>
</g>
</g>
<!-- Node1&#45;&gt;Node9 -->
<g id="edge8" class="edge"><title>Node1&#45;&gt;Node9</title>
<path fill="none" stroke="midnightblue" d="M683.114,-48.4314C691.176,-38.9673 700.959,-27.4827 707.545,-19.7511"/>
<polygon fill="midnightblue" stroke="midnightblue" points="680.416,-46.2009 676.596,-56.083 685.745,-50.7402 680.416,-46.2009"/>
</g>
<!-- Node10 -->
<g id="node10" class="node"><title>Node10</title>
<g id="a_node10"><a xlink:href="probability__analysis_8cc.xhtml" target="_top" xlink:title="Implementations of functions to provide probability analysis. ">
<polygon fill="white" stroke="black" points="779.5,-0.5 779.5,-19.5 902.5,-19.5 902.5,-0.5 779.5,-0.5"/>
<text text-anchor="middle" x="841" y="-7.5" font-family="Helvetica,sans-Serif" font-size="10.00">probability_analysis.cc</text>
</a>
</g>
</g>
<!-- Node1&#45;&gt;Node10 -->
<g id="edge9" class="edge"><title>Node1&#45;&gt;Node10</title>
<path fill="none" stroke="midnightblue" d="M705.832,-53.4363C738.262,-43.2551 784.737,-28.664 813.874,-19.5164"/>
<polygon fill="midnightblue" stroke="midnightblue" points="704.746,-50.1088 696.254,-56.4435 706.843,-56.7874 704.746,-50.1088"/>
</g>
<!-- Node11 -->
<g id="node11" class="node"><title>Node11</title>
<g id="a_node11"><a xlink:href="reporter_8cc.xhtml" target="_top" xlink:title="Implements Reporter class. ">
<polygon fill="white" stroke="black" points="921,-0.5 921,-19.5 989,-19.5 989,-0.5 921,-0.5"/>
<text text-anchor="middle" x="955" y="-7.5" font-family="Helvetica,sans-Serif" font-size="10.00">reporter.cc</text>
</a>
</g>
</g>
<!-- Node1&#45;&gt;Node11 -->
<g id="edge10" class="edge"><title>Node1&#45;&gt;Node11</title>
<path fill="none" stroke="midnightblue" d="M706.639,-58.3094C754.444,-49.7475 839.45,-34.3081 912,-20 914.844,-19.4392 917.79,-18.8466 920.747,-18.244"/>
<polygon fill="midnightblue" stroke="midnightblue" points="705.964,-54.8744 696.736,-60.0798 707.196,-61.7652 705.964,-54.8744"/>
</g>
<!-- Node12 -->
<g id="node12" class="node"><title>Node12</title>
<g id="a_node12"><a xlink:href="risk__analysis_8cc.xhtml" target="_top" xlink:title="Implementation of risk analysis handler. ">
<polygon fill="white" stroke="black" points="1007,-0.5 1007,-19.5 1097,-19.5 1097,-0.5 1007,-0.5"/>
<text text-anchor="middle" x="1052" y="-7.5" font-family="Helvetica,sans-Serif" font-size="10.00">risk_analysis.cc</text>
</a>
</g>
</g>
<!-- Node1&#45;&gt;Node12 -->
<g id="edge11" class="edge"><title>Node1&#45;&gt;Node12</title>
<path fill="none" stroke="midnightblue" d="M706.74,-60.2024C767.954,-52.3388 892.663,-35.9785 998,-20 1000.91,-19.5581 1003.91,-19.0913 1006.93,-18.612"/>
<polygon fill="midnightblue" stroke="midnightblue" points="706.243,-56.7373 696.769,-61.4802 707.133,-63.6806 706.243,-56.7373"/>
</g>
<!-- Node13 -->
<g id="node13" class="node"><title>Node13</title>
<g id="a_node13"><a xlink:href="scram_8cc.xhtml" target="_top" xlink:title="Main entrance. ">
<polygon fill="white" stroke="black" points="1115,-0.5 1115,-19.5 1175,-19.5 1175,-0.5 1115,-0.5"/>
<text text-anchor="middle" x="1145" y="-7.5" font-family="Helvetica,sans-Serif" font-size="10.00">scram.cc</text>
</a>
</g>
</g>
<!-- Node1&#45;&gt;Node13 -->
<g id="edge12" class="edge"><title>Node1&#45;&gt;Node13</title>
<path fill="none" stroke="midnightblue" d="M706.534,-62.712C782.393,-57.741 959.232,-44.3946 1106,-20 1108.88,-19.5215 1111.86,-18.9577 1114.84,-18.3496"/>
<polygon fill="midnightblue" stroke="midnightblue" points="706.268,-59.2218 696.514,-63.3581 706.719,-66.2072 706.268,-59.2218"/>
</g>
<!-- Node14 -->
<g id="node14" class="node"><title>Node14</title>
<g id="a_node14"><a xlink:href="uncertainty__analysis_8cc.xhtml" target="_top" xlink:title="Implements the functionality to run Monte Carlo simulations. ">
<polygon fill="white" stroke="black" points="1193,-0.5 1193,-19.5 1321,-19.5 1321,-0.5 1193,-0.5"/>
<text text-anchor="middle" x="1257" y="-7.5" font-family="Helvetica,sans-Serif" font-size="10.00">uncertainty_analysis.cc</text>
</a>
</g>
</g>
<!-- Node1&#45;&gt;Node14 -->
<g id="edge13" class="edge"><title>Node1&#45;&gt;Node14</title>
<path fill="none" stroke="midnightblue" d="M706.895,-62.1521C792.193,-55.6405 1005.75,-38.77 1184,-20 1186.92,-19.6924 1189.91,-19.3675 1192.92,-19.0308"/>
<polygon fill="midnightblue" stroke="midnightblue" points="706.373,-58.6816 696.667,-62.9301 706.904,-65.6615 706.373,-58.6816"/>
</g>
<!-- Node15 -->
<g id="node15" class="node"><title>Node15</title>
<g id="a_node15"><a xlink:href="zbdd_8cc.xhtml" target="_top" xlink:title="Implementation of Zero&#45;Suppressed BDD algorithms. ">
<polygon fill="white" stroke="black" points="1339.5,-0.5 1339.5,-19.5 1392.5,-19.5 1392.5,-0.5 1339.5,-0.5"/>
<text text-anchor="middle" x="1366" y="-7.5" font-family="Helvetica,sans-Serif" font-size="10.00">zbdd.cc</text>
</a>
</g>
</g>
<!-- Node1&#45;&gt;Node15 -->
<g id="edge14" class="edge"><title>Node1&#45;&gt;Node15</title>
<path fill="none" stroke="midnightblue" d="M706.637,-64.7621C807.992,-63.6216 1094.9,-57.0915 1330,-20 1333.05,-19.5181 1336.23,-18.9005 1339.37,-18.215"/>
<polygon fill="midnightblue" stroke="midnightblue" points="706.548,-61.2628 696.584,-64.8641 706.619,-68.2624 706.548,-61.2628"/>
</g>
</g>
</svg>
