<?xml version="1.0" encoding="UTF-8" standalone="no"?>
<!DOCTYPE svg PUBLIC "-//W3C//DTD SVG 1.1//EN"
 "http://www.w3.org/Graphics/SVG/1.1/DTD/svg11.dtd">
<!-- Generated by graphviz version 2.38.0 (20140413.2041)
 -->
<!-- Title: logger.cc Pages: 1 -->
<svg width="474pt" height="151pt"
 viewBox="0.00 0.00 473.50 151.00" xmlns="http://www.w3.org/2000/svg" xmlns:xlink="http://www.w3.org/1999/xlink">
<g id="graph0" class="graph" transform="scale(1 1) rotate(0) translate(4 147)">
<title>logger.cc</title>
<polygon fill="white" stroke="none" points="-4,4 -4,-147 469.5,-147 469.5,4 -4,4"/>
<!-- Node1 -->
<g id="node1" class="node"><title>Node1</title>
<polygon fill="#bfbfbf" stroke="black" points="202,-123.5 202,-142.5 261,-142.5 261,-123.5 202,-123.5"/>
<text text-anchor="middle" x="231.5" y="-130.5" font-family="Helvetica,sans-Serif" font-size="10.00">logger.cc</text>
</g>
<!-- Node2 -->
<g id="node2" class="node"><title>Node2</title>
<g id="a_node2"><a xlink:href="logger_8h.xhtml" target="_top" xlink:title="Logging capability for various purposes, such as warnings and debugging. ">
<polygon fill="white" stroke="black" points="136,-67.5 136,-86.5 191,-86.5 191,-67.5 136,-67.5"/>
<text text-anchor="middle" x="163.5" y="-74.5" font-family="Helvetica,sans-Serif" font-size="10.00">logger.h</text>
</a>
</g>
</g>
<!-- Node1&#45;&gt;Node2 -->
<g id="edge1" class="edge"><title>Node1&#45;&gt;Node2</title>
<path fill="none" stroke="midnightblue" d="M220.575,-123.324C210.325,-115.185 194.779,-102.839 182.499,-93.0874"/>
<polygon fill="midnightblue" stroke="midnightblue" points="184.632,-90.3119 174.624,-86.8339 180.279,-95.7937 184.632,-90.3119"/>
</g>
<!-- Node8 -->
<g id="node8" class="node"><title>Node8</title>
<polygon fill="white" stroke="#bfbfbf" points="209,-67.5 209,-86.5 254,-86.5 254,-67.5 209,-67.5"/>
<text text-anchor="middle" x="231.5" y="-74.5" font-family="Helvetica,sans-Serif" font-size="10.00">cstdio</text>
</g>
<!-- Node1&#45;&gt;Node8 -->
<g id="edge7" class="edge"><title>Node1&#45;&gt;Node8</title>
<path fill="none" stroke="midnightblue" d="M231.5,-123.083C231.5,-116.006 231.5,-105.861 231.5,-96.9865"/>
<polygon fill="midnightblue" stroke="midnightblue" points="235,-96.751 231.5,-86.7511 228,-96.7511 235,-96.751"/>
</g>
<!-- Node9 -->
<g id="node9" class="node"><title>Node9</title>
<polygon fill="white" stroke="#bfbfbf" points="272.5,-67.5 272.5,-86.5 316.5,-86.5 316.5,-67.5 272.5,-67.5"/>
<text text-anchor="middle" x="294.5" y="-74.5" font-family="Helvetica,sans-Serif" font-size="10.00">string</text>
</g>
<!-- Node1&#45;&gt;Node9 -->
<g id="edge8" class="edge"><title>Node1&#45;&gt;Node9</title>
<path fill="none" stroke="midnightblue" d="M241.622,-123.324C251.026,-115.263 265.244,-103.077 276.569,-93.3695"/>
<polygon fill="midnightblue" stroke="midnightblue" points="278.879,-95.9993 284.194,-86.8339 274.323,-90.6844 278.879,-95.9993"/>
</g>
<!-- Node3 -->
<g id="node3" class="node"><title>Node3</title>
<polygon fill="white" stroke="#bfbfbf" points="0,-6 0,-25 49,-25 49,-6 0,-6"/>
<text text-anchor="middle" x="24.5" y="-13" font-family="Helvetica,sans-Serif" font-size="10.00">cstdint</text>
</g>
<!-- Node2&#45;&gt;Node3 -->
<g id="edge2" class="edge"><title>Node2&#45;&gt;Node3</title>
<path fill="none" stroke="midnightblue" d="M143.585,-67.4751C120.051,-57.4013 80.6899,-40.5525 53.7071,-29.0023"/>
<polygon fill="midnightblue" stroke="midnightblue" points="54.9489,-25.7267 44.3784,-25.0091 52.1942,-32.162 54.9489,-25.7267"/>
</g>
<!-- Node4 -->
<g id="node4" class="node"><title>Node4</title>
<polygon fill="white" stroke="#bfbfbf" points="67.5,-6 67.5,-25 117.5,-25 117.5,-6 67.5,-6"/>
<text text-anchor="middle" x="92.5" y="-13" font-family="Helvetica,sans-Serif" font-size="10.00">chrono</text>
</g>
<!-- Node2&#45;&gt;Node4 -->
<g id="edge3" class="edge"><title>Node2&#45;&gt;Node4</title>
<path fill="none" stroke="midnightblue" d="M153.327,-67.4751C142.15,-58.1082 123.983,-42.8839 110.409,-31.5081"/>
<polygon fill="midnightblue" stroke="midnightblue" points="112.566,-28.7496 102.654,-25.0091 108.07,-34.1148 112.566,-28.7496"/>
</g>
<!-- Node5 -->
<g id="node5" class="node"><title>Node5</title>
<polygon fill="white" stroke="#bfbfbf" points="135.5,-6 135.5,-25 191.5,-25 191.5,-6 135.5,-6"/>
<text text-anchor="middle" x="163.5" y="-13" font-family="Helvetica,sans-Serif" font-size="10.00">sstream</text>
</g>
<!-- Node2&#45;&gt;Node5 -->
<g id="edge4" class="edge"><title>Node2&#45;&gt;Node5</title>
<path fill="none" stroke="midnightblue" d="M163.5,-67.4751C163.5,-59.0803 163.5,-45.9806 163.5,-35.1631"/>
<polygon fill="midnightblue" stroke="midnightblue" points="167,-35.0091 163.5,-25.0091 160,-35.0091 167,-35.0091"/>
</g>
<!-- Node6 -->
<g id="node6" class="node"><title>Node6</title>
<polygon fill="white" stroke="#bfbfbf" points="209.5,-6 209.5,-25 337.5,-25 337.5,-6 209.5,-6"/>
<text text-anchor="middle" x="273.5" y="-13" font-family="Helvetica,sans-Serif" font-size="10.00">boost/noncopyable.hpp</text>
</g>
<!-- Node2&#45;&gt;Node6 -->
<g id="edge5" class="edge"><title>Node2&#45;&gt;Node6</title>
<path fill="none" stroke="midnightblue" d="M179.26,-67.4751C197.476,-57.6222 227.673,-41.2883 248.968,-29.7697"/>
<polygon fill="midnightblue" stroke="midnightblue" points="250.638,-32.8453 257.769,-25.0091 247.308,-26.6883 250.638,-32.8453"/>
</g>
<!-- Node7 -->
<g id="node7" class="node"><title>Node7</title>
<polygon fill="white" stroke="#bfbfbf" points="355.5,-0.5 355.5,-30.5 465.5,-30.5 465.5,-0.5 355.5,-0.5"/>
<text text-anchor="start" x="363.5" y="-18.5" font-family="Helvetica,sans-Serif" font-size="10.00">boost/preprocessor</text>
<text text-anchor="middle" x="410.5" y="-7.5" font-family="Helvetica,sans-Serif" font-size="10.00">/cat.hpp</text>
</g>
<!-- Node2&#45;&gt;Node7 -->
<g id="edge6" class="edge"><title>Node2&#45;&gt;Node7</title>
<path fill="none" stroke="midnightblue" d="M191.378,-69.2105C194.456,-68.4635 197.544,-67.7149 200.5,-67 248.986,-55.2733 303.788,-42.0972 345.249,-32.1448"/>
<polygon fill="midnightblue" stroke="midnightblue" points="346.315,-35.4885 355.222,-29.7514 344.681,-28.6818 346.315,-35.4885"/>
</g>
</g>
</svg>
