<?xml version="1.0" encoding="UTF-8" standalone="no"?>
<!DOCTYPE svg PUBLIC "-//W3C//DTD SVG 1.1//EN"
 "http://www.w3.org/Graphics/SVG/1.1/DTD/svg11.dtd">
<!-- Generated by graphviz version 2.38.0 (20140413.2041)
 -->
<!-- Title: logger.h Pages: 1 -->
<svg width="474pt" height="95pt"
 viewBox="0.00 0.00 473.50 95.00" xmlns="http://www.w3.org/2000/svg" xmlns:xlink="http://www.w3.org/1999/xlink">
<g id="graph0" class="graph" transform="scale(1 1) rotate(0) translate(4 91)">
<title>logger.h</title>
<polygon fill="white" stroke="none" points="-4,4 -4,-91 469.5,-91 469.5,4 -4,4"/>
<!-- Node1 -->
<g id="node1" class="node"><title>Node1</title>
<polygon fill="#bfbfbf" stroke="black" points="136,-67.5 136,-86.5 191,-86.5 191,-67.5 136,-67.5"/>
<text text-anchor="middle" x="163.5" y="-74.5" font-family="Helvetica,sans-Serif" font-size="10.00">logger.h</text>
</g>
<!-- Node2 -->
<g id="node2" class="node"><title>Node2</title>
<polygon fill="white" stroke="#bfbfbf" points="0,-6 0,-25 49,-25 49,-6 0,-6"/>
<text text-anchor="middle" x="24.5" y="-13" font-family="Helvetica,sans-Serif" font-size="10.00">cstdint</text>
</g>
<!-- Node1&#45;&gt;Node2 -->
<g id="edge1" class="edge"><title>Node1&#45;&gt;Node2</title>
<path fill="none" stroke="midnightblue" d="M143.585,-67.4751C120.051,-57.4013 80.6899,-40.5525 53.7071,-29.0023"/>
<polygon fill="midnightblue" stroke="midnightblue" points="54.9489,-25.7267 44.3784,-25.0091 52.1942,-32.162 54.9489,-25.7267"/>
</g>
<!-- Node3 -->
<g id="node3" class="node"><title>Node3</title>
<polygon fill="white" stroke="#bfbfbf" points="67.5,-6 67.5,-25 117.5,-25 117.5,-6 67.5,-6"/>
<text text-anchor="middle" x="92.5" y="-13" font-family="Helvetica,sans-Serif" font-size="10.00">chrono</text>
</g>
<!-- Node1&#45;&gt;Node3 -->
<g id="edge2" class="edge"><title>Node1&#45;&gt;Node3</title>
<path fill="none" stroke="midnightblue" d="M153.327,-67.4751C142.15,-58.1082 123.983,-42.8839 110.409,-31.5081"/>
<polygon fill="midnightblue" stroke="midnightblue" points="112.566,-28.7496 102.654,-25.0091 108.07,-34.1148 112.566,-28.7496"/>
</g>
<!-- Node4 -->
<g id="node4" class="node"><title>Node4</title>
<polygon fill="white" stroke="#bfbfbf" points="135.5,-6 135.5,-25 191.5,-25 191.5,-6 135.5,-6"/>
<text text-anchor="middle" x="163.5" y="-13" font-family="Helvetica,sans-Serif" font-size="10.00">sstream</text>
</g>
<!-- Node1&#45;&gt;Node4 -->
<g id="edge3" class="edge"><title>Node1&#45;&gt;Node4</title>
<path fill="none" stroke="midnightblue" d="M163.5,-67.4751C163.5,-59.0803 163.5,-45.9806 163.5,-35.1631"/>
<polygon fill="midnightblue" stroke="midnightblue" points="167,-35.0091 163.5,-25.0091 160,-35.0091 167,-35.0091"/>
</g>
<!-- Node5 -->
<g id="node5" class="node"><title>Node5</title>
<polygon fill="white" stroke="#bfbfbf" points="209.5,-6 209.5,-25 337.5,-25 337.5,-6 209.5,-6"/>
<text text-anchor="middle" x="273.5" y="-13" font-family="Helvetica,sans-Serif" font-size="10.00">boost/noncopyable.hpp</text>
</g>
<!-- Node1&#45;&gt;Node5 -->
<g id="edge4" class="edge"><title>Node1&#45;&gt;Node5</title>
<path fill="none" stroke="midnightblue" d="M179.26,-67.4751C197.476,-57.6222 227.673,-41.2883 248.968,-29.7697"/>
<polygon fill="midnightblue" stroke="midnightblue" points="250.638,-32.8453 257.769,-25.0091 247.308,-26.6883 250.638,-32.8453"/>
</g>
<!-- Node6 -->
<g id="node6" class="node"><title>Node6</title>
<polygon fill="white" stroke="#bfbfbf" points="355.5,-0.5 355.5,-30.5 465.5,-30.5 465.5,-0.5 355.5,-0.5"/>
<text text-anchor="start" x="363.5" y="-18.5" font-family="Helvetica,sans-Serif" font-size="10.00">boost/preprocessor</text>
<text text-anchor="middle" x="410.5" y="-7.5" font-family="Helvetica,sans-Serif" font-size="10.00">/cat.hpp</text>
</g>
<!-- Node1&#45;&gt;Node6 -->
<g id="edge5" class="edge"><title>Node1&#45;&gt;Node6</title>
<path fill="none" stroke="midnightblue" d="M191.354,-69.2903C228.494,-60.3436 295.369,-44.2339 345.51,-32.1554"/>
<polygon fill="midnightblue" stroke="midnightblue" points="346.399,-35.5415 355.301,-29.7968 344.76,-28.7362 346.399,-35.5415"/>
</g>
</g>
</svg>
