<?xml version="1.0" encoding="UTF-8" standalone="no"?>
<!DOCTYPE svg PUBLIC "-//W3C//DTD SVG 1.1//EN"
 "http://www.w3.org/Graphics/SVG/1.1/DTD/svg11.dtd">
<!-- Generated by graphviz version 2.38.0 (20140413.2041)
 -->
<!-- Title: mocus.h Pages: 1 -->
<!--zoomable 341 -->
<svg id="main" version="1.1" xmlns="http://www.w3.org/2000/svg" xmlns:xlink="http://www.w3.org/1999/xlink" xml:space="preserve" onload="init(evt)">
<style type="text/css"><![CDATA[
.edge:hover path { stroke: red; }
.edge:hover polygon { stroke: red; fill: red; }
]]></style>
<script type="text/javascript"><![CDATA[
var edges = document.getElementsByTagName('g');
if (edges && edges.length) {
  for (var i=0;i<edges.length;i++) {
    if (edges[i].id.substr(0,4)=='edge') {
      edges[i].setAttribute('class','edge');
    }
  }
}
]]></script>
        <defs>
                <circle id="rim" cx="0" cy="0" r="7"/>
                <circle id="rim2" cx="0" cy="0" r="3.5"/>
                <g id="zoomPlus">
                        <use xlink:href="#rim" fill="#404040">
                                <set attributeName="fill" to="#808080" begin="zoomplus.mouseover" end="zoomplus.mouseout"/>
                        </use>
                        <path d="M-4,0h8M0,-4v8" fill="none" stroke="white" stroke-width="1.5" pointer-events="none"/>
                </g>
                <g id="zoomMin">
                        <use xlink:href="#rim" fill="#404040">
                                <set attributeName="fill" to="#808080" begin="zoomminus.mouseover" end="zoomminus.mouseout"/>
                        </use>
                        <path d="M-4,0h8" fill="none" stroke="white" stroke-width="1.5" pointer-events="none"/>
                </g>
                <g id="dirArrow">
                        <path fill="none" stroke="white" stroke-width="1.5" d="M0,-3.0v7 M-2.5,-0.5L0,-3.0L2.5,-0.5"/>
                </g>
               <g id="resetDef">
                       <use xlink:href="#rim2" fill="#404040">
                               <set attributeName="fill" to="#808080" begin="reset.mouseover" end="reset.mouseout"/>
                       </use>
               </g>
        </defs>

<script type="text/javascript">
var viewWidth = 1779;
var viewHeight = 341;
var sectionId = 'dynsection-0';
</script>
<script xlink:href="svgpan.js"/>
<svg id="graph" class="graph">
<g id="viewport">
<title>mocus.h</title>
<polygon fill="white" stroke="none" points="-4,4 -4,-337 1774.58,-337 1774.58,4 -4,4"/>
<!-- Node1 -->
<g id="node1" class="node"><title>Node1</title>
<polygon fill="#bfbfbf" stroke="black" points="1434.58,-313.5 1434.58,-332.5 1492.58,-332.5 1492.58,-313.5 1434.58,-313.5"/>
<text text-anchor="middle" x="1463.58" y="-320.5" font-family="Helvetica,sans-Serif" font-size="10.00">mocus.h</text>
</g>
<!-- Node2 -->
<g id="node2" class="node"><title>Node2</title>
<polygon fill="white" stroke="#bfbfbf" points="1376.08,-62 1376.08,-81 1469.08,-81 1469.08,-62 1376.08,-62"/>
<text text-anchor="middle" x="1422.58" y="-69" font-family="Helvetica,sans-Serif" font-size="10.00">unordered_map</text>
</g>
<!-- Node1&#45;&gt;Node2 -->
<g id="edge1" class="edge"><title>Node1&#45;&gt;Node2</title>
<path fill="none" stroke="midnightblue" d="M1477.71,-313.461C1522.24,-285.515 1653.52,-194.482 1599.58,-123 1591.68,-112.53 1521.1,-94.717 1471.5,-83.2871"/>
<polygon fill="midnightblue" stroke="midnightblue" points="1472.1,-79.8345 1461.57,-81.0201 1470.54,-86.6588 1472.1,-79.8345"/>
</g>
<!-- Node3 -->
<g id="node3" class="node"><title>Node3</title>
<polygon fill="white" stroke="#bfbfbf" points="1267.08,-0.5 1267.08,-19.5 1314.08,-19.5 1314.08,-0.5 1267.08,-0.5"/>
<text text-anchor="middle" x="1290.58" y="-7.5" font-family="Helvetica,sans-Serif" font-size="10.00">vector</text>
</g>
<!-- Node1&#45;&gt;Node3 -->
<g id="edge2" class="edge"><title>Node1&#45;&gt;Node3</title>
<path fill="none" stroke="midnightblue" d="M1492.74,-317.45C1569.37,-304.674 1770.58,-265.51 1770.58,-206.5 1770.58,-206.5 1770.58,-206.5 1770.58,-137.5 1770.58,-81.1918 1725.27,-78.3349 1673.58,-56 1611.01,-28.9647 1405.69,-16.4684 1324.27,-12.4858"/>
<polygon fill="midnightblue" stroke="midnightblue" points="1324.24,-8.98015 1314.08,-12.0003 1323.9,-15.9722 1324.24,-8.98015"/>
</g>
<!-- Node4 -->
<g id="node4" class="node"><title>Node4</title>
<polygon fill="white" stroke="#bfbfbf" points="1513.58,-62 1513.58,-81 1641.58,-81 1641.58,-62 1513.58,-62"/>
<text text-anchor="middle" x="1577.58" y="-69" font-family="Helvetica,sans-Serif" font-size="10.00">boost/noncopyable.hpp</text>
</g>
<!-- Node1&#45;&gt;Node4 -->
<g id="edge3" class="edge"><title>Node1&#45;&gt;Node4</title>
<path fill="none" stroke="midnightblue" d="M1490.71,-313.428C1526.89,-300.276 1589,-271.218 1611.58,-221 1629.45,-181.242 1629.39,-164.344 1615.58,-123 1611.26,-110.093 1602.21,-97.8383 1594.02,-88.6339"/>
<polygon fill="midnightblue" stroke="midnightblue" points="1596.32,-85.9696 1586.91,-81.1072 1591.23,-90.7784 1596.32,-85.9696"/>
</g>
<!-- Node5 -->
<g id="node5" class="node"><title>Node5</title>
<g id="a_node5"><a xlink:href="pdag_8h.xhtml" target="_top" xlink:title="Classes and facilities to represent fault trees as PDAGs with event and gate indices instead of ID na...">
<polygon fill="white" stroke="black" points="806.577,-129 806.577,-148 856.577,-148 856.577,-129 806.577,-129"/>
<text text-anchor="middle" x="831.577" y="-136" font-family="Helvetica,sans-Serif" font-size="10.00">pdag.h</text>
</a>
</g>
</g>
<!-- Node1&#45;&gt;Node5 -->
<g id="edge4" class="edge"><title>Node1&#45;&gt;Node5</title>
<path fill="none" stroke="midnightblue" d="M1434.55,-322.739C1348.88,-323.709 1091.76,-317.831 910.577,-221 881.453,-205.435 856.606,-175.325 842.917,-156.382"/>
<polygon fill="midnightblue" stroke="midnightblue" points="845.72,-154.283 837.123,-148.092 839.983,-158.293 845.72,-154.283"/>
</g>
<!-- Node22 -->
<g id="node22" class="node"><title>Node22</title>
<g id="a_node22"><a xlink:href="settings_8h.xhtml" target="_top" xlink:title="Builder for settings. ">
<polygon fill="white" stroke="black" points="56.5766,-129 56.5766,-148 120.577,-148 120.577,-129 56.5766,-129"/>
<text text-anchor="middle" x="88.5766" y="-136" font-family="Helvetica,sans-Serif" font-size="10.00">settings.h</text>
</a>
</g>
</g>
<!-- Node1&#45;&gt;Node22 -->
<g id="edge29" class="edge"><title>Node1&#45;&gt;Node22</title>
<path fill="none" stroke="midnightblue" d="M1434.18,-320.483C1312,-313.883 832.491,-285.078 443.577,-221 328.679,-202.069 195.39,-168.202 129.621,-150.683"/>
<polygon fill="midnightblue" stroke="midnightblue" points="130.224,-147.221 119.659,-148.016 128.414,-153.983 130.224,-147.221"/>
</g>
<!-- Node24 -->
<g id="node24" class="node"><title>Node24</title>
<g id="a_node24"><a xlink:href="zbdd_8h.xhtml" target="_top" xlink:title="Zero&#45;Suppressed Binary Decision Diagram facilities. ">
<polygon fill="white" stroke="black" points="1284.08,-257.5 1284.08,-276.5 1333.08,-276.5 1333.08,-257.5 1284.08,-257.5"/>
<text text-anchor="middle" x="1308.58" y="-264.5" font-family="Helvetica,sans-Serif" font-size="10.00">zbdd.h</text>
</a>
</g>
</g>
<!-- Node1&#45;&gt;Node24 -->
<g id="edge32" class="edge"><title>Node1&#45;&gt;Node24</title>
<path fill="none" stroke="midnightblue" d="M1439.02,-313.444C1413.05,-304.399 1371.91,-290.064 1342.78,-279.916"/>
<polygon fill="midnightblue" stroke="midnightblue" points="1343.62,-276.501 1333.02,-276.516 1341.31,-283.112 1343.62,-276.501"/>
</g>
<!-- Node5&#45;&gt;Node2 -->
<g id="edge11" class="edge"><title>Node5&#45;&gt;Node2</title>
<path fill="none" stroke="midnightblue" d="M856.884,-133.886C879.157,-130.771 912.481,-126.273 941.577,-123 1112.8,-103.738 1156.56,-108.008 1327.58,-87 1339.99,-85.4751 1353.28,-83.6 1365.87,-81.7106"/>
<polygon fill="midnightblue" stroke="midnightblue" points="1366.42,-85.1662 1375.78,-80.1986 1365.37,-78.2462 1366.42,-85.1662"/>
</g>
<!-- Node5&#45;&gt;Node3 -->
<g id="edge14" class="edge"><title>Node5&#45;&gt;Node3</title>
<path fill="none" stroke="midnightblue" d="M856.825,-133.474C875.523,-130.515 901.627,-126.428 924.577,-123 1036.47,-106.285 1070.89,-127.379 1176.58,-87 1214.27,-72.5993 1252.06,-43.9146 1273.27,-26.198"/>
<polygon fill="midnightblue" stroke="midnightblue" points="1275.71,-28.7169 1281.05,-19.5659 1271.17,-23.3899 1275.71,-28.7169"/>
</g>
<!-- Node5&#45;&gt;Node4 -->
<g id="edge16" class="edge"><title>Node5&#45;&gt;Node4</title>
<path fill="none" stroke="midnightblue" d="M856.864,-133.699C879.125,-130.465 912.441,-125.896 941.577,-123 1179.16,-99.3865 1240.15,-112.149 1477.58,-87 1489.43,-85.744 1502.04,-84.1329 1514.17,-82.4437"/>
<polygon fill="midnightblue" stroke="midnightblue" points="1514.81,-85.8879 1524.22,-81.0124 1513.82,-78.9579 1514.81,-85.8879"/>
</g>
<!-- Node6 -->
<g id="node6" class="node"><title>Node6</title>
<polygon fill="white" stroke="#bfbfbf" points="109.077,-62 109.077,-81 158.077,-81 158.077,-62 109.077,-62"/>
<text text-anchor="middle" x="133.577" y="-69" font-family="Helvetica,sans-Serif" font-size="10.00">cstdint</text>
</g>
<!-- Node5&#45;&gt;Node6 -->
<g id="edge5" class="edge"><title>Node5&#45;&gt;Node6</title>
<path fill="none" stroke="midnightblue" d="M806.334,-136.4C721.765,-132.511 440.797,-117.95 210.577,-87 196.641,-85.1265 181.405,-82.4019 168.191,-79.819"/>
<polygon fill="midnightblue" stroke="midnightblue" points="168.584,-76.3282 158.091,-77.7969 167.21,-83.192 168.584,-76.3282"/>
</g>
<!-- Node7 -->
<g id="node7" class="node"><title>Node7</title>
<polygon fill="white" stroke="#bfbfbf" points="1006.08,-62 1006.08,-81 1053.08,-81 1053.08,-62 1006.08,-62"/>
<text text-anchor="middle" x="1029.58" y="-69" font-family="Helvetica,sans-Serif" font-size="10.00">cstdlib</text>
</g>
<!-- Node5&#45;&gt;Node7 -->
<g id="edge6" class="edge"><title>Node5&#45;&gt;Node7</title>
<path fill="none" stroke="midnightblue" d="M853.745,-128.918C859.218,-126.894 865.086,-124.802 870.577,-123 925.913,-104.838 941.79,-106.76 996.577,-87 998.236,-86.4015 999.93,-85.7591 1001.63,-85.0896"/>
<polygon fill="midnightblue" stroke="midnightblue" points="1003.37,-88.1558 1011.25,-81.0771 1000.68,-81.6948 1003.37,-88.1558"/>
</g>
<!-- Node8 -->
<g id="node8" class="node"><title>Node8</title>
<polygon fill="white" stroke="#bfbfbf" points="850.577,-0.5 850.577,-19.5 912.577,-19.5 912.577,-0.5 850.577,-0.5"/>
<text text-anchor="middle" x="881.577" y="-7.5" font-family="Helvetica,sans-Serif" font-size="10.00">algorithm</text>
</g>
<!-- Node5&#45;&gt;Node8 -->
<g id="edge7" class="edge"><title>Node5&#45;&gt;Node8</title>
<path fill="none" stroke="midnightblue" d="M834.922,-128.927C840.725,-114.067 853.048,-82.5673 863.577,-56 867.108,-47.0898 871.06,-37.1997 874.36,-28.9658"/>
<polygon fill="midnightblue" stroke="midnightblue" points="877.634,-30.2045 878.11,-19.6203 871.138,-27.5978 877.634,-30.2045"/>
</g>
<!-- Node9 -->
<g id="node9" class="node"><title>Node9</title>
<polygon fill="white" stroke="#bfbfbf" points="372.577,-62 372.577,-81 418.577,-81 418.577,-62 372.577,-62"/>
<text text-anchor="middle" x="395.577" y="-69" font-family="Helvetica,sans-Serif" font-size="10.00">iosfwd</text>
</g>
<!-- Node5&#45;&gt;Node9 -->
<g id="edge8" class="edge"><title>Node5&#45;&gt;Node9</title>
<path fill="none" stroke="midnightblue" d="M806.468,-136.969C742.209,-135.056 567.039,-126.335 427.577,-87 425.43,-86.3946 423.244,-85.6664 421.074,-84.8628"/>
<polygon fill="midnightblue" stroke="midnightblue" points="422.405,-81.6256 411.828,-81.004 419.708,-88.0856 422.405,-81.6256"/>
</g>
<!-- Node10 -->
<g id="node10" class="node"><title>Node10</title>
<polygon fill="white" stroke="#bfbfbf" points="1262.08,-62 1262.08,-81 1319.08,-81 1319.08,-62 1262.08,-62"/>
<text text-anchor="middle" x="1290.58" y="-69" font-family="Helvetica,sans-Serif" font-size="10.00">memory</text>
</g>
<!-- Node5&#45;&gt;Node10 -->
<g id="edge9" class="edge"><title>Node5&#45;&gt;Node10</title>
<path fill="none" stroke="midnightblue" d="M856.807,-132.219C871.799,-129.214 891.215,-125.552 908.577,-123 1058.48,-100.963 1099.57,-119.402 1247.58,-87 1251.07,-86.2355 1254.67,-85.2865 1258.24,-84.2424"/>
<polygon fill="midnightblue" stroke="midnightblue" points="1259.6,-87.4825 1268.08,-81.1223 1257.49,-80.8103 1259.6,-87.4825"/>
</g>
<!-- Node11 -->
<g id="node11" class="node"><title>Node11</title>
<polygon fill="white" stroke="#bfbfbf" points="436.577,-62 436.577,-81 504.577,-81 504.577,-62 436.577,-62"/>
<text text-anchor="middle" x="470.577" y="-69" font-family="Helvetica,sans-Serif" font-size="10.00">type_traits</text>
</g>
<!-- Node5&#45;&gt;Node11 -->
<g id="edge10" class="edge"><title>Node5&#45;&gt;Node11</title>
<path fill="none" stroke="midnightblue" d="M806.554,-134.972C752.505,-129.197 621.051,-113.456 513.577,-87 510.184,-86.165 506.677,-85.1841 503.196,-84.1331"/>
<polygon fill="midnightblue" stroke="midnightblue" points="504.167,-80.7687 493.575,-81.0478 502.029,-87.4343 504.167,-80.7687"/>
</g>
<!-- Node12 -->
<g id="node12" class="node"><title>Node12</title>
<polygon fill="white" stroke="#bfbfbf" points="203.577,-0.5 203.577,-19.5 245.577,-19.5 245.577,-0.5 203.577,-0.5"/>
<text text-anchor="middle" x="224.577" y="-7.5" font-family="Helvetica,sans-Serif" font-size="10.00">utility</text>
</g>
<!-- Node5&#45;&gt;Node12 -->
<g id="edge12" class="edge"><title>Node5&#45;&gt;Node12</title>
<path fill="none" stroke="midnightblue" d="M806.233,-137.031C699.108,-134.823 286.956,-123.966 243.577,-87 227.273,-73.1064 223.838,-47.5414 223.609,-29.9253"/>
<polygon fill="midnightblue" stroke="midnightblue" points="227.113,-29.7689 223.819,-19.6993 220.115,-29.6256 227.113,-29.7689"/>
</g>
<!-- Node13 -->
<g id="node13" class="node"><title>Node13</title>
<polygon fill="white" stroke="#bfbfbf" points="522.577,-62 522.577,-81 572.577,-81 572.577,-62 522.577,-62"/>
<text text-anchor="middle" x="547.577" y="-69" font-family="Helvetica,sans-Serif" font-size="10.00">variant</text>
</g>
<!-- Node5&#45;&gt;Node13 -->
<g id="edge13" class="edge"><title>Node5&#45;&gt;Node13</title>
<path fill="none" stroke="midnightblue" d="M806.315,-134.138C760.714,-127.688 661.92,-111.96 581.577,-87 579.436,-86.3348 577.246,-85.5812 575.06,-84.7755"/>
<polygon fill="midnightblue" stroke="midnightblue" points="576.256,-81.4844 565.671,-81.0242 573.659,-87.9848 576.256,-81.4844"/>
</g>
<!-- Node14 -->
<g id="node14" class="node"><title>Node14</title>
<polygon fill="white" stroke="#bfbfbf" points="590.577,-56.5 590.577,-86.5 700.577,-86.5 700.577,-56.5 590.577,-56.5"/>
<text text-anchor="start" x="598.577" y="-74.5" font-family="Helvetica,sans-Serif" font-size="10.00">boost/container/flat</text>
<text text-anchor="middle" x="645.577" y="-63.5" font-family="Helvetica,sans-Serif" font-size="10.00">_set.hpp</text>
</g>
<!-- Node5&#45;&gt;Node14 -->
<g id="edge15" class="edge"><title>Node5&#45;&gt;Node14</title>
<path fill="none" stroke="midnightblue" d="M806.877,-128.869C778.605,-118.988 731.563,-102.549 695.557,-89.9662"/>
<polygon fill="midnightblue" stroke="midnightblue" points="696.313,-86.5231 685.718,-86.5281 694.004,-93.1312 696.313,-86.5231"/>
</g>
<!-- Node15 -->
<g id="node15" class="node"><title>Node15</title>
<polygon fill="white" stroke="#bfbfbf" points="873.077,-56.5 873.077,-86.5 988.077,-86.5 988.077,-56.5 873.077,-56.5"/>
<text text-anchor="start" x="881.077" y="-74.5" font-family="Helvetica,sans-Serif" font-size="10.00">boost/range/adaptor</text>
<text text-anchor="middle" x="930.577" y="-63.5" font-family="Helvetica,sans-Serif" font-size="10.00">/transformed.hpp</text>
</g>
<!-- Node5&#45;&gt;Node15 -->
<g id="edge17" class="edge"><title>Node5&#45;&gt;Node15</title>
<path fill="none" stroke="midnightblue" d="M844.928,-128.734C859.144,-119.4 882.105,-104.325 900.677,-92.1311"/>
<polygon fill="midnightblue" stroke="midnightblue" points="902.68,-95.0032 909.118,-86.589 898.838,-89.1517 902.68,-95.0032"/>
</g>
<!-- Node16 -->
<g id="node16" class="node"><title>Node16</title>
<g id="a_node16"><a xlink:href="find__iterator_8h.xhtml" target="_top" xlink:title="Convenience iterator adaptor to wrap find calls and results. ">
<polygon fill="white" stroke="black" points="253.077,-62 253.077,-81 354.077,-81 354.077,-62 253.077,-62"/>
<text text-anchor="middle" x="303.577" y="-69" font-family="Helvetica,sans-Serif" font-size="10.00">ext/find_iterator.h</text>
</a>
</g>
</g>
<!-- Node5&#45;&gt;Node16 -->
<g id="edge18" class="edge"><title>Node5&#45;&gt;Node16</title>
<path fill="none" stroke="midnightblue" d="M806.557,-135.947C736.311,-131.339 531.443,-116.214 363.577,-87 357.692,-85.9759 351.526,-84.7105 345.48,-83.3573"/>
<polygon fill="midnightblue" stroke="midnightblue" points="346.023,-79.8899 335.489,-81.0243 344.431,-86.7066 346.023,-79.8899"/>
</g>
<!-- Node17 -->
<g id="node17" class="node"><title>Node17</title>
<g id="a_node17"><a xlink:href="index__map_8h.xhtml" target="_top" xlink:title="Non&#45;zero based Index&#45;&gt;Value map adapter on sequential containers. ">
<polygon fill="white" stroke="black" points="1071.58,-62 1071.58,-81 1167.58,-81 1167.58,-62 1071.58,-62"/>
<text text-anchor="middle" x="1119.58" y="-69" font-family="Helvetica,sans-Serif" font-size="10.00">ext/index_map.h</text>
</a>
</g>
</g>
<!-- Node5&#45;&gt;Node17 -->
<g id="edge20" class="edge"><title>Node5&#45;&gt;Node17</title>
<path fill="none" stroke="midnightblue" d="M852.818,-128.86C858.522,-126.745 864.73,-124.625 870.577,-123 953.805,-99.865 977.194,-105.484 1061.58,-87 1066.58,-85.9038 1071.81,-84.6913 1077,-83.448"/>
<polygon fill="midnightblue" stroke="midnightblue" points="1077.95,-86.8172 1086.84,-81.0418 1076.29,-80.0176 1077.95,-86.8172"/>
</g>
<!-- Node18 -->
<g id="node18" class="node"><title>Node18</title>
<g id="a_node18"><a xlink:href="linear__map_8h.xhtml" target="_top" xlink:title="Implementation of a vector&#45;based map for a small number of entries. ">
<polygon fill="white" stroke="black" points="719.077,-62 719.077,-81 816.077,-81 816.077,-62 719.077,-62"/>
<text text-anchor="middle" x="767.577" y="-69" font-family="Helvetica,sans-Serif" font-size="10.00">ext/linear_map.h</text>
</a>
</g>
</g>
<!-- Node5&#45;&gt;Node18 -->
<g id="edge22" class="edge"><title>Node5&#45;&gt;Node18</title>
<path fill="none" stroke="midnightblue" d="M822.945,-128.734C812.773,-118.403 795.675,-101.037 783.165,-88.3315"/>
<polygon fill="midnightblue" stroke="midnightblue" points="785.581,-85.7974 776.071,-81.1273 780.593,-90.7086 785.581,-85.7974"/>
</g>
<!-- Node16&#45;&gt;Node12 -->
<g id="edge19" class="edge"><title>Node16&#45;&gt;Node12</title>
<path fill="none" stroke="midnightblue" d="M292.258,-61.9751C279.704,-52.5199 259.225,-37.0961 244.077,-25.6871"/>
<polygon fill="midnightblue" stroke="midnightblue" points="245.968,-22.7295 235.874,-19.5091 241.757,-28.321 245.968,-22.7295"/>
</g>
<!-- Node17&#45;&gt;Node3 -->
<g id="edge21" class="edge"><title>Node17&#45;&gt;Node3</title>
<path fill="none" stroke="midnightblue" d="M1144.08,-61.9751C1173.79,-51.6372 1224,-34.1645 1257.22,-22.6051"/>
<polygon fill="midnightblue" stroke="midnightblue" points="1258.65,-25.8139 1266.95,-19.222 1256.35,-19.2027 1258.65,-25.8139"/>
</g>
<!-- Node18&#45;&gt;Node3 -->
<g id="edge28" class="edge"><title>Node18&#45;&gt;Node3</title>
<path fill="none" stroke="midnightblue" d="M816.355,-62.6989C831.471,-60.3982 848.195,-57.9711 863.577,-56 1009.51,-37.2993 1184.23,-20.6862 1256.61,-14.0574"/>
<polygon fill="midnightblue" stroke="midnightblue" points="1257.28,-17.5101 1266.93,-13.1165 1256.65,-10.539 1257.28,-17.5101"/>
</g>
<!-- Node18&#45;&gt;Node8 -->
<g id="edge24" class="edge"><title>Node18&#45;&gt;Node8</title>
<path fill="none" stroke="midnightblue" d="M783.91,-61.9751C802.788,-52.1222 834.083,-35.7883 856.152,-24.2697"/>
<polygon fill="midnightblue" stroke="midnightblue" points="858.028,-27.2389 865.274,-19.5091 854.789,-21.0333 858.028,-27.2389"/>
</g>
<!-- Node18&#45;&gt;Node12 -->
<g id="edge27" class="edge"><title>Node18&#45;&gt;Node12</title>
<path fill="none" stroke="midnightblue" d="M737.059,-61.9441C728.248,-59.7268 718.581,-57.534 709.577,-56 539.992,-27.1081 333.664,-15.7179 256.078,-12.2584"/>
<polygon fill="midnightblue" stroke="midnightblue" points="256.144,-8.75806 246.002,-11.8219 255.841,-15.7515 256.144,-8.75806"/>
</g>
<!-- Node19 -->
<g id="node19" class="node"><title>Node19</title>
<polygon fill="white" stroke="#bfbfbf" points="780.577,-0.5 780.577,-19.5 832.577,-19.5 832.577,-0.5 780.577,-0.5"/>
<text text-anchor="middle" x="806.577" y="-7.5" font-family="Helvetica,sans-Serif" font-size="10.00">cassert</text>
</g>
<!-- Node18&#45;&gt;Node19 -->
<g id="edge23" class="edge"><title>Node18&#45;&gt;Node19</title>
<path fill="none" stroke="midnightblue" d="M773.164,-61.9751C778.956,-53.1384 788.166,-39.0886 795.45,-27.975"/>
<polygon fill="midnightblue" stroke="midnightblue" points="798.444,-29.7913 800.999,-19.5091 792.59,-25.9539 798.444,-29.7913"/>
</g>
<!-- Node20 -->
<g id="node20" class="node"><title>Node20</title>
<polygon fill="white" stroke="#bfbfbf" points="603.077,-0.5 603.077,-19.5 680.077,-19.5 680.077,-0.5 603.077,-0.5"/>
<text text-anchor="middle" x="641.577" y="-7.5" font-family="Helvetica,sans-Serif" font-size="10.00">initializer_list</text>
</g>
<!-- Node18&#45;&gt;Node20 -->
<g id="edge25" class="edge"><title>Node18&#45;&gt;Node20</title>
<path fill="none" stroke="midnightblue" d="M749.524,-61.9751C728.378,-51.9897 693.136,-35.3476 668.698,-23.8075"/>
<polygon fill="midnightblue" stroke="midnightblue" points="670.133,-20.6143 659.596,-19.5091 667.144,-26.9441 670.133,-20.6143"/>
</g>
<!-- Node21 -->
<g id="node21" class="node"><title>Node21</title>
<polygon fill="white" stroke="#bfbfbf" points="698.577,-0.5 698.577,-19.5 762.577,-19.5 762.577,-0.5 698.577,-0.5"/>
<text text-anchor="middle" x="730.577" y="-7.5" font-family="Helvetica,sans-Serif" font-size="10.00">stdexcept</text>
</g>
<!-- Node18&#45;&gt;Node21 -->
<g id="edge26" class="edge"><title>Node18&#45;&gt;Node21</title>
<path fill="none" stroke="midnightblue" d="M762.275,-61.9751C756.835,-53.2268 748.218,-39.3691 741.34,-28.3093"/>
<polygon fill="midnightblue" stroke="midnightblue" points="744.121,-26.1528 735.868,-19.5091 738.177,-29.8494 744.121,-26.1528"/>
</g>
<!-- Node22&#45;&gt;Node6 -->
<g id="edge30" class="edge"><title>Node22&#45;&gt;Node6</title>
<path fill="none" stroke="midnightblue" d="M94.6455,-128.734C101.595,-118.695 113.144,-102.014 121.862,-89.4213"/>
<polygon fill="midnightblue" stroke="midnightblue" points="124.789,-91.3415 127.604,-81.1273 119.034,-87.357 124.789,-91.3415"/>
</g>
<!-- Node23 -->
<g id="node23" class="node"><title>Node23</title>
<polygon fill="white" stroke="#bfbfbf" points="22.0766,-62 22.0766,-81 91.0766,-81 91.0766,-62 22.0766,-62"/>
<text text-anchor="middle" x="56.5766" y="-69" font-family="Helvetica,sans-Serif" font-size="10.00">string_view</text>
</g>
<!-- Node22&#45;&gt;Node23 -->
<g id="edge31" class="edge"><title>Node22&#45;&gt;Node23</title>
<path fill="none" stroke="midnightblue" d="M84.261,-128.734C79.4149,-118.89 71.4245,-102.66 65.2705,-90.1594"/>
<polygon fill="midnightblue" stroke="midnightblue" points="68.3809,-88.5531 60.8239,-81.1273 62.1007,-91.6449 68.3809,-88.5531"/>
</g>
<!-- Node24&#45;&gt;Node2 -->
<g id="edge37" class="edge"><title>Node24&#45;&gt;Node2</title>
<path fill="none" stroke="midnightblue" d="M1313.62,-257.436C1330.98,-227.976 1388.46,-130.412 1412.19,-90.1319"/>
<polygon fill="midnightblue" stroke="midnightblue" points="1415.27,-91.7994 1417.33,-81.4068 1409.24,-88.2461 1415.27,-91.7994"/>
</g>
<!-- Node24&#45;&gt;Node3 -->
<g id="edge39" class="edge"><title>Node24&#45;&gt;Node3</title>
<path fill="none" stroke="midnightblue" d="M1333.47,-263.892C1389.75,-258.768 1524.89,-244.334 1563.58,-221 1634.57,-178.183 1705.44,-118.15 1650.58,-56 1629.14,-31.7171 1409.72,-17.4037 1324.32,-12.7166"/>
<polygon fill="midnightblue" stroke="midnightblue" points="1324.3,-9.21046 1314.13,-12.168 1323.93,-16.2004 1324.3,-9.21046"/>
</g>
<!-- Node24&#45;&gt;Node4 -->
<g id="edge42" class="edge"><title>Node24&#45;&gt;Node4</title>
<path fill="none" stroke="midnightblue" d="M1333.12,-264.916C1374.49,-262.23 1459.82,-252.942 1523.58,-221 1563.84,-200.831 1581.05,-195.04 1599.58,-154 1609.06,-133.008 1598.61,-107.076 1589.12,-90.1792"/>
<polygon fill="midnightblue" stroke="midnightblue" points="1591.97,-88.1316 1583.81,-81.3808 1585.98,-91.7503 1591.97,-88.1316"/>
</g>
<!-- Node24&#45;&gt;Node5 -->
<g id="edge56" class="edge"><title>Node24&#45;&gt;Node5</title>
<path fill="none" stroke="midnightblue" d="M1284.06,-262.643C1250.6,-257.346 1189.46,-245.08 1142.58,-221 1123.19,-211.041 1124.49,-198.857 1104.58,-190 1008.43,-147.241 972.416,-180.471 870.577,-154 867.758,-153.267 864.86,-152.406 861.978,-151.474"/>
<polygon fill="midnightblue" stroke="midnightblue" points="862.97,-148.114 852.376,-148.123 860.664,-154.723 862.97,-148.114"/>
</g>
<!-- Node24&#45;&gt;Node6 -->
<g id="edge33" class="edge"><title>Node24&#45;&gt;Node6</title>
<path fill="none" stroke="midnightblue" d="M1283.88,-264.753C1145.83,-257.567 468.785,-219.468 271.577,-154 225.277,-138.63 177.667,-106.085 152.258,-87.1"/>
<polygon fill="midnightblue" stroke="midnightblue" points="154.314,-84.2665 144.235,-81.0006 150.078,-89.839 154.314,-84.2665"/>
</g>
<!-- Node24&#45;&gt;Node10 -->
<g id="edge36" class="edge"><title>Node24&#45;&gt;Node10</title>
<path fill="none" stroke="midnightblue" d="M1307.78,-257.436C1305.07,-228.287 1296.16,-132.468 1292.34,-91.4284"/>
<polygon fill="midnightblue" stroke="midnightblue" points="1295.82,-91.0396 1291.41,-81.4068 1288.85,-91.6881 1295.82,-91.0396"/>
</g>
<!-- Node24&#45;&gt;Node12 -->
<g id="edge38" class="edge"><title>Node24&#45;&gt;Node12</title>
<path fill="none" stroke="midnightblue" d="M1284.01,-265.32C1116.96,-260.503 151.471,-229.512 47.5766,-154 10.1646,-126.808 -16.5345,-91.9389 12.5766,-56 34.9544,-28.3737 139.822,-17.0125 193.196,-12.9574"/>
<polygon fill="midnightblue" stroke="midnightblue" points="193.727,-16.4283 203.45,-12.2203 193.225,-9.44633 193.727,-16.4283"/>
</g>
<!-- Node25 -->
<g id="node25" class="node"><title>Node25</title>
<polygon fill="white" stroke="#bfbfbf" points="1451.08,-196 1451.08,-215 1492.08,-215 1492.08,-196 1451.08,-196"/>
<text text-anchor="middle" x="1471.58" y="-203" font-family="Helvetica,sans-Serif" font-size="10.00">array</text>
</g>
<!-- Node24&#45;&gt;Node25 -->
<g id="edge34" class="edge"><title>Node24&#45;&gt;Node25</title>
<path fill="none" stroke="midnightblue" d="M1333.26,-257.769C1359.15,-249.034 1400.94,-234.636 1436.58,-221 1438.22,-220.37 1439.91,-219.713 1441.61,-219.041"/>
<polygon fill="midnightblue" stroke="midnightblue" points="1443.34,-222.118 1451.29,-215.123 1440.71,-215.628 1443.34,-222.118"/>
</g>
<!-- Node26 -->
<g id="node26" class="node"><title>Node26</title>
<polygon fill="white" stroke="#bfbfbf" points="919.577,-196 919.577,-215 957.577,-215 957.577,-196 919.577,-196"/>
<text text-anchor="middle" x="938.577" y="-203" font-family="Helvetica,sans-Serif" font-size="10.00">map</text>
</g>
<!-- Node24&#45;&gt;Node26 -->
<g id="edge35" class="edge"><title>Node24&#45;&gt;Node26</title>
<path fill="none" stroke="midnightblue" d="M1283.9,-265.656C1226.76,-264.24 1081.42,-257.07 966.577,-221 965.108,-220.539 963.624,-220.004 962.145,-219.417"/>
<polygon fill="midnightblue" stroke="midnightblue" points="963.242,-216.067 952.699,-215.021 960.289,-222.413 963.242,-216.067"/>
</g>
<!-- Node27 -->
<g id="node27" class="node"><title>Node27</title>
<polygon fill="white" stroke="#bfbfbf" points="1450.58,-129 1450.58,-148 1590.58,-148 1590.58,-129 1450.58,-129"/>
<text text-anchor="middle" x="1520.58" y="-136" font-family="Helvetica,sans-Serif" font-size="10.00">boost/functional/hash.hpp</text>
</g>
<!-- Node24&#45;&gt;Node27 -->
<g id="edge40" class="edge"><title>Node24&#45;&gt;Node27</title>
<path fill="none" stroke="midnightblue" d="M1333.11,-263.429C1379.39,-258.086 1477.03,-244.3 1500.58,-221 1517.21,-204.536 1520.85,-176.639 1521.24,-158.143"/>
<polygon fill="midnightblue" stroke="midnightblue" points="1524.74,-157.998 1521.16,-148.027 1517.74,-158.056 1524.74,-157.998"/>
</g>
<!-- Node28 -->
<g id="node28" class="node"><title>Node28</title>
<polygon fill="white" stroke="#bfbfbf" points="975.577,-190.5 975.577,-220.5 1095.58,-220.5 1095.58,-190.5 975.577,-190.5"/>
<text text-anchor="start" x="983.577" y="-208.5" font-family="Helvetica,sans-Serif" font-size="10.00">boost/iterator/iterator</text>
<text text-anchor="middle" x="1035.58" y="-197.5" font-family="Helvetica,sans-Serif" font-size="10.00">_facade.hpp</text>
</g>
<!-- Node24&#45;&gt;Node28 -->
<g id="edge41" class="edge"><title>Node24&#45;&gt;Node28</title>
<path fill="none" stroke="midnightblue" d="M1283.87,-260.615C1243.98,-251.921 1163.96,-234.481 1105.51,-221.741"/>
<polygon fill="midnightblue" stroke="midnightblue" points="1106.11,-218.29 1095.59,-219.58 1104.62,-225.129 1106.11,-218.29"/>
</g>
<!-- Node29 -->
<g id="node29" class="node"><title>Node29</title>
<g id="a_node29"><a xlink:href="bdd_8h.xhtml" target="_top" xlink:title="Fault tree analysis with the Binary Decision Diagram algorithms. ">
<polygon fill="white" stroke="black" points="1151.58,-196 1151.58,-215 1195.58,-215 1195.58,-196 1151.58,-196"/>
<text text-anchor="middle" x="1173.58" y="-203" font-family="Helvetica,sans-Serif" font-size="10.00">bdd.h</text>
</a>
</g>
</g>
<!-- Node24&#45;&gt;Node29 -->
<g id="edge43" class="edge"><title>Node24&#45;&gt;Node29</title>
<path fill="none" stroke="midnightblue" d="M1289.23,-257.475C1266.48,-247.445 1228.48,-230.7 1202.29,-219.155"/>
<polygon fill="midnightblue" stroke="midnightblue" points="1203.45,-215.839 1192.88,-215.009 1200.62,-222.245 1203.45,-215.839"/>
</g>
<!-- Node29&#45;&gt;Node2 -->
<g id="edge48" class="edge"><title>Node29&#45;&gt;Node2</title>
<path fill="none" stroke="midnightblue" d="M1194.35,-195.836C1216.89,-186.254 1253.78,-170.04 1284.58,-154 1326.52,-132.153 1373.6,-103.392 1400.5,-86.5265"/>
<polygon fill="midnightblue" stroke="midnightblue" points="1402.54,-89.3791 1409.14,-81.0881 1398.81,-83.456 1402.54,-89.3791"/>
</g>
<!-- Node29&#45;&gt;Node3 -->
<g id="edge50" class="edge"><title>Node29&#45;&gt;Node3</title>
<path fill="none" stroke="midnightblue" d="M1188.24,-195.849C1204.09,-186.277 1229.86,-170.072 1250.58,-154 1266.73,-141.464 1269.18,-136.455 1284.58,-123 1303.35,-106.6 1317.03,-109.583 1327.58,-87 1333.41,-74.5163 1332.22,-68.9702 1327.58,-56 1323.64,-45.0027 1315.72,-34.7688 1308.22,-26.8479"/>
<polygon fill="midnightblue" stroke="midnightblue" points="1310.6,-24.2784 1301.02,-19.7555 1305.68,-29.2659 1310.6,-24.2784"/>
</g>
<!-- Node29&#45;&gt;Node4 -->
<g id="edge52" class="edge"><title>Node29&#45;&gt;Node4</title>
<path fill="none" stroke="midnightblue" d="M1195.58,-197.309C1261.89,-175.644 1460.21,-110.849 1541.85,-84.1724"/>
<polygon fill="midnightblue" stroke="midnightblue" points="1543.02,-87.472 1551.44,-81.0393 1540.85,-80.8182 1543.02,-87.472"/>
</g>
<!-- Node29&#45;&gt;Node5 -->
<g id="edge54" class="edge"><title>Node29&#45;&gt;Node5</title>
<path fill="none" stroke="midnightblue" d="M1154.82,-195.92C1149.35,-193.702 1143.31,-191.516 1137.58,-190 1021.81,-159.395 986.742,-183.043 870.577,-154 867.589,-153.253 864.516,-152.353 861.467,-151.371"/>
<polygon fill="midnightblue" stroke="midnightblue" points="862.547,-148.041 851.952,-148.046 860.237,-154.649 862.547,-148.041"/>
</g>
<!-- Node29&#45;&gt;Node8 -->
<g id="edge45" class="edge"><title>Node29&#45;&gt;Node8</title>
<path fill="none" stroke="midnightblue" d="M1154.41,-195.893C1149.05,-193.727 1143.15,-191.574 1137.58,-190 1042.07,-163.036 859.555,-197.971 924.577,-123 998.704,-37.5301 1102.45,-172.47 1176.58,-87 1185.6,-76.5915 1185.55,-66.4511 1176.58,-56 1144.36,-18.4965 996.204,-11.9015 922.896,-10.9735"/>
<polygon fill="midnightblue" stroke="midnightblue" points="922.679,-7.4713 912.645,-10.8746 922.611,-14.471 922.679,-7.4713"/>
</g>
<!-- Node29&#45;&gt;Node10 -->
<g id="edge47" class="edge"><title>Node29&#45;&gt;Node10</title>
<path fill="none" stroke="midnightblue" d="M1154.4,-195.945C1149.03,-193.78 1143.14,-191.614 1137.58,-190 1049.16,-164.358 880.401,-191.794 941.577,-123 987.075,-71.8348 1180.78,-102.02 1247.58,-87 1251.06,-86.2158 1254.67,-85.254 1258.23,-84.2023"/>
<polygon fill="midnightblue" stroke="midnightblue" points="1259.6,-87.4409 1268.07,-81.0728 1257.48,-80.7707 1259.6,-87.4409"/>
</g>
<!-- Node29&#45;&gt;Node12 -->
<g id="edge49" class="edge"><title>Node29&#45;&gt;Node12</title>
<path fill="none" stroke="midnightblue" d="M1151.3,-199.282C1137.83,-196.262 1120.28,-192.563 1104.58,-190 910.039,-158.255 354.613,-234.249 223.577,-87 209.832,-71.5552 213.286,-46.5476 218.035,-29.468"/>
<polygon fill="midnightblue" stroke="midnightblue" points="221.488,-30.1595 221.175,-19.5693 214.816,-28.0429 221.488,-30.1595"/>
</g>
<!-- Node29&#45;&gt;Node22 -->
<g id="edge55" class="edge"><title>Node29&#45;&gt;Node22</title>
<path fill="none" stroke="midnightblue" d="M1151.36,-198.837C1137.92,-195.659 1120.37,-191.95 1104.58,-190 693.171,-139.195 584.835,-197.351 172.577,-154 158.855,-152.557 143.986,-150.242 130.626,-147.881"/>
<polygon fill="midnightblue" stroke="midnightblue" points="131.213,-144.431 120.747,-146.081 129.958,-151.317 131.213,-144.431"/>
</g>
<!-- Node29&#45;&gt;Node27 -->
<g id="edge51" class="edge"><title>Node29&#45;&gt;Node27</title>
<path fill="none" stroke="midnightblue" d="M1195.81,-200.335C1249.42,-190.293 1387.12,-164.499 1464.91,-149.928"/>
<polygon fill="midnightblue" stroke="midnightblue" points="1465.83,-153.317 1475.01,-148.036 1464.54,-146.437 1465.83,-153.317"/>
</g>
<!-- Node30 -->
<g id="node30" class="node"><title>Node30</title>
<polygon fill="white" stroke="#bfbfbf" points="951.077,-129 951.077,-148 998.077,-148 998.077,-129 951.077,-129"/>
<text text-anchor="middle" x="974.577" y="-136" font-family="Helvetica,sans-Serif" font-size="10.00">cmath</text>
</g>
<!-- Node29&#45;&gt;Node30 -->
<g id="edge44" class="edge"><title>Node29&#45;&gt;Node30</title>
<path fill="none" stroke="midnightblue" d="M1153.55,-195.959C1148.39,-193.89 1142.81,-191.767 1137.58,-190 1080.37,-170.689 1063.36,-174.524 1006.58,-154 1004.96,-153.416 1003.31,-152.784 1001.66,-152.123"/>
<polygon fill="midnightblue" stroke="midnightblue" points="1002.88,-148.841 992.311,-148.134 1000.13,-155.279 1002.88,-148.841"/>
</g>
<!-- Node31 -->
<g id="node31" class="node"><title>Node31</title>
<polygon fill="white" stroke="#bfbfbf" points="1016.08,-129 1016.08,-148 1087.08,-148 1087.08,-129 1016.08,-129"/>
<text text-anchor="middle" x="1051.58" y="-136" font-family="Helvetica,sans-Serif" font-size="10.00">forward_list</text>
</g>
<!-- Node29&#45;&gt;Node31 -->
<g id="edge46" class="edge"><title>Node29&#45;&gt;Node31</title>
<path fill="none" stroke="midnightblue" d="M1157.38,-195.869C1136.78,-184.893 1100.99,-165.824 1076.8,-152.938"/>
<polygon fill="midnightblue" stroke="midnightblue" points="1078.32,-149.78 1067.84,-148.167 1075.02,-155.958 1078.32,-149.78"/>
</g>
<!-- Node32 -->
<g id="node32" class="node"><title>Node32</title>
<polygon fill="white" stroke="#bfbfbf" points="1105.08,-123.5 1105.08,-153.5 1242.08,-153.5 1242.08,-123.5 1105.08,-123.5"/>
<text text-anchor="start" x="1113.08" y="-141.5" font-family="Helvetica,sans-Serif" font-size="10.00">boost/smart_ptr/intrusive</text>
<text text-anchor="middle" x="1173.58" y="-130.5" font-family="Helvetica,sans-Serif" font-size="10.00">_ptr.hpp</text>
</g>
<!-- Node29&#45;&gt;Node32 -->
<g id="edge53" class="edge"><title>Node29&#45;&gt;Node32</title>
<path fill="none" stroke="midnightblue" d="M1173.58,-195.734C1173.58,-187.541 1173.58,-174.923 1173.58,-163.714"/>
<polygon fill="midnightblue" stroke="midnightblue" points="1177.08,-163.589 1173.58,-153.589 1170.08,-163.589 1177.08,-163.589"/>
</g>
</g>
</svg>
        <g id="navigator" transform="translate(0 0)" fill="#404254">
                <rect fill="#f2f5e9" fill-opacity="0.5" stroke="#606060" stroke-width=".5" x="0" y="0" width="60" height="60"/>
                <use id="zoomplus" xlink:href="#zoomPlus" x="17" y="9" onmousedown="handleZoom(evt,'in')"/>
                <use id="zoomminus" xlink:href="#zoomMin" x="42" y="9" onmousedown="handleZoom(evt,'out')"/>
                <use id="reset" xlink:href="#resetDef" x="30" y="36" onmousedown="handleReset()"/>
                <g id="arrowUp" xlink:href="#dirArrow" transform="translate(30 24)" onmousedown="handlePan(0,-1)">
                  <use xlink:href="#rim" fill="#404040">
                        <set attributeName="fill" to="#808080" begin="arrowUp.mouseover" end="arrowUp.mouseout"/>
                  </use>
                  <path fill="none" stroke="white" stroke-width="1.5" d="M0,-3.0v7 M-2.5,-0.5L0,-3.0L2.5,-0.5"/>
                </g>
                <g id="arrowRight" xlink:href="#dirArrow" transform="rotate(90) translate(36 -43)" onmousedown="handlePan(1,0)">
                  <use xlink:href="#rim" fill="#404040">
                        <set attributeName="fill" to="#808080" begin="arrowRight.mouseover" end="arrowRight.mouseout"/>
                  </use>
                  <path fill="none" stroke="white" stroke-width="1.5" d="M0,-3.0v7 M-2.5,-0.5L0,-3.0L2.5,-0.5"/>
                </g>
                <g id="arrowDown" xlink:href="#dirArrow" transform="rotate(180) translate(-30 -48)" onmousedown="handlePan(0,1)">
                  <use xlink:href="#rim" fill="#404040">
                        <set attributeName="fill" to="#808080" begin="arrowDown.mouseover" end="arrowDown.mouseout"/>
                  </use>
                  <path fill="none" stroke="white" stroke-width="1.5" d="M0,-3.0v7 M-2.5,-0.5L0,-3.0L2.5,-0.5"/>
                </g>
                <g id="arrowLeft" xlink:href="#dirArrow" transform="rotate(270) translate(-36 17)" onmousedown="handlePan(-1,0)">
                  <use xlink:href="#rim" fill="#404040">
                        <set attributeName="fill" to="#808080" begin="arrowLeft.mouseover" end="arrowLeft.mouseout"/>
                  </use>
                  <path fill="none" stroke="white" stroke-width="1.5" d="M0,-3.0v7 M-2.5,-0.5L0,-3.0L2.5,-0.5"/>
                </g>
        </g>
        <svg viewBox="0 0 15 15" width="100%" height="30px" preserveAspectRatio="xMaxYMin meet">
         <g id="arrow_out" transform="scale(0.3 0.3)">
          <a xlink:href="mocus_8h__incl_org.svg" target="_base">
           <rect id="button" ry="5" rx="5" y="6" x="6" height="38" width="38"
                fill="#f2f5e9" fill-opacity="0.5" stroke="#606060" stroke-width="1.0"/>
           <path id="arrow"
             d="M 11.500037,31.436501 C 11.940474,20.09759 22.043105,11.32322 32.158766,21.979434 L 37.068811,17.246167 C 37.068811,17.246167 37.088388,32 37.088388,32 L 22.160133,31.978069 C 22.160133,31.978069 26.997745,27.140456 26.997745,27.140456 C 18.528582,18.264221 13.291696,25.230495 11.500037,31.436501 z"
             style="fill:#404040;"/>
          </a>
         </g>
        </svg>
</svg>
