<?xml version="1.0" encoding="UTF-8" standalone="no"?>
<!DOCTYPE svg PUBLIC "-//W3C//DTD SVG 1.1//EN"
 "http://www.w3.org/Graphics/SVG/1.1/DTD/svg11.dtd">
<!-- Generated by graphviz version 2.38.0 (20140413.2041)
 -->
<!-- Title: mocus.cc Pages: 1 -->
<!--zoomable 397 -->
<svg id="main" version="1.1" xmlns="http://www.w3.org/2000/svg" xmlns:xlink="http://www.w3.org/1999/xlink" xml:space="preserve" onload="init(evt)">
<style type="text/css"><![CDATA[
.edge:hover path { stroke: red; }
.edge:hover polygon { stroke: red; fill: red; }
]]></style>
<script type="text/javascript"><![CDATA[
var edges = document.getElementsByTagName('g');
if (edges && edges.length) {
  for (var i=0;i<edges.length;i++) {
    if (edges[i].id.substr(0,4)=='edge') {
      edges[i].setAttribute('class','edge');
    }
  }
}
]]></script>
        <defs>
                <circle id="rim" cx="0" cy="0" r="7"/>
                <circle id="rim2" cx="0" cy="0" r="3.5"/>
                <g id="zoomPlus">
                        <use xlink:href="#rim" fill="#404040">
                                <set attributeName="fill" to="#808080" begin="zoomplus.mouseover" end="zoomplus.mouseout"/>
                        </use>
                        <path d="M-4,0h8M0,-4v8" fill="none" stroke="white" stroke-width="1.5" pointer-events="none"/>
                </g>
                <g id="zoomMin">
                        <use xlink:href="#rim" fill="#404040">
                                <set attributeName="fill" to="#808080" begin="zoomminus.mouseover" end="zoomminus.mouseout"/>
                        </use>
                        <path d="M-4,0h8" fill="none" stroke="white" stroke-width="1.5" pointer-events="none"/>
                </g>
                <g id="dirArrow">
                        <path fill="none" stroke="white" stroke-width="1.5" d="M0,-3.0v7 M-2.5,-0.5L0,-3.0L2.5,-0.5"/>
                </g>
               <g id="resetDef">
                       <use xlink:href="#rim2" fill="#404040">
                               <set attributeName="fill" to="#808080" begin="reset.mouseover" end="reset.mouseout"/>
                       </use>
               </g>
        </defs>

<script type="text/javascript">
var viewWidth = 2203;
var viewHeight = 397;
var sectionId = 'dynsection-0';
</script>
<script xlink:href="svgpan.js"/>
<svg id="graph" class="graph">
<g id="viewport">
<title>mocus.cc</title>
<polygon fill="white" stroke="none" points="-4,4 -4,-393 2199,-393 2199,4 -4,4"/>
<!-- Node1 -->
<g id="node1" class="node"><title>Node1</title>
<polygon fill="#bfbfbf" stroke="black" points="1841,-369.5 1841,-388.5 1903,-388.5 1903,-369.5 1841,-369.5"/>
<text text-anchor="middle" x="1872" y="-376.5" font-family="Helvetica,sans-Serif" font-size="10.00">mocus.cc</text>
</g>
<!-- Node2 -->
<g id="node2" class="node"><title>Node2</title>
<g id="a_node2"><a xlink:href="mocus_8h.xhtml" target="_top" xlink:title="Fault tree analysis with the MOCUS algorithm. ">
<polygon fill="white" stroke="black" points="1753,-313.5 1753,-332.5 1811,-332.5 1811,-313.5 1753,-313.5"/>
<text text-anchor="middle" x="1782" y="-320.5" font-family="Helvetica,sans-Serif" font-size="10.00">mocus.h</text>
</a>
</g>
</g>
<!-- Node1&#45;&gt;Node2 -->
<g id="edge1" class="edge"><title>Node1&#45;&gt;Node2</title>
<path fill="none" stroke="midnightblue" d="M1857.54,-369.324C1843.5,-360.9 1821.95,-347.971 1805.46,-338.074"/>
<polygon fill="midnightblue" stroke="midnightblue" points="1806.8,-334.798 1796.42,-332.655 1803.2,-340.801 1806.8,-334.798"/>
</g>
<!-- Node34 -->
<g id="node34" class="node"><title>Node34</title>
<g id="a_node34"><a xlink:href="logger_8h.xhtml" target="_top" xlink:title="Logging capability for various purposes, such as warnings and debugging. ">
<polygon fill="white" stroke="black" points="1943.5,-129 1943.5,-148 1998.5,-148 1998.5,-129 1943.5,-129"/>
<text text-anchor="middle" x="1971" y="-136" font-family="Helvetica,sans-Serif" font-size="10.00">logger.h</text>
</a>
</g>
</g>
<!-- Node1&#45;&gt;Node34 -->
<g id="edge58" class="edge"><title>Node1&#45;&gt;Node34</title>
<path fill="none" stroke="midnightblue" d="M1877.7,-369.414C1888.81,-352.391 1913.6,-312.899 1929,-277 1946.65,-235.852 1960.18,-184.861 1966.71,-158.022"/>
<polygon fill="midnightblue" stroke="midnightblue" points="1970.16,-158.636 1969.06,-148.098 1963.35,-157.018 1970.16,-158.636"/>
</g>
<!-- Node3 -->
<g id="node3" class="node"><title>Node3</title>
<polygon fill="white" stroke="#bfbfbf" points="1609.5,-62 1609.5,-81 1702.5,-81 1702.5,-62 1609.5,-62"/>
<text text-anchor="middle" x="1656" y="-69" font-family="Helvetica,sans-Serif" font-size="10.00">unordered_map</text>
</g>
<!-- Node2&#45;&gt;Node3 -->
<g id="edge2" class="edge"><title>Node2&#45;&gt;Node3</title>
<path fill="none" stroke="midnightblue" d="M1777.66,-313.412C1759.56,-277.573 1689.85,-139.523 1664.92,-90.1688"/>
<polygon fill="midnightblue" stroke="midnightblue" points="1667.95,-88.4008 1660.32,-81.0522 1661.7,-91.5563 1667.95,-88.4008"/>
</g>
<!-- Node4 -->
<g id="node4" class="node"><title>Node4</title>
<polygon fill="white" stroke="#bfbfbf" points="1168.5,-0.5 1168.5,-19.5 1215.5,-19.5 1215.5,-0.5 1168.5,-0.5"/>
<text text-anchor="middle" x="1192" y="-7.5" font-family="Helvetica,sans-Serif" font-size="10.00">vector</text>
</g>
<!-- Node2&#45;&gt;Node4 -->
<g id="edge3" class="edge"><title>Node2&#45;&gt;Node4</title>
<path fill="none" stroke="midnightblue" d="M1806.7,-313.453C1845.17,-298.39 1915,-263.229 1915,-206.5 1915,-206.5 1915,-206.5 1915,-137.5 1915,-100.306 1924.38,-80.0402 1896,-56 1844.48,-12.3575 1359.3,-10.5122 1225.84,-10.8388"/>
<polygon fill="midnightblue" stroke="midnightblue" points="1225.77,-7.33884 1215.78,-10.8693 1225.79,-14.3388 1225.77,-7.33884"/>
</g>
<!-- Node5 -->
<g id="node5" class="node"><title>Node5</title>
<polygon fill="white" stroke="#bfbfbf" points="1759,-62 1759,-81 1887,-81 1887,-62 1759,-62"/>
<text text-anchor="middle" x="1823" y="-69" font-family="Helvetica,sans-Serif" font-size="10.00">boost/noncopyable.hpp</text>
</g>
<!-- Node2&#45;&gt;Node5 -->
<g id="edge4" class="edge"><title>Node2&#45;&gt;Node5</title>
<path fill="none" stroke="midnightblue" d="M1785.13,-313.49C1788.3,-304.527 1793.15,-289.945 1796,-277 1810.85,-209.461 1818.66,-127.457 1821.6,-91.2375"/>
<polygon fill="midnightblue" stroke="midnightblue" points="1825.1,-91.4053 1822.39,-81.1631 1818.12,-90.8604 1825.1,-91.4053"/>
</g>
<!-- Node6 -->
<g id="node6" class="node"><title>Node6</title>
<g id="a_node6"><a xlink:href="pdag_8h.xhtml" target="_top" xlink:title="Classes and facilities to represent fault trees as PDAGs with event and gate indices instead of ID na...">
<polygon fill="white" stroke="black" points="867,-129 867,-148 917,-148 917,-129 867,-129"/>
<text text-anchor="middle" x="892" y="-136" font-family="Helvetica,sans-Serif" font-size="10.00">pdag.h</text>
</a>
</g>
</g>
<!-- Node2&#45;&gt;Node6 -->
<g id="edge5" class="edge"><title>Node2&#45;&gt;Node6</title>
<path fill="none" stroke="midnightblue" d="M1752.65,-321.421C1619.75,-318.66 1073.51,-305.743 905,-277 818.217,-262.198 767.722,-291.503 715,-221 676.217,-169.137 794.403,-149.266 856.493,-142.541"/>
<polygon fill="midnightblue" stroke="midnightblue" points="857.072,-146 866.665,-141.502 856.361,-139.037 857.072,-146"/>
</g>
<!-- Node23 -->
<g id="node23" class="node"><title>Node23</title>
<g id="a_node23"><a xlink:href="settings_8h.xhtml" target="_top" xlink:title="Builder for settings. ">
<polygon fill="white" stroke="black" points="1450,-129 1450,-148 1514,-148 1514,-129 1450,-129"/>
<text text-anchor="middle" x="1482" y="-136" font-family="Helvetica,sans-Serif" font-size="10.00">settings.h</text>
</a>
</g>
</g>
<!-- Node2&#45;&gt;Node23 -->
<g id="edge30" class="edge"><title>Node2&#45;&gt;Node23</title>
<path fill="none" stroke="midnightblue" d="M1767.93,-313.442C1720.1,-284.344 1563.45,-189.05 1504.61,-153.254"/>
<polygon fill="midnightblue" stroke="midnightblue" points="1506.4,-150.246 1496.04,-148.039 1502.76,-156.226 1506.4,-150.246"/>
</g>
<!-- Node25 -->
<g id="node25" class="node"><title>Node25</title>
<g id="a_node25"><a xlink:href="zbdd_8h.xhtml" target="_top" xlink:title="Zero&#45;Suppressed Binary Decision Diagram facilities. ">
<polygon fill="white" stroke="black" points="914.5,-257.5 914.5,-276.5 963.5,-276.5 963.5,-257.5 914.5,-257.5"/>
<text text-anchor="middle" x="939" y="-264.5" font-family="Helvetica,sans-Serif" font-size="10.00">zbdd.h</text>
</a>
</g>
</g>
<!-- Node2&#45;&gt;Node25 -->
<g id="edge33" class="edge"><title>Node2&#45;&gt;Node25</title>
<path fill="none" stroke="midnightblue" d="M1752.98,-320.141C1625.16,-311.953 1112.53,-279.116 973.78,-270.228"/>
<polygon fill="midnightblue" stroke="midnightblue" points="973.914,-266.729 963.711,-269.583 973.467,-273.715 973.914,-266.729"/>
</g>
<!-- Node6&#45;&gt;Node3 -->
<g id="edge12" class="edge"><title>Node6&#45;&gt;Node3</title>
<path fill="none" stroke="midnightblue" d="M917.276,-137.355C1009.38,-136.478 1335.5,-130.306 1600,-87 1605.57,-86.0873 1611.4,-84.8756 1617.11,-83.5404"/>
<polygon fill="midnightblue" stroke="midnightblue" points="1618.29,-86.8524 1627.15,-81.0415 1616.6,-80.0595 1618.29,-86.8524"/>
</g>
<!-- Node6&#45;&gt;Node4 -->
<g id="edge15" class="edge"><title>Node6&#45;&gt;Node4</title>
<path fill="none" stroke="midnightblue" d="M917.156,-132.534C932.88,-129.531 953.574,-125.762 972,-123 1039.06,-112.949 1229.97,-137.696 1275,-87 1284.15,-76.6989 1282.05,-67.8386 1275,-56 1264.25,-37.9369 1243.44,-26.6782 1225.34,-19.9397"/>
<polygon fill="midnightblue" stroke="midnightblue" points="1226.25,-16.5505 1215.65,-16.6465 1224,-23.1782 1226.25,-16.5505"/>
</g>
<!-- Node6&#45;&gt;Node5 -->
<g id="edge17" class="edge"><title>Node6&#45;&gt;Node5</title>
<path fill="none" stroke="midnightblue" d="M917.181,-136.565C1017.54,-132.707 1398.66,-116.814 1711,-87 1724.59,-85.7032 1739.06,-84.0396 1752.94,-82.3046"/>
<polygon fill="midnightblue" stroke="midnightblue" points="1753.45,-85.7689 1762.92,-81.0329 1752.56,-78.8251 1753.45,-85.7689"/>
</g>
<!-- Node7 -->
<g id="node7" class="node"><title>Node7</title>
<polygon fill="white" stroke="#bfbfbf" points="1455.5,-62 1455.5,-81 1504.5,-81 1504.5,-62 1455.5,-62"/>
<text text-anchor="middle" x="1480" y="-69" font-family="Helvetica,sans-Serif" font-size="10.00">cstdint</text>
</g>
<!-- Node6&#45;&gt;Node7 -->
<g id="edge6" class="edge"><title>Node6&#45;&gt;Node7</title>
<path fill="none" stroke="midnightblue" d="M917.118,-132.258C932.827,-129.151 953.519,-125.37 972,-123 1181.56,-96.1243 1240.76,-137.109 1446,-87 1448.51,-86.3874 1451.07,-85.609 1453.6,-84.732"/>
<polygon fill="midnightblue" stroke="midnightblue" points="1455.05,-87.9225 1463.08,-81.004 1452.49,-81.4086 1455.05,-87.9225"/>
</g>
<!-- Node8 -->
<g id="node8" class="node"><title>Node8</title>
<polygon fill="white" stroke="#bfbfbf" points="758.5,-62 758.5,-81 805.5,-81 805.5,-62 758.5,-62"/>
<text text-anchor="middle" x="782" y="-69" font-family="Helvetica,sans-Serif" font-size="10.00">cstdlib</text>
</g>
<!-- Node6&#45;&gt;Node8 -->
<g id="edge7" class="edge"><title>Node6&#45;&gt;Node8</title>
<path fill="none" stroke="midnightblue" d="M877.165,-128.734C858.692,-117.818 826.928,-99.0487 805.22,-86.2209"/>
<polygon fill="midnightblue" stroke="midnightblue" points="806.99,-83.2014 796.6,-81.1273 803.429,-89.2279 806.99,-83.2014"/>
</g>
<!-- Node9 -->
<g id="node9" class="node"><title>Node9</title>
<polygon fill="white" stroke="#bfbfbf" points="224,-0.5 224,-19.5 286,-19.5 286,-0.5 224,-0.5"/>
<text text-anchor="middle" x="255" y="-7.5" font-family="Helvetica,sans-Serif" font-size="10.00">algorithm</text>
</g>
<!-- Node6&#45;&gt;Node9 -->
<g id="edge8" class="edge"><title>Node6&#45;&gt;Node9</title>
<path fill="none" stroke="midnightblue" d="M866.927,-136.99C774.805,-134.83 455.546,-124.722 362,-87 341.465,-78.7192 340.916,-69.0109 323,-56 308.109,-45.1859 290.806,-33.7506 277.381,-25.1136"/>
<polygon fill="midnightblue" stroke="midnightblue" points="279.096,-22.0557 268.784,-19.6233 275.328,-27.9553 279.096,-22.0557"/>
</g>
<!-- Node10 -->
<g id="node10" class="node"><title>Node10</title>
<polygon fill="white" stroke="#bfbfbf" points="824,-62 824,-81 870,-81 870,-62 824,-62"/>
<text text-anchor="middle" x="847" y="-69" font-family="Helvetica,sans-Serif" font-size="10.00">iosfwd</text>
</g>
<!-- Node6&#45;&gt;Node10 -->
<g id="edge9" class="edge"><title>Node6&#45;&gt;Node10</title>
<path fill="none" stroke="midnightblue" d="M885.931,-128.734C878.981,-118.695 867.433,-102.014 858.715,-89.4213"/>
<polygon fill="midnightblue" stroke="midnightblue" points="861.543,-87.357 852.973,-81.1273 855.787,-91.3415 861.543,-87.357"/>
</g>
<!-- Node11 -->
<g id="node11" class="node"><title>Node11</title>
<polygon fill="white" stroke="#bfbfbf" points="257.5,-62 257.5,-81 314.5,-81 314.5,-62 257.5,-62"/>
<text text-anchor="middle" x="286" y="-69" font-family="Helvetica,sans-Serif" font-size="10.00">memory</text>
</g>
<!-- Node6&#45;&gt;Node11 -->
<g id="edge10" class="edge"><title>Node6&#45;&gt;Node11</title>
<path fill="none" stroke="midnightblue" d="M866.997,-137.347C787.468,-136.416 533.551,-130.031 329,-87 325.314,-86.2245 321.505,-85.233 317.747,-84.133"/>
<polygon fill="midnightblue" stroke="midnightblue" points="318.631,-80.7414 308.041,-81.0424 316.507,-87.4115 318.631,-80.7414"/>
</g>
<!-- Node12 -->
<g id="node12" class="node"><title>Node12</title>
<polygon fill="white" stroke="#bfbfbf" points="888,-62 888,-81 956,-81 956,-62 888,-62"/>
<text text-anchor="middle" x="922" y="-69" font-family="Helvetica,sans-Serif" font-size="10.00">type_traits</text>
</g>
<!-- Node6&#45;&gt;Node12 -->
<g id="edge11" class="edge"><title>Node6&#45;&gt;Node12</title>
<path fill="none" stroke="midnightblue" d="M896.046,-128.734C900.544,-118.988 907.932,-102.981 913.678,-90.5318"/>
<polygon fill="midnightblue" stroke="midnightblue" points="917.005,-91.6736 918.018,-81.1273 910.65,-88.7402 917.005,-91.6736"/>
</g>
<!-- Node13 -->
<g id="node13" class="node"><title>Node13</title>
<polygon fill="white" stroke="#bfbfbf" points="552,-0.5 552,-19.5 594,-19.5 594,-0.5 552,-0.5"/>
<text text-anchor="middle" x="573" y="-7.5" font-family="Helvetica,sans-Serif" font-size="10.00">utility</text>
</g>
<!-- Node6&#45;&gt;Node13 -->
<g id="edge13" class="edge"><title>Node6&#45;&gt;Node13</title>
<path fill="none" stroke="midnightblue" d="M866.749,-138.433C817.368,-139.081 706.195,-134.649 630,-87 607.556,-72.9645 590.85,-46.6549 581.509,-28.9786"/>
<polygon fill="midnightblue" stroke="midnightblue" points="584.481,-27.0989 576.872,-19.7268 578.223,-30.2352 584.481,-27.0989"/>
</g>
<!-- Node14 -->
<g id="node14" class="node"><title>Node14</title>
<polygon fill="white" stroke="#bfbfbf" points="974,-62 974,-81 1024,-81 1024,-62 974,-62"/>
<text text-anchor="middle" x="999" y="-69" font-family="Helvetica,sans-Serif" font-size="10.00">variant</text>
</g>
<!-- Node6&#45;&gt;Node14 -->
<g id="edge14" class="edge"><title>Node6&#45;&gt;Node14</title>
<path fill="none" stroke="midnightblue" d="M906.43,-128.734C924.319,-117.867 955.021,-99.2161 976.13,-86.3931"/>
<polygon fill="midnightblue" stroke="midnightblue" points="978.069,-89.3105 984.798,-81.1273 974.434,-83.3279 978.069,-89.3105"/>
</g>
<!-- Node15 -->
<g id="node15" class="node"><title>Node15</title>
<polygon fill="white" stroke="#bfbfbf" points="1156,-56.5 1156,-86.5 1266,-86.5 1266,-56.5 1156,-56.5"/>
<text text-anchor="start" x="1164" y="-74.5" font-family="Helvetica,sans-Serif" font-size="10.00">boost/container/flat</text>
<text text-anchor="middle" x="1211" y="-63.5" font-family="Helvetica,sans-Serif" font-size="10.00">_set.hpp</text>
</g>
<!-- Node6&#45;&gt;Node15 -->
<g id="edge16" class="edge"><title>Node6&#45;&gt;Node15</title>
<path fill="none" stroke="midnightblue" d="M917.021,-132.78C961.151,-124.404 1055.93,-106.191 1146.03,-87.1739"/>
<polygon fill="midnightblue" stroke="midnightblue" points="1146.81,-90.5884 1155.86,-85.0923 1145.35,-83.7403 1146.81,-90.5884"/>
</g>
<!-- Node16 -->
<g id="node16" class="node"><title>Node16</title>
<polygon fill="white" stroke="#bfbfbf" points="1322.5,-56.5 1322.5,-86.5 1437.5,-86.5 1437.5,-56.5 1322.5,-56.5"/>
<text text-anchor="start" x="1330.5" y="-74.5" font-family="Helvetica,sans-Serif" font-size="10.00">boost/range/adaptor</text>
<text text-anchor="middle" x="1380" y="-63.5" font-family="Helvetica,sans-Serif" font-size="10.00">/transformed.hpp</text>
</g>
<!-- Node6&#45;&gt;Node16 -->
<g id="edge18" class="edge"><title>Node6&#45;&gt;Node16</title>
<path fill="none" stroke="midnightblue" d="M917.145,-132.459C932.865,-129.428 953.558,-125.656 972,-123 1120.65,-101.593 1159.56,-109.85 1308,-87 1309.46,-86.7757 1310.93,-86.5421 1312.41,-86.3004"/>
<polygon fill="midnightblue" stroke="midnightblue" points="1313.05,-89.7424 1322.31,-84.603 1311.87,-82.843 1313.05,-89.7424"/>
</g>
<!-- Node17 -->
<g id="node17" class="node"><title>Node17</title>
<g id="a_node17"><a xlink:href="find__iterator_8h.xhtml" target="_top" xlink:title="Convenience iterator adaptor to wrap find calls and results. ">
<polygon fill="white" stroke="black" points="639.5,-62 639.5,-81 740.5,-81 740.5,-62 639.5,-62"/>
<text text-anchor="middle" x="690" y="-69" font-family="Helvetica,sans-Serif" font-size="10.00">ext/find_iterator.h</text>
</a>
</g>
</g>
<!-- Node6&#45;&gt;Node17 -->
<g id="edge19" class="edge"><title>Node6&#45;&gt;Node17</title>
<path fill="none" stroke="midnightblue" d="M866.825,-129.399C831.433,-118.011 766.768,-97.2025 726.214,-84.153"/>
<polygon fill="midnightblue" stroke="midnightblue" points="727.047,-80.7445 716.456,-81.013 724.903,-87.408 727.047,-80.7445"/>
</g>
<!-- Node18 -->
<g id="node18" class="node"><title>Node18</title>
<g id="a_node18"><a xlink:href="index__map_8h.xhtml" target="_top" xlink:title="Non&#45;zero based Index&#45;&gt;Value map adapter on sequential containers. ">
<polygon fill="white" stroke="black" points="1042,-62 1042,-81 1138,-81 1138,-62 1042,-62"/>
<text text-anchor="middle" x="1090" y="-69" font-family="Helvetica,sans-Serif" font-size="10.00">ext/index_map.h</text>
</a>
</g>
</g>
<!-- Node6&#45;&gt;Node18 -->
<g id="edge21" class="edge"><title>Node6&#45;&gt;Node18</title>
<path fill="none" stroke="midnightblue" d="M917.077,-129.268C951.804,-117.867 1014.73,-97.2115 1054.33,-84.2087"/>
<polygon fill="midnightblue" stroke="midnightblue" points="1055.46,-87.5226 1063.87,-81.0781 1053.28,-80.8718 1055.46,-87.5226"/>
</g>
<!-- Node19 -->
<g id="node19" class="node"><title>Node19</title>
<g id="a_node19"><a xlink:href="linear__map_8h.xhtml" target="_top" xlink:title="Implementation of a vector&#45;based map for a small number of entries. ">
<polygon fill="white" stroke="black" points="371.5,-62 371.5,-81 468.5,-81 468.5,-62 371.5,-62"/>
<text text-anchor="middle" x="420" y="-69" font-family="Helvetica,sans-Serif" font-size="10.00">ext/linear_map.h</text>
</a>
</g>
</g>
<!-- Node6&#45;&gt;Node19 -->
<g id="edge23" class="edge"><title>Node6&#45;&gt;Node19</title>
<path fill="none" stroke="midnightblue" d="M866.956,-134.051C794.378,-124.056 582.501,-94.8783 478.693,-80.5828"/>
<polygon fill="midnightblue" stroke="midnightblue" points="479.076,-77.1025 468.692,-79.2054 478.121,-84.0371 479.076,-77.1025"/>
</g>
<!-- Node17&#45;&gt;Node13 -->
<g id="edge20" class="edge"><title>Node17&#45;&gt;Node13</title>
<path fill="none" stroke="midnightblue" d="M673.237,-61.9751C653.775,-52.078 621.455,-35.6416 598.789,-24.1151"/>
<polygon fill="midnightblue" stroke="midnightblue" points="600.232,-20.9224 589.732,-19.5091 597.059,-27.1619 600.232,-20.9224"/>
</g>
<!-- Node18&#45;&gt;Node4 -->
<g id="edge22" class="edge"><title>Node18&#45;&gt;Node4</title>
<path fill="none" stroke="midnightblue" d="M1104.61,-61.9751C1121.35,-52.2106 1149,-36.0807 1168.72,-24.5808"/>
<polygon fill="midnightblue" stroke="midnightblue" points="1170.54,-27.5711 1177.41,-19.5091 1167.01,-21.5246 1170.54,-27.5711"/>
</g>
<!-- Node19&#45;&gt;Node4 -->
<g id="edge29" class="edge"><title>Node19&#45;&gt;Node4</title>
<path fill="none" stroke="midnightblue" d="M468.827,-66.4175C504.368,-63.466 553.661,-59.414 597,-56 810.613,-39.1727 1067.47,-20.1604 1158.24,-13.4792"/>
<polygon fill="midnightblue" stroke="midnightblue" points="1158.75,-16.9508 1168.47,-12.7265 1158.24,-9.96969 1158.75,-16.9508"/>
</g>
<!-- Node19&#45;&gt;Node9 -->
<g id="edge25" class="edge"><title>Node19&#45;&gt;Node9</title>
<path fill="none" stroke="midnightblue" d="M396.36,-61.9751C368.056,-51.7687 320.467,-34.608 288.414,-23.0492"/>
<polygon fill="midnightblue" stroke="midnightblue" points="289.191,-19.6089 278.597,-19.5091 286.816,-26.1939 289.191,-19.6089"/>
</g>
<!-- Node19&#45;&gt;Node13 -->
<g id="edge28" class="edge"><title>Node19&#45;&gt;Node13</title>
<path fill="none" stroke="midnightblue" d="M441.921,-61.9751C468.201,-51.7552 512.411,-34.5624 542.135,-23.0032"/>
<polygon fill="midnightblue" stroke="midnightblue" points="543.561,-26.2038 551.613,-19.3173 541.024,-19.6798 543.561,-26.2038"/>
</g>
<!-- Node20 -->
<g id="node20" class="node"><title>Node20</title>
<polygon fill="white" stroke="#bfbfbf" points="386,-0.5 386,-19.5 438,-19.5 438,-0.5 386,-0.5"/>
<text text-anchor="middle" x="412" y="-7.5" font-family="Helvetica,sans-Serif" font-size="10.00">cassert</text>
</g>
<!-- Node19&#45;&gt;Node20 -->
<g id="edge24" class="edge"><title>Node19&#45;&gt;Node20</title>
<path fill="none" stroke="midnightblue" d="M418.854,-61.9751C417.725,-53.5803 415.964,-40.4806 414.509,-29.6631"/>
<polygon fill="midnightblue" stroke="midnightblue" points="417.945,-28.9535 413.144,-19.5091 411.008,-29.8863 417.945,-28.9535"/>
</g>
<!-- Node21 -->
<g id="node21" class="node"><title>Node21</title>
<polygon fill="white" stroke="#bfbfbf" points="456.5,-0.5 456.5,-19.5 533.5,-19.5 533.5,-0.5 456.5,-0.5"/>
<text text-anchor="middle" x="495" y="-7.5" font-family="Helvetica,sans-Serif" font-size="10.00">initializer_list</text>
</g>
<!-- Node19&#45;&gt;Node21 -->
<g id="edge26" class="edge"><title>Node19&#45;&gt;Node21</title>
<path fill="none" stroke="midnightblue" d="M430.746,-61.9751C442.553,-52.6082 461.743,-37.3839 476.082,-26.0081"/>
<polygon fill="midnightblue" stroke="midnightblue" points="478.615,-28.4661 484.274,-19.5091 474.265,-22.9822 478.615,-28.4661"/>
</g>
<!-- Node22 -->
<g id="node22" class="node"><title>Node22</title>
<polygon fill="white" stroke="#bfbfbf" points="304,-0.5 304,-19.5 368,-19.5 368,-0.5 304,-0.5"/>
<text text-anchor="middle" x="336" y="-7.5" font-family="Helvetica,sans-Serif" font-size="10.00">stdexcept</text>
</g>
<!-- Node19&#45;&gt;Node22 -->
<g id="edge27" class="edge"><title>Node19&#45;&gt;Node22</title>
<path fill="none" stroke="midnightblue" d="M407.965,-61.9751C394.492,-52.4315 372.434,-36.8073 356.285,-25.3683"/>
<polygon fill="midnightblue" stroke="midnightblue" points="358.196,-22.4332 348.013,-19.5091 354.15,-28.1454 358.196,-22.4332"/>
</g>
<!-- Node23&#45;&gt;Node7 -->
<g id="edge31" class="edge"><title>Node23&#45;&gt;Node7</title>
<path fill="none" stroke="midnightblue" d="M1481.73,-128.734C1481.44,-119.183 1480.96,-103.618 1480.58,-91.2829"/>
<polygon fill="midnightblue" stroke="midnightblue" points="1484.07,-91.0149 1480.27,-81.1273 1477.07,-91.2302 1484.07,-91.0149"/>
</g>
<!-- Node24 -->
<g id="node24" class="node"><title>Node24</title>
<polygon fill="white" stroke="#bfbfbf" points="1522.5,-62 1522.5,-81 1591.5,-81 1591.5,-62 1522.5,-62"/>
<text text-anchor="middle" x="1557" y="-69" font-family="Helvetica,sans-Serif" font-size="10.00">string_view</text>
</g>
<!-- Node23&#45;&gt;Node24 -->
<g id="edge32" class="edge"><title>Node23&#45;&gt;Node24</title>
<path fill="none" stroke="midnightblue" d="M1492.11,-128.734C1504.15,-118.305 1524.45,-100.709 1539.15,-87.9732"/>
<polygon fill="midnightblue" stroke="midnightblue" points="1541.78,-90.3216 1547.05,-81.1273 1537.2,-85.0317 1541.78,-90.3216"/>
</g>
<!-- Node25&#45;&gt;Node3 -->
<g id="edge38" class="edge"><title>Node25&#45;&gt;Node3</title>
<path fill="none" stroke="midnightblue" d="M963.524,-266.357C1050.55,-266.674 1350.85,-259.613 1566,-154 1598,-138.293 1626.99,-107.776 1642.99,-88.8674"/>
<polygon fill="midnightblue" stroke="midnightblue" points="1645.74,-91.0371 1649.39,-81.0917 1640.33,-86.5888 1645.74,-91.0371"/>
</g>
<!-- Node25&#45;&gt;Node4 -->
<g id="edge40" class="edge"><title>Node25&#45;&gt;Node4</title>
<path fill="none" stroke="midnightblue" d="M963.726,-266.419C1037.49,-267.113 1261.96,-265.171 1441,-221 1516.25,-202.436 1533,-189.29 1602,-154 1652.63,-128.108 1683.25,-136.633 1711,-87 1717.72,-74.9744 1720.31,-66.1544 1711,-56 1678.2,-20.2378 1335.67,-12.8109 1225.75,-11.3441"/>
<polygon fill="midnightblue" stroke="midnightblue" points="1225.61,-7.84213 1215.56,-11.2166 1225.52,-14.8416 1225.61,-7.84213"/>
</g>
<!-- Node25&#45;&gt;Node5 -->
<g id="edge43" class="edge"><title>Node25&#45;&gt;Node5</title>
<path fill="none" stroke="midnightblue" d="M963.792,-265.853C1089.45,-264.935 1652.7,-258.733 1720,-221 1772.13,-191.776 1803.7,-123.834 1816.45,-90.9654"/>
<polygon fill="midnightblue" stroke="midnightblue" points="1819.86,-91.8627 1820.06,-81.2698 1813.29,-89.4232 1819.86,-91.8627"/>
</g>
<!-- Node25&#45;&gt;Node6 -->
<g id="edge57" class="edge"><title>Node25&#45;&gt;Node6</title>
<path fill="none" stroke="midnightblue" d="M932.518,-257.5C926.164,-248.779 916.636,-234.601 911,-221 902.505,-200.498 897.383,-175.446 894.633,-158.573"/>
<polygon fill="midnightblue" stroke="midnightblue" points="898.045,-157.723 893.096,-148.355 891.123,-158.764 898.045,-157.723"/>
</g>
<!-- Node25&#45;&gt;Node7 -->
<g id="edge34" class="edge"><title>Node25&#45;&gt;Node7</title>
<path fill="none" stroke="midnightblue" d="M943.925,-257.373C953.508,-241.412 976.266,-207.325 1005,-190 1177.37,-86.073 1254.71,-149.603 1446,-87 1447.92,-86.3713 1449.88,-85.6777 1451.85,-84.9449"/>
<polygon fill="midnightblue" stroke="midnightblue" points="1453.54,-88.0394 1461.52,-81.0705 1450.93,-81.5417 1453.54,-88.0394"/>
</g>
<!-- Node25&#45;&gt;Node11 -->
<g id="edge37" class="edge"><title>Node25&#45;&gt;Node11</title>
<path fill="none" stroke="midnightblue" d="M914.45,-266.268C799.312,-266.951 314.655,-263.234 225,-154 206.126,-131.004 238.446,-103.013 262.796,-86.5378"/>
<polygon fill="midnightblue" stroke="midnightblue" points="264.815,-89.4 271.297,-81.0196 261.004,-83.5285 264.815,-89.4"/>
</g>
<!-- Node25&#45;&gt;Node13 -->
<g id="edge39" class="edge"><title>Node25&#45;&gt;Node13</title>
<path fill="none" stroke="midnightblue" d="M920.519,-257.434C852.428,-225.734 618.306,-115.447 595,-87 581.561,-70.5969 576.33,-46.3401 574.295,-29.6664"/>
<polygon fill="midnightblue" stroke="midnightblue" points="577.762,-29.1498 573.335,-19.5243 570.793,-29.8096 577.762,-29.1498"/>
</g>
<!-- Node26 -->
<g id="node26" class="node"><title>Node26</title>
<polygon fill="white" stroke="#bfbfbf" points="724.5,-196 724.5,-215 765.5,-215 765.5,-196 724.5,-196"/>
<text text-anchor="middle" x="745" y="-203" font-family="Helvetica,sans-Serif" font-size="10.00">array</text>
</g>
<!-- Node25&#45;&gt;Node26 -->
<g id="edge35" class="edge"><title>Node25&#45;&gt;Node26</title>
<path fill="none" stroke="midnightblue" d="M914.482,-260.011C883.013,-252.109 826.884,-237.284 780,-221 778.089,-220.336 776.133,-219.623 774.169,-218.881"/>
<polygon fill="midnightblue" stroke="midnightblue" points="775.053,-215.467 764.467,-215.038 772.474,-221.975 775.053,-215.467"/>
</g>
<!-- Node27 -->
<g id="node27" class="node"><title>Node27</title>
<polygon fill="white" stroke="#bfbfbf" points="920,-196 920,-215 958,-215 958,-196 920,-196"/>
<text text-anchor="middle" x="939" y="-203" font-family="Helvetica,sans-Serif" font-size="10.00">map</text>
</g>
<!-- Node25&#45;&gt;Node27 -->
<g id="edge36" class="edge"><title>Node25&#45;&gt;Node27</title>
<path fill="none" stroke="midnightblue" d="M939,-257.475C939,-249.08 939,-235.981 939,-225.163"/>
<polygon fill="midnightblue" stroke="midnightblue" points="942.5,-225.009 939,-215.009 935.5,-225.009 942.5,-225.009"/>
</g>
<!-- Node28 -->
<g id="node28" class="node"><title>Node28</title>
<polygon fill="white" stroke="#bfbfbf" points="0,-129 0,-148 140,-148 140,-129 0,-129"/>
<text text-anchor="middle" x="70" y="-136" font-family="Helvetica,sans-Serif" font-size="10.00">boost/functional/hash.hpp</text>
</g>
<!-- Node25&#45;&gt;Node28 -->
<g id="edge41" class="edge"><title>Node25&#45;&gt;Node28</title>
<path fill="none" stroke="midnightblue" d="M914.208,-265.605C788.532,-263.464 225.009,-252.182 154,-221 122.52,-207.176 95.9579,-176.023 81.5646,-156.486"/>
<polygon fill="midnightblue" stroke="midnightblue" points="84.3167,-154.317 75.6706,-148.193 78.611,-158.372 84.3167,-154.317"/>
</g>
<!-- Node29 -->
<g id="node29" class="node"><title>Node29</title>
<polygon fill="white" stroke="#bfbfbf" points="1014,-190.5 1014,-220.5 1134,-220.5 1134,-190.5 1014,-190.5"/>
<text text-anchor="start" x="1022" y="-208.5" font-family="Helvetica,sans-Serif" font-size="10.00">boost/iterator/iterator</text>
<text text-anchor="middle" x="1074" y="-197.5" font-family="Helvetica,sans-Serif" font-size="10.00">_facade.hpp</text>
</g>
<!-- Node25&#45;&gt;Node29 -->
<g id="edge42" class="edge"><title>Node25&#45;&gt;Node29</title>
<path fill="none" stroke="midnightblue" d="M958.342,-257.475C977.737,-248.927 1008.2,-235.501 1032.99,-224.573"/>
<polygon fill="midnightblue" stroke="midnightblue" points="1034.44,-227.759 1042.18,-220.523 1031.62,-221.353 1034.44,-227.759"/>
</g>
<!-- Node30 -->
<g id="node30" class="node"><title>Node30</title>
<g id="a_node30"><a xlink:href="bdd_8h.xhtml" target="_top" xlink:title="Fault tree analysis with the Binary Decision Diagram algorithms. ">
<polygon fill="white" stroke="black" points="571,-196 571,-215 615,-215 615,-196 571,-196"/>
<text text-anchor="middle" x="593" y="-203" font-family="Helvetica,sans-Serif" font-size="10.00">bdd.h</text>
</a>
</g>
</g>
<!-- Node25&#45;&gt;Node30 -->
<g id="edge44" class="edge"><title>Node25&#45;&gt;Node30</title>
<path fill="none" stroke="midnightblue" d="M914.394,-261.769C853.283,-251.26 694.572,-223.967 625.694,-212.122"/>
<polygon fill="midnightblue" stroke="midnightblue" points="625.888,-208.604 615.439,-210.359 624.701,-215.503 625.888,-208.604"/>
</g>
<!-- Node30&#45;&gt;Node3 -->
<g id="edge49" class="edge"><title>Node30&#45;&gt;Node3</title>
<path fill="none" stroke="midnightblue" d="M615.436,-201.33C639.872,-197.995 680.135,-192.845 715,-190 894.138,-175.384 1351.14,-206.625 1523,-154 1546.69,-146.747 1604.44,-108.24 1635.47,-86.8525"/>
<polygon fill="midnightblue" stroke="midnightblue" points="1637.6,-89.6382 1643.82,-81.0657 1633.61,-83.8846 1637.6,-89.6382"/>
</g>
<!-- Node30&#45;&gt;Node4 -->
<g id="edge51" class="edge"><title>Node30&#45;&gt;Node4</title>
<path fill="none" stroke="midnightblue" d="M593.867,-195.714C596.924,-166.659 608.214,-74.4713 630,-56 670.321,-21.8128 1042.8,-13.2794 1158.13,-11.4482"/>
<polygon fill="midnightblue" stroke="midnightblue" points="1158.52,-14.9427 1168.47,-11.2913 1158.41,-7.94354 1158.52,-14.9427"/>
</g>
<!-- Node30&#45;&gt;Node5 -->
<g id="edge53" class="edge"><title>Node30&#45;&gt;Node5</title>
<path fill="none" stroke="midnightblue" d="M615.435,-201.315C639.87,-197.967 680.132,-192.805 715,-190 1092.34,-159.639 1193.2,-219.792 1566,-154 1650.56,-139.076 1745.9,-103.689 1793.15,-84.8307"/>
<polygon fill="midnightblue" stroke="midnightblue" points="1794.52,-88.0547 1802.48,-81.0708 1791.9,-81.562 1794.52,-88.0547"/>
</g>
<!-- Node30&#45;&gt;Node6 -->
<g id="edge55" class="edge"><title>Node30&#45;&gt;Node6</title>
<path fill="none" stroke="midnightblue" d="M615.474,-199.614C667.084,-188.395 794.417,-160.714 856.636,-147.188"/>
<polygon fill="midnightblue" stroke="midnightblue" points="857.725,-150.533 866.753,-144.988 856.238,-143.693 857.725,-150.533"/>
</g>
<!-- Node30&#45;&gt;Node9 -->
<g id="edge46" class="edge"><title>Node30&#45;&gt;Node9</title>
<path fill="none" stroke="midnightblue" d="M570.96,-205.054C498.628,-206.354 270.513,-206.185 225,-154 193.556,-117.946 224.721,-57.4071 243.314,-28.0245"/>
<polygon fill="midnightblue" stroke="midnightblue" points="246.25,-29.93 248.814,-19.65 240.399,-26.0874 246.25,-29.93"/>
</g>
<!-- Node30&#45;&gt;Node11 -->
<g id="edge48" class="edge"><title>Node30&#45;&gt;Node11</title>
<path fill="none" stroke="midnightblue" d="M570.733,-202.71C514.322,-197.795 367.54,-182.525 329,-154 308.039,-138.486 296.337,-109.685 290.602,-90.808"/>
<polygon fill="midnightblue" stroke="midnightblue" points="293.932,-89.7186 287.89,-81.0158 287.186,-91.5872 293.932,-89.7186"/>
</g>
<!-- Node30&#45;&gt;Node13 -->
<g id="edge50" class="edge"><title>Node30&#45;&gt;Node13</title>
<path fill="none" stroke="midnightblue" d="M592.839,-195.839C592.146,-180.007 588.78,-145.92 573,-123 557.06,-99.8474 534.046,-111.898 521,-87 514.606,-74.7959 515.272,-68.5309 521,-56 526.777,-43.3602 538.052,-32.911 548.631,-25.2737"/>
<polygon fill="midnightblue" stroke="midnightblue" points="550.849,-28.0009 557.217,-19.5333 546.958,-22.1817 550.849,-28.0009"/>
</g>
<!-- Node30&#45;&gt;Node23 -->
<g id="edge56" class="edge"><title>Node30&#45;&gt;Node23</title>
<path fill="none" stroke="midnightblue" d="M615.003,-201.532C639.404,-198.323 679.955,-193.234 715,-190 990.762,-164.552 1323.45,-147.177 1439.57,-141.509"/>
<polygon fill="midnightblue" stroke="midnightblue" points="1439.98,-144.993 1449.8,-141.013 1439.64,-138.002 1439.98,-144.993"/>
</g>
<!-- Node30&#45;&gt;Node28 -->
<g id="edge52" class="edge"><title>Node30&#45;&gt;Node28</title>
<path fill="none" stroke="midnightblue" d="M570.861,-201.749C499.095,-192.829 270.48,-164.416 148.476,-149.253"/>
<polygon fill="midnightblue" stroke="midnightblue" points="148.8,-145.767 138.445,-148.007 147.937,-152.713 148.8,-145.767"/>
</g>
<!-- Node31 -->
<g id="node31" class="node"><title>Node31</title>
<polygon fill="white" stroke="#bfbfbf" points="234.5,-129 234.5,-148 281.5,-148 281.5,-129 234.5,-129"/>
<text text-anchor="middle" x="258" y="-136" font-family="Helvetica,sans-Serif" font-size="10.00">cmath</text>
</g>
<!-- Node30&#45;&gt;Node31 -->
<g id="edge45" class="edge"><title>Node30&#45;&gt;Node31</title>
<path fill="none" stroke="midnightblue" d="M570.695,-202.221C520.801,-196.797 396.661,-181.477 296,-154 293.345,-153.275 290.619,-152.435 287.903,-151.532"/>
<polygon fill="midnightblue" stroke="midnightblue" points="288.86,-148.157 278.266,-148.075 286.497,-154.746 288.86,-148.157"/>
</g>
<!-- Node32 -->
<g id="node32" class="node"><title>Node32</title>
<polygon fill="white" stroke="#bfbfbf" points="338.5,-129 338.5,-148 409.5,-148 409.5,-129 338.5,-129"/>
<text text-anchor="middle" x="374" y="-136" font-family="Helvetica,sans-Serif" font-size="10.00">forward_list</text>
</g>
<!-- Node30&#45;&gt;Node32 -->
<g id="edge47" class="edge"><title>Node30&#45;&gt;Node32</title>
<path fill="none" stroke="midnightblue" d="M570.821,-198.387C537.523,-189.144 472.685,-170.894 418,-154 415.097,-153.103 412.092,-152.155 409.079,-151.191"/>
<polygon fill="midnightblue" stroke="midnightblue" points="410.133,-147.853 399.541,-148.096 407.973,-154.511 410.133,-147.853"/>
</g>
<!-- Node33 -->
<g id="node33" class="node"><title>Node33</title>
<polygon fill="white" stroke="#bfbfbf" points="427.5,-123.5 427.5,-153.5 564.5,-153.5 564.5,-123.5 427.5,-123.5"/>
<text text-anchor="start" x="435.5" y="-141.5" font-family="Helvetica,sans-Serif" font-size="10.00">boost/smart_ptr/intrusive</text>
<text text-anchor="middle" x="496" y="-130.5" font-family="Helvetica,sans-Serif" font-size="10.00">_ptr.hpp</text>
</g>
<!-- Node30&#45;&gt;Node33 -->
<g id="edge54" class="edge"><title>Node30&#45;&gt;Node33</title>
<path fill="none" stroke="midnightblue" d="M579.918,-195.734C566.053,-186.443 543.696,-171.461 525.543,-159.297"/>
<polygon fill="midnightblue" stroke="midnightblue" points="527.281,-156.248 517.025,-153.589 523.384,-162.063 527.281,-156.248"/>
</g>
<!-- Node34&#45;&gt;Node5 -->
<g id="edge62" class="edge"><title>Node34&#45;&gt;Node5</title>
<path fill="none" stroke="midnightblue" d="M1951.35,-128.869C1925.91,-117.699 1881.4,-98.1468 1852.05,-85.2602"/>
<polygon fill="midnightblue" stroke="midnightblue" points="1853.3,-81.9839 1842.73,-81.1672 1850.48,-88.393 1853.3,-81.9839"/>
</g>
<!-- Node34&#45;&gt;Node7 -->
<g id="edge59" class="edge"><title>Node34&#45;&gt;Node7</title>
<path fill="none" stroke="midnightblue" d="M1943.36,-137.353C1871.26,-136.351 1671.98,-129.617 1513,-87 1510.71,-86.3848 1508.36,-85.6331 1506.04,-84.799"/>
<polygon fill="midnightblue" stroke="midnightblue" points="1507.35,-81.553 1496.77,-81.0442 1504.73,-88.0413 1507.35,-81.553"/>
</g>
<!-- Node35 -->
<g id="node35" class="node"><title>Node35</title>
<polygon fill="white" stroke="#bfbfbf" points="2145,-62 2145,-81 2195,-81 2195,-62 2145,-62"/>
<text text-anchor="middle" x="2170" y="-69" font-family="Helvetica,sans-Serif" font-size="10.00">chrono</text>
</g>
<!-- Node34&#45;&gt;Node35 -->
<g id="edge60" class="edge"><title>Node34&#45;&gt;Node35</title>
<path fill="none" stroke="midnightblue" d="M1998.74,-129.983C2031.77,-120.81 2088.44,-104.363 2136,-87 2137.66,-86.3948 2139.35,-85.7523 2141.05,-85.0875"/>
<polygon fill="midnightblue" stroke="midnightblue" points="2142.79,-88.1603 2150.72,-81.1404 2140.14,-81.6795 2142.79,-88.1603"/>
</g>
<!-- Node36 -->
<g id="node36" class="node"><title>Node36</title>
<polygon fill="white" stroke="#bfbfbf" points="1943,-62 1943,-81 1999,-81 1999,-62 1943,-62"/>
<text text-anchor="middle" x="1971" y="-69" font-family="Helvetica,sans-Serif" font-size="10.00">sstream</text>
</g>
<!-- Node34&#45;&gt;Node36 -->
<g id="edge61" class="edge"><title>Node34&#45;&gt;Node36</title>
<path fill="none" stroke="midnightblue" d="M1971,-128.734C1971,-119.183 1971,-103.618 1971,-91.2829"/>
<polygon fill="midnightblue" stroke="midnightblue" points="1974.5,-91.1273 1971,-81.1273 1967.5,-91.1273 1974.5,-91.1273"/>
</g>
<!-- Node37 -->
<g id="node37" class="node"><title>Node37</title>
<polygon fill="white" stroke="#bfbfbf" points="2017,-56.5 2017,-86.5 2127,-86.5 2127,-56.5 2017,-56.5"/>
<text text-anchor="start" x="2025" y="-74.5" font-family="Helvetica,sans-Serif" font-size="10.00">boost/preprocessor</text>
<text text-anchor="middle" x="2072" y="-63.5" font-family="Helvetica,sans-Serif" font-size="10.00">/cat.hpp</text>
</g>
<!-- Node34&#45;&gt;Node37 -->
<g id="edge63" class="edge"><title>Node34&#45;&gt;Node37</title>
<path fill="none" stroke="midnightblue" d="M1984.62,-128.734C1999.12,-119.4 2022.55,-104.325 2041.5,-92.1311"/>
<polygon fill="midnightblue" stroke="midnightblue" points="2043.59,-94.944 2050.11,-86.589 2039.8,-89.0577 2043.59,-94.944"/>
</g>
</g>
</svg>
        <g id="navigator" transform="translate(0 0)" fill="#404254">
                <rect fill="#f2f5e9" fill-opacity="0.5" stroke="#606060" stroke-width=".5" x="0" y="0" width="60" height="60"/>
                <use id="zoomplus" xlink:href="#zoomPlus" x="17" y="9" onmousedown="handleZoom(evt,'in')"/>
                <use id="zoomminus" xlink:href="#zoomMin" x="42" y="9" onmousedown="handleZoom(evt,'out')"/>
                <use id="reset" xlink:href="#resetDef" x="30" y="36" onmousedown="handleReset()"/>
                <g id="arrowUp" xlink:href="#dirArrow" transform="translate(30 24)" onmousedown="handlePan(0,-1)">
                  <use xlink:href="#rim" fill="#404040">
                        <set attributeName="fill" to="#808080" begin="arrowUp.mouseover" end="arrowUp.mouseout"/>
                  </use>
                  <path fill="none" stroke="white" stroke-width="1.5" d="M0,-3.0v7 M-2.5,-0.5L0,-3.0L2.5,-0.5"/>
                </g>
                <g id="arrowRight" xlink:href="#dirArrow" transform="rotate(90) translate(36 -43)" onmousedown="handlePan(1,0)">
                  <use xlink:href="#rim" fill="#404040">
                        <set attributeName="fill" to="#808080" begin="arrowRight.mouseover" end="arrowRight.mouseout"/>
                  </use>
                  <path fill="none" stroke="white" stroke-width="1.5" d="M0,-3.0v7 M-2.5,-0.5L0,-3.0L2.5,-0.5"/>
                </g>
                <g id="arrowDown" xlink:href="#dirArrow" transform="rotate(180) translate(-30 -48)" onmousedown="handlePan(0,1)">
                  <use xlink:href="#rim" fill="#404040">
                        <set attributeName="fill" to="#808080" begin="arrowDown.mouseover" end="arrowDown.mouseout"/>
                  </use>
                  <path fill="none" stroke="white" stroke-width="1.5" d="M0,-3.0v7 M-2.5,-0.5L0,-3.0L2.5,-0.5"/>
                </g>
                <g id="arrowLeft" xlink:href="#dirArrow" transform="rotate(270) translate(-36 17)" onmousedown="handlePan(-1,0)">
                  <use xlink:href="#rim" fill="#404040">
                        <set attributeName="fill" to="#808080" begin="arrowLeft.mouseover" end="arrowLeft.mouseout"/>
                  </use>
                  <path fill="none" stroke="white" stroke-width="1.5" d="M0,-3.0v7 M-2.5,-0.5L0,-3.0L2.5,-0.5"/>
                </g>
        </g>
        <svg viewBox="0 0 15 15" width="100%" height="30px" preserveAspectRatio="xMaxYMin meet">
         <g id="arrow_out" transform="scale(0.3 0.3)">
          <a xlink:href="mocus_8cc__incl_org.svg" target="_base">
           <rect id="button" ry="5" rx="5" y="6" x="6" height="38" width="38"
                fill="#f2f5e9" fill-opacity="0.5" stroke="#606060" stroke-width="1.0"/>
           <path id="arrow"
             d="M 11.500037,31.436501 C 11.940474,20.09759 22.043105,11.32322 32.158766,21.979434 L 37.068811,17.246167 C 37.068811,17.246167 37.088388,32 37.088388,32 L 22.160133,31.978069 C 22.160133,31.978069 26.997745,27.140456 26.997745,27.140456 C 18.528582,18.264221 13.291696,25.230495 11.500037,31.436501 z"
             style="fill:#404040;"/>
          </a>
         </g>
        </svg>
</svg>
