<?xml version="1.0" encoding="UTF-8" standalone="no"?>
<!DOCTYPE svg PUBLIC "-//W3C//DTD SVG 1.1//EN"
 "http://www.w3.org/Graphics/SVG/1.1/DTD/svg11.dtd">
<!-- Generated by graphviz version 2.38.0 (20140413.2041)
 -->
<!-- Title: numerical.cc Pages: 1 -->
<!--zoomable 274 -->
<svg id="main" version="1.1" xmlns="http://www.w3.org/2000/svg" xmlns:xlink="http://www.w3.org/1999/xlink" xml:space="preserve" onload="init(evt)">
<style type="text/css"><![CDATA[
.edge:hover path { stroke: red; }
.edge:hover polygon { stroke: red; fill: red; }
]]></style>
<script type="text/javascript"><![CDATA[
var edges = document.getElementsByTagName('g');
if (edges && edges.length) {
  for (var i=0;i<edges.length;i++) {
    if (edges[i].id.substr(0,4)=='edge') {
      edges[i].setAttribute('class','edge');
    }
  }
}
]]></script>
        <defs>
                <circle id="rim" cx="0" cy="0" r="7"/>
                <circle id="rim2" cx="0" cy="0" r="3.5"/>
                <g id="zoomPlus">
                        <use xlink:href="#rim" fill="#404040">
                                <set attributeName="fill" to="#808080" begin="zoomplus.mouseover" end="zoomplus.mouseout"/>
                        </use>
                        <path d="M-4,0h8M0,-4v8" fill="none" stroke="white" stroke-width="1.5" pointer-events="none"/>
                </g>
                <g id="zoomMin">
                        <use xlink:href="#rim" fill="#404040">
                                <set attributeName="fill" to="#808080" begin="zoomminus.mouseover" end="zoomminus.mouseout"/>
                        </use>
                        <path d="M-4,0h8" fill="none" stroke="white" stroke-width="1.5" pointer-events="none"/>
                </g>
                <g id="dirArrow">
                        <path fill="none" stroke="white" stroke-width="1.5" d="M0,-3.0v7 M-2.5,-0.5L0,-3.0L2.5,-0.5"/>
                </g>
               <g id="resetDef">
                       <use xlink:href="#rim2" fill="#404040">
                               <set attributeName="fill" to="#808080" begin="reset.mouseover" end="reset.mouseout"/>
                       </use>
               </g>
        </defs>

<script type="text/javascript">
var viewWidth = 1189;
var viewHeight = 274;
var sectionId = 'dynsection-0';
</script>
<script xlink:href="svgpan.js"/>
<svg id="graph" class="graph">
<g id="viewport">
<title>numerical.cc</title>
<polygon fill="white" stroke="none" points="-4,4 -4,-270 1184.5,-270 1184.5,4 -4,4"/>
<!-- Node1 -->
<g id="node1" class="node"><title>Node1</title>
<polygon fill="#bfbfbf" stroke="black" points="333,-246.5 333,-265.5 410,-265.5 410,-246.5 333,-246.5"/>
<text text-anchor="middle" x="371.5" y="-253.5" font-family="Helvetica,sans-Serif" font-size="10.00">numerical.cc</text>
</g>
<!-- Node2 -->
<g id="node2" class="node"><title>Node2</title>
<g id="a_node2"><a xlink:href="numerical_8h.xhtml" target="_top" xlink:title="A collection of numerical expressions. ">
<polygon fill="white" stroke="black" points="151,-190.5 151,-209.5 224,-209.5 224,-190.5 151,-190.5"/>
<text text-anchor="middle" x="187.5" y="-197.5" font-family="Helvetica,sans-Serif" font-size="10.00">numerical.h</text>
</a>
</g>
</g>
<!-- Node1&#45;&gt;Node2 -->
<g id="edge1" class="edge"><title>Node1&#45;&gt;Node2</title>
<path fill="none" stroke="midnightblue" d="M342.345,-246.444C310.987,-237.241 260.969,-222.562 226.303,-212.388"/>
<polygon fill="midnightblue" stroke="midnightblue" points="227.1,-208.974 216.519,-209.516 225.129,-215.691 227.1,-208.974"/>
</g>
<!-- Node12 -->
<g id="node12" class="node"><title>Node12</title>
<g id="a_node12"><a xlink:href="error_8h.xhtml" target="_top" xlink:title="Exceptions for SCRAM. ">
<polygon fill="white" stroke="black" points="579,-190.5 579,-209.5 644,-209.5 644,-190.5 579,-190.5"/>
<text text-anchor="middle" x="611.5" y="-197.5" font-family="Helvetica,sans-Serif" font-size="10.00">src/error.h</text>
</a>
</g>
</g>
<!-- Node1&#45;&gt;Node12 -->
<g id="edge13" class="edge"><title>Node1&#45;&gt;Node12</title>
<path fill="none" stroke="midnightblue" d="M409.529,-246.444C452.906,-236.684 523.655,-220.765 568.866,-210.593"/>
<polygon fill="midnightblue" stroke="midnightblue" points="569.675,-213.998 578.663,-208.388 568.138,-207.169 569.675,-213.998"/>
</g>
<!-- Node3 -->
<g id="node3" class="node"><title>Node3</title>
<polygon fill="white" stroke="#bfbfbf" points="0,-129 0,-148 47,-148 47,-129 0,-129"/>
<text text-anchor="middle" x="23.5" y="-136" font-family="Helvetica,sans-Serif" font-size="10.00">cmath</text>
</g>
<!-- Node2&#45;&gt;Node3 -->
<g id="edge2" class="edge"><title>Node2&#45;&gt;Node3</title>
<path fill="none" stroke="midnightblue" d="M159.915,-190.457C133.013,-181.924 91.068,-168.083 55.5,-154 54.0823,-153.439 52.6363,-152.849 51.181,-152.241"/>
<polygon fill="midnightblue" stroke="midnightblue" points="52.2111,-148.872 41.6451,-148.09 49.4171,-155.29 52.2111,-148.872"/>
</g>
<!-- Node4 -->
<g id="node4" class="node"><title>Node4</title>
<polygon fill="white" stroke="#bfbfbf" points="65,-129 65,-148 128,-148 128,-129 65,-129"/>
<text text-anchor="middle" x="96.5" y="-136" font-family="Helvetica,sans-Serif" font-size="10.00">functional</text>
</g>
<!-- Node2&#45;&gt;Node4 -->
<g id="edge3" class="edge"><title>Node2&#45;&gt;Node4</title>
<path fill="none" stroke="midnightblue" d="M174.462,-190.475C159.731,-180.843 135.527,-165.017 117.991,-153.552"/>
<polygon fill="midnightblue" stroke="midnightblue" points="119.799,-150.552 109.514,-148.009 115.968,-156.411 119.799,-150.552"/>
</g>
<!-- Node5 -->
<g id="node5" class="node"><title>Node5</title>
<polygon fill="white" stroke="#bfbfbf" points="124,-6 124,-25 171,-25 171,-6 124,-6"/>
<text text-anchor="middle" x="147.5" y="-13" font-family="Helvetica,sans-Serif" font-size="10.00">vector</text>
</g>
<!-- Node2&#45;&gt;Node5 -->
<g id="edge4" class="edge"><title>Node2&#45;&gt;Node5</title>
<path fill="none" stroke="midnightblue" d="M185.046,-190.412C182.505,-181.385 178.496,-166.751 175.5,-154 165.599,-111.856 155.952,-61.9668 150.977,-35.3919"/>
<polygon fill="midnightblue" stroke="midnightblue" points="154.356,-34.4195 149.09,-25.2264 147.474,-35.6974 154.356,-34.4195"/>
</g>
<!-- Node6 -->
<g id="node6" class="node"><title>Node6</title>
<g id="a_node6"><a xlink:href="constant_8h.xhtml" target="_top" xlink:title="Constant expressions that cannot have uncertainties. ">
<polygon fill="white" stroke="black" points="184.5,-129 184.5,-148 252.5,-148 252.5,-129 184.5,-129"/>
<text text-anchor="middle" x="218.5" y="-136" font-family="Helvetica,sans-Serif" font-size="10.00">constant.h</text>
</a>
</g>
</g>
<!-- Node2&#45;&gt;Node6 -->
<g id="edge5" class="edge"><title>Node2&#45;&gt;Node6</title>
<path fill="none" stroke="midnightblue" d="M191.942,-190.475C196.453,-181.815 203.574,-168.149 209.307,-157.145"/>
<polygon fill="midnightblue" stroke="midnightblue" points="212.55,-158.495 214.067,-148.009 206.342,-155.26 212.55,-158.495"/>
</g>
<!-- Node7 -->
<g id="node7" class="node"><title>Node7</title>
<g id="a_node7"><a xlink:href="expression_8h.xhtml" target="_top" xlink:title="Provides the base class for all expressions and units for expression values. ">
<polygon fill="white" stroke="black" points="233,-67.5 233,-86.5 328,-86.5 328,-67.5 233,-67.5"/>
<text text-anchor="middle" x="280.5" y="-74.5" font-family="Helvetica,sans-Serif" font-size="10.00">src/expression.h</text>
</a>
</g>
</g>
<!-- Node2&#45;&gt;Node7 -->
<g id="edge12" class="edge"><title>Node2&#45;&gt;Node7</title>
<path fill="none" stroke="midnightblue" d="M210.922,-190.405C227.456,-183.158 248.84,-171.193 261.5,-154 273.818,-137.271 278.201,-113.448 279.732,-96.9522"/>
<polygon fill="midnightblue" stroke="midnightblue" points="283.231,-97.0896 280.4,-86.8801 276.246,-96.6268 283.231,-97.0896"/>
</g>
<!-- Node6&#45;&gt;Node7 -->
<g id="edge6" class="edge"><title>Node6&#45;&gt;Node7</title>
<path fill="none" stroke="midnightblue" d="M227.383,-128.975C236.959,-119.785 252.411,-104.956 264.186,-93.656"/>
<polygon fill="midnightblue" stroke="midnightblue" points="266.842,-95.9585 271.633,-86.5091 261.995,-90.908 266.842,-95.9585"/>
</g>
<!-- Node7&#45;&gt;Node5 -->
<g id="edge9" class="edge"><title>Node7&#45;&gt;Node5</title>
<path fill="none" stroke="midnightblue" d="M261.444,-67.4751C239.025,-57.4455 201.595,-40.7002 175.787,-29.1546"/>
<polygon fill="midnightblue" stroke="midnightblue" points="177.078,-25.8979 166.52,-25.0091 174.219,-32.2877 177.078,-25.8979"/>
</g>
<!-- Node8 -->
<g id="node8" class="node"><title>Node8</title>
<polygon fill="white" stroke="#bfbfbf" points="189.5,-6 189.5,-25 251.5,-25 251.5,-6 189.5,-6"/>
<text text-anchor="middle" x="220.5" y="-13" font-family="Helvetica,sans-Serif" font-size="10.00">algorithm</text>
</g>
<!-- Node7&#45;&gt;Node8 -->
<g id="edge7" class="edge"><title>Node7&#45;&gt;Node8</title>
<path fill="none" stroke="midnightblue" d="M271.903,-67.4751C262.636,-58.285 247.683,-43.4563 236.288,-32.156"/>
<polygon fill="midnightblue" stroke="midnightblue" points="238.646,-29.5653 229.081,-25.0091 233.717,-34.5358 238.646,-29.5653"/>
</g>
<!-- Node9 -->
<g id="node9" class="node"><title>Node9</title>
<polygon fill="white" stroke="#bfbfbf" points="269.5,-6 269.5,-25 311.5,-25 311.5,-6 269.5,-6"/>
<text text-anchor="middle" x="290.5" y="-13" font-family="Helvetica,sans-Serif" font-size="10.00">utility</text>
</g>
<!-- Node7&#45;&gt;Node9 -->
<g id="edge8" class="edge"><title>Node7&#45;&gt;Node9</title>
<path fill="none" stroke="midnightblue" d="M281.933,-67.4751C283.344,-59.0803 285.545,-45.9806 287.363,-35.1631"/>
<polygon fill="midnightblue" stroke="midnightblue" points="290.864,-35.4509 289.07,-25.0091 283.961,-34.2906 290.864,-35.4509"/>
</g>
<!-- Node10 -->
<g id="node10" class="node"><title>Node10</title>
<polygon fill="white" stroke="#bfbfbf" points="329.5,-0.5 329.5,-30.5 441.5,-30.5 441.5,-0.5 329.5,-0.5"/>
<text text-anchor="start" x="337.5" y="-18.5" font-family="Helvetica,sans-Serif" font-size="10.00">boost/icl/continuous</text>
<text text-anchor="middle" x="385.5" y="-7.5" font-family="Helvetica,sans-Serif" font-size="10.00">_interval.hpp</text>
</g>
<!-- Node7&#45;&gt;Node10 -->
<g id="edge10" class="edge"><title>Node7&#45;&gt;Node10</title>
<path fill="none" stroke="midnightblue" d="M295.544,-67.4751C310.163,-59.1907 332.869,-46.3245 351.81,-35.5913"/>
<polygon fill="midnightblue" stroke="midnightblue" points="353.779,-38.4982 360.754,-30.523 350.328,-32.4081 353.779,-38.4982"/>
</g>
<!-- Node11 -->
<g id="node11" class="node"><title>Node11</title>
<polygon fill="white" stroke="#bfbfbf" points="459.5,-6 459.5,-25 587.5,-25 587.5,-6 459.5,-6"/>
<text text-anchor="middle" x="523.5" y="-13" font-family="Helvetica,sans-Serif" font-size="10.00">boost/noncopyable.hpp</text>
</g>
<!-- Node7&#45;&gt;Node11 -->
<g id="edge11" class="edge"><title>Node7&#45;&gt;Node11</title>
<path fill="none" stroke="midnightblue" d="M315.316,-67.4751C358.352,-56.9374 431.665,-38.9863 478.815,-27.4415"/>
<polygon fill="midnightblue" stroke="midnightblue" points="479.868,-30.787 488.749,-25.0091 478.203,-23.9879 479.868,-30.787"/>
</g>
<!-- Node13 -->
<g id="node13" class="node"><title>Node13</title>
<polygon fill="white" stroke="#bfbfbf" points="309,-129 309,-148 372,-148 372,-129 309,-129"/>
<text text-anchor="middle" x="340.5" y="-136" font-family="Helvetica,sans-Serif" font-size="10.00">exception</text>
</g>
<!-- Node12&#45;&gt;Node13 -->
<g id="edge14" class="edge"><title>Node12&#45;&gt;Node13</title>
<path fill="none" stroke="midnightblue" d="M578.777,-194.149C533.857,-187.14 450.777,-172.918 381.5,-154 378.537,-153.191 375.479,-152.272 372.433,-151.3"/>
<polygon fill="midnightblue" stroke="midnightblue" points="373.463,-147.954 362.869,-148.079 371.228,-154.588 373.463,-147.954"/>
</g>
<!-- Node14 -->
<g id="node14" class="node"><title>Node14</title>
<polygon fill="white" stroke="#bfbfbf" points="390.5,-129 390.5,-148 434.5,-148 434.5,-129 390.5,-129"/>
<text text-anchor="middle" x="412.5" y="-136" font-family="Helvetica,sans-Serif" font-size="10.00">string</text>
</g>
<!-- Node12&#45;&gt;Node14 -->
<g id="edge15" class="edge"><title>Node12&#45;&gt;Node14</title>
<path fill="none" stroke="midnightblue" d="M578.77,-192.031C544.525,-184.325 489.457,-170.755 443.5,-154 441.888,-153.412 440.246,-152.773 438.6,-152.1"/>
<polygon fill="midnightblue" stroke="midnightblue" points="439.89,-148.845 429.327,-148.026 437.074,-155.253 439.89,-148.845"/>
</g>
<!-- Node15 -->
<g id="node15" class="node"><title>Node15</title>
<polygon fill="white" stroke="#bfbfbf" points="452.5,-129 452.5,-148 598.5,-148 598.5,-129 452.5,-129"/>
<text text-anchor="middle" x="525.5" y="-136" font-family="Helvetica,sans-Serif" font-size="10.00">boost/current_function.hpp</text>
</g>
<!-- Node12&#45;&gt;Node15 -->
<g id="edge16" class="edge"><title>Node12&#45;&gt;Node15</title>
<path fill="none" stroke="midnightblue" d="M599.178,-190.475C585.384,-180.931 562.801,-165.307 546.268,-153.868"/>
<polygon fill="midnightblue" stroke="midnightblue" points="548.014,-150.82 537.799,-148.009 544.031,-156.577 548.014,-150.82"/>
</g>
<!-- Node16 -->
<g id="node16" class="node"><title>Node16</title>
<polygon fill="white" stroke="#bfbfbf" points="616.5,-129 616.5,-148 780.5,-148 780.5,-129 616.5,-129"/>
<text text-anchor="middle" x="698.5" y="-136" font-family="Helvetica,sans-Serif" font-size="10.00">boost/exception/exception.hpp</text>
</g>
<!-- Node12&#45;&gt;Node16 -->
<g id="edge17" class="edge"><title>Node12&#45;&gt;Node16</title>
<path fill="none" stroke="midnightblue" d="M623.965,-190.475C637.919,-180.931 660.765,-165.307 677.491,-153.868"/>
<polygon fill="midnightblue" stroke="midnightblue" points="679.78,-156.543 686.058,-148.009 675.828,-150.765 679.78,-156.543"/>
</g>
<!-- Node17 -->
<g id="node17" class="node"><title>Node17</title>
<polygon fill="white" stroke="#bfbfbf" points="798.5,-129 798.5,-148 932.5,-148 932.5,-129 798.5,-129"/>
<text text-anchor="middle" x="865.5" y="-136" font-family="Helvetica,sans-Serif" font-size="10.00">boost/exception/info.hpp</text>
</g>
<!-- Node12&#45;&gt;Node17 -->
<g id="edge18" class="edge"><title>Node12&#45;&gt;Node17</title>
<path fill="none" stroke="midnightblue" d="M644.186,-191.343C688.56,-180.948 768.127,-162.31 818.792,-150.441"/>
<polygon fill="midnightblue" stroke="midnightblue" points="819.893,-153.778 828.831,-148.09 818.296,-146.963 819.893,-153.778"/>
</g>
<!-- Node18 -->
<g id="node18" class="node"><title>Node18</title>
<polygon fill="white" stroke="#bfbfbf" points="951,-123.5 951,-153.5 1064,-153.5 1064,-123.5 951,-123.5"/>
<text text-anchor="start" x="959" y="-141.5" font-family="Helvetica,sans-Serif" font-size="10.00">boost/exception/info</text>
<text text-anchor="middle" x="1007.5" y="-130.5" font-family="Helvetica,sans-Serif" font-size="10.00">_tuple.hpp</text>
</g>
<!-- Node12&#45;&gt;Node18 -->
<g id="edge19" class="edge"><title>Node12&#45;&gt;Node18</title>
<path fill="none" stroke="midnightblue" d="M644.424,-195.403C702.263,-188.89 826.061,-174.094 940.68,-154.055"/>
<polygon fill="midnightblue" stroke="midnightblue" points="941.438,-157.475 950.676,-152.289 940.22,-150.582 941.438,-157.475"/>
</g>
<!-- Node19 -->
<g id="node19" class="node"><title>Node19</title>
<g id="a_node19"><a xlink:href="source__info_8h.xhtml" target="_top" xlink:title="Helper facilities to get source file information. ">
<polygon fill="white" stroke="black" points="1082.5,-129 1082.5,-148 1180.5,-148 1180.5,-129 1082.5,-129"/>
<text text-anchor="middle" x="1131.5" y="-136" font-family="Helvetica,sans-Serif" font-size="10.00">ext/source_info.h</text>
</a>
</g>
</g>
<!-- Node12&#45;&gt;Node19 -->
<g id="edge20" class="edge"><title>Node12&#45;&gt;Node19</title>
<path fill="none" stroke="midnightblue" d="M644.209,-197.479C720.105,-193.588 913.882,-181.57 1073.5,-154 1079.27,-153.004 1085.31,-151.744 1091.22,-150.383"/>
<polygon fill="midnightblue" stroke="midnightblue" points="1092.08,-153.777 1100.98,-148.029 1090.44,-146.972 1092.08,-153.777"/>
</g>
</g>
</svg>
        <g id="navigator" transform="translate(0 0)" fill="#404254">
                <rect fill="#f2f5e9" fill-opacity="0.5" stroke="#606060" stroke-width=".5" x="0" y="0" width="60" height="60"/>
                <use id="zoomplus" xlink:href="#zoomPlus" x="17" y="9" onmousedown="handleZoom(evt,'in')"/>
                <use id="zoomminus" xlink:href="#zoomMin" x="42" y="9" onmousedown="handleZoom(evt,'out')"/>
                <use id="reset" xlink:href="#resetDef" x="30" y="36" onmousedown="handleReset()"/>
                <g id="arrowUp" xlink:href="#dirArrow" transform="translate(30 24)" onmousedown="handlePan(0,-1)">
                  <use xlink:href="#rim" fill="#404040">
                        <set attributeName="fill" to="#808080" begin="arrowUp.mouseover" end="arrowUp.mouseout"/>
                  </use>
                  <path fill="none" stroke="white" stroke-width="1.5" d="M0,-3.0v7 M-2.5,-0.5L0,-3.0L2.5,-0.5"/>
                </g>
                <g id="arrowRight" xlink:href="#dirArrow" transform="rotate(90) translate(36 -43)" onmousedown="handlePan(1,0)">
                  <use xlink:href="#rim" fill="#404040">
                        <set attributeName="fill" to="#808080" begin="arrowRight.mouseover" end="arrowRight.mouseout"/>
                  </use>
                  <path fill="none" stroke="white" stroke-width="1.5" d="M0,-3.0v7 M-2.5,-0.5L0,-3.0L2.5,-0.5"/>
                </g>
                <g id="arrowDown" xlink:href="#dirArrow" transform="rotate(180) translate(-30 -48)" onmousedown="handlePan(0,1)">
                  <use xlink:href="#rim" fill="#404040">
                        <set attributeName="fill" to="#808080" begin="arrowDown.mouseover" end="arrowDown.mouseout"/>
                  </use>
                  <path fill="none" stroke="white" stroke-width="1.5" d="M0,-3.0v7 M-2.5,-0.5L0,-3.0L2.5,-0.5"/>
                </g>
                <g id="arrowLeft" xlink:href="#dirArrow" transform="rotate(270) translate(-36 17)" onmousedown="handlePan(-1,0)">
                  <use xlink:href="#rim" fill="#404040">
                        <set attributeName="fill" to="#808080" begin="arrowLeft.mouseover" end="arrowLeft.mouseout"/>
                  </use>
                  <path fill="none" stroke="white" stroke-width="1.5" d="M0,-3.0v7 M-2.5,-0.5L0,-3.0L2.5,-0.5"/>
                </g>
        </g>
        <svg viewBox="0 0 15 15" width="100%" height="30px" preserveAspectRatio="xMaxYMin meet">
         <g id="arrow_out" transform="scale(0.3 0.3)">
          <a xlink:href="numerical_8cc__incl_org.svg" target="_base">
           <rect id="button" ry="5" rx="5" y="6" x="6" height="38" width="38"
                fill="#f2f5e9" fill-opacity="0.5" stroke="#606060" stroke-width="1.0"/>
           <path id="arrow"
             d="M 11.500037,31.436501 C 11.940474,20.09759 22.043105,11.32322 32.158766,21.979434 L 37.068811,17.246167 C 37.068811,17.246167 37.088388,32 37.088388,32 L 22.160133,31.978069 C 22.160133,31.978069 26.997745,27.140456 26.997745,27.140456 C 18.528582,18.264221 13.291696,25.230495 11.500037,31.436501 z"
             style="fill:#404040;"/>
          </a>
         </g>
        </svg>
</svg>
