<?xml version="1.0" encoding="UTF-8" standalone="no"?>
<!DOCTYPE svg PUBLIC "-//W3C//DTD SVG 1.1//EN"
 "http://www.w3.org/Graphics/SVG/1.1/DTD/svg11.dtd">
<!-- Generated by graphviz version 2.38.0 (20140413.2041)
 -->
<!-- Title: parameter.cc Pages: 1 -->
<!--zoomable 274 -->
<svg id="main" version="1.1" xmlns="http://www.w3.org/2000/svg" xmlns:xlink="http://www.w3.org/1999/xlink" xml:space="preserve" onload="init(evt)">
<style type="text/css"><![CDATA[
.edge:hover path { stroke: red; }
.edge:hover polygon { stroke: red; fill: red; }
]]></style>
<script type="text/javascript"><![CDATA[
var edges = document.getElementsByTagName('g');
if (edges && edges.length) {
  for (var i=0;i<edges.length;i++) {
    if (edges[i].id.substr(0,4)=='edge') {
      edges[i].setAttribute('class','edge');
    }
  }
}
]]></script>
        <defs>
                <circle id="rim" cx="0" cy="0" r="7"/>
                <circle id="rim2" cx="0" cy="0" r="3.5"/>
                <g id="zoomPlus">
                        <use xlink:href="#rim" fill="#404040">
                                <set attributeName="fill" to="#808080" begin="zoomplus.mouseover" end="zoomplus.mouseout"/>
                        </use>
                        <path d="M-4,0h8M0,-4v8" fill="none" stroke="white" stroke-width="1.5" pointer-events="none"/>
                </g>
                <g id="zoomMin">
                        <use xlink:href="#rim" fill="#404040">
                                <set attributeName="fill" to="#808080" begin="zoomminus.mouseover" end="zoomminus.mouseout"/>
                        </use>
                        <path d="M-4,0h8" fill="none" stroke="white" stroke-width="1.5" pointer-events="none"/>
                </g>
                <g id="dirArrow">
                        <path fill="none" stroke="white" stroke-width="1.5" d="M0,-3.0v7 M-2.5,-0.5L0,-3.0L2.5,-0.5"/>
                </g>
               <g id="resetDef">
                       <use xlink:href="#rim2" fill="#404040">
                               <set attributeName="fill" to="#808080" begin="reset.mouseover" end="reset.mouseout"/>
                       </use>
               </g>
        </defs>

<script type="text/javascript">
var viewWidth = 1933;
var viewHeight = 274;
var sectionId = 'dynsection-0';
</script>
<script xlink:href="svgpan.js"/>
<svg id="graph" class="graph">
<g id="viewport">
<title>parameter.cc</title>
<polygon fill="white" stroke="none" points="-4,4 -4,-270 1929,-270 1929,4 -4,4"/>
<!-- Node1 -->
<g id="node1" class="node"><title>Node1</title>
<polygon fill="#bfbfbf" stroke="black" points="1231,-246.5 1231,-265.5 1311,-265.5 1311,-246.5 1231,-246.5"/>
<text text-anchor="middle" x="1271" y="-253.5" font-family="Helvetica,sans-Serif" font-size="10.00">parameter.cc</text>
</g>
<!-- Node2 -->
<g id="node2" class="node"><title>Node2</title>
<g id="a_node2"><a xlink:href="parameter_8h.xhtml" target="_top" xlink:title="Parameter expressions that act like a shareable variable. ">
<polygon fill="white" stroke="black" points="1307,-190.5 1307,-209.5 1383,-209.5 1383,-190.5 1307,-190.5"/>
<text text-anchor="middle" x="1345" y="-197.5" font-family="Helvetica,sans-Serif" font-size="10.00">parameter.h</text>
</a>
</g>
</g>
<!-- Node1&#45;&gt;Node2 -->
<g id="edge1" class="edge"><title>Node1&#45;&gt;Node2</title>
<path fill="none" stroke="midnightblue" d="M1282.89,-246.324C1294.15,-238.107 1311.29,-225.602 1324.71,-215.807"/>
<polygon fill="midnightblue" stroke="midnightblue" points="1326.88,-218.556 1332.89,-209.834 1322.75,-212.901 1326.88,-218.556"/>
</g>
<!-- Node17 -->
<g id="node17" class="node"><title>Node17</title>
<g id="a_node17"><a xlink:href="error_8h.xhtml" target="_top" xlink:title="Exceptions for SCRAM. ">
<polygon fill="white" stroke="black" points="469,-73 469,-92 517,-92 517,-73 469,-73"/>
<text text-anchor="middle" x="493" y="-80" font-family="Helvetica,sans-Serif" font-size="10.00">error.h</text>
</a>
</g>
</g>
<!-- Node1&#45;&gt;Node17 -->
<g id="edge38" class="edge"><title>Node1&#45;&gt;Node17</title>
<path fill="none" stroke="midnightblue" d="M1230.67,-249.497C1117.55,-233.425 788.389,-182.296 526,-98 524.079,-97.3827 522.118,-96.6908 520.157,-95.953"/>
<polygon fill="midnightblue" stroke="midnightblue" points="521.131,-92.5695 510.551,-92.0126 518.475,-99.0459 521.131,-92.5695"/>
</g>
<!-- Node3 -->
<g id="node3" class="node"><title>Node3</title>
<polygon fill="white" stroke="#bfbfbf" points="1856.5,-73 1856.5,-92 1905.5,-92 1905.5,-73 1856.5,-73"/>
<text text-anchor="middle" x="1881" y="-80" font-family="Helvetica,sans-Serif" font-size="10.00">cstdint</text>
</g>
<!-- Node2&#45;&gt;Node3 -->
<g id="edge2" class="edge"><title>Node2&#45;&gt;Node3</title>
<path fill="none" stroke="midnightblue" d="M1383.2,-193.317C1467.18,-180.374 1673.73,-146.062 1842,-98 1844.64,-97.2449 1847.36,-96.3937 1850.08,-95.4918"/>
<polygon fill="midnightblue" stroke="midnightblue" points="1851.48,-98.7104 1859.74,-92.0841 1849.15,-92.1087 1851.48,-98.7104"/>
</g>
<!-- Node4 -->
<g id="node4" class="node"><title>Node4</title>
<g id="a_node4"><a xlink:href="element_8h.xhtml" target="_top" xlink:title="Base/mixin classes, structs, and properties common to all MEF classes/constructs. ...">
<polygon fill="white" stroke="black" points="1228.5,-134.5 1228.5,-153.5 1293.5,-153.5 1293.5,-134.5 1228.5,-134.5"/>
<text text-anchor="middle" x="1261" y="-141.5" font-family="Helvetica,sans-Serif" font-size="10.00">element.h</text>
</a>
</g>
</g>
<!-- Node2&#45;&gt;Node4 -->
<g id="edge3" class="edge"><title>Node2&#45;&gt;Node4</title>
<path fill="none" stroke="midnightblue" d="M1331.5,-190.324C1318.4,-181.9 1298.29,-168.971 1282.89,-159.074"/>
<polygon fill="midnightblue" stroke="midnightblue" points="1284.77,-156.118 1274.46,-153.655 1280.98,-162.006 1284.77,-156.118"/>
</g>
<!-- Node29 -->
<g id="node29" class="node"><title>Node29</title>
<g id="a_node29"><a xlink:href="expression_8h.xhtml" target="_top" xlink:title="Provides the base class for all expressions and units for expression values. ">
<polygon fill="white" stroke="black" points="1494.5,-73 1494.5,-92 1571.5,-92 1571.5,-73 1494.5,-73"/>
<text text-anchor="middle" x="1533" y="-80" font-family="Helvetica,sans-Serif" font-size="10.00">expression.h</text>
</a>
</g>
</g>
<!-- Node2&#45;&gt;Node29 -->
<g id="edge32" class="edge"><title>Node2&#45;&gt;Node29</title>
<path fill="none" stroke="midnightblue" d="M1359.13,-190.319C1391.46,-170.454 1471.07,-121.55 1510.34,-97.4219"/>
<polygon fill="midnightblue" stroke="midnightblue" points="1512.27,-100.341 1518.96,-92.1245 1508.61,-94.377 1512.27,-100.341"/>
</g>
<!-- Node4&#45;&gt;Node3 -->
<g id="edge4" class="edge"><title>Node4&#45;&gt;Node3</title>
<path fill="none" stroke="midnightblue" d="M1293.58,-143.625C1382.61,-144.661 1636.98,-143.121 1842,-98 1845.08,-97.3231 1848.23,-96.4563 1851.36,-95.4839"/>
<polygon fill="midnightblue" stroke="midnightblue" points="1852.77,-98.6979 1861.08,-92.121 1850.49,-92.0826 1852.77,-98.6979"/>
</g>
<!-- Node5 -->
<g id="node5" class="node"><title>Node5</title>
<polygon fill="white" stroke="#bfbfbf" points="1229.5,-73 1229.5,-92 1292.5,-92 1292.5,-73 1229.5,-73"/>
<text text-anchor="middle" x="1261" y="-80" font-family="Helvetica,sans-Serif" font-size="10.00">functional</text>
</g>
<!-- Node4&#45;&gt;Node5 -->
<g id="edge5" class="edge"><title>Node4&#45;&gt;Node5</title>
<path fill="none" stroke="midnightblue" d="M1261,-134.475C1261,-126.08 1261,-112.981 1261,-102.163"/>
<polygon fill="midnightblue" stroke="midnightblue" points="1264.5,-102.009 1261,-92.0091 1257.5,-102.009 1264.5,-102.009"/>
</g>
<!-- Node6 -->
<g id="node6" class="node"><title>Node6</title>
<polygon fill="white" stroke="#bfbfbf" points="1419.5,-73 1419.5,-92 1476.5,-92 1476.5,-73 1419.5,-73"/>
<text text-anchor="middle" x="1448" y="-80" font-family="Helvetica,sans-Serif" font-size="10.00">memory</text>
</g>
<!-- Node4&#45;&gt;Node6 -->
<g id="edge6" class="edge"><title>Node4&#45;&gt;Node6</title>
<path fill="none" stroke="midnightblue" d="M1291.45,-134.492C1321.71,-125.876 1369.34,-111.878 1410,-98 1412.26,-97.2302 1414.58,-96.4114 1416.91,-95.5698"/>
<polygon fill="midnightblue" stroke="midnightblue" points="1418.24,-98.8098 1426.39,-92.0496 1415.8,-92.247 1418.24,-98.8098"/>
</g>
<!-- Node7 -->
<g id="node7" class="node"><title>Node7</title>
<polygon fill="white" stroke="#bfbfbf" points="1744.5,-73 1744.5,-92 1799.5,-92 1799.5,-73 1744.5,-73"/>
<text text-anchor="middle" x="1772" y="-80" font-family="Helvetica,sans-Serif" font-size="10.00">optional</text>
</g>
<!-- Node4&#45;&gt;Node7 -->
<g id="edge7" class="edge"><title>Node4&#45;&gt;Node7</title>
<path fill="none" stroke="midnightblue" d="M1293.53,-142.516C1370.37,-140.805 1568.74,-133.053 1730,-98 1733.5,-97.2396 1737.11,-96.2784 1740.67,-95.2142"/>
<polygon fill="midnightblue" stroke="midnightblue" points="1742.05,-98.4459 1750.48,-92.0235 1739.89,-91.7894 1742.05,-98.4459"/>
</g>
<!-- Node8 -->
<g id="node8" class="node"><title>Node8</title>
<polygon fill="white" stroke="#bfbfbf" points="828,-6 828,-25 872,-25 872,-6 828,-6"/>
<text text-anchor="middle" x="850" y="-13" font-family="Helvetica,sans-Serif" font-size="10.00">string</text>
</g>
<!-- Node4&#45;&gt;Node8 -->
<g id="edge8" class="edge"><title>Node4&#45;&gt;Node8</title>
<path fill="none" stroke="midnightblue" d="M1228.39,-136.535C1222.93,-135.59 1217.32,-134.701 1212,-134 1162.6,-127.491 798.79,-134.62 765,-98 755.657,-87.8741 758.186,-78.9747 765,-67 768.41,-61.0075 801.022,-42.6445 824.837,-29.7996"/>
<polygon fill="midnightblue" stroke="midnightblue" points="826.604,-32.824 833.767,-25.0179 823.299,-26.653 826.604,-32.824"/>
</g>
<!-- Node9 -->
<g id="node9" class="node"><title>Node9</title>
<polygon fill="white" stroke="#bfbfbf" points="535.5,-73 535.5,-92 604.5,-92 604.5,-73 535.5,-73"/>
<text text-anchor="middle" x="570" y="-80" font-family="Helvetica,sans-Serif" font-size="10.00">string_view</text>
</g>
<!-- Node4&#45;&gt;Node9 -->
<g id="edge9" class="edge"><title>Node4&#45;&gt;Node9</title>
<path fill="none" stroke="midnightblue" d="M1228.4,-136.442C1222.94,-135.508 1217.32,-134.647 1212,-134 947.684,-101.891 875.506,-148.085 614,-98 610.026,-97.2388 605.914,-96.2167 601.872,-95.0658"/>
<polygon fill="midnightblue" stroke="midnightblue" points="602.677,-91.6506 592.089,-92.0142 600.593,-98.3331 602.677,-91.6506"/>
</g>
<!-- Node10 -->
<g id="node10" class="node"><title>Node10</title>
<polygon fill="white" stroke="#bfbfbf" points="623,-73 623,-92 691,-92 691,-73 623,-73"/>
<text text-anchor="middle" x="657" y="-80" font-family="Helvetica,sans-Serif" font-size="10.00">type_traits</text>
</g>
<!-- Node4&#45;&gt;Node10 -->
<g id="edge10" class="edge"><title>Node4&#45;&gt;Node10</title>
<path fill="none" stroke="midnightblue" d="M1228.4,-136.491C1222.94,-135.551 1217.32,-134.675 1212,-134 987.898,-105.552 927.164,-138.916 705,-98 700.545,-97.1796 695.919,-96.0937 691.374,-94.8842"/>
<polygon fill="midnightblue" stroke="midnightblue" points="692.232,-91.4891 681.654,-92.0937 690.3,-98.2173 692.232,-91.4891"/>
</g>
<!-- Node11 -->
<g id="node11" class="node"><title>Node11</title>
<polygon fill="white" stroke="#bfbfbf" points="1271.5,-6 1271.5,-25 1318.5,-25 1318.5,-6 1271.5,-6"/>
<text text-anchor="middle" x="1295" y="-13" font-family="Helvetica,sans-Serif" font-size="10.00">vector</text>
</g>
<!-- Node4&#45;&gt;Node11 -->
<g id="edge11" class="edge"><title>Node4&#45;&gt;Node11</title>
<path fill="none" stroke="midnightblue" d="M1228.39,-136.544C1222.93,-135.598 1217.32,-134.706 1212,-134 1163.81,-127.601 808.927,-133.758 776,-98 766.667,-87.8647 766.624,-77.0958 776,-67 812.847,-27.3226 1209.46,-44.0798 1262,-31 1264.36,-30.4133 1266.76,-29.6712 1269.13,-28.8343"/>
<polygon fill="midnightblue" stroke="midnightblue" points="1270.64,-32.0027 1278.6,-25.0157 1268.02,-25.511 1270.64,-32.0027"/>
</g>
<!-- Node12 -->
<g id="node12" class="node"><title>Node12</title>
<polygon fill="white" stroke="#bfbfbf" points="785,-67.5 785,-97.5 905,-97.5 905,-67.5 785,-67.5"/>
<text text-anchor="start" x="793" y="-85.5" font-family="Helvetica,sans-Serif" font-size="10.00">boost/iterator/iterator</text>
<text text-anchor="middle" x="845" y="-74.5" font-family="Helvetica,sans-Serif" font-size="10.00">_facade.hpp</text>
</g>
<!-- Node4&#45;&gt;Node12 -->
<g id="edge12" class="edge"><title>Node4&#45;&gt;Node12</title>
<path fill="none" stroke="midnightblue" d="M1228.36,-136.717C1222.91,-135.75 1217.3,-134.806 1212,-134 1083.33,-114.43 1047.37,-119.471 915.255,-98.1157"/>
<polygon fill="midnightblue" stroke="midnightblue" points="915.587,-94.6236 905.153,-96.4621 914.456,-101.532 915.587,-94.6236"/>
</g>
<!-- Node13 -->
<g id="node13" class="node"><title>Node13</title>
<polygon fill="white" stroke="#bfbfbf" points="923,-67.5 923,-97.5 1063,-97.5 1063,-67.5 923,-67.5"/>
<text text-anchor="start" x="931" y="-85.5" font-family="Helvetica,sans-Serif" font-size="10.00">boost/multi_index/hashed</text>
<text text-anchor="middle" x="993" y="-74.5" font-family="Helvetica,sans-Serif" font-size="10.00">_index.hpp</text>
</g>
<!-- Node4&#45;&gt;Node13 -->
<g id="edge13" class="edge"><title>Node4&#45;&gt;Node13</title>
<path fill="none" stroke="midnightblue" d="M1228.41,-135.764C1188.37,-126.875 1119.25,-111.529 1066.23,-99.7584"/>
<polygon fill="midnightblue" stroke="midnightblue" points="1066.71,-96.2805 1056.19,-97.5298 1065.2,-103.114 1066.71,-96.2805"/>
</g>
<!-- Node14 -->
<g id="node14" class="node"><title>Node14</title>
<polygon fill="white" stroke="#bfbfbf" points="1081,-67.5 1081,-97.5 1211,-97.5 1211,-67.5 1081,-67.5"/>
<text text-anchor="start" x="1089" y="-85.5" font-family="Helvetica,sans-Serif" font-size="10.00">boost/multi_index/mem</text>
<text text-anchor="middle" x="1146" y="-74.5" font-family="Helvetica,sans-Serif" font-size="10.00">_fun.hpp</text>
</g>
<!-- Node4&#45;&gt;Node14 -->
<g id="edge14" class="edge"><title>Node4&#45;&gt;Node14</title>
<path fill="none" stroke="midnightblue" d="M1244.52,-134.475C1228.29,-126.078 1202.96,-112.973 1182.05,-102.153"/>
<polygon fill="midnightblue" stroke="midnightblue" points="1183.59,-99.0097 1173.1,-97.523 1180.38,-105.227 1183.59,-99.0097"/>
</g>
<!-- Node15 -->
<g id="node15" class="node"><title>Node15</title>
<polygon fill="white" stroke="#bfbfbf" points="1607,-6 1607,-25 1779,-25 1779,-6 1607,-6"/>
<text text-anchor="middle" x="1693" y="-13" font-family="Helvetica,sans-Serif" font-size="10.00">boost/multi_index_container.hpp</text>
</g>
<!-- Node4&#45;&gt;Node15 -->
<g id="edge15" class="edge"><title>Node4&#45;&gt;Node15</title>
<path fill="none" stroke="midnightblue" d="M1293.84,-142.091C1390.7,-139.075 1670.08,-127.841 1697,-98 1712.31,-81.0295 1706.73,-53.0794 1700.52,-34.7291"/>
<polygon fill="midnightblue" stroke="midnightblue" points="1703.73,-33.3214 1696.93,-25.1896 1697.17,-35.7818 1703.73,-33.3214"/>
</g>
<!-- Node16 -->
<g id="node16" class="node"><title>Node16</title>
<polygon fill="white" stroke="#bfbfbf" points="1797,-6 1797,-25 1925,-25 1925,-6 1797,-6"/>
<text text-anchor="middle" x="1861" y="-13" font-family="Helvetica,sans-Serif" font-size="10.00">boost/noncopyable.hpp</text>
</g>
<!-- Node4&#45;&gt;Node16 -->
<g id="edge16" class="edge"><title>Node4&#45;&gt;Node16</title>
<path fill="none" stroke="midnightblue" d="M1293.65,-141.979C1404.78,-138.278 1763.82,-124.373 1808,-98 1831.97,-83.6939 1847.09,-53.8603 1854.79,-34.5307"/>
<polygon fill="midnightblue" stroke="midnightblue" points="1858.11,-35.631 1858.31,-25.0381 1851.55,-33.1946 1858.11,-35.631"/>
</g>
<!-- Node4&#45;&gt;Node17 -->
<g id="edge17" class="edge"><title>Node4&#45;&gt;Node17</title>
<path fill="none" stroke="midnightblue" d="M1228.41,-136.407C1222.95,-135.477 1217.33,-134.626 1212,-134 908.78,-98.3484 823.043,-168.559 526,-98 523.637,-97.4387 521.232,-96.7143 518.852,-95.8891"/>
<polygon fill="midnightblue" stroke="midnightblue" points="519.965,-92.5647 509.381,-92.0898 517.359,-99.0614 519.965,-92.5647"/>
</g>
<!-- Node24 -->
<g id="node24" class="node"><title>Node24</title>
<g id="a_node24"><a xlink:href="linear__set_8h.xhtml" target="_top" xlink:title="Implementation of a vector&#45;based set for a small number of entries. ">
<polygon fill="white" stroke="black" points="1311,-73 1311,-92 1401,-92 1401,-73 1311,-73"/>
<text text-anchor="middle" x="1356" y="-80" font-family="Helvetica,sans-Serif" font-size="10.00">ext/linear_set.h</text>
</a>
</g>
</g>
<!-- Node4&#45;&gt;Node24 -->
<g id="edge25" class="edge"><title>Node4&#45;&gt;Node24</title>
<path fill="none" stroke="midnightblue" d="M1274.61,-134.475C1290.06,-124.799 1315.49,-108.872 1333.82,-97.3941"/>
<polygon fill="midnightblue" stroke="midnightblue" points="1335.8,-100.283 1342.41,-92.0091 1332.08,-94.3509 1335.8,-100.283"/>
</g>
<!-- Node28 -->
<g id="node28" class="node"><title>Node28</title>
<g id="a_node28"><a xlink:href="multi__index_8h.xhtml" target="_top" xlink:title="Helper functions to boost multi_index_container. ">
<polygon fill="white" stroke="black" points="1590,-73 1590,-92 1688,-92 1688,-73 1590,-73"/>
<text text-anchor="middle" x="1639" y="-80" font-family="Helvetica,sans-Serif" font-size="10.00">ext/multi_index.h</text>
</a>
</g>
</g>
<!-- Node4&#45;&gt;Node28 -->
<g id="edge30" class="edge"><title>Node4&#45;&gt;Node28</title>
<path fill="none" stroke="midnightblue" d="M1293.79,-139.481C1351.8,-133.008 1476.21,-118.022 1580,-98 1585.44,-96.9511 1591.13,-95.7226 1596.73,-94.4322"/>
<polygon fill="midnightblue" stroke="midnightblue" points="1597.75,-97.7879 1606.67,-92.0683 1596.13,-90.978 1597.75,-97.7879"/>
</g>
<!-- Node17&#45;&gt;Node8 -->
<g id="edge19" class="edge"><title>Node17&#45;&gt;Node8</title>
<path fill="none" stroke="midnightblue" d="M509.781,-72.9985C514.878,-70.7272 520.569,-68.4921 526,-67 652.514,-32.2414 692.904,-67.2434 819,-31 820.927,-30.4461 822.885,-29.7862 824.832,-29.0579"/>
<polygon fill="midnightblue" stroke="midnightblue" points="826.462,-32.1675 834.283,-25.0203 823.712,-25.7303 826.462,-32.1675"/>
</g>
<!-- Node18 -->
<g id="node18" class="node"><title>Node18</title>
<polygon fill="white" stroke="#bfbfbf" points="400.5,-6 400.5,-25 463.5,-25 463.5,-6 400.5,-6"/>
<text text-anchor="middle" x="432" y="-13" font-family="Helvetica,sans-Serif" font-size="10.00">exception</text>
</g>
<!-- Node17&#45;&gt;Node18 -->
<g id="edge18" class="edge"><title>Node17&#45;&gt;Node18</title>
<path fill="none" stroke="midnightblue" d="M484.773,-72.7338C475.17,-62.5004 459.088,-45.3642 447.196,-32.6924"/>
<polygon fill="midnightblue" stroke="midnightblue" points="449.492,-30.0241 440.096,-25.1273 444.387,-34.8143 449.492,-30.0241"/>
</g>
<!-- Node19 -->
<g id="node19" class="node"><title>Node19</title>
<polygon fill="white" stroke="#bfbfbf" points="482,-6 482,-25 628,-25 628,-6 482,-6"/>
<text text-anchor="middle" x="555" y="-13" font-family="Helvetica,sans-Serif" font-size="10.00">boost/current_function.hpp</text>
</g>
<!-- Node17&#45;&gt;Node19 -->
<g id="edge20" class="edge"><title>Node17&#45;&gt;Node19</title>
<path fill="none" stroke="midnightblue" d="M501.362,-72.7338C511.123,-62.5004 527.468,-45.3642 539.555,-32.6924"/>
<polygon fill="midnightblue" stroke="midnightblue" points="542.401,-34.7792 546.771,-25.1273 537.336,-29.9477 542.401,-34.7792"/>
</g>
<!-- Node20 -->
<g id="node20" class="node"><title>Node20</title>
<polygon fill="white" stroke="#bfbfbf" points="646,-6 646,-25 810,-25 810,-6 646,-6"/>
<text text-anchor="middle" x="728" y="-13" font-family="Helvetica,sans-Serif" font-size="10.00">boost/exception/exception.hpp</text>
</g>
<!-- Node17&#45;&gt;Node20 -->
<g id="edge21" class="edge"><title>Node17&#45;&gt;Node20</title>
<path fill="none" stroke="midnightblue" d="M510.937,-72.9623C515.763,-70.8466 521.026,-68.7008 526,-67 575.61,-50.0356 633.847,-36.0838 675.01,-27.1764"/>
<polygon fill="midnightblue" stroke="midnightblue" points="675.783,-30.5904 684.83,-25.0771 674.319,-23.7451 675.783,-30.5904"/>
</g>
<!-- Node21 -->
<g id="node21" class="node"><title>Node21</title>
<polygon fill="white" stroke="#bfbfbf" points="0,-6 0,-25 134,-25 134,-6 0,-6"/>
<text text-anchor="middle" x="67" y="-13" font-family="Helvetica,sans-Serif" font-size="10.00">boost/exception/info.hpp</text>
</g>
<!-- Node17&#45;&gt;Node21 -->
<g id="edge22" class="edge"><title>Node17&#45;&gt;Node21</title>
<path fill="none" stroke="midnightblue" d="M468.755,-78.386C411.788,-70.9857 265.008,-51.4303 143,-31 135.539,-29.7506 127.682,-28.3491 119.965,-26.923"/>
<polygon fill="midnightblue" stroke="midnightblue" points="120.419,-23.4473 109.945,-25.0447 119.129,-30.3274 120.419,-23.4473"/>
</g>
<!-- Node22 -->
<g id="node22" class="node"><title>Node22</title>
<polygon fill="white" stroke="#bfbfbf" points="152.5,-0.5 152.5,-30.5 265.5,-30.5 265.5,-0.5 152.5,-0.5"/>
<text text-anchor="start" x="160.5" y="-18.5" font-family="Helvetica,sans-Serif" font-size="10.00">boost/exception/info</text>
<text text-anchor="middle" x="209" y="-7.5" font-family="Helvetica,sans-Serif" font-size="10.00">_tuple.hpp</text>
</g>
<!-- Node17&#45;&gt;Node22 -->
<g id="edge23" class="edge"><title>Node17&#45;&gt;Node22</title>
<path fill="none" stroke="midnightblue" d="M468.786,-75.9581C426.474,-66.2739 337.691,-45.9539 275.758,-31.7792"/>
<polygon fill="midnightblue" stroke="midnightblue" points="276.206,-28.2913 265.677,-29.4719 274.644,-35.1148 276.206,-28.2913"/>
</g>
<!-- Node23 -->
<g id="node23" class="node"><title>Node23</title>
<g id="a_node23"><a xlink:href="source__info_8h.xhtml" target="_top" xlink:title="Helper facilities to get source file information. ">
<polygon fill="white" stroke="black" points="284,-6 284,-25 382,-25 382,-6 284,-6"/>
<text text-anchor="middle" x="333" y="-13" font-family="Helvetica,sans-Serif" font-size="10.00">ext/source_info.h</text>
</a>
</g>
</g>
<!-- Node17&#45;&gt;Node23 -->
<g id="edge24" class="edge"><title>Node17&#45;&gt;Node23</title>
<path fill="none" stroke="midnightblue" d="M471.753,-72.8685C444.063,-61.6193 395.442,-41.8673 363.733,-28.9853"/>
<polygon fill="midnightblue" stroke="midnightblue" points="364.662,-25.5849 354.08,-25.0637 362.027,-32.0701 364.662,-25.5849"/>
</g>
<!-- Node24&#45;&gt;Node11 -->
<g id="edge29" class="edge"><title>Node24&#45;&gt;Node11</title>
<path fill="none" stroke="midnightblue" d="M1347.77,-72.7338C1338.17,-62.5004 1322.09,-45.3642 1310.2,-32.6924"/>
<polygon fill="midnightblue" stroke="midnightblue" points="1312.49,-30.0241 1303.1,-25.1273 1307.39,-34.8143 1312.49,-30.0241"/>
</g>
<!-- Node25 -->
<g id="node25" class="node"><title>Node25</title>
<polygon fill="white" stroke="#bfbfbf" points="1397,-6 1397,-25 1459,-25 1459,-6 1397,-6"/>
<text text-anchor="middle" x="1428" y="-13" font-family="Helvetica,sans-Serif" font-size="10.00">algorithm</text>
</g>
<!-- Node24&#45;&gt;Node25 -->
<g id="edge26" class="edge"><title>Node24&#45;&gt;Node25</title>
<path fill="none" stroke="midnightblue" d="M1365.71,-72.7338C1377.26,-62.3055 1396.75,-44.7088 1410.86,-31.9732"/>
<polygon fill="midnightblue" stroke="midnightblue" points="1413.37,-34.4263 1418.44,-25.1273 1408.68,-29.2304 1413.37,-34.4263"/>
</g>
<!-- Node26 -->
<g id="node26" class="node"><title>Node26</title>
<polygon fill="white" stroke="#bfbfbf" points="1176.5,-6 1176.5,-25 1253.5,-25 1253.5,-6 1176.5,-6"/>
<text text-anchor="middle" x="1215" y="-13" font-family="Helvetica,sans-Serif" font-size="10.00">initializer_list</text>
</g>
<!-- Node24&#45;&gt;Node26 -->
<g id="edge27" class="edge"><title>Node24&#45;&gt;Node26</title>
<path fill="none" stroke="midnightblue" d="M1337.28,-72.8685C1313.15,-61.7476 1271,-42.3167 1243.05,-29.4286"/>
<polygon fill="midnightblue" stroke="midnightblue" points="1244.35,-26.1752 1233.8,-25.1672 1241.42,-32.5323 1244.35,-26.1752"/>
</g>
<!-- Node27 -->
<g id="node27" class="node"><title>Node27</title>
<polygon fill="white" stroke="#bfbfbf" points="1337,-6 1337,-25 1379,-25 1379,-6 1337,-6"/>
<text text-anchor="middle" x="1358" y="-13" font-family="Helvetica,sans-Serif" font-size="10.00">utility</text>
</g>
<!-- Node24&#45;&gt;Node27 -->
<g id="edge28" class="edge"><title>Node24&#45;&gt;Node27</title>
<path fill="none" stroke="midnightblue" d="M1356.27,-72.7338C1356.56,-63.1826 1357.04,-47.6183 1357.42,-35.2829"/>
<polygon fill="midnightblue" stroke="midnightblue" points="1360.93,-35.2302 1357.73,-25.1273 1353.93,-35.0149 1360.93,-35.2302"/>
</g>
<!-- Node28&#45;&gt;Node15 -->
<g id="edge31" class="edge"><title>Node28&#45;&gt;Node15</title>
<path fill="none" stroke="midnightblue" d="M1646.28,-72.7338C1654.7,-62.5979 1668.75,-45.6899 1679.25,-33.0556"/>
<polygon fill="midnightblue" stroke="midnightblue" points="1682.13,-35.0558 1685.83,-25.1273 1676.75,-30.5826 1682.13,-35.0558"/>
</g>
<!-- Node29&#45;&gt;Node11 -->
<g id="edge35" class="edge"><title>Node29&#45;&gt;Node11</title>
<path fill="none" stroke="midnightblue" d="M1505.93,-72.9717C1499.12,-70.9243 1491.82,-68.8086 1485,-67 1415.81,-48.6385 1395.96,-53.4991 1328,-31 1326.13,-30.3805 1324.22,-29.6939 1322.31,-28.9661"/>
<polygon fill="midnightblue" stroke="midnightblue" points="1323.49,-25.6702 1312.91,-25.1038 1320.83,-32.1441 1323.49,-25.6702"/>
</g>
<!-- Node29&#45;&gt;Node16 -->
<g id="edge37" class="edge"><title>Node29&#45;&gt;Node16</title>
<path fill="none" stroke="midnightblue" d="M1559.25,-72.9434C1566.27,-70.8279 1573.88,-68.6868 1581,-67 1671.86,-45.4587 1696.2,-48.0976 1788,-31 1794.74,-29.7443 1801.83,-28.3859 1808.82,-27.0215"/>
<polygon fill="midnightblue" stroke="midnightblue" points="1809.82,-30.3925 1818.96,-25.0293 1808.47,-23.524 1809.82,-30.3925"/>
</g>
<!-- Node29&#45;&gt;Node25 -->
<g id="edge33" class="edge"><title>Node29&#45;&gt;Node25</title>
<path fill="none" stroke="midnightblue" d="M1518.84,-72.7338C1501.29,-61.8669 1471.16,-43.2161 1450.44,-30.3931"/>
<polygon fill="midnightblue" stroke="midnightblue" points="1452.28,-27.415 1441.94,-25.1273 1448.6,-33.3668 1452.28,-27.415"/>
</g>
<!-- Node29&#45;&gt;Node27 -->
<g id="edge34" class="edge"><title>Node29&#45;&gt;Node27</title>
<path fill="none" stroke="midnightblue" d="M1505.39,-72.9313C1475.95,-63.5538 1428.14,-47.627 1388,-31 1386.8,-30.5019 1385.57,-29.9794 1384.34,-29.4406"/>
<polygon fill="midnightblue" stroke="midnightblue" points="1385.53,-26.1316 1374.98,-25.1259 1382.6,-32.4893 1385.53,-26.1316"/>
</g>
<!-- Node30 -->
<g id="node30" class="node"><title>Node30</title>
<polygon fill="white" stroke="#bfbfbf" points="1477,-0.5 1477,-30.5 1589,-30.5 1589,-0.5 1477,-0.5"/>
<text text-anchor="start" x="1485" y="-18.5" font-family="Helvetica,sans-Serif" font-size="10.00">boost/icl/continuous</text>
<text text-anchor="middle" x="1533" y="-7.5" font-family="Helvetica,sans-Serif" font-size="10.00">_interval.hpp</text>
</g>
<!-- Node29&#45;&gt;Node30 -->
<g id="edge36" class="edge"><title>Node29&#45;&gt;Node30</title>
<path fill="none" stroke="midnightblue" d="M1533,-72.7338C1533,-64.5406 1533,-51.9225 1533,-40.7136"/>
<polygon fill="midnightblue" stroke="midnightblue" points="1536.5,-40.589 1533,-30.589 1529.5,-40.5891 1536.5,-40.589"/>
</g>
</g>
</svg>
        <g id="navigator" transform="translate(0 0)" fill="#404254">
                <rect fill="#f2f5e9" fill-opacity="0.5" stroke="#606060" stroke-width=".5" x="0" y="0" width="60" height="60"/>
                <use id="zoomplus" xlink:href="#zoomPlus" x="17" y="9" onmousedown="handleZoom(evt,'in')"/>
                <use id="zoomminus" xlink:href="#zoomMin" x="42" y="9" onmousedown="handleZoom(evt,'out')"/>
                <use id="reset" xlink:href="#resetDef" x="30" y="36" onmousedown="handleReset()"/>
                <g id="arrowUp" xlink:href="#dirArrow" transform="translate(30 24)" onmousedown="handlePan(0,-1)">
                  <use xlink:href="#rim" fill="#404040">
                        <set attributeName="fill" to="#808080" begin="arrowUp.mouseover" end="arrowUp.mouseout"/>
                  </use>
                  <path fill="none" stroke="white" stroke-width="1.5" d="M0,-3.0v7 M-2.5,-0.5L0,-3.0L2.5,-0.5"/>
                </g>
                <g id="arrowRight" xlink:href="#dirArrow" transform="rotate(90) translate(36 -43)" onmousedown="handlePan(1,0)">
                  <use xlink:href="#rim" fill="#404040">
                        <set attributeName="fill" to="#808080" begin="arrowRight.mouseover" end="arrowRight.mouseout"/>
                  </use>
                  <path fill="none" stroke="white" stroke-width="1.5" d="M0,-3.0v7 M-2.5,-0.5L0,-3.0L2.5,-0.5"/>
                </g>
                <g id="arrowDown" xlink:href="#dirArrow" transform="rotate(180) translate(-30 -48)" onmousedown="handlePan(0,1)">
                  <use xlink:href="#rim" fill="#404040">
                        <set attributeName="fill" to="#808080" begin="arrowDown.mouseover" end="arrowDown.mouseout"/>
                  </use>
                  <path fill="none" stroke="white" stroke-width="1.5" d="M0,-3.0v7 M-2.5,-0.5L0,-3.0L2.5,-0.5"/>
                </g>
                <g id="arrowLeft" xlink:href="#dirArrow" transform="rotate(270) translate(-36 17)" onmousedown="handlePan(-1,0)">
                  <use xlink:href="#rim" fill="#404040">
                        <set attributeName="fill" to="#808080" begin="arrowLeft.mouseover" end="arrowLeft.mouseout"/>
                  </use>
                  <path fill="none" stroke="white" stroke-width="1.5" d="M0,-3.0v7 M-2.5,-0.5L0,-3.0L2.5,-0.5"/>
                </g>
        </g>
        <svg viewBox="0 0 15 15" width="100%" height="30px" preserveAspectRatio="xMaxYMin meet">
         <g id="arrow_out" transform="scale(0.3 0.3)">
          <a xlink:href="parameter_8cc__incl_org.svg" target="_base">
           <rect id="button" ry="5" rx="5" y="6" x="6" height="38" width="38"
                fill="#f2f5e9" fill-opacity="0.5" stroke="#606060" stroke-width="1.0"/>
           <path id="arrow"
             d="M 11.500037,31.436501 C 11.940474,20.09759 22.043105,11.32322 32.158766,21.979434 L 37.068811,17.246167 C 37.068811,17.246167 37.088388,32 37.088388,32 L 22.160133,31.978069 C 22.160133,31.978069 26.997745,27.140456 26.997745,27.140456 C 18.528582,18.264221 13.291696,25.230495 11.500037,31.436501 z"
             style="fill:#404040;"/>
          </a>
         </g>
        </svg>
</svg>
