<?xml version="1.0" encoding="UTF-8" standalone="no"?>
<!DOCTYPE svg PUBLIC "-//W3C//DTD SVG 1.1//EN"
 "http://www.w3.org/Graphics/SVG/1.1/DTD/svg11.dtd">
<!-- Generated by graphviz version 2.38.0 (20140413.2041)
 -->
<!-- Title: pdag.h Pages: 1 -->
<svg width="788pt" height="476pt"
 viewBox="0.00 0.00 787.53 476.00" xmlns="http://www.w3.org/2000/svg" xmlns:xlink="http://www.w3.org/1999/xlink">
<g id="graph0" class="graph" transform="scale(1 1) rotate(0) translate(4 472)">
<title>pdag.h</title>
<polygon fill="white" stroke="none" points="-4,4 -4,-472 783.531,-472 783.531,4 -4,4"/>
<!-- Node1 -->
<g id="node1" class="node"><title>Node1</title>
<polygon fill="#bfbfbf" stroke="black" points="374.531,-448.5 374.531,-467.5 424.531,-467.5 424.531,-448.5 374.531,-448.5"/>
<text text-anchor="middle" x="399.531" y="-455.5" font-family="Helvetica,sans-Serif" font-size="10.00">pdag.h</text>
</g>
<!-- Node2 -->
<g id="node2" class="node"><title>Node2</title>
<g id="a_node2"><a xlink:href="bdd_8h.xhtml" target="_top" xlink:title="Fault tree analysis with the Binary Decision Diagram algorithms. ">
<polygon fill="white" stroke="black" points="377.531,-392.5 377.531,-411.5 421.531,-411.5 421.531,-392.5 377.531,-392.5"/>
<text text-anchor="middle" x="399.531" y="-399.5" font-family="Helvetica,sans-Serif" font-size="10.00">bdd.h</text>
</a>
</g>
</g>
<!-- Node1&#45;&gt;Node2 -->
<g id="edge1" class="edge"><title>Node1&#45;&gt;Node2</title>
<path fill="none" stroke="midnightblue" d="M399.531,-437.805C399.531,-428.91 399.531,-418.78 399.531,-411.751"/>
<polygon fill="midnightblue" stroke="midnightblue" points="396.031,-438.083 399.531,-448.083 403.031,-438.083 396.031,-438.083"/>
</g>
<!-- Node4 -->
<g id="node4" class="node"><title>Node4</title>
<g id="a_node4"><a xlink:href="zbdd_8h.xhtml" target="_top" xlink:title="Zero&#45;Suppressed Binary Decision Diagram facilities. ">
<polygon fill="white" stroke="black" points="475.031,-336.5 475.031,-355.5 524.031,-355.5 524.031,-336.5 475.031,-336.5"/>
<text text-anchor="middle" x="499.531" y="-343.5" font-family="Helvetica,sans-Serif" font-size="10.00">zbdd.h</text>
</a>
</g>
</g>
<!-- Node1&#45;&gt;Node4 -->
<g id="edge36" class="edge"><title>Node1&#45;&gt;Node4</title>
<path fill="none" stroke="midnightblue" d="M414.17,-440.897C435.668,-417.249 475.031,-373.949 491.72,-355.591"/>
<polygon fill="midnightblue" stroke="midnightblue" points="411.514,-438.615 407.377,-448.368 416.694,-443.323 411.514,-438.615"/>
</g>
<!-- Node5 -->
<g id="node5" class="node"><title>Node5</title>
<g id="a_node5"><a xlink:href="fault__tree__analysis_8h.xhtml" target="_top" xlink:title="Fault Tree Analysis. ">
<polygon fill="white" stroke="black" points="141.031,-280.5 141.031,-299.5 256.031,-299.5 256.031,-280.5 141.031,-280.5"/>
<text text-anchor="middle" x="198.531" y="-287.5" font-family="Helvetica,sans-Serif" font-size="10.00">fault_tree_analysis.h</text>
</a>
</g>
</g>
<!-- Node1&#45;&gt;Node5 -->
<g id="edge37" class="edge"><title>Node1&#45;&gt;Node5</title>
<path fill="none" stroke="midnightblue" d="M364.394,-451.382C336.709,-445.478 298.425,-433.883 271.531,-412 232.518,-380.258 209.175,-321.761 201.423,-299.714"/>
<polygon fill="midnightblue" stroke="midnightblue" points="363.949,-454.862 374.439,-453.376 365.312,-447.996 363.949,-454.862"/>
</g>
<!-- Node7 -->
<g id="node7" class="node"><title>Node7</title>
<g id="a_node7"><a xlink:href="probability__analysis_8h.xhtml" target="_top" xlink:title="Contains functionality to do numerical analysis of probabilities. ">
<polygon fill="white" stroke="black" points="226.031,-224.5 226.031,-243.5 345.031,-243.5 345.031,-224.5 226.031,-224.5"/>
<text text-anchor="middle" x="285.531" y="-231.5" font-family="Helvetica,sans-Serif" font-size="10.00">probability_analysis.h</text>
</a>
</g>
</g>
<!-- Node1&#45;&gt;Node7 -->
<g id="edge41" class="edge"><title>Node1&#45;&gt;Node7</title>
<path fill="none" stroke="midnightblue" d="M385.774,-440.382C363.894,-412.994 321.501,-355.83 300.531,-300 293.2,-280.485 288.763,-256.278 286.774,-243.625"/>
<polygon fill="midnightblue" stroke="midnightblue" points="383.329,-442.923 392.347,-448.484 388.765,-438.513 383.329,-442.923"/>
</g>
<!-- Node18 -->
<g id="node18" class="node"><title>Node18</title>
<g id="a_node18"><a xlink:href="mocus_8h.xhtml" target="_top" xlink:title="Fault tree analysis with the MOCUS algorithm. ">
<polygon fill="white" stroke="black" points="679.531,-280.5 679.531,-299.5 737.531,-299.5 737.531,-280.5 679.531,-280.5"/>
<text text-anchor="middle" x="708.531" y="-287.5" font-family="Helvetica,sans-Serif" font-size="10.00">mocus.h</text>
</a>
</g>
</g>
<!-- Node1&#45;&gt;Node18 -->
<g id="edge42" class="edge"><title>Node1&#45;&gt;Node18</title>
<path fill="none" stroke="midnightblue" d="M424.717,-443.47C486.094,-410.497 642.05,-326.714 692.513,-299.605"/>
<polygon fill="midnightblue" stroke="midnightblue" points="422.862,-440.493 415.709,-448.309 426.174,-446.66 422.862,-440.493"/>
</g>
<!-- Node21 -->
<g id="node21" class="node"><title>Node21</title>
<g id="a_node21"><a xlink:href="preprocessor_8h.xhtml" target="_top" xlink:title="A collection of PDAG transformation/preprocessing algorithms that simplify fault trees for analysis...">
<polygon fill="white" stroke="black" points="131.531,-392.5 131.531,-411.5 219.531,-411.5 219.531,-392.5 131.531,-392.5"/>
<text text-anchor="middle" x="175.531" y="-399.5" font-family="Helvetica,sans-Serif" font-size="10.00">preprocessor.h</text>
</a>
</g>
</g>
<!-- Node1&#45;&gt;Node21 -->
<g id="edge38" class="edge"><title>Node1&#45;&gt;Node21</title>
<path fill="none" stroke="midnightblue" d="M364.517,-448.559C322.669,-438.471 253.037,-421.685 210.992,-411.549"/>
<polygon fill="midnightblue" stroke="midnightblue" points="363.729,-451.969 374.27,-450.91 365.369,-445.164 363.729,-451.969"/>
</g>
<!-- Node23 -->
<g id="node23" class="node"><title>Node23</title>
<g id="a_node23"><a xlink:href="pdag_8cc.xhtml" target="_top" xlink:title="Implementation of a Propositional Directed Acyclic Graph with indexed nodes, variables, and gates. ">
<polygon fill="white" stroke="black" points="580.531,-392.5 580.531,-411.5 634.531,-411.5 634.531,-392.5 580.531,-392.5"/>
<text text-anchor="middle" x="607.531" y="-399.5" font-family="Helvetica,sans-Serif" font-size="10.00">pdag.cc</text>
</a>
</g>
</g>
<!-- Node1&#45;&gt;Node23 -->
<g id="edge43" class="edge"><title>Node1&#45;&gt;Node23</title>
<path fill="none" stroke="midnightblue" d="M434.473,-447.928C475.588,-437.254 542.976,-419.759 580.375,-410.05"/>
<polygon fill="midnightblue" stroke="midnightblue" points="433.42,-444.586 424.62,-450.486 435.179,-451.361 433.42,-444.586"/>
</g>
<!-- Node3 -->
<g id="node3" class="node"><title>Node3</title>
<g id="a_node3"><a xlink:href="bdd_8cc.xhtml" target="_top" xlink:title="Implementation of BDD fault tree analysis algorithms. ">
<polygon fill="white" stroke="black" points="427.531,-280.5 427.531,-299.5 475.531,-299.5 475.531,-280.5 427.531,-280.5"/>
<text text-anchor="middle" x="451.531" y="-287.5" font-family="Helvetica,sans-Serif" font-size="10.00">bdd.cc</text>
</a>
</g>
</g>
<!-- Node2&#45;&gt;Node3 -->
<g id="edge2" class="edge"><title>Node2&#45;&gt;Node3</title>
<path fill="none" stroke="midnightblue" d="M407.888,-383.32C419.21,-359.37 438.98,-317.548 447.469,-299.591"/>
<polygon fill="midnightblue" stroke="midnightblue" points="404.72,-381.832 403.611,-392.368 411.049,-384.824 404.72,-381.832"/>
</g>
<!-- Node2&#45;&gt;Node4 -->
<g id="edge3" class="edge"><title>Node2&#45;&gt;Node4</title>
<path fill="none" stroke="midnightblue" d="M424.618,-387.453C443.08,-377.483 467.627,-364.228 483.504,-355.655"/>
<polygon fill="midnightblue" stroke="midnightblue" points="422.733,-384.493 415.597,-392.324 426.059,-390.652 422.733,-384.493"/>
</g>
<!-- Node2&#45;&gt;Node7 -->
<g id="edge34" class="edge"><title>Node2&#45;&gt;Node7</title>
<path fill="none" stroke="midnightblue" d="M379.064,-386.312C368.73,-378.193 356.514,-367.446 347.531,-356 317.945,-318.308 296.295,-264.308 288.598,-243.565"/>
<polygon fill="midnightblue" stroke="midnightblue" points="377.106,-389.22 387.19,-392.472 381.335,-383.641 377.106,-389.22"/>
</g>
<!-- Node8 -->
<g id="node8" class="node"><title>Node8</title>
<g id="a_node8"><a xlink:href="importance__analysis_8h.xhtml" target="_top" xlink:title="Contains functionality to do numerical analysis of importance factors. ">
<polygon fill="white" stroke="black" points="281.531,-168.5 281.531,-187.5 405.531,-187.5 405.531,-168.5 281.531,-168.5"/>
<text text-anchor="middle" x="343.531" y="-175.5" font-family="Helvetica,sans-Serif" font-size="10.00">importance_analysis.h</text>
</a>
</g>
</g>
<!-- Node2&#45;&gt;Node8 -->
<g id="edge33" class="edge"><title>Node2&#45;&gt;Node8</title>
<path fill="none" stroke="midnightblue" d="M393.567,-382.832C390.967,-374.668 387.965,-364.889 385.531,-356 376.48,-322.95 352.595,-218.752 345.528,-187.771"/>
<polygon fill="midnightblue" stroke="midnightblue" points="390.262,-383.988 396.67,-392.425 396.922,-381.833 390.262,-383.988"/>
</g>
<!-- Node14 -->
<g id="node14" class="node"><title>Node14</title>
<g id="a_node14"><a xlink:href="risk__analysis_8cc.xhtml" target="_top" xlink:title="Implementation of risk analysis handler. ">
<polygon fill="white" stroke="black" points="587.531,-56.5 587.531,-75.5 677.531,-75.5 677.531,-56.5 587.531,-56.5"/>
<text text-anchor="middle" x="632.531" y="-63.5" font-family="Helvetica,sans-Serif" font-size="10.00">risk_analysis.cc</text>
</a>
</g>
</g>
<!-- Node2&#45;&gt;Node14 -->
<g id="edge35" class="edge"><title>Node2&#45;&gt;Node14</title>
<path fill="none" stroke="midnightblue" d="M398.043,-382.198C396.974,-356.935 398.406,-311.564 418.531,-280 457.961,-218.156 504.311,-240.497 555.531,-188 590.829,-151.821 618.564,-96.9348 628.535,-75.7593"/>
<polygon fill="midnightblue" stroke="midnightblue" points="394.555,-382.498 398.652,-392.269 401.542,-382.076 394.555,-382.498"/>
</g>
<!-- Node4&#45;&gt;Node3 -->
<g id="edge4" class="edge"><title>Node4&#45;&gt;Node3</title>
<path fill="none" stroke="midnightblue" d="M484.803,-328.431C476.39,-318.967 466.182,-307.483 459.309,-299.751"/>
<polygon fill="midnightblue" stroke="midnightblue" points="482.345,-330.934 491.604,-336.083 487.577,-326.284 482.345,-330.934"/>
</g>
<!-- Node4&#45;&gt;Node5 -->
<g id="edge5" class="edge"><title>Node4&#45;&gt;Node5</title>
<path fill="none" stroke="midnightblue" d="M464.803,-338.77C410.845,-329.09 306.771,-310.419 245.945,-299.506"/>
<polygon fill="midnightblue" stroke="midnightblue" points="464.437,-342.26 474.898,-340.581 465.674,-335.37 464.437,-342.26"/>
</g>
<!-- Node9 -->
<g id="node9" class="node"><title>Node9</title>
<g id="a_node9"><a xlink:href="importance__analysis_8cc.xhtml" target="_top" xlink:title="Implementations of functions to provide quantitative importance informations. ">
<polygon fill="white" stroke="black" points="414.531,-112.5 414.531,-131.5 542.531,-131.5 542.531,-112.5 414.531,-112.5"/>
<text text-anchor="middle" x="478.531" y="-119.5" font-family="Helvetica,sans-Serif" font-size="10.00">importance_analysis.cc</text>
</a>
</g>
</g>
<!-- Node4&#45;&gt;Node9 -->
<g id="edge26" class="edge"><title>Node4&#45;&gt;Node9</title>
<path fill="none" stroke="midnightblue" d="M533.99,-338.184C555.112,-332.037 580.519,-320.655 593.531,-300 598.268,-292.479 594.978,-288.77 593.531,-280 584.972,-228.137 588.767,-208.724 555.531,-168 541.531,-150.846 519.145,-138.815 502.111,-131.536"/>
<polygon fill="midnightblue" stroke="midnightblue" points="532.821,-334.873 524.038,-340.799 534.599,-341.643 532.821,-334.873"/>
</g>
<!-- Node4&#45;&gt;Node14 -->
<g id="edge31" class="edge"><title>Node4&#45;&gt;Node14</title>
<path fill="none" stroke="midnightblue" d="M533.942,-336.535C578.781,-323.206 651.531,-292.691 651.531,-235 651.531,-235 651.531,-235 651.531,-177 651.531,-138.821 640.279,-94.2624 635.093,-75.7514"/>
<polygon fill="midnightblue" stroke="midnightblue" points="532.958,-333.176 524.29,-339.269 534.866,-339.911 532.958,-333.176"/>
</g>
<!-- Node15 -->
<g id="node15" class="node"><title>Node15</title>
<g id="a_node15"><a xlink:href="probability__analysis_8cc.xhtml" target="_top" xlink:title="Implementations of functions to provide probability analysis. ">
<polygon fill="white" stroke="black" points="424.031,-168.5 424.031,-187.5 547.031,-187.5 547.031,-168.5 424.031,-168.5"/>
<text text-anchor="middle" x="485.531" y="-175.5" font-family="Helvetica,sans-Serif" font-size="10.00">probability_analysis.cc</text>
</a>
</g>
</g>
<!-- Node4&#45;&gt;Node15 -->
<g id="edge30" class="edge"><title>Node4&#45;&gt;Node15</title>
<path fill="none" stroke="midnightblue" d="M497.922,-325.93C494.885,-289.92 488.417,-213.231 486.253,-187.568"/>
<polygon fill="midnightblue" stroke="midnightblue" points="494.45,-326.405 498.778,-336.075 501.425,-325.816 494.45,-326.405"/>
</g>
<!-- Node4&#45;&gt;Node18 -->
<g id="edge27" class="edge"><title>Node4&#45;&gt;Node18</title>
<path fill="none" stroke="midnightblue" d="M534.053,-336.08C574.649,-325.591 641.317,-308.366 679.413,-298.523"/>
<polygon fill="midnightblue" stroke="midnightblue" points="533.133,-332.703 524.326,-338.593 534.884,-339.48 533.133,-332.703"/>
</g>
<!-- Node20 -->
<g id="node20" class="node"><title>Node20</title>
<g id="a_node20"><a xlink:href="zbdd_8cc.xhtml" target="_top" xlink:title="Implementation of Zero&#45;Suppressed BDD algorithms. ">
<polygon fill="white" stroke="black" points="532.031,-280.5 532.031,-299.5 585.031,-299.5 585.031,-280.5 532.031,-280.5"/>
<text text-anchor="middle" x="558.531" y="-287.5" font-family="Helvetica,sans-Serif" font-size="10.00">zbdd.cc</text>
</a>
</g>
</g>
<!-- Node4&#45;&gt;Node20 -->
<g id="edge32" class="edge"><title>Node4&#45;&gt;Node20</title>
<path fill="none" stroke="midnightblue" d="M516.425,-329.537C526.945,-319.909 540.099,-307.869 548.879,-299.834"/>
<polygon fill="midnightblue" stroke="midnightblue" points="514.024,-326.99 509.01,-336.324 518.75,-332.154 514.024,-326.99"/>
</g>
<!-- Node6 -->
<g id="node6" class="node"><title>Node6</title>
<g id="a_node6"><a xlink:href="fault__tree__analysis_8cc.xhtml" target="_top" xlink:title="Implementation of fault tree analysis. ">
<polygon fill="white" stroke="black" points="50.0305,-224.5 50.0305,-243.5 169.031,-243.5 169.031,-224.5 50.0305,-224.5"/>
<text text-anchor="middle" x="109.531" y="-231.5" font-family="Helvetica,sans-Serif" font-size="10.00">fault_tree_analysis.cc</text>
</a>
</g>
</g>
<!-- Node5&#45;&gt;Node6 -->
<g id="edge6" class="edge"><title>Node5&#45;&gt;Node6</title>
<path fill="none" stroke="midnightblue" d="M175.293,-274.901C158.973,-264.999 137.665,-252.071 123.794,-243.655"/>
<polygon fill="midnightblue" stroke="midnightblue" points="173.866,-278.129 184.231,-280.324 177.497,-272.144 173.866,-278.129"/>
</g>
<!-- Node5&#45;&gt;Node7 -->
<g id="edge7" class="edge"><title>Node5&#45;&gt;Node7</title>
<path fill="none" stroke="midnightblue" d="M221.246,-274.901C237.199,-264.999 258.028,-252.071 271.587,-243.655"/>
<polygon fill="midnightblue" stroke="midnightblue" points="219.159,-272.077 212.509,-280.324 222.851,-278.024 219.159,-272.077"/>
</g>
<!-- Node10 -->
<g id="node10" class="node"><title>Node10</title>
<g id="a_node10"><a xlink:href="reporter_8h.xhtml" target="_top" xlink:title="Reporter of results. ">
<polygon fill="white" stroke="black" points="169.531,-56.5 169.531,-75.5 233.531,-75.5 233.531,-56.5 169.531,-56.5"/>
<text text-anchor="middle" x="201.531" y="-63.5" font-family="Helvetica,sans-Serif" font-size="10.00">reporter.h</text>
</a>
</g>
</g>
<!-- Node5&#45;&gt;Node10 -->
<g id="edge24" class="edge"><title>Node5&#45;&gt;Node10</title>
<path fill="none" stroke="midnightblue" d="M130.831,-284.167C99.7659,-278.65 64.5815,-267.258 40.5305,-244 -2.07744,-202.797 -14.9458,-158.718 21.5305,-112 39.5203,-88.959 122.48,-75.9698 169.241,-70.361"/>
<polygon fill="midnightblue" stroke="midnightblue" points="130.324,-287.63 140.753,-285.759 131.434,-280.718 130.324,-287.63"/>
</g>
<!-- Node13 -->
<g id="node13" class="node"><title>Node13</title>
<g id="a_node13"><a xlink:href="risk__analysis_8h.xhtml" target="_top" xlink:title="Contains the main system for performing analysis. ">
<polygon fill="white" stroke="black" points="229.531,-112.5 229.531,-131.5 315.531,-131.5 315.531,-112.5 229.531,-112.5"/>
<text text-anchor="middle" x="272.531" y="-119.5" font-family="Helvetica,sans-Serif" font-size="10.00">risk_analysis.h</text>
</a>
</g>
</g>
<!-- Node5&#45;&gt;Node13 -->
<g id="edge25" class="edge"><title>Node5&#45;&gt;Node13</title>
<path fill="none" stroke="midnightblue" d="M202.405,-270.58C205.481,-257.351 210.298,-239.241 216.531,-224 231.254,-187.998 255.822,-148.559 266.858,-131.568"/>
<polygon fill="midnightblue" stroke="midnightblue" points="198.981,-269.853 200.238,-280.373 205.816,-271.366 198.981,-269.853"/>
</g>
<!-- Node7&#45;&gt;Node8 -->
<g id="edge8" class="edge"><title>Node7&#45;&gt;Node8</title>
<path fill="none" stroke="midnightblue" d="M302.444,-217.253C312.734,-207.673 325.496,-195.791 334.042,-187.834"/>
<polygon fill="midnightblue" stroke="midnightblue" points="299.783,-214.948 294.849,-224.324 304.553,-220.071 299.783,-214.948"/>
</g>
<!-- Node7&#45;&gt;Node10 -->
<g id="edge18" class="edge"><title>Node7&#45;&gt;Node10</title>
<path fill="none" stroke="midnightblue" d="M216.003,-224.815C147.091,-216.001 50.1496,-201.432 38.5305,-188 16.425,-162.445 16.0205,-138.853 36.5305,-112 52.5709,-90.9991 126.076,-77.4469 169.379,-71.1381"/>
<polygon fill="midnightblue" stroke="midnightblue" points="215.594,-228.291 225.954,-226.072 216.472,-221.346 215.594,-228.291"/>
</g>
<!-- Node7&#45;&gt;Node13 -->
<g id="edge19" class="edge"><title>Node7&#45;&gt;Node13</title>
<path fill="none" stroke="midnightblue" d="M278.978,-214.7C276.419,-206.628 273.798,-196.958 272.531,-188 269.715,-168.111 270.815,-144.456 271.746,-131.887"/>
<polygon fill="midnightblue" stroke="midnightblue" points="275.67,-215.843 282.187,-224.197 282.301,-213.602 275.67,-215.843"/>
</g>
<!-- Node7&#45;&gt;Node15 -->
<g id="edge17" class="edge"><title>Node7&#45;&gt;Node15</title>
<path fill="none" stroke="midnightblue" d="M326.904,-221.829C364.666,-211.633 419.67,-196.782 453.988,-187.516"/>
<polygon fill="midnightblue" stroke="midnightblue" points="325.963,-218.458 317.221,-224.444 327.788,-225.216 325.963,-218.458"/>
</g>
<!-- Node16 -->
<g id="node16" class="node"><title>Node16</title>
<g id="a_node16"><a xlink:href="uncertainty__analysis_8h.xhtml" target="_top" xlink:title="Provides functionality for uncertainty analysis with Monte Carlo method. ">
<polygon fill="white" stroke="black" points="48.0305,-168.5 48.0305,-187.5 171.031,-187.5 171.031,-168.5 48.0305,-168.5"/>
<text text-anchor="middle" x="109.531" y="-175.5" font-family="Helvetica,sans-Serif" font-size="10.00">uncertainty_analysis.h</text>
</a>
</g>
</g>
<!-- Node7&#45;&gt;Node16 -->
<g id="edge20" class="edge"><title>Node7&#45;&gt;Node16</title>
<path fill="none" stroke="midnightblue" d="M247.841,-221.436C214.658,-211.255 167.102,-196.664 137.288,-187.516"/>
<polygon fill="midnightblue" stroke="midnightblue" points="247.056,-224.856 257.643,-224.444 249.109,-218.164 247.056,-224.856"/>
</g>
<!-- Node8&#45;&gt;Node9 -->
<g id="edge9" class="edge"><title>Node8&#45;&gt;Node9</title>
<path fill="none" stroke="midnightblue" d="M374.436,-164.638C399.77,-154.504 434.962,-140.427 457.239,-131.516"/>
<polygon fill="midnightblue" stroke="midnightblue" points="372.907,-161.48 364.922,-168.444 375.506,-167.979 372.907,-161.48"/>
</g>
<!-- Node8&#45;&gt;Node10 -->
<g id="edge10" class="edge"><title>Node8&#45;&gt;Node10</title>
<path fill="none" stroke="midnightblue" d="M342.488,-158.013C340.739,-143.697 336.194,-124.464 324.531,-112 300.76,-86.5976 261.468,-75.4853 233.698,-70.6555"/>
<polygon fill="midnightblue" stroke="midnightblue" points="339.022,-158.556 343.375,-168.216 345.996,-157.95 339.022,-158.556"/>
</g>
<!-- Node8&#45;&gt;Node13 -->
<g id="edge13" class="edge"><title>Node8&#45;&gt;Node13</title>
<path fill="none" stroke="midnightblue" d="M323.941,-162.101C311.163,-152.382 294.918,-140.027 284.145,-131.834"/>
<polygon fill="midnightblue" stroke="midnightblue" points="322.045,-165.056 332.123,-168.324 326.282,-159.484 322.045,-165.056"/>
</g>
<!-- Node11 -->
<g id="node11" class="node"><title>Node11</title>
<g id="a_node11"><a xlink:href="reporter_8cc.xhtml" target="_top" xlink:title="Implements Reporter class. ">
<polygon fill="white" stroke="black" points="156.531,-0.5 156.531,-19.5 224.531,-19.5 224.531,-0.5 156.531,-0.5"/>
<text text-anchor="middle" x="190.531" y="-7.5" font-family="Helvetica,sans-Serif" font-size="10.00">reporter.cc</text>
</a>
</g>
</g>
<!-- Node10&#45;&gt;Node11 -->
<g id="edge11" class="edge"><title>Node10&#45;&gt;Node11</title>
<path fill="none" stroke="midnightblue" d="M197.681,-46.1005C195.854,-37.1357 193.761,-26.8579 192.313,-19.7511"/>
<polygon fill="midnightblue" stroke="midnightblue" points="194.288,-46.9829 199.714,-56.083 201.148,-45.5856 194.288,-46.9829"/>
</g>
<!-- Node12 -->
<g id="node12" class="node"><title>Node12</title>
<g id="a_node12"><a xlink:href="scram_8cc.xhtml" target="_top" xlink:title="Main entrance. ">
<polygon fill="white" stroke="black" points="242.531,-0.5 242.531,-19.5 302.531,-19.5 302.531,-0.5 242.531,-0.5"/>
<text text-anchor="middle" x="272.531" y="-7.5" font-family="Helvetica,sans-Serif" font-size="10.00">scram.cc</text>
</a>
</g>
</g>
<!-- Node10&#45;&gt;Node12 -->
<g id="edge12" class="edge"><title>Node10&#45;&gt;Node12</title>
<path fill="none" stroke="midnightblue" d="M221.12,-50.1008C233.898,-40.3824 250.143,-28.0269 260.916,-19.8339"/>
<polygon fill="midnightblue" stroke="midnightblue" points="218.779,-47.4844 212.938,-56.324 223.016,-53.0561 218.779,-47.4844"/>
</g>
<!-- Node13&#45;&gt;Node10 -->
<g id="edge14" class="edge"><title>Node13&#45;&gt;Node10</title>
<path fill="none" stroke="midnightblue" d="M252.941,-106.101C240.163,-96.3824 223.918,-84.0269 213.145,-75.8339"/>
<polygon fill="midnightblue" stroke="midnightblue" points="251.045,-109.056 261.123,-112.324 255.282,-103.484 251.045,-109.056"/>
</g>
<!-- Node13&#45;&gt;Node12 -->
<g id="edge16" class="edge"><title>Node13&#45;&gt;Node12</title>
<path fill="none" stroke="midnightblue" d="M272.531,-102.348C272.531,-78.2538 272.531,-37.3079 272.531,-19.5914"/>
<polygon fill="midnightblue" stroke="midnightblue" points="269.031,-102.368 272.531,-112.368 276.031,-102.369 269.031,-102.368"/>
</g>
<!-- Node13&#45;&gt;Node14 -->
<g id="edge15" class="edge"><title>Node13&#45;&gt;Node14</title>
<path fill="none" stroke="midnightblue" d="M325.657,-113.031C396.552,-102.397 520.869,-83.7492 587.436,-73.7642"/>
<polygon fill="midnightblue" stroke="midnightblue" points="324.967,-109.595 315.597,-114.54 326.006,-116.518 324.967,-109.595"/>
</g>
<!-- Node16&#45;&gt;Node10 -->
<g id="edge22" class="edge"><title>Node16&#45;&gt;Node10</title>
<path fill="none" stroke="midnightblue" d="M140.968,-164.072C155.503,-156.646 171.868,-145.986 182.531,-132 195.504,-114.984 199.634,-89.3093 200.938,-75.8882"/>
<polygon fill="midnightblue" stroke="midnightblue" points="139.263,-161.007 131.759,-168.487 142.289,-167.319 139.263,-161.007"/>
</g>
<!-- Node16&#45;&gt;Node13 -->
<g id="edge21" class="edge"><title>Node16&#45;&gt;Node13</title>
<path fill="none" stroke="midnightblue" d="M145.233,-165.172C175.926,-155.004 219.449,-140.585 246.824,-131.516"/>
<polygon fill="midnightblue" stroke="midnightblue" points="143.75,-161.976 135.358,-168.444 145.952,-168.621 143.75,-161.976"/>
</g>
<!-- Node17 -->
<g id="node17" class="node"><title>Node17</title>
<g id="a_node17"><a xlink:href="uncertainty__analysis_8cc.xhtml" target="_top" xlink:title="Implements the functionality to run Monte Carlo simulations. ">
<polygon fill="white" stroke="black" points="45.5305,-112.5 45.5305,-131.5 173.531,-131.5 173.531,-112.5 45.5305,-112.5"/>
<text text-anchor="middle" x="109.531" y="-119.5" font-family="Helvetica,sans-Serif" font-size="10.00">uncertainty_analysis.cc</text>
</a>
</g>
</g>
<!-- Node16&#45;&gt;Node17 -->
<g id="edge23" class="edge"><title>Node16&#45;&gt;Node17</title>
<path fill="none" stroke="midnightblue" d="M109.531,-157.805C109.531,-148.91 109.531,-138.78 109.531,-131.751"/>
<polygon fill="midnightblue" stroke="midnightblue" points="106.031,-158.083 109.531,-168.083 113.031,-158.083 106.031,-158.083"/>
</g>
<!-- Node18&#45;&gt;Node14 -->
<g id="edge29" class="edge"><title>Node18&#45;&gt;Node14</title>
<path fill="none" stroke="midnightblue" d="M706.461,-270.446C702.244,-237.319 690.832,-166.371 665.531,-112 659.073,-98.1219 648.016,-84.2331 640.497,-75.6334"/>
<polygon fill="midnightblue" stroke="midnightblue" points="703,-270.984 707.663,-280.498 709.95,-270.153 703,-270.984"/>
</g>
<!-- Node19 -->
<g id="node19" class="node"><title>Node19</title>
<g id="a_node19"><a xlink:href="mocus_8cc.xhtml" target="_top" xlink:title="Implementation of the MOCUS algorithm. ">
<polygon fill="white" stroke="black" points="717.531,-224.5 717.531,-243.5 779.531,-243.5 779.531,-224.5 717.531,-224.5"/>
<text text-anchor="middle" x="748.531" y="-231.5" font-family="Helvetica,sans-Serif" font-size="10.00">mocus.cc</text>
</a>
</g>
</g>
<!-- Node18&#45;&gt;Node19 -->
<g id="edge28" class="edge"><title>Node18&#45;&gt;Node19</title>
<path fill="none" stroke="midnightblue" d="M721.23,-271.855C728.157,-262.505 736.437,-251.327 742.048,-243.751"/>
<polygon fill="midnightblue" stroke="midnightblue" points="718.276,-269.964 715.136,-280.083 723.9,-274.131 718.276,-269.964"/>
</g>
<!-- Node21&#45;&gt;Node5 -->
<g id="edge39" class="edge"><title>Node21&#45;&gt;Node5</title>
<path fill="none" stroke="midnightblue" d="M179.43,-382.348C184.468,-358.254 193.03,-317.308 196.734,-299.591"/>
<polygon fill="midnightblue" stroke="midnightblue" points="175.956,-381.864 177.335,-392.368 182.808,-383.297 175.956,-381.864"/>
</g>
<!-- Node22 -->
<g id="node22" class="node"><title>Node22</title>
<g id="a_node22"><a xlink:href="preprocessor_8cc.xhtml" target="_top" xlink:title="Implementation of preprocessing algorithms. ">
<polygon fill="white" stroke="black" points="78.5305,-336.5 78.5305,-355.5 170.531,-355.5 170.531,-336.5 78.5305,-336.5"/>
<text text-anchor="middle" x="124.531" y="-343.5" font-family="Helvetica,sans-Serif" font-size="10.00">preprocessor.cc</text>
</a>
</g>
</g>
<!-- Node21&#45;&gt;Node22 -->
<g id="edge40" class="edge"><title>Node21&#45;&gt;Node22</title>
<path fill="none" stroke="midnightblue" d="M160.153,-384.718C151.164,-375.2 140.171,-363.561 132.795,-355.751"/>
<polygon fill="midnightblue" stroke="midnightblue" points="157.698,-387.216 167.109,-392.083 162.787,-382.41 157.698,-387.216"/>
</g>
</g>
</svg>
