<?xml version="1.0" encoding="UTF-8" standalone="no"?>
<!DOCTYPE svg PUBLIC "-//W3C//DTD SVG 1.1//EN"
 "http://www.w3.org/Graphics/SVG/1.1/DTD/svg11.dtd">
<!-- Generated by graphviz version 2.38.0 (20140413.2041)
 -->
<!-- Title: scram::core::TraverseNodes Pages: 1 -->
<svg width="304pt" height="52pt"
 viewBox="0.00 0.00 304.00 51.50" xmlns="http://www.w3.org/2000/svg" xmlns:xlink="http://www.w3.org/1999/xlink">
<g id="graph0" class="graph" transform="scale(1 1) rotate(0) translate(4 47.5)">
<title>scram::core::TraverseNodes</title>
<polygon fill="white" stroke="none" points="-4,4 -4,-47.5 300,-47.5 300,4 -4,4"/>
<!-- Node1 -->
<g id="node1" class="node"><title>Node1</title>
<polygon fill="#bfbfbf" stroke="black" points="0,-6 0,-25 150,-25 150,-6 0,-6"/>
<text text-anchor="middle" x="75" y="-13" font-family="Helvetica,sans-Serif" font-size="10.00">scram::core::TraverseNodes</text>
</g>
<!-- Node1&#45;&gt;Node1 -->
<g id="edge2" class="edge"><title>Node1&#45;&gt;Node1</title>
<path fill="none" stroke="midnightblue" d="M43.9371,-33.7746C44.8228,-39.241 55.1771,-43.5 75,-43.5 104.504,-43.5 113.032,-34.0653 100.585,-25.2571"/>
<polygon fill="midnightblue" stroke="midnightblue" points="46.9495,-35.5611 49.4146,-25.2571 41.0618,-31.7749 46.9495,-35.5611"/>
</g>
<!-- Node2 -->
<g id="node2" class="node"><title>Node2</title>
<g id="a_node2"><a xlink:href="classscram_1_1core_1_1Pdag.xhtml#a6f08191830efe0648dbebb6059486162" target="_top" xlink:title="Determines the proper &quot;clear&quot; state for the graph node mark, and set the clear mark to nodes starting...">
<polygon fill="white" stroke="black" points="186,-0.5 186,-30.5 296,-30.5 296,-0.5 186,-0.5"/>
<text text-anchor="start" x="194" y="-18.5" font-family="Helvetica,sans-Serif" font-size="10.00">scram::core::Pdag::</text>
<text text-anchor="middle" x="241" y="-7.5" font-family="Helvetica,sans-Serif" font-size="10.00">Clear</text>
</a>
</g>
</g>
<!-- Node1&#45;&gt;Node2 -->
<g id="edge1" class="edge"><title>Node1&#45;&gt;Node2</title>
<path fill="none" stroke="midnightblue" d="M160.363,-15.5C168.921,-15.5 177.445,-15.5 185.561,-15.5"/>
<polygon fill="midnightblue" stroke="midnightblue" points="160.323,-12.0001 150.323,-15.5 160.322,-19.0001 160.323,-12.0001"/>
</g>
</g>
</svg>
