<?xml version="1.0" encoding="UTF-8" standalone="no"?>
<!DOCTYPE svg PUBLIC "-//W3C//DTD SVG 1.1//EN"
 "http://www.w3.org/Graphics/SVG/1.1/DTD/svg11.dtd">
<!-- Generated by graphviz version 2.38.0 (20140413.2041)
 -->
<!-- Title: scram::core::TraverseGates Pages: 1 -->
<svg width="302pt" height="88pt"
 viewBox="0.00 0.00 302.00 88.00" xmlns="http://www.w3.org/2000/svg" xmlns:xlink="http://www.w3.org/1999/xlink">
<g id="graph0" class="graph" transform="scale(1 1) rotate(0) translate(4 84)">
<title>scram::core::TraverseGates</title>
<polygon fill="white" stroke="none" points="-4,4 -4,-84 298,-84 298,4 -4,4"/>
<!-- Node1 -->
<g id="node1" class="node"><title>Node1</title>
<polygon fill="#bfbfbf" stroke="black" points="0,-30 0,-49 148,-49 148,-30 0,-30"/>
<text text-anchor="middle" x="74" y="-37" font-family="Helvetica,sans-Serif" font-size="10.00">scram::core::TraverseGates</text>
</g>
<!-- Node1&#45;&gt;Node1 -->
<g id="edge3" class="edge"><title>Node1&#45;&gt;Node1</title>
<path fill="none" stroke="midnightblue" d="M43.3114,-57.7746C44.1864,-63.241 54.4159,-67.5 74,-67.5 103.148,-67.5 111.574,-58.0653 99.2772,-49.2571"/>
<polygon fill="midnightblue" stroke="midnightblue" points="46.3144,-59.5745 48.7228,-49.2571 40.406,-55.8207 46.3144,-59.5745"/>
</g>
<!-- Node2 -->
<g id="node2" class="node"><title>Node2</title>
<g id="a_node2"><a xlink:href="classscram_1_1core_1_1Pdag.xhtml#a6f08191830efe0648dbebb6059486162" target="_top" xlink:title="Determines the proper &quot;clear&quot; state for the graph node mark, and set the clear mark to nodes starting...">
<polygon fill="white" stroke="black" points="184,-49.5 184,-79.5 294,-79.5 294,-49.5 184,-49.5"/>
<text text-anchor="start" x="192" y="-67.5" font-family="Helvetica,sans-Serif" font-size="10.00">scram::core::Pdag::</text>
<text text-anchor="middle" x="239" y="-56.5" font-family="Helvetica,sans-Serif" font-size="10.00">Clear</text>
</a>
</g>
</g>
<!-- Node1&#45;&gt;Node2 -->
<g id="edge1" class="edge"><title>Node1&#45;&gt;Node2</title>
<path fill="none" stroke="midnightblue" d="M147.3,-50.589C159.566,-52.4702 172.113,-54.3946 183.811,-56.1888"/>
<polygon fill="midnightblue" stroke="midnightblue" points="147.503,-47.0793 137.088,-49.0227 146.442,-53.9984 147.503,-47.0793"/>
</g>
<!-- Node3 -->
<g id="node3" class="node"><title>Node3</title>
<g id="a_node3"><a xlink:href="classscram_1_1core_1_1Pdag.xhtml#a1ec495a3595a7d088f1889f46eeb725d" target="_top" xlink:title="Removes gates of Null logic with a single argument (maybe constant). ">
<polygon fill="white" stroke="black" points="184,-0.5 184,-30.5 294,-30.5 294,-0.5 184,-0.5"/>
<text text-anchor="start" x="192" y="-18.5" font-family="Helvetica,sans-Serif" font-size="10.00">scram::core::Pdag::</text>
<text text-anchor="middle" x="239" y="-7.5" font-family="Helvetica,sans-Serif" font-size="10.00">RemoveNullGates</text>
</a>
</g>
</g>
<!-- Node1&#45;&gt;Node3 -->
<g id="edge2" class="edge"><title>Node1&#45;&gt;Node3</title>
<path fill="none" stroke="midnightblue" d="M149.877,-28.4751C161.319,-26.7904 172.937,-25.0799 183.819,-23.4776"/>
<polygon fill="midnightblue" stroke="midnightblue" points="149.274,-25.0262 139.89,-29.9456 150.293,-31.9515 149.274,-25.0262"/>
</g>
</g>
</svg>
