<?xml version="1.0" encoding="UTF-8" standalone="no"?>
<!DOCTYPE svg PUBLIC "-//W3C//DTD SVG 1.1//EN"
 "http://www.w3.org/Graphics/SVG/1.1/DTD/svg11.dtd">
<!-- Generated by graphviz version 2.38.0 (20140413.2041)
 -->
<!-- Title: scram::core::operator&lt;&lt; Pages: 1 -->
<svg width="477pt" height="134pt"
 viewBox="0.00 0.00 477.00 133.50" xmlns="http://www.w3.org/2000/svg" xmlns:xlink="http://www.w3.org/1999/xlink">
<g id="graph0" class="graph" transform="scale(1 1) rotate(0) translate(4 129.5)">
<title>scram::core::operator&lt;&lt;</title>
<polygon fill="white" stroke="none" points="-4,4 -4,-129.5 473,-129.5 473,4 -4,4"/>
<!-- Node1 -->
<g id="node1" class="node"><title>Node1</title>
<polygon fill="#bfbfbf" stroke="black" points="0,-38.5 0,-57.5 137,-57.5 137,-38.5 0,-38.5"/>
<text text-anchor="middle" x="68.5" y="-45.5" font-family="Helvetica,sans-Serif" font-size="10.00">scram::core::operator&lt;&lt;</text>
</g>
<!-- Node2 -->
<g id="node2" class="node"><title>Node2</title>
<g id="a_node2"><a xlink:href="classscram_1_1core_1_1Pdag.xhtml#a82135e4d5967e95a18ceee1af63792c0" target="_top" xlink:title="scram::core::Pdag::\lconstant">
<polygon fill="white" stroke="black" points="186.5,-95 186.5,-125 296.5,-125 296.5,-95 186.5,-95"/>
<text text-anchor="start" x="194.5" y="-113" font-family="Helvetica,sans-Serif" font-size="10.00">scram::core::Pdag::</text>
<text text-anchor="middle" x="241.5" y="-102" font-family="Helvetica,sans-Serif" font-size="10.00">constant</text>
</a>
</g>
</g>
<!-- Node1&#45;&gt;Node2 -->
<g id="edge1" class="edge"><title>Node1&#45;&gt;Node2</title>
<path fill="none" stroke="midnightblue" d="M95.844,-57.5516C120.613,-66.5323 158.374,-80.2233 189.105,-91.3654"/>
<polygon fill="midnightblue" stroke="midnightblue" points="188.215,-94.7659 198.81,-94.8842 190.602,-88.1851 188.215,-94.7659"/>
</g>
<!-- Node3 -->
<g id="node3" class="node"><title>Node3</title>
<g id="a_node3"><a xlink:href="pdag_8cc.xhtml#a3655e18b0516364663797b84c544bd8b" target="_top" xlink:title="Prints PDAG nodes in the Aralia format. ">
<polygon fill="white" stroke="black" points="173,-38.5 173,-57.5 310,-57.5 310,-38.5 173,-38.5"/>
<text text-anchor="middle" x="241.5" y="-45.5" font-family="Helvetica,sans-Serif" font-size="10.00">scram::core::operator&lt;&lt;</text>
</a>
</g>
</g>
<!-- Node1&#45;&gt;Node3 -->
<g id="edge2" class="edge"><title>Node1&#45;&gt;Node3</title>
<path fill="none" stroke="midnightblue" d="M137.084,-48C145.538,-48 154.237,-48 162.83,-48"/>
<polygon fill="midnightblue" stroke="midnightblue" points="162.847,-51.5001 172.847,-48 162.847,-44.5001 162.847,-51.5001"/>
</g>
<!-- Node6 -->
<g id="node6" class="node"><title>Node6</title>
<g id="a_node6"><a xlink:href="classscram_1_1core_1_1Pdag.xhtml#ae9407efbb00e5f28aecb40db2ab7925b" target="_top" xlink:title="scram::core::Pdag::root">
<polygon fill="white" stroke="black" points="177,-0.5 177,-19.5 306,-19.5 306,-0.5 177,-0.5"/>
<text text-anchor="middle" x="241.5" y="-7.5" font-family="Helvetica,sans-Serif" font-size="10.00">scram::core::Pdag::root</text>
</a>
</g>
</g>
<!-- Node1&#45;&gt;Node6 -->
<g id="edge6" class="edge"><title>Node1&#45;&gt;Node6</title>
<path fill="none" stroke="midnightblue" d="M112.651,-38.411C135.419,-33.3513 163.548,-27.1004 187.619,-21.7512"/>
<polygon fill="midnightblue" stroke="midnightblue" points="188.657,-25.1061 197.66,-19.5201 187.139,-18.2728 188.657,-25.1061"/>
</g>
<!-- Node3&#45;&gt;Node3 -->
<g id="edge3" class="edge"><title>Node3&#45;&gt;Node3</title>
<path fill="none" stroke="midnightblue" d="M215.915,-57.7571C203.468,-66.5653 211.996,-76 241.5,-76 261.323,-76 271.677,-71.741 272.563,-66.2746"/>
<polygon fill="midnightblue" stroke="midnightblue" points="275.438,-64.2749 267.085,-57.7571 269.551,-68.0611 275.438,-64.2749"/>
</g>
<!-- Node4 -->
<g id="node4" class="node"><title>Node4</title>
<g id="a_node4"><a xlink:href="classscram_1_1core_1_1Node.xhtml#a62121e217b0da73112af7e07275f2c15" target="_top" xlink:title="scram::core::Node::\lindex">
<polygon fill="white" stroke="black" points="352,-58 352,-88 463,-88 463,-58 352,-58"/>
<text text-anchor="start" x="360" y="-76" font-family="Helvetica,sans-Serif" font-size="10.00">scram::core::Node::</text>
<text text-anchor="middle" x="407.5" y="-65" font-family="Helvetica,sans-Serif" font-size="10.00">index</text>
</a>
</g>
</g>
<!-- Node3&#45;&gt;Node4 -->
<g id="edge4" class="edge"><title>Node3&#45;&gt;Node4</title>
<path fill="none" stroke="midnightblue" d="M304.969,-57.5227C317.062,-59.3662 329.757,-61.3013 341.916,-63.1549"/>
<polygon fill="midnightblue" stroke="midnightblue" points="341.565,-66.6418 351.978,-64.6888 342.62,-59.7217 341.565,-66.6418"/>
</g>
<!-- Node5 -->
<g id="node5" class="node"><title>Node5</title>
<g id="a_node5"><a xlink:href="classscram_1_1core_1_1Constant.xhtml#a514c31278abe2f912cf7b74beb0888e3" target="_top" xlink:title="scram::core::Constant\l::value">
<polygon fill="white" stroke="black" points="346,-9 346,-39 469,-39 469,-9 346,-9"/>
<text text-anchor="start" x="354" y="-27" font-family="Helvetica,sans-Serif" font-size="10.00">scram::core::Constant</text>
<text text-anchor="middle" x="407.5" y="-16" font-family="Helvetica,sans-Serif" font-size="10.00">::value</text>
</a>
</g>
</g>
<!-- Node3&#45;&gt;Node5 -->
<g id="edge5" class="edge"><title>Node3&#45;&gt;Node5</title>
<path fill="none" stroke="midnightblue" d="M307.788,-38.4456C317.038,-37.092 326.583,-35.6951 335.927,-34.3278"/>
<polygon fill="midnightblue" stroke="midnightblue" points="336.575,-37.7703 345.963,-32.8591 335.562,-30.844 336.575,-37.7703"/>
</g>
</g>
</svg>
