<?xml version="1.0" encoding="UTF-8" standalone="no"?>
<!DOCTYPE svg PUBLIC "-//W3C//DTD SVG 1.1//EN"
 "http://www.w3.org/Graphics/SVG/1.1/DTD/svg11.dtd">
<!-- Generated by graphviz version 2.38.0 (20140413.2041)
 -->
<!-- Title: pdag.h Pages: 1 -->
<!--zoomable 151 -->
<svg id="main" version="1.1" xmlns="http://www.w3.org/2000/svg" xmlns:xlink="http://www.w3.org/1999/xlink" xml:space="preserve" onload="init(evt)">
<style type="text/css"><![CDATA[
.edge:hover path { stroke: red; }
.edge:hover polygon { stroke: red; fill: red; }
]]></style>
<script type="text/javascript"><![CDATA[
var edges = document.getElementsByTagName('g');
if (edges && edges.length) {
  for (var i=0;i<edges.length;i++) {
    if (edges[i].id.substr(0,4)=='edge') {
      edges[i].setAttribute('class','edge');
    }
  }
}
]]></script>
        <defs>
                <circle id="rim" cx="0" cy="0" r="7"/>
                <circle id="rim2" cx="0" cy="0" r="3.5"/>
                <g id="zoomPlus">
                        <use xlink:href="#rim" fill="#404040">
                                <set attributeName="fill" to="#808080" begin="zoomplus.mouseover" end="zoomplus.mouseout"/>
                        </use>
                        <path d="M-4,0h8M0,-4v8" fill="none" stroke="white" stroke-width="1.5" pointer-events="none"/>
                </g>
                <g id="zoomMin">
                        <use xlink:href="#rim" fill="#404040">
                                <set attributeName="fill" to="#808080" begin="zoomminus.mouseover" end="zoomminus.mouseout"/>
                        </use>
                        <path d="M-4,0h8" fill="none" stroke="white" stroke-width="1.5" pointer-events="none"/>
                </g>
                <g id="dirArrow">
                        <path fill="none" stroke="white" stroke-width="1.5" d="M0,-3.0v7 M-2.5,-0.5L0,-3.0L2.5,-0.5"/>
                </g>
               <g id="resetDef">
                       <use xlink:href="#rim2" fill="#404040">
                               <set attributeName="fill" to="#808080" begin="reset.mouseover" end="reset.mouseout"/>
                       </use>
               </g>
        </defs>

<script type="text/javascript">
var viewWidth = 1400;
var viewHeight = 151;
var sectionId = 'dynsection-0';
</script>
<script xlink:href="svgpan.js"/>
<svg id="graph" class="graph">
<g id="viewport">
<title>pdag.h</title>
<polygon fill="white" stroke="none" points="-4,4 -4,-147 1396,-147 1396,4 -4,4"/>
<!-- Node1 -->
<g id="node1" class="node"><title>Node1</title>
<polygon fill="#bfbfbf" stroke="black" points="549.5,-123.5 549.5,-142.5 599.5,-142.5 599.5,-123.5 549.5,-123.5"/>
<text text-anchor="middle" x="574.5" y="-130.5" font-family="Helvetica,sans-Serif" font-size="10.00">pdag.h</text>
</g>
<!-- Node2 -->
<g id="node2" class="node"><title>Node2</title>
<polygon fill="white" stroke="#bfbfbf" points="0,-62 0,-81 49,-81 49,-62 0,-62"/>
<text text-anchor="middle" x="24.5" y="-69" font-family="Helvetica,sans-Serif" font-size="10.00">cstdint</text>
</g>
<!-- Node1&#45;&gt;Node2 -->
<g id="edge1" class="edge"><title>Node1&#45;&gt;Node2</title>
<path fill="none" stroke="midnightblue" d="M549.378,-130.9C459.241,-126.785 152.424,-111.28 57.5,-87 55.1981,-86.4112 52.8531,-85.6781 50.5284,-84.8565"/>
<polygon fill="midnightblue" stroke="midnightblue" points="51.8327,-81.6087 41.249,-81.1232 49.22,-88.1028 51.8327,-81.6087"/>
</g>
<!-- Node3 -->
<g id="node3" class="node"><title>Node3</title>
<polygon fill="white" stroke="#bfbfbf" points="67,-62 67,-81 114,-81 114,-62 67,-62"/>
<text text-anchor="middle" x="90.5" y="-69" font-family="Helvetica,sans-Serif" font-size="10.00">cstdlib</text>
</g>
<!-- Node1&#45;&gt;Node3 -->
<g id="edge2" class="edge"><title>Node1&#45;&gt;Node3</title>
<path fill="none" stroke="midnightblue" d="M549.462,-131.774C481.056,-130.665 285.638,-124.214 128.5,-87 125.505,-86.2906 122.427,-85.4024 119.383,-84.4167"/>
<polygon fill="midnightblue" stroke="midnightblue" points="120.506,-81.1014 109.912,-81.0363 118.153,-87.6941 120.506,-81.1014"/>
</g>
<!-- Node4 -->
<g id="node4" class="node"><title>Node4</title>
<polygon fill="white" stroke="#bfbfbf" points="280.5,-0.5 280.5,-19.5 342.5,-19.5 342.5,-0.5 280.5,-0.5"/>
<text text-anchor="middle" x="311.5" y="-7.5" font-family="Helvetica,sans-Serif" font-size="10.00">algorithm</text>
</g>
<!-- Node1&#45;&gt;Node4 -->
<g id="edge3" class="edge"><title>Node1&#45;&gt;Node4</title>
<path fill="none" stroke="midnightblue" d="M549.258,-129.845C496.909,-124.93 378.792,-111.39 347.5,-87 329.363,-72.8641 319.917,-47.355 315.332,-29.8176"/>
<polygon fill="midnightblue" stroke="midnightblue" points="318.643,-28.5981 312.979,-19.6439 311.823,-30.1754 318.643,-28.5981"/>
</g>
<!-- Node5 -->
<g id="node5" class="node"><title>Node5</title>
<polygon fill="white" stroke="#bfbfbf" points="596.5,-62 596.5,-81 642.5,-81 642.5,-62 596.5,-62"/>
<text text-anchor="middle" x="619.5" y="-69" font-family="Helvetica,sans-Serif" font-size="10.00">iosfwd</text>
</g>
<!-- Node1&#45;&gt;Node5 -->
<g id="edge4" class="edge"><title>Node1&#45;&gt;Node5</title>
<path fill="none" stroke="midnightblue" d="M580.947,-123.475C587.697,-114.55 598.469,-100.307 606.913,-89.1425"/>
<polygon fill="midnightblue" stroke="midnightblue" points="609.824,-91.0962 613.065,-81.0091 604.241,-86.8737 609.824,-91.0962"/>
</g>
<!-- Node6 -->
<g id="node6" class="node"><title>Node6</title>
<polygon fill="white" stroke="#bfbfbf" points="661,-62 661,-81 718,-81 718,-62 661,-62"/>
<text text-anchor="middle" x="689.5" y="-69" font-family="Helvetica,sans-Serif" font-size="10.00">memory</text>
</g>
<!-- Node1&#45;&gt;Node6 -->
<g id="edge5" class="edge"><title>Node1&#45;&gt;Node6</title>
<path fill="none" stroke="midnightblue" d="M590.977,-123.475C610.105,-113.578 641.873,-97.1416 664.152,-85.6151"/>
<polygon fill="midnightblue" stroke="midnightblue" points="665.781,-88.713 673.054,-81.0091 662.564,-82.4958 665.781,-88.713"/>
</g>
<!-- Node7 -->
<g id="node7" class="node"><title>Node7</title>
<polygon fill="white" stroke="#bfbfbf" points="736.5,-62 736.5,-81 804.5,-81 804.5,-62 736.5,-62"/>
<text text-anchor="middle" x="770.5" y="-69" font-family="Helvetica,sans-Serif" font-size="10.00">type_traits</text>
</g>
<!-- Node1&#45;&gt;Node7 -->
<g id="edge6" class="edge"><title>Node1&#45;&gt;Node7</title>
<path fill="none" stroke="midnightblue" d="M599.502,-124.972C629.871,-116.36 682.613,-101.163 727.5,-87 730.247,-86.1332 733.086,-85.2183 735.936,-84.2866"/>
<polygon fill="midnightblue" stroke="midnightblue" points="737.153,-87.5705 745.543,-81.1001 734.949,-80.9264 737.153,-87.5705"/>
</g>
<!-- Node8 -->
<g id="node8" class="node"><title>Node8</title>
<polygon fill="white" stroke="#bfbfbf" points="823,-62 823,-81 916,-81 916,-62 823,-62"/>
<text text-anchor="middle" x="869.5" y="-69" font-family="Helvetica,sans-Serif" font-size="10.00">unordered_map</text>
</g>
<!-- Node1&#45;&gt;Node8 -->
<g id="edge7" class="edge"><title>Node1&#45;&gt;Node8</title>
<path fill="none" stroke="midnightblue" d="M599.733,-127.824C643.45,-120.46 736.031,-104.302 813.5,-87 818.272,-85.9342 823.254,-84.7493 828.195,-83.5292"/>
<polygon fill="midnightblue" stroke="midnightblue" points="829.357,-86.8456 838.195,-81.0022 827.642,-80.0589 829.357,-86.8456"/>
</g>
<!-- Node9 -->
<g id="node9" class="node"><title>Node9</title>
<polygon fill="white" stroke="#bfbfbf" points="200.5,-0.5 200.5,-19.5 242.5,-19.5 242.5,-0.5 200.5,-0.5"/>
<text text-anchor="middle" x="221.5" y="-7.5" font-family="Helvetica,sans-Serif" font-size="10.00">utility</text>
</g>
<!-- Node1&#45;&gt;Node9 -->
<g id="edge8" class="edge"><title>Node1&#45;&gt;Node9</title>
<path fill="none" stroke="midnightblue" d="M549.367,-131.166C463.915,-128.076 188.44,-115.928 162.5,-87 153.302,-76.7424 156.388,-68.348 162.5,-56 169.103,-42.6595 181.765,-32.1941 193.671,-24.7262"/>
<polygon fill="midnightblue" stroke="midnightblue" points="195.618,-27.6435 202.516,-19.6018 192.109,-21.5866 195.618,-27.6435"/>
</g>
<!-- Node10 -->
<g id="node10" class="node"><title>Node10</title>
<polygon fill="white" stroke="#bfbfbf" points="934.5,-62 934.5,-81 984.5,-81 984.5,-62 934.5,-62"/>
<text text-anchor="middle" x="959.5" y="-69" font-family="Helvetica,sans-Serif" font-size="10.00">variant</text>
</g>
<!-- Node1&#45;&gt;Node10 -->
<g id="edge9" class="edge"><title>Node1&#45;&gt;Node10</title>
<path fill="none" stroke="midnightblue" d="M599.641,-131.145C657.915,-128.654 806.334,-119.38 925.5,-87 927.799,-86.3753 930.146,-85.6269 932.479,-84.8037"/>
<polygon fill="midnightblue" stroke="midnightblue" points="933.807,-88.0427 941.831,-81.1247 931.244,-81.5286 933.807,-88.0427"/>
</g>
<!-- Node11 -->
<g id="node11" class="node"><title>Node11</title>
<polygon fill="white" stroke="#bfbfbf" points="373,-0.5 373,-19.5 420,-19.5 420,-0.5 373,-0.5"/>
<text text-anchor="middle" x="396.5" y="-7.5" font-family="Helvetica,sans-Serif" font-size="10.00">vector</text>
</g>
<!-- Node1&#45;&gt;Node11 -->
<g id="edge10" class="edge"><title>Node1&#45;&gt;Node11</title>
<path fill="none" stroke="midnightblue" d="M549.441,-130.641C497.617,-127.251 381.484,-116.468 357.5,-87 342.375,-68.4169 361.874,-43.0194 378.319,-26.8101"/>
<polygon fill="midnightblue" stroke="midnightblue" points="381.057,-29.0421 385.981,-19.6611 376.282,-23.9239 381.057,-29.0421"/>
</g>
<!-- Node12 -->
<g id="node12" class="node"><title>Node12</title>
<polygon fill="white" stroke="#bfbfbf" points="1002.5,-56.5 1002.5,-86.5 1112.5,-86.5 1112.5,-56.5 1002.5,-56.5"/>
<text text-anchor="start" x="1010.5" y="-74.5" font-family="Helvetica,sans-Serif" font-size="10.00">boost/container/flat</text>
<text text-anchor="middle" x="1057.5" y="-63.5" font-family="Helvetica,sans-Serif" font-size="10.00">_set.hpp</text>
</g>
<!-- Node1&#45;&gt;Node12 -->
<g id="edge11" class="edge"><title>Node1&#45;&gt;Node12</title>
<path fill="none" stroke="midnightblue" d="M599.668,-130.319C663.588,-125.832 837.503,-112.279 992.258,-87.0809"/>
<polygon fill="midnightblue" stroke="midnightblue" points="993.125,-90.4852 1002.42,-85.4043 991.986,-83.5785 993.125,-90.4852"/>
</g>
<!-- Node13 -->
<g id="node13" class="node"><title>Node13</title>
<polygon fill="white" stroke="#bfbfbf" points="1130.5,-62 1130.5,-81 1258.5,-81 1258.5,-62 1130.5,-62"/>
<text text-anchor="middle" x="1194.5" y="-69" font-family="Helvetica,sans-Serif" font-size="10.00">boost/noncopyable.hpp</text>
</g>
<!-- Node1&#45;&gt;Node13 -->
<g id="edge12" class="edge"><title>Node1&#45;&gt;Node13</title>
<path fill="none" stroke="midnightblue" d="M599.693,-130.951C677.603,-127.487 921.444,-115.005 1121.5,-87 1129.51,-85.8793 1137.96,-84.4404 1146.16,-82.9057"/>
<polygon fill="midnightblue" stroke="midnightblue" points="1146.84,-86.3386 1156,-81.0012 1145.51,-79.4662 1146.84,-86.3386"/>
</g>
<!-- Node14 -->
<g id="node14" class="node"><title>Node14</title>
<polygon fill="white" stroke="#bfbfbf" points="1277,-56.5 1277,-86.5 1392,-86.5 1392,-56.5 1277,-56.5"/>
<text text-anchor="start" x="1285" y="-74.5" font-family="Helvetica,sans-Serif" font-size="10.00">boost/range/adaptor</text>
<text text-anchor="middle" x="1334.5" y="-63.5" font-family="Helvetica,sans-Serif" font-size="10.00">/transformed.hpp</text>
</g>
<!-- Node1&#45;&gt;Node14 -->
<g id="edge13" class="edge"><title>Node1&#45;&gt;Node14</title>
<path fill="none" stroke="midnightblue" d="M599.81,-131.709C689.466,-130.394 1000.36,-123.426 1266.61,-86.9648"/>
<polygon fill="midnightblue" stroke="midnightblue" points="1267.43,-90.3842 1276.85,-85.5436 1266.47,-83.4505 1267.43,-90.3842"/>
</g>
<!-- Node15 -->
<g id="node15" class="node"><title>Node15</title>
<g id="a_node15"><a xlink:href="find__iterator_8h.xhtml" target="_top" xlink:title="Convenience iterator adaptor to wrap find calls and results. ">
<polygon fill="white" stroke="black" points="171,-62 171,-81 272,-81 272,-62 171,-62"/>
<text text-anchor="middle" x="221.5" y="-69" font-family="Helvetica,sans-Serif" font-size="10.00">ext/find_iterator.h</text>
</a>
</g>
</g>
<!-- Node1&#45;&gt;Node15 -->
<g id="edge14" class="edge"><title>Node1&#45;&gt;Node15</title>
<path fill="none" stroke="midnightblue" d="M549.366,-128.629C499.212,-121.779 383.21,-105.323 286.5,-87 280.387,-85.8418 273.972,-84.5298 267.652,-83.1799"/>
<polygon fill="midnightblue" stroke="midnightblue" points="268.371,-79.7547 257.855,-81.044 266.88,-86.594 268.371,-79.7547"/>
</g>
<!-- Node16 -->
<g id="node16" class="node"><title>Node16</title>
<g id="a_node16"><a xlink:href="index__map_8h.xhtml" target="_top" xlink:title="Non&#45;zero based Index&#45;&gt;Value map adapter on sequential containers. ">
<polygon fill="white" stroke="black" points="366.5,-62 366.5,-81 462.5,-81 462.5,-62 366.5,-62"/>
<text text-anchor="middle" x="414.5" y="-69" font-family="Helvetica,sans-Serif" font-size="10.00">ext/index_map.h</text>
</a>
</g>
</g>
<!-- Node1&#45;&gt;Node16 -->
<g id="edge16" class="edge"><title>Node1&#45;&gt;Node16</title>
<path fill="none" stroke="midnightblue" d="M551.576,-123.475C524.13,-113.269 477.984,-96.108 446.901,-84.5492"/>
<polygon fill="midnightblue" stroke="midnightblue" points="447.974,-81.2142 437.382,-81.0091 445.535,-87.7752 447.974,-81.2142"/>
</g>
<!-- Node17 -->
<g id="node17" class="node"><title>Node17</title>
<g id="a_node17"><a xlink:href="linear__map_8h.xhtml" target="_top" xlink:title="Implementation of a vector&#45;based map for a small number of entries. ">
<polygon fill="white" stroke="black" points="481,-62 481,-81 578,-81 578,-62 481,-62"/>
<text text-anchor="middle" x="529.5" y="-69" font-family="Helvetica,sans-Serif" font-size="10.00">ext/linear_map.h</text>
</a>
</g>
</g>
<!-- Node1&#45;&gt;Node17 -->
<g id="edge18" class="edge"><title>Node1&#45;&gt;Node17</title>
<path fill="none" stroke="midnightblue" d="M568.053,-123.475C561.303,-114.55 550.531,-100.307 542.087,-89.1425"/>
<polygon fill="midnightblue" stroke="midnightblue" points="544.759,-86.8737 535.935,-81.0091 539.176,-91.0962 544.759,-86.8737"/>
</g>
<!-- Node15&#45;&gt;Node9 -->
<g id="edge15" class="edge"><title>Node15&#45;&gt;Node9</title>
<path fill="none" stroke="midnightblue" d="M221.5,-61.9751C221.5,-53.5803 221.5,-40.4806 221.5,-29.6631"/>
<polygon fill="midnightblue" stroke="midnightblue" points="225,-29.5091 221.5,-19.5091 218,-29.5091 225,-29.5091"/>
</g>
<!-- Node16&#45;&gt;Node11 -->
<g id="edge17" class="edge"><title>Node16&#45;&gt;Node11</title>
<path fill="none" stroke="midnightblue" d="M411.921,-61.9751C409.355,-53.4919 405.335,-40.2043 402.043,-29.3222"/>
<polygon fill="midnightblue" stroke="midnightblue" points="405.32,-28.0672 399.074,-19.5091 398.62,-30.0942 405.32,-28.0672"/>
</g>
<!-- Node17&#45;&gt;Node4 -->
<g id="edge20" class="edge"><title>Node17&#45;&gt;Node4</title>
<path fill="none" stroke="midnightblue" d="M498.266,-61.9751C459.9,-51.5036 394.713,-33.7118 352.389,-22.1601"/>
<polygon fill="midnightblue" stroke="midnightblue" points="353.245,-18.7657 342.676,-19.5091 351.402,-25.5187 353.245,-18.7657"/>
</g>
<!-- Node17&#45;&gt;Node9 -->
<g id="edge23" class="edge"><title>Node17&#45;&gt;Node9</title>
<path fill="none" stroke="midnightblue" d="M497.073,-61.9867C488.763,-59.9169 479.821,-57.787 471.5,-56 470.829,-55.8558 319.626,-28.6524 252.724,-16.6169"/>
<polygon fill="midnightblue" stroke="midnightblue" points="253.208,-13.1479 242.746,-14.822 251.969,-20.0373 253.208,-13.1479"/>
</g>
<!-- Node17&#45;&gt;Node11 -->
<g id="edge24" class="edge"><title>Node17&#45;&gt;Node11</title>
<path fill="none" stroke="midnightblue" d="M510.444,-61.9751C488.025,-51.9455 450.595,-35.2002 424.787,-23.6546"/>
<polygon fill="midnightblue" stroke="midnightblue" points="426.078,-20.3979 415.52,-19.5091 423.219,-26.7877 426.078,-20.3979"/>
</g>
<!-- Node18 -->
<g id="node18" class="node"><title>Node18</title>
<polygon fill="white" stroke="#bfbfbf" points="438.5,-0.5 438.5,-19.5 490.5,-19.5 490.5,-0.5 438.5,-0.5"/>
<text text-anchor="middle" x="464.5" y="-7.5" font-family="Helvetica,sans-Serif" font-size="10.00">cassert</text>
</g>
<!-- Node17&#45;&gt;Node18 -->
<g id="edge19" class="edge"><title>Node17&#45;&gt;Node18</title>
<path fill="none" stroke="midnightblue" d="M520.187,-61.9751C510.051,-52.6966 493.636,-37.6706 481.248,-26.331"/>
<polygon fill="midnightblue" stroke="midnightblue" points="483.535,-23.6795 473.796,-19.5091 478.809,-28.8429 483.535,-23.6795"/>
</g>
<!-- Node19 -->
<g id="node19" class="node"><title>Node19</title>
<polygon fill="white" stroke="#bfbfbf" points="509,-0.5 509,-19.5 586,-19.5 586,-0.5 509,-0.5"/>
<text text-anchor="middle" x="547.5" y="-7.5" font-family="Helvetica,sans-Serif" font-size="10.00">initializer_list</text>
</g>
<!-- Node17&#45;&gt;Node19 -->
<g id="edge21" class="edge"><title>Node17&#45;&gt;Node19</title>
<path fill="none" stroke="midnightblue" d="M532.079,-61.9751C534.645,-53.4919 538.665,-40.2043 541.957,-29.3222"/>
<polygon fill="midnightblue" stroke="midnightblue" points="545.38,-30.0942 544.926,-19.5091 538.68,-28.0672 545.38,-30.0942"/>
</g>
<!-- Node20 -->
<g id="node20" class="node"><title>Node20</title>
<polygon fill="white" stroke="#bfbfbf" points="604.5,-0.5 604.5,-19.5 668.5,-19.5 668.5,-0.5 604.5,-0.5"/>
<text text-anchor="middle" x="636.5" y="-7.5" font-family="Helvetica,sans-Serif" font-size="10.00">stdexcept</text>
</g>
<!-- Node17&#45;&gt;Node20 -->
<g id="edge22" class="edge"><title>Node17&#45;&gt;Node20</title>
<path fill="none" stroke="midnightblue" d="M544.83,-61.9751C562.47,-52.1664 591.66,-35.9346 612.358,-24.425"/>
<polygon fill="midnightblue" stroke="midnightblue" points="614.159,-27.4279 621.198,-19.5091 610.757,-21.3102 614.159,-27.4279"/>
</g>
</g>
</svg>
        <g id="navigator" transform="translate(0 0)" fill="#404254">
                <rect fill="#f2f5e9" fill-opacity="0.5" stroke="#606060" stroke-width=".5" x="0" y="0" width="60" height="60"/>
                <use id="zoomplus" xlink:href="#zoomPlus" x="17" y="9" onmousedown="handleZoom(evt,'in')"/>
                <use id="zoomminus" xlink:href="#zoomMin" x="42" y="9" onmousedown="handleZoom(evt,'out')"/>
                <use id="reset" xlink:href="#resetDef" x="30" y="36" onmousedown="handleReset()"/>
                <g id="arrowUp" xlink:href="#dirArrow" transform="translate(30 24)" onmousedown="handlePan(0,-1)">
                  <use xlink:href="#rim" fill="#404040">
                        <set attributeName="fill" to="#808080" begin="arrowUp.mouseover" end="arrowUp.mouseout"/>
                  </use>
                  <path fill="none" stroke="white" stroke-width="1.5" d="M0,-3.0v7 M-2.5,-0.5L0,-3.0L2.5,-0.5"/>
                </g>
                <g id="arrowRight" xlink:href="#dirArrow" transform="rotate(90) translate(36 -43)" onmousedown="handlePan(1,0)">
                  <use xlink:href="#rim" fill="#404040">
                        <set attributeName="fill" to="#808080" begin="arrowRight.mouseover" end="arrowRight.mouseout"/>
                  </use>
                  <path fill="none" stroke="white" stroke-width="1.5" d="M0,-3.0v7 M-2.5,-0.5L0,-3.0L2.5,-0.5"/>
                </g>
                <g id="arrowDown" xlink:href="#dirArrow" transform="rotate(180) translate(-30 -48)" onmousedown="handlePan(0,1)">
                  <use xlink:href="#rim" fill="#404040">
                        <set attributeName="fill" to="#808080" begin="arrowDown.mouseover" end="arrowDown.mouseout"/>
                  </use>
                  <path fill="none" stroke="white" stroke-width="1.5" d="M0,-3.0v7 M-2.5,-0.5L0,-3.0L2.5,-0.5"/>
                </g>
                <g id="arrowLeft" xlink:href="#dirArrow" transform="rotate(270) translate(-36 17)" onmousedown="handlePan(-1,0)">
                  <use xlink:href="#rim" fill="#404040">
                        <set attributeName="fill" to="#808080" begin="arrowLeft.mouseover" end="arrowLeft.mouseout"/>
                  </use>
                  <path fill="none" stroke="white" stroke-width="1.5" d="M0,-3.0v7 M-2.5,-0.5L0,-3.0L2.5,-0.5"/>
                </g>
        </g>
        <svg viewBox="0 0 15 15" width="100%" height="30px" preserveAspectRatio="xMaxYMin meet">
         <g id="arrow_out" transform="scale(0.3 0.3)">
          <a xlink:href="pdag_8h__incl_org.svg" target="_base">
           <rect id="button" ry="5" rx="5" y="6" x="6" height="38" width="38"
                fill="#f2f5e9" fill-opacity="0.5" stroke="#606060" stroke-width="1.0"/>
           <path id="arrow"
             d="M 11.500037,31.436501 C 11.940474,20.09759 22.043105,11.32322 32.158766,21.979434 L 37.068811,17.246167 C 37.068811,17.246167 37.088388,32 37.088388,32 L 22.160133,31.978069 C 22.160133,31.978069 26.997745,27.140456 26.997745,27.140456 C 18.528582,18.264221 13.291696,25.230495 11.500037,31.436501 z"
             style="fill:#404040;"/>
          </a>
         </g>
        </svg>
</svg>
