<?xml version="1.0" encoding="UTF-8" standalone="no"?>
<!DOCTYPE svg PUBLIC "-//W3C//DTD SVG 1.1//EN"
 "http://www.w3.org/Graphics/SVG/1.1/DTD/svg11.dtd">
<!-- Generated by graphviz version 2.38.0 (20140413.2041)
 -->
<!-- Title: project.h Pages: 1 -->
<svg width="150pt" height="84pt"
 viewBox="0.00 0.00 149.50 84.00" xmlns="http://www.w3.org/2000/svg" xmlns:xlink="http://www.w3.org/1999/xlink">
<g id="graph0" class="graph" transform="scale(1 1) rotate(0) translate(4 80)">
<title>project.h</title>
<polygon fill="white" stroke="none" points="-4,4 -4,-80 145.5,-80 145.5,4 -4,4"/>
<!-- Node1 -->
<g id="node1" class="node"><title>Node1</title>
<polygon fill="#bfbfbf" stroke="black" points="42,-56.5 42,-75.5 101,-75.5 101,-56.5 42,-56.5"/>
<text text-anchor="middle" x="71.5" y="-63.5" font-family="Helvetica,sans-Serif" font-size="10.00">project.h</text>
</g>
<!-- Node2 -->
<g id="node2" class="node"><title>Node2</title>
<g id="a_node2"><a xlink:href="project_8cc.xhtml" target="_top" xlink:title="Implementation of project configuration facilities. ">
<polygon fill="white" stroke="black" points="0,-0.5 0,-19.5 63,-19.5 63,-0.5 0,-0.5"/>
<text text-anchor="middle" x="31.5" y="-7.5" font-family="Helvetica,sans-Serif" font-size="10.00">project.cc</text>
</a>
</g>
</g>
<!-- Node1&#45;&gt;Node2 -->
<g id="edge1" class="edge"><title>Node1&#45;&gt;Node2</title>
<path fill="none" stroke="midnightblue" d="M58.8003,-47.8554C51.874,-38.5048 43.5937,-27.3265 37.9823,-19.7511"/>
<polygon fill="midnightblue" stroke="midnightblue" points="56.13,-50.1307 64.8948,-56.083 61.755,-45.9641 56.13,-50.1307"/>
</g>
<!-- Node3 -->
<g id="node3" class="node"><title>Node3</title>
<g id="a_node3"><a xlink:href="scram_8cc.xhtml" target="_top" xlink:title="Main entrance. ">
<polygon fill="white" stroke="black" points="81.5,-0.5 81.5,-19.5 141.5,-19.5 141.5,-0.5 81.5,-0.5"/>
<text text-anchor="middle" x="111.5" y="-7.5" font-family="Helvetica,sans-Serif" font-size="10.00">scram.cc</text>
</a>
</g>
</g>
<!-- Node1&#45;&gt;Node3 -->
<g id="edge2" class="edge"><title>Node1&#45;&gt;Node3</title>
<path fill="none" stroke="midnightblue" d="M84.1997,-47.8554C91.126,-38.5048 99.4063,-27.3265 105.018,-19.7511"/>
<polygon fill="midnightblue" stroke="midnightblue" points="81.245,-45.9641 78.1052,-56.083 86.87,-50.1307 81.245,-45.9641"/>
</g>
</g>
</svg>
