<?xml version="1.0" encoding="UTF-8" standalone="no"?>
<!DOCTYPE svg PUBLIC "-//W3C//DTD SVG 1.1//EN"
 "http://www.w3.org/Graphics/SVG/1.1/DTD/svg11.dtd">
<!-- Generated by graphviz version 2.38.0 (20140413.2041)
 -->
<!-- Title: project.h Pages: 1 -->
<svg width="2168pt" height="218pt"
 viewBox="0.00 0.00 2168.00 218.00" xmlns="http://www.w3.org/2000/svg" xmlns:xlink="http://www.w3.org/1999/xlink">
<g id="graph0" class="graph" transform="scale(1 1) rotate(0) translate(4 214)">
<title>project.h</title>
<polygon fill="white" stroke="none" points="-4,4 -4,-214 2164,-214 2164,4 -4,4"/>
<!-- Node1 -->
<g id="node1" class="node"><title>Node1</title>
<polygon fill="#bfbfbf" stroke="black" points="1896,-190.5 1896,-209.5 1955,-209.5 1955,-190.5 1896,-190.5"/>
<text text-anchor="middle" x="1925.5" y="-197.5" font-family="Helvetica,sans-Serif" font-size="10.00">project.h</text>
</g>
<!-- Node2 -->
<g id="node2" class="node"><title>Node2</title>
<polygon fill="white" stroke="#bfbfbf" points="1865.5,-6 1865.5,-25 1909.5,-25 1909.5,-6 1865.5,-6"/>
<text text-anchor="middle" x="1887.5" y="-13" font-family="Helvetica,sans-Serif" font-size="10.00">string</text>
</g>
<!-- Node1&#45;&gt;Node2 -->
<g id="edge1" class="edge"><title>Node1&#45;&gt;Node2</title>
<path fill="none" stroke="midnightblue" d="M1923.67,-190.198C1917.81,-162.073 1899.46,-73.9576 1891.38,-35.1575"/>
<polygon fill="midnightblue" stroke="midnightblue" points="1894.78,-34.2906 1889.31,-25.214 1887.93,-35.7176 1894.78,-34.2906"/>
</g>
<!-- Node3 -->
<g id="node3" class="node"><title>Node3</title>
<polygon fill="white" stroke="#bfbfbf" points="1954,-134.5 1954,-153.5 2001,-153.5 2001,-134.5 1954,-134.5"/>
<text text-anchor="middle" x="1977.5" y="-141.5" font-family="Helvetica,sans-Serif" font-size="10.00">vector</text>
</g>
<!-- Node1&#45;&gt;Node3 -->
<g id="edge2" class="edge"><title>Node1&#45;&gt;Node3</title>
<path fill="none" stroke="midnightblue" d="M1934.09,-190.083C1941.66,-182.22 1952.88,-170.569 1962.01,-161.081"/>
<polygon fill="midnightblue" stroke="midnightblue" points="1964.66,-163.382 1969.07,-153.751 1959.62,-158.527 1964.66,-163.382"/>
</g>
<!-- Node4 -->
<g id="node4" class="node"><title>Node4</title>
<polygon fill="white" stroke="#bfbfbf" points="2019,-134.5 2019,-153.5 2160,-153.5 2160,-134.5 2019,-134.5"/>
<text text-anchor="middle" x="2089.5" y="-141.5" font-family="Helvetica,sans-Serif" font-size="10.00">boost/filesystem/path.hpp</text>
</g>
<!-- Node1&#45;&gt;Node4 -->
<g id="edge3" class="edge"><title>Node1&#45;&gt;Node4</title>
<path fill="none" stroke="midnightblue" d="M1951.49,-190.444C1979.2,-181.32 2023.25,-166.813 2054.12,-156.651"/>
<polygon fill="midnightblue" stroke="midnightblue" points="2055.23,-159.968 2063.64,-153.516 2053.04,-153.32 2055.23,-159.968"/>
</g>
<!-- Node5 -->
<g id="node5" class="node"><title>Node5</title>
<g id="a_node5"><a xlink:href="settings_8h.xhtml" target="_top" xlink:title="Builder for settings. ">
<polygon fill="white" stroke="black" points="79.5,-134.5 79.5,-153.5 143.5,-153.5 143.5,-134.5 79.5,-134.5"/>
<text text-anchor="middle" x="111.5" y="-141.5" font-family="Helvetica,sans-Serif" font-size="10.00">settings.h</text>
</a>
</g>
</g>
<!-- Node1&#45;&gt;Node5 -->
<g id="edge4" class="edge"><title>Node1&#45;&gt;Node5</title>
<path fill="none" stroke="midnightblue" d="M1895.9,-198.119C1684.39,-191.823 403.766,-153.7 153.788,-146.259"/>
<polygon fill="midnightblue" stroke="midnightblue" points="153.76,-142.757 143.661,-145.957 153.552,-149.753 153.76,-142.757"/>
</g>
<!-- Node8 -->
<g id="node8" class="node"><title>Node8</title>
<g id="a_node8"><a xlink:href="xml_8h.xhtml" target="_top" xlink:title="XML helper facilities to work with libxml2. ">
<polygon fill="white" stroke="black" points="1222,-134.5 1222,-153.5 1265,-153.5 1265,-134.5 1222,-134.5"/>
<text text-anchor="middle" x="1243.5" y="-141.5" font-family="Helvetica,sans-Serif" font-size="10.00">xml.h</text>
</a>
</g>
</g>
<!-- Node1&#45;&gt;Node8 -->
<g id="edge7" class="edge"><title>Node1&#45;&gt;Node8</title>
<path fill="none" stroke="midnightblue" d="M1895.76,-196.645C1784.12,-187.805 1390.57,-156.645 1275.39,-147.525"/>
<polygon fill="midnightblue" stroke="midnightblue" points="1275.38,-144.013 1265.13,-146.713 1274.83,-150.991 1275.38,-144.013"/>
</g>
<!-- Node6 -->
<g id="node6" class="node"><title>Node6</title>
<polygon fill="white" stroke="#bfbfbf" points="87,-73 87,-92 136,-92 136,-73 87,-73"/>
<text text-anchor="middle" x="111.5" y="-80" font-family="Helvetica,sans-Serif" font-size="10.00">cstdint</text>
</g>
<!-- Node5&#45;&gt;Node6 -->
<g id="edge5" class="edge"><title>Node5&#45;&gt;Node6</title>
<path fill="none" stroke="midnightblue" d="M111.5,-134.475C111.5,-126.08 111.5,-112.981 111.5,-102.163"/>
<polygon fill="midnightblue" stroke="midnightblue" points="115,-102.009 111.5,-92.0091 108,-102.009 115,-102.009"/>
</g>
<!-- Node7 -->
<g id="node7" class="node"><title>Node7</title>
<polygon fill="white" stroke="#bfbfbf" points="0,-73 0,-92 69,-92 69,-73 0,-73"/>
<text text-anchor="middle" x="34.5" y="-80" font-family="Helvetica,sans-Serif" font-size="10.00">string_view</text>
</g>
<!-- Node5&#45;&gt;Node7 -->
<g id="edge6" class="edge"><title>Node5&#45;&gt;Node7</title>
<path fill="none" stroke="midnightblue" d="M100.468,-134.475C88.2316,-125.02 68.2715,-109.596 53.5069,-98.1871"/>
<polygon fill="midnightblue" stroke="midnightblue" points="55.5647,-95.3541 45.5118,-92.0091 51.2845,-100.893 55.5647,-95.3541"/>
</g>
<!-- Node8&#45;&gt;Node2 -->
<g id="edge15" class="edge"><title>Node8&#45;&gt;Node2</title>
<path fill="none" stroke="midnightblue" d="M1265.31,-142.935C1370.45,-142.427 1821.76,-137.916 1868.5,-98 1886.43,-82.6918 1889.26,-54.0514 1888.93,-35.1269"/>
<polygon fill="midnightblue" stroke="midnightblue" points="1892.43,-34.8627 1888.45,-25.0431 1885.43,-35.2002 1892.43,-34.8627"/>
</g>
<!-- Node8&#45;&gt;Node6 -->
<g id="edge9" class="edge"><title>Node8&#45;&gt;Node6</title>
<path fill="none" stroke="midnightblue" d="M1221.61,-143.176C1086.19,-144.102 361.145,-146.684 145.5,-98 142.981,-97.4312 140.413,-96.6828 137.874,-95.8254"/>
<polygon fill="midnightblue" stroke="midnightblue" points="138.981,-92.5002 128.392,-92.1272 136.437,-99.0217 138.981,-92.5002"/>
</g>
<!-- Node8&#45;&gt;Node7 -->
<g id="edge16" class="edge"><title>Node8&#45;&gt;Node7</title>
<path fill="none" stroke="midnightblue" d="M1221.68,-143.009C1081.78,-142.939 309.115,-140.603 77.5,-98 73.6016,-97.2829 69.5747,-96.2877 65.6203,-95.1512"/>
<polygon fill="midnightblue" stroke="midnightblue" points="66.6449,-91.8044 56.0546,-92.1136 64.5263,-98.4761 66.6449,-91.8044"/>
</g>
<!-- Node9 -->
<g id="node9" class="node"><title>Node9</title>
<polygon fill="white" stroke="#bfbfbf" points="1468,-73 1468,-92 1515,-92 1515,-73 1468,-73"/>
<text text-anchor="middle" x="1491.5" y="-80" font-family="Helvetica,sans-Serif" font-size="10.00">cmath</text>
</g>
<!-- Node8&#45;&gt;Node9 -->
<g id="edge8" class="edge"><title>Node8&#45;&gt;Node9</title>
<path fill="none" stroke="midnightblue" d="M1265.24,-139.979C1304.49,-134.191 1389.5,-120.115 1458.5,-98 1460.42,-97.384 1462.38,-96.6931 1464.34,-95.956"/>
<polygon fill="midnightblue" stroke="midnightblue" points="1466.03,-99.0492 1473.95,-92.0173 1463.37,-92.5724 1466.03,-99.0492"/>
</g>
<!-- Node10 -->
<g id="node10" class="node"><title>Node10</title>
<polygon fill="white" stroke="#bfbfbf" points="1533,-73 1533,-92 1580,-92 1580,-73 1533,-73"/>
<text text-anchor="middle" x="1556.5" y="-80" font-family="Helvetica,sans-Serif" font-size="10.00">cstdlib</text>
</g>
<!-- Node8&#45;&gt;Node10 -->
<g id="edge10" class="edge"><title>Node8&#45;&gt;Node10</title>
<path fill="none" stroke="midnightblue" d="M1265.09,-141.512C1312.77,-137.801 1430.35,-126.314 1524.5,-98 1526.43,-97.4204 1528.39,-96.7492 1530.35,-96.0198"/>
<polygon fill="midnightblue" stroke="midnightblue" points="1532,-99.1208 1539.88,-92.0408 1529.31,-92.6604 1532,-99.1208"/>
</g>
<!-- Node11 -->
<g id="node11" class="node"><title>Node11</title>
<polygon fill="white" stroke="#bfbfbf" points="1598.5,-73 1598.5,-92 1650.5,-92 1650.5,-73 1598.5,-73"/>
<text text-anchor="middle" x="1624.5" y="-80" font-family="Helvetica,sans-Serif" font-size="10.00">iterator</text>
</g>
<!-- Node8&#45;&gt;Node11 -->
<g id="edge11" class="edge"><title>Node8&#45;&gt;Node11</title>
<path fill="none" stroke="midnightblue" d="M1265.34,-142.151C1320.56,-139.579 1469.82,-129.971 1589.5,-98 1591.95,-97.3465 1594.45,-96.5615 1596.93,-95.6995"/>
<polygon fill="midnightblue" stroke="midnightblue" points="1598.21,-98.9599 1606.29,-92.1078 1595.7,-92.425 1598.21,-98.9599"/>
</g>
<!-- Node12 -->
<g id="node12" class="node"><title>Node12</title>
<polygon fill="white" stroke="#bfbfbf" points="1668.5,-73 1668.5,-92 1710.5,-92 1710.5,-73 1668.5,-73"/>
<text text-anchor="middle" x="1689.5" y="-80" font-family="Helvetica,sans-Serif" font-size="10.00">limits</text>
</g>
<!-- Node8&#45;&gt;Node12 -->
<g id="edge12" class="edge"><title>Node8&#45;&gt;Node12</title>
<path fill="none" stroke="midnightblue" d="M1265.21,-143.234C1327.75,-143.362 1513.2,-139.91 1659.5,-98 1661.38,-97.4623 1663.28,-96.8144 1665.17,-96.0947"/>
<polygon fill="midnightblue" stroke="midnightblue" points="1666.58,-99.2987 1674.33,-92.0751 1663.77,-92.8888 1666.58,-99.2987"/>
</g>
<!-- Node13 -->
<g id="node13" class="node"><title>Node13</title>
<polygon fill="white" stroke="#bfbfbf" points="1729,-73 1729,-92 1786,-92 1786,-73 1729,-73"/>
<text text-anchor="middle" x="1757.5" y="-80" font-family="Helvetica,sans-Serif" font-size="10.00">memory</text>
</g>
<!-- Node8&#45;&gt;Node13 -->
<g id="edge13" class="edge"><title>Node8&#45;&gt;Node13</title>
<path fill="none" stroke="midnightblue" d="M1265.18,-143.018C1333.15,-142.637 1547.73,-138.109 1719.5,-98 1722.5,-97.3001 1725.58,-96.418 1728.62,-95.4362"/>
<polygon fill="midnightblue" stroke="midnightblue" points="1729.85,-98.7144 1738.09,-92.0609 1727.5,-92.1205 1729.85,-98.7144"/>
</g>
<!-- Node14 -->
<g id="node14" class="node"><title>Node14</title>
<polygon fill="white" stroke="#bfbfbf" points="1804,-73 1804,-92 1859,-92 1859,-73 1804,-73"/>
<text text-anchor="middle" x="1831.5" y="-80" font-family="Helvetica,sans-Serif" font-size="10.00">optional</text>
</g>
<!-- Node8&#45;&gt;Node14 -->
<g id="edge14" class="edge"><title>Node8&#45;&gt;Node14</title>
<path fill="none" stroke="midnightblue" d="M1265.17,-143.552C1339.95,-144.968 1593.62,-145.721 1795.5,-98 1798.17,-97.3679 1800.91,-96.5692 1803.62,-95.6731"/>
<polygon fill="midnightblue" stroke="midnightblue" points="1805.01,-98.8899 1813.16,-92.124 1802.57,-92.3288 1805.01,-98.8899"/>
</g>
<!-- Node15 -->
<g id="node15" class="node"><title>Node15</title>
<polygon fill="white" stroke="#bfbfbf" points="154.5,-73 154.5,-92 222.5,-92 222.5,-73 154.5,-73"/>
<text text-anchor="middle" x="188.5" y="-80" font-family="Helvetica,sans-Serif" font-size="10.00">type_traits</text>
</g>
<!-- Node8&#45;&gt;Node15 -->
<g id="edge17" class="edge"><title>Node8&#45;&gt;Node15</title>
<path fill="none" stroke="midnightblue" d="M1221.73,-142.861C1093.06,-141.917 430.952,-135.291 231.5,-98 227.604,-97.2715 223.578,-96.2693 219.624,-95.1291"/>
<polygon fill="midnightblue" stroke="midnightblue" points="220.65,-91.7825 210.059,-92.0879 218.529,-98.4535 220.65,-91.7825"/>
</g>
<!-- Node16 -->
<g id="node16" class="node"><title>Node16</title>
<polygon fill="white" stroke="#bfbfbf" points="241,-67.5 241,-97.5 368,-97.5 368,-67.5 241,-67.5"/>
<text text-anchor="start" x="249" y="-85.5" font-family="Helvetica,sans-Serif" font-size="10.00">boost/exception/errinfo</text>
<text text-anchor="middle" x="304.5" y="-74.5" font-family="Helvetica,sans-Serif" font-size="10.00">_at_line.hpp</text>
</g>
<!-- Node8&#45;&gt;Node16 -->
<g id="edge18" class="edge"><title>Node8&#45;&gt;Node16</title>
<path fill="none" stroke="midnightblue" d="M1221.95,-143.044C1125,-143.001 719.502,-140.246 378.101,-98.0776"/>
<polygon fill="midnightblue" stroke="midnightblue" points="378.377,-94.5848 368.02,-96.8185 377.509,-101.531 378.377,-94.5848"/>
</g>
<!-- Node17 -->
<g id="node17" class="node"><title>Node17</title>
<polygon fill="white" stroke="#bfbfbf" points="386,-67.5 386,-97.5 513,-97.5 513,-67.5 386,-67.5"/>
<text text-anchor="start" x="394" y="-85.5" font-family="Helvetica,sans-Serif" font-size="10.00">boost/exception/errinfo</text>
<text text-anchor="middle" x="449.5" y="-74.5" font-family="Helvetica,sans-Serif" font-size="10.00">_errno.hpp</text>
</g>
<!-- Node8&#45;&gt;Node17 -->
<g id="edge19" class="edge"><title>Node8&#45;&gt;Node17</title>
<path fill="none" stroke="midnightblue" d="M1221.87,-142.704C1135.25,-141.301 804.919,-133.85 523.122,-97.9463"/>
<polygon fill="midnightblue" stroke="midnightblue" points="523.484,-94.4641 513.119,-96.6571 522.589,-101.407 523.484,-94.4641"/>
</g>
<!-- Node18 -->
<g id="node18" class="node"><title>Node18</title>
<polygon fill="white" stroke="#bfbfbf" points="531,-67.5 531,-97.5 658,-97.5 658,-67.5 531,-67.5"/>
<text text-anchor="start" x="539" y="-85.5" font-family="Helvetica,sans-Serif" font-size="10.00">boost/exception/errinfo</text>
<text text-anchor="middle" x="594.5" y="-74.5" font-family="Helvetica,sans-Serif" font-size="10.00">_file_name.hpp</text>
</g>
<!-- Node8&#45;&gt;Node18 -->
<g id="edge20" class="edge"><title>Node8&#45;&gt;Node18</title>
<path fill="none" stroke="midnightblue" d="M1221.96,-142.235C1147,-139.382 890.55,-128.014 668.347,-97.9953"/>
<polygon fill="midnightblue" stroke="midnightblue" points="668.508,-94.4849 658.126,-96.5979 667.56,-101.42 668.508,-94.4849"/>
</g>
<!-- Node19 -->
<g id="node19" class="node"><title>Node19</title>
<polygon fill="white" stroke="#bfbfbf" points="676,-67.5 676,-97.5 803,-97.5 803,-67.5 676,-67.5"/>
<text text-anchor="start" x="684" y="-85.5" font-family="Helvetica,sans-Serif" font-size="10.00">boost/exception/errinfo</text>
<text text-anchor="middle" x="739.5" y="-74.5" font-family="Helvetica,sans-Serif" font-size="10.00">_file_open_mode.hpp</text>
</g>
<!-- Node8&#45;&gt;Node19 -->
<g id="edge21" class="edge"><title>Node8&#45;&gt;Node19</title>
<path fill="none" stroke="midnightblue" d="M1221.88,-141.451C1159.96,-136.865 976.452,-122.235 813.357,-98.0322"/>
<polygon fill="midnightblue" stroke="midnightblue" points="813.549,-94.522 803.141,-96.4993 812.511,-101.444 813.549,-94.522"/>
</g>
<!-- Node20 -->
<g id="node20" class="node"><title>Node20</title>
<polygon fill="white" stroke="#bfbfbf" points="821.5,-67.5 821.5,-97.5 941.5,-97.5 941.5,-67.5 821.5,-67.5"/>
<text text-anchor="start" x="829.5" y="-85.5" font-family="Helvetica,sans-Serif" font-size="10.00">boost/iterator/iterator</text>
<text text-anchor="middle" x="881.5" y="-74.5" font-family="Helvetica,sans-Serif" font-size="10.00">_facade.hpp</text>
</g>
<!-- Node8&#45;&gt;Node20 -->
<g id="edge22" class="edge"><title>Node8&#45;&gt;Node20</title>
<path fill="none" stroke="midnightblue" d="M1221.82,-140.048C1174.75,-133.555 1059.47,-117.207 951.845,-98.0006"/>
<polygon fill="midnightblue" stroke="midnightblue" points="952.252,-94.5178 941.791,-96.1937 951.014,-101.407 952.252,-94.5178"/>
</g>
<!-- Node21 -->
<g id="node21" class="node"><title>Node21</title>
<polygon fill="white" stroke="#bfbfbf" points="960,-67.5 960,-97.5 1075,-97.5 1075,-67.5 960,-67.5"/>
<text text-anchor="start" x="968" y="-85.5" font-family="Helvetica,sans-Serif" font-size="10.00">boost/range/adaptor</text>
<text text-anchor="middle" x="1017.5" y="-74.5" font-family="Helvetica,sans-Serif" font-size="10.00">/filtered.hpp</text>
</g>
<!-- Node8&#45;&gt;Node21 -->
<g id="edge23" class="edge"><title>Node8&#45;&gt;Node21</title>
<path fill="none" stroke="midnightblue" d="M1221.83,-137.295C1189.65,-128.822 1127.95,-112.579 1080.74,-100.149"/>
<polygon fill="midnightblue" stroke="midnightblue" points="1081.46,-96.7197 1070.9,-97.5583 1079.68,-103.489 1081.46,-96.7197"/>
</g>
<!-- Node22 -->
<g id="node22" class="node"><title>Node22</title>
<polygon fill="white" stroke="#bfbfbf" points="1093.5,-73 1093.5,-92 1179.5,-92 1179.5,-73 1093.5,-73"/>
<text text-anchor="middle" x="1136.5" y="-80" font-family="Helvetica,sans-Serif" font-size="10.00">libxml/parser.h</text>
</g>
<!-- Node8&#45;&gt;Node22 -->
<g id="edge24" class="edge"><title>Node8&#45;&gt;Node22</title>
<path fill="none" stroke="midnightblue" d="M1228.17,-134.475C1210.53,-124.666 1181.34,-108.435 1160.64,-96.925"/>
<polygon fill="midnightblue" stroke="midnightblue" points="1162.24,-93.8102 1151.8,-92.0091 1158.84,-99.9279 1162.24,-93.8102"/>
</g>
<!-- Node23 -->
<g id="node23" class="node"><title>Node23</title>
<polygon fill="white" stroke="#bfbfbf" points="1197.5,-73 1197.5,-92 1289.5,-92 1289.5,-73 1197.5,-73"/>
<text text-anchor="middle" x="1243.5" y="-80" font-family="Helvetica,sans-Serif" font-size="10.00">libxml/relaxng.h</text>
</g>
<!-- Node8&#45;&gt;Node23 -->
<g id="edge25" class="edge"><title>Node8&#45;&gt;Node23</title>
<path fill="none" stroke="midnightblue" d="M1243.5,-134.475C1243.5,-126.08 1243.5,-112.981 1243.5,-102.163"/>
<polygon fill="midnightblue" stroke="midnightblue" points="1247,-102.009 1243.5,-92.0091 1240,-102.009 1247,-102.009"/>
</g>
<!-- Node24 -->
<g id="node24" class="node"><title>Node24</title>
<polygon fill="white" stroke="#bfbfbf" points="1307.5,-73 1307.5,-92 1383.5,-92 1383.5,-73 1307.5,-73"/>
<text text-anchor="middle" x="1345.5" y="-80" font-family="Helvetica,sans-Serif" font-size="10.00">libxml/tree.h</text>
</g>
<!-- Node8&#45;&gt;Node24 -->
<g id="edge26" class="edge"><title>Node8&#45;&gt;Node24</title>
<path fill="none" stroke="midnightblue" d="M1258.11,-134.475C1274.85,-124.711 1302.5,-108.581 1322.22,-97.0808"/>
<polygon fill="midnightblue" stroke="midnightblue" points="1324.04,-100.071 1330.91,-92.0091 1320.51,-94.0246 1324.04,-100.071"/>
</g>
<!-- Node25 -->
<g id="node25" class="node"><title>Node25</title>
<g id="a_node25"><a xlink:href="error_8h.xhtml" target="_top" xlink:title="Exceptions for SCRAM. ">
<polygon fill="white" stroke="black" points="1401.5,-73 1401.5,-92 1449.5,-92 1449.5,-73 1401.5,-73"/>
<text text-anchor="middle" x="1425.5" y="-80" font-family="Helvetica,sans-Serif" font-size="10.00">error.h</text>
</a>
</g>
</g>
<!-- Node8&#45;&gt;Node25 -->
<g id="edge27" class="edge"><title>Node8&#45;&gt;Node25</title>
<path fill="none" stroke="midnightblue" d="M1265.24,-137.322C1294.49,-129.478 1348.01,-114.424 1392.5,-98 1394.15,-97.3891 1395.85,-96.737 1397.54,-96.06"/>
<polygon fill="midnightblue" stroke="midnightblue" points="1399.29,-99.1222 1407.16,-92.027 1396.58,-92.6669 1399.29,-99.1222"/>
</g>
<!-- Node25&#45;&gt;Node2 -->
<g id="edge29" class="edge"><title>Node25&#45;&gt;Node2</title>
<path fill="none" stroke="midnightblue" d="M1442.8,-72.958C1448.05,-70.6856 1453.91,-68.46 1459.5,-67 1603.1,-29.4807 1644.31,-50.0873 1791.5,-31 1812.84,-28.2328 1836.77,-24.6198 1855.4,-21.6926"/>
<polygon fill="midnightblue" stroke="midnightblue" points="1856.09,-25.1261 1865.42,-20.1035 1855,-18.2124 1856.09,-25.1261"/>
</g>
<!-- Node26 -->
<g id="node26" class="node"><title>Node26</title>
<polygon fill="white" stroke="#bfbfbf" points="1555,-6 1555,-25 1618,-25 1618,-6 1555,-6"/>
<text text-anchor="middle" x="1586.5" y="-13" font-family="Helvetica,sans-Serif" font-size="10.00">exception</text>
</g>
<!-- Node25&#45;&gt;Node26 -->
<g id="edge28" class="edge"><title>Node25&#45;&gt;Node26</title>
<path fill="none" stroke="midnightblue" d="M1445.24,-72.9834C1449.91,-70.9975 1454.87,-68.9067 1459.5,-67 1491.84,-53.6747 1529.06,-38.9487 1554.8,-28.8548"/>
<polygon fill="midnightblue" stroke="midnightblue" points="1556.37,-31.9982 1564.41,-25.094 1553.82,-25.4797 1556.37,-31.9982"/>
</g>
<!-- Node27 -->
<g id="node27" class="node"><title>Node27</title>
<polygon fill="white" stroke="#bfbfbf" points="1636.5,-6 1636.5,-25 1782.5,-25 1782.5,-6 1636.5,-6"/>
<text text-anchor="middle" x="1709.5" y="-13" font-family="Helvetica,sans-Serif" font-size="10.00">boost/current_function.hpp</text>
</g>
<!-- Node25&#45;&gt;Node27 -->
<g id="edge30" class="edge"><title>Node25&#45;&gt;Node27</title>
<path fill="none" stroke="midnightblue" d="M1443.59,-72.9758C1448.66,-70.8109 1454.23,-68.6373 1459.5,-67 1494.55,-56.1114 1589.03,-38.1491 1651.29,-26.84"/>
<polygon fill="midnightblue" stroke="midnightblue" points="1652.15,-30.2405 1661.37,-25.0155 1650.9,-23.3524 1652.15,-30.2405"/>
</g>
<!-- Node28 -->
<g id="node28" class="node"><title>Node28</title>
<polygon fill="white" stroke="#bfbfbf" points="972.5,-6 972.5,-25 1136.5,-25 1136.5,-6 972.5,-6"/>
<text text-anchor="middle" x="1054.5" y="-13" font-family="Helvetica,sans-Serif" font-size="10.00">boost/exception/exception.hpp</text>
</g>
<!-- Node25&#45;&gt;Node28 -->
<g id="edge31" class="edge"><title>Node25&#45;&gt;Node28</title>
<path fill="none" stroke="midnightblue" d="M1408.36,-72.9241C1403.35,-70.7064 1397.79,-68.5185 1392.5,-67 1285.86,-36.4095 1255.17,-47.7287 1145.5,-31 1136.44,-29.6182 1126.88,-28.1287 1117.5,-26.6491"/>
<polygon fill="midnightblue" stroke="midnightblue" points="1117.84,-23.1597 1107.41,-25.0529 1116.74,-30.0736 1117.84,-23.1597"/>
</g>
<!-- Node29 -->
<g id="node29" class="node"><title>Node29</title>
<polygon fill="white" stroke="#bfbfbf" points="1154.5,-6 1154.5,-25 1288.5,-25 1288.5,-6 1154.5,-6"/>
<text text-anchor="middle" x="1221.5" y="-13" font-family="Helvetica,sans-Serif" font-size="10.00">boost/exception/info.hpp</text>
</g>
<!-- Node25&#45;&gt;Node29 -->
<g id="edge32" class="edge"><title>Node25&#45;&gt;Node29</title>
<path fill="none" stroke="midnightblue" d="M1407.17,-72.9525C1402.44,-70.8834 1397.32,-68.7623 1392.5,-67 1349.77,-51.3731 1299.73,-37.0425 1264.87,-27.6715"/>
<polygon fill="midnightblue" stroke="midnightblue" points="1265.57,-24.2372 1255.01,-25.0449 1263.77,-31.0013 1265.57,-24.2372"/>
</g>
<!-- Node30 -->
<g id="node30" class="node"><title>Node30</title>
<polygon fill="white" stroke="#bfbfbf" points="1307,-0.5 1307,-30.5 1420,-30.5 1420,-0.5 1307,-0.5"/>
<text text-anchor="start" x="1315" y="-18.5" font-family="Helvetica,sans-Serif" font-size="10.00">boost/exception/info</text>
<text text-anchor="middle" x="1363.5" y="-7.5" font-family="Helvetica,sans-Serif" font-size="10.00">_tuple.hpp</text>
</g>
<!-- Node25&#45;&gt;Node30 -->
<g id="edge33" class="edge"><title>Node25&#45;&gt;Node30</title>
<path fill="none" stroke="midnightblue" d="M1417.14,-72.7338C1408.68,-63.8649 1395.27,-49.8111 1383.98,-37.9722"/>
<polygon fill="midnightblue" stroke="midnightblue" points="1386.37,-35.4094 1376.94,-30.589 1381.31,-40.2409 1386.37,-35.4094"/>
</g>
<!-- Node31 -->
<g id="node31" class="node"><title>Node31</title>
<g id="a_node31"><a xlink:href="source__info_8h.xhtml" target="_top" xlink:title="Helper facilities to get source file information. ">
<polygon fill="white" stroke="black" points="1438.5,-6 1438.5,-25 1536.5,-25 1536.5,-6 1438.5,-6"/>
<text text-anchor="middle" x="1487.5" y="-13" font-family="Helvetica,sans-Serif" font-size="10.00">ext/source_info.h</text>
</a>
</g>
</g>
<!-- Node25&#45;&gt;Node31 -->
<g id="edge34" class="edge"><title>Node25&#45;&gt;Node31</title>
<path fill="none" stroke="midnightblue" d="M1433.86,-72.7338C1443.62,-62.5004 1459.97,-45.3642 1472.05,-32.6924"/>
<polygon fill="midnightblue" stroke="midnightblue" points="1474.9,-34.7792 1479.27,-25.1273 1469.84,-29.9477 1474.9,-34.7792"/>
</g>
</g>
</svg>
