<?xml version="1.0" encoding="UTF-8" standalone="no"?>
<!DOCTYPE svg PUBLIC "-//W3C//DTD SVG 1.1//EN"
 "http://www.w3.org/Graphics/SVG/1.1/DTD/svg11.dtd">
<!-- Generated by graphviz version 2.38.0 (20140413.2041)
 -->
<!-- Title: random_deviate.h Pages: 1 -->
<svg width="654pt" height="162pt"
 viewBox="0.00 0.00 653.50 162.00" xmlns="http://www.w3.org/2000/svg" xmlns:xlink="http://www.w3.org/1999/xlink">
<g id="graph0" class="graph" transform="scale(1 1) rotate(0) translate(4 158)">
<title>random_deviate.h</title>
<polygon fill="white" stroke="none" points="-4,4 -4,-158 649.5,-158 649.5,4 -4,4"/>
<!-- Node1 -->
<g id="node1" class="node"><title>Node1</title>
<polygon fill="#bfbfbf" stroke="black" points="105.5,-134.5 105.5,-153.5 209.5,-153.5 209.5,-134.5 105.5,-134.5"/>
<text text-anchor="middle" x="157.5" y="-141.5" font-family="Helvetica,sans-Serif" font-size="10.00">random_deviate.h</text>
</g>
<!-- Node2 -->
<g id="node2" class="node"><title>Node2</title>
<polygon fill="white" stroke="#bfbfbf" points="0,-73 0,-92 57,-92 57,-73 0,-73"/>
<text text-anchor="middle" x="28.5" y="-80" font-family="Helvetica,sans-Serif" font-size="10.00">memory</text>
</g>
<!-- Node1&#45;&gt;Node2 -->
<g id="edge1" class="edge"><title>Node1&#45;&gt;Node2</title>
<path fill="none" stroke="midnightblue" d="M139.017,-134.475C117.368,-124.49 81.2872,-107.848 56.2675,-96.3075"/>
<polygon fill="midnightblue" stroke="midnightblue" points="57.4948,-93.0193 46.9483,-92.0091 54.563,-99.3757 57.4948,-93.0193"/>
</g>
<!-- Node3 -->
<g id="node3" class="node"><title>Node3</title>
<polygon fill="white" stroke="#bfbfbf" points="75.5,-73 75.5,-92 129.5,-92 129.5,-73 75.5,-73"/>
<text text-anchor="middle" x="102.5" y="-80" font-family="Helvetica,sans-Serif" font-size="10.00">random</text>
</g>
<!-- Node1&#45;&gt;Node3 -->
<g id="edge2" class="edge"><title>Node1&#45;&gt;Node3</title>
<path fill="none" stroke="midnightblue" d="M149.62,-134.475C141.206,-125.373 127.681,-110.741 117.274,-99.483"/>
<polygon fill="midnightblue" stroke="midnightblue" points="119.724,-96.9766 110.366,-92.0091 114.583,-101.728 119.724,-96.9766"/>
</g>
<!-- Node4 -->
<g id="node4" class="node"><title>Node4</title>
<polygon fill="white" stroke="#bfbfbf" points="150,-6 150,-25 197,-25 197,-6 150,-6"/>
<text text-anchor="middle" x="173.5" y="-13" font-family="Helvetica,sans-Serif" font-size="10.00">vector</text>
</g>
<!-- Node1&#45;&gt;Node4 -->
<g id="edge3" class="edge"><title>Node1&#45;&gt;Node4</title>
<path fill="none" stroke="midnightblue" d="M158.6,-134.305C161.169,-113.994 167.612,-63.0532 171.125,-35.2768"/>
<polygon fill="midnightblue" stroke="midnightblue" points="174.61,-35.6159 172.393,-25.2557 167.665,-34.7374 174.61,-35.6159"/>
</g>
<!-- Node5 -->
<g id="node5" class="node"><title>Node5</title>
<polygon fill="white" stroke="#bfbfbf" points="186,-67.5 186,-97.5 299,-97.5 299,-67.5 186,-67.5"/>
<text text-anchor="start" x="194" y="-85.5" font-family="Helvetica,sans-Serif" font-size="10.00">boost/range/iterator</text>
<text text-anchor="middle" x="242.5" y="-74.5" font-family="Helvetica,sans-Serif" font-size="10.00">_range.hpp</text>
</g>
<!-- Node1&#45;&gt;Node5 -->
<g id="edge4" class="edge"><title>Node1&#45;&gt;Node5</title>
<path fill="none" stroke="midnightblue" d="M169.678,-134.475C181.19,-126.417 198.896,-114.023 213.966,-103.474"/>
<polygon fill="midnightblue" stroke="midnightblue" points="216.282,-106.125 222.467,-97.523 212.268,-100.39 216.282,-106.125"/>
</g>
<!-- Node6 -->
<g id="node6" class="node"><title>Node6</title>
<g id="a_node6"><a xlink:href="expression_8h.xhtml" target="_top" xlink:title="Provides the base class for all expressions and units for expression values. ">
<polygon fill="white" stroke="black" points="317,-73 317,-92 412,-92 412,-73 317,-73"/>
<text text-anchor="middle" x="364.5" y="-80" font-family="Helvetica,sans-Serif" font-size="10.00">src/expression.h</text>
</a>
</g>
</g>
<!-- Node1&#45;&gt;Node6 -->
<g id="edge5" class="edge"><title>Node1&#45;&gt;Node6</title>
<path fill="none" stroke="midnightblue" d="M187.158,-134.475C223.434,-124.048 284.964,-106.362 325.164,-94.8066"/>
<polygon fill="midnightblue" stroke="midnightblue" points="326.253,-98.1355 334.897,-92.0091 324.319,-91.4079 326.253,-98.1355"/>
</g>
<!-- Node6&#45;&gt;Node4 -->
<g id="edge8" class="edge"><title>Node6&#45;&gt;Node4</title>
<path fill="none" stroke="midnightblue" d="M339.137,-72.8685C305.043,-61.266 244.37,-40.6182 206.682,-27.7923"/>
<polygon fill="midnightblue" stroke="midnightblue" points="207.759,-24.4617 197.164,-24.5533 205.504,-31.0885 207.759,-24.4617"/>
</g>
<!-- Node7 -->
<g id="node7" class="node"><title>Node7</title>
<polygon fill="white" stroke="#bfbfbf" points="247.5,-6 247.5,-25 309.5,-25 309.5,-6 247.5,-6"/>
<text text-anchor="middle" x="278.5" y="-13" font-family="Helvetica,sans-Serif" font-size="10.00">algorithm</text>
</g>
<!-- Node6&#45;&gt;Node7 -->
<g id="edge6" class="edge"><title>Node6&#45;&gt;Node7</title>
<path fill="none" stroke="midnightblue" d="M352.902,-72.7338C338.846,-62.1106 314.949,-44.0485 298.034,-31.2642"/>
<polygon fill="midnightblue" stroke="midnightblue" points="300.003,-28.3648 289.915,-25.1273 295.782,-33.9492 300.003,-28.3648"/>
</g>
<!-- Node8 -->
<g id="node8" class="node"><title>Node8</title>
<polygon fill="white" stroke="#bfbfbf" points="327.5,-6 327.5,-25 369.5,-25 369.5,-6 327.5,-6"/>
<text text-anchor="middle" x="348.5" y="-13" font-family="Helvetica,sans-Serif" font-size="10.00">utility</text>
</g>
<!-- Node6&#45;&gt;Node8 -->
<g id="edge7" class="edge"><title>Node6&#45;&gt;Node8</title>
<path fill="none" stroke="midnightblue" d="M362.342,-72.7338C359.967,-63.0852 356.082,-47.3001 353.031,-34.9063"/>
<polygon fill="midnightblue" stroke="midnightblue" points="356.412,-34.0009 350.624,-25.1273 349.615,-35.674 356.412,-34.0009"/>
</g>
<!-- Node9 -->
<g id="node9" class="node"><title>Node9</title>
<polygon fill="white" stroke="#bfbfbf" points="387.5,-0.5 387.5,-30.5 499.5,-30.5 499.5,-0.5 387.5,-0.5"/>
<text text-anchor="start" x="395.5" y="-18.5" font-family="Helvetica,sans-Serif" font-size="10.00">boost/icl/continuous</text>
<text text-anchor="middle" x="443.5" y="-7.5" font-family="Helvetica,sans-Serif" font-size="10.00">_interval.hpp</text>
</g>
<!-- Node6&#45;&gt;Node9 -->
<g id="edge9" class="edge"><title>Node6&#45;&gt;Node9</title>
<path fill="none" stroke="midnightblue" d="M375.154,-72.7338C386.241,-63.6115 403.995,-49.0038 418.629,-36.9631"/>
<polygon fill="midnightblue" stroke="midnightblue" points="420.878,-39.6454 426.376,-30.589 416.43,-34.2399 420.878,-39.6454"/>
</g>
<!-- Node10 -->
<g id="node10" class="node"><title>Node10</title>
<polygon fill="white" stroke="#bfbfbf" points="517.5,-6 517.5,-25 645.5,-25 645.5,-6 517.5,-6"/>
<text text-anchor="middle" x="581.5" y="-13" font-family="Helvetica,sans-Serif" font-size="10.00">boost/noncopyable.hpp</text>
</g>
<!-- Node6&#45;&gt;Node10 -->
<g id="edge10" class="edge"><title>Node6&#45;&gt;Node10</title>
<path fill="none" stroke="midnightblue" d="M393.316,-72.8685C431.847,-61.3271 500.257,-40.8354 543.122,-27.9956"/>
<polygon fill="midnightblue" stroke="midnightblue" points="544.335,-31.286 552.911,-25.0637 542.327,-24.5804 544.335,-31.286"/>
</g>
</g>
</svg>
