<?xml version="1.0" encoding="UTF-8" standalone="no"?>
<!DOCTYPE svg PUBLIC "-//W3C//DTD SVG 1.1//EN"
 "http://www.w3.org/Graphics/SVG/1.1/DTD/svg11.dtd">
<!-- Generated by graphviz version 2.38.0 (20140413.2041)
 -->
<!-- Title: risk_analysis.h Pages: 1 -->
<svg width="242pt" height="140pt"
 viewBox="0.00 0.00 242.00 140.00" xmlns="http://www.w3.org/2000/svg" xmlns:xlink="http://www.w3.org/1999/xlink">
<g id="graph0" class="graph" transform="scale(1 1) rotate(0) translate(4 136)">
<title>risk_analysis.h</title>
<polygon fill="white" stroke="none" points="-4,4 -4,-136 238,-136 238,4 -4,4"/>
<!-- Node1 -->
<g id="node1" class="node"><title>Node1</title>
<polygon fill="#bfbfbf" stroke="black" points="73,-112.5 73,-131.5 159,-131.5 159,-112.5 73,-112.5"/>
<text text-anchor="middle" x="116" y="-119.5" font-family="Helvetica,sans-Serif" font-size="10.00">risk_analysis.h</text>
</g>
<!-- Node2 -->
<g id="node2" class="node"><title>Node2</title>
<g id="a_node2"><a xlink:href="reporter_8h.xhtml" target="_top" xlink:title="Reporter of results. ">
<polygon fill="white" stroke="black" points="24,-56.5 24,-75.5 88,-75.5 88,-56.5 24,-56.5"/>
<text text-anchor="middle" x="56" y="-63.5" font-family="Helvetica,sans-Serif" font-size="10.00">reporter.h</text>
</a>
</g>
</g>
<!-- Node1&#45;&gt;Node2 -->
<g id="edge1" class="edge"><title>Node1&#45;&gt;Node2</title>
<path fill="none" stroke="midnightblue" d="M98.8191,-105.537C88.1208,-95.9087 74.7437,-83.8694 65.8154,-75.8339"/>
<polygon fill="midnightblue" stroke="midnightblue" points="96.5856,-108.236 106.36,-112.324 101.268,-103.033 96.5856,-108.236"/>
</g>
<!-- Node4 -->
<g id="node4" class="node"><title>Node4</title>
<g id="a_node4"><a xlink:href="scram_8cc.xhtml" target="_top" xlink:title="Main entrance. ">
<polygon fill="white" stroke="black" points="86,-0.5 86,-19.5 146,-19.5 146,-0.5 86,-0.5"/>
<text text-anchor="middle" x="116" y="-7.5" font-family="Helvetica,sans-Serif" font-size="10.00">scram.cc</text>
</a>
</g>
</g>
<!-- Node1&#45;&gt;Node4 -->
<g id="edge5" class="edge"><title>Node1&#45;&gt;Node4</title>
<path fill="none" stroke="midnightblue" d="M116,-102.348C116,-78.2538 116,-37.3079 116,-19.5914"/>
<polygon fill="midnightblue" stroke="midnightblue" points="112.5,-102.368 116,-112.368 119.5,-102.369 112.5,-102.368"/>
</g>
<!-- Node5 -->
<g id="node5" class="node"><title>Node5</title>
<g id="a_node5"><a xlink:href="risk__analysis_8cc.xhtml" target="_top" xlink:title="Implementation of risk analysis handler. ">
<polygon fill="white" stroke="black" points="144,-56.5 144,-75.5 234,-75.5 234,-56.5 144,-56.5"/>
<text text-anchor="middle" x="189" y="-63.5" font-family="Helvetica,sans-Serif" font-size="10.00">risk_analysis.cc</text>
</a>
</g>
</g>
<!-- Node1&#45;&gt;Node5 -->
<g id="edge4" class="edge"><title>Node1&#45;&gt;Node5</title>
<path fill="none" stroke="midnightblue" d="M136.142,-106.101C149.279,-96.3824 165.982,-84.0269 177.058,-75.8339"/>
<polygon fill="midnightblue" stroke="midnightblue" points="133.687,-103.563 127.729,-112.324 137.85,-109.191 133.687,-103.563"/>
</g>
<!-- Node3 -->
<g id="node3" class="node"><title>Node3</title>
<g id="a_node3"><a xlink:href="reporter_8cc.xhtml" target="_top" xlink:title="Implements Reporter class. ">
<polygon fill="white" stroke="black" points="0,-0.5 0,-19.5 68,-19.5 68,-0.5 0,-0.5"/>
<text text-anchor="middle" x="34" y="-7.5" font-family="Helvetica,sans-Serif" font-size="10.00">reporter.cc</text>
</a>
</g>
</g>
<!-- Node2&#45;&gt;Node3 -->
<g id="edge2" class="edge"><title>Node2&#45;&gt;Node3</title>
<path fill="none" stroke="midnightblue" d="M48.5402,-46.6897C44.8326,-37.589 40.5243,-27.0141 37.5653,-19.7511"/>
<polygon fill="midnightblue" stroke="midnightblue" points="45.3528,-48.1426 52.3671,-56.083 51.8354,-45.5015 45.3528,-48.1426"/>
</g>
<!-- Node2&#45;&gt;Node4 -->
<g id="edge3" class="edge"><title>Node2&#45;&gt;Node4</title>
<path fill="none" stroke="midnightblue" d="M73.1809,-49.5372C83.8792,-39.9087 97.2563,-27.8694 106.185,-19.8339"/>
<polygon fill="midnightblue" stroke="midnightblue" points="70.7316,-47.0327 65.64,-56.324 75.4144,-52.2358 70.7316,-47.0327"/>
</g>
</g>
</svg>
