<?xml version="1.0" encoding="UTF-8" standalone="no"?>
<!DOCTYPE svg PUBLIC "-//W3C//DTD SVG 1.1//EN"
 "http://www.w3.org/Graphics/SVG/1.1/DTD/svg11.dtd">
<!-- Generated by graphviz version 2.38.0 (20140413.2041)
 -->
<!-- Title: main Pages: 1 -->
<svg width="206pt" height="78pt"
 viewBox="0.00 0.00 206.00 77.50" xmlns="http://www.w3.org/2000/svg" xmlns:xlink="http://www.w3.org/1999/xlink">
<g id="graph0" class="graph" transform="scale(1 1) rotate(0) translate(4 73.5)">
<title>main</title>
<polygon fill="white" stroke="none" points="-4,4 -4,-73.5 202,-73.5 202,4 -4,4"/>
<!-- Node1 -->
<g id="node1" class="node"><title>Node1</title>
<polygon fill="#bfbfbf" stroke="black" points="0,-22.5 0,-41.5 41,-41.5 41,-22.5 0,-22.5"/>
<text text-anchor="middle" x="20.5" y="-29.5" font-family="Helvetica,sans-Serif" font-size="10.00">main</text>
</g>
<!-- Node2 -->
<g id="node2" class="node"><title>Node2</title>
<g id="a_node2"><a xlink:href="classscram_1_1Logger.xhtml#addb585eb19dfd78f4a82f2e3df74b4e7" target="_top" xlink:title="scram::Logger::report\l_level">
<polygon fill="white" stroke="black" points="77,-39 77,-69 198,-69 198,-39 77,-39"/>
<text text-anchor="start" x="85" y="-57" font-family="Helvetica,sans-Serif" font-size="10.00">scram::Logger::report</text>
<text text-anchor="middle" x="137.5" y="-46" font-family="Helvetica,sans-Serif" font-size="10.00">_level</text>
</a>
</g>
</g>
<!-- Node1&#45;&gt;Node2 -->
<g id="edge1" class="edge"><title>Node1&#45;&gt;Node2</title>
<path fill="none" stroke="midnightblue" d="M41.0082,-35.732C48.4277,-37.1514 57.3747,-38.863 66.7791,-40.6621"/>
<polygon fill="midnightblue" stroke="midnightblue" points="66.2205,-44.1186 76.7001,-42.56 67.5358,-37.2433 66.2205,-44.1186"/>
</g>
<!-- Node3 -->
<g id="node3" class="node"><title>Node3</title>
<g id="a_node3"><a xlink:href="classscram_1_1Error.xhtml#abf8f4acdd63cdd56fd40714d9a132a3e" target="_top" xlink:title="scram::Error::what">
<polygon fill="white" stroke="black" points="85.5,-0.5 85.5,-19.5 189.5,-19.5 189.5,-0.5 85.5,-0.5"/>
<text text-anchor="middle" x="137.5" y="-7.5" font-family="Helvetica,sans-Serif" font-size="10.00">scram::Error::what</text>
</a>
</g>
</g>
<!-- Node1&#45;&gt;Node3 -->
<g id="edge2" class="edge"><title>Node1&#45;&gt;Node3</title>
<path fill="none" stroke="midnightblue" d="M41.0082,-28.268C51.017,-26.3533 63.8056,-23.9068 76.7467,-21.4311"/>
<polygon fill="midnightblue" stroke="midnightblue" points="77.4647,-24.8573 86.6289,-19.5405 76.1494,-17.9819 77.4647,-24.8573"/>
</g>
</g>
</svg>
