<?xml version="1.0" encoding="UTF-8" standalone="no"?>
<!DOCTYPE svg PUBLIC "-//W3C//DTD SVG 1.1//EN"
 "http://www.w3.org/Graphics/SVG/1.1/DTD/svg11.dtd">
<!-- Generated by graphviz version 2.38.0 (20140413.2041)
 -->
<!-- Title: settings.cc Pages: 1 -->
<svg width="1035pt" height="151pt"
 viewBox="0.00 0.00 1034.50 151.00" xmlns="http://www.w3.org/2000/svg" xmlns:xlink="http://www.w3.org/1999/xlink">
<g id="graph0" class="graph" transform="scale(1 1) rotate(0) translate(4 147)">
<title>settings.cc</title>
<polygon fill="white" stroke="none" points="-4,4 -4,-147 1030.5,-147 1030.5,4 -4,4"/>
<!-- Node1 -->
<g id="node1" class="node"><title>Node1</title>
<polygon fill="#bfbfbf" stroke="black" points="192.5,-123.5 192.5,-142.5 260.5,-142.5 260.5,-123.5 192.5,-123.5"/>
<text text-anchor="middle" x="226.5" y="-130.5" font-family="Helvetica,sans-Serif" font-size="10.00">settings.cc</text>
</g>
<!-- Node2 -->
<g id="node2" class="node"><title>Node2</title>
<g id="a_node2"><a xlink:href="settings_8h.xhtml" target="_top" xlink:title="Builder for settings. ">
<polygon fill="white" stroke="black" points="69.5,-67.5 69.5,-86.5 133.5,-86.5 133.5,-67.5 69.5,-67.5"/>
<text text-anchor="middle" x="101.5" y="-74.5" font-family="Helvetica,sans-Serif" font-size="10.00">settings.h</text>
</a>
</g>
</g>
<!-- Node1&#45;&gt;Node2 -->
<g id="edge1" class="edge"><title>Node1&#45;&gt;Node2</title>
<path fill="none" stroke="midnightblue" d="M206.693,-123.444C186.213,-114.596 154.017,-100.687 130.635,-90.5865"/>
<polygon fill="midnightblue" stroke="midnightblue" points="131.782,-87.2692 121.214,-86.5164 129.006,-93.6953 131.782,-87.2692"/>
</g>
<!-- Node5 -->
<g id="node5" class="node"><title>Node5</title>
<polygon fill="white" stroke="#bfbfbf" points="154.5,-6 154.5,-25 198.5,-25 198.5,-6 154.5,-6"/>
<text text-anchor="middle" x="176.5" y="-13" font-family="Helvetica,sans-Serif" font-size="10.00">string</text>
</g>
<!-- Node1&#45;&gt;Node5 -->
<g id="edge4" class="edge"><title>Node1&#45;&gt;Node5</title>
<path fill="none" stroke="midnightblue" d="M219.116,-123.246C212.126,-114.557 201.793,-100.604 195.5,-87 187.774,-70.296 182.7,-49.8629 179.755,-35.3033"/>
<polygon fill="midnightblue" stroke="midnightblue" points="183.12,-34.255 177.84,-25.0695 176.239,-35.5427 183.12,-34.255"/>
</g>
<!-- Node6 -->
<g id="node6" class="node"><title>Node6</title>
<polygon fill="white" stroke="#bfbfbf" points="204.5,-67.5 204.5,-86.5 348.5,-86.5 348.5,-67.5 204.5,-67.5"/>
<text text-anchor="middle" x="276.5" y="-74.5" font-family="Helvetica,sans-Serif" font-size="10.00">boost/range/algorithm.hpp</text>
</g>
<!-- Node1&#45;&gt;Node6 -->
<g id="edge5" class="edge"><title>Node1&#45;&gt;Node6</title>
<path fill="none" stroke="midnightblue" d="M234.756,-123.083C241.965,-115.298 252.61,-103.801 261.346,-94.3665"/>
<polygon fill="midnightblue" stroke="midnightblue" points="264.171,-96.4666 268.397,-86.7511 259.035,-91.7108 264.171,-96.4666"/>
</g>
<!-- Node7 -->
<g id="node7" class="node"><title>Node7</title>
<g id="a_node7"><a xlink:href="error_8h.xhtml" target="_top" xlink:title="Exceptions for SCRAM. ">
<polygon fill="white" stroke="black" points="443.5,-67.5 443.5,-86.5 491.5,-86.5 491.5,-67.5 443.5,-67.5"/>
<text text-anchor="middle" x="467.5" y="-74.5" font-family="Helvetica,sans-Serif" font-size="10.00">error.h</text>
</a>
</g>
</g>
<!-- Node1&#45;&gt;Node7 -->
<g id="edge6" class="edge"><title>Node1&#45;&gt;Node7</title>
<path fill="none" stroke="midnightblue" d="M260.518,-124.378C306.38,-114.101 387.568,-95.9102 433.447,-85.63"/>
<polygon fill="midnightblue" stroke="midnightblue" points="434.5,-88.9811 443.493,-83.3792 432.969,-82.1504 434.5,-88.9811"/>
</g>
<!-- Node3 -->
<g id="node3" class="node"><title>Node3</title>
<polygon fill="white" stroke="#bfbfbf" points="0,-6 0,-25 49,-25 49,-6 0,-6"/>
<text text-anchor="middle" x="24.5" y="-13" font-family="Helvetica,sans-Serif" font-size="10.00">cstdint</text>
</g>
<!-- Node2&#45;&gt;Node3 -->
<g id="edge2" class="edge"><title>Node2&#45;&gt;Node3</title>
<path fill="none" stroke="midnightblue" d="M90.4678,-67.4751C78.2316,-58.0199 58.2715,-42.5961 43.5069,-31.1871"/>
<polygon fill="midnightblue" stroke="midnightblue" points="45.5647,-28.3541 35.5118,-25.0091 41.2845,-33.8931 45.5647,-28.3541"/>
</g>
<!-- Node4 -->
<g id="node4" class="node"><title>Node4</title>
<polygon fill="white" stroke="#bfbfbf" points="67,-6 67,-25 136,-25 136,-6 67,-6"/>
<text text-anchor="middle" x="101.5" y="-13" font-family="Helvetica,sans-Serif" font-size="10.00">string_view</text>
</g>
<!-- Node2&#45;&gt;Node4 -->
<g id="edge3" class="edge"><title>Node2&#45;&gt;Node4</title>
<path fill="none" stroke="midnightblue" d="M101.5,-67.4751C101.5,-59.0803 101.5,-45.9806 101.5,-35.1631"/>
<polygon fill="midnightblue" stroke="midnightblue" points="105,-35.0091 101.5,-25.0091 98.0001,-35.0091 105,-35.0091"/>
</g>
<!-- Node7&#45;&gt;Node5 -->
<g id="edge8" class="edge"><title>Node7&#45;&gt;Node5</title>
<path fill="none" stroke="midnightblue" d="M443.336,-73.9807C396.792,-69.6213 291.847,-57.503 207.5,-31 205.629,-30.4122 203.726,-29.7351 201.829,-29.0013"/>
<polygon fill="midnightblue" stroke="midnightblue" points="203.153,-25.7606 192.584,-25.0128 200.38,-32.1879 203.153,-25.7606"/>
</g>
<!-- Node8 -->
<g id="node8" class="node"><title>Node8</title>
<polygon fill="white" stroke="#bfbfbf" points="217,-6 217,-25 280,-25 280,-6 217,-6"/>
<text text-anchor="middle" x="248.5" y="-13" font-family="Helvetica,sans-Serif" font-size="10.00">exception</text>
</g>
<!-- Node7&#45;&gt;Node8 -->
<g id="edge7" class="edge"><title>Node7&#45;&gt;Node8</title>
<path fill="none" stroke="midnightblue" d="M443.41,-70.6544C409.013,-62.8535 343.959,-47.4755 289.5,-31 286.722,-30.1597 283.854,-29.2448 280.986,-28.2967"/>
<polygon fill="midnightblue" stroke="midnightblue" points="281.957,-24.9297 271.362,-25.0054 279.692,-31.5531 281.957,-24.9297"/>
</g>
<!-- Node9 -->
<g id="node9" class="node"><title>Node9</title>
<polygon fill="white" stroke="#bfbfbf" points="298.5,-6 298.5,-25 444.5,-25 444.5,-6 298.5,-6"/>
<text text-anchor="middle" x="371.5" y="-13" font-family="Helvetica,sans-Serif" font-size="10.00">boost/current_function.hpp</text>
</g>
<!-- Node7&#45;&gt;Node9 -->
<g id="edge9" class="edge"><title>Node7&#45;&gt;Node9</title>
<path fill="none" stroke="midnightblue" d="M453.746,-67.4751C438.134,-57.7989 412.437,-41.8721 393.917,-30.3941"/>
<polygon fill="midnightblue" stroke="midnightblue" points="395.573,-27.3023 385.229,-25.0091 391.885,-33.2522 395.573,-27.3023"/>
</g>
<!-- Node10 -->
<g id="node10" class="node"><title>Node10</title>
<polygon fill="white" stroke="#bfbfbf" points="462.5,-6 462.5,-25 626.5,-25 626.5,-6 462.5,-6"/>
<text text-anchor="middle" x="544.5" y="-13" font-family="Helvetica,sans-Serif" font-size="10.00">boost/exception/exception.hpp</text>
</g>
<!-- Node7&#45;&gt;Node10 -->
<g id="edge10" class="edge"><title>Node7&#45;&gt;Node10</title>
<path fill="none" stroke="midnightblue" d="M478.532,-67.4751C490.768,-58.0199 510.729,-42.5961 525.493,-31.1871"/>
<polygon fill="midnightblue" stroke="midnightblue" points="527.715,-33.8931 533.488,-25.0091 523.435,-28.3541 527.715,-33.8931"/>
</g>
<!-- Node11 -->
<g id="node11" class="node"><title>Node11</title>
<polygon fill="white" stroke="#bfbfbf" points="644.5,-6 644.5,-25 778.5,-25 778.5,-6 644.5,-6"/>
<text text-anchor="middle" x="711.5" y="-13" font-family="Helvetica,sans-Serif" font-size="10.00">boost/exception/info.hpp</text>
</g>
<!-- Node7&#45;&gt;Node11 -->
<g id="edge11" class="edge"><title>Node7&#45;&gt;Node11</title>
<path fill="none" stroke="midnightblue" d="M491.788,-70.0774C532.47,-60.1568 614.987,-40.0348 666.509,-27.4712"/>
<polygon fill="midnightblue" stroke="midnightblue" points="667.492,-30.834 676.378,-25.0645 665.834,-24.0333 667.492,-30.834"/>
</g>
<!-- Node12 -->
<g id="node12" class="node"><title>Node12</title>
<polygon fill="white" stroke="#bfbfbf" points="797,-0.5 797,-30.5 910,-30.5 910,-0.5 797,-0.5"/>
<text text-anchor="start" x="805" y="-18.5" font-family="Helvetica,sans-Serif" font-size="10.00">boost/exception/info</text>
<text text-anchor="middle" x="853.5" y="-7.5" font-family="Helvetica,sans-Serif" font-size="10.00">_tuple.hpp</text>
</g>
<!-- Node7&#45;&gt;Node12 -->
<g id="edge12" class="edge"><title>Node7&#45;&gt;Node12</title>
<path fill="none" stroke="midnightblue" d="M491.686,-73.2405C543.689,-67.1708 670.184,-51.6772 786.529,-31.0872"/>
<polygon fill="midnightblue" stroke="midnightblue" points="787.446,-34.4789 796.674,-29.274 786.214,-27.5881 787.446,-34.4789"/>
</g>
<!-- Node13 -->
<g id="node13" class="node"><title>Node13</title>
<g id="a_node13"><a xlink:href="source__info_8h.xhtml" target="_top" xlink:title="Helper facilities to get source file information. ">
<polygon fill="white" stroke="black" points="928.5,-6 928.5,-25 1026.5,-25 1026.5,-6 928.5,-6"/>
<text text-anchor="middle" x="977.5" y="-13" font-family="Helvetica,sans-Serif" font-size="10.00">ext/source_info.h</text>
</a>
</g>
</g>
<!-- Node7&#45;&gt;Node13 -->
<g id="edge13" class="edge"><title>Node7&#45;&gt;Node13</title>
<path fill="none" stroke="midnightblue" d="M491.678,-74.8355C559.558,-71.2995 757.506,-59.1585 919.5,-31 925.265,-29.9979 931.303,-28.734 937.216,-27.3722"/>
<polygon fill="midnightblue" stroke="midnightblue" points="938.075,-30.7652 946.975,-25.0168 936.433,-23.9606 938.075,-30.7652"/>
</g>
</g>
</svg>
