<?xml version="1.0" encoding="UTF-8" standalone="no"?>
<!DOCTYPE svg PUBLIC "-//W3C//DTD SVG 1.1//EN"
 "http://www.w3.org/Graphics/SVG/1.1/DTD/svg11.dtd">
<!-- Generated by graphviz version 2.38.0 (20140413.2041)
 -->
<!-- Title: settings.h Pages: 1 -->
<svg width="1514pt" height="476pt"
 viewBox="0.00 0.00 1513.50 476.00" xmlns="http://www.w3.org/2000/svg" xmlns:xlink="http://www.w3.org/1999/xlink">
<g id="graph0" class="graph" transform="scale(1 1) rotate(0) translate(4 472)">
<title>settings.h</title>
<polygon fill="white" stroke="none" points="-4,4 -4,-472 1509.5,-472 1509.5,4 -4,4"/>
<!-- Node1 -->
<g id="node1" class="node"><title>Node1</title>
<polygon fill="#bfbfbf" stroke="black" points="549.5,-448.5 549.5,-467.5 613.5,-467.5 613.5,-448.5 549.5,-448.5"/>
<text text-anchor="middle" x="581.5" y="-455.5" font-family="Helvetica,sans-Serif" font-size="10.00">settings.h</text>
</g>
<!-- Node2 -->
<g id="node2" class="node"><title>Node2</title>
<g id="a_node2"><a xlink:href="analysis_8h.xhtml" target="_top" xlink:title="Common facilities for all analysis classes. ">
<polygon fill="white" stroke="black" points="597.5,-336.5 597.5,-355.5 661.5,-355.5 661.5,-336.5 597.5,-336.5"/>
<text text-anchor="middle" x="629.5" y="-343.5" font-family="Helvetica,sans-Serif" font-size="10.00">analysis.h</text>
</a>
</g>
</g>
<!-- Node1&#45;&gt;Node2 -->
<g id="edge1" class="edge"><title>Node1&#45;&gt;Node2</title>
<path fill="none" stroke="midnightblue" d="M589.355,-438.998C599.829,-414.997 617.95,-373.468 625.751,-355.591"/>
<polygon fill="midnightblue" stroke="midnightblue" points="586.058,-437.803 585.266,-448.368 592.474,-440.603 586.058,-437.803"/>
</g>
<!-- Node4 -->
<g id="node4" class="node"><title>Node4</title>
<g id="a_node4"><a xlink:href="event__tree__analysis_8h.xhtml" target="_top" xlink:title="Event tree analysis facilities. ">
<polygon fill="white" stroke="black" points="404,-280.5 404,-299.5 525,-299.5 525,-280.5 404,-280.5"/>
<text text-anchor="middle" x="464.5" y="-287.5" font-family="Helvetica,sans-Serif" font-size="10.00">event_tree_analysis.h</text>
</a>
</g>
</g>
<!-- Node1&#45;&gt;Node4 -->
<g id="edge45" class="edge"><title>Node1&#45;&gt;Node4</title>
<path fill="none" stroke="midnightblue" d="M565.383,-441.277C557.209,-432.93 547.372,-422.292 539.5,-412 509.171,-372.344 480.009,-319.933 469.055,-299.587"/>
<polygon fill="midnightblue" stroke="midnightblue" points="563.049,-443.892 572.593,-448.492 568,-438.944 563.049,-443.892"/>
</g>
<!-- Node6 -->
<g id="node6" class="node"><title>Node6</title>
<g id="a_node6"><a xlink:href="risk__analysis_8h.xhtml" target="_top" xlink:title="Contains the main system for performing analysis. ">
<polygon fill="white" stroke="black" points="586.5,-112.5 586.5,-131.5 672.5,-131.5 672.5,-112.5 586.5,-112.5"/>
<text text-anchor="middle" x="629.5" y="-119.5" font-family="Helvetica,sans-Serif" font-size="10.00">risk_analysis.h</text>
</a>
</g>
</g>
<!-- Node1&#45;&gt;Node6 -->
<g id="edge56" class="edge"><title>Node1&#45;&gt;Node6</title>
<path fill="none" stroke="midnightblue" d="M581.813,-438.372C582.389,-414.551 584.005,-372.068 588.5,-336 598.465,-256.03 620.42,-160.917 627.356,-131.861"/>
<polygon fill="midnightblue" stroke="midnightblue" points="578.312,-438.386 581.606,-448.456 585.311,-438.53 578.312,-438.386"/>
</g>
<!-- Node7 -->
<g id="node7" class="node"><title>Node7</title>
<g id="a_node7"><a xlink:href="reporter_8h.xhtml" target="_top" xlink:title="Reporter of results. ">
<polygon fill="white" stroke="black" points="597.5,-56.5 597.5,-75.5 661.5,-75.5 661.5,-56.5 597.5,-56.5"/>
<text text-anchor="middle" x="629.5" y="-63.5" font-family="Helvetica,sans-Serif" font-size="10.00">reporter.h</text>
</a>
</g>
</g>
<!-- Node1&#45;&gt;Node7 -->
<g id="edge58" class="edge"><title>Node1&#45;&gt;Node7</title>
<path fill="none" stroke="midnightblue" d="M539.105,-457.447C489.686,-456.119 407.185,-448.023 347.5,-412 315.826,-392.883 295.5,-383.996 295.5,-347 295.5,-347 295.5,-347 295.5,-177 295.5,-132.553 331.289,-130.936 371.5,-112 446.983,-76.4539 546.814,-68.7456 597.305,-67.2305"/>
<polygon fill="midnightblue" stroke="midnightblue" points="539.064,-460.946 549.128,-457.635 539.195,-453.948 539.064,-460.946"/>
</g>
<!-- Node9 -->
<g id="node9" class="node"><title>Node9</title>
<g id="a_node9"><a xlink:href="scram_8cc.xhtml" target="_top" xlink:title="Main entrance. ">
<polygon fill="white" stroke="black" points="227.5,-0.5 227.5,-19.5 287.5,-19.5 287.5,-0.5 227.5,-0.5"/>
<text text-anchor="middle" x="257.5" y="-7.5" font-family="Helvetica,sans-Serif" font-size="10.00">scram.cc</text>
</a>
</g>
</g>
<!-- Node1&#45;&gt;Node9 -->
<g id="edge59" class="edge"><title>Node1&#45;&gt;Node9</title>
<path fill="none" stroke="midnightblue" d="M539.465,-453.441C474.048,-447.324 351.446,-433.375 313.5,-412 280.277,-393.285 257.5,-385.132 257.5,-347 257.5,-347 257.5,-347 257.5,-121 257.5,-83.1875 257.5,-38.0636 257.5,-19.5578"/>
<polygon fill="midnightblue" stroke="midnightblue" points="539.174,-456.929 549.452,-454.355 539.813,-449.958 539.174,-456.929"/>
</g>
<!-- Node11 -->
<g id="node11" class="node"><title>Node11</title>
<g id="a_node11"><a xlink:href="fault__tree__analysis_8h.xhtml" target="_top" xlink:title="Fault Tree Analysis. ">
<polygon fill="white" stroke="black" points="820,-280.5 820,-299.5 935,-299.5 935,-280.5 820,-280.5"/>
<text text-anchor="middle" x="877.5" y="-287.5" font-family="Helvetica,sans-Serif" font-size="10.00">fault_tree_analysis.h</text>
</a>
</g>
</g>
<!-- Node1&#45;&gt;Node11 -->
<g id="edge46" class="edge"><title>Node1&#45;&gt;Node11</title>
<path fill="none" stroke="midnightblue" d="M605.991,-443.265C665.036,-410.152 813.916,-326.659 862.156,-299.605"/>
<polygon fill="midnightblue" stroke="midnightblue" points="604.008,-440.365 596.997,-448.309 607.432,-446.47 604.008,-440.365"/>
</g>
<!-- Node14 -->
<g id="node14" class="node"><title>Node14</title>
<g id="a_node14"><a xlink:href="importance__analysis_8h.xhtml" target="_top" xlink:title="Contains functionality to do numerical analysis of importance factors. ">
<polygon fill="white" stroke="black" points="920.5,-168.5 920.5,-187.5 1044.5,-187.5 1044.5,-168.5 920.5,-168.5"/>
<text text-anchor="middle" x="982.5" y="-175.5" font-family="Helvetica,sans-Serif" font-size="10.00">importance_analysis.h</text>
</a>
</g>
</g>
<!-- Node1&#45;&gt;Node14 -->
<g id="edge47" class="edge"><title>Node1&#45;&gt;Node14</title>
<path fill="none" stroke="midnightblue" d="M623.695,-447.599C696.233,-429.654 846.147,-384.564 943.5,-300 965.658,-280.753 969.546,-271.951 978.5,-244 984.709,-224.619 984.164,-200.358 983.293,-187.66"/>
<polygon fill="midnightblue" stroke="midnightblue" points="622.465,-444.295 613.57,-450.051 624.112,-451.099 622.465,-444.295"/>
</g>
<!-- Node16 -->
<g id="node16" class="node"><title>Node16</title>
<g id="a_node16"><a xlink:href="probability__analysis_8cc.xhtml" target="_top" xlink:title="Implementations of functions to provide probability analysis. ">
<polygon fill="white" stroke="black" points="1102,-168.5 1102,-187.5 1225,-187.5 1225,-168.5 1102,-168.5"/>
<text text-anchor="middle" x="1163.5" y="-175.5" font-family="Helvetica,sans-Serif" font-size="10.00">probability_analysis.cc</text>
</a>
</g>
</g>
<!-- Node1&#45;&gt;Node16 -->
<g id="edge52" class="edge"><title>Node1&#45;&gt;Node16</title>
<path fill="none" stroke="midnightblue" d="M623.704,-455.887C792.441,-450.885 1409.5,-427.119 1409.5,-347 1409.5,-347 1409.5,-347 1409.5,-289 1409.5,-258.902 1412.7,-244.318 1390.5,-224 1366.75,-202.269 1283.79,-190.111 1225.05,-184.056"/>
<polygon fill="midnightblue" stroke="midnightblue" points="623.599,-452.388 613.704,-456.176 623.802,-459.385 623.599,-452.388"/>
</g>
<!-- Node17 -->
<g id="node17" class="node"><title>Node17</title>
<g id="a_node17"><a xlink:href="uncertainty__analysis_8h.xhtml" target="_top" xlink:title="Provides functionality for uncertainty analysis with Monte Carlo method. ">
<polygon fill="white" stroke="black" points="383,-168.5 383,-187.5 506,-187.5 506,-168.5 383,-168.5"/>
<text text-anchor="middle" x="444.5" y="-175.5" font-family="Helvetica,sans-Serif" font-size="10.00">uncertainty_analysis.h</text>
</a>
</g>
</g>
<!-- Node1&#45;&gt;Node17 -->
<g id="edge57" class="edge"><title>Node1&#45;&gt;Node17</title>
<path fill="none" stroke="midnightblue" d="M538.946,-456.612C468.06,-453.473 333.5,-435.818 333.5,-347 333.5,-347 333.5,-347 333.5,-289 333.5,-258.902 333.107,-247.017 352.5,-224 367.851,-205.779 392.339,-194.304 412.192,-187.505"/>
<polygon fill="midnightblue" stroke="midnightblue" points="539.212,-460.123 549.333,-456.988 539.466,-453.128 539.212,-460.123"/>
</g>
<!-- Node19 -->
<g id="node19" class="node"><title>Node19</title>
<g id="a_node19"><a xlink:href="bdd_8h.xhtml" target="_top" xlink:title="Fault tree analysis with the Binary Decision Diagram algorithms. ">
<polygon fill="white" stroke="black" points="1004.5,-392.5 1004.5,-411.5 1048.5,-411.5 1048.5,-392.5 1004.5,-392.5"/>
<text text-anchor="middle" x="1026.5" y="-399.5" font-family="Helvetica,sans-Serif" font-size="10.00">bdd.h</text>
</a>
</g>
</g>
<!-- Node1&#45;&gt;Node19 -->
<g id="edge30" class="edge"><title>Node1&#45;&gt;Node19</title>
<path fill="none" stroke="midnightblue" d="M623.789,-453.154C696.348,-446.341 849.152,-431.057 977.5,-412 986.227,-410.704 995.778,-409.012 1004.11,-407.446"/>
<polygon fill="midnightblue" stroke="midnightblue" points="623.31,-449.684 613.678,-454.097 623.96,-456.653 623.31,-449.684"/>
</g>
<!-- Node22 -->
<g id="node22" class="node"><title>Node22</title>
<g id="a_node22"><a xlink:href="mocus_8h.xhtml" target="_top" xlink:title="Fault tree analysis with the MOCUS algorithm. ">
<polygon fill="white" stroke="black" points="1282.5,-280.5 1282.5,-299.5 1340.5,-299.5 1340.5,-280.5 1282.5,-280.5"/>
<text text-anchor="middle" x="1311.5" y="-287.5" font-family="Helvetica,sans-Serif" font-size="10.00">mocus.h</text>
</a>
</g>
</g>
<!-- Node1&#45;&gt;Node22 -->
<g id="edge51" class="edge"><title>Node1&#45;&gt;Node22</title>
<path fill="none" stroke="midnightblue" d="M623.856,-457.898C708.09,-458.62 901.927,-454.958 1057.5,-412 1154.96,-385.088 1260.88,-322.585 1297.86,-299.644"/>
<polygon fill="midnightblue" stroke="midnightblue" points="623.699,-454.396 613.66,-457.783 623.621,-461.395 623.699,-454.396"/>
</g>
<!-- Node25 -->
<g id="node25" class="node"><title>Node25</title>
<g id="a_node25"><a xlink:href="initializer_8h.xhtml" target="_top" xlink:title="A facility that processes input files into analysis constructs. ">
<polygon fill="white" stroke="black" points="160,-392.5 160,-411.5 227,-411.5 227,-392.5 160,-392.5"/>
<text text-anchor="middle" x="193.5" y="-399.5" font-family="Helvetica,sans-Serif" font-size="10.00">initializer.h</text>
</a>
</g>
</g>
<!-- Node1&#45;&gt;Node25 -->
<g id="edge48" class="edge"><title>Node1&#45;&gt;Node25</title>
<path fill="none" stroke="midnightblue" d="M539.151,-451.993C475.047,-444.271 349.595,-428.602 243.5,-412 238.184,-411.168 232.563,-410.222 227.084,-409.263"/>
<polygon fill="midnightblue" stroke="midnightblue" points="538.927,-455.491 549.273,-453.207 539.761,-448.541 538.927,-455.491"/>
</g>
<!-- Node27 -->
<g id="node27" class="node"><title>Node27</title>
<g id="a_node27"><a xlink:href="project_8h.xhtml" target="_top" xlink:title="Project/configuration management facilities to make various setups for analysis possible. ">
<polygon fill="white" stroke="black" points="62,-392.5 62,-411.5 121,-411.5 121,-392.5 62,-392.5"/>
<text text-anchor="middle" x="91.5" y="-399.5" font-family="Helvetica,sans-Serif" font-size="10.00">project.h</text>
</a>
</g>
</g>
<!-- Node1&#45;&gt;Node27 -->
<g id="edge53" class="edge"><title>Node1&#45;&gt;Node27</title>
<path fill="none" stroke="midnightblue" d="M538.966,-453.232C461.55,-446.225 292.502,-430.233 150.5,-412 140.942,-410.773 130.542,-409.249 121.174,-407.807"/>
<polygon fill="midnightblue" stroke="midnightblue" points="538.996,-456.749 549.269,-454.161 539.624,-449.777 538.996,-456.749"/>
</g>
<!-- Node29 -->
<g id="node29" class="node"><title>Node29</title>
<g id="a_node29"><a xlink:href="settings_8cc.xhtml" target="_top" xlink:title="Implementation of Settings Builder. ">
<polygon fill="white" stroke="black" points="1437.5,-392.5 1437.5,-411.5 1505.5,-411.5 1505.5,-392.5 1437.5,-392.5"/>
<text text-anchor="middle" x="1471.5" y="-399.5" font-family="Helvetica,sans-Serif" font-size="10.00">settings.cc</text>
</a>
</g>
</g>
<!-- Node1&#45;&gt;Node29 -->
<g id="edge60" class="edge"><title>Node1&#45;&gt;Node29</title>
<path fill="none" stroke="midnightblue" d="M623.93,-456.707C747.63,-455.43 1118.44,-448.589 1423.5,-412 1428.05,-411.455 1432.81,-410.739 1437.5,-409.949"/>
<polygon fill="midnightblue" stroke="midnightblue" points="623.717,-453.209 613.752,-456.805 623.785,-460.209 623.717,-453.209"/>
</g>
<!-- Node3 -->
<g id="node3" class="node"><title>Node3</title>
<g id="a_node3"><a xlink:href="analysis_8cc.xhtml" target="_top" xlink:title="Implementation of common facilities for all analysis classes. ">
<polygon fill="white" stroke="black" points="657.5,-280.5 657.5,-299.5 725.5,-299.5 725.5,-280.5 657.5,-280.5"/>
<text text-anchor="middle" x="691.5" y="-287.5" font-family="Helvetica,sans-Serif" font-size="10.00">analysis.cc</text>
</a>
</g>
</g>
<!-- Node2&#45;&gt;Node3 -->
<g id="edge2" class="edge"><title>Node2&#45;&gt;Node3</title>
<path fill="none" stroke="midnightblue" d="M647.254,-329.537C658.308,-319.909 672.131,-307.869 681.357,-299.834"/>
<polygon fill="midnightblue" stroke="midnightblue" points="644.703,-327.117 639.461,-336.324 649.301,-332.395 644.703,-327.117"/>
</g>
<!-- Node2&#45;&gt;Node4 -->
<g id="edge3" class="edge"><title>Node2&#45;&gt;Node4</title>
<path fill="none" stroke="midnightblue" d="M593.764,-333.304C562.673,-323.129 518.353,-308.625 490.522,-299.516"/>
<polygon fill="midnightblue" stroke="midnightblue" points="592.763,-336.659 603.355,-336.444 594.94,-330.007 592.763,-336.659"/>
</g>
<!-- Node2&#45;&gt;Node6 -->
<g id="edge28" class="edge"><title>Node2&#45;&gt;Node6</title>
<path fill="none" stroke="midnightblue" d="M629.5,-326.295C629.5,-280.644 629.5,-164.854 629.5,-131.884"/>
<polygon fill="midnightblue" stroke="midnightblue" points="626,-326.297 629.5,-336.297 633,-326.297 626,-326.297"/>
</g>
<!-- Node2&#45;&gt;Node11 -->
<g id="edge11" class="edge"><title>Node2&#45;&gt;Node11</title>
<path fill="none" stroke="midnightblue" d="M671.467,-335.862C718.152,-325.697 792.975,-309.405 838.448,-299.503"/>
<polygon fill="midnightblue" stroke="midnightblue" points="670.694,-332.448 661.667,-337.996 672.183,-339.288 670.694,-332.448"/>
</g>
<!-- Node13 -->
<g id="node13" class="node"><title>Node13</title>
<g id="a_node13"><a xlink:href="probability__analysis_8h.xhtml" target="_top" xlink:title="Contains functionality to do numerical analysis of probabilities. ">
<polygon fill="white" stroke="black" points="658,-224.5 658,-243.5 777,-243.5 777,-224.5 658,-224.5"/>
<text text-anchor="middle" x="717.5" y="-231.5" font-family="Helvetica,sans-Serif" font-size="10.00">probability_analysis.h</text>
</a>
</g>
</g>
<!-- Node2&#45;&gt;Node13 -->
<g id="edge27" class="edge"><title>Node2&#45;&gt;Node13</title>
<path fill="none" stroke="midnightblue" d="M671.492,-338.402C694.254,-332.452 720.52,-321.202 734.5,-300 746.186,-282.277 732.664,-256.901 723.87,-243.711"/>
<polygon fill="midnightblue" stroke="midnightblue" points="670.602,-335.016 661.668,-340.71 672.203,-341.83 670.602,-335.016"/>
</g>
<!-- Node2&#45;&gt;Node17 -->
<g id="edge29" class="edge"><title>Node2&#45;&gt;Node17</title>
<path fill="none" stroke="midnightblue" d="M612.459,-329.498C587.059,-306.419 537.728,-261.694 495.5,-224 481.229,-211.262 464.597,-196.625 454.307,-187.594"/>
<polygon fill="midnightblue" stroke="midnightblue" points="610.357,-332.317 620.111,-336.454 615.066,-327.138 610.357,-332.317"/>
</g>
<!-- Node5 -->
<g id="node5" class="node"><title>Node5</title>
<g id="a_node5"><a xlink:href="event__tree__analysis_8cc.xhtml" target="_top" xlink:title="Implementation of event tree analysis facilities. ">
<polygon fill="white" stroke="black" points="362,-224.5 362,-243.5 487,-243.5 487,-224.5 362,-224.5"/>
<text text-anchor="middle" x="424.5" y="-231.5" font-family="Helvetica,sans-Serif" font-size="10.00">event_tree_analysis.cc</text>
</a>
</g>
</g>
<!-- Node4&#45;&gt;Node5 -->
<g id="edge4" class="edge"><title>Node4&#45;&gt;Node5</title>
<path fill="none" stroke="midnightblue" d="M451.8,-271.855C444.874,-262.505 436.594,-251.327 430.982,-243.751"/>
<polygon fill="midnightblue" stroke="midnightblue" points="449.13,-274.131 457.895,-280.083 454.755,-269.964 449.13,-274.131"/>
</g>
<!-- Node4&#45;&gt;Node6 -->
<g id="edge5" class="edge"><title>Node4&#45;&gt;Node6</title>
<path fill="none" stroke="midnightblue" d="M478.643,-272.79C499.548,-249.08 540.25,-203.866 577.5,-168 591.261,-154.751 608.133,-140.485 618.852,-131.649"/>
<polygon fill="midnightblue" stroke="midnightblue" points="475.846,-270.671 471.88,-280.495 481.107,-275.289 475.846,-270.671"/>
</g>
<!-- Node6&#45;&gt;Node7 -->
<g id="edge6" class="edge"><title>Node6&#45;&gt;Node7</title>
<path fill="none" stroke="midnightblue" d="M629.5,-101.805C629.5,-92.9102 629.5,-82.7798 629.5,-75.7511"/>
<polygon fill="midnightblue" stroke="midnightblue" points="626,-102.083 629.5,-112.083 633,-102.083 626,-102.083"/>
</g>
<!-- Node6&#45;&gt;Node9 -->
<g id="edge10" class="edge"><title>Node6&#45;&gt;Node9</title>
<path fill="none" stroke="midnightblue" d="M590.644,-109.51C515.674,-87.3417 352.62,-39.127 286.362,-19.5345"/>
<polygon fill="midnightblue" stroke="midnightblue" points="590.037,-112.981 600.619,-112.46 592.022,-106.268 590.037,-112.981"/>
</g>
<!-- Node10 -->
<g id="node10" class="node"><title>Node10</title>
<g id="a_node10"><a xlink:href="risk__analysis_8cc.xhtml" target="_top" xlink:title="Implementation of risk analysis handler. ">
<polygon fill="white" stroke="black" points="1227.5,-56.5 1227.5,-75.5 1317.5,-75.5 1317.5,-56.5 1227.5,-56.5"/>
<text text-anchor="middle" x="1272.5" y="-63.5" font-family="Helvetica,sans-Serif" font-size="10.00">risk_analysis.cc</text>
</a>
</g>
</g>
<!-- Node6&#45;&gt;Node10 -->
<g id="edge9" class="edge"><title>Node6&#45;&gt;Node10</title>
<path fill="none" stroke="midnightblue" d="M682.686,-116.533C806.448,-106.14 1111.96,-80.4827 1227.37,-70.79"/>
<polygon fill="midnightblue" stroke="midnightblue" points="682.359,-113.048 672.687,-117.373 682.945,-120.024 682.359,-113.048"/>
</g>
<!-- Node8 -->
<g id="node8" class="node"><title>Node8</title>
<g id="a_node8"><a xlink:href="reporter_8cc.xhtml" target="_top" xlink:title="Implements Reporter class. ">
<polygon fill="white" stroke="black" points="595.5,-0.5 595.5,-19.5 663.5,-19.5 663.5,-0.5 595.5,-0.5"/>
<text text-anchor="middle" x="629.5" y="-7.5" font-family="Helvetica,sans-Serif" font-size="10.00">reporter.cc</text>
</a>
</g>
</g>
<!-- Node7&#45;&gt;Node8 -->
<g id="edge7" class="edge"><title>Node7&#45;&gt;Node8</title>
<path fill="none" stroke="midnightblue" d="M629.5,-45.8045C629.5,-36.9102 629.5,-26.7798 629.5,-19.7511"/>
<polygon fill="midnightblue" stroke="midnightblue" points="626,-46.083 629.5,-56.083 633,-46.083 626,-46.083"/>
</g>
<!-- Node7&#45;&gt;Node9 -->
<g id="edge8" class="edge"><title>Node7&#45;&gt;Node9</title>
<path fill="none" stroke="midnightblue" d="M587.31,-58.8756C511.382,-47.8539 353.497,-24.935 287.506,-15.3558"/>
<polygon fill="midnightblue" stroke="midnightblue" points="587.062,-62.3763 597.462,-60.3493 588.068,-55.4489 587.062,-62.3763"/>
</g>
<!-- Node11&#45;&gt;Node6 -->
<g id="edge26" class="edge"><title>Node11&#45;&gt;Node6</title>
<path fill="none" stroke="midnightblue" d="M915.279,-276.998C944.839,-265.555 978.341,-246.726 961.5,-224 926.751,-177.107 754.431,-143.342 672.681,-129.694"/>
<polygon fill="midnightblue" stroke="midnightblue" points="914.068,-273.714 905.889,-280.449 916.482,-280.284 914.068,-273.714"/>
</g>
<!-- Node11&#45;&gt;Node7 -->
<g id="edge25" class="edge"><title>Node11&#45;&gt;Node7</title>
<path fill="none" stroke="midnightblue" d="M858.641,-273.895C848.304,-265.393 835.412,-254.42 824.5,-244 766.504,-188.622 763.364,-163.021 701.5,-112 683.76,-97.369 660.904,-83.8594 645.755,-75.5374"/>
<polygon fill="midnightblue" stroke="midnightblue" points="856.657,-276.793 866.623,-280.388 861.075,-271.363 856.657,-276.793"/>
</g>
<!-- Node12 -->
<g id="node12" class="node"><title>Node12</title>
<g id="a_node12"><a xlink:href="fault__tree__analysis_8cc.xhtml" target="_top" xlink:title="Implementation of fault tree analysis. ">
<polygon fill="white" stroke="black" points="834,-224.5 834,-243.5 953,-243.5 953,-224.5 834,-224.5"/>
<text text-anchor="middle" x="893.5" y="-231.5" font-family="Helvetica,sans-Serif" font-size="10.00">fault_tree_analysis.cc</text>
</a>
</g>
</g>
<!-- Node11&#45;&gt;Node12 -->
<g id="edge12" class="edge"><title>Node11&#45;&gt;Node12</title>
<path fill="none" stroke="midnightblue" d="M883.012,-270.396C885.689,-261.362 888.778,-250.936 890.907,-243.751"/>
<polygon fill="midnightblue" stroke="midnightblue" points="879.627,-269.501 880.142,-280.083 886.339,-271.489 879.627,-269.501"/>
</g>
<!-- Node11&#45;&gt;Node13 -->
<g id="edge13" class="edge"><title>Node11&#45;&gt;Node13</title>
<path fill="none" stroke="midnightblue" d="M842.454,-277.172C812.326,-267.004 769.604,-252.585 742.734,-243.516"/>
<polygon fill="midnightblue" stroke="midnightblue" points="841.553,-280.562 852.148,-280.444 843.792,-273.929 841.553,-280.562"/>
</g>
<!-- Node13&#45;&gt;Node6 -->
<g id="edge20" class="edge"><title>Node13&#45;&gt;Node6</title>
<path fill="none" stroke="midnightblue" d="M704.118,-216.272C685.095,-192.494 650.931,-149.789 636.373,-131.591"/>
<polygon fill="midnightblue" stroke="midnightblue" points="701.615,-218.746 710.595,-224.368 707.081,-214.373 701.615,-218.746"/>
</g>
<!-- Node13&#45;&gt;Node7 -->
<g id="edge19" class="edge"><title>Node13&#45;&gt;Node7</title>
<path fill="none" stroke="midnightblue" d="M715.283,-214.447C711.597,-189.465 702.428,-144.414 681.5,-112 671.657,-96.7545 655.17,-83.7488 643.4,-75.6977"/>
<polygon fill="midnightblue" stroke="midnightblue" points="711.818,-214.947 716.613,-224.395 718.757,-214.019 711.818,-214.947"/>
</g>
<!-- Node13&#45;&gt;Node14 -->
<g id="edge14" class="edge"><title>Node13&#45;&gt;Node14</title>
<path fill="none" stroke="midnightblue" d="M769.472,-222.41C819.554,-212.204 894.364,-196.96 940.706,-187.516"/>
<polygon fill="midnightblue" stroke="midnightblue" points="768.59,-219.017 759.49,-224.444 769.988,-225.876 768.59,-219.017"/>
</g>
<!-- Node13&#45;&gt;Node16 -->
<g id="edge18" class="edge"><title>Node13&#45;&gt;Node16</title>
<path fill="none" stroke="midnightblue" d="M787.15,-224.567C873.444,-214.119 1019.15,-196.478 1101.66,-186.487"/>
<polygon fill="midnightblue" stroke="midnightblue" points="786.694,-221.097 777.187,-225.773 787.535,-228.046 786.694,-221.097"/>
</g>
<!-- Node13&#45;&gt;Node17 -->
<g id="edge21" class="edge"><title>Node13&#45;&gt;Node17</title>
<path fill="none" stroke="midnightblue" d="M664.282,-222.473C612.687,-212.268 535.396,-196.979 487.555,-187.516"/>
<polygon fill="midnightblue" stroke="midnightblue" points="663.753,-225.937 674.242,-224.444 665.112,-219.07 663.753,-225.937"/>
</g>
<!-- Node14&#45;&gt;Node6 -->
<g id="edge17" class="edge"><title>Node14&#45;&gt;Node6</title>
<path fill="none" stroke="midnightblue" d="M916.343,-166.88C845.004,-155.967 733.507,-138.91 672.667,-129.603"/>
<polygon fill="midnightblue" stroke="midnightblue" points="916.152,-170.391 926.566,-168.444 917.21,-163.472 916.152,-170.391"/>
</g>
<!-- Node14&#45;&gt;Node7 -->
<g id="edge16" class="edge"><title>Node14&#45;&gt;Node7</title>
<path fill="none" stroke="midnightblue" d="M954.542,-164.388C922.434,-150.249 867.942,-127.304 819.5,-112 765.034,-94.7929 699.954,-80.7419 661.828,-73.147"/>
<polygon fill="midnightblue" stroke="midnightblue" points="953.196,-167.62 963.757,-168.475 956.034,-161.221 953.196,-167.62"/>
</g>
<!-- Node15 -->
<g id="node15" class="node"><title>Node15</title>
<g id="a_node15"><a xlink:href="importance__analysis_8cc.xhtml" target="_top" xlink:title="Implementations of functions to provide quantitative importance informations. ">
<polygon fill="white" stroke="black" points="964.5,-112.5 964.5,-131.5 1092.5,-131.5 1092.5,-112.5 964.5,-112.5"/>
<text text-anchor="middle" x="1028.5" y="-119.5" font-family="Helvetica,sans-Serif" font-size="10.00">importance_analysis.cc</text>
</a>
</g>
</g>
<!-- Node14&#45;&gt;Node15 -->
<g id="edge15" class="edge"><title>Node14&#45;&gt;Node15</title>
<path fill="none" stroke="midnightblue" d="M996.614,-160.431C1004.68,-150.967 1014.46,-139.483 1021.05,-131.751"/>
<polygon fill="midnightblue" stroke="midnightblue" points="993.916,-158.201 990.096,-168.083 999.245,-162.74 993.916,-158.201"/>
</g>
<!-- Node17&#45;&gt;Node6 -->
<g id="edge22" class="edge"><title>Node17&#45;&gt;Node6</title>
<path fill="none" stroke="midnightblue" d="M483.666,-165.568C518.565,-155.381 568.849,-140.703 600.323,-131.516"/>
<polygon fill="midnightblue" stroke="midnightblue" points="482.433,-162.282 473.814,-168.444 484.394,-169.001 482.433,-162.282"/>
</g>
<!-- Node17&#45;&gt;Node7 -->
<g id="edge23" class="edge"><title>Node17&#45;&gt;Node7</title>
<path fill="none" stroke="midnightblue" d="M468.031,-163.009C506.863,-139.919 583.232,-94.5104 615.051,-75.5914"/>
<polygon fill="midnightblue" stroke="midnightblue" points="465.823,-160.249 459.017,-168.368 469.401,-166.266 465.823,-160.249"/>
</g>
<!-- Node18 -->
<g id="node18" class="node"><title>Node18</title>
<g id="a_node18"><a xlink:href="uncertainty__analysis_8cc.xhtml" target="_top" xlink:title="Implements the functionality to run Monte Carlo simulations. ">
<polygon fill="white" stroke="black" points="380.5,-112.5 380.5,-131.5 508.5,-131.5 508.5,-112.5 380.5,-112.5"/>
<text text-anchor="middle" x="444.5" y="-119.5" font-family="Helvetica,sans-Serif" font-size="10.00">uncertainty_analysis.cc</text>
</a>
</g>
</g>
<!-- Node17&#45;&gt;Node18 -->
<g id="edge24" class="edge"><title>Node17&#45;&gt;Node18</title>
<path fill="none" stroke="midnightblue" d="M444.5,-157.805C444.5,-148.91 444.5,-138.78 444.5,-131.751"/>
<polygon fill="midnightblue" stroke="midnightblue" points="441,-158.083 444.5,-168.083 448,-158.083 441,-158.083"/>
</g>
<!-- Node19&#45;&gt;Node10 -->
<g id="edge44" class="edge"><title>Node19&#45;&gt;Node10</title>
<path fill="none" stroke="midnightblue" d="M1059.09,-400.749C1140.01,-398.069 1346.7,-377.972 1390.5,-244 1414.37,-170.985 1321.55,-99.7717 1285.91,-75.6337"/>
<polygon fill="midnightblue" stroke="midnightblue" points="1058.89,-397.253 1048.98,-401.013 1059.07,-404.25 1058.89,-397.253"/>
</g>
<!-- Node19&#45;&gt;Node13 -->
<g id="edge43" class="edge"><title>Node19&#45;&gt;Node13</title>
<path fill="none" stroke="midnightblue" d="M995.757,-388.609C953.095,-370.974 874.023,-336.683 810.5,-300 779.454,-282.071 745.546,-256.782 728.537,-243.66"/>
<polygon fill="midnightblue" stroke="midnightblue" points="994.459,-391.859 1005.04,-392.42 997.117,-385.384 994.459,-391.859"/>
</g>
<!-- Node19&#45;&gt;Node14 -->
<g id="edge42" class="edge"><title>Node19&#45;&gt;Node14</title>
<path fill="none" stroke="midnightblue" d="M1023.02,-382.283C1019.16,-358.369 1014.24,-315.787 1020.5,-280 1024.91,-254.832 1044.01,-247.289 1033.5,-224 1026.31,-208.071 1010.39,-195.519 998.234,-187.764"/>
<polygon fill="midnightblue" stroke="midnightblue" points="1019.62,-383.157 1024.78,-392.411 1026.52,-381.96 1019.62,-383.157"/>
</g>
<!-- Node20 -->
<g id="node20" class="node"><title>Node20</title>
<g id="a_node20"><a xlink:href="bdd_8cc.xhtml" target="_top" xlink:title="Implementation of BDD fault tree analysis algorithms. ">
<polygon fill="white" stroke="black" points="1029.5,-280.5 1029.5,-299.5 1077.5,-299.5 1077.5,-280.5 1029.5,-280.5"/>
<text text-anchor="middle" x="1053.5" y="-287.5" font-family="Helvetica,sans-Serif" font-size="10.00">bdd.cc</text>
</a>
</g>
</g>
<!-- Node19&#45;&gt;Node20 -->
<g id="edge31" class="edge"><title>Node19&#45;&gt;Node20</title>
<path fill="none" stroke="midnightblue" d="M1031.08,-382.348C1036.99,-358.254 1047.04,-317.308 1051.39,-299.591"/>
<polygon fill="midnightblue" stroke="midnightblue" points="1027.6,-381.822 1028.62,-392.368 1034.4,-383.491 1027.6,-381.822"/>
</g>
<!-- Node21 -->
<g id="node21" class="node"><title>Node21</title>
<g id="a_node21"><a xlink:href="zbdd_8h.xhtml" target="_top" xlink:title="Zero&#45;Suppressed Binary Decision Diagram facilities. ">
<polygon fill="white" stroke="black" points="1102,-336.5 1102,-355.5 1151,-355.5 1151,-336.5 1102,-336.5"/>
<text text-anchor="middle" x="1126.5" y="-343.5" font-family="Helvetica,sans-Serif" font-size="10.00">zbdd.h</text>
</a>
</g>
</g>
<!-- Node19&#45;&gt;Node21 -->
<g id="edge32" class="edge"><title>Node19&#45;&gt;Node21</title>
<path fill="none" stroke="midnightblue" d="M1051.59,-387.453C1070.05,-377.483 1094.6,-364.228 1110.47,-355.655"/>
<polygon fill="midnightblue" stroke="midnightblue" points="1049.7,-384.493 1042.57,-392.324 1053.03,-390.652 1049.7,-384.493"/>
</g>
<!-- Node21&#45;&gt;Node10 -->
<g id="edge40" class="edge"><title>Node21&#45;&gt;Node10</title>
<path fill="none" stroke="midnightblue" d="M1160.9,-332.443C1198.51,-316.234 1253.5,-284.135 1253.5,-235 1253.5,-235 1253.5,-235 1253.5,-177 1253.5,-138.821 1264.75,-94.2624 1269.94,-75.7514"/>
<polygon fill="midnightblue" stroke="midnightblue" points="1159.2,-329.36 1151.29,-336.409 1161.87,-335.831 1159.2,-329.36"/>
</g>
<!-- Node21&#45;&gt;Node11 -->
<g id="edge34" class="edge"><title>Node21&#45;&gt;Node11</title>
<path fill="none" stroke="midnightblue" d="M1091.92,-337.501C1045.98,-327.538 965.029,-309.982 916.817,-299.527"/>
<polygon fill="midnightblue" stroke="midnightblue" points="1091.2,-340.926 1101.71,-339.625 1092.68,-334.085 1091.2,-340.926"/>
</g>
<!-- Node21&#45;&gt;Node15 -->
<g id="edge35" class="edge"><title>Node21&#45;&gt;Node15</title>
<path fill="none" stroke="midnightblue" d="M1119.83,-326.897C1107.73,-294.518 1080.86,-224.764 1053.5,-168 1047.29,-155.119 1039.08,-140.761 1033.79,-131.804"/>
<polygon fill="midnightblue" stroke="midnightblue" points="1116.59,-328.215 1123.35,-336.372 1123.15,-325.779 1116.59,-328.215"/>
</g>
<!-- Node21&#45;&gt;Node16 -->
<g id="edge39" class="edge"><title>Node21&#45;&gt;Node16</title>
<path fill="none" stroke="midnightblue" d="M1159.56,-332.008C1173.27,-324.781 1187.75,-314.304 1195.5,-300 1216.41,-261.406 1184.4,-208.381 1169.96,-187.729"/>
<polygon fill="midnightblue" stroke="midnightblue" points="1157.76,-328.99 1150.29,-336.499 1160.81,-335.29 1157.76,-328.99"/>
</g>
<!-- Node21&#45;&gt;Node20 -->
<g id="edge33" class="edge"><title>Node21&#45;&gt;Node20</title>
<path fill="none" stroke="midnightblue" d="M1106.36,-330.101C1093.22,-320.382 1076.52,-308.027 1065.44,-299.834"/>
<polygon fill="midnightblue" stroke="midnightblue" points="1104.65,-333.191 1114.77,-336.324 1108.81,-327.563 1104.65,-333.191"/>
</g>
<!-- Node21&#45;&gt;Node22 -->
<g id="edge36" class="edge"><title>Node21&#45;&gt;Node22</title>
<path fill="none" stroke="midnightblue" d="M1160.83,-334.981C1195.75,-324.788 1249.29,-309.16 1282.25,-299.537"/>
<polygon fill="midnightblue" stroke="midnightblue" points="1159.69,-331.667 1151.07,-337.829 1161.65,-338.387 1159.69,-331.667"/>
</g>
<!-- Node24 -->
<g id="node24" class="node"><title>Node24</title>
<g id="a_node24"><a xlink:href="zbdd_8cc.xhtml" target="_top" xlink:title="Implementation of Zero&#45;Suppressed BDD algorithms. ">
<polygon fill="white" stroke="black" points="1134,-280.5 1134,-299.5 1187,-299.5 1187,-280.5 1134,-280.5"/>
<text text-anchor="middle" x="1160.5" y="-287.5" font-family="Helvetica,sans-Serif" font-size="10.00">zbdd.cc</text>
</a>
</g>
</g>
<!-- Node21&#45;&gt;Node24 -->
<g id="edge41" class="edge"><title>Node21&#45;&gt;Node24</title>
<path fill="none" stroke="midnightblue" d="M1137.48,-327.566C1143.33,-318.275 1150.27,-307.248 1154.99,-299.751"/>
<polygon fill="midnightblue" stroke="midnightblue" points="1134.48,-325.756 1132.11,-336.083 1140.4,-329.486 1134.48,-325.756"/>
</g>
<!-- Node22&#45;&gt;Node10 -->
<g id="edge38" class="edge"><title>Node22&#45;&gt;Node10</title>
<path fill="none" stroke="midnightblue" d="M1308.21,-270.295C1300.19,-224.644 1279.85,-108.854 1274.06,-75.8837"/>
<polygon fill="midnightblue" stroke="midnightblue" points="1304.79,-271.054 1309.97,-280.297 1311.69,-269.843 1304.79,-271.054"/>
</g>
<!-- Node23 -->
<g id="node23" class="node"><title>Node23</title>
<g id="a_node23"><a xlink:href="mocus_8cc.xhtml" target="_top" xlink:title="Implementation of the MOCUS algorithm. ">
<polygon fill="white" stroke="black" points="1319.5,-224.5 1319.5,-243.5 1381.5,-243.5 1381.5,-224.5 1319.5,-224.5"/>
<text text-anchor="middle" x="1350.5" y="-231.5" font-family="Helvetica,sans-Serif" font-size="10.00">mocus.cc</text>
</a>
</g>
</g>
<!-- Node22&#45;&gt;Node23 -->
<g id="edge37" class="edge"><title>Node22&#45;&gt;Node23</title>
<path fill="none" stroke="midnightblue" d="M1323.88,-271.855C1330.64,-262.505 1338.71,-251.327 1344.18,-243.751"/>
<polygon fill="midnightblue" stroke="midnightblue" points="1320.96,-269.927 1317.94,-280.083 1326.63,-274.025 1320.96,-269.927"/>
</g>
<!-- Node25&#45;&gt;Node9 -->
<g id="edge50" class="edge"><title>Node25&#45;&gt;Node9</title>
<path fill="none" stroke="midnightblue" d="M174.141,-385.628C165.21,-377.637 155.14,-367.207 148.5,-356 133.158,-330.106 129.5,-321.098 129.5,-291 129.5,-291 129.5,-291 129.5,-121 129.5,-67.2332 195.266,-34.0284 232.516,-19.5333"/>
<polygon fill="midnightblue" stroke="midnightblue" points="172.01,-388.411 181.892,-392.233 176.551,-383.083 172.01,-388.411"/>
</g>
<!-- Node26 -->
<g id="node26" class="node"><title>Node26</title>
<g id="a_node26"><a xlink:href="initializer_8cc.xhtml" target="_top" xlink:title="Implementation of input file processing into analysis constructs. ">
<polygon fill="white" stroke="black" points="158,-336.5 158,-355.5 229,-355.5 229,-336.5 158,-336.5"/>
<text text-anchor="middle" x="193.5" y="-343.5" font-family="Helvetica,sans-Serif" font-size="10.00">initializer.cc</text>
</a>
</g>
</g>
<!-- Node25&#45;&gt;Node26 -->
<g id="edge49" class="edge"><title>Node25&#45;&gt;Node26</title>
<path fill="none" stroke="midnightblue" d="M193.5,-381.805C193.5,-372.91 193.5,-362.78 193.5,-355.751"/>
<polygon fill="midnightblue" stroke="midnightblue" points="190,-382.083 193.5,-392.083 197,-382.083 190,-382.083"/>
</g>
<!-- Node27&#45;&gt;Node9 -->
<g id="edge55" class="edge"><title>Node27&#45;&gt;Node9</title>
<path fill="none" stroke="midnightblue" d="M91.5,-382.251C91.5,-360.357 91.5,-323.052 91.5,-291 91.5,-291 91.5,-291 91.5,-121 91.5,-56.5221 179.602,-27.6097 227.439,-16.6634"/>
<polygon fill="midnightblue" stroke="midnightblue" points="88.0001,-382.442 91.5,-392.442 95.0001,-382.442 88.0001,-382.442"/>
</g>
<!-- Node28 -->
<g id="node28" class="node"><title>Node28</title>
<g id="a_node28"><a xlink:href="project_8cc.xhtml" target="_top" xlink:title="Implementation of project configuration facilities. ">
<polygon fill="white" stroke="black" points="0,-336.5 0,-355.5 63,-355.5 63,-336.5 0,-336.5"/>
<text text-anchor="middle" x="31.5" y="-343.5" font-family="Helvetica,sans-Serif" font-size="10.00">project.cc</text>
</a>
</g>
</g>
<!-- Node27&#45;&gt;Node28 -->
<g id="edge54" class="edge"><title>Node27&#45;&gt;Node28</title>
<path fill="none" stroke="midnightblue" d="M74.3191,-385.537C63.6208,-375.909 50.2437,-363.869 41.3154,-355.834"/>
<polygon fill="midnightblue" stroke="midnightblue" points="72.0856,-388.236 81.86,-392.324 76.7684,-383.033 72.0856,-388.236"/>
</g>
</g>
</svg>
