<?xml version="1.0" encoding="UTF-8" standalone="no"?>
<!DOCTYPE svg PUBLIC "-//W3C//DTD SVG 1.1//EN"
 "http://www.w3.org/Graphics/SVG/1.1/DTD/svg11.dtd">
<!-- Generated by graphviz version 2.38.0 (20140413.2041)
 -->
<!-- Title: scram::mef::ValidityError Pages: 1 -->
<svg width="654pt" height="370pt"
 viewBox="0.00 0.00 654.00 370.00" xmlns="http://www.w3.org/2000/svg" xmlns:xlink="http://www.w3.org/1999/xlink">
<g id="graph0" class="graph" transform="scale(1 1) rotate(0) translate(4 366)">
<title>scram::mef::ValidityError</title>
<polygon fill="white" stroke="none" points="-4,4 -4,-366 650,-366 650,4 -4,4"/>
<!-- Node1 -->
<g id="node1" class="node"><title>Node1</title>
<polygon fill="#bfbfbf" stroke="black" points="230,-105.5 230,-162.5 364,-162.5 364,-105.5 230,-105.5"/>
<text text-anchor="middle" x="297" y="-150.5" font-family="Helvetica,sans-Serif" font-size="10.00">scram::mef::ValidityError</text>
<polyline fill="none" stroke="black" points="230,-143.5 364,-143.5 "/>
<text text-anchor="middle" x="297" y="-131.5" font-family="Helvetica,sans-Serif" font-size="10.00"> </text>
<polyline fill="none" stroke="black" points="230,-124.5 364,-124.5 "/>
<text text-anchor="middle" x="297" y="-112.5" font-family="Helvetica,sans-Serif" font-size="10.00"> </text>
</g>
<!-- Node5 -->
<g id="node5" class="node"><title>Node5</title>
<g id="a_node5"><a xlink:href="structscram_1_1mef_1_1CycleError.xhtml" target="_top" xlink:title="Unacceptable cycles in model structures. ">
<polygon fill="white" stroke="black" points="0,-6 0,-63 126,-63 126,-6 0,-6"/>
<text text-anchor="middle" x="63" y="-51" font-family="Helvetica,sans-Serif" font-size="10.00">scram::mef::CycleError</text>
<polyline fill="none" stroke="black" points="0,-44 126,-44 "/>
<text text-anchor="middle" x="63" y="-32" font-family="Helvetica,sans-Serif" font-size="10.00"> </text>
<polyline fill="none" stroke="black" points="0,-25 126,-25 "/>
<text text-anchor="start" x="8" y="-13" font-family="Helvetica,sans-Serif" font-size="10.00">+ CycleError()</text>
</a>
</g>
</g>
<!-- Node1&#45;&gt;Node5 -->
<g id="edge4" class="edge"><title>Node1&#45;&gt;Node5</title>
<path fill="none" stroke="midnightblue" d="M220.219,-103.742C193.145,-93.1416 162.587,-80.8548 135,-69 130.567,-67.0949 126,-65.0845 121.419,-63.0333"/>
<polygon fill="none" stroke="midnightblue" points="219.052,-107.043 229.64,-107.417 221.596,-100.522 219.052,-107.043"/>
</g>
<!-- Node6 -->
<g id="node6" class="node"><title>Node6</title>
<g id="a_node6"><a xlink:href="structscram_1_1mef_1_1DomainError.xhtml" target="_top" xlink:title="Invalid domain for values or arguments. ">
<polygon fill="white" stroke="black" points="144,-6 144,-63 282,-63 282,-6 144,-6"/>
<text text-anchor="middle" x="213" y="-51" font-family="Helvetica,sans-Serif" font-size="10.00">scram::mef::DomainError</text>
<polyline fill="none" stroke="black" points="144,-44 282,-44 "/>
<text text-anchor="middle" x="213" y="-32" font-family="Helvetica,sans-Serif" font-size="10.00"> </text>
<polyline fill="none" stroke="black" points="144,-25 282,-25 "/>
<text text-anchor="middle" x="213" y="-13" font-family="Helvetica,sans-Serif" font-size="10.00"> </text>
</a>
</g>
</g>
<!-- Node1&#45;&gt;Node6 -->
<g id="edge5" class="edge"><title>Node1&#45;&gt;Node6</title>
<path fill="none" stroke="midnightblue" d="M266.567,-97.6761C256.803,-86.3426 246.134,-73.9591 236.906,-63.248"/>
<polygon fill="none" stroke="midnightblue" points="263.975,-100.03 273.154,-105.321 269.278,-95.4606 263.975,-100.03"/>
</g>
<!-- Node7 -->
<g id="node7" class="node"><title>Node7</title>
<g id="a_node7"><a xlink:href="structscram_1_1mef_1_1DuplicateElementError.xhtml" target="_top" xlink:title="This error indicates that elements must be unique. ">
<polygon fill="white" stroke="black" points="300,-0.5 300,-68.5 462,-68.5 462,-0.5 300,-0.5"/>
<text text-anchor="start" x="308" y="-56.5" font-family="Helvetica,sans-Serif" font-size="10.00">scram::mef::DuplicateElement</text>
<text text-anchor="middle" x="381" y="-45.5" font-family="Helvetica,sans-Serif" font-size="10.00">Error</text>
<polyline fill="none" stroke="black" points="300,-38.5 462,-38.5 "/>
<text text-anchor="middle" x="381" y="-26.5" font-family="Helvetica,sans-Serif" font-size="10.00"> </text>
<polyline fill="none" stroke="black" points="300,-19.5 462,-19.5 "/>
<text text-anchor="start" x="308" y="-7.5" font-family="Helvetica,sans-Serif" font-size="10.00">+ DuplicateElementError()</text>
</a>
</g>
</g>
<!-- Node1&#45;&gt;Node7 -->
<g id="edge6" class="edge"><title>Node1&#45;&gt;Node7</title>
<path fill="none" stroke="midnightblue" d="M327.481,-97.6203C335.588,-88.2101 344.316,-78.0795 352.323,-68.7855"/>
<polygon fill="none" stroke="midnightblue" points="324.722,-95.4606 320.846,-105.321 330.025,-100.03 324.722,-95.4606"/>
</g>
<!-- Node8 -->
<g id="node8" class="node"><title>Node8</title>
<g id="a_node8"><a xlink:href="structscram_1_1mef_1_1UndefinedElement.xhtml" target="_top" xlink:title="The error for undefined elements in a model. ">
<polygon fill="white" stroke="black" points="480,-6 480,-63 646,-63 646,-6 480,-6"/>
<text text-anchor="middle" x="563" y="-51" font-family="Helvetica,sans-Serif" font-size="10.00">scram::mef::UndefinedElement</text>
<polyline fill="none" stroke="black" points="480,-44 646,-44 "/>
<text text-anchor="middle" x="563" y="-32" font-family="Helvetica,sans-Serif" font-size="10.00"> </text>
<polyline fill="none" stroke="black" points="480,-25 646,-25 "/>
<text text-anchor="start" x="488" y="-13" font-family="Helvetica,sans-Serif" font-size="10.00">+ UndefinedElement()</text>
</a>
</g>
</g>
<!-- Node1&#45;&gt;Node8 -->
<g id="edge7" class="edge"><title>Node1&#45;&gt;Node8</title>
<path fill="none" stroke="midnightblue" d="M373.584,-104.929C409.512,-91.7598 452.182,-76.1193 487.919,-63.0202"/>
<polygon fill="none" stroke="midnightblue" points="372.308,-101.669 364.123,-108.397 374.717,-108.241 372.308,-101.669"/>
</g>
<!-- Node2 -->
<g id="node2" class="node"><title>Node2</title>
<g id="a_node2"><a xlink:href="classscram_1_1Error.xhtml" target="_top" xlink:title="The Error class is the base class for all exceptions specific to the SCRAM code. ">
<polygon fill="white" stroke="black" points="259,-199.5 259,-267.5 335,-267.5 335,-199.5 259,-199.5"/>
<text text-anchor="middle" x="297" y="-255.5" font-family="Helvetica,sans-Serif" font-size="10.00">scram::Error</text>
<polyline fill="none" stroke="black" points="259,-248.5 335,-248.5 "/>
<text text-anchor="middle" x="297" y="-236.5" font-family="Helvetica,sans-Serif" font-size="10.00"> </text>
<polyline fill="none" stroke="black" points="259,-229.5 335,-229.5 "/>
<text text-anchor="start" x="267" y="-217.5" font-family="Helvetica,sans-Serif" font-size="10.00">+ Error()</text>
<text text-anchor="start" x="267" y="-206.5" font-family="Helvetica,sans-Serif" font-size="10.00">+ what()</text>
</a>
</g>
</g>
<!-- Node2&#45;&gt;Node1 -->
<g id="edge1" class="edge"><title>Node2&#45;&gt;Node1</title>
<path fill="none" stroke="midnightblue" d="M297,-189.454C297,-180.404 297,-171.088 297,-162.777"/>
<polygon fill="none" stroke="midnightblue" points="293.5,-189.491 297,-199.491 300.5,-189.491 293.5,-189.491"/>
</g>
<!-- Node3 -->
<g id="node3" class="node"><title>Node3</title>
<polygon fill="white" stroke="#bfbfbf" points="201,-304.5 201,-361.5 285,-361.5 285,-304.5 201,-304.5"/>
<text text-anchor="middle" x="243" y="-349.5" font-family="Helvetica,sans-Serif" font-size="10.00">std::exception</text>
<polyline fill="none" stroke="#bfbfbf" points="201,-342.5 285,-342.5 "/>
<text text-anchor="middle" x="243" y="-330.5" font-family="Helvetica,sans-Serif" font-size="10.00"> </text>
<polyline fill="none" stroke="#bfbfbf" points="201,-323.5 285,-323.5 "/>
<text text-anchor="middle" x="243" y="-311.5" font-family="Helvetica,sans-Serif" font-size="10.00"> </text>
</g>
<!-- Node3&#45;&gt;Node2 -->
<g id="edge2" class="edge"><title>Node3&#45;&gt;Node2</title>
<path fill="none" stroke="midnightblue" d="M263.222,-295.488C268.255,-286.401 273.623,-276.708 278.565,-267.786"/>
<polygon fill="none" stroke="midnightblue" points="260.113,-293.878 258.33,-304.321 266.237,-297.269 260.113,-293.878"/>
</g>
<!-- Node4 -->
<g id="node4" class="node"><title>Node4</title>
<polygon fill="white" stroke="#bfbfbf" points="303,-304.5 303,-361.5 399,-361.5 399,-304.5 303,-304.5"/>
<text text-anchor="middle" x="351" y="-349.5" font-family="Helvetica,sans-Serif" font-size="10.00">boost::exception</text>
<polyline fill="none" stroke="#bfbfbf" points="303,-342.5 399,-342.5 "/>
<text text-anchor="middle" x="351" y="-330.5" font-family="Helvetica,sans-Serif" font-size="10.00"> </text>
<polyline fill="none" stroke="#bfbfbf" points="303,-323.5 399,-323.5 "/>
<text text-anchor="middle" x="351" y="-311.5" font-family="Helvetica,sans-Serif" font-size="10.00"> </text>
</g>
<!-- Node4&#45;&gt;Node2 -->
<g id="edge3" class="edge"><title>Node4&#45;&gt;Node2</title>
<path fill="none" stroke="midnightblue" d="M330.778,-295.488C325.745,-286.401 320.377,-276.708 315.435,-267.786"/>
<polygon fill="none" stroke="midnightblue" points="327.763,-297.269 335.67,-304.321 333.887,-293.878 327.763,-297.269"/>
</g>
</g>
</svg>
