<?xml version="1.0" encoding="UTF-8" standalone="no"?>
<!DOCTYPE svg PUBLIC "-//W3C//DTD SVG 1.1//EN"
 "http://www.w3.org/Graphics/SVG/1.1/DTD/svg11.dtd">
<!-- Generated by graphviz version 2.38.0 (20140413.2041)
 -->
<!-- Title: scram::mef::Initializer::Extractor::operator() Pages: 1 -->
<svg width="281pt" height="88pt"
 viewBox="0.00 0.00 281.00 88.00" xmlns="http://www.w3.org/2000/svg" xmlns:xlink="http://www.w3.org/1999/xlink">
<g id="graph0" class="graph" transform="scale(1 1) rotate(0) translate(4 84)">
<title>scram::mef::Initializer::Extractor::operator()</title>
<polygon fill="white" stroke="none" points="-4,4 -4,-84 277,-84 277,4 -4,4"/>
<!-- Node1 -->
<g id="node1" class="node"><title>Node1</title>
<polygon fill="#bfbfbf" stroke="black" points="0,-24.5 0,-54.5 121,-54.5 121,-24.5 0,-24.5"/>
<text text-anchor="start" x="8" y="-42.5" font-family="Helvetica,sans-Serif" font-size="10.00">scram::mef::Initializer</text>
<text text-anchor="middle" x="60.5" y="-31.5" font-family="Helvetica,sans-Serif" font-size="10.00">::Extractor::operator()</text>
</g>
<!-- Node2 -->
<g id="node2" class="node"><title>Node2</title>
<g id="a_node2"><a xlink:href="classscram_1_1xml_1_1Element_1_1Range.xhtml#ae2f0368ee0072083b59665e30c1f4949" target="_top" xlink:title="The range begin and end iterators. ">
<polygon fill="white" stroke="black" points="157,-49.5 157,-79.5 273,-79.5 273,-49.5 157,-49.5"/>
<text text-anchor="start" x="165" y="-67.5" font-family="Helvetica,sans-Serif" font-size="10.00">scram::xml::Element</text>
<text text-anchor="middle" x="215" y="-56.5" font-family="Helvetica,sans-Serif" font-size="10.00">::Range::begin</text>
</a>
</g>
</g>
<!-- Node1&#45;&gt;Node2 -->
<g id="edge1" class="edge"><title>Node1&#45;&gt;Node2</title>
<path fill="none" stroke="midnightblue" d="M121.334,-49.3089C129.731,-50.6854 138.406,-52.1076 146.927,-53.5044"/>
<polygon fill="midnightblue" stroke="midnightblue" points="146.397,-56.9642 156.832,-55.1281 147.53,-50.0564 146.397,-56.9642"/>
</g>
<!-- Node3 -->
<g id="node3" class="node"><title>Node3</title>
<g id="a_node3"><a xlink:href="classscram_1_1xml_1_1Element_1_1Range.xhtml#a587b8312cc0bfbd5d9b6e8c73890c99e" target="_top" xlink:title="The range begin and end iterators. ">
<polygon fill="white" stroke="black" points="157,-0.5 157,-30.5 273,-30.5 273,-0.5 157,-0.5"/>
<text text-anchor="start" x="165" y="-18.5" font-family="Helvetica,sans-Serif" font-size="10.00">scram::xml::Element</text>
<text text-anchor="middle" x="215" y="-7.5" font-family="Helvetica,sans-Serif" font-size="10.00">::Range::end</text>
</a>
</g>
</g>
<!-- Node1&#45;&gt;Node3 -->
<g id="edge2" class="edge"><title>Node1&#45;&gt;Node3</title>
<path fill="none" stroke="midnightblue" d="M121.334,-30.0834C129.731,-28.762 138.406,-27.3967 146.927,-26.0558"/>
<polygon fill="midnightblue" stroke="midnightblue" points="147.497,-29.5092 156.832,-24.497 146.409,-22.5943 147.497,-29.5092"/>
</g>
</g>
</svg>
