<?xml version="1.0" encoding="UTF-8" standalone="no"?>
<!DOCTYPE svg PUBLIC "-//W3C//DTD SVG 1.1//EN"
 "http://www.w3.org/Graphics/SVG/1.1/DTD/svg11.dtd">
<!-- Generated by graphviz version 2.38.0 (20140413.2041)
 -->
<!-- Title: scram::xml::Error Pages: 1 -->
<!--zoomable 359 -->
<svg id="main" version="1.1" xmlns="http://www.w3.org/2000/svg" xmlns:xlink="http://www.w3.org/1999/xlink" xml:space="preserve" onload="init(evt)">
<style type="text/css"><![CDATA[
.edge:hover path { stroke: red; }
.edge:hover polygon { stroke: red; fill: red; }
]]></style>
<script type="text/javascript"><![CDATA[
var edges = document.getElementsByTagName('g');
if (edges && edges.length) {
  for (var i=0;i<edges.length;i++) {
    if (edges[i].id.substr(0,4)=='edge') {
      edges[i].setAttribute('class','edge');
    }
  }
}
]]></script>
        <defs>
                <circle id="rim" cx="0" cy="0" r="7"/>
                <circle id="rim2" cx="0" cy="0" r="3.5"/>
                <g id="zoomPlus">
                        <use xlink:href="#rim" fill="#404040">
                                <set attributeName="fill" to="#808080" begin="zoomplus.mouseover" end="zoomplus.mouseout"/>
                        </use>
                        <path d="M-4,0h8M0,-4v8" fill="none" stroke="white" stroke-width="1.5" pointer-events="none"/>
                </g>
                <g id="zoomMin">
                        <use xlink:href="#rim" fill="#404040">
                                <set attributeName="fill" to="#808080" begin="zoomminus.mouseover" end="zoomminus.mouseout"/>
                        </use>
                        <path d="M-4,0h8" fill="none" stroke="white" stroke-width="1.5" pointer-events="none"/>
                </g>
                <g id="dirArrow">
                        <path fill="none" stroke="white" stroke-width="1.5" d="M0,-3.0v7 M-2.5,-0.5L0,-3.0L2.5,-0.5"/>
                </g>
               <g id="resetDef">
                       <use xlink:href="#rim2" fill="#404040">
                               <set attributeName="fill" to="#808080" begin="reset.mouseover" end="reset.mouseout"/>
                       </use>
               </g>
        </defs>

<script type="text/javascript">
var viewWidth = 594;
var viewHeight = 359;
var sectionId = 'dynsection-0';
</script>
<script xlink:href="svgpan.js"/>
<svg id="graph" class="graph">
<g id="viewport">
<title>scram::xml::Error</title>
<polygon fill="white" stroke="none" points="-4,4 -4,-355 590,-355 590,4 -4,4"/>
<!-- Node1 -->
<g id="node1" class="node"><title>Node1</title>
<polygon fill="#bfbfbf" stroke="black" points="237,-94.5 237,-151.5 336,-151.5 336,-94.5 237,-94.5"/>
<text text-anchor="middle" x="286.5" y="-139.5" font-family="Helvetica,sans-Serif" font-size="10.00">scram::xml::Error</text>
<polyline fill="none" stroke="black" points="237,-132.5 336,-132.5 "/>
<text text-anchor="middle" x="286.5" y="-120.5" font-family="Helvetica,sans-Serif" font-size="10.00"> </text>
<polyline fill="none" stroke="black" points="237,-113.5 336,-113.5 "/>
<text text-anchor="middle" x="286.5" y="-101.5" font-family="Helvetica,sans-Serif" font-size="10.00"> </text>
</g>
<!-- Node5 -->
<g id="node5" class="node"><title>Node5</title>
<g id="a_node5"><a xlink:href="structscram_1_1xml_1_1ParseError.xhtml" target="_top" xlink:title="XML parsing errors. ">
<polygon fill="white" stroke="black" points="0,-0.5 0,-57.5 125,-57.5 125,-0.5 0,-0.5"/>
<text text-anchor="middle" x="62.5" y="-45.5" font-family="Helvetica,sans-Serif" font-size="10.00">scram::xml::ParseError</text>
<polyline fill="none" stroke="black" points="0,-38.5 125,-38.5 "/>
<text text-anchor="middle" x="62.5" y="-26.5" font-family="Helvetica,sans-Serif" font-size="10.00"> </text>
<polyline fill="none" stroke="black" points="0,-19.5 125,-19.5 "/>
<text text-anchor="middle" x="62.5" y="-7.5" font-family="Helvetica,sans-Serif" font-size="10.00"> </text>
</a>
</g>
</g>
<!-- Node1&#45;&gt;Node5 -->
<g id="edge4" class="edge"><title>Node1&#45;&gt;Node5</title>
<path fill="none" stroke="midnightblue" d="M227.282,-97.6783C195.861,-84.7733 157.255,-68.9172 125.311,-55.7973"/>
<polygon fill="none" stroke="midnightblue" points="226.207,-101.021 236.787,-101.582 228.867,-94.5454 226.207,-101.021"/>
</g>
<!-- Node6 -->
<g id="node6" class="node"><title>Node6</title>
<g id="a_node6"><a xlink:href="structscram_1_1xml_1_1StreamError.xhtml" target="_top" xlink:title="Errors in using XML streaming facilities. ">
<polygon fill="white" stroke="black" points="143,-0.5 143,-57.5 278,-57.5 278,-0.5 143,-0.5"/>
<text text-anchor="middle" x="210.5" y="-45.5" font-family="Helvetica,sans-Serif" font-size="10.00">scram::xml::StreamError</text>
<polyline fill="none" stroke="black" points="143,-38.5 278,-38.5 "/>
<text text-anchor="middle" x="210.5" y="-26.5" font-family="Helvetica,sans-Serif" font-size="10.00"> </text>
<polyline fill="none" stroke="black" points="143,-19.5 278,-19.5 "/>
<text text-anchor="middle" x="210.5" y="-7.5" font-family="Helvetica,sans-Serif" font-size="10.00"> </text>
</a>
</g>
</g>
<!-- Node1&#45;&gt;Node6 -->
<g id="edge5" class="edge"><title>Node1&#45;&gt;Node6</title>
<path fill="none" stroke="midnightblue" d="M257.194,-86.5246C249.264,-76.9249 240.8,-66.6789 233.286,-57.5836"/>
<polygon fill="none" stroke="midnightblue" points="254.63,-88.9164 263.697,-94.397 260.027,-84.4582 254.63,-88.9164"/>
</g>
<!-- Node7 -->
<g id="node7" class="node"><title>Node7</title>
<g id="a_node7"><a xlink:href="structscram_1_1xml_1_1ValidityError.xhtml" target="_top" xlink:title="XML document validity errors. ">
<polygon fill="white" stroke="black" points="296,-0.5 296,-57.5 429,-57.5 429,-0.5 296,-0.5"/>
<text text-anchor="middle" x="362.5" y="-45.5" font-family="Helvetica,sans-Serif" font-size="10.00">scram::xml::ValidityError</text>
<polyline fill="none" stroke="black" points="296,-38.5 429,-38.5 "/>
<text text-anchor="middle" x="362.5" y="-26.5" font-family="Helvetica,sans-Serif" font-size="10.00"> </text>
<polyline fill="none" stroke="black" points="296,-19.5 429,-19.5 "/>
<text text-anchor="middle" x="362.5" y="-7.5" font-family="Helvetica,sans-Serif" font-size="10.00"> </text>
</a>
</g>
</g>
<!-- Node1&#45;&gt;Node7 -->
<g id="edge6" class="edge"><title>Node1&#45;&gt;Node7</title>
<path fill="none" stroke="midnightblue" d="M315.806,-86.5246C323.736,-76.9249 332.2,-66.6789 339.714,-57.5836"/>
<polygon fill="none" stroke="midnightblue" points="312.973,-84.4582 309.303,-94.397 318.37,-88.9164 312.973,-84.4582"/>
</g>
<!-- Node8 -->
<g id="node8" class="node"><title>Node8</title>
<g id="a_node8"><a xlink:href="structscram_1_1xml_1_1XIncludeError.xhtml" target="_top" xlink:title="XInclude resolution issues. ">
<polygon fill="white" stroke="black" points="447,-0.5 447,-57.5 586,-57.5 586,-0.5 447,-0.5"/>
<text text-anchor="middle" x="516.5" y="-45.5" font-family="Helvetica,sans-Serif" font-size="10.00">scram::xml::XIncludeError</text>
<polyline fill="none" stroke="black" points="447,-38.5 586,-38.5 "/>
<text text-anchor="middle" x="516.5" y="-26.5" font-family="Helvetica,sans-Serif" font-size="10.00"> </text>
<polyline fill="none" stroke="black" points="447,-19.5 586,-19.5 "/>
<text text-anchor="middle" x="516.5" y="-7.5" font-family="Helvetica,sans-Serif" font-size="10.00"> </text>
</a>
</g>
</g>
<!-- Node1&#45;&gt;Node8 -->
<g id="edge7" class="edge"><title>Node1&#45;&gt;Node8</title>
<path fill="none" stroke="midnightblue" d="M345.521,-98.3918C376.593,-85.9629 414.876,-70.6494 447.335,-57.6659"/>
<polygon fill="none" stroke="midnightblue" points="344.108,-95.187 336.123,-102.151 346.708,-101.686 344.108,-95.187"/>
</g>
<!-- Node2 -->
<g id="node2" class="node"><title>Node2</title>
<g id="a_node2"><a xlink:href="classscram_1_1Error.xhtml" target="_top" xlink:title="The Error class is the base class for all exceptions specific to the SCRAM code. ">
<polygon fill="white" stroke="black" points="248.5,-188.5 248.5,-256.5 324.5,-256.5 324.5,-188.5 248.5,-188.5"/>
<text text-anchor="middle" x="286.5" y="-244.5" font-family="Helvetica,sans-Serif" font-size="10.00">scram::Error</text>
<polyline fill="none" stroke="black" points="248.5,-237.5 324.5,-237.5 "/>
<text text-anchor="middle" x="286.5" y="-225.5" font-family="Helvetica,sans-Serif" font-size="10.00"> </text>
<polyline fill="none" stroke="black" points="248.5,-218.5 324.5,-218.5 "/>
<text text-anchor="start" x="256.5" y="-206.5" font-family="Helvetica,sans-Serif" font-size="10.00">+ Error()</text>
<text text-anchor="start" x="256.5" y="-195.5" font-family="Helvetica,sans-Serif" font-size="10.00">+ what()</text>
</a>
</g>
</g>
<!-- Node2&#45;&gt;Node1 -->
<g id="edge1" class="edge"><title>Node2&#45;&gt;Node1</title>
<path fill="none" stroke="midnightblue" d="M286.5,-178.454C286.5,-169.404 286.5,-160.088 286.5,-151.777"/>
<polygon fill="none" stroke="midnightblue" points="283,-178.491 286.5,-188.491 290,-178.491 283,-178.491"/>
</g>
<!-- Node3 -->
<g id="node3" class="node"><title>Node3</title>
<polygon fill="white" stroke="#bfbfbf" points="190.5,-293.5 190.5,-350.5 274.5,-350.5 274.5,-293.5 190.5,-293.5"/>
<text text-anchor="middle" x="232.5" y="-338.5" font-family="Helvetica,sans-Serif" font-size="10.00">std::exception</text>
<polyline fill="none" stroke="#bfbfbf" points="190.5,-331.5 274.5,-331.5 "/>
<text text-anchor="middle" x="232.5" y="-319.5" font-family="Helvetica,sans-Serif" font-size="10.00"> </text>
<polyline fill="none" stroke="#bfbfbf" points="190.5,-312.5 274.5,-312.5 "/>
<text text-anchor="middle" x="232.5" y="-300.5" font-family="Helvetica,sans-Serif" font-size="10.00"> </text>
</g>
<!-- Node3&#45;&gt;Node2 -->
<g id="edge2" class="edge"><title>Node3&#45;&gt;Node2</title>
<path fill="none" stroke="midnightblue" d="M252.722,-284.488C257.755,-275.401 263.123,-265.708 268.065,-256.786"/>
<polygon fill="none" stroke="midnightblue" points="249.613,-282.878 247.83,-293.321 255.737,-286.269 249.613,-282.878"/>
</g>
<!-- Node4 -->
<g id="node4" class="node"><title>Node4</title>
<polygon fill="white" stroke="#bfbfbf" points="292.5,-293.5 292.5,-350.5 388.5,-350.5 388.5,-293.5 292.5,-293.5"/>
<text text-anchor="middle" x="340.5" y="-338.5" font-family="Helvetica,sans-Serif" font-size="10.00">boost::exception</text>
<polyline fill="none" stroke="#bfbfbf" points="292.5,-331.5 388.5,-331.5 "/>
<text text-anchor="middle" x="340.5" y="-319.5" font-family="Helvetica,sans-Serif" font-size="10.00"> </text>
<polyline fill="none" stroke="#bfbfbf" points="292.5,-312.5 388.5,-312.5 "/>
<text text-anchor="middle" x="340.5" y="-300.5" font-family="Helvetica,sans-Serif" font-size="10.00"> </text>
</g>
<!-- Node4&#45;&gt;Node2 -->
<g id="edge3" class="edge"><title>Node4&#45;&gt;Node2</title>
<path fill="none" stroke="midnightblue" d="M320.278,-284.488C315.245,-275.401 309.877,-265.708 304.935,-256.786"/>
<polygon fill="none" stroke="midnightblue" points="317.263,-286.269 325.17,-293.321 323.387,-282.878 317.263,-286.269"/>
</g>
</g>
</svg>
        <g id="navigator" transform="translate(0 0)" fill="#404254">
                <rect fill="#f2f5e9" fill-opacity="0.5" stroke="#606060" stroke-width=".5" x="0" y="0" width="60" height="60"/>
                <use id="zoomplus" xlink:href="#zoomPlus" x="17" y="9" onmousedown="handleZoom(evt,'in')"/>
                <use id="zoomminus" xlink:href="#zoomMin" x="42" y="9" onmousedown="handleZoom(evt,'out')"/>
                <use id="reset" xlink:href="#resetDef" x="30" y="36" onmousedown="handleReset()"/>
                <g id="arrowUp" xlink:href="#dirArrow" transform="translate(30 24)" onmousedown="handlePan(0,-1)">
                  <use xlink:href="#rim" fill="#404040">
                        <set attributeName="fill" to="#808080" begin="arrowUp.mouseover" end="arrowUp.mouseout"/>
                  </use>
                  <path fill="none" stroke="white" stroke-width="1.5" d="M0,-3.0v7 M-2.5,-0.5L0,-3.0L2.5,-0.5"/>
                </g>
                <g id="arrowRight" xlink:href="#dirArrow" transform="rotate(90) translate(36 -43)" onmousedown="handlePan(1,0)">
                  <use xlink:href="#rim" fill="#404040">
                        <set attributeName="fill" to="#808080" begin="arrowRight.mouseover" end="arrowRight.mouseout"/>
                  </use>
                  <path fill="none" stroke="white" stroke-width="1.5" d="M0,-3.0v7 M-2.5,-0.5L0,-3.0L2.5,-0.5"/>
                </g>
                <g id="arrowDown" xlink:href="#dirArrow" transform="rotate(180) translate(-30 -48)" onmousedown="handlePan(0,1)">
                  <use xlink:href="#rim" fill="#404040">
                        <set attributeName="fill" to="#808080" begin="arrowDown.mouseover" end="arrowDown.mouseout"/>
                  </use>
                  <path fill="none" stroke="white" stroke-width="1.5" d="M0,-3.0v7 M-2.5,-0.5L0,-3.0L2.5,-0.5"/>
                </g>
                <g id="arrowLeft" xlink:href="#dirArrow" transform="rotate(270) translate(-36 17)" onmousedown="handlePan(-1,0)">
                  <use xlink:href="#rim" fill="#404040">
                        <set attributeName="fill" to="#808080" begin="arrowLeft.mouseover" end="arrowLeft.mouseout"/>
                  </use>
                  <path fill="none" stroke="white" stroke-width="1.5" d="M0,-3.0v7 M-2.5,-0.5L0,-3.0L2.5,-0.5"/>
                </g>
        </g>
        <svg viewBox="0 0 15 15" width="100%" height="30px" preserveAspectRatio="xMaxYMin meet">
         <g id="arrow_out" transform="scale(0.3 0.3)">
          <a xlink:href="structscram_1_1xml_1_1Error__inherit__graph_org.svg" target="_base">
           <rect id="button" ry="5" rx="5" y="6" x="6" height="38" width="38"
                fill="#f2f5e9" fill-opacity="0.5" stroke="#606060" stroke-width="1.0"/>
           <path id="arrow"
             d="M 11.500037,31.436501 C 11.940474,20.09759 22.043105,11.32322 32.158766,21.979434 L 37.068811,17.246167 C 37.068811,17.246167 37.088388,32 37.088388,32 L 22.160133,31.978069 C 22.160133,31.978069 26.997745,27.140456 26.997745,27.140456 C 18.528582,18.264221 13.291696,25.230495 11.500037,31.436501 z"
             style="fill:#404040;"/>
          </a>
         </g>
        </svg>
</svg>
