<?xml version="1.0" encoding="UTF-8" standalone="no"?>
<!DOCTYPE svg PUBLIC "-//W3C//DTD SVG 1.1//EN"
 "http://www.w3.org/Graphics/SVG/1.1/DTD/svg11.dtd">
<!-- Generated by graphviz version 2.38.0 (20140413.2041)
 -->
<!-- Title: scram::mef::Initializer::Extractor&lt; T,&#45;1 &gt;::operator() Pages: 1 -->
<svg width="511pt" height="607pt"
 viewBox="0.00 0.00 511.00 607.00" xmlns="http://www.w3.org/2000/svg" xmlns:xlink="http://www.w3.org/1999/xlink">
<g id="graph0" class="graph" transform="scale(1 1) rotate(0) translate(4 603)">
<title>scram::mef::Initializer::Extractor&lt; T,&#45;1 &gt;::operator()</title>
<polygon fill="white" stroke="none" points="-4,4 -4,-603 507,-603 507,4 -4,4"/>
<!-- Node1 -->
<g id="node1" class="node"><title>Node1</title>
<polygon fill="#bfbfbf" stroke="black" points="0,-284.5 0,-314.5 161,-314.5 161,-284.5 0,-284.5"/>
<text text-anchor="start" x="8" y="-302.5" font-family="Helvetica,sans-Serif" font-size="10.00">scram::mef::Initializer</text>
<text text-anchor="middle" x="80.5" y="-291.5" font-family="Helvetica,sans-Serif" font-size="10.00">::Extractor&lt; T,&#45;1 &gt;::operator()</text>
</g>
<!-- Node2 -->
<g id="node2" class="node"><title>Node2</title>
<g id="a_node2"><a xlink:href="classscram_1_1mef_1_1CcfGroup.xhtml#a585735fdd3be1d19d39705dfb80bca37" target="_top" xlink:title="Adds a CCF factor for the specified model. ">
<polygon fill="white" stroke="black" points="212.5,-568.5 212.5,-598.5 334.5,-598.5 334.5,-568.5 212.5,-568.5"/>
<text text-anchor="start" x="220.5" y="-586.5" font-family="Helvetica,sans-Serif" font-size="10.00">scram::mef::CcfGroup</text>
<text text-anchor="middle" x="273.5" y="-575.5" font-family="Helvetica,sans-Serif" font-size="10.00">::AddFactor</text>
</a>
</g>
</g>
<!-- Node1&#45;&gt;Node2 -->
<g id="edge1" class="edge"><title>Node1&#45;&gt;Node2</title>
<path fill="none" stroke="midnightblue" d="M83.8082,-314.648C91.3741,-359.055 119.542,-490.144 197,-559.5 198.972,-561.266 201.075,-562.902 203.277,-564.418"/>
<polygon fill="midnightblue" stroke="midnightblue" points="201.81,-567.616 212.2,-569.689 205.37,-561.589 201.81,-567.616"/>
</g>
<!-- Node4 -->
<g id="node4" class="node"><title>Node4</title>
<g id="a_node4"><a xlink:href="classscram_1_1mef_1_1CcfGroup.xhtml#a9d6dbf5a3154a1537a806e7f3993c710" target="_top" xlink:title="Adds a basic event into this CCF group. ">
<polygon fill="white" stroke="black" points="212.5,-519.5 212.5,-549.5 334.5,-549.5 334.5,-519.5 212.5,-519.5"/>
<text text-anchor="start" x="220.5" y="-537.5" font-family="Helvetica,sans-Serif" font-size="10.00">scram::mef::CcfGroup</text>
<text text-anchor="middle" x="273.5" y="-526.5" font-family="Helvetica,sans-Serif" font-size="10.00">::AddMember</text>
</a>
</g>
</g>
<!-- Node1&#45;&gt;Node4 -->
<g id="edge3" class="edge"><title>Node1&#45;&gt;Node4</title>
<path fill="none" stroke="midnightblue" d="M85.4763,-314.525C96.4364,-353.013 130.751,-455.948 197,-510.5 198.997,-512.145 201.109,-513.677 203.307,-515.105"/>
<polygon fill="midnightblue" stroke="midnightblue" points="201.729,-518.234 212.157,-520.112 205.176,-512.141 201.729,-518.234"/>
</g>
<!-- Node5 -->
<g id="node5" class="node"><title>Node5</title>
<g id="a_node5"><a xlink:href="classscram_1_1mef_1_1ExternFunction_3_01void_01_4.xhtml#a7b918d60fa2969cbf5ecc758c6998de0" target="_top" xlink:title="Applies the function to arguments. ">
<polygon fill="white" stroke="black" points="199.5,-470.5 199.5,-500.5 347.5,-500.5 347.5,-470.5 199.5,-470.5"/>
<text text-anchor="start" x="207.5" y="-488.5" font-family="Helvetica,sans-Serif" font-size="10.00">scram::mef::ExternFunction</text>
<text text-anchor="middle" x="273.5" y="-477.5" font-family="Helvetica,sans-Serif" font-size="10.00">&lt; void &gt;::apply</text>
</a>
</g>
</g>
<!-- Node1&#45;&gt;Node5 -->
<g id="edge5" class="edge"><title>Node1&#45;&gt;Node5</title>
<path fill="none" stroke="midnightblue" d="M88.3128,-314.963C103.252,-347.099 142.001,-421.433 197,-461.5 198.897,-462.882 200.876,-464.186 202.919,-465.417"/>
<polygon fill="midnightblue" stroke="midnightblue" points="201.745,-468.756 212.218,-470.357 205.028,-462.574 201.745,-468.756"/>
</g>
<!-- Node6 -->
<g id="node6" class="node"><title>Node6</title>
<g id="a_node6"><a xlink:href="classscram_1_1xml_1_1Element.xhtml#a60d62e931d3865a3c76b4e1be95e1d11" target="_top" xlink:title="Retrieves the XML element&#39;s attribute values. ">
<polygon fill="white" stroke="black" points="215.5,-421.5 215.5,-451.5 331.5,-451.5 331.5,-421.5 215.5,-421.5"/>
<text text-anchor="start" x="223.5" y="-439.5" font-family="Helvetica,sans-Serif" font-size="10.00">scram::xml::Element</text>
<text text-anchor="middle" x="273.5" y="-428.5" font-family="Helvetica,sans-Serif" font-size="10.00">::attribute</text>
</a>
</g>
</g>
<!-- Node1&#45;&gt;Node6 -->
<g id="edge6" class="edge"><title>Node1&#45;&gt;Node6</title>
<path fill="none" stroke="midnightblue" d="M93.3397,-314.773C112.61,-338.656 153.049,-384.861 197,-411.5 200.422,-413.574 204.038,-415.499 207.758,-417.283"/>
<polygon fill="midnightblue" stroke="midnightblue" points="206.611,-420.602 217.174,-421.426 209.431,-414.195 206.611,-420.602"/>
</g>
<!-- Node7 -->
<g id="node7" class="node"><title>Node7</title>
<g id="a_node7"><a xlink:href="classscram_1_1mef_1_1Role.xhtml#ab91a51488ee8c4ed054de1e8450c8a59" target="_top" xlink:title="scram::mef::Role::base_path">
<polygon fill="white" stroke="black" points="197,-383 197,-402 350,-402 350,-383 197,-383"/>
<text text-anchor="middle" x="273.5" y="-390" font-family="Helvetica,sans-Serif" font-size="10.00">scram::mef::Role::base_path</text>
</a>
</g>
</g>
<!-- Node1&#45;&gt;Node7 -->
<g id="edge7" class="edge"><title>Node1&#45;&gt;Node7</title>
<path fill="none" stroke="midnightblue" d="M100.835,-314.689C122.923,-331.352 160.715,-357.808 197,-373.5 202.699,-375.965 208.784,-378.156 214.932,-380.094"/>
<polygon fill="midnightblue" stroke="midnightblue" points="214.02,-383.474 224.601,-382.932 215.992,-376.757 214.02,-383.474"/>
</g>
<!-- Node8 -->
<g id="node8" class="node"><title>Node8</title>
<g id="a_node8"><a xlink:href="classscram_1_1xml_1_1Element_1_1Range.xhtml#ae2f0368ee0072083b59665e30c1f4949" target="_top" xlink:title="The range begin and end iterators. ">
<polygon fill="white" stroke="black" points="215.5,-333.5 215.5,-363.5 331.5,-363.5 331.5,-333.5 215.5,-333.5"/>
<text text-anchor="start" x="223.5" y="-351.5" font-family="Helvetica,sans-Serif" font-size="10.00">scram::xml::Element</text>
<text text-anchor="middle" x="273.5" y="-340.5" font-family="Helvetica,sans-Serif" font-size="10.00">::Range::begin</text>
</a>
</g>
</g>
<!-- Node1&#45;&gt;Node8 -->
<g id="edge8" class="edge"><title>Node1&#45;&gt;Node8</title>
<path fill="none" stroke="midnightblue" d="M140.104,-314.535C160.742,-319.829 184.095,-325.82 205.38,-331.281"/>
<polygon fill="midnightblue" stroke="midnightblue" points="204.762,-334.735 215.318,-333.83 206.501,-327.955 204.762,-334.735"/>
</g>
<!-- Node9 -->
<g id="node9" class="node"><title>Node9</title>
<g id="a_node9"><a xlink:href="classscram_1_1xml_1_1Element.xhtml#ab164f33b4aa86b74b853b87126bc8ff8" target="_top" xlink:title="scram::xml::Element\l::child">
<polygon fill="white" stroke="black" points="215.5,-284.5 215.5,-314.5 331.5,-314.5 331.5,-284.5 215.5,-284.5"/>
<text text-anchor="start" x="223.5" y="-302.5" font-family="Helvetica,sans-Serif" font-size="10.00">scram::xml::Element</text>
<text text-anchor="middle" x="273.5" y="-291.5" font-family="Helvetica,sans-Serif" font-size="10.00">::child</text>
</a>
</g>
</g>
<!-- Node1&#45;&gt;Node9 -->
<g id="edge9" class="edge"><title>Node1&#45;&gt;Node9</title>
<path fill="none" stroke="midnightblue" d="M161.118,-299.5C175.78,-299.5 190.955,-299.5 205.209,-299.5"/>
<polygon fill="midnightblue" stroke="midnightblue" points="205.405,-303 215.405,-299.5 205.405,-296 205.405,-303"/>
</g>
<!-- Node10 -->
<g id="node10" class="node"><title>Node10</title>
<g id="a_node10"><a xlink:href="classscram_1_1xml_1_1Element.xhtml#a57646bebfb4ea93e00a11d2f7ef4fabf" target="_top" xlink:title="scram::xml::Element\l::children">
<polygon fill="white" stroke="black" points="215.5,-235.5 215.5,-265.5 331.5,-265.5 331.5,-235.5 215.5,-235.5"/>
<text text-anchor="start" x="223.5" y="-253.5" font-family="Helvetica,sans-Serif" font-size="10.00">scram::xml::Element</text>
<text text-anchor="middle" x="273.5" y="-242.5" font-family="Helvetica,sans-Serif" font-size="10.00">::children</text>
</a>
</g>
</g>
<!-- Node1&#45;&gt;Node10 -->
<g id="edge10" class="edge"><title>Node1&#45;&gt;Node10</title>
<path fill="none" stroke="midnightblue" d="M140.104,-284.465C160.742,-279.171 184.095,-273.18 205.38,-267.719"/>
<polygon fill="midnightblue" stroke="midnightblue" points="206.501,-271.045 215.318,-265.17 204.762,-264.265 206.501,-271.045"/>
</g>
<!-- Node11 -->
<g id="node11" class="node"><title>Node11</title>
<g id="a_node11"><a xlink:href="classscram_1_1xml_1_1Element.xhtml#a4a447a4146a0131bc1461762d55f6482" target="_top" xlink:title="scram::xml::Element\l::line">
<polygon fill="white" stroke="black" points="215.5,-186.5 215.5,-216.5 331.5,-216.5 331.5,-186.5 215.5,-186.5"/>
<text text-anchor="start" x="223.5" y="-204.5" font-family="Helvetica,sans-Serif" font-size="10.00">scram::xml::Element</text>
<text text-anchor="middle" x="273.5" y="-193.5" font-family="Helvetica,sans-Serif" font-size="10.00">::line</text>
</a>
</g>
</g>
<!-- Node1&#45;&gt;Node11 -->
<g id="edge11" class="edge"><title>Node1&#45;&gt;Node11</title>
<path fill="none" stroke="midnightblue" d="M101.903,-284.436C124.321,-268.412 161.831,-243.13 197,-226.5 201.716,-224.27 206.684,-222.154 211.728,-220.166"/>
<polygon fill="midnightblue" stroke="midnightblue" points="213.342,-223.299 221.473,-216.506 210.881,-216.745 213.342,-223.299"/>
</g>
<!-- Node12 -->
<g id="node12" class="node"><title>Node12</title>
<g id="a_node12"><a xlink:href="classscram_1_1xml_1_1Element.xhtml#a58abc717fb3ff89dcbd4f1cf392855e5" target="_top" xlink:title="scram::xml::Element\l::name">
<polygon fill="white" stroke="black" points="215.5,-137.5 215.5,-167.5 331.5,-167.5 331.5,-137.5 215.5,-137.5"/>
<text text-anchor="start" x="223.5" y="-155.5" font-family="Helvetica,sans-Serif" font-size="10.00">scram::xml::Element</text>
<text text-anchor="middle" x="273.5" y="-144.5" font-family="Helvetica,sans-Serif" font-size="10.00">::name</text>
</a>
</g>
</g>
<!-- Node1&#45;&gt;Node12 -->
<g id="edge12" class="edge"><title>Node1&#45;&gt;Node12</title>
<path fill="none" stroke="midnightblue" d="M91.8236,-284.476C110.127,-258.923 150.725,-206.917 197,-177.5 200.157,-175.493 203.492,-173.631 206.931,-171.905"/>
<polygon fill="midnightblue" stroke="midnightblue" points="208.591,-174.995 216.228,-167.651 205.678,-168.629 208.591,-174.995"/>
</g>
<!-- Node13 -->
<g id="node13" class="node"><title>Node13</title>
<g id="a_node13"><a xlink:href="classscram_1_1mef_1_1Role.xhtml#aa1843c29411c29b27d79414d34525bbc" target="_top" xlink:title="scram::mef::Role::role">
<polygon fill="white" stroke="black" points="213,-99 213,-118 334,-118 334,-99 213,-99"/>
<text text-anchor="middle" x="273.5" y="-106" font-family="Helvetica,sans-Serif" font-size="10.00">scram::mef::Role::role</text>
</a>
</g>
</g>
<!-- Node1&#45;&gt;Node13 -->
<g id="edge13" class="edge"><title>Node1&#45;&gt;Node13</title>
<path fill="none" stroke="midnightblue" d="M87.2784,-284.49C100.953,-251.029 138.596,-170.006 197,-128.5 200.419,-126.07 204.115,-123.935 207.97,-122.06"/>
<polygon fill="midnightblue" stroke="midnightblue" points="209.365,-125.27 217.2,-118.137 206.628,-118.827 209.365,-125.27"/>
</g>
<!-- Node14 -->
<g id="node14" class="node"><title>Node14</title>
<g id="a_node14"><a xlink:href="classscram_1_1xml_1_1Element_1_1Range.xhtml#a15c9f933f38716821303393ddcb6ef72" target="_top" xlink:title="scram::xml::Element\l::Range::size">
<polygon fill="white" stroke="black" points="215.5,-49.5 215.5,-79.5 331.5,-79.5 331.5,-49.5 215.5,-49.5"/>
<text text-anchor="start" x="223.5" y="-67.5" font-family="Helvetica,sans-Serif" font-size="10.00">scram::xml::Element</text>
<text text-anchor="middle" x="273.5" y="-56.5" font-family="Helvetica,sans-Serif" font-size="10.00">::Range::size</text>
</a>
</g>
</g>
<!-- Node1&#45;&gt;Node14 -->
<g id="edge14" class="edge"><title>Node1&#45;&gt;Node14</title>
<path fill="none" stroke="midnightblue" d="M85.6178,-284.312C96.8077,-245.897 131.424,-144.049 197,-89.5 199.876,-87.1076 202.989,-84.9416 206.256,-82.9808"/>
<polygon fill="midnightblue" stroke="midnightblue" points="208,-86.0184 215.21,-78.2555 204.732,-79.8276 208,-86.0184"/>
</g>
<!-- Node15 -->
<g id="node15" class="node"><title>Node15</title>
<g id="a_node15"><a xlink:href="classscram_1_1mef_1_1Usage.xhtml#ae2ee222f7ce6cd4660567ce97d551222" target="_top" xlink:title="scram::mef::Usage::\lusage">
<polygon fill="white" stroke="black" points="216.5,-0.5 216.5,-30.5 330.5,-30.5 330.5,-0.5 216.5,-0.5"/>
<text text-anchor="start" x="224.5" y="-18.5" font-family="Helvetica,sans-Serif" font-size="10.00">scram::mef::Usage::</text>
<text text-anchor="middle" x="273.5" y="-7.5" font-family="Helvetica,sans-Serif" font-size="10.00">usage</text>
</a>
</g>
</g>
<!-- Node1&#45;&gt;Node15 -->
<g id="edge15" class="edge"><title>Node1&#45;&gt;Node15</title>
<path fill="none" stroke="midnightblue" d="M83.8665,-284.453C91.5926,-240.334 120.156,-110.039 197,-40.5 200.167,-37.6337 203.672,-35.0951 207.386,-32.8468"/>
<polygon fill="midnightblue" stroke="midnightblue" points="209.157,-35.8696 216.371,-28.1102 205.893,-29.6773 209.157,-35.8696"/>
</g>
<!-- Node3 -->
<g id="node3" class="node"><title>Node3</title>
<g id="a_node3"><a xlink:href="classscram_1_1mef_1_1Element.xhtml#adb401e2ca84aa98cb60797bec2500a81" target="_top" xlink:title="scram::mef::Element\l::name">
<polygon fill="white" stroke="black" points="386,-543.5 386,-573.5 503,-573.5 503,-543.5 386,-543.5"/>
<text text-anchor="start" x="394" y="-561.5" font-family="Helvetica,sans-Serif" font-size="10.00">scram::mef::Element</text>
<text text-anchor="middle" x="444.5" y="-550.5" font-family="Helvetica,sans-Serif" font-size="10.00">::name</text>
</a>
</g>
</g>
<!-- Node2&#45;&gt;Node3 -->
<g id="edge2" class="edge"><title>Node2&#45;&gt;Node3</title>
<path fill="none" stroke="midnightblue" d="M334.559,-574.616C347.865,-572.647 362.056,-570.548 375.648,-568.537"/>
<polygon fill="midnightblue" stroke="midnightblue" points="376.521,-571.946 385.901,-567.021 375.496,-565.022 376.521,-571.946"/>
</g>
<!-- Node4&#45;&gt;Node3 -->
<g id="edge4" class="edge"><title>Node4&#45;&gt;Node3</title>
<path fill="none" stroke="midnightblue" d="M334.559,-543.029C347.865,-544.919 362.056,-546.934 375.648,-548.864"/>
<polygon fill="midnightblue" stroke="midnightblue" points="375.508,-552.379 385.901,-550.32 376.492,-545.449 375.508,-552.379"/>
</g>
</g>
</svg>
