<?xml version="1.0" encoding="UTF-8" standalone="no"?>
<!DOCTYPE svg PUBLIC "-//W3C//DTD SVG 1.1//EN"
 "http://www.w3.org/Graphics/SVG/1.1/DTD/svg11.dtd">
<!-- Generated by graphviz version 2.38.0 (20140413.2041)
 -->
<!-- Title: scram::LogicError Pages: 1 -->
<svg width="206pt" height="265pt"
 viewBox="0.00 0.00 206.00 265.00" xmlns="http://www.w3.org/2000/svg" xmlns:xlink="http://www.w3.org/1999/xlink">
<g id="graph0" class="graph" transform="scale(1 1) rotate(0) translate(4 261)">
<title>scram::LogicError</title>
<polygon fill="white" stroke="none" points="-4,4 -4,-261 202,-261 202,4 -4,4"/>
<!-- Node1 -->
<g id="node1" class="node"><title>Node1</title>
<polygon fill="#bfbfbf" stroke="black" points="45.5,-0.5 45.5,-57.5 146.5,-57.5 146.5,-0.5 45.5,-0.5"/>
<text text-anchor="middle" x="96" y="-45.5" font-family="Helvetica,sans-Serif" font-size="10.00">scram::LogicError</text>
<polyline fill="none" stroke="black" points="45.5,-38.5 146.5,-38.5 "/>
<text text-anchor="middle" x="96" y="-26.5" font-family="Helvetica,sans-Serif" font-size="10.00"> </text>
<polyline fill="none" stroke="black" points="45.5,-19.5 146.5,-19.5 "/>
<text text-anchor="middle" x="96" y="-7.5" font-family="Helvetica,sans-Serif" font-size="10.00"> </text>
</g>
<!-- Node2 -->
<g id="node2" class="node"><title>Node2</title>
<g id="a_node2"><a xlink:href="classscram_1_1Error.xhtml" target="_top" xlink:title="The Error class is the base class for all exceptions specific to the SCRAM code. ">
<polygon fill="white" stroke="black" points="58,-94.5 58,-162.5 134,-162.5 134,-94.5 58,-94.5"/>
<text text-anchor="middle" x="96" y="-150.5" font-family="Helvetica,sans-Serif" font-size="10.00">scram::Error</text>
<polyline fill="none" stroke="black" points="58,-143.5 134,-143.5 "/>
<text text-anchor="middle" x="96" y="-131.5" font-family="Helvetica,sans-Serif" font-size="10.00"> </text>
<polyline fill="none" stroke="black" points="58,-124.5 134,-124.5 "/>
<text text-anchor="start" x="66" y="-112.5" font-family="Helvetica,sans-Serif" font-size="10.00">+ Error()</text>
<text text-anchor="start" x="66" y="-101.5" font-family="Helvetica,sans-Serif" font-size="10.00">+ what()</text>
</a>
</g>
</g>
<!-- Node2&#45;&gt;Node1 -->
<g id="edge1" class="edge"><title>Node2&#45;&gt;Node1</title>
<path fill="none" stroke="midnightblue" d="M96,-84.4538C96,-75.4036 96,-66.0876 96,-57.7765"/>
<polygon fill="none" stroke="midnightblue" points="92.5001,-84.4909 96,-94.4909 99.5001,-84.491 92.5001,-84.4909"/>
</g>
<!-- Node3 -->
<g id="node3" class="node"><title>Node3</title>
<polygon fill="white" stroke="#bfbfbf" points="0,-199.5 0,-256.5 84,-256.5 84,-199.5 0,-199.5"/>
<text text-anchor="middle" x="42" y="-244.5" font-family="Helvetica,sans-Serif" font-size="10.00">std::exception</text>
<polyline fill="none" stroke="#bfbfbf" points="0,-237.5 84,-237.5 "/>
<text text-anchor="middle" x="42" y="-225.5" font-family="Helvetica,sans-Serif" font-size="10.00"> </text>
<polyline fill="none" stroke="#bfbfbf" points="0,-218.5 84,-218.5 "/>
<text text-anchor="middle" x="42" y="-206.5" font-family="Helvetica,sans-Serif" font-size="10.00"> </text>
</g>
<!-- Node3&#45;&gt;Node2 -->
<g id="edge2" class="edge"><title>Node3&#45;&gt;Node2</title>
<path fill="none" stroke="midnightblue" d="M62.2222,-190.488C67.2549,-181.401 72.6234,-171.708 77.5649,-162.786"/>
<polygon fill="none" stroke="midnightblue" points="59.1131,-188.878 57.3298,-199.321 65.2366,-192.269 59.1131,-188.878"/>
</g>
<!-- Node4 -->
<g id="node4" class="node"><title>Node4</title>
<polygon fill="white" stroke="#bfbfbf" points="102,-199.5 102,-256.5 198,-256.5 198,-199.5 102,-199.5"/>
<text text-anchor="middle" x="150" y="-244.5" font-family="Helvetica,sans-Serif" font-size="10.00">boost::exception</text>
<polyline fill="none" stroke="#bfbfbf" points="102,-237.5 198,-237.5 "/>
<text text-anchor="middle" x="150" y="-225.5" font-family="Helvetica,sans-Serif" font-size="10.00"> </text>
<polyline fill="none" stroke="#bfbfbf" points="102,-218.5 198,-218.5 "/>
<text text-anchor="middle" x="150" y="-206.5" font-family="Helvetica,sans-Serif" font-size="10.00"> </text>
</g>
<!-- Node4&#45;&gt;Node2 -->
<g id="edge3" class="edge"><title>Node4&#45;&gt;Node2</title>
<path fill="none" stroke="midnightblue" d="M129.778,-190.488C124.745,-181.401 119.377,-171.708 114.435,-162.786"/>
<polygon fill="none" stroke="midnightblue" points="126.763,-192.269 134.67,-199.321 132.887,-188.878 126.763,-192.269"/>
</g>
</g>
</svg>
