<?xml version="1.0" encoding="UTF-8" standalone="no"?>
<!DOCTYPE svg PUBLIC "-//W3C//DTD SVG 1.1//EN"
 "http://www.w3.org/Graphics/SVG/1.1/DTD/svg11.dtd">
<!-- Generated by graphviz version 2.38.0 (20140413.2041)
 -->
<!-- Title: scram::core::IntrusivePtrCast&lt; T, W &gt; Pages: 1 -->
<svg width="469pt" height="1007pt"
 viewBox="0.00 0.00 469.00 1007.00" xmlns="http://www.w3.org/2000/svg" xmlns:xlink="http://www.w3.org/1999/xlink">
<g id="graph0" class="graph" transform="scale(1 1) rotate(0) translate(4 1003)">
<title>scram::core::IntrusivePtrCast&lt; T, W &gt;</title>
<polygon fill="white" stroke="none" points="-4,4 -4,-1003 465,-1003 465,4 -4,4"/>
<!-- Node1 -->
<g id="node1" class="node"><title>Node1</title>
<polygon fill="#bfbfbf" stroke="black" points="170,-897.5 170,-998.5 304,-998.5 304,-897.5 170,-897.5"/>
<text text-anchor="start" x="178" y="-986.5" font-family="Helvetica,sans-Serif" font-size="10.00">scram::core::IntrusivePtr</text>
<text text-anchor="middle" x="237" y="-975.5" font-family="Helvetica,sans-Serif" font-size="10.00">Cast&lt; T, W &gt;</text>
<polyline fill="none" stroke="black" points="170,-968.5 304,-968.5 "/>
<text text-anchor="middle" x="237" y="-956.5" font-family="Helvetica,sans-Serif" font-size="10.00"> </text>
<polyline fill="none" stroke="black" points="170,-949.5 304,-949.5 "/>
<text text-anchor="start" x="178" y="-937.5" font-family="Helvetica,sans-Serif" font-size="10.00">+ Ptr()</text>
<text text-anchor="start" x="178" y="-926.5" font-family="Helvetica,sans-Serif" font-size="10.00">+ Ref()</text>
<text text-anchor="start" x="178" y="-915.5" font-family="Helvetica,sans-Serif" font-size="10.00">* Ptr()</text>
<text text-anchor="start" x="178" y="-904.5" font-family="Helvetica,sans-Serif" font-size="10.00">* Ref()</text>
</g>
<!-- Node2 -->
<g id="node2" class="node"><title>Node2</title>
<g id="a_node2"><a xlink:href="structscram_1_1core_1_1IntrusivePtrCast.xhtml" target="_top" xlink:title="{scram::core::IntrusivePtr\lCast\&lt; Ite \&gt;\n||+ Ptr()\l+ Ref()\l* Ptr()\l* Ref()\l}">
<polygon fill="white" stroke="black" points="0,-628.5 0,-729.5 134,-729.5 134,-628.5 0,-628.5"/>
<text text-anchor="start" x="8" y="-717.5" font-family="Helvetica,sans-Serif" font-size="10.00">scram::core::IntrusivePtr</text>
<text text-anchor="middle" x="67" y="-706.5" font-family="Helvetica,sans-Serif" font-size="10.00">Cast&lt; Ite &gt;</text>
<polyline fill="none" stroke="black" points="0,-699.5 134,-699.5 "/>
<text text-anchor="middle" x="67" y="-687.5" font-family="Helvetica,sans-Serif" font-size="10.00"> </text>
<polyline fill="none" stroke="black" points="0,-680.5 134,-680.5 "/>
<text text-anchor="start" x="8" y="-668.5" font-family="Helvetica,sans-Serif" font-size="10.00">+ Ptr()</text>
<text text-anchor="start" x="8" y="-657.5" font-family="Helvetica,sans-Serif" font-size="10.00">+ Ref()</text>
<text text-anchor="start" x="8" y="-646.5" font-family="Helvetica,sans-Serif" font-size="10.00">* Ptr()</text>
<text text-anchor="start" x="8" y="-635.5" font-family="Helvetica,sans-Serif" font-size="10.00">* Ref()</text>
</a>
</g>
</g>
<!-- Node1&#45;&gt;Node2 -->
<g id="edge1" class="edge"><title>Node1&#45;&gt;Node2</title>
<path fill="none" stroke="orange" d="M161.275,-907.76C138.708,-892.583 116.018,-873.21 101,-850 77.7811,-814.117 69.8596,-765.737 67.4089,-729.763"/>
<polygon fill="orange" stroke="orange" points="159.61,-910.853 169.901,-913.371 163.426,-904.985 159.61,-910.853"/>
<text text-anchor="middle" x="143" y="-871" font-family="Helvetica,sans-Serif" font-size="10.00"> &lt; Ite &gt;</text>
</g>
<!-- Node5 -->
<g id="node5" class="node"><title>Node5</title>
<g id="a_node5"><a xlink:href="structscram_1_1core_1_1IntrusivePtrCast.xhtml" target="_top" xlink:title="{scram::core::IntrusivePtr\lCast\&lt; T \&gt;\n||+ Ptr()\l+ Ref()\l* Ptr()\l* Ref()\l}">
<polygon fill="white" stroke="black" points="110,-748.5 110,-849.5 244,-849.5 244,-748.5 110,-748.5"/>
<text text-anchor="start" x="118" y="-837.5" font-family="Helvetica,sans-Serif" font-size="10.00">scram::core::IntrusivePtr</text>
<text text-anchor="middle" x="177" y="-826.5" font-family="Helvetica,sans-Serif" font-size="10.00">Cast&lt; T &gt;</text>
<polyline fill="none" stroke="black" points="110,-819.5 244,-819.5 "/>
<text text-anchor="middle" x="177" y="-807.5" font-family="Helvetica,sans-Serif" font-size="10.00"> </text>
<polyline fill="none" stroke="black" points="110,-800.5 244,-800.5 "/>
<text text-anchor="start" x="118" y="-788.5" font-family="Helvetica,sans-Serif" font-size="10.00">+ Ptr()</text>
<text text-anchor="start" x="118" y="-777.5" font-family="Helvetica,sans-Serif" font-size="10.00">+ Ref()</text>
<text text-anchor="start" x="118" y="-766.5" font-family="Helvetica,sans-Serif" font-size="10.00">* Ptr()</text>
<text text-anchor="start" x="118" y="-755.5" font-family="Helvetica,sans-Serif" font-size="10.00">* Ref()</text>
</a>
</g>
</g>
<!-- Node1&#45;&gt;Node5 -->
<g id="edge4" class="edge"><title>Node1&#45;&gt;Node5</title>
<path fill="none" stroke="orange" d="M212.807,-887.728C207.66,-875.118 202.276,-861.926 197.292,-849.716"/>
<polygon fill="orange" stroke="orange" points="209.667,-889.297 216.687,-897.233 216.148,-886.651 209.667,-889.297"/>
<text text-anchor="middle" x="224.5" y="-871" font-family="Helvetica,sans-Serif" font-size="10.00"> &lt; T &gt;</text>
</g>
<!-- Node9 -->
<g id="node9" class="node"><title>Node9</title>
<g id="a_node9"><a xlink:href="structscram_1_1core_1_1IntrusivePtrCast.xhtml" target="_top" xlink:title="{scram::core::IntrusivePtr\lCast\&lt; SetNode \&gt;\n||+ Ptr()\l+ Ref()\l* Ptr()\l* Ref()\l}">
<polygon fill="white" stroke="black" points="210,-628.5 210,-729.5 344,-729.5 344,-628.5 210,-628.5"/>
<text text-anchor="start" x="218" y="-717.5" font-family="Helvetica,sans-Serif" font-size="10.00">scram::core::IntrusivePtr</text>
<text text-anchor="middle" x="277" y="-706.5" font-family="Helvetica,sans-Serif" font-size="10.00">Cast&lt; SetNode &gt;</text>
<polyline fill="none" stroke="black" points="210,-699.5 344,-699.5 "/>
<text text-anchor="middle" x="277" y="-687.5" font-family="Helvetica,sans-Serif" font-size="10.00"> </text>
<polyline fill="none" stroke="black" points="210,-680.5 344,-680.5 "/>
<text text-anchor="start" x="218" y="-668.5" font-family="Helvetica,sans-Serif" font-size="10.00">+ Ptr()</text>
<text text-anchor="start" x="218" y="-657.5" font-family="Helvetica,sans-Serif" font-size="10.00">+ Ref()</text>
<text text-anchor="start" x="218" y="-646.5" font-family="Helvetica,sans-Serif" font-size="10.00">* Ptr()</text>
<text text-anchor="start" x="218" y="-635.5" font-family="Helvetica,sans-Serif" font-size="10.00">* Ref()</text>
</a>
</g>
</g>
<!-- Node1&#45;&gt;Node9 -->
<g id="edge9" class="edge"><title>Node1&#45;&gt;Node9</title>
<path fill="none" stroke="orange" d="M247.11,-887.06C249.114,-874.808 251.164,-861.995 253,-850 259.2,-809.488 265.664,-763.452 270.319,-729.513"/>
<polygon fill="orange" stroke="orange" points="243.614,-886.755 245.444,-897.19 250.521,-887.891 243.614,-886.755"/>
<text text-anchor="middle" x="285" y="-871" font-family="Helvetica,sans-Serif" font-size="10.00"> &lt; SetNode &gt;</text>
</g>
<!-- Node10 -->
<g id="node10" class="node"><title>Node10</title>
<g id="a_node10"><a xlink:href="structscram_1_1core_1_1IntrusivePtrCast.xhtml" target="_top" xlink:title="{scram::core::IntrusivePtr\lCast\&lt; T, Terminal\&lt; T \&gt; \&gt;\n||+ Ptr()\l+ Ref()\l* Ptr()\l* Ref()\l}">
<polygon fill="white" stroke="black" points="312,-748.5 312,-849.5 452,-849.5 452,-748.5 312,-748.5"/>
<text text-anchor="start" x="320" y="-837.5" font-family="Helvetica,sans-Serif" font-size="10.00">scram::core::IntrusivePtr</text>
<text text-anchor="middle" x="382" y="-826.5" font-family="Helvetica,sans-Serif" font-size="10.00">Cast&lt; T, Terminal&lt; T &gt; &gt;</text>
<polyline fill="none" stroke="black" points="312,-819.5 452,-819.5 "/>
<text text-anchor="middle" x="382" y="-807.5" font-family="Helvetica,sans-Serif" font-size="10.00"> </text>
<polyline fill="none" stroke="black" points="312,-800.5 452,-800.5 "/>
<text text-anchor="start" x="320" y="-788.5" font-family="Helvetica,sans-Serif" font-size="10.00">+ Ptr()</text>
<text text-anchor="start" x="320" y="-777.5" font-family="Helvetica,sans-Serif" font-size="10.00">+ Ref()</text>
<text text-anchor="start" x="320" y="-766.5" font-family="Helvetica,sans-Serif" font-size="10.00">* Ptr()</text>
<text text-anchor="start" x="320" y="-755.5" font-family="Helvetica,sans-Serif" font-size="10.00">* Ref()</text>
</a>
</g>
</g>
<!-- Node1&#45;&gt;Node10 -->
<g id="edge11" class="edge"><title>Node1&#45;&gt;Node10</title>
<path fill="none" stroke="orange" d="M312.573,-909.513C325.51,-900.761 337.987,-890.561 348,-879 355.43,-870.422 361.444,-859.975 366.23,-849.524"/>
<polygon fill="orange" stroke="orange" points="310.513,-906.678 304.026,-915.055 314.321,-912.551 310.513,-906.678"/>
<text text-anchor="middle" x="408.5" y="-871" font-family="Helvetica,sans-Serif" font-size="10.00"> &lt; T, Terminal&lt; T &gt; &gt;</text>
</g>
<!-- Node3 -->
<g id="node3" class="node"><title>Node3</title>
<g id="a_node3"><a xlink:href="classscram_1_1core_1_1NonTerminal.xhtml" target="_top" xlink:title="{scram::core::NonTerminal\l\&lt; Ite \&gt;\n||+ NonTerminal()\l+ index()\l+ order()\l+ module()\l+ module()\l+ coherent()\l+ coherent()\l+ high()\l+ low()\l+ mark()\l+ mark()\l# ~NonTerminal()\l* get_high_id\l* get_low_id\l}">
<polygon fill="white" stroke="black" points="21.5,-150.5 21.5,-361.5 160.5,-361.5 160.5,-150.5 21.5,-150.5"/>
<text text-anchor="start" x="29.5" y="-349.5" font-family="Helvetica,sans-Serif" font-size="10.00">scram::core::NonTerminal</text>
<text text-anchor="middle" x="91" y="-338.5" font-family="Helvetica,sans-Serif" font-size="10.00">&lt; Ite &gt;</text>
<polyline fill="none" stroke="black" points="21.5,-331.5 160.5,-331.5 "/>
<text text-anchor="middle" x="91" y="-319.5" font-family="Helvetica,sans-Serif" font-size="10.00"> </text>
<polyline fill="none" stroke="black" points="21.5,-312.5 160.5,-312.5 "/>
<text text-anchor="start" x="29.5" y="-300.5" font-family="Helvetica,sans-Serif" font-size="10.00">+ NonTerminal()</text>
<text text-anchor="start" x="29.5" y="-289.5" font-family="Helvetica,sans-Serif" font-size="10.00">+ index()</text>
<text text-anchor="start" x="29.5" y="-278.5" font-family="Helvetica,sans-Serif" font-size="10.00">+ order()</text>
<text text-anchor="start" x="29.5" y="-267.5" font-family="Helvetica,sans-Serif" font-size="10.00">+ module()</text>
<text text-anchor="start" x="29.5" y="-256.5" font-family="Helvetica,sans-Serif" font-size="10.00">+ module()</text>
<text text-anchor="start" x="29.5" y="-245.5" font-family="Helvetica,sans-Serif" font-size="10.00">+ coherent()</text>
<text text-anchor="start" x="29.5" y="-234.5" font-family="Helvetica,sans-Serif" font-size="10.00">+ coherent()</text>
<text text-anchor="start" x="29.5" y="-223.5" font-family="Helvetica,sans-Serif" font-size="10.00">+ high()</text>
<text text-anchor="start" x="29.5" y="-212.5" font-family="Helvetica,sans-Serif" font-size="10.00">+ low()</text>
<text text-anchor="start" x="29.5" y="-201.5" font-family="Helvetica,sans-Serif" font-size="10.00">+ mark()</text>
<text text-anchor="start" x="29.5" y="-190.5" font-family="Helvetica,sans-Serif" font-size="10.00">+ mark()</text>
<text text-anchor="start" x="29.5" y="-179.5" font-family="Helvetica,sans-Serif" font-size="10.00"># ~NonTerminal()</text>
<text text-anchor="start" x="29.5" y="-168.5" font-family="Helvetica,sans-Serif" font-size="10.00">* get_high_id</text>
<text text-anchor="start" x="29.5" y="-157.5" font-family="Helvetica,sans-Serif" font-size="10.00">* get_low_id</text>
</a>
</g>
</g>
<!-- Node2&#45;&gt;Node3 -->
<g id="edge2" class="edge"><title>Node2&#45;&gt;Node3</title>
<path fill="none" stroke="midnightblue" d="M69.8757,-618.231C72.5547,-563.71 76.7626,-480.926 81,-409 81.9021,-393.688 82.9087,-377.512 83.9263,-361.649"/>
<polygon fill="none" stroke="midnightblue" points="66.3706,-618.25 69.3771,-628.41 73.3622,-618.593 66.3706,-618.25"/>
</g>
<!-- Node4 -->
<g id="node4" class="node"><title>Node4</title>
<g id="a_node4"><a xlink:href="classscram_1_1core_1_1Ite.xhtml" target="_top" xlink:title="Representation of non&#45;terminal if&#45;then&#45;else vertices in BDD graphs. ">
<polygon fill="white" stroke="black" points="28.5,-0.5 28.5,-112.5 153.5,-112.5 153.5,-0.5 28.5,-0.5"/>
<text text-anchor="middle" x="91" y="-100.5" font-family="Helvetica,sans-Serif" font-size="10.00">scram::core::Ite</text>
<polyline fill="none" stroke="black" points="28.5,-93.5 153.5,-93.5 "/>
<text text-anchor="middle" x="91" y="-81.5" font-family="Helvetica,sans-Serif" font-size="10.00"> </text>
<polyline fill="none" stroke="black" points="28.5,-74.5 153.5,-74.5 "/>
<text text-anchor="start" x="36.5" y="-62.5" font-family="Helvetica,sans-Serif" font-size="10.00">+ complement_edge()</text>
<text text-anchor="start" x="36.5" y="-51.5" font-family="Helvetica,sans-Serif" font-size="10.00">+ complement_edge()</text>
<text text-anchor="start" x="36.5" y="-40.5" font-family="Helvetica,sans-Serif" font-size="10.00">+ p()</text>
<text text-anchor="start" x="36.5" y="-29.5" font-family="Helvetica,sans-Serif" font-size="10.00">+ p()</text>
<text text-anchor="start" x="36.5" y="-18.5" font-family="Helvetica,sans-Serif" font-size="10.00">+ factor()</text>
<text text-anchor="start" x="36.5" y="-7.5" font-family="Helvetica,sans-Serif" font-size="10.00">+ factor()</text>
</a>
</g>
</g>
<!-- Node3&#45;&gt;Node4 -->
<g id="edge3" class="edge"><title>Node3&#45;&gt;Node4</title>
<path fill="none" stroke="midnightblue" d="M91,-140.419C91,-130.833 91,-121.451 91,-112.648"/>
<polygon fill="none" stroke="midnightblue" points="87.5001,-140.467 91,-150.467 94.5001,-140.467 87.5001,-140.467"/>
</g>
<!-- Node6 -->
<g id="node6" class="node"><title>Node6</title>
<g id="a_node6"><a xlink:href="classscram_1_1core_1_1NonTerminal.xhtml" target="_top" xlink:title="Representation of non&#45;terminal vertices in BDD graphs. ">
<polygon fill="white" stroke="black" points="90.5,-409.5 90.5,-609.5 257.5,-609.5 257.5,-409.5 90.5,-409.5"/>
<text text-anchor="middle" x="174" y="-597.5" font-family="Helvetica,sans-Serif" font-size="10.00">scram::core::NonTerminal&lt; T &gt;</text>
<polyline fill="none" stroke="black" points="90.5,-590.5 257.5,-590.5 "/>
<text text-anchor="middle" x="174" y="-578.5" font-family="Helvetica,sans-Serif" font-size="10.00"> </text>
<polyline fill="none" stroke="black" points="90.5,-571.5 257.5,-571.5 "/>
<text text-anchor="start" x="98.5" y="-559.5" font-family="Helvetica,sans-Serif" font-size="10.00">+ NonTerminal()</text>
<text text-anchor="start" x="98.5" y="-548.5" font-family="Helvetica,sans-Serif" font-size="10.00">+ index()</text>
<text text-anchor="start" x="98.5" y="-537.5" font-family="Helvetica,sans-Serif" font-size="10.00">+ order()</text>
<text text-anchor="start" x="98.5" y="-526.5" font-family="Helvetica,sans-Serif" font-size="10.00">+ module()</text>
<text text-anchor="start" x="98.5" y="-515.5" font-family="Helvetica,sans-Serif" font-size="10.00">+ module()</text>
<text text-anchor="start" x="98.5" y="-504.5" font-family="Helvetica,sans-Serif" font-size="10.00">+ coherent()</text>
<text text-anchor="start" x="98.5" y="-493.5" font-family="Helvetica,sans-Serif" font-size="10.00">+ coherent()</text>
<text text-anchor="start" x="98.5" y="-482.5" font-family="Helvetica,sans-Serif" font-size="10.00">+ high()</text>
<text text-anchor="start" x="98.5" y="-471.5" font-family="Helvetica,sans-Serif" font-size="10.00">+ low()</text>
<text text-anchor="start" x="98.5" y="-460.5" font-family="Helvetica,sans-Serif" font-size="10.00">+ mark()</text>
<text text-anchor="start" x="98.5" y="-449.5" font-family="Helvetica,sans-Serif" font-size="10.00">+ mark()</text>
<text text-anchor="start" x="98.5" y="-438.5" font-family="Helvetica,sans-Serif" font-size="10.00"># ~NonTerminal()</text>
<text text-anchor="start" x="98.5" y="-427.5" font-family="Helvetica,sans-Serif" font-size="10.00">* get_high_id</text>
<text text-anchor="start" x="98.5" y="-416.5" font-family="Helvetica,sans-Serif" font-size="10.00">* get_low_id</text>
</a>
</g>
</g>
<!-- Node5&#45;&gt;Node6 -->
<g id="edge5" class="edge"><title>Node5&#45;&gt;Node6</title>
<path fill="none" stroke="midnightblue" d="M176.375,-738.097C175.988,-700.97 175.48,-652.372 175.034,-609.62"/>
<polygon fill="none" stroke="midnightblue" points="172.877,-738.287 176.481,-748.25 179.876,-738.214 172.877,-738.287"/>
</g>
<!-- Node6&#45;&gt;Node3 -->
<g id="edge6" class="edge"><title>Node6&#45;&gt;Node3</title>
<path fill="none" stroke="orange" d="M131.004,-399.847C129.975,-396.873 128.972,-393.92 128,-391 124.837,-381.497 121.728,-371.553 118.737,-361.562"/>
<polygon fill="orange" stroke="orange" points="127.746,-401.131 134.369,-409.401 134.348,-398.806 127.746,-401.131"/>
<text text-anchor="middle" x="147" y="-383" font-family="Helvetica,sans-Serif" font-size="10.00"> &lt; Ite &gt;</text>
</g>
<!-- Node7 -->
<g id="node7" class="node"><title>Node7</title>
<g id="a_node7"><a xlink:href="classscram_1_1core_1_1NonTerminal.xhtml" target="_top" xlink:title="{scram::core::NonTerminal\l\&lt; SetNode \&gt;\n||+ NonTerminal()\l+ index()\l+ order()\l+ module()\l+ module()\l+ coherent()\l+ coherent()\l+ high()\l+ low()\l+ mark()\l+ mark()\l# ~NonTerminal()\l* get_high_id\l* get_low_id\l}">
<polygon fill="white" stroke="black" points="196.5,-150.5 196.5,-361.5 335.5,-361.5 335.5,-150.5 196.5,-150.5"/>
<text text-anchor="start" x="204.5" y="-349.5" font-family="Helvetica,sans-Serif" font-size="10.00">scram::core::NonTerminal</text>
<text text-anchor="middle" x="266" y="-338.5" font-family="Helvetica,sans-Serif" font-size="10.00">&lt; SetNode &gt;</text>
<polyline fill="none" stroke="black" points="196.5,-331.5 335.5,-331.5 "/>
<text text-anchor="middle" x="266" y="-319.5" font-family="Helvetica,sans-Serif" font-size="10.00"> </text>
<polyline fill="none" stroke="black" points="196.5,-312.5 335.5,-312.5 "/>
<text text-anchor="start" x="204.5" y="-300.5" font-family="Helvetica,sans-Serif" font-size="10.00">+ NonTerminal()</text>
<text text-anchor="start" x="204.5" y="-289.5" font-family="Helvetica,sans-Serif" font-size="10.00">+ index()</text>
<text text-anchor="start" x="204.5" y="-278.5" font-family="Helvetica,sans-Serif" font-size="10.00">+ order()</text>
<text text-anchor="start" x="204.5" y="-267.5" font-family="Helvetica,sans-Serif" font-size="10.00">+ module()</text>
<text text-anchor="start" x="204.5" y="-256.5" font-family="Helvetica,sans-Serif" font-size="10.00">+ module()</text>
<text text-anchor="start" x="204.5" y="-245.5" font-family="Helvetica,sans-Serif" font-size="10.00">+ coherent()</text>
<text text-anchor="start" x="204.5" y="-234.5" font-family="Helvetica,sans-Serif" font-size="10.00">+ coherent()</text>
<text text-anchor="start" x="204.5" y="-223.5" font-family="Helvetica,sans-Serif" font-size="10.00">+ high()</text>
<text text-anchor="start" x="204.5" y="-212.5" font-family="Helvetica,sans-Serif" font-size="10.00">+ low()</text>
<text text-anchor="start" x="204.5" y="-201.5" font-family="Helvetica,sans-Serif" font-size="10.00">+ mark()</text>
<text text-anchor="start" x="204.5" y="-190.5" font-family="Helvetica,sans-Serif" font-size="10.00">+ mark()</text>
<text text-anchor="start" x="204.5" y="-179.5" font-family="Helvetica,sans-Serif" font-size="10.00"># ~NonTerminal()</text>
<text text-anchor="start" x="204.5" y="-168.5" font-family="Helvetica,sans-Serif" font-size="10.00">* get_high_id</text>
<text text-anchor="start" x="204.5" y="-157.5" font-family="Helvetica,sans-Serif" font-size="10.00">* get_low_id</text>
</a>
</g>
</g>
<!-- Node6&#45;&gt;Node7 -->
<g id="edge7" class="edge"><title>Node6&#45;&gt;Node7</title>
<path fill="none" stroke="orange" d="M196.591,-399.436C198.587,-392.808 200.723,-386.284 203,-380 205.207,-373.91 207.649,-367.736 210.253,-361.564"/>
<polygon fill="orange" stroke="orange" points="193.183,-398.625 193.766,-409.204 199.907,-400.57 193.183,-398.625"/>
<text text-anchor="middle" x="237" y="-383" font-family="Helvetica,sans-Serif" font-size="10.00"> &lt; SetNode &gt;</text>
</g>
<!-- Node8 -->
<g id="node8" class="node"><title>Node8</title>
<g id="a_node8"><a xlink:href="classscram_1_1core_1_1SetNode.xhtml" target="_top" xlink:title="Representation of non&#45;terminal nodes in ZBDD. ">
<polygon fill="white" stroke="black" points="205,-0.5 205,-112.5 327,-112.5 327,-0.5 205,-0.5"/>
<text text-anchor="middle" x="266" y="-100.5" font-family="Helvetica,sans-Serif" font-size="10.00">scram::core::SetNode</text>
<polyline fill="none" stroke="black" points="205,-93.5 327,-93.5 "/>
<text text-anchor="middle" x="266" y="-81.5" font-family="Helvetica,sans-Serif" font-size="10.00"> </text>
<polyline fill="none" stroke="black" points="205,-74.5 327,-74.5 "/>
<text text-anchor="start" x="213" y="-62.5" font-family="Helvetica,sans-Serif" font-size="10.00">+ minimal()</text>
<text text-anchor="start" x="213" y="-51.5" font-family="Helvetica,sans-Serif" font-size="10.00">+ minimal()</text>
<text text-anchor="start" x="213" y="-40.5" font-family="Helvetica,sans-Serif" font-size="10.00">+ max_set_order()</text>
<text text-anchor="start" x="213" y="-29.5" font-family="Helvetica,sans-Serif" font-size="10.00">+ max_set_order()</text>
<text text-anchor="start" x="213" y="-18.5" font-family="Helvetica,sans-Serif" font-size="10.00">+ count()</text>
<text text-anchor="start" x="213" y="-7.5" font-family="Helvetica,sans-Serif" font-size="10.00">+ count()</text>
</a>
</g>
</g>
<!-- Node7&#45;&gt;Node8 -->
<g id="edge8" class="edge"><title>Node7&#45;&gt;Node8</title>
<path fill="none" stroke="midnightblue" d="M266,-140.419C266,-130.833 266,-121.451 266,-112.648"/>
<polygon fill="none" stroke="midnightblue" points="262.5,-140.467 266,-150.467 269.5,-140.467 262.5,-140.467"/>
</g>
<!-- Node9&#45;&gt;Node7 -->
<g id="edge10" class="edge"><title>Node9&#45;&gt;Node7</title>
<path fill="none" stroke="midnightblue" d="M276.158,-618.35C275.225,-558.184 273.511,-462.631 271,-380 270.818,-374.019 270.616,-367.874 270.401,-361.674"/>
<polygon fill="none" stroke="midnightblue" points="272.66,-618.483 276.312,-628.428 279.659,-618.375 272.66,-618.483"/>
</g>
<!-- Node11 -->
<g id="node11" class="node"><title>Node11</title>
<g id="a_node11"><a xlink:href="classscram_1_1core_1_1Terminal.xhtml" target="_top" xlink:title="Representation of terminal vertices in BDD graphs. ">
<polygon fill="white" stroke="black" points="313.5,-475.5 313.5,-543.5 460.5,-543.5 460.5,-475.5 313.5,-475.5"/>
<text text-anchor="middle" x="387" y="-531.5" font-family="Helvetica,sans-Serif" font-size="10.00">scram::core::Terminal&lt; T &gt;</text>
<polyline fill="none" stroke="black" points="313.5,-524.5 460.5,-524.5 "/>
<text text-anchor="middle" x="387" y="-512.5" font-family="Helvetica,sans-Serif" font-size="10.00"> </text>
<polyline fill="none" stroke="black" points="313.5,-505.5 460.5,-505.5 "/>
<text text-anchor="start" x="321.5" y="-493.5" font-family="Helvetica,sans-Serif" font-size="10.00">+ Terminal()</text>
<text text-anchor="start" x="321.5" y="-482.5" font-family="Helvetica,sans-Serif" font-size="10.00">+ value()</text>
</a>
</g>
</g>
<!-- Node10&#45;&gt;Node11 -->
<g id="edge12" class="edge"><title>Node10&#45;&gt;Node11</title>
<path fill="none" stroke="midnightblue" d="M383.045,-737.939C384.072,-678.877 385.602,-590.894 386.425,-543.534"/>
<polygon fill="none" stroke="midnightblue" points="379.54,-738.19 382.865,-748.25 386.539,-738.312 379.54,-738.19"/>
</g>
</g>
</svg>
