<?xml version="1.0" encoding="UTF-8" standalone="no"?>
<!DOCTYPE svg PUBLIC "-//W3C//DTD SVG 1.1//EN"
 "http://www.w3.org/Graphics/SVG/1.1/DTD/svg11.dtd">
<!-- Generated by graphviz version 2.38.0 (20140413.2041)
 -->
<!-- Title: substitution.h Pages: 1 -->
<!--zoomable 274 -->
<svg id="main" version="1.1" xmlns="http://www.w3.org/2000/svg" xmlns:xlink="http://www.w3.org/1999/xlink" xml:space="preserve" onload="init(evt)">
<style type="text/css"><![CDATA[
.edge:hover path { stroke: red; }
.edge:hover polygon { stroke: red; fill: red; }
]]></style>
<script type="text/javascript"><![CDATA[
var edges = document.getElementsByTagName('g');
if (edges && edges.length) {
  for (var i=0;i<edges.length;i++) {
    if (edges[i].id.substr(0,4)=='edge') {
      edges[i].setAttribute('class','edge');
    }
  }
}
]]></script>
        <defs>
                <circle id="rim" cx="0" cy="0" r="7"/>
                <circle id="rim2" cx="0" cy="0" r="3.5"/>
                <g id="zoomPlus">
                        <use xlink:href="#rim" fill="#404040">
                                <set attributeName="fill" to="#808080" begin="zoomplus.mouseover" end="zoomplus.mouseout"/>
                        </use>
                        <path d="M-4,0h8M0,-4v8" fill="none" stroke="white" stroke-width="1.5" pointer-events="none"/>
                </g>
                <g id="zoomMin">
                        <use xlink:href="#rim" fill="#404040">
                                <set attributeName="fill" to="#808080" begin="zoomminus.mouseover" end="zoomminus.mouseout"/>
                        </use>
                        <path d="M-4,0h8" fill="none" stroke="white" stroke-width="1.5" pointer-events="none"/>
                </g>
                <g id="dirArrow">
                        <path fill="none" stroke="white" stroke-width="1.5" d="M0,-3.0v7 M-2.5,-0.5L0,-3.0L2.5,-0.5"/>
                </g>
               <g id="resetDef">
                       <use xlink:href="#rim2" fill="#404040">
                               <set attributeName="fill" to="#808080" begin="reset.mouseover" end="reset.mouseout"/>
                       </use>
               </g>
        </defs>

<script type="text/javascript">
var viewWidth = 1991;
var viewHeight = 274;
var sectionId = 'dynsection-0';
</script>
<script xlink:href="svgpan.js"/>
<svg id="graph" class="graph">
<g id="viewport">
<title>substitution.h</title>
<polygon fill="white" stroke="none" points="-4,4 -4,-270 1986.5,-270 1986.5,4 -4,4"/>
<!-- Node1 -->
<g id="node1" class="node"><title>Node1</title>
<polygon fill="#bfbfbf" stroke="black" points="688,-246.5 688,-265.5 770,-265.5 770,-246.5 688,-246.5"/>
<text text-anchor="middle" x="729" y="-253.5" font-family="Helvetica,sans-Serif" font-size="10.00">substitution.h</text>
</g>
<!-- Node2 -->
<g id="node2" class="node"><title>Node2</title>
<polygon fill="white" stroke="#bfbfbf" points="382.5,-73 382.5,-92 439.5,-92 439.5,-73 382.5,-73"/>
<text text-anchor="middle" x="411" y="-80" font-family="Helvetica,sans-Serif" font-size="10.00">memory</text>
</g>
<!-- Node1&#45;&gt;Node2 -->
<g id="edge1" class="edge"><title>Node1&#45;&gt;Node2</title>
<path fill="none" stroke="midnightblue" d="M687.727,-251.381C648.26,-246.509 588.103,-235.308 542,-210 490.457,-181.706 444.667,-127.76 423.473,-100.365"/>
<polygon fill="midnightblue" stroke="midnightblue" points="426.087,-98.0203 417.255,-92.168 420.51,-102.251 426.087,-98.0203"/>
</g>
<!-- Node3 -->
<g id="node3" class="node"><title>Node3</title>
<polygon fill="white" stroke="#bfbfbf" points="457.5,-73 457.5,-92 512.5,-92 512.5,-73 457.5,-73"/>
<text text-anchor="middle" x="485" y="-80" font-family="Helvetica,sans-Serif" font-size="10.00">optional</text>
</g>
<!-- Node1&#45;&gt;Node3 -->
<g id="edge2" class="edge"><title>Node1&#45;&gt;Node3</title>
<path fill="none" stroke="midnightblue" d="M687.621,-248.108C636.446,-237.332 550.427,-211.445 504,-154 492.19,-139.387 487.686,-118.063 485.987,-102.697"/>
<polygon fill="midnightblue" stroke="midnightblue" points="489.444,-102.008 485.161,-92.3176 482.466,-102.564 489.444,-102.008"/>
</g>
<!-- Node4 -->
<g id="node4" class="node"><title>Node4</title>
<polygon fill="white" stroke="#bfbfbf" points="513,-134.5 513,-153.5 563,-153.5 563,-134.5 513,-134.5"/>
<text text-anchor="middle" x="538" y="-141.5" font-family="Helvetica,sans-Serif" font-size="10.00">variant</text>
</g>
<!-- Node1&#45;&gt;Node4 -->
<g id="edge3" class="edge"><title>Node1&#45;&gt;Node4</title>
<path fill="none" stroke="midnightblue" d="M714.013,-246.368C680.958,-227.332 601.577,-181.615 561.702,-158.65"/>
<polygon fill="midnightblue" stroke="midnightblue" points="563.33,-155.549 552.918,-153.591 559.837,-161.615 563.33,-155.549"/>
</g>
<!-- Node5 -->
<g id="node5" class="node"><title>Node5</title>
<polygon fill="white" stroke="#bfbfbf" points="1935.5,-6 1935.5,-25 1982.5,-25 1982.5,-6 1935.5,-6"/>
<text text-anchor="middle" x="1959" y="-13" font-family="Helvetica,sans-Serif" font-size="10.00">vector</text>
</g>
<!-- Node1&#45;&gt;Node5 -->
<g id="edge4" class="edge"><title>Node1&#45;&gt;Node5</title>
<path fill="none" stroke="midnightblue" d="M770.235,-252.95C941.554,-244.152 1597.45,-207.577 1797,-154 1854.62,-138.529 1876.27,-139.637 1919,-98 1937.03,-80.428 1948.14,-53.0501 1953.94,-34.9472"/>
<polygon fill="midnightblue" stroke="midnightblue" points="1957.32,-35.8574 1956.81,-25.2745 1950.61,-33.8614 1957.32,-35.8574"/>
</g>
<!-- Node6 -->
<g id="node6" class="node"><title>Node6</title>
<g id="a_node6"><a xlink:href="element_8h.xhtml" target="_top" xlink:title="Base/mixin classes, structs, and properties common to all MEF classes/constructs. ...">
<polygon fill="white" stroke="black" points="944.5,-134.5 944.5,-153.5 1009.5,-153.5 1009.5,-134.5 944.5,-134.5"/>
<text text-anchor="middle" x="977" y="-141.5" font-family="Helvetica,sans-Serif" font-size="10.00">element.h</text>
</a>
</g>
</g>
<!-- Node1&#45;&gt;Node6 -->
<g id="edge5" class="edge"><title>Node1&#45;&gt;Node6</title>
<path fill="none" stroke="midnightblue" d="M748.46,-246.368C792.013,-227.051 897.507,-180.259 948.484,-157.648"/>
<polygon fill="midnightblue" stroke="midnightblue" points="949.908,-160.845 957.63,-153.591 947.07,-154.447 949.908,-160.845"/>
</g>
<!-- Node29 -->
<g id="node29" class="node"><title>Node29</title>
<g id="a_node29"><a xlink:href="event_8h.xhtml" target="_top" xlink:title="Contains event classes for fault trees. ">
<polygon fill="white" stroke="black" points="950.5,-190.5 950.5,-209.5 1003.5,-209.5 1003.5,-190.5 950.5,-190.5"/>
<text text-anchor="middle" x="977" y="-197.5" font-family="Helvetica,sans-Serif" font-size="10.00">event.h</text>
</a>
</g>
</g>
<!-- Node1&#45;&gt;Node29 -->
<g id="edge34" class="edge"><title>Node1&#45;&gt;Node29</title>
<path fill="none" stroke="midnightblue" d="M768.296,-246.444C815.659,-236.131 894.602,-218.941 940.621,-208.921"/>
<polygon fill="midnightblue" stroke="midnightblue" points="941.443,-212.324 950.47,-206.777 939.954,-205.485 941.443,-212.324"/>
</g>
<!-- Node6&#45;&gt;Node2 -->
<g id="edge8" class="edge"><title>Node6&#45;&gt;Node2</title>
<path fill="none" stroke="midnightblue" d="M944.289,-143.465C860.539,-143.96 632.012,-140.926 448,-98 445.165,-97.3388 442.26,-96.5017 439.385,-95.5647"/>
<polygon fill="midnightblue" stroke="midnightblue" points="440.463,-92.2324 429.869,-92.1043 438.07,-98.811 440.463,-92.2324"/>
</g>
<!-- Node6&#45;&gt;Node3 -->
<g id="edge9" class="edge"><title>Node6&#45;&gt;Node3</title>
<path fill="none" stroke="midnightblue" d="M944.5,-142.828C869.15,-141.773 677.127,-135.311 522,-98 519.17,-97.3193 516.268,-96.4692 513.395,-95.524"/>
<polygon fill="midnightblue" stroke="midnightblue" points="514.475,-92.1925 503.881,-92.052 512.075,-98.7683 514.475,-92.1925"/>
</g>
<!-- Node6&#45;&gt;Node5 -->
<g id="edge13" class="edge"><title>Node6&#45;&gt;Node5</title>
<path fill="none" stroke="midnightblue" d="M1009.54,-142.581C1159.77,-140.48 1782.5,-129.901 1863,-98 1897.7,-84.2476 1928.82,-52.588 1945.69,-33.024"/>
<polygon fill="midnightblue" stroke="midnightblue" points="1948.48,-35.1455 1952.22,-25.2305 1943.11,-30.6528 1948.48,-35.1455"/>
</g>
<!-- Node7 -->
<g id="node7" class="node"><title>Node7</title>
<polygon fill="white" stroke="#bfbfbf" points="1710.5,-73 1710.5,-92 1759.5,-92 1759.5,-73 1710.5,-73"/>
<text text-anchor="middle" x="1735" y="-80" font-family="Helvetica,sans-Serif" font-size="10.00">cstdint</text>
</g>
<!-- Node6&#45;&gt;Node7 -->
<g id="edge6" class="edge"><title>Node6&#45;&gt;Node7</title>
<path fill="none" stroke="midnightblue" d="M1009.59,-142.444C1132.37,-140.121 1566.81,-129.787 1701,-98 1703.51,-97.4046 1706.08,-96.638 1708.61,-95.7688"/>
<polygon fill="midnightblue" stroke="midnightblue" points="1710.06,-98.9615 1718.09,-92.0525 1707.5,-92.4446 1710.06,-98.9615"/>
</g>
<!-- Node8 -->
<g id="node8" class="node"><title>Node8</title>
<polygon fill="white" stroke="#bfbfbf" points="673.5,-73 673.5,-92 736.5,-92 736.5,-73 673.5,-73"/>
<text text-anchor="middle" x="705" y="-80" font-family="Helvetica,sans-Serif" font-size="10.00">functional</text>
</g>
<!-- Node6&#45;&gt;Node8 -->
<g id="edge7" class="edge"><title>Node6&#45;&gt;Node8</title>
<path fill="none" stroke="midnightblue" d="M944.353,-138.316C899.106,-131.453 814.996,-117.348 745,-98 742.197,-97.2251 739.309,-96.3456 736.43,-95.4119"/>
<polygon fill="midnightblue" stroke="midnightblue" points="737.402,-92.0449 726.807,-92.1024 735.125,-98.6644 737.402,-92.0449"/>
</g>
<!-- Node9 -->
<g id="node9" class="node"><title>Node9</title>
<polygon fill="white" stroke="#bfbfbf" points="828,-6 828,-25 872,-25 872,-6 828,-6"/>
<text text-anchor="middle" x="850" y="-13" font-family="Helvetica,sans-Serif" font-size="10.00">string</text>
</g>
<!-- Node6&#45;&gt;Node9 -->
<g id="edge10" class="edge"><title>Node6&#45;&gt;Node9</title>
<path fill="none" stroke="midnightblue" d="M944.327,-143.437C871.624,-143.638 700.041,-139.593 664,-98 654.977,-87.5875 655.43,-77.7883 664,-67 707.989,-11.6229 752.159,-54.1085 819,-31 820.621,-30.4394 822.272,-29.8208 823.923,-29.1644"/>
<polygon fill="midnightblue" stroke="midnightblue" points="825.431,-32.3253 833.211,-25.1326 822.644,-25.9043 825.431,-32.3253"/>
</g>
<!-- Node10 -->
<g id="node10" class="node"><title>Node10</title>
<polygon fill="white" stroke="#bfbfbf" points="754.5,-73 754.5,-92 823.5,-92 823.5,-73 754.5,-73"/>
<text text-anchor="middle" x="789" y="-80" font-family="Helvetica,sans-Serif" font-size="10.00">string_view</text>
</g>
<!-- Node6&#45;&gt;Node10 -->
<g id="edge11" class="edge"><title>Node6&#45;&gt;Node10</title>
<path fill="none" stroke="midnightblue" d="M949.354,-134.5C920.335,-125.544 873.401,-110.969 833,-98 830.107,-97.0712 827.109,-96.1008 824.101,-95.1212"/>
<polygon fill="midnightblue" stroke="midnightblue" points="825.164,-91.7866 814.571,-92.001 822.986,-98.439 825.164,-91.7866"/>
</g>
<!-- Node11 -->
<g id="node11" class="node"><title>Node11</title>
<polygon fill="white" stroke="#bfbfbf" points="842,-73 842,-92 910,-92 910,-73 842,-73"/>
<text text-anchor="middle" x="876" y="-80" font-family="Helvetica,sans-Serif" font-size="10.00">type_traits</text>
</g>
<!-- Node6&#45;&gt;Node11 -->
<g id="edge12" class="edge"><title>Node6&#45;&gt;Node11</title>
<path fill="none" stroke="midnightblue" d="M962.529,-134.475C946.029,-124.755 918.822,-108.727 899.319,-97.2372"/>
<polygon fill="midnightblue" stroke="midnightblue" points="900.837,-94.0693 890.444,-92.0091 897.284,-100.101 900.837,-94.0693"/>
</g>
<!-- Node12 -->
<g id="node12" class="node"><title>Node12</title>
<polygon fill="white" stroke="#bfbfbf" points="1044,-67.5 1044,-97.5 1164,-97.5 1164,-67.5 1044,-67.5"/>
<text text-anchor="start" x="1052" y="-85.5" font-family="Helvetica,sans-Serif" font-size="10.00">boost/iterator/iterator</text>
<text text-anchor="middle" x="1104" y="-74.5" font-family="Helvetica,sans-Serif" font-size="10.00">_facade.hpp</text>
</g>
<!-- Node6&#45;&gt;Node12 -->
<g id="edge14" class="edge"><title>Node6&#45;&gt;Node12</title>
<path fill="none" stroke="midnightblue" d="M995.196,-134.475C1013.28,-126.002 1041.59,-112.737 1064.81,-101.863"/>
<polygon fill="midnightblue" stroke="midnightblue" points="1066.5,-104.935 1074.07,-97.523 1063.53,-98.5961 1066.5,-104.935"/>
</g>
<!-- Node13 -->
<g id="node13" class="node"><title>Node13</title>
<polygon fill="white" stroke="#bfbfbf" points="1182,-67.5 1182,-97.5 1322,-97.5 1322,-67.5 1182,-67.5"/>
<text text-anchor="start" x="1190" y="-85.5" font-family="Helvetica,sans-Serif" font-size="10.00">boost/multi_index/hashed</text>
<text text-anchor="middle" x="1252" y="-74.5" font-family="Helvetica,sans-Serif" font-size="10.00">_index.hpp</text>
</g>
<!-- Node6&#45;&gt;Node13 -->
<g id="edge15" class="edge"><title>Node6&#45;&gt;Node13</title>
<path fill="none" stroke="midnightblue" d="M1009.63,-135.941C1050.68,-127.059 1122.44,-111.533 1177.25,-99.6722"/>
<polygon fill="midnightblue" stroke="midnightblue" points="1178.25,-103.038 1187.28,-97.5027 1176.77,-96.1966 1178.25,-103.038"/>
</g>
<!-- Node14 -->
<g id="node14" class="node"><title>Node14</title>
<polygon fill="white" stroke="#bfbfbf" points="1340,-67.5 1340,-97.5 1470,-97.5 1470,-67.5 1340,-67.5"/>
<text text-anchor="start" x="1348" y="-85.5" font-family="Helvetica,sans-Serif" font-size="10.00">boost/multi_index/mem</text>
<text text-anchor="middle" x="1405" y="-74.5" font-family="Helvetica,sans-Serif" font-size="10.00">_fun.hpp</text>
</g>
<!-- Node6&#45;&gt;Node14 -->
<g id="edge16" class="edge"><title>Node6&#45;&gt;Node14</title>
<path fill="none" stroke="midnightblue" d="M1009.8,-139.574C1070.78,-133.045 1205.89,-117.827 1329.65,-98.1552"/>
<polygon fill="midnightblue" stroke="midnightblue" points="1330.35,-101.586 1339.67,-96.5472 1329.24,-94.6747 1330.35,-101.586"/>
</g>
<!-- Node15 -->
<g id="node15" class="node"><title>Node15</title>
<polygon fill="white" stroke="#bfbfbf" points="1062,-6 1062,-25 1234,-25 1234,-6 1062,-6"/>
<text text-anchor="middle" x="1148" y="-13" font-family="Helvetica,sans-Serif" font-size="10.00">boost/multi_index_container.hpp</text>
</g>
<!-- Node6&#45;&gt;Node15 -->
<g id="edge17" class="edge"><title>Node6&#45;&gt;Node15</title>
<path fill="none" stroke="midnightblue" d="M1009.8,-142.566C1116.3,-140.82 1447.34,-132.629 1479,-98 1488.3,-87.832 1487.98,-77.4513 1479,-67 1449.21,-32.3251 1331.1,-21.1952 1244.43,-17.7678"/>
<polygon fill="midnightblue" stroke="midnightblue" points="1244.41,-14.2649 1234.29,-17.3959 1244.15,-21.2602 1244.41,-14.2649"/>
</g>
<!-- Node16 -->
<g id="node16" class="node"><title>Node16</title>
<polygon fill="white" stroke="#bfbfbf" points="1519,-6 1519,-25 1647,-25 1647,-6 1519,-6"/>
<text text-anchor="middle" x="1583" y="-13" font-family="Helvetica,sans-Serif" font-size="10.00">boost/noncopyable.hpp</text>
</g>
<!-- Node6&#45;&gt;Node16 -->
<g id="edge18" class="edge"><title>Node6&#45;&gt;Node16</title>
<path fill="none" stroke="midnightblue" d="M1009.69,-142.961C1109.57,-142.409 1409.29,-137.426 1497,-98 1528.75,-83.7307 1556.1,-52.7203 1570.99,-33.3325"/>
<polygon fill="midnightblue" stroke="midnightblue" points="1573.95,-35.2231 1577.1,-25.1083 1568.33,-31.049 1573.95,-35.2231"/>
</g>
<!-- Node17 -->
<g id="node17" class="node"><title>Node17</title>
<g id="a_node17"><a xlink:href="error_8h.xhtml" target="_top" xlink:title="Exceptions for SCRAM. ">
<polygon fill="white" stroke="black" points="531,-73 531,-92 579,-92 579,-73 531,-73"/>
<text text-anchor="middle" x="555" y="-80" font-family="Helvetica,sans-Serif" font-size="10.00">error.h</text>
</a>
</g>
</g>
<!-- Node6&#45;&gt;Node17 -->
<g id="edge19" class="edge"><title>Node6&#45;&gt;Node17</title>
<path fill="none" stroke="midnightblue" d="M944.47,-139.42C883.044,-132.516 745.839,-116.406 631,-98 617.29,-95.8026 602.261,-93.0157 589.213,-90.4736"/>
<polygon fill="midnightblue" stroke="midnightblue" points="589.726,-87.0073 579.237,-88.5033 588.369,-93.8746 589.726,-87.0073"/>
</g>
<!-- Node24 -->
<g id="node24" class="node"><title>Node24</title>
<g id="a_node24"><a xlink:href="linear__set_8h.xhtml" target="_top" xlink:title="Implementation of a vector&#45;based set for a small number of entries. ">
<polygon fill="white" stroke="black" points="1602,-73 1602,-92 1692,-92 1692,-73 1602,-73"/>
<text text-anchor="middle" x="1647" y="-80" font-family="Helvetica,sans-Serif" font-size="10.00">ext/linear_set.h</text>
</a>
</g>
</g>
<!-- Node6&#45;&gt;Node24 -->
<g id="edge27" class="edge"><title>Node6&#45;&gt;Node24</title>
<path fill="none" stroke="midnightblue" d="M1009.68,-142.514C1101.42,-140.738 1368.97,-132.73 1588,-98 1594.01,-97.0476 1600.3,-95.7887 1606.45,-94.4097"/>
<polygon fill="midnightblue" stroke="midnightblue" points="1607.65,-97.7208 1616.58,-92.0084 1606.04,-90.9096 1607.65,-97.7208"/>
</g>
<!-- Node28 -->
<g id="node28" class="node"><title>Node28</title>
<g id="a_node28"><a xlink:href="multi__index_8h.xhtml" target="_top" xlink:title="Helper functions to boost multi_index_container. ">
<polygon fill="white" stroke="black" points="928,-73 928,-92 1026,-92 1026,-73 928,-73"/>
<text text-anchor="middle" x="977" y="-80" font-family="Helvetica,sans-Serif" font-size="10.00">ext/multi_index.h</text>
</a>
</g>
</g>
<!-- Node6&#45;&gt;Node28 -->
<g id="edge32" class="edge"><title>Node6&#45;&gt;Node28</title>
<path fill="none" stroke="midnightblue" d="M977,-134.475C977,-126.08 977,-112.981 977,-102.163"/>
<polygon fill="midnightblue" stroke="midnightblue" points="980.5,-102.009 977,-92.0091 973.5,-102.009 980.5,-102.009"/>
</g>
<!-- Node17&#45;&gt;Node9 -->
<g id="edge21" class="edge"><title>Node17&#45;&gt;Node9</title>
<path fill="none" stroke="midnightblue" d="M575.255,-72.8847C580.92,-70.7195 587.133,-68.5685 593,-67 691.26,-40.7297 721.764,-60.8377 819,-31 820.874,-30.4248 822.781,-29.757 824.68,-29.0299"/>
<polygon fill="midnightblue" stroke="midnightblue" points="826.123,-32.2193 833.929,-25.0561 823.359,-25.7878 826.123,-32.2193"/>
</g>
<!-- Node18 -->
<g id="node18" class="node"><title>Node18</title>
<polygon fill="white" stroke="#bfbfbf" points="400.5,-6 400.5,-25 463.5,-25 463.5,-6 400.5,-6"/>
<text text-anchor="middle" x="432" y="-13" font-family="Helvetica,sans-Serif" font-size="10.00">exception</text>
</g>
<!-- Node17&#45;&gt;Node18 -->
<g id="edge20" class="edge"><title>Node17&#45;&gt;Node18</title>
<path fill="none" stroke="midnightblue" d="M538.667,-72.8685C517.898,-61.8932 481.814,-42.8243 457.43,-29.9385"/>
<polygon fill="midnightblue" stroke="midnightblue" points="458.878,-26.745 448.401,-25.1672 455.607,-32.934 458.878,-26.745"/>
</g>
<!-- Node19 -->
<g id="node19" class="node"><title>Node19</title>
<polygon fill="white" stroke="#bfbfbf" points="482,-6 482,-25 628,-25 628,-6 482,-6"/>
<text text-anchor="middle" x="555" y="-13" font-family="Helvetica,sans-Serif" font-size="10.00">boost/current_function.hpp</text>
</g>
<!-- Node17&#45;&gt;Node19 -->
<g id="edge22" class="edge"><title>Node17&#45;&gt;Node19</title>
<path fill="none" stroke="midnightblue" d="M555,-72.7338C555,-63.1826 555,-47.6183 555,-35.2829"/>
<polygon fill="midnightblue" stroke="midnightblue" points="558.5,-35.1273 555,-25.1273 551.5,-35.1273 558.5,-35.1273"/>
</g>
<!-- Node20 -->
<g id="node20" class="node"><title>Node20</title>
<polygon fill="white" stroke="#bfbfbf" points="646,-6 646,-25 810,-25 810,-6 646,-6"/>
<text text-anchor="middle" x="728" y="-13" font-family="Helvetica,sans-Serif" font-size="10.00">boost/exception/exception.hpp</text>
</g>
<!-- Node17&#45;&gt;Node20 -->
<g id="edge23" class="edge"><title>Node17&#45;&gt;Node20</title>
<path fill="none" stroke="midnightblue" d="M577.496,-72.8882C582.591,-70.9452 587.98,-68.8967 593,-67 628.025,-53.7668 668.225,-38.7512 695.586,-28.5574"/>
<polygon fill="midnightblue" stroke="midnightblue" points="696.902,-31.8021 705.052,-25.0322 694.459,-25.2422 696.902,-31.8021"/>
</g>
<!-- Node21 -->
<g id="node21" class="node"><title>Node21</title>
<polygon fill="white" stroke="#bfbfbf" points="0,-6 0,-25 134,-25 134,-6 0,-6"/>
<text text-anchor="middle" x="67" y="-13" font-family="Helvetica,sans-Serif" font-size="10.00">boost/exception/info.hpp</text>
</g>
<!-- Node17&#45;&gt;Node21 -->
<g id="edge24" class="edge"><title>Node17&#45;&gt;Node21</title>
<path fill="none" stroke="midnightblue" d="M537.713,-72.9119C532.461,-70.6382 526.597,-68.4235 521,-67 357.446,-25.4061 310.068,-54.8397 143,-31 134.87,-29.8398 126.288,-28.4068 117.934,-26.8973"/>
<polygon fill="midnightblue" stroke="midnightblue" points="118.374,-23.4192 107.903,-25.0314 117.094,-30.3012 118.374,-23.4192"/>
</g>
<!-- Node22 -->
<g id="node22" class="node"><title>Node22</title>
<polygon fill="white" stroke="#bfbfbf" points="152.5,-0.5 152.5,-30.5 265.5,-30.5 265.5,-0.5 152.5,-0.5"/>
<text text-anchor="start" x="160.5" y="-18.5" font-family="Helvetica,sans-Serif" font-size="10.00">boost/exception/info</text>
<text text-anchor="middle" x="209" y="-7.5" font-family="Helvetica,sans-Serif" font-size="10.00">_tuple.hpp</text>
</g>
<!-- Node17&#45;&gt;Node22 -->
<g id="edge25" class="edge"><title>Node17&#45;&gt;Node22</title>
<path fill="none" stroke="midnightblue" d="M537.314,-72.9379C532.152,-70.7204 526.436,-68.5292 521,-67 417.747,-37.955 385.574,-50.0973 275.97,-31.0641"/>
<polygon fill="midnightblue" stroke="midnightblue" points="276.29,-27.566 265.83,-29.2536 275.059,-34.457 276.29,-27.566"/>
</g>
<!-- Node23 -->
<g id="node23" class="node"><title>Node23</title>
<g id="a_node23"><a xlink:href="source__info_8h.xhtml" target="_top" xlink:title="Helper facilities to get source file information. ">
<polygon fill="white" stroke="black" points="284,-6 284,-25 382,-25 382,-6 284,-6"/>
<text text-anchor="middle" x="333" y="-13" font-family="Helvetica,sans-Serif" font-size="10.00">ext/source_info.h</text>
</a>
</g>
</g>
<!-- Node17&#45;&gt;Node23 -->
<g id="edge26" class="edge"><title>Node17&#45;&gt;Node23</title>
<path fill="none" stroke="midnightblue" d="M536.123,-72.8923C531.249,-70.8244 525.973,-68.7189 521,-67 494.589,-57.8719 423.853,-39.4647 377.077,-27.5751"/>
<polygon fill="midnightblue" stroke="midnightblue" points="377.748,-24.1345 367.194,-25.0694 376.027,-30.9198 377.748,-24.1345"/>
</g>
<!-- Node24&#45;&gt;Node5 -->
<g id="edge31" class="edge"><title>Node24&#45;&gt;Node5</title>
<path fill="none" stroke="midnightblue" d="M1676.57,-72.9662C1684.47,-70.8505 1693.03,-68.7037 1701,-67 1800.04,-45.8401 1828.85,-59.6023 1926,-31 1928.15,-30.3682 1930.34,-29.63 1932.52,-28.8276"/>
<polygon fill="midnightblue" stroke="midnightblue" points="1933.9,-32.0425 1941.84,-25.0284 1931.26,-25.5598 1933.9,-32.0425"/>
</g>
<!-- Node25 -->
<g id="node25" class="node"><title>Node25</title>
<polygon fill="white" stroke="#bfbfbf" points="1665,-6 1665,-25 1727,-25 1727,-6 1665,-6"/>
<text text-anchor="middle" x="1696" y="-13" font-family="Helvetica,sans-Serif" font-size="10.00">algorithm</text>
</g>
<!-- Node24&#45;&gt;Node25 -->
<g id="edge28" class="edge"><title>Node24&#45;&gt;Node25</title>
<path fill="none" stroke="midnightblue" d="M1653.61,-72.7338C1661.18,-62.6953 1673.75,-46.0145 1683.24,-33.4213"/>
<polygon fill="midnightblue" stroke="midnightblue" points="1686.27,-35.2194 1689.5,-25.1273 1680.68,-31.0057 1686.27,-35.2194"/>
</g>
<!-- Node26 -->
<g id="node26" class="node"><title>Node26</title>
<polygon fill="white" stroke="#bfbfbf" points="1423.5,-6 1423.5,-25 1500.5,-25 1500.5,-6 1423.5,-6"/>
<text text-anchor="middle" x="1462" y="-13" font-family="Helvetica,sans-Serif" font-size="10.00">initializer_list</text>
</g>
<!-- Node24&#45;&gt;Node26 -->
<g id="edge29" class="edge"><title>Node24&#45;&gt;Node26</title>
<path fill="none" stroke="midnightblue" d="M1622.43,-72.8685C1590,-61.4732 1532.73,-41.3528 1496.12,-28.4869"/>
<polygon fill="midnightblue" stroke="midnightblue" points="1496.97,-25.0765 1486.37,-25.0637 1494.65,-31.6807 1496.97,-25.0765"/>
</g>
<!-- Node27 -->
<g id="node27" class="node"><title>Node27</title>
<polygon fill="white" stroke="#bfbfbf" points="1875,-6 1875,-25 1917,-25 1917,-6 1875,-6"/>
<text text-anchor="middle" x="1896" y="-13" font-family="Helvetica,sans-Serif" font-size="10.00">utility</text>
</g>
<!-- Node24&#45;&gt;Node27 -->
<g id="edge30" class="edge"><title>Node24&#45;&gt;Node27</title>
<path fill="none" stroke="midnightblue" d="M1677.78,-72.9652C1685.35,-70.9394 1693.45,-68.8352 1701,-67 1773.93,-49.2625 1795.05,-55.5011 1866,-31 1867.62,-30.4418 1869.26,-29.8191 1870.9,-29.1543"/>
<polygon fill="midnightblue" stroke="midnightblue" points="1872.4,-32.3177 1880.1,-25.0419 1869.55,-25.927 1872.4,-32.3177"/>
</g>
<!-- Node28&#45;&gt;Node15 -->
<g id="edge33" class="edge"><title>Node28&#45;&gt;Node15</title>
<path fill="none" stroke="midnightblue" d="M999.707,-72.8685C1029.56,-61.5219 1082.17,-41.5246 1116.03,-28.6522"/>
<polygon fill="midnightblue" stroke="midnightblue" points="1117.37,-31.8885 1125.47,-25.0637 1114.88,-25.3452 1117.37,-31.8885"/>
</g>
<!-- Node29&#45;&gt;Node2 -->
<g id="edge37" class="edge"><title>Node29&#45;&gt;Node2</title>
<path fill="none" stroke="midnightblue" d="M950.445,-199.57C888.223,-200.104 728.899,-196.802 605,-154 588.79,-148.4 587.703,-140.894 572,-134 519.455,-110.93 502.327,-116.489 448,-98 445.877,-97.2776 443.697,-96.5049 441.509,-95.7064"/>
<polygon fill="midnightblue" stroke="midnightblue" points="442.601,-92.3777 432.009,-92.1155 440.126,-98.9254 442.601,-92.3777"/>
</g>
<!-- Node29&#45;&gt;Node3 -->
<g id="edge38" class="edge"><title>Node29&#45;&gt;Node3</title>
<path fill="none" stroke="midnightblue" d="M950.496,-197.646C894.597,-194.287 760.892,-183.589 653,-154 652.108,-153.755 562.773,-116.207 514.757,-96.0153"/>
<polygon fill="midnightblue" stroke="midnightblue" points="516.038,-92.7574 505.463,-92.1072 513.325,-99.21 516.038,-92.7574"/>
</g>
<!-- Node29&#45;&gt;Node4 -->
<g id="edge41" class="edge"><title>Node29&#45;&gt;Node4</title>
<path fill="none" stroke="midnightblue" d="M950.168,-197.052C885.583,-192.129 716.486,-177.86 577,-154 575.729,-153.783 574.437,-153.549 573.133,-153.304"/>
<polygon fill="midnightblue" stroke="midnightblue" points="573.59,-149.824 563.09,-151.236 572.178,-156.681 573.59,-149.824"/>
</g>
<!-- Node29&#45;&gt;Node5 -->
<g id="edge42" class="edge"><title>Node29&#45;&gt;Node5</title>
<path fill="none" stroke="midnightblue" d="M1003.83,-198.524C1122.01,-196.261 1596.67,-185.357 1742,-154 1809.94,-139.342 1831.04,-137.825 1888,-98 1913.14,-80.4185 1935.13,-52.0507 1947.74,-33.8458"/>
<polygon fill="midnightblue" stroke="midnightblue" points="1950.77,-35.6146 1953.44,-25.3632 1944.96,-31.7083 1950.77,-35.6146"/>
</g>
<!-- Node29&#45;&gt;Node6 -->
<g id="edge43" class="edge"><title>Node29&#45;&gt;Node6</title>
<path fill="none" stroke="midnightblue" d="M977,-190.083C977,-183.006 977,-172.861 977,-163.986"/>
<polygon fill="midnightblue" stroke="midnightblue" points="980.5,-163.751 977,-153.751 973.5,-163.751 980.5,-163.751"/>
</g>
<!-- Node29&#45;&gt;Node7 -->
<g id="edge35" class="edge"><title>Node29&#45;&gt;Node7</title>
<path fill="none" stroke="midnightblue" d="M1003.65,-199.501C1086.02,-200.5 1343.4,-199.495 1550,-154 1608.6,-141.095 1673.32,-113.003 1708.55,-96.44"/>
<polygon fill="midnightblue" stroke="midnightblue" points="1710.15,-99.5543 1717.68,-92.0964 1707.14,-93.2336 1710.15,-99.5543"/>
</g>
<!-- Node29&#45;&gt;Node9 -->
<g id="edge39" class="edge"><title>Node29&#45;&gt;Node9</title>
<path fill="none" stroke="midnightblue" d="M950.245,-194.744C879.429,-182.88 690.059,-147.057 654,-98 645.84,-86.8987 645.358,-77.7306 654,-67 701.079,-8.54184 747.899,-55.0495 819,-31 820.664,-30.4372 822.357,-29.811 824.05,-29.1436"/>
<polygon fill="midnightblue" stroke="midnightblue" points="825.767,-32.2142 833.548,-25.0244 822.981,-25.7921 825.767,-32.2142"/>
</g>
<!-- Node29&#45;&gt;Node26 -->
<g id="edge36" class="edge"><title>Node29&#45;&gt;Node26</title>
<path fill="none" stroke="midnightblue" d="M1003.76,-198.097C1100.99,-194.203 1433.23,-175.344 1497,-98 1513.08,-78.4977 1494.15,-50.4991 1478.5,-32.917"/>
<polygon fill="midnightblue" stroke="midnightblue" points="1480.64,-30.0911 1471.24,-25.2053 1475.54,-34.8873 1480.64,-30.0911"/>
</g>
<!-- Node29&#45;&gt;Node27 -->
<g id="edge40" class="edge"><title>Node29&#45;&gt;Node27</title>
<path fill="none" stroke="midnightblue" d="M1003.78,-199.017C1094.82,-198.691 1400.58,-194.447 1649,-154 1746.04,-138.201 1789.15,-162.901 1863,-98 1881.51,-81.734 1889.8,-53.5791 1893.39,-34.9944"/>
<polygon fill="midnightblue" stroke="midnightblue" points="1896.85,-35.5248 1895.05,-25.0856 1889.95,-34.3743 1896.85,-35.5248"/>
</g>
<!-- Node30 -->
<g id="node30" class="node"><title>Node30</title>
<g id="a_node30"><a xlink:href="expression_8h.xhtml" target="_top" xlink:title="Provides the base class for all expressions and units for expression values. ">
<polygon fill="white" stroke="black" points="1777.5,-73 1777.5,-92 1854.5,-92 1854.5,-73 1777.5,-73"/>
<text text-anchor="middle" x="1816" y="-80" font-family="Helvetica,sans-Serif" font-size="10.00">expression.h</text>
</a>
</g>
</g>
<!-- Node29&#45;&gt;Node30 -->
<g id="edge44" class="edge"><title>Node29&#45;&gt;Node30</title>
<path fill="none" stroke="midnightblue" d="M1003.63,-199.341C1090.21,-199.967 1371.22,-198.217 1598,-154 1666.89,-140.568 1744.38,-112.159 1785.89,-95.8006"/>
<polygon fill="midnightblue" stroke="midnightblue" points="1787.4,-98.9658 1795.4,-92.0151 1784.81,-92.4623 1787.4,-98.9658"/>
</g>
<!-- Node30&#45;&gt;Node5 -->
<g id="edge47" class="edge"><title>Node30&#45;&gt;Node5</title>
<path fill="none" stroke="midnightblue" d="M1834.99,-72.8685C1859.46,-61.7476 1902.2,-42.3167 1930.56,-29.4286"/>
<polygon fill="midnightblue" stroke="midnightblue" points="1932.28,-32.4916 1939.93,-25.1672 1929.38,-26.119 1932.28,-32.4916"/>
</g>
<!-- Node30&#45;&gt;Node16 -->
<g id="edge49" class="edge"><title>Node30&#45;&gt;Node16</title>
<path fill="none" stroke="midnightblue" d="M1788.12,-72.9389C1781.53,-70.9549 1774.53,-68.876 1768,-67 1719.3,-53.0009 1663.12,-37.7986 1625.57,-27.7713"/>
<polygon fill="midnightblue" stroke="midnightblue" points="1626.05,-24.2791 1615.49,-25.0857 1624.25,-31.043 1626.05,-24.2791"/>
</g>
<!-- Node30&#45;&gt;Node25 -->
<g id="edge45" class="edge"><title>Node30&#45;&gt;Node25</title>
<path fill="none" stroke="midnightblue" d="M1799.82,-72.7338C1779.57,-61.7695 1744.7,-42.8809 1721.01,-30.0495"/>
<polygon fill="midnightblue" stroke="midnightblue" points="1722.39,-26.8127 1711.93,-25.1273 1719.05,-32.9677 1722.39,-26.8127"/>
</g>
<!-- Node30&#45;&gt;Node27 -->
<g id="edge46" class="edge"><title>Node30&#45;&gt;Node27</title>
<path fill="none" stroke="midnightblue" d="M1826.79,-72.7338C1839.74,-62.208 1861.69,-44.3793 1877.39,-31.6174"/>
<polygon fill="midnightblue" stroke="midnightblue" points="1879.83,-34.1497 1885.38,-25.1273 1875.41,-28.7169 1879.83,-34.1497"/>
</g>
<!-- Node31 -->
<g id="node31" class="node"><title>Node31</title>
<polygon fill="white" stroke="#bfbfbf" points="1745,-0.5 1745,-30.5 1857,-30.5 1857,-0.5 1745,-0.5"/>
<text text-anchor="start" x="1753" y="-18.5" font-family="Helvetica,sans-Serif" font-size="10.00">boost/icl/continuous</text>
<text text-anchor="middle" x="1801" y="-7.5" font-family="Helvetica,sans-Serif" font-size="10.00">_interval.hpp</text>
</g>
<!-- Node30&#45;&gt;Node31 -->
<g id="edge48" class="edge"><title>Node30&#45;&gt;Node31</title>
<path fill="none" stroke="midnightblue" d="M1813.98,-72.7338C1812.07,-64.4561 1809.11,-51.6619 1806.51,-40.3674"/>
<polygon fill="midnightblue" stroke="midnightblue" points="1809.91,-39.5459 1804.25,-30.589 1803.09,-41.12 1809.91,-39.5459"/>
</g>
</g>
</svg>
        <g id="navigator" transform="translate(0 0)" fill="#404254">
                <rect fill="#f2f5e9" fill-opacity="0.5" stroke="#606060" stroke-width=".5" x="0" y="0" width="60" height="60"/>
                <use id="zoomplus" xlink:href="#zoomPlus" x="17" y="9" onmousedown="handleZoom(evt,'in')"/>
                <use id="zoomminus" xlink:href="#zoomMin" x="42" y="9" onmousedown="handleZoom(evt,'out')"/>
                <use id="reset" xlink:href="#resetDef" x="30" y="36" onmousedown="handleReset()"/>
                <g id="arrowUp" xlink:href="#dirArrow" transform="translate(30 24)" onmousedown="handlePan(0,-1)">
                  <use xlink:href="#rim" fill="#404040">
                        <set attributeName="fill" to="#808080" begin="arrowUp.mouseover" end="arrowUp.mouseout"/>
                  </use>
                  <path fill="none" stroke="white" stroke-width="1.5" d="M0,-3.0v7 M-2.5,-0.5L0,-3.0L2.5,-0.5"/>
                </g>
                <g id="arrowRight" xlink:href="#dirArrow" transform="rotate(90) translate(36 -43)" onmousedown="handlePan(1,0)">
                  <use xlink:href="#rim" fill="#404040">
                        <set attributeName="fill" to="#808080" begin="arrowRight.mouseover" end="arrowRight.mouseout"/>
                  </use>
                  <path fill="none" stroke="white" stroke-width="1.5" d="M0,-3.0v7 M-2.5,-0.5L0,-3.0L2.5,-0.5"/>
                </g>
                <g id="arrowDown" xlink:href="#dirArrow" transform="rotate(180) translate(-30 -48)" onmousedown="handlePan(0,1)">
                  <use xlink:href="#rim" fill="#404040">
                        <set attributeName="fill" to="#808080" begin="arrowDown.mouseover" end="arrowDown.mouseout"/>
                  </use>
                  <path fill="none" stroke="white" stroke-width="1.5" d="M0,-3.0v7 M-2.5,-0.5L0,-3.0L2.5,-0.5"/>
                </g>
                <g id="arrowLeft" xlink:href="#dirArrow" transform="rotate(270) translate(-36 17)" onmousedown="handlePan(-1,0)">
                  <use xlink:href="#rim" fill="#404040">
                        <set attributeName="fill" to="#808080" begin="arrowLeft.mouseover" end="arrowLeft.mouseout"/>
                  </use>
                  <path fill="none" stroke="white" stroke-width="1.5" d="M0,-3.0v7 M-2.5,-0.5L0,-3.0L2.5,-0.5"/>
                </g>
        </g>
        <svg viewBox="0 0 15 15" width="100%" height="30px" preserveAspectRatio="xMaxYMin meet">
         <g id="arrow_out" transform="scale(0.3 0.3)">
          <a xlink:href="substitution_8h__incl_org.svg" target="_base">
           <rect id="button" ry="5" rx="5" y="6" x="6" height="38" width="38"
                fill="#f2f5e9" fill-opacity="0.5" stroke="#606060" stroke-width="1.0"/>
           <path id="arrow"
             d="M 11.500037,31.436501 C 11.940474,20.09759 22.043105,11.32322 32.158766,21.979434 L 37.068811,17.246167 C 37.068811,17.246167 37.088388,32 37.088388,32 L 22.160133,31.978069 C 22.160133,31.978069 26.997745,27.140456 26.997745,27.140456 C 18.528582,18.264221 13.291696,25.230495 11.500037,31.436501 z"
             style="fill:#404040;"/>
          </a>
         </g>
        </svg>
</svg>
