<?xml version="1.0" encoding="UTF-8" standalone="no"?>
<!DOCTYPE svg PUBLIC "-//W3C//DTD SVG 1.1//EN"
 "http://www.w3.org/Graphics/SVG/1.1/DTD/svg11.dtd">
<!-- Generated by graphviz version 2.38.0 (20140413.2041)
 -->
<!-- Title: substitution.cc Pages: 1 -->
<svg width="2307pt" height="330pt"
 viewBox="0.00 0.00 2306.56 330.00" xmlns="http://www.w3.org/2000/svg" xmlns:xlink="http://www.w3.org/1999/xlink">
<g id="graph0" class="graph" transform="scale(1 1) rotate(0) translate(4 326)">
<title>substitution.cc</title>
<polygon fill="white" stroke="none" points="-4,4 -4,-326 2302.56,-326 2302.56,4 -4,4"/>
<!-- Node1 -->
<g id="node1" class="node"><title>Node1</title>
<polygon fill="#bfbfbf" stroke="black" points="1605.56,-302.5 1605.56,-321.5 1691.56,-321.5 1691.56,-302.5 1605.56,-302.5"/>
<text text-anchor="middle" x="1648.56" y="-309.5" font-family="Helvetica,sans-Serif" font-size="10.00">substitution.cc</text>
</g>
<!-- Node2 -->
<g id="node2" class="node"><title>Node2</title>
<g id="a_node2"><a xlink:href="substitution_8h.xhtml" target="_top" xlink:title="The MEF Substitution constructs. ">
<polygon fill="white" stroke="black" points="352.557,-246.5 352.557,-265.5 434.557,-265.5 434.557,-246.5 352.557,-246.5"/>
<text text-anchor="middle" x="393.557" y="-253.5" font-family="Helvetica,sans-Serif" font-size="10.00">substitution.h</text>
</a>
</g>
</g>
<!-- Node1&#45;&gt;Node2 -->
<g id="edge1" class="edge"><title>Node1&#45;&gt;Node2</title>
<path fill="none" stroke="midnightblue" d="M1605.36,-309.141C1414.93,-300.947 650.795,-268.068 444.888,-259.209"/>
<polygon fill="midnightblue" stroke="midnightblue" points="444.801,-255.702 434.66,-258.769 444.5,-262.695 444.801,-255.702"/>
</g>
<!-- Node18 -->
<g id="node18" class="node"><title>Node18</title>
<g id="a_node18"><a xlink:href="error_8h.xhtml" target="_top" xlink:title="Exceptions for SCRAM. ">
<polygon fill="white" stroke="black" points="1774.56,-73 1774.56,-92 1822.56,-92 1822.56,-73 1774.56,-73"/>
<text text-anchor="middle" x="1798.56" y="-80" font-family="Helvetica,sans-Serif" font-size="10.00">error.h</text>
</a>
</g>
</g>
<!-- Node1&#45;&gt;Node18 -->
<g id="edge51" class="edge"><title>Node1&#45;&gt;Node18</title>
<path fill="none" stroke="midnightblue" d="M1667.46,-302.335C1696.82,-287.799 1752.77,-255.55 1779.56,-210 1799.56,-175.98 1800.95,-128.237 1799.93,-102.214"/>
<polygon fill="midnightblue" stroke="midnightblue" points="1803.42,-101.993 1799.37,-92.2037 1796.43,-102.383 1803.42,-101.993"/>
</g>
<!-- Node33 -->
<g id="node33" class="node"><title>Node33</title>
<g id="a_node33"><a xlink:href="algorithm_8h.xhtml" target="_top" xlink:title="Helpful algorithm facilities as an extension to the STL or Boost. ">
<polygon fill="white" stroke="black" points="1604.06,-246.5 1604.06,-265.5 1693.06,-265.5 1693.06,-246.5 1604.06,-246.5"/>
<text text-anchor="middle" x="1648.56" y="-253.5" font-family="Helvetica,sans-Serif" font-size="10.00">ext/algorithm.h</text>
</a>
</g>
</g>
<!-- Node1&#45;&gt;Node33 -->
<g id="edge52" class="edge"><title>Node1&#45;&gt;Node33</title>
<path fill="none" stroke="midnightblue" d="M1648.56,-302.083C1648.56,-295.006 1648.56,-284.861 1648.56,-275.986"/>
<polygon fill="midnightblue" stroke="midnightblue" points="1652.06,-275.751 1648.56,-265.751 1645.06,-275.751 1652.06,-275.751"/>
</g>
<!-- Node3 -->
<g id="node3" class="node"><title>Node3</title>
<polygon fill="white" stroke="#bfbfbf" points="326.057,-73 326.057,-92 383.057,-92 383.057,-73 326.057,-73"/>
<text text-anchor="middle" x="354.557" y="-80" font-family="Helvetica,sans-Serif" font-size="10.00">memory</text>
</g>
<!-- Node2&#45;&gt;Node3 -->
<g id="edge2" class="edge"><title>Node2&#45;&gt;Node3</title>
<path fill="none" stroke="midnightblue" d="M391.57,-246.26C385.493,-219.536 367.069,-138.517 358.733,-101.862"/>
<polygon fill="midnightblue" stroke="midnightblue" points="362.125,-100.994 356.495,-92.0194 355.299,-102.547 362.125,-100.994"/>
</g>
<!-- Node4 -->
<g id="node4" class="node"><title>Node4</title>
<polygon fill="white" stroke="#bfbfbf" points="1515.06,-73 1515.06,-92 1570.06,-92 1570.06,-73 1515.06,-73"/>
<text text-anchor="middle" x="1542.56" y="-80" font-family="Helvetica,sans-Serif" font-size="10.00">optional</text>
</g>
<!-- Node2&#45;&gt;Node4 -->
<g id="edge3" class="edge"><title>Node2&#45;&gt;Node4</title>
<path fill="none" stroke="midnightblue" d="M434.875,-254.065C628.311,-249.325 1438.61,-225.313 1523.56,-154 1538.55,-141.418 1542.37,-118.374 1543.04,-102.061"/>
<polygon fill="midnightblue" stroke="midnightblue" points="1546.54,-102.075 1543.1,-92.0538 1539.54,-102.032 1546.54,-102.075"/>
</g>
<!-- Node5 -->
<g id="node5" class="node"><title>Node5</title>
<polygon fill="white" stroke="#bfbfbf" points="19.5575,-134.5 19.5575,-153.5 69.5575,-153.5 69.5575,-134.5 19.5575,-134.5"/>
<text text-anchor="middle" x="44.5575" y="-141.5" font-family="Helvetica,sans-Serif" font-size="10.00">variant</text>
</g>
<!-- Node2&#45;&gt;Node5 -->
<g id="edge4" class="edge"><title>Node2&#45;&gt;Node5</title>
<path fill="none" stroke="midnightblue" d="M366.462,-246.46C303.877,-226.734 149.304,-178.015 79.6205,-156.051"/>
<polygon fill="midnightblue" stroke="midnightblue" points="80.566,-152.68 69.9763,-153.012 78.4617,-159.356 80.566,-152.68"/>
</g>
<!-- Node6 -->
<g id="node6" class="node"><title>Node6</title>
<polygon fill="white" stroke="#bfbfbf" points="25.0575,-6 25.0575,-25 72.0575,-25 72.0575,-6 25.0575,-6"/>
<text text-anchor="middle" x="48.5575" y="-13" font-family="Helvetica,sans-Serif" font-size="10.00">vector</text>
</g>
<!-- Node2&#45;&gt;Node6 -->
<g id="edge5" class="edge"><title>Node2&#45;&gt;Node6</title>
<path fill="none" stroke="midnightblue" d="M352.408,-250.594C262.04,-239.96 51.0548,-209.577 10.5575,-154 -16.5677,-116.775 15.7733,-61.0686 35.4952,-33.3793"/>
<polygon fill="midnightblue" stroke="midnightblue" points="38.4636,-35.2516 41.5955,-25.1302 32.8355,-31.0894 38.4636,-35.2516"/>
</g>
<!-- Node7 -->
<g id="node7" class="node"><title>Node7</title>
<g id="a_node7"><a xlink:href="element_8h.xhtml" target="_top" xlink:title="Base/mixin classes, structs, and properties common to all MEF classes/constructs. ...">
<polygon fill="white" stroke="black" points="822.057,-134.5 822.057,-153.5 887.057,-153.5 887.057,-134.5 822.057,-134.5"/>
<text text-anchor="middle" x="854.557" y="-141.5" font-family="Helvetica,sans-Serif" font-size="10.00">element.h</text>
</a>
</g>
</g>
<!-- Node2&#45;&gt;Node7 -->
<g id="edge6" class="edge"><title>Node2&#45;&gt;Node7</title>
<path fill="none" stroke="midnightblue" d="M429.348,-246.46C513.17,-226.459 721.912,-176.651 812.026,-155.149"/>
<polygon fill="midnightblue" stroke="midnightblue" points="812.988,-158.517 821.902,-152.792 811.363,-151.709 812.988,-158.517"/>
</g>
<!-- Node30 -->
<g id="node30" class="node"><title>Node30</title>
<g id="a_node30"><a xlink:href="event_8h.xhtml" target="_top" xlink:title="Contains event classes for fault trees. ">
<polygon fill="white" stroke="black" points="312.057,-190.5 312.057,-209.5 365.057,-209.5 365.057,-190.5 312.057,-190.5"/>
<text text-anchor="middle" x="338.557" y="-197.5" font-family="Helvetica,sans-Serif" font-size="10.00">event.h</text>
</a>
</g>
</g>
<!-- Node2&#45;&gt;Node30 -->
<g id="edge35" class="edge"><title>Node2&#45;&gt;Node30</title>
<path fill="none" stroke="midnightblue" d="M384.475,-246.083C376.386,-238.141 364.362,-226.335 354.647,-216.797"/>
<polygon fill="midnightblue" stroke="midnightblue" points="357.058,-214.26 347.471,-209.751 352.154,-219.254 357.058,-214.26"/>
</g>
<!-- Node7&#45;&gt;Node3 -->
<g id="edge9" class="edge"><title>Node7&#45;&gt;Node3</title>
<path fill="none" stroke="midnightblue" d="M821.866,-142.797C745.607,-141.68 550.44,-135.102 392.557,-98 389.561,-97.2958 386.483,-96.411 383.438,-95.4274"/>
<polygon fill="midnightblue" stroke="midnightblue" points="384.561,-92.1119 373.966,-92.0498 382.21,-98.7052 384.561,-92.1119"/>
</g>
<!-- Node7&#45;&gt;Node4 -->
<g id="edge10" class="edge"><title>Node7&#45;&gt;Node4</title>
<path fill="none" stroke="midnightblue" d="M887.303,-141.792C978.648,-138.16 1243.9,-125.829 1462.56,-98 1476.37,-96.2423 1491.41,-93.6866 1504.69,-91.2087"/>
<polygon fill="midnightblue" stroke="midnightblue" points="1505.74,-94.5718 1514.9,-89.2549 1504.42,-87.6965 1505.74,-94.5718"/>
</g>
<!-- Node7&#45;&gt;Node6 -->
<g id="edge14" class="edge"><title>Node7&#45;&gt;Node6</title>
<path fill="none" stroke="midnightblue" d="M821.913,-143.402C700.981,-144.507 279.08,-144.847 154.557,-98 117.296,-83.9818 82.3868,-52.169 63.4009,-32.6949"/>
<polygon fill="midnightblue" stroke="midnightblue" points="65.7018,-30.035 56.2786,-25.1921 60.625,-34.8544 65.7018,-30.035"/>
</g>
<!-- Node8 -->
<g id="node8" class="node"><title>Node8</title>
<polygon fill="white" stroke="#bfbfbf" points="259.057,-73 259.057,-92 308.057,-92 308.057,-73 259.057,-73"/>
<text text-anchor="middle" x="283.557" y="-80" font-family="Helvetica,sans-Serif" font-size="10.00">cstdint</text>
</g>
<!-- Node7&#45;&gt;Node8 -->
<g id="edge7" class="edge"><title>Node7&#45;&gt;Node8</title>
<path fill="none" stroke="midnightblue" d="M821.953,-141.682C720.781,-137.372 413.193,-122.544 316.557,-98 314.255,-97.4151 311.909,-96.6847 309.584,-95.8649"/>
<polygon fill="midnightblue" stroke="midnightblue" points="310.887,-92.6168 300.304,-92.1348 308.277,-99.1118 310.887,-92.6168"/>
</g>
<!-- Node9 -->
<g id="node9" class="node"><title>Node9</title>
<polygon fill="white" stroke="#bfbfbf" points="1046.06,-73 1046.06,-92 1109.06,-92 1109.06,-73 1046.06,-73"/>
<text text-anchor="middle" x="1077.56" y="-80" font-family="Helvetica,sans-Serif" font-size="10.00">functional</text>
</g>
<!-- Node7&#45;&gt;Node9 -->
<g id="edge8" class="edge"><title>Node7&#45;&gt;Node9</title>
<path fill="none" stroke="midnightblue" d="M887.365,-135.902C924.009,-127.741 984.957,-113.464 1036.56,-98 1039.34,-97.1669 1042.21,-96.2571 1045.08,-95.3124"/>
<polygon fill="midnightblue" stroke="midnightblue" points="1046.37,-98.5697 1054.7,-92.0268 1044.11,-91.945 1046.37,-98.5697"/>
</g>
<!-- Node10 -->
<g id="node10" class="node"><title>Node10</title>
<polygon fill="white" stroke="#bfbfbf" points="1426.56,-6 1426.56,-25 1470.56,-25 1470.56,-6 1426.56,-6"/>
<text text-anchor="middle" x="1448.56" y="-13" font-family="Helvetica,sans-Serif" font-size="10.00">string</text>
</g>
<!-- Node7&#45;&gt;Node10 -->
<g id="edge11" class="edge"><title>Node7&#45;&gt;Node10</title>
<path fill="none" stroke="midnightblue" d="M887.257,-142.655C1002.97,-141.139 1388.31,-133.446 1429.56,-98 1447.43,-82.636 1450.28,-54.0106 1449.97,-35.1044"/>
<polygon fill="midnightblue" stroke="midnightblue" points="1453.46,-34.8548 1449.5,-25.0316 1446.47,-35.1861 1453.46,-34.8548"/>
</g>
<!-- Node11 -->
<g id="node11" class="node"><title>Node11</title>
<polygon fill="white" stroke="#bfbfbf" points="1127.06,-73 1127.06,-92 1196.06,-92 1196.06,-73 1127.06,-73"/>
<text text-anchor="middle" x="1161.56" y="-80" font-family="Helvetica,sans-Serif" font-size="10.00">string_view</text>
</g>
<!-- Node7&#45;&gt;Node11 -->
<g id="edge12" class="edge"><title>Node7&#45;&gt;Node11</title>
<path fill="none" stroke="midnightblue" d="M887.271,-138.997C937.331,-132.515 1035.74,-118.36 1117.56,-98 1120.94,-97.1587 1124.43,-96.1871 1127.91,-95.1532"/>
<polygon fill="midnightblue" stroke="midnightblue" points="1129.05,-98.4651 1137.54,-92.1315 1126.95,-91.7863 1129.05,-98.4651"/>
</g>
<!-- Node12 -->
<g id="node12" class="node"><title>Node12</title>
<polygon fill="white" stroke="#bfbfbf" points="1214.56,-73 1214.56,-92 1282.56,-92 1282.56,-73 1214.56,-73"/>
<text text-anchor="middle" x="1248.56" y="-80" font-family="Helvetica,sans-Serif" font-size="10.00">type_traits</text>
</g>
<!-- Node7&#45;&gt;Node12 -->
<g id="edge13" class="edge"><title>Node7&#45;&gt;Node12</title>
<path fill="none" stroke="midnightblue" d="M887.249,-140.884C949.6,-136.389 1089.55,-124.094 1204.56,-98 1208.22,-97.168 1212.02,-96.1564 1215.77,-95.0584"/>
<polygon fill="midnightblue" stroke="midnightblue" points="1217,-98.3418 1225.5,-92.0145 1214.91,-91.6614 1217,-98.3418"/>
</g>
<!-- Node13 -->
<g id="node13" class="node"><title>Node13</title>
<polygon fill="white" stroke="#bfbfbf" points="1300.56,-67.5 1300.56,-97.5 1420.56,-97.5 1420.56,-67.5 1300.56,-67.5"/>
<text text-anchor="start" x="1308.56" y="-85.5" font-family="Helvetica,sans-Serif" font-size="10.00">boost/iterator/iterator</text>
<text text-anchor="middle" x="1360.56" y="-74.5" font-family="Helvetica,sans-Serif" font-size="10.00">_facade.hpp</text>
</g>
<!-- Node7&#45;&gt;Node13 -->
<g id="edge15" class="edge"><title>Node7&#45;&gt;Node13</title>
<path fill="none" stroke="midnightblue" d="M887.326,-140.802C958.694,-135.764 1133.68,-122.048 1290.14,-98.1162"/>
<polygon fill="midnightblue" stroke="midnightblue" points="1291.07,-101.514 1300.41,-96.525 1290,-94.5962 1291.07,-101.514"/>
</g>
<!-- Node14 -->
<g id="node14" class="node"><title>Node14</title>
<polygon fill="white" stroke="#bfbfbf" points="585.557,-67.5 585.557,-97.5 725.557,-97.5 725.557,-67.5 585.557,-67.5"/>
<text text-anchor="start" x="593.557" y="-85.5" font-family="Helvetica,sans-Serif" font-size="10.00">boost/multi_index/hashed</text>
<text text-anchor="middle" x="655.557" y="-74.5" font-family="Helvetica,sans-Serif" font-size="10.00">_index.hpp</text>
</g>
<!-- Node7&#45;&gt;Node14 -->
<g id="edge16" class="edge"><title>Node7&#45;&gt;Node14</title>
<path fill="none" stroke="midnightblue" d="M826.046,-134.475C796.449,-125.626 749.367,-111.549 712.173,-100.428"/>
<polygon fill="midnightblue" stroke="midnightblue" points="713.041,-97.0344 702.458,-97.523 711.036,-103.741 713.041,-97.0344"/>
</g>
<!-- Node15 -->
<g id="node15" class="node"><title>Node15</title>
<polygon fill="white" stroke="#bfbfbf" points="743.557,-67.5 743.557,-97.5 873.557,-97.5 873.557,-67.5 743.557,-67.5"/>
<text text-anchor="start" x="751.557" y="-85.5" font-family="Helvetica,sans-Serif" font-size="10.00">boost/multi_index/mem</text>
<text text-anchor="middle" x="808.557" y="-74.5" font-family="Helvetica,sans-Serif" font-size="10.00">_fun.hpp</text>
</g>
<!-- Node7&#45;&gt;Node15 -->
<g id="edge17" class="edge"><title>Node7&#45;&gt;Node15</title>
<path fill="none" stroke="midnightblue" d="M847.967,-134.475C842.144,-126.944 833.394,-115.626 825.617,-105.566"/>
<polygon fill="midnightblue" stroke="midnightblue" points="828.284,-103.294 819.399,-97.523 822.746,-107.575 828.284,-103.294"/>
</g>
<!-- Node16 -->
<g id="node16" class="node"><title>Node16</title>
<polygon fill="white" stroke="#bfbfbf" points="853.557,-6 853.557,-25 1025.56,-25 1025.56,-6 853.557,-6"/>
<text text-anchor="middle" x="939.557" y="-13" font-family="Helvetica,sans-Serif" font-size="10.00">boost/multi_index_container.hpp</text>
</g>
<!-- Node7&#45;&gt;Node16 -->
<g id="edge18" class="edge"><title>Node7&#45;&gt;Node16</title>
<path fill="none" stroke="midnightblue" d="M860.4,-134.305C874.29,-113.633 909.5,-61.2323 927.921,-33.8176"/>
<polygon fill="midnightblue" stroke="midnightblue" points="931.002,-35.508 933.674,-25.2557 925.192,-31.6039 931.002,-35.508"/>
</g>
<!-- Node17 -->
<g id="node17" class="node"><title>Node17</title>
<polygon fill="white" stroke="#bfbfbf" points="280.557,-6 280.557,-25 408.557,-25 408.557,-6 280.557,-6"/>
<text text-anchor="middle" x="344.557" y="-13" font-family="Helvetica,sans-Serif" font-size="10.00">boost/noncopyable.hpp</text>
</g>
<!-- Node7&#45;&gt;Node17 -->
<g id="edge19" class="edge"><title>Node7&#45;&gt;Node17</title>
<path fill="none" stroke="midnightblue" d="M821.937,-140.14C769.465,-135.002 663.401,-122.398 576.557,-98 541.437,-88.1332 534.823,-79.5151 500.557,-67 460.867,-52.5035 414.756,-37.8399 383.015,-28.0766"/>
<polygon fill="midnightblue" stroke="midnightblue" points="383.827,-24.665 373.241,-25.0854 381.779,-31.3586 383.827,-24.665"/>
</g>
<!-- Node7&#45;&gt;Node18 -->
<g id="edge20" class="edge"><title>Node7&#45;&gt;Node18</title>
<path fill="none" stroke="midnightblue" d="M887.393,-141.003C989.697,-134.772 1311.8,-115.081 1578.56,-98 1644.37,-93.7858 1721.25,-88.6762 1764.49,-85.7853"/>
<polygon fill="midnightblue" stroke="midnightblue" points="1764.73,-89.2772 1774.47,-85.1172 1764.26,-82.2928 1764.73,-89.2772"/>
</g>
<!-- Node25 -->
<g id="node25" class="node"><title>Node25</title>
<g id="a_node25"><a xlink:href="linear__set_8h.xhtml" target="_top" xlink:title="Implementation of a vector&#45;based set for a small number of entries. ">
<polygon fill="white" stroke="black" points="401.557,-73 401.557,-92 491.557,-92 491.557,-73 401.557,-73"/>
<text text-anchor="middle" x="446.557" y="-80" font-family="Helvetica,sans-Serif" font-size="10.00">ext/linear_set.h</text>
</a>
</g>
</g>
<!-- Node7&#45;&gt;Node25 -->
<g id="edge28" class="edge"><title>Node7&#45;&gt;Node25</title>
<path fill="none" stroke="midnightblue" d="M821.864,-138.321C765.189,-130.198 645.03,-112.925 543.557,-98 530.133,-96.0254 515.668,-93.8752 502.11,-91.8499"/>
<polygon fill="midnightblue" stroke="midnightblue" points="502.359,-88.3483 491.951,-90.3306 501.323,-95.2713 502.359,-88.3483"/>
</g>
<!-- Node29 -->
<g id="node29" class="node"><title>Node29</title>
<g id="a_node29"><a xlink:href="multi__index_8h.xhtml" target="_top" xlink:title="Helper functions to boost multi_index_container. ">
<polygon fill="white" stroke="black" points="929.557,-73 929.557,-92 1027.56,-92 1027.56,-73 929.557,-73"/>
<text text-anchor="middle" x="978.557" y="-80" font-family="Helvetica,sans-Serif" font-size="10.00">ext/multi_index.h</text>
</a>
</g>
</g>
<!-- Node7&#45;&gt;Node29 -->
<g id="edge33" class="edge"><title>Node7&#45;&gt;Node29</title>
<path fill="none" stroke="midnightblue" d="M872.324,-134.475C893.042,-124.534 927.51,-107.995 951.546,-96.461"/>
<polygon fill="midnightblue" stroke="midnightblue" points="953.323,-99.4908 960.824,-92.0091 950.294,-93.1797 953.323,-99.4908"/>
</g>
<!-- Node18&#45;&gt;Node10 -->
<g id="edge22" class="edge"><title>Node18&#45;&gt;Node10</title>
<path fill="none" stroke="midnightblue" d="M1774.43,-79.9941C1720.5,-76.1313 1586.51,-63.7645 1479.56,-31 1477.68,-30.4257 1475.78,-29.7585 1473.88,-29.032"/>
<polygon fill="midnightblue" stroke="midnightblue" points="1475.2,-25.7897 1464.63,-25.0592 1472.43,-32.2216 1475.2,-25.7897"/>
</g>
<!-- Node19 -->
<g id="node19" class="node"><title>Node19</title>
<polygon fill="white" stroke="#bfbfbf" points="2071.06,-6 2071.06,-25 2134.06,-25 2134.06,-6 2071.06,-6"/>
<text text-anchor="middle" x="2102.56" y="-13" font-family="Helvetica,sans-Serif" font-size="10.00">exception</text>
</g>
<!-- Node18&#45;&gt;Node19 -->
<g id="edge21" class="edge"><title>Node18&#45;&gt;Node19</title>
<path fill="none" stroke="midnightblue" d="M1822.77,-78.0973C1869.45,-71.2625 1974.95,-54.4862 2061.56,-31 2064.52,-30.196 2067.58,-29.2812 2070.63,-28.3113"/>
<polygon fill="midnightblue" stroke="midnightblue" points="2071.83,-31.5992 2080.19,-25.0931 2069.6,-24.9646 2071.83,-31.5992"/>
</g>
<!-- Node20 -->
<g id="node20" class="node"><title>Node20</title>
<polygon fill="white" stroke="#bfbfbf" points="2152.56,-6 2152.56,-25 2298.56,-25 2298.56,-6 2152.56,-6"/>
<text text-anchor="middle" x="2225.56" y="-13" font-family="Helvetica,sans-Serif" font-size="10.00">boost/current_function.hpp</text>
</g>
<!-- Node18&#45;&gt;Node20 -->
<g id="edge23" class="edge"><title>Node18&#45;&gt;Node20</title>
<path fill="none" stroke="midnightblue" d="M1822.86,-78.196C1879.26,-70.4706 2023.44,-50.4067 2143.56,-31 2151.76,-29.6741 2160.42,-28.2124 2168.91,-26.7426"/>
<polygon fill="midnightblue" stroke="midnightblue" points="2169.52,-30.1899 2178.77,-25.0213 2168.31,-23.2943 2169.52,-30.1899"/>
</g>
<!-- Node21 -->
<g id="node21" class="node"><title>Node21</title>
<polygon fill="white" stroke="#bfbfbf" points="1488.56,-6 1488.56,-25 1652.56,-25 1652.56,-6 1488.56,-6"/>
<text text-anchor="middle" x="1570.56" y="-13" font-family="Helvetica,sans-Serif" font-size="10.00">boost/exception/exception.hpp</text>
</g>
<!-- Node18&#45;&gt;Node21 -->
<g id="edge24" class="edge"><title>Node18&#45;&gt;Node21</title>
<path fill="none" stroke="midnightblue" d="M1774.16,-74.5439C1734.99,-63.3766 1657.69,-41.3397 1610.42,-27.8639"/>
<polygon fill="midnightblue" stroke="midnightblue" points="1611.1,-24.4194 1600.53,-25.0435 1609.18,-31.1511 1611.1,-24.4194"/>
</g>
<!-- Node22 -->
<g id="node22" class="node"><title>Node22</title>
<polygon fill="white" stroke="#bfbfbf" points="1670.56,-6 1670.56,-25 1804.56,-25 1804.56,-6 1670.56,-6"/>
<text text-anchor="middle" x="1737.56" y="-13" font-family="Helvetica,sans-Serif" font-size="10.00">boost/exception/info.hpp</text>
</g>
<!-- Node18&#45;&gt;Node22 -->
<g id="edge25" class="edge"><title>Node18&#45;&gt;Node22</title>
<path fill="none" stroke="midnightblue" d="M1790.33,-72.7338C1780.73,-62.5004 1764.65,-45.3642 1752.75,-32.6924"/>
<polygon fill="midnightblue" stroke="midnightblue" points="1755.05,-30.0241 1745.65,-25.1273 1749.94,-34.8143 1755.05,-30.0241"/>
</g>
<!-- Node23 -->
<g id="node23" class="node"><title>Node23</title>
<polygon fill="white" stroke="#bfbfbf" points="1823.06,-0.5 1823.06,-30.5 1936.06,-30.5 1936.06,-0.5 1823.06,-0.5"/>
<text text-anchor="start" x="1831.06" y="-18.5" font-family="Helvetica,sans-Serif" font-size="10.00">boost/exception/info</text>
<text text-anchor="middle" x="1879.56" y="-7.5" font-family="Helvetica,sans-Serif" font-size="10.00">_tuple.hpp</text>
</g>
<!-- Node18&#45;&gt;Node23 -->
<g id="edge26" class="edge"><title>Node18&#45;&gt;Node23</title>
<path fill="none" stroke="midnightblue" d="M1809.48,-72.7338C1820.85,-63.6115 1839.05,-49.0038 1854.06,-36.9631"/>
<polygon fill="midnightblue" stroke="midnightblue" points="1856.39,-39.5775 1862,-30.589 1852.01,-34.118 1856.39,-39.5775"/>
</g>
<!-- Node24 -->
<g id="node24" class="node"><title>Node24</title>
<g id="a_node24"><a xlink:href="source__info_8h.xhtml" target="_top" xlink:title="Helper facilities to get source file information. ">
<polygon fill="white" stroke="black" points="1954.56,-6 1954.56,-25 2052.56,-25 2052.56,-6 1954.56,-6"/>
<text text-anchor="middle" x="2003.56" y="-13" font-family="Helvetica,sans-Serif" font-size="10.00">ext/source_info.h</text>
</a>
</g>
</g>
<!-- Node18&#45;&gt;Node24 -->
<g id="edge27" class="edge"><title>Node18&#45;&gt;Node24</title>
<path fill="none" stroke="midnightblue" d="M1822.88,-73.7884C1858.54,-62.48 1925.3,-41.3137 1966.92,-28.1166"/>
<polygon fill="midnightblue" stroke="midnightblue" points="1968.2,-31.3836 1976.67,-25.0247 1966.08,-24.7109 1968.2,-31.3836"/>
</g>
<!-- Node25&#45;&gt;Node6 -->
<g id="edge32" class="edge"><title>Node25&#45;&gt;Node6</title>
<path fill="none" stroke="midnightblue" d="M417.333,-72.9705C409.055,-70.78 399.999,-68.5946 391.557,-67 255.264,-41.2554 215.426,-67.3017 81.5575,-31 79.2642,-30.3781 76.9254,-29.6218 74.6048,-28.7845"/>
<polygon fill="midnightblue" stroke="midnightblue" points="75.9149,-25.539 65.3325,-25.0243 73.2842,-32.0259 75.9149,-25.539"/>
</g>
<!-- Node26 -->
<g id="node26" class="node"><title>Node26</title>
<polygon fill="white" stroke="#bfbfbf" points="426.557,-6 426.557,-25 488.557,-25 488.557,-6 426.557,-6"/>
<text text-anchor="middle" x="457.557" y="-13" font-family="Helvetica,sans-Serif" font-size="10.00">algorithm</text>
</g>
<!-- Node25&#45;&gt;Node26 -->
<g id="edge29" class="edge"><title>Node25&#45;&gt;Node26</title>
<path fill="none" stroke="midnightblue" d="M448.041,-72.7338C449.657,-63.1826 452.291,-47.6183 454.379,-35.2829"/>
<polygon fill="midnightblue" stroke="midnightblue" points="457.88,-35.5711 456.097,-25.1273 450.978,-34.4031 457.88,-35.5711"/>
</g>
<!-- Node27 -->
<g id="node27" class="node"><title>Node27</title>
<polygon fill="white" stroke="#bfbfbf" points="507.057,-6 507.057,-25 584.057,-25 584.057,-6 507.057,-6"/>
<text text-anchor="middle" x="545.557" y="-13" font-family="Helvetica,sans-Serif" font-size="10.00">initializer_list</text>
</g>
<!-- Node25&#45;&gt;Node27 -->
<g id="edge30" class="edge"><title>Node25&#45;&gt;Node27</title>
<path fill="none" stroke="midnightblue" d="M459.909,-72.7338C476.312,-61.9644 504.358,-43.55 523.87,-30.7395"/>
<polygon fill="midnightblue" stroke="midnightblue" points="525.979,-33.5415 532.417,-25.1273 522.137,-27.69 525.979,-33.5415"/>
</g>
<!-- Node28 -->
<g id="node28" class="node"><title>Node28</title>
<polygon fill="white" stroke="#bfbfbf" points="220.557,-6 220.557,-25 262.557,-25 262.557,-6 220.557,-6"/>
<text text-anchor="middle" x="241.557" y="-13" font-family="Helvetica,sans-Serif" font-size="10.00">utility</text>
</g>
<!-- Node25&#45;&gt;Node28 -->
<g id="edge31" class="edge"><title>Node25&#45;&gt;Node28</title>
<path fill="none" stroke="midnightblue" d="M414.677,-72.9969C371.762,-61.4306 297.767,-41.0328 271.557,-31 270.173,-30.4701 268.765,-29.9009 267.353,-29.3058"/>
<polygon fill="midnightblue" stroke="midnightblue" points="268.709,-26.0778 258.156,-25.1397 265.82,-32.4542 268.709,-26.0778"/>
</g>
<!-- Node29&#45;&gt;Node16 -->
<g id="edge34" class="edge"><title>Node29&#45;&gt;Node16</title>
<path fill="none" stroke="midnightblue" d="M973.298,-72.7338C967.333,-62.7928 957.46,-46.3377 949.931,-33.7892"/>
<polygon fill="midnightblue" stroke="midnightblue" points="952.88,-31.9015 944.734,-25.1273 946.878,-35.503 952.88,-31.9015"/>
</g>
<!-- Node30&#45;&gt;Node3 -->
<g id="edge38" class="edge"><title>Node30&#45;&gt;Node3</title>
<path fill="none" stroke="midnightblue" d="M339.76,-190.319C342.331,-171.757 348.415,-127.839 351.929,-102.473"/>
<polygon fill="midnightblue" stroke="midnightblue" points="355.436,-102.668 353.341,-92.282 348.502,-101.707 355.436,-102.668"/>
</g>
<!-- Node30&#45;&gt;Node4 -->
<g id="edge39" class="edge"><title>Node30&#45;&gt;Node4</title>
<path fill="none" stroke="midnightblue" d="M365.078,-198.672C533.434,-196.501 1447.92,-183.382 1498.56,-154 1518.11,-142.654 1530.21,-118.788 1536.66,-101.978"/>
<polygon fill="midnightblue" stroke="midnightblue" points="1540.1,-102.747 1540.1,-92.152 1533.49,-100.433 1540.1,-102.747"/>
</g>
<!-- Node30&#45;&gt;Node5 -->
<g id="edge42" class="edge"><title>Node30&#45;&gt;Node5</title>
<path fill="none" stroke="midnightblue" d="M312.041,-194.788C265.603,-187.308 166.596,-170.896 83.5575,-154 82.2935,-153.743 81.0078,-153.476 79.7101,-153.201"/>
<polygon fill="midnightblue" stroke="midnightblue" points="80.2086,-149.727 69.6908,-151.003 78.7082,-156.565 80.2086,-149.727"/>
</g>
<!-- Node30&#45;&gt;Node6 -->
<g id="edge43" class="edge"><title>Node30&#45;&gt;Node6</title>
<path fill="none" stroke="midnightblue" d="M311.859,-194.679C263.341,-185.484 160.225,-159.562 100.557,-98 81.9068,-78.7571 66.2932,-51.8149 57.1832,-34.2626"/>
<polygon fill="midnightblue" stroke="midnightblue" points="60.2165,-32.504 52.5971,-25.1423 53.9627,-35.6488 60.2165,-32.504"/>
</g>
<!-- Node30&#45;&gt;Node7 -->
<g id="edge44" class="edge"><title>Node30&#45;&gt;Node7</title>
<path fill="none" stroke="midnightblue" d="M365.213,-196.21C449.211,-187.42 708.908,-160.242 811.871,-149.467"/>
<polygon fill="midnightblue" stroke="midnightblue" points="812.33,-152.938 821.912,-148.416 811.602,-145.976 812.33,-152.938"/>
</g>
<!-- Node30&#45;&gt;Node8 -->
<g id="edge36" class="edge"><title>Node30&#45;&gt;Node8</title>
<path fill="none" stroke="midnightblue" d="M334.424,-190.319C325.465,-171.506 304.104,-126.648 292.108,-101.455"/>
<polygon fill="midnightblue" stroke="midnightblue" points="295.199,-99.8058 287.739,-92.282 288.879,-102.815 295.199,-99.8058"/>
</g>
<!-- Node30&#45;&gt;Node10 -->
<g id="edge40" class="edge"><title>Node30&#45;&gt;Node10</title>
<path fill="none" stroke="midnightblue" d="M365.143,-198.692C527.15,-196.547 1377.16,-181.353 1452.56,-98 1467.89,-81.0497 1462.31,-53.0944 1456.08,-34.7374"/>
<polygon fill="midnightblue" stroke="midnightblue" points="1459.29,-33.324 1452.5,-25.194 1452.74,-35.7861 1459.29,-33.324"/>
</g>
<!-- Node30&#45;&gt;Node27 -->
<g id="edge37" class="edge"><title>Node30&#45;&gt;Node27</title>
<path fill="none" stroke="midnightblue" d="M359.023,-190.389C392.196,-175.601 458.251,-142.61 500.557,-98 518.241,-79.353 531.318,-52.4298 538.688,-34.7043"/>
<polygon fill="midnightblue" stroke="midnightblue" points="542.099,-35.5985 542.53,-25.0124 535.591,-33.0188 542.099,-35.5985"/>
</g>
<!-- Node30&#45;&gt;Node28 -->
<g id="edge41" class="edge"><title>Node30&#45;&gt;Node28</title>
<path fill="none" stroke="midnightblue" d="M311.872,-193.39C269.694,-182.926 188.893,-156.016 154.557,-98 147.54,-86.1432 147.682,-78.9399 154.557,-67 158.039,-60.9541 191.069,-42.781 215.404,-29.9752"/>
<polygon fill="midnightblue" stroke="midnightblue" points="217.303,-32.9323 224.546,-25.2002 214.062,-26.7276 217.303,-32.9323"/>
</g>
<!-- Node31 -->
<g id="node31" class="node"><title>Node31</title>
<g id="a_node31"><a xlink:href="expression_8h.xhtml" target="_top" xlink:title="Provides the base class for all expressions and units for expression values. ">
<polygon fill="white" stroke="black" points="164.057,-73 164.057,-92 241.057,-92 241.057,-73 164.057,-73"/>
<text text-anchor="middle" x="202.557" y="-80" font-family="Helvetica,sans-Serif" font-size="10.00">expression.h</text>
</a>
</g>
</g>
<!-- Node30&#45;&gt;Node31 -->
<g id="edge45" class="edge"><title>Node30&#45;&gt;Node31</title>
<path fill="none" stroke="midnightblue" d="M328.335,-190.319C305.396,-170.837 249.568,-123.425 220.626,-98.8448"/>
<polygon fill="midnightblue" stroke="midnightblue" points="222.786,-96.0875 212.898,-92.282 218.255,-101.423 222.786,-96.0875"/>
</g>
<!-- Node31&#45;&gt;Node6 -->
<g id="edge48" class="edge"><title>Node31&#45;&gt;Node6</title>
<path fill="none" stroke="midnightblue" d="M181.523,-72.8601C157.346,-62.8975 116.501,-45.9675 81.5575,-31 80.1913,-30.4148 78.7945,-29.8134 77.3847,-29.2038"/>
<polygon fill="midnightblue" stroke="midnightblue" points="78.6406,-25.9333 68.075,-25.1476 75.8446,-32.3507 78.6406,-25.9333"/>
</g>
<!-- Node31&#45;&gt;Node17 -->
<g id="edge50" class="edge"><title>Node31&#45;&gt;Node17</title>
<path fill="none" stroke="midnightblue" d="M221.414,-72.8685C245.709,-61.7476 288.158,-42.3167 316.313,-29.4286"/>
<polygon fill="midnightblue" stroke="midnightblue" points="317.987,-32.5118 325.623,-25.1672 315.074,-26.147 317.987,-32.5118"/>
</g>
<!-- Node31&#45;&gt;Node26 -->
<g id="edge46" class="edge"><title>Node31&#45;&gt;Node26</title>
<path fill="none" stroke="midnightblue" d="M228.79,-72.9595C235.525,-70.8903 242.782,-68.7674 249.557,-67 323.447,-47.7256 344.158,-52.0612 417.557,-31 420.353,-30.1978 423.235,-29.2994 426.111,-28.3533"/>
<polygon fill="midnightblue" stroke="midnightblue" points="427.423,-31.6026 435.728,-25.0235 425.133,-24.9879 427.423,-31.6026"/>
</g>
<!-- Node31&#45;&gt;Node28 -->
<g id="edge47" class="edge"><title>Node31&#45;&gt;Node28</title>
<path fill="none" stroke="midnightblue" d="M207.817,-72.7338C213.782,-62.7928 223.655,-46.3377 231.184,-33.7892"/>
<polygon fill="midnightblue" stroke="midnightblue" points="234.237,-35.503 236.381,-25.1273 228.235,-31.9015 234.237,-35.503"/>
</g>
<!-- Node32 -->
<g id="node32" class="node"><title>Node32</title>
<polygon fill="white" stroke="#bfbfbf" points="90.5575,-0.5 90.5575,-30.5 202.557,-30.5 202.557,-0.5 90.5575,-0.5"/>
<text text-anchor="start" x="98.5575" y="-18.5" font-family="Helvetica,sans-Serif" font-size="10.00">boost/icl/continuous</text>
<text text-anchor="middle" x="146.557" y="-7.5" font-family="Helvetica,sans-Serif" font-size="10.00">_interval.hpp</text>
</g>
<!-- Node31&#45;&gt;Node32 -->
<g id="edge49" class="edge"><title>Node31&#45;&gt;Node32</title>
<path fill="none" stroke="midnightblue" d="M195.005,-72.7338C187.437,-63.9493 175.486,-50.0783 165.349,-38.3111"/>
<polygon fill="midnightblue" stroke="midnightblue" points="167.874,-35.8806 158.696,-30.589 162.571,-40.4496 167.874,-35.8806"/>
</g>
<!-- Node33&#45;&gt;Node26 -->
<g id="edge53" class="edge"><title>Node33&#45;&gt;Node26</title>
<path fill="none" stroke="midnightblue" d="M1641.18,-246.242C1634.2,-237.55 1623.87,-223.595 1617.56,-210 1589.81,-150.251 1630.24,-107.853 1578.56,-67 1531.42,-29.7367 556.559,-42.3795 497.557,-31 494.117,-30.3364 490.578,-29.4209 487.095,-28.3695"/>
<polygon fill="midnightblue" stroke="midnightblue" points="488.151,-25.032 477.557,-25.1434 485.908,-31.663 488.151,-25.032"/>
</g>
<!-- Node34 -->
<g id="node34" class="node"><title>Node34</title>
<polygon fill="white" stroke="#bfbfbf" points="1626.56,-190.5 1626.56,-209.5 1770.56,-209.5 1770.56,-190.5 1626.56,-190.5"/>
<text text-anchor="middle" x="1698.56" y="-197.5" font-family="Helvetica,sans-Serif" font-size="10.00">boost/range/algorithm.hpp</text>
</g>
<!-- Node33&#45;&gt;Node34 -->
<g id="edge54" class="edge"><title>Node33&#45;&gt;Node34</title>
<path fill="none" stroke="midnightblue" d="M1656.81,-246.083C1664.02,-238.298 1674.67,-226.801 1683.4,-217.367"/>
<polygon fill="midnightblue" stroke="midnightblue" points="1686.23,-219.467 1690.45,-209.751 1681.09,-214.711 1686.23,-219.467"/>
</g>
</g>
</svg>
