<?xml version="1.0" encoding="UTF-8" standalone="no"?>
<!DOCTYPE svg PUBLIC "-//W3C//DTD SVG 1.1//EN"
 "http://www.w3.org/Graphics/SVG/1.1/DTD/svg11.dtd">
<!-- Generated by graphviz version 2.38.0 (20140413.2041)
 -->
<!-- Title: xml_stream.h Pages: 1 -->
<!--zoomable 162 -->
<svg id="main" version="1.1" xmlns="http://www.w3.org/2000/svg" xmlns:xlink="http://www.w3.org/1999/xlink" xml:space="preserve" onload="init(evt)">
<style type="text/css"><![CDATA[
.edge:hover path { stroke: red; }
.edge:hover polygon { stroke: red; fill: red; }
]]></style>
<script type="text/javascript"><![CDATA[
var edges = document.getElementsByTagName('g');
if (edges && edges.length) {
  for (var i=0;i<edges.length;i++) {
    if (edges[i].id.substr(0,4)=='edge') {
      edges[i].setAttribute('class','edge');
    }
  }
}
]]></script>
        <defs>
                <circle id="rim" cx="0" cy="0" r="7"/>
                <circle id="rim2" cx="0" cy="0" r="3.5"/>
                <g id="zoomPlus">
                        <use xlink:href="#rim" fill="#404040">
                                <set attributeName="fill" to="#808080" begin="zoomplus.mouseover" end="zoomplus.mouseout"/>
                        </use>
                        <path d="M-4,0h8M0,-4v8" fill="none" stroke="white" stroke-width="1.5" pointer-events="none"/>
                </g>
                <g id="zoomMin">
                        <use xlink:href="#rim" fill="#404040">
                                <set attributeName="fill" to="#808080" begin="zoomminus.mouseover" end="zoomminus.mouseout"/>
                        </use>
                        <path d="M-4,0h8" fill="none" stroke="white" stroke-width="1.5" pointer-events="none"/>
                </g>
                <g id="dirArrow">
                        <path fill="none" stroke="white" stroke-width="1.5" d="M0,-3.0v7 M-2.5,-0.5L0,-3.0L2.5,-0.5"/>
                </g>
               <g id="resetDef">
                       <use xlink:href="#rim2" fill="#404040">
                               <set attributeName="fill" to="#808080" begin="reset.mouseover" end="reset.mouseout"/>
                       </use>
               </g>
        </defs>

<script type="text/javascript">
var viewWidth = 1003;
var viewHeight = 162;
var sectionId = 'dynsection-0';
</script>
<script xlink:href="svgpan.js"/>
<svg id="graph" class="graph">
<g id="viewport">
<title>xml_stream.h</title>
<polygon fill="white" stroke="none" points="-4,4 -4,-158 999,-158 999,4 -4,4"/>
<!-- Node1 -->
<g id="node1" class="node"><title>Node1</title>
<polygon fill="#bfbfbf" stroke="black" points="182.5,-134.5 182.5,-153.5 265.5,-153.5 265.5,-134.5 182.5,-134.5"/>
<text text-anchor="middle" x="224" y="-141.5" font-family="Helvetica,sans-Serif" font-size="10.00">xml_stream.h</text>
</g>
<!-- Node2 -->
<g id="node2" class="node"><title>Node2</title>
<polygon fill="white" stroke="#bfbfbf" points="0,-73 0,-92 52,-92 52,-73 0,-73"/>
<text text-anchor="middle" x="26" y="-80" font-family="Helvetica,sans-Serif" font-size="10.00">cassert</text>
</g>
<!-- Node1&#45;&gt;Node2 -->
<g id="edge1" class="edge"><title>Node1&#45;&gt;Node2</title>
<path fill="none" stroke="midnightblue" d="M187.999,-134.42C154.71,-126.168 104.033,-112.791 61,-98 59.0873,-97.3426 57.1292,-96.6339 55.164,-95.8958"/>
<polygon fill="midnightblue" stroke="midnightblue" points="56.0452,-92.4806 45.4587,-92.0603 53.4724,-98.9907 56.0452,-92.4806"/>
</g>
<!-- Node3 -->
<g id="node3" class="node"><title>Node3</title>
<polygon fill="white" stroke="#bfbfbf" points="70.5,-73 70.5,-92 115.5,-92 115.5,-73 70.5,-73"/>
<text text-anchor="middle" x="93" y="-80" font-family="Helvetica,sans-Serif" font-size="10.00">cstdio</text>
</g>
<!-- Node1&#45;&gt;Node3 -->
<g id="edge2" class="edge"><title>Node1&#45;&gt;Node3</title>
<path fill="none" stroke="midnightblue" d="M205.231,-134.475C183.149,-124.445 146.281,-107.7 120.861,-96.1546"/>
<polygon fill="midnightblue" stroke="midnightblue" points="122.287,-92.9579 111.734,-92.0091 119.392,-99.3313 122.287,-92.9579"/>
</g>
<!-- Node4 -->
<g id="node4" class="node"><title>Node4</title>
<polygon fill="white" stroke="#bfbfbf" points="134,-73 134,-92 196,-92 196,-73 134,-73"/>
<text text-anchor="middle" x="165" y="-80" font-family="Helvetica,sans-Serif" font-size="10.00">algorithm</text>
</g>
<!-- Node1&#45;&gt;Node4 -->
<g id="edge3" class="edge"><title>Node1&#45;&gt;Node4</title>
<path fill="none" stroke="midnightblue" d="M215.547,-134.475C206.434,-125.285 191.73,-110.456 180.524,-99.156"/>
<polygon fill="midnightblue" stroke="midnightblue" points="182.964,-96.6455 173.438,-92.0091 177.993,-101.574 182.964,-96.6455"/>
</g>
<!-- Node5 -->
<g id="node5" class="node"><title>Node5</title>
<polygon fill="white" stroke="#bfbfbf" points="123.5,-6 123.5,-25 186.5,-25 186.5,-6 123.5,-6"/>
<text text-anchor="middle" x="155" y="-13" font-family="Helvetica,sans-Serif" font-size="10.00">exception</text>
</g>
<!-- Node1&#45;&gt;Node5 -->
<g id="edge4" class="edge"><title>Node1&#45;&gt;Node5</title>
<path fill="none" stroke="midnightblue" d="M223.345,-134.478C221.91,-119.824 217.542,-89.2814 205,-67 197.359,-53.4264 185.094,-40.9587 174.624,-31.8073"/>
<polygon fill="midnightblue" stroke="midnightblue" points="176.655,-28.9431 166.735,-25.2214 172.169,-34.3168 176.655,-28.9431"/>
</g>
<!-- Node6 -->
<g id="node6" class="node"><title>Node6</title>
<polygon fill="white" stroke="#bfbfbf" points="205,-6 205,-25 249,-25 249,-6 205,-6"/>
<text text-anchor="middle" x="227" y="-13" font-family="Helvetica,sans-Serif" font-size="10.00">string</text>
</g>
<!-- Node1&#45;&gt;Node6 -->
<g id="edge5" class="edge"><title>Node1&#45;&gt;Node6</title>
<path fill="none" stroke="midnightblue" d="M227.6,-134.222C231.056,-125.285 236.033,-110.942 238,-98 241.277,-76.4385 236.727,-51.5914 232.524,-35.0562"/>
<polygon fill="midnightblue" stroke="midnightblue" points="235.804,-33.7873 229.77,-25.0791 229.057,-35.6499 235.804,-33.7873"/>
</g>
<!-- Node7 -->
<g id="node7" class="node"><title>Node7</title>
<polygon fill="white" stroke="#bfbfbf" points="391.5,-67.5 391.5,-97.5 518.5,-97.5 518.5,-67.5 391.5,-67.5"/>
<text text-anchor="start" x="399.5" y="-85.5" font-family="Helvetica,sans-Serif" font-size="10.00">boost/exception/errinfo</text>
<text text-anchor="middle" x="455" y="-74.5" font-family="Helvetica,sans-Serif" font-size="10.00">_errno.hpp</text>
</g>
<!-- Node1&#45;&gt;Node7 -->
<g id="edge6" class="edge"><title>Node1&#45;&gt;Node7</title>
<path fill="none" stroke="midnightblue" d="M257.097,-134.475C291.818,-125.532 347.27,-111.249 390.655,-100.074"/>
<polygon fill="midnightblue" stroke="midnightblue" points="391.747,-103.407 400.558,-97.523 390.001,-96.628 391.747,-103.407"/>
</g>
<!-- Node8 -->
<g id="node8" class="node"><title>Node8</title>
<g id="a_node8"><a xlink:href="error_8h.xhtml" target="_top" xlink:title="Exceptions for SCRAM. ">
<polygon fill="white" stroke="black" points="325,-73 325,-92 373,-92 373,-73 325,-73"/>
<text text-anchor="middle" x="349" y="-80" font-family="Helvetica,sans-Serif" font-size="10.00">error.h</text>
</a>
</g>
</g>
<!-- Node1&#45;&gt;Node8 -->
<g id="edge7" class="edge"><title>Node1&#45;&gt;Node8</title>
<path fill="none" stroke="midnightblue" d="M241.909,-134.475C262.887,-124.49 297.85,-107.848 322.093,-96.3075"/>
<polygon fill="midnightblue" stroke="midnightblue" points="323.599,-99.4673 331.124,-92.0091 320.59,-93.1468 323.599,-99.4673"/>
</g>
<!-- Node8&#45;&gt;Node5 -->
<g id="edge8" class="edge"><title>Node8&#45;&gt;Node5</title>
<path fill="none" stroke="midnightblue" d="M324.833,-73.6976C294.632,-63.9074 241.393,-46.5163 196,-31 193.562,-30.1667 191.045,-29.2978 188.515,-28.4178"/>
<polygon fill="midnightblue" stroke="midnightblue" points="189.413,-25.0241 178.819,-25.0193 187.098,-31.6301 189.413,-25.0241"/>
</g>
<!-- Node8&#45;&gt;Node6 -->
<g id="edge9" class="edge"><title>Node8&#45;&gt;Node6</title>
<path fill="none" stroke="midnightblue" d="M332.799,-72.8685C312.2,-61.8932 276.409,-42.8243 252.223,-29.9385"/>
<polygon fill="midnightblue" stroke="midnightblue" points="253.739,-26.7804 243.268,-25.1672 250.447,-32.9583 253.739,-26.7804"/>
</g>
<!-- Node9 -->
<g id="node9" class="node"><title>Node9</title>
<polygon fill="white" stroke="#bfbfbf" points="849,-6 849,-25 995,-25 995,-6 849,-6"/>
<text text-anchor="middle" x="922" y="-13" font-family="Helvetica,sans-Serif" font-size="10.00">boost/current_function.hpp</text>
</g>
<!-- Node8&#45;&gt;Node9 -->
<g id="edge10" class="edge"><title>Node8&#45;&gt;Node9</title>
<path fill="none" stroke="midnightblue" d="M365.403,-72.9997C370.584,-70.6706 376.416,-68.4033 382,-67 580.025,-17.2324 637.454,-56.8071 840,-31 849.163,-29.8326 858.859,-28.3447 868.253,-26.769"/>
<polygon fill="midnightblue" stroke="midnightblue" points="869.028,-30.1869 878.287,-25.0359 867.837,-23.2891 869.028,-30.1869"/>
</g>
<!-- Node10 -->
<g id="node10" class="node"><title>Node10</title>
<polygon fill="white" stroke="#bfbfbf" points="267,-6 267,-25 431,-25 431,-6 267,-6"/>
<text text-anchor="middle" x="349" y="-13" font-family="Helvetica,sans-Serif" font-size="10.00">boost/exception/exception.hpp</text>
</g>
<!-- Node8&#45;&gt;Node10 -->
<g id="edge11" class="edge"><title>Node8&#45;&gt;Node10</title>
<path fill="none" stroke="midnightblue" d="M349,-72.7338C349,-63.1826 349,-47.6183 349,-35.2829"/>
<polygon fill="midnightblue" stroke="midnightblue" points="352.5,-35.1273 349,-25.1273 345.5,-35.1273 352.5,-35.1273"/>
</g>
<!-- Node11 -->
<g id="node11" class="node"><title>Node11</title>
<polygon fill="white" stroke="#bfbfbf" points="449,-6 449,-25 583,-25 583,-6 449,-6"/>
<text text-anchor="middle" x="516" y="-13" font-family="Helvetica,sans-Serif" font-size="10.00">boost/exception/info.hpp</text>
</g>
<!-- Node8&#45;&gt;Node11 -->
<g id="edge12" class="edge"><title>Node8&#45;&gt;Node11</title>
<path fill="none" stroke="midnightblue" d="M368.121,-72.8912C372.651,-70.9092 377.48,-68.8431 382,-67 416.035,-53.1211 455.45,-38.4298 482.681,-28.4934"/>
<polygon fill="midnightblue" stroke="midnightblue" points="483.927,-31.7645 492.129,-25.0581 481.535,-25.1859 483.927,-31.7645"/>
</g>
<!-- Node12 -->
<g id="node12" class="node"><title>Node12</title>
<polygon fill="white" stroke="#bfbfbf" points="601.5,-0.5 601.5,-30.5 714.5,-30.5 714.5,-0.5 601.5,-0.5"/>
<text text-anchor="start" x="609.5" y="-18.5" font-family="Helvetica,sans-Serif" font-size="10.00">boost/exception/info</text>
<text text-anchor="middle" x="658" y="-7.5" font-family="Helvetica,sans-Serif" font-size="10.00">_tuple.hpp</text>
</g>
<!-- Node8&#45;&gt;Node12 -->
<g id="edge13" class="edge"><title>Node8&#45;&gt;Node12</title>
<path fill="none" stroke="midnightblue" d="M366.511,-72.8585C371.431,-70.6932 376.846,-68.5487 382,-67 469.678,-40.6552 497.241,-48.5799 591.229,-31.0621"/>
<polygon fill="midnightblue" stroke="midnightblue" points="591.988,-34.4805 601.153,-29.1648 590.674,-27.605 591.988,-34.4805"/>
</g>
<!-- Node13 -->
<g id="node13" class="node"><title>Node13</title>
<g id="a_node13"><a xlink:href="source__info_8h.xhtml" target="_top" xlink:title="Helper facilities to get source file information. ">
<polygon fill="white" stroke="black" points="733,-6 733,-25 831,-25 831,-6 733,-6"/>
<text text-anchor="middle" x="782" y="-13" font-family="Helvetica,sans-Serif" font-size="10.00">ext/source_info.h</text>
</a>
</g>
</g>
<!-- Node8&#45;&gt;Node13 -->
<g id="edge14" class="edge"><title>Node8&#45;&gt;Node13</title>
<path fill="none" stroke="midnightblue" d="M365.765,-72.9389C370.862,-70.6659 376.556,-68.4448 382,-67 529.725,-27.7909 573.493,-57.5998 724,-31 729.558,-30.0178 735.371,-28.7986 741.081,-27.4875"/>
<polygon fill="midnightblue" stroke="midnightblue" points="742.265,-30.8025 751.169,-25.0596 740.627,-23.9968 742.265,-30.8025"/>
</g>
</g>
</svg>
        <g id="navigator" transform="translate(0 0)" fill="#404254">
                <rect fill="#f2f5e9" fill-opacity="0.5" stroke="#606060" stroke-width=".5" x="0" y="0" width="60" height="60"/>
                <use id="zoomplus" xlink:href="#zoomPlus" x="17" y="9" onmousedown="handleZoom(evt,'in')"/>
                <use id="zoomminus" xlink:href="#zoomMin" x="42" y="9" onmousedown="handleZoom(evt,'out')"/>
                <use id="reset" xlink:href="#resetDef" x="30" y="36" onmousedown="handleReset()"/>
                <g id="arrowUp" xlink:href="#dirArrow" transform="translate(30 24)" onmousedown="handlePan(0,-1)">
                  <use xlink:href="#rim" fill="#404040">
                        <set attributeName="fill" to="#808080" begin="arrowUp.mouseover" end="arrowUp.mouseout"/>
                  </use>
                  <path fill="none" stroke="white" stroke-width="1.5" d="M0,-3.0v7 M-2.5,-0.5L0,-3.0L2.5,-0.5"/>
                </g>
                <g id="arrowRight" xlink:href="#dirArrow" transform="rotate(90) translate(36 -43)" onmousedown="handlePan(1,0)">
                  <use xlink:href="#rim" fill="#404040">
                        <set attributeName="fill" to="#808080" begin="arrowRight.mouseover" end="arrowRight.mouseout"/>
                  </use>
                  <path fill="none" stroke="white" stroke-width="1.5" d="M0,-3.0v7 M-2.5,-0.5L0,-3.0L2.5,-0.5"/>
                </g>
                <g id="arrowDown" xlink:href="#dirArrow" transform="rotate(180) translate(-30 -48)" onmousedown="handlePan(0,1)">
                  <use xlink:href="#rim" fill="#404040">
                        <set attributeName="fill" to="#808080" begin="arrowDown.mouseover" end="arrowDown.mouseout"/>
                  </use>
                  <path fill="none" stroke="white" stroke-width="1.5" d="M0,-3.0v7 M-2.5,-0.5L0,-3.0L2.5,-0.5"/>
                </g>
                <g id="arrowLeft" xlink:href="#dirArrow" transform="rotate(270) translate(-36 17)" onmousedown="handlePan(-1,0)">
                  <use xlink:href="#rim" fill="#404040">
                        <set attributeName="fill" to="#808080" begin="arrowLeft.mouseover" end="arrowLeft.mouseout"/>
                  </use>
                  <path fill="none" stroke="white" stroke-width="1.5" d="M0,-3.0v7 M-2.5,-0.5L0,-3.0L2.5,-0.5"/>
                </g>
        </g>
        <svg viewBox="0 0 15 15" width="100%" height="30px" preserveAspectRatio="xMaxYMin meet">
         <g id="arrow_out" transform="scale(0.3 0.3)">
          <a xlink:href="xml__stream_8h__incl_org.svg" target="_base">
           <rect id="button" ry="5" rx="5" y="6" x="6" height="38" width="38"
                fill="#f2f5e9" fill-opacity="0.5" stroke="#606060" stroke-width="1.0"/>
           <path id="arrow"
             d="M 11.500037,31.436501 C 11.940474,20.09759 22.043105,11.32322 32.158766,21.979434 L 37.068811,17.246167 C 37.068811,17.246167 37.088388,32 37.088388,32 L 22.160133,31.978069 C 22.160133,31.978069 26.997745,27.140456 26.997745,27.140456 C 18.528582,18.264221 13.291696,25.230495 11.500037,31.436501 z"
             style="fill:#404040;"/>
          </a>
         </g>
        </svg>
</svg>
