<?xml version="1.0" encoding="UTF-8" standalone="no"?>
<!DOCTYPE svg PUBLIC "-//W3C//DTD SVG 1.1//EN"
 "http://www.w3.org/Graphics/SVG/1.1/DTD/svg11.dtd">
<!-- Generated by graphviz version 2.38.0 (20140413.2041)
 -->
<!-- Title: xml.cc Pages: 1 -->
<!--zoomable 218 -->
<svg id="main" version="1.1" xmlns="http://www.w3.org/2000/svg" xmlns:xlink="http://www.w3.org/1999/xlink" xml:space="preserve" onload="init(evt)">
<style type="text/css"><![CDATA[
.edge:hover path { stroke: red; }
.edge:hover polygon { stroke: red; fill: red; }
]]></style>
<script type="text/javascript"><![CDATA[
var edges = document.getElementsByTagName('g');
if (edges && edges.length) {
  for (var i=0;i<edges.length;i++) {
    if (edges[i].id.substr(0,4)=='edge') {
      edges[i].setAttribute('class','edge');
    }
  }
}
]]></script>
        <defs>
                <circle id="rim" cx="0" cy="0" r="7"/>
                <circle id="rim2" cx="0" cy="0" r="3.5"/>
                <g id="zoomPlus">
                        <use xlink:href="#rim" fill="#404040">
                                <set attributeName="fill" to="#808080" begin="zoomplus.mouseover" end="zoomplus.mouseout"/>
                        </use>
                        <path d="M-4,0h8M0,-4v8" fill="none" stroke="white" stroke-width="1.5" pointer-events="none"/>
                </g>
                <g id="zoomMin">
                        <use xlink:href="#rim" fill="#404040">
                                <set attributeName="fill" to="#808080" begin="zoomminus.mouseover" end="zoomminus.mouseout"/>
                        </use>
                        <path d="M-4,0h8" fill="none" stroke="white" stroke-width="1.5" pointer-events="none"/>
                </g>
                <g id="dirArrow">
                        <path fill="none" stroke="white" stroke-width="1.5" d="M0,-3.0v7 M-2.5,-0.5L0,-3.0L2.5,-0.5"/>
                </g>
               <g id="resetDef">
                       <use xlink:href="#rim2" fill="#404040">
                               <set attributeName="fill" to="#808080" begin="reset.mouseover" end="reset.mouseout"/>
                       </use>
               </g>
        </defs>

<script type="text/javascript">
var viewWidth = 2280;
var viewHeight = 218;
var sectionId = 'dynsection-0';
</script>
<script xlink:href="svgpan.js"/>
<svg id="graph" class="graph">
<g id="viewport">
<title>xml.cc</title>
<polygon fill="white" stroke="none" points="-4,4 -4,-214 2275.5,-214 2275.5,4 -4,4"/>
<!-- Node1 -->
<g id="node1" class="node"><title>Node1</title>
<polygon fill="#bfbfbf" stroke="black" points="714,-190.5 714,-209.5 761,-209.5 761,-190.5 714,-190.5"/>
<text text-anchor="middle" x="737.5" y="-197.5" font-family="Helvetica,sans-Serif" font-size="10.00">xml.cc</text>
</g>
<!-- Node2 -->
<g id="node2" class="node"><title>Node2</title>
<g id="a_node2"><a xlink:href="xml_8h.xhtml" target="_top" xlink:title="XML helper facilities to work with libxml2. ">
<polygon fill="white" stroke="black" points="673,-134.5 673,-153.5 716,-153.5 716,-134.5 673,-134.5"/>
<text text-anchor="middle" x="694.5" y="-141.5" font-family="Helvetica,sans-Serif" font-size="10.00">xml.h</text>
</a>
</g>
</g>
<!-- Node1&#45;&gt;Node2 -->
<g id="edge1" class="edge"><title>Node1&#45;&gt;Node2</title>
<path fill="none" stroke="midnightblue" d="M730.399,-190.083C724.263,-182.377 715.23,-171.033 707.761,-161.653"/>
<polygon fill="midnightblue" stroke="midnightblue" points="710.436,-159.394 701.468,-153.751 704.96,-163.754 710.436,-159.394"/>
</g>
<!-- Node29 -->
<g id="node29" class="node"><title>Node29</title>
<polygon fill="white" stroke="#bfbfbf" points="734,-134.5 734,-153.5 829,-153.5 829,-134.5 734,-134.5"/>
<text text-anchor="middle" x="781.5" y="-141.5" font-family="Helvetica,sans-Serif" font-size="10.00">libxml/xinclude.h</text>
</g>
<!-- Node1&#45;&gt;Node29 -->
<g id="edge29" class="edge"><title>Node1&#45;&gt;Node29</title>
<path fill="none" stroke="midnightblue" d="M744.766,-190.083C751.045,-182.377 760.288,-171.033 767.931,-161.653"/>
<polygon fill="midnightblue" stroke="midnightblue" points="770.766,-163.714 774.369,-153.751 765.339,-159.293 770.766,-163.714"/>
</g>
<!-- Node3 -->
<g id="node3" class="node"><title>Node3</title>
<polygon fill="white" stroke="#bfbfbf" points="0,-73 0,-92 47,-92 47,-73 0,-73"/>
<text text-anchor="middle" x="23.5" y="-80" font-family="Helvetica,sans-Serif" font-size="10.00">cmath</text>
</g>
<!-- Node2&#45;&gt;Node3 -->
<g id="edge2" class="edge"><title>Node2&#45;&gt;Node3</title>
<path fill="none" stroke="midnightblue" d="M672.703,-142.499C574.922,-140.093 176.251,-128.56 55.5,-98 53.2901,-97.4407 51.0433,-96.7357 48.8177,-95.9393"/>
<polygon fill="midnightblue" stroke="midnightblue" points="49.953,-92.6214 39.3745,-92.0329 47.2771,-99.0898 49.953,-92.6214"/>
</g>
<!-- Node4 -->
<g id="node4" class="node"><title>Node4</title>
<polygon fill="white" stroke="#bfbfbf" points="65,-73 65,-92 114,-92 114,-73 65,-73"/>
<text text-anchor="middle" x="89.5" y="-80" font-family="Helvetica,sans-Serif" font-size="10.00">cstdint</text>
</g>
<!-- Node2&#45;&gt;Node4 -->
<g id="edge3" class="edge"><title>Node2&#45;&gt;Node4</title>
<path fill="none" stroke="midnightblue" d="M672.894,-142.267C581.928,-139.032 229.855,-124.984 122.5,-98 120.144,-97.4079 117.745,-96.6621 115.368,-95.8227"/>
<polygon fill="midnightblue" stroke="midnightblue" points="116.486,-92.4996 105.903,-92 113.865,-98.9902 116.486,-92.4996"/>
</g>
<!-- Node5 -->
<g id="node5" class="node"><title>Node5</title>
<polygon fill="white" stroke="#bfbfbf" points="132,-73 132,-92 179,-92 179,-73 132,-73"/>
<text text-anchor="middle" x="155.5" y="-80" font-family="Helvetica,sans-Serif" font-size="10.00">cstdlib</text>
</g>
<!-- Node2&#45;&gt;Node5 -->
<g id="edge4" class="edge"><title>Node2&#45;&gt;Node5</title>
<path fill="none" stroke="midnightblue" d="M672.871,-143.554C602.071,-144.848 371.305,-144.94 188.5,-98 186.199,-97.4091 183.854,-96.6744 181.53,-95.8518"/>
<polygon fill="midnightblue" stroke="midnightblue" points="182.834,-92.6041 172.251,-92.1167 180.22,-99.0978 182.834,-92.6041"/>
</g>
<!-- Node6 -->
<g id="node6" class="node"><title>Node6</title>
<polygon fill="white" stroke="#bfbfbf" points="197.5,-73 197.5,-92 249.5,-92 249.5,-73 197.5,-73"/>
<text text-anchor="middle" x="223.5" y="-80" font-family="Helvetica,sans-Serif" font-size="10.00">iterator</text>
</g>
<!-- Node2&#45;&gt;Node6 -->
<g id="edge5" class="edge"><title>Node2&#45;&gt;Node6</title>
<path fill="none" stroke="midnightblue" d="M672.793,-142.964C608.489,-142.391 413.79,-137.289 258.5,-98 255.989,-97.3648 253.423,-96.582 250.878,-95.7119"/>
<polygon fill="midnightblue" stroke="midnightblue" points="251.916,-92.3616 241.325,-92.0522 249.411,-98.8983 251.916,-92.3616"/>
</g>
<!-- Node7 -->
<g id="node7" class="node"><title>Node7</title>
<polygon fill="white" stroke="#bfbfbf" points="267.5,-73 267.5,-92 309.5,-92 309.5,-73 267.5,-73"/>
<text text-anchor="middle" x="288.5" y="-80" font-family="Helvetica,sans-Serif" font-size="10.00">limits</text>
</g>
<!-- Node2&#45;&gt;Node7 -->
<g id="edge6" class="edge"><title>Node2&#45;&gt;Node7</title>
<path fill="none" stroke="midnightblue" d="M672.803,-142.886C614.338,-142.053 449.112,-136.219 318.5,-98 316.626,-97.4517 314.725,-96.7959 312.836,-96.0706"/>
<polygon fill="midnightblue" stroke="midnightblue" points="314.243,-92.8658 303.68,-92.0393 311.422,-99.2723 314.243,-92.8658"/>
</g>
<!-- Node8 -->
<g id="node8" class="node"><title>Node8</title>
<polygon fill="white" stroke="#bfbfbf" points="328,-73 328,-92 385,-92 385,-73 328,-73"/>
<text text-anchor="middle" x="356.5" y="-80" font-family="Helvetica,sans-Serif" font-size="10.00">memory</text>
</g>
<!-- Node2&#45;&gt;Node8 -->
<g id="edge7" class="edge"><title>Node2&#45;&gt;Node8</title>
<path fill="none" stroke="midnightblue" d="M672.998,-141.455C623.147,-137.515 496.108,-125.4 393.5,-98 390.842,-97.2902 388.114,-96.4498 385.403,-95.5366"/>
<polygon fill="midnightblue" stroke="midnightblue" points="386.405,-92.1758 375.811,-92.014 383.992,-98.7467 386.405,-92.1758"/>
</g>
<!-- Node9 -->
<g id="node9" class="node"><title>Node9</title>
<polygon fill="white" stroke="#bfbfbf" points="403,-73 403,-92 458,-92 458,-73 403,-73"/>
<text text-anchor="middle" x="430.5" y="-80" font-family="Helvetica,sans-Serif" font-size="10.00">optional</text>
</g>
<!-- Node2&#45;&gt;Node9 -->
<g id="edge8" class="edge"><title>Node2&#45;&gt;Node9</title>
<path fill="none" stroke="midnightblue" d="M672.847,-139.592C632.877,-133.084 544.966,-117.76 472.5,-98 469.472,-97.1743 466.345,-96.2448 463.228,-95.2653"/>
<polygon fill="midnightblue" stroke="midnightblue" points="464.029,-91.8438 453.436,-92.0325 461.834,-98.491 464.029,-91.8438"/>
</g>
<!-- Node10 -->
<g id="node10" class="node"><title>Node10</title>
<polygon fill="white" stroke="#bfbfbf" points="890.5,-6 890.5,-25 934.5,-25 934.5,-6 890.5,-6"/>
<text text-anchor="middle" x="912.5" y="-13" font-family="Helvetica,sans-Serif" font-size="10.00">string</text>
</g>
<!-- Node2&#45;&gt;Node10 -->
<g id="edge9" class="edge"><title>Node2&#45;&gt;Node10</title>
<path fill="none" stroke="midnightblue" d="M672.778,-141.857C613.501,-137.994 456.558,-122.39 505.5,-67 530.244,-38.9959 788.118,-22.9605 880.115,-18.0966"/>
<polygon fill="midnightblue" stroke="midnightblue" points="880.433,-21.5849 890.238,-17.5713 880.07,-14.5943 880.433,-21.5849"/>
</g>
<!-- Node11 -->
<g id="node11" class="node"><title>Node11</title>
<polygon fill="white" stroke="#bfbfbf" points="515,-73 515,-92 584,-92 584,-73 515,-73"/>
<text text-anchor="middle" x="549.5" y="-80" font-family="Helvetica,sans-Serif" font-size="10.00">string_view</text>
</g>
<!-- Node2&#45;&gt;Node11 -->
<g id="edge10" class="edge"><title>Node2&#45;&gt;Node11</title>
<path fill="none" stroke="midnightblue" d="M673.725,-134.475C649.068,-124.357 607.755,-107.405 579.598,-95.8507"/>
<polygon fill="midnightblue" stroke="midnightblue" points="580.817,-92.5674 570.236,-92.0091 578.159,-99.0434 580.817,-92.5674"/>
</g>
<!-- Node12 -->
<g id="node12" class="node"><title>Node12</title>
<polygon fill="white" stroke="#bfbfbf" points="602.5,-73 602.5,-92 670.5,-92 670.5,-73 602.5,-73"/>
<text text-anchor="middle" x="636.5" y="-80" font-family="Helvetica,sans-Serif" font-size="10.00">type_traits</text>
</g>
<!-- Node2&#45;&gt;Node12 -->
<g id="edge11" class="edge"><title>Node2&#45;&gt;Node12</title>
<path fill="none" stroke="midnightblue" d="M686.19,-134.475C677.318,-125.373 663.054,-110.741 652.08,-99.483"/>
<polygon fill="midnightblue" stroke="midnightblue" points="654.281,-96.7268 644.795,-92.0091 649.269,-101.613 654.281,-96.7268"/>
</g>
<!-- Node13 -->
<g id="node13" class="node"><title>Node13</title>
<polygon fill="white" stroke="#bfbfbf" points="689,-67.5 689,-97.5 816,-97.5 816,-67.5 689,-67.5"/>
<text text-anchor="start" x="697" y="-85.5" font-family="Helvetica,sans-Serif" font-size="10.00">boost/exception/errinfo</text>
<text text-anchor="middle" x="752.5" y="-74.5" font-family="Helvetica,sans-Serif" font-size="10.00">_at_line.hpp</text>
</g>
<!-- Node2&#45;&gt;Node13 -->
<g id="edge12" class="edge"><title>Node2&#45;&gt;Node13</title>
<path fill="none" stroke="midnightblue" d="M702.81,-134.475C710.298,-126.793 721.627,-115.172 731.577,-104.964"/>
<polygon fill="midnightblue" stroke="midnightblue" points="734.357,-107.127 738.831,-97.523 729.344,-102.241 734.357,-107.127"/>
</g>
<!-- Node14 -->
<g id="node14" class="node"><title>Node14</title>
<polygon fill="white" stroke="#bfbfbf" points="834,-67.5 834,-97.5 961,-97.5 961,-67.5 834,-67.5"/>
<text text-anchor="start" x="842" y="-85.5" font-family="Helvetica,sans-Serif" font-size="10.00">boost/exception/errinfo</text>
<text text-anchor="middle" x="897.5" y="-74.5" font-family="Helvetica,sans-Serif" font-size="10.00">_errno.hpp</text>
</g>
<!-- Node2&#45;&gt;Node14 -->
<g id="edge13" class="edge"><title>Node2&#45;&gt;Node14</title>
<path fill="none" stroke="midnightblue" d="M716.225,-136.632C745.484,-128.056 798.637,-112.477 839.849,-100.398"/>
<polygon fill="midnightblue" stroke="midnightblue" points="840.901,-103.737 849.512,-97.5653 838.932,-97.0194 840.901,-103.737"/>
</g>
<!-- Node15 -->
<g id="node15" class="node"><title>Node15</title>
<polygon fill="white" stroke="#bfbfbf" points="979,-67.5 979,-97.5 1106,-97.5 1106,-67.5 979,-67.5"/>
<text text-anchor="start" x="987" y="-85.5" font-family="Helvetica,sans-Serif" font-size="10.00">boost/exception/errinfo</text>
<text text-anchor="middle" x="1042.5" y="-74.5" font-family="Helvetica,sans-Serif" font-size="10.00">_file_name.hpp</text>
</g>
<!-- Node2&#45;&gt;Node15 -->
<g id="edge14" class="edge"><title>Node2&#45;&gt;Node15</title>
<path fill="none" stroke="midnightblue" d="M716.084,-136.325C719.225,-135.473 722.433,-134.667 725.5,-134 829.892,-111.288 860.303,-116.529 968.882,-98.2155"/>
<polygon fill="midnightblue" stroke="midnightblue" points="969.667,-101.632 978.931,-96.4915 968.483,-94.7329 969.667,-101.632"/>
</g>
<!-- Node16 -->
<g id="node16" class="node"><title>Node16</title>
<polygon fill="white" stroke="#bfbfbf" points="1124,-67.5 1124,-97.5 1251,-97.5 1251,-67.5 1124,-67.5"/>
<text text-anchor="start" x="1132" y="-85.5" font-family="Helvetica,sans-Serif" font-size="10.00">boost/exception/errinfo</text>
<text text-anchor="middle" x="1187.5" y="-74.5" font-family="Helvetica,sans-Serif" font-size="10.00">_file_open_mode.hpp</text>
</g>
<!-- Node2&#45;&gt;Node16 -->
<g id="edge15" class="edge"><title>Node2&#45;&gt;Node16</title>
<path fill="none" stroke="midnightblue" d="M716.053,-136.174C719.199,-135.344 722.417,-134.584 725.5,-134 893.352,-102.188 941.489,-122.435 1114.04,-98.1067"/>
<polygon fill="midnightblue" stroke="midnightblue" points="1114.56,-101.568 1123.96,-96.6785 1113.56,-94.6391 1114.56,-101.568"/>
</g>
<!-- Node17 -->
<g id="node17" class="node"><title>Node17</title>
<polygon fill="white" stroke="#bfbfbf" points="1269.5,-67.5 1269.5,-97.5 1389.5,-97.5 1389.5,-67.5 1269.5,-67.5"/>
<text text-anchor="start" x="1277.5" y="-85.5" font-family="Helvetica,sans-Serif" font-size="10.00">boost/iterator/iterator</text>
<text text-anchor="middle" x="1329.5" y="-74.5" font-family="Helvetica,sans-Serif" font-size="10.00">_facade.hpp</text>
</g>
<!-- Node2&#45;&gt;Node17 -->
<g id="edge16" class="edge"><title>Node2&#45;&gt;Node17</title>
<path fill="none" stroke="midnightblue" d="M716.04,-136.103C719.188,-135.284 722.41,-134.546 725.5,-134 956.972,-93.1043 1022.63,-129.559 1259.43,-98.0037"/>
<polygon fill="midnightblue" stroke="midnightblue" points="1259.94,-101.467 1269.38,-96.6519 1259,-94.5305 1259.94,-101.467"/>
</g>
<!-- Node18 -->
<g id="node18" class="node"><title>Node18</title>
<polygon fill="white" stroke="#bfbfbf" points="1408,-67.5 1408,-97.5 1523,-97.5 1523,-67.5 1408,-67.5"/>
<text text-anchor="start" x="1416" y="-85.5" font-family="Helvetica,sans-Serif" font-size="10.00">boost/range/adaptor</text>
<text text-anchor="middle" x="1465.5" y="-74.5" font-family="Helvetica,sans-Serif" font-size="10.00">/filtered.hpp</text>
</g>
<!-- Node2&#45;&gt;Node18 -->
<g id="edge17" class="edge"><title>Node2&#45;&gt;Node18</title>
<path fill="none" stroke="midnightblue" d="M716.033,-136.064C719.182,-135.251 722.406,-134.525 725.5,-134 1017.51,-84.477 1099.78,-136.609 1397.63,-97.939"/>
<polygon fill="midnightblue" stroke="midnightblue" points="1398.4,-101.367 1407.86,-96.5859 1397.49,-94.427 1398.4,-101.367"/>
</g>
<!-- Node19 -->
<g id="node19" class="node"><title>Node19</title>
<polygon fill="white" stroke="#bfbfbf" points="1541.5,-73 1541.5,-92 1627.5,-92 1627.5,-73 1541.5,-73"/>
<text text-anchor="middle" x="1584.5" y="-80" font-family="Helvetica,sans-Serif" font-size="10.00">libxml/parser.h</text>
</g>
<!-- Node2&#45;&gt;Node19 -->
<g id="edge18" class="edge"><title>Node2&#45;&gt;Node19</title>
<path fill="none" stroke="midnightblue" d="M716.029,-136.039C719.178,-135.229 722.404,-134.511 725.5,-134 1079.73,-75.5369 1177.96,-154.582 1532.5,-98 1537.69,-97.1719 1543.1,-96.0111 1548.38,-94.7031"/>
<polygon fill="midnightblue" stroke="midnightblue" points="1549.54,-98.0158 1558.3,-92.0549 1547.74,-91.2527 1549.54,-98.0158"/>
</g>
<!-- Node20 -->
<g id="node20" class="node"><title>Node20</title>
<polygon fill="white" stroke="#bfbfbf" points="1645.5,-73 1645.5,-92 1737.5,-92 1737.5,-73 1645.5,-73"/>
<text text-anchor="middle" x="1691.5" y="-80" font-family="Helvetica,sans-Serif" font-size="10.00">libxml/relaxng.h</text>
</g>
<!-- Node2&#45;&gt;Node20 -->
<g id="edge19" class="edge"><title>Node2&#45;&gt;Node20</title>
<path fill="none" stroke="midnightblue" d="M716.027,-136.025C719.176,-135.217 722.402,-134.503 725.5,-134 1125.46,-69.0332 1235.76,-158.006 1636.5,-98 1642.12,-97.1592 1647.98,-95.9645 1653.71,-94.6174"/>
<polygon fill="midnightblue" stroke="midnightblue" points="1654.93,-97.918 1663.77,-92.0715 1653.21,-91.1319 1654.93,-97.918"/>
</g>
<!-- Node21 -->
<g id="node21" class="node"><title>Node21</title>
<polygon fill="white" stroke="#bfbfbf" points="1755.5,-73 1755.5,-92 1831.5,-92 1831.5,-73 1755.5,-73"/>
<text text-anchor="middle" x="1793.5" y="-80" font-family="Helvetica,sans-Serif" font-size="10.00">libxml/tree.h</text>
</g>
<!-- Node2&#45;&gt;Node21 -->
<g id="edge20" class="edge"><title>Node2&#45;&gt;Node21</title>
<path fill="none" stroke="midnightblue" d="M716.025,-136.013C719.175,-135.207 722.401,-134.497 725.5,-134 1173.84,-62.1532 1298.78,-173.586 1746.5,-98 1750.98,-97.2439 1755.62,-96.1761 1760.18,-94.9588"/>
<polygon fill="midnightblue" stroke="midnightblue" points="1761.27,-98.2854 1769.88,-92.1178 1759.3,-91.5671 1761.27,-98.2854"/>
</g>
<!-- Node22 -->
<g id="node22" class="node"><title>Node22</title>
<g id="a_node22"><a xlink:href="error_8h.xhtml" target="_top" xlink:title="Exceptions for SCRAM. ">
<polygon fill="white" stroke="black" points="1849.5,-73 1849.5,-92 1897.5,-92 1897.5,-73 1849.5,-73"/>
<text text-anchor="middle" x="1873.5" y="-80" font-family="Helvetica,sans-Serif" font-size="10.00">error.h</text>
</a>
</g>
</g>
<!-- Node2&#45;&gt;Node22 -->
<g id="edge21" class="edge"><title>Node2&#45;&gt;Node22</title>
<path fill="none" stroke="midnightblue" d="M716.023,-136.004C719.174,-135.199 722.4,-134.492 725.5,-134 970.342,-95.1366 1598.74,-152.859 1840.5,-98 1843.01,-97.4305 1845.56,-96.6698 1848.09,-95.794"/>
<polygon fill="midnightblue" stroke="midnightblue" points="1849.51,-98.9944 1857.47,-92.0069 1846.89,-92.5028 1849.51,-98.9944"/>
</g>
<!-- Node22&#45;&gt;Node10 -->
<g id="edge23" class="edge"><title>Node22&#45;&gt;Node10</title>
<path fill="none" stroke="midnightblue" d="M1857.12,-72.9169C1851.94,-70.5844 1846.1,-68.3359 1840.5,-67 1751.99,-45.8848 1098.87,-22.7693 944.935,-17.5749"/>
<polygon fill="midnightblue" stroke="midnightblue" points="944.841,-14.0699 934.729,-17.2321 944.606,-21.0659 944.841,-14.0699"/>
</g>
<!-- Node23 -->
<g id="node23" class="node"><title>Node23</title>
<polygon fill="white" stroke="#bfbfbf" points="1462,-6 1462,-25 1525,-25 1525,-6 1462,-6"/>
<text text-anchor="middle" x="1493.5" y="-13" font-family="Helvetica,sans-Serif" font-size="10.00">exception</text>
</g>
<!-- Node22&#45;&gt;Node23 -->
<g id="edge22" class="edge"><title>Node22&#45;&gt;Node23</title>
<path fill="none" stroke="midnightblue" d="M1856.72,-72.9808C1851.63,-70.7091 1845.93,-68.4781 1840.5,-67 1708.36,-31.0615 1667.88,-62.0213 1534.5,-31 1531.26,-30.2474 1527.93,-29.3252 1524.63,-28.3139"/>
<polygon fill="midnightblue" stroke="midnightblue" points="1525.53,-24.926 1514.94,-25.0932 1523.32,-31.5687 1525.53,-24.926"/>
</g>
<!-- Node24 -->
<g id="node24" class="node"><title>Node24</title>
<polygon fill="white" stroke="#bfbfbf" points="1543.5,-6 1543.5,-25 1689.5,-25 1689.5,-6 1543.5,-6"/>
<text text-anchor="middle" x="1616.5" y="-13" font-family="Helvetica,sans-Serif" font-size="10.00">boost/current_function.hpp</text>
</g>
<!-- Node22&#45;&gt;Node24 -->
<g id="edge24" class="edge"><title>Node22&#45;&gt;Node24</title>
<path fill="none" stroke="midnightblue" d="M1855.59,-72.8839C1850.76,-70.7688 1845.49,-68.6429 1840.5,-67 1786.28,-49.1615 1722.65,-35.4806 1677.09,-26.8864"/>
<polygon fill="midnightblue" stroke="midnightblue" points="1677.54,-23.4113 1667.07,-25.0242 1676.26,-30.2933 1677.54,-23.4113"/>
</g>
<!-- Node25 -->
<g id="node25" class="node"><title>Node25</title>
<polygon fill="white" stroke="#bfbfbf" points="1707.5,-6 1707.5,-25 1871.5,-25 1871.5,-6 1707.5,-6"/>
<text text-anchor="middle" x="1789.5" y="-13" font-family="Helvetica,sans-Serif" font-size="10.00">boost/exception/exception.hpp</text>
</g>
<!-- Node22&#45;&gt;Node25 -->
<g id="edge25" class="edge"><title>Node22&#45;&gt;Node25</title>
<path fill="none" stroke="midnightblue" d="M1862.17,-72.7338C1848.44,-62.1106 1825.1,-44.0485 1808.58,-31.2642"/>
<polygon fill="midnightblue" stroke="midnightblue" points="1810.7,-28.4791 1800.65,-25.1273 1806.42,-34.0152 1810.7,-28.4791"/>
</g>
<!-- Node26 -->
<g id="node26" class="node"><title>Node26</title>
<polygon fill="white" stroke="#bfbfbf" points="1889.5,-6 1889.5,-25 2023.5,-25 2023.5,-6 1889.5,-6"/>
<text text-anchor="middle" x="1956.5" y="-13" font-family="Helvetica,sans-Serif" font-size="10.00">boost/exception/info.hpp</text>
</g>
<!-- Node22&#45;&gt;Node26 -->
<g id="edge26" class="edge"><title>Node22&#45;&gt;Node26</title>
<path fill="none" stroke="midnightblue" d="M1884.69,-72.7338C1898.13,-62.208 1920.9,-44.3793 1937.2,-31.6174"/>
<polygon fill="midnightblue" stroke="midnightblue" points="1939.77,-34.0486 1945.48,-25.1273 1935.45,-28.5374 1939.77,-34.0486"/>
</g>
<!-- Node27 -->
<g id="node27" class="node"><title>Node27</title>
<polygon fill="white" stroke="#bfbfbf" points="2042,-0.5 2042,-30.5 2155,-30.5 2155,-0.5 2042,-0.5"/>
<text text-anchor="start" x="2050" y="-18.5" font-family="Helvetica,sans-Serif" font-size="10.00">boost/exception/info</text>
<text text-anchor="middle" x="2098.5" y="-7.5" font-family="Helvetica,sans-Serif" font-size="10.00">_tuple.hpp</text>
</g>
<!-- Node22&#45;&gt;Node27 -->
<g id="edge27" class="edge"><title>Node22&#45;&gt;Node27</title>
<path fill="none" stroke="midnightblue" d="M1897.58,-74.5439C1931.34,-64.7902 1993.81,-46.7447 2040.16,-33.3537"/>
<polygon fill="midnightblue" stroke="midnightblue" points="2041.16,-36.7095 2049.79,-30.5715 2039.21,-29.9845 2041.16,-36.7095"/>
</g>
<!-- Node28 -->
<g id="node28" class="node"><title>Node28</title>
<g id="a_node28"><a xlink:href="source__info_8h.xhtml" target="_top" xlink:title="Helper facilities to get source file information. ">
<polygon fill="white" stroke="black" points="2173.5,-6 2173.5,-25 2271.5,-25 2271.5,-6 2173.5,-6"/>
<text text-anchor="middle" x="2222.5" y="-13" font-family="Helvetica,sans-Serif" font-size="10.00">ext/source_info.h</text>
</a>
</g>
</g>
<!-- Node22&#45;&gt;Node28 -->
<g id="edge28" class="edge"><title>Node22&#45;&gt;Node28</title>
<path fill="none" stroke="midnightblue" d="M1897.76,-77.9048C1947.83,-70.3491 2066.17,-51.7934 2164.5,-31 2169.57,-29.9269 2174.88,-28.7203 2180.13,-27.4732"/>
<polygon fill="midnightblue" stroke="midnightblue" points="2181.19,-30.816 2190.08,-25.0494 2179.54,-24.0147 2181.19,-30.816"/>
</g>
</g>
</svg>
        <g id="navigator" transform="translate(0 0)" fill="#404254">
                <rect fill="#f2f5e9" fill-opacity="0.5" stroke="#606060" stroke-width=".5" x="0" y="0" width="60" height="60"/>
                <use id="zoomplus" xlink:href="#zoomPlus" x="17" y="9" onmousedown="handleZoom(evt,'in')"/>
                <use id="zoomminus" xlink:href="#zoomMin" x="42" y="9" onmousedown="handleZoom(evt,'out')"/>
                <use id="reset" xlink:href="#resetDef" x="30" y="36" onmousedown="handleReset()"/>
                <g id="arrowUp" xlink:href="#dirArrow" transform="translate(30 24)" onmousedown="handlePan(0,-1)">
                  <use xlink:href="#rim" fill="#404040">
                        <set attributeName="fill" to="#808080" begin="arrowUp.mouseover" end="arrowUp.mouseout"/>
                  </use>
                  <path fill="none" stroke="white" stroke-width="1.5" d="M0,-3.0v7 M-2.5,-0.5L0,-3.0L2.5,-0.5"/>
                </g>
                <g id="arrowRight" xlink:href="#dirArrow" transform="rotate(90) translate(36 -43)" onmousedown="handlePan(1,0)">
                  <use xlink:href="#rim" fill="#404040">
                        <set attributeName="fill" to="#808080" begin="arrowRight.mouseover" end="arrowRight.mouseout"/>
                  </use>
                  <path fill="none" stroke="white" stroke-width="1.5" d="M0,-3.0v7 M-2.5,-0.5L0,-3.0L2.5,-0.5"/>
                </g>
                <g id="arrowDown" xlink:href="#dirArrow" transform="rotate(180) translate(-30 -48)" onmousedown="handlePan(0,1)">
                  <use xlink:href="#rim" fill="#404040">
                        <set attributeName="fill" to="#808080" begin="arrowDown.mouseover" end="arrowDown.mouseout"/>
                  </use>
                  <path fill="none" stroke="white" stroke-width="1.5" d="M0,-3.0v7 M-2.5,-0.5L0,-3.0L2.5,-0.5"/>
                </g>
                <g id="arrowLeft" xlink:href="#dirArrow" transform="rotate(270) translate(-36 17)" onmousedown="handlePan(-1,0)">
                  <use xlink:href="#rim" fill="#404040">
                        <set attributeName="fill" to="#808080" begin="arrowLeft.mouseover" end="arrowLeft.mouseout"/>
                  </use>
                  <path fill="none" stroke="white" stroke-width="1.5" d="M0,-3.0v7 M-2.5,-0.5L0,-3.0L2.5,-0.5"/>
                </g>
        </g>
        <svg viewBox="0 0 15 15" width="100%" height="30px" preserveAspectRatio="xMaxYMin meet">
         <g id="arrow_out" transform="scale(0.3 0.3)">
          <a xlink:href="xml_8cc__incl_org.svg" target="_base">
           <rect id="button" ry="5" rx="5" y="6" x="6" height="38" width="38"
                fill="#f2f5e9" fill-opacity="0.5" stroke="#606060" stroke-width="1.0"/>
           <path id="arrow"
             d="M 11.500037,31.436501 C 11.940474,20.09759 22.043105,11.32322 32.158766,21.979434 L 37.068811,17.246167 C 37.068811,17.246167 37.088388,32 37.088388,32 L 22.160133,31.978069 C 22.160133,31.978069 26.997745,27.140456 26.997745,27.140456 C 18.528582,18.264221 13.291696,25.230495 11.500037,31.436501 z"
             style="fill:#404040;"/>
          </a>
         </g>
        </svg>
</svg>
