<?xml version="1.0" encoding="UTF-8" standalone="no"?>
<!DOCTYPE svg PUBLIC "-//W3C//DTD SVG 1.1//EN"
 "http://www.w3.org/Graphics/SVG/1.1/DTD/svg11.dtd">
<!-- Generated by graphviz version 2.38.0 (20140413.2041)
 -->
<!-- Title: xml_stream.h Pages: 1 -->
<svg width="221pt" height="140pt"
 viewBox="0.00 0.00 220.50 140.00" xmlns="http://www.w3.org/2000/svg" xmlns:xlink="http://www.w3.org/1999/xlink">
<g id="graph0" class="graph" transform="scale(1 1) rotate(0) translate(4 136)">
<title>xml_stream.h</title>
<polygon fill="white" stroke="none" points="-4,4 -4,-136 216.5,-136 216.5,4 -4,4"/>
<!-- Node1 -->
<g id="node1" class="node"><title>Node1</title>
<polygon fill="#bfbfbf" stroke="black" points="80.5,-112.5 80.5,-131.5 163.5,-131.5 163.5,-112.5 80.5,-112.5"/>
<text text-anchor="middle" x="122" y="-119.5" font-family="Helvetica,sans-Serif" font-size="10.00">xml_stream.h</text>
</g>
<!-- Node2 -->
<g id="node2" class="node"><title>Node2</title>
<g id="a_node2"><a xlink:href="reporter_8h.xhtml" target="_top" xlink:title="Reporter of results. ">
<polygon fill="white" stroke="black" points="43,-56.5 43,-75.5 107,-75.5 107,-56.5 43,-56.5"/>
<text text-anchor="middle" x="75" y="-63.5" font-family="Helvetica,sans-Serif" font-size="10.00">reporter.h</text>
</a>
</g>
</g>
<!-- Node1&#45;&gt;Node2 -->
<g id="edge1" class="edge"><title>Node1&#45;&gt;Node2</title>
<path fill="none" stroke="midnightblue" d="M107.579,-104.431C99.3419,-94.9673 89.3461,-83.4827 82.6167,-75.7511"/>
<polygon fill="midnightblue" stroke="midnightblue" points="105.034,-106.838 114.239,-112.083 110.314,-102.242 105.034,-106.838"/>
</g>
<!-- Node5 -->
<g id="node5" class="node"><title>Node5</title>
<g id="a_node5"><a xlink:href="serialization_8cc.xhtml" target="_top" xlink:title="serialization.cc">
<polygon fill="white" stroke="black" points="125.5,-56.5 125.5,-75.5 212.5,-75.5 212.5,-56.5 125.5,-56.5"/>
<text text-anchor="middle" x="169" y="-63.5" font-family="Helvetica,sans-Serif" font-size="10.00">serialization.cc</text>
</a>
</g>
</g>
<!-- Node1&#45;&gt;Node5 -->
<g id="edge4" class="edge"><title>Node1&#45;&gt;Node5</title>
<path fill="none" stroke="midnightblue" d="M136.421,-104.431C144.658,-94.9673 154.654,-83.4827 161.383,-75.7511"/>
<polygon fill="midnightblue" stroke="midnightblue" points="133.686,-102.242 129.761,-112.083 138.966,-106.838 133.686,-102.242"/>
</g>
<!-- Node3 -->
<g id="node3" class="node"><title>Node3</title>
<g id="a_node3"><a xlink:href="reporter_8cc.xhtml" target="_top" xlink:title="Implements Reporter class. ">
<polygon fill="white" stroke="black" points="0,-0.5 0,-19.5 68,-19.5 68,-0.5 0,-0.5"/>
<text text-anchor="middle" x="34" y="-7.5" font-family="Helvetica,sans-Serif" font-size="10.00">reporter.cc</text>
</a>
</g>
</g>
<!-- Node2&#45;&gt;Node3 -->
<g id="edge2" class="edge"><title>Node2&#45;&gt;Node3</title>
<path fill="none" stroke="midnightblue" d="M61.9828,-47.8554C54.8833,-38.5048 46.396,-27.3265 40.6443,-19.7511"/>
<polygon fill="midnightblue" stroke="midnightblue" points="59.395,-50.235 68.2297,-56.083 64.9701,-46.002 59.395,-50.235"/>
</g>
<!-- Node4 -->
<g id="node4" class="node"><title>Node4</title>
<g id="a_node4"><a xlink:href="scram_8cc.xhtml" target="_top" xlink:title="Main entrance. ">
<polygon fill="white" stroke="black" points="86,-0.5 86,-19.5 146,-19.5 146,-0.5 86,-0.5"/>
<text text-anchor="middle" x="116" y="-7.5" font-family="Helvetica,sans-Serif" font-size="10.00">scram.cc</text>
</a>
</g>
</g>
<!-- Node2&#45;&gt;Node4 -->
<g id="edge3" class="edge"><title>Node2&#45;&gt;Node4</title>
<path fill="none" stroke="midnightblue" d="M88.0172,-47.8554C95.1167,-38.5048 103.604,-27.3265 109.356,-19.7511"/>
<polygon fill="midnightblue" stroke="midnightblue" points="85.0299,-46.002 81.7703,-56.083 90.605,-50.235 85.0299,-46.002"/>
</g>
</g>
</svg>
