<?xml version="1.0" encoding="UTF-8" standalone="no"?>
<!DOCTYPE svg PUBLIC "-//W3C//DTD SVG 1.1//EN"
 "http://www.w3.org/Graphics/SVG/1.1/DTD/svg11.dtd">
<!-- Generated by graphviz version 2.38.0 (20140413.2041)
 -->
<!-- Title: zbdd.h Pages: 1 -->
<svg width="841pt" height="364pt"
 viewBox="0.00 0.00 840.50 364.00" xmlns="http://www.w3.org/2000/svg" xmlns:xlink="http://www.w3.org/1999/xlink">
<g id="graph0" class="graph" transform="scale(1 1) rotate(0) translate(4 360)">
<title>zbdd.h</title>
<polygon fill="white" stroke="none" points="-4,4 -4,-360 836.5,-360 836.5,4 -4,4"/>
<!-- Node1 -->
<g id="node1" class="node"><title>Node1</title>
<polygon fill="#bfbfbf" stroke="black" points="570.5,-336.5 570.5,-355.5 619.5,-355.5 619.5,-336.5 570.5,-336.5"/>
<text text-anchor="middle" x="595" y="-343.5" font-family="Helvetica,sans-Serif" font-size="10.00">zbdd.h</text>
</g>
<!-- Node2 -->
<g id="node2" class="node"><title>Node2</title>
<g id="a_node2"><a xlink:href="bdd_8cc.xhtml" target="_top" xlink:title="Implementation of BDD fault tree analysis algorithms. ">
<polygon fill="white" stroke="black" points="0,-280.5 0,-299.5 48,-299.5 48,-280.5 0,-280.5"/>
<text text-anchor="middle" x="24" y="-287.5" font-family="Helvetica,sans-Serif" font-size="10.00">bdd.cc</text>
</a>
</g>
</g>
<!-- Node1&#45;&gt;Node2 -->
<g id="edge1" class="edge"><title>Node1&#45;&gt;Node2</title>
<path fill="none" stroke="midnightblue" d="M560.245,-343.85C474.908,-340.641 248.433,-329.779 62,-300 57.4475,-299.273 52.6324,-298.297 48.0153,-297.256"/>
<polygon fill="midnightblue" stroke="midnightblue" points="560.284,-347.354 570.405,-344.221 560.54,-340.359 560.284,-347.354"/>
</g>
<!-- Node3 -->
<g id="node3" class="node"><title>Node3</title>
<g id="a_node3"><a xlink:href="fault__tree__analysis_8h.xhtml" target="_top" xlink:title="Fault Tree Analysis. ">
<polygon fill="white" stroke="black" points="361.5,-280.5 361.5,-299.5 476.5,-299.5 476.5,-280.5 361.5,-280.5"/>
<text text-anchor="middle" x="419" y="-287.5" font-family="Helvetica,sans-Serif" font-size="10.00">fault_tree_analysis.h</text>
</a>
</g>
</g>
<!-- Node1&#45;&gt;Node3 -->
<g id="edge2" class="edge"><title>Node1&#45;&gt;Node3</title>
<path fill="none" stroke="midnightblue" d="M560.414,-334.388C527.208,-324.2 477.68,-309.004 446.911,-299.564"/>
<polygon fill="midnightblue" stroke="midnightblue" points="559.57,-337.79 570.157,-337.378 561.623,-331.098 559.57,-337.79"/>
</g>
<!-- Node7 -->
<g id="node7" class="node"><title>Node7</title>
<g id="a_node7"><a xlink:href="importance__analysis_8cc.xhtml" target="_top" xlink:title="Implementations of functions to provide quantitative importance informations. ">
<polygon fill="white" stroke="black" points="38,-112.5 38,-131.5 166,-131.5 166,-112.5 38,-112.5"/>
<text text-anchor="middle" x="102" y="-119.5" font-family="Helvetica,sans-Serif" font-size="10.00">importance_analysis.cc</text>
</a>
</g>
</g>
<!-- Node1&#45;&gt;Node7 -->
<g id="edge23" class="edge"><title>Node1&#45;&gt;Node7</title>
<path fill="none" stroke="midnightblue" d="M560.002,-342.048C511.95,-337.21 423.383,-325.46 352,-300 254.579,-265.253 225.178,-256.861 148,-188 129.019,-171.065 113.56,-144.895 106.365,-131.514"/>
<polygon fill="midnightblue" stroke="midnightblue" points="559.894,-345.554 570.184,-343.03 560.566,-338.586 559.894,-345.554"/>
</g>
<!-- Node12 -->
<g id="node12" class="node"><title>Node12</title>
<g id="a_node12"><a xlink:href="risk__analysis_8cc.xhtml" target="_top" xlink:title="Implementation of risk analysis handler. ">
<polygon fill="white" stroke="black" points="668,-56.5 668,-75.5 758,-75.5 758,-56.5 668,-56.5"/>
<text text-anchor="middle" x="713" y="-63.5" font-family="Helvetica,sans-Serif" font-size="10.00">risk_analysis.cc</text>
</a>
</g>
</g>
<!-- Node1&#45;&gt;Node12 -->
<g id="edge28" class="edge"><title>Node1&#45;&gt;Node12</title>
<path fill="none" stroke="midnightblue" d="M629.594,-337.023C675.551,-324.138 751,-294 751,-235 751,-235 751,-235 751,-177 751,-137.399 728.725,-93.957 718.284,-75.769"/>
<polygon fill="midnightblue" stroke="midnightblue" points="628.48,-333.698 619.719,-339.656 630.283,-340.462 628.48,-333.698"/>
</g>
<!-- Node13 -->
<g id="node13" class="node"><title>Node13</title>
<g id="a_node13"><a xlink:href="probability__analysis_8cc.xhtml" target="_top" xlink:title="Implementations of functions to provide probability analysis. ">
<polygon fill="white" stroke="black" points="486.5,-168.5 486.5,-187.5 609.5,-187.5 609.5,-168.5 486.5,-168.5"/>
<text text-anchor="middle" x="548" y="-175.5" font-family="Helvetica,sans-Serif" font-size="10.00">probability_analysis.cc</text>
</a>
</g>
</g>
<!-- Node1&#45;&gt;Node13 -->
<g id="edge27" class="edge"><title>Node1&#45;&gt;Node13</title>
<path fill="none" stroke="midnightblue" d="M594.362,-326.213C593.023,-301.912 588.872,-258.597 576,-224 570.931,-210.374 561.453,-196.426 554.94,-187.744"/>
<polygon fill="midnightblue" stroke="midnightblue" points="590.879,-326.659 594.82,-336.494 597.872,-326.348 590.879,-326.659"/>
</g>
<!-- Node16 -->
<g id="node16" class="node"><title>Node16</title>
<g id="a_node16"><a xlink:href="mocus_8h.xhtml" target="_top" xlink:title="Fault tree analysis with the MOCUS algorithm. ">
<polygon fill="white" stroke="black" points="625,-280.5 625,-299.5 683,-299.5 683,-280.5 625,-280.5"/>
<text text-anchor="middle" x="654" y="-287.5" font-family="Helvetica,sans-Serif" font-size="10.00">mocus.h</text>
</a>
</g>
</g>
<!-- Node1&#45;&gt;Node16 -->
<g id="edge24" class="edge"><title>Node1&#45;&gt;Node16</title>
<path fill="none" stroke="midnightblue" d="M611.895,-329.537C622.415,-319.909 635.569,-307.869 644.348,-299.834"/>
<polygon fill="midnightblue" stroke="midnightblue" points="609.493,-326.99 604.479,-336.324 614.219,-332.154 609.493,-326.99"/>
</g>
<!-- Node18 -->
<g id="node18" class="node"><title>Node18</title>
<g id="a_node18"><a xlink:href="zbdd_8cc.xhtml" target="_top" xlink:title="Implementation of Zero&#45;Suppressed BDD algorithms. ">
<polygon fill="white" stroke="black" points="779.5,-280.5 779.5,-299.5 832.5,-299.5 832.5,-280.5 779.5,-280.5"/>
<text text-anchor="middle" x="806" y="-287.5" font-family="Helvetica,sans-Serif" font-size="10.00">zbdd.cc</text>
</a>
</g>
</g>
<!-- Node1&#45;&gt;Node18 -->
<g id="edge29" class="edge"><title>Node1&#45;&gt;Node18</title>
<path fill="none" stroke="midnightblue" d="M629.372,-336.203C671.251,-325.485 741.12,-307.604 779.221,-297.853"/>
<polygon fill="midnightblue" stroke="midnightblue" points="628.437,-332.83 619.617,-338.7 630.173,-339.611 628.437,-332.83"/>
</g>
<!-- Node4 -->
<g id="node4" class="node"><title>Node4</title>
<g id="a_node4"><a xlink:href="fault__tree__analysis_8cc.xhtml" target="_top" xlink:title="Implementation of fault tree analysis. ">
<polygon fill="white" stroke="black" points="447.5,-224.5 447.5,-243.5 566.5,-243.5 566.5,-224.5 447.5,-224.5"/>
<text text-anchor="middle" x="507" y="-231.5" font-family="Helvetica,sans-Serif" font-size="10.00">fault_tree_analysis.cc</text>
</a>
</g>
</g>
<!-- Node3&#45;&gt;Node4 -->
<g id="edge3" class="edge"><title>Node3&#45;&gt;Node4</title>
<path fill="none" stroke="midnightblue" d="M441.977,-274.901C458.113,-264.999 479.181,-252.071 492.896,-243.655"/>
<polygon fill="midnightblue" stroke="midnightblue" points="439.831,-272.111 433.139,-280.324 443.493,-278.077 439.831,-272.111"/>
</g>
<!-- Node5 -->
<g id="node5" class="node"><title>Node5</title>
<g id="a_node5"><a xlink:href="probability__analysis_8h.xhtml" target="_top" xlink:title="Contains functionality to do numerical analysis of probabilities. ">
<polygon fill="white" stroke="black" points="271.5,-224.5 271.5,-243.5 390.5,-243.5 390.5,-224.5 271.5,-224.5"/>
<text text-anchor="middle" x="331" y="-231.5" font-family="Helvetica,sans-Serif" font-size="10.00">probability_analysis.h</text>
</a>
</g>
</g>
<!-- Node3&#45;&gt;Node5 -->
<g id="edge4" class="edge"><title>Node3&#45;&gt;Node5</title>
<path fill="none" stroke="midnightblue" d="M396.023,-274.901C379.887,-264.999 358.819,-252.071 345.104,-243.655"/>
<polygon fill="midnightblue" stroke="midnightblue" points="394.507,-278.077 404.861,-280.324 398.169,-272.111 394.507,-278.077"/>
</g>
<!-- Node8 -->
<g id="node8" class="node"><title>Node8</title>
<g id="a_node8"><a xlink:href="reporter_8h.xhtml" target="_top" xlink:title="Reporter of results. ">
<polygon fill="white" stroke="black" points="219,-56.5 219,-75.5 283,-75.5 283,-56.5 219,-56.5"/>
<text text-anchor="middle" x="251" y="-63.5" font-family="Helvetica,sans-Serif" font-size="10.00">reporter.h</text>
</a>
</g>
</g>
<!-- Node3&#45;&gt;Node8 -->
<g id="edge21" class="edge"><title>Node3&#45;&gt;Node8</title>
<path fill="none" stroke="midnightblue" d="M351.075,-284.719C258.955,-274.772 98.0029,-241.73 29,-132 24.2681,-124.475 23.3735,-118.881 29,-112 52.5856,-83.1539 162.898,-72.3559 218.617,-68.6925"/>
<polygon fill="midnightblue" stroke="midnightblue" points="350.833,-288.212 361.136,-285.743 351.542,-281.248 350.833,-288.212"/>
</g>
<!-- Node11 -->
<g id="node11" class="node"><title>Node11</title>
<g id="a_node11"><a xlink:href="risk__analysis_8h.xhtml" target="_top" xlink:title="Contains the main system for performing analysis. ">
<polygon fill="white" stroke="black" points="444,-112.5 444,-131.5 530,-131.5 530,-112.5 444,-112.5"/>
<text text-anchor="middle" x="487" y="-119.5" font-family="Helvetica,sans-Serif" font-size="10.00">risk_analysis.h</text>
</a>
</g>
</g>
<!-- Node3&#45;&gt;Node11 -->
<g id="edge22" class="edge"><title>Node3&#45;&gt;Node11</title>
<path fill="none" stroke="midnightblue" d="M419.746,-270.376C421.363,-255.669 426.016,-235.733 439,-224 499.53,-169.3 567.276,-251.093 619,-188 646.693,-154.22 578.494,-136.566 530.152,-128.567"/>
<polygon fill="midnightblue" stroke="midnightblue" points="416.253,-270.152 419.014,-280.381 423.234,-270.663 416.253,-270.152"/>
</g>
<!-- Node6 -->
<g id="node6" class="node"><title>Node6</title>
<g id="a_node6"><a xlink:href="importance__analysis_8h.xhtml" target="_top" xlink:title="Contains functionality to do numerical analysis of importance factors. ">
<polygon fill="white" stroke="black" points="164,-168.5 164,-187.5 288,-187.5 288,-168.5 164,-168.5"/>
<text text-anchor="middle" x="226" y="-175.5" font-family="Helvetica,sans-Serif" font-size="10.00">importance_analysis.h</text>
</a>
</g>
</g>
<!-- Node5&#45;&gt;Node6 -->
<g id="edge5" class="edge"><title>Node5&#45;&gt;Node6</title>
<path fill="none" stroke="midnightblue" d="M305.19,-219.726C285.747,-209.727 259.652,-196.307 242.828,-187.655"/>
<polygon fill="midnightblue" stroke="midnightblue" points="303.636,-222.863 314.13,-224.324 306.838,-216.638 303.636,-222.863"/>
</g>
<!-- Node5&#45;&gt;Node8 -->
<g id="edge15" class="edge"><title>Node5&#45;&gt;Node8</title>
<path fill="none" stroke="midnightblue" d="M261.143,-223.978C217.943,-216.804 168.279,-205.102 155,-188 149.548,-180.979 151.703,-176.255 155,-168 171.87,-125.764 215.736,-91.0921 237.849,-75.6528"/>
<polygon fill="midnightblue" stroke="midnightblue" points="260.672,-227.447 271.1,-225.573 261.779,-220.536 260.672,-227.447"/>
</g>
<!-- Node5&#45;&gt;Node11 -->
<g id="edge16" class="edge"><title>Node5&#45;&gt;Node11</title>
<path fill="none" stroke="midnightblue" d="M373.36,-221.28C394.528,-214.018 419.678,-203.144 439,-188 459.316,-172.078 475.224,-145.465 482.566,-131.754"/>
<polygon fill="midnightblue" stroke="midnightblue" points="372.057,-218.023 363.642,-224.46 374.234,-224.676 372.057,-218.023"/>
</g>
<!-- Node5&#45;&gt;Node13 -->
<g id="edge14" class="edge"><title>Node5&#45;&gt;Node13</title>
<path fill="none" stroke="midnightblue" d="M375.108,-222.024C416.1,-211.823 476.304,-196.841 513.777,-187.516"/>
<polygon fill="midnightblue" stroke="midnightblue" points="374.243,-218.632 365.384,-224.444 375.934,-225.425 374.243,-218.632"/>
</g>
<!-- Node14 -->
<g id="node14" class="node"><title>Node14</title>
<g id="a_node14"><a xlink:href="uncertainty__analysis_8h.xhtml" target="_top" xlink:title="Provides functionality for uncertainty analysis with Monte Carlo method. ">
<polygon fill="white" stroke="black" points="306.5,-168.5 306.5,-187.5 429.5,-187.5 429.5,-168.5 306.5,-168.5"/>
<text text-anchor="middle" x="368" y="-175.5" font-family="Helvetica,sans-Serif" font-size="10.00">uncertainty_analysis.h</text>
</a>
</g>
</g>
<!-- Node5&#45;&gt;Node14 -->
<g id="edge17" class="edge"><title>Node5&#45;&gt;Node14</title>
<path fill="none" stroke="midnightblue" d="M342.946,-215.566C349.312,-206.275 356.867,-195.248 362.004,-187.751"/>
<polygon fill="midnightblue" stroke="midnightblue" points="339.875,-213.855 337.11,-224.083 345.649,-217.812 339.875,-213.855"/>
</g>
<!-- Node6&#45;&gt;Node7 -->
<g id="edge6" class="edge"><title>Node6&#45;&gt;Node7</title>
<path fill="none" stroke="midnightblue" d="M196.993,-164.368C173.771,-154.255 141.837,-140.349 121.556,-131.516"/>
<polygon fill="midnightblue" stroke="midnightblue" points="195.786,-167.66 206.352,-168.444 198.581,-161.242 195.786,-167.66"/>
</g>
<!-- Node6&#45;&gt;Node8 -->
<g id="edge7" class="edge"><title>Node6&#45;&gt;Node8</title>
<path fill="none" stroke="midnightblue" d="M230.239,-158.348C235.715,-134.254 245.021,-93.3079 249.047,-75.5914"/>
<polygon fill="midnightblue" stroke="midnightblue" points="226.765,-157.841 227.962,-168.368 233.591,-159.393 226.765,-157.841"/>
</g>
<!-- Node6&#45;&gt;Node11 -->
<g id="edge10" class="edge"><title>Node6&#45;&gt;Node11</title>
<path fill="none" stroke="midnightblue" d="M277.187,-166.41C326.513,-156.204 400.195,-140.96 445.837,-131.516"/>
<polygon fill="midnightblue" stroke="midnightblue" points="276.44,-162.99 267.356,-168.444 277.858,-169.845 276.44,-162.99"/>
</g>
<!-- Node9 -->
<g id="node9" class="node"><title>Node9</title>
<g id="a_node9"><a xlink:href="reporter_8cc.xhtml" target="_top" xlink:title="Implements Reporter class. ">
<polygon fill="white" stroke="black" points="217,-0.5 217,-19.5 285,-19.5 285,-0.5 217,-0.5"/>
<text text-anchor="middle" x="251" y="-7.5" font-family="Helvetica,sans-Serif" font-size="10.00">reporter.cc</text>
</a>
</g>
</g>
<!-- Node8&#45;&gt;Node9 -->
<g id="edge8" class="edge"><title>Node8&#45;&gt;Node9</title>
<path fill="none" stroke="midnightblue" d="M251,-45.8045C251,-36.9102 251,-26.7798 251,-19.7511"/>
<polygon fill="midnightblue" stroke="midnightblue" points="247.5,-46.083 251,-56.083 254.5,-46.083 247.5,-46.083"/>
</g>
<!-- Node10 -->
<g id="node10" class="node"><title>Node10</title>
<g id="a_node10"><a xlink:href="scram_8cc.xhtml" target="_top" xlink:title="Main entrance. ">
<polygon fill="white" stroke="black" points="337,-0.5 337,-19.5 397,-19.5 397,-0.5 337,-0.5"/>
<text text-anchor="middle" x="367" y="-7.5" font-family="Helvetica,sans-Serif" font-size="10.00">scram.cc</text>
</a>
</g>
</g>
<!-- Node8&#45;&gt;Node10 -->
<g id="edge9" class="edge"><title>Node8&#45;&gt;Node10</title>
<path fill="none" stroke="midnightblue" d="M278.72,-52.096C300.392,-42.0073 329.902,-28.2697 348.705,-19.5164"/>
<polygon fill="midnightblue" stroke="midnightblue" points="276.969,-49.0501 269.381,-56.4435 279.923,-55.3962 276.969,-49.0501"/>
</g>
<!-- Node11&#45;&gt;Node8 -->
<g id="edge11" class="edge"><title>Node11&#45;&gt;Node8</title>
<path fill="none" stroke="midnightblue" d="M439.78,-110.195C393.352,-99.572 323.736,-83.6429 283.29,-74.3884"/>
<polygon fill="midnightblue" stroke="midnightblue" points="439.076,-113.625 449.605,-112.444 440.638,-106.801 439.076,-113.625"/>
</g>
<!-- Node11&#45;&gt;Node10 -->
<g id="edge13" class="edge"><title>Node11&#45;&gt;Node10</title>
<path fill="none" stroke="midnightblue" d="M470.104,-105.512C444.462,-82.0068 396.574,-38.1096 376.372,-19.5914"/>
<polygon fill="midnightblue" stroke="midnightblue" points="467.847,-108.191 477.584,-112.368 472.577,-103.031 467.847,-108.191"/>
</g>
<!-- Node11&#45;&gt;Node12 -->
<g id="edge12" class="edge"><title>Node11&#45;&gt;Node12</title>
<path fill="none" stroke="midnightblue" d="M532.667,-110.088C575.364,-99.8865 638.248,-84.8612 677.357,-75.5164"/>
<polygon fill="midnightblue" stroke="midnightblue" points="531.723,-106.715 522.81,-112.444 533.35,-113.524 531.723,-106.715"/>
</g>
<!-- Node14&#45;&gt;Node8 -->
<g id="edge19" class="edge"><title>Node14&#45;&gt;Node8</title>
<path fill="none" stroke="midnightblue" d="M336.877,-163.998C321.196,-156.347 302.663,-145.51 289,-132 271.897,-115.089 259.749,-88.9083 254.268,-75.5195"/>
<polygon fill="midnightblue" stroke="midnightblue" points="335.661,-167.293 346.204,-168.346 338.619,-160.948 335.661,-167.293"/>
</g>
<!-- Node14&#45;&gt;Node11 -->
<g id="edge18" class="edge"><title>Node14&#45;&gt;Node11</title>
<path fill="none" stroke="midnightblue" d="M396.137,-164.232C418.396,-154.131 448.856,-140.309 468.232,-131.516"/>
<polygon fill="midnightblue" stroke="midnightblue" points="394.516,-161.124 386.856,-168.444 397.409,-167.498 394.516,-161.124"/>
</g>
<!-- Node15 -->
<g id="node15" class="node"><title>Node15</title>
<g id="a_node15"><a xlink:href="uncertainty__analysis_8cc.xhtml" target="_top" xlink:title="Implements the functionality to run Monte Carlo simulations. ">
<polygon fill="white" stroke="black" points="298,-112.5 298,-131.5 426,-131.5 426,-112.5 298,-112.5"/>
<text text-anchor="middle" x="362" y="-119.5" font-family="Helvetica,sans-Serif" font-size="10.00">uncertainty_analysis.cc</text>
</a>
</g>
</g>
<!-- Node14&#45;&gt;Node15 -->
<g id="edge20" class="edge"><title>Node14&#45;&gt;Node15</title>
<path fill="none" stroke="midnightblue" d="M365.9,-158.101C364.904,-149.136 363.762,-138.858 362.972,-131.751"/>
<polygon fill="midnightblue" stroke="midnightblue" points="362.426,-158.531 367.009,-168.083 369.383,-157.758 362.426,-158.531"/>
</g>
<!-- Node16&#45;&gt;Node12 -->
<g id="edge26" class="edge"><title>Node16&#45;&gt;Node12</title>
<path fill="none" stroke="midnightblue" d="M672.504,-273.19C680.493,-265.278 689.113,-255.039 694,-244 720.524,-184.089 716.148,-102.021 713.86,-75.5794"/>
<polygon fill="midnightblue" stroke="midnightblue" points="669.828,-270.899 664.886,-280.271 674.594,-276.026 669.828,-270.899"/>
</g>
<!-- Node17 -->
<g id="node17" class="node"><title>Node17</title>
<g id="a_node17"><a xlink:href="mocus_8cc.xhtml" target="_top" xlink:title="Implementation of the MOCUS algorithm. ">
<polygon fill="white" stroke="black" points="623,-224.5 623,-243.5 685,-243.5 685,-224.5 623,-224.5"/>
<text text-anchor="middle" x="654" y="-231.5" font-family="Helvetica,sans-Serif" font-size="10.00">mocus.cc</text>
</a>
</g>
</g>
<!-- Node16&#45;&gt;Node17 -->
<g id="edge25" class="edge"><title>Node16&#45;&gt;Node17</title>
<path fill="none" stroke="midnightblue" d="M654,-269.805C654,-260.91 654,-250.78 654,-243.751"/>
<polygon fill="midnightblue" stroke="midnightblue" points="650.5,-270.083 654,-280.083 657.5,-270.083 650.5,-270.083"/>
</g>
</g>
</svg>
